<?xml version="1.0" encoding="utf-8" standalone="no"?>
<!DOCTYPE svg PUBLIC "-//W3C//DTD SVG 1.1//EN" "http://www.w3.org/Graphics/SVG/1.1/DTD/svg11.dtd">
<svg width="3000px" height="3000px" version="1.1" xmlns="http://www.w3.org/2000/svg" xmlns:xlink="http://www.w3.org/1999/xlink">
<g id="bg">
<rect x="0" y="0" width="3000px" height="3000px" style="fill:rgb(255,255,255);"/>
</g>
<g id="ideograms">
<path d="M1500.000,535.000 A965.000,965.000 40.000 0,1 1601.714,540.376 L1618.579,381.267 A1125.000,1125.000 0.000 0,0 1500.000,375.000 Z" style="stroke-width:2.0;stroke:rgb(115,115,115);stroke-linecap:round;fill:rgb(153,204,255);" />
<text x="1633.1" y="307.4" font-size="195.0px" font-family="CMUBright-Bold" style="text-anchor:start;fill:rgb(0,0,0);" transform="rotate(273.0,1633.1,307.4)" >4</text>
<path d="M1500.000,535.000 A965.000,965.000 40.000 0,1 1601.714,540.376 L1618.579,381.267 A1125.000,1125.000 0.000 0,0 1500.000,375.000 Z" style="stroke-width:2.0;stroke:rgb(115,115,115);stroke-linecap:round;fill:none;" />
<path d="M1672.307,550.508 A965.000,965.000 40.000 0,1 1771.427,573.959 L1816.431,420.418 A1125.000,1125.000 0.000 0,0 1700.877,393.079 Z" style="stroke-width:2.0;stroke:rgb(115,115,115);stroke-linecap:round;fill:rgb(153,204,255);" />
<text x="1847.7" y="351.5" font-size="195.0px" font-family="CMUBright-Bold" style="text-anchor:start;fill:rgb(0,0,0);" transform="rotate(283.3,1847.7,351.5)" >6</text>
<path d="M1672.307,550.508 A965.000,965.000 40.000 0,1 1771.427,573.959 L1816.431,420.418 A1125.000,1125.000 0.000 0,0 1700.877,393.079 Z" style="stroke-width:2.0;stroke:rgb(115,115,115);stroke-linecap:round;fill:none;" />
<path d="M1839.077,596.533 A965.000,965.000 40.000 0,1 1932.417,637.306 L2004.113,494.269 A1125.000,1125.000 0.000 0,0 1895.297,446.736 Z" style="stroke-width:2.0;stroke:rgb(115,115,115);stroke-linecap:round;fill:rgb(153,204,255);" />
<text x="2047.2" y="432.0" font-size="195.0px" font-family="CMUBright-Bold" style="text-anchor:start;fill:rgb(0,0,0);" transform="rotate(293.6,2047.2,432.0)" >8</text>
<path d="M1839.077,596.533 A965.000,965.000 40.000 0,1 1932.417,637.306 L2004.113,494.269 A1125.000,1125.000 0.000 0,0 1895.297,446.736 Z" style="stroke-width:2.0;stroke:rgb(115,115,115);stroke-linecap:round;fill:none;" />
<path d="M1994.948,671.597 A965.000,965.000 40.000 0,1 2079.507,728.381 L2175.592,600.444 A1125.000,1125.000 0.000 0,0 2077.012,534.245 Z" style="stroke-width:2.0;stroke:rgb(115,115,115);stroke-linecap:round;fill:rgb(153,204,255);" />
<text x="2229.1" y="546.9" font-size="195.0px" font-family="CMUBright-Bold" style="text-anchor:start;fill:rgb(0,0,0);" transform="rotate(303.9,2229.1,546.9)" >15</text>
<path d="M1994.948,671.597 A965.000,965.000 40.000 0,1 2079.507,728.381 L2175.592,600.444 A1125.000,1125.000 0.000 0,0 2077.012,534.245 Z" style="stroke-width:2.0;stroke:rgb(115,115,115);stroke-linecap:round;fill:none;" />
<path d="M2134.911,773.286 A965.000,965.000 40.000 0,1 2207.972,844.256 L2325.356,735.532 A1125.000,1125.000 0.000 0,0 2240.181,652.795 Z" style="stroke-width:2.0;stroke:rgb(115,115,115);stroke-linecap:round;fill:rgb(153,204,255);" />
<text x="2387.6" y="692.4" font-size="195.0px" font-family="CMUBright-Bold" style="text-anchor:start;fill:rgb(0,0,0);" transform="rotate(314.2,2387.6,692.4)" >19</text>
<path d="M2134.911,773.286 A965.000,965.000 40.000 0,1 2207.972,844.256 L2325.356,735.532 A1125.000,1125.000 0.000 0,0 2240.181,652.795 Z" style="stroke-width:2.0;stroke:rgb(115,115,115);stroke-linecap:round;fill:none;" />
<path d="M2254.467,898.332 A965.000,965.000 40.000 0,1 2313.683,981.207 L2448.594,895.190 A1125.000,1125.000 0.000 0,0 2379.560,798.574 Z" style="stroke-width:2.0;stroke:rgb(115,115,115);stroke-linecap:round;fill:rgb(153,204,255);" />
<text x="2517.5" y="863.9" font-size="195.0px" font-family="CMUBright-Bold" style="text-anchor:start;fill:rgb(0,0,0);" transform="rotate(324.5,2517.5,863.9)" >26</text>
<path d="M2254.467,898.332 A965.000,965.000 40.000 0,1 2313.683,981.207 L2448.594,895.190 A1125.000,1125.000 0.000 0,0 2379.560,798.574 Z" style="stroke-width:2.0;stroke:rgb(115,115,115);stroke-linecap:round;fill:none;" />
<path d="M2349.775,1042.717 A965.000,965.000 40.000 0,1 2393.240,1134.833 L2541.342,1074.288 A1125.000,1125.000 0.000 0,0 2490.670,966.898 Z" style="stroke-width:2.0;stroke:rgb(115,115,115);stroke-linecap:round;fill:rgb(153,204,255);" />
<text x="2614.7" y="1055.8" font-size="195.0px" font-family="CMUBright-Bold" style="text-anchor:start;fill:rgb(0,0,0);" transform="rotate(334.7,2614.7,1055.8)" >35</text>
<path d="M2349.775,1042.717 A965.000,965.000 40.000 0,1 2393.240,1134.833 L2541.342,1074.288 A1125.000,1125.000 0.000 0,0 2490.670,966.898 Z" style="stroke-width:2.0;stroke:rgb(115,115,115);stroke-linecap:round;fill:none;" />
<path d="M2417.770,1201.799 A965.000,965.000 40.000 0,1 2444.089,1300.196 L2600.621,1267.068 A1125.000,1125.000 0.000 0,0 2569.939,1152.356 Z" style="stroke-width:2.0;stroke:rgb(115,115,115);stroke-linecap:round;fill:rgb(116,196,118);" />
<text x="2675.8" y="1260.0" font-size="195.0px" font-family="CMUBright-Bold" style="text-anchor:start;fill:rgb(0,0,0);" transform="rotate(345.0,2675.8,1260.0)" >2</text>
<path d="M2417.770,1201.799 A965.000,965.000 40.000 0,1 2444.089,1300.196 L2600.621,1267.068 A1125.000,1125.000 0.000 0,0 2569.939,1152.356 Z" style="stroke-width:2.0;stroke:rgb(115,115,115);stroke-linecap:round;fill:none;" />
<path d="M2456.267,1370.465 A965.000,965.000 40.000 0,1 2464.593,1471.980 L2624.526,1467.335 A1125.000,1125.000 0.000 0,0 2614.818,1348.988 Z" style="stroke-width:2.0;stroke:rgb(115,115,115);stroke-linecap:round;fill:rgb(116,196,118);" />
<text x="2699.8" y="1475.8" font-size="195.0px" font-family="CMUBright-Bold" style="text-anchor:start;fill:rgb(0,0,0);" transform="rotate(355.3,2699.8,1475.8)" >3</text>
<path d="M2456.267,1370.465 A965.000,965.000 40.000 0,1 2464.593,1471.980 L2624.526,1467.335 A1125.000,1125.000 0.000 0,0 2614.818,1348.988 Z" style="stroke-width:2.0;stroke:rgb(115,115,115);stroke-linecap:round;fill:none;" />
<path d="M2464.028,1543.295 A965.000,965.000 40.000 0,1 2454.095,1644.665 L2612.287,1668.651 A1125.000,1125.000 0.000 0,0 2623.867,1550.473 Z" style="stroke-width:2.0;stroke:rgb(115,115,115);stroke-linecap:round;fill:rgb(116,196,118);" />
<text x="2685.1" y="1688.4" font-size="195.0px" font-family="CMUBright-Bold" style="text-anchor:start;fill:rgb(0,0,0);" transform="rotate(5.6,2685.1,1688.4)" >14</text>
<path d="M2464.028,1543.295 A965.000,965.000 40.000 0,1 2454.095,1644.665 L2612.287,1668.651 A1125.000,1125.000 0.000 0,0 2623.867,1550.473 Z" style="stroke-width:2.0;stroke:rgb(115,115,115);stroke-linecap:round;fill:none;" />
<path d="M2440.805,1714.733 A965.000,965.000 40.000 0,1 2412.931,1812.701 L2564.298,1864.548 A1125.000,1125.000 0.000 0,0 2596.794,1750.336 Z" style="stroke-width:2.0;stroke:rgb(115,115,115);stroke-linecap:round;fill:rgb(116,196,118);" />
<text x="2632.4" y="1897.0" font-size="195.0px" font-family="CMUBright-Bold" style="text-anchor:start;fill:rgb(0,0,0);" transform="rotate(15.9,2632.4,1897.0)" >22</text>
<path d="M2440.805,1714.733 A965.000,965.000 40.000 0,1 2412.931,1812.701 L2564.298,1864.548 A1125.000,1125.000 0.000 0,0 2596.794,1750.336 Z" style="stroke-width:2.0;stroke:rgb(115,115,115);stroke-linecap:round;fill:none;" />
<path d="M2387.344,1879.269 A965.000,965.000 40.000 0,1 2342.425,1970.686 L2482.102,2048.727 A1125.000,1125.000 0.000 0,0 2534.469,1942.153 Z" style="stroke-width:2.0;stroke:rgb(115,115,115);stroke-linecap:round;fill:rgb(116,196,118);" />
<text x="2543.3" y="2092.8" font-size="195.0px" font-family="CMUBright-Bold" style="text-anchor:start;fill:rgb(0,0,0);" transform="rotate(26.2,2543.3,2092.8)" >24</text>
<path d="M2387.344,1879.269 A965.000,965.000 40.000 0,1 2342.425,1970.686 L2482.102,2048.727 A1125.000,1125.000 0.000 0,0 2534.469,1942.153 Z" style="stroke-width:2.0;stroke:rgb(115,115,115);stroke-linecap:round;fill:none;" />
<path d="M2305.363,2031.616 A965.000,965.000 40.000 0,1 2244.843,2113.542 L2368.340,2215.270 A1125.000,1125.000 0.000 0,0 2438.895,2119.759 Z" style="stroke-width:2.0;stroke:rgb(115,115,115);stroke-linecap:round;fill:rgb(153,0,204);" />
<text x="2420.7" y="2269.6" font-size="195.0px" font-family="CMUBright-Bold" style="text-anchor:start;fill:rgb(0,0,0);" transform="rotate(36.5,2420.7,2269.6)" >1</text>
<path d="M2305.363,2031.616 A965.000,965.000 40.000 0,1 2244.843,2113.542 L2368.340,2215.270 A1125.000,1125.000 0.000 0,0 2438.895,2119.759 Z" style="stroke-width:2.0;stroke:rgb(115,115,115);stroke-linecap:round;fill:none;" />
<path d="M2197.497,2166.875 A965.000,965.000 40.000 0,1 2123.321,2236.679 L2226.669,2358.823 A1125.000,1125.000 0.000 0,0 2313.144,2277.445 Z" style="stroke-width:2.0;stroke:rgb(115,115,115);stroke-linecap:round;fill:rgb(153,0,204);" />
<text x="2269.3" y="2421.0" font-size="195.0px" font-family="CMUBright-Bold" style="text-anchor:start;fill:rgb(0,0,0);" transform="rotate(46.7,2269.3,2421.0)" >7</text>
<path d="M2197.497,2166.875 A965.000,965.000 40.000 0,1 2123.321,2236.679 L2226.669,2358.823 A1125.000,1125.000 0.000 0,0 2313.144,2277.445 Z" style="stroke-width:2.0;stroke:rgb(115,115,115);stroke-linecap:round;fill:none;" />
<path d="M2067.213,2280.701 A965.000,965.000 40.000 0,1 1981.764,2336.139 L2061.642,2474.773 A1125.000,1125.000 0.000 0,0 2161.258,2410.144 Z" style="stroke-width:2.0;stroke:rgb(115,115,115);stroke-linecap:round;fill:rgb(153,0,204);" />
<text x="2089.8" y="2545.0" font-size="195.0px" font-family="CMUBright-Bold" style="text-anchor:start;fill:rgb(0,0,0);" transform="rotate(57.0,2089.8,2545.0)" >9</text>
<path d="M2067.213,2280.701 A965.000,965.000 40.000 0,1 1981.764,2336.139 L2061.642,2474.773 A1125.000,1125.000 0.000 0,0 2161.258,2410.144 Z" style="stroke-width:2.0;stroke:rgb(115,115,115);stroke-linecap:round;fill:none;" />
<path d="M1918.698,2369.435 A965.000,965.000 40.000 0,1 1824.724,2408.724 L1878.564,2559.393 A1125.000,1125.000 0.000 0,0 1988.119,2513.590 Z" style="stroke-width:2.0;stroke:rgb(115,115,115);stroke-linecap:round;fill:rgb(153,0,204);" />
<text x="1894.7" y="2633.2" font-size="195.0px" font-family="CMUBright-Bold" style="text-anchor:start;fill:rgb(0,0,0);" transform="rotate(67.3,1894.7,2633.2)" >17</text>
<path d="M1918.698,2369.435 A965.000,965.000 40.000 0,1 1824.724,2408.724 L1878.564,2559.393 A1125.000,1125.000 0.000 0,0 1988.119,2513.590 Z" style="stroke-width:2.0;stroke:rgb(115,115,115);stroke-linecap:round;fill:none;" />
<path d="M1756.726,2430.224 A965.000,965.000 40.000 0,1 1657.246,2452.102 L1683.318,2609.964 A1125.000,1125.000 0.000 0,0 1799.291,2584.458 Z" style="stroke-width:2.0;stroke:rgb(115,115,115);stroke-linecap:round;fill:rgb(153,0,204);" />
<text x="1685.0" y="2685.6" font-size="195.0px" font-family="CMUBright-Bold" style="text-anchor:start;fill:rgb(0,0,0);" transform="rotate(77.6,1685.0,2685.6)" >34</text>
<path d="M1756.726,2430.224 A965.000,965.000 40.000 0,1 1657.246,2452.102 L1683.318,2609.964 A1125.000,1125.000 0.000 0,0 1799.291,2584.458 Z" style="stroke-width:2.0;stroke:rgb(115,115,115);stroke-linecap:round;fill:none;" />
<path d="M1586.502,2461.115 A965.000,965.000 40.000 0,1 1484.715,2464.879 L1482.181,2624.859 A1125.000,1125.000 0.000 0,0 1600.844,2620.471 Z" style="stroke-width:2.0;stroke:rgb(115,115,115);stroke-linecap:round;fill:rgb(253,208,162);" />
<text x="1472.4" y="2699.7" font-size="195.0px" font-family="CMUBright-Bold" style="text-anchor:start;fill:rgb(0,0,0);" transform="rotate(87.9,1472.4,2699.7)" >5</text>
<path d="M1586.502,2461.115 A965.000,965.000 40.000 0,1 1484.715,2464.879 L1482.181,2624.859 A1125.000,1125.000 0.000 0,0 1600.844,2620.471 Z" style="stroke-width:2.0;stroke:rgb(115,115,115);stroke-linecap:round;fill:none;" />
<path d="M1413.498,2461.115 A965.000,965.000 40.000 0,1 1312.675,2446.644 L1281.616,2603.600 A1125.000,1125.000 0.000 0,0 1399.156,2620.471 Z" style="stroke-width:2.0;stroke:rgb(115,115,115);stroke-linecap:round;fill:rgb(253,208,162);" />
<text x="1403.0" y="2696.1" font-size="195.0px" font-family="CMUBright-Bold" style="text-anchor:end;fill:rgb(0,0,0);" transform="rotate(-81.8,1403.0,2696.1)" >10</text>
<path d="M1413.498,2461.115 A965.000,965.000 40.000 0,1 1312.675,2446.644 L1281.616,2603.600 A1125.000,1125.000 0.000 0,0 1399.156,2620.471 Z" style="stroke-width:2.0;stroke:rgb(115,115,115);stroke-linecap:round;fill:none;" />
<path d="M1243.274,2430.224 A965.000,965.000 40.000 0,1 1146.656,2397.983 L1088.070,2546.871 A1125.000,1125.000 0.000 0,0 1200.709,2584.458 Z" style="stroke-width:2.0;stroke:rgb(115,115,115);stroke-linecap:round;fill:rgb(253,208,162);" />
<text x="1189.1" y="2659.0" font-size="195.0px" font-family="CMUBright-Bold" style="text-anchor:end;fill:rgb(0,0,0);" transform="rotate(-71.5,1189.1,2659.0)" >12</text>
<path d="M1243.274,2430.224 A965.000,965.000 40.000 0,1 1146.656,2397.983 L1088.070,2546.871 A1125.000,1125.000 0.000 0,0 1200.709,2584.458 Z" style="stroke-width:2.0;stroke:rgb(115,115,115);stroke-linecap:round;fill:none;" />
<path d="M1081.302,2369.435 A965.000,965.000 40.000 0,1 991.993,2320.460 L907.764,2456.494 A1125.000,1125.000 0.000 0,0 1011.881,2513.590 Z" style="stroke-width:2.0;stroke:rgb(115,115,115);stroke-linecap:round;fill:rgb(253,208,162);" />
<text x="988.9" y="2585.7" font-size="195.0px" font-family="CMUBright-Bold" style="text-anchor:end;fill:rgb(0,0,0);" transform="rotate(-61.3,988.9,2585.7)" >16</text>
<path d="M1081.302,2369.435 A965.000,965.000 40.000 0,1 991.993,2320.460 L907.764,2456.494 A1125.000,1125.000 0.000 0,0 1011.881,2513.590 Z" style="stroke-width:2.0;stroke:rgb(115,115,115);stroke-linecap:round;fill:none;" />
<path d="M932.787,2280.701 A965.000,965.000 40.000 0,1 853.658,2216.566 L746.493,2335.375 A1125.000,1125.000 0.000 0,0 838.742,2410.144 Z" style="stroke-width:2.0;stroke:rgb(115,115,115);stroke-linecap:round;fill:rgb(253,208,162);" />
<text x="803.3" y="2477.0" font-size="195.0px" font-family="CMUBright-Bold" style="text-anchor:end;fill:rgb(0,0,0);" transform="rotate(-51.0,803.3,2477.0)" >20</text>
<path d="M932.787,2280.701 A965.000,965.000 40.000 0,1 853.658,2216.566 L746.493,2335.375 A1125.000,1125.000 0.000 0,0 838.742,2410.144 Z" style="stroke-width:2.0;stroke:rgb(115,115,115);stroke-linecap:round;fill:none;" />
<path d="M802.503,2166.875 A965.000,965.000 40.000 0,1 736.097,2089.642 L609.440,2187.406 A1125.000,1125.000 0.000 0,0 686.856,2277.445 Z" style="stroke-width:2.0;stroke:rgb(115,115,115);stroke-linecap:round;fill:rgb(253,208,162);" />
<text x="638.6" y="2335.5" font-size="195.0px" font-family="CMUBright-Bold" style="text-anchor:end;fill:rgb(0,0,0);" transform="rotate(-40.7,638.6,2335.5)" >21</text>
<path d="M802.503,2166.875 A965.000,965.000 40.000 0,1 736.097,2089.642 L609.440,2187.406 A1125.000,1125.000 0.000 0,0 686.856,2277.445 Z" style="stroke-width:2.0;stroke:rgb(115,115,115);stroke-linecap:round;fill:none;" />
<path d="M694.637,2031.616 A965.000,965.000 40.000 0,1 643.089,1943.766 L501.010,2017.344 A1125.000,1125.000 0.000 0,0 561.105,2119.759 Z" style="stroke-width:2.0;stroke:rgb(115,115,115);stroke-linecap:round;fill:rgb(253,141,60);" />
<text x="503.3" y="2168.3" font-size="195.0px" font-family="CMUBright-Bold" style="text-anchor:end;fill:rgb(0,0,0);" transform="rotate(-30.4,503.3,2168.3)" >11</text>
<path d="M694.637,2031.616 A965.000,965.000 40.000 0,1 643.089,1943.766 L501.010,2017.344 A1125.000,1125.000 0.000 0,0 561.105,2119.759 Z" style="stroke-width:2.0;stroke:rgb(115,115,115);stroke-linecap:round;fill:none;" />
<path d="M612.656,1879.269 A965.000,965.000 40.000 0,1 577.622,1783.627 L424.689,1830.653 A1125.000,1125.000 0.000 0,0 465.531,1942.153 Z" style="stroke-width:2.0;stroke:rgb(115,115,115);stroke-linecap:round;fill:rgb(253,141,60);" />
<text x="400.8" y="1981.4" font-size="195.0px" font-family="CMUBright-Bold" style="text-anchor:end;fill:rgb(0,0,0);" transform="rotate(-20.1,400.8,1981.4)" >30</text>
<path d="M612.656,1879.269 A965.000,965.000 40.000 0,1 577.622,1783.627 L424.689,1830.653 A1125.000,1125.000 0.000 0,0 465.531,1942.153 Z" style="stroke-width:2.0;stroke:rgb(115,115,115);stroke-linecap:round;fill:none;" />
<path d="M559.195,1714.733 A965.000,965.000 40.000 0,1 541.802,1614.372 L382.929,1633.336 A1125.000,1125.000 0.000 0,0 403.206,1750.336 Z" style="stroke-width:2.0;stroke:rgb(115,115,115);stroke-linecap:round;fill:rgb(253,141,60);" />
<text x="332.5" y="1777.4" font-size="195.0px" font-family="CMUBright-Bold" style="text-anchor:end;fill:rgb(0,0,0);" transform="rotate(-9.8,332.5,1777.4)" >31</text>
<path d="M559.195,1714.733 A965.000,965.000 40.000 0,1 541.802,1614.372 L382.929,1633.336 A1125.000,1125.000 0.000 0,0 403.206,1750.336 Z" style="stroke-width:2.0;stroke:rgb(115,115,115);stroke-linecap:round;fill:none;" />
<path d="M535.972,1543.295 A965.000,965.000 40.000 0,1 536.778,1441.441 L377.073,1431.732 A1125.000,1125.000 0.000 0,0 376.133,1550.473 Z" style="stroke-width:2.0;stroke:rgb(115,115,115);stroke-linecap:round;fill:rgb(253,141,60);" />
<text x="301.7" y="1564.5" font-size="195.0px" font-family="CMUBright-Bold" style="text-anchor:end;fill:rgb(0,0,0);" transform="rotate(0.5,301.7,1564.5)" >32</text>
<path d="M535.972,1543.295 A965.000,965.000 40.000 0,1 536.778,1441.441 L377.073,1431.732 A1125.000,1125.000 0.000 0,0 376.133,1550.473 Z" style="stroke-width:2.0;stroke:rgb(115,115,115);stroke-linecap:round;fill:none;" />
<path d="M543.733,1370.465 A965.000,965.000 40.000 0,1 562.714,1270.393 L407.309,1232.323 A1125.000,1125.000 0.000 0,0 385.182,1348.988 Z" style="stroke-width:2.0;stroke:rgb(115,115,115);stroke-linecap:round;fill:rgb(253,141,60);" />
<text x="309.5" y="1349.5" font-size="195.0px" font-family="CMUBright-Bold" style="text-anchor:end;fill:rgb(0,0,0);" transform="rotate(10.7,309.5,1349.5)" >33</text>
<path d="M543.733,1370.465 A965.000,965.000 40.000 0,1 562.714,1270.393 L407.309,1232.323 A1125.000,1125.000 0.000 0,0 385.182,1348.988 Z" style="stroke-width:2.0;stroke:rgb(115,115,115);stroke-linecap:round;fill:none;" />
<path d="M582.230,1201.799 A965.000,965.000 40.000 0,1 618.774,1106.724 L472.664,1041.517 A1125.000,1125.000 0.000 0,0 430.061,1152.356 Z" style="stroke-width:2.0;stroke:rgb(115,115,115);stroke-linecap:round;fill:rgb(66,146,198);" />
<text x="355.5" y="1139.3" font-size="195.0px" font-family="CMUBright-Bold" style="text-anchor:end;fill:rgb(0,0,0);" transform="rotate(21.0,355.5,1139.3)" >13</text>
<path d="M582.230,1201.799 A965.000,965.000 40.000 0,1 618.774,1106.724 L472.664,1041.517 A1125.000,1125.000 0.000 0,0 430.061,1152.356 Z" style="stroke-width:2.0;stroke:rgb(115,115,115);stroke-linecap:round;fill:none;" />
<path d="M650.225,1042.717 A965.000,965.000 40.000 0,1 703.158,955.695 L571.039,865.447 A1125.000,1125.000 0.000 0,0 509.330,966.898 Z" style="stroke-width:2.0;stroke:rgb(115,115,115);stroke-linecap:round;fill:rgb(66,146,198);" />
<text x="438.3" y="940.7" font-size="195.0px" font-family="CMUBright-Bold" style="text-anchor:end;fill:rgb(0,0,0);" transform="rotate(31.3,438.3,940.7)" >18</text>
<path d="M650.225,1042.717 A965.000,965.000 40.000 0,1 703.158,955.695 L571.039,865.447 A1125.000,1125.000 0.000 0,0 509.330,966.898 Z" style="stroke-width:2.0;stroke:rgb(115,115,115);stroke-linecap:round;fill:none;" />
<path d="M745.533,898.332 A965.000,965.000 40.000 0,1 813.153,822.160 L699.272,709.772 A1125.000,1125.000 0.000 0,0 620.440,798.574 Z" style="stroke-width:2.0;stroke:rgb(115,115,115);stroke-linecap:round;fill:rgb(66,146,198);" />
<text x="555.2" y="760.2" font-size="195.0px" font-family="CMUBright-Bold" style="text-anchor:end;fill:rgb(0,0,0);" transform="rotate(41.6,555.2,760.2)" >23</text>
<path d="M745.533,898.332 A965.000,965.000 40.000 0,1 813.153,822.160 L699.272,709.772 A1125.000,1125.000 0.000 0,0 620.440,798.574 Z" style="stroke-width:2.0;stroke:rgb(115,115,115);stroke-linecap:round;fill:none;" />
<path d="M865.089,773.286 A965.000,965.000 40.000 0,1 945.224,710.412 L853.241,579.496 A1125.000,1125.000 0.000 0,0 759.819,652.795 Z" style="stroke-width:2.0;stroke:rgb(115,115,115);stroke-linecap:round;fill:rgb(66,146,198);" />
<text x="702.5" y="603.4" font-size="195.0px" font-family="CMUBright-Bold" style="text-anchor:end;fill:rgb(0,0,0);" transform="rotate(51.9,702.5,603.4)" >25</text>
<path d="M865.089,773.286 A965.000,965.000 40.000 0,1 945.224,710.412 L853.241,579.496 A1125.000,1125.000 0.000 0,0 759.819,652.795 Z" style="stroke-width:2.0;stroke:rgb(115,115,115);stroke-linecap:round;fill:none;" />
<path d="M1005.052,671.597 A965.000,965.000 40.000 0,1 1095.126,624.042 L1027.997,478.806 A1125.000,1125.000 0.000 0,0 922.988,534.245 Z" style="stroke-width:2.0;stroke:rgb(115,115,115);stroke-linecap:round;fill:rgb(66,146,198);" />
<text x="876.3" y="474.8" font-size="195.0px" font-family="CMUBright-Bold" style="text-anchor:end;fill:rgb(0,0,0);" transform="rotate(62.2,876.3,474.8)" >27</text>
<path d="M1005.052,671.597 A965.000,965.000 40.000 0,1 1095.126,624.042 L1027.997,478.806 A1125.000,1125.000 0.000 0,0 922.988,534.245 Z" style="stroke-width:2.0;stroke:rgb(115,115,115);stroke-linecap:round;fill:none;" />
<path d="M1160.923,596.533 A965.000,965.000 40.000 0,1 1258.041,565.826 L1217.923,410.937 A1125.000,1125.000 0.000 0,0 1104.703,446.736 Z" style="stroke-width:2.0;stroke:rgb(115,115,115);stroke-linecap:round;fill:rgb(66,146,198);" />
<text x="1068.4" y="380.3" font-size="195.0px" font-family="CMUBright-Bold" style="text-anchor:end;fill:rgb(0,0,0);" transform="rotate(72.5,1068.4,380.3)" >28</text>
<path d="M1160.923,596.533 A965.000,965.000 40.000 0,1 1258.041,565.826 L1217.923,410.937 A1125.000,1125.000 0.000 0,0 1104.703,446.736 Z" style="stroke-width:2.0;stroke:rgb(115,115,115);stroke-linecap:round;fill:none;" />
<path d="M1327.693,550.508 A965.000,965.000 40.000 0,1 1428.732,537.635 L1416.916,378.072 A1125.000,1125.000 0.000 0,0 1299.123,393.079 Z" style="stroke-width:2.0;stroke:rgb(115,115,115);stroke-linecap:round;fill:rgb(66,146,198);" />
<text x="1275.3" y="321.2" font-size="195.0px" font-family="CMUBright-Bold" style="text-anchor:end;fill:rgb(0,0,0);" transform="rotate(82.7,1275.3,321.2)" >29</text>
<path d="M1327.693,550.508 A965.000,965.000 40.000 0,1 1428.732,537.635 L1416.916,378.072 A1125.000,1125.000 0.000 0,0 1299.123,393.079 Z" style="stroke-width:2.0;stroke:rgb(115,115,115);stroke-linecap:round;fill:none;" />
</g>
<g id="track_1">
<path d="M 2237.4,2044.7 L 2207.4,2023.1 2176.8,2002.1 2145.9,1982.0 2114.6,1962.9 2083.2,1944.9 2051.6,1928.3 2020.1,1913.1 1988.6,1899.4 1957.3,1887.4 1926.3,1877.2 1895.6,1868.8 1865.4,1862.2 1835.6,1857.7 1806.4,1855.2 1777.9,1854.8 1750.0,1856.5 1722.9,1860.3 1696.5,1866.3 1671.0,1874.4 1646.4,1884.7 1622.7,1897.2 1599.9,1911.7 1578.1,1928.3 1557.3,1947.0 1537.6,1967.6 1518.8,1990.1 1501.2,2014.5 1484.6,2040.6 1469.0,2068.4 1454.5,2097.6 1441.1,2128.3 1428.7,2160.3 1417.4,2193.5 1407.1,2227.6 1397.7,2262.6 1389.4,2298.3 1381.9,2334.4 1375.4,2370.9 1369.8,2407.5  " style="stroke-opacity: 1.000000; stroke-width: 5.0; stroke: rgb(251,106,74); fill: none"  />
<path d="M 2237.4,2044.7 L 2206.9,2022.7 2175.7,2001.4 2144.0,1981.0 2111.9,1961.5 2079.4,1943.2 2046.6,1926.2 2013.7,1910.6 1980.6,1896.5 1947.6,1884.0 1914.5,1873.1 1881.7,1864.1 1849.0,1856.9 1816.5,1851.7 1784.4,1848.4 1752.7,1847.2 1721.4,1848.0 1690.6,1850.9 1660.4,1855.8 1630.7,1862.9 1601.7,1872.1 1573.4,1883.3 1545.8,1896.7 1518.9,1912.0 1492.8,1929.3 1467.6,1948.6 1443.2,1969.7 1419.7,1992.7 1397.1,2017.3 1375.3,2043.6 1354.5,2071.5 1334.7,2100.7 1315.7,2131.3 1297.8,2163.0 1280.7,2195.7 1264.7,2229.4 1249.6,2263.8 1235.4,2298.7 1222.1,2334.1 1209.8,2369.6  " style="stroke-opacity: 1.000000; stroke-width: 5.0; stroke: rgb(251,106,74); fill: none"  />
<path d="M 2237.4,2044.7 L 2205.7,2021.9 2173.2,1999.7 2140.0,1978.3 2106.2,1957.7 2071.7,1938.2 2036.7,1919.8 2001.3,1902.7 1965.4,1886.9 1929.2,1872.4 1892.7,1859.5 1855.9,1848.2 1818.9,1838.4 1781.8,1830.4 1744.7,1824.1 1707.5,1819.5 1670.3,1816.8 1633.2,1815.9 1596.2,1816.8 1559.3,1819.6 1522.7,1824.3 1486.4,1830.8 1450.3,1839.2 1414.6,1849.4 1379.3,1861.3 1344.4,1875.1 1310.0,1890.5 1276.1,1907.6 1242.8,1926.3 1210.0,1946.5 1177.9,1968.2 1146.4,1991.2 1115.7,2015.5 1085.7,2041.0 1056.4,2067.6 1028.0,2095.1 1000.3,2123.4 973.6,2152.5 947.7,2182.1 922.8,2212.2  " style="stroke-opacity: 1.000000; stroke-width: 5.0; stroke: rgb(251,106,74); fill: none"  />
<path d="M 1711.1,607.9 L 1701.9,648.5 1693.3,689.7 1685.6,731.4 1678.7,773.5 1672.6,816.0 1667.6,858.8 1663.5,901.9 1660.4,945.2 1658.4,988.7 1657.5,1032.4 1657.8,1076.1 1659.2,1119.8 1661.9,1163.5 1665.7,1207.1 1670.8,1250.7 1677.1,1294.0 1684.7,1337.2 1693.6,1380.2 1703.6,1422.8 1715.0,1465.2 1727.5,1507.2 1741.3,1548.8 1756.3,1590.0 1772.5,1630.8 1789.8,1671.0 1808.3,1710.8 1827.8,1750.0 1848.4,1788.6 1870.0,1826.6 1892.5,1863.9 1915.9,1900.6 1940.2,1936.6 1965.3,1971.9 1991.1,2006.5 2017.5,2040.3 2044.5,2073.3 2072.1,2105.6 2100.0,2137.0 2128.3,2167.6  " style="stroke-opacity: 1.000000; stroke-width: 5.0; stroke: rgb(251,106,74); fill: none"  />
<path d="M 2128.3,2167.6 L 2100.0,2137.0 2072.1,2105.6 2044.5,2073.3 2017.5,2040.3 1991.1,2006.5 1965.3,1971.9 1940.2,1936.6 1915.9,1900.6 1892.5,1863.9 1870.0,1826.6 1848.4,1788.6 1827.8,1750.0 1808.3,1710.8 1789.8,1671.0 1772.5,1630.8 1756.3,1590.0 1741.3,1548.8 1727.5,1507.2 1715.0,1465.2 1703.6,1422.8 1693.6,1380.2 1684.7,1337.2 1677.1,1294.0 1670.8,1250.7 1665.7,1207.1 1661.9,1163.5 1659.2,1119.8 1657.8,1076.1 1657.5,1032.4 1658.4,988.7 1660.4,945.2 1663.5,901.9 1667.6,858.8 1672.6,816.0 1678.7,773.5 1685.6,731.4 1693.3,689.7 1701.9,648.5 1711.1,607.9  " style="stroke-opacity: 1.000000; stroke-width: 5.0; stroke: rgb(251,106,74); fill: none"  />
<path d="M 2128.3,2167.6 L 2102.6,2141.0 2076.3,2114.9 2049.4,2089.6 2022.1,2065.2 1994.4,2041.9 1966.3,2019.9 1937.9,1999.3 1909.4,1980.3 1880.8,1962.9 1852.1,1947.2 1823.4,1933.5 1794.8,1921.7 1766.4,1911.9 1738.1,1904.2 1710.1,1898.7 1682.3,1895.4 1655.0,1894.3 1628.0,1895.5 1601.4,1898.9 1575.3,1904.7 1549.8,1912.7 1524.8,1922.9 1500.4,1935.4 1476.6,1950.0 1453.5,1966.8 1431.0,1985.6 1409.3,2006.5 1388.3,2029.2 1368.0,2053.7 1348.6,2079.9 1329.9,2107.7 1312.0,2137.0 1294.9,2167.6 1278.6,2199.3 1263.2,2232.1 1248.6,2265.7 1234.8,2299.9 1221.9,2334.6 1209.8,2369.6  " style="stroke-opacity: 1.000000; stroke-width: 5.0; stroke: rgb(251,106,74); fill: none"  />
<path d="M 1867.0,659.9 L 1848.9,701.7 1830.9,743.7 1813.1,786.1 1795.5,828.7 1778.1,871.5 1760.9,914.6 1744.0,958.0 1727.3,1001.6 1710.8,1045.3 1694.7,1089.4 1678.8,1133.6 1663.2,1178.0 1647.9,1222.6 1632.9,1267.3 1618.3,1312.2 1604.0,1357.3 1590.0,1402.5 1576.3,1447.8 1563.0,1493.3 1550.0,1538.9 1537.4,1584.5 1525.2,1630.3 1513.3,1676.1 1501.7,1721.9 1490.5,1767.8 1479.7,1813.8 1469.2,1859.7 1459.1,1905.7 1449.3,1951.6 1439.9,1997.5 1430.8,2043.4 1422.1,2089.3 1413.7,2135.0 1405.6,2180.7 1397.8,2226.3 1390.4,2271.8 1383.2,2317.2 1376.3,2362.4 1369.8,2407.5  " style="stroke-opacity: 1.000000; stroke-width: 5.0; stroke: rgb(251,106,74); fill: none"  />
<path d="M 1999.0,2269.1 L 1979.1,2239.0 1958.8,2209.4 1938.0,2180.5 1917.0,2152.5 1895.7,2125.6 1874.2,2099.9 1852.6,2075.6 1831.0,2053.0 1809.4,2032.0 1787.8,2012.9 1766.4,1995.8 1745.2,1980.8 1724.3,1968.0 1703.6,1957.4 1683.3,1949.1 1663.4,1943.3 1643.9,1939.8 1624.8,1938.8 1606.3,1940.3 1588.3,1944.3 1570.8,1950.7 1553.9,1959.6 1537.7,1970.9 1522.0,1984.6 1507.1,2000.6 1492.7,2018.9 1479.1,2039.4 1466.2,2061.9 1453.9,2086.4 1442.4,2112.7 1431.6,2140.8 1421.4,2170.4 1412.0,2201.5 1403.3,2233.8 1395.3,2267.2 1387.9,2301.5 1381.2,2336.4 1375.2,2371.8 1369.8,2407.5  " style="stroke-opacity: 1.000000; stroke-width: 5.0; stroke: rgb(251,106,74); fill: none"  />
<path d="M 1999.0,2269.1 L 1978.8,2238.7 1958.0,2208.8 1936.7,2179.5 1914.9,2151.1 1892.7,2123.8 1870.0,2097.8 1847.1,2073.1 1823.9,2050.0 1800.5,2028.6 1777.0,2009.0 1753.3,1991.3 1729.6,1975.6 1705.9,1962.1 1682.2,1950.8 1658.7,1941.7 1635.2,1935.0 1612.0,1930.6 1588.9,1928.6 1566.1,1929.1 1543.6,1931.9 1521.4,1937.2 1499.6,1944.9 1478.2,1955.0 1457.1,1967.4 1436.6,1982.1 1416.5,1999.0 1397.0,2018.0 1378.0,2039.1 1359.5,2062.1 1341.6,2087.0 1324.3,2113.6 1307.7,2141.8 1291.7,2171.5 1276.3,2202.4 1261.6,2234.4 1247.6,2267.3 1234.3,2301.0 1221.7,2335.1 1209.8,2369.6  " style="stroke-opacity: 1.000000; stroke-width: 5.0; stroke: rgb(251,106,74); fill: none"  />
<path d="M 1999.0,2269.1 L 1973.7,2230.0 1948.4,2190.9 1923.2,2151.6 1898.0,2112.2 1872.9,2072.8 1847.8,2033.2 1822.8,1993.5 1797.9,1953.7 1773.0,1913.9 1748.2,1873.9 1723.4,1833.9 1698.8,1793.7 1674.2,1753.5 1649.7,1713.2 1625.3,1672.8 1601.0,1632.4 1576.8,1591.8 1552.7,1551.2 1528.7,1510.5 1504.8,1469.8 1481.0,1429.0 1457.3,1388.2 1433.7,1347.3 1410.3,1306.3 1386.9,1265.3 1363.7,1224.3 1340.5,1183.2 1317.5,1142.1 1294.6,1101.0 1271.8,1059.8 1249.2,1018.7 1226.6,977.5 1204.2,936.3 1181.9,895.1 1159.7,853.9 1137.6,812.7 1115.6,771.6 1093.7,730.4 1072.0,689.3  " style="stroke-opacity: 1.000000; stroke-width: 5.0; stroke: rgb(251,106,74); fill: none"  />
<path d="M 1999.0,2269.1 L 1974.3,2230.8 1949.7,2192.2 1925.3,2153.4 1900.9,2114.2 1876.8,2074.8 1852.8,2035.0 1829.0,1995.0 1805.5,1954.7 1782.1,1914.2 1759.0,1873.4 1736.1,1832.4 1713.5,1791.1 1691.2,1749.6 1669.1,1707.9 1647.3,1666.0 1625.8,1623.9 1604.7,1581.5 1583.8,1539.0 1563.2,1496.3 1543.0,1453.5 1523.2,1410.5 1503.6,1367.4 1484.4,1324.1 1465.5,1280.8 1447.0,1237.3 1428.9,1193.7 1411.0,1150.1 1393.6,1106.4 1376.4,1062.7 1359.6,1018.9 1343.2,975.1 1327.1,931.3 1311.4,887.5 1295.9,843.7 1280.8,800.0 1266.1,756.4 1251.6,712.8 1237.5,669.3 1223.6,625.9  " style="stroke-opacity: 1.000000; stroke-width: 5.0; stroke: rgb(251,106,74); fill: none"  />
<path d="M 1369.8,2407.5 L 1375.4,2370.9 1381.9,2334.4 1389.4,2298.3 1397.7,2262.6 1407.1,2227.6 1417.4,2193.5 1428.7,2160.3 1441.1,2128.3 1454.5,2097.6 1469.0,2068.4 1484.6,2040.6 1501.2,2014.5 1518.8,1990.1 1537.6,1967.6 1557.3,1947.0 1578.1,1928.3 1599.9,1911.7 1622.7,1897.2 1646.4,1884.7 1671.0,1874.4 1696.5,1866.3 1722.9,1860.3 1750.0,1856.5 1777.9,1854.8 1806.4,1855.2 1835.6,1857.7 1865.4,1862.2 1895.6,1868.8 1926.3,1877.2 1957.3,1887.4 1988.6,1899.4 2020.1,1913.1 2051.6,1928.3 2083.2,1944.9 2114.6,1962.9 2145.9,1982.0 2176.8,2002.1 2207.4,2023.1 2237.4,2044.7  " style="stroke-opacity: 1.000000; stroke-width: 5.0; stroke: rgb(251,106,74); fill: none"  />
<path d="M 1369.8,2407.5 L 1376.3,2362.4 1383.2,2317.2 1390.4,2271.8 1397.8,2226.3 1405.6,2180.7 1413.7,2135.0 1422.1,2089.3 1430.8,2043.4 1439.9,1997.5 1449.3,1951.6 1459.1,1905.7 1469.2,1859.7 1479.7,1813.8 1490.5,1767.8 1501.7,1721.9 1513.3,1676.1 1525.2,1630.3 1537.4,1584.5 1550.0,1538.9 1563.0,1493.3 1576.3,1447.8 1590.0,1402.5 1604.0,1357.3 1618.3,1312.2 1632.9,1267.3 1647.9,1222.6 1663.2,1178.0 1678.8,1133.6 1694.7,1089.4 1710.8,1045.3 1727.3,1001.6 1744.0,958.0 1760.9,914.6 1778.1,871.5 1795.5,828.7 1813.1,786.1 1830.9,743.7 1848.9,701.7 1867.0,659.9  " style="stroke-opacity: 1.000000; stroke-width: 5.0; stroke: rgb(251,106,74); fill: none"  />
<path d="M 1369.8,2407.5 L 1375.2,2371.8 1381.2,2336.4 1387.9,2301.5 1395.3,2267.2 1403.3,2233.8 1412.0,2201.5 1421.4,2170.4 1431.6,2140.8 1442.4,2112.7 1453.9,2086.4 1466.2,2061.9 1479.1,2039.4 1492.7,2018.9 1507.1,2000.6 1522.0,1984.6 1537.7,1970.9 1553.9,1959.6 1570.8,1950.7 1588.3,1944.3 1606.3,1940.3 1624.8,1938.8 1643.9,1939.8 1663.4,1943.3 1683.3,1949.1 1703.6,1957.4 1724.3,1968.0 1745.2,1980.8 1766.4,1995.8 1787.8,2012.9 1809.4,2032.0 1831.0,2053.0 1852.6,2075.6 1874.2,2099.9 1895.7,2125.6 1917.0,2152.5 1938.0,2180.5 1958.8,2209.4 1979.1,2239.0 1999.0,2269.1  " style="stroke-opacity: 1.000000; stroke-width: 5.0; stroke: rgb(251,106,74); fill: none"  />
<path d="M 1369.8,2407.5 L 1375.1,2372.2 1380.8,2337.2 1387.1,2302.6 1393.9,2268.9 1401.1,2236.0 1408.8,2204.3 1417.1,2174.0 1425.8,2145.1 1435.0,2118.0 1444.7,2092.6 1454.9,2069.3 1465.5,2048.0 1476.7,2028.9 1488.2,2012.1 1500.2,1997.7 1512.6,1985.7 1525.4,1976.2 1538.6,1969.3 1552.2,1964.9 1566.1,1963.2 1580.3,1964.0 1594.8,1967.4 1609.6,1973.4 1624.6,1981.8 1639.8,1992.8 1655.2,2006.2 1670.8,2021.9 1686.4,2039.8 1702.1,2059.9 1717.9,2081.9 1733.6,2105.9 1749.3,2131.7 1764.8,2159.0 1780.3,2187.7 1795.5,2217.7 1810.5,2248.7 1825.3,2280.5 1839.6,2313.0 1853.6,2345.8  " style="stroke-opacity: 1.000000; stroke-width: 5.0; stroke: rgb(251,106,74); fill: none"  />
<path d="M 1369.8,2407.5 L 1376.2,2364.4 1383.3,2321.0 1391.0,2277.4 1399.3,2233.7 1408.4,2189.8 1418.1,2145.8 1428.6,2101.8 1439.8,2057.8 1451.8,2013.7 1464.5,1969.8 1478.0,1925.9 1492.2,1882.1 1507.3,1838.5 1523.1,1795.1 1539.7,1751.9 1557.1,1708.9 1575.3,1666.3 1594.2,1623.9 1613.9,1581.9 1634.4,1540.2 1655.7,1498.9 1677.6,1458.0 1700.3,1417.5 1723.6,1377.5 1747.7,1338.0 1772.4,1298.9 1797.7,1260.4 1823.7,1222.3 1850.2,1184.8 1877.2,1147.9 1904.8,1111.5 1932.8,1075.8 1961.2,1040.6 1990.1,1006.0 2019.3,972.0 2048.8,938.7 2078.6,905.9 2108.6,873.9 2138.8,842.4  " style="stroke-opacity: 1.000000; stroke-width: 5.0; stroke: rgb(251,106,74); fill: none"  />
<path d="M 1369.8,2407.5 L 1374.9,2372.4 1380.5,2337.7 1386.3,2303.4 1392.4,2270.0 1398.8,2237.5 1405.4,2206.2 1412.4,2176.4 1419.6,2148.1 1427.1,2121.5 1434.8,2096.8 1442.7,2074.2 1450.9,2053.7 1459.2,2035.5 1467.8,2019.7 1476.5,2006.3 1485.4,1995.4 1494.5,1987.1 1503.7,1981.5 1513.0,1978.5 1522.4,1978.1 1531.9,1980.4 1541.5,1985.4 1551.1,1993.0 1560.8,2003.2 1570.5,2015.9 1580.2,2031.0 1589.9,2048.6 1599.5,2068.4 1609.1,2090.4 1618.6,2114.4 1628.0,2140.3 1637.3,2168.0 1646.5,2197.3 1655.4,2228.0 1664.2,2259.9 1672.8,2292.8 1681.1,2326.5 1689.1,2360.8 1696.9,2395.4  " style="stroke-opacity: 1.000000; stroke-width: 5.0; stroke: rgb(251,106,74); fill: none"  />
<path d="M 1369.8,2407.5 L 1376.1,2366.3 1383.2,2324.8 1391.3,2283.2 1400.2,2241.5 1410.2,2199.7 1421.1,2158.0 1433.1,2116.4 1446.1,2075.0 1460.2,2033.8 1475.3,1992.8 1491.6,1952.3 1508.9,1912.1 1527.4,1872.4 1547.0,1833.2 1567.6,1794.6 1589.4,1756.5 1612.3,1719.1 1636.2,1682.4 1661.2,1646.4 1687.3,1611.1 1714.4,1576.6 1742.4,1542.9 1771.5,1510.1 1801.4,1478.1 1832.3,1447.0 1864.0,1416.7 1896.5,1387.4 1929.8,1359.0 1963.8,1331.6 1998.5,1305.1 2033.7,1279.5 2069.5,1254.9 2105.8,1231.2 2142.4,1208.5 2179.4,1186.7 2216.7,1165.9 2254.1,1145.9 2291.6,1126.9 2329.1,1108.8  " style="stroke-opacity: 1.000000; stroke-width: 5.0; stroke: rgb(251,106,74); fill: none"  />
<path d="M 1209.8,2369.6 L 1222.1,2334.1 1235.4,2298.7 1249.6,2263.8 1264.7,2229.4 1280.7,2195.7 1297.8,2163.0 1315.7,2131.3 1334.7,2100.7 1354.5,2071.5 1375.3,2043.6 1397.1,2017.3 1419.7,1992.7 1443.2,1969.7 1467.6,1948.6 1492.8,1929.3 1518.9,1912.0 1545.8,1896.7 1573.4,1883.3 1601.7,1872.1 1630.7,1862.9 1660.4,1855.8 1690.6,1850.9 1721.4,1848.0 1752.7,1847.2 1784.4,1848.4 1816.5,1851.7 1849.0,1856.9 1881.7,1864.1 1914.5,1873.1 1947.6,1884.0 1980.6,1896.5 2013.7,1910.6 2046.6,1926.2 2079.4,1943.2 2111.9,1961.5 2144.0,1981.0 2175.7,2001.4 2206.9,2022.7 2237.4,2044.7  " style="stroke-opacity: 1.000000; stroke-width: 5.0; stroke: rgb(251,106,74); fill: none"  />
<path d="M 1209.8,2369.6 L 1221.9,2334.6 1234.8,2299.9 1248.6,2265.7 1263.2,2232.1 1278.6,2199.3 1294.9,2167.6 1312.0,2137.0 1329.9,2107.7 1348.6,2079.9 1368.0,2053.7 1388.3,2029.2 1409.3,2006.5 1431.0,1985.6 1453.5,1966.8 1476.6,1950.0 1500.4,1935.4 1524.8,1922.9 1549.8,1912.7 1575.3,1904.7 1601.4,1898.9 1628.0,1895.5 1655.0,1894.3 1682.3,1895.4 1710.1,1898.7 1738.1,1904.2 1766.4,1911.9 1794.8,1921.7 1823.4,1933.5 1852.1,1947.2 1880.8,1962.9 1909.4,1980.3 1937.9,1999.3 1966.3,2019.9 1994.4,2041.9 2022.1,2065.2 2049.4,2089.6 2076.3,2114.9 2102.6,2141.0 2128.3,2167.6  " style="stroke-opacity: 1.000000; stroke-width: 5.0; stroke: rgb(251,106,74); fill: none"  />
<path d="M 1209.8,2369.6 L 1221.7,2335.1 1234.3,2301.0 1247.6,2267.3 1261.6,2234.4 1276.3,2202.4 1291.7,2171.5 1307.7,2141.8 1324.3,2113.6 1341.6,2087.0 1359.5,2062.1 1378.0,2039.1 1397.0,2018.0 1416.5,1999.0 1436.6,1982.1 1457.1,1967.4 1478.2,1955.0 1499.6,1944.9 1521.4,1937.2 1543.6,1931.9 1566.1,1929.1 1588.9,1928.6 1612.0,1930.6 1635.2,1935.0 1658.7,1941.7 1682.2,1950.8 1705.9,1962.1 1729.6,1975.6 1753.3,1991.3 1777.0,2009.0 1800.5,2028.6 1823.9,2050.0 1847.1,2073.1 1870.0,2097.8 1892.7,2123.8 1914.9,2151.1 1936.7,2179.5 1958.0,2208.8 1978.8,2238.7 1999.0,2269.1  " style="stroke-opacity: 1.000000; stroke-width: 5.0; stroke: rgb(251,106,74); fill: none"  />
<path d="M 1209.8,2369.6 L 1221.5,2335.5 1233.8,2301.8 1246.6,2268.6 1260.0,2236.2 1273.8,2204.8 1288.2,2174.5 1303.0,2145.6 1318.3,2118.3 1333.9,2092.6 1350.0,2068.7 1366.4,2046.8 1383.1,2027.0 1400.2,2009.3 1417.6,1993.9 1435.1,1980.8 1453.0,1970.1 1471.0,1961.8 1489.2,1956.1 1507.5,1952.9 1526.0,1952.2 1544.5,1954.1 1563.0,1958.4 1581.6,1965.3 1600.2,1974.7 1618.7,1986.4 1637.1,2000.5 1655.5,2016.9 1673.6,2035.4 1691.6,2056.1 1709.4,2078.7 1726.9,2103.2 1744.1,2129.3 1761.1,2157.0 1777.6,2186.2 1793.8,2216.5 1809.5,2247.8 1824.7,2279.9 1839.4,2312.7 1853.6,2345.8  " style="stroke-opacity: 1.000000; stroke-width: 5.0; stroke: rgb(251,106,74); fill: none"  />
<path d="M 1209.8,2369.6 L 1223.9,2328.4 1238.6,2287.0 1253.9,2245.5 1270.0,2203.9 1286.7,2162.4 1304.1,2120.8 1322.3,2079.4 1341.2,2038.1 1360.8,1996.9 1381.2,1955.9 1402.3,1915.1 1424.1,1874.6 1446.7,1834.4 1470.0,1794.5 1494.1,1754.9 1518.9,1715.8 1544.4,1677.0 1570.6,1638.7 1597.5,1600.9 1625.1,1563.5 1653.3,1526.7 1682.3,1490.4 1711.8,1454.6 1741.9,1419.4 1772.6,1384.8 1803.9,1350.8 1835.7,1317.4 1868.0,1284.6 1900.8,1252.4 1934.0,1220.9 1967.6,1190.1 2001.6,1159.9 2035.9,1130.3 2070.4,1101.4 2105.2,1073.2 2140.2,1045.7 2175.4,1018.8 2210.6,992.6 2245.9,967.0  " style="stroke-opacity: 1.000000; stroke-width: 5.0; stroke: rgb(251,106,74); fill: none"  />
<path d="M 1209.8,2369.6 L 1223.0,2329.1 1235.6,2288.0 1247.6,2246.4 1259.0,2204.2 1269.7,2161.6 1279.6,2118.6 1288.7,2075.2 1297.0,2031.4 1304.4,1987.4 1310.9,1943.0 1316.4,1898.4 1321.0,1853.6 1324.6,1808.6 1327.2,1763.5 1328.8,1718.3 1329.3,1673.0 1328.8,1627.7 1327.2,1582.4 1324.6,1537.1 1320.9,1491.9 1316.1,1446.8 1310.3,1401.9 1303.4,1357.1 1295.5,1312.5 1286.6,1268.2 1276.7,1224.1 1265.8,1180.3 1254.0,1136.8 1241.2,1093.7 1227.6,1051.0 1213.1,1008.7 1197.8,966.9 1181.7,925.6 1164.9,884.7 1147.5,844.4 1129.4,804.7 1110.7,765.6 1091.6,727.1 1072.0,689.3  " style="stroke-opacity: 1.000000; stroke-width: 5.0; stroke: rgb(251,106,74); fill: none"  />
<path d="M 1209.8,2369.6 L 1223.3,2328.2 1236.5,2286.3 1249.1,2243.9 1261.2,2201.0 1272.8,2157.7 1283.8,2114.1 1294.2,2070.0 1303.9,2025.6 1312.9,1980.9 1321.3,1935.9 1328.9,1890.6 1335.7,1845.1 1341.8,1799.4 1347.1,1753.5 1351.6,1707.4 1355.3,1661.2 1358.2,1614.9 1360.2,1568.5 1361.5,1522.1 1361.8,1475.7 1361.3,1429.3 1360.0,1382.9 1357.9,1336.5 1354.9,1290.3 1351.2,1244.2 1346.6,1198.2 1341.2,1152.4 1335.1,1106.7 1328.2,1061.3 1320.6,1016.2 1312.2,971.4 1303.2,926.8 1293.5,882.6 1283.2,838.7 1272.3,795.3 1260.9,752.2 1248.9,709.6 1236.5,667.5 1223.6,625.9  " style="stroke-opacity: 1.000000; stroke-width: 5.0; stroke: rgb(251,106,74); fill: none"  />
<path d="M 1209.8,2369.6 L 1221.3,2335.8 1233.3,2302.4 1245.6,2269.6 1258.3,2237.5 1271.3,2206.5 1284.5,2176.7 1298.1,2148.3 1311.8,2121.5 1325.7,2096.4 1339.8,2073.3 1354.0,2052.1 1368.3,2033.0 1382.6,2016.2 1397.0,2001.8 1411.3,1989.7 1425.7,1980.2 1440.0,1973.1 1454.2,1968.7 1468.3,1966.8 1482.3,1967.5 1496.2,1970.9 1509.8,1976.8 1523.3,1985.3 1536.6,1996.3 1549.6,2009.8 1562.3,2025.7 1574.8,2044.0 1587.0,2064.4 1598.9,2086.9 1610.4,2111.5 1621.6,2137.9 1632.5,2166.0 1642.9,2195.7 1653.0,2226.7 1662.6,2258.9 1671.9,2292.1 1680.7,2326.1 1689.0,2360.6 1696.9,2395.4  " style="stroke-opacity: 1.000000; stroke-width: 5.0; stroke: rgb(251,106,74); fill: none"  />
<path d="M 1853.6,2345.8 L 1839.6,2313.0 1825.3,2280.5 1810.5,2248.7 1795.5,2217.7 1780.3,2187.7 1764.8,2159.0 1749.3,2131.7 1733.6,2105.9 1717.9,2081.9 1702.1,2059.9 1686.4,2039.8 1670.8,2021.9 1655.2,2006.2 1639.8,1992.8 1624.6,1981.8 1609.6,1973.4 1594.8,1967.4 1580.3,1964.0 1566.1,1963.2 1552.2,1964.9 1538.6,1969.3 1525.4,1976.2 1512.6,1985.7 1500.2,1997.7 1488.2,2012.1 1476.7,2028.9 1465.5,2048.0 1454.9,2069.3 1444.7,2092.6 1435.0,2118.0 1425.8,2145.1 1417.1,2174.0 1408.8,2204.3 1401.1,2236.0 1393.9,2268.9 1387.1,2302.6 1380.8,2337.2 1375.1,2372.2 1369.8,2407.5  " style="stroke-opacity: 1.000000; stroke-width: 5.0; stroke: rgb(251,106,74); fill: none"  />
<path d="M 1853.6,2345.8 L 1839.4,2312.7 1824.7,2279.9 1809.5,2247.8 1793.8,2216.5 1777.6,2186.2 1761.1,2157.0 1744.1,2129.3 1726.9,2103.2 1709.4,2078.7 1691.6,2056.1 1673.6,2035.4 1655.5,2016.9 1637.1,2000.5 1618.7,1986.4 1600.2,1974.7 1581.6,1965.3 1563.0,1958.4 1544.5,1954.1 1526.0,1952.2 1507.5,1952.9 1489.2,1956.1 1471.0,1961.8 1453.0,1970.1 1435.1,1980.8 1417.6,1993.9 1400.2,2009.3 1383.1,2027.0 1366.4,2046.8 1350.0,2068.7 1333.9,2092.6 1318.3,2118.3 1303.0,2145.6 1288.2,2174.5 1273.8,2204.8 1260.0,2236.2 1246.6,2268.6 1233.8,2301.8 1221.5,2335.5 1209.8,2369.6  " style="stroke-opacity: 1.000000; stroke-width: 5.0; stroke: rgb(251,106,74); fill: none"  />
<path d="M 1853.6,2345.8 L 1836.6,2305.7 1818.9,2265.5 1800.5,2225.3 1781.4,2185.0 1761.6,2144.8 1741.2,2104.7 1720.0,2064.7 1698.1,2024.9 1675.5,1985.2 1652.2,1945.8 1628.1,1906.7 1603.3,1867.9 1577.8,1829.5 1551.6,1791.4 1524.7,1753.8 1497.1,1716.6 1468.8,1679.8 1439.8,1643.6 1410.2,1607.8 1379.9,1572.6 1349.0,1537.9 1317.5,1503.9 1285.4,1470.4 1252.8,1437.5 1219.6,1405.3 1185.9,1373.6 1151.7,1342.7 1117.1,1312.4 1082.0,1282.7 1046.6,1253.7 1010.8,1225.4 974.7,1197.8 938.3,1170.9 901.7,1144.6 864.9,1119.1 828.0,1094.2 790.9,1070.0 753.8,1046.5 716.8,1023.6  " style="stroke-opacity: 1.000000; stroke-width: 5.0; stroke: rgb(251,106,74); fill: none"  />
<path d="M 1853.6,2345.8 L 1838.7,2311.3 1822.9,2277.0 1806.2,2243.2 1788.5,2210.0 1770.0,2177.7 1750.6,2146.2 1730.4,2115.9 1709.3,2086.9 1687.3,2059.2 1664.5,2032.9 1640.9,2008.3 1616.5,1985.4 1591.3,1964.3 1565.4,1945.0 1538.8,1927.6 1511.6,1912.3 1483.7,1899.0 1455.1,1887.7 1426.1,1878.6 1396.5,1871.6 1366.4,1866.7 1335.8,1864.0 1304.9,1863.4 1273.7,1864.9 1242.1,1868.5 1210.3,1874.1 1178.4,1881.7 1146.3,1891.3 1114.1,1902.7 1082.0,1916.0 1050.0,1930.9 1018.1,1947.4 986.4,1965.4 954.9,1984.8 923.9,2005.5 893.3,2027.2 863.2,2050.0 833.7,2073.5 804.9,2097.7  " style="stroke-opacity: 1.000000; stroke-width: 5.0; stroke: rgb(251,106,74); fill: none"  />
<path d="M 716.8,1023.6 L 753.8,1046.5 790.9,1070.0 828.0,1094.2 864.9,1119.1 901.7,1144.6 938.3,1170.9 974.7,1197.8 1010.8,1225.4 1046.6,1253.7 1082.0,1282.7 1117.1,1312.4 1151.7,1342.7 1185.9,1373.6 1219.6,1405.3 1252.8,1437.5 1285.4,1470.4 1317.5,1503.9 1349.0,1537.9 1379.9,1572.6 1410.2,1607.8 1439.8,1643.6 1468.8,1679.8 1497.1,1716.6 1524.7,1753.8 1551.6,1791.4 1577.8,1829.5 1603.3,1867.9 1628.1,1906.7 1652.2,1945.8 1675.5,1985.2 1698.1,2024.9 1720.0,2064.7 1741.2,2104.7 1761.6,2144.8 1781.4,2185.0 1800.5,2225.3 1818.9,2265.5 1836.6,2305.7 1853.6,2345.8  " style="stroke-opacity: 1.000000; stroke-width: 5.0; stroke: rgb(251,106,74); fill: none"  />
<path d="M 2138.8,842.4 L 2108.6,873.9 2078.6,905.9 2048.8,938.7 2019.3,972.0 1990.1,1006.0 1961.2,1040.6 1932.8,1075.8 1904.8,1111.5 1877.2,1147.9 1850.2,1184.8 1823.7,1222.3 1797.7,1260.4 1772.4,1298.9 1747.7,1338.0 1723.6,1377.5 1700.3,1417.5 1677.6,1458.0 1655.7,1498.9 1634.4,1540.2 1613.9,1581.9 1594.2,1623.9 1575.3,1666.3 1557.1,1708.9 1539.7,1751.9 1523.1,1795.1 1507.3,1838.5 1492.2,1882.1 1478.0,1925.9 1464.5,1969.8 1451.8,2013.7 1439.8,2057.8 1428.6,2101.8 1418.1,2145.8 1408.4,2189.8 1399.3,2233.7 1391.0,2277.4 1383.3,2321.0 1376.2,2364.4 1369.8,2407.5  " style="stroke-opacity: 1.000000; stroke-width: 5.0; stroke: rgb(251,106,74); fill: none"  />
<path d="M 922.8,2212.2 L 947.7,2182.1 973.6,2152.5 1000.3,2123.4 1028.0,2095.1 1056.4,2067.6 1085.7,2041.0 1115.7,2015.5 1146.4,1991.2 1177.9,1968.2 1210.0,1946.5 1242.8,1926.3 1276.1,1907.6 1310.0,1890.5 1344.4,1875.1 1379.3,1861.3 1414.6,1849.4 1450.3,1839.2 1486.4,1830.8 1522.7,1824.3 1559.3,1819.6 1596.2,1816.8 1633.2,1815.9 1670.3,1816.8 1707.5,1819.5 1744.7,1824.1 1781.8,1830.4 1818.9,1838.4 1855.9,1848.2 1892.7,1859.5 1929.2,1872.4 1965.4,1886.9 2001.3,1902.7 2036.7,1919.8 2071.7,1938.2 2106.2,1957.7 2140.0,1978.3 2173.2,1999.7 2205.7,2021.9 2237.4,2044.7  " style="stroke-opacity: 1.000000; stroke-width: 5.0; stroke: rgb(251,106,74); fill: none"  />
<path d="M 804.9,2097.7 L 833.7,2073.5 863.2,2050.0 893.3,2027.2 923.9,2005.5 954.9,1984.8 986.4,1965.4 1018.1,1947.4 1050.0,1930.9 1082.0,1916.0 1114.1,1902.7 1146.3,1891.3 1178.4,1881.7 1210.3,1874.1 1242.1,1868.5 1273.7,1864.9 1304.9,1863.4 1335.8,1864.0 1366.4,1866.7 1396.5,1871.6 1426.1,1878.6 1455.1,1887.7 1483.7,1899.0 1511.6,1912.3 1538.8,1927.6 1565.4,1945.0 1591.3,1964.3 1616.5,1985.4 1640.9,2008.3 1664.5,2032.9 1687.3,2059.2 1709.3,2086.9 1730.4,2115.9 1750.6,2146.2 1770.0,2177.7 1788.5,2210.0 1806.2,2243.2 1822.9,2277.0 1838.7,2311.3 1853.6,2345.8  " style="stroke-opacity: 1.000000; stroke-width: 5.0; stroke: rgb(251,106,74); fill: none"  />
<path d="M 804.9,2097.7 L 839.5,2068.1 874.4,2038.6 909.6,2009.1 945.2,1979.8 981.0,1950.5 1017.2,1921.4 1053.6,1892.5 1090.4,1863.7 1127.4,1835.2 1164.7,1806.8 1202.3,1778.6 1240.2,1750.6 1278.3,1722.9 1316.7,1695.5 1355.3,1668.3 1394.2,1641.3 1433.3,1614.6 1472.6,1588.3 1512.1,1562.2 1551.9,1536.4 1591.8,1510.9 1631.9,1485.8 1672.2,1460.9 1712.6,1436.4 1753.2,1412.2 1793.9,1388.4 1834.8,1364.9 1875.7,1341.7 1916.8,1318.8 1957.9,1296.3 1999.1,1274.2 2040.4,1252.3 2081.6,1230.9 2122.9,1209.7 2164.2,1188.9 2205.5,1168.4 2246.8,1148.2 2288.0,1128.3 2329.1,1108.8  " style="stroke-opacity: 1.000000; stroke-width: 5.0; stroke: rgb(251,106,74); fill: none"  />
<path d="M 2245.9,967.0 L 2210.6,992.6 2175.4,1018.8 2140.2,1045.7 2105.2,1073.2 2070.4,1101.4 2035.9,1130.3 2001.6,1159.9 1967.6,1190.1 1934.0,1220.9 1900.8,1252.4 1868.0,1284.6 1835.7,1317.4 1803.9,1350.8 1772.6,1384.8 1741.9,1419.4 1711.8,1454.6 1682.3,1490.4 1653.3,1526.7 1625.1,1563.5 1597.5,1600.9 1570.6,1638.7 1544.4,1677.0 1518.9,1715.8 1494.1,1754.9 1470.0,1794.5 1446.7,1834.4 1424.1,1874.6 1402.3,1915.1 1381.2,1955.9 1360.8,1996.9 1341.2,2038.1 1322.3,2079.4 1304.1,2120.8 1286.7,2162.4 1270.0,2203.9 1253.9,2245.5 1238.6,2287.0 1223.9,2328.4 1209.8,2369.6  " style="stroke-opacity: 1.000000; stroke-width: 5.0; stroke: rgb(251,106,74); fill: none"  />
<path d="M 1072.0,689.3 L 1093.7,730.4 1115.6,771.6 1137.6,812.7 1159.7,853.9 1181.9,895.1 1204.2,936.3 1226.6,977.5 1249.2,1018.7 1271.8,1059.8 1294.6,1101.0 1317.5,1142.1 1340.5,1183.2 1363.7,1224.3 1386.9,1265.3 1410.3,1306.3 1433.7,1347.3 1457.3,1388.2 1481.0,1429.0 1504.8,1469.8 1528.7,1510.5 1552.7,1551.2 1576.8,1591.8 1601.0,1632.4 1625.3,1672.8 1649.7,1713.2 1674.2,1753.5 1698.8,1793.7 1723.4,1833.9 1748.2,1873.9 1773.0,1913.9 1797.9,1953.7 1822.8,1993.5 1847.8,2033.2 1872.9,2072.8 1898.0,2112.2 1923.2,2151.6 1948.4,2190.9 1973.7,2230.0 1999.0,2269.1  " style="stroke-opacity: 1.000000; stroke-width: 5.0; stroke: rgb(251,106,74); fill: none"  />
<path d="M 1072.0,689.3 L 1091.6,727.1 1110.7,765.6 1129.4,804.7 1147.5,844.4 1164.9,884.7 1181.7,925.6 1197.8,966.9 1213.1,1008.7 1227.6,1051.0 1241.2,1093.7 1254.0,1136.8 1265.8,1180.3 1276.7,1224.1 1286.6,1268.2 1295.5,1312.5 1303.4,1357.1 1310.3,1401.9 1316.1,1446.8 1320.9,1491.9 1324.6,1537.1 1327.2,1582.4 1328.8,1627.7 1329.3,1673.0 1328.8,1718.3 1327.2,1763.5 1324.6,1808.6 1321.0,1853.6 1316.4,1898.4 1310.9,1943.0 1304.4,1987.4 1297.0,2031.4 1288.7,2075.2 1279.6,2118.6 1269.7,2161.6 1259.0,2204.2 1247.6,2246.4 1235.6,2288.0 1223.0,2329.1 1209.8,2369.6  " style="stroke-opacity: 1.000000; stroke-width: 5.0; stroke: rgb(251,106,74); fill: none"  />
<path d="M 1072.0,689.3 L 1093.1,729.6 1114.2,770.2 1135.0,811.1 1155.7,852.3 1176.2,893.8 1196.6,935.5 1216.7,977.5 1236.5,1019.7 1256.2,1062.2 1275.5,1104.9 1294.6,1147.8 1313.5,1190.9 1332.0,1234.2 1350.2,1277.8 1368.2,1321.5 1385.8,1365.4 1403.1,1409.4 1420.0,1453.6 1436.7,1498.0 1453.0,1542.5 1468.9,1587.0 1484.5,1631.8 1499.8,1676.6 1514.7,1721.4 1529.2,1766.4 1543.4,1811.4 1557.2,1856.5 1570.7,1901.5 1583.9,1946.6 1596.7,1991.8 1609.1,2036.8 1621.2,2081.9 1633.0,2126.9 1644.4,2171.9 1655.5,2216.8 1666.3,2261.6 1676.8,2306.3 1687.0,2350.9 1696.9,2395.4  " style="stroke-opacity: 1.000000; stroke-width: 5.0; stroke: rgb(251,106,74); fill: none"  />
<path d="M 1223.6,625.9 L 1237.5,669.3 1251.6,712.8 1266.1,756.4 1280.8,800.0 1295.9,843.7 1311.4,887.5 1327.1,931.3 1343.2,975.1 1359.6,1018.9 1376.4,1062.7 1393.6,1106.4 1411.0,1150.1 1428.9,1193.7 1447.0,1237.3 1465.5,1280.8 1484.4,1324.1 1503.6,1367.4 1523.2,1410.5 1543.0,1453.5 1563.2,1496.3 1583.8,1539.0 1604.7,1581.5 1625.8,1623.9 1647.3,1666.0 1669.1,1707.9 1691.2,1749.6 1713.5,1791.1 1736.1,1832.4 1759.0,1873.4 1782.1,1914.2 1805.5,1954.7 1829.0,1995.0 1852.8,2035.0 1876.8,2074.8 1900.9,2114.2 1925.3,2153.4 1949.7,2192.2 1974.3,2230.8 1999.0,2269.1  " style="stroke-opacity: 1.000000; stroke-width: 5.0; stroke: rgb(251,106,74); fill: none"  />
<path d="M 1223.6,625.9 L 1236.5,667.5 1248.9,709.6 1260.9,752.2 1272.3,795.3 1283.2,838.7 1293.5,882.6 1303.2,926.8 1312.2,971.4 1320.6,1016.2 1328.2,1061.3 1335.1,1106.7 1341.2,1152.4 1346.6,1198.2 1351.2,1244.2 1354.9,1290.3 1357.9,1336.5 1360.0,1382.9 1361.3,1429.3 1361.8,1475.7 1361.5,1522.1 1360.2,1568.5 1358.2,1614.9 1355.3,1661.2 1351.6,1707.4 1347.1,1753.5 1341.8,1799.4 1335.7,1845.1 1328.9,1890.6 1321.3,1935.9 1312.9,1980.9 1303.9,2025.6 1294.2,2070.0 1283.8,2114.1 1272.8,2157.7 1261.2,2201.0 1249.1,2243.9 1236.5,2286.3 1223.3,2328.2 1209.8,2369.6  " style="stroke-opacity: 1.000000; stroke-width: 5.0; stroke: rgb(251,106,74); fill: none"  />
<path d="M 1696.9,2395.4 L 1689.1,2360.8 1681.1,2326.5 1672.8,2292.8 1664.2,2259.9 1655.4,2228.0 1646.5,2197.3 1637.3,2168.0 1628.0,2140.3 1618.6,2114.4 1609.1,2090.4 1599.5,2068.4 1589.9,2048.6 1580.2,2031.0 1570.5,2015.9 1560.8,2003.2 1551.1,1993.0 1541.5,1985.4 1531.9,1980.4 1522.4,1978.1 1513.0,1978.5 1503.7,1981.5 1494.5,1987.1 1485.4,1995.4 1476.5,2006.3 1467.8,2019.7 1459.2,2035.5 1450.9,2053.7 1442.7,2074.2 1434.8,2096.8 1427.1,2121.5 1419.6,2148.1 1412.4,2176.4 1405.4,2206.2 1398.8,2237.5 1392.4,2270.0 1386.3,2303.4 1380.5,2337.7 1374.9,2372.4 1369.8,2407.5  " style="stroke-opacity: 1.000000; stroke-width: 5.0; stroke: rgb(251,106,74); fill: none"  />
<path d="M 1696.9,2395.4 L 1689.0,2360.6 1680.7,2326.1 1671.9,2292.1 1662.6,2258.9 1653.0,2226.7 1642.9,2195.7 1632.5,2166.0 1621.6,2137.9 1610.4,2111.5 1598.9,2086.9 1587.0,2064.4 1574.8,2044.0 1562.3,2025.7 1549.6,2009.8 1536.6,1996.3 1523.3,1985.3 1509.8,1976.8 1496.2,1970.9 1482.3,1967.5 1468.3,1966.8 1454.2,1968.7 1440.0,1973.1 1425.7,1980.2 1411.3,1989.7 1397.0,2001.8 1382.6,2016.2 1368.3,2033.0 1354.0,2052.1 1339.8,2073.3 1325.7,2096.4 1311.8,2121.5 1298.1,2148.3 1284.5,2176.7 1271.3,2206.5 1258.3,2237.5 1245.6,2269.6 1233.3,2302.4 1221.3,2335.8 1209.8,2369.6  " style="stroke-opacity: 1.000000; stroke-width: 5.0; stroke: rgb(251,106,74); fill: none"  />
<path d="M 1696.9,2395.4 L 1687.0,2350.9 1676.8,2306.3 1666.3,2261.6 1655.5,2216.8 1644.4,2171.9 1633.0,2126.9 1621.2,2081.9 1609.1,2036.8 1596.7,1991.8 1583.9,1946.6 1570.7,1901.5 1557.2,1856.5 1543.4,1811.4 1529.2,1766.4 1514.7,1721.4 1499.8,1676.6 1484.5,1631.8 1468.9,1587.0 1453.0,1542.5 1436.7,1498.0 1420.0,1453.6 1403.1,1409.4 1385.8,1365.4 1368.2,1321.5 1350.2,1277.8 1332.0,1234.2 1313.5,1190.9 1294.6,1147.8 1275.5,1104.9 1256.2,1062.2 1236.5,1019.7 1216.7,977.5 1196.6,935.5 1176.2,893.8 1155.7,852.3 1135.0,811.1 1114.2,770.2 1093.1,729.6 1072.0,689.3  " style="stroke-opacity: 1.000000; stroke-width: 5.0; stroke: rgb(251,106,74); fill: none"  />
<path d="M 2329.1,1108.8 L 2291.6,1126.9 2254.1,1145.9 2216.7,1165.9 2179.4,1186.7 2142.4,1208.5 2105.8,1231.2 2069.5,1254.9 2033.7,1279.5 1998.5,1305.1 1963.8,1331.6 1929.8,1359.0 1896.5,1387.4 1864.0,1416.7 1832.3,1447.0 1801.4,1478.1 1771.5,1510.1 1742.4,1542.9 1714.4,1576.6 1687.3,1611.1 1661.2,1646.4 1636.2,1682.4 1612.3,1719.1 1589.4,1756.5 1567.6,1794.6 1547.0,1833.2 1527.4,1872.4 1508.9,1912.1 1491.6,1952.3 1475.3,1992.8 1460.2,2033.8 1446.1,2075.0 1433.1,2116.4 1421.1,2158.0 1410.2,2199.7 1400.2,2241.5 1391.3,2283.2 1383.2,2324.8 1376.1,2366.3 1369.8,2407.5  " style="stroke-opacity: 1.000000; stroke-width: 5.0; stroke: rgb(251,106,74); fill: none"  />
<path d="M 2329.1,1108.8 L 2288.0,1128.3 2246.8,1148.2 2205.5,1168.4 2164.2,1188.9 2122.9,1209.7 2081.6,1230.9 2040.4,1252.3 1999.1,1274.2 1957.9,1296.3 1916.8,1318.8 1875.7,1341.7 1834.8,1364.9 1793.9,1388.4 1753.2,1412.2 1712.6,1436.4 1672.2,1460.9 1631.9,1485.8 1591.8,1510.9 1551.9,1536.4 1512.1,1562.2 1472.6,1588.3 1433.3,1614.6 1394.2,1641.3 1355.3,1668.3 1316.7,1695.5 1278.3,1722.9 1240.2,1750.6 1202.3,1778.6 1164.7,1806.8 1127.4,1835.2 1090.4,1863.7 1053.6,1892.5 1017.2,1921.4 981.0,1950.5 945.2,1979.8 909.6,2009.1 874.4,2038.6 839.5,2068.1 804.9,2097.7  " style="stroke-opacity: 1.000000; stroke-width: 5.0; stroke: rgb(251,106,74); fill: none"  />
</g>
<g id="track_0">
<path d="M 2237.4,2044.7 L 2209.0,2023.8 2180.7,2003.2 2152.6,1983.1 2125.1,1963.6 2098.3,1944.8 2072.2,1927.0 2047.2,1910.1 2023.2,1894.4 2000.5,1880.0 1979.2,1866.8 1959.4,1855.1 1941.2,1844.9 1924.7,1836.3 1909.9,1829.3 1896.9,1824.0 1885.9,1820.4 1876.7,1818.6 1869.6,1818.6 1864.4,1820.3 1861.3,1823.9 1860.1,1829.2 1861.0,1836.3 1863.9,1845.2 1868.8,1855.7 1875.6,1868.0 1884.3,1881.8 1894.8,1897.2 1907.1,1914.1 1921.0,1932.4 1936.6,1952.0 1953.7,1972.8 1972.1,1994.7 1991.8,2017.6 2012.6,2041.3 2034.4,2065.8 2057.1,2090.8 2080.4,2116.2 2104.2,2141.9 2128.3,2167.6  " style="stroke-opacity: 1.000000; stroke-width: 5.0; stroke: rgb(107,174,214); fill: none"  />
<path d="M 2237.4,2044.7 L 2208.8,2023.8 2180.2,2003.3 2151.7,1983.4 2123.6,1964.2 2096.0,1946.0 2069.1,1928.8 2042.9,1912.7 2017.7,1898.0 1993.6,1884.6 1970.6,1872.8 1948.9,1862.6 1928.6,1854.0 1909.8,1847.1 1892.5,1842.1 1876.8,1838.9 1862.9,1837.6 1850.6,1838.2 1840.1,1840.8 1831.4,1845.3 1824.6,1851.8 1819.5,1860.2 1816.3,1870.5 1815.0,1882.7 1815.4,1896.7 1817.7,1912.5 1821.6,1930.1 1827.3,1949.3 1834.6,1970.1 1843.6,1992.4 1854.0,2016.0 1865.8,2040.9 1879.0,2067.0 1893.5,2094.1 1909.0,2122.0 1925.5,2150.7 1943.0,2179.9 1961.1,2209.5 1979.8,2239.3 1999.0,2269.1  " style="stroke-opacity: 1.000000; stroke-width: 5.0; stroke: rgb(107,174,214); fill: none"  />
<path d="M 2237.4,2044.7 L 2208.5,2023.7 2179.6,2003.2 2150.6,1983.4 2121.8,1964.5 2093.3,1946.6 2065.3,1929.9 2038.0,1914.4 2011.3,1900.3 1985.5,1887.8 1960.7,1876.9 1936.9,1867.8 1914.2,1860.4 1892.9,1854.9 1872.8,1851.3 1854.1,1849.7 1836.9,1850.1 1821.1,1852.6 1806.9,1857.1 1794.3,1863.7 1783.3,1872.4 1773.9,1883.1 1766.1,1895.8 1759.9,1910.5 1755.4,1927.1 1752.5,1945.7 1751.2,1966.0 1751.5,1988.1 1753.3,2011.8 1756.5,2037.1 1761.2,2063.8 1767.2,2091.9 1774.5,2121.1 1783.0,2151.4 1792.6,2182.6 1803.2,2214.5 1814.8,2246.9 1827.1,2279.8 1840.1,2312.8 1853.6,2345.8  " style="stroke-opacity: 1.000000; stroke-width: 5.0; stroke: rgb(107,174,214); fill: none"  />
<path d="M 2237.4,2044.7 L 2208.2,2023.6 2178.8,2003.0 2149.2,1983.2 2119.6,1964.4 2090.2,1946.6 2061.1,1930.1 2032.4,1915.0 2004.2,1901.4 1976.6,1889.4 1949.7,1879.1 1923.7,1870.6 1898.6,1864.0 1874.4,1859.3 1851.4,1856.7 1829.5,1856.1 1808.7,1857.6 1789.2,1861.2 1771.1,1867.0 1754.2,1874.9 1738.7,1884.9 1724.7,1897.1 1712.0,1911.4 1700.7,1927.7 1690.9,1946.0 1682.5,1966.2 1675.5,1988.4 1670.0,2012.3 1665.8,2037.9 1662.9,2065.2 1661.4,2093.9 1661.1,2124.0 1662.0,2155.3 1664.1,2187.7 1667.3,2221.0 1671.5,2255.1 1676.7,2289.8 1682.7,2324.8 1689.5,2360.1 1696.9,2395.4  " style="stroke-opacity: 1.000000; stroke-width: 5.0; stroke: rgb(107,174,214); fill: none"  />
<path d="M 1533.9,2416.1 L 1532.5,2380.9 1530.9,2345.9 1529.2,2311.5 1527.3,2277.8 1525.2,2245.1 1523.0,2213.6 1520.5,2183.5 1517.9,2155.0 1515.0,2128.2 1512.0,2103.4 1508.8,2080.6 1505.4,2060.0 1501.8,2041.7 1498.1,2025.8 1494.2,2012.3 1490.0,2001.5 1485.8,1993.2 1481.3,1987.6 1476.8,1984.6 1472.0,1984.4 1467.2,1986.8 1462.2,1991.9 1457.0,1999.7 1451.8,2010.1 1446.5,2023.1 1441.1,2038.5 1435.6,2056.3 1430.0,2076.4 1424.5,2098.8 1418.8,2123.2 1413.2,2149.5 1407.6,2177.5 1402.0,2207.2 1396.4,2238.3 1390.9,2270.6 1385.4,2303.9 1380.1,2337.9 1374.8,2372.6 1369.8,2407.5  " style="stroke-opacity: 1.000000; stroke-width: 5.0; stroke: rgb(107,174,214); fill: none"  />
<path d="M 2128.3,2167.6 L 2104.2,2141.9 2080.4,2116.2 2057.1,2090.8 2034.4,2065.8 2012.6,2041.3 1991.8,2017.6 1972.1,1994.7 1953.7,1972.8 1936.6,1952.0 1921.0,1932.4 1907.1,1914.1 1894.8,1897.2 1884.3,1881.8 1875.6,1868.0 1868.8,1855.7 1863.9,1845.2 1861.0,1836.3 1860.1,1829.2 1861.3,1823.9 1864.4,1820.3 1869.6,1818.6 1876.7,1818.6 1885.9,1820.4 1896.9,1824.0 1909.9,1829.3 1924.7,1836.3 1941.2,1844.9 1959.4,1855.1 1979.2,1866.8 2000.5,1880.0 2023.2,1894.4 2047.2,1910.1 2072.2,1927.0 2098.3,1944.8 2125.1,1963.6 2152.6,1983.1 2180.7,2003.2 2209.0,2023.8 2237.4,2044.7  " style="stroke-opacity: 1.000000; stroke-width: 5.0; stroke: rgb(107,174,214); fill: none"  />
<path d="M 2128.3,2167.6 L 2104.0,2142.0 2079.9,2116.7 2055.9,2091.9 2032.3,2067.8 2009.2,2044.5 1986.8,2022.3 1965.1,2001.2 1944.4,1981.5 1924.7,1963.2 1906.0,1946.5 1888.6,1931.4 1872.5,1918.2 1857.8,1906.7 1844.5,1897.2 1832.7,1889.7 1822.4,1884.2 1813.8,1880.8 1806.7,1879.4 1801.3,1880.2 1797.6,1883.2 1795.6,1888.2 1795.2,1895.4 1796.4,1904.6 1799.3,1915.9 1803.8,1929.1 1809.9,1944.3 1817.5,1961.3 1826.6,1980.1 1837.1,2000.6 1848.9,2022.7 1861.9,2046.2 1876.2,2071.0 1891.5,2097.1 1907.7,2124.1 1924.8,2152.1 1942.6,2180.8 1961.0,2209.9 1979.8,2239.4 1999.0,2269.1  " style="stroke-opacity: 1.000000; stroke-width: 5.0; stroke: rgb(107,174,214); fill: none"  />
<path d="M 2128.3,2167.6 L 2103.6,2141.8 2078.8,2116.5 2053.8,2091.8 2028.9,2068.1 2004.1,2045.4 1979.5,2023.9 1955.3,2003.8 1931.6,1985.2 1908.4,1968.3 1885.9,1953.1 1864.2,1939.9 1843.2,1928.6 1823.2,1919.3 1804.1,1912.2 1786.0,1907.3 1768.9,1904.7 1753.0,1904.3 1738.2,1906.2 1724.6,1910.4 1712.2,1917.0 1701.1,1925.8 1691.1,1936.9 1682.5,1950.3 1675.1,1965.9 1668.9,1983.6 1664.0,2003.4 1660.3,2025.2 1657.8,2048.8 1656.5,2074.3 1656.3,2101.4 1657.2,2130.1 1659.2,2160.1 1662.1,2191.4 1666.0,2223.8 1670.8,2257.1 1676.3,2291.1 1682.6,2325.6 1689.5,2360.5 1696.9,2395.4  " style="stroke-opacity: 1.000000; stroke-width: 5.0; stroke: rgb(107,174,214); fill: none"  />
<path d="M 1867.0,659.9 L 1852.9,692.4 1839.3,724.9 1826.3,757.0 1813.8,788.7 1802.2,819.7 1791.4,849.8 1781.6,878.8 1772.8,906.7 1765.2,933.2 1758.7,958.2 1753.6,981.7 1749.7,1003.4 1747.2,1023.2 1746.2,1041.2 1746.6,1057.2 1748.4,1071.1 1751.7,1082.9 1756.6,1092.6 1762.9,1100.0 1770.7,1105.3 1780.0,1108.3 1790.8,1109.1 1803.0,1107.8 1816.6,1104.2 1831.5,1098.5 1847.7,1090.7 1865.2,1080.9 1883.8,1069.1 1903.6,1055.5 1924.3,1040.1 1946.0,1023.0 1968.4,1004.3 1991.6,984.2 2015.4,962.8 2039.7,940.3 2064.3,916.9 2089.1,892.6 2114.0,867.7 2138.8,842.4  " style="stroke-opacity: 1.000000; stroke-width: 5.0; stroke: rgb(107,174,214); fill: none"  />
<path d="M 1867.0,659.9 L 1852.8,693.0 1839.3,726.3 1826.6,759.5 1814.9,792.6 1804.1,825.2 1794.5,857.2 1786.2,888.6 1779.2,919.2 1773.6,948.7 1769.5,977.2 1767.0,1004.5 1766.2,1030.4 1767.0,1055.0 1769.6,1078.1 1773.9,1099.6 1779.9,1119.4 1787.8,1137.6 1797.5,1154.1 1808.9,1168.7 1822.2,1181.6 1837.1,1192.6 1853.9,1201.8 1872.3,1209.1 1892.3,1214.6 1913.9,1218.3 1937.1,1220.2 1961.6,1220.3 1987.6,1218.7 2014.7,1215.4 2043.1,1210.5 2072.5,1204.1 2102.8,1196.2 2133.9,1187.0 2165.7,1176.4 2198.0,1164.7 2230.7,1152.0 2263.5,1138.3 2296.4,1123.9 2329.1,1108.8  " style="stroke-opacity: 1.000000; stroke-width: 5.0; stroke: rgb(107,174,214); fill: none"  />
<path d="M 1999.0,2269.1 L 1979.8,2239.3 1961.1,2209.5 1943.0,2179.9 1925.5,2150.7 1909.0,2122.0 1893.5,2094.1 1879.0,2067.0 1865.8,2040.9 1854.0,2016.0 1843.6,1992.4 1834.6,1970.1 1827.3,1949.3 1821.6,1930.1 1817.7,1912.5 1815.4,1896.7 1815.0,1882.7 1816.3,1870.5 1819.5,1860.2 1824.6,1851.8 1831.4,1845.3 1840.1,1840.8 1850.6,1838.2 1862.9,1837.6 1876.8,1838.9 1892.5,1842.1 1909.8,1847.1 1928.6,1854.0 1948.9,1862.6 1970.6,1872.8 1993.6,1884.6 2017.7,1898.0 2042.9,1912.7 2069.1,1928.8 2096.0,1946.0 2123.6,1964.2 2151.7,1983.4 2180.2,2003.3 2208.8,2023.8 2237.4,2044.7  " style="stroke-opacity: 1.000000; stroke-width: 5.0; stroke: rgb(107,174,214); fill: none"  />
<path d="M 1999.0,2269.1 L 1979.8,2239.4 1961.0,2209.9 1942.6,2180.8 1924.8,2152.1 1907.7,2124.1 1891.5,2097.1 1876.2,2071.0 1861.9,2046.2 1848.9,2022.7 1837.1,2000.6 1826.6,1980.1 1817.5,1961.3 1809.9,1944.3 1803.8,1929.1 1799.3,1915.9 1796.4,1904.6 1795.2,1895.4 1795.6,1888.2 1797.6,1883.2 1801.3,1880.2 1806.7,1879.4 1813.8,1880.8 1822.4,1884.2 1832.7,1889.7 1844.5,1897.2 1857.8,1906.7 1872.5,1918.2 1888.6,1931.4 1906.0,1946.5 1924.7,1963.2 1944.4,1981.5 1965.1,2001.2 1986.8,2022.3 2009.2,2044.5 2032.3,2067.8 2055.9,2091.9 2079.9,2116.7 2104.0,2142.0 2128.3,2167.6  " style="stroke-opacity: 1.000000; stroke-width: 5.0; stroke: rgb(107,174,214); fill: none"  />
<path d="M 1999.0,2269.1 L 1979.7,2239.5 1960.4,2210.3 1941.3,2181.6 1922.4,2153.7 1903.8,2126.7 1885.7,2100.8 1868.2,2076.2 1851.3,2053.1 1835.1,2031.6 1819.8,2011.8 1805.4,1993.9 1791.9,1978.0 1779.4,1964.1 1768.0,1952.3 1757.8,1942.8 1748.7,1935.6 1740.7,1930.7 1734.1,1928.1 1728.6,1927.9 1724.4,1930.2 1721.5,1934.7 1719.8,1941.7 1719.4,1951.0 1720.3,1962.6 1722.3,1976.5 1725.6,1992.5 1730.0,2010.6 1735.6,2030.7 1742.3,2052.8 1749.9,2076.6 1758.6,2102.0 1768.2,2129.0 1778.6,2157.4 1789.7,2186.9 1801.5,2217.5 1813.9,2248.8 1826.8,2280.8 1840.1,2313.2 1853.6,2345.8  " style="stroke-opacity: 1.000000; stroke-width: 5.0; stroke: rgb(107,174,214); fill: none"  />
<path d="M 1999.0,2269.1 L 1979.5,2239.4 1960.0,2210.2 1940.3,2181.6 1920.7,2153.8 1901.3,2127.0 1882.1,2101.4 1863.3,2077.2 1844.9,2054.5 1826.9,2033.5 1809.6,2014.4 1792.9,1997.2 1776.9,1982.0 1761.7,1969.0 1747.3,1958.2 1733.7,1949.7 1721.1,1943.6 1709.4,1939.9 1698.7,1938.6 1689.0,1939.8 1680.3,1943.4 1672.6,1949.5 1666.0,1958.0 1660.4,1969.0 1655.9,1982.3 1652.4,1997.9 1650.0,2015.7 1648.6,2035.7 1648.1,2057.7 1648.6,2081.7 1650.1,2107.5 1652.4,2135.0 1655.6,2164.0 1659.6,2194.4 1664.4,2226.0 1669.8,2258.7 1675.8,2292.2 1682.4,2326.3 1689.5,2360.7 1696.9,2395.4  " style="stroke-opacity: 1.000000; stroke-width: 5.0; stroke: rgb(107,174,214); fill: none"  />
<path d="M 1369.8,2407.5 L 1374.8,2372.6 1380.1,2337.9 1385.4,2303.9 1390.9,2270.6 1396.4,2238.3 1402.0,2207.2 1407.6,2177.5 1413.2,2149.5 1418.8,2123.2 1424.5,2098.8 1430.0,2076.4 1435.6,2056.3 1441.1,2038.5 1446.5,2023.1 1451.8,2010.1 1457.0,1999.7 1462.2,1991.9 1467.2,1986.8 1472.0,1984.4 1476.8,1984.6 1481.3,1987.6 1485.8,1993.2 1490.0,2001.5 1494.2,2012.3 1498.1,2025.8 1501.8,2041.7 1505.4,2060.0 1508.8,2080.6 1512.0,2103.4 1515.0,2128.2 1517.9,2155.0 1520.5,2183.5 1523.0,2213.6 1525.2,2245.1 1527.3,2277.8 1529.2,2311.5 1530.9,2345.9 1532.5,2380.9 1533.9,2416.1  " style="stroke-opacity: 1.000000; stroke-width: 5.0; stroke: rgb(107,174,214); fill: none"  />
<path d="M 1209.8,2369.6 L 1220.9,2336.1 1231.7,2302.8 1242.2,2270.0 1252.3,2237.8 1261.8,2206.4 1270.8,2176.2 1279.0,2147.1 1286.6,2119.5 1293.3,2093.5 1299.2,2069.1 1304.2,2046.7 1308.3,2026.2 1311.4,2007.8 1313.5,1991.6 1314.5,1977.6 1314.5,1966.0 1313.4,1956.7 1311.2,1949.9 1308.0,1945.6 1303.6,1943.7 1298.2,1944.2 1291.7,1947.3 1284.2,1952.8 1275.6,1960.7 1266.1,1970.9 1255.6,1983.4 1244.2,1998.2 1232.0,2015.1 1218.9,2034.0 1205.1,2054.9 1190.5,2077.5 1175.4,2101.8 1159.7,2127.7 1143.6,2154.8 1127.1,2183.1 1110.3,2212.3 1093.3,2242.4 1076.2,2272.9 1059.2,2303.8  " style="stroke-opacity: 1.000000; stroke-width: 5.0; stroke: rgb(107,174,214); fill: none"  />
<path d="M 1209.8,2369.6 L 1220.9,2336.0 1231.5,2302.4 1241.7,2269.2 1251.2,2236.6 1260.0,2204.7 1268.1,2173.7 1275.2,2143.9 1281.5,2115.4 1286.7,2088.3 1290.9,2062.8 1293.9,2039.0 1295.8,2017.0 1296.5,1997.0 1295.9,1979.0 1294.1,1963.1 1291.0,1949.4 1286.7,1938.0 1281.0,1928.8 1274.0,1921.9 1265.7,1917.4 1256.2,1915.2 1245.4,1915.4 1233.4,1917.8 1220.2,1922.6 1205.8,1929.6 1190.3,1938.8 1173.8,1950.1 1156.3,1963.5 1137.9,1978.9 1118.6,1996.1 1098.6,2015.1 1077.9,2035.7 1056.6,2057.8 1034.8,2081.2 1012.7,2105.8 990.3,2131.4 967.7,2157.8 945.2,2184.8 922.8,2212.2  " style="stroke-opacity: 1.000000; stroke-width: 5.0; stroke: rgb(107,174,214); fill: none"  />
<path d="M 1209.8,2369.6 L 1220.9,2335.7 1231.4,2301.8 1241.3,2268.1 1250.4,2234.9 1258.6,2202.3 1265.9,2170.5 1272.1,2139.7 1277.2,2110.0 1281.2,2081.6 1283.9,2054.6 1285.2,2029.1 1285.2,2005.3 1283.9,1983.3 1281.1,1963.1 1276.8,1944.8 1271.1,1928.6 1263.9,1914.4 1255.2,1902.2 1245.0,1892.3 1233.4,1884.5 1220.3,1878.8 1205.8,1875.4 1189.9,1874.1 1172.7,1874.9 1154.2,1877.9 1134.4,1882.9 1113.5,1890.0 1091.5,1899.0 1068.4,1909.9 1044.5,1922.6 1019.7,1937.0 994.1,1953.0 967.9,1970.4 941.3,1989.2 914.2,2009.2 886.9,2030.2 859.5,2052.0 832.1,2074.6 804.9,2097.7  " style="stroke-opacity: 1.000000; stroke-width: 5.0; stroke: rgb(107,174,214); fill: none"  />
<path d="M 644.3,1171.1 L 678.5,1183.8 712.8,1195.8 747.3,1207.0 781.6,1217.1 815.7,1226.1 849.3,1233.9 882.3,1240.4 914.7,1245.4 946.2,1249.0 976.8,1251.0 1006.3,1251.4 1034.7,1250.2 1061.8,1247.2 1087.6,1242.4 1112.0,1235.9 1134.9,1227.6 1156.3,1217.4 1176.1,1205.5 1194.3,1191.7 1210.8,1176.2 1225.7,1158.9 1238.8,1139.8 1250.2,1119.1 1259.9,1096.7 1267.9,1072.7 1274.2,1047.3 1278.9,1020.4 1281.9,992.1 1283.3,962.6 1283.1,932.0 1281.4,900.3 1278.3,867.7 1273.9,834.3 1268.1,800.3 1261.2,765.8 1253.2,730.9 1244.2,695.8 1234.3,660.8 1223.6,625.9  " style="stroke-opacity: 1.000000; stroke-width: 5.0; stroke: rgb(107,174,214); fill: none"  />
<path d="M 1059.2,2303.8 L 1076.2,2272.9 1093.3,2242.4 1110.3,2212.3 1127.1,2183.1 1143.6,2154.8 1159.7,2127.7 1175.4,2101.8 1190.5,2077.5 1205.1,2054.9 1218.9,2034.0 1232.0,2015.1 1244.2,1998.2 1255.6,1983.4 1266.1,1970.9 1275.6,1960.7 1284.2,1952.8 1291.7,1947.3 1298.2,1944.2 1303.6,1943.7 1308.0,1945.6 1311.2,1949.9 1313.4,1956.7 1314.5,1966.0 1314.5,1977.6 1313.5,1991.6 1311.4,2007.8 1308.3,2026.2 1304.2,2046.7 1299.2,2069.1 1293.3,2093.5 1286.6,2119.5 1279.0,2147.1 1270.8,2176.2 1261.8,2206.4 1252.3,2237.8 1242.2,2270.0 1231.7,2302.8 1220.9,2336.1 1209.8,2369.6  " style="stroke-opacity: 1.000000; stroke-width: 5.0; stroke: rgb(107,174,214); fill: none"  />
<path d="M 1059.2,2303.8 L 1076.1,2272.9 1092.7,2242.0 1108.9,2211.6 1124.5,2181.7 1139.5,2152.6 1153.7,2124.4 1167.0,2097.3 1179.4,2071.4 1190.7,2047.0 1200.8,2024.1 1209.8,2002.9 1217.4,1983.5 1223.7,1966.0 1228.7,1950.4 1232.2,1936.8 1234.3,1925.4 1234.8,1916.1 1233.9,1909.0 1231.5,1904.1 1227.6,1901.5 1222.1,1901.1 1215.2,1902.9 1206.8,1906.9 1197.0,1913.2 1185.8,1921.6 1173.2,1932.0 1159.4,1944.5 1144.3,1959.0 1128.0,1975.3 1110.7,1993.3 1092.4,2013.0 1073.2,2034.2 1053.1,2056.8 1032.4,2080.6 1011.1,2105.5 989.3,2131.3 967.3,2157.8 945.0,2184.9 922.8,2212.2  " style="stroke-opacity: 1.000000; stroke-width: 5.0; stroke: rgb(107,174,214); fill: none"  />
<path d="M 1059.2,2303.8 L 1076.1,2272.7 1092.6,2241.6 1108.5,2210.7 1123.7,2180.3 1138.1,2150.5 1151.5,2121.5 1163.9,2093.4 1175.1,2066.5 1185.1,2040.7 1193.7,2016.4 1201.0,1993.5 1206.8,1972.3 1211.0,1952.7 1213.7,1934.9 1214.7,1918.9 1214.1,1904.9 1211.9,1892.8 1207.9,1882.8 1202.3,1874.8 1195.0,1868.9 1186.0,1865.0 1175.3,1863.2 1163.1,1863.5 1149.2,1865.8 1133.8,1870.2 1117.0,1876.5 1098.7,1884.7 1079.1,1894.7 1058.2,1906.5 1036.2,1920.0 1013.1,1935.1 989.0,1951.7 964.1,1969.6 938.5,1988.8 912.4,2009.0 885.7,2030.2 858.8,2052.2 831.8,2074.7 804.9,2097.7  " style="stroke-opacity: 1.000000; stroke-width: 5.0; stroke: rgb(107,174,214); fill: none"  />
<path d="M 1853.6,2345.8 L 1840.1,2312.8 1827.1,2279.8 1814.8,2246.9 1803.2,2214.5 1792.6,2182.6 1783.0,2151.4 1774.5,2121.1 1767.2,2091.9 1761.2,2063.8 1756.5,2037.1 1753.3,2011.8 1751.5,1988.1 1751.2,1966.0 1752.5,1945.7 1755.4,1927.1 1759.9,1910.5 1766.1,1895.8 1773.9,1883.1 1783.3,1872.4 1794.3,1863.7 1806.9,1857.1 1821.1,1852.6 1836.9,1850.1 1854.1,1849.7 1872.8,1851.3 1892.9,1854.9 1914.2,1860.4 1936.9,1867.8 1960.7,1876.9 1985.5,1887.8 2011.3,1900.3 2038.0,1914.4 2065.3,1929.9 2093.3,1946.6 2121.8,1964.5 2150.6,1983.4 2179.6,2003.2 2208.5,2023.7 2237.4,2044.7  " style="stroke-opacity: 1.000000; stroke-width: 5.0; stroke: rgb(107,174,214); fill: none"  />
<path d="M 1853.6,2345.8 L 1840.1,2313.2 1826.8,2280.8 1813.9,2248.8 1801.5,2217.5 1789.7,2186.9 1778.6,2157.4 1768.2,2129.0 1758.6,2102.0 1749.9,2076.6 1742.3,2052.8 1735.6,2030.7 1730.0,2010.6 1725.6,1992.5 1722.3,1976.5 1720.3,1962.6 1719.4,1951.0 1719.8,1941.7 1721.5,1934.7 1724.4,1930.2 1728.6,1927.9 1734.1,1928.1 1740.7,1930.7 1748.7,1935.6 1757.8,1942.8 1768.0,1952.3 1779.4,1964.1 1791.9,1978.0 1805.4,1993.9 1819.8,2011.8 1835.1,2031.6 1851.3,2053.1 1868.2,2076.2 1885.7,2100.8 1903.8,2126.7 1922.4,2153.7 1941.3,2181.6 1960.4,2210.3 1979.7,2239.5 1999.0,2269.1  " style="stroke-opacity: 1.000000; stroke-width: 5.0; stroke: rgb(107,174,214); fill: none"  />
<path d="M 1853.6,2345.8 L 1839.9,2313.3 1826.2,2281.1 1812.5,2249.5 1798.9,2218.6 1785.4,2188.7 1772.2,2160.0 1759.4,2132.7 1746.9,2106.9 1734.8,2082.9 1723.3,2060.7 1712.3,2040.5 1701.8,2022.4 1692.1,2006.5 1683.0,1992.9 1674.6,1981.7 1666.9,1973.0 1660.0,1966.7 1653.9,1963.0 1648.5,1961.9 1644.0,1963.3 1640.3,1967.3 1637.4,1973.9 1635.4,1982.9 1634.1,1994.5 1633.7,2008.5 1634.0,2024.9 1635.2,2043.5 1637.1,2064.3 1639.7,2087.1 1643.0,2111.9 1646.9,2138.5 1651.5,2166.8 1656.7,2196.5 1662.4,2227.6 1668.6,2259.8 1675.2,2292.9 1682.2,2326.6 1689.4,2360.9 1696.9,2395.4  " style="stroke-opacity: 1.000000; stroke-width: 5.0; stroke: rgb(107,174,214); fill: none"  />
<path d="M 2138.8,842.4 L 2114.0,867.7 2089.1,892.6 2064.3,916.9 2039.7,940.3 2015.4,962.8 1991.6,984.2 1968.4,1004.3 1946.0,1023.0 1924.3,1040.1 1903.6,1055.5 1883.8,1069.1 1865.2,1080.9 1847.7,1090.7 1831.5,1098.5 1816.6,1104.2 1803.0,1107.8 1790.8,1109.1 1780.0,1108.3 1770.7,1105.3 1762.9,1100.0 1756.6,1092.6 1751.7,1082.9 1748.4,1071.1 1746.6,1057.2 1746.2,1041.2 1747.2,1023.2 1749.7,1003.4 1753.6,981.7 1758.7,958.2 1765.2,933.2 1772.8,906.7 1781.6,878.8 1791.4,849.8 1802.2,819.7 1813.8,788.7 1826.3,757.0 1839.3,724.9 1852.9,692.4 1867.0,659.9  " style="stroke-opacity: 1.000000; stroke-width: 5.0; stroke: rgb(107,174,214); fill: none"  />
<path d="M 922.8,2212.2 L 945.2,2184.8 967.7,2157.8 990.3,2131.4 1012.7,2105.8 1034.8,2081.2 1056.6,2057.8 1077.9,2035.7 1098.6,2015.1 1118.6,1996.1 1137.9,1978.9 1156.3,1963.5 1173.8,1950.1 1190.3,1938.8 1205.8,1929.6 1220.2,1922.6 1233.4,1917.8 1245.4,1915.4 1256.2,1915.2 1265.7,1917.4 1274.0,1921.9 1281.0,1928.8 1286.7,1938.0 1291.0,1949.4 1294.1,1963.1 1295.9,1979.0 1296.5,1997.0 1295.8,2017.0 1293.9,2039.0 1290.9,2062.8 1286.7,2088.3 1281.5,2115.4 1275.2,2143.9 1268.1,2173.7 1260.0,2204.7 1251.2,2236.6 1241.7,2269.2 1231.5,2302.4 1220.9,2336.0 1209.8,2369.6  " style="stroke-opacity: 1.000000; stroke-width: 5.0; stroke: rgb(107,174,214); fill: none"  />
<path d="M 922.8,2212.2 L 945.0,2184.9 967.3,2157.8 989.3,2131.3 1011.1,2105.5 1032.4,2080.6 1053.1,2056.8 1073.2,2034.2 1092.4,2013.0 1110.7,1993.3 1128.0,1975.3 1144.3,1959.0 1159.4,1944.5 1173.2,1932.0 1185.8,1921.6 1197.0,1913.2 1206.8,1906.9 1215.2,1902.9 1222.1,1901.1 1227.6,1901.5 1231.5,1904.1 1233.9,1909.0 1234.8,1916.1 1234.3,1925.4 1232.2,1936.8 1228.7,1950.4 1223.7,1966.0 1217.4,1983.5 1209.8,2002.9 1200.8,2024.1 1190.7,2047.0 1179.4,2071.4 1167.0,2097.3 1153.7,2124.4 1139.5,2152.6 1124.5,2181.7 1108.9,2211.6 1092.7,2242.0 1076.1,2272.9 1059.2,2303.8  " style="stroke-opacity: 1.000000; stroke-width: 5.0; stroke: rgb(107,174,214); fill: none"  />
<path d="M 922.8,2212.2 L 944.9,2184.7 966.7,2157.4 988.1,2130.3 1008.8,2103.7 1028.8,2077.7 1047.8,2052.5 1065.7,2028.2 1082.5,2005.0 1098.0,1983.0 1112.0,1962.3 1124.6,1943.0 1135.6,1925.3 1145.0,1909.1 1152.6,1894.7 1158.5,1882.0 1162.6,1871.1 1164.8,1862.0 1165.2,1854.9 1163.6,1849.7 1160.3,1846.4 1155.0,1845.0 1147.8,1845.6 1138.9,1848.1 1128.1,1852.4 1115.6,1858.7 1101.3,1866.7 1085.5,1876.6 1068.1,1888.1 1049.2,1901.2 1028.9,1915.9 1007.3,1932.0 984.6,1949.4 960.9,1968.1 936.2,1987.8 910.8,2008.5 884.8,2030.0 858.4,2052.1 831.7,2074.8 804.9,2097.7  " style="stroke-opacity: 1.000000; stroke-width: 5.0; stroke: rgb(107,174,214); fill: none"  />
<path d="M 804.9,2097.7 L 832.1,2074.6 859.5,2052.0 886.9,2030.2 914.2,2009.2 941.3,1989.2 967.9,1970.4 994.1,1953.0 1019.7,1937.0 1044.5,1922.6 1068.4,1909.9 1091.5,1899.0 1113.5,1890.0 1134.4,1882.9 1154.2,1877.9 1172.7,1874.9 1189.9,1874.1 1205.8,1875.4 1220.3,1878.8 1233.4,1884.5 1245.0,1892.3 1255.2,1902.2 1263.9,1914.4 1271.1,1928.6 1276.8,1944.8 1281.1,1963.1 1283.9,1983.3 1285.2,2005.3 1285.2,2029.1 1283.9,2054.6 1281.2,2081.6 1277.2,2110.0 1272.1,2139.7 1265.9,2170.5 1258.6,2202.3 1250.4,2234.9 1241.3,2268.1 1231.4,2301.8 1220.9,2335.7 1209.8,2369.6  " style="stroke-opacity: 1.000000; stroke-width: 5.0; stroke: rgb(107,174,214); fill: none"  />
<path d="M 804.9,2097.7 L 831.8,2074.7 858.8,2052.2 885.7,2030.2 912.4,2009.0 938.5,1988.8 964.1,1969.6 989.0,1951.7 1013.1,1935.1 1036.2,1920.0 1058.2,1906.5 1079.1,1894.7 1098.7,1884.7 1117.0,1876.5 1133.8,1870.2 1149.2,1865.8 1163.1,1863.5 1175.3,1863.2 1186.0,1865.0 1195.0,1868.9 1202.3,1874.8 1207.9,1882.8 1211.9,1892.8 1214.1,1904.9 1214.7,1918.9 1213.7,1934.9 1211.0,1952.7 1206.8,1972.3 1201.0,1993.5 1193.7,2016.4 1185.1,2040.7 1175.1,2066.5 1163.9,2093.4 1151.5,2121.5 1138.1,2150.5 1123.7,2180.3 1108.5,2210.7 1092.6,2241.6 1076.1,2272.7 1059.2,2303.8  " style="stroke-opacity: 1.000000; stroke-width: 5.0; stroke: rgb(107,174,214); fill: none"  />
<path d="M 804.9,2097.7 L 831.7,2074.8 858.4,2052.1 884.8,2030.0 910.8,2008.5 936.2,1987.8 960.9,1968.1 984.6,1949.4 1007.3,1932.0 1028.9,1915.9 1049.2,1901.2 1068.1,1888.1 1085.5,1876.6 1101.3,1866.7 1115.6,1858.7 1128.1,1852.4 1138.9,1848.1 1147.8,1845.6 1155.0,1845.0 1160.3,1846.4 1163.6,1849.7 1165.2,1854.9 1164.8,1862.0 1162.6,1871.1 1158.5,1882.0 1152.6,1894.7 1145.0,1909.1 1135.6,1925.3 1124.6,1943.0 1112.0,1962.3 1098.0,1983.0 1082.5,2005.0 1065.7,2028.2 1047.8,2052.5 1028.8,2077.7 1008.8,2103.7 988.1,2130.3 966.7,2157.4 944.9,2184.7 922.8,2212.2  " style="stroke-opacity: 1.000000; stroke-width: 5.0; stroke: rgb(107,174,214); fill: none"  />
<path d="M 1072.0,689.3 L 1088.5,720.4 1105.1,751.3 1121.6,781.6 1137.9,811.1 1154.0,839.6 1169.7,867.0 1185.0,893.1 1199.7,917.6 1213.9,940.5 1227.4,961.6 1240.2,980.7 1252.1,997.8 1263.3,1012.7 1273.6,1025.5 1283.0,1035.9 1291.4,1043.9 1298.8,1049.5 1305.3,1052.6 1310.7,1053.3 1315.0,1051.5 1318.4,1047.1 1320.6,1040.4 1321.9,1031.1 1322.1,1019.5 1321.3,1005.5 1319.4,989.3 1316.7,970.8 1312.9,950.3 1308.3,927.8 1302.7,903.3 1296.4,877.2 1289.3,849.5 1281.5,820.3 1273.0,789.9 1264.0,758.4 1254.4,726.0 1244.5,693.0 1234.2,659.6 1223.6,625.9  " style="stroke-opacity: 1.000000; stroke-width: 5.0; stroke: rgb(107,174,214); fill: none"  />
<path d="M 1223.6,625.9 L 1234.3,660.8 1244.2,695.8 1253.2,730.9 1261.2,765.8 1268.1,800.3 1273.9,834.3 1278.3,867.7 1281.4,900.3 1283.1,932.0 1283.3,962.6 1281.9,992.1 1278.9,1020.4 1274.2,1047.3 1267.9,1072.7 1259.9,1096.7 1250.2,1119.1 1238.8,1139.8 1225.7,1158.9 1210.8,1176.2 1194.3,1191.7 1176.1,1205.5 1156.3,1217.4 1134.9,1227.6 1112.0,1235.9 1087.6,1242.4 1061.8,1247.2 1034.7,1250.2 1006.3,1251.4 976.8,1251.0 946.2,1249.0 914.7,1245.4 882.3,1240.4 849.3,1233.9 815.7,1226.1 781.6,1217.1 747.3,1207.0 712.8,1195.8 678.5,1183.8 644.3,1171.1  " style="stroke-opacity: 1.000000; stroke-width: 5.0; stroke: rgb(107,174,214); fill: none"  />
<path d="M 1223.6,625.9 L 1234.2,659.6 1244.5,693.0 1254.4,726.0 1264.0,758.4 1273.0,789.9 1281.5,820.3 1289.3,849.5 1296.4,877.2 1302.7,903.3 1308.3,927.8 1312.9,950.3 1316.7,970.8 1319.4,989.3 1321.3,1005.5 1322.1,1019.5 1321.9,1031.1 1320.6,1040.4 1318.4,1047.1 1315.0,1051.5 1310.7,1053.3 1305.3,1052.6 1298.8,1049.5 1291.4,1043.9 1283.0,1035.9 1273.6,1025.5 1263.3,1012.7 1252.1,997.8 1240.2,980.7 1227.4,961.6 1213.9,940.5 1199.7,917.6 1185.0,893.1 1169.7,867.0 1154.0,839.6 1137.9,811.1 1121.6,781.6 1105.1,751.3 1088.5,720.4 1072.0,689.3  " style="stroke-opacity: 1.000000; stroke-width: 5.0; stroke: rgb(107,174,214); fill: none"  />
<path d="M 1696.9,2395.4 L 1689.5,2360.1 1682.7,2324.8 1676.7,2289.8 1671.5,2255.1 1667.3,2221.0 1664.1,2187.7 1662.0,2155.3 1661.1,2124.0 1661.4,2093.9 1662.9,2065.2 1665.8,2037.9 1670.0,2012.3 1675.5,1988.4 1682.5,1966.2 1690.9,1946.0 1700.7,1927.7 1712.0,1911.4 1724.7,1897.1 1738.7,1884.9 1754.2,1874.9 1771.1,1867.0 1789.2,1861.2 1808.7,1857.6 1829.5,1856.1 1851.4,1856.7 1874.4,1859.3 1898.6,1864.0 1923.7,1870.6 1949.7,1879.1 1976.6,1889.4 2004.2,1901.4 2032.4,1915.0 2061.1,1930.1 2090.2,1946.6 2119.6,1964.4 2149.2,1983.2 2178.8,2003.0 2208.2,2023.6 2237.4,2044.7  " style="stroke-opacity: 1.000000; stroke-width: 5.0; stroke: rgb(107,174,214); fill: none"  />
<path d="M 1696.9,2395.4 L 1689.5,2360.5 1682.6,2325.6 1676.3,2291.1 1670.8,2257.1 1666.0,2223.8 1662.1,2191.4 1659.2,2160.1 1657.2,2130.1 1656.3,2101.4 1656.5,2074.3 1657.8,2048.8 1660.3,2025.2 1664.0,2003.4 1668.9,1983.6 1675.1,1965.9 1682.5,1950.3 1691.1,1936.9 1701.1,1925.8 1712.2,1917.0 1724.6,1910.4 1738.2,1906.2 1753.0,1904.3 1768.9,1904.7 1786.0,1907.3 1804.1,1912.2 1823.2,1919.3 1843.2,1928.6 1864.2,1939.9 1885.9,1953.1 1908.4,1968.3 1931.6,1985.2 1955.3,2003.8 1979.5,2023.9 2004.1,2045.4 2028.9,2068.1 2053.8,2091.8 2078.8,2116.5 2103.6,2141.8 2128.3,2167.6  " style="stroke-opacity: 1.000000; stroke-width: 5.0; stroke: rgb(107,174,214); fill: none"  />
<path d="M 1696.9,2395.4 L 1689.5,2360.7 1682.4,2326.3 1675.8,2292.2 1669.8,2258.7 1664.4,2226.0 1659.6,2194.4 1655.6,2164.0 1652.4,2135.0 1650.1,2107.5 1648.6,2081.7 1648.1,2057.7 1648.6,2035.7 1650.0,2015.7 1652.4,1997.9 1655.9,1982.3 1660.4,1969.0 1666.0,1958.0 1672.6,1949.5 1680.3,1943.4 1689.0,1939.8 1698.7,1938.6 1709.4,1939.9 1721.1,1943.6 1733.7,1949.7 1747.3,1958.2 1761.7,1969.0 1776.9,1982.0 1792.9,1997.2 1809.6,2014.4 1826.9,2033.5 1844.9,2054.5 1863.3,2077.2 1882.1,2101.4 1901.3,2127.0 1920.7,2153.8 1940.3,2181.6 1960.0,2210.2 1979.5,2239.4 1999.0,2269.1  " style="stroke-opacity: 1.000000; stroke-width: 5.0; stroke: rgb(107,174,214); fill: none"  />
<path d="M 1696.9,2395.4 L 1689.4,2360.9 1682.2,2326.6 1675.2,2292.9 1668.6,2259.8 1662.4,2227.6 1656.7,2196.5 1651.5,2166.8 1646.9,2138.5 1643.0,2111.9 1639.7,2087.1 1637.1,2064.3 1635.2,2043.5 1634.0,2024.9 1633.7,2008.5 1634.1,1994.5 1635.4,1982.9 1637.4,1973.9 1640.3,1967.3 1644.0,1963.3 1648.5,1961.9 1653.9,1963.0 1660.0,1966.7 1666.9,1973.0 1674.6,1981.7 1683.0,1992.9 1692.1,2006.5 1701.8,2022.4 1712.3,2040.5 1723.3,2060.7 1734.8,2082.9 1746.9,2106.9 1759.4,2132.7 1772.2,2160.0 1785.4,2188.7 1798.9,2218.6 1812.5,2249.5 1826.2,2281.1 1839.9,2313.3 1853.6,2345.8  " style="stroke-opacity: 1.000000; stroke-width: 5.0; stroke: rgb(107,174,214); fill: none"  />
<path d="M 2329.1,1108.8 L 2296.4,1123.9 2263.5,1138.3 2230.7,1152.0 2198.0,1164.7 2165.7,1176.4 2133.9,1187.0 2102.8,1196.2 2072.5,1204.1 2043.1,1210.5 2014.7,1215.4 1987.6,1218.7 1961.6,1220.3 1937.1,1220.2 1913.9,1218.3 1892.3,1214.6 1872.3,1209.1 1853.9,1201.8 1837.1,1192.6 1822.2,1181.6 1808.9,1168.7 1797.5,1154.1 1787.8,1137.6 1779.9,1119.4 1773.9,1099.6 1769.6,1078.1 1767.0,1055.0 1766.2,1030.4 1767.0,1004.5 1769.5,977.2 1773.6,948.7 1779.2,919.2 1786.2,888.6 1794.5,857.2 1804.1,825.2 1814.9,792.6 1826.6,759.5 1839.3,726.3 1852.8,693.0 1867.0,659.9  " style="stroke-opacity: 1.000000; stroke-width: 5.0; stroke: rgb(107,174,214); fill: none"  />
</g>
<defs>
<pattern id="checker" width="10" height="10" patternTransform="rotate(45 0 0)" patternUnits="userSpaceOnUse"><line x1="0" y1="0" x2="10" y2="0" style="stroke:black;stroke-width:2" /><line x1="0" y1="0" x2="0" y2="10" style="stroke:black;stroke-width:2" /></pattern>
<pattern id="vline" width="10" height="10" patternTransform="rotate(0 0 0)" patternUnits="userSpaceOnUse"><line x1="0" y1="0" x2="0" y2="10" style="stroke:black;stroke-width:5" /></pattern>
<pattern id="vline-sparse" width="10" height="10" patternTransform="rotate(0 0 0)" patternUnits="userSpaceOnUse"><line x1="0" y1="0" x2="0" y2="10" style="stroke:black;stroke-width:2" /></pattern>
<pattern id="checker" width="10" height="10" patternTransform="rotate(45 0 0)" patternUnits="userSpaceOnUse"><line x1="0" y1="0" x2="10" y2="0" style="stroke:black;stroke-width:5" /><line x1="0" y1="0" x2="0" y2="10" style="stroke:black;stroke-width:4" /></pattern>
<pattern id="hline" width="10" height="10" patternTransform="rotate(0 0 0)" patternUnits="userSpaceOnUse"><line x1="0" y1="0" x2="10" y2="0" style="stroke:black;stroke-width:5" /></pattern>
<pattern id="hline-sparse" width="10" height="10" patternTransform="rotate(0 0 0)" patternUnits="userSpaceOnUse"><line x1="0" y1="0" x2="10" y2="0" style="stroke:black;stroke-width:2" /></pattern>
</defs>
</svg>
