<?xml version="1.0" encoding="utf-8" standalone="no"?>
<!DOCTYPE svg PUBLIC "-//W3C//DTD SVG 1.1//EN" "http://www.w3.org/Graphics/SVG/1.1/DTD/svg11.dtd">
<svg width="3000px" height="3000px" version="1.1" xmlns="http://www.w3.org/2000/svg" xmlns:xlink="http://www.w3.org/1999/xlink">
<g id="bg">
<rect x="0" y="0" width="3000px" height="3000px" style="fill:rgb(255,255,255);"/>
</g>
<g id="ideograms">
<path d="M1500.000,830.000 A670.000,670.000 40.000 0,1 1570.620,833.732 L1579.053,754.178 A750.000,750.000 0.000 0,0 1500.000,750.000 Z" style="stroke-width:2.0;stroke:rgb(115,115,115);stroke-linecap:round;fill:rgb(153,204,255);" />
<text x="1568.0" y="677.8" font-size="65.0px" font-family="CMUBright-Roman" style="text-anchor:start;fill:rgb(0,0,0);" transform="rotate(273.0,1568.0,677.8)" >4-FOC</text>
<path d="M1500.000,830.000 A670.000,670.000 40.000 0,1 1570.620,833.732 L1579.053,754.178 A750.000,750.000 0.000 0,0 1500.000,750.000 Z" style="stroke-width:2.0;stroke:rgb(115,115,115);stroke-linecap:round;fill:none;" />
<path d="M1619.633,840.767 A670.000,670.000 40.000 0,1 1688.452,857.049 L1710.954,780.279 A750.000,750.000 0.000 0,0 1633.918,762.053 Z" style="stroke-width:2.0;stroke:rgb(115,115,115);stroke-linecap:round;fill:rgb(153,204,255);" />
<text x="1713.7" y="703.2" font-size="65.0px" font-family="CMUBright-Roman" style="text-anchor:start;fill:rgb(0,0,0);" transform="rotate(283.3,1713.7,703.2)" >6-IFG</text>
<path d="M1619.633,840.767 A670.000,670.000 40.000 0,1 1688.452,857.049 L1710.954,780.279 A750.000,750.000 0.000 0,0 1633.918,762.053 Z" style="stroke-width:2.0;stroke:rgb(115,115,115);stroke-linecap:round;fill:none;" />
<path d="M1735.421,872.723 A670.000,670.000 40.000 0,1 1800.227,901.031 L1836.075,829.512 A750.000,750.000 0.000 0,0 1763.531,797.824 Z" style="stroke-width:2.0;stroke:rgb(115,115,115);stroke-linecap:round;fill:rgb(153,204,255);" />
<text x="1852.5" y="754.1" font-size="65.0px" font-family="CMUBright-Roman" style="text-anchor:start;fill:rgb(0,0,0);" transform="rotate(293.6,1852.5,754.1)" >8-IFG</text>
<path d="M1735.421,872.723 A670.000,670.000 40.000 0,1 1800.227,901.031 L1836.075,829.512 A750.000,750.000 0.000 0,0 1763.531,797.824 Z" style="stroke-width:2.0;stroke:rgb(115,115,115);stroke-linecap:round;fill:none;" />
<path d="M1843.643,924.839 A670.000,670.000 40.000 0,1 1902.352,964.264 L1950.394,900.296 A750.000,750.000 0.000 0,0 1884.674,856.163 Z" style="stroke-width:2.0;stroke:rgb(115,115,115);stroke-linecap:round;fill:rgb(153,204,255);" />
<text x="1979.7" y="828.8" font-size="65.0px" font-family="CMUBright-Roman" style="text-anchor:start;fill:rgb(0,0,0);" transform="rotate(303.9,1979.7,828.8)" >15-LVIIIb</text>
<path d="M1843.643,924.839 A670.000,670.000 40.000 0,1 1902.352,964.264 L1950.394,900.296 A750.000,750.000 0.000 0,0 1884.674,856.163 Z" style="stroke-width:2.0;stroke:rgb(115,115,115);stroke-linecap:round;fill:none;" />
<path d="M1940.819,995.442 A670.000,670.000 40.000 0,1 1991.546,1044.717 L2050.238,990.354 A750.000,750.000 0.000 0,0 1993.454,935.196 Z" style="stroke-width:2.0;stroke:rgb(115,115,115);stroke-linecap:round;fill:rgb(153,204,255);" />
<text x="2092.1" y="925.6" font-size="65.0px" font-family="CMUBright-Roman" style="text-anchor:start;fill:rgb(0,0,0);" transform="rotate(314.2,2092.1,925.6)" >19-MTG</text>
<path d="M1940.819,995.442 A670.000,670.000 40.000 0,1 1991.546,1044.717 L2050.238,990.354 A750.000,750.000 0.000 0,0 1993.454,935.196 Z" style="stroke-width:2.0;stroke:rgb(115,115,115);stroke-linecap:round;fill:none;" />
<path d="M2023.827,1082.262 A670.000,670.000 40.000 0,1 2064.940,1139.802 L2132.396,1096.793 A750.000,750.000 0.000 0,0 2086.374,1032.383 Z" style="stroke-width:2.0;stroke:rgb(115,115,115);stroke-linecap:round;fill:rgb(153,204,255);" />
<text x="2185.2" y="1040.5" font-size="65.0px" font-family="CMUBright-Roman" style="text-anchor:start;fill:rgb(0,0,0);" transform="rotate(324.5,2185.2,1040.5)" >26-PC</text>
<path d="M2023.827,1082.262 A670.000,670.000 40.000 0,1 2064.940,1139.802 L2132.396,1096.793 A750.000,750.000 0.000 0,0 2086.374,1032.383 Z" style="stroke-width:2.0;stroke:rgb(115,115,115);stroke-linecap:round;fill:none;" />
<path d="M2089.999,1182.508 A670.000,670.000 40.000 0,1 2120.177,1246.465 L2194.228,1216.192 A750.000,750.000 0.000 0,0 2160.447,1144.599 Z" style="stroke-width:2.0;stroke:rgb(115,115,115);stroke-linecap:round;fill:rgb(153,204,255);" />
<text x="2256.2" y="1170.3" font-size="65.0px" font-family="CMUBright-Roman" style="text-anchor:start;fill:rgb(0,0,0);" transform="rotate(334.7,2256.2,1170.3)" >35-SG</text>
<path d="M2089.999,1182.508 A670.000,670.000 40.000 0,1 2120.177,1246.465 L2194.228,1216.192 A750.000,750.000 0.000 0,0 2160.447,1144.599 Z" style="stroke-width:2.0;stroke:rgb(115,115,115);stroke-linecap:round;fill:none;" />
<path d="M2137.208,1292.959 A670.000,670.000 40.000 0,1 2155.481,1361.276 L2233.748,1344.712 A750.000,750.000 0.000 0,0 2213.292,1268.237 Z" style="stroke-width:2.0;stroke:rgb(115,115,115);stroke-linecap:round;fill:rgb(116,196,118);" />
<text x="2303.0" y="1310.6" font-size="65.0px" font-family="CMUBright-Roman" style="text-anchor:start;fill:rgb(0,0,0);" transform="rotate(345.0,2303.0,1310.6)" >2-COC</text>
<path d="M2137.208,1292.959 A670.000,670.000 40.000 0,1 2155.481,1361.276 L2233.748,1344.712 A750.000,750.000 0.000 0,0 2213.292,1268.237 Z" style="stroke-width:2.0;stroke:rgb(115,115,115);stroke-linecap:round;fill:none;" />
<path d="M2163.936,1410.064 A670.000,670.000 40.000 0,1 2169.718,1480.546 L2249.684,1478.223 A750.000,750.000 0.000 0,0 2243.212,1399.325 Z" style="stroke-width:2.0;stroke:rgb(115,115,115);stroke-linecap:round;fill:rgb(116,196,118);" />
<text x="2323.9" y="1457.0" font-size="65.0px" font-family="CMUBright-Roman" style="text-anchor:start;fill:rgb(0,0,0);" transform="rotate(355.3,2323.9,1457.0)" >3-COC</text>
<path d="M2163.936,1410.064 A670.000,670.000 40.000 0,1 2169.718,1480.546 L2249.684,1478.223 A750.000,750.000 0.000 0,0 2243.212,1399.325 Z" style="stroke-width:2.0;stroke:rgb(115,115,115);stroke-linecap:round;fill:none;" />
<path d="M2169.325,1530.059 A670.000,670.000 40.000 0,1 2162.429,1600.441 L2241.524,1612.434 A750.000,750.000 0.000 0,0 2249.245,1533.649 Z" style="stroke-width:2.0;stroke:rgb(115,115,115);stroke-linecap:round;fill:rgb(116,196,118);" />
<text x="2318.4" y="1603.8" font-size="65.0px" font-family="CMUBright-Roman" style="text-anchor:start;fill:rgb(0,0,0);" transform="rotate(5.6,2318.4,1603.8)" >14-LIX</text>
<path d="M2169.325,1530.059 A670.000,670.000 40.000 0,1 2162.429,1600.441 L2241.524,1612.434 A750.000,750.000 0.000 0,0 2249.245,1533.649 Z" style="stroke-width:2.0;stroke:rgb(115,115,115);stroke-linecap:round;fill:none;" />
<path d="M2153.202,1649.089 A670.000,670.000 40.000 0,1 2133.849,1717.108 L2209.532,1743.032 A750.000,750.000 0.000 0,0 2231.196,1666.891 Z" style="stroke-width:2.0;stroke:rgb(115,115,115);stroke-linecap:round;fill:rgb(116,196,118);" />
<text x="2286.5" y="1749.2" font-size="65.0px" font-family="CMUBright-Roman" style="text-anchor:start;fill:rgb(0,0,0);" transform="rotate(15.9,2286.5,1749.2)" >22-ParG</text>
<path d="M2153.202,1649.089 A670.000,670.000 40.000 0,1 2133.849,1717.108 L2209.532,1743.032 A750.000,750.000 0.000 0,0 2231.196,1666.891 Z" style="stroke-width:2.0;stroke:rgb(115,115,115);stroke-linecap:round;fill:none;" />
<path d="M2116.084,1763.327 A670.000,670.000 40.000 0,1 2084.896,1826.797 L2154.734,1865.818 A750.000,750.000 0.000 0,0 2189.646,1794.769 Z" style="stroke-width:2.0;stroke:rgb(115,115,115);stroke-linecap:round;fill:rgb(116,196,118);" />
<text x="2229.8" y="1884.8" font-size="65.0px" font-family="CMUBright-Roman" style="text-anchor:start;fill:rgb(0,0,0);" transform="rotate(26.2,2229.8,1884.8)" >24-PP</text>
<path d="M2116.084,1763.327 A670.000,670.000 40.000 0,1 2084.896,1826.797 L2154.734,1865.818 A750.000,750.000 0.000 0,0 2189.646,1794.769 Z" style="stroke-width:2.0;stroke:rgb(115,115,115);stroke-linecap:round;fill:none;" />
<path d="M2059.164,1869.101 A670.000,670.000 40.000 0,1 2017.145,1925.983 L2078.893,1976.846 A750.000,750.000 0.000 0,0 2125.930,1913.173 Z" style="stroke-width:2.0;stroke:rgb(115,115,115);stroke-linecap:round;fill:rgb(153,0,204);" />
<text x="2148.7" y="2009.7" font-size="65.0px" font-family="CMUBright-Roman" style="text-anchor:start;fill:rgb(0,0,0);" transform="rotate(36.5,2148.7,2009.7)" >1-AG</text>
<path d="M2059.164,1869.101 A670.000,670.000 40.000 0,1 2017.145,1925.983 L2078.893,1976.846 A750.000,750.000 0.000 0,0 2125.930,1913.173 Z" style="stroke-width:2.0;stroke:rgb(115,115,115);stroke-linecap:round;fill:none;" />
<path d="M1984.273,1963.012 A670.000,670.000 40.000 0,1 1932.772,2011.477 L1984.446,2072.549 A750.000,750.000 0.000 0,0 2042.096,2018.297 Z" style="stroke-width:2.0;stroke:rgb(115,115,115);stroke-linecap:round;fill:rgb(153,0,204);" />
<text x="2047.3" y="2117.3" font-size="65.0px" font-family="CMUBright-Roman" style="text-anchor:start;fill:rgb(0,0,0);" transform="rotate(46.7,2047.3,2117.3)" >7-IFG</text>
<path d="M1984.273,1963.012 A670.000,670.000 40.000 0,1 1932.772,2011.477 L1984.446,2072.549 A750.000,750.000 0.000 0,0 2042.096,2018.297 Z" style="stroke-width:2.0;stroke:rgb(115,115,115);stroke-linecap:round;fill:none;" />
<path d="M1893.816,2042.041 A670.000,670.000 40.000 0,1 1834.489,2080.532 L1874.428,2149.849 A750.000,750.000 0.000 0,0 1940.839,2106.763 Z" style="stroke-width:2.0;stroke:rgb(115,115,115);stroke-linecap:round;fill:rgb(153,0,204);" />
<text x="1928.7" y="2204.9" font-size="65.0px" font-family="CMUBright-Roman" style="text-anchor:start;fill:rgb(0,0,0);" transform="rotate(57.0,1928.7,2204.9)" >9-IPL</text>
<path d="M1893.816,2042.041 A670.000,670.000 40.000 0,1 1834.489,2080.532 L1874.428,2149.849 A750.000,750.000 0.000 0,0 1940.839,2106.763 Z" style="stroke-width:2.0;stroke:rgb(115,115,115);stroke-linecap:round;fill:none;" />
<path d="M1790.702,2103.649 A670.000,670.000 40.000 0,1 1725.456,2130.928 L1752.376,2206.262 A750.000,750.000 0.000 0,0 1825.413,2175.727 Z" style="stroke-width:2.0;stroke:rgb(115,115,115);stroke-linecap:round;fill:rgb(153,0,204);" />
<text x="1795.5" y="2270.3" font-size="65.0px" font-family="CMUBright-Roman" style="text-anchor:start;fill:rgb(0,0,0);" transform="rotate(67.3,1795.5,2270.3)" >17-MFG</text>
<path d="M1790.702,2103.649 A670.000,670.000 40.000 0,1 1725.456,2130.928 L1752.376,2206.262 A750.000,750.000 0.000 0,0 1825.413,2175.727 Z" style="stroke-width:2.0;stroke:rgb(115,115,115);stroke-linecap:round;fill:none;" />
<path d="M1678.245,2145.855 A670.000,670.000 40.000 0,1 1609.176,2161.045 L1622.212,2239.976 A750.000,750.000 0.000 0,0 1699.528,2222.972 Z" style="stroke-width:2.0;stroke:rgb(115,115,115);stroke-linecap:round;fill:rgb(153,0,204);" />
<text x="1653.2" y="2310.7" font-size="65.0px" font-family="CMUBright-Roman" style="text-anchor:start;fill:rgb(0,0,0);" transform="rotate(77.6,1653.2,2310.7)" >34-SG</text>
<path d="M1678.245,2145.855 A670.000,670.000 40.000 0,1 1609.176,2161.045 L1622.212,2239.976 A750.000,750.000 0.000 0,0 1699.528,2222.972 Z" style="stroke-width:2.0;stroke:rgb(115,115,115);stroke-linecap:round;fill:none;" />
<path d="M1560.058,2167.303 A670.000,670.000 40.000 0,1 1489.388,2169.916 L1488.121,2249.906 A750.000,750.000 0.000 0,0 1567.229,2246.981 Z" style="stroke-width:2.0;stroke:rgb(115,115,115);stroke-linecap:round;fill:rgb(253,208,162);" />
<text x="1506.5" y="2325.0" font-size="65.0px" font-family="CMUBright-Roman" style="text-anchor:start;fill:rgb(0,0,0);" transform="rotate(87.9,1506.5,2325.0)" >5-FP</text>
<path d="M1560.058,2167.303 A670.000,670.000 40.000 0,1 1489.388,2169.916 L1488.121,2249.906 A750.000,750.000 0.000 0,0 1567.229,2246.981 Z" style="stroke-width:2.0;stroke:rgb(115,115,115);stroke-linecap:round;fill:none;" />
<path d="M1439.942,2167.303 A670.000,670.000 40.000 0,1 1369.940,2157.255 L1354.411,2235.733 A750.000,750.000 0.000 0,0 1432.771,2246.981 Z" style="stroke-width:2.0;stroke:rgb(115,115,115);stroke-linecap:round;fill:rgb(253,208,162);" />
<text x="1406.6" y="2319.7" font-size="65.0px" font-family="CMUBright-Roman" style="text-anchor:end;fill:rgb(0,0,0);" transform="rotate(-81.8,1406.6,2319.7)" >10-IPL</text>
<path d="M1439.942,2167.303 A670.000,670.000 40.000 0,1 1369.940,2157.255 L1354.411,2235.733 A750.000,750.000 0.000 0,0 1432.771,2246.981 Z" style="stroke-width:2.0;stroke:rgb(115,115,115);stroke-linecap:round;fill:none;" />
<path d="M1321.755,2145.855 A670.000,670.000 40.000 0,1 1254.673,2123.470 L1225.380,2197.914 A750.000,750.000 0.000 0,0 1300.472,2222.972 Z" style="stroke-width:2.0;stroke:rgb(115,115,115);stroke-linecap:round;fill:rgb(253,208,162);" />
<text x="1262.2" y="2290.0" font-size="65.0px" font-family="CMUBright-Roman" style="text-anchor:end;fill:rgb(0,0,0);" transform="rotate(-71.5,1262.2,2290.0)" >12-LOC</text>
<path d="M1321.755,2145.855 A670.000,670.000 40.000 0,1 1254.673,2123.470 L1225.380,2197.914 A750.000,750.000 0.000 0,0 1300.472,2222.972 Z" style="stroke-width:2.0;stroke:rgb(115,115,115);stroke-linecap:round;fill:none;" />
<path d="M1209.298,2103.649 A670.000,670.000 40.000 0,1 1147.290,2069.645 L1105.176,2137.663 A750.000,750.000 0.000 0,0 1174.587,2175.727 Z" style="stroke-width:2.0;stroke:rgb(115,115,115);stroke-linecap:round;fill:rgb(253,208,162);" />
<text x="1125.0" y="2234.8" font-size="65.0px" font-family="CMUBright-Roman" style="text-anchor:end;fill:rgb(0,0,0);" transform="rotate(-61.3,1125.0,2234.8)" >16-LG</text>
<path d="M1209.298,2103.649 A670.000,670.000 40.000 0,1 1147.290,2069.645 L1105.176,2137.663 A750.000,750.000 0.000 0,0 1174.587,2175.727 Z" style="stroke-width:2.0;stroke:rgb(115,115,115);stroke-linecap:round;fill:none;" />
<path d="M1106.184,2042.041 A670.000,670.000 40.000 0,1 1051.245,1997.512 L997.662,2056.917 A750.000,750.000 0.000 0,0 1059.161,2106.763 Z" style="stroke-width:2.0;stroke:rgb(115,115,115);stroke-linecap:round;fill:rgb(253,208,162);" />
<text x="999.8" y="2156.1" font-size="65.0px" font-family="CMUBright-Roman" style="text-anchor:end;fill:rgb(0,0,0);" transform="rotate(-51.0,999.8,2156.1)" >20-OFG</text>
<path d="M1106.184,2042.041 A670.000,670.000 40.000 0,1 1051.245,1997.512 L997.662,2056.917 A750.000,750.000 0.000 0,0 1059.161,2106.763 Z" style="stroke-width:2.0;stroke:rgb(115,115,115);stroke-linecap:round;fill:none;" />
<path d="M1015.727,1963.012 A670.000,670.000 40.000 0,1 969.622,1909.389 L906.293,1958.271 A750.000,750.000 0.000 0,0 957.904,2018.297 Z" style="stroke-width:2.0;stroke:rgb(115,115,115);stroke-linecap:round;fill:rgb(253,208,162);" />
<text x="890.7" y="2056.2" font-size="65.0px" font-family="CMUBright-Roman" style="text-anchor:end;fill:rgb(0,0,0);" transform="rotate(-40.7,890.7,2056.2)" >21-OP</text>
<path d="M1015.727,1963.012 A670.000,670.000 40.000 0,1 969.622,1909.389 L906.293,1958.271 A750.000,750.000 0.000 0,0 957.904,2018.297 Z" style="stroke-width:2.0;stroke:rgb(115,115,115);stroke-linecap:round;fill:none;" />
<path d="M940.836,1869.101 A670.000,670.000 40.000 0,1 905.046,1808.107 L834.007,1844.896 A750.000,750.000 0.000 0,0 874.070,1913.173 Z" style="stroke-width:2.0;stroke:rgb(115,115,115);stroke-linecap:round;fill:rgb(253,141,60);" />
<text x="801.2" y="1938.5" font-size="65.0px" font-family="CMUBright-Roman" style="text-anchor:end;fill:rgb(0,0,0);" transform="rotate(-30.4,801.2,1938.5)" >11-ITG</text>
<path d="M940.836,1869.101 A670.000,670.000 40.000 0,1 905.046,1808.107 L834.007,1844.896 A750.000,750.000 0.000 0,0 874.070,1913.173 Z" style="stroke-width:2.0;stroke:rgb(115,115,115);stroke-linecap:round;fill:none;" />
<path d="M883.916,1763.327 A670.000,670.000 40.000 0,1 859.593,1696.922 L783.126,1720.436 A750.000,750.000 0.000 0,0 810.354,1794.769 Z" style="stroke-width:2.0;stroke:rgb(115,115,115);stroke-linecap:round;fill:rgb(253,141,60);" />
<text x="733.9" y="1806.2" font-size="65.0px" font-family="CMUBright-Roman" style="text-anchor:end;fill:rgb(0,0,0);" transform="rotate(-20.1,733.9,1806.2)" >30-RH</text>
<path d="M883.916,1763.327 A670.000,670.000 40.000 0,1 859.593,1696.922 L783.126,1720.436 A750.000,750.000 0.000 0,0 810.354,1794.769 Z" style="stroke-width:2.0;stroke:rgb(115,115,115);stroke-linecap:round;fill:none;" />
<path d="M846.798,1649.089 A670.000,670.000 40.000 0,1 834.722,1579.409 L755.286,1588.890 A750.000,750.000 0.000 0,0 768.804,1666.891 Z" style="stroke-width:2.0;stroke:rgb(115,115,115);stroke-linecap:round;fill:rgb(253,141,60);" />
<text x="691.6" y="1664.5" font-size="65.0px" font-family="CMUBright-Roman" style="text-anchor:end;fill:rgb(0,0,0);" transform="rotate(-9.8,691.6,1664.5)" >31-RLV</text>
<path d="M846.798,1649.089 A670.000,670.000 40.000 0,1 834.722,1579.409 L755.286,1588.890 A750.000,750.000 0.000 0,0 768.804,1666.891 Z" style="stroke-width:2.0;stroke:rgb(115,115,115);stroke-linecap:round;fill:none;" />
<path d="M830.675,1530.059 A670.000,670.000 40.000 0,1 831.235,1459.343 L751.382,1454.488 A750.000,750.000 0.000 0,0 750.755,1533.649 Z" style="stroke-width:2.0;stroke:rgb(115,115,115);stroke-linecap:round;fill:rgb(253,141,60);" />
<text x="675.2" y="1517.5" font-size="65.0px" font-family="CMUBright-Roman" style="text-anchor:end;fill:rgb(0,0,0);" transform="rotate(0.5,675.2,1517.5)" >32-RLV</text>
<path d="M830.675,1530.059 A670.000,670.000 40.000 0,1 831.235,1459.343 L751.382,1454.488 A750.000,750.000 0.000 0,0 750.755,1533.649 Z" style="stroke-width:2.0;stroke:rgb(115,115,115);stroke-linecap:round;fill:none;" />
<path d="M836.064,1410.064 A670.000,670.000 40.000 0,1 849.242,1340.583 L771.539,1321.549 A750.000,750.000 0.000 0,0 756.788,1399.325 Z" style="stroke-width:2.0;stroke:rgb(115,115,115);stroke-linecap:round;fill:rgb(253,141,60);" />
<text x="685.2" y="1370.4" font-size="65.0px" font-family="CMUBright-Roman" style="text-anchor:end;fill:rgb(0,0,0);" transform="rotate(10.7,685.2,1370.4)" >33-SC</text>
<path d="M836.064,1410.064 A670.000,670.000 40.000 0,1 849.242,1340.583 L771.539,1321.549 A750.000,750.000 0.000 0,0 756.788,1399.325 Z" style="stroke-width:2.0;stroke:rgb(115,115,115);stroke-linecap:round;fill:none;" />
<path d="M862.792,1292.959 A670.000,670.000 40.000 0,1 888.165,1226.948 L815.110,1194.345 A750.000,750.000 0.000 0,0 786.708,1268.237 Z" style="stroke-width:2.0;stroke:rgb(115,115,115);stroke-linecap:round;fill:rgb(66,146,198);" />
<text x="721.5" y="1227.0" font-size="65.0px" font-family="CMUBright-Roman" style="text-anchor:end;fill:rgb(0,0,0);" transform="rotate(21.0,721.5,1227.0)" >13-LCI</text>
<path d="M862.792,1292.959 A670.000,670.000 40.000 0,1 888.165,1226.948 L815.110,1194.345 A750.000,750.000 0.000 0,0 786.708,1268.237 Z" style="stroke-width:2.0;stroke:rgb(115,115,115);stroke-linecap:round;fill:none;" />
<path d="M910.001,1182.508 A670.000,670.000 40.000 0,1 946.752,1122.089 L880.693,1076.965 A750.000,750.000 0.000 0,0 839.553,1144.599 Z" style="stroke-width:2.0;stroke:rgb(115,115,115);stroke-linecap:round;fill:rgb(66,146,198);" />
<text x="782.7" y="1092.4" font-size="65.0px" font-family="CMUBright-Roman" style="text-anchor:end;fill:rgb(0,0,0);" transform="rotate(31.3,782.7,1092.4)" >18-MTG</text>
<path d="M910.001,1182.508 A670.000,670.000 40.000 0,1 946.752,1122.089 L880.693,1076.965 A750.000,750.000 0.000 0,0 839.553,1144.599 Z" style="stroke-width:2.0;stroke:rgb(115,115,115);stroke-linecap:round;fill:none;" />
<path d="M976.173,1082.262 A670.000,670.000 40.000 0,1 1023.122,1029.376 L966.181,973.182 A750.000,750.000 0.000 0,0 913.626,1032.383 Z" style="stroke-width:2.0;stroke:rgb(115,115,115);stroke-linecap:round;fill:rgb(66,146,198);" />
<text x="867.4" y="970.5" font-size="65.0px" font-family="CMUBright-Roman" style="text-anchor:end;fill:rgb(0,0,0);" transform="rotate(41.6,867.4,970.5)" >23-PP</text>
<path d="M976.173,1082.262 A670.000,670.000 40.000 0,1 1023.122,1029.376 L966.181,973.182 A750.000,750.000 0.000 0,0 913.626,1032.383 Z" style="stroke-width:2.0;stroke:rgb(115,115,115);stroke-linecap:round;fill:none;" />
<path d="M1059.181,995.442 A670.000,670.000 40.000 0,1 1114.819,951.789 L1068.827,886.331 A750.000,750.000 0.000 0,0 1006.546,935.196 Z" style="stroke-width:2.0;stroke:rgb(115,115,115);stroke-linecap:round;fill:rgb(66,146,198);" />
<text x="971.7" y="866.3" font-size="65.0px" font-family="CMUBright-Roman" style="text-anchor:end;fill:rgb(0,0,0);" transform="rotate(51.9,971.7,866.3)" >25-PosG</text>
<path d="M1059.181,995.442 A670.000,670.000 40.000 0,1 1114.819,951.789 L1068.827,886.331 A750.000,750.000 0.000 0,0 1006.546,935.196 Z" style="stroke-width:2.0;stroke:rgb(115,115,115);stroke-linecap:round;fill:none;" />
<path d="M1156.357,924.839 A670.000,670.000 40.000 0,1 1218.896,891.822 L1185.331,819.204 A750.000,750.000 0.000 0,0 1115.326,856.163 Z" style="stroke-width:2.0;stroke:rgb(115,115,115);stroke-linecap:round;fill:rgb(66,146,198);" />
<text x="1093.3" y="782.2" font-size="65.0px" font-family="CMUBright-Roman" style="text-anchor:end;fill:rgb(0,0,0);" transform="rotate(62.2,1093.3,782.2)" >27-RCI</text>
<path d="M1156.357,924.839 A670.000,670.000 40.000 0,1 1218.896,891.822 L1185.331,819.204 A750.000,750.000 0.000 0,0 1115.326,856.163 Z" style="stroke-width:2.0;stroke:rgb(115,115,115);stroke-linecap:round;fill:none;" />
<path d="M1264.579,872.723 A670.000,670.000 40.000 0,1 1332.008,851.403 L1311.949,773.958 A750.000,750.000 0.000 0,0 1236.469,797.824 Z" style="stroke-width:2.0;stroke:rgb(115,115,115);stroke-linecap:round;fill:rgb(66,146,198);" />
<text x="1228.0" y="721.1" font-size="65.0px" font-family="CMUBright-Roman" style="text-anchor:end;fill:rgb(0,0,0);" transform="rotate(72.5,1228.0,721.1)" >28-RCI</text>
<path d="M1264.579,872.723 A670.000,670.000 40.000 0,1 1332.008,851.403 L1311.949,773.958 A750.000,750.000 0.000 0,0 1236.469,797.824 Z" style="stroke-width:2.0;stroke:rgb(115,115,115);stroke-linecap:round;fill:none;" />
<path d="M1380.367,840.767 A670.000,670.000 40.000 0,1 1450.519,831.830 L1444.611,752.048 A750.000,750.000 0.000 0,0 1366.082,762.053 Z" style="stroke-width:2.0;stroke:rgb(115,115,115);stroke-linecap:round;fill:rgb(66,146,198);" />
<text x="1371.5" y="685.1" font-size="65.0px" font-family="CMUBright-Roman" style="text-anchor:end;fill:rgb(0,0,0);" transform="rotate(82.7,1371.5,685.1)" >29-RCI</text>
<path d="M1380.367,840.767 A670.000,670.000 40.000 0,1 1450.519,831.830 L1444.611,752.048 A750.000,750.000 0.000 0,0 1366.082,762.053 Z" style="stroke-width:2.0;stroke:rgb(115,115,115);stroke-linecap:round;fill:none;" />
</g>
<g id="track_1">
<path d="M 2012.0,1878.2 L 1991.1,1863.2 1969.9,1848.6 1948.4,1834.6 1926.7,1821.4 1904.9,1808.9 1883.0,1797.4 1861.1,1786.8 1839.2,1777.3 1817.5,1769.0 1796.0,1761.9 1774.7,1756.0 1753.7,1751.5 1733.0,1748.4 1712.8,1746.6 1692.9,1746.3 1673.6,1747.5 1654.7,1750.2 1636.4,1754.3 1618.7,1760.0 1601.6,1767.1 1585.2,1775.7 1569.4,1785.9 1554.2,1797.4 1539.8,1810.3 1526.1,1824.7 1513.1,1840.3 1500.8,1857.2 1489.3,1875.3 1478.5,1894.6 1468.4,1914.9 1459.1,1936.3 1450.5,1958.5 1442.6,1981.5 1435.5,2005.2 1429.0,2029.5 1423.2,2054.2 1418.0,2079.3 1413.5,2104.7 1409.6,2130.0  " style="stroke-opacity: 1.000000; stroke-width: 5.0; stroke: rgb(251,106,74); fill: none"  />
<path d="M 2012.0,1878.2 L 1990.8,1862.9 1969.1,1848.1 1947.1,1833.9 1924.8,1820.4 1902.3,1807.7 1879.5,1795.9 1856.6,1785.1 1833.7,1775.3 1810.7,1766.6 1787.8,1759.1 1765.0,1752.8 1742.3,1747.8 1719.8,1744.2 1697.5,1741.9 1675.4,1741.0 1653.7,1741.6 1632.3,1743.6 1611.3,1747.1 1590.7,1752.0 1570.6,1758.3 1550.9,1766.2 1531.8,1775.4 1513.1,1786.1 1495.0,1798.1 1477.5,1811.5 1460.6,1826.1 1444.2,1842.1 1428.5,1859.2 1413.4,1877.4 1399.0,1896.8 1385.2,1917.1 1372.1,1938.3 1359.6,1960.3 1347.8,1983.1 1336.6,2006.4 1326.1,2030.3 1316.3,2054.6 1307.1,2079.1 1298.5,2103.8  " style="stroke-opacity: 1.000000; stroke-width: 5.0; stroke: rgb(251,106,74); fill: none"  />
<path d="M 2012.0,1878.2 L 1990.0,1862.3 1967.4,1846.9 1944.4,1832.1 1920.9,1817.8 1896.9,1804.3 1872.7,1791.5 1848.0,1779.6 1823.1,1768.6 1798.0,1758.6 1772.6,1749.6 1747.1,1741.7 1721.4,1735.0 1695.7,1729.4 1669.9,1725.0 1644.0,1721.8 1618.2,1719.9 1592.5,1719.3 1566.8,1720.0 1541.2,1721.9 1515.8,1725.2 1490.5,1729.7 1465.5,1735.5 1440.7,1742.6 1416.2,1750.9 1392.0,1760.4 1368.1,1771.1 1344.5,1783.0 1321.4,1796.0 1298.7,1810.0 1276.4,1825.0 1254.5,1841.0 1233.2,1857.9 1212.3,1875.6 1192.0,1894.1 1172.3,1913.2 1153.1,1932.9 1134.5,1953.0 1116.5,1973.6 1099.2,1994.5  " style="stroke-opacity: 1.000000; stroke-width: 5.0; stroke: rgb(251,106,74); fill: none"  />
<path d="M 1646.5,880.6 L 1640.1,908.8 1634.2,937.4 1628.9,966.3 1624.1,995.6 1619.9,1025.1 1616.3,1054.8 1613.5,1084.7 1611.4,1114.8 1610.0,1145.0 1609.4,1175.3 1609.6,1205.7 1610.6,1236.0 1612.4,1266.4 1615.1,1296.7 1618.6,1326.9 1623.0,1357.0 1628.3,1387.0 1634.4,1416.8 1641.4,1446.4 1649.3,1475.8 1658.0,1505.0 1667.6,1533.9 1678.0,1562.5 1689.2,1590.8 1701.2,1618.7 1714.0,1646.3 1727.6,1673.5 1741.9,1700.3 1756.9,1726.7 1772.5,1752.7 1788.8,1778.1 1805.6,1803.1 1823.1,1827.7 1841.0,1851.7 1859.3,1875.1 1878.1,1898.1 1897.2,1920.5 1916.6,1942.3 1936.2,1963.5  " style="stroke-opacity: 1.000000; stroke-width: 5.0; stroke: rgb(251,106,74); fill: none"  />
<path d="M 1936.2,1963.5 L 1916.6,1942.3 1897.2,1920.5 1878.1,1898.1 1859.3,1875.1 1841.0,1851.7 1823.1,1827.7 1805.6,1803.1 1788.8,1778.1 1772.5,1752.7 1756.9,1726.7 1741.9,1700.3 1727.6,1673.5 1714.0,1646.3 1701.2,1618.7 1689.2,1590.8 1678.0,1562.5 1667.6,1533.9 1658.0,1505.0 1649.3,1475.8 1641.4,1446.4 1634.4,1416.8 1628.3,1387.0 1623.0,1357.0 1618.6,1326.9 1615.1,1296.7 1612.4,1266.4 1610.6,1236.0 1609.6,1205.7 1609.4,1175.3 1610.0,1145.0 1611.4,1114.8 1613.5,1084.7 1616.3,1054.8 1619.9,1025.1 1624.1,995.6 1628.9,966.3 1634.2,937.4 1640.1,908.8 1646.5,880.6  " style="stroke-opacity: 1.000000; stroke-width: 5.0; stroke: rgb(251,106,74); fill: none"  />
<path d="M 1936.2,1963.5 L 1918.4,1945.0 1900.1,1926.9 1881.5,1909.3 1862.5,1892.4 1843.2,1876.3 1823.7,1861.0 1804.1,1846.7 1784.3,1833.5 1764.4,1821.4 1744.5,1810.5 1724.6,1801.0 1704.7,1792.8 1684.9,1786.0 1665.3,1780.6 1645.9,1776.8 1626.6,1774.5 1607.6,1773.8 1588.8,1774.6 1570.4,1777.0 1552.3,1781.0 1534.6,1786.5 1517.2,1793.6 1500.3,1802.3 1483.7,1812.5 1467.7,1824.1 1452.1,1837.2 1437.0,1851.6 1422.4,1867.4 1408.4,1884.4 1394.8,1902.6 1381.9,1921.9 1369.5,1942.3 1357.6,1963.5 1346.3,1985.5 1335.6,2008.3 1325.5,2031.6 1315.9,2055.4 1306.9,2079.5 1298.5,2103.8  " style="stroke-opacity: 1.000000; stroke-width: 5.0; stroke: rgb(251,106,74); fill: none"  />
<path d="M 1754.8,916.7 L 1742.2,945.7 1729.7,974.9 1717.4,1004.3 1705.2,1033.9 1693.1,1063.7 1681.2,1093.6 1669.4,1123.7 1657.8,1153.9 1646.4,1184.3 1635.2,1214.9 1624.1,1245.6 1613.3,1276.4 1602.7,1307.4 1592.3,1338.4 1582.1,1369.6 1572.2,1400.9 1562.5,1432.3 1553.0,1463.8 1543.7,1495.3 1534.7,1527.0 1526.0,1558.7 1517.5,1590.4 1509.2,1622.2 1501.2,1654.1 1493.4,1685.9 1485.9,1717.8 1478.6,1749.7 1471.6,1781.7 1464.8,1813.6 1458.3,1845.4 1452.0,1877.3 1445.9,1909.1 1440.1,1940.9 1434.5,1972.6 1429.1,2004.3 1423.9,2035.9 1418.9,2067.4 1414.1,2098.8 1409.6,2130.0  " style="stroke-opacity: 1.000000; stroke-width: 5.0; stroke: rgb(251,106,74); fill: none"  />
<path d="M 1846.4,2034.0 L 1832.6,2013.1 1818.5,1992.6 1804.1,1972.5 1789.5,1953.0 1774.7,1934.3 1759.8,1916.5 1744.8,1899.7 1729.8,1883.9 1714.8,1869.4 1699.8,1856.1 1685.0,1844.3 1670.3,1833.8 1655.7,1824.9 1641.4,1817.6 1627.3,1811.8 1613.4,1807.8 1599.9,1805.4 1586.7,1804.7 1573.8,1805.7 1561.3,1808.5 1549.2,1812.9 1537.4,1819.1 1526.2,1827.0 1515.3,1836.5 1504.9,1847.6 1495.0,1860.3 1485.5,1874.5 1476.5,1890.1 1468.0,1907.1 1460.0,1925.4 1452.5,1944.9 1445.5,1965.5 1438.9,1987.1 1432.9,2009.5 1427.3,2032.7 1422.2,2056.5 1417.5,2080.7 1413.3,2105.3 1409.6,2130.0  " style="stroke-opacity: 1.000000; stroke-width: 5.0; stroke: rgb(251,106,74); fill: none"  />
<path d="M 1846.4,2034.0 L 1832.4,2012.9 1818.0,1992.1 1803.2,1971.8 1788.1,1952.1 1772.6,1933.1 1756.9,1915.0 1741.0,1897.9 1724.9,1881.9 1708.6,1867.0 1692.3,1853.4 1675.9,1841.1 1659.4,1830.2 1643.0,1820.8 1626.5,1813.0 1610.2,1806.7 1593.9,1802.0 1577.7,1799.0 1561.7,1797.6 1545.9,1797.9 1530.3,1799.9 1514.9,1803.6 1499.7,1808.9 1484.8,1815.9 1470.2,1824.5 1456.0,1834.7 1442.0,1846.4 1428.5,1859.6 1415.3,1874.3 1402.4,1890.3 1390.0,1907.6 1378.0,1926.1 1366.5,1945.6 1355.4,1966.2 1344.7,1987.7 1334.5,2009.9 1324.8,2032.7 1315.5,2056.1 1306.8,2079.8 1298.5,2103.8  " style="stroke-opacity: 1.000000; stroke-width: 5.0; stroke: rgb(251,106,74); fill: none"  />
<path d="M 1846.4,2034.0 L 1828.9,2006.9 1811.3,1979.7 1793.8,1952.4 1776.3,1925.1 1758.9,1897.7 1741.5,1870.2 1724.1,1842.6 1706.8,1815.0 1689.5,1787.3 1672.3,1759.6 1655.1,1731.8 1638.0,1703.9 1620.9,1676.0 1603.9,1648.0 1587.0,1620.0 1570.1,1591.9 1553.3,1563.7 1536.6,1535.6 1519.9,1507.3 1503.3,1479.0 1486.8,1450.7 1470.4,1422.4 1454.0,1394.0 1437.7,1365.5 1421.5,1337.1 1405.3,1308.6 1389.3,1280.1 1373.3,1251.5 1357.4,1223.0 1341.6,1194.4 1325.9,1165.8 1310.2,1137.2 1294.6,1108.6 1279.1,1080.0 1263.7,1051.4 1248.4,1022.8 1233.1,994.2 1217.9,965.7 1202.8,937.1  " style="stroke-opacity: 1.000000; stroke-width: 5.0; stroke: rgb(251,106,74); fill: none"  />
<path d="M 1846.4,2034.0 L 1829.3,2007.4 1812.2,1980.6 1795.3,1953.6 1778.4,1926.4 1761.6,1899.1 1745.0,1871.5 1728.5,1843.7 1712.1,1815.7 1695.9,1787.6 1679.8,1759.3 1663.9,1730.8 1648.2,1702.1 1632.7,1673.3 1617.4,1644.4 1602.3,1615.2 1587.4,1586.0 1572.7,1556.6 1558.2,1527.1 1543.9,1497.5 1529.9,1467.7 1516.1,1437.9 1502.5,1407.9 1489.2,1377.9 1476.1,1347.8 1463.2,1317.6 1450.6,1287.4 1438.2,1257.1 1426.1,1226.7 1414.2,1196.4 1402.6,1166.0 1391.1,1135.6 1380.0,1105.1 1369.0,1074.7 1358.3,1044.4 1347.8,1014.0 1337.6,983.7 1327.5,953.4 1317.7,923.2 1308.1,893.1  " style="stroke-opacity: 1.000000; stroke-width: 5.0; stroke: rgb(251,106,74); fill: none"  />
<path d="M 1409.6,2130.0 L 1413.5,2104.7 1418.0,2079.3 1423.2,2054.2 1429.0,2029.5 1435.5,2005.2 1442.6,1981.5 1450.5,1958.5 1459.1,1936.3 1468.4,1914.9 1478.5,1894.6 1489.3,1875.3 1500.8,1857.2 1513.1,1840.3 1526.1,1824.7 1539.8,1810.3 1554.2,1797.4 1569.4,1785.9 1585.2,1775.7 1601.6,1767.1 1618.7,1760.0 1636.4,1754.3 1654.7,1750.2 1673.6,1747.5 1692.9,1746.3 1712.8,1746.6 1733.0,1748.4 1753.7,1751.5 1774.7,1756.0 1796.0,1761.9 1817.5,1769.0 1839.2,1777.3 1861.1,1786.8 1883.0,1797.4 1904.9,1808.9 1926.7,1821.4 1948.4,1834.6 1969.9,1848.6 1991.1,1863.2 2012.0,1878.2  " style="stroke-opacity: 1.000000; stroke-width: 5.0; stroke: rgb(251,106,74); fill: none"  />
<path d="M 1409.6,2130.0 L 1414.1,2098.8 1418.9,2067.4 1423.9,2035.9 1429.1,2004.3 1434.5,1972.6 1440.1,1940.9 1445.9,1909.1 1452.0,1877.3 1458.3,1845.4 1464.8,1813.6 1471.6,1781.7 1478.6,1749.7 1485.9,1717.8 1493.4,1685.9 1501.2,1654.1 1509.2,1622.2 1517.5,1590.4 1526.0,1558.7 1534.7,1527.0 1543.7,1495.3 1553.0,1463.8 1562.5,1432.3 1572.2,1400.9 1582.1,1369.6 1592.3,1338.4 1602.7,1307.4 1613.3,1276.4 1624.1,1245.6 1635.2,1214.9 1646.4,1184.3 1657.8,1153.9 1669.4,1123.7 1681.2,1093.6 1693.1,1063.7 1705.2,1033.9 1717.4,1004.3 1729.7,974.9 1742.2,945.7 1754.8,916.7  " style="stroke-opacity: 1.000000; stroke-width: 5.0; stroke: rgb(251,106,74); fill: none"  />
<path d="M 1409.6,2130.0 L 1413.3,2105.3 1417.5,2080.7 1422.2,2056.5 1427.3,2032.7 1432.9,2009.5 1438.9,1987.1 1445.5,1965.5 1452.5,1944.9 1460.0,1925.4 1468.0,1907.1 1476.5,1890.1 1485.5,1874.5 1495.0,1860.3 1504.9,1847.6 1515.3,1836.5 1526.2,1827.0 1537.4,1819.1 1549.2,1812.9 1561.3,1808.5 1573.8,1805.7 1586.7,1804.7 1599.9,1805.4 1613.4,1807.8 1627.3,1811.8 1641.4,1817.6 1655.7,1824.9 1670.3,1833.8 1685.0,1844.3 1699.8,1856.1 1714.8,1869.4 1729.8,1883.9 1744.8,1899.7 1759.8,1916.5 1774.7,1934.3 1789.5,1953.0 1804.1,1972.5 1818.5,1992.6 1832.6,2013.1 1846.4,2034.0  " style="stroke-opacity: 1.000000; stroke-width: 5.0; stroke: rgb(251,106,74); fill: none"  />
<path d="M 1409.6,2130.0 L 1413.3,2105.6 1417.3,2081.2 1421.6,2057.3 1426.3,2033.8 1431.3,2011.0 1436.7,1989.0 1442.4,1967.9 1448.5,1947.9 1454.9,1929.1 1461.6,1911.5 1468.7,1895.2 1476.1,1880.5 1483.8,1867.2 1491.8,1855.6 1500.1,1845.5 1508.8,1837.2 1517.6,1830.7 1526.8,1825.8 1536.2,1822.8 1545.9,1821.6 1555.7,1822.2 1565.8,1824.5 1576.1,1828.7 1586.5,1834.5 1597.1,1842.1 1607.8,1851.4 1618.6,1862.3 1629.4,1874.8 1640.3,1888.7 1651.3,1904.0 1662.2,1920.7 1673.1,1938.6 1683.9,1957.5 1694.6,1977.5 1705.2,1998.3 1715.6,2019.8 1725.8,2041.9 1735.8,2064.5 1745.5,2087.2  " style="stroke-opacity: 1.000000; stroke-width: 5.0; stroke: rgb(251,106,74); fill: none"  />
<path d="M 1409.6,2130.0 L 1414.1,2100.1 1419.0,2070.0 1424.3,2039.8 1430.1,2009.4 1436.4,1978.9 1443.2,1948.4 1450.4,1917.8 1458.2,1887.3 1466.5,1856.7 1475.3,1826.2 1484.7,1795.7 1494.6,1765.3 1505.0,1735.0 1516.0,1704.9 1527.6,1674.9 1539.6,1645.1 1552.3,1615.4 1565.4,1586.0 1579.1,1556.8 1593.3,1527.9 1608.1,1499.2 1623.3,1470.8 1639.1,1442.7 1655.3,1415.0 1672.0,1387.5 1689.1,1360.4 1706.7,1333.6 1724.7,1307.2 1743.1,1281.2 1761.9,1255.5 1781.0,1230.3 1800.5,1205.4 1820.2,1181.0 1840.3,1157.0 1860.6,1133.4 1881.0,1110.3 1901.7,1087.5 1922.6,1065.3 1943.5,1043.4  " style="stroke-opacity: 1.000000; stroke-width: 5.0; stroke: rgb(251,106,74); fill: none"  />
<path d="M 1409.6,2130.0 L 1413.2,2105.7 1417.0,2081.6 1421.0,2057.8 1425.3,2034.6 1429.7,2012.0 1434.4,1990.3 1439.2,1969.6 1444.2,1949.9 1449.4,1931.5 1454.7,1914.4 1460.2,1898.7 1465.9,1884.4 1471.7,1871.8 1477.6,1860.8 1483.7,1851.5 1489.9,1844.0 1496.2,1838.2 1502.5,1834.3 1509.0,1832.2 1515.5,1832.0 1522.2,1833.6 1528.8,1837.0 1535.5,1842.3 1542.2,1849.4 1549.0,1858.2 1555.7,1868.7 1562.4,1880.9 1569.1,1894.6 1575.8,1909.9 1582.4,1926.6 1588.9,1944.6 1595.3,1963.8 1601.7,1984.2 1607.9,2005.5 1614.0,2027.6 1619.9,2050.5 1625.7,2073.9 1631.3,2097.7 1636.7,2121.6  " style="stroke-opacity: 1.000000; stroke-width: 5.0; stroke: rgb(251,106,74); fill: none"  />
<path d="M 1409.6,2130.0 L 1413.9,2101.5 1418.9,2072.7 1424.5,2043.8 1430.7,2014.8 1437.6,1985.8 1445.2,1956.9 1453.6,1928.0 1462.6,1899.2 1472.4,1870.6 1482.9,1842.2 1494.2,1814.0 1506.2,1786.1 1519.0,1758.6 1532.6,1731.4 1547.0,1704.5 1562.1,1678.1 1578.0,1652.1 1594.6,1626.6 1611.9,1601.6 1630.0,1577.1 1648.8,1553.2 1668.3,1529.8 1688.5,1507.0 1709.3,1484.8 1730.7,1463.2 1752.7,1442.2 1775.3,1421.8 1798.4,1402.1 1822.0,1383.1 1846.1,1364.7 1870.6,1346.9 1895.4,1329.8 1920.6,1313.4 1946.0,1297.6 1971.7,1282.5 1997.6,1268.0 2023.6,1254.2 2049.6,1241.0 2075.6,1228.4  " style="stroke-opacity: 1.000000; stroke-width: 5.0; stroke: rgb(251,106,74); fill: none"  />
<path d="M 1298.5,2103.8 L 1307.1,2079.1 1316.3,2054.6 1326.1,2030.3 1336.6,2006.4 1347.8,1983.1 1359.6,1960.3 1372.1,1938.3 1385.2,1917.1 1399.0,1896.8 1413.4,1877.4 1428.5,1859.2 1444.2,1842.1 1460.6,1826.1 1477.5,1811.5 1495.0,1798.1 1513.1,1786.1 1531.8,1775.4 1550.9,1766.2 1570.6,1758.3 1590.7,1752.0 1611.3,1747.1 1632.3,1743.6 1653.7,1741.6 1675.4,1741.0 1697.5,1741.9 1719.8,1744.2 1742.3,1747.8 1765.0,1752.8 1787.8,1759.1 1810.7,1766.6 1833.7,1775.3 1856.6,1785.1 1879.5,1795.9 1902.3,1807.7 1924.8,1820.4 1947.1,1833.9 1969.1,1848.1 1990.8,1862.9 2012.0,1878.2  " style="stroke-opacity: 1.000000; stroke-width: 5.0; stroke: rgb(251,106,74); fill: none"  />
<path d="M 1298.5,2103.8 L 1306.9,2079.5 1315.9,2055.4 1325.5,2031.6 1335.6,2008.3 1346.3,1985.5 1357.6,1963.5 1369.5,1942.3 1381.9,1921.9 1394.8,1902.6 1408.4,1884.4 1422.4,1867.4 1437.0,1851.6 1452.1,1837.2 1467.7,1824.1 1483.7,1812.5 1500.3,1802.3 1517.2,1793.6 1534.6,1786.5 1552.3,1781.0 1570.4,1777.0 1588.8,1774.6 1607.6,1773.8 1626.6,1774.5 1645.9,1776.8 1665.3,1780.6 1684.9,1786.0 1704.7,1792.8 1724.6,1801.0 1744.5,1810.5 1764.4,1821.4 1784.3,1833.5 1804.1,1846.7 1823.7,1861.0 1843.2,1876.3 1862.5,1892.4 1881.5,1909.3 1900.1,1926.9 1918.4,1945.0 1936.2,1963.5  " style="stroke-opacity: 1.000000; stroke-width: 5.0; stroke: rgb(251,106,74); fill: none"  />
<path d="M 1298.5,2103.8 L 1306.8,2079.8 1315.5,2056.1 1324.8,2032.7 1334.5,2009.9 1344.7,1987.7 1355.4,1966.2 1366.5,1945.6 1378.0,1926.1 1390.0,1907.6 1402.4,1890.3 1415.3,1874.3 1428.5,1859.6 1442.0,1846.4 1456.0,1834.7 1470.2,1824.5 1484.8,1815.9 1499.7,1808.9 1514.9,1803.6 1530.3,1799.9 1545.9,1797.9 1561.7,1797.6 1577.7,1799.0 1593.9,1802.0 1610.2,1806.7 1626.5,1813.0 1643.0,1820.8 1659.4,1830.2 1675.9,1841.1 1692.3,1853.4 1708.6,1867.0 1724.9,1881.9 1741.0,1897.9 1756.9,1915.0 1772.6,1933.1 1788.1,1952.1 1803.2,1971.8 1818.0,1992.1 1832.4,2012.9 1846.4,2034.0  " style="stroke-opacity: 1.000000; stroke-width: 5.0; stroke: rgb(251,106,74); fill: none"  />
<path d="M 1298.5,2103.8 L 1306.6,2080.1 1315.2,2056.7 1324.1,2033.6 1333.3,2011.1 1343.0,1989.3 1352.9,1968.3 1363.2,1948.3 1373.8,1929.3 1384.7,1911.4 1395.8,1894.9 1407.2,1879.7 1418.9,1865.9 1430.7,1853.6 1442.8,1842.9 1455.0,1833.8 1467.3,1826.4 1479.9,1820.7 1492.5,1816.7 1505.2,1814.4 1518.0,1814.0 1530.9,1815.3 1543.8,1818.3 1556.7,1823.1 1569.6,1829.6 1582.4,1837.7 1595.2,1847.5 1607.9,1858.9 1620.5,1871.8 1633.0,1886.1 1645.4,1901.8 1657.5,1918.8 1669.5,1936.9 1681.3,1956.2 1692.7,1976.4 1704.0,1997.4 1714.9,2019.2 1725.4,2041.5 1735.7,2064.2 1745.5,2087.2  " style="stroke-opacity: 1.000000; stroke-width: 5.0; stroke: rgb(251,106,74); fill: none"  />
<path d="M 1298.5,2103.8 L 1308.3,2075.1 1318.5,2046.4 1329.1,2017.6 1340.3,1988.7 1351.9,1959.9 1364.0,1931.1 1376.6,1902.3 1389.7,1873.6 1403.4,1845.0 1417.5,1816.5 1432.1,1788.2 1447.3,1760.1 1463.0,1732.1 1479.2,1704.4 1495.9,1677.0 1513.1,1649.8 1530.8,1622.9 1549.0,1596.3 1567.7,1570.0 1586.9,1544.1 1606.5,1518.5 1626.5,1493.3 1647.0,1468.5 1668.0,1444.1 1689.3,1420.0 1711.0,1396.4 1733.1,1373.2 1755.5,1350.4 1778.3,1328.1 1801.3,1306.2 1824.7,1284.8 1848.2,1263.8 1872.0,1243.3 1896.0,1223.3 1920.2,1203.7 1944.5,1184.6 1968.9,1165.9 1993.4,1147.7 2017.9,1130.0  " style="stroke-opacity: 1.000000; stroke-width: 5.0; stroke: rgb(251,106,74); fill: none"  />
<path d="M 1298.5,2103.8 L 1307.7,2075.6 1316.4,2047.1 1324.8,2018.2 1332.7,1989.0 1340.1,1959.4 1347.0,1929.5 1353.3,1899.4 1359.0,1869.0 1364.2,1838.4 1368.7,1807.6 1372.5,1776.6 1375.7,1745.5 1378.2,1714.3 1380.0,1683.0 1381.1,1651.6 1381.5,1620.1 1381.1,1588.7 1380.0,1557.2 1378.2,1525.8 1375.6,1494.4 1372.3,1463.1 1368.3,1431.9 1363.5,1400.8 1358.0,1369.8 1351.8,1339.0 1344.9,1308.4 1337.4,1278.0 1329.2,1247.8 1320.3,1217.9 1310.9,1188.3 1300.8,1158.9 1290.2,1129.9 1279.0,1101.2 1267.4,1072.8 1255.2,1044.8 1242.7,1017.3 1229.7,990.1 1216.4,963.4 1202.8,937.1  " style="stroke-opacity: 1.000000; stroke-width: 5.0; stroke: rgb(251,106,74); fill: none"  />
<path d="M 1298.5,2103.8 L 1307.9,2075.0 1317.0,2045.9 1325.8,2016.5 1334.2,1986.7 1342.2,1956.7 1349.9,1926.3 1357.1,1895.8 1363.8,1864.9 1370.1,1833.9 1375.9,1802.6 1381.2,1771.2 1386.0,1739.6 1390.2,1707.8 1393.9,1676.0 1397.0,1644.0 1399.6,1611.9 1401.6,1579.8 1403.0,1547.6 1403.8,1515.4 1404.1,1483.1 1403.7,1450.9 1402.8,1418.7 1401.3,1386.5 1399.3,1354.4 1396.7,1322.4 1393.5,1290.4 1389.8,1258.6 1385.5,1227.0 1380.7,1195.4 1375.4,1164.1 1369.6,1133.0 1363.4,1102.0 1356.7,1071.3 1349.5,1040.9 1341.9,1010.7 1334.0,980.8 1325.7,951.3 1317.1,922.0 1308.1,893.1  " style="stroke-opacity: 1.000000; stroke-width: 5.0; stroke: rgb(251,106,74); fill: none"  />
<path d="M 1298.5,2103.8 L 1306.5,2080.3 1314.8,2057.1 1323.4,2034.3 1332.2,2012.1 1341.2,1990.5 1350.4,1969.9 1359.8,1950.1 1369.3,1931.5 1379.0,1914.1 1388.8,1898.0 1398.6,1883.3 1408.5,1870.1 1418.5,1858.4 1428.5,1848.4 1438.4,1840.0 1448.4,1833.4 1458.3,1828.5 1468.2,1825.4 1478.0,1824.1 1487.7,1824.6 1497.3,1826.9 1506.8,1831.1 1516.2,1837.0 1525.4,1844.6 1534.4,1854.0 1543.3,1865.0 1552.0,1877.7 1560.4,1891.9 1568.7,1907.5 1576.7,1924.6 1584.5,1942.9 1592.0,1962.4 1599.2,1983.0 1606.2,2004.5 1612.9,2026.9 1619.3,2050.0 1625.4,2073.5 1631.2,2097.5 1636.7,2121.6  " style="stroke-opacity: 1.000000; stroke-width: 5.0; stroke: rgb(251,106,74); fill: none"  />
<path d="M 1745.5,2087.2 L 1735.8,2064.5 1725.8,2041.9 1715.6,2019.8 1705.2,1998.3 1694.6,1977.5 1683.9,1957.5 1673.1,1938.6 1662.2,1920.7 1651.3,1904.0 1640.3,1888.7 1629.4,1874.8 1618.6,1862.3 1607.8,1851.4 1597.1,1842.1 1586.5,1834.5 1576.1,1828.7 1565.8,1824.5 1555.7,1822.2 1545.9,1821.6 1536.2,1822.8 1526.8,1825.8 1517.6,1830.7 1508.8,1837.2 1500.1,1845.5 1491.8,1855.6 1483.8,1867.2 1476.1,1880.5 1468.7,1895.2 1461.6,1911.5 1454.9,1929.1 1448.5,1947.9 1442.4,1967.9 1436.7,1989.0 1431.3,2011.0 1426.3,2033.8 1421.6,2057.3 1417.3,2081.2 1413.3,2105.6 1409.6,2130.0  " style="stroke-opacity: 1.000000; stroke-width: 5.0; stroke: rgb(251,106,74); fill: none"  />
<path d="M 1745.5,2087.2 L 1735.7,2064.2 1725.4,2041.5 1714.9,2019.2 1704.0,1997.4 1692.7,1976.4 1681.3,1956.2 1669.5,1936.9 1657.5,1918.8 1645.4,1901.8 1633.0,1886.1 1620.5,1871.8 1607.9,1858.9 1595.2,1847.5 1582.4,1837.7 1569.6,1829.6 1556.7,1823.1 1543.8,1818.3 1530.9,1815.3 1518.0,1814.0 1505.2,1814.4 1492.5,1816.7 1479.9,1820.7 1467.3,1826.4 1455.0,1833.8 1442.8,1842.9 1430.7,1853.6 1418.9,1865.9 1407.2,1879.7 1395.8,1894.9 1384.7,1911.4 1373.8,1929.3 1363.2,1948.3 1352.9,1968.3 1343.0,1989.3 1333.3,2011.1 1324.1,2033.6 1315.2,2056.7 1306.6,2080.1 1298.5,2103.8  " style="stroke-opacity: 1.000000; stroke-width: 5.0; stroke: rgb(251,106,74); fill: none"  />
<path d="M 1745.5,2087.2 L 1733.7,2059.4 1721.4,2031.5 1708.6,2003.6 1695.4,1975.6 1681.7,1947.7 1667.5,1919.8 1652.8,1892.1 1637.6,1864.4 1621.9,1836.9 1605.7,1809.5 1589.0,1782.4 1571.8,1755.5 1554.1,1728.8 1535.9,1702.4 1517.2,1676.2 1498.0,1650.4 1478.4,1624.9 1458.2,1599.7 1437.7,1574.9 1416.6,1550.4 1395.2,1526.3 1373.3,1502.7 1351.0,1479.4 1328.4,1456.6 1305.3,1434.2 1281.9,1412.3 1258.2,1390.8 1234.1,1369.7 1209.8,1349.1 1185.2,1329.0 1160.3,1309.4 1135.3,1290.2 1110.0,1271.5 1084.6,1253.3 1059.1,1235.5 1033.4,1218.3 1007.7,1201.4 981.9,1185.1 956.2,1169.2  " style="stroke-opacity: 1.000000; stroke-width: 5.0; stroke: rgb(251,106,74); fill: none"  />
<path d="M 1745.5,2087.2 L 1735.2,2063.3 1724.2,2039.5 1712.6,2016.0 1700.3,1993.0 1687.5,1970.5 1674.0,1948.7 1660.0,1927.6 1645.3,1907.5 1630.0,1888.2 1614.2,1870.0 1597.8,1852.9 1580.9,1837.0 1563.4,1822.3 1545.4,1809.0 1527.0,1796.9 1508.0,1786.2 1488.7,1777.0 1468.9,1769.2 1448.7,1762.8 1428.1,1758.0 1407.2,1754.6 1386.0,1752.7 1364.6,1752.3 1342.8,1753.3 1320.9,1755.8 1298.9,1759.8 1276.7,1765.0 1254.4,1771.7 1232.1,1779.6 1209.8,1788.8 1187.5,1799.2 1165.4,1810.6 1143.4,1823.1 1121.6,1836.6 1100.0,1850.9 1078.7,1866.0 1057.8,1881.8 1037.4,1898.2 1017.4,1915.0  " style="stroke-opacity: 1.000000; stroke-width: 5.0; stroke: rgb(251,106,74); fill: none"  />
<path d="M 956.2,1169.2 L 981.9,1185.1 1007.7,1201.4 1033.4,1218.3 1059.1,1235.5 1084.6,1253.3 1110.0,1271.5 1135.3,1290.2 1160.3,1309.4 1185.2,1329.0 1209.8,1349.1 1234.1,1369.7 1258.2,1390.8 1281.9,1412.3 1305.3,1434.2 1328.4,1456.6 1351.0,1479.4 1373.3,1502.7 1395.2,1526.3 1416.6,1550.4 1437.7,1574.9 1458.2,1599.7 1478.4,1624.9 1498.0,1650.4 1517.2,1676.2 1535.9,1702.4 1554.1,1728.8 1571.8,1755.5 1589.0,1782.4 1605.7,1809.5 1621.9,1836.9 1637.6,1864.4 1652.8,1892.1 1667.5,1919.8 1681.7,1947.7 1695.4,1975.6 1708.6,2003.6 1721.4,2031.5 1733.7,2059.4 1745.5,2087.2  " style="stroke-opacity: 1.000000; stroke-width: 5.0; stroke: rgb(251,106,74); fill: none"  />
<path d="M 1943.5,1043.4 L 1922.6,1065.3 1901.7,1087.5 1881.0,1110.3 1860.6,1133.4 1840.3,1157.0 1820.2,1181.0 1800.5,1205.4 1781.0,1230.3 1761.9,1255.5 1743.1,1281.2 1724.7,1307.2 1706.7,1333.6 1689.1,1360.4 1672.0,1387.5 1655.3,1415.0 1639.1,1442.7 1623.3,1470.8 1608.1,1499.2 1593.3,1527.9 1579.1,1556.8 1565.4,1586.0 1552.3,1615.4 1539.6,1645.1 1527.6,1674.9 1516.0,1704.9 1505.0,1735.0 1494.6,1765.3 1484.7,1795.7 1475.3,1826.2 1466.5,1856.7 1458.2,1887.3 1450.4,1917.8 1443.2,1948.4 1436.4,1978.9 1430.1,2009.4 1424.3,2039.8 1419.0,2070.0 1414.1,2100.1 1409.6,2130.0  " style="stroke-opacity: 1.000000; stroke-width: 5.0; stroke: rgb(251,106,74); fill: none"  />
<path d="M 1099.2,1994.5 L 1116.5,1973.6 1134.5,1953.0 1153.1,1932.9 1172.3,1913.2 1192.0,1894.1 1212.3,1875.6 1233.2,1857.9 1254.5,1841.0 1276.4,1825.0 1298.7,1810.0 1321.4,1796.0 1344.5,1783.0 1368.1,1771.1 1392.0,1760.4 1416.2,1750.9 1440.7,1742.6 1465.5,1735.5 1490.5,1729.7 1515.8,1725.2 1541.2,1721.9 1566.8,1720.0 1592.5,1719.3 1618.2,1719.9 1644.0,1721.8 1669.9,1725.0 1695.7,1729.4 1721.4,1735.0 1747.1,1741.7 1772.6,1749.6 1798.0,1758.6 1823.1,1768.6 1848.0,1779.6 1872.7,1791.5 1896.9,1804.3 1920.9,1817.8 1944.4,1832.1 1967.4,1846.9 1990.0,1862.3 2012.0,1878.2  " style="stroke-opacity: 1.000000; stroke-width: 5.0; stroke: rgb(251,106,74); fill: none"  />
<path d="M 1017.4,1915.0 L 1037.4,1898.2 1057.8,1881.8 1078.7,1866.0 1100.0,1850.9 1121.6,1836.6 1143.4,1823.1 1165.4,1810.6 1187.5,1799.2 1209.8,1788.8 1232.1,1779.6 1254.4,1771.7 1276.7,1765.0 1298.9,1759.8 1320.9,1755.8 1342.8,1753.3 1364.6,1752.3 1386.0,1752.7 1407.2,1754.6 1428.1,1758.0 1448.7,1762.8 1468.9,1769.2 1488.7,1777.0 1508.0,1786.2 1527.0,1796.9 1545.4,1809.0 1563.4,1822.3 1580.9,1837.0 1597.8,1852.9 1614.2,1870.0 1630.0,1888.2 1645.3,1907.5 1660.0,1927.6 1674.0,1948.7 1687.5,1970.5 1700.3,1993.0 1712.6,2016.0 1724.2,2039.5 1735.2,2063.3 1745.5,2087.2  " style="stroke-opacity: 1.000000; stroke-width: 5.0; stroke: rgb(251,106,74); fill: none"  />
<path d="M 1017.4,1915.0 L 1041.4,1894.4 1065.6,1873.9 1090.1,1853.5 1114.8,1833.1 1139.7,1812.8 1164.8,1792.6 1190.1,1772.5 1215.6,1752.5 1241.3,1732.7 1267.2,1713.0 1293.3,1693.4 1319.6,1674.0 1346.1,1654.8 1372.7,1635.7 1399.5,1616.8 1426.5,1598.1 1453.7,1579.6 1481.0,1561.3 1508.4,1543.2 1536.0,1525.3 1563.7,1507.6 1591.6,1490.1 1619.5,1472.9 1647.6,1455.9 1675.8,1439.1 1704.1,1422.5 1732.4,1406.2 1760.9,1390.1 1789.4,1374.2 1817.9,1358.6 1846.5,1343.2 1875.2,1328.1 1903.8,1313.1 1932.5,1298.4 1961.2,1284.0 1989.8,1269.7 2018.5,1255.7 2047.1,1242.0 2075.6,1228.4  " style="stroke-opacity: 1.000000; stroke-width: 5.0; stroke: rgb(251,106,74); fill: none"  />
<path d="M 2017.9,1130.0 L 1993.4,1147.7 1968.9,1165.9 1944.5,1184.6 1920.2,1203.7 1896.0,1223.3 1872.0,1243.3 1848.2,1263.8 1824.7,1284.8 1801.3,1306.2 1778.3,1328.1 1755.5,1350.4 1733.1,1373.2 1711.0,1396.4 1689.3,1420.0 1668.0,1444.1 1647.0,1468.5 1626.5,1493.3 1606.5,1518.5 1586.9,1544.1 1567.7,1570.0 1549.0,1596.3 1530.8,1622.9 1513.1,1649.8 1495.9,1677.0 1479.2,1704.4 1463.0,1732.1 1447.3,1760.1 1432.1,1788.2 1417.5,1816.5 1403.4,1845.0 1389.7,1873.6 1376.6,1902.3 1364.0,1931.1 1351.9,1959.9 1340.3,1988.7 1329.1,2017.6 1318.5,2046.4 1308.3,2075.1 1298.5,2103.8  " style="stroke-opacity: 1.000000; stroke-width: 5.0; stroke: rgb(251,106,74); fill: none"  />
<path d="M 1202.8,937.1 L 1217.9,965.7 1233.1,994.2 1248.4,1022.8 1263.7,1051.4 1279.1,1080.0 1294.6,1108.6 1310.2,1137.2 1325.9,1165.8 1341.6,1194.4 1357.4,1223.0 1373.3,1251.5 1389.3,1280.1 1405.3,1308.6 1421.5,1337.1 1437.7,1365.5 1454.0,1394.0 1470.4,1422.4 1486.8,1450.7 1503.3,1479.0 1519.9,1507.3 1536.6,1535.6 1553.3,1563.7 1570.1,1591.9 1587.0,1620.0 1603.9,1648.0 1620.9,1676.0 1638.0,1703.9 1655.1,1731.8 1672.3,1759.6 1689.5,1787.3 1706.8,1815.0 1724.1,1842.6 1741.5,1870.2 1758.9,1897.7 1776.3,1925.1 1793.8,1952.4 1811.3,1979.7 1828.9,2006.9 1846.4,2034.0  " style="stroke-opacity: 1.000000; stroke-width: 5.0; stroke: rgb(251,106,74); fill: none"  />
<path d="M 1202.8,937.1 L 1216.4,963.4 1229.7,990.1 1242.7,1017.3 1255.2,1044.8 1267.4,1072.8 1279.0,1101.2 1290.2,1129.9 1300.8,1158.9 1310.9,1188.3 1320.3,1217.9 1329.2,1247.8 1337.4,1278.0 1344.9,1308.4 1351.8,1339.0 1358.0,1369.8 1363.5,1400.8 1368.3,1431.9 1372.3,1463.1 1375.6,1494.4 1378.2,1525.8 1380.0,1557.2 1381.1,1588.7 1381.5,1620.1 1381.1,1651.6 1380.0,1683.0 1378.2,1714.3 1375.7,1745.5 1372.5,1776.6 1368.7,1807.6 1364.2,1838.4 1359.0,1869.0 1353.3,1899.4 1347.0,1929.5 1340.1,1959.4 1332.7,1989.0 1324.8,2018.2 1316.4,2047.1 1307.7,2075.6 1298.5,2103.8  " style="stroke-opacity: 1.000000; stroke-width: 5.0; stroke: rgb(251,106,74); fill: none"  />
<path d="M 1202.8,937.1 L 1217.5,965.1 1232.1,993.3 1246.6,1021.7 1261.0,1050.3 1275.2,1079.1 1289.3,1108.1 1303.3,1137.2 1317.1,1166.5 1330.7,1196.0 1344.1,1225.7 1357.4,1255.4 1370.5,1285.4 1383.4,1315.5 1396.0,1345.7 1408.5,1376.1 1420.7,1406.5 1432.7,1437.1 1444.5,1467.8 1456.0,1498.6 1467.3,1529.5 1478.4,1560.4 1489.3,1591.5 1499.8,1622.6 1510.2,1653.7 1520.3,1685.0 1530.1,1716.2 1539.7,1747.5 1549.1,1778.8 1558.2,1810.1 1567.1,1841.4 1575.8,1872.7 1584.2,1904.0 1592.3,1935.3 1600.3,1966.5 1608.0,1997.7 1615.5,2028.8 1622.8,2059.8 1629.8,2090.8 1636.7,2121.6  " style="stroke-opacity: 1.000000; stroke-width: 5.0; stroke: rgb(251,106,74); fill: none"  />
<path d="M 1308.1,893.1 L 1317.7,923.2 1327.5,953.4 1337.6,983.7 1347.8,1014.0 1358.3,1044.4 1369.0,1074.7 1380.0,1105.1 1391.1,1135.6 1402.6,1166.0 1414.2,1196.4 1426.1,1226.7 1438.2,1257.1 1450.6,1287.4 1463.2,1317.6 1476.1,1347.8 1489.2,1377.9 1502.5,1407.9 1516.1,1437.9 1529.9,1467.7 1543.9,1497.5 1558.2,1527.1 1572.7,1556.6 1587.4,1586.0 1602.3,1615.2 1617.4,1644.4 1632.7,1673.3 1648.2,1702.1 1663.9,1730.8 1679.8,1759.3 1695.9,1787.6 1712.1,1815.7 1728.5,1843.7 1745.0,1871.5 1761.6,1899.1 1778.4,1926.4 1795.3,1953.6 1812.2,1980.6 1829.3,2007.4 1846.4,2034.0  " style="stroke-opacity: 1.000000; stroke-width: 5.0; stroke: rgb(251,106,74); fill: none"  />
<path d="M 1308.1,893.1 L 1317.1,922.0 1325.7,951.3 1334.0,980.8 1341.9,1010.7 1349.5,1040.9 1356.7,1071.3 1363.4,1102.0 1369.6,1133.0 1375.4,1164.1 1380.7,1195.4 1385.5,1227.0 1389.8,1258.6 1393.5,1290.4 1396.7,1322.4 1399.3,1354.4 1401.3,1386.5 1402.8,1418.7 1403.7,1450.9 1404.1,1483.1 1403.8,1515.4 1403.0,1547.6 1401.6,1579.8 1399.6,1611.9 1397.0,1644.0 1393.9,1676.0 1390.2,1707.8 1386.0,1739.6 1381.2,1771.2 1375.9,1802.6 1370.1,1833.9 1363.8,1864.9 1357.1,1895.8 1349.9,1926.3 1342.2,1956.7 1334.2,1986.7 1325.8,2016.5 1317.0,2045.9 1307.9,2075.0 1298.5,2103.8  " style="stroke-opacity: 1.000000; stroke-width: 5.0; stroke: rgb(251,106,74); fill: none"  />
<path d="M 1636.7,2121.6 L 1631.3,2097.7 1625.7,2073.9 1619.9,2050.5 1614.0,2027.6 1607.9,2005.5 1601.7,1984.2 1595.3,1963.8 1588.9,1944.6 1582.4,1926.6 1575.8,1909.9 1569.1,1894.6 1562.4,1880.9 1555.7,1868.7 1549.0,1858.2 1542.2,1849.4 1535.5,1842.3 1528.8,1837.0 1522.2,1833.6 1515.5,1832.0 1509.0,1832.2 1502.5,1834.3 1496.2,1838.2 1489.9,1844.0 1483.7,1851.5 1477.6,1860.8 1471.7,1871.8 1465.9,1884.4 1460.2,1898.7 1454.7,1914.4 1449.4,1931.5 1444.2,1949.9 1439.2,1969.6 1434.4,1990.3 1429.7,2012.0 1425.3,2034.6 1421.0,2057.8 1417.0,2081.6 1413.2,2105.7 1409.6,2130.0  " style="stroke-opacity: 1.000000; stroke-width: 5.0; stroke: rgb(251,106,74); fill: none"  />
<path d="M 1636.7,2121.6 L 1631.2,2097.5 1625.4,2073.5 1619.3,2050.0 1612.9,2026.9 1606.2,2004.5 1599.2,1983.0 1592.0,1962.4 1584.5,1942.9 1576.7,1924.6 1568.7,1907.5 1560.4,1891.9 1552.0,1877.7 1543.3,1865.0 1534.4,1854.0 1525.4,1844.6 1516.2,1837.0 1506.8,1831.1 1497.3,1826.9 1487.7,1824.6 1478.0,1824.1 1468.2,1825.4 1458.3,1828.5 1448.4,1833.4 1438.4,1840.0 1428.5,1848.4 1418.5,1858.4 1408.5,1870.1 1398.6,1883.3 1388.8,1898.0 1379.0,1914.1 1369.3,1931.5 1359.8,1950.1 1350.4,1969.9 1341.2,1990.5 1332.2,2012.1 1323.4,2034.3 1314.8,2057.1 1306.5,2080.3 1298.5,2103.8  " style="stroke-opacity: 1.000000; stroke-width: 5.0; stroke: rgb(251,106,74); fill: none"  />
<path d="M 1636.7,2121.6 L 1629.8,2090.8 1622.8,2059.8 1615.5,2028.8 1608.0,1997.7 1600.3,1966.5 1592.3,1935.3 1584.2,1904.0 1575.8,1872.7 1567.1,1841.4 1558.2,1810.1 1549.1,1778.8 1539.7,1747.5 1530.1,1716.2 1520.3,1685.0 1510.2,1653.7 1499.8,1622.6 1489.3,1591.5 1478.4,1560.4 1467.3,1529.5 1456.0,1498.6 1444.5,1467.8 1432.7,1437.1 1420.7,1406.5 1408.5,1376.1 1396.0,1345.7 1383.4,1315.5 1370.5,1285.4 1357.4,1255.4 1344.1,1225.7 1330.7,1196.0 1317.1,1166.5 1303.3,1137.2 1289.3,1108.1 1275.2,1079.1 1261.0,1050.3 1246.6,1021.7 1232.1,993.3 1217.5,965.1 1202.8,937.1  " style="stroke-opacity: 1.000000; stroke-width: 5.0; stroke: rgb(251,106,74); fill: none"  />
<path d="M 2075.6,1228.4 L 2049.6,1241.0 2023.6,1254.2 1997.6,1268.0 1971.7,1282.5 1946.0,1297.6 1920.6,1313.4 1895.4,1329.8 1870.6,1346.9 1846.1,1364.7 1822.0,1383.1 1798.4,1402.1 1775.3,1421.8 1752.7,1442.2 1730.7,1463.2 1709.3,1484.8 1688.5,1507.0 1668.3,1529.8 1648.8,1553.2 1630.0,1577.1 1611.9,1601.6 1594.6,1626.6 1578.0,1652.1 1562.1,1678.1 1547.0,1704.5 1532.6,1731.4 1519.0,1758.6 1506.2,1786.1 1494.2,1814.0 1482.9,1842.2 1472.4,1870.6 1462.6,1899.2 1453.6,1928.0 1445.2,1956.9 1437.6,1985.8 1430.7,2014.8 1424.5,2043.8 1418.9,2072.7 1413.9,2101.5 1409.6,2130.0  " style="stroke-opacity: 1.000000; stroke-width: 5.0; stroke: rgb(251,106,74); fill: none"  />
<path d="M 2075.6,1228.4 L 2047.1,1242.0 2018.5,1255.7 1989.8,1269.7 1961.2,1284.0 1932.5,1298.4 1903.8,1313.1 1875.2,1328.1 1846.5,1343.2 1817.9,1358.6 1789.4,1374.2 1760.9,1390.1 1732.4,1406.2 1704.1,1422.5 1675.8,1439.1 1647.6,1455.9 1619.5,1472.9 1591.6,1490.1 1563.7,1507.6 1536.0,1525.3 1508.4,1543.2 1481.0,1561.3 1453.7,1579.6 1426.5,1598.1 1399.5,1616.8 1372.7,1635.7 1346.1,1654.8 1319.6,1674.0 1293.3,1693.4 1267.2,1713.0 1241.3,1732.7 1215.6,1752.5 1190.1,1772.5 1164.8,1792.6 1139.7,1812.8 1114.8,1833.1 1090.1,1853.5 1065.6,1873.9 1041.4,1894.4 1017.4,1915.0  " style="stroke-opacity: 1.000000; stroke-width: 5.0; stroke: rgb(251,106,74); fill: none"  />
</g>
<g id="track_0">
<path d="M 2012.0,1878.2 L 1992.2,1863.7 1972.6,1849.4 1953.1,1835.4 1934.0,1821.9 1915.4,1808.8 1897.3,1796.4 1879.9,1784.8 1863.3,1773.8 1847.5,1763.8 1832.7,1754.7 1819.0,1746.6 1806.3,1739.5 1794.8,1733.5 1784.6,1728.6 1775.6,1725.0 1767.9,1722.5 1761.6,1721.2 1756.6,1721.2 1753.0,1722.4 1750.8,1724.9 1750.0,1728.6 1750.7,1733.5 1752.7,1739.6 1756.0,1747.0 1760.8,1755.5 1766.8,1765.1 1774.1,1775.8 1782.6,1787.5 1792.3,1800.2 1803.1,1813.8 1815.0,1828.3 1827.8,1843.5 1841.4,1859.4 1855.9,1875.8 1871.0,1892.8 1886.8,1910.2 1902.9,1927.8 1919.5,1945.7 1936.2,1963.5  " style="stroke-opacity: 1.000000; stroke-width: 5.0; stroke: rgb(107,174,214); fill: none"  />
<path d="M 2012.0,1878.2 L 1992.1,1863.7 1972.3,1849.4 1952.5,1835.6 1933.0,1822.3 1913.8,1809.7 1895.1,1797.7 1877.0,1786.6 1859.5,1776.3 1842.7,1767.1 1826.7,1758.8 1811.7,1751.7 1797.6,1745.8 1784.5,1741.0 1772.5,1737.5 1761.6,1735.3 1751.9,1734.4 1743.4,1734.8 1736.2,1736.6 1730.1,1739.8 1725.4,1744.2 1721.9,1750.1 1719.6,1757.2 1718.7,1765.7 1719.0,1775.4 1720.5,1786.4 1723.3,1798.6 1727.3,1812.0 1732.3,1826.4 1738.5,1841.8 1745.8,1858.3 1754.0,1875.6 1763.2,1893.7 1773.2,1912.5 1784.0,1931.9 1795.5,1951.8 1807.5,1972.0 1820.1,1992.6 1833.1,2013.3 1846.4,2034.0  " style="stroke-opacity: 1.000000; stroke-width: 5.0; stroke: rgb(107,174,214); fill: none"  />
<path d="M 2012.0,1878.2 L 1991.9,1863.6 1971.8,1849.4 1951.7,1835.7 1931.7,1822.5 1912.0,1810.1 1892.5,1798.4 1873.5,1787.7 1855.0,1778.0 1837.1,1769.3 1819.8,1761.7 1803.3,1755.3 1787.6,1750.2 1772.8,1746.4 1758.8,1743.9 1745.8,1742.8 1733.9,1743.1 1722.9,1744.8 1713.1,1748.0 1704.3,1752.5 1696.7,1758.5 1690.1,1766.0 1684.7,1774.8 1680.5,1785.0 1677.3,1796.6 1675.3,1809.4 1674.4,1823.6 1674.6,1838.9 1675.8,1855.4 1678.1,1872.9 1681.3,1891.5 1685.5,1910.9 1690.6,1931.2 1696.5,1952.3 1703.2,1973.9 1710.5,1996.1 1718.5,2018.6 1727.1,2041.4 1736.1,2064.3 1745.5,2087.2  " style="stroke-opacity: 1.000000; stroke-width: 5.0; stroke: rgb(107,174,214); fill: none"  />
<path d="M 2012.0,1878.2 L 1991.7,1863.5 1971.3,1849.2 1950.7,1835.5 1930.2,1822.4 1909.8,1810.1 1889.6,1798.7 1869.6,1788.2 1850.0,1778.7 1830.9,1770.4 1812.2,1763.2 1794.2,1757.3 1776.7,1752.7 1760.0,1749.5 1744.0,1747.6 1728.7,1747.2 1714.3,1748.3 1700.8,1750.8 1688.2,1754.8 1676.5,1760.3 1665.8,1767.3 1656.0,1775.7 1647.2,1785.6 1639.4,1796.9 1632.6,1809.6 1626.7,1823.7 1621.9,1839.1 1618.0,1855.7 1615.1,1873.5 1613.1,1892.4 1612.0,1912.3 1611.8,1933.2 1612.5,1955.0 1614.0,1977.5 1616.2,2000.6 1619.1,2024.3 1622.7,2048.3 1626.8,2072.7 1631.6,2097.2 1636.7,2121.6  " style="stroke-opacity: 1.000000; stroke-width: 5.0; stroke: rgb(107,174,214); fill: none"  />
<path d="M 1523.5,2136.1 L 1522.6,2111.6 1521.5,2087.3 1520.3,2063.4 1519.0,2040.0 1517.5,2017.3 1515.9,1995.4 1514.2,1974.6 1512.4,1954.8 1510.4,1936.2 1508.3,1918.9 1506.1,1903.1 1503.8,1888.8 1501.3,1876.1 1498.7,1865.1 1495.9,1855.7 1493.1,1848.2 1490.1,1842.4 1487.0,1838.5 1483.9,1836.5 1480.6,1836.3 1477.2,1838.0 1473.7,1841.6 1470.2,1847.0 1466.5,1854.2 1462.8,1863.2 1459.1,1873.9 1455.3,1886.3 1451.4,1900.2 1447.6,1915.7 1443.6,1932.7 1439.7,1950.9 1435.8,1970.4 1431.9,1991.0 1428.1,2012.6 1424.2,2035.0 1420.4,2058.1 1416.7,2081.8 1413.1,2105.8 1409.6,2130.0  " style="stroke-opacity: 1.000000; stroke-width: 5.0; stroke: rgb(107,174,214); fill: none"  />
<path d="M 1936.2,1963.5 L 1919.5,1945.7 1902.9,1927.8 1886.8,1910.2 1871.0,1892.8 1855.9,1875.8 1841.4,1859.4 1827.8,1843.5 1815.0,1828.3 1803.1,1813.8 1792.3,1800.2 1782.6,1787.5 1774.1,1775.8 1766.8,1765.1 1760.8,1755.5 1756.0,1747.0 1752.7,1739.6 1750.7,1733.5 1750.0,1728.6 1750.8,1724.9 1753.0,1722.4 1756.6,1721.2 1761.6,1721.2 1767.9,1722.5 1775.6,1725.0 1784.6,1728.6 1794.8,1733.5 1806.3,1739.5 1819.0,1746.6 1832.7,1754.7 1847.5,1763.8 1863.3,1773.8 1879.9,1784.8 1897.3,1796.4 1915.4,1808.8 1934.0,1821.9 1953.1,1835.4 1972.6,1849.4 1992.2,1863.7 2012.0,1878.2  " style="stroke-opacity: 1.000000; stroke-width: 5.0; stroke: rgb(107,174,214); fill: none"  />
<path d="M 1936.2,1963.5 L 1919.4,1945.7 1902.6,1928.2 1886.0,1910.9 1869.6,1894.2 1853.5,1878.1 1838.0,1862.6 1822.9,1848.0 1808.5,1834.3 1794.8,1821.6 1781.9,1810.0 1769.8,1799.6 1758.6,1790.3 1748.4,1782.4 1739.2,1775.8 1731.0,1770.6 1723.9,1766.7 1717.9,1764.4 1713.0,1763.4 1709.2,1764.0 1706.6,1766.0 1705.2,1769.5 1704.9,1774.5 1705.8,1780.9 1707.8,1788.7 1711.0,1797.9 1715.2,1808.5 1720.5,1820.3 1726.8,1833.4 1734.0,1847.6 1742.2,1862.9 1751.3,1879.2 1761.2,1896.5 1771.8,1914.5 1783.1,1933.3 1794.9,1952.8 1807.3,1972.6 1820.1,1992.9 1833.2,2013.4 1846.4,2034.0  " style="stroke-opacity: 1.000000; stroke-width: 5.0; stroke: rgb(107,174,214); fill: none"  />
<path d="M 1936.2,1963.5 L 1919.1,1945.6 1901.8,1928.0 1884.5,1910.9 1867.2,1894.4 1850.0,1878.7 1832.9,1863.7 1816.1,1849.8 1799.7,1836.9 1783.6,1825.1 1768.0,1814.6 1752.9,1805.4 1738.3,1797.6 1724.4,1791.2 1711.1,1786.2 1698.5,1782.8 1686.7,1781.0 1675.7,1780.7 1665.4,1782.0 1655.9,1785.0 1647.3,1789.5 1639.6,1795.6 1632.7,1803.4 1626.7,1812.7 1621.5,1823.5 1617.3,1835.8 1613.9,1849.5 1611.3,1864.6 1609.6,1881.0 1608.6,1898.7 1608.5,1917.6 1609.2,1937.5 1610.5,1958.3 1612.6,1980.1 1615.3,2002.6 1618.6,2025.7 1622.4,2049.3 1626.8,2073.2 1631.6,2097.4 1636.7,2121.6  " style="stroke-opacity: 1.000000; stroke-width: 5.0; stroke: rgb(107,174,214); fill: none"  />
<path d="M 1754.8,916.7 L 1745.0,939.3 1735.6,961.8 1726.5,984.2 1717.9,1006.1 1709.8,1027.6 1702.3,1048.5 1695.5,1068.7 1689.4,1088.1 1684.1,1106.5 1679.6,1123.9 1676.1,1140.1 1673.4,1155.2 1671.7,1169.0 1670.9,1181.5 1671.2,1192.6 1672.5,1202.2 1674.8,1210.4 1678.1,1217.1 1682.5,1222.3 1688.0,1225.9 1694.4,1228.1 1701.9,1228.6 1710.4,1227.7 1719.8,1225.2 1730.2,1221.2 1741.4,1215.8 1753.6,1209.0 1766.5,1200.9 1780.2,1191.4 1794.6,1180.7 1809.6,1168.8 1825.2,1155.8 1841.3,1141.9 1857.8,1127.1 1874.7,1111.4 1891.8,1095.1 1909.0,1078.3 1926.3,1061.0 1943.5,1043.4  " style="stroke-opacity: 1.000000; stroke-width: 5.0; stroke: rgb(107,174,214); fill: none"  />
<path d="M 1754.8,916.7 L 1745.0,939.7 1735.6,962.8 1726.8,985.9 1718.6,1008.8 1711.1,1031.5 1704.5,1053.7 1698.7,1075.5 1693.8,1096.7 1690.0,1117.3 1687.1,1137.0 1685.4,1156.0 1684.8,1174.0 1685.4,1191.0 1687.1,1207.0 1690.1,1222.0 1694.4,1235.8 1699.8,1248.4 1706.5,1259.8 1714.5,1270.0 1723.7,1278.9 1734.1,1286.6 1745.7,1293.0 1758.5,1298.1 1772.4,1301.9 1787.4,1304.4 1803.5,1305.7 1820.5,1305.8 1838.5,1304.7 1857.4,1302.4 1877.1,1299.0 1897.5,1294.6 1918.5,1289.1 1940.1,1282.7 1962.2,1275.3 1984.6,1267.2 2007.3,1258.4 2030.1,1248.9 2052.9,1238.9 2075.6,1228.4  " style="stroke-opacity: 1.000000; stroke-width: 5.0; stroke: rgb(107,174,214); fill: none"  />
<path d="M 1846.4,2034.0 L 1833.1,2013.3 1820.1,1992.6 1807.5,1972.0 1795.5,1951.8 1784.0,1931.9 1773.2,1912.5 1763.2,1893.7 1754.0,1875.6 1745.8,1858.3 1738.5,1841.8 1732.3,1826.4 1727.3,1812.0 1723.3,1798.6 1720.5,1786.4 1719.0,1775.4 1718.7,1765.7 1719.6,1757.2 1721.9,1750.1 1725.4,1744.2 1730.1,1739.8 1736.2,1736.6 1743.4,1734.8 1751.9,1734.4 1761.6,1735.3 1772.5,1737.5 1784.5,1741.0 1797.6,1745.8 1811.7,1751.7 1826.7,1758.8 1842.7,1767.1 1859.5,1776.3 1877.0,1786.6 1895.1,1797.7 1913.8,1809.7 1933.0,1822.3 1952.5,1835.6 1972.3,1849.4 1992.1,1863.7 2012.0,1878.2  " style="stroke-opacity: 1.000000; stroke-width: 5.0; stroke: rgb(107,174,214); fill: none"  />
<path d="M 1846.4,2034.0 L 1833.2,2013.4 1820.1,1992.9 1807.3,1972.6 1794.9,1952.8 1783.1,1933.3 1771.8,1914.5 1761.2,1896.5 1751.3,1879.2 1742.2,1862.9 1734.0,1847.6 1726.8,1833.4 1720.5,1820.3 1715.2,1808.5 1711.0,1797.9 1707.8,1788.7 1705.8,1780.9 1704.9,1774.5 1705.2,1769.5 1706.6,1766.0 1709.2,1764.0 1713.0,1763.4 1717.9,1764.4 1723.9,1766.7 1731.0,1770.6 1739.2,1775.8 1748.4,1782.4 1758.6,1790.3 1769.8,1799.6 1781.9,1810.0 1794.8,1821.6 1808.5,1834.3 1822.9,1848.0 1838.0,1862.6 1853.5,1878.1 1869.6,1894.2 1886.0,1910.9 1902.6,1928.2 1919.4,1945.7 1936.2,1963.5  " style="stroke-opacity: 1.000000; stroke-width: 5.0; stroke: rgb(107,174,214); fill: none"  />
<path d="M 1846.4,2034.0 L 1833.1,2013.5 1819.7,1993.2 1806.4,1973.2 1793.2,1953.8 1780.4,1935.1 1767.8,1917.1 1755.6,1900.1 1743.9,1884.0 1732.7,1869.1 1722.0,1855.4 1712.0,1842.9 1702.6,1831.8 1694.0,1822.2 1686.1,1814.1 1679.0,1807.5 1672.6,1802.4 1667.2,1799.0 1662.5,1797.2 1658.7,1797.1 1655.8,1798.7 1653.8,1801.8 1652.6,1806.7 1652.3,1813.1 1652.9,1821.2 1654.4,1830.8 1656.6,1841.9 1659.7,1854.5 1663.6,1868.5 1668.2,1883.8 1673.5,1900.3 1679.5,1918.0 1686.2,1936.7 1693.4,1956.4 1701.1,1976.9 1709.4,1998.1 1718.0,2019.9 1726.9,2042.1 1736.1,2064.6 1745.5,2087.2  " style="stroke-opacity: 1.000000; stroke-width: 5.0; stroke: rgb(107,174,214); fill: none"  />
<path d="M 1846.4,2034.0 L 1832.9,2013.4 1819.4,1993.1 1805.7,1973.2 1792.1,1953.9 1778.6,1935.3 1765.3,1917.6 1752.2,1900.7 1739.4,1885.0 1727.0,1870.4 1715.0,1857.1 1703.4,1845.2 1692.3,1834.7 1681.7,1825.6 1671.7,1818.1 1662.3,1812.2 1653.5,1808.0 1645.4,1805.4 1637.9,1804.5 1631.2,1805.3 1625.2,1807.9 1619.8,1812.1 1615.3,1818.0 1611.4,1825.6 1608.3,1834.8 1605.8,1845.7 1604.1,1858.0 1603.1,1871.9 1602.8,1887.2 1603.2,1903.9 1604.2,1921.8 1605.8,1940.9 1608.1,1961.0 1610.8,1982.1 1614.1,2004.1 1617.9,2026.8 1622.1,2050.0 1626.6,2073.7 1631.5,2097.6 1636.7,2121.6  " style="stroke-opacity: 1.000000; stroke-width: 5.0; stroke: rgb(107,174,214); fill: none"  />
<path d="M 1409.6,2130.0 L 1413.1,2105.8 1416.7,2081.8 1420.4,2058.1 1424.2,2035.0 1428.1,2012.6 1431.9,1991.0 1435.8,1970.4 1439.7,1950.9 1443.6,1932.7 1447.6,1915.7 1451.4,1900.2 1455.3,1886.3 1459.1,1873.9 1462.8,1863.2 1466.5,1854.2 1470.2,1847.0 1473.7,1841.6 1477.2,1838.0 1480.6,1836.3 1483.9,1836.5 1487.0,1838.5 1490.1,1842.4 1493.1,1848.2 1495.9,1855.7 1498.7,1865.1 1501.3,1876.1 1503.8,1888.8 1506.1,1903.1 1508.3,1918.9 1510.4,1936.2 1512.4,1954.8 1514.2,1974.6 1515.9,1995.4 1517.5,2017.3 1519.0,2040.0 1520.3,2063.4 1521.5,2087.3 1522.6,2111.6 1523.5,2136.1  " style="stroke-opacity: 1.000000; stroke-width: 5.0; stroke: rgb(107,174,214); fill: none"  />
<path d="M 1298.5,2103.8 L 1306.2,2080.5 1313.7,2057.4 1321.0,2034.6 1328.0,2012.2 1334.6,1990.5 1340.8,1969.5 1346.6,1949.3 1351.8,1930.1 1356.5,1912.0 1360.6,1895.2 1364.1,1879.6 1366.9,1865.3 1369.0,1852.6 1370.5,1841.3 1371.2,1831.6 1371.2,1823.5 1370.4,1817.1 1368.9,1812.4 1366.7,1809.3 1363.7,1808.0 1359.9,1808.4 1355.4,1810.5 1350.2,1814.4 1344.2,1819.8 1337.6,1826.9 1330.3,1835.7 1322.4,1845.9 1313.9,1857.6 1304.8,1870.8 1295.2,1885.3 1285.1,1901.0 1274.6,1917.9 1263.7,1935.8 1252.5,1954.6 1241.1,1974.3 1229.4,1994.6 1217.6,2015.4 1205.8,2036.7 1194.0,2058.1  " style="stroke-opacity: 1.000000; stroke-width: 5.0; stroke: rgb(107,174,214); fill: none"  />
<path d="M 1298.5,2103.8 L 1306.2,2080.4 1313.6,2057.1 1320.6,2034.1 1327.3,2011.4 1333.4,1989.3 1339.0,1967.8 1343.9,1947.1 1348.3,1927.3 1351.9,1908.4 1354.8,1890.7 1356.9,1874.2 1358.2,1859.0 1358.7,1845.1 1358.3,1832.6 1357.1,1821.6 1354.9,1812.0 1351.9,1804.1 1347.9,1797.7 1343.1,1792.9 1337.3,1789.8 1330.7,1788.3 1323.2,1788.4 1314.9,1790.1 1305.7,1793.4 1295.7,1798.3 1285.0,1804.7 1273.5,1812.5 1261.4,1821.8 1248.6,1832.5 1235.2,1844.5 1221.3,1857.6 1206.9,1871.9 1192.2,1887.3 1177.0,1903.5 1161.7,1920.6 1146.1,1938.4 1130.5,1956.7 1114.8,1975.4 1099.2,1994.5  " style="stroke-opacity: 1.000000; stroke-width: 5.0; stroke: rgb(107,174,214); fill: none"  />
<path d="M 1298.5,2103.8 L 1306.2,2080.2 1313.5,2056.7 1320.4,2033.3 1326.7,2010.2 1332.4,1987.6 1337.5,1965.5 1341.8,1944.1 1345.3,1923.5 1348.1,1903.8 1349.9,1885.1 1350.9,1867.4 1350.9,1850.9 1349.9,1835.6 1348.0,1821.5 1345.0,1808.9 1341.1,1797.6 1336.1,1787.7 1330.0,1779.3 1323.0,1772.4 1314.9,1766.9 1305.8,1763.0 1295.7,1760.6 1284.7,1759.7 1272.8,1760.3 1259.9,1762.4 1246.2,1765.9 1231.7,1770.8 1216.4,1777.0 1200.4,1784.6 1183.7,1793.4 1166.5,1803.4 1148.8,1814.5 1130.6,1826.6 1112.1,1839.7 1093.3,1853.5 1074.3,1868.1 1055.3,1883.3 1036.3,1898.9 1017.4,1915.0  " style="stroke-opacity: 1.000000; stroke-width: 5.0; stroke: rgb(107,174,214); fill: none"  />
<path d="M 905.9,1271.6 L 929.6,1280.5 953.5,1288.8 977.4,1296.5 1001.2,1303.6 1024.9,1309.8 1048.2,1315.2 1071.1,1319.7 1093.6,1323.3 1115.5,1325.7 1136.7,1327.2 1157.2,1327.4 1176.9,1326.5 1195.8,1324.5 1213.7,1321.2 1230.6,1316.6 1246.5,1310.9 1261.4,1303.8 1275.1,1295.5 1287.8,1286.0 1299.2,1275.2 1309.5,1263.1 1318.7,1249.9 1326.6,1235.5 1333.3,1220.0 1338.9,1203.4 1343.3,1185.7 1346.5,1167.0 1348.5,1147.4 1349.5,1126.9 1349.4,1105.6 1348.2,1083.6 1346.1,1061.0 1343.0,1037.8 1339.0,1014.2 1334.2,990.2 1328.6,966.0 1322.4,941.7 1315.5,917.3 1308.1,893.1  " style="stroke-opacity: 1.000000; stroke-width: 5.0; stroke: rgb(107,174,214); fill: none"  />
<path d="M 1194.0,2058.1 L 1205.8,2036.7 1217.6,2015.4 1229.4,1994.6 1241.1,1974.3 1252.5,1954.6 1263.7,1935.8 1274.6,1917.9 1285.1,1901.0 1295.2,1885.3 1304.8,1870.8 1313.9,1857.6 1322.4,1845.9 1330.3,1835.7 1337.6,1826.9 1344.2,1819.8 1350.2,1814.4 1355.4,1810.5 1359.9,1808.4 1363.7,1808.0 1366.7,1809.3 1368.9,1812.4 1370.4,1817.1 1371.2,1823.5 1371.2,1831.6 1370.5,1841.3 1369.0,1852.6 1366.9,1865.3 1364.1,1879.6 1360.6,1895.2 1356.5,1912.0 1351.8,1930.1 1346.6,1949.3 1340.8,1969.5 1334.6,1990.5 1328.0,2012.2 1321.0,2034.6 1313.7,2057.4 1306.2,2080.5 1298.5,2103.8  " style="stroke-opacity: 1.000000; stroke-width: 5.0; stroke: rgb(107,174,214); fill: none"  />
<path d="M 1194.0,2058.1 L 1205.7,2036.6 1217.2,2015.2 1228.4,1994.1 1239.3,1973.3 1249.7,1953.1 1259.6,1933.5 1268.8,1914.7 1277.4,1896.7 1285.2,1879.8 1292.3,1863.9 1298.5,1849.2 1303.8,1835.7 1308.2,1823.5 1311.6,1812.7 1314.1,1803.3 1315.5,1795.3 1315.9,1788.9 1315.3,1784.0 1313.6,1780.6 1310.8,1778.7 1307.1,1778.5 1302.3,1779.7 1296.4,1782.5 1289.6,1786.9 1281.8,1792.7 1273.1,1800.0 1263.5,1808.6 1253.0,1818.7 1241.7,1830.0 1229.7,1842.5 1217.0,1856.2 1203.6,1870.9 1189.7,1886.6 1175.3,1903.1 1160.5,1920.4 1145.4,1938.3 1130.1,1956.7 1114.7,1975.5 1099.2,1994.5  " style="stroke-opacity: 1.000000; stroke-width: 5.0; stroke: rgb(107,174,214); fill: none"  />
<path d="M 1194.0,2058.1 L 1205.7,2036.5 1217.1,2014.9 1228.2,1993.5 1238.7,1972.3 1248.7,1951.6 1258.0,1931.5 1266.6,1912.0 1274.4,1893.3 1281.4,1875.4 1287.4,1858.5 1292.4,1842.7 1296.4,1827.9 1299.4,1814.3 1301.2,1801.9 1301.9,1790.9 1301.5,1781.1 1300.0,1772.8 1297.2,1765.8 1293.3,1760.2 1288.2,1756.1 1282.0,1753.4 1274.6,1752.2 1266.1,1752.4 1256.4,1754.0 1245.8,1757.0 1234.1,1761.4 1221.4,1767.1 1207.8,1774.1 1193.3,1782.3 1178.0,1791.6 1161.9,1802.1 1145.2,1813.6 1128.0,1826.1 1110.2,1839.4 1092.0,1853.4 1073.5,1868.1 1054.8,1883.4 1036.1,1899.0 1017.4,1915.0  " style="stroke-opacity: 1.000000; stroke-width: 5.0; stroke: rgb(107,174,214); fill: none"  />
<path d="M 1745.5,2087.2 L 1736.1,2064.3 1727.1,2041.4 1718.5,2018.6 1710.5,1996.1 1703.2,1973.9 1696.5,1952.3 1690.6,1931.2 1685.5,1910.9 1681.3,1891.5 1678.1,1872.9 1675.8,1855.4 1674.6,1838.9 1674.4,1823.6 1675.3,1809.4 1677.3,1796.6 1680.5,1785.0 1684.7,1774.8 1690.1,1766.0 1696.7,1758.5 1704.3,1752.5 1713.1,1748.0 1722.9,1744.8 1733.9,1743.1 1745.8,1742.8 1758.8,1743.9 1772.8,1746.4 1787.6,1750.2 1803.3,1755.3 1819.8,1761.7 1837.1,1769.3 1855.0,1778.0 1873.5,1787.7 1892.5,1798.4 1912.0,1810.1 1931.7,1822.5 1951.7,1835.7 1971.8,1849.4 1991.9,1863.6 2012.0,1878.2  " style="stroke-opacity: 1.000000; stroke-width: 5.0; stroke: rgb(107,174,214); fill: none"  />
<path d="M 1745.5,2087.2 L 1736.1,2064.6 1726.9,2042.1 1718.0,2019.9 1709.4,1998.1 1701.1,1976.9 1693.4,1956.4 1686.2,1936.7 1679.5,1918.0 1673.5,1900.3 1668.2,1883.8 1663.6,1868.5 1659.7,1854.5 1656.6,1841.9 1654.4,1830.8 1652.9,1821.2 1652.3,1813.1 1652.6,1806.7 1653.8,1801.8 1655.8,1798.7 1658.7,1797.1 1662.5,1797.2 1667.2,1799.0 1672.6,1802.4 1679.0,1807.5 1686.1,1814.1 1694.0,1822.2 1702.6,1831.8 1712.0,1842.9 1722.0,1855.4 1732.7,1869.1 1743.9,1884.0 1755.6,1900.1 1767.8,1917.1 1780.4,1935.1 1793.2,1953.8 1806.4,1973.2 1819.7,1993.2 1833.1,2013.5 1846.4,2034.0  " style="stroke-opacity: 1.000000; stroke-width: 5.0; stroke: rgb(107,174,214); fill: none"  />
<path d="M 1745.5,2087.2 L 1736.0,2064.7 1726.5,2042.3 1717.0,2020.4 1707.5,1998.9 1698.2,1978.2 1689.0,1958.3 1680.1,1939.3 1671.4,1921.4 1663.0,1904.7 1655.0,1889.3 1647.4,1875.3 1640.1,1862.7 1633.3,1851.7 1627.0,1842.2 1621.2,1834.5 1615.9,1828.4 1611.1,1824.1 1606.8,1821.5 1603.1,1820.7 1600.0,1821.7 1597.4,1824.5 1595.4,1829.0 1594.0,1835.3 1593.1,1843.3 1592.8,1853.1 1593.1,1864.4 1593.9,1877.3 1595.2,1891.8 1597.0,1907.6 1599.3,1924.9 1602.0,1943.3 1605.2,1963.0 1608.8,1983.6 1612.8,2005.2 1617.0,2027.5 1621.6,2050.5 1626.5,2073.9 1631.5,2097.7 1636.7,2121.6  " style="stroke-opacity: 1.000000; stroke-width: 5.0; stroke: rgb(107,174,214); fill: none"  />
<path d="M 1943.5,1043.4 L 1926.3,1061.0 1909.0,1078.3 1891.8,1095.1 1874.7,1111.4 1857.8,1127.1 1841.3,1141.9 1825.2,1155.8 1809.6,1168.8 1794.6,1180.7 1780.2,1191.4 1766.5,1200.9 1753.6,1209.0 1741.4,1215.8 1730.2,1221.2 1719.8,1225.2 1710.4,1227.7 1701.9,1228.6 1694.4,1228.1 1688.0,1225.9 1682.5,1222.3 1678.1,1217.1 1674.8,1210.4 1672.5,1202.2 1671.2,1192.6 1670.9,1181.5 1671.7,1169.0 1673.4,1155.2 1676.1,1140.1 1679.6,1123.9 1684.1,1106.5 1689.4,1088.1 1695.5,1068.7 1702.3,1048.5 1709.8,1027.6 1717.9,1006.1 1726.5,984.2 1735.6,961.8 1745.0,939.3 1754.8,916.7  " style="stroke-opacity: 1.000000; stroke-width: 5.0; stroke: rgb(107,174,214); fill: none"  />
<path d="M 1099.2,1994.5 L 1114.8,1975.4 1130.5,1956.7 1146.1,1938.4 1161.7,1920.6 1177.0,1903.5 1192.2,1887.3 1206.9,1871.9 1221.3,1857.6 1235.2,1844.5 1248.6,1832.5 1261.4,1821.8 1273.5,1812.5 1285.0,1804.7 1295.7,1798.3 1305.7,1793.4 1314.9,1790.1 1323.2,1788.4 1330.7,1788.3 1337.3,1789.8 1343.1,1792.9 1347.9,1797.7 1351.9,1804.1 1354.9,1812.0 1357.1,1821.6 1358.3,1832.6 1358.7,1845.1 1358.2,1859.0 1356.9,1874.2 1354.8,1890.7 1351.9,1908.4 1348.3,1927.3 1343.9,1947.1 1339.0,1967.8 1333.4,1989.3 1327.3,2011.4 1320.6,2034.1 1313.6,2057.1 1306.2,2080.4 1298.5,2103.8  " style="stroke-opacity: 1.000000; stroke-width: 5.0; stroke: rgb(107,174,214); fill: none"  />
<path d="M 1099.2,1994.5 L 1114.7,1975.5 1130.1,1956.7 1145.4,1938.3 1160.5,1920.4 1175.3,1903.1 1189.7,1886.6 1203.6,1870.9 1217.0,1856.2 1229.7,1842.5 1241.7,1830.0 1253.0,1818.7 1263.5,1808.6 1273.1,1800.0 1281.8,1792.7 1289.6,1786.9 1296.4,1782.5 1302.3,1779.7 1307.1,1778.5 1310.8,1778.7 1313.6,1780.6 1315.3,1784.0 1315.9,1788.9 1315.5,1795.3 1314.1,1803.3 1311.6,1812.7 1308.2,1823.5 1303.8,1835.7 1298.5,1849.2 1292.3,1863.9 1285.2,1879.8 1277.4,1896.7 1268.8,1914.7 1259.6,1933.5 1249.7,1953.1 1239.3,1973.3 1228.4,1994.1 1217.2,2015.2 1205.7,2036.6 1194.0,2058.1  " style="stroke-opacity: 1.000000; stroke-width: 5.0; stroke: rgb(107,174,214); fill: none"  />
<path d="M 1099.2,1994.5 L 1114.6,1975.4 1129.8,1956.4 1144.6,1937.6 1159.0,1919.1 1172.8,1901.1 1186.0,1883.6 1198.5,1866.7 1210.1,1850.6 1220.9,1835.3 1230.6,1821.0 1239.4,1807.6 1247.0,1795.3 1253.5,1784.1 1258.8,1774.0 1262.9,1765.2 1265.7,1757.6 1267.3,1751.4 1267.5,1746.4 1266.5,1742.8 1264.1,1740.5 1260.4,1739.5 1255.5,1739.9 1249.3,1741.7 1241.8,1744.7 1233.1,1749.0 1223.2,1754.6 1212.2,1761.5 1200.1,1769.4 1187.0,1778.6 1172.9,1788.7 1157.9,1799.9 1142.2,1812.0 1125.7,1825.0 1108.6,1838.7 1090.9,1853.0 1072.9,1868.0 1054.5,1883.3 1036.0,1899.0 1017.4,1915.0  " style="stroke-opacity: 1.000000; stroke-width: 5.0; stroke: rgb(107,174,214); fill: none"  />
<path d="M 1017.4,1915.0 L 1036.3,1898.9 1055.3,1883.3 1074.3,1868.1 1093.3,1853.5 1112.1,1839.7 1130.6,1826.6 1148.8,1814.5 1166.5,1803.4 1183.7,1793.4 1200.4,1784.6 1216.4,1777.0 1231.7,1770.8 1246.2,1765.9 1259.9,1762.4 1272.8,1760.3 1284.7,1759.7 1295.7,1760.6 1305.8,1763.0 1314.9,1766.9 1323.0,1772.4 1330.0,1779.3 1336.1,1787.7 1341.1,1797.6 1345.0,1808.9 1348.0,1821.5 1349.9,1835.6 1350.9,1850.9 1350.9,1867.4 1349.9,1885.1 1348.1,1903.8 1345.3,1923.5 1341.8,1944.1 1337.5,1965.5 1332.4,1987.6 1326.7,2010.2 1320.4,2033.3 1313.5,2056.7 1306.2,2080.2 1298.5,2103.8  " style="stroke-opacity: 1.000000; stroke-width: 5.0; stroke: rgb(107,174,214); fill: none"  />
<path d="M 1017.4,1915.0 L 1036.1,1899.0 1054.8,1883.4 1073.5,1868.1 1092.0,1853.4 1110.2,1839.4 1128.0,1826.1 1145.2,1813.6 1161.9,1802.1 1178.0,1791.6 1193.3,1782.3 1207.8,1774.1 1221.4,1767.1 1234.1,1761.4 1245.8,1757.0 1256.4,1754.0 1266.1,1752.4 1274.6,1752.2 1282.0,1753.4 1288.2,1756.1 1293.3,1760.2 1297.2,1765.8 1300.0,1772.8 1301.5,1781.1 1301.9,1790.9 1301.2,1801.9 1299.4,1814.3 1296.4,1827.9 1292.4,1842.7 1287.4,1858.5 1281.4,1875.4 1274.4,1893.3 1266.6,1912.0 1258.0,1931.5 1248.7,1951.6 1238.7,1972.3 1228.2,1993.5 1217.1,2014.9 1205.7,2036.5 1194.0,2058.1  " style="stroke-opacity: 1.000000; stroke-width: 5.0; stroke: rgb(107,174,214); fill: none"  />
<path d="M 1017.4,1915.0 L 1036.0,1899.0 1054.5,1883.3 1072.9,1868.0 1090.9,1853.0 1108.6,1838.7 1125.7,1825.0 1142.2,1812.0 1157.9,1799.9 1172.9,1788.7 1187.0,1778.6 1200.1,1769.4 1212.2,1761.5 1223.2,1754.6 1233.1,1749.0 1241.8,1744.7 1249.3,1741.7 1255.5,1739.9 1260.4,1739.5 1264.1,1740.5 1266.5,1742.8 1267.5,1746.4 1267.3,1751.4 1265.7,1757.6 1262.9,1765.2 1258.8,1774.0 1253.5,1784.1 1247.0,1795.3 1239.4,1807.6 1230.6,1821.0 1220.9,1835.3 1210.1,1850.6 1198.5,1866.7 1186.0,1883.6 1172.8,1901.1 1159.0,1919.1 1144.6,1937.6 1129.8,1956.4 1114.6,1975.4 1099.2,1994.5  " style="stroke-opacity: 1.000000; stroke-width: 5.0; stroke: rgb(107,174,214); fill: none"  />
<path d="M 1202.8,937.1 L 1214.3,958.8 1225.8,980.2 1237.3,1001.2 1248.6,1021.7 1259.8,1041.5 1270.7,1060.5 1281.3,1078.6 1291.5,1095.7 1301.3,1111.5 1310.7,1126.2 1319.6,1139.5 1327.9,1151.3 1335.7,1161.7 1342.8,1170.5 1349.3,1177.7 1355.2,1183.3 1360.3,1187.2 1364.8,1189.4 1368.5,1189.8 1371.6,1188.6 1373.9,1185.6 1375.5,1180.9 1376.3,1174.5 1376.5,1166.4 1375.9,1156.7 1374.6,1145.4 1372.7,1132.6 1370.1,1118.3 1366.9,1102.7 1363.0,1085.7 1358.6,1067.6 1353.7,1048.3 1348.3,1028.1 1342.4,1007.0 1336.1,985.1 1329.5,962.6 1322.6,939.7 1315.4,916.5 1308.1,893.1  " style="stroke-opacity: 1.000000; stroke-width: 5.0; stroke: rgb(107,174,214); fill: none"  />
<path d="M 1308.1,893.1 L 1315.5,917.3 1322.4,941.7 1328.6,966.0 1334.2,990.2 1339.0,1014.2 1343.0,1037.8 1346.1,1061.0 1348.2,1083.6 1349.4,1105.6 1349.5,1126.9 1348.5,1147.4 1346.5,1167.0 1343.3,1185.7 1338.9,1203.4 1333.3,1220.0 1326.6,1235.5 1318.7,1249.9 1309.5,1263.1 1299.2,1275.2 1287.8,1286.0 1275.1,1295.5 1261.4,1303.8 1246.5,1310.9 1230.6,1316.6 1213.7,1321.2 1195.8,1324.5 1176.9,1326.5 1157.2,1327.4 1136.7,1327.2 1115.5,1325.7 1093.6,1323.3 1071.1,1319.7 1048.2,1315.2 1024.9,1309.8 1001.2,1303.6 977.4,1296.5 953.5,1288.8 929.6,1280.5 905.9,1271.6  " style="stroke-opacity: 1.000000; stroke-width: 5.0; stroke: rgb(107,174,214); fill: none"  />
<path d="M 1308.1,893.1 L 1315.4,916.5 1322.6,939.7 1329.5,962.6 1336.1,985.1 1342.4,1007.0 1348.3,1028.1 1353.7,1048.3 1358.6,1067.6 1363.0,1085.7 1366.9,1102.7 1370.1,1118.3 1372.7,1132.6 1374.6,1145.4 1375.9,1156.7 1376.5,1166.4 1376.3,1174.5 1375.5,1180.9 1373.9,1185.6 1371.6,1188.6 1368.5,1189.8 1364.8,1189.4 1360.3,1187.2 1355.2,1183.3 1349.3,1177.7 1342.8,1170.5 1335.7,1161.7 1327.9,1151.3 1319.6,1139.5 1310.7,1126.2 1301.3,1111.5 1291.5,1095.7 1281.3,1078.6 1270.7,1060.5 1259.8,1041.5 1248.6,1021.7 1237.3,1001.2 1225.8,980.2 1214.3,958.8 1202.8,937.1  " style="stroke-opacity: 1.000000; stroke-width: 5.0; stroke: rgb(107,174,214); fill: none"  />
<path d="M 1636.7,2121.6 L 1631.6,2097.2 1626.8,2072.7 1622.7,2048.3 1619.1,2024.3 1616.2,2000.6 1614.0,1977.5 1612.5,1955.0 1611.8,1933.2 1612.0,1912.3 1613.1,1892.4 1615.1,1873.5 1618.0,1855.7 1621.9,1839.1 1626.7,1823.7 1632.6,1809.6 1639.4,1796.9 1647.2,1785.6 1656.0,1775.7 1665.8,1767.3 1676.5,1760.3 1688.2,1754.8 1700.8,1750.8 1714.3,1748.3 1728.7,1747.2 1744.0,1747.6 1760.0,1749.5 1776.7,1752.7 1794.2,1757.3 1812.2,1763.2 1830.9,1770.4 1850.0,1778.7 1869.6,1788.2 1889.6,1798.7 1909.8,1810.1 1930.2,1822.4 1950.7,1835.5 1971.3,1849.2 1991.7,1863.5 2012.0,1878.2  " style="stroke-opacity: 1.000000; stroke-width: 5.0; stroke: rgb(107,174,214); fill: none"  />
<path d="M 1636.7,2121.6 L 1631.6,2097.4 1626.8,2073.2 1622.4,2049.3 1618.6,2025.7 1615.3,2002.6 1612.6,1980.1 1610.5,1958.3 1609.2,1937.5 1608.5,1917.6 1608.6,1898.7 1609.6,1881.0 1611.3,1864.6 1613.9,1849.5 1617.3,1835.8 1621.5,1823.5 1626.7,1812.7 1632.7,1803.4 1639.6,1795.6 1647.3,1789.5 1655.9,1785.0 1665.4,1782.0 1675.7,1780.7 1686.7,1781.0 1698.5,1782.8 1711.1,1786.2 1724.4,1791.2 1738.3,1797.6 1752.9,1805.4 1768.0,1814.6 1783.6,1825.1 1799.7,1836.9 1816.1,1849.8 1832.9,1863.7 1850.0,1878.7 1867.2,1894.4 1884.5,1910.9 1901.8,1928.0 1919.1,1945.6 1936.2,1963.5  " style="stroke-opacity: 1.000000; stroke-width: 5.0; stroke: rgb(107,174,214); fill: none"  />
<path d="M 1636.7,2121.6 L 1631.5,2097.6 1626.6,2073.7 1622.1,2050.0 1617.9,2026.8 1614.1,2004.1 1610.8,1982.1 1608.1,1961.0 1605.8,1940.9 1604.2,1921.8 1603.2,1903.9 1602.8,1887.2 1603.1,1871.9 1604.1,1858.0 1605.8,1845.7 1608.3,1834.8 1611.4,1825.6 1615.3,1818.0 1619.8,1812.1 1625.2,1807.9 1631.2,1805.3 1637.9,1804.5 1645.4,1805.4 1653.5,1808.0 1662.3,1812.2 1671.7,1818.1 1681.7,1825.6 1692.3,1834.7 1703.4,1845.2 1715.0,1857.1 1727.0,1870.4 1739.4,1885.0 1752.2,1900.7 1765.3,1917.6 1778.6,1935.3 1792.1,1953.9 1805.7,1973.2 1819.4,1993.1 1832.9,2013.4 1846.4,2034.0  " style="stroke-opacity: 1.000000; stroke-width: 5.0; stroke: rgb(107,174,214); fill: none"  />
<path d="M 1636.7,2121.6 L 1631.5,2097.7 1626.5,2073.9 1621.6,2050.5 1617.0,2027.5 1612.8,2005.2 1608.8,1983.6 1605.2,1963.0 1602.0,1943.3 1599.3,1924.9 1597.0,1907.6 1595.2,1891.8 1593.9,1877.3 1593.1,1864.4 1592.8,1853.1 1593.1,1843.3 1594.0,1835.3 1595.4,1829.0 1597.4,1824.5 1600.0,1821.7 1603.1,1820.7 1606.8,1821.5 1611.1,1824.1 1615.9,1828.4 1621.2,1834.5 1627.0,1842.2 1633.3,1851.7 1640.1,1862.7 1647.4,1875.3 1655.0,1889.3 1663.0,1904.7 1671.4,1921.4 1680.1,1939.3 1689.0,1958.3 1698.2,1978.2 1707.5,1998.9 1717.0,2020.4 1726.5,2042.3 1736.0,2064.7 1745.5,2087.2  " style="stroke-opacity: 1.000000; stroke-width: 5.0; stroke: rgb(107,174,214); fill: none"  />
<path d="M 2075.6,1228.4 L 2052.9,1238.9 2030.1,1248.9 2007.3,1258.4 1984.6,1267.2 1962.2,1275.3 1940.1,1282.7 1918.5,1289.1 1897.5,1294.6 1877.1,1299.0 1857.4,1302.4 1838.5,1304.7 1820.5,1305.8 1803.5,1305.7 1787.4,1304.4 1772.4,1301.9 1758.5,1298.1 1745.7,1293.0 1734.1,1286.6 1723.7,1278.9 1714.5,1270.0 1706.5,1259.8 1699.8,1248.4 1694.4,1235.8 1690.1,1222.0 1687.1,1207.0 1685.4,1191.0 1684.8,1174.0 1685.4,1156.0 1687.1,1137.0 1690.0,1117.3 1693.8,1096.7 1698.7,1075.5 1704.5,1053.7 1711.1,1031.5 1718.6,1008.8 1726.8,985.9 1735.6,962.8 1745.0,939.7 1754.8,916.7  " style="stroke-opacity: 1.000000; stroke-width: 5.0; stroke: rgb(107,174,214); fill: none"  />
</g>
<defs>
<pattern id="hline" width="10" height="10" patternTransform="rotate(0 0 0)" patternUnits="userSpaceOnUse"><line x1="0" y1="0" x2="10" y2="0" style="stroke:black;stroke-width:5" /></pattern>
<pattern id="vline" width="10" height="10" patternTransform="rotate(0 0 0)" patternUnits="userSpaceOnUse"><line x1="0" y1="0" x2="0" y2="10" style="stroke:black;stroke-width:5" /></pattern>
<pattern id="checker" width="10" height="10" patternTransform="rotate(45 0 0)" patternUnits="userSpaceOnUse"><line x1="0" y1="0" x2="10" y2="0" style="stroke:black;stroke-width:2" /><line x1="0" y1="0" x2="0" y2="10" style="stroke:black;stroke-width:2" /></pattern>
<pattern id="hline-sparse" width="10" height="10" patternTransform="rotate(0 0 0)" patternUnits="userSpaceOnUse"><line x1="0" y1="0" x2="10" y2="0" style="stroke:black;stroke-width:2" /></pattern>
<pattern id="checker" width="10" height="10" patternTransform="rotate(45 0 0)" patternUnits="userSpaceOnUse"><line x1="0" y1="0" x2="10" y2="0" style="stroke:black;stroke-width:5" /><line x1="0" y1="0" x2="0" y2="10" style="stroke:black;stroke-width:4" /></pattern>
<pattern id="vline-sparse" width="10" height="10" patternTransform="rotate(0 0 0)" patternUnits="userSpaceOnUse"><line x1="0" y1="0" x2="0" y2="10" style="stroke:black;stroke-width:2" /></pattern>
</defs>
</svg>
