<?xml version="1.0" encoding="utf-8" standalone="no"?>
<!DOCTYPE svg PUBLIC "-//W3C//DTD SVG 1.1//EN" "http://www.w3.org/Graphics/SVG/1.1/DTD/svg11.dtd">
<svg width="3000px" height="3000px" version="1.1" xmlns="http://www.w3.org/2000/svg" xmlns:xlink="http://www.w3.org/1999/xlink">
<g id="bg">
<rect x="0" y="0" width="3000px" height="3000px" style="fill:rgb(255,255,255);"/>
</g>
<g id="ideograms">
<path d="M1500.000,535.000 A965.000,965.000 40.000 0,1 1601.714,540.376 L1618.579,381.267 A1125.000,1125.000 0.000 0,0 1500.000,375.000 Z" style="stroke-width:2.0;stroke:rgb(115,115,115);stroke-linecap:round;fill:rgb(153,204,255);" />
<text x="1635.1" y="307.6" font-size="195.0px" font-family="CMUBright-Bold" style="text-anchor:start;fill:rgb(0,0,0);" transform="rotate(273.0,1635.1,307.6)" >5</text>
<path d="M1500.000,535.000 A965.000,965.000 40.000 0,1 1601.714,540.376 L1618.579,381.267 A1125.000,1125.000 0.000 0,0 1500.000,375.000 Z" style="stroke-width:2.0;stroke:rgb(115,115,115);stroke-linecap:round;fill:none;" />
<path d="M1672.307,550.508 A965.000,965.000 40.000 0,1 1771.427,573.959 L1816.431,420.418 A1125.000,1125.000 0.000 0,0 1700.877,393.079 Z" style="stroke-width:2.0;stroke:rgb(115,115,115);stroke-linecap:round;fill:rgb(153,204,255);" />
<text x="1847.7" y="351.5" font-size="195.0px" font-family="CMUBright-Bold" style="text-anchor:start;fill:rgb(0,0,0);" transform="rotate(283.3,1847.7,351.5)" >10</text>
<path d="M1672.307,550.508 A965.000,965.000 40.000 0,1 1771.427,573.959 L1816.431,420.418 A1125.000,1125.000 0.000 0,0 1700.877,393.079 Z" style="stroke-width:2.0;stroke:rgb(115,115,115);stroke-linecap:round;fill:none;" />
<path d="M1839.077,596.533 A965.000,965.000 40.000 0,1 1932.417,637.306 L2004.113,494.269 A1125.000,1125.000 0.000 0,0 1895.297,446.736 Z" style="stroke-width:2.0;stroke:rgb(115,115,115);stroke-linecap:round;fill:rgb(153,204,255);" />
<text x="2047.2" y="432.0" font-size="195.0px" font-family="CMUBright-Bold" style="text-anchor:start;fill:rgb(0,0,0);" transform="rotate(293.6,2047.2,432.0)" >13</text>
<path d="M1839.077,596.533 A965.000,965.000 40.000 0,1 1932.417,637.306 L2004.113,494.269 A1125.000,1125.000 0.000 0,0 1895.297,446.736 Z" style="stroke-width:2.0;stroke:rgb(115,115,115);stroke-linecap:round;fill:none;" />
<path d="M1994.948,671.597 A965.000,965.000 40.000 0,1 2079.507,728.381 L2175.592,600.444 A1125.000,1125.000 0.000 0,0 2077.012,534.245 Z" style="stroke-width:2.0;stroke:rgb(115,115,115);stroke-linecap:round;fill:rgb(153,204,255);" />
<text x="2227.5" y="545.7" font-size="195.0px" font-family="CMUBright-Bold" style="text-anchor:start;fill:rgb(0,0,0);" transform="rotate(303.9,2227.5,545.7)" >21</text>
<path d="M1994.948,671.597 A965.000,965.000 40.000 0,1 2079.507,728.381 L2175.592,600.444 A1125.000,1125.000 0.000 0,0 2077.012,534.245 Z" style="stroke-width:2.0;stroke:rgb(115,115,115);stroke-linecap:round;fill:none;" />
<path d="M2134.911,773.286 A965.000,965.000 40.000 0,1 2207.972,844.256 L2325.356,735.532 A1125.000,1125.000 0.000 0,0 2240.181,652.795 Z" style="stroke-width:2.0;stroke:rgb(115,115,115);stroke-linecap:round;fill:rgb(153,204,255);" />
<text x="2387.6" y="692.4" font-size="195.0px" font-family="CMUBright-Bold" style="text-anchor:start;fill:rgb(0,0,0);" transform="rotate(314.2,2387.6,692.4)" >26</text>
<path d="M2134.911,773.286 A965.000,965.000 40.000 0,1 2207.972,844.256 L2325.356,735.532 A1125.000,1125.000 0.000 0,0 2240.181,652.795 Z" style="stroke-width:2.0;stroke:rgb(115,115,115);stroke-linecap:round;fill:none;" />
<path d="M2254.467,898.332 A965.000,965.000 40.000 0,1 2313.683,981.207 L2448.594,895.190 A1125.000,1125.000 0.000 0,0 2379.560,798.574 Z" style="stroke-width:2.0;stroke:rgb(115,115,115);stroke-linecap:round;fill:rgb(153,204,255);" />
<text x="2517.5" y="863.9" font-size="195.0px" font-family="CMUBright-Bold" style="text-anchor:start;fill:rgb(0,0,0);" transform="rotate(324.5,2517.5,863.9)" >35</text>
<path d="M2254.467,898.332 A965.000,965.000 40.000 0,1 2313.683,981.207 L2448.594,895.190 A1125.000,1125.000 0.000 0,0 2379.560,798.574 Z" style="stroke-width:2.0;stroke:rgb(115,115,115);stroke-linecap:round;fill:none;" />
<path d="M2349.775,1042.717 A965.000,965.000 40.000 0,1 2393.240,1134.833 L2541.342,1074.288 A1125.000,1125.000 0.000 0,0 2490.670,966.898 Z" style="stroke-width:2.0;stroke:rgb(115,115,115);stroke-linecap:round;fill:rgb(116,196,118);" />
<text x="2614.7" y="1055.8" font-size="195.0px" font-family="CMUBright-Bold" style="text-anchor:start;fill:rgb(0,0,0);" transform="rotate(334.7,2614.7,1055.8)" >3</text>
<path d="M2349.775,1042.717 A965.000,965.000 40.000 0,1 2393.240,1134.833 L2541.342,1074.288 A1125.000,1125.000 0.000 0,0 2490.670,966.898 Z" style="stroke-width:2.0;stroke:rgb(115,115,115);stroke-linecap:round;fill:none;" />
<path d="M2417.770,1201.799 A965.000,965.000 40.000 0,1 2444.089,1300.196 L2600.621,1267.068 A1125.000,1125.000 0.000 0,0 2569.939,1152.356 Z" style="stroke-width:2.0;stroke:rgb(115,115,115);stroke-linecap:round;fill:rgb(116,196,118);" />
<text x="2676.2" y="1262.0" font-size="195.0px" font-family="CMUBright-Bold" style="text-anchor:start;fill:rgb(0,0,0);" transform="rotate(345.0,2676.2,1262.0)" >15</text>
<path d="M2417.770,1201.799 A965.000,965.000 40.000 0,1 2444.089,1300.196 L2600.621,1267.068 A1125.000,1125.000 0.000 0,0 2569.939,1152.356 Z" style="stroke-width:2.0;stroke:rgb(115,115,115);stroke-linecap:round;fill:none;" />
<path d="M2456.267,1370.465 A965.000,965.000 40.000 0,1 2464.593,1471.980 L2624.526,1467.335 A1125.000,1125.000 0.000 0,0 2614.818,1348.988 Z" style="stroke-width:2.0;stroke:rgb(115,115,115);stroke-linecap:round;fill:rgb(116,196,118);" />
<text x="2699.8" y="1475.8" font-size="195.0px" font-family="CMUBright-Bold" style="text-anchor:start;fill:rgb(0,0,0);" transform="rotate(355.3,2699.8,1475.8)" >23</text>
<path d="M2456.267,1370.465 A965.000,965.000 40.000 0,1 2464.593,1471.980 L2624.526,1467.335 A1125.000,1125.000 0.000 0,0 2614.818,1348.988 Z" style="stroke-width:2.0;stroke:rgb(115,115,115);stroke-linecap:round;fill:none;" />
<path d="M2464.028,1543.295 A965.000,965.000 40.000 0,1 2454.095,1644.665 L2612.287,1668.651 A1125.000,1125.000 0.000 0,0 2623.867,1550.473 Z" style="stroke-width:2.0;stroke:rgb(115,115,115);stroke-linecap:round;fill:rgb(116,196,118);" />
<text x="2685.1" y="1688.4" font-size="195.0px" font-family="CMUBright-Bold" style="text-anchor:start;fill:rgb(0,0,0);" transform="rotate(5.6,2685.1,1688.4)" >24</text>
<path d="M2464.028,1543.295 A965.000,965.000 40.000 0,1 2454.095,1644.665 L2612.287,1668.651 A1125.000,1125.000 0.000 0,0 2623.867,1550.473 Z" style="stroke-width:2.0;stroke:rgb(115,115,115);stroke-linecap:round;fill:none;" />
<path d="M2440.805,1714.733 A965.000,965.000 40.000 0,1 2412.931,1812.701 L2564.298,1864.548 A1125.000,1125.000 0.000 0,0 2596.794,1750.336 Z" style="stroke-width:2.0;stroke:rgb(115,115,115);stroke-linecap:round;fill:rgb(116,196,118);" />
<text x="2631.8" y="1898.9" font-size="195.0px" font-family="CMUBright-Bold" style="text-anchor:start;fill:rgb(0,0,0);" transform="rotate(15.9,2631.8,1898.9)" >30</text>
<path d="M2440.805,1714.733 A965.000,965.000 40.000 0,1 2412.931,1812.701 L2564.298,1864.548 A1125.000,1125.000 0.000 0,0 2596.794,1750.336 Z" style="stroke-width:2.0;stroke:rgb(115,115,115);stroke-linecap:round;fill:none;" />
<path d="M2387.344,1879.269 A965.000,965.000 40.000 0,1 2342.425,1970.686 L2482.102,2048.727 A1125.000,1125.000 0.000 0,0 2534.469,1942.153 Z" style="stroke-width:2.0;stroke:rgb(115,115,115);stroke-linecap:round;fill:rgb(153,0,204);" />
<text x="2543.3" y="2092.8" font-size="195.0px" font-family="CMUBright-Bold" style="text-anchor:start;fill:rgb(0,0,0);" transform="rotate(26.2,2543.3,2092.8)" >1</text>
<path d="M2387.344,1879.269 A965.000,965.000 40.000 0,1 2342.425,1970.686 L2482.102,2048.727 A1125.000,1125.000 0.000 0,0 2534.469,1942.153 Z" style="stroke-width:2.0;stroke:rgb(115,115,115);stroke-linecap:round;fill:none;" />
<path d="M2305.363,2031.616 A965.000,965.000 40.000 0,1 2244.843,2113.542 L2368.340,2215.270 A1125.000,1125.000 0.000 0,0 2438.895,2119.759 Z" style="stroke-width:2.0;stroke:rgb(115,115,115);stroke-linecap:round;fill:rgb(153,0,204);" />
<text x="2419.4" y="2271.1" font-size="195.0px" font-family="CMUBright-Bold" style="text-anchor:start;fill:rgb(0,0,0);" transform="rotate(36.5,2419.4,2271.1)" >9</text>
<path d="M2305.363,2031.616 A965.000,965.000 40.000 0,1 2244.843,2113.542 L2368.340,2215.270 A1125.000,1125.000 0.000 0,0 2438.895,2119.759 Z" style="stroke-width:2.0;stroke:rgb(115,115,115);stroke-linecap:round;fill:none;" />
<path d="M2197.497,2166.875 A965.000,965.000 40.000 0,1 2123.321,2236.679 L2226.669,2358.823 A1125.000,1125.000 0.000 0,0 2313.144,2277.445 Z" style="stroke-width:2.0;stroke:rgb(115,115,115);stroke-linecap:round;fill:rgb(153,0,204);" />
<text x="2268.5" y="2421.6" font-size="195.0px" font-family="CMUBright-Bold" style="text-anchor:start;fill:rgb(0,0,0);" transform="rotate(46.7,2268.5,2421.6)" >12</text>
<path d="M2197.497,2166.875 A965.000,965.000 40.000 0,1 2123.321,2236.679 L2226.669,2358.823 A1125.000,1125.000 0.000 0,0 2313.144,2277.445 Z" style="stroke-width:2.0;stroke:rgb(115,115,115);stroke-linecap:round;fill:none;" />
<path d="M2067.213,2280.701 A965.000,965.000 40.000 0,1 1981.764,2336.139 L2061.642,2474.773 A1125.000,1125.000 0.000 0,0 2161.258,2410.144 Z" style="stroke-width:2.0;stroke:rgb(115,115,115);stroke-linecap:round;fill:rgb(153,0,204);" />
<text x="2090.7" y="2544.5" font-size="195.0px" font-family="CMUBright-Bold" style="text-anchor:start;fill:rgb(0,0,0);" transform="rotate(57.0,2090.7,2544.5)" >17</text>
<path d="M2067.213,2280.701 A965.000,965.000 40.000 0,1 1981.764,2336.139 L2061.642,2474.773 A1125.000,1125.000 0.000 0,0 2161.258,2410.144 Z" style="stroke-width:2.0;stroke:rgb(115,115,115);stroke-linecap:round;fill:none;" />
<path d="M1918.698,2369.435 A965.000,965.000 40.000 0,1 1824.724,2408.724 L1878.564,2559.393 A1125.000,1125.000 0.000 0,0 1988.119,2513.590 Z" style="stroke-width:2.0;stroke:rgb(115,115,115);stroke-linecap:round;fill:rgb(153,0,204);" />
<text x="1893.8" y="2633.6" font-size="195.0px" font-family="CMUBright-Bold" style="text-anchor:start;fill:rgb(0,0,0);" transform="rotate(67.3,1893.8,2633.6)" >28</text>
<path d="M1918.698,2369.435 A965.000,965.000 40.000 0,1 1824.724,2408.724 L1878.564,2559.393 A1125.000,1125.000 0.000 0,0 1988.119,2513.590 Z" style="stroke-width:2.0;stroke:rgb(115,115,115);stroke-linecap:round;fill:none;" />
<path d="M1756.726,2430.224 A965.000,965.000 40.000 0,1 1657.246,2452.102 L1683.318,2609.964 A1125.000,1125.000 0.000 0,0 1799.291,2584.458 Z" style="stroke-width:2.0;stroke:rgb(115,115,115);stroke-linecap:round;fill:rgb(153,0,204);" />
<text x="1685.0" y="2685.6" font-size="195.0px" font-family="CMUBright-Bold" style="text-anchor:start;fill:rgb(0,0,0);" transform="rotate(77.6,1685.0,2685.6)" >34</text>
<path d="M1756.726,2430.224 A965.000,965.000 40.000 0,1 1657.246,2452.102 L1683.318,2609.964 A1125.000,1125.000 0.000 0,0 1799.291,2584.458 Z" style="stroke-width:2.0;stroke:rgb(115,115,115);stroke-linecap:round;fill:none;" />
<path d="M1586.502,2461.115 A965.000,965.000 40.000 0,1 1484.715,2464.879 L1482.181,2624.859 A1125.000,1125.000 0.000 0,0 1600.844,2620.471 Z" style="stroke-width:2.0;stroke:rgb(115,115,115);stroke-linecap:round;fill:rgb(253,208,162);" />
<text x="1473.4" y="2699.7" font-size="195.0px" font-family="CMUBright-Bold" style="text-anchor:start;fill:rgb(0,0,0);" transform="rotate(87.9,1473.4,2699.7)" >7</text>
<path d="M1586.502,2461.115 A965.000,965.000 40.000 0,1 1484.715,2464.879 L1482.181,2624.859 A1125.000,1125.000 0.000 0,0 1600.844,2620.471 Z" style="stroke-width:2.0;stroke:rgb(115,115,115);stroke-linecap:round;fill:none;" />
<path d="M1413.498,2461.115 A965.000,965.000 40.000 0,1 1312.675,2446.644 L1281.616,2603.600 A1125.000,1125.000 0.000 0,0 1399.156,2620.471 Z" style="stroke-width:2.0;stroke:rgb(115,115,115);stroke-linecap:round;fill:rgb(253,208,162);" />
<text x="1403.0" y="2696.1" font-size="195.0px" font-family="CMUBright-Bold" style="text-anchor:end;fill:rgb(0,0,0);" transform="rotate(-81.8,1403.0,2696.1)" >16</text>
<path d="M1413.498,2461.115 A965.000,965.000 40.000 0,1 1312.675,2446.644 L1281.616,2603.600 A1125.000,1125.000 0.000 0,0 1399.156,2620.471 Z" style="stroke-width:2.0;stroke:rgb(115,115,115);stroke-linecap:round;fill:none;" />
<path d="M1243.274,2430.224 A965.000,965.000 40.000 0,1 1146.656,2397.983 L1088.070,2546.871 A1125.000,1125.000 0.000 0,0 1200.709,2584.458 Z" style="stroke-width:2.0;stroke:rgb(115,115,115);stroke-linecap:round;fill:rgb(253,208,162);" />
<text x="1191.0" y="2659.5" font-size="195.0px" font-family="CMUBright-Bold" style="text-anchor:end;fill:rgb(0,0,0);" transform="rotate(-71.5,1191.0,2659.5)" >20</text>
<path d="M1243.274,2430.224 A965.000,965.000 40.000 0,1 1146.656,2397.983 L1088.070,2546.871 A1125.000,1125.000 0.000 0,0 1200.709,2584.458 Z" style="stroke-width:2.0;stroke:rgb(115,115,115);stroke-linecap:round;fill:none;" />
<path d="M1081.302,2369.435 A965.000,965.000 40.000 0,1 991.993,2320.460 L907.764,2456.494 A1125.000,1125.000 0.000 0,0 1011.881,2513.590 Z" style="stroke-width:2.0;stroke:rgb(115,115,115);stroke-linecap:round;fill:rgb(253,208,162);" />
<text x="988.9" y="2585.7" font-size="195.0px" font-family="CMUBright-Bold" style="text-anchor:end;fill:rgb(0,0,0);" transform="rotate(-61.3,988.9,2585.7)" >25</text>
<path d="M1081.302,2369.435 A965.000,965.000 40.000 0,1 991.993,2320.460 L907.764,2456.494 A1125.000,1125.000 0.000 0,0 1011.881,2513.590 Z" style="stroke-width:2.0;stroke:rgb(115,115,115);stroke-linecap:round;fill:none;" />
<path d="M932.787,2280.701 A965.000,965.000 40.000 0,1 853.658,2216.566 L746.493,2335.375 A1125.000,1125.000 0.000 0,0 838.742,2410.144 Z" style="stroke-width:2.0;stroke:rgb(115,115,115);stroke-linecap:round;fill:rgb(253,208,162);" />
<text x="802.5" y="2476.5" font-size="195.0px" font-family="CMUBright-Bold" style="text-anchor:end;fill:rgb(0,0,0);" transform="rotate(-51.0,802.5,2476.5)" >27</text>
<path d="M932.787,2280.701 A965.000,965.000 40.000 0,1 853.658,2216.566 L746.493,2335.375 A1125.000,1125.000 0.000 0,0 838.742,2410.144 Z" style="stroke-width:2.0;stroke:rgb(115,115,115);stroke-linecap:round;fill:none;" />
<path d="M802.503,2166.875 A965.000,965.000 40.000 0,1 736.097,2089.642 L609.440,2187.406 A1125.000,1125.000 0.000 0,0 686.856,2277.445 Z" style="stroke-width:2.0;stroke:rgb(115,115,115);stroke-linecap:round;fill:rgb(253,208,162);" />
<text x="640.0" y="2336.9" font-size="195.0px" font-family="CMUBright-Bold" style="text-anchor:end;fill:rgb(0,0,0);" transform="rotate(-40.7,640.0,2336.9)" >29</text>
<path d="M802.503,2166.875 A965.000,965.000 40.000 0,1 736.097,2089.642 L609.440,2187.406 A1125.000,1125.000 0.000 0,0 686.856,2277.445 Z" style="stroke-width:2.0;stroke:rgb(115,115,115);stroke-linecap:round;fill:none;" />
<path d="M694.637,2031.616 A965.000,965.000 40.000 0,1 643.089,1943.766 L501.010,2017.344 A1125.000,1125.000 0.000 0,0 561.105,2119.759 Z" style="stroke-width:2.0;stroke:rgb(115,115,115);stroke-linecap:round;fill:rgb(253,141,60);" />
<text x="503.3" y="2168.3" font-size="195.0px" font-family="CMUBright-Bold" style="text-anchor:end;fill:rgb(0,0,0);" transform="rotate(-30.4,503.3,2168.3)" >2</text>
<path d="M694.637,2031.616 A965.000,965.000 40.000 0,1 643.089,1943.766 L501.010,2017.344 A1125.000,1125.000 0.000 0,0 561.105,2119.759 Z" style="stroke-width:2.0;stroke:rgb(115,115,115);stroke-linecap:round;fill:none;" />
<path d="M612.656,1879.269 A965.000,965.000 40.000 0,1 577.622,1783.627 L424.689,1830.653 A1125.000,1125.000 0.000 0,0 465.531,1942.153 Z" style="stroke-width:2.0;stroke:rgb(115,115,115);stroke-linecap:round;fill:rgb(253,141,60);" />
<text x="400.0" y="1979.6" font-size="195.0px" font-family="CMUBright-Bold" style="text-anchor:end;fill:rgb(0,0,0);" transform="rotate(-20.1,400.0,1979.6)" >11</text>
<path d="M612.656,1879.269 A965.000,965.000 40.000 0,1 577.622,1783.627 L424.689,1830.653 A1125.000,1125.000 0.000 0,0 465.531,1942.153 Z" style="stroke-width:2.0;stroke:rgb(115,115,115);stroke-linecap:round;fill:none;" />
<path d="M559.195,1714.733 A965.000,965.000 40.000 0,1 541.802,1614.372 L382.929,1633.336 A1125.000,1125.000 0.000 0,0 403.206,1750.336 Z" style="stroke-width:2.0;stroke:rgb(115,115,115);stroke-linecap:round;fill:rgb(253,141,60);" />
<text x="332.0" y="1775.4" font-size="195.0px" font-family="CMUBright-Bold" style="text-anchor:end;fill:rgb(0,0,0);" transform="rotate(-9.8,332.0,1775.4)" >22</text>
<path d="M559.195,1714.733 A965.000,965.000 40.000 0,1 541.802,1614.372 L382.929,1633.336 A1125.000,1125.000 0.000 0,0 403.206,1750.336 Z" style="stroke-width:2.0;stroke:rgb(115,115,115);stroke-linecap:round;fill:none;" />
<path d="M535.972,1543.295 A965.000,965.000 40.000 0,1 536.778,1441.441 L377.073,1431.732 A1125.000,1125.000 0.000 0,0 376.133,1550.473 Z" style="stroke-width:2.0;stroke:rgb(115,115,115);stroke-linecap:round;fill:rgb(253,141,60);" />
<text x="301.7" y="1564.5" font-size="195.0px" font-family="CMUBright-Bold" style="text-anchor:end;fill:rgb(0,0,0);" transform="rotate(0.5,301.7,1564.5)" >31</text>
<path d="M535.972,1543.295 A965.000,965.000 40.000 0,1 536.778,1441.441 L377.073,1431.732 A1125.000,1125.000 0.000 0,0 376.133,1550.473 Z" style="stroke-width:2.0;stroke:rgb(115,115,115);stroke-linecap:round;fill:none;" />
<path d="M543.733,1370.465 A965.000,965.000 40.000 0,1 562.714,1270.393 L407.309,1232.323 A1125.000,1125.000 0.000 0,0 385.182,1348.988 Z" style="stroke-width:2.0;stroke:rgb(115,115,115);stroke-linecap:round;fill:rgb(253,141,60);" />
<text x="309.5" y="1349.5" font-size="195.0px" font-family="CMUBright-Bold" style="text-anchor:end;fill:rgb(0,0,0);" transform="rotate(10.7,309.5,1349.5)" >32</text>
<path d="M543.733,1370.465 A965.000,965.000 40.000 0,1 562.714,1270.393 L407.309,1232.323 A1125.000,1125.000 0.000 0,0 385.182,1348.988 Z" style="stroke-width:2.0;stroke:rgb(115,115,115);stroke-linecap:round;fill:none;" />
<path d="M582.230,1201.799 A965.000,965.000 40.000 0,1 618.774,1106.724 L472.664,1041.517 A1125.000,1125.000 0.000 0,0 430.061,1152.356 Z" style="stroke-width:2.0;stroke:rgb(115,115,115);stroke-linecap:round;fill:rgb(253,141,60);" />
<text x="355.5" y="1139.3" font-size="195.0px" font-family="CMUBright-Bold" style="text-anchor:end;fill:rgb(0,0,0);" transform="rotate(21.0,355.5,1139.3)" >33</text>
<path d="M582.230,1201.799 A965.000,965.000 40.000 0,1 618.774,1106.724 L472.664,1041.517 A1125.000,1125.000 0.000 0,0 430.061,1152.356 Z" style="stroke-width:2.0;stroke:rgb(115,115,115);stroke-linecap:round;fill:none;" />
<path d="M650.225,1042.717 A965.000,965.000 40.000 0,1 703.158,955.695 L571.039,865.447 A1125.000,1125.000 0.000 0,0 509.330,966.898 Z" style="stroke-width:2.0;stroke:rgb(115,115,115);stroke-linecap:round;fill:rgb(66,146,198);" />
<text x="440.2" y="937.2" font-size="195.0px" font-family="CMUBright-Bold" style="text-anchor:end;fill:rgb(0,0,0);" transform="rotate(31.3,440.2,937.2)" >4</text>
<path d="M650.225,1042.717 A965.000,965.000 40.000 0,1 703.158,955.695 L571.039,865.447 A1125.000,1125.000 0.000 0,0 509.330,966.898 Z" style="stroke-width:2.0;stroke:rgb(115,115,115);stroke-linecap:round;fill:none;" />
<path d="M745.533,898.332 A965.000,965.000 40.000 0,1 813.153,822.160 L699.272,709.772 A1125.000,1125.000 0.000 0,0 620.440,798.574 Z" style="stroke-width:2.0;stroke:rgb(115,115,115);stroke-linecap:round;fill:rgb(66,146,198);" />
<text x="555.2" y="760.2" font-size="195.0px" font-family="CMUBright-Bold" style="text-anchor:end;fill:rgb(0,0,0);" transform="rotate(41.6,555.2,760.2)" >6</text>
<path d="M745.533,898.332 A965.000,965.000 40.000 0,1 813.153,822.160 L699.272,709.772 A1125.000,1125.000 0.000 0,0 620.440,798.574 Z" style="stroke-width:2.0;stroke:rgb(115,115,115);stroke-linecap:round;fill:none;" />
<path d="M865.089,773.286 A965.000,965.000 40.000 0,1 945.224,710.412 L853.241,579.496 A1125.000,1125.000 0.000 0,0 759.819,652.795 Z" style="stroke-width:2.0;stroke:rgb(115,115,115);stroke-linecap:round;fill:rgb(66,146,198);" />
<text x="702.5" y="603.4" font-size="195.0px" font-family="CMUBright-Bold" style="text-anchor:end;fill:rgb(0,0,0);" transform="rotate(51.9,702.5,603.4)" >8</text>
<path d="M865.089,773.286 A965.000,965.000 40.000 0,1 945.224,710.412 L853.241,579.496 A1125.000,1125.000 0.000 0,0 759.819,652.795 Z" style="stroke-width:2.0;stroke:rgb(115,115,115);stroke-linecap:round;fill:none;" />
<path d="M1005.052,671.597 A965.000,965.000 40.000 0,1 1095.126,624.042 L1027.997,478.806 A1125.000,1125.000 0.000 0,0 922.988,534.245 Z" style="stroke-width:2.0;stroke:rgb(115,115,115);stroke-linecap:round;fill:rgb(66,146,198);" />
<text x="877.1" y="474.3" font-size="195.0px" font-family="CMUBright-Bold" style="text-anchor:end;fill:rgb(0,0,0);" transform="rotate(62.2,877.1,474.3)" >14</text>
<path d="M1005.052,671.597 A965.000,965.000 40.000 0,1 1095.126,624.042 L1027.997,478.806 A1125.000,1125.000 0.000 0,0 922.988,534.245 Z" style="stroke-width:2.0;stroke:rgb(115,115,115);stroke-linecap:round;fill:none;" />
<path d="M1160.923,596.533 A965.000,965.000 40.000 0,1 1258.041,565.826 L1217.923,410.937 A1125.000,1125.000 0.000 0,0 1104.703,446.736 Z" style="stroke-width:2.0;stroke:rgb(115,115,115);stroke-linecap:round;fill:rgb(66,146,198);" />
<text x="1068.4" y="380.3" font-size="195.0px" font-family="CMUBright-Bold" style="text-anchor:end;fill:rgb(0,0,0);" transform="rotate(72.5,1068.4,380.3)" >18</text>
<path d="M1160.923,596.533 A965.000,965.000 40.000 0,1 1258.041,565.826 L1217.923,410.937 A1125.000,1125.000 0.000 0,0 1104.703,446.736 Z" style="stroke-width:2.0;stroke:rgb(115,115,115);stroke-linecap:round;fill:none;" />
<path d="M1327.693,550.508 A965.000,965.000 40.000 0,1 1428.732,537.635 L1416.916,378.072 A1125.000,1125.000 0.000 0,0 1299.123,393.079 Z" style="stroke-width:2.0;stroke:rgb(115,115,115);stroke-linecap:round;fill:rgb(66,146,198);" />
<text x="1275.3" y="321.2" font-size="195.0px" font-family="CMUBright-Bold" style="text-anchor:end;fill:rgb(0,0,0);" transform="rotate(82.7,1275.3,321.2)" >19</text>
<path d="M1327.693,550.508 A965.000,965.000 40.000 0,1 1428.732,537.635 L1416.916,378.072 A1125.000,1125.000 0.000 0,0 1299.123,393.079 Z" style="stroke-width:2.0;stroke:rgb(115,115,115);stroke-linecap:round;fill:none;" />
</g>
<g id="track_1">
<path d="M 2322.8,1904.3 L 2289.4,1888.3 2255.6,1873.2 2221.6,1858.9 2187.4,1845.7 2153.2,1833.7 2119.2,1822.9 2085.5,1813.6 2052.1,1805.8 2019.1,1799.6 1986.8,1795.0 1955.1,1792.2 1924.2,1791.2 1894.1,1792.0 1864.9,1794.8 1836.8,1799.5 1809.6,1806.1 1783.6,1814.7 1758.8,1825.3 1735.1,1837.9 1712.7,1852.4 1691.6,1868.9 1671.8,1887.3 1653.3,1907.5 1636.2,1929.6 1620.5,1953.4 1606.1,1978.9 1593.0,2006.0 1581.3,2034.7 1571.0,2064.8 1562.0,2096.2 1554.3,2128.8 1547.8,2162.4 1542.5,2197.1 1538.5,2232.5 1535.5,2268.6 1533.7,2305.2 1532.8,2342.1 1532.9,2379.1 1533.9,2416.1  " style="stroke-opacity: 1.000000; stroke-width: 5.0; stroke: rgb(251,106,74); fill: none"  />
<path d="M 1548.4,584.5 L 1546.6,626.1 1545.5,668.2 1545.4,710.6 1546.1,753.2 1547.7,796.1 1550.4,839.2 1554.0,882.3 1558.8,925.5 1564.6,968.7 1571.5,1011.7 1579.6,1054.7 1588.8,1097.5 1599.2,1140.0 1610.8,1182.2 1623.5,1224.2 1637.5,1265.7 1652.7,1306.8 1669.0,1347.5 1686.6,1387.7 1705.3,1427.4 1725.2,1466.5 1746.2,1505.0 1768.3,1542.8 1791.5,1580.0 1815.7,1616.5 1840.9,1652.3 1867.2,1687.4 1894.3,1721.7 1922.3,1755.3 1951.2,1788.0 1980.8,1819.9 2011.1,1851.0 2042.1,1881.3 2073.6,1910.7 2105.7,1939.2 2138.2,1966.9 2171.0,1993.7 2204.1,2019.6 2237.4,2044.7  " style="stroke-opacity: 1.000000; stroke-width: 5.0; stroke: rgb(251,106,74); fill: none"  />
<path d="M 1548.4,584.5 L 1546.2,629.0 1544.5,673.8 1543.2,718.9 1542.3,764.3 1541.9,809.9 1541.9,855.7 1542.5,901.6 1543.6,947.8 1545.2,994.1 1547.4,1040.5 1550.1,1087.0 1553.5,1133.6 1557.3,1180.2 1561.8,1226.9 1566.9,1273.6 1572.5,1320.2 1578.8,1366.9 1585.6,1413.5 1593.1,1460.0 1601.1,1506.4 1609.7,1552.7 1619.0,1598.9 1628.8,1644.9 1639.2,1690.7 1650.1,1736.4 1661.6,1781.8 1673.6,1827.1 1686.2,1872.0 1699.3,1916.8 1712.8,1961.2 1726.9,2005.3 1741.4,2049.2 1756.3,2092.7 1771.7,2135.8 1787.4,2178.6 1803.5,2221.0 1819.9,2263.0 1836.6,2304.6 1853.6,2345.8  " style="stroke-opacity: 1.000000; stroke-width: 5.0; stroke: rgb(251,106,74); fill: none"  />
<path d="M 1533.9,2416.1 L 1532.9,2379.1 1532.8,2342.1 1533.7,2305.2 1535.5,2268.6 1538.5,2232.5 1542.5,2197.1 1547.8,2162.4 1554.3,2128.8 1562.0,2096.2 1571.0,2064.8 1581.3,2034.7 1593.0,2006.0 1606.1,1978.9 1620.5,1953.4 1636.2,1929.6 1653.3,1907.5 1671.8,1887.3 1691.6,1868.9 1712.7,1852.4 1735.1,1837.9 1758.8,1825.3 1783.6,1814.7 1809.6,1806.1 1836.8,1799.5 1864.9,1794.8 1894.1,1792.0 1924.2,1791.2 1955.1,1792.2 1986.8,1795.0 2019.1,1799.6 2052.1,1805.8 2085.5,1813.6 2119.2,1822.9 2153.2,1833.7 2187.4,1845.7 2221.6,1858.9 2255.6,1873.2 2289.4,1888.3 2322.8,1904.3  " style="stroke-opacity: 1.000000; stroke-width: 5.0; stroke: rgb(251,106,74); fill: none"  />
<path d="M 1533.9,2416.1 L 1532.9,2379.7 1532.7,2343.2 1533.3,2307.1 1534.9,2271.3 1537.4,2236.2 1540.9,2201.8 1545.5,2168.5 1551.2,2136.2 1558.0,2105.3 1566.0,2075.7 1575.2,2047.6 1585.6,2021.2 1597.2,1996.5 1610.0,1973.6 1624.1,1952.6 1639.4,1933.6 1655.9,1916.7 1673.7,1901.8 1692.6,1889.1 1712.7,1878.5 1733.8,1870.1 1756.1,1863.8 1779.4,1859.7 1803.8,1857.8 1829.0,1858.0 1855.1,1860.3 1882.1,1864.6 1909.8,1870.9 1938.1,1879.2 1967.1,1889.3 1996.5,1901.1 2026.3,1914.6 2056.5,1929.6 2086.8,1946.1 2117.2,1963.8 2147.6,1982.7 2177.9,2002.6 2207.8,2023.3 2237.4,2044.7  " style="stroke-opacity: 1.000000; stroke-width: 5.0; stroke: rgb(251,106,74); fill: none"  />
<path d="M 1533.9,2416.1 L 1532.9,2380.1 1532.5,2344.2 1532.8,2308.6 1533.9,2273.6 1535.9,2239.3 1538.7,2205.9 1542.4,2173.7 1547.1,2142.7 1552.7,2113.2 1559.4,2085.2 1567.0,2058.9 1575.8,2034.4 1585.5,2011.9 1596.3,1991.3 1608.2,1972.9 1621.1,1956.6 1635.1,1942.6 1650.1,1930.8 1666.2,1921.4 1683.2,1914.3 1701.2,1909.5 1720.1,1907.1 1739.9,1907.0 1760.6,1909.2 1782.0,1913.7 1804.3,1920.4 1827.2,1929.3 1850.7,1940.3 1874.8,1953.3 1899.4,1968.2 1924.4,1985.0 1949.7,2003.4 1975.3,2023.4 2001.0,2044.9 2026.8,2067.6 2052.5,2091.4 2078.1,2116.1 2103.4,2141.6 2128.3,2167.6  " style="stroke-opacity: 1.000000; stroke-width: 5.0; stroke: rgb(251,106,74); fill: none"  />
<path d="M 1533.9,2416.1 L 1532.8,2380.5 1532.2,2345.0 1532.2,2309.9 1532.8,2275.5 1534.1,2241.8 1536.1,2209.3 1538.8,2177.9 1542.2,2148.0 1546.4,2119.7 1551.4,2093.0 1557.3,2068.2 1563.9,2045.3 1571.5,2024.6 1579.8,2006.0 1589.1,1989.7 1599.1,1975.7 1610.0,1964.0 1621.8,1954.9 1634.4,1948.2 1647.7,1943.9 1661.9,1942.2 1676.7,1943.0 1692.3,1946.2 1708.6,1951.9 1725.6,1959.9 1743.1,1970.3 1761.2,1983.0 1779.8,1997.8 1798.8,2014.8 1818.3,2033.7 1838.0,2054.5 1858.0,2077.0 1878.3,2101.1 1898.6,2126.6 1918.9,2153.4 1939.2,2181.2 1959.4,2209.9 1979.3,2239.3 1999.0,2269.1  " style="stroke-opacity: 1.000000; stroke-width: 5.0; stroke: rgb(251,106,74); fill: none"  />
<path d="M 934.1,778.8 L 956.9,807.2 980.3,835.2 1004.1,862.4 1028.4,888.7 1053.0,913.9 1077.9,937.8 1102.9,960.3 1128.1,981.3 1153.3,1000.5 1178.5,1017.9 1203.7,1033.4 1228.7,1046.9 1253.5,1058.2 1278.1,1067.4 1302.4,1074.3 1326.3,1078.9 1349.9,1081.2 1373.0,1081.1 1395.7,1078.6 1417.9,1073.7 1439.5,1066.5 1460.5,1056.8 1481.0,1044.9 1500.8,1030.7 1519.9,1014.2 1538.4,995.6 1556.2,974.8 1573.2,952.1 1589.6,927.5 1605.1,901.1 1620.0,873.1 1634.0,843.5 1647.3,812.6 1659.8,780.4 1671.6,747.2 1682.6,713.2 1692.8,678.4 1702.3,643.3 1711.1,607.9  " style="stroke-opacity: 1.000000; stroke-width: 5.0; stroke: rgb(251,106,74); fill: none"  />
<path d="M 934.1,778.8 L 962.8,815.4 991.5,852.1 1020.1,889.0 1048.7,925.9 1077.3,963.0 1105.8,1000.1 1134.3,1037.4 1162.7,1074.8 1191.0,1112.3 1219.3,1149.8 1247.5,1187.5 1275.7,1225.3 1303.8,1263.1 1331.8,1301.1 1359.7,1339.1 1387.5,1377.2 1415.3,1415.4 1442.9,1453.7 1470.5,1492.1 1497.9,1530.5 1525.3,1569.0 1552.5,1607.6 1579.7,1646.2 1606.7,1684.9 1633.7,1723.6 1660.5,1762.4 1687.2,1801.2 1713.8,1840.1 1740.3,1879.0 1766.7,1917.9 1793.0,1956.9 1819.1,1995.9 1845.1,2034.9 1871.1,2073.9 1896.9,2113.0 1922.6,2152.0 1948.1,2191.0 1973.6,2230.1 1999.0,2269.1  " style="stroke-opacity: 1.000000; stroke-width: 5.0; stroke: rgb(251,106,74); fill: none"  />
<path d="M 2237.4,2044.7 L 2204.1,2019.6 2171.0,1993.7 2138.2,1966.9 2105.7,1939.2 2073.6,1910.7 2042.1,1881.3 2011.1,1851.0 1980.8,1819.9 1951.2,1788.0 1922.3,1755.3 1894.3,1721.7 1867.2,1687.4 1840.9,1652.3 1815.7,1616.5 1791.5,1580.0 1768.3,1542.8 1746.2,1505.0 1725.2,1466.5 1705.3,1427.4 1686.6,1387.7 1669.0,1347.5 1652.7,1306.8 1637.5,1265.7 1623.5,1224.2 1610.8,1182.2 1599.2,1140.0 1588.8,1097.5 1579.6,1054.7 1571.5,1011.7 1564.6,968.7 1558.8,925.5 1554.0,882.3 1550.4,839.2 1547.7,796.1 1546.1,753.2 1545.4,710.6 1545.5,668.2 1546.6,626.1 1548.4,584.5  " style="stroke-opacity: 1.000000; stroke-width: 5.0; stroke: rgb(251,106,74); fill: none"  />
<path d="M 2237.4,2044.7 L 2207.8,2023.3 2177.9,2002.6 2147.6,1982.7 2117.2,1963.8 2086.8,1946.1 2056.5,1929.6 2026.3,1914.6 1996.5,1901.1 1967.1,1889.3 1938.1,1879.2 1909.8,1870.9 1882.1,1864.6 1855.1,1860.3 1829.0,1858.0 1803.8,1857.8 1779.4,1859.7 1756.1,1863.8 1733.8,1870.1 1712.7,1878.5 1692.6,1889.1 1673.7,1901.8 1655.9,1916.7 1639.4,1933.6 1624.1,1952.6 1610.0,1973.6 1597.2,1996.5 1585.6,2021.2 1575.2,2047.6 1566.0,2075.7 1558.0,2105.3 1551.2,2136.2 1545.5,2168.5 1540.9,2201.8 1537.4,2236.2 1534.9,2271.3 1533.3,2307.1 1532.7,2343.2 1532.9,2379.7 1533.9,2416.1  " style="stroke-opacity: 1.000000; stroke-width: 5.0; stroke: rgb(251,106,74); fill: none"  />
<path d="M 2237.4,2044.7 L 2204.9,2020.2 2172.6,1994.7 2140.7,1968.3 2109.2,1940.9 2078.3,1912.7 2048.0,1883.6 2018.5,1853.6 1989.8,1822.7 1962.0,1791.0 1935.1,1758.4 1909.3,1725.1 1884.5,1690.9 1861.0,1656.0 1838.6,1620.4 1817.4,1584.0 1797.6,1547.0 1779.0,1509.3 1761.8,1471.1 1746.0,1432.2 1731.6,1392.8 1718.6,1353.0 1707.0,1312.6 1696.8,1271.9 1688.0,1230.8 1680.7,1189.4 1674.8,1147.7 1670.2,1105.9 1667.1,1063.8 1665.2,1021.7 1664.7,979.5 1665.5,937.3 1667.4,895.2 1670.6,853.2 1674.9,811.4 1680.2,769.9 1686.6,728.7 1693.9,687.9 1702.1,647.6 1711.1,607.9  " style="stroke-opacity: 1.000000; stroke-width: 5.0; stroke: rgb(251,106,74); fill: none"  />
<path d="M 2237.4,2044.7 L 2201.7,2018.1 2166.0,1990.9 2130.3,1963.3 2094.8,1935.1 2059.3,1906.5 2024.0,1877.3 1988.9,1847.6 1953.9,1817.4 1919.3,1786.7 1884.8,1755.6 1850.7,1723.9 1816.8,1691.7 1783.3,1659.1 1750.1,1625.9 1717.3,1592.4 1684.9,1558.3 1652.8,1523.8 1621.2,1488.9 1590.1,1453.6 1559.4,1417.9 1529.1,1381.8 1499.3,1345.3 1470.1,1308.5 1441.3,1271.3 1413.0,1233.9 1385.2,1196.1 1358.0,1158.0 1331.2,1119.7 1305.0,1081.2 1279.3,1042.5 1254.2,1003.6 1229.6,964.5 1205.5,925.4 1182.0,886.1 1158.9,846.7 1136.4,807.4 1114.4,768.0 1093.0,728.6 1072.0,689.3  " style="stroke-opacity: 1.000000; stroke-width: 5.0; stroke: rgb(251,106,74); fill: none"  />
<path d="M 2237.4,2044.7 L 2205.7,2021.9 2173.2,1999.7 2140.0,1978.3 2106.2,1957.7 2071.7,1938.2 2036.7,1919.8 2001.3,1902.7 1965.4,1886.9 1929.2,1872.4 1892.7,1859.5 1855.9,1848.2 1818.9,1838.4 1781.8,1830.4 1744.7,1824.1 1707.5,1819.5 1670.3,1816.8 1633.2,1815.9 1596.2,1816.8 1559.3,1819.6 1522.7,1824.3 1486.4,1830.8 1450.3,1839.2 1414.6,1849.4 1379.3,1861.3 1344.4,1875.1 1310.0,1890.5 1276.1,1907.6 1242.8,1926.3 1210.0,1946.5 1177.9,1968.2 1146.4,1991.2 1115.7,2015.5 1085.7,2041.0 1056.4,2067.6 1028.0,2095.1 1000.3,2123.4 973.6,2152.5 947.7,2182.1 922.8,2212.2  " style="stroke-opacity: 1.000000; stroke-width: 5.0; stroke: rgb(251,106,74); fill: none"  />
<path d="M 1711.1,607.9 L 1702.3,643.3 1692.8,678.4 1682.6,713.2 1671.6,747.2 1659.8,780.4 1647.3,812.6 1634.0,843.5 1620.0,873.1 1605.1,901.1 1589.6,927.5 1573.2,952.1 1556.2,974.8 1538.4,995.6 1519.9,1014.2 1500.8,1030.7 1481.0,1044.9 1460.5,1056.8 1439.5,1066.5 1417.9,1073.7 1395.7,1078.6 1373.0,1081.1 1349.9,1081.2 1326.3,1078.9 1302.4,1074.3 1278.1,1067.4 1253.5,1058.2 1228.7,1046.9 1203.7,1033.4 1178.5,1017.9 1153.3,1000.5 1128.1,981.3 1102.9,960.3 1077.9,937.8 1053.0,913.9 1028.4,888.7 1004.1,862.4 980.3,835.2 956.9,807.2 934.1,778.8  " style="stroke-opacity: 1.000000; stroke-width: 5.0; stroke: rgb(251,106,74); fill: none"  />
<path d="M 1711.1,607.9 L 1702.1,647.6 1693.9,687.9 1686.6,728.7 1680.2,769.9 1674.9,811.4 1670.6,853.2 1667.4,895.2 1665.5,937.3 1664.7,979.5 1665.2,1021.7 1667.1,1063.8 1670.2,1105.9 1674.8,1147.7 1680.7,1189.4 1688.0,1230.8 1696.8,1271.9 1707.0,1312.6 1718.6,1353.0 1731.6,1392.8 1746.0,1432.2 1761.8,1471.1 1779.0,1509.3 1797.6,1547.0 1817.4,1584.0 1838.6,1620.4 1861.0,1656.0 1884.5,1690.9 1909.3,1725.1 1935.1,1758.4 1962.0,1791.0 1989.8,1822.7 2018.5,1853.6 2048.0,1883.6 2078.3,1912.7 2109.2,1940.9 2140.7,1968.3 2172.6,1994.7 2204.9,2020.2 2237.4,2044.7  " style="stroke-opacity: 1.000000; stroke-width: 5.0; stroke: rgb(251,106,74); fill: none"  />
<path d="M 1711.1,607.9 L 1702.8,642.3 1694.2,676.4 1685.3,710.0 1676.2,742.8 1666.9,774.5 1657.5,805.1 1647.9,834.2 1638.2,861.8 1628.3,887.6 1618.5,911.4 1608.5,933.3 1598.6,952.9 1588.6,970.3 1578.7,985.3 1568.8,997.9 1558.9,1007.9 1549.2,1015.3 1539.5,1020.1 1530.0,1022.3 1520.6,1021.8 1511.3,1018.6 1502.2,1012.8 1493.3,1004.4 1484.5,993.4 1476.0,979.9 1467.7,963.9 1459.6,945.6 1451.8,925.0 1444.2,902.2 1436.9,877.4 1429.9,850.8 1423.1,822.3 1416.6,792.4 1410.5,761.0 1404.6,728.4 1399.0,694.9 1393.7,660.6 1388.8,625.7 1384.1,590.6  " style="stroke-opacity: 1.000000; stroke-width: 5.0; stroke: rgb(251,106,74); fill: none"  />
<path d="M 2128.3,2167.6 L 2103.4,2141.6 2078.1,2116.1 2052.5,2091.4 2026.8,2067.6 2001.0,2044.9 1975.3,2023.4 1949.7,2003.4 1924.4,1985.0 1899.4,1968.2 1874.8,1953.3 1850.7,1940.3 1827.2,1929.3 1804.3,1920.4 1782.0,1913.7 1760.6,1909.2 1739.9,1907.0 1720.1,1907.1 1701.2,1909.5 1683.2,1914.3 1666.2,1921.4 1650.1,1930.8 1635.1,1942.6 1621.1,1956.6 1608.2,1972.9 1596.3,1991.3 1585.5,2011.9 1575.8,2034.4 1567.0,2058.9 1559.4,2085.2 1552.7,2113.2 1547.1,2142.7 1542.4,2173.7 1538.7,2205.9 1535.9,2239.3 1533.9,2273.6 1532.8,2308.6 1532.5,2344.2 1532.9,2380.1 1533.9,2416.1  " style="stroke-opacity: 1.000000; stroke-width: 5.0; stroke: rgb(251,106,74); fill: none"  />
<path d="M 2128.3,2167.6 L 2103.0,2141.3 2077.2,2115.6 2051.0,2090.6 2024.5,2066.6 1997.7,2043.7 1970.8,2022.1 1943.9,2001.9 1916.9,1983.3 1890.1,1966.4 1863.4,1951.3 1837.0,1938.1 1810.9,1927.0 1785.1,1917.9 1759.8,1911.0 1735.0,1906.3 1710.7,1903.8 1687.0,1903.7 1664.0,1905.9 1641.7,1910.4 1620.0,1917.2 1599.1,1926.4 1579.0,1937.8 1559.7,1951.6 1541.3,1967.5 1523.7,1985.6 1507.0,2005.8 1491.1,2028.1 1476.2,2052.2 1462.1,2078.2 1449.0,2105.9 1436.7,2135.1 1425.4,2165.9 1414.9,2197.9 1405.3,2231.0 1396.6,2265.1 1388.7,2300.0 1381.6,2335.5 1375.3,2371.4 1369.8,2407.5  " style="stroke-opacity: 1.000000; stroke-width: 5.0; stroke: rgb(251,106,74); fill: none"  />
<path d="M 2128.3,2167.6 L 2102.6,2141.0 2076.3,2114.9 2049.4,2089.6 2022.1,2065.2 1994.4,2041.9 1966.3,2019.9 1937.9,1999.3 1909.4,1980.3 1880.8,1962.9 1852.1,1947.2 1823.4,1933.5 1794.8,1921.7 1766.4,1911.9 1738.1,1904.2 1710.1,1898.7 1682.3,1895.4 1655.0,1894.3 1628.0,1895.5 1601.4,1898.9 1575.3,1904.7 1549.8,1912.7 1524.8,1922.9 1500.4,1935.4 1476.6,1950.0 1453.5,1966.8 1431.0,1985.6 1409.3,2006.5 1388.3,2029.2 1368.0,2053.7 1348.6,2079.9 1329.9,2107.7 1312.0,2137.0 1294.9,2167.6 1278.6,2199.3 1263.2,2232.1 1248.6,2265.7 1234.8,2299.9 1221.9,2334.6 1209.8,2369.6  " style="stroke-opacity: 1.000000; stroke-width: 5.0; stroke: rgb(251,106,74); fill: none"  />
<path d="M 2128.3,2167.6 L 2101.3,2138.3 2074.7,2108.0 2048.8,2077.0 2023.6,2045.1 1999.3,2012.4 1975.8,1979.0 1953.4,1945.0 1932.2,1910.2 1912.1,1874.9 1893.3,1838.9 1875.8,1802.4 1859.8,1765.5 1845.2,1728.0 1832.2,1690.1 1820.7,1651.9 1810.8,1613.3 1802.6,1574.4 1796.0,1535.3 1791.1,1496.0 1787.8,1456.5 1786.3,1416.9 1786.4,1377.2 1788.2,1337.5 1791.7,1297.9 1796.8,1258.3 1803.5,1218.8 1811.7,1179.5 1821.5,1140.4 1832.8,1101.5 1845.5,1063.0 1859.5,1024.8 1874.9,987.1 1891.4,949.8 1909.1,913.1 1927.8,876.9 1947.5,841.3 1968.0,806.4 1989.2,772.3 2011.1,738.9  " style="stroke-opacity: 1.000000; stroke-width: 5.0; stroke: rgb(251,106,74); fill: none"  />
<path d="M 2128.3,2167.6 L 2102.2,2140.5 2075.3,2114.0 2047.8,2088.2 2019.6,2063.4 1990.9,2039.6 1961.7,2017.0 1932.1,1995.7 1902.1,1975.9 1871.8,1957.7 1841.3,1941.2 1810.5,1926.4 1779.6,1913.5 1748.6,1902.6 1717.6,1893.6 1686.6,1886.7 1655.7,1881.9 1624.9,1879.3 1594.2,1878.8 1563.8,1880.4 1533.6,1884.3 1503.7,1890.3 1474.2,1898.5 1445.0,1908.8 1416.3,1921.2 1388.0,1935.6 1360.2,1952.0 1333.0,1970.4 1306.3,1990.6 1280.3,2012.6 1254.8,2036.3 1230.1,2061.5 1206.0,2088.2 1182.6,2116.2 1160.0,2145.4 1138.2,2175.7 1117.2,2206.8 1097.0,2238.6 1077.7,2271.1 1059.2,2303.8  " style="stroke-opacity: 1.000000; stroke-width: 5.0; stroke: rgb(251,106,74); fill: none"  />
<path d="M 2128.3,2167.6 L 2101.7,2140.0 2074.3,2113.0 2046.1,2086.7 2017.1,2061.2 1987.5,2036.7 1957.3,2013.3 1926.5,1991.1 1895.2,1970.3 1863.4,1951.0 1831.2,1933.3 1798.6,1917.2 1765.7,1902.8 1732.5,1890.3 1699.0,1879.6 1665.4,1870.8 1631.7,1863.9 1597.8,1859.1 1563.9,1856.3 1530.1,1855.5 1496.3,1856.7 1462.5,1860.0 1429.0,1865.4 1395.6,1872.7 1362.4,1882.0 1329.5,1893.2 1297.0,1906.4 1264.8,1921.4 1233.0,1938.1 1201.7,1956.6 1170.9,1976.6 1140.6,1998.3 1110.9,2021.3 1081.8,2045.6 1053.4,2071.2 1025.7,2097.8 998.8,2125.4 972.6,2153.7 947.2,2182.7 922.8,2212.2  " style="stroke-opacity: 1.000000; stroke-width: 5.0; stroke: rgb(251,106,74); fill: none"  />
<path d="M 2128.3,2167.6 L 2101.2,2139.5 2073.2,2111.9 2044.3,2084.8 2014.7,2058.6 1984.3,2033.3 1953.1,2008.9 1921.3,1985.7 1888.9,1963.7 1855.8,1943.1 1822.2,1923.8 1788.0,1906.1 1753.4,1889.9 1718.3,1875.4 1682.9,1862.5 1647.1,1851.4 1611.0,1842.1 1574.6,1834.6 1538.0,1828.9 1501.3,1825.1 1464.4,1823.1 1427.5,1823.1 1390.5,1824.9 1353.6,1828.5 1316.7,1834.0 1279.9,1841.2 1243.3,1850.3 1206.9,1861.1 1170.8,1873.5 1135.0,1887.5 1099.5,1903.1 1064.4,1920.2 1029.8,1938.6 995.7,1958.3 962.2,1979.2 929.3,2001.2 897.1,2024.2 865.5,2048.0 834.8,2072.6 804.9,2097.7  " style="stroke-opacity: 1.000000; stroke-width: 5.0; stroke: rgb(251,106,74); fill: none"  />
<path d="M 2128.3,2167.6 L 2102.3,2139.4 2077.0,2110.4 2052.4,2080.7 2028.7,2050.2 2006.1,2019.2 1984.6,1987.6 1964.3,1955.5 1945.5,1923.0 1928.2,1890.1 1912.4,1856.9 1898.3,1823.4 1886.0,1789.6 1875.4,1755.7 1866.8,1721.7 1860.1,1687.6 1855.3,1653.5 1852.5,1619.4 1851.7,1585.5 1853.0,1551.6 1856.3,1517.9 1861.6,1484.5 1869.0,1451.3 1878.3,1418.4 1889.6,1385.9 1902.8,1353.7 1917.9,1322.0 1934.8,1290.8 1953.5,1260.1 1973.8,1230.0 1995.7,1200.4 2019.1,1171.5 2043.9,1143.3 2070.0,1115.7 2097.2,1088.9 2125.5,1062.9 2154.6,1037.6 2184.5,1013.2 2215.0,989.7 2245.9,967.0  " style="stroke-opacity: 1.000000; stroke-width: 5.0; stroke: rgb(251,106,74); fill: none"  />
<path d="M 1867.0,659.9 L 1850.2,699.1 1834.0,738.9 1818.3,779.3 1803.2,820.2 1788.7,861.7 1775.0,903.6 1762.0,946.0 1749.9,988.9 1738.5,1032.1 1728.1,1075.7 1718.5,1119.6 1710.0,1163.9 1702.3,1208.3 1695.7,1253.0 1690.1,1297.9 1685.5,1343.0 1682.0,1388.1 1679.5,1433.4 1678.1,1478.7 1677.7,1524.1 1678.4,1569.4 1680.2,1614.7 1683.0,1660.0 1686.9,1705.1 1691.8,1750.0 1697.7,1794.8 1704.6,1839.4 1712.5,1883.8 1721.3,1927.8 1731.1,1971.6 1741.7,2015.0 1753.2,2058.0 1765.5,2100.7 1778.6,2142.8 1792.4,2184.5 1806.8,2225.7 1821.9,2266.3 1837.5,2306.4 1853.6,2345.8  " style="stroke-opacity: 1.000000; stroke-width: 5.0; stroke: rgb(251,106,74); fill: none"  />
<path d="M 1072.0,689.3 L 1093.0,728.6 1114.4,768.0 1136.4,807.4 1158.9,846.7 1182.0,886.1 1205.5,925.4 1229.6,964.5 1254.2,1003.6 1279.3,1042.5 1305.0,1081.2 1331.2,1119.7 1358.0,1158.0 1385.2,1196.1 1413.0,1233.9 1441.3,1271.3 1470.1,1308.5 1499.3,1345.3 1529.1,1381.8 1559.4,1417.9 1590.1,1453.6 1621.2,1488.9 1652.8,1523.8 1684.9,1558.3 1717.3,1592.4 1750.1,1625.9 1783.3,1659.1 1816.8,1691.7 1850.7,1723.9 1884.8,1755.6 1919.3,1786.7 1953.9,1817.4 1988.9,1847.6 2024.0,1877.3 2059.3,1906.5 2094.8,1935.1 2130.3,1963.3 2166.0,1990.9 2201.7,2018.1 2237.4,2044.7  " style="stroke-opacity: 1.000000; stroke-width: 5.0; stroke: rgb(251,106,74); fill: none"  />
<path d="M 1369.8,2407.5 L 1375.3,2371.4 1381.6,2335.5 1388.7,2300.0 1396.6,2265.1 1405.3,2231.0 1414.9,2197.9 1425.4,2165.9 1436.7,2135.1 1449.0,2105.9 1462.1,2078.2 1476.2,2052.2 1491.1,2028.1 1507.0,2005.8 1523.7,1985.6 1541.3,1967.5 1559.7,1951.6 1579.0,1937.8 1599.1,1926.4 1620.0,1917.2 1641.7,1910.4 1664.0,1905.9 1687.0,1903.7 1710.7,1903.8 1735.0,1906.3 1759.8,1911.0 1785.1,1917.9 1810.9,1927.0 1837.0,1938.1 1863.4,1951.3 1890.1,1966.4 1916.9,1983.3 1943.9,2001.9 1970.8,2022.1 1997.7,2043.7 2024.5,2066.6 2051.0,2090.6 2077.2,2115.6 2103.0,2141.3 2128.3,2167.6  " style="stroke-opacity: 1.000000; stroke-width: 5.0; stroke: rgb(251,106,74); fill: none"  />
<path d="M 1369.8,2407.5 L 1375.2,2371.8 1381.2,2336.4 1387.9,2301.5 1395.3,2267.2 1403.3,2233.8 1412.0,2201.5 1421.4,2170.4 1431.6,2140.8 1442.4,2112.7 1453.9,2086.4 1466.2,2061.9 1479.1,2039.4 1492.7,2018.9 1507.1,2000.6 1522.0,1984.6 1537.7,1970.9 1553.9,1959.6 1570.8,1950.7 1588.3,1944.3 1606.3,1940.3 1624.8,1938.8 1643.9,1939.8 1663.4,1943.3 1683.3,1949.1 1703.6,1957.4 1724.3,1968.0 1745.2,1980.8 1766.4,1995.8 1787.8,2012.9 1809.4,2032.0 1831.0,2053.0 1852.6,2075.6 1874.2,2099.9 1895.7,2125.6 1917.0,2152.5 1938.0,2180.5 1958.8,2209.4 1979.1,2239.0 1999.0,2269.1  " style="stroke-opacity: 1.000000; stroke-width: 5.0; stroke: rgb(251,106,74); fill: none"  />
<path d="M 1369.8,2407.5 L 1374.9,2372.4 1380.5,2337.7 1386.3,2303.4 1392.4,2270.0 1398.8,2237.5 1405.4,2206.2 1412.4,2176.4 1419.6,2148.1 1427.1,2121.5 1434.8,2096.8 1442.7,2074.2 1450.9,2053.7 1459.2,2035.5 1467.8,2019.7 1476.5,2006.3 1485.4,1995.4 1494.5,1987.1 1503.7,1981.5 1513.0,1978.5 1522.4,1978.1 1531.9,1980.4 1541.5,1985.4 1551.1,1993.0 1560.8,2003.2 1570.5,2015.9 1580.2,2031.0 1589.9,2048.6 1599.5,2068.4 1609.1,2090.4 1618.6,2114.4 1628.0,2140.3 1637.3,2168.0 1646.5,2197.3 1655.4,2228.0 1664.2,2259.9 1672.8,2292.8 1681.1,2326.5 1689.1,2360.8 1696.9,2395.4  " style="stroke-opacity: 1.000000; stroke-width: 5.0; stroke: rgb(251,106,74); fill: none"  />
<path d="M 1999.0,2269.1 L 1979.3,2239.3 1959.4,2209.9 1939.2,2181.2 1918.9,2153.4 1898.6,2126.6 1878.3,2101.1 1858.0,2077.0 1838.0,2054.5 1818.3,2033.7 1798.8,2014.8 1779.8,1997.8 1761.2,1983.0 1743.1,1970.3 1725.6,1959.9 1708.6,1951.9 1692.3,1946.2 1676.7,1943.0 1661.9,1942.2 1647.7,1943.9 1634.4,1948.2 1621.8,1954.9 1610.0,1964.0 1599.1,1975.7 1589.1,1989.7 1579.8,2006.0 1571.5,2024.6 1563.9,2045.3 1557.3,2068.2 1551.4,2093.0 1546.4,2119.7 1542.2,2148.0 1538.8,2177.9 1536.1,2209.3 1534.1,2241.8 1532.8,2275.5 1532.2,2309.9 1532.2,2345.0 1532.8,2380.5 1533.9,2416.1  " style="stroke-opacity: 1.000000; stroke-width: 5.0; stroke: rgb(251,106,74); fill: none"  />
<path d="M 1999.0,2269.1 L 1973.6,2230.1 1948.1,2191.0 1922.6,2152.0 1896.9,2113.0 1871.1,2073.9 1845.1,2034.9 1819.1,1995.9 1793.0,1956.9 1766.7,1917.9 1740.3,1879.0 1713.8,1840.1 1687.2,1801.2 1660.5,1762.4 1633.7,1723.6 1606.7,1684.9 1579.7,1646.2 1552.5,1607.6 1525.3,1569.0 1497.9,1530.5 1470.5,1492.1 1442.9,1453.7 1415.3,1415.4 1387.5,1377.2 1359.7,1339.1 1331.8,1301.1 1303.8,1263.1 1275.7,1225.3 1247.5,1187.5 1219.3,1149.8 1191.0,1112.3 1162.7,1074.8 1134.3,1037.4 1105.8,1000.1 1077.3,963.0 1048.7,925.9 1020.1,889.0 991.5,852.1 962.8,815.4 934.1,778.8  " style="stroke-opacity: 1.000000; stroke-width: 5.0; stroke: rgb(251,106,74); fill: none"  />
<path d="M 1999.0,2269.1 L 1979.1,2239.0 1958.8,2209.4 1938.0,2180.5 1917.0,2152.5 1895.7,2125.6 1874.2,2099.9 1852.6,2075.6 1831.0,2053.0 1809.4,2032.0 1787.8,2012.9 1766.4,1995.8 1745.2,1980.8 1724.3,1968.0 1703.6,1957.4 1683.3,1949.1 1663.4,1943.3 1643.9,1939.8 1624.8,1938.8 1606.3,1940.3 1588.3,1944.3 1570.8,1950.7 1553.9,1959.6 1537.7,1970.9 1522.0,1984.6 1507.1,2000.6 1492.7,2018.9 1479.1,2039.4 1466.2,2061.9 1453.9,2086.4 1442.4,2112.7 1431.6,2140.8 1421.4,2170.4 1412.0,2201.5 1403.3,2233.8 1395.3,2267.2 1387.9,2301.5 1381.2,2336.4 1375.2,2371.8 1369.8,2407.5  " style="stroke-opacity: 1.000000; stroke-width: 5.0; stroke: rgb(251,106,74); fill: none"  />
<path d="M 1999.0,2269.1 L 1978.8,2238.7 1958.0,2208.8 1936.7,2179.5 1914.9,2151.1 1892.7,2123.8 1870.0,2097.8 1847.1,2073.1 1823.9,2050.0 1800.5,2028.6 1777.0,2009.0 1753.3,1991.3 1729.6,1975.6 1705.9,1962.1 1682.2,1950.8 1658.7,1941.7 1635.2,1935.0 1612.0,1930.6 1588.9,1928.6 1566.1,1929.1 1543.6,1931.9 1521.4,1937.2 1499.6,1944.9 1478.2,1955.0 1457.1,1967.4 1436.6,1982.1 1416.5,1999.0 1397.0,2018.0 1378.0,2039.1 1359.5,2062.1 1341.6,2087.0 1324.3,2113.6 1307.7,2141.8 1291.7,2171.5 1276.3,2202.4 1261.6,2234.4 1247.6,2267.3 1234.3,2301.0 1221.7,2335.1 1209.8,2369.6  " style="stroke-opacity: 1.000000; stroke-width: 5.0; stroke: rgb(251,106,74); fill: none"  />
<path d="M 1384.1,590.6 L 1388.8,625.7 1393.7,660.6 1399.0,694.9 1404.6,728.4 1410.5,761.0 1416.6,792.4 1423.1,822.3 1429.9,850.8 1436.9,877.4 1444.2,902.2 1451.8,925.0 1459.6,945.6 1467.7,963.9 1476.0,979.9 1484.5,993.4 1493.3,1004.4 1502.2,1012.8 1511.3,1018.6 1520.6,1021.8 1530.0,1022.3 1539.5,1020.1 1549.2,1015.3 1558.9,1007.9 1568.8,997.9 1578.7,985.3 1588.6,970.3 1598.6,952.9 1608.5,933.3 1618.5,911.4 1628.3,887.6 1638.2,861.8 1647.9,834.2 1657.5,805.1 1666.9,774.5 1676.2,742.8 1685.3,710.0 1694.2,676.4 1702.8,642.3 1711.1,607.9  " style="stroke-opacity: 1.000000; stroke-width: 5.0; stroke: rgb(251,106,74); fill: none"  />
<path d="M 1209.8,2369.6 L 1221.9,2334.6 1234.8,2299.9 1248.6,2265.7 1263.2,2232.1 1278.6,2199.3 1294.9,2167.6 1312.0,2137.0 1329.9,2107.7 1348.6,2079.9 1368.0,2053.7 1388.3,2029.2 1409.3,2006.5 1431.0,1985.6 1453.5,1966.8 1476.6,1950.0 1500.4,1935.4 1524.8,1922.9 1549.8,1912.7 1575.3,1904.7 1601.4,1898.9 1628.0,1895.5 1655.0,1894.3 1682.3,1895.4 1710.1,1898.7 1738.1,1904.2 1766.4,1911.9 1794.8,1921.7 1823.4,1933.5 1852.1,1947.2 1880.8,1962.9 1909.4,1980.3 1937.9,1999.3 1966.3,2019.9 1994.4,2041.9 2022.1,2065.2 2049.4,2089.6 2076.3,2114.9 2102.6,2141.0 2128.3,2167.6  " style="stroke-opacity: 1.000000; stroke-width: 5.0; stroke: rgb(251,106,74); fill: none"  />
<path d="M 1209.8,2369.6 L 1221.7,2335.1 1234.3,2301.0 1247.6,2267.3 1261.6,2234.4 1276.3,2202.4 1291.7,2171.5 1307.7,2141.8 1324.3,2113.6 1341.6,2087.0 1359.5,2062.1 1378.0,2039.1 1397.0,2018.0 1416.5,1999.0 1436.6,1982.1 1457.1,1967.4 1478.2,1955.0 1499.6,1944.9 1521.4,1937.2 1543.6,1931.9 1566.1,1929.1 1588.9,1928.6 1612.0,1930.6 1635.2,1935.0 1658.7,1941.7 1682.2,1950.8 1705.9,1962.1 1729.6,1975.6 1753.3,1991.3 1777.0,2009.0 1800.5,2028.6 1823.9,2050.0 1847.1,2073.1 1870.0,2097.8 1892.7,2123.8 1914.9,2151.1 1936.7,2179.5 1958.0,2208.8 1978.8,2238.7 1999.0,2269.1  " style="stroke-opacity: 1.000000; stroke-width: 5.0; stroke: rgb(251,106,74); fill: none"  />
<path d="M 1209.8,2369.6 L 1221.3,2335.8 1233.3,2302.4 1245.6,2269.6 1258.3,2237.5 1271.3,2206.5 1284.5,2176.7 1298.1,2148.3 1311.8,2121.5 1325.7,2096.4 1339.8,2073.3 1354.0,2052.1 1368.3,2033.0 1382.6,2016.2 1397.0,2001.8 1411.3,1989.7 1425.7,1980.2 1440.0,1973.1 1454.2,1968.7 1468.3,1966.8 1482.3,1967.5 1496.2,1970.9 1509.8,1976.8 1523.3,1985.3 1536.6,1996.3 1549.6,2009.8 1562.3,2025.7 1574.8,2044.0 1587.0,2064.4 1598.9,2086.9 1610.4,2111.5 1621.6,2137.9 1632.5,2166.0 1642.9,2195.7 1653.0,2226.7 1662.6,2258.9 1671.9,2292.1 1680.7,2326.1 1689.0,2360.6 1696.9,2395.4  " style="stroke-opacity: 1.000000; stroke-width: 5.0; stroke: rgb(251,106,74); fill: none"  />
<path d="M 2011.1,738.9 L 1989.2,772.3 1968.0,806.4 1947.5,841.3 1927.8,876.9 1909.1,913.1 1891.4,949.8 1874.9,987.1 1859.5,1024.8 1845.5,1063.0 1832.8,1101.5 1821.5,1140.4 1811.7,1179.5 1803.5,1218.8 1796.8,1258.3 1791.7,1297.9 1788.2,1337.5 1786.4,1377.2 1786.3,1416.9 1787.8,1456.5 1791.1,1496.0 1796.0,1535.3 1802.6,1574.4 1810.8,1613.3 1820.7,1651.9 1832.2,1690.1 1845.2,1728.0 1859.8,1765.5 1875.8,1802.4 1893.3,1838.9 1912.1,1874.9 1932.2,1910.2 1953.4,1945.0 1975.8,1979.0 1999.3,2012.4 2023.6,2045.1 2048.8,2077.0 2074.7,2108.0 2101.3,2138.3 2128.3,2167.6  " style="stroke-opacity: 1.000000; stroke-width: 5.0; stroke: rgb(251,106,74); fill: none"  />
<path d="M 1059.2,2303.8 L 1077.7,2271.1 1097.0,2238.6 1117.2,2206.8 1138.2,2175.7 1160.0,2145.4 1182.6,2116.2 1206.0,2088.2 1230.1,2061.5 1254.8,2036.3 1280.3,2012.6 1306.3,1990.6 1333.0,1970.4 1360.2,1952.0 1388.0,1935.6 1416.3,1921.2 1445.0,1908.8 1474.2,1898.5 1503.7,1890.3 1533.6,1884.3 1563.8,1880.4 1594.2,1878.8 1624.9,1879.3 1655.7,1881.9 1686.6,1886.7 1717.6,1893.6 1748.6,1902.6 1779.6,1913.5 1810.5,1926.4 1841.3,1941.2 1871.8,1957.7 1902.1,1975.9 1932.1,1995.7 1961.7,2017.0 1990.9,2039.6 2019.6,2063.4 2047.8,2088.2 2075.3,2114.0 2102.2,2140.5 2128.3,2167.6  " style="stroke-opacity: 1.000000; stroke-width: 5.0; stroke: rgb(251,106,74); fill: none"  />
<path d="M 922.8,2212.2 L 947.7,2182.1 973.6,2152.5 1000.3,2123.4 1028.0,2095.1 1056.4,2067.6 1085.7,2041.0 1115.7,2015.5 1146.4,1991.2 1177.9,1968.2 1210.0,1946.5 1242.8,1926.3 1276.1,1907.6 1310.0,1890.5 1344.4,1875.1 1379.3,1861.3 1414.6,1849.4 1450.3,1839.2 1486.4,1830.8 1522.7,1824.3 1559.3,1819.6 1596.2,1816.8 1633.2,1815.9 1670.3,1816.8 1707.5,1819.5 1744.7,1824.1 1781.8,1830.4 1818.9,1838.4 1855.9,1848.2 1892.7,1859.5 1929.2,1872.4 1965.4,1886.9 2001.3,1902.7 2036.7,1919.8 2071.7,1938.2 2106.2,1957.7 2140.0,1978.3 2173.2,1999.7 2205.7,2021.9 2237.4,2044.7  " style="stroke-opacity: 1.000000; stroke-width: 5.0; stroke: rgb(251,106,74); fill: none"  />
<path d="M 922.8,2212.2 L 947.2,2182.7 972.6,2153.7 998.8,2125.4 1025.7,2097.8 1053.4,2071.2 1081.8,2045.6 1110.9,2021.3 1140.6,1998.3 1170.9,1976.6 1201.7,1956.6 1233.0,1938.1 1264.8,1921.4 1297.0,1906.4 1329.5,1893.2 1362.4,1882.0 1395.6,1872.7 1429.0,1865.4 1462.5,1860.0 1496.3,1856.7 1530.1,1855.5 1563.9,1856.3 1597.8,1859.1 1631.7,1863.9 1665.4,1870.8 1699.0,1879.6 1732.5,1890.3 1765.7,1902.8 1798.6,1917.2 1831.2,1933.3 1863.4,1951.0 1895.2,1970.3 1926.5,1991.1 1957.3,2013.3 1987.5,2036.7 2017.1,2061.2 2046.1,2086.7 2074.3,2113.0 2101.7,2140.0 2128.3,2167.6  " style="stroke-opacity: 1.000000; stroke-width: 5.0; stroke: rgb(251,106,74); fill: none"  />
<path d="M 1853.6,2345.8 L 1836.6,2304.6 1819.9,2263.0 1803.5,2221.0 1787.4,2178.6 1771.7,2135.8 1756.3,2092.7 1741.4,2049.2 1726.9,2005.3 1712.8,1961.2 1699.3,1916.8 1686.2,1872.0 1673.6,1827.1 1661.6,1781.8 1650.1,1736.4 1639.2,1690.7 1628.8,1644.9 1619.0,1598.9 1609.7,1552.7 1601.1,1506.4 1593.1,1460.0 1585.6,1413.5 1578.8,1366.9 1572.5,1320.2 1566.9,1273.6 1561.8,1226.9 1557.3,1180.2 1553.5,1133.6 1550.1,1087.0 1547.4,1040.5 1545.2,994.1 1543.6,947.8 1542.5,901.6 1541.9,855.7 1541.9,809.9 1542.3,764.3 1543.2,718.9 1544.5,673.8 1546.2,629.0 1548.4,584.5  " style="stroke-opacity: 1.000000; stroke-width: 5.0; stroke: rgb(251,106,74); fill: none"  />
<path d="M 1853.6,2345.8 L 1837.5,2306.4 1821.9,2266.3 1806.8,2225.7 1792.4,2184.5 1778.6,2142.8 1765.5,2100.7 1753.2,2058.0 1741.7,2015.0 1731.1,1971.6 1721.3,1927.8 1712.5,1883.8 1704.6,1839.4 1697.7,1794.8 1691.8,1750.0 1686.9,1705.1 1683.0,1660.0 1680.2,1614.7 1678.4,1569.4 1677.7,1524.1 1678.1,1478.7 1679.5,1433.4 1682.0,1388.1 1685.5,1343.0 1690.1,1297.9 1695.7,1253.0 1702.3,1208.3 1710.0,1163.9 1718.5,1119.6 1728.1,1075.7 1738.5,1032.1 1749.9,988.9 1762.0,946.0 1775.0,903.6 1788.7,861.7 1803.2,820.2 1818.3,779.3 1834.0,738.9 1850.2,699.1 1867.0,659.9  " style="stroke-opacity: 1.000000; stroke-width: 5.0; stroke: rgb(251,106,74); fill: none"  />
<path d="M 804.9,2097.7 L 834.8,2072.6 865.5,2048.0 897.1,2024.2 929.3,2001.2 962.2,1979.2 995.7,1958.3 1029.8,1938.6 1064.4,1920.2 1099.5,1903.1 1135.0,1887.5 1170.8,1873.5 1206.9,1861.1 1243.3,1850.3 1279.9,1841.2 1316.7,1834.0 1353.6,1828.5 1390.5,1824.9 1427.5,1823.1 1464.4,1823.1 1501.3,1825.1 1538.0,1828.9 1574.6,1834.6 1611.0,1842.1 1647.1,1851.4 1682.9,1862.5 1718.3,1875.4 1753.4,1889.9 1788.0,1906.1 1822.2,1923.8 1855.8,1943.1 1888.9,1963.7 1921.3,1985.7 1953.1,2008.9 1984.3,2033.3 2014.7,2058.6 2044.3,2084.8 2073.2,2111.9 2101.2,2139.5 2128.3,2167.6  " style="stroke-opacity: 1.000000; stroke-width: 5.0; stroke: rgb(251,106,74); fill: none"  />
<path d="M 1696.9,2395.4 L 1689.1,2360.8 1681.1,2326.5 1672.8,2292.8 1664.2,2259.9 1655.4,2228.0 1646.5,2197.3 1637.3,2168.0 1628.0,2140.3 1618.6,2114.4 1609.1,2090.4 1599.5,2068.4 1589.9,2048.6 1580.2,2031.0 1570.5,2015.9 1560.8,2003.2 1551.1,1993.0 1541.5,1985.4 1531.9,1980.4 1522.4,1978.1 1513.0,1978.5 1503.7,1981.5 1494.5,1987.1 1485.4,1995.4 1476.5,2006.3 1467.8,2019.7 1459.2,2035.5 1450.9,2053.7 1442.7,2074.2 1434.8,2096.8 1427.1,2121.5 1419.6,2148.1 1412.4,2176.4 1405.4,2206.2 1398.8,2237.5 1392.4,2270.0 1386.3,2303.4 1380.5,2337.7 1374.9,2372.4 1369.8,2407.5  " style="stroke-opacity: 1.000000; stroke-width: 5.0; stroke: rgb(251,106,74); fill: none"  />
<path d="M 1696.9,2395.4 L 1689.0,2360.6 1680.7,2326.1 1671.9,2292.1 1662.6,2258.9 1653.0,2226.7 1642.9,2195.7 1632.5,2166.0 1621.6,2137.9 1610.4,2111.5 1598.9,2086.9 1587.0,2064.4 1574.8,2044.0 1562.3,2025.7 1549.6,2009.8 1536.6,1996.3 1523.3,1985.3 1509.8,1976.8 1496.2,1970.9 1482.3,1967.5 1468.3,1966.8 1454.2,1968.7 1440.0,1973.1 1425.7,1980.2 1411.3,1989.7 1397.0,2001.8 1382.6,2016.2 1368.3,2033.0 1354.0,2052.1 1339.8,2073.3 1325.7,2096.4 1311.8,2121.5 1298.1,2148.3 1284.5,2176.7 1271.3,2206.5 1258.3,2237.5 1245.6,2269.6 1233.3,2302.4 1221.3,2335.8 1209.8,2369.6  " style="stroke-opacity: 1.000000; stroke-width: 5.0; stroke: rgb(251,106,74); fill: none"  />
<path d="M 2245.9,967.0 L 2215.0,989.7 2184.5,1013.2 2154.6,1037.6 2125.5,1062.9 2097.2,1088.9 2070.0,1115.7 2043.9,1143.3 2019.1,1171.5 1995.7,1200.4 1973.8,1230.0 1953.5,1260.1 1934.8,1290.8 1917.9,1322.0 1902.8,1353.7 1889.6,1385.9 1878.3,1418.4 1869.0,1451.3 1861.6,1484.5 1856.3,1517.9 1853.0,1551.6 1851.7,1585.5 1852.5,1619.4 1855.3,1653.5 1860.1,1687.6 1866.8,1721.7 1875.4,1755.7 1886.0,1789.6 1898.3,1823.4 1912.4,1856.9 1928.2,1890.1 1945.5,1923.0 1964.3,1955.5 1984.6,1987.6 2006.1,2019.2 2028.7,2050.2 2052.4,2080.7 2077.0,2110.4 2102.3,2139.4 2128.3,2167.6  " style="stroke-opacity: 1.000000; stroke-width: 5.0; stroke: rgb(251,106,74); fill: none"  />
</g>
<g id="track_0">
<path d="M 2322.8,1904.3 L 2291.1,1888.8 2259.6,1873.6 2228.4,1858.8 2197.8,1844.5 2168.1,1830.9 2139.3,1817.9 2111.6,1805.8 2085.2,1794.7 2060.3,1784.5 2037.0,1775.4 2015.5,1767.4 1995.7,1760.6 1977.9,1755.1 1962.1,1750.8 1948.4,1747.9 1936.9,1746.4 1927.6,1746.2 1920.5,1747.5 1915.7,1750.1 1913.3,1754.2 1913.1,1759.6 1915.3,1766.4 1919.7,1774.6 1926.4,1784.2 1935.2,1795.0 1946.3,1807.1 1959.4,1820.3 1974.5,1834.8 1991.5,1850.3 2010.3,1866.8 2030.8,1884.2 2052.8,1902.4 2076.3,1921.5 2101.0,1941.1 2126.8,1961.3 2153.6,1981.8 2181.1,2002.7 2209.1,2023.7 2237.4,2044.7  " style="stroke-opacity: 1.000000; stroke-width: 5.0; stroke: rgb(107,174,214); fill: none"  />
<path d="M 2322.8,1904.3 L 2290.9,1888.8 2259.1,1873.8 2227.6,1859.3 2196.5,1845.4 2166.1,1832.4 2136.5,1820.3 2107.9,1809.2 2080.5,1799.2 2054.3,1790.3 2029.6,1782.8 2006.4,1776.6 1984.9,1771.8 1965.2,1768.4 1947.3,1766.5 1931.3,1766.2 1917.3,1767.4 1905.4,1770.2 1895.5,1774.6 1887.8,1780.6 1882.2,1788.2 1878.7,1797.3 1877.4,1808.1 1878.2,1820.3 1881.2,1834.0 1886.2,1849.2 1893.3,1865.8 1902.3,1883.6 1913.2,1902.8 1925.9,1923.1 1940.4,1944.5 1956.5,1966.9 1974.2,1990.2 1993.2,2014.3 2013.5,2039.0 2034.9,2064.2 2057.2,2089.9 2080.4,2115.7 2104.1,2141.7 2128.3,2167.6  " style="stroke-opacity: 1.000000; stroke-width: 5.0; stroke: rgb(107,174,214); fill: none"  />
<path d="M 2322.8,1904.3 L 2290.7,1888.8 2258.5,1873.8 2226.5,1859.5 2194.7,1846.0 2163.5,1833.5 2133.0,1822.0 2103.3,1811.7 2074.6,1802.6 2046.9,1794.9 2020.6,1788.6 1995.5,1783.9 1971.9,1780.6 1949.9,1779.0 1929.5,1779.1 1910.9,1780.9 1894.0,1784.4 1878.9,1789.6 1865.7,1796.6 1854.5,1805.3 1845.2,1815.8 1837.9,1828.0 1832.5,1841.9 1829.1,1857.5 1827.6,1874.7 1828.1,1893.4 1830.4,1913.7 1834.6,1935.3 1840.6,1958.4 1848.3,1982.7 1857.7,2008.1 1868.6,2034.7 1881.0,2062.1 1894.8,2090.4 1909.8,2119.3 1925.9,2148.8 1943.1,2178.7 1961.1,2208.8 1979.7,2239.0 1999.0,2269.1  " style="stroke-opacity: 1.000000; stroke-width: 5.0; stroke: rgb(107,174,214); fill: none"  />
<path d="M 2322.8,1904.3 L 2289.9,1888.5 2256.7,1873.5 2223.4,1859.3 2190.1,1846.2 2157.0,1834.1 2124.3,1823.4 2091.9,1814.0 2060.2,1806.0 2029.1,1799.6 1998.8,1794.9 1969.4,1791.8 1941.1,1790.5 1913.8,1791.1 1887.6,1793.5 1862.8,1797.8 1839.2,1804.0 1817.0,1812.2 1796.2,1822.4 1776.8,1834.4 1759.0,1848.4 1742.6,1864.4 1727.8,1882.2 1714.6,1901.8 1702.9,1923.2 1692.8,1946.3 1684.3,1971.1 1677.2,1997.5 1671.7,2025.4 1667.7,2054.6 1665.1,2085.2 1663.9,2116.9 1664.1,2149.6 1665.5,2183.3 1668.2,2217.7 1672.0,2252.7 1676.9,2288.1 1682.7,2323.9 1689.4,2359.7 1696.9,2395.4  " style="stroke-opacity: 1.000000; stroke-width: 5.0; stroke: rgb(107,174,214); fill: none"  />
<path d="M 1548.4,584.5 L 1546.6,619.7 1545.0,654.7 1543.6,689.2 1542.5,722.9 1541.7,755.7 1541.1,787.2 1540.9,817.4 1540.9,846.0 1541.3,872.9 1542.1,898.0 1543.3,920.9 1544.8,941.8 1546.7,960.3 1549.0,976.5 1551.8,990.2 1554.9,1001.4 1558.4,1010.1 1562.3,1016.1 1566.6,1019.4 1571.3,1020.1 1576.3,1018.1 1581.8,1013.4 1587.6,1006.1 1593.7,996.3 1600.2,983.8 1607.0,969.0 1614.0,951.7 1621.3,932.1 1628.9,910.4 1636.7,886.6 1644.7,860.9 1652.8,833.5 1661.0,804.4 1669.4,774.0 1677.8,742.3 1686.2,709.6 1694.6,676.2 1702.9,642.2 1711.1,607.9  " style="stroke-opacity: 1.000000; stroke-width: 5.0; stroke: rgb(107,174,214); fill: none"  />
<path d="M 1533.9,2416.1 L 1532.4,2380.7 1530.6,2345.6 1528.4,2310.9 1525.9,2277.0 1522.9,2244.1 1519.6,2212.3 1515.8,2181.8 1511.6,2152.9 1507.0,2125.7 1501.9,2100.4 1496.4,2077.0 1490.5,2055.8 1484.1,2036.8 1477.3,2020.2 1470.0,2005.9 1462.3,1994.2 1454.2,1985.0 1445.6,1978.4 1436.7,1974.4 1427.3,1973.1 1417.6,1974.4 1407.6,1978.3 1397.2,1984.9 1386.5,1994.0 1375.5,2005.6 1364.3,2019.6 1352.8,2036.0 1341.1,2054.7 1329.3,2075.6 1317.3,2098.5 1305.2,2123.3 1293.0,2149.8 1280.9,2178.0 1268.7,2207.6 1256.6,2238.4 1244.6,2270.2 1232.8,2302.9 1221.2,2336.1 1209.8,2369.6  " style="stroke-opacity: 1.000000; stroke-width: 5.0; stroke: rgb(107,174,214); fill: none"  />
<path d="M 934.1,778.8 L 956.3,806.7 978.8,834.1 1001.5,860.9 1024.2,886.8 1046.9,911.6 1069.4,935.2 1091.7,957.4 1113.6,978.1 1135.2,997.0 1156.2,1014.1 1176.7,1029.3 1196.6,1042.4 1215.7,1053.4 1234.1,1062.2 1251.7,1068.7 1268.4,1072.9 1284.3,1074.7 1299.2,1074.1 1313.1,1071.1 1326.0,1065.7 1337.9,1057.9 1348.8,1047.7 1358.6,1035.1 1367.4,1020.3 1375.1,1003.2 1381.8,983.9 1387.4,962.6 1392.0,939.2 1395.6,914.0 1398.2,887.0 1399.9,858.4 1400.6,828.3 1400.5,796.8 1399.5,764.2 1397.8,730.6 1395.3,696.2 1392.2,661.3 1388.4,626.0 1384.1,590.6  " style="stroke-opacity: 1.000000; stroke-width: 5.0; stroke: rgb(107,174,214); fill: none"  />
<path d="M 2237.4,2044.7 L 2209.1,2023.7 2181.1,2002.7 2153.6,1981.8 2126.8,1961.3 2101.0,1941.1 2076.3,1921.5 2052.8,1902.4 2030.8,1884.2 2010.3,1866.8 1991.5,1850.3 1974.5,1834.8 1959.4,1820.3 1946.3,1807.1 1935.2,1795.0 1926.4,1784.2 1919.7,1774.6 1915.3,1766.4 1913.1,1759.6 1913.3,1754.2 1915.7,1750.1 1920.5,1747.5 1927.6,1746.2 1936.9,1746.4 1948.4,1747.9 1962.1,1750.8 1977.9,1755.1 1995.7,1760.6 2015.5,1767.4 2037.0,1775.4 2060.3,1784.5 2085.2,1794.7 2111.6,1805.8 2139.3,1817.9 2168.1,1830.9 2197.8,1844.5 2228.4,1858.8 2259.6,1873.6 2291.1,1888.8 2322.8,1904.3  " style="stroke-opacity: 1.000000; stroke-width: 5.0; stroke: rgb(107,174,214); fill: none"  />
<path d="M 2237.4,2044.7 L 2209.0,2023.8 2180.7,2003.2 2152.6,1983.1 2125.1,1963.6 2098.3,1944.8 2072.2,1927.0 2047.2,1910.1 2023.2,1894.4 2000.5,1880.0 1979.2,1866.8 1959.4,1855.1 1941.2,1844.9 1924.7,1836.3 1909.9,1829.3 1896.9,1824.0 1885.9,1820.4 1876.7,1818.6 1869.6,1818.6 1864.4,1820.3 1861.3,1823.9 1860.1,1829.2 1861.0,1836.3 1863.9,1845.2 1868.8,1855.7 1875.6,1868.0 1884.3,1881.8 1894.8,1897.2 1907.1,1914.1 1921.0,1932.4 1936.6,1952.0 1953.7,1972.8 1972.1,1994.7 1991.8,2017.6 2012.6,2041.3 2034.4,2065.8 2057.1,2090.8 2080.4,2116.2 2104.2,2141.9 2128.3,2167.6  " style="stroke-opacity: 1.000000; stroke-width: 5.0; stroke: rgb(107,174,214); fill: none"  />
<path d="M 2237.4,2044.7 L 2208.8,2023.8 2180.2,2003.3 2151.7,1983.4 2123.6,1964.2 2096.0,1946.0 2069.1,1928.8 2042.9,1912.7 2017.7,1898.0 1993.6,1884.6 1970.6,1872.8 1948.9,1862.6 1928.6,1854.0 1909.8,1847.1 1892.5,1842.1 1876.8,1838.9 1862.9,1837.6 1850.6,1838.2 1840.1,1840.8 1831.4,1845.3 1824.6,1851.8 1819.5,1860.2 1816.3,1870.5 1815.0,1882.7 1815.4,1896.7 1817.7,1912.5 1821.6,1930.1 1827.3,1949.3 1834.6,1970.1 1843.6,1992.4 1854.0,2016.0 1865.8,2040.9 1879.0,2067.0 1893.5,2094.1 1909.0,2122.0 1925.5,2150.7 1943.0,2179.9 1961.1,2209.5 1979.8,2239.3 1999.0,2269.1  " style="stroke-opacity: 1.000000; stroke-width: 5.0; stroke: rgb(107,174,214); fill: none"  />
<path d="M 2237.4,2044.7 L 2208.5,2023.7 2179.6,2003.2 2150.6,1983.4 2121.8,1964.5 2093.3,1946.6 2065.3,1929.9 2038.0,1914.4 2011.3,1900.3 1985.5,1887.8 1960.7,1876.9 1936.9,1867.8 1914.2,1860.4 1892.9,1854.9 1872.8,1851.3 1854.1,1849.7 1836.9,1850.1 1821.1,1852.6 1806.9,1857.1 1794.3,1863.7 1783.3,1872.4 1773.9,1883.1 1766.1,1895.8 1759.9,1910.5 1755.4,1927.1 1752.5,1945.7 1751.2,1966.0 1751.5,1988.1 1753.3,2011.8 1756.5,2037.1 1761.2,2063.8 1767.2,2091.9 1774.5,2121.1 1783.0,2151.4 1792.6,2182.6 1803.2,2214.5 1814.8,2246.9 1827.1,2279.8 1840.1,2312.8 1853.6,2345.8  " style="stroke-opacity: 1.000000; stroke-width: 5.0; stroke: rgb(107,174,214); fill: none"  />
<path d="M 2237.4,2044.7 L 2208.2,2023.6 2178.8,2003.0 2149.2,1983.2 2119.6,1964.4 2090.2,1946.6 2061.1,1930.1 2032.4,1915.0 2004.2,1901.4 1976.6,1889.4 1949.7,1879.1 1923.7,1870.6 1898.6,1864.0 1874.4,1859.3 1851.4,1856.7 1829.5,1856.1 1808.7,1857.6 1789.2,1861.2 1771.1,1867.0 1754.2,1874.9 1738.7,1884.9 1724.7,1897.1 1712.0,1911.4 1700.7,1927.7 1690.9,1946.0 1682.5,1966.2 1675.5,1988.4 1670.0,2012.3 1665.8,2037.9 1662.9,2065.2 1661.4,2093.9 1661.1,2124.0 1662.0,2155.3 1664.1,2187.7 1667.3,2221.0 1671.5,2255.1 1676.7,2289.8 1682.7,2324.8 1689.5,2360.1 1696.9,2395.4  " style="stroke-opacity: 1.000000; stroke-width: 5.0; stroke: rgb(107,174,214); fill: none"  />
<path d="M 1711.1,607.9 L 1702.9,642.2 1694.6,676.2 1686.2,709.6 1677.8,742.3 1669.4,774.0 1661.0,804.4 1652.8,833.5 1644.7,860.9 1636.7,886.6 1628.9,910.4 1621.3,932.1 1614.0,951.7 1607.0,969.0 1600.2,983.8 1593.7,996.3 1587.6,1006.1 1581.8,1013.4 1576.3,1018.1 1571.3,1020.1 1566.6,1019.4 1562.3,1016.1 1558.4,1010.1 1554.9,1001.4 1551.8,990.2 1549.0,976.5 1546.7,960.3 1544.8,941.8 1543.3,920.9 1542.1,898.0 1541.3,872.9 1540.9,846.0 1540.9,817.4 1541.1,787.2 1541.7,755.7 1542.5,722.9 1543.6,689.2 1545.0,654.7 1546.6,619.7 1548.4,584.5  " style="stroke-opacity: 1.000000; stroke-width: 5.0; stroke: rgb(107,174,214); fill: none"  />
<path d="M 1711.1,607.9 L 1703.1,642.4 1695.5,676.7 1688.3,710.7 1681.8,744.1 1675.8,776.6 1670.6,808.2 1666.1,838.5 1662.5,867.5 1659.7,895.0 1657.8,920.7 1656.9,944.7 1657.0,966.8 1658.1,986.8 1660.3,1004.6 1663.5,1020.3 1667.8,1033.6 1673.2,1044.7 1679.7,1053.3 1687.3,1059.5 1695.9,1063.3 1705.6,1064.6 1716.3,1063.5 1728.1,1060.0 1740.8,1054.0 1754.5,1045.8 1769.1,1035.2 1784.5,1022.4 1800.7,1007.5 1817.7,990.6 1835.4,971.7 1853.6,951.0 1872.4,928.6 1891.6,904.7 1911.2,879.5 1931.0,853.0 1951.1,825.5 1971.2,797.2 1991.2,768.2 2011.1,738.9  " style="stroke-opacity: 1.000000; stroke-width: 5.0; stroke: rgb(107,174,214); fill: none"  />
<path d="M 1711.1,607.9 L 1703.1,642.6 1695.6,677.3 1688.8,711.8 1682.8,745.7 1677.5,778.9 1673.1,811.2 1669.6,842.5 1667.2,872.5 1665.8,901.1 1665.6,928.3 1666.5,953.7 1668.6,977.4 1671.9,999.3 1676.5,1019.1 1682.4,1036.9 1689.6,1052.6 1698.0,1066.1 1707.8,1077.4 1718.8,1086.4 1731.1,1093.2 1744.6,1097.6 1759.4,1099.8 1775.3,1099.6 1792.4,1097.2 1810.6,1092.6 1829.8,1085.8 1850.0,1076.9 1871.1,1066.0 1893.1,1053.0 1915.8,1038.2 1939.2,1021.7 1963.2,1003.5 1987.7,983.8 2012.6,962.7 2037.8,940.4 2063.1,917.0 2088.5,892.8 2113.7,867.8 2138.8,842.4  " style="stroke-opacity: 1.000000; stroke-width: 5.0; stroke: rgb(107,174,214); fill: none"  />
<path d="M 2128.3,2167.6 L 2104.1,2141.7 2080.4,2115.7 2057.2,2089.9 2034.9,2064.2 2013.5,2039.0 1993.2,2014.3 1974.2,1990.2 1956.5,1966.9 1940.4,1944.5 1925.9,1923.1 1913.2,1902.8 1902.3,1883.6 1893.3,1865.8 1886.2,1849.2 1881.2,1834.0 1878.2,1820.3 1877.4,1808.1 1878.7,1797.3 1882.2,1788.2 1887.8,1780.6 1895.5,1774.6 1905.4,1770.2 1917.3,1767.4 1931.3,1766.2 1947.3,1766.5 1965.2,1768.4 1984.9,1771.8 2006.4,1776.6 2029.6,1782.8 2054.3,1790.3 2080.5,1799.2 2107.9,1809.2 2136.5,1820.3 2166.1,1832.4 2196.5,1845.4 2227.6,1859.3 2259.1,1873.8 2290.9,1888.8 2322.8,1904.3  " style="stroke-opacity: 1.000000; stroke-width: 5.0; stroke: rgb(107,174,214); fill: none"  />
<path d="M 2128.3,2167.6 L 2104.2,2141.9 2080.4,2116.2 2057.1,2090.8 2034.4,2065.8 2012.6,2041.3 1991.8,2017.6 1972.1,1994.7 1953.7,1972.8 1936.6,1952.0 1921.0,1932.4 1907.1,1914.1 1894.8,1897.2 1884.3,1881.8 1875.6,1868.0 1868.8,1855.7 1863.9,1845.2 1861.0,1836.3 1860.1,1829.2 1861.3,1823.9 1864.4,1820.3 1869.6,1818.6 1876.7,1818.6 1885.9,1820.4 1896.9,1824.0 1909.9,1829.3 1924.7,1836.3 1941.2,1844.9 1959.4,1855.1 1979.2,1866.8 2000.5,1880.0 2023.2,1894.4 2047.2,1910.1 2072.2,1927.0 2098.3,1944.8 2125.1,1963.6 2152.6,1983.1 2180.7,2003.2 2209.0,2023.8 2237.4,2044.7  " style="stroke-opacity: 1.000000; stroke-width: 5.0; stroke: rgb(107,174,214); fill: none"  />
<path d="M 2128.3,2167.6 L 2104.0,2142.0 2079.9,2116.7 2055.9,2091.9 2032.3,2067.8 2009.2,2044.5 1986.8,2022.3 1965.1,2001.2 1944.4,1981.5 1924.7,1963.2 1906.0,1946.5 1888.6,1931.4 1872.5,1918.2 1857.8,1906.7 1844.5,1897.2 1832.7,1889.7 1822.4,1884.2 1813.8,1880.8 1806.7,1879.4 1801.3,1880.2 1797.6,1883.2 1795.6,1888.2 1795.2,1895.4 1796.4,1904.6 1799.3,1915.9 1803.8,1929.1 1809.9,1944.3 1817.5,1961.3 1826.6,1980.1 1837.1,2000.6 1848.9,2022.7 1861.9,2046.2 1876.2,2071.0 1891.5,2097.1 1907.7,2124.1 1924.8,2152.1 1942.6,2180.8 1961.0,2209.9 1979.8,2239.4 1999.0,2269.1  " style="stroke-opacity: 1.000000; stroke-width: 5.0; stroke: rgb(107,174,214); fill: none"  />
<path d="M 2128.3,2167.6 L 2103.9,2141.9 2079.4,2116.7 2055.0,2092.0 2030.7,2068.1 2006.8,2045.2 1983.4,2023.5 1960.5,2003.0 1938.3,1984.0 1917.0,1966.6 1896.5,1950.8 1877.0,1936.9 1858.5,1924.8 1841.2,1914.7 1825.1,1906.7 1810.3,1900.8 1796.8,1897.0 1784.6,1895.4 1773.8,1896.1 1764.5,1899.0 1756.5,1904.1 1750.1,1911.5 1745.1,1921.0 1741.6,1932.8 1739.5,1946.7 1738.9,1962.6 1739.7,1980.6 1741.8,2000.5 1745.3,2022.3 1750.1,2045.8 1756.2,2070.9 1763.4,2097.6 1771.7,2125.5 1781.1,2154.8 1791.4,2185.0 1802.5,2216.2 1814.4,2248.0 1827.0,2280.4 1840.1,2313.1 1853.6,2345.8  " style="stroke-opacity: 1.000000; stroke-width: 5.0; stroke: rgb(107,174,214); fill: none"  />
<path d="M 2128.3,2167.6 L 2103.6,2141.8 2078.8,2116.5 2053.8,2091.8 2028.9,2068.1 2004.1,2045.4 1979.5,2023.9 1955.3,2003.8 1931.6,1985.2 1908.4,1968.3 1885.9,1953.1 1864.2,1939.9 1843.2,1928.6 1823.2,1919.3 1804.1,1912.2 1786.0,1907.3 1768.9,1904.7 1753.0,1904.3 1738.2,1906.2 1724.6,1910.4 1712.2,1917.0 1701.1,1925.8 1691.1,1936.9 1682.5,1950.3 1675.1,1965.9 1668.9,1983.6 1664.0,2003.4 1660.3,2025.2 1657.8,2048.8 1656.5,2074.3 1656.3,2101.4 1657.2,2130.1 1659.2,2160.1 1662.1,2191.4 1666.0,2223.8 1670.8,2257.1 1676.3,2291.1 1682.6,2325.6 1689.5,2360.5 1696.9,2395.4  " style="stroke-opacity: 1.000000; stroke-width: 5.0; stroke: rgb(107,174,214); fill: none"  />
<path d="M 1369.8,2407.5 L 1374.7,2372.5 1379.4,2337.8 1383.8,2303.6 1388.0,2270.2 1391.8,2237.6 1395.2,2206.2 1398.1,2176.2 1400.6,2147.7 1402.6,2120.8 1404.1,2095.8 1405.0,2072.9 1405.3,2052.0 1405.1,2033.3 1404.2,2017.0 1402.8,2003.1 1400.7,1991.6 1397.9,1982.7 1394.6,1976.4 1390.6,1972.7 1386.0,1971.6 1380.8,1973.1 1374.9,1977.3 1368.5,1984.0 1361.5,1993.3 1354.0,2005.1 1345.9,2019.3 1337.3,2035.9 1328.2,2054.7 1318.8,2075.7 1308.9,2098.6 1298.6,2123.5 1288.1,2150.1 1277.3,2178.3 1266.2,2207.9 1255.0,2238.7 1243.7,2270.5 1232.4,2303.1 1221.1,2336.2 1209.8,2369.6  " style="stroke-opacity: 1.000000; stroke-width: 5.0; stroke: rgb(107,174,214); fill: none"  />
<path d="M 1999.0,2269.1 L 1979.7,2239.0 1961.1,2208.8 1943.1,2178.7 1925.9,2148.8 1909.8,2119.3 1894.8,2090.4 1881.0,2062.1 1868.6,2034.7 1857.7,2008.1 1848.3,1982.7 1840.6,1958.4 1834.6,1935.3 1830.4,1913.7 1828.1,1893.4 1827.6,1874.7 1829.1,1857.5 1832.5,1841.9 1837.9,1828.0 1845.2,1815.8 1854.5,1805.3 1865.7,1796.6 1878.9,1789.6 1894.0,1784.4 1910.9,1780.9 1929.5,1779.1 1949.9,1779.0 1971.9,1780.6 1995.5,1783.9 2020.6,1788.6 2046.9,1794.9 2074.6,1802.6 2103.3,1811.7 2133.0,1822.0 2163.5,1833.5 2194.7,1846.0 2226.5,1859.5 2258.5,1873.8 2290.7,1888.8 2322.8,1904.3  " style="stroke-opacity: 1.000000; stroke-width: 5.0; stroke: rgb(107,174,214); fill: none"  />
<path d="M 1999.0,2269.1 L 1979.8,2239.3 1961.1,2209.5 1943.0,2179.9 1925.5,2150.7 1909.0,2122.0 1893.5,2094.1 1879.0,2067.0 1865.8,2040.9 1854.0,2016.0 1843.6,1992.4 1834.6,1970.1 1827.3,1949.3 1821.6,1930.1 1817.7,1912.5 1815.4,1896.7 1815.0,1882.7 1816.3,1870.5 1819.5,1860.2 1824.6,1851.8 1831.4,1845.3 1840.1,1840.8 1850.6,1838.2 1862.9,1837.6 1876.8,1838.9 1892.5,1842.1 1909.8,1847.1 1928.6,1854.0 1948.9,1862.6 1970.6,1872.8 1993.6,1884.6 2017.7,1898.0 2042.9,1912.7 2069.1,1928.8 2096.0,1946.0 2123.6,1964.2 2151.7,1983.4 2180.2,2003.3 2208.8,2023.8 2237.4,2044.7  " style="stroke-opacity: 1.000000; stroke-width: 5.0; stroke: rgb(107,174,214); fill: none"  />
<path d="M 1999.0,2269.1 L 1979.8,2239.4 1961.0,2209.9 1942.6,2180.8 1924.8,2152.1 1907.7,2124.1 1891.5,2097.1 1876.2,2071.0 1861.9,2046.2 1848.9,2022.7 1837.1,2000.6 1826.6,1980.1 1817.5,1961.3 1809.9,1944.3 1803.8,1929.1 1799.3,1915.9 1796.4,1904.6 1795.2,1895.4 1795.6,1888.2 1797.6,1883.2 1801.3,1880.2 1806.7,1879.4 1813.8,1880.8 1822.4,1884.2 1832.7,1889.7 1844.5,1897.2 1857.8,1906.7 1872.5,1918.2 1888.6,1931.4 1906.0,1946.5 1924.7,1963.2 1944.4,1981.5 1965.1,2001.2 1986.8,2022.3 2009.2,2044.5 2032.3,2067.8 2055.9,2091.9 2079.9,2116.7 2104.0,2142.0 2128.3,2167.6  " style="stroke-opacity: 1.000000; stroke-width: 5.0; stroke: rgb(107,174,214); fill: none"  />
<path d="M 1999.0,2269.1 L 1979.5,2239.4 1960.0,2210.2 1940.3,2181.6 1920.7,2153.8 1901.3,2127.0 1882.1,2101.4 1863.3,2077.2 1844.9,2054.5 1826.9,2033.5 1809.6,2014.4 1792.9,1997.2 1776.9,1982.0 1761.7,1969.0 1747.3,1958.2 1733.7,1949.7 1721.1,1943.6 1709.4,1939.9 1698.7,1938.6 1689.0,1939.8 1680.3,1943.4 1672.6,1949.5 1666.0,1958.0 1660.4,1969.0 1655.9,1982.3 1652.4,1997.9 1650.0,2015.7 1648.6,2035.7 1648.1,2057.7 1648.6,2081.7 1650.1,2107.5 1652.4,2135.0 1655.6,2164.0 1659.6,2194.4 1664.4,2226.0 1669.8,2258.7 1675.8,2292.2 1682.4,2326.3 1689.5,2360.7 1696.9,2395.4  " style="stroke-opacity: 1.000000; stroke-width: 5.0; stroke: rgb(107,174,214); fill: none"  />
<path d="M 1384.1,590.6 L 1388.4,626.0 1392.2,661.3 1395.3,696.2 1397.8,730.6 1399.5,764.2 1400.5,796.8 1400.6,828.3 1399.9,858.4 1398.2,887.0 1395.6,914.0 1392.0,939.2 1387.4,962.6 1381.8,983.9 1375.1,1003.2 1367.4,1020.3 1358.6,1035.1 1348.8,1047.7 1337.9,1057.9 1326.0,1065.7 1313.1,1071.1 1299.2,1074.1 1284.3,1074.7 1268.4,1072.9 1251.7,1068.7 1234.1,1062.2 1215.7,1053.4 1196.6,1042.4 1176.7,1029.3 1156.2,1014.1 1135.2,997.0 1113.6,978.1 1091.7,957.4 1069.4,935.2 1046.9,911.6 1024.2,886.8 1001.5,860.9 978.8,834.1 956.3,806.7 934.1,778.8  " style="stroke-opacity: 1.000000; stroke-width: 5.0; stroke: rgb(107,174,214); fill: none"  />
<path d="M 1209.8,2369.6 L 1221.2,2336.1 1232.8,2302.9 1244.6,2270.2 1256.6,2238.4 1268.7,2207.6 1280.9,2178.0 1293.0,2149.8 1305.2,2123.3 1317.3,2098.5 1329.3,2075.6 1341.1,2054.7 1352.8,2036.0 1364.3,2019.6 1375.5,2005.6 1386.5,1994.0 1397.2,1984.9 1407.6,1978.3 1417.6,1974.4 1427.3,1973.1 1436.7,1974.4 1445.6,1978.4 1454.2,1985.0 1462.3,1994.2 1470.0,2005.9 1477.3,2020.2 1484.1,2036.8 1490.5,2055.8 1496.4,2077.0 1501.9,2100.4 1507.0,2125.7 1511.6,2152.9 1515.8,2181.8 1519.6,2212.3 1522.9,2244.1 1525.9,2277.0 1528.4,2310.9 1530.6,2345.6 1532.4,2380.7 1533.9,2416.1  " style="stroke-opacity: 1.000000; stroke-width: 5.0; stroke: rgb(107,174,214); fill: none"  />
<path d="M 1209.8,2369.6 L 1221.1,2336.2 1232.4,2303.1 1243.7,2270.5 1255.0,2238.7 1266.2,2207.9 1277.3,2178.3 1288.1,2150.1 1298.6,2123.5 1308.9,2098.6 1318.8,2075.7 1328.2,2054.7 1337.3,2035.9 1345.9,2019.3 1354.0,2005.1 1361.5,1993.3 1368.5,1984.0 1374.9,1977.3 1380.8,1973.1 1386.0,1971.6 1390.6,1972.7 1394.6,1976.4 1397.9,1982.7 1400.7,1991.6 1402.8,2003.1 1404.2,2017.0 1405.1,2033.3 1405.3,2052.0 1405.0,2072.9 1404.1,2095.8 1402.6,2120.8 1400.6,2147.7 1398.1,2176.2 1395.2,2206.2 1391.8,2237.6 1388.0,2270.2 1383.8,2303.6 1379.4,2337.8 1374.7,2372.5 1369.8,2407.5  " style="stroke-opacity: 1.000000; stroke-width: 5.0; stroke: rgb(107,174,214); fill: none"  />
<path d="M 2011.1,738.9 L 1991.2,768.2 1971.2,797.2 1951.1,825.5 1931.0,853.0 1911.2,879.5 1891.6,904.7 1872.4,928.6 1853.6,951.0 1835.4,971.7 1817.7,990.6 1800.7,1007.5 1784.5,1022.4 1769.1,1035.2 1754.5,1045.8 1740.8,1054.0 1728.1,1060.0 1716.3,1063.5 1705.6,1064.6 1695.9,1063.3 1687.3,1059.5 1679.7,1053.3 1673.2,1044.7 1667.8,1033.6 1663.5,1020.3 1660.3,1004.6 1658.1,986.8 1657.0,966.8 1656.9,944.7 1657.8,920.7 1659.7,895.0 1662.5,867.5 1666.1,838.5 1670.6,808.2 1675.8,776.6 1681.8,744.1 1688.3,710.7 1695.5,676.7 1703.1,642.4 1711.1,607.9  " style="stroke-opacity: 1.000000; stroke-width: 5.0; stroke: rgb(107,174,214); fill: none"  />
<path d="M 2011.1,738.9 L 1991.5,768.4 1972.3,797.9 1953.7,827.2 1935.8,856.2 1918.8,884.6 1902.8,912.3 1888.0,939.1 1874.4,964.9 1862.1,989.7 1851.3,1013.1 1842.0,1035.3 1834.4,1055.9 1828.4,1075.1 1824.1,1092.5 1821.7,1108.3 1821.0,1122.4 1822.2,1134.6 1825.2,1144.9 1830.1,1153.4 1836.9,1160.0 1845.5,1164.6 1855.9,1167.3 1868.2,1168.2 1882.2,1167.1 1897.9,1164.2 1915.2,1159.4 1934.2,1152.9 1954.6,1144.6 1976.4,1134.7 1999.6,1123.2 2024.0,1110.3 2049.4,1095.9 2075.8,1080.3 2103.0,1063.5 2130.9,1045.7 2159.3,1027.0 2188.1,1007.5 2217.0,987.5 2245.9,967.0  " style="stroke-opacity: 1.000000; stroke-width: 5.0; stroke: rgb(107,174,214); fill: none"  />
<path d="M 2138.8,842.4 L 2113.7,867.8 2088.5,892.8 2063.1,917.0 2037.8,940.4 2012.6,962.7 1987.7,983.8 1963.2,1003.5 1939.2,1021.7 1915.8,1038.2 1893.1,1053.0 1871.1,1066.0 1850.0,1076.9 1829.8,1085.8 1810.6,1092.6 1792.4,1097.2 1775.3,1099.6 1759.4,1099.8 1744.6,1097.6 1731.1,1093.2 1718.8,1086.4 1707.8,1077.4 1698.0,1066.1 1689.6,1052.6 1682.4,1036.9 1676.5,1019.1 1671.9,999.3 1668.6,977.4 1666.5,953.7 1665.6,928.3 1665.8,901.1 1667.2,872.5 1669.6,842.5 1673.1,811.2 1677.5,778.9 1682.8,745.7 1688.8,711.8 1695.6,677.3 1703.1,642.6 1711.1,607.9  " style="stroke-opacity: 1.000000; stroke-width: 5.0; stroke: rgb(107,174,214); fill: none"  />
<path d="M 1853.6,2345.8 L 1840.1,2312.8 1827.1,2279.8 1814.8,2246.9 1803.2,2214.5 1792.6,2182.6 1783.0,2151.4 1774.5,2121.1 1767.2,2091.9 1761.2,2063.8 1756.5,2037.1 1753.3,2011.8 1751.5,1988.1 1751.2,1966.0 1752.5,1945.7 1755.4,1927.1 1759.9,1910.5 1766.1,1895.8 1773.9,1883.1 1783.3,1872.4 1794.3,1863.7 1806.9,1857.1 1821.1,1852.6 1836.9,1850.1 1854.1,1849.7 1872.8,1851.3 1892.9,1854.9 1914.2,1860.4 1936.9,1867.8 1960.7,1876.9 1985.5,1887.8 2011.3,1900.3 2038.0,1914.4 2065.3,1929.9 2093.3,1946.6 2121.8,1964.5 2150.6,1983.4 2179.6,2003.2 2208.5,2023.7 2237.4,2044.7  " style="stroke-opacity: 1.000000; stroke-width: 5.0; stroke: rgb(107,174,214); fill: none"  />
<path d="M 1853.6,2345.8 L 1840.1,2313.1 1827.0,2280.4 1814.4,2248.0 1802.5,2216.2 1791.4,2185.0 1781.1,2154.8 1771.7,2125.5 1763.4,2097.6 1756.2,2070.9 1750.1,2045.8 1745.3,2022.3 1741.8,2000.5 1739.7,1980.6 1738.9,1962.6 1739.5,1946.7 1741.6,1932.8 1745.1,1921.0 1750.1,1911.5 1756.5,1904.1 1764.5,1899.0 1773.8,1896.1 1784.6,1895.4 1796.8,1897.0 1810.3,1900.8 1825.1,1906.7 1841.2,1914.7 1858.5,1924.8 1877.0,1936.9 1896.5,1950.8 1917.0,1966.6 1938.3,1984.0 1960.5,2003.0 1983.4,2023.5 2006.8,2045.2 2030.7,2068.1 2055.0,2092.0 2079.4,2116.7 2103.9,2141.9 2128.3,2167.6  " style="stroke-opacity: 1.000000; stroke-width: 5.0; stroke: rgb(107,174,214); fill: none"  />
<path d="M 1696.9,2395.4 L 1689.4,2359.7 1682.7,2323.9 1676.9,2288.1 1672.0,2252.7 1668.2,2217.7 1665.5,2183.3 1664.1,2149.6 1663.9,2116.9 1665.1,2085.2 1667.7,2054.6 1671.7,2025.4 1677.2,1997.5 1684.3,1971.1 1692.8,1946.3 1702.9,1923.2 1714.6,1901.8 1727.8,1882.2 1742.6,1864.4 1759.0,1848.4 1776.8,1834.4 1796.2,1822.4 1817.0,1812.2 1839.2,1804.0 1862.8,1797.8 1887.6,1793.5 1913.8,1791.1 1941.1,1790.5 1969.4,1791.8 1998.8,1794.9 2029.1,1799.6 2060.2,1806.0 2091.9,1814.0 2124.3,1823.4 2157.0,1834.1 2190.1,1846.2 2223.4,1859.3 2256.7,1873.5 2289.9,1888.5 2322.8,1904.3  " style="stroke-opacity: 1.000000; stroke-width: 5.0; stroke: rgb(107,174,214); fill: none"  />
<path d="M 1696.9,2395.4 L 1689.5,2360.1 1682.7,2324.8 1676.7,2289.8 1671.5,2255.1 1667.3,2221.0 1664.1,2187.7 1662.0,2155.3 1661.1,2124.0 1661.4,2093.9 1662.9,2065.2 1665.8,2037.9 1670.0,2012.3 1675.5,1988.4 1682.5,1966.2 1690.9,1946.0 1700.7,1927.7 1712.0,1911.4 1724.7,1897.1 1738.7,1884.9 1754.2,1874.9 1771.1,1867.0 1789.2,1861.2 1808.7,1857.6 1829.5,1856.1 1851.4,1856.7 1874.4,1859.3 1898.6,1864.0 1923.7,1870.6 1949.7,1879.1 1976.6,1889.4 2004.2,1901.4 2032.4,1915.0 2061.1,1930.1 2090.2,1946.6 2119.6,1964.4 2149.2,1983.2 2178.8,2003.0 2208.2,2023.6 2237.4,2044.7  " style="stroke-opacity: 1.000000; stroke-width: 5.0; stroke: rgb(107,174,214); fill: none"  />
<path d="M 1696.9,2395.4 L 1689.5,2360.5 1682.6,2325.6 1676.3,2291.1 1670.8,2257.1 1666.0,2223.8 1662.1,2191.4 1659.2,2160.1 1657.2,2130.1 1656.3,2101.4 1656.5,2074.3 1657.8,2048.8 1660.3,2025.2 1664.0,2003.4 1668.9,1983.6 1675.1,1965.9 1682.5,1950.3 1691.1,1936.9 1701.1,1925.8 1712.2,1917.0 1724.6,1910.4 1738.2,1906.2 1753.0,1904.3 1768.9,1904.7 1786.0,1907.3 1804.1,1912.2 1823.2,1919.3 1843.2,1928.6 1864.2,1939.9 1885.9,1953.1 1908.4,1968.3 1931.6,1985.2 1955.3,2003.8 1979.5,2023.9 2004.1,2045.4 2028.9,2068.1 2053.8,2091.8 2078.8,2116.5 2103.6,2141.8 2128.3,2167.6  " style="stroke-opacity: 1.000000; stroke-width: 5.0; stroke: rgb(107,174,214); fill: none"  />
<path d="M 1696.9,2395.4 L 1689.5,2360.7 1682.4,2326.3 1675.8,2292.2 1669.8,2258.7 1664.4,2226.0 1659.6,2194.4 1655.6,2164.0 1652.4,2135.0 1650.1,2107.5 1648.6,2081.7 1648.1,2057.7 1648.6,2035.7 1650.0,2015.7 1652.4,1997.9 1655.9,1982.3 1660.4,1969.0 1666.0,1958.0 1672.6,1949.5 1680.3,1943.4 1689.0,1939.8 1698.7,1938.6 1709.4,1939.9 1721.1,1943.6 1733.7,1949.7 1747.3,1958.2 1761.7,1969.0 1776.9,1982.0 1792.9,1997.2 1809.6,2014.4 1826.9,2033.5 1844.9,2054.5 1863.3,2077.2 1882.1,2101.4 1901.3,2127.0 1920.7,2153.8 1940.3,2181.6 1960.0,2210.2 1979.5,2239.4 1999.0,2269.1  " style="stroke-opacity: 1.000000; stroke-width: 5.0; stroke: rgb(107,174,214); fill: none"  />
<path d="M 2245.9,967.0 L 2217.0,987.5 2188.1,1007.5 2159.3,1027.0 2130.9,1045.7 2103.0,1063.5 2075.8,1080.3 2049.4,1095.9 2024.0,1110.3 1999.6,1123.2 1976.4,1134.7 1954.6,1144.6 1934.2,1152.9 1915.2,1159.4 1897.9,1164.2 1882.2,1167.1 1868.2,1168.2 1855.9,1167.3 1845.5,1164.6 1836.9,1160.0 1830.1,1153.4 1825.2,1144.9 1822.2,1134.6 1821.0,1122.4 1821.7,1108.3 1824.1,1092.5 1828.4,1075.1 1834.4,1055.9 1842.0,1035.3 1851.3,1013.1 1862.1,989.7 1874.4,964.9 1888.0,939.1 1902.8,912.3 1918.8,884.6 1935.8,856.2 1953.7,827.2 1972.3,797.9 1991.5,768.4 2011.1,738.9  " style="stroke-opacity: 1.000000; stroke-width: 5.0; stroke: rgb(107,174,214); fill: none"  />
</g>
<defs>
<pattern id="checker" width="10" height="10" patternTransform="rotate(45 0 0)" patternUnits="userSpaceOnUse"><line x1="0" y1="0" x2="10" y2="0" style="stroke:black;stroke-width:5" /><line x1="0" y1="0" x2="0" y2="10" style="stroke:black;stroke-width:4" /></pattern>
<pattern id="checker" width="10" height="10" patternTransform="rotate(45 0 0)" patternUnits="userSpaceOnUse"><line x1="0" y1="0" x2="10" y2="0" style="stroke:black;stroke-width:2" /><line x1="0" y1="0" x2="0" y2="10" style="stroke:black;stroke-width:2" /></pattern>
<pattern id="hline-sparse" width="10" height="10" patternTransform="rotate(0 0 0)" patternUnits="userSpaceOnUse"><line x1="0" y1="0" x2="10" y2="0" style="stroke:black;stroke-width:2" /></pattern>
<pattern id="hline" width="10" height="10" patternTransform="rotate(0 0 0)" patternUnits="userSpaceOnUse"><line x1="0" y1="0" x2="10" y2="0" style="stroke:black;stroke-width:5" /></pattern>
<pattern id="vline-sparse" width="10" height="10" patternTransform="rotate(0 0 0)" patternUnits="userSpaceOnUse"><line x1="0" y1="0" x2="0" y2="10" style="stroke:black;stroke-width:2" /></pattern>
<pattern id="vline" width="10" height="10" patternTransform="rotate(0 0 0)" patternUnits="userSpaceOnUse"><line x1="0" y1="0" x2="0" y2="10" style="stroke:black;stroke-width:5" /></pattern>
</defs>
</svg>
