<?xml version="1.0" encoding="utf-8" standalone="no"?>
<!DOCTYPE svg PUBLIC "-//W3C//DTD SVG 1.1//EN" "http://www.w3.org/Graphics/SVG/1.1/DTD/svg11.dtd">
<svg width="3000px" height="3000px" version="1.1" xmlns="http://www.w3.org/2000/svg" xmlns:xlink="http://www.w3.org/1999/xlink">
<g id="bg">
<rect x="0" y="0" width="3000px" height="3000px" style="fill:rgb(255,255,255);"/>
</g>
<g id="ideograms">
<path d="M1500.000,830.000 A670.000,670.000 40.000 0,1 1570.620,833.732 L1579.053,754.178 A750.000,750.000 0.000 0,0 1500.000,750.000 Z" style="stroke-width:2.0;stroke:rgb(115,115,115);stroke-linecap:round;fill:rgb(153,204,255);" />
<text x="1567.5" y="677.8" font-size="65.0px" font-family="CMUBright-Roman" style="text-anchor:start;fill:rgb(0,0,0);" transform="rotate(273.0,1567.5,677.8)" >5-FP</text>
<path d="M1500.000,830.000 A670.000,670.000 40.000 0,1 1570.620,833.732 L1579.053,754.178 A750.000,750.000 0.000 0,0 1500.000,750.000 Z" style="stroke-width:2.0;stroke:rgb(115,115,115);stroke-linecap:round;fill:none;" />
<path d="M1619.633,840.767 A670.000,670.000 40.000 0,1 1688.452,857.049 L1710.954,780.279 A750.000,750.000 0.000 0,0 1633.918,762.053 Z" style="stroke-width:2.0;stroke:rgb(115,115,115);stroke-linecap:round;fill:rgb(153,204,255);" />
<text x="1713.2" y="703.0" font-size="65.0px" font-family="CMUBright-Roman" style="text-anchor:start;fill:rgb(0,0,0);" transform="rotate(283.3,1713.2,703.0)" >10-IPL</text>
<path d="M1619.633,840.767 A670.000,670.000 40.000 0,1 1688.452,857.049 L1710.954,780.279 A750.000,750.000 0.000 0,0 1633.918,762.053 Z" style="stroke-width:2.0;stroke:rgb(115,115,115);stroke-linecap:round;fill:none;" />
<path d="M1735.421,872.723 A670.000,670.000 40.000 0,1 1800.227,901.031 L1836.075,829.512 A750.000,750.000 0.000 0,0 1763.531,797.824 Z" style="stroke-width:2.0;stroke:rgb(115,115,115);stroke-linecap:round;fill:rgb(153,204,255);" />
<text x="1852.5" y="754.1" font-size="65.0px" font-family="CMUBright-Roman" style="text-anchor:start;fill:rgb(0,0,0);" transform="rotate(293.6,1852.5,754.1)" >13-LCI</text>
<path d="M1735.421,872.723 A670.000,670.000 40.000 0,1 1800.227,901.031 L1836.075,829.512 A750.000,750.000 0.000 0,0 1763.531,797.824 Z" style="stroke-width:2.0;stroke:rgb(115,115,115);stroke-linecap:round;fill:none;" />
<path d="M1843.643,924.839 A670.000,670.000 40.000 0,1 1902.352,964.264 L1950.394,900.296 A750.000,750.000 0.000 0,0 1884.674,856.163 Z" style="stroke-width:2.0;stroke:rgb(115,115,115);stroke-linecap:round;fill:rgb(153,204,255);" />
<text x="1980.1" y="829.1" font-size="65.0px" font-family="CMUBright-Roman" style="text-anchor:start;fill:rgb(0,0,0);" transform="rotate(303.9,1980.1,829.1)" >21-OP</text>
<path d="M1843.643,924.839 A670.000,670.000 40.000 0,1 1902.352,964.264 L1950.394,900.296 A750.000,750.000 0.000 0,0 1884.674,856.163 Z" style="stroke-width:2.0;stroke:rgb(115,115,115);stroke-linecap:round;fill:none;" />
<path d="M1940.819,995.442 A670.000,670.000 40.000 0,1 1991.546,1044.717 L2050.238,990.354 A750.000,750.000 0.000 0,0 1993.454,935.196 Z" style="stroke-width:2.0;stroke:rgb(115,115,115);stroke-linecap:round;fill:rgb(153,204,255);" />
<text x="2092.1" y="925.6" font-size="65.0px" font-family="CMUBright-Roman" style="text-anchor:start;fill:rgb(0,0,0);" transform="rotate(314.2,2092.1,925.6)" >26-PC</text>
<path d="M1940.819,995.442 A670.000,670.000 40.000 0,1 1991.546,1044.717 L2050.238,990.354 A750.000,750.000 0.000 0,0 1993.454,935.196 Z" style="stroke-width:2.0;stroke:rgb(115,115,115);stroke-linecap:round;fill:none;" />
<path d="M2023.827,1082.262 A670.000,670.000 40.000 0,1 2064.940,1139.802 L2132.396,1096.793 A750.000,750.000 0.000 0,0 2086.374,1032.383 Z" style="stroke-width:2.0;stroke:rgb(115,115,115);stroke-linecap:round;fill:rgb(153,204,255);" />
<text x="2185.2" y="1040.5" font-size="65.0px" font-family="CMUBright-Roman" style="text-anchor:start;fill:rgb(0,0,0);" transform="rotate(324.5,2185.2,1040.5)" >35-SG</text>
<path d="M2023.827,1082.262 A670.000,670.000 40.000 0,1 2064.940,1139.802 L2132.396,1096.793 A750.000,750.000 0.000 0,0 2086.374,1032.383 Z" style="stroke-width:2.0;stroke:rgb(115,115,115);stroke-linecap:round;fill:none;" />
<path d="M2089.999,1182.508 A670.000,670.000 40.000 0,1 2120.177,1246.465 L2194.228,1216.192 A750.000,750.000 0.000 0,0 2160.447,1144.599 Z" style="stroke-width:2.0;stroke:rgb(115,115,115);stroke-linecap:round;fill:rgb(116,196,118);" />
<text x="2256.2" y="1170.3" font-size="65.0px" font-family="CMUBright-Roman" style="text-anchor:start;fill:rgb(0,0,0);" transform="rotate(334.7,2256.2,1170.3)" >3-COC</text>
<path d="M2089.999,1182.508 A670.000,670.000 40.000 0,1 2120.177,1246.465 L2194.228,1216.192 A750.000,750.000 0.000 0,0 2160.447,1144.599 Z" style="stroke-width:2.0;stroke:rgb(115,115,115);stroke-linecap:round;fill:none;" />
<path d="M2137.208,1292.959 A670.000,670.000 40.000 0,1 2155.481,1361.276 L2233.748,1344.712 A750.000,750.000 0.000 0,0 2213.292,1268.237 Z" style="stroke-width:2.0;stroke:rgb(115,115,115);stroke-linecap:round;fill:rgb(116,196,118);" />
<text x="2302.8" y="1310.1" font-size="65.0px" font-family="CMUBright-Roman" style="text-anchor:start;fill:rgb(0,0,0);" transform="rotate(345.0,2302.8,1310.1)" >15-LVIIIb</text>
<path d="M2137.208,1292.959 A670.000,670.000 40.000 0,1 2155.481,1361.276 L2233.748,1344.712 A750.000,750.000 0.000 0,0 2213.292,1268.237 Z" style="stroke-width:2.0;stroke:rgb(115,115,115);stroke-linecap:round;fill:none;" />
<path d="M2163.936,1410.064 A670.000,670.000 40.000 0,1 2169.718,1480.546 L2249.684,1478.223 A750.000,750.000 0.000 0,0 2243.212,1399.325 Z" style="stroke-width:2.0;stroke:rgb(115,115,115);stroke-linecap:round;fill:rgb(116,196,118);" />
<text x="2323.9" y="1456.5" font-size="65.0px" font-family="CMUBright-Roman" style="text-anchor:start;fill:rgb(0,0,0);" transform="rotate(355.3,2323.9,1456.5)" >23-PP</text>
<path d="M2163.936,1410.064 A670.000,670.000 40.000 0,1 2169.718,1480.546 L2249.684,1478.223 A750.000,750.000 0.000 0,0 2243.212,1399.325 Z" style="stroke-width:2.0;stroke:rgb(115,115,115);stroke-linecap:round;fill:none;" />
<path d="M2169.325,1530.059 A670.000,670.000 40.000 0,1 2162.429,1600.441 L2241.524,1612.434 A750.000,750.000 0.000 0,0 2249.245,1533.649 Z" style="stroke-width:2.0;stroke:rgb(115,115,115);stroke-linecap:round;fill:rgb(116,196,118);" />
<text x="2318.4" y="1603.8" font-size="65.0px" font-family="CMUBright-Roman" style="text-anchor:start;fill:rgb(0,0,0);" transform="rotate(5.6,2318.4,1603.8)" >24-PP</text>
<path d="M2169.325,1530.059 A670.000,670.000 40.000 0,1 2162.429,1600.441 L2241.524,1612.434 A750.000,750.000 0.000 0,0 2249.245,1533.649 Z" style="stroke-width:2.0;stroke:rgb(115,115,115);stroke-linecap:round;fill:none;" />
<path d="M2153.202,1649.089 A670.000,670.000 40.000 0,1 2133.849,1717.108 L2209.532,1743.032 A750.000,750.000 0.000 0,0 2231.196,1666.891 Z" style="stroke-width:2.0;stroke:rgb(115,115,115);stroke-linecap:round;fill:rgb(116,196,118);" />
<text x="2286.6" y="1748.8" font-size="65.0px" font-family="CMUBright-Roman" style="text-anchor:start;fill:rgb(0,0,0);" transform="rotate(15.9,2286.6,1748.8)" >30-RH</text>
<path d="M2153.202,1649.089 A670.000,670.000 40.000 0,1 2133.849,1717.108 L2209.532,1743.032 A750.000,750.000 0.000 0,0 2231.196,1666.891 Z" style="stroke-width:2.0;stroke:rgb(115,115,115);stroke-linecap:round;fill:none;" />
<path d="M2116.084,1763.327 A670.000,670.000 40.000 0,1 2084.896,1826.797 L2154.734,1865.818 A750.000,750.000 0.000 0,0 2189.646,1794.769 Z" style="stroke-width:2.0;stroke:rgb(115,115,115);stroke-linecap:round;fill:rgb(153,0,204);" />
<text x="2229.3" y="1885.7" font-size="65.0px" font-family="CMUBright-Roman" style="text-anchor:start;fill:rgb(0,0,0);" transform="rotate(26.2,2229.3,1885.7)" >1-AG</text>
<path d="M2116.084,1763.327 A670.000,670.000 40.000 0,1 2084.896,1826.797 L2154.734,1865.818 A750.000,750.000 0.000 0,0 2189.646,1794.769 Z" style="stroke-width:2.0;stroke:rgb(115,115,115);stroke-linecap:round;fill:none;" />
<path d="M2059.164,1869.101 A670.000,670.000 40.000 0,1 2017.145,1925.983 L2078.893,1976.846 A750.000,750.000 0.000 0,0 2125.930,1913.173 Z" style="stroke-width:2.0;stroke:rgb(115,115,115);stroke-linecap:round;fill:rgb(153,0,204);" />
<text x="2149.0" y="2009.3" font-size="65.0px" font-family="CMUBright-Roman" style="text-anchor:start;fill:rgb(0,0,0);" transform="rotate(36.5,2149.0,2009.3)" >9-IPL</text>
<path d="M2059.164,1869.101 A670.000,670.000 40.000 0,1 2017.145,1925.983 L2078.893,1976.846 A750.000,750.000 0.000 0,0 2125.930,1913.173 Z" style="stroke-width:2.0;stroke:rgb(115,115,115);stroke-linecap:round;fill:none;" />
<path d="M1984.273,1963.012 A670.000,670.000 40.000 0,1 1932.772,2011.477 L1984.446,2072.549 A750.000,750.000 0.000 0,0 2042.096,2018.297 Z" style="stroke-width:2.0;stroke:rgb(115,115,115);stroke-linecap:round;fill:rgb(153,0,204);" />
<text x="2047.3" y="2117.3" font-size="65.0px" font-family="CMUBright-Roman" style="text-anchor:start;fill:rgb(0,0,0);" transform="rotate(46.7,2047.3,2117.3)" >12-LOC</text>
<path d="M1984.273,1963.012 A670.000,670.000 40.000 0,1 1932.772,2011.477 L1984.446,2072.549 A750.000,750.000 0.000 0,0 2042.096,2018.297 Z" style="stroke-width:2.0;stroke:rgb(115,115,115);stroke-linecap:round;fill:none;" />
<path d="M1893.816,2042.041 A670.000,670.000 40.000 0,1 1834.489,2080.532 L1874.428,2149.849 A750.000,750.000 0.000 0,0 1940.839,2106.763 Z" style="stroke-width:2.0;stroke:rgb(115,115,115);stroke-linecap:round;fill:rgb(153,0,204);" />
<text x="1928.3" y="2205.1" font-size="65.0px" font-family="CMUBright-Roman" style="text-anchor:start;fill:rgb(0,0,0);" transform="rotate(57.0,1928.3,2205.1)" >17-MFG</text>
<path d="M1893.816,2042.041 A670.000,670.000 40.000 0,1 1834.489,2080.532 L1874.428,2149.849 A750.000,750.000 0.000 0,0 1940.839,2106.763 Z" style="stroke-width:2.0;stroke:rgb(115,115,115);stroke-linecap:round;fill:none;" />
<path d="M1790.702,2103.649 A670.000,670.000 40.000 0,1 1725.456,2130.928 L1752.376,2206.262 A750.000,750.000 0.000 0,0 1825.413,2175.727 Z" style="stroke-width:2.0;stroke:rgb(115,115,115);stroke-linecap:round;fill:rgb(153,0,204);" />
<text x="1795.5" y="2270.3" font-size="65.0px" font-family="CMUBright-Roman" style="text-anchor:start;fill:rgb(0,0,0);" transform="rotate(67.3,1795.5,2270.3)" >28-RCI</text>
<path d="M1790.702,2103.649 A670.000,670.000 40.000 0,1 1725.456,2130.928 L1752.376,2206.262 A750.000,750.000 0.000 0,0 1825.413,2175.727 Z" style="stroke-width:2.0;stroke:rgb(115,115,115);stroke-linecap:round;fill:none;" />
<path d="M1678.245,2145.855 A670.000,670.000 40.000 0,1 1609.176,2161.045 L1622.212,2239.976 A750.000,750.000 0.000 0,0 1699.528,2222.972 Z" style="stroke-width:2.0;stroke:rgb(115,115,115);stroke-linecap:round;fill:rgb(153,0,204);" />
<text x="1653.2" y="2310.7" font-size="65.0px" font-family="CMUBright-Roman" style="text-anchor:start;fill:rgb(0,0,0);" transform="rotate(77.6,1653.2,2310.7)" >34-SG</text>
<path d="M1678.245,2145.855 A670.000,670.000 40.000 0,1 1609.176,2161.045 L1622.212,2239.976 A750.000,750.000 0.000 0,0 1699.528,2222.972 Z" style="stroke-width:2.0;stroke:rgb(115,115,115);stroke-linecap:round;fill:none;" />
<path d="M1560.058,2167.303 A670.000,670.000 40.000 0,1 1489.388,2169.916 L1488.121,2249.906 A750.000,750.000 0.000 0,0 1567.229,2246.981 Z" style="stroke-width:2.0;stroke:rgb(115,115,115);stroke-linecap:round;fill:rgb(253,208,162);" />
<text x="1506.0" y="2325.0" font-size="65.0px" font-family="CMUBright-Roman" style="text-anchor:start;fill:rgb(0,0,0);" transform="rotate(87.9,1506.0,2325.0)" >7-IFG</text>
<path d="M1560.058,2167.303 A670.000,670.000 40.000 0,1 1489.388,2169.916 L1488.121,2249.906 A750.000,750.000 0.000 0,0 1567.229,2246.981 Z" style="stroke-width:2.0;stroke:rgb(115,115,115);stroke-linecap:round;fill:none;" />
<path d="M1439.942,2167.303 A670.000,670.000 40.000 0,1 1369.940,2157.255 L1354.411,2235.733 A750.000,750.000 0.000 0,0 1432.771,2246.981 Z" style="stroke-width:2.0;stroke:rgb(115,115,115);stroke-linecap:round;fill:rgb(253,208,162);" />
<text x="1407.1" y="2319.8" font-size="65.0px" font-family="CMUBright-Roman" style="text-anchor:end;fill:rgb(0,0,0);" transform="rotate(-81.8,1407.1,2319.8)" >16-LG</text>
<path d="M1439.942,2167.303 A670.000,670.000 40.000 0,1 1369.940,2157.255 L1354.411,2235.733 A750.000,750.000 0.000 0,0 1432.771,2246.981 Z" style="stroke-width:2.0;stroke:rgb(115,115,115);stroke-linecap:round;fill:none;" />
<path d="M1321.755,2145.855 A670.000,670.000 40.000 0,1 1254.673,2123.470 L1225.380,2197.914 A750.000,750.000 0.000 0,0 1300.472,2222.972 Z" style="stroke-width:2.0;stroke:rgb(115,115,115);stroke-linecap:round;fill:rgb(253,208,162);" />
<text x="1262.2" y="2290.0" font-size="65.0px" font-family="CMUBright-Roman" style="text-anchor:end;fill:rgb(0,0,0);" transform="rotate(-71.5,1262.2,2290.0)" >20-OFG</text>
<path d="M1321.755,2145.855 A670.000,670.000 40.000 0,1 1254.673,2123.470 L1225.380,2197.914 A750.000,750.000 0.000 0,0 1300.472,2222.972 Z" style="stroke-width:2.0;stroke:rgb(115,115,115);stroke-linecap:round;fill:none;" />
<path d="M1209.298,2103.649 A670.000,670.000 40.000 0,1 1147.290,2069.645 L1105.176,2137.663 A750.000,750.000 0.000 0,0 1174.587,2175.727 Z" style="stroke-width:2.0;stroke:rgb(115,115,115);stroke-linecap:round;fill:rgb(253,208,162);" />
<text x="1125.0" y="2234.8" font-size="65.0px" font-family="CMUBright-Roman" style="text-anchor:end;fill:rgb(0,0,0);" transform="rotate(-61.3,1125.0,2234.8)" >25-PosG</text>
<path d="M1209.298,2103.649 A670.000,670.000 40.000 0,1 1147.290,2069.645 L1105.176,2137.663 A750.000,750.000 0.000 0,0 1174.587,2175.727 Z" style="stroke-width:2.0;stroke:rgb(115,115,115);stroke-linecap:round;fill:none;" />
<path d="M1106.184,2042.041 A670.000,670.000 40.000 0,1 1051.245,1997.512 L997.662,2056.917 A750.000,750.000 0.000 0,0 1059.161,2106.763 Z" style="stroke-width:2.0;stroke:rgb(115,115,115);stroke-linecap:round;fill:rgb(253,208,162);" />
<text x="999.8" y="2156.1" font-size="65.0px" font-family="CMUBright-Roman" style="text-anchor:end;fill:rgb(0,0,0);" transform="rotate(-51.0,999.8,2156.1)" >27-RCI</text>
<path d="M1106.184,2042.041 A670.000,670.000 40.000 0,1 1051.245,1997.512 L997.662,2056.917 A750.000,750.000 0.000 0,0 1059.161,2106.763 Z" style="stroke-width:2.0;stroke:rgb(115,115,115);stroke-linecap:round;fill:none;" />
<path d="M1015.727,1963.012 A670.000,670.000 40.000 0,1 969.622,1909.389 L906.293,1958.271 A750.000,750.000 0.000 0,0 957.904,2018.297 Z" style="stroke-width:2.0;stroke:rgb(115,115,115);stroke-linecap:round;fill:rgb(253,208,162);" />
<text x="890.7" y="2056.2" font-size="65.0px" font-family="CMUBright-Roman" style="text-anchor:end;fill:rgb(0,0,0);" transform="rotate(-40.7,890.7,2056.2)" >29-RCI</text>
<path d="M1015.727,1963.012 A670.000,670.000 40.000 0,1 969.622,1909.389 L906.293,1958.271 A750.000,750.000 0.000 0,0 957.904,2018.297 Z" style="stroke-width:2.0;stroke:rgb(115,115,115);stroke-linecap:round;fill:none;" />
<path d="M940.836,1869.101 A670.000,670.000 40.000 0,1 905.046,1808.107 L834.007,1844.896 A750.000,750.000 0.000 0,0 874.070,1913.173 Z" style="stroke-width:2.0;stroke:rgb(115,115,115);stroke-linecap:round;fill:rgb(253,141,60);" />
<text x="801.2" y="1938.5" font-size="65.0px" font-family="CMUBright-Roman" style="text-anchor:end;fill:rgb(0,0,0);" transform="rotate(-30.4,801.2,1938.5)" >2-COC</text>
<path d="M940.836,1869.101 A670.000,670.000 40.000 0,1 905.046,1808.107 L834.007,1844.896 A750.000,750.000 0.000 0,0 874.070,1913.173 Z" style="stroke-width:2.0;stroke:rgb(115,115,115);stroke-linecap:round;fill:none;" />
<path d="M883.916,1763.327 A670.000,670.000 40.000 0,1 859.593,1696.922 L783.126,1720.436 A750.000,750.000 0.000 0,0 810.354,1794.769 Z" style="stroke-width:2.0;stroke:rgb(115,115,115);stroke-linecap:round;fill:rgb(253,141,60);" />
<text x="734.1" y="1806.6" font-size="65.0px" font-family="CMUBright-Roman" style="text-anchor:end;fill:rgb(0,0,0);" transform="rotate(-20.1,734.1,1806.6)" >11-ITG</text>
<path d="M883.916,1763.327 A670.000,670.000 40.000 0,1 859.593,1696.922 L783.126,1720.436 A750.000,750.000 0.000 0,0 810.354,1794.769 Z" style="stroke-width:2.0;stroke:rgb(115,115,115);stroke-linecap:round;fill:none;" />
<path d="M846.798,1649.089 A670.000,670.000 40.000 0,1 834.722,1579.409 L755.286,1588.890 A750.000,750.000 0.000 0,0 768.804,1666.891 Z" style="stroke-width:2.0;stroke:rgb(115,115,115);stroke-linecap:round;fill:rgb(253,141,60);" />
<text x="691.7" y="1665.0" font-size="65.0px" font-family="CMUBright-Roman" style="text-anchor:end;fill:rgb(0,0,0);" transform="rotate(-9.8,691.7,1665.0)" >22-ParG</text>
<path d="M846.798,1649.089 A670.000,670.000 40.000 0,1 834.722,1579.409 L755.286,1588.890 A750.000,750.000 0.000 0,0 768.804,1666.891 Z" style="stroke-width:2.0;stroke:rgb(115,115,115);stroke-linecap:round;fill:none;" />
<path d="M830.675,1530.059 A670.000,670.000 40.000 0,1 831.235,1459.343 L751.382,1454.488 A750.000,750.000 0.000 0,0 750.755,1533.649 Z" style="stroke-width:2.0;stroke:rgb(115,115,115);stroke-linecap:round;fill:rgb(253,141,60);" />
<text x="675.2" y="1517.5" font-size="65.0px" font-family="CMUBright-Roman" style="text-anchor:end;fill:rgb(0,0,0);" transform="rotate(0.5,675.2,1517.5)" >31-RLV</text>
<path d="M830.675,1530.059 A670.000,670.000 40.000 0,1 831.235,1459.343 L751.382,1454.488 A750.000,750.000 0.000 0,0 750.755,1533.649 Z" style="stroke-width:2.0;stroke:rgb(115,115,115);stroke-linecap:round;fill:none;" />
<path d="M836.064,1410.064 A670.000,670.000 40.000 0,1 849.242,1340.583 L771.539,1321.549 A750.000,750.000 0.000 0,0 756.788,1399.325 Z" style="stroke-width:2.0;stroke:rgb(115,115,115);stroke-linecap:round;fill:rgb(253,141,60);" />
<text x="685.3" y="1369.9" font-size="65.0px" font-family="CMUBright-Roman" style="text-anchor:end;fill:rgb(0,0,0);" transform="rotate(10.7,685.3,1369.9)" >32-RLV</text>
<path d="M836.064,1410.064 A670.000,670.000 40.000 0,1 849.242,1340.583 L771.539,1321.549 A750.000,750.000 0.000 0,0 756.788,1399.325 Z" style="stroke-width:2.0;stroke:rgb(115,115,115);stroke-linecap:round;fill:none;" />
<path d="M862.792,1292.959 A670.000,670.000 40.000 0,1 888.165,1226.948 L815.110,1194.345 A750.000,750.000 0.000 0,0 786.708,1268.237 Z" style="stroke-width:2.0;stroke:rgb(115,115,115);stroke-linecap:round;fill:rgb(253,141,60);" />
<text x="721.5" y="1227.0" font-size="65.0px" font-family="CMUBright-Roman" style="text-anchor:end;fill:rgb(0,0,0);" transform="rotate(21.0,721.5,1227.0)" >33-SC</text>
<path d="M862.792,1292.959 A670.000,670.000 40.000 0,1 888.165,1226.948 L815.110,1194.345 A750.000,750.000 0.000 0,0 786.708,1268.237 Z" style="stroke-width:2.0;stroke:rgb(115,115,115);stroke-linecap:round;fill:none;" />
<path d="M910.001,1182.508 A670.000,670.000 40.000 0,1 946.752,1122.089 L880.693,1076.965 A750.000,750.000 0.000 0,0 839.553,1144.599 Z" style="stroke-width:2.0;stroke:rgb(115,115,115);stroke-linecap:round;fill:rgb(66,146,198);" />
<text x="782.7" y="1092.4" font-size="65.0px" font-family="CMUBright-Roman" style="text-anchor:end;fill:rgb(0,0,0);" transform="rotate(31.3,782.7,1092.4)" >4-FOC</text>
<path d="M910.001,1182.508 A670.000,670.000 40.000 0,1 946.752,1122.089 L880.693,1076.965 A750.000,750.000 0.000 0,0 839.553,1144.599 Z" style="stroke-width:2.0;stroke:rgb(115,115,115);stroke-linecap:round;fill:none;" />
<path d="M976.173,1082.262 A670.000,670.000 40.000 0,1 1023.122,1029.376 L966.181,973.182 A750.000,750.000 0.000 0,0 913.626,1032.383 Z" style="stroke-width:2.0;stroke:rgb(115,115,115);stroke-linecap:round;fill:rgb(66,146,198);" />
<text x="867.0" y="970.9" font-size="65.0px" font-family="CMUBright-Roman" style="text-anchor:end;fill:rgb(0,0,0);" transform="rotate(41.6,867.0,970.9)" >6-IFG</text>
<path d="M976.173,1082.262 A670.000,670.000 40.000 0,1 1023.122,1029.376 L966.181,973.182 A750.000,750.000 0.000 0,0 913.626,1032.383 Z" style="stroke-width:2.0;stroke:rgb(115,115,115);stroke-linecap:round;fill:none;" />
<path d="M1059.181,995.442 A670.000,670.000 40.000 0,1 1114.819,951.789 L1068.827,886.331 A750.000,750.000 0.000 0,0 1006.546,935.196 Z" style="stroke-width:2.0;stroke:rgb(115,115,115);stroke-linecap:round;fill:rgb(66,146,198);" />
<text x="971.7" y="866.3" font-size="65.0px" font-family="CMUBright-Roman" style="text-anchor:end;fill:rgb(0,0,0);" transform="rotate(51.9,971.7,866.3)" >8-IFG</text>
<path d="M1059.181,995.442 A670.000,670.000 40.000 0,1 1114.819,951.789 L1068.827,886.331 A750.000,750.000 0.000 0,0 1006.546,935.196 Z" style="stroke-width:2.0;stroke:rgb(115,115,115);stroke-linecap:round;fill:none;" />
<path d="M1156.357,924.839 A670.000,670.000 40.000 0,1 1218.896,891.822 L1185.331,819.204 A750.000,750.000 0.000 0,0 1115.326,856.163 Z" style="stroke-width:2.0;stroke:rgb(115,115,115);stroke-linecap:round;fill:rgb(66,146,198);" />
<text x="1094.2" y="781.7" font-size="65.0px" font-family="CMUBright-Roman" style="text-anchor:end;fill:rgb(0,0,0);" transform="rotate(62.2,1094.2,781.7)" >14-LIX</text>
<path d="M1156.357,924.839 A670.000,670.000 40.000 0,1 1218.896,891.822 L1185.331,819.204 A750.000,750.000 0.000 0,0 1115.326,856.163 Z" style="stroke-width:2.0;stroke:rgb(115,115,115);stroke-linecap:round;fill:none;" />
<path d="M1264.579,872.723 A670.000,670.000 40.000 0,1 1332.008,851.403 L1311.949,773.958 A750.000,750.000 0.000 0,0 1236.469,797.824 Z" style="stroke-width:2.0;stroke:rgb(115,115,115);stroke-linecap:round;fill:rgb(66,146,198);" />
<text x="1228.0" y="721.1" font-size="65.0px" font-family="CMUBright-Roman" style="text-anchor:end;fill:rgb(0,0,0);" transform="rotate(72.5,1228.0,721.1)" >18-MTG</text>
<path d="M1264.579,872.723 A670.000,670.000 40.000 0,1 1332.008,851.403 L1311.949,773.958 A750.000,750.000 0.000 0,0 1236.469,797.824 Z" style="stroke-width:2.0;stroke:rgb(115,115,115);stroke-linecap:round;fill:none;" />
<path d="M1380.367,840.767 A670.000,670.000 40.000 0,1 1450.519,831.830 L1444.611,752.048 A750.000,750.000 0.000 0,0 1366.082,762.053 Z" style="stroke-width:2.0;stroke:rgb(115,115,115);stroke-linecap:round;fill:rgb(66,146,198);" />
<text x="1371.5" y="685.1" font-size="65.0px" font-family="CMUBright-Roman" style="text-anchor:end;fill:rgb(0,0,0);" transform="rotate(82.7,1371.5,685.1)" >19-MTG</text>
<path d="M1380.367,840.767 A670.000,670.000 40.000 0,1 1450.519,831.830 L1444.611,752.048 A750.000,750.000 0.000 0,0 1366.082,762.053 Z" style="stroke-width:2.0;stroke:rgb(115,115,115);stroke-linecap:round;fill:none;" />
</g>
<g id="track_1">
<path d="M 2071.3,1780.7 L 2048.1,1769.6 2024.6,1759.1 2001.0,1749.2 1977.3,1740.0 1953.6,1731.7 1929.9,1724.2 1906.5,1717.7 1883.3,1712.3 1860.4,1708.0 1838.0,1704.8 1816.0,1702.9 1794.5,1702.2 1773.6,1702.8 1753.4,1704.7 1733.8,1707.9 1715.0,1712.5 1696.9,1718.5 1679.7,1725.9 1663.2,1734.6 1647.7,1744.7 1633.0,1756.1 1619.3,1768.9 1606.5,1782.9 1594.6,1798.3 1583.6,1814.8 1573.6,1832.5 1564.6,1851.3 1556.5,1871.2 1549.3,1892.1 1543.0,1913.9 1537.7,1936.5 1533.2,1959.9 1529.5,1984.0 1526.7,2008.6 1524.7,2033.6 1523.4,2059.0 1522.8,2084.7 1522.9,2110.4 1523.5,2136.1  " style="stroke-opacity: 1.000000; stroke-width: 5.0; stroke: rgb(251,106,74); fill: none"  />
<path d="M 1533.6,864.4 L 1532.3,893.3 1531.6,922.5 1531.5,951.9 1532.0,981.5 1533.1,1011.3 1535.0,1041.2 1537.5,1071.2 1540.8,1101.1 1544.8,1131.1 1549.6,1161.0 1555.2,1190.8 1561.6,1220.5 1568.9,1250.0 1576.9,1279.4 1585.8,1308.5 1595.5,1337.3 1606.0,1365.9 1617.4,1394.1 1629.5,1422.0 1642.5,1449.6 1656.3,1476.7 1670.9,1503.4 1686.3,1529.7 1702.4,1555.6 1719.2,1580.9 1736.7,1605.8 1754.9,1630.1 1773.8,1653.9 1793.2,1677.2 1813.2,1699.9 1833.8,1722.1 1854.9,1743.7 1876.4,1764.7 1898.3,1785.1 1920.5,1804.9 1943.1,1824.2 1965.9,1842.8 1988.9,1860.8 2012.0,1878.2  " style="stroke-opacity: 1.000000; stroke-width: 5.0; stroke: rgb(251,106,74); fill: none"  />
<path d="M 1533.6,864.4 L 1532.1,895.3 1530.9,926.4 1530.0,957.7 1529.3,989.2 1529.1,1020.8 1529.1,1052.6 1529.5,1084.6 1530.3,1116.6 1531.4,1148.7 1532.9,1181.0 1534.8,1213.3 1537.1,1245.6 1539.8,1278.0 1542.9,1310.4 1546.4,1342.8 1550.3,1375.2 1554.7,1407.6 1559.4,1439.9 1564.6,1472.2 1570.2,1504.4 1576.2,1536.6 1582.6,1568.6 1589.4,1600.6 1596.6,1632.4 1604.2,1664.1 1612.2,1695.7 1620.6,1727.1 1629.3,1758.3 1638.4,1789.4 1647.8,1820.2 1657.5,1850.9 1667.6,1881.3 1678.0,1911.5 1688.6,1941.4 1699.5,1971.2 1710.7,2000.6 1722.1,2029.8 1733.7,2058.7 1745.5,2087.2  " style="stroke-opacity: 1.000000; stroke-width: 5.0; stroke: rgb(251,106,74); fill: none"  />
<path d="M 1523.5,2136.1 L 1522.9,2110.4 1522.8,2084.7 1523.4,2059.0 1524.7,2033.6 1526.7,2008.6 1529.5,1984.0 1533.2,1959.9 1537.7,1936.5 1543.0,1913.9 1549.3,1892.1 1556.5,1871.2 1564.6,1851.3 1573.6,1832.5 1583.6,1814.8 1594.6,1798.3 1606.5,1782.9 1619.3,1768.9 1633.0,1756.1 1647.7,1744.7 1663.2,1734.6 1679.7,1725.9 1696.9,1718.5 1715.0,1712.5 1733.8,1707.9 1753.4,1704.7 1773.6,1702.8 1794.5,1702.2 1816.0,1702.9 1838.0,1704.8 1860.4,1708.0 1883.3,1712.3 1906.5,1717.7 1929.9,1724.2 1953.6,1731.7 1977.3,1740.0 2001.0,1749.2 2024.6,1759.1 2048.1,1769.6 2071.3,1780.7  " style="stroke-opacity: 1.000000; stroke-width: 5.0; stroke: rgb(251,106,74); fill: none"  />
<path d="M 1523.5,2136.1 L 1522.8,2110.8 1522.7,2085.5 1523.1,2060.3 1524.2,2035.5 1525.9,2011.1 1528.4,1987.3 1531.6,1964.1 1535.5,1941.7 1540.3,1920.2 1545.8,1899.7 1552.2,1880.2 1559.4,1861.8 1567.5,1844.7 1576.4,1828.8 1586.2,1814.3 1596.8,1801.1 1608.3,1789.3 1620.6,1779.0 1633.7,1770.1 1647.6,1762.8 1662.4,1756.9 1677.8,1752.6 1694.0,1749.8 1710.9,1748.4 1728.4,1748.5 1746.6,1750.1 1765.3,1753.1 1784.5,1757.5 1804.2,1763.3 1824.3,1770.3 1844.7,1778.5 1865.4,1787.9 1886.4,1798.3 1907.4,1809.7 1928.5,1822.0 1949.6,1835.2 1970.6,1849.0 1991.4,1863.4 2012.0,1878.2  " style="stroke-opacity: 1.000000; stroke-width: 5.0; stroke: rgb(251,106,74); fill: none"  />
<path d="M 1523.5,2136.1 L 1522.8,2111.1 1522.6,2086.1 1522.8,2061.4 1523.6,2037.1 1524.9,2013.3 1526.9,1990.1 1529.5,1967.7 1532.7,1946.2 1536.6,1925.7 1541.2,1906.3 1546.6,1888.0 1552.6,1871.0 1559.4,1855.4 1566.9,1841.1 1575.1,1828.3 1584.1,1817.0 1593.8,1807.3 1604.2,1799.1 1615.4,1792.6 1627.2,1787.6 1639.7,1784.3 1652.8,1782.6 1666.6,1782.6 1680.9,1784.1 1695.8,1787.2 1711.2,1791.9 1727.1,1798.1 1743.5,1805.7 1760.2,1814.7 1777.3,1825.1 1794.6,1836.7 1812.2,1849.5 1830.0,1863.4 1847.8,1878.3 1865.7,1894.1 1883.6,1910.6 1901.3,1927.8 1918.9,1945.5 1936.2,1963.5  " style="stroke-opacity: 1.000000; stroke-width: 5.0; stroke: rgb(251,106,74); fill: none"  />
<path d="M 1523.5,2136.1 L 1522.8,2111.3 1522.4,2086.7 1522.4,2062.3 1522.8,2038.4 1523.7,2015.1 1525.0,1992.5 1526.9,1970.7 1529.3,1949.9 1532.2,1930.2 1535.7,1911.7 1539.8,1894.5 1544.4,1878.6 1549.6,1864.2 1555.4,1851.3 1561.8,1840.0 1568.8,1830.2 1576.4,1822.2 1584.6,1815.8 1593.3,1811.2 1602.6,1808.2 1612.4,1807.0 1622.7,1807.5 1633.5,1809.8 1644.9,1813.7 1656.6,1819.3 1668.8,1826.5 1681.3,1835.3 1694.3,1845.6 1707.5,1857.4 1721.0,1870.5 1734.7,1885.0 1748.6,1900.6 1762.6,1917.3 1776.7,1935.1 1790.9,1953.6 1805.0,1973.0 1819.0,1992.9 1832.8,2013.3 1846.4,2034.0  " style="stroke-opacity: 1.000000; stroke-width: 5.0; stroke: rgb(251,106,74); fill: none"  />
<path d="M 1107.1,999.2 L 1122.9,1019.0 1139.2,1038.4 1155.7,1057.3 1172.6,1075.6 1189.7,1093.0 1206.9,1109.7 1224.3,1125.3 1241.8,1139.8 1259.3,1153.2 1276.8,1165.3 1294.3,1176.0 1311.6,1185.4 1328.9,1193.3 1345.9,1199.6 1362.8,1204.4 1379.4,1207.6 1395.8,1209.2 1411.8,1209.1 1427.6,1207.4 1443.0,1204.0 1458.0,1199.0 1472.6,1192.3 1486.8,1184.0 1500.5,1174.1 1513.8,1162.7 1526.7,1149.8 1539.0,1135.4 1550.8,1119.6 1562.2,1102.5 1573.0,1084.2 1583.3,1064.7 1593.0,1044.2 1602.3,1022.7 1611.0,1000.4 1619.1,977.3 1626.8,953.7 1633.9,929.6 1640.5,905.2 1646.5,880.6  " style="stroke-opacity: 1.000000; stroke-width: 5.0; stroke: rgb(251,106,74); fill: none"  />
<path d="M 1107.1,999.2 L 1127.0,1024.7 1146.9,1050.2 1166.8,1075.8 1186.7,1101.4 1206.5,1127.1 1226.3,1153.0 1246.1,1178.8 1265.8,1204.8 1285.5,1230.8 1305.1,1256.9 1324.7,1283.0 1344.3,1309.3 1363.8,1335.5 1383.2,1361.9 1402.6,1388.3 1421.9,1414.8 1441.2,1441.3 1460.4,1467.9 1479.5,1494.5 1498.6,1521.2 1517.6,1547.9 1536.5,1574.7 1555.3,1601.5 1574.1,1628.4 1592.8,1655.2 1611.4,1682.2 1630.0,1709.1 1648.5,1736.1 1666.8,1763.1 1685.2,1790.2 1703.4,1817.2 1721.6,1844.3 1739.6,1871.4 1757.6,1898.5 1775.5,1925.6 1793.4,1952.7 1811.1,1979.8 1828.8,2006.9 1846.4,2034.0  " style="stroke-opacity: 1.000000; stroke-width: 5.0; stroke: rgb(251,106,74); fill: none"  />
<path d="M 2012.0,1878.2 L 1988.9,1860.8 1965.9,1842.8 1943.1,1824.2 1920.5,1804.9 1898.3,1785.1 1876.4,1764.7 1854.9,1743.7 1833.8,1722.1 1813.2,1699.9 1793.2,1677.2 1773.8,1653.9 1754.9,1630.1 1736.7,1605.8 1719.2,1580.9 1702.4,1555.6 1686.3,1529.7 1670.9,1503.4 1656.3,1476.7 1642.5,1449.6 1629.5,1422.0 1617.4,1394.1 1606.0,1365.9 1595.5,1337.3 1585.8,1308.5 1576.9,1279.4 1568.9,1250.0 1561.6,1220.5 1555.2,1190.8 1549.6,1161.0 1544.8,1131.1 1540.8,1101.1 1537.5,1071.2 1535.0,1041.2 1533.1,1011.3 1532.0,981.5 1531.5,951.9 1531.6,922.5 1532.3,893.3 1533.6,864.4  " style="stroke-opacity: 1.000000; stroke-width: 5.0; stroke: rgb(251,106,74); fill: none"  />
<path d="M 2012.0,1878.2 L 1991.4,1863.4 1970.6,1849.0 1949.6,1835.2 1928.5,1822.0 1907.4,1809.7 1886.4,1798.3 1865.4,1787.9 1844.7,1778.5 1824.3,1770.3 1804.2,1763.3 1784.5,1757.5 1765.3,1753.1 1746.6,1750.1 1728.4,1748.5 1710.9,1748.4 1694.0,1749.8 1677.8,1752.6 1662.4,1756.9 1647.6,1762.8 1633.7,1770.1 1620.6,1779.0 1608.3,1789.3 1596.8,1801.1 1586.2,1814.3 1576.4,1828.8 1567.5,1844.7 1559.4,1861.8 1552.2,1880.2 1545.8,1899.7 1540.3,1920.2 1535.5,1941.7 1531.6,1964.1 1528.4,1987.3 1525.9,2011.1 1524.2,2035.5 1523.1,2060.3 1522.7,2085.5 1522.8,2110.8 1523.5,2136.1  " style="stroke-opacity: 1.000000; stroke-width: 5.0; stroke: rgb(251,106,74); fill: none"  />
<path d="M 2012.0,1878.2 L 1989.4,1861.1 1967.0,1843.5 1944.8,1825.1 1923.0,1806.1 1901.5,1786.5 1880.5,1766.3 1860.0,1745.5 1840.1,1724.1 1820.7,1702.0 1802.1,1679.4 1784.2,1656.3 1767.0,1632.6 1750.6,1608.3 1735.1,1583.6 1720.4,1558.3 1706.6,1532.6 1693.7,1506.5 1681.8,1479.9 1670.8,1452.9 1660.8,1425.6 1651.8,1397.9 1643.7,1369.9 1636.6,1341.6 1630.6,1313.1 1625.5,1284.4 1621.4,1255.4 1618.2,1226.4 1616.0,1197.2 1614.7,1167.9 1614.4,1138.6 1614.9,1109.3 1616.3,1080.1 1618.4,1050.9 1621.4,1021.9 1625.1,993.1 1629.6,964.5 1634.6,936.2 1640.3,908.2 1646.5,880.6  " style="stroke-opacity: 1.000000; stroke-width: 5.0; stroke: rgb(251,106,74); fill: none"  />
<path d="M 2012.0,1878.2 L 1987.2,1859.7 1962.4,1840.9 1937.6,1821.7 1912.9,1802.1 1888.3,1782.2 1863.8,1762.0 1839.4,1741.4 1815.2,1720.4 1791.1,1699.1 1767.2,1677.4 1743.5,1655.4 1720.0,1633.1 1696.7,1610.4 1673.6,1587.4 1650.9,1564.1 1628.3,1540.5 1606.1,1516.6 1584.2,1492.3 1562.5,1467.8 1541.2,1443.0 1520.2,1417.9 1499.5,1392.6 1479.2,1367.0 1459.2,1341.2 1439.6,1315.2 1420.3,1289.0 1401.4,1262.6 1382.8,1236.0 1364.6,1209.2 1346.8,1182.4 1329.3,1155.3 1312.3,1128.2 1295.5,1101.0 1279.2,1073.8 1263.2,1046.4 1247.6,1019.1 1232.3,991.7 1217.4,964.4 1202.8,937.1  " style="stroke-opacity: 1.000000; stroke-width: 5.0; stroke: rgb(251,106,74); fill: none"  />
<path d="M 2012.0,1878.2 L 1990.0,1862.3 1967.4,1846.9 1944.4,1832.1 1920.9,1817.8 1896.9,1804.3 1872.7,1791.5 1848.0,1779.6 1823.1,1768.6 1798.0,1758.6 1772.6,1749.6 1747.1,1741.7 1721.4,1735.0 1695.7,1729.4 1669.9,1725.0 1644.0,1721.8 1618.2,1719.9 1592.5,1719.3 1566.8,1720.0 1541.2,1721.9 1515.8,1725.2 1490.5,1729.7 1465.5,1735.5 1440.7,1742.6 1416.2,1750.9 1392.0,1760.4 1368.1,1771.1 1344.5,1783.0 1321.4,1796.0 1298.7,1810.0 1276.4,1825.0 1254.5,1841.0 1233.2,1857.9 1212.3,1875.6 1192.0,1894.1 1172.3,1913.2 1153.1,1932.9 1134.5,1953.0 1116.5,1973.6 1099.2,1994.5  " style="stroke-opacity: 1.000000; stroke-width: 5.0; stroke: rgb(251,106,74); fill: none"  />
<path d="M 1646.5,880.6 L 1640.5,905.2 1633.9,929.6 1626.8,953.7 1619.1,977.3 1611.0,1000.4 1602.3,1022.7 1593.0,1044.2 1583.3,1064.7 1573.0,1084.2 1562.2,1102.5 1550.8,1119.6 1539.0,1135.4 1526.7,1149.8 1513.8,1162.7 1500.5,1174.1 1486.8,1184.0 1472.6,1192.3 1458.0,1199.0 1443.0,1204.0 1427.6,1207.4 1411.8,1209.1 1395.8,1209.2 1379.4,1207.6 1362.8,1204.4 1345.9,1199.6 1328.9,1193.3 1311.6,1185.4 1294.3,1176.0 1276.8,1165.3 1259.3,1153.2 1241.8,1139.8 1224.3,1125.3 1206.9,1109.7 1189.7,1093.0 1172.6,1075.6 1155.7,1057.3 1139.2,1038.4 1122.9,1019.0 1107.1,999.2  " style="stroke-opacity: 1.000000; stroke-width: 5.0; stroke: rgb(251,106,74); fill: none"  />
<path d="M 1646.5,880.6 L 1640.3,908.2 1634.6,936.2 1629.6,964.5 1625.1,993.1 1621.4,1021.9 1618.4,1050.9 1616.3,1080.1 1614.9,1109.3 1614.4,1138.6 1614.7,1167.9 1616.0,1197.2 1618.2,1226.4 1621.4,1255.4 1625.5,1284.4 1630.6,1313.1 1636.6,1341.6 1643.7,1369.9 1651.8,1397.9 1660.8,1425.6 1670.8,1452.9 1681.8,1479.9 1693.7,1506.5 1706.6,1532.6 1720.4,1558.3 1735.1,1583.6 1750.6,1608.3 1767.0,1632.6 1784.2,1656.3 1802.1,1679.4 1820.7,1702.0 1840.1,1724.1 1860.0,1745.5 1880.5,1766.3 1901.5,1786.5 1923.0,1806.1 1944.8,1825.1 1967.0,1843.5 1989.4,1861.1 2012.0,1878.2  " style="stroke-opacity: 1.000000; stroke-width: 5.0; stroke: rgb(251,106,74); fill: none"  />
<path d="M 1646.5,880.6 L 1640.8,904.5 1634.8,928.2 1628.7,951.5 1622.3,974.3 1615.9,996.3 1609.3,1017.5 1602.7,1037.7 1595.9,1056.9 1589.1,1074.8 1582.2,1091.4 1575.3,1106.5 1568.4,1120.2 1561.5,1132.2 1554.6,1142.6 1547.7,1151.4 1540.9,1158.3 1534.1,1163.5 1527.4,1166.8 1520.8,1168.3 1514.3,1168.0 1507.8,1165.8 1501.5,1161.8 1495.3,1155.9 1489.3,1148.3 1483.4,1138.9 1477.6,1127.8 1472.0,1115.1 1466.5,1100.8 1461.3,1085.0 1456.2,1067.8 1451.3,1049.2 1446.6,1029.5 1442.1,1008.7 1437.8,986.9 1433.8,964.3 1429.9,941.0 1426.2,917.2 1422.8,893.0 1419.6,868.6  " style="stroke-opacity: 1.000000; stroke-width: 5.0; stroke: rgb(251,106,74); fill: none"  />
<path d="M 1936.2,1963.5 L 1918.9,1945.5 1901.3,1927.8 1883.6,1910.6 1865.7,1894.1 1847.8,1878.3 1830.0,1863.4 1812.2,1849.5 1794.6,1836.7 1777.3,1825.1 1760.2,1814.7 1743.5,1805.7 1727.1,1798.1 1711.2,1791.9 1695.8,1787.2 1680.9,1784.1 1666.6,1782.6 1652.8,1782.6 1639.7,1784.3 1627.2,1787.6 1615.4,1792.6 1604.2,1799.1 1593.8,1807.3 1584.1,1817.0 1575.1,1828.3 1566.9,1841.1 1559.4,1855.4 1552.6,1871.0 1546.6,1888.0 1541.2,1906.3 1536.6,1925.7 1532.7,1946.2 1529.5,1967.7 1526.9,1990.1 1524.9,2013.3 1523.6,2037.1 1522.8,2061.4 1522.6,2086.1 1522.8,2111.1 1523.5,2136.1  " style="stroke-opacity: 1.000000; stroke-width: 5.0; stroke: rgb(251,106,74); fill: none"  />
<path d="M 1936.2,1963.5 L 1918.7,1945.3 1900.8,1927.4 1882.6,1910.1 1864.2,1893.4 1845.6,1877.5 1826.9,1862.5 1808.2,1848.5 1789.5,1835.6 1770.8,1823.8 1752.3,1813.4 1734.0,1804.2 1715.8,1796.5 1698.0,1790.1 1680.4,1785.3 1663.2,1782.1 1646.3,1780.4 1629.9,1780.3 1613.9,1781.8 1598.4,1784.9 1583.3,1789.7 1568.8,1796.0 1554.9,1804.0 1541.5,1813.5 1528.7,1824.6 1516.4,1837.2 1504.8,1851.2 1493.8,1866.6 1483.5,1883.4 1473.7,1901.4 1464.6,1920.7 1456.1,1941.0 1448.2,1962.3 1440.9,1984.5 1434.3,2007.5 1428.2,2031.2 1422.7,2055.5 1417.8,2080.1 1413.4,2105.0 1409.6,2130.0  " style="stroke-opacity: 1.000000; stroke-width: 5.0; stroke: rgb(251,106,74); fill: none"  />
<path d="M 1936.2,1963.5 L 1918.4,1945.0 1900.1,1926.9 1881.5,1909.3 1862.5,1892.4 1843.2,1876.3 1823.7,1861.0 1804.1,1846.7 1784.3,1833.5 1764.4,1821.4 1744.5,1810.5 1724.6,1801.0 1704.7,1792.8 1684.9,1786.0 1665.3,1780.6 1645.9,1776.8 1626.6,1774.5 1607.6,1773.8 1588.8,1774.6 1570.4,1777.0 1552.3,1781.0 1534.6,1786.5 1517.2,1793.6 1500.3,1802.3 1483.7,1812.5 1467.7,1824.1 1452.1,1837.2 1437.0,1851.6 1422.4,1867.4 1408.4,1884.4 1394.8,1902.6 1381.9,1921.9 1369.5,1942.3 1357.6,1963.5 1346.3,1985.5 1335.6,2008.3 1325.5,2031.6 1315.9,2055.4 1306.9,2079.5 1298.5,2103.8  " style="stroke-opacity: 1.000000; stroke-width: 5.0; stroke: rgb(251,106,74); fill: none"  />
<path d="M 1936.2,1963.5 L 1917.5,1943.1 1899.0,1922.2 1881.1,1900.6 1863.6,1878.5 1846.6,1855.8 1830.4,1832.6 1814.8,1808.9 1800.0,1784.8 1786.1,1760.3 1773.1,1735.3 1760.9,1710.0 1749.8,1684.3 1739.7,1658.3 1730.6,1632.0 1722.7,1605.5 1715.8,1578.7 1710.1,1551.7 1705.5,1524.5 1702.1,1497.2 1699.8,1469.8 1698.8,1442.3 1698.8,1414.8 1700.1,1387.2 1702.5,1359.7 1706.0,1332.2 1710.7,1304.8 1716.4,1277.5 1723.2,1250.3 1731.1,1223.3 1739.9,1196.6 1749.6,1170.1 1760.3,1143.9 1771.8,1118.0 1784.0,1092.5 1797.0,1067.4 1810.7,1042.7 1824.9,1018.5 1839.7,994.7 1854.8,971.6  " style="stroke-opacity: 1.000000; stroke-width: 5.0; stroke: rgb(251,106,74); fill: none"  />
<path d="M 1936.2,1963.5 L 1918.1,1944.7 1899.4,1926.3 1880.3,1908.4 1860.8,1891.1 1840.9,1874.6 1820.6,1858.9 1800.0,1844.2 1779.2,1830.4 1758.1,1817.8 1736.9,1806.3 1715.6,1796.1 1694.1,1787.1 1672.6,1779.5 1651.1,1773.3 1629.6,1768.5 1608.1,1765.2 1586.7,1763.3 1565.4,1763.0 1544.3,1764.1 1523.3,1766.8 1502.6,1771.0 1482.1,1776.6 1461.8,1783.8 1441.9,1792.4 1422.3,1802.4 1403.0,1813.9 1384.1,1826.6 1365.5,1840.7 1347.4,1855.9 1329.8,1872.4 1312.6,1889.9 1295.9,1908.4 1279.7,1927.8 1264.0,1948.1 1248.8,1969.1 1234.2,1990.7 1220.2,2012.8 1206.8,2035.3 1194.0,2058.1  " style="stroke-opacity: 1.000000; stroke-width: 5.0; stroke: rgb(251,106,74); fill: none"  />
<path d="M 1936.2,1963.5 L 1917.7,1944.4 1898.7,1925.6 1879.1,1907.3 1859.1,1889.6 1838.5,1872.6 1817.5,1856.4 1796.1,1841.0 1774.4,1826.6 1752.3,1813.2 1729.9,1800.8 1707.3,1789.7 1684.4,1779.7 1661.4,1771.0 1638.2,1763.5 1614.8,1757.4 1591.4,1752.7 1567.9,1749.3 1544.4,1747.4 1520.9,1746.8 1497.4,1747.7 1474.0,1750.0 1450.7,1753.7 1427.5,1758.7 1404.5,1765.2 1381.7,1773.0 1359.1,1782.1 1336.7,1792.5 1314.7,1804.2 1292.9,1817.0 1271.5,1830.9 1250.5,1845.9 1229.9,1861.9 1209.7,1878.8 1189.9,1896.6 1170.7,1915.1 1152.0,1934.2 1133.8,1953.9 1116.2,1974.0 1099.2,1994.5  " style="stroke-opacity: 1.000000; stroke-width: 5.0; stroke: rgb(251,106,74); fill: none"  />
<path d="M 1936.2,1963.5 L 1917.4,1944.0 1897.9,1924.8 1877.9,1906.1 1857.3,1887.8 1836.2,1870.2 1814.6,1853.3 1792.5,1837.2 1770.0,1822.0 1747.0,1807.6 1723.7,1794.3 1700.0,1782.0 1675.9,1770.7 1651.6,1760.6 1627.0,1751.7 1602.1,1744.0 1577.1,1737.5 1551.8,1732.3 1526.4,1728.4 1500.9,1725.7 1475.3,1724.4 1449.7,1724.3 1424.0,1725.5 1398.3,1728.1 1372.7,1731.9 1347.2,1736.9 1321.8,1743.2 1296.5,1750.7 1271.4,1759.3 1246.5,1769.1 1221.9,1779.9 1197.6,1791.7 1173.6,1804.5 1149.9,1818.2 1126.6,1832.7 1103.8,1848.0 1081.4,1864.0 1059.5,1880.5 1038.1,1897.5 1017.4,1915.0  " style="stroke-opacity: 1.000000; stroke-width: 5.0; stroke: rgb(251,106,74); fill: none"  />
<path d="M 1936.2,1963.5 L 1918.2,1943.9 1900.6,1923.8 1883.6,1903.2 1867.1,1882.0 1851.4,1860.5 1836.4,1838.6 1822.4,1816.3 1809.3,1793.7 1797.3,1770.9 1786.3,1747.8 1776.5,1724.5 1768.0,1701.1 1760.7,1677.5 1754.7,1653.9 1750.0,1630.3 1746.7,1606.6 1744.7,1582.9 1744.2,1559.3 1745.1,1535.8 1747.4,1512.4 1751.1,1489.2 1756.2,1466.2 1762.7,1443.3 1770.5,1420.8 1779.7,1398.4 1790.2,1376.4 1801.9,1354.8 1814.9,1333.5 1829.0,1312.5 1844.2,1292.0 1860.4,1271.9 1877.7,1252.3 1895.8,1233.2 1914.7,1214.6 1934.3,1196.5 1954.5,1179.0 1975.3,1162.0 1996.4,1145.7 2017.9,1130.0  " style="stroke-opacity: 1.000000; stroke-width: 5.0; stroke: rgb(251,106,74); fill: none"  />
<path d="M 1754.8,916.7 L 1743.2,943.9 1731.9,971.5 1721.0,999.6 1710.5,1028.0 1700.5,1056.8 1690.9,1085.9 1681.9,1115.4 1673.5,1145.1 1665.6,1175.2 1658.4,1205.4 1651.7,1235.9 1645.8,1266.6 1640.5,1297.5 1635.9,1328.5 1632.0,1359.7 1628.8,1391.0 1626.3,1422.3 1624.6,1453.8 1623.6,1485.2 1623.4,1516.7 1623.9,1548.2 1625.1,1579.7 1627.1,1611.1 1629.7,1642.4 1633.1,1673.6 1637.3,1704.7 1642.1,1735.7 1647.5,1766.5 1653.7,1797.0 1660.4,1827.4 1667.8,1857.6 1675.8,1887.4 1684.3,1917.0 1693.4,1946.3 1703.0,1975.3 1713.0,2003.8 1723.5,2032.1 1734.3,2059.9 1745.5,2087.2  " style="stroke-opacity: 1.000000; stroke-width: 5.0; stroke: rgb(251,106,74); fill: none"  />
<path d="M 1202.8,937.1 L 1217.4,964.4 1232.3,991.7 1247.6,1019.1 1263.2,1046.4 1279.2,1073.8 1295.5,1101.0 1312.3,1128.2 1329.3,1155.3 1346.8,1182.4 1364.6,1209.2 1382.8,1236.0 1401.4,1262.6 1420.3,1289.0 1439.6,1315.2 1459.2,1341.2 1479.2,1367.0 1499.5,1392.6 1520.2,1417.9 1541.2,1443.0 1562.5,1467.8 1584.2,1492.3 1606.1,1516.6 1628.3,1540.5 1650.9,1564.1 1673.6,1587.4 1696.7,1610.4 1720.0,1633.1 1743.5,1655.4 1767.2,1677.4 1791.1,1699.1 1815.2,1720.4 1839.4,1741.4 1863.8,1762.0 1888.3,1782.2 1912.9,1802.1 1937.6,1821.7 1962.4,1840.9 1987.2,1859.7 2012.0,1878.2  " style="stroke-opacity: 1.000000; stroke-width: 5.0; stroke: rgb(251,106,74); fill: none"  />
<path d="M 1409.6,2130.0 L 1413.4,2105.0 1417.8,2080.1 1422.7,2055.5 1428.2,2031.2 1434.3,2007.5 1440.9,1984.5 1448.2,1962.3 1456.1,1941.0 1464.6,1920.7 1473.7,1901.4 1483.5,1883.4 1493.8,1866.6 1504.8,1851.2 1516.4,1837.2 1528.7,1824.6 1541.5,1813.5 1554.9,1804.0 1568.8,1796.0 1583.3,1789.7 1598.4,1784.9 1613.9,1781.8 1629.9,1780.3 1646.3,1780.4 1663.2,1782.1 1680.4,1785.3 1698.0,1790.1 1715.8,1796.5 1734.0,1804.2 1752.3,1813.4 1770.8,1823.8 1789.5,1835.6 1808.2,1848.5 1826.9,1862.5 1845.6,1877.5 1864.2,1893.4 1882.6,1910.1 1900.8,1927.4 1918.7,1945.3 1936.2,1963.5  " style="stroke-opacity: 1.000000; stroke-width: 5.0; stroke: rgb(251,106,74); fill: none"  />
<path d="M 1409.6,2130.0 L 1413.3,2105.3 1417.5,2080.7 1422.2,2056.5 1427.3,2032.7 1432.9,2009.5 1438.9,1987.1 1445.5,1965.5 1452.5,1944.9 1460.0,1925.4 1468.0,1907.1 1476.5,1890.1 1485.5,1874.5 1495.0,1860.3 1504.9,1847.6 1515.3,1836.5 1526.2,1827.0 1537.4,1819.1 1549.2,1812.9 1561.3,1808.5 1573.8,1805.7 1586.7,1804.7 1599.9,1805.4 1613.4,1807.8 1627.3,1811.8 1641.4,1817.6 1655.7,1824.9 1670.3,1833.8 1685.0,1844.3 1699.8,1856.1 1714.8,1869.4 1729.8,1883.9 1744.8,1899.7 1759.8,1916.5 1774.7,1934.3 1789.5,1953.0 1804.1,1972.5 1818.5,1992.6 1832.6,2013.1 1846.4,2034.0  " style="stroke-opacity: 1.000000; stroke-width: 5.0; stroke: rgb(251,106,74); fill: none"  />
<path d="M 1409.6,2130.0 L 1413.2,2105.7 1417.0,2081.6 1421.0,2057.8 1425.3,2034.6 1429.7,2012.0 1434.4,1990.3 1439.2,1969.6 1444.2,1949.9 1449.4,1931.5 1454.7,1914.4 1460.2,1898.7 1465.9,1884.4 1471.7,1871.8 1477.6,1860.8 1483.7,1851.5 1489.9,1844.0 1496.2,1838.2 1502.5,1834.3 1509.0,1832.2 1515.5,1832.0 1522.2,1833.6 1528.8,1837.0 1535.5,1842.3 1542.2,1849.4 1549.0,1858.2 1555.7,1868.7 1562.4,1880.9 1569.1,1894.6 1575.8,1909.9 1582.4,1926.6 1588.9,1944.6 1595.3,1963.8 1601.7,1984.2 1607.9,2005.5 1614.0,2027.6 1619.9,2050.5 1625.7,2073.9 1631.3,2097.7 1636.7,2121.6  " style="stroke-opacity: 1.000000; stroke-width: 5.0; stroke: rgb(251,106,74); fill: none"  />
<path d="M 1846.4,2034.0 L 1832.8,2013.3 1819.0,1992.9 1805.0,1973.0 1790.9,1953.6 1776.7,1935.1 1762.6,1917.3 1748.6,1900.6 1734.7,1885.0 1721.0,1870.5 1707.5,1857.4 1694.3,1845.6 1681.3,1835.3 1668.8,1826.5 1656.6,1819.3 1644.9,1813.7 1633.5,1809.8 1622.7,1807.5 1612.4,1807.0 1602.6,1808.2 1593.3,1811.2 1584.6,1815.8 1576.4,1822.2 1568.8,1830.2 1561.8,1840.0 1555.4,1851.3 1549.6,1864.2 1544.4,1878.6 1539.8,1894.5 1535.7,1911.7 1532.2,1930.2 1529.3,1949.9 1526.9,1970.7 1525.0,1992.5 1523.7,2015.1 1522.8,2038.4 1522.4,2062.3 1522.4,2086.7 1522.8,2111.3 1523.5,2136.1  " style="stroke-opacity: 1.000000; stroke-width: 5.0; stroke: rgb(251,106,74); fill: none"  />
<path d="M 1846.4,2034.0 L 1828.8,2006.9 1811.1,1979.8 1793.4,1952.7 1775.5,1925.6 1757.6,1898.5 1739.6,1871.4 1721.6,1844.3 1703.4,1817.2 1685.2,1790.2 1666.8,1763.1 1648.5,1736.1 1630.0,1709.1 1611.4,1682.2 1592.8,1655.2 1574.1,1628.4 1555.3,1601.5 1536.5,1574.7 1517.6,1547.9 1498.6,1521.2 1479.5,1494.5 1460.4,1467.9 1441.2,1441.3 1421.9,1414.8 1402.6,1388.3 1383.2,1361.9 1363.8,1335.5 1344.3,1309.3 1324.7,1283.0 1305.1,1256.9 1285.5,1230.8 1265.8,1204.8 1246.1,1178.8 1226.3,1153.0 1206.5,1127.1 1186.7,1101.4 1166.8,1075.8 1146.9,1050.2 1127.0,1024.7 1107.1,999.2  " style="stroke-opacity: 1.000000; stroke-width: 5.0; stroke: rgb(251,106,74); fill: none"  />
<path d="M 1846.4,2034.0 L 1832.6,2013.1 1818.5,1992.6 1804.1,1972.5 1789.5,1953.0 1774.7,1934.3 1759.8,1916.5 1744.8,1899.7 1729.8,1883.9 1714.8,1869.4 1699.8,1856.1 1685.0,1844.3 1670.3,1833.8 1655.7,1824.9 1641.4,1817.6 1627.3,1811.8 1613.4,1807.8 1599.9,1805.4 1586.7,1804.7 1573.8,1805.7 1561.3,1808.5 1549.2,1812.9 1537.4,1819.1 1526.2,1827.0 1515.3,1836.5 1504.9,1847.6 1495.0,1860.3 1485.5,1874.5 1476.5,1890.1 1468.0,1907.1 1460.0,1925.4 1452.5,1944.9 1445.5,1965.5 1438.9,1987.1 1432.9,2009.5 1427.3,2032.7 1422.2,2056.5 1417.5,2080.7 1413.3,2105.3 1409.6,2130.0  " style="stroke-opacity: 1.000000; stroke-width: 5.0; stroke: rgb(251,106,74); fill: none"  />
<path d="M 1846.4,2034.0 L 1832.4,2012.9 1818.0,1992.1 1803.2,1971.8 1788.1,1952.1 1772.6,1933.1 1756.9,1915.0 1741.0,1897.9 1724.9,1881.9 1708.6,1867.0 1692.3,1853.4 1675.9,1841.1 1659.4,1830.2 1643.0,1820.8 1626.5,1813.0 1610.2,1806.7 1593.9,1802.0 1577.7,1799.0 1561.7,1797.6 1545.9,1797.9 1530.3,1799.9 1514.9,1803.6 1499.7,1808.9 1484.8,1815.9 1470.2,1824.5 1456.0,1834.7 1442.0,1846.4 1428.5,1859.6 1415.3,1874.3 1402.4,1890.3 1390.0,1907.6 1378.0,1926.1 1366.5,1945.6 1355.4,1966.2 1344.7,1987.7 1334.5,2009.9 1324.8,2032.7 1315.5,2056.1 1306.8,2079.8 1298.5,2103.8  " style="stroke-opacity: 1.000000; stroke-width: 5.0; stroke: rgb(251,106,74); fill: none"  />
<path d="M 1419.6,868.6 L 1422.8,893.0 1426.2,917.2 1429.9,941.0 1433.8,964.3 1437.8,986.9 1442.1,1008.7 1446.6,1029.5 1451.3,1049.2 1456.2,1067.8 1461.3,1085.0 1466.5,1100.8 1472.0,1115.1 1477.6,1127.8 1483.4,1138.9 1489.3,1148.3 1495.3,1155.9 1501.5,1161.8 1507.8,1165.8 1514.3,1168.0 1520.8,1168.3 1527.4,1166.8 1534.1,1163.5 1540.9,1158.3 1547.7,1151.4 1554.6,1142.6 1561.5,1132.2 1568.4,1120.2 1575.3,1106.5 1582.2,1091.4 1589.1,1074.8 1595.9,1056.9 1602.7,1037.7 1609.3,1017.5 1615.9,996.3 1622.3,974.3 1628.7,951.5 1634.8,928.2 1640.8,904.5 1646.5,880.6  " style="stroke-opacity: 1.000000; stroke-width: 5.0; stroke: rgb(251,106,74); fill: none"  />
<path d="M 1298.5,2103.8 L 1306.9,2079.5 1315.9,2055.4 1325.5,2031.6 1335.6,2008.3 1346.3,1985.5 1357.6,1963.5 1369.5,1942.3 1381.9,1921.9 1394.8,1902.6 1408.4,1884.4 1422.4,1867.4 1437.0,1851.6 1452.1,1837.2 1467.7,1824.1 1483.7,1812.5 1500.3,1802.3 1517.2,1793.6 1534.6,1786.5 1552.3,1781.0 1570.4,1777.0 1588.8,1774.6 1607.6,1773.8 1626.6,1774.5 1645.9,1776.8 1665.3,1780.6 1684.9,1786.0 1704.7,1792.8 1724.6,1801.0 1744.5,1810.5 1764.4,1821.4 1784.3,1833.5 1804.1,1846.7 1823.7,1861.0 1843.2,1876.3 1862.5,1892.4 1881.5,1909.3 1900.1,1926.9 1918.4,1945.0 1936.2,1963.5  " style="stroke-opacity: 1.000000; stroke-width: 5.0; stroke: rgb(251,106,74); fill: none"  />
<path d="M 1298.5,2103.8 L 1306.8,2079.8 1315.5,2056.1 1324.8,2032.7 1334.5,2009.9 1344.7,1987.7 1355.4,1966.2 1366.5,1945.6 1378.0,1926.1 1390.0,1907.6 1402.4,1890.3 1415.3,1874.3 1428.5,1859.6 1442.0,1846.4 1456.0,1834.7 1470.2,1824.5 1484.8,1815.9 1499.7,1808.9 1514.9,1803.6 1530.3,1799.9 1545.9,1797.9 1561.7,1797.6 1577.7,1799.0 1593.9,1802.0 1610.2,1806.7 1626.5,1813.0 1643.0,1820.8 1659.4,1830.2 1675.9,1841.1 1692.3,1853.4 1708.6,1867.0 1724.9,1881.9 1741.0,1897.9 1756.9,1915.0 1772.6,1933.1 1788.1,1952.1 1803.2,1971.8 1818.0,1992.1 1832.4,2012.9 1846.4,2034.0  " style="stroke-opacity: 1.000000; stroke-width: 5.0; stroke: rgb(251,106,74); fill: none"  />
<path d="M 1298.5,2103.8 L 1306.5,2080.3 1314.8,2057.1 1323.4,2034.3 1332.2,2012.1 1341.2,1990.5 1350.4,1969.9 1359.8,1950.1 1369.3,1931.5 1379.0,1914.1 1388.8,1898.0 1398.6,1883.3 1408.5,1870.1 1418.5,1858.4 1428.5,1848.4 1438.4,1840.0 1448.4,1833.4 1458.3,1828.5 1468.2,1825.4 1478.0,1824.1 1487.7,1824.6 1497.3,1826.9 1506.8,1831.1 1516.2,1837.0 1525.4,1844.6 1534.4,1854.0 1543.3,1865.0 1552.0,1877.7 1560.4,1891.9 1568.7,1907.5 1576.7,1924.6 1584.5,1942.9 1592.0,1962.4 1599.2,1983.0 1606.2,2004.5 1612.9,2026.9 1619.3,2050.0 1625.4,2073.5 1631.2,2097.5 1636.7,2121.6  " style="stroke-opacity: 1.000000; stroke-width: 5.0; stroke: rgb(251,106,74); fill: none"  />
<path d="M 1854.8,971.6 L 1839.7,994.7 1824.9,1018.5 1810.7,1042.7 1797.0,1067.4 1784.0,1092.5 1771.8,1118.0 1760.3,1143.9 1749.6,1170.1 1739.9,1196.6 1731.1,1223.3 1723.2,1250.3 1716.4,1277.5 1710.7,1304.8 1706.0,1332.2 1702.5,1359.7 1700.1,1387.2 1698.8,1414.8 1698.8,1442.3 1699.8,1469.8 1702.1,1497.2 1705.5,1524.5 1710.1,1551.7 1715.8,1578.7 1722.7,1605.5 1730.6,1632.0 1739.7,1658.3 1749.8,1684.3 1760.9,1710.0 1773.1,1735.3 1786.1,1760.3 1800.0,1784.8 1814.8,1808.9 1830.4,1832.6 1846.6,1855.8 1863.6,1878.5 1881.1,1900.6 1899.0,1922.2 1917.5,1943.1 1936.2,1963.5  " style="stroke-opacity: 1.000000; stroke-width: 5.0; stroke: rgb(251,106,74); fill: none"  />
<path d="M 1194.0,2058.1 L 1206.8,2035.3 1220.2,2012.8 1234.2,1990.7 1248.8,1969.1 1264.0,1948.1 1279.7,1927.8 1295.9,1908.4 1312.6,1889.9 1329.8,1872.4 1347.4,1855.9 1365.5,1840.7 1384.1,1826.6 1403.0,1813.9 1422.3,1802.4 1441.9,1792.4 1461.8,1783.8 1482.1,1776.6 1502.6,1771.0 1523.3,1766.8 1544.3,1764.1 1565.4,1763.0 1586.7,1763.3 1608.1,1765.2 1629.6,1768.5 1651.1,1773.3 1672.6,1779.5 1694.1,1787.1 1715.6,1796.1 1736.9,1806.3 1758.1,1817.8 1779.2,1830.4 1800.0,1844.2 1820.6,1858.9 1840.9,1874.6 1860.8,1891.1 1880.3,1908.4 1899.4,1926.3 1918.1,1944.7 1936.2,1963.5  " style="stroke-opacity: 1.000000; stroke-width: 5.0; stroke: rgb(251,106,74); fill: none"  />
<path d="M 1099.2,1994.5 L 1116.5,1973.6 1134.5,1953.0 1153.1,1932.9 1172.3,1913.2 1192.0,1894.1 1212.3,1875.6 1233.2,1857.9 1254.5,1841.0 1276.4,1825.0 1298.7,1810.0 1321.4,1796.0 1344.5,1783.0 1368.1,1771.1 1392.0,1760.4 1416.2,1750.9 1440.7,1742.6 1465.5,1735.5 1490.5,1729.7 1515.8,1725.2 1541.2,1721.9 1566.8,1720.0 1592.5,1719.3 1618.2,1719.9 1644.0,1721.8 1669.9,1725.0 1695.7,1729.4 1721.4,1735.0 1747.1,1741.7 1772.6,1749.6 1798.0,1758.6 1823.1,1768.6 1848.0,1779.6 1872.7,1791.5 1896.9,1804.3 1920.9,1817.8 1944.4,1832.1 1967.4,1846.9 1990.0,1862.3 2012.0,1878.2  " style="stroke-opacity: 1.000000; stroke-width: 5.0; stroke: rgb(251,106,74); fill: none"  />
<path d="M 1099.2,1994.5 L 1116.2,1974.0 1133.8,1953.9 1152.0,1934.2 1170.7,1915.1 1189.9,1896.6 1209.7,1878.8 1229.9,1861.9 1250.5,1845.9 1271.5,1830.9 1292.9,1817.0 1314.7,1804.2 1336.7,1792.5 1359.1,1782.1 1381.7,1773.0 1404.5,1765.2 1427.5,1758.7 1450.7,1753.7 1474.0,1750.0 1497.4,1747.7 1520.9,1746.8 1544.4,1747.4 1567.9,1749.3 1591.4,1752.7 1614.8,1757.4 1638.2,1763.5 1661.4,1771.0 1684.4,1779.7 1707.3,1789.7 1729.9,1800.8 1752.3,1813.2 1774.4,1826.6 1796.1,1841.0 1817.5,1856.4 1838.5,1872.6 1859.1,1889.6 1879.1,1907.3 1898.7,1925.6 1917.7,1944.4 1936.2,1963.5  " style="stroke-opacity: 1.000000; stroke-width: 5.0; stroke: rgb(251,106,74); fill: none"  />
<path d="M 1745.5,2087.2 L 1733.7,2058.7 1722.1,2029.8 1710.7,2000.6 1699.5,1971.2 1688.6,1941.4 1678.0,1911.5 1667.6,1881.3 1657.5,1850.9 1647.8,1820.2 1638.4,1789.4 1629.3,1758.3 1620.6,1727.1 1612.2,1695.7 1604.2,1664.1 1596.6,1632.4 1589.4,1600.6 1582.6,1568.6 1576.2,1536.6 1570.2,1504.4 1564.6,1472.2 1559.4,1439.9 1554.7,1407.6 1550.3,1375.2 1546.4,1342.8 1542.9,1310.4 1539.8,1278.0 1537.1,1245.6 1534.8,1213.3 1532.9,1181.0 1531.4,1148.7 1530.3,1116.6 1529.5,1084.6 1529.1,1052.6 1529.1,1020.8 1529.3,989.2 1530.0,957.7 1530.9,926.4 1532.1,895.3 1533.6,864.4  " style="stroke-opacity: 1.000000; stroke-width: 5.0; stroke: rgb(251,106,74); fill: none"  />
<path d="M 1745.5,2087.2 L 1734.3,2059.9 1723.5,2032.1 1713.0,2003.8 1703.0,1975.3 1693.4,1946.3 1684.3,1917.0 1675.8,1887.4 1667.8,1857.6 1660.4,1827.4 1653.7,1797.0 1647.5,1766.5 1642.1,1735.7 1637.3,1704.7 1633.1,1673.6 1629.7,1642.4 1627.1,1611.1 1625.1,1579.7 1623.9,1548.2 1623.4,1516.7 1623.6,1485.2 1624.6,1453.8 1626.3,1422.3 1628.8,1391.0 1632.0,1359.7 1635.9,1328.5 1640.5,1297.5 1645.8,1266.6 1651.7,1235.9 1658.4,1205.4 1665.6,1175.2 1673.5,1145.1 1681.9,1115.4 1690.9,1085.9 1700.5,1056.8 1710.5,1028.0 1721.0,999.6 1731.9,971.5 1743.2,943.9 1754.8,916.7  " style="stroke-opacity: 1.000000; stroke-width: 5.0; stroke: rgb(251,106,74); fill: none"  />
<path d="M 1017.4,1915.0 L 1038.1,1897.5 1059.5,1880.5 1081.4,1864.0 1103.8,1848.0 1126.6,1832.7 1149.9,1818.2 1173.6,1804.5 1197.6,1791.7 1221.9,1779.9 1246.5,1769.1 1271.4,1759.3 1296.5,1750.7 1321.8,1743.2 1347.2,1736.9 1372.7,1731.9 1398.3,1728.1 1424.0,1725.5 1449.7,1724.3 1475.3,1724.4 1500.9,1725.7 1526.4,1728.4 1551.8,1732.3 1577.1,1737.5 1602.1,1744.0 1627.0,1751.7 1651.6,1760.6 1675.9,1770.7 1700.0,1782.0 1723.7,1794.3 1747.0,1807.6 1770.0,1822.0 1792.5,1837.2 1814.6,1853.3 1836.2,1870.2 1857.3,1887.8 1877.9,1906.1 1897.9,1924.8 1917.4,1944.0 1936.2,1963.5  " style="stroke-opacity: 1.000000; stroke-width: 5.0; stroke: rgb(251,106,74); fill: none"  />
<path d="M 1636.7,2121.6 L 1631.3,2097.7 1625.7,2073.9 1619.9,2050.5 1614.0,2027.6 1607.9,2005.5 1601.7,1984.2 1595.3,1963.8 1588.9,1944.6 1582.4,1926.6 1575.8,1909.9 1569.1,1894.6 1562.4,1880.9 1555.7,1868.7 1549.0,1858.2 1542.2,1849.4 1535.5,1842.3 1528.8,1837.0 1522.2,1833.6 1515.5,1832.0 1509.0,1832.2 1502.5,1834.3 1496.2,1838.2 1489.9,1844.0 1483.7,1851.5 1477.6,1860.8 1471.7,1871.8 1465.9,1884.4 1460.2,1898.7 1454.7,1914.4 1449.4,1931.5 1444.2,1949.9 1439.2,1969.6 1434.4,1990.3 1429.7,2012.0 1425.3,2034.6 1421.0,2057.8 1417.0,2081.6 1413.2,2105.7 1409.6,2130.0  " style="stroke-opacity: 1.000000; stroke-width: 5.0; stroke: rgb(251,106,74); fill: none"  />
<path d="M 1636.7,2121.6 L 1631.2,2097.5 1625.4,2073.5 1619.3,2050.0 1612.9,2026.9 1606.2,2004.5 1599.2,1983.0 1592.0,1962.4 1584.5,1942.9 1576.7,1924.6 1568.7,1907.5 1560.4,1891.9 1552.0,1877.7 1543.3,1865.0 1534.4,1854.0 1525.4,1844.6 1516.2,1837.0 1506.8,1831.1 1497.3,1826.9 1487.7,1824.6 1478.0,1824.1 1468.2,1825.4 1458.3,1828.5 1448.4,1833.4 1438.4,1840.0 1428.5,1848.4 1418.5,1858.4 1408.5,1870.1 1398.6,1883.3 1388.8,1898.0 1379.0,1914.1 1369.3,1931.5 1359.8,1950.1 1350.4,1969.9 1341.2,1990.5 1332.2,2012.1 1323.4,2034.3 1314.8,2057.1 1306.5,2080.3 1298.5,2103.8  " style="stroke-opacity: 1.000000; stroke-width: 5.0; stroke: rgb(251,106,74); fill: none"  />
<path d="M 2017.9,1130.0 L 1996.4,1145.7 1975.3,1162.0 1954.5,1179.0 1934.3,1196.5 1914.7,1214.6 1895.8,1233.2 1877.7,1252.3 1860.4,1271.9 1844.2,1292.0 1829.0,1312.5 1814.9,1333.5 1801.9,1354.8 1790.2,1376.4 1779.7,1398.4 1770.5,1420.8 1762.7,1443.3 1756.2,1466.2 1751.1,1489.2 1747.4,1512.4 1745.1,1535.8 1744.2,1559.3 1744.7,1582.9 1746.7,1606.6 1750.0,1630.3 1754.7,1653.9 1760.7,1677.5 1768.0,1701.1 1776.5,1724.5 1786.3,1747.8 1797.3,1770.9 1809.3,1793.7 1822.4,1816.3 1836.4,1838.6 1851.4,1860.5 1867.1,1882.0 1883.6,1903.2 1900.6,1923.8 1918.2,1943.9 1936.2,1963.5  " style="stroke-opacity: 1.000000; stroke-width: 5.0; stroke: rgb(251,106,74); fill: none"  />
</g>
<g id="track_0">
<path d="M 2071.3,1780.7 L 2049.3,1770.0 2027.4,1759.4 2005.7,1749.1 1984.5,1739.2 1963.8,1729.7 1943.8,1720.7 1924.6,1712.3 1906.3,1704.6 1889.0,1697.5 1872.9,1691.2 1857.9,1685.6 1844.2,1680.9 1831.8,1677.1 1820.8,1674.2 1811.3,1672.1 1803.3,1671.1 1796.9,1671.0 1792.0,1671.8 1788.6,1673.7 1786.9,1676.5 1786.8,1680.2 1788.3,1685.0 1791.4,1690.7 1796.0,1697.3 1802.2,1704.8 1809.8,1713.2 1818.9,1722.4 1829.4,1732.4 1841.2,1743.2 1854.3,1754.6 1868.5,1766.7 1883.8,1779.4 1900.1,1792.6 1917.3,1806.2 1935.2,1820.2 1953.8,1834.5 1972.9,1849.0 1992.3,1863.6 2012.0,1878.2  " style="stroke-opacity: 1.000000; stroke-width: 5.0; stroke: rgb(107,174,214); fill: none"  />
<path d="M 2071.3,1780.7 L 2049.1,1770.0 2027.1,1759.5 2005.2,1749.4 1983.6,1739.8 1962.5,1730.8 1941.9,1722.4 1922.1,1714.7 1903.0,1707.7 1884.9,1701.6 1867.7,1696.3 1851.6,1692.0 1836.7,1688.7 1823.0,1686.3 1810.6,1685.0 1799.5,1684.8 1789.7,1685.7 1781.5,1687.6 1774.6,1690.7 1769.2,1694.8 1765.3,1700.1 1762.9,1706.4 1762.0,1713.9 1762.6,1722.4 1764.7,1731.9 1768.1,1742.4 1773.0,1753.9 1779.3,1766.4 1786.9,1779.7 1795.7,1793.8 1805.8,1808.6 1817.0,1824.2 1829.2,1840.3 1842.4,1857.0 1856.5,1874.2 1871.4,1891.7 1886.9,1909.5 1903.0,1927.5 1919.4,1945.5 1936.2,1963.5  " style="stroke-opacity: 1.000000; stroke-width: 5.0; stroke: rgb(107,174,214); fill: none"  />
<path d="M 2071.3,1780.7 L 2049.0,1769.9 2026.6,1759.5 2004.4,1749.6 1982.4,1740.2 1960.7,1731.5 1939.5,1723.6 1918.9,1716.4 1898.9,1710.1 1879.7,1704.8 1861.4,1700.4 1844.0,1697.1 1827.7,1694.9 1812.4,1693.7 1798.2,1693.8 1785.3,1695.0 1773.5,1697.4 1763.1,1701.1 1753.9,1705.9 1746.1,1712.0 1739.7,1719.3 1734.6,1727.7 1730.8,1737.4 1728.5,1748.2 1727.5,1760.1 1727.8,1773.1 1729.4,1787.2 1732.3,1802.3 1736.5,1818.3 1741.8,1835.1 1748.3,1852.8 1755.9,1871.2 1764.5,1890.3 1774.1,1909.9 1784.5,1930.0 1795.7,1950.5 1807.6,1971.2 1820.1,1992.1 1833.1,2013.1 1846.4,2034.0  " style="stroke-opacity: 1.000000; stroke-width: 5.0; stroke: rgb(107,174,214); fill: none"  />
<path d="M 2071.3,1780.7 L 2048.4,1769.8 2025.4,1759.3 2002.3,1749.5 1979.2,1740.3 1956.2,1732.0 1933.4,1724.5 1911.0,1718.0 1888.9,1712.5 1867.3,1708.0 1846.3,1704.7 1825.9,1702.6 1806.2,1701.7 1787.3,1702.1 1769.1,1703.8 1751.9,1706.8 1735.5,1711.1 1720.1,1716.8 1705.6,1723.8 1692.2,1732.2 1679.8,1741.9 1668.5,1753.0 1658.2,1765.3 1649.0,1779.0 1640.9,1793.8 1633.9,1809.9 1627.9,1827.1 1623.1,1845.4 1619.2,1864.8 1616.4,1885.1 1614.6,1906.3 1613.8,1928.3 1613.9,1951.0 1614.9,1974.4 1616.8,1998.3 1619.4,2022.6 1622.8,2047.2 1626.9,2072.0 1631.5,2096.9 1636.7,2121.6  " style="stroke-opacity: 1.000000; stroke-width: 5.0; stroke: rgb(107,174,214); fill: none"  />
<path d="M 1533.6,864.4 L 1532.4,888.8 1531.3,913.1 1530.3,937.0 1529.5,960.5 1528.9,983.2 1528.5,1005.1 1528.4,1026.1 1528.4,1046.0 1528.7,1064.6 1529.2,1082.0 1530.0,1098.0 1531.1,1112.4 1532.4,1125.3 1534.0,1136.5 1535.9,1146.1 1538.1,1153.9 1540.5,1159.8 1543.2,1164.0 1546.2,1166.3 1549.5,1166.8 1553.0,1165.4 1556.8,1162.2 1560.8,1157.1 1565.1,1150.3 1569.6,1141.6 1574.3,1131.3 1579.2,1119.3 1584.2,1105.7 1589.5,1090.6 1594.9,1074.1 1600.4,1056.3 1606.1,1037.2 1611.8,1017.1 1617.6,995.9 1623.4,973.9 1629.3,951.3 1635.1,928.0 1640.9,904.4 1646.5,880.6  " style="stroke-opacity: 1.000000; stroke-width: 5.0; stroke: rgb(107,174,214); fill: none"  />
<path d="M 1523.5,2136.1 L 1522.5,2111.5 1521.2,2087.1 1519.7,2063.0 1518.0,2039.5 1515.9,2016.6 1513.6,1994.5 1511.0,1973.4 1508.1,1953.3 1504.9,1934.4 1501.4,1916.8 1497.5,1900.6 1493.4,1885.9 1489.0,1872.7 1484.2,1861.2 1479.2,1851.3 1473.8,1843.1 1468.2,1836.7 1462.2,1832.2 1456.0,1829.4 1449.5,1828.5 1442.8,1829.4 1435.8,1832.1 1428.6,1836.6 1421.2,1843.0 1413.6,1851.0 1405.8,1860.8 1397.8,1872.2 1389.7,1885.1 1381.5,1899.6 1373.1,1915.5 1364.7,1932.7 1356.3,1951.2 1347.9,1970.7 1339.4,1991.3 1331.0,2012.7 1322.7,2034.8 1314.5,2057.4 1306.4,2080.5 1298.5,2103.8  " style="stroke-opacity: 1.000000; stroke-width: 5.0; stroke: rgb(107,174,214); fill: none"  />
<path d="M 1107.1,999.2 L 1122.5,1018.6 1138.1,1037.7 1153.9,1056.3 1169.6,1074.3 1185.4,1091.5 1201.0,1107.9 1216.5,1123.3 1231.7,1137.6 1246.7,1150.8 1261.3,1162.6 1275.5,1173.2 1289.3,1182.3 1302.6,1189.9 1315.4,1196.0 1327.6,1200.5 1339.2,1203.4 1350.2,1204.7 1360.6,1204.3 1370.2,1202.2 1379.2,1198.5 1387.5,1193.0 1395.0,1186.0 1401.8,1177.3 1407.9,1166.9 1413.3,1155.1 1417.9,1141.7 1421.8,1126.9 1425.0,1110.7 1427.5,1093.1 1429.3,1074.4 1430.5,1054.5 1431.0,1033.6 1430.9,1011.8 1430.2,989.1 1429.0,965.8 1427.3,942.0 1425.1,917.7 1422.5,893.2 1419.6,868.6  " style="stroke-opacity: 1.000000; stroke-width: 5.0; stroke: rgb(107,174,214); fill: none"  />
<path d="M 2012.0,1878.2 L 1992.3,1863.6 1972.9,1849.0 1953.8,1834.5 1935.2,1820.2 1917.3,1806.2 1900.1,1792.6 1883.8,1779.4 1868.5,1766.7 1854.3,1754.6 1841.2,1743.2 1829.4,1732.4 1818.9,1722.4 1809.8,1713.2 1802.2,1704.8 1796.0,1697.3 1791.4,1690.7 1788.3,1685.0 1786.8,1680.2 1786.9,1676.5 1788.6,1673.7 1792.0,1671.8 1796.9,1671.0 1803.3,1671.1 1811.3,1672.1 1820.8,1674.2 1831.8,1677.1 1844.2,1680.9 1857.9,1685.6 1872.9,1691.2 1889.0,1697.5 1906.3,1704.6 1924.6,1712.3 1943.8,1720.7 1963.8,1729.7 1984.5,1739.2 2005.7,1749.1 2027.4,1759.4 2049.3,1770.0 2071.3,1780.7  " style="stroke-opacity: 1.000000; stroke-width: 5.0; stroke: rgb(107,174,214); fill: none"  />
<path d="M 2012.0,1878.2 L 1992.2,1863.7 1972.6,1849.4 1953.1,1835.4 1934.0,1821.9 1915.4,1808.8 1897.3,1796.4 1879.9,1784.8 1863.3,1773.8 1847.5,1763.8 1832.7,1754.7 1819.0,1746.6 1806.3,1739.5 1794.8,1733.5 1784.6,1728.6 1775.6,1725.0 1767.9,1722.5 1761.6,1721.2 1756.6,1721.2 1753.0,1722.4 1750.8,1724.9 1750.0,1728.6 1750.7,1733.5 1752.7,1739.6 1756.0,1747.0 1760.8,1755.5 1766.8,1765.1 1774.1,1775.8 1782.6,1787.5 1792.3,1800.2 1803.1,1813.8 1815.0,1828.3 1827.8,1843.5 1841.4,1859.4 1855.9,1875.8 1871.0,1892.8 1886.8,1910.2 1902.9,1927.8 1919.5,1945.7 1936.2,1963.5  " style="stroke-opacity: 1.000000; stroke-width: 5.0; stroke: rgb(107,174,214); fill: none"  />
<path d="M 2012.0,1878.2 L 1992.1,1863.7 1972.3,1849.4 1952.5,1835.6 1933.0,1822.3 1913.8,1809.7 1895.1,1797.7 1877.0,1786.6 1859.5,1776.3 1842.7,1767.1 1826.7,1758.8 1811.7,1751.7 1797.6,1745.8 1784.5,1741.0 1772.5,1737.5 1761.6,1735.3 1751.9,1734.4 1743.4,1734.8 1736.2,1736.6 1730.1,1739.8 1725.4,1744.2 1721.9,1750.1 1719.6,1757.2 1718.7,1765.7 1719.0,1775.4 1720.5,1786.4 1723.3,1798.6 1727.3,1812.0 1732.3,1826.4 1738.5,1841.8 1745.8,1858.3 1754.0,1875.6 1763.2,1893.7 1773.2,1912.5 1784.0,1931.9 1795.5,1951.8 1807.5,1972.0 1820.1,1992.6 1833.1,2013.3 1846.4,2034.0  " style="stroke-opacity: 1.000000; stroke-width: 5.0; stroke: rgb(107,174,214); fill: none"  />
<path d="M 2012.0,1878.2 L 1991.9,1863.6 1971.8,1849.4 1951.7,1835.7 1931.7,1822.5 1912.0,1810.1 1892.5,1798.4 1873.5,1787.7 1855.0,1778.0 1837.1,1769.3 1819.8,1761.7 1803.3,1755.3 1787.6,1750.2 1772.8,1746.4 1758.8,1743.9 1745.8,1742.8 1733.9,1743.1 1722.9,1744.8 1713.1,1748.0 1704.3,1752.5 1696.7,1758.5 1690.1,1766.0 1684.7,1774.8 1680.5,1785.0 1677.3,1796.6 1675.3,1809.4 1674.4,1823.6 1674.6,1838.9 1675.8,1855.4 1678.1,1872.9 1681.3,1891.5 1685.5,1910.9 1690.6,1931.2 1696.5,1952.3 1703.2,1973.9 1710.5,1996.1 1718.5,2018.6 1727.1,2041.4 1736.1,2064.3 1745.5,2087.2  " style="stroke-opacity: 1.000000; stroke-width: 5.0; stroke: rgb(107,174,214); fill: none"  />
<path d="M 2012.0,1878.2 L 1991.7,1863.5 1971.3,1849.2 1950.7,1835.5 1930.2,1822.4 1909.8,1810.1 1889.6,1798.7 1869.6,1788.2 1850.0,1778.7 1830.9,1770.4 1812.2,1763.2 1794.2,1757.3 1776.7,1752.7 1760.0,1749.5 1744.0,1747.6 1728.7,1747.2 1714.3,1748.3 1700.8,1750.8 1688.2,1754.8 1676.5,1760.3 1665.8,1767.3 1656.0,1775.7 1647.2,1785.6 1639.4,1796.9 1632.6,1809.6 1626.7,1823.7 1621.9,1839.1 1618.0,1855.7 1615.1,1873.5 1613.1,1892.4 1612.0,1912.3 1611.8,1933.2 1612.5,1955.0 1614.0,1977.5 1616.2,2000.6 1619.1,2024.3 1622.7,2048.3 1626.8,2072.7 1631.6,2097.2 1636.7,2121.6  " style="stroke-opacity: 1.000000; stroke-width: 5.0; stroke: rgb(107,174,214); fill: none"  />
<path d="M 1646.5,880.6 L 1640.9,904.4 1635.1,928.0 1629.3,951.3 1623.4,973.9 1617.6,995.9 1611.8,1017.1 1606.1,1037.2 1600.4,1056.3 1594.9,1074.1 1589.5,1090.6 1584.2,1105.7 1579.2,1119.3 1574.3,1131.3 1569.6,1141.6 1565.1,1150.3 1560.8,1157.1 1556.8,1162.2 1553.0,1165.4 1549.5,1166.8 1546.2,1166.3 1543.2,1164.0 1540.5,1159.8 1538.1,1153.9 1535.9,1146.1 1534.0,1136.5 1532.4,1125.3 1531.1,1112.4 1530.0,1098.0 1529.2,1082.0 1528.7,1064.6 1528.4,1046.0 1528.4,1026.1 1528.5,1005.1 1528.9,983.2 1529.5,960.5 1530.3,937.0 1531.3,913.1 1532.4,888.8 1533.6,864.4  " style="stroke-opacity: 1.000000; stroke-width: 5.0; stroke: rgb(107,174,214); fill: none"  />
<path d="M 1646.5,880.6 L 1641.0,904.6 1635.7,928.4 1630.8,952.0 1626.2,975.2 1622.1,997.8 1618.5,1019.7 1615.3,1040.7 1612.8,1060.9 1610.9,1079.9 1609.6,1097.8 1609.0,1114.5 1609.0,1129.8 1609.8,1143.7 1611.3,1156.1 1613.5,1166.9 1616.5,1176.2 1620.3,1183.9 1624.8,1189.9 1630.0,1194.2 1636.0,1196.8 1642.8,1197.7 1650.2,1196.9 1658.4,1194.5 1667.2,1190.4 1676.7,1184.6 1686.8,1177.3 1697.5,1168.4 1708.8,1158.1 1720.6,1146.3 1732.8,1133.2 1745.5,1118.8 1758.5,1103.3 1771.9,1086.7 1785.5,1069.2 1799.3,1050.8 1813.2,1031.7 1827.1,1012.0 1841.0,991.9 1854.8,971.6  " style="stroke-opacity: 1.000000; stroke-width: 5.0; stroke: rgb(107,174,214); fill: none"  />
<path d="M 1646.5,880.6 L 1641.0,904.7 1635.8,928.8 1631.1,952.7 1626.9,976.3 1623.2,999.3 1620.2,1021.8 1617.8,1043.5 1616.1,1064.3 1615.1,1084.2 1614.9,1103.0 1615.6,1120.7 1617.1,1137.2 1619.4,1152.3 1622.6,1166.1 1626.7,1178.5 1631.6,1189.4 1637.5,1198.8 1644.3,1206.6 1651.9,1212.9 1660.4,1217.5 1669.8,1220.6 1680.1,1222.1 1691.1,1222.0 1703.0,1220.4 1715.6,1217.2 1729.0,1212.4 1743.0,1206.3 1757.7,1198.6 1772.9,1189.7 1788.7,1179.4 1805.0,1167.9 1821.6,1155.3 1838.6,1141.6 1855.9,1126.9 1873.4,1111.5 1891.0,1095.2 1908.6,1078.4 1926.1,1061.1 1943.5,1043.4  " style="stroke-opacity: 1.000000; stroke-width: 5.0; stroke: rgb(107,174,214); fill: none"  />
<path d="M 1936.2,1963.5 L 1919.4,1945.5 1903.0,1927.5 1886.9,1909.5 1871.4,1891.7 1856.5,1874.2 1842.4,1857.0 1829.2,1840.3 1817.0,1824.2 1805.8,1808.6 1795.7,1793.8 1786.9,1779.7 1779.3,1766.4 1773.0,1753.9 1768.1,1742.4 1764.7,1731.9 1762.6,1722.4 1762.0,1713.9 1762.9,1706.4 1765.3,1700.1 1769.2,1694.8 1774.6,1690.7 1781.5,1687.6 1789.7,1685.7 1799.5,1684.8 1810.6,1685.0 1823.0,1686.3 1836.7,1688.7 1851.6,1692.0 1867.7,1696.3 1884.9,1701.6 1903.0,1707.7 1922.1,1714.7 1941.9,1722.4 1962.5,1730.8 1983.6,1739.8 2005.2,1749.4 2027.1,1759.5 2049.1,1770.0 2071.3,1780.7  " style="stroke-opacity: 1.000000; stroke-width: 5.0; stroke: rgb(107,174,214); fill: none"  />
<path d="M 1936.2,1963.5 L 1919.5,1945.7 1902.9,1927.8 1886.8,1910.2 1871.0,1892.8 1855.9,1875.8 1841.4,1859.4 1827.8,1843.5 1815.0,1828.3 1803.1,1813.8 1792.3,1800.2 1782.6,1787.5 1774.1,1775.8 1766.8,1765.1 1760.8,1755.5 1756.0,1747.0 1752.7,1739.6 1750.7,1733.5 1750.0,1728.6 1750.8,1724.9 1753.0,1722.4 1756.6,1721.2 1761.6,1721.2 1767.9,1722.5 1775.6,1725.0 1784.6,1728.6 1794.8,1733.5 1806.3,1739.5 1819.0,1746.6 1832.7,1754.7 1847.5,1763.8 1863.3,1773.8 1879.9,1784.8 1897.3,1796.4 1915.4,1808.8 1934.0,1821.9 1953.1,1835.4 1972.6,1849.4 1992.2,1863.7 2012.0,1878.2  " style="stroke-opacity: 1.000000; stroke-width: 5.0; stroke: rgb(107,174,214); fill: none"  />
<path d="M 1936.2,1963.5 L 1919.4,1945.7 1902.6,1928.2 1886.0,1910.9 1869.6,1894.2 1853.5,1878.1 1838.0,1862.6 1822.9,1848.0 1808.5,1834.3 1794.8,1821.6 1781.9,1810.0 1769.8,1799.6 1758.6,1790.3 1748.4,1782.4 1739.2,1775.8 1731.0,1770.6 1723.9,1766.7 1717.9,1764.4 1713.0,1763.4 1709.2,1764.0 1706.6,1766.0 1705.2,1769.5 1704.9,1774.5 1705.8,1780.9 1707.8,1788.7 1711.0,1797.9 1715.2,1808.5 1720.5,1820.3 1726.8,1833.4 1734.0,1847.6 1742.2,1862.9 1751.3,1879.2 1761.2,1896.5 1771.8,1914.5 1783.1,1933.3 1794.9,1952.8 1807.3,1972.6 1820.1,1992.9 1833.2,2013.4 1846.4,2034.0  " style="stroke-opacity: 1.000000; stroke-width: 5.0; stroke: rgb(107,174,214); fill: none"  />
<path d="M 1936.2,1963.5 L 1919.3,1945.7 1902.3,1928.2 1885.3,1911.0 1868.5,1894.5 1851.9,1878.6 1835.6,1863.5 1819.7,1849.3 1804.3,1836.1 1789.5,1824.0 1775.3,1813.0 1761.7,1803.3 1748.9,1794.9 1736.9,1787.9 1725.7,1782.4 1715.4,1778.2 1706.0,1775.6 1697.6,1774.5 1690.1,1775.0 1683.6,1777.0 1678.1,1780.6 1673.6,1785.7 1670.2,1792.3 1667.7,1800.5 1666.3,1810.1 1665.9,1821.2 1666.4,1833.7 1667.9,1847.5 1670.3,1862.6 1673.7,1878.9 1677.9,1896.4 1682.9,1914.9 1688.6,1934.3 1695.1,1954.6 1702.3,1975.6 1710.0,1997.2 1718.3,2019.4 1727.0,2041.8 1736.1,2064.5 1745.5,2087.2  " style="stroke-opacity: 1.000000; stroke-width: 5.0; stroke: rgb(107,174,214); fill: none"  />
<path d="M 1936.2,1963.5 L 1919.1,1945.6 1901.8,1928.0 1884.5,1910.9 1867.2,1894.4 1850.0,1878.7 1832.9,1863.7 1816.1,1849.8 1799.7,1836.9 1783.6,1825.1 1768.0,1814.6 1752.9,1805.4 1738.3,1797.6 1724.4,1791.2 1711.1,1786.2 1698.5,1782.8 1686.7,1781.0 1675.7,1780.7 1665.4,1782.0 1655.9,1785.0 1647.3,1789.5 1639.6,1795.6 1632.7,1803.4 1626.7,1812.7 1621.5,1823.5 1617.3,1835.8 1613.9,1849.5 1611.3,1864.6 1609.6,1881.0 1608.6,1898.7 1608.5,1917.6 1609.2,1937.5 1610.5,1958.3 1612.6,1980.1 1615.3,2002.6 1618.6,2025.7 1622.4,2049.3 1626.8,2073.2 1631.6,2097.4 1636.7,2121.6  " style="stroke-opacity: 1.000000; stroke-width: 5.0; stroke: rgb(107,174,214); fill: none"  />
<path d="M 1409.6,2130.0 L 1413.0,2105.8 1416.3,2081.7 1419.4,2058.0 1422.2,2034.7 1424.9,2012.1 1427.2,1990.3 1429.3,1969.5 1431.0,1949.7 1432.4,1931.0 1433.4,1913.7 1434.0,1897.7 1434.3,1883.2 1434.1,1870.3 1433.5,1858.9 1432.5,1849.3 1431.0,1841.3 1429.1,1835.2 1426.8,1830.8 1424.0,1828.2 1420.8,1827.4 1417.2,1828.5 1413.2,1831.4 1408.7,1836.1 1403.8,1842.5 1398.6,1850.7 1393.0,1860.6 1387.0,1872.1 1380.7,1885.1 1374.2,1899.7 1367.3,1915.6 1360.2,1932.9 1352.9,1951.4 1345.4,1971.0 1337.7,1991.5 1329.9,2012.9 1322.1,2035.0 1314.2,2057.6 1306.3,2080.6 1298.5,2103.8  " style="stroke-opacity: 1.000000; stroke-width: 5.0; stroke: rgb(107,174,214); fill: none"  />
<path d="M 1846.4,2034.0 L 1833.1,2013.1 1820.1,1992.1 1807.6,1971.2 1795.7,1950.5 1784.5,1930.0 1774.1,1909.9 1764.5,1890.3 1755.9,1871.2 1748.3,1852.8 1741.8,1835.1 1736.5,1818.3 1732.3,1802.3 1729.4,1787.2 1727.8,1773.1 1727.5,1760.1 1728.5,1748.2 1730.8,1737.4 1734.6,1727.7 1739.7,1719.3 1746.1,1712.0 1753.9,1705.9 1763.1,1701.1 1773.5,1697.4 1785.3,1695.0 1798.2,1693.8 1812.4,1693.7 1827.7,1694.9 1844.0,1697.1 1861.4,1700.4 1879.7,1704.8 1898.9,1710.1 1918.9,1716.4 1939.5,1723.6 1960.7,1731.5 1982.4,1740.2 2004.4,1749.6 2026.6,1759.5 2049.0,1769.9 2071.3,1780.7  " style="stroke-opacity: 1.000000; stroke-width: 5.0; stroke: rgb(107,174,214); fill: none"  />
<path d="M 1846.4,2034.0 L 1833.1,2013.3 1820.1,1992.6 1807.5,1972.0 1795.5,1951.8 1784.0,1931.9 1773.2,1912.5 1763.2,1893.7 1754.0,1875.6 1745.8,1858.3 1738.5,1841.8 1732.3,1826.4 1727.3,1812.0 1723.3,1798.6 1720.5,1786.4 1719.0,1775.4 1718.7,1765.7 1719.6,1757.2 1721.9,1750.1 1725.4,1744.2 1730.1,1739.8 1736.2,1736.6 1743.4,1734.8 1751.9,1734.4 1761.6,1735.3 1772.5,1737.5 1784.5,1741.0 1797.6,1745.8 1811.7,1751.7 1826.7,1758.8 1842.7,1767.1 1859.5,1776.3 1877.0,1786.6 1895.1,1797.7 1913.8,1809.7 1933.0,1822.3 1952.5,1835.6 1972.3,1849.4 1992.1,1863.7 2012.0,1878.2  " style="stroke-opacity: 1.000000; stroke-width: 5.0; stroke: rgb(107,174,214); fill: none"  />
<path d="M 1846.4,2034.0 L 1833.2,2013.4 1820.1,1992.9 1807.3,1972.6 1794.9,1952.8 1783.1,1933.3 1771.8,1914.5 1761.2,1896.5 1751.3,1879.2 1742.2,1862.9 1734.0,1847.6 1726.8,1833.4 1720.5,1820.3 1715.2,1808.5 1711.0,1797.9 1707.8,1788.7 1705.8,1780.9 1704.9,1774.5 1705.2,1769.5 1706.6,1766.0 1709.2,1764.0 1713.0,1763.4 1717.9,1764.4 1723.9,1766.7 1731.0,1770.6 1739.2,1775.8 1748.4,1782.4 1758.6,1790.3 1769.8,1799.6 1781.9,1810.0 1794.8,1821.6 1808.5,1834.3 1822.9,1848.0 1838.0,1862.6 1853.5,1878.1 1869.6,1894.2 1886.0,1910.9 1902.6,1928.2 1919.4,1945.7 1936.2,1963.5  " style="stroke-opacity: 1.000000; stroke-width: 5.0; stroke: rgb(107,174,214); fill: none"  />
<path d="M 1846.4,2034.0 L 1832.9,2013.4 1819.4,1993.1 1805.7,1973.2 1792.1,1953.9 1778.6,1935.3 1765.3,1917.6 1752.2,1900.7 1739.4,1885.0 1727.0,1870.4 1715.0,1857.1 1703.4,1845.2 1692.3,1834.7 1681.7,1825.6 1671.7,1818.1 1662.3,1812.2 1653.5,1808.0 1645.4,1805.4 1637.9,1804.5 1631.2,1805.3 1625.2,1807.9 1619.8,1812.1 1615.3,1818.0 1611.4,1825.6 1608.3,1834.8 1605.8,1845.7 1604.1,1858.0 1603.1,1871.9 1602.8,1887.2 1603.2,1903.9 1604.2,1921.8 1605.8,1940.9 1608.1,1961.0 1610.8,1982.1 1614.1,2004.1 1617.9,2026.8 1622.1,2050.0 1626.6,2073.7 1631.5,2097.6 1636.7,2121.6  " style="stroke-opacity: 1.000000; stroke-width: 5.0; stroke: rgb(107,174,214); fill: none"  />
<path d="M 1419.6,868.6 L 1422.5,893.2 1425.1,917.7 1427.3,942.0 1429.0,965.8 1430.2,989.1 1430.9,1011.8 1431.0,1033.6 1430.5,1054.5 1429.3,1074.4 1427.5,1093.1 1425.0,1110.7 1421.8,1126.9 1417.9,1141.7 1413.3,1155.1 1407.9,1166.9 1401.8,1177.3 1395.0,1186.0 1387.5,1193.0 1379.2,1198.5 1370.2,1202.2 1360.6,1204.3 1350.2,1204.7 1339.2,1203.4 1327.6,1200.5 1315.4,1196.0 1302.6,1189.9 1289.3,1182.3 1275.5,1173.2 1261.3,1162.6 1246.7,1150.8 1231.7,1137.6 1216.5,1123.3 1201.0,1107.9 1185.4,1091.5 1169.6,1074.3 1153.9,1056.3 1138.1,1037.7 1122.5,1018.6 1107.1,999.2  " style="stroke-opacity: 1.000000; stroke-width: 5.0; stroke: rgb(107,174,214); fill: none"  />
<path d="M 1298.5,2103.8 L 1306.4,2080.5 1314.5,2057.4 1322.7,2034.8 1331.0,2012.7 1339.4,1991.3 1347.9,1970.7 1356.3,1951.2 1364.7,1932.7 1373.1,1915.5 1381.5,1899.6 1389.7,1885.1 1397.8,1872.2 1405.8,1860.8 1413.6,1851.0 1421.2,1843.0 1428.6,1836.6 1435.8,1832.1 1442.8,1829.4 1449.5,1828.5 1456.0,1829.4 1462.2,1832.2 1468.2,1836.7 1473.8,1843.1 1479.2,1851.3 1484.2,1861.2 1489.0,1872.7 1493.4,1885.9 1497.5,1900.6 1501.4,1916.8 1504.9,1934.4 1508.1,1953.3 1511.0,1973.4 1513.6,1994.5 1515.9,2016.6 1518.0,2039.5 1519.7,2063.0 1521.2,2087.1 1522.5,2111.5 1523.5,2136.1  " style="stroke-opacity: 1.000000; stroke-width: 5.0; stroke: rgb(107,174,214); fill: none"  />
<path d="M 1298.5,2103.8 L 1306.3,2080.6 1314.2,2057.6 1322.1,2035.0 1329.9,2012.9 1337.7,1991.5 1345.4,1971.0 1352.9,1951.4 1360.2,1932.9 1367.3,1915.6 1374.2,1899.7 1380.7,1885.1 1387.0,1872.1 1393.0,1860.6 1398.6,1850.7 1403.8,1842.5 1408.7,1836.1 1413.2,1831.4 1417.2,1828.5 1420.8,1827.4 1424.0,1828.2 1426.8,1830.8 1429.1,1835.2 1431.0,1841.3 1432.5,1849.3 1433.5,1858.9 1434.1,1870.3 1434.3,1883.2 1434.0,1897.7 1433.4,1913.7 1432.4,1931.0 1431.0,1949.7 1429.3,1969.5 1427.2,1990.3 1424.9,2012.1 1422.2,2034.7 1419.4,2058.0 1416.3,2081.7 1413.0,2105.8 1409.6,2130.0  " style="stroke-opacity: 1.000000; stroke-width: 5.0; stroke: rgb(107,174,214); fill: none"  />
<path d="M 1854.8,971.6 L 1841.0,991.9 1827.1,1012.0 1813.2,1031.7 1799.3,1050.8 1785.5,1069.2 1771.9,1086.7 1758.5,1103.3 1745.5,1118.8 1732.8,1133.2 1720.6,1146.3 1708.8,1158.1 1697.5,1168.4 1686.8,1177.3 1676.7,1184.6 1667.2,1190.4 1658.4,1194.5 1650.2,1196.9 1642.8,1197.7 1636.0,1196.8 1630.0,1194.2 1624.8,1189.9 1620.3,1183.9 1616.5,1176.2 1613.5,1166.9 1611.3,1156.1 1609.8,1143.7 1609.0,1129.8 1609.0,1114.5 1609.6,1097.8 1610.9,1079.9 1612.8,1060.9 1615.3,1040.7 1618.5,1019.7 1622.1,997.8 1626.2,975.2 1630.8,952.0 1635.7,928.4 1641.0,904.6 1646.5,880.6  " style="stroke-opacity: 1.000000; stroke-width: 5.0; stroke: rgb(107,174,214); fill: none"  />
<path d="M 1854.8,971.6 L 1841.2,992.1 1827.9,1012.5 1815.0,1032.9 1802.6,1053.0 1790.8,1072.7 1779.7,1091.9 1769.4,1110.6 1759.9,1128.5 1751.4,1145.7 1743.9,1162.0 1737.5,1177.3 1732.2,1191.7 1728.0,1205.0 1725.1,1217.1 1723.3,1228.1 1722.9,1237.8 1723.7,1246.3 1725.8,1253.5 1729.2,1259.4 1733.9,1263.9 1739.9,1267.1 1747.1,1269.0 1755.6,1269.6 1765.3,1268.9 1776.2,1266.8 1788.3,1263.5 1801.4,1259.0 1815.6,1253.2 1830.8,1246.4 1846.9,1238.4 1863.8,1229.4 1881.5,1219.4 1899.8,1208.6 1918.7,1196.9 1938.0,1184.6 1957.8,1171.6 1977.7,1158.1 1997.8,1144.2 2017.9,1130.0  " style="stroke-opacity: 1.000000; stroke-width: 5.0; stroke: rgb(107,174,214); fill: none"  />
<path d="M 1943.5,1043.4 L 1926.1,1061.1 1908.6,1078.4 1891.0,1095.2 1873.4,1111.5 1855.9,1126.9 1838.6,1141.6 1821.6,1155.3 1805.0,1167.9 1788.7,1179.4 1772.9,1189.7 1757.7,1198.6 1743.0,1206.3 1729.0,1212.4 1715.6,1217.2 1703.0,1220.4 1691.1,1222.0 1680.1,1222.1 1669.8,1220.6 1660.4,1217.5 1651.9,1212.9 1644.3,1206.6 1637.5,1198.8 1631.6,1189.4 1626.7,1178.5 1622.6,1166.1 1619.4,1152.3 1617.1,1137.2 1615.6,1120.7 1614.9,1103.0 1615.1,1084.2 1616.1,1064.3 1617.8,1043.5 1620.2,1021.8 1623.2,999.3 1626.9,976.3 1631.1,952.7 1635.8,928.8 1641.0,904.7 1646.5,880.6  " style="stroke-opacity: 1.000000; stroke-width: 5.0; stroke: rgb(107,174,214); fill: none"  />
<path d="M 1745.5,2087.2 L 1736.1,2064.3 1727.1,2041.4 1718.5,2018.6 1710.5,1996.1 1703.2,1973.9 1696.5,1952.3 1690.6,1931.2 1685.5,1910.9 1681.3,1891.5 1678.1,1872.9 1675.8,1855.4 1674.6,1838.9 1674.4,1823.6 1675.3,1809.4 1677.3,1796.6 1680.5,1785.0 1684.7,1774.8 1690.1,1766.0 1696.7,1758.5 1704.3,1752.5 1713.1,1748.0 1722.9,1744.8 1733.9,1743.1 1745.8,1742.8 1758.8,1743.9 1772.8,1746.4 1787.6,1750.2 1803.3,1755.3 1819.8,1761.7 1837.1,1769.3 1855.0,1778.0 1873.5,1787.7 1892.5,1798.4 1912.0,1810.1 1931.7,1822.5 1951.7,1835.7 1971.8,1849.4 1991.9,1863.6 2012.0,1878.2  " style="stroke-opacity: 1.000000; stroke-width: 5.0; stroke: rgb(107,174,214); fill: none"  />
<path d="M 1745.5,2087.2 L 1736.1,2064.5 1727.0,2041.8 1718.3,2019.4 1710.0,1997.2 1702.3,1975.6 1695.1,1954.6 1688.6,1934.3 1682.9,1914.9 1677.9,1896.4 1673.7,1878.9 1670.3,1862.6 1667.9,1847.5 1666.4,1833.7 1665.9,1821.2 1666.3,1810.1 1667.7,1800.5 1670.2,1792.3 1673.6,1785.7 1678.1,1780.6 1683.6,1777.0 1690.1,1775.0 1697.6,1774.5 1706.0,1775.6 1715.4,1778.2 1725.7,1782.4 1736.9,1787.9 1748.9,1794.9 1761.7,1803.3 1775.3,1813.0 1789.5,1824.0 1804.3,1836.1 1819.7,1849.3 1835.6,1863.5 1851.9,1878.6 1868.5,1894.5 1885.3,1911.0 1902.3,1928.2 1919.3,1945.7 1936.2,1963.5  " style="stroke-opacity: 1.000000; stroke-width: 5.0; stroke: rgb(107,174,214); fill: none"  />
<path d="M 1636.7,2121.6 L 1631.5,2096.9 1626.9,2072.0 1622.8,2047.2 1619.4,2022.6 1616.8,1998.3 1614.9,1974.4 1613.9,1951.0 1613.8,1928.3 1614.6,1906.3 1616.4,1885.1 1619.2,1864.8 1623.1,1845.4 1627.9,1827.1 1633.9,1809.9 1640.9,1793.8 1649.0,1779.0 1658.2,1765.3 1668.5,1753.0 1679.8,1741.9 1692.2,1732.2 1705.6,1723.8 1720.1,1716.8 1735.5,1711.1 1751.9,1706.8 1769.1,1703.8 1787.3,1702.1 1806.2,1701.7 1825.9,1702.6 1846.3,1704.7 1867.3,1708.0 1888.9,1712.5 1911.0,1718.0 1933.4,1724.5 1956.2,1732.0 1979.2,1740.3 2002.3,1749.5 2025.4,1759.3 2048.4,1769.8 2071.3,1780.7  " style="stroke-opacity: 1.000000; stroke-width: 5.0; stroke: rgb(107,174,214); fill: none"  />
<path d="M 1636.7,2121.6 L 1631.6,2097.2 1626.8,2072.7 1622.7,2048.3 1619.1,2024.3 1616.2,2000.6 1614.0,1977.5 1612.5,1955.0 1611.8,1933.2 1612.0,1912.3 1613.1,1892.4 1615.1,1873.5 1618.0,1855.7 1621.9,1839.1 1626.7,1823.7 1632.6,1809.6 1639.4,1796.9 1647.2,1785.6 1656.0,1775.7 1665.8,1767.3 1676.5,1760.3 1688.2,1754.8 1700.8,1750.8 1714.3,1748.3 1728.7,1747.2 1744.0,1747.6 1760.0,1749.5 1776.7,1752.7 1794.2,1757.3 1812.2,1763.2 1830.9,1770.4 1850.0,1778.7 1869.6,1788.2 1889.6,1798.7 1909.8,1810.1 1930.2,1822.4 1950.7,1835.5 1971.3,1849.2 1991.7,1863.5 2012.0,1878.2  " style="stroke-opacity: 1.000000; stroke-width: 5.0; stroke: rgb(107,174,214); fill: none"  />
<path d="M 1636.7,2121.6 L 1631.6,2097.4 1626.8,2073.2 1622.4,2049.3 1618.6,2025.7 1615.3,2002.6 1612.6,1980.1 1610.5,1958.3 1609.2,1937.5 1608.5,1917.6 1608.6,1898.7 1609.6,1881.0 1611.3,1864.6 1613.9,1849.5 1617.3,1835.8 1621.5,1823.5 1626.7,1812.7 1632.7,1803.4 1639.6,1795.6 1647.3,1789.5 1655.9,1785.0 1665.4,1782.0 1675.7,1780.7 1686.7,1781.0 1698.5,1782.8 1711.1,1786.2 1724.4,1791.2 1738.3,1797.6 1752.9,1805.4 1768.0,1814.6 1783.6,1825.1 1799.7,1836.9 1816.1,1849.8 1832.9,1863.7 1850.0,1878.7 1867.2,1894.4 1884.5,1910.9 1901.8,1928.0 1919.1,1945.6 1936.2,1963.5  " style="stroke-opacity: 1.000000; stroke-width: 5.0; stroke: rgb(107,174,214); fill: none"  />
<path d="M 1636.7,2121.6 L 1631.5,2097.6 1626.6,2073.7 1622.1,2050.0 1617.9,2026.8 1614.1,2004.1 1610.8,1982.1 1608.1,1961.0 1605.8,1940.9 1604.2,1921.8 1603.2,1903.9 1602.8,1887.2 1603.1,1871.9 1604.1,1858.0 1605.8,1845.7 1608.3,1834.8 1611.4,1825.6 1615.3,1818.0 1619.8,1812.1 1625.2,1807.9 1631.2,1805.3 1637.9,1804.5 1645.4,1805.4 1653.5,1808.0 1662.3,1812.2 1671.7,1818.1 1681.7,1825.6 1692.3,1834.7 1703.4,1845.2 1715.0,1857.1 1727.0,1870.4 1739.4,1885.0 1752.2,1900.7 1765.3,1917.6 1778.6,1935.3 1792.1,1953.9 1805.7,1973.2 1819.4,1993.1 1832.9,2013.4 1846.4,2034.0  " style="stroke-opacity: 1.000000; stroke-width: 5.0; stroke: rgb(107,174,214); fill: none"  />
<path d="M 2017.9,1130.0 L 1997.8,1144.2 1977.7,1158.1 1957.8,1171.6 1938.0,1184.6 1918.7,1196.9 1899.8,1208.6 1881.5,1219.4 1863.8,1229.4 1846.9,1238.4 1830.8,1246.4 1815.6,1253.2 1801.4,1259.0 1788.3,1263.5 1776.2,1266.8 1765.3,1268.9 1755.6,1269.6 1747.1,1269.0 1739.9,1267.1 1733.9,1263.9 1729.2,1259.4 1725.8,1253.5 1723.7,1246.3 1722.9,1237.8 1723.3,1228.1 1725.1,1217.1 1728.0,1205.0 1732.2,1191.7 1737.5,1177.3 1743.9,1162.0 1751.4,1145.7 1759.9,1128.5 1769.4,1110.6 1779.7,1091.9 1790.8,1072.7 1802.6,1053.0 1815.0,1032.9 1827.9,1012.5 1841.2,992.1 1854.8,971.6  " style="stroke-opacity: 1.000000; stroke-width: 5.0; stroke: rgb(107,174,214); fill: none"  />
</g>
<defs>
<pattern id="hline-sparse" width="10" height="10" patternTransform="rotate(0 0 0)" patternUnits="userSpaceOnUse"><line x1="0" y1="0" x2="10" y2="0" style="stroke:black;stroke-width:2" /></pattern>
<pattern id="vline" width="10" height="10" patternTransform="rotate(0 0 0)" patternUnits="userSpaceOnUse"><line x1="0" y1="0" x2="0" y2="10" style="stroke:black;stroke-width:5" /></pattern>
<pattern id="vline-sparse" width="10" height="10" patternTransform="rotate(0 0 0)" patternUnits="userSpaceOnUse"><line x1="0" y1="0" x2="0" y2="10" style="stroke:black;stroke-width:2" /></pattern>
<pattern id="checker" width="10" height="10" patternTransform="rotate(45 0 0)" patternUnits="userSpaceOnUse"><line x1="0" y1="0" x2="10" y2="0" style="stroke:black;stroke-width:2" /><line x1="0" y1="0" x2="0" y2="10" style="stroke:black;stroke-width:2" /></pattern>
<pattern id="checker" width="10" height="10" patternTransform="rotate(45 0 0)" patternUnits="userSpaceOnUse"><line x1="0" y1="0" x2="10" y2="0" style="stroke:black;stroke-width:5" /><line x1="0" y1="0" x2="0" y2="10" style="stroke:black;stroke-width:4" /></pattern>
<pattern id="hline" width="10" height="10" patternTransform="rotate(0 0 0)" patternUnits="userSpaceOnUse"><line x1="0" y1="0" x2="10" y2="0" style="stroke:black;stroke-width:5" /></pattern>
</defs>
</svg>
