<?xml version="1.0" encoding="utf-8" standalone="no"?>
<!DOCTYPE svg PUBLIC "-//W3C//DTD SVG 1.1//EN" "http://www.w3.org/Graphics/SVG/1.1/DTD/svg11.dtd">
<svg width="3000px" height="3000px" version="1.1" xmlns="http://www.w3.org/2000/svg" xmlns:xlink="http://www.w3.org/1999/xlink">
<g id="bg">
<rect x="0" y="0" width="3000px" height="3000px" style="fill:rgb(255,255,255);"/>
</g>
<g id="ideograms">
<path d="M1500.000,535.000 A965.000,965.000 40.000 0,1 1601.714,540.376 L1618.579,381.267 A1125.000,1125.000 0.000 0,0 1500.000,375.000 Z" style="stroke-width:2.0;stroke:rgb(115,115,115);stroke-linecap:round;fill:rgb(153,204,255);" />
<text x="1633.1" y="307.4" font-size="195.0px" font-family="CMUBright-Bold" style="text-anchor:start;fill:rgb(0,0,0);" transform="rotate(273.0,1633.1,307.4)" >4</text>
<path d="M1500.000,535.000 A965.000,965.000 40.000 0,1 1601.714,540.376 L1618.579,381.267 A1125.000,1125.000 0.000 0,0 1500.000,375.000 Z" style="stroke-width:2.0;stroke:rgb(115,115,115);stroke-linecap:round;fill:none;" />
<path d="M1672.307,550.508 A965.000,965.000 40.000 0,1 1771.427,573.959 L1816.431,420.418 A1125.000,1125.000 0.000 0,0 1700.877,393.079 Z" style="stroke-width:2.0;stroke:rgb(115,115,115);stroke-linecap:round;fill:rgb(153,204,255);" />
<text x="1845.8" y="350.9" font-size="195.0px" font-family="CMUBright-Bold" style="text-anchor:start;fill:rgb(0,0,0);" transform="rotate(283.3,1845.8,350.9)" >5</text>
<path d="M1672.307,550.508 A965.000,965.000 40.000 0,1 1771.427,573.959 L1816.431,420.418 A1125.000,1125.000 0.000 0,0 1700.877,393.079 Z" style="stroke-width:2.0;stroke:rgb(115,115,115);stroke-linecap:round;fill:none;" />
<path d="M1839.077,596.533 A965.000,965.000 40.000 0,1 1932.417,637.306 L2004.113,494.269 A1125.000,1125.000 0.000 0,0 1895.297,446.736 Z" style="stroke-width:2.0;stroke:rgb(115,115,115);stroke-linecap:round;fill:rgb(153,204,255);" />
<text x="2047.2" y="432.0" font-size="195.0px" font-family="CMUBright-Bold" style="text-anchor:start;fill:rgb(0,0,0);" transform="rotate(293.6,2047.2,432.0)" >6</text>
<path d="M1839.077,596.533 A965.000,965.000 40.000 0,1 1932.417,637.306 L2004.113,494.269 A1125.000,1125.000 0.000 0,0 1895.297,446.736 Z" style="stroke-width:2.0;stroke:rgb(115,115,115);stroke-linecap:round;fill:none;" />
<path d="M1994.948,671.597 A965.000,965.000 40.000 0,1 2079.507,728.381 L2175.592,600.444 A1125.000,1125.000 0.000 0,0 2077.012,534.245 Z" style="stroke-width:2.0;stroke:rgb(115,115,115);stroke-linecap:round;fill:rgb(153,204,255);" />
<text x="2229.1" y="546.9" font-size="195.0px" font-family="CMUBright-Bold" style="text-anchor:start;fill:rgb(0,0,0);" transform="rotate(303.9,2229.1,546.9)" >8</text>
<path d="M1994.948,671.597 A965.000,965.000 40.000 0,1 2079.507,728.381 L2175.592,600.444 A1125.000,1125.000 0.000 0,0 2077.012,534.245 Z" style="stroke-width:2.0;stroke:rgb(115,115,115);stroke-linecap:round;fill:none;" />
<path d="M2134.911,773.286 A965.000,965.000 40.000 0,1 2207.972,844.256 L2325.356,735.532 A1125.000,1125.000 0.000 0,0 2240.181,652.795 Z" style="stroke-width:2.0;stroke:rgb(115,115,115);stroke-linecap:round;fill:rgb(153,204,255);" />
<text x="2387.6" y="692.4" font-size="195.0px" font-family="CMUBright-Bold" style="text-anchor:start;fill:rgb(0,0,0);" transform="rotate(314.2,2387.6,692.4)" >10</text>
<path d="M2134.911,773.286 A965.000,965.000 40.000 0,1 2207.972,844.256 L2325.356,735.532 A1125.000,1125.000 0.000 0,0 2240.181,652.795 Z" style="stroke-width:2.0;stroke:rgb(115,115,115);stroke-linecap:round;fill:none;" />
<path d="M2254.467,898.332 A965.000,965.000 40.000 0,1 2313.683,981.207 L2448.594,895.190 A1125.000,1125.000 0.000 0,0 2379.560,798.574 Z" style="stroke-width:2.0;stroke:rgb(115,115,115);stroke-linecap:round;fill:rgb(153,204,255);" />
<text x="2517.5" y="863.9" font-size="195.0px" font-family="CMUBright-Bold" style="text-anchor:start;fill:rgb(0,0,0);" transform="rotate(324.5,2517.5,863.9)" >19</text>
<path d="M2254.467,898.332 A965.000,965.000 40.000 0,1 2313.683,981.207 L2448.594,895.190 A1125.000,1125.000 0.000 0,0 2379.560,798.574 Z" style="stroke-width:2.0;stroke:rgb(115,115,115);stroke-linecap:round;fill:none;" />
<path d="M2349.775,1042.717 A965.000,965.000 40.000 0,1 2393.240,1134.833 L2541.342,1074.288 A1125.000,1125.000 0.000 0,0 2490.670,966.898 Z" style="stroke-width:2.0;stroke:rgb(115,115,115);stroke-linecap:round;fill:rgb(116,196,118);" />
<text x="2614.0" y="1053.9" font-size="195.0px" font-family="CMUBright-Bold" style="text-anchor:start;fill:rgb(0,0,0);" transform="rotate(334.7,2614.0,1053.9)" >2</text>
<path d="M2349.775,1042.717 A965.000,965.000 40.000 0,1 2393.240,1134.833 L2541.342,1074.288 A1125.000,1125.000 0.000 0,0 2490.670,966.898 Z" style="stroke-width:2.0;stroke:rgb(115,115,115);stroke-linecap:round;fill:none;" />
<path d="M2417.770,1201.799 A965.000,965.000 40.000 0,1 2444.089,1300.196 L2600.621,1267.068 A1125.000,1125.000 0.000 0,0 2569.939,1152.356 Z" style="stroke-width:2.0;stroke:rgb(115,115,115);stroke-linecap:round;fill:rgb(116,196,118);" />
<text x="2676.2" y="1262.0" font-size="195.0px" font-family="CMUBright-Bold" style="text-anchor:start;fill:rgb(0,0,0);" transform="rotate(345.0,2676.2,1262.0)" >3</text>
<path d="M2417.770,1201.799 A965.000,965.000 40.000 0,1 2444.089,1300.196 L2600.621,1267.068 A1125.000,1125.000 0.000 0,0 2569.939,1152.356 Z" style="stroke-width:2.0;stroke:rgb(115,115,115);stroke-linecap:round;fill:none;" />
<path d="M2456.267,1370.465 A965.000,965.000 40.000 0,1 2464.593,1471.980 L2624.526,1467.335 A1125.000,1125.000 0.000 0,0 2614.818,1348.988 Z" style="stroke-width:2.0;stroke:rgb(115,115,115);stroke-linecap:round;fill:rgb(116,196,118);" />
<text x="2699.7" y="1473.8" font-size="195.0px" font-family="CMUBright-Bold" style="text-anchor:start;fill:rgb(0,0,0);" transform="rotate(355.3,2699.7,1473.8)" >11</text>
<path d="M2456.267,1370.465 A965.000,965.000 40.000 0,1 2464.593,1471.980 L2624.526,1467.335 A1125.000,1125.000 0.000 0,0 2614.818,1348.988 Z" style="stroke-width:2.0;stroke:rgb(115,115,115);stroke-linecap:round;fill:none;" />
<path d="M2464.028,1543.295 A965.000,965.000 40.000 0,1 2454.095,1644.665 L2612.287,1668.651 A1125.000,1125.000 0.000 0,0 2623.867,1550.473 Z" style="stroke-width:2.0;stroke:rgb(115,115,115);stroke-linecap:round;fill:rgb(116,196,118);" />
<text x="2685.1" y="1688.4" font-size="195.0px" font-family="CMUBright-Bold" style="text-anchor:start;fill:rgb(0,0,0);" transform="rotate(5.6,2685.1,1688.4)" >14</text>
<path d="M2464.028,1543.295 A965.000,965.000 40.000 0,1 2454.095,1644.665 L2612.287,1668.651 A1125.000,1125.000 0.000 0,0 2623.867,1550.473 Z" style="stroke-width:2.0;stroke:rgb(115,115,115);stroke-linecap:round;fill:none;" />
<path d="M2440.805,1714.733 A965.000,965.000 40.000 0,1 2412.931,1812.701 L2564.298,1864.548 A1125.000,1125.000 0.000 0,0 2596.794,1750.336 Z" style="stroke-width:2.0;stroke:rgb(115,115,115);stroke-linecap:round;fill:rgb(116,196,118);" />
<text x="2631.8" y="1898.9" font-size="195.0px" font-family="CMUBright-Bold" style="text-anchor:start;fill:rgb(0,0,0);" transform="rotate(15.9,2631.8,1898.9)" >18</text>
<path d="M2440.805,1714.733 A965.000,965.000 40.000 0,1 2412.931,1812.701 L2564.298,1864.548 A1125.000,1125.000 0.000 0,0 2596.794,1750.336 Z" style="stroke-width:2.0;stroke:rgb(115,115,115);stroke-linecap:round;fill:none;" />
<path d="M2387.344,1879.269 A965.000,965.000 40.000 0,1 2342.425,1970.686 L2482.102,2048.727 A1125.000,1125.000 0.000 0,0 2534.469,1942.153 Z" style="stroke-width:2.0;stroke:rgb(115,115,115);stroke-linecap:round;fill:rgb(116,196,118);" />
<text x="2542.3" y="2094.6" font-size="195.0px" font-family="CMUBright-Bold" style="text-anchor:start;fill:rgb(0,0,0);" transform="rotate(26.2,2542.3,2094.6)" >23</text>
<path d="M2387.344,1879.269 A965.000,965.000 40.000 0,1 2342.425,1970.686 L2482.102,2048.727 A1125.000,1125.000 0.000 0,0 2534.469,1942.153 Z" style="stroke-width:2.0;stroke:rgb(115,115,115);stroke-linecap:round;fill:none;" />
<path d="M2305.363,2031.616 A965.000,965.000 40.000 0,1 2244.843,2113.542 L2368.340,2215.270 A1125.000,1125.000 0.000 0,0 2438.895,2119.759 Z" style="stroke-width:2.0;stroke:rgb(115,115,115);stroke-linecap:round;fill:rgb(116,196,118);" />
<text x="2420.7" y="2269.6" font-size="195.0px" font-family="CMUBright-Bold" style="text-anchor:start;fill:rgb(0,0,0);" transform="rotate(36.5,2420.7,2269.6)" >24</text>
<path d="M2305.363,2031.616 A965.000,965.000 40.000 0,1 2244.843,2113.542 L2368.340,2215.270 A1125.000,1125.000 0.000 0,0 2438.895,2119.759 Z" style="stroke-width:2.0;stroke:rgb(115,115,115);stroke-linecap:round;fill:none;" />
<path d="M2197.497,2166.875 A965.000,965.000 40.000 0,1 2123.321,2236.679 L2226.669,2358.823 A1125.000,1125.000 0.000 0,0 2313.144,2277.445 Z" style="stroke-width:2.0;stroke:rgb(115,115,115);stroke-linecap:round;fill:rgb(153,0,204);" />
<text x="2268.5" y="2421.6" font-size="195.0px" font-family="CMUBright-Bold" style="text-anchor:start;fill:rgb(0,0,0);" transform="rotate(46.7,2268.5,2421.6)" >1</text>
<path d="M2197.497,2166.875 A965.000,965.000 40.000 0,1 2123.321,2236.679 L2226.669,2358.823 A1125.000,1125.000 0.000 0,0 2313.144,2277.445 Z" style="stroke-width:2.0;stroke:rgb(115,115,115);stroke-linecap:round;fill:none;" />
<path d="M2067.213,2280.701 A965.000,965.000 40.000 0,1 1981.764,2336.139 L2061.642,2474.773 A1125.000,1125.000 0.000 0,0 2161.258,2410.144 Z" style="stroke-width:2.0;stroke:rgb(115,115,115);stroke-linecap:round;fill:rgb(153,0,204);" />
<text x="2089.8" y="2545.0" font-size="195.0px" font-family="CMUBright-Bold" style="text-anchor:start;fill:rgb(0,0,0);" transform="rotate(57.0,2089.8,2545.0)" >9</text>
<path d="M2067.213,2280.701 A965.000,965.000 40.000 0,1 1981.764,2336.139 L2061.642,2474.773 A1125.000,1125.000 0.000 0,0 2161.258,2410.144 Z" style="stroke-width:2.0;stroke:rgb(115,115,115);stroke-linecap:round;fill:none;" />
<path d="M1918.698,2369.435 A965.000,965.000 40.000 0,1 1824.724,2408.724 L1878.564,2559.393 A1125.000,1125.000 0.000 0,0 1988.119,2513.590 Z" style="stroke-width:2.0;stroke:rgb(115,115,115);stroke-linecap:round;fill:rgb(153,0,204);" />
<text x="1894.7" y="2633.2" font-size="195.0px" font-family="CMUBright-Bold" style="text-anchor:start;fill:rgb(0,0,0);" transform="rotate(67.3,1894.7,2633.2)" >17</text>
<path d="M1918.698,2369.435 A965.000,965.000 40.000 0,1 1824.724,2408.724 L1878.564,2559.393 A1125.000,1125.000 0.000 0,0 1988.119,2513.590 Z" style="stroke-width:2.0;stroke:rgb(115,115,115);stroke-linecap:round;fill:none;" />
<path d="M1756.726,2430.224 A965.000,965.000 40.000 0,1 1657.246,2452.102 L1683.318,2609.964 A1125.000,1125.000 0.000 0,0 1799.291,2584.458 Z" style="stroke-width:2.0;stroke:rgb(115,115,115);stroke-linecap:round;fill:rgb(153,0,204);" />
<text x="1685.0" y="2685.6" font-size="195.0px" font-family="CMUBright-Bold" style="text-anchor:start;fill:rgb(0,0,0);" transform="rotate(77.6,1685.0,2685.6)" >25</text>
<path d="M1756.726,2430.224 A965.000,965.000 40.000 0,1 1657.246,2452.102 L1683.318,2609.964 A1125.000,1125.000 0.000 0,0 1799.291,2584.458 Z" style="stroke-width:2.0;stroke:rgb(115,115,115);stroke-linecap:round;fill:none;" />
<path d="M1586.502,2461.115 A965.000,965.000 40.000 0,1 1484.715,2464.879 L1482.181,2624.859 A1125.000,1125.000 0.000 0,0 1600.844,2620.471 Z" style="stroke-width:2.0;stroke:rgb(115,115,115);stroke-linecap:round;fill:rgb(153,0,204);" />
<text x="1470.4" y="2699.6" font-size="195.0px" font-family="CMUBright-Bold" style="text-anchor:start;fill:rgb(0,0,0);" transform="rotate(87.9,1470.4,2699.6)" >34</text>
<path d="M1586.502,2461.115 A965.000,965.000 40.000 0,1 1484.715,2464.879 L1482.181,2624.859 A1125.000,1125.000 0.000 0,0 1600.844,2620.471 Z" style="stroke-width:2.0;stroke:rgb(115,115,115);stroke-linecap:round;fill:none;" />
<path d="M1413.498,2461.115 A965.000,965.000 40.000 0,1 1312.675,2446.644 L1281.616,2603.600 A1125.000,1125.000 0.000 0,0 1399.156,2620.471 Z" style="stroke-width:2.0;stroke:rgb(115,115,115);stroke-linecap:round;fill:rgb(253,208,162);" />
<text x="1400.0" y="2695.8" font-size="195.0px" font-family="CMUBright-Bold" style="text-anchor:end;fill:rgb(0,0,0);" transform="rotate(-81.8,1400.0,2695.8)" >7</text>
<path d="M1413.498,2461.115 A965.000,965.000 40.000 0,1 1312.675,2446.644 L1281.616,2603.600 A1125.000,1125.000 0.000 0,0 1399.156,2620.471 Z" style="stroke-width:2.0;stroke:rgb(115,115,115);stroke-linecap:round;fill:none;" />
<path d="M1243.274,2430.224 A965.000,965.000 40.000 0,1 1146.656,2397.983 L1088.070,2546.871 A1125.000,1125.000 0.000 0,0 1200.709,2584.458 Z" style="stroke-width:2.0;stroke:rgb(115,115,115);stroke-linecap:round;fill:rgb(253,208,162);" />
<text x="1189.1" y="2659.0" font-size="195.0px" font-family="CMUBright-Bold" style="text-anchor:end;fill:rgb(0,0,0);" transform="rotate(-71.5,1189.1,2659.0)" >12</text>
<path d="M1243.274,2430.224 A965.000,965.000 40.000 0,1 1146.656,2397.983 L1088.070,2546.871 A1125.000,1125.000 0.000 0,0 1200.709,2584.458 Z" style="stroke-width:2.0;stroke:rgb(115,115,115);stroke-linecap:round;fill:none;" />
<path d="M1081.302,2369.435 A965.000,965.000 40.000 0,1 991.993,2320.460 L907.764,2456.494 A1125.000,1125.000 0.000 0,0 1011.881,2513.590 Z" style="stroke-width:2.0;stroke:rgb(115,115,115);stroke-linecap:round;fill:rgb(253,208,162);" />
<text x="988.9" y="2585.7" font-size="195.0px" font-family="CMUBright-Bold" style="text-anchor:end;fill:rgb(0,0,0);" transform="rotate(-61.3,988.9,2585.7)" >16</text>
<path d="M1081.302,2369.435 A965.000,965.000 40.000 0,1 991.993,2320.460 L907.764,2456.494 A1125.000,1125.000 0.000 0,0 1011.881,2513.590 Z" style="stroke-width:2.0;stroke:rgb(115,115,115);stroke-linecap:round;fill:none;" />
<path d="M932.787,2280.701 A965.000,965.000 40.000 0,1 853.658,2216.566 L746.493,2335.375 A1125.000,1125.000 0.000 0,0 838.742,2410.144 Z" style="stroke-width:2.0;stroke:rgb(115,115,115);stroke-linecap:round;fill:rgb(253,208,162);" />
<text x="803.3" y="2477.0" font-size="195.0px" font-family="CMUBright-Bold" style="text-anchor:end;fill:rgb(0,0,0);" transform="rotate(-51.0,803.3,2477.0)" >20</text>
<path d="M932.787,2280.701 A965.000,965.000 40.000 0,1 853.658,2216.566 L746.493,2335.375 A1125.000,1125.000 0.000 0,0 838.742,2410.144 Z" style="stroke-width:2.0;stroke:rgb(115,115,115);stroke-linecap:round;fill:none;" />
<path d="M802.503,2166.875 A965.000,965.000 40.000 0,1 736.097,2089.642 L609.440,2187.406 A1125.000,1125.000 0.000 0,0 686.856,2277.445 Z" style="stroke-width:2.0;stroke:rgb(115,115,115);stroke-linecap:round;fill:rgb(253,208,162);" />
<text x="638.6" y="2335.5" font-size="195.0px" font-family="CMUBright-Bold" style="text-anchor:end;fill:rgb(0,0,0);" transform="rotate(-40.7,638.6,2335.5)" >21</text>
<path d="M802.503,2166.875 A965.000,965.000 40.000 0,1 736.097,2089.642 L609.440,2187.406 A1125.000,1125.000 0.000 0,0 686.856,2277.445 Z" style="stroke-width:2.0;stroke:rgb(115,115,115);stroke-linecap:round;fill:none;" />
<path d="M694.637,2031.616 A965.000,965.000 40.000 0,1 643.089,1943.766 L501.010,2017.344 A1125.000,1125.000 0.000 0,0 561.105,2119.759 Z" style="stroke-width:2.0;stroke:rgb(115,115,115);stroke-linecap:round;fill:rgb(253,208,162);" />
<text x="504.4" y="2169.9" font-size="195.0px" font-family="CMUBright-Bold" style="text-anchor:end;fill:rgb(0,0,0);" transform="rotate(-30.4,504.4,2169.9)" >29</text>
<path d="M694.637,2031.616 A965.000,965.000 40.000 0,1 643.089,1943.766 L501.010,2017.344 A1125.000,1125.000 0.000 0,0 561.105,2119.759 Z" style="stroke-width:2.0;stroke:rgb(115,115,115);stroke-linecap:round;fill:none;" />
<path d="M612.656,1879.269 A965.000,965.000 40.000 0,1 577.622,1783.627 L424.689,1830.653 A1125.000,1125.000 0.000 0,0 465.531,1942.153 Z" style="stroke-width:2.0;stroke:rgb(115,115,115);stroke-linecap:round;fill:rgb(253,141,60);" />
<text x="400.8" y="1981.4" font-size="195.0px" font-family="CMUBright-Bold" style="text-anchor:end;fill:rgb(0,0,0);" transform="rotate(-20.1,400.8,1981.4)" >15</text>
<path d="M612.656,1879.269 A965.000,965.000 40.000 0,1 577.622,1783.627 L424.689,1830.653 A1125.000,1125.000 0.000 0,0 465.531,1942.153 Z" style="stroke-width:2.0;stroke:rgb(115,115,115);stroke-linecap:round;fill:none;" />
<path d="M559.195,1714.733 A965.000,965.000 40.000 0,1 541.802,1614.372 L382.929,1633.336 A1125.000,1125.000 0.000 0,0 403.206,1750.336 Z" style="stroke-width:2.0;stroke:rgb(115,115,115);stroke-linecap:round;fill:rgb(253,141,60);" />
<text x="332.5" y="1777.4" font-size="195.0px" font-family="CMUBright-Bold" style="text-anchor:end;fill:rgb(0,0,0);" transform="rotate(-9.8,332.5,1777.4)" >30</text>
<path d="M559.195,1714.733 A965.000,965.000 40.000 0,1 541.802,1614.372 L382.929,1633.336 A1125.000,1125.000 0.000 0,0 403.206,1750.336 Z" style="stroke-width:2.0;stroke:rgb(115,115,115);stroke-linecap:round;fill:none;" />
<path d="M535.972,1543.295 A965.000,965.000 40.000 0,1 536.778,1441.441 L377.073,1431.732 A1125.000,1125.000 0.000 0,0 376.133,1550.473 Z" style="stroke-width:2.0;stroke:rgb(115,115,115);stroke-linecap:round;fill:rgb(253,141,60);" />
<text x="301.7" y="1564.5" font-size="195.0px" font-family="CMUBright-Bold" style="text-anchor:end;fill:rgb(0,0,0);" transform="rotate(0.5,301.7,1564.5)" >31</text>
<path d="M535.972,1543.295 A965.000,965.000 40.000 0,1 536.778,1441.441 L377.073,1431.732 A1125.000,1125.000 0.000 0,0 376.133,1550.473 Z" style="stroke-width:2.0;stroke:rgb(115,115,115);stroke-linecap:round;fill:none;" />
<path d="M543.733,1370.465 A965.000,965.000 40.000 0,1 562.714,1270.393 L407.309,1232.323 A1125.000,1125.000 0.000 0,0 385.182,1348.988 Z" style="stroke-width:2.0;stroke:rgb(115,115,115);stroke-linecap:round;fill:rgb(253,141,60);" />
<text x="309.5" y="1349.5" font-size="195.0px" font-family="CMUBright-Bold" style="text-anchor:end;fill:rgb(0,0,0);" transform="rotate(10.7,309.5,1349.5)" >32</text>
<path d="M543.733,1370.465 A965.000,965.000 40.000 0,1 562.714,1270.393 L407.309,1232.323 A1125.000,1125.000 0.000 0,0 385.182,1348.988 Z" style="stroke-width:2.0;stroke:rgb(115,115,115);stroke-linecap:round;fill:none;" />
<path d="M582.230,1201.799 A965.000,965.000 40.000 0,1 618.774,1106.724 L472.664,1041.517 A1125.000,1125.000 0.000 0,0 430.061,1152.356 Z" style="stroke-width:2.0;stroke:rgb(115,115,115);stroke-linecap:round;fill:rgb(253,141,60);" />
<text x="355.5" y="1139.3" font-size="195.0px" font-family="CMUBright-Bold" style="text-anchor:end;fill:rgb(0,0,0);" transform="rotate(21.0,355.5,1139.3)" >33</text>
<path d="M582.230,1201.799 A965.000,965.000 40.000 0,1 618.774,1106.724 L472.664,1041.517 A1125.000,1125.000 0.000 0,0 430.061,1152.356 Z" style="stroke-width:2.0;stroke:rgb(115,115,115);stroke-linecap:round;fill:none;" />
<path d="M650.225,1042.717 A965.000,965.000 40.000 0,1 703.158,955.695 L571.039,865.447 A1125.000,1125.000 0.000 0,0 509.330,966.898 Z" style="stroke-width:2.0;stroke:rgb(115,115,115);stroke-linecap:round;fill:rgb(66,146,198);" />
<text x="438.3" y="940.7" font-size="195.0px" font-family="CMUBright-Bold" style="text-anchor:end;fill:rgb(0,0,0);" transform="rotate(31.3,438.3,940.7)" >13</text>
<path d="M650.225,1042.717 A965.000,965.000 40.000 0,1 703.158,955.695 L571.039,865.447 A1125.000,1125.000 0.000 0,0 509.330,966.898 Z" style="stroke-width:2.0;stroke:rgb(115,115,115);stroke-linecap:round;fill:none;" />
<path d="M745.533,898.332 A965.000,965.000 40.000 0,1 813.153,822.160 L699.272,709.772 A1125.000,1125.000 0.000 0,0 620.440,798.574 Z" style="stroke-width:2.0;stroke:rgb(115,115,115);stroke-linecap:round;fill:rgb(66,146,198);" />
<text x="556.4" y="758.6" font-size="195.0px" font-family="CMUBright-Bold" style="text-anchor:end;fill:rgb(0,0,0);" transform="rotate(41.6,556.4,758.6)" >22</text>
<path d="M745.533,898.332 A965.000,965.000 40.000 0,1 813.153,822.160 L699.272,709.772 A1125.000,1125.000 0.000 0,0 620.440,798.574 Z" style="stroke-width:2.0;stroke:rgb(115,115,115);stroke-linecap:round;fill:none;" />
<path d="M865.089,773.286 A965.000,965.000 40.000 0,1 945.224,710.412 L853.241,579.496 A1125.000,1125.000 0.000 0,0 759.819,652.795 Z" style="stroke-width:2.0;stroke:rgb(115,115,115);stroke-linecap:round;fill:rgb(66,146,198);" />
<text x="702.5" y="603.4" font-size="195.0px" font-family="CMUBright-Bold" style="text-anchor:end;fill:rgb(0,0,0);" transform="rotate(51.9,702.5,603.4)" >26</text>
<path d="M865.089,773.286 A965.000,965.000 40.000 0,1 945.224,710.412 L853.241,579.496 A1125.000,1125.000 0.000 0,0 759.819,652.795 Z" style="stroke-width:2.0;stroke:rgb(115,115,115);stroke-linecap:round;fill:none;" />
<path d="M1005.052,671.597 A965.000,965.000 40.000 0,1 1095.126,624.042 L1027.997,478.806 A1125.000,1125.000 0.000 0,0 922.988,534.245 Z" style="stroke-width:2.0;stroke:rgb(115,115,115);stroke-linecap:round;fill:rgb(66,146,198);" />
<text x="876.3" y="474.8" font-size="195.0px" font-family="CMUBright-Bold" style="text-anchor:end;fill:rgb(0,0,0);" transform="rotate(62.2,876.3,474.8)" >27</text>
<path d="M1005.052,671.597 A965.000,965.000 40.000 0,1 1095.126,624.042 L1027.997,478.806 A1125.000,1125.000 0.000 0,0 922.988,534.245 Z" style="stroke-width:2.0;stroke:rgb(115,115,115);stroke-linecap:round;fill:none;" />
<path d="M1160.923,596.533 A965.000,965.000 40.000 0,1 1258.041,565.826 L1217.923,410.937 A1125.000,1125.000 0.000 0,0 1104.703,446.736 Z" style="stroke-width:2.0;stroke:rgb(115,115,115);stroke-linecap:round;fill:rgb(66,146,198);" />
<text x="1068.4" y="380.3" font-size="195.0px" font-family="CMUBright-Bold" style="text-anchor:end;fill:rgb(0,0,0);" transform="rotate(72.5,1068.4,380.3)" >28</text>
<path d="M1160.923,596.533 A965.000,965.000 40.000 0,1 1258.041,565.826 L1217.923,410.937 A1125.000,1125.000 0.000 0,0 1104.703,446.736 Z" style="stroke-width:2.0;stroke:rgb(115,115,115);stroke-linecap:round;fill:none;" />
<path d="M1327.693,550.508 A965.000,965.000 40.000 0,1 1428.732,537.635 L1416.916,378.072 A1125.000,1125.000 0.000 0,0 1299.123,393.079 Z" style="stroke-width:2.0;stroke:rgb(115,115,115);stroke-linecap:round;fill:rgb(66,146,198);" />
<text x="1275.3" y="321.2" font-size="195.0px" font-family="CMUBright-Bold" style="text-anchor:end;fill:rgb(0,0,0);" transform="rotate(82.7,1275.3,321.2)" >35</text>
<path d="M1327.693,550.508 A965.000,965.000 40.000 0,1 1428.732,537.635 L1416.916,378.072 A1125.000,1125.000 0.000 0,0 1299.123,393.079 Z" style="stroke-width:2.0;stroke:rgb(115,115,115);stroke-linecap:round;fill:none;" />
</g>
<g id="track_1">
<path d="M 2128.3,2167.6 L 2102.6,2141.0 2076.3,2114.9 2049.4,2089.6 2022.1,2065.2 1994.4,2041.9 1966.3,2019.9 1937.9,1999.3 1909.4,1980.3 1880.8,1962.9 1852.1,1947.2 1823.4,1933.5 1794.8,1921.7 1766.4,1911.9 1738.1,1904.2 1710.1,1898.7 1682.3,1895.4 1655.0,1894.3 1628.0,1895.5 1601.4,1898.9 1575.3,1904.7 1549.8,1912.7 1524.8,1922.9 1500.4,1935.4 1476.6,1950.0 1453.5,1966.8 1431.0,1985.6 1409.3,2006.5 1388.3,2029.2 1368.0,2053.7 1348.6,2079.9 1329.9,2107.7 1312.0,2137.0 1294.9,2167.6 1278.6,2199.3 1263.2,2232.1 1248.6,2265.7 1234.8,2299.9 1221.9,2334.6 1209.8,2369.6  " style="stroke-opacity: 1.000000; stroke-width: 5.0; stroke: rgb(251,106,74); fill: none"  />
<path d="M 2128.3,2167.6 L 2102.2,2140.5 2075.3,2114.0 2047.8,2088.2 2019.6,2063.4 1990.9,2039.6 1961.7,2017.0 1932.1,1995.7 1902.1,1975.9 1871.8,1957.7 1841.3,1941.2 1810.5,1926.4 1779.6,1913.5 1748.6,1902.6 1717.6,1893.6 1686.6,1886.7 1655.7,1881.9 1624.9,1879.3 1594.2,1878.8 1563.8,1880.4 1533.6,1884.3 1503.7,1890.3 1474.2,1898.5 1445.0,1908.8 1416.3,1921.2 1388.0,1935.6 1360.2,1952.0 1333.0,1970.4 1306.3,1990.6 1280.3,2012.6 1254.8,2036.3 1230.1,2061.5 1206.0,2088.2 1182.6,2116.2 1160.0,2145.4 1138.2,2175.7 1117.2,2206.8 1097.0,2238.6 1077.7,2271.1 1059.2,2303.8  " style="stroke-opacity: 1.000000; stroke-width: 5.0; stroke: rgb(251,106,74); fill: none"  />
<path d="M 2128.3,2167.6 L 2101.7,2140.0 2074.3,2113.0 2046.1,2086.7 2017.1,2061.2 1987.5,2036.7 1957.3,2013.3 1926.5,1991.1 1895.2,1970.3 1863.4,1951.0 1831.2,1933.3 1798.6,1917.2 1765.7,1902.8 1732.5,1890.3 1699.0,1879.6 1665.4,1870.8 1631.7,1863.9 1597.8,1859.1 1563.9,1856.3 1530.1,1855.5 1496.3,1856.7 1462.5,1860.0 1429.0,1865.4 1395.6,1872.7 1362.4,1882.0 1329.5,1893.2 1297.0,1906.4 1264.8,1921.4 1233.0,1938.1 1201.7,1956.6 1170.9,1976.6 1140.6,1998.3 1110.9,2021.3 1081.8,2045.6 1053.4,2071.2 1025.7,2097.8 998.8,2125.4 972.6,2153.7 947.2,2182.7 922.8,2212.2  " style="stroke-opacity: 1.000000; stroke-width: 5.0; stroke: rgb(251,106,74); fill: none"  />
<path d="M 2128.3,2167.6 L 2101.2,2139.5 2073.2,2111.9 2044.3,2084.8 2014.7,2058.6 1984.3,2033.3 1953.1,2008.9 1921.3,1985.7 1888.9,1963.7 1855.8,1943.1 1822.2,1923.8 1788.0,1906.1 1753.4,1889.9 1718.3,1875.4 1682.9,1862.5 1647.1,1851.4 1611.0,1842.1 1574.6,1834.6 1538.0,1828.9 1501.3,1825.1 1464.4,1823.1 1427.5,1823.1 1390.5,1824.9 1353.6,1828.5 1316.7,1834.0 1279.9,1841.2 1243.3,1850.3 1206.9,1861.1 1170.8,1873.5 1135.0,1887.5 1099.5,1903.1 1064.4,1920.2 1029.8,1938.6 995.7,1958.3 962.2,1979.2 929.3,2001.2 897.1,2024.2 865.5,2048.0 834.8,2072.6 804.9,2097.7  " style="stroke-opacity: 1.000000; stroke-width: 5.0; stroke: rgb(251,106,74); fill: none"  />
<path d="M 2128.3,2167.6 L 2096.4,2133.7 2064.6,2099.7 2032.7,2065.6 2000.9,2031.3 1969.2,1997.0 1937.4,1962.5 1905.7,1927.9 1874.1,1893.3 1842.5,1858.5 1810.9,1823.6 1779.4,1788.6 1748.0,1753.5 1716.7,1718.3 1685.4,1683.0 1654.2,1647.7 1623.0,1612.2 1592.0,1576.6 1561.0,1541.0 1530.1,1505.3 1499.3,1469.4 1468.6,1433.6 1438.0,1397.6 1407.5,1361.6 1377.1,1325.4 1346.8,1289.3 1316.6,1253.1 1286.5,1216.8 1256.6,1180.4 1226.7,1144.1 1196.9,1107.6 1167.3,1071.2 1137.7,1034.7 1108.3,998.2 1079.0,961.6 1049.8,925.1 1020.7,888.5 991.7,851.9 962.9,815.3 934.1,778.8  " style="stroke-opacity: 1.000000; stroke-width: 5.0; stroke: rgb(251,106,74); fill: none"  />
<path d="M 1711.1,607.9 L 1702.0,644.4 1692.0,680.8 1681.0,716.8 1669.0,752.4 1656.0,787.4 1642.0,821.6 1626.9,854.8 1610.8,886.9 1593.7,917.8 1575.4,947.4 1556.2,975.5 1535.8,1002.1 1514.5,1027.1 1492.1,1050.3 1468.6,1071.8 1444.2,1091.3 1418.9,1109.0 1392.6,1124.8 1365.4,1138.5 1337.3,1150.3 1308.4,1160.0 1278.7,1167.6 1248.3,1173.3 1217.2,1176.9 1185.5,1178.5 1153.2,1178.1 1120.5,1175.8 1087.2,1171.6 1053.7,1165.5 1019.8,1157.7 985.8,1148.2 951.6,1137.1 917.4,1124.5 883.2,1110.5 849.2,1095.2 815.5,1078.7 782.1,1061.2 749.1,1042.8 716.8,1023.6  " style="stroke-opacity: 1.000000; stroke-width: 5.0; stroke: rgb(251,106,74); fill: none"  />
<path d="M 1711.1,607.9 L 1702.6,642.5 1693.7,676.9 1684.4,710.7 1674.6,743.8 1664.5,775.8 1653.9,806.7 1643.0,836.2 1631.7,864.1 1620.1,890.3 1608.2,914.7 1596.0,937.1 1583.4,957.3 1570.7,975.3 1557.6,991.0 1544.4,1004.3 1531.0,1015.1 1517.4,1023.4 1503.6,1029.1 1489.7,1032.3 1475.7,1032.8 1461.6,1030.7 1447.5,1026.0 1433.3,1018.7 1419.1,1008.9 1404.9,996.7 1390.8,982.0 1376.7,964.9 1362.7,945.7 1348.9,924.3 1335.2,900.9 1321.7,875.6 1308.4,848.5 1295.3,819.9 1282.5,789.9 1270.0,758.7 1257.8,726.5 1246.0,693.5 1234.6,659.8 1223.6,625.9  " style="stroke-opacity: 1.000000; stroke-width: 5.0; stroke: rgb(251,106,74); fill: none"  />
<path d="M 1867.0,659.9 L 1848.9,701.7 1830.9,743.7 1813.1,786.1 1795.5,828.7 1778.1,871.5 1760.9,914.6 1744.0,958.0 1727.3,1001.6 1710.8,1045.3 1694.7,1089.4 1678.8,1133.6 1663.2,1178.0 1647.9,1222.6 1632.9,1267.3 1618.3,1312.2 1604.0,1357.3 1590.0,1402.5 1576.3,1447.8 1563.0,1493.3 1550.0,1538.9 1537.4,1584.5 1525.2,1630.3 1513.3,1676.1 1501.7,1721.9 1490.5,1767.8 1479.7,1813.8 1469.2,1859.7 1459.1,1905.7 1449.3,1951.6 1439.9,1997.5 1430.8,2043.4 1422.1,2089.3 1413.7,2135.0 1405.6,2180.7 1397.8,2226.3 1390.4,2271.8 1383.2,2317.2 1376.3,2362.4 1369.8,2407.5  " style="stroke-opacity: 1.000000; stroke-width: 5.0; stroke: rgb(251,106,74); fill: none"  />
<path d="M 1369.8,2407.5 L 1376.3,2362.4 1383.2,2317.2 1390.4,2271.8 1397.8,2226.3 1405.6,2180.7 1413.7,2135.0 1422.1,2089.3 1430.8,2043.4 1439.9,1997.5 1449.3,1951.6 1459.1,1905.7 1469.2,1859.7 1479.7,1813.8 1490.5,1767.8 1501.7,1721.9 1513.3,1676.1 1525.2,1630.3 1537.4,1584.5 1550.0,1538.9 1563.0,1493.3 1576.3,1447.8 1590.0,1402.5 1604.0,1357.3 1618.3,1312.2 1632.9,1267.3 1647.9,1222.6 1663.2,1178.0 1678.8,1133.6 1694.7,1089.4 1710.8,1045.3 1727.3,1001.6 1744.0,958.0 1760.9,914.6 1778.1,871.5 1795.5,828.7 1813.1,786.1 1830.9,743.7 1848.9,701.7 1867.0,659.9  " style="stroke-opacity: 1.000000; stroke-width: 5.0; stroke: rgb(251,106,74); fill: none"  />
<path d="M 1999.0,2269.1 L 1977.6,2235.4 1956.9,2200.9 1937.0,2165.7 1917.9,2129.8 1899.7,2093.3 1882.7,2056.3 1866.7,2018.8 1852.0,1980.8 1838.5,1942.4 1826.4,1903.7 1815.8,1864.7 1806.6,1825.4 1799.0,1786.0 1792.9,1746.4 1788.4,1706.7 1785.6,1667.0 1784.4,1627.3 1784.9,1587.6 1787.1,1548.0 1791.0,1508.6 1796.5,1469.4 1803.7,1430.4 1812.6,1391.6 1823.1,1353.2 1835.2,1315.1 1848.8,1277.5 1864.0,1240.3 1880.6,1203.6 1898.6,1167.3 1918.0,1131.7 1938.6,1096.7 1960.4,1062.3 1983.4,1028.5 2007.3,995.5 2032.2,963.3 2057.9,931.8 2084.3,901.1 2111.3,871.3 2138.8,842.4  " style="stroke-opacity: 1.000000; stroke-width: 5.0; stroke: rgb(251,106,74); fill: none"  />
<path d="M 2138.8,842.4 L 2111.3,871.3 2084.3,901.1 2057.9,931.8 2032.2,963.3 2007.3,995.5 1983.4,1028.5 1960.4,1062.3 1938.6,1096.7 1918.0,1131.7 1898.6,1167.3 1880.6,1203.6 1864.0,1240.3 1848.8,1277.5 1835.2,1315.1 1823.1,1353.2 1812.6,1391.6 1803.7,1430.4 1796.5,1469.4 1791.0,1508.6 1787.1,1548.0 1784.9,1587.6 1784.4,1627.3 1785.6,1667.0 1788.4,1706.7 1792.9,1746.4 1799.0,1786.0 1806.6,1825.4 1815.8,1864.7 1826.4,1903.7 1838.5,1942.4 1852.0,1980.8 1866.7,2018.8 1882.7,2056.3 1899.7,2093.3 1917.9,2129.8 1937.0,2165.7 1956.9,2200.9 1977.6,2235.4 1999.0,2269.1  " style="stroke-opacity: 1.000000; stroke-width: 5.0; stroke: rgb(251,106,74); fill: none"  />
<path d="M 2138.8,842.4 L 2110.6,870.7 2081.6,898.6 2051.8,925.8 2021.0,952.4 1989.5,978.2 1957.2,1003.1 1924.2,1027.1 1890.4,1049.9 1856.0,1071.5 1820.9,1091.9 1785.3,1111.0 1749.0,1128.7 1712.3,1144.9 1675.0,1159.6 1637.4,1172.8 1599.3,1184.4 1560.8,1194.4 1522.0,1202.7 1482.9,1209.4 1443.6,1214.4 1404.2,1217.7 1364.5,1219.4 1324.8,1219.4 1285.0,1217.7 1245.2,1214.4 1205.5,1209.5 1165.8,1203.0 1126.3,1194.9 1087.0,1185.4 1047.9,1174.5 1009.2,1162.1 970.8,1148.5 932.8,1133.7 895.3,1117.6 858.3,1100.6 821.9,1082.5 786.1,1063.6 751.1,1043.9 716.8,1023.6  " style="stroke-opacity: 1.000000; stroke-width: 5.0; stroke: rgb(251,106,74); fill: none"  />
<path d="M 2138.8,842.4 L 2111.7,869.6 2083.9,896.2 2055.3,922.1 2026.0,947.1 1996.0,971.1 1965.4,994.0 1934.2,1015.7 1902.6,1036.0 1870.5,1054.8 1838.0,1072.0 1805.2,1087.6 1772.0,1101.4 1738.6,1113.5 1705.0,1123.6 1671.3,1131.9 1637.4,1138.2 1603.5,1142.5 1569.6,1144.8 1535.7,1145.0 1501.9,1143.2 1468.2,1139.4 1434.8,1133.6 1401.5,1125.7 1368.5,1115.9 1335.8,1104.1 1303.5,1090.5 1271.5,1075.0 1240.0,1057.7 1209.0,1038.8 1178.5,1018.2 1148.6,996.1 1119.2,972.6 1090.5,947.8 1062.5,921.8 1035.2,894.7 1008.7,866.8 983.0,838.0 958.1,808.6 934.1,778.8  " style="stroke-opacity: 1.000000; stroke-width: 5.0; stroke: rgb(251,106,74); fill: none"  />
<path d="M 2138.8,842.4 L 2112.7,868.7 2086.0,894.3 2058.7,919.2 2031.0,943.1 2002.9,966.0 1974.4,987.5 1945.8,1007.7 1917.0,1026.3 1888.1,1043.2 1859.1,1058.4 1830.3,1071.7 1801.5,1083.1 1772.9,1092.4 1744.5,1099.6 1716.4,1104.7 1688.6,1107.6 1661.2,1108.2 1634.2,1106.6 1607.7,1102.7 1581.7,1096.6 1556.3,1088.2 1531.5,1077.5 1507.3,1064.7 1483.7,1049.6 1460.9,1032.5 1438.7,1013.3 1417.3,992.2 1396.7,969.1 1376.8,944.3 1357.8,917.8 1339.5,889.6 1322.1,860.1 1305.5,829.3 1289.7,797.2 1274.8,764.3 1260.8,730.4 1247.5,696.0 1235.2,661.1 1223.6,625.9  " style="stroke-opacity: 1.000000; stroke-width: 5.0; stroke: rgb(251,106,74); fill: none"  />
<path d="M 1209.8,2369.6 L 1221.9,2334.6 1234.8,2299.9 1248.6,2265.7 1263.2,2232.1 1278.6,2199.3 1294.9,2167.6 1312.0,2137.0 1329.9,2107.7 1348.6,2079.9 1368.0,2053.7 1388.3,2029.2 1409.3,2006.5 1431.0,1985.6 1453.5,1966.8 1476.6,1950.0 1500.4,1935.4 1524.8,1922.9 1549.8,1912.7 1575.3,1904.7 1601.4,1898.9 1628.0,1895.5 1655.0,1894.3 1682.3,1895.4 1710.1,1898.7 1738.1,1904.2 1766.4,1911.9 1794.8,1921.7 1823.4,1933.5 1852.1,1947.2 1880.8,1962.9 1909.4,1980.3 1937.9,1999.3 1966.3,2019.9 1994.4,2041.9 2022.1,2065.2 2049.4,2089.6 2076.3,2114.9 2102.6,2141.0 2128.3,2167.6  " style="stroke-opacity: 1.000000; stroke-width: 5.0; stroke: rgb(251,106,74); fill: none"  />
<path d="M 1209.8,2369.6 L 1221.5,2335.5 1233.8,2301.8 1246.6,2268.6 1260.0,2236.2 1273.8,2204.8 1288.2,2174.5 1303.0,2145.6 1318.3,2118.3 1333.9,2092.6 1350.0,2068.7 1366.4,2046.8 1383.1,2027.0 1400.2,2009.3 1417.6,1993.9 1435.1,1980.8 1453.0,1970.1 1471.0,1961.8 1489.2,1956.1 1507.5,1952.9 1526.0,1952.2 1544.5,1954.1 1563.0,1958.4 1581.6,1965.3 1600.2,1974.7 1618.7,1986.4 1637.1,2000.5 1655.5,2016.9 1673.6,2035.4 1691.6,2056.1 1709.4,2078.7 1726.9,2103.2 1744.1,2129.3 1761.1,2157.0 1777.6,2186.2 1793.8,2216.5 1809.5,2247.8 1824.7,2279.9 1839.4,2312.7 1853.6,2345.8  " style="stroke-opacity: 1.000000; stroke-width: 5.0; stroke: rgb(251,106,74); fill: none"  />
<path d="M 1209.8,2369.6 L 1221.3,2335.8 1233.3,2302.4 1245.6,2269.6 1258.3,2237.5 1271.3,2206.5 1284.5,2176.7 1298.1,2148.3 1311.8,2121.5 1325.7,2096.4 1339.8,2073.3 1354.0,2052.1 1368.3,2033.0 1382.6,2016.2 1397.0,2001.8 1411.3,1989.7 1425.7,1980.2 1440.0,1973.1 1454.2,1968.7 1468.3,1966.8 1482.3,1967.5 1496.2,1970.9 1509.8,1976.8 1523.3,1985.3 1536.6,1996.3 1549.6,2009.8 1562.3,2025.7 1574.8,2044.0 1587.0,2064.4 1598.9,2086.9 1610.4,2111.5 1621.6,2137.9 1632.5,2166.0 1642.9,2195.7 1653.0,2226.7 1662.6,2258.9 1671.9,2292.1 1680.7,2326.1 1689.0,2360.6 1696.9,2395.4  " style="stroke-opacity: 1.000000; stroke-width: 5.0; stroke: rgb(251,106,74); fill: none"  />
<path d="M 1209.8,2369.6 L 1223.3,2328.2 1236.5,2286.3 1249.1,2243.9 1261.2,2201.0 1272.8,2157.7 1283.8,2114.1 1294.2,2070.0 1303.9,2025.6 1312.9,1980.9 1321.3,1935.9 1328.9,1890.6 1335.7,1845.1 1341.8,1799.4 1347.1,1753.5 1351.6,1707.4 1355.3,1661.2 1358.2,1614.9 1360.2,1568.5 1361.5,1522.1 1361.8,1475.7 1361.3,1429.3 1360.0,1382.9 1357.9,1336.5 1354.9,1290.3 1351.2,1244.2 1346.6,1198.2 1341.2,1152.4 1335.1,1106.7 1328.2,1061.3 1320.6,1016.2 1312.2,971.4 1303.2,926.8 1293.5,882.6 1283.2,838.7 1272.3,795.3 1260.9,752.2 1248.9,709.6 1236.5,667.5 1223.6,625.9  " style="stroke-opacity: 1.000000; stroke-width: 5.0; stroke: rgb(251,106,74); fill: none"  />
<path d="M 1209.8,2369.6 L 1221.2,2336.1 1232.8,2302.9 1244.6,2270.2 1256.6,2238.4 1268.7,2207.6 1280.9,2178.0 1293.0,2149.8 1305.2,2123.3 1317.3,2098.5 1329.3,2075.6 1341.1,2054.7 1352.8,2036.0 1364.3,2019.6 1375.5,2005.6 1386.5,1994.0 1397.2,1984.9 1407.6,1978.3 1417.6,1974.4 1427.3,1973.1 1436.7,1974.4 1445.6,1978.4 1454.2,1985.0 1462.3,1994.2 1470.0,2005.9 1477.3,2020.2 1484.1,2036.8 1490.5,2055.8 1496.4,2077.0 1501.9,2100.4 1507.0,2125.7 1511.6,2152.9 1515.8,2181.8 1519.6,2212.3 1522.9,2244.1 1525.9,2277.0 1528.4,2310.9 1530.6,2345.6 1532.4,2380.7 1533.9,2416.1  " style="stroke-opacity: 1.000000; stroke-width: 5.0; stroke: rgb(251,106,74); fill: none"  />
<path d="M 716.8,1023.6 L 749.1,1042.8 782.1,1061.2 815.5,1078.7 849.2,1095.2 883.2,1110.5 917.4,1124.5 951.6,1137.1 985.8,1148.2 1019.8,1157.7 1053.7,1165.5 1087.2,1171.6 1120.5,1175.8 1153.2,1178.1 1185.5,1178.5 1217.2,1176.9 1248.3,1173.3 1278.7,1167.6 1308.4,1160.0 1337.3,1150.3 1365.4,1138.5 1392.6,1124.8 1418.9,1109.0 1444.2,1091.3 1468.6,1071.8 1492.1,1050.3 1514.5,1027.1 1535.8,1002.1 1556.2,975.5 1575.4,947.4 1593.7,917.8 1610.8,886.9 1626.9,854.8 1642.0,821.6 1656.0,787.4 1669.0,752.4 1681.0,716.8 1692.0,680.8 1702.0,644.4 1711.1,607.9  " style="stroke-opacity: 1.000000; stroke-width: 5.0; stroke: rgb(251,106,74); fill: none"  />
<path d="M 716.8,1023.6 L 751.1,1043.9 786.1,1063.6 821.9,1082.5 858.3,1100.6 895.3,1117.6 932.8,1133.7 970.8,1148.5 1009.2,1162.1 1047.9,1174.5 1087.0,1185.4 1126.3,1194.9 1165.8,1203.0 1205.5,1209.5 1245.2,1214.4 1285.0,1217.7 1324.8,1219.4 1364.5,1219.4 1404.2,1217.7 1443.6,1214.4 1482.9,1209.4 1522.0,1202.7 1560.8,1194.4 1599.3,1184.4 1637.4,1172.8 1675.0,1159.6 1712.3,1144.9 1749.0,1128.7 1785.3,1111.0 1820.9,1091.9 1856.0,1071.5 1890.4,1049.9 1924.2,1027.1 1957.2,1003.1 1989.5,978.2 2021.0,952.4 2051.8,925.8 2081.6,898.6 2110.6,870.7 2138.8,842.4  " style="stroke-opacity: 1.000000; stroke-width: 5.0; stroke: rgb(251,106,74); fill: none"  />
<path d="M 1059.2,2303.8 L 1077.7,2271.1 1097.0,2238.6 1117.2,2206.8 1138.2,2175.7 1160.0,2145.4 1182.6,2116.2 1206.0,2088.2 1230.1,2061.5 1254.8,2036.3 1280.3,2012.6 1306.3,1990.6 1333.0,1970.4 1360.2,1952.0 1388.0,1935.6 1416.3,1921.2 1445.0,1908.8 1474.2,1898.5 1503.7,1890.3 1533.6,1884.3 1563.8,1880.4 1594.2,1878.8 1624.9,1879.3 1655.7,1881.9 1686.6,1886.7 1717.6,1893.6 1748.6,1902.6 1779.6,1913.5 1810.5,1926.4 1841.3,1941.2 1871.8,1957.7 1902.1,1975.9 1932.1,1995.7 1961.7,2017.0 1990.9,2039.6 2019.6,2063.4 2047.8,2088.2 2075.3,2114.0 2102.2,2140.5 2128.3,2167.6  " style="stroke-opacity: 1.000000; stroke-width: 5.0; stroke: rgb(251,106,74); fill: none"  />
<path d="M 1853.6,2345.8 L 1839.4,2312.7 1824.7,2279.9 1809.5,2247.8 1793.8,2216.5 1777.6,2186.2 1761.1,2157.0 1744.1,2129.3 1726.9,2103.2 1709.4,2078.7 1691.6,2056.1 1673.6,2035.4 1655.5,2016.9 1637.1,2000.5 1618.7,1986.4 1600.2,1974.7 1581.6,1965.3 1563.0,1958.4 1544.5,1954.1 1526.0,1952.2 1507.5,1952.9 1489.2,1956.1 1471.0,1961.8 1453.0,1970.1 1435.1,1980.8 1417.6,1993.9 1400.2,2009.3 1383.1,2027.0 1366.4,2046.8 1350.0,2068.7 1333.9,2092.6 1318.3,2118.3 1303.0,2145.6 1288.2,2174.5 1273.8,2204.8 1260.0,2236.2 1246.6,2268.6 1233.8,2301.8 1221.5,2335.5 1209.8,2369.6  " style="stroke-opacity: 1.000000; stroke-width: 5.0; stroke: rgb(251,106,74); fill: none"  />
<path d="M 1853.6,2345.8 L 1839.9,2312.0 1826.9,2278.0 1814.8,2243.9 1803.7,2209.9 1793.7,2176.1 1784.9,2142.7 1777.5,2109.9 1771.5,2077.7 1767.0,2046.3 1764.0,2015.8 1762.8,1986.3 1763.2,1957.9 1765.4,1930.7 1769.4,1904.7 1775.2,1880.2 1782.9,1857.0 1792.4,1835.3 1803.8,1815.2 1817.0,1796.6 1832.1,1779.6 1849.0,1764.3 1867.6,1750.6 1888.0,1738.6 1910.1,1728.2 1933.8,1719.5 1959.1,1712.5 1985.8,1707.1 2014.0,1703.3 2043.4,1701.1 2074.1,1700.3 2105.8,1701.1 2138.5,1703.2 2172.0,1706.7 2206.1,1711.5 2240.9,1717.4 2276.0,1724.4 2311.2,1732.4 2346.6,1741.3 2381.8,1750.9  " style="stroke-opacity: 1.000000; stroke-width: 5.0; stroke: rgb(251,106,74); fill: none"  />
<path d="M 1853.6,2345.8 L 1838.7,2311.3 1822.9,2277.0 1806.2,2243.2 1788.5,2210.0 1770.0,2177.7 1750.6,2146.2 1730.4,2115.9 1709.3,2086.9 1687.3,2059.2 1664.5,2032.9 1640.9,2008.3 1616.5,1985.4 1591.3,1964.3 1565.4,1945.0 1538.8,1927.6 1511.6,1912.3 1483.7,1899.0 1455.1,1887.7 1426.1,1878.6 1396.5,1871.6 1366.4,1866.7 1335.8,1864.0 1304.9,1863.4 1273.7,1864.9 1242.1,1868.5 1210.3,1874.1 1178.4,1881.7 1146.3,1891.3 1114.1,1902.7 1082.0,1916.0 1050.0,1930.9 1018.1,1947.4 986.4,1965.4 954.9,1984.8 923.9,2005.5 893.3,2027.2 863.2,2050.0 833.7,2073.5 804.9,2097.7  " style="stroke-opacity: 1.000000; stroke-width: 5.0; stroke: rgb(251,106,74); fill: none"  />
<path d="M 2381.8,1750.9 L 2346.6,1741.3 2311.2,1732.4 2276.0,1724.4 2240.9,1717.4 2206.1,1711.5 2172.0,1706.7 2138.5,1703.2 2105.8,1701.1 2074.1,1700.3 2043.4,1701.1 2014.0,1703.3 1985.8,1707.1 1959.1,1712.5 1933.8,1719.5 1910.1,1728.2 1888.0,1738.6 1867.6,1750.6 1849.0,1764.3 1832.1,1779.6 1817.0,1796.6 1803.8,1815.2 1792.4,1835.3 1782.9,1857.0 1775.2,1880.2 1769.4,1904.7 1765.4,1930.7 1763.2,1957.9 1762.8,1986.3 1764.0,2015.8 1767.0,2046.3 1771.5,2077.7 1777.5,2109.9 1784.9,2142.7 1793.7,2176.1 1803.7,2209.9 1814.8,2243.9 1826.9,2278.0 1839.9,2312.0 1853.6,2345.8  " style="stroke-opacity: 1.000000; stroke-width: 5.0; stroke: rgb(251,106,74); fill: none"  />
<path d="M 2381.8,1750.9 L 2345.5,1741.0 2308.8,1732.0 2271.9,1724.0 2235.0,1717.1 2198.2,1711.4 2161.5,1707.0 2125.2,1703.9 2089.3,1702.3 2053.9,1702.2 2019.2,1703.7 1985.3,1706.8 1952.1,1711.6 1919.9,1718.1 1888.7,1726.3 1858.6,1736.3 1829.5,1748.0 1801.7,1761.5 1775.2,1776.8 1749.9,1793.8 1725.9,1812.6 1703.4,1833.1 1682.2,1855.3 1662.5,1879.1 1644.2,1904.5 1627.3,1931.4 1611.9,1959.7 1597.9,1989.5 1585.4,2020.5 1574.3,2052.8 1564.6,2086.1 1556.3,2120.5 1549.3,2155.8 1543.6,2191.8 1539.2,2228.4 1536.0,2265.6 1533.9,2303.1 1532.9,2340.8 1532.9,2378.5 1533.9,2416.1  " style="stroke-opacity: 1.000000; stroke-width: 5.0; stroke: rgb(251,106,74); fill: none"  />
<path d="M 2245.9,967.0 L 2215.0,988.5 2183.6,1009.3 2151.5,1029.3 2119.1,1048.2 2086.3,1066.0 2053.3,1082.5 2020.1,1097.6 1986.8,1111.2 1953.6,1123.2 1920.4,1133.5 1887.4,1142.0 1854.6,1148.6 1822.1,1153.4 1789.9,1156.1 1758.1,1156.9 1726.9,1155.6 1696.1,1152.2 1666.0,1146.7 1636.4,1139.2 1607.6,1129.6 1579.4,1117.9 1552.0,1104.1 1525.4,1088.3 1499.6,1070.6 1474.7,1050.9 1450.7,1029.4 1427.5,1006.1 1405.3,981.1 1384.0,954.5 1363.6,926.3 1344.2,896.7 1325.8,865.9 1308.3,833.9 1291.8,800.9 1276.3,767.0 1261.7,732.3 1248.1,697.2 1235.4,661.6 1223.6,625.9  " style="stroke-opacity: 1.000000; stroke-width: 5.0; stroke: rgb(251,106,74); fill: none"  />
<path d="M 922.8,2212.2 L 947.2,2182.7 972.6,2153.7 998.8,2125.4 1025.7,2097.8 1053.4,2071.2 1081.8,2045.6 1110.9,2021.3 1140.6,1998.3 1170.9,1976.6 1201.7,1956.6 1233.0,1938.1 1264.8,1921.4 1297.0,1906.4 1329.5,1893.2 1362.4,1882.0 1395.6,1872.7 1429.0,1865.4 1462.5,1860.0 1496.3,1856.7 1530.1,1855.5 1563.9,1856.3 1597.8,1859.1 1631.7,1863.9 1665.4,1870.8 1699.0,1879.6 1732.5,1890.3 1765.7,1902.8 1798.6,1917.2 1831.2,1933.3 1863.4,1951.0 1895.2,1970.3 1926.5,1991.1 1957.3,2013.3 1987.5,2036.7 2017.1,2061.2 2046.1,2086.7 2074.3,2113.0 2101.7,2140.0 2128.3,2167.6  " style="stroke-opacity: 1.000000; stroke-width: 5.0; stroke: rgb(251,106,74); fill: none"  />
<path d="M 804.9,2097.7 L 834.8,2072.6 865.5,2048.0 897.1,2024.2 929.3,2001.2 962.2,1979.2 995.7,1958.3 1029.8,1938.6 1064.4,1920.2 1099.5,1903.1 1135.0,1887.5 1170.8,1873.5 1206.9,1861.1 1243.3,1850.3 1279.9,1841.2 1316.7,1834.0 1353.6,1828.5 1390.5,1824.9 1427.5,1823.1 1464.4,1823.1 1501.3,1825.1 1538.0,1828.9 1574.6,1834.6 1611.0,1842.1 1647.1,1851.4 1682.9,1862.5 1718.3,1875.4 1753.4,1889.9 1788.0,1906.1 1822.2,1923.8 1855.8,1943.1 1888.9,1963.7 1921.3,1985.7 1953.1,2008.9 1984.3,2033.3 2014.7,2058.6 2044.3,2084.8 2073.2,2111.9 2101.2,2139.5 2128.3,2167.6  " style="stroke-opacity: 1.000000; stroke-width: 5.0; stroke: rgb(251,106,74); fill: none"  />
<path d="M 804.9,2097.7 L 833.7,2073.5 863.2,2050.0 893.3,2027.2 923.9,2005.5 954.9,1984.8 986.4,1965.4 1018.1,1947.4 1050.0,1930.9 1082.0,1916.0 1114.1,1902.7 1146.3,1891.3 1178.4,1881.7 1210.3,1874.1 1242.1,1868.5 1273.7,1864.9 1304.9,1863.4 1335.8,1864.0 1366.4,1866.7 1396.5,1871.6 1426.1,1878.6 1455.1,1887.7 1483.7,1899.0 1511.6,1912.3 1538.8,1927.6 1565.4,1945.0 1591.3,1964.3 1616.5,1985.4 1640.9,2008.3 1664.5,2032.9 1687.3,2059.2 1709.3,2086.9 1730.4,2115.9 1750.6,2146.2 1770.0,2177.7 1788.5,2210.0 1806.2,2243.2 1822.9,2277.0 1838.7,2311.3 1853.6,2345.8  " style="stroke-opacity: 1.000000; stroke-width: 5.0; stroke: rgb(251,106,74); fill: none"  />
<path d="M 804.9,2097.7 L 832.8,2074.2 861.1,2051.3 889.8,2029.2 918.7,2008.2 947.7,1988.2 976.8,1969.6 1005.7,1952.3 1034.5,1936.7 1062.9,1922.7 1091.1,1910.5 1118.7,1900.2 1145.9,1891.8 1172.4,1885.5 1198.3,1881.3 1223.5,1879.2 1247.9,1879.4 1271.4,1881.7 1294.1,1886.3 1315.9,1893.2 1336.7,1902.2 1356.5,1913.6 1375.3,1927.1 1393.0,1942.8 1409.7,1960.6 1425.3,1980.4 1439.8,2002.3 1453.2,2026.1 1465.5,2051.7 1476.7,2079.0 1486.9,2107.9 1496.0,2138.3 1504.0,2170.0 1511.1,2203.0 1517.1,2236.9 1522.2,2271.8 1526.4,2307.3 1529.7,2343.4 1532.2,2379.7 1533.9,2416.1  " style="stroke-opacity: 1.000000; stroke-width: 5.0; stroke: rgb(251,106,74); fill: none"  />
<path d="M 804.9,2097.7 L 836.2,2070.2 867.3,2041.9 898.1,2012.8 928.4,1982.7 958.3,1951.9 987.6,1920.3 1016.2,1887.8 1044.2,1854.5 1071.3,1820.5 1097.7,1785.7 1123.2,1750.2 1147.7,1714.0 1171.2,1677.1 1193.8,1639.5 1215.2,1601.3 1235.6,1562.5 1254.9,1523.1 1273.0,1483.2 1289.9,1442.7 1305.6,1401.8 1320.2,1360.4 1333.5,1318.7 1345.6,1276.5 1356.4,1234.0 1366.1,1191.3 1374.5,1148.3 1381.7,1105.1 1387.8,1061.8 1392.6,1018.4 1396.4,974.9 1399.0,931.4 1400.5,888.0 1401.0,844.7 1400.4,801.6 1398.9,758.7 1396.5,716.1 1393.1,673.8 1389.0,632.0 1384.1,590.6  " style="stroke-opacity: 1.000000; stroke-width: 5.0; stroke: rgb(251,106,74); fill: none"  />
<path d="M 1696.9,2395.4 L 1689.0,2360.6 1680.7,2326.1 1671.9,2292.1 1662.6,2258.9 1653.0,2226.7 1642.9,2195.7 1632.5,2166.0 1621.6,2137.9 1610.4,2111.5 1598.9,2086.9 1587.0,2064.4 1574.8,2044.0 1562.3,2025.7 1549.6,2009.8 1536.6,1996.3 1523.3,1985.3 1509.8,1976.8 1496.2,1970.9 1482.3,1967.5 1468.3,1966.8 1454.2,1968.7 1440.0,1973.1 1425.7,1980.2 1411.3,1989.7 1397.0,2001.8 1382.6,2016.2 1368.3,2033.0 1354.0,2052.1 1339.8,2073.3 1325.7,2096.4 1311.8,2121.5 1298.1,2148.3 1284.5,2176.7 1271.3,2206.5 1258.3,2237.5 1245.6,2269.6 1233.3,2302.4 1221.3,2335.8 1209.8,2369.6  " style="stroke-opacity: 1.000000; stroke-width: 5.0; stroke: rgb(251,106,74); fill: none"  />
<path d="M 1696.9,2395.4 L 1686.9,2349.9 1676.7,2304.4 1666.5,2258.9 1656.2,2213.3 1645.7,2167.7 1635.2,2122.1 1624.5,2076.4 1613.7,2030.7 1602.8,1985.0 1591.8,1939.3 1580.7,1893.5 1569.4,1847.8 1558.1,1802.0 1546.6,1756.3 1535.0,1710.6 1523.3,1664.9 1511.4,1619.2 1499.4,1573.5 1487.4,1527.8 1475.1,1482.2 1462.8,1436.6 1450.4,1391.1 1437.8,1345.5 1425.2,1300.1 1412.4,1254.7 1399.5,1209.3 1386.5,1164.0 1373.4,1118.7 1360.3,1073.5 1347.0,1028.4 1333.6,983.4 1320.1,938.4 1306.6,893.5 1292.9,848.7 1279.2,803.9 1265.4,759.3 1251.5,714.7 1237.6,670.3 1223.6,625.9  " style="stroke-opacity: 1.000000; stroke-width: 5.0; stroke: rgb(251,106,74); fill: none"  />
<path d="M 934.1,778.8 L 962.9,815.3 991.7,851.9 1020.7,888.5 1049.8,925.1 1079.0,961.6 1108.3,998.2 1137.7,1034.7 1167.3,1071.2 1196.9,1107.6 1226.7,1144.1 1256.6,1180.4 1286.5,1216.8 1316.6,1253.1 1346.8,1289.3 1377.1,1325.4 1407.5,1361.6 1438.0,1397.6 1468.6,1433.6 1499.3,1469.4 1530.1,1505.3 1561.0,1541.0 1592.0,1576.6 1623.0,1612.2 1654.2,1647.7 1685.4,1683.0 1716.7,1718.3 1748.0,1753.5 1779.4,1788.6 1810.9,1823.6 1842.5,1858.5 1874.1,1893.3 1905.7,1927.9 1937.4,1962.5 1969.2,1997.0 2000.9,2031.3 2032.7,2065.6 2064.6,2099.7 2096.4,2133.7 2128.3,2167.6  " style="stroke-opacity: 1.000000; stroke-width: 5.0; stroke: rgb(251,106,74); fill: none"  />
<path d="M 934.1,778.8 L 958.1,808.6 983.0,838.0 1008.7,866.8 1035.2,894.7 1062.5,921.8 1090.5,947.8 1119.2,972.6 1148.6,996.1 1178.5,1018.2 1209.0,1038.8 1240.0,1057.7 1271.5,1075.0 1303.5,1090.5 1335.8,1104.1 1368.5,1115.9 1401.5,1125.7 1434.8,1133.6 1468.2,1139.4 1501.9,1143.2 1535.7,1145.0 1569.6,1144.8 1603.5,1142.5 1637.4,1138.2 1671.3,1131.9 1705.0,1123.6 1738.6,1113.5 1772.0,1101.4 1805.2,1087.6 1838.0,1072.0 1870.5,1054.8 1902.6,1036.0 1934.2,1015.7 1965.4,994.0 1996.0,971.1 2026.0,947.1 2055.3,922.1 2083.9,896.2 2111.7,869.6 2138.8,842.4  " style="stroke-opacity: 1.000000; stroke-width: 5.0; stroke: rgb(251,106,74); fill: none"  />
<path d="M 1223.6,625.9 L 1234.6,659.8 1246.0,693.5 1257.8,726.5 1270.0,758.7 1282.5,789.9 1295.3,819.9 1308.4,848.5 1321.7,875.6 1335.2,900.9 1348.9,924.3 1362.7,945.7 1376.7,964.9 1390.8,982.0 1404.9,996.7 1419.1,1008.9 1433.3,1018.7 1447.5,1026.0 1461.6,1030.7 1475.7,1032.8 1489.7,1032.3 1503.6,1029.1 1517.4,1023.4 1531.0,1015.1 1544.4,1004.3 1557.6,991.0 1570.7,975.3 1583.4,957.3 1596.0,937.1 1608.2,914.7 1620.1,890.3 1631.7,864.1 1643.0,836.2 1653.9,806.7 1664.5,775.8 1674.6,743.8 1684.4,710.7 1693.7,676.9 1702.6,642.5 1711.1,607.9  " style="stroke-opacity: 1.000000; stroke-width: 5.0; stroke: rgb(251,106,74); fill: none"  />
<path d="M 1223.6,625.9 L 1235.2,661.1 1247.5,696.0 1260.8,730.4 1274.8,764.3 1289.7,797.2 1305.5,829.3 1322.1,860.1 1339.5,889.6 1357.8,917.8 1376.8,944.3 1396.7,969.1 1417.3,992.2 1438.7,1013.3 1460.9,1032.5 1483.7,1049.6 1507.3,1064.7 1531.5,1077.5 1556.3,1088.2 1581.7,1096.6 1607.7,1102.7 1634.2,1106.6 1661.2,1108.2 1688.6,1107.6 1716.4,1104.7 1744.5,1099.6 1772.9,1092.4 1801.5,1083.1 1830.3,1071.7 1859.1,1058.4 1888.1,1043.2 1917.0,1026.3 1945.8,1007.7 1974.4,987.5 2002.9,966.0 2031.0,943.1 2058.7,919.2 2086.0,894.3 2112.7,868.7 2138.8,842.4  " style="stroke-opacity: 1.000000; stroke-width: 5.0; stroke: rgb(251,106,74); fill: none"  />
<path d="M 1223.6,625.9 L 1236.5,667.5 1248.9,709.6 1260.9,752.2 1272.3,795.3 1283.2,838.7 1293.5,882.6 1303.2,926.8 1312.2,971.4 1320.6,1016.2 1328.2,1061.3 1335.1,1106.7 1341.2,1152.4 1346.6,1198.2 1351.2,1244.2 1354.9,1290.3 1357.9,1336.5 1360.0,1382.9 1361.3,1429.3 1361.8,1475.7 1361.5,1522.1 1360.2,1568.5 1358.2,1614.9 1355.3,1661.2 1351.6,1707.4 1347.1,1753.5 1341.8,1799.4 1335.7,1845.1 1328.9,1890.6 1321.3,1935.9 1312.9,1980.9 1303.9,2025.6 1294.2,2070.0 1283.8,2114.1 1272.8,2157.7 1261.2,2201.0 1249.1,2243.9 1236.5,2286.3 1223.3,2328.2 1209.8,2369.6  " style="stroke-opacity: 1.000000; stroke-width: 5.0; stroke: rgb(251,106,74); fill: none"  />
<path d="M 1223.6,625.9 L 1235.4,661.6 1248.1,697.2 1261.7,732.3 1276.3,767.0 1291.8,800.9 1308.3,833.9 1325.8,865.9 1344.2,896.7 1363.6,926.3 1384.0,954.5 1405.3,981.1 1427.5,1006.1 1450.7,1029.4 1474.7,1050.9 1499.6,1070.6 1525.4,1088.3 1552.0,1104.1 1579.4,1117.9 1607.6,1129.6 1636.4,1139.2 1666.0,1146.7 1696.1,1152.2 1726.9,1155.6 1758.1,1156.9 1789.9,1156.1 1822.1,1153.4 1854.6,1148.6 1887.4,1142.0 1920.4,1133.5 1953.6,1123.2 1986.8,1111.2 2020.1,1097.6 2053.3,1082.5 2086.3,1066.0 2119.1,1048.2 2151.5,1029.3 2183.6,1009.3 2215.0,988.5 2245.9,967.0  " style="stroke-opacity: 1.000000; stroke-width: 5.0; stroke: rgb(251,106,74); fill: none"  />
<path d="M 1223.6,625.9 L 1237.6,670.3 1251.5,714.7 1265.4,759.3 1279.2,803.9 1292.9,848.7 1306.6,893.5 1320.1,938.4 1333.6,983.4 1347.0,1028.4 1360.3,1073.5 1373.4,1118.7 1386.5,1164.0 1399.5,1209.3 1412.4,1254.7 1425.2,1300.1 1437.8,1345.5 1450.4,1391.1 1462.8,1436.6 1475.1,1482.2 1487.4,1527.8 1499.4,1573.5 1511.4,1619.2 1523.3,1664.9 1535.0,1710.6 1546.6,1756.3 1558.1,1802.0 1569.4,1847.8 1580.7,1893.5 1591.8,1939.3 1602.8,1985.0 1613.7,2030.7 1624.5,2076.4 1635.2,2122.1 1645.7,2167.7 1656.2,2213.3 1666.5,2258.9 1676.7,2304.4 1686.9,2349.9 1696.9,2395.4  " style="stroke-opacity: 1.000000; stroke-width: 5.0; stroke: rgb(251,106,74); fill: none"  />
<path d="M 1533.9,2416.1 L 1532.4,2380.7 1530.6,2345.6 1528.4,2310.9 1525.9,2277.0 1522.9,2244.1 1519.6,2212.3 1515.8,2181.8 1511.6,2152.9 1507.0,2125.7 1501.9,2100.4 1496.4,2077.0 1490.5,2055.8 1484.1,2036.8 1477.3,2020.2 1470.0,2005.9 1462.3,1994.2 1454.2,1985.0 1445.6,1978.4 1436.7,1974.4 1427.3,1973.1 1417.6,1974.4 1407.6,1978.3 1397.2,1984.9 1386.5,1994.0 1375.5,2005.6 1364.3,2019.6 1352.8,2036.0 1341.1,2054.7 1329.3,2075.6 1317.3,2098.5 1305.2,2123.3 1293.0,2149.8 1280.9,2178.0 1268.7,2207.6 1256.6,2238.4 1244.6,2270.2 1232.8,2302.9 1221.2,2336.1 1209.8,2369.6  " style="stroke-opacity: 1.000000; stroke-width: 5.0; stroke: rgb(251,106,74); fill: none"  />
<path d="M 1533.9,2416.1 L 1532.9,2378.5 1532.9,2340.8 1533.9,2303.1 1536.0,2265.6 1539.2,2228.4 1543.6,2191.8 1549.3,2155.8 1556.3,2120.5 1564.6,2086.1 1574.3,2052.8 1585.4,2020.5 1597.9,1989.5 1611.9,1959.7 1627.3,1931.4 1644.2,1904.5 1662.5,1879.1 1682.2,1855.3 1703.4,1833.1 1725.9,1812.6 1749.9,1793.8 1775.2,1776.8 1801.7,1761.5 1829.5,1748.0 1858.6,1736.3 1888.7,1726.3 1919.9,1718.1 1952.1,1711.6 1985.3,1706.8 2019.2,1703.7 2053.9,1702.2 2089.3,1702.3 2125.2,1703.9 2161.5,1707.0 2198.2,1711.4 2235.0,1717.1 2271.9,1724.0 2308.8,1732.0 2345.5,1741.0 2381.8,1750.9  " style="stroke-opacity: 1.000000; stroke-width: 5.0; stroke: rgb(251,106,74); fill: none"  />
<path d="M 1533.9,2416.1 L 1532.2,2379.7 1529.7,2343.4 1526.4,2307.3 1522.2,2271.8 1517.1,2236.9 1511.1,2203.0 1504.0,2170.0 1496.0,2138.3 1486.9,2107.9 1476.7,2079.0 1465.5,2051.7 1453.2,2026.1 1439.8,2002.3 1425.3,1980.4 1409.7,1960.6 1393.0,1942.8 1375.3,1927.1 1356.5,1913.6 1336.7,1902.2 1315.9,1893.2 1294.1,1886.3 1271.4,1881.7 1247.9,1879.4 1223.5,1879.2 1198.3,1881.3 1172.4,1885.5 1145.9,1891.8 1118.7,1900.2 1091.1,1910.5 1062.9,1922.7 1034.5,1936.7 1005.7,1952.3 976.8,1969.6 947.7,1988.2 918.7,2008.2 889.8,2029.2 861.1,2051.3 832.8,2074.2 804.9,2097.7  " style="stroke-opacity: 1.000000; stroke-width: 5.0; stroke: rgb(251,106,74); fill: none"  />
<path d="M 1384.1,590.6 L 1389.0,632.0 1393.1,673.8 1396.5,716.1 1398.9,758.7 1400.4,801.6 1401.0,844.7 1400.5,888.0 1399.0,931.4 1396.4,974.9 1392.6,1018.4 1387.8,1061.8 1381.7,1105.1 1374.5,1148.3 1366.1,1191.3 1356.4,1234.0 1345.6,1276.5 1333.5,1318.7 1320.2,1360.4 1305.6,1401.8 1289.9,1442.7 1273.0,1483.2 1254.9,1523.1 1235.6,1562.5 1215.2,1601.3 1193.8,1639.5 1171.2,1677.1 1147.7,1714.0 1123.2,1750.2 1097.7,1785.7 1071.3,1820.5 1044.2,1854.5 1016.2,1887.8 987.6,1920.3 958.3,1951.9 928.4,1982.7 898.1,2012.8 867.3,2041.9 836.2,2070.2 804.9,2097.7  " style="stroke-opacity: 1.000000; stroke-width: 5.0; stroke: rgb(251,106,74); fill: none"  />
</g>
<g id="track_0">
<path d="M 2128.3,2167.6 L 2104.0,2142.0 2079.9,2116.7 2055.9,2091.9 2032.3,2067.8 2009.2,2044.5 1986.8,2022.3 1965.1,2001.2 1944.4,1981.5 1924.7,1963.2 1906.0,1946.5 1888.6,1931.4 1872.5,1918.2 1857.8,1906.7 1844.5,1897.2 1832.7,1889.7 1822.4,1884.2 1813.8,1880.8 1806.7,1879.4 1801.3,1880.2 1797.6,1883.2 1795.6,1888.2 1795.2,1895.4 1796.4,1904.6 1799.3,1915.9 1803.8,1929.1 1809.9,1944.3 1817.5,1961.3 1826.6,1980.1 1837.1,2000.6 1848.9,2022.7 1861.9,2046.2 1876.2,2071.0 1891.5,2097.1 1907.7,2124.1 1924.8,2152.1 1942.6,2180.8 1961.0,2209.9 1979.8,2239.4 1999.0,2269.1  " style="stroke-opacity: 1.000000; stroke-width: 5.0; stroke: rgb(107,174,214); fill: none"  />
<path d="M 2128.3,2167.6 L 2103.9,2141.9 2079.4,2116.7 2055.0,2092.0 2030.7,2068.1 2006.8,2045.2 1983.4,2023.5 1960.5,2003.0 1938.3,1984.0 1917.0,1966.6 1896.5,1950.8 1877.0,1936.9 1858.5,1924.8 1841.2,1914.7 1825.1,1906.7 1810.3,1900.8 1796.8,1897.0 1784.6,1895.4 1773.8,1896.1 1764.5,1899.0 1756.5,1904.1 1750.1,1911.5 1745.1,1921.0 1741.6,1932.8 1739.5,1946.7 1738.9,1962.6 1739.7,1980.6 1741.8,2000.5 1745.3,2022.3 1750.1,2045.8 1756.2,2070.9 1763.4,2097.6 1771.7,2125.5 1781.1,2154.8 1791.4,2185.0 1802.5,2216.2 1814.4,2248.0 1827.0,2280.4 1840.1,2313.1 1853.6,2345.8  " style="stroke-opacity: 1.000000; stroke-width: 5.0; stroke: rgb(107,174,214); fill: none"  />
<path d="M 2128.3,2167.6 L 2103.6,2141.8 2078.8,2116.5 2053.8,2091.8 2028.9,2068.1 2004.1,2045.4 1979.5,2023.9 1955.3,2003.8 1931.6,1985.2 1908.4,1968.3 1885.9,1953.1 1864.2,1939.9 1843.2,1928.6 1823.2,1919.3 1804.1,1912.2 1786.0,1907.3 1768.9,1904.7 1753.0,1904.3 1738.2,1906.2 1724.6,1910.4 1712.2,1917.0 1701.1,1925.8 1691.1,1936.9 1682.5,1950.3 1675.1,1965.9 1668.9,1983.6 1664.0,2003.4 1660.3,2025.2 1657.8,2048.8 1656.5,2074.3 1656.3,2101.4 1657.2,2130.1 1659.2,2160.1 1662.1,2191.4 1666.0,2223.8 1670.8,2257.1 1676.3,2291.1 1682.6,2325.6 1689.5,2360.5 1696.9,2395.4  " style="stroke-opacity: 1.000000; stroke-width: 5.0; stroke: rgb(107,174,214); fill: none"  />
<path d="M 2128.3,2167.6 L 2103.4,2141.6 2078.1,2116.1 2052.5,2091.4 2026.8,2067.6 2001.0,2044.9 1975.3,2023.4 1949.7,2003.4 1924.4,1985.0 1899.4,1968.2 1874.8,1953.3 1850.7,1940.3 1827.2,1929.3 1804.3,1920.4 1782.0,1913.7 1760.6,1909.2 1739.9,1907.0 1720.1,1907.1 1701.2,1909.5 1683.2,1914.3 1666.2,1921.4 1650.1,1930.8 1635.1,1942.6 1621.1,1956.6 1608.2,1972.9 1596.3,1991.3 1585.5,2011.9 1575.8,2034.4 1567.0,2058.9 1559.4,2085.2 1552.7,2113.2 1547.1,2142.7 1542.4,2173.7 1538.7,2205.9 1535.9,2239.3 1533.9,2273.6 1532.8,2308.6 1532.5,2344.2 1532.9,2380.1 1533.9,2416.1  " style="stroke-opacity: 1.000000; stroke-width: 5.0; stroke: rgb(107,174,214); fill: none"  />
<path d="M 1548.4,584.5 L 1546.6,619.7 1545.0,654.7 1543.6,689.2 1542.5,722.9 1541.7,755.7 1541.1,787.2 1540.9,817.4 1540.9,846.0 1541.3,872.9 1542.1,898.0 1543.3,920.9 1544.8,941.8 1546.7,960.3 1549.0,976.5 1551.8,990.2 1554.9,1001.4 1558.4,1010.1 1562.3,1016.1 1566.6,1019.4 1571.3,1020.1 1576.3,1018.1 1581.8,1013.4 1587.6,1006.1 1593.7,996.3 1600.2,983.8 1607.0,969.0 1614.0,951.7 1621.3,932.1 1628.9,910.4 1636.7,886.6 1644.7,860.9 1652.8,833.5 1661.0,804.4 1669.4,774.0 1677.8,742.3 1686.2,709.6 1694.6,676.2 1702.9,642.2 1711.1,607.9  " style="stroke-opacity: 1.000000; stroke-width: 5.0; stroke: rgb(107,174,214); fill: none"  />
<path d="M 1548.4,584.5 L 1546.8,620.5 1545.9,656.4 1545.6,692.0 1546.2,727.0 1547.6,761.4 1549.9,794.8 1553.1,827.1 1557.3,858.1 1562.4,887.7 1568.6,915.8 1575.9,942.2 1584.2,966.9 1593.6,989.6 1604.1,1010.3 1615.7,1028.9 1628.4,1045.3 1642.1,1059.6 1656.9,1071.6 1672.8,1081.3 1689.7,1088.7 1707.6,1093.7 1726.5,1096.5 1746.3,1096.9 1767.0,1095.0 1788.6,1090.8 1810.9,1084.5 1833.9,1075.9 1857.6,1065.3 1881.9,1052.7 1906.7,1038.2 1932.0,1021.8 1957.6,1003.8 1983.5,984.2 2009.6,963.1 2035.7,940.9 2061.8,917.5 2087.7,893.1 2113.4,868.0 2138.8,842.4  " style="stroke-opacity: 1.000000; stroke-width: 5.0; stroke: rgb(107,174,214); fill: none"  />
<path d="M 1711.1,607.9 L 1702.9,642.2 1694.6,676.2 1686.2,709.6 1677.8,742.3 1669.4,774.0 1661.0,804.4 1652.8,833.5 1644.7,860.9 1636.7,886.6 1628.9,910.4 1621.3,932.1 1614.0,951.7 1607.0,969.0 1600.2,983.8 1593.7,996.3 1587.6,1006.1 1581.8,1013.4 1576.3,1018.1 1571.3,1020.1 1566.6,1019.4 1562.3,1016.1 1558.4,1010.1 1554.9,1001.4 1551.8,990.2 1549.0,976.5 1546.7,960.3 1544.8,941.8 1543.3,920.9 1542.1,898.0 1541.3,872.9 1540.9,846.0 1540.9,817.4 1541.1,787.2 1541.7,755.7 1542.5,722.9 1543.6,689.2 1545.0,654.7 1546.6,619.7 1548.4,584.5  " style="stroke-opacity: 1.000000; stroke-width: 5.0; stroke: rgb(107,174,214); fill: none"  />
<path d="M 1711.1,607.9 L 1703.1,642.4 1695.5,676.7 1688.3,710.7 1681.8,744.1 1675.8,776.6 1670.6,808.2 1666.1,838.5 1662.5,867.5 1659.7,895.0 1657.8,920.7 1656.9,944.7 1657.0,966.8 1658.1,986.8 1660.3,1004.6 1663.5,1020.3 1667.8,1033.6 1673.2,1044.7 1679.7,1053.3 1687.3,1059.5 1695.9,1063.3 1705.6,1064.6 1716.3,1063.5 1728.1,1060.0 1740.8,1054.0 1754.5,1045.8 1769.1,1035.2 1784.5,1022.4 1800.7,1007.5 1817.7,990.6 1835.4,971.7 1853.6,951.0 1872.4,928.6 1891.6,904.7 1911.2,879.5 1931.0,853.0 1951.1,825.5 1971.2,797.2 1991.2,768.2 2011.1,738.9  " style="stroke-opacity: 1.000000; stroke-width: 5.0; stroke: rgb(107,174,214); fill: none"  />
<path d="M 1711.1,607.9 L 1703.1,642.6 1695.6,677.3 1688.8,711.8 1682.8,745.7 1677.5,778.9 1673.1,811.2 1669.6,842.5 1667.2,872.5 1665.8,901.1 1665.6,928.3 1666.5,953.7 1668.6,977.4 1671.9,999.3 1676.5,1019.1 1682.4,1036.9 1689.6,1052.6 1698.0,1066.1 1707.8,1077.4 1718.8,1086.4 1731.1,1093.2 1744.6,1097.6 1759.4,1099.8 1775.3,1099.6 1792.4,1097.2 1810.6,1092.6 1829.8,1085.8 1850.0,1076.9 1871.1,1066.0 1893.1,1053.0 1915.8,1038.2 1939.2,1021.7 1963.2,1003.5 1987.7,983.8 2012.6,962.7 2037.8,940.4 2063.1,917.0 2088.5,892.8 2113.7,867.8 2138.8,842.4  " style="stroke-opacity: 1.000000; stroke-width: 5.0; stroke: rgb(107,174,214); fill: none"  />
<path d="M 2011.1,738.9 L 1991.2,768.2 1971.2,797.2 1951.1,825.5 1931.0,853.0 1911.2,879.5 1891.6,904.7 1872.4,928.6 1853.6,951.0 1835.4,971.7 1817.7,990.6 1800.7,1007.5 1784.5,1022.4 1769.1,1035.2 1754.5,1045.8 1740.8,1054.0 1728.1,1060.0 1716.3,1063.5 1705.6,1064.6 1695.9,1063.3 1687.3,1059.5 1679.7,1053.3 1673.2,1044.7 1667.8,1033.6 1663.5,1020.3 1660.3,1004.6 1658.1,986.8 1657.0,966.8 1656.9,944.7 1657.8,920.7 1659.7,895.0 1662.5,867.5 1666.1,838.5 1670.6,808.2 1675.8,776.6 1681.8,744.1 1688.3,710.7 1695.5,676.7 1703.1,642.4 1711.1,607.9  " style="stroke-opacity: 1.000000; stroke-width: 5.0; stroke: rgb(107,174,214); fill: none"  />
<path d="M 2011.1,738.9 L 1991.5,768.3 1972.2,797.5 1953.3,826.3 1935.1,854.7 1917.5,882.4 1900.9,909.2 1885.2,935.0 1870.5,959.6 1857.1,982.9 1845.0,1004.8 1834.2,1025.1 1824.8,1043.8 1816.9,1060.7 1810.6,1075.8 1805.9,1088.9 1802.8,1100.2 1801.4,1109.4 1801.7,1116.5 1803.7,1121.6 1807.3,1124.6 1812.7,1125.5 1819.8,1124.3 1828.5,1121.0 1838.8,1115.6 1850.7,1108.3 1864.2,1099.0 1879.1,1087.8 1895.4,1074.8 1913.1,1060.0 1931.9,1043.6 1952.0,1025.6 1973.0,1006.2 1995.0,985.5 2017.8,963.6 2041.2,940.7 2065.2,917.0 2089.6,892.6 2114.1,867.7 2138.8,842.4  " style="stroke-opacity: 1.000000; stroke-width: 5.0; stroke: rgb(107,174,214); fill: none"  />
<path d="M 2011.1,738.9 L 1991.5,768.4 1972.3,797.9 1953.7,827.2 1935.8,856.2 1918.8,884.6 1902.8,912.3 1888.0,939.1 1874.4,964.9 1862.1,989.7 1851.3,1013.1 1842.0,1035.3 1834.4,1055.9 1828.4,1075.1 1824.1,1092.5 1821.7,1108.3 1821.0,1122.4 1822.2,1134.6 1825.2,1144.9 1830.1,1153.4 1836.9,1160.0 1845.5,1164.6 1855.9,1167.3 1868.2,1168.2 1882.2,1167.1 1897.9,1164.2 1915.2,1159.4 1934.2,1152.9 1954.6,1144.6 1976.4,1134.7 1999.6,1123.2 2024.0,1110.3 2049.4,1095.9 2075.8,1080.3 2103.0,1063.5 2130.9,1045.7 2159.3,1027.0 2188.1,1007.5 2217.0,987.5 2245.9,967.0  " style="stroke-opacity: 1.000000; stroke-width: 5.0; stroke: rgb(107,174,214); fill: none"  />
<path d="M 1999.0,2269.1 L 1979.8,2239.4 1961.0,2209.9 1942.6,2180.8 1924.8,2152.1 1907.7,2124.1 1891.5,2097.1 1876.2,2071.0 1861.9,2046.2 1848.9,2022.7 1837.1,2000.6 1826.6,1980.1 1817.5,1961.3 1809.9,1944.3 1803.8,1929.1 1799.3,1915.9 1796.4,1904.6 1795.2,1895.4 1795.6,1888.2 1797.6,1883.2 1801.3,1880.2 1806.7,1879.4 1813.8,1880.8 1822.4,1884.2 1832.7,1889.7 1844.5,1897.2 1857.8,1906.7 1872.5,1918.2 1888.6,1931.4 1906.0,1946.5 1924.7,1963.2 1944.4,1981.5 1965.1,2001.2 1986.8,2022.3 2009.2,2044.5 2032.3,2067.8 2055.9,2091.9 2079.9,2116.7 2104.0,2142.0 2128.3,2167.6  " style="stroke-opacity: 1.000000; stroke-width: 5.0; stroke: rgb(107,174,214); fill: none"  />
<path d="M 1999.0,2269.1 L 1979.7,2239.5 1960.4,2210.3 1941.3,2181.6 1922.4,2153.7 1903.8,2126.7 1885.7,2100.8 1868.2,2076.2 1851.3,2053.1 1835.1,2031.6 1819.8,2011.8 1805.4,1993.9 1791.9,1978.0 1779.4,1964.1 1768.0,1952.3 1757.8,1942.8 1748.7,1935.6 1740.7,1930.7 1734.1,1928.1 1728.6,1927.9 1724.4,1930.2 1721.5,1934.7 1719.8,1941.7 1719.4,1951.0 1720.3,1962.6 1722.3,1976.5 1725.6,1992.5 1730.0,2010.6 1735.6,2030.7 1742.3,2052.8 1749.9,2076.6 1758.6,2102.0 1768.2,2129.0 1778.6,2157.4 1789.7,2186.9 1801.5,2217.5 1813.9,2248.8 1826.8,2280.8 1840.1,2313.2 1853.6,2345.8  " style="stroke-opacity: 1.000000; stroke-width: 5.0; stroke: rgb(107,174,214); fill: none"  />
<path d="M 1999.0,2269.1 L 1979.5,2239.4 1960.0,2210.2 1940.3,2181.6 1920.7,2153.8 1901.3,2127.0 1882.1,2101.4 1863.3,2077.2 1844.9,2054.5 1826.9,2033.5 1809.6,2014.4 1792.9,1997.2 1776.9,1982.0 1761.7,1969.0 1747.3,1958.2 1733.7,1949.7 1721.1,1943.6 1709.4,1939.9 1698.7,1938.6 1689.0,1939.8 1680.3,1943.4 1672.6,1949.5 1666.0,1958.0 1660.4,1969.0 1655.9,1982.3 1652.4,1997.9 1650.0,2015.7 1648.6,2035.7 1648.1,2057.7 1648.6,2081.7 1650.1,2107.5 1652.4,2135.0 1655.6,2164.0 1659.6,2194.4 1664.4,2226.0 1669.8,2258.7 1675.8,2292.2 1682.4,2326.3 1689.5,2360.7 1696.9,2395.4  " style="stroke-opacity: 1.000000; stroke-width: 5.0; stroke: rgb(107,174,214); fill: none"  />
<path d="M 2138.8,842.4 L 2113.4,868.0 2087.7,893.1 2061.8,917.5 2035.7,940.9 2009.6,963.1 1983.5,984.2 1957.6,1003.8 1932.0,1021.8 1906.7,1038.2 1881.9,1052.7 1857.6,1065.3 1833.9,1075.9 1810.9,1084.5 1788.6,1090.8 1767.0,1095.0 1746.3,1096.9 1726.5,1096.5 1707.6,1093.7 1689.7,1088.7 1672.8,1081.3 1656.9,1071.6 1642.1,1059.6 1628.4,1045.3 1615.7,1028.9 1604.1,1010.3 1593.6,989.6 1584.2,966.9 1575.9,942.2 1568.6,915.8 1562.4,887.7 1557.3,858.1 1553.1,827.1 1549.9,794.8 1547.6,761.4 1546.2,727.0 1545.6,692.0 1545.9,656.4 1546.8,620.5 1548.4,584.5  " style="stroke-opacity: 1.000000; stroke-width: 5.0; stroke: rgb(107,174,214); fill: none"  />
<path d="M 2138.8,842.4 L 2113.7,867.8 2088.5,892.8 2063.1,917.0 2037.8,940.4 2012.6,962.7 1987.7,983.8 1963.2,1003.5 1939.2,1021.7 1915.8,1038.2 1893.1,1053.0 1871.1,1066.0 1850.0,1076.9 1829.8,1085.8 1810.6,1092.6 1792.4,1097.2 1775.3,1099.6 1759.4,1099.8 1744.6,1097.6 1731.1,1093.2 1718.8,1086.4 1707.8,1077.4 1698.0,1066.1 1689.6,1052.6 1682.4,1036.9 1676.5,1019.1 1671.9,999.3 1668.6,977.4 1666.5,953.7 1665.6,928.3 1665.8,901.1 1667.2,872.5 1669.6,842.5 1673.1,811.2 1677.5,778.9 1682.8,745.7 1688.8,711.8 1695.6,677.3 1703.1,642.6 1711.1,607.9  " style="stroke-opacity: 1.000000; stroke-width: 5.0; stroke: rgb(107,174,214); fill: none"  />
<path d="M 2138.8,842.4 L 2114.1,867.7 2089.6,892.6 2065.2,917.0 2041.2,940.7 2017.8,963.6 1995.0,985.5 1973.0,1006.2 1952.0,1025.6 1931.9,1043.6 1913.1,1060.0 1895.4,1074.8 1879.1,1087.8 1864.2,1099.0 1850.7,1108.3 1838.8,1115.6 1828.5,1121.0 1819.8,1124.3 1812.7,1125.5 1807.3,1124.6 1803.7,1121.6 1801.7,1116.5 1801.4,1109.4 1802.8,1100.2 1805.9,1088.9 1810.6,1075.8 1816.9,1060.7 1824.8,1043.8 1834.2,1025.1 1845.0,1004.8 1857.1,982.9 1870.5,959.6 1885.2,935.0 1900.9,909.2 1917.5,882.4 1935.1,854.7 1953.3,826.3 1972.2,797.5 1991.5,768.3 2011.1,738.9  " style="stroke-opacity: 1.000000; stroke-width: 5.0; stroke: rgb(107,174,214); fill: none"  />
<path d="M 2138.8,842.4 L 2114.2,867.8 2090.0,893.1 2066.3,918.1 2043.3,942.8 2021.1,966.9 1999.9,990.3 1979.9,1012.8 1961.1,1034.5 1943.7,1055.0 1927.8,1074.3 1913.6,1092.4 1901.0,1109.1 1890.3,1124.3 1881.4,1138.0 1874.4,1150.2 1869.3,1160.7 1866.3,1169.5 1865.3,1176.5 1866.3,1181.9 1869.4,1185.5 1874.6,1187.3 1881.7,1187.4 1890.9,1185.7 1902.0,1182.3 1915.0,1177.2 1929.9,1170.5 1946.6,1162.1 1965.0,1152.2 1985.0,1140.8 2006.5,1128.0 2029.4,1113.9 2053.6,1098.6 2078.9,1082.1 2105.2,1064.7 2132.4,1046.4 2160.2,1027.3 2188.5,1007.6 2217.2,987.5 2245.9,967.0  " style="stroke-opacity: 1.000000; stroke-width: 5.0; stroke: rgb(107,174,214); fill: none"  />
<path d="M 1209.8,2369.6 L 1220.9,2336.1 1231.7,2302.8 1242.2,2270.0 1252.3,2237.8 1261.8,2206.4 1270.8,2176.2 1279.0,2147.1 1286.6,2119.5 1293.3,2093.5 1299.2,2069.1 1304.2,2046.7 1308.3,2026.2 1311.4,2007.8 1313.5,1991.6 1314.5,1977.6 1314.5,1966.0 1313.4,1956.7 1311.2,1949.9 1308.0,1945.6 1303.6,1943.7 1298.2,1944.2 1291.7,1947.3 1284.2,1952.8 1275.6,1960.7 1266.1,1970.9 1255.6,1983.4 1244.2,1998.2 1232.0,2015.1 1218.9,2034.0 1205.1,2054.9 1190.5,2077.5 1175.4,2101.8 1159.7,2127.7 1143.6,2154.8 1127.1,2183.1 1110.3,2212.3 1093.3,2242.4 1076.2,2272.9 1059.2,2303.8  " style="stroke-opacity: 1.000000; stroke-width: 5.0; stroke: rgb(107,174,214); fill: none"  />
<path d="M 1209.8,2369.6 L 1220.9,2336.0 1231.5,2302.4 1241.7,2269.2 1251.2,2236.6 1260.0,2204.7 1268.1,2173.7 1275.2,2143.9 1281.5,2115.4 1286.7,2088.3 1290.9,2062.8 1293.9,2039.0 1295.8,2017.0 1296.5,1997.0 1295.9,1979.0 1294.1,1963.1 1291.0,1949.4 1286.7,1938.0 1281.0,1928.8 1274.0,1921.9 1265.7,1917.4 1256.2,1915.2 1245.4,1915.4 1233.4,1917.8 1220.2,1922.6 1205.8,1929.6 1190.3,1938.8 1173.8,1950.1 1156.3,1963.5 1137.9,1978.9 1118.6,1996.1 1098.6,2015.1 1077.9,2035.7 1056.6,2057.8 1034.8,2081.2 1012.7,2105.8 990.3,2131.4 967.7,2157.8 945.2,2184.8 922.8,2212.2  " style="stroke-opacity: 1.000000; stroke-width: 5.0; stroke: rgb(107,174,214); fill: none"  />
<path d="M 1209.8,2369.6 L 1220.9,2335.7 1231.4,2301.8 1241.3,2268.1 1250.4,2234.9 1258.6,2202.3 1265.9,2170.5 1272.1,2139.7 1277.2,2110.0 1281.2,2081.6 1283.9,2054.6 1285.2,2029.1 1285.2,2005.3 1283.9,1983.3 1281.1,1963.1 1276.8,1944.8 1271.1,1928.6 1263.9,1914.4 1255.2,1902.2 1245.0,1892.3 1233.4,1884.5 1220.3,1878.8 1205.8,1875.4 1189.9,1874.1 1172.7,1874.9 1154.2,1877.9 1134.4,1882.9 1113.5,1890.0 1091.5,1899.0 1068.4,1909.9 1044.5,1922.6 1019.7,1937.0 994.1,1953.0 967.9,1970.4 941.3,1989.2 914.2,2009.2 886.9,2030.2 859.5,2052.0 832.1,2074.6 804.9,2097.7  " style="stroke-opacity: 1.000000; stroke-width: 5.0; stroke: rgb(107,174,214); fill: none"  />
<path d="M 716.8,1023.6 L 747.7,1042.0 778.9,1059.9 810.1,1076.9 841.2,1093.0 872.1,1108.1 902.6,1121.9 932.6,1134.4 961.9,1145.4 990.4,1154.9 1018.1,1162.7 1044.8,1168.9 1070.4,1173.2 1094.9,1175.7 1118.1,1176.3 1140.0,1174.9 1160.5,1171.5 1179.5,1166.2 1197.1,1158.8 1213.2,1149.4 1227.7,1138.0 1240.7,1124.6 1252.0,1109.3 1261.7,1092.1 1269.9,1072.9 1276.4,1052.0 1281.4,1029.3 1284.8,1005.0 1286.7,979.1 1287.1,951.7 1286.0,923.0 1283.6,893.0 1279.9,861.9 1274.9,829.8 1268.7,796.9 1261.5,763.3 1253.2,729.2 1244.1,694.9 1234.2,660.3 1223.6,625.9  " style="stroke-opacity: 1.000000; stroke-width: 5.0; stroke: rgb(107,174,214); fill: none"  />
<path d="M 1059.2,2303.8 L 1076.2,2272.9 1093.3,2242.4 1110.3,2212.3 1127.1,2183.1 1143.6,2154.8 1159.7,2127.7 1175.4,2101.8 1190.5,2077.5 1205.1,2054.9 1218.9,2034.0 1232.0,2015.1 1244.2,1998.2 1255.6,1983.4 1266.1,1970.9 1275.6,1960.7 1284.2,1952.8 1291.7,1947.3 1298.2,1944.2 1303.6,1943.7 1308.0,1945.6 1311.2,1949.9 1313.4,1956.7 1314.5,1966.0 1314.5,1977.6 1313.5,1991.6 1311.4,2007.8 1308.3,2026.2 1304.2,2046.7 1299.2,2069.1 1293.3,2093.5 1286.6,2119.5 1279.0,2147.1 1270.8,2176.2 1261.8,2206.4 1252.3,2237.8 1242.2,2270.0 1231.7,2302.8 1220.9,2336.1 1209.8,2369.6  " style="stroke-opacity: 1.000000; stroke-width: 5.0; stroke: rgb(107,174,214); fill: none"  />
<path d="M 1059.2,2303.8 L 1076.1,2272.9 1092.7,2242.0 1108.9,2211.6 1124.5,2181.7 1139.5,2152.6 1153.7,2124.4 1167.0,2097.3 1179.4,2071.4 1190.7,2047.0 1200.8,2024.1 1209.8,2002.9 1217.4,1983.5 1223.7,1966.0 1228.7,1950.4 1232.2,1936.8 1234.3,1925.4 1234.8,1916.1 1233.9,1909.0 1231.5,1904.1 1227.6,1901.5 1222.1,1901.1 1215.2,1902.9 1206.8,1906.9 1197.0,1913.2 1185.8,1921.6 1173.2,1932.0 1159.4,1944.5 1144.3,1959.0 1128.0,1975.3 1110.7,1993.3 1092.4,2013.0 1073.2,2034.2 1053.1,2056.8 1032.4,2080.6 1011.1,2105.5 989.3,2131.3 967.3,2157.8 945.0,2184.9 922.8,2212.2  " style="stroke-opacity: 1.000000; stroke-width: 5.0; stroke: rgb(107,174,214); fill: none"  />
<path d="M 1059.2,2303.8 L 1076.1,2272.7 1092.6,2241.6 1108.5,2210.7 1123.7,2180.3 1138.1,2150.5 1151.5,2121.5 1163.9,2093.4 1175.1,2066.5 1185.1,2040.7 1193.7,2016.4 1201.0,1993.5 1206.8,1972.3 1211.0,1952.7 1213.7,1934.9 1214.7,1918.9 1214.1,1904.9 1211.9,1892.8 1207.9,1882.8 1202.3,1874.8 1195.0,1868.9 1186.0,1865.0 1175.3,1863.2 1163.1,1863.5 1149.2,1865.8 1133.8,1870.2 1117.0,1876.5 1098.7,1884.7 1079.1,1894.7 1058.2,1906.5 1036.2,1920.0 1013.1,1935.1 989.0,1951.7 964.1,1969.6 938.5,1988.8 912.4,2009.0 885.7,2030.2 858.8,2052.2 831.8,2074.7 804.9,2097.7  " style="stroke-opacity: 1.000000; stroke-width: 5.0; stroke: rgb(107,174,214); fill: none"  />
<path d="M 1853.6,2345.8 L 1840.1,2313.1 1827.0,2280.4 1814.4,2248.0 1802.5,2216.2 1791.4,2185.0 1781.1,2154.8 1771.7,2125.5 1763.4,2097.6 1756.2,2070.9 1750.1,2045.8 1745.3,2022.3 1741.8,2000.5 1739.7,1980.6 1738.9,1962.6 1739.5,1946.7 1741.6,1932.8 1745.1,1921.0 1750.1,1911.5 1756.5,1904.1 1764.5,1899.0 1773.8,1896.1 1784.6,1895.4 1796.8,1897.0 1810.3,1900.8 1825.1,1906.7 1841.2,1914.7 1858.5,1924.8 1877.0,1936.9 1896.5,1950.8 1917.0,1966.6 1938.3,1984.0 1960.5,2003.0 1983.4,2023.5 2006.8,2045.2 2030.7,2068.1 2055.0,2092.0 2079.4,2116.7 2103.9,2141.9 2128.3,2167.6  " style="stroke-opacity: 1.000000; stroke-width: 5.0; stroke: rgb(107,174,214); fill: none"  />
<path d="M 1853.6,2345.8 L 1840.1,2313.2 1826.8,2280.8 1813.9,2248.8 1801.5,2217.5 1789.7,2186.9 1778.6,2157.4 1768.2,2129.0 1758.6,2102.0 1749.9,2076.6 1742.3,2052.8 1735.6,2030.7 1730.0,2010.6 1725.6,1992.5 1722.3,1976.5 1720.3,1962.6 1719.4,1951.0 1719.8,1941.7 1721.5,1934.7 1724.4,1930.2 1728.6,1927.9 1734.1,1928.1 1740.7,1930.7 1748.7,1935.6 1757.8,1942.8 1768.0,1952.3 1779.4,1964.1 1791.9,1978.0 1805.4,1993.9 1819.8,2011.8 1835.1,2031.6 1851.3,2053.1 1868.2,2076.2 1885.7,2100.8 1903.8,2126.7 1922.4,2153.7 1941.3,2181.6 1960.4,2210.3 1979.7,2239.5 1999.0,2269.1  " style="stroke-opacity: 1.000000; stroke-width: 5.0; stroke: rgb(107,174,214); fill: none"  />
<path d="M 1853.6,2345.8 L 1839.8,2313.2 1825.8,2280.9 1811.6,2249.2 1797.2,2218.4 1782.9,2188.6 1768.6,2160.0 1754.4,2132.8 1740.3,2107.2 1726.4,2083.4 1712.8,2061.4 1699.4,2041.5 1686.4,2023.7 1673.7,2008.2 1661.5,1995.0 1649.7,1984.2 1638.3,1975.9 1627.5,1970.2 1617.2,1967.0 1607.4,1966.4 1598.2,1968.5 1589.6,1973.1 1581.5,1980.3 1574.1,1990.1 1567.3,2002.3 1561.1,2017.1 1555.5,2034.2 1550.5,2053.6 1546.2,2075.2 1542.4,2098.9 1539.2,2124.5 1536.6,2152.0 1534.6,2181.1 1533.1,2211.8 1532.1,2243.7 1531.6,2276.8 1531.5,2310.8 1531.9,2345.5 1532.7,2380.7 1533.9,2416.1  " style="stroke-opacity: 1.000000; stroke-width: 5.0; stroke: rgb(107,174,214); fill: none"  />
<path d="M 2245.9,967.0 L 2217.0,987.5 2188.1,1007.5 2159.3,1027.0 2130.9,1045.7 2103.0,1063.5 2075.8,1080.3 2049.4,1095.9 2024.0,1110.3 1999.6,1123.2 1976.4,1134.7 1954.6,1144.6 1934.2,1152.9 1915.2,1159.4 1897.9,1164.2 1882.2,1167.1 1868.2,1168.2 1855.9,1167.3 1845.5,1164.6 1836.9,1160.0 1830.1,1153.4 1825.2,1144.9 1822.2,1134.6 1821.0,1122.4 1821.7,1108.3 1824.1,1092.5 1828.4,1075.1 1834.4,1055.9 1842.0,1035.3 1851.3,1013.1 1862.1,989.7 1874.4,964.9 1888.0,939.1 1902.8,912.3 1918.8,884.6 1935.8,856.2 1953.7,827.2 1972.3,797.9 1991.5,768.4 2011.1,738.9  " style="stroke-opacity: 1.000000; stroke-width: 5.0; stroke: rgb(107,174,214); fill: none"  />
<path d="M 2245.9,967.0 L 2217.2,987.5 2188.5,1007.6 2160.2,1027.3 2132.4,1046.4 2105.2,1064.7 2078.9,1082.1 2053.6,1098.6 2029.4,1113.9 2006.5,1128.0 1985.0,1140.8 1965.0,1152.2 1946.6,1162.1 1929.9,1170.5 1915.0,1177.2 1902.0,1182.3 1890.9,1185.7 1881.7,1187.4 1874.6,1187.3 1869.4,1185.5 1866.3,1181.9 1865.3,1176.5 1866.3,1169.5 1869.3,1160.7 1874.4,1150.2 1881.4,1138.0 1890.3,1124.3 1901.0,1109.1 1913.6,1092.4 1927.8,1074.3 1943.7,1055.0 1961.1,1034.5 1979.9,1012.8 1999.9,990.3 2021.1,966.9 2043.3,942.8 2066.3,918.1 2090.0,893.1 2114.2,867.8 2138.8,842.4  " style="stroke-opacity: 1.000000; stroke-width: 5.0; stroke: rgb(107,174,214); fill: none"  />
<path d="M 922.8,2212.2 L 945.2,2184.8 967.7,2157.8 990.3,2131.4 1012.7,2105.8 1034.8,2081.2 1056.6,2057.8 1077.9,2035.7 1098.6,2015.1 1118.6,1996.1 1137.9,1978.9 1156.3,1963.5 1173.8,1950.1 1190.3,1938.8 1205.8,1929.6 1220.2,1922.6 1233.4,1917.8 1245.4,1915.4 1256.2,1915.2 1265.7,1917.4 1274.0,1921.9 1281.0,1928.8 1286.7,1938.0 1291.0,1949.4 1294.1,1963.1 1295.9,1979.0 1296.5,1997.0 1295.8,2017.0 1293.9,2039.0 1290.9,2062.8 1286.7,2088.3 1281.5,2115.4 1275.2,2143.9 1268.1,2173.7 1260.0,2204.7 1251.2,2236.6 1241.7,2269.2 1231.5,2302.4 1220.9,2336.0 1209.8,2369.6  " style="stroke-opacity: 1.000000; stroke-width: 5.0; stroke: rgb(107,174,214); fill: none"  />
<path d="M 922.8,2212.2 L 945.0,2184.9 967.3,2157.8 989.3,2131.3 1011.1,2105.5 1032.4,2080.6 1053.1,2056.8 1073.2,2034.2 1092.4,2013.0 1110.7,1993.3 1128.0,1975.3 1144.3,1959.0 1159.4,1944.5 1173.2,1932.0 1185.8,1921.6 1197.0,1913.2 1206.8,1906.9 1215.2,1902.9 1222.1,1901.1 1227.6,1901.5 1231.5,1904.1 1233.9,1909.0 1234.8,1916.1 1234.3,1925.4 1232.2,1936.8 1228.7,1950.4 1223.7,1966.0 1217.4,1983.5 1209.8,2002.9 1200.8,2024.1 1190.7,2047.0 1179.4,2071.4 1167.0,2097.3 1153.7,2124.4 1139.5,2152.6 1124.5,2181.7 1108.9,2211.6 1092.7,2242.0 1076.1,2272.9 1059.2,2303.8  " style="stroke-opacity: 1.000000; stroke-width: 5.0; stroke: rgb(107,174,214); fill: none"  />
<path d="M 922.8,2212.2 L 944.9,2184.7 966.7,2157.4 988.1,2130.3 1008.8,2103.7 1028.8,2077.7 1047.8,2052.5 1065.7,2028.2 1082.5,2005.0 1098.0,1983.0 1112.0,1962.3 1124.6,1943.0 1135.6,1925.3 1145.0,1909.1 1152.6,1894.7 1158.5,1882.0 1162.6,1871.1 1164.8,1862.0 1165.2,1854.9 1163.6,1849.7 1160.3,1846.4 1155.0,1845.0 1147.8,1845.6 1138.9,1848.1 1128.1,1852.4 1115.6,1858.7 1101.3,1866.7 1085.5,1876.6 1068.1,1888.1 1049.2,1901.2 1028.9,1915.9 1007.3,1932.0 984.6,1949.4 960.9,1968.1 936.2,1987.8 910.8,2008.5 884.8,2030.0 858.4,2052.1 831.7,2074.8 804.9,2097.7  " style="stroke-opacity: 1.000000; stroke-width: 5.0; stroke: rgb(107,174,214); fill: none"  />
<path d="M 804.9,2097.7 L 832.1,2074.6 859.5,2052.0 886.9,2030.2 914.2,2009.2 941.3,1989.2 967.9,1970.4 994.1,1953.0 1019.7,1937.0 1044.5,1922.6 1068.4,1909.9 1091.5,1899.0 1113.5,1890.0 1134.4,1882.9 1154.2,1877.9 1172.7,1874.9 1189.9,1874.1 1205.8,1875.4 1220.3,1878.8 1233.4,1884.5 1245.0,1892.3 1255.2,1902.2 1263.9,1914.4 1271.1,1928.6 1276.8,1944.8 1281.1,1963.1 1283.9,1983.3 1285.2,2005.3 1285.2,2029.1 1283.9,2054.6 1281.2,2081.6 1277.2,2110.0 1272.1,2139.7 1265.9,2170.5 1258.6,2202.3 1250.4,2234.9 1241.3,2268.1 1231.4,2301.8 1220.9,2335.7 1209.8,2369.6  " style="stroke-opacity: 1.000000; stroke-width: 5.0; stroke: rgb(107,174,214); fill: none"  />
<path d="M 804.9,2097.7 L 831.8,2074.7 858.8,2052.2 885.7,2030.2 912.4,2009.0 938.5,1988.8 964.1,1969.6 989.0,1951.7 1013.1,1935.1 1036.2,1920.0 1058.2,1906.5 1079.1,1894.7 1098.7,1884.7 1117.0,1876.5 1133.8,1870.2 1149.2,1865.8 1163.1,1863.5 1175.3,1863.2 1186.0,1865.0 1195.0,1868.9 1202.3,1874.8 1207.9,1882.8 1211.9,1892.8 1214.1,1904.9 1214.7,1918.9 1213.7,1934.9 1211.0,1952.7 1206.8,1972.3 1201.0,1993.5 1193.7,2016.4 1185.1,2040.7 1175.1,2066.5 1163.9,2093.4 1151.5,2121.5 1138.1,2150.5 1123.7,2180.3 1108.5,2210.7 1092.6,2241.6 1076.1,2272.7 1059.2,2303.8  " style="stroke-opacity: 1.000000; stroke-width: 5.0; stroke: rgb(107,174,214); fill: none"  />
<path d="M 804.9,2097.7 L 831.7,2074.8 858.4,2052.1 884.8,2030.0 910.8,2008.5 936.2,1987.8 960.9,1968.1 984.6,1949.4 1007.3,1932.0 1028.9,1915.9 1049.2,1901.2 1068.1,1888.1 1085.5,1876.6 1101.3,1866.7 1115.6,1858.7 1128.1,1852.4 1138.9,1848.1 1147.8,1845.6 1155.0,1845.0 1160.3,1846.4 1163.6,1849.7 1165.2,1854.9 1164.8,1862.0 1162.6,1871.1 1158.5,1882.0 1152.6,1894.7 1145.0,1909.1 1135.6,1925.3 1124.6,1943.0 1112.0,1962.3 1098.0,1983.0 1082.5,2005.0 1065.7,2028.2 1047.8,2052.5 1028.8,2077.7 1008.8,2103.7 988.1,2130.3 966.7,2157.4 944.9,2184.7 922.8,2212.2  " style="stroke-opacity: 1.000000; stroke-width: 5.0; stroke: rgb(107,174,214); fill: none"  />
<path d="M 1696.9,2395.4 L 1689.5,2360.5 1682.6,2325.6 1676.3,2291.1 1670.8,2257.1 1666.0,2223.8 1662.1,2191.4 1659.2,2160.1 1657.2,2130.1 1656.3,2101.4 1656.5,2074.3 1657.8,2048.8 1660.3,2025.2 1664.0,2003.4 1668.9,1983.6 1675.1,1965.9 1682.5,1950.3 1691.1,1936.9 1701.1,1925.8 1712.2,1917.0 1724.6,1910.4 1738.2,1906.2 1753.0,1904.3 1768.9,1904.7 1786.0,1907.3 1804.1,1912.2 1823.2,1919.3 1843.2,1928.6 1864.2,1939.9 1885.9,1953.1 1908.4,1968.3 1931.6,1985.2 1955.3,2003.8 1979.5,2023.9 2004.1,2045.4 2028.9,2068.1 2053.8,2091.8 2078.8,2116.5 2103.6,2141.8 2128.3,2167.6  " style="stroke-opacity: 1.000000; stroke-width: 5.0; stroke: rgb(107,174,214); fill: none"  />
<path d="M 1696.9,2395.4 L 1689.5,2360.7 1682.4,2326.3 1675.8,2292.2 1669.8,2258.7 1664.4,2226.0 1659.6,2194.4 1655.6,2164.0 1652.4,2135.0 1650.1,2107.5 1648.6,2081.7 1648.1,2057.7 1648.6,2035.7 1650.0,2015.7 1652.4,1997.9 1655.9,1982.3 1660.4,1969.0 1666.0,1958.0 1672.6,1949.5 1680.3,1943.4 1689.0,1939.8 1698.7,1938.6 1709.4,1939.9 1721.1,1943.6 1733.7,1949.7 1747.3,1958.2 1761.7,1969.0 1776.9,1982.0 1792.9,1997.2 1809.6,2014.4 1826.9,2033.5 1844.9,2054.5 1863.3,2077.2 1882.1,2101.4 1901.3,2127.0 1920.7,2153.8 1940.3,2181.6 1960.0,2210.2 1979.5,2239.4 1999.0,2269.1  " style="stroke-opacity: 1.000000; stroke-width: 5.0; stroke: rgb(107,174,214); fill: none"  />
<path d="M 1072.0,689.3 L 1088.5,720.4 1105.1,751.3 1121.6,781.6 1137.9,811.1 1154.0,839.6 1169.7,867.0 1185.0,893.1 1199.7,917.6 1213.9,940.5 1227.4,961.6 1240.2,980.7 1252.1,997.8 1263.3,1012.7 1273.6,1025.5 1283.0,1035.9 1291.4,1043.9 1298.8,1049.5 1305.3,1052.6 1310.7,1053.3 1315.0,1051.5 1318.4,1047.1 1320.6,1040.4 1321.9,1031.1 1322.1,1019.5 1321.3,1005.5 1319.4,989.3 1316.7,970.8 1312.9,950.3 1308.3,927.8 1302.7,903.3 1296.4,877.2 1289.3,849.5 1281.5,820.3 1273.0,789.9 1264.0,758.4 1254.4,726.0 1244.5,693.0 1234.2,659.6 1223.6,625.9  " style="stroke-opacity: 1.000000; stroke-width: 5.0; stroke: rgb(107,174,214); fill: none"  />
<path d="M 1223.6,625.9 L 1234.2,660.3 1244.1,694.9 1253.2,729.2 1261.5,763.3 1268.7,796.9 1274.9,829.8 1279.9,861.9 1283.6,893.0 1286.0,923.0 1287.1,951.7 1286.7,979.1 1284.8,1005.0 1281.4,1029.3 1276.4,1052.0 1269.9,1072.9 1261.7,1092.1 1252.0,1109.3 1240.7,1124.6 1227.7,1138.0 1213.2,1149.4 1197.1,1158.8 1179.5,1166.2 1160.5,1171.5 1140.0,1174.9 1118.1,1176.3 1094.9,1175.7 1070.4,1173.2 1044.8,1168.9 1018.1,1162.7 990.4,1154.9 961.9,1145.4 932.6,1134.4 902.6,1121.9 872.1,1108.1 841.2,1093.0 810.1,1076.9 778.9,1059.9 747.7,1042.0 716.8,1023.6  " style="stroke-opacity: 1.000000; stroke-width: 5.0; stroke: rgb(107,174,214); fill: none"  />
<path d="M 1223.6,625.9 L 1234.2,659.6 1244.5,693.0 1254.4,726.0 1264.0,758.4 1273.0,789.9 1281.5,820.3 1289.3,849.5 1296.4,877.2 1302.7,903.3 1308.3,927.8 1312.9,950.3 1316.7,970.8 1319.4,989.3 1321.3,1005.5 1322.1,1019.5 1321.9,1031.1 1320.6,1040.4 1318.4,1047.1 1315.0,1051.5 1310.7,1053.3 1305.3,1052.6 1298.8,1049.5 1291.4,1043.9 1283.0,1035.9 1273.6,1025.5 1263.3,1012.7 1252.1,997.8 1240.2,980.7 1227.4,961.6 1213.9,940.5 1199.7,917.6 1185.0,893.1 1169.7,867.0 1154.0,839.6 1137.9,811.1 1121.6,781.6 1105.1,751.3 1088.5,720.4 1072.0,689.3  " style="stroke-opacity: 1.000000; stroke-width: 5.0; stroke: rgb(107,174,214); fill: none"  />
<path d="M 1533.9,2416.1 L 1532.9,2380.1 1532.5,2344.2 1532.8,2308.6 1533.9,2273.6 1535.9,2239.3 1538.7,2205.9 1542.4,2173.7 1547.1,2142.7 1552.7,2113.2 1559.4,2085.2 1567.0,2058.9 1575.8,2034.4 1585.5,2011.9 1596.3,1991.3 1608.2,1972.9 1621.1,1956.6 1635.1,1942.6 1650.1,1930.8 1666.2,1921.4 1683.2,1914.3 1701.2,1909.5 1720.1,1907.1 1739.9,1907.0 1760.6,1909.2 1782.0,1913.7 1804.3,1920.4 1827.2,1929.3 1850.7,1940.3 1874.8,1953.3 1899.4,1968.2 1924.4,1985.0 1949.7,2003.4 1975.3,2023.4 2001.0,2044.9 2026.8,2067.6 2052.5,2091.4 2078.1,2116.1 2103.4,2141.6 2128.3,2167.6  " style="stroke-opacity: 1.000000; stroke-width: 5.0; stroke: rgb(107,174,214); fill: none"  />
<path d="M 1533.9,2416.1 L 1532.7,2380.7 1531.9,2345.5 1531.5,2310.8 1531.6,2276.8 1532.1,2243.7 1533.1,2211.8 1534.6,2181.1 1536.6,2152.0 1539.2,2124.5 1542.4,2098.9 1546.2,2075.2 1550.5,2053.6 1555.5,2034.2 1561.1,2017.1 1567.3,2002.3 1574.1,1990.1 1581.5,1980.3 1589.6,1973.1 1598.2,1968.5 1607.4,1966.4 1617.2,1967.0 1627.5,1970.2 1638.3,1975.9 1649.7,1984.2 1661.5,1995.0 1673.7,2008.2 1686.4,2023.7 1699.4,2041.5 1712.8,2061.4 1726.4,2083.4 1740.3,2107.2 1754.4,2132.8 1768.6,2160.0 1782.9,2188.6 1797.2,2218.4 1811.6,2249.2 1825.8,2280.9 1839.8,2313.2 1853.6,2345.8  " style="stroke-opacity: 1.000000; stroke-width: 5.0; stroke: rgb(107,174,214); fill: none"  />
</g>
<defs>
<pattern id="hline" width="10" height="10" patternTransform="rotate(0 0 0)" patternUnits="userSpaceOnUse"><line x1="0" y1="0" x2="10" y2="0" style="stroke:black;stroke-width:5" /></pattern>
<pattern id="checker" width="10" height="10" patternTransform="rotate(45 0 0)" patternUnits="userSpaceOnUse"><line x1="0" y1="0" x2="10" y2="0" style="stroke:black;stroke-width:2" /><line x1="0" y1="0" x2="0" y2="10" style="stroke:black;stroke-width:2" /></pattern>
<pattern id="vline" width="10" height="10" patternTransform="rotate(0 0 0)" patternUnits="userSpaceOnUse"><line x1="0" y1="0" x2="0" y2="10" style="stroke:black;stroke-width:5" /></pattern>
<pattern id="checker" width="10" height="10" patternTransform="rotate(45 0 0)" patternUnits="userSpaceOnUse"><line x1="0" y1="0" x2="10" y2="0" style="stroke:black;stroke-width:5" /><line x1="0" y1="0" x2="0" y2="10" style="stroke:black;stroke-width:4" /></pattern>
<pattern id="hline-sparse" width="10" height="10" patternTransform="rotate(0 0 0)" patternUnits="userSpaceOnUse"><line x1="0" y1="0" x2="10" y2="0" style="stroke:black;stroke-width:2" /></pattern>
<pattern id="vline-sparse" width="10" height="10" patternTransform="rotate(0 0 0)" patternUnits="userSpaceOnUse"><line x1="0" y1="0" x2="0" y2="10" style="stroke:black;stroke-width:2" /></pattern>
</defs>
</svg>
