<?xml version="1.0" encoding="utf-8" standalone="no"?>
<!DOCTYPE svg PUBLIC "-//W3C//DTD SVG 1.1//EN" "http://www.w3.org/Graphics/SVG/1.1/DTD/svg11.dtd">
<svg width="3000px" height="3000px" version="1.1" xmlns="http://www.w3.org/2000/svg" xmlns:xlink="http://www.w3.org/1999/xlink">
<g id="bg">
<rect x="0" y="0" width="3000px" height="3000px" style="fill:rgb(255,255,255);"/>
</g>
<g id="ideograms">
<path d="M1500.000,830.000 A670.000,670.000 40.000 0,1 1570.620,833.732 L1579.053,754.178 A750.000,750.000 0.000 0,0 1500.000,750.000 Z" style="stroke-width:2.0;stroke:rgb(115,115,115);stroke-linecap:round;fill:rgb(153,204,255);" />
<text x="1567.5" y="677.8" font-size="65.0px" font-family="CMUBright-Roman" style="text-anchor:start;fill:rgb(0,0,0);" transform="rotate(273.0,1567.5,677.8)" >5-FP</text>
<path d="M1500.000,830.000 A670.000,670.000 40.000 0,1 1570.620,833.732 L1579.053,754.178 A750.000,750.000 0.000 0,0 1500.000,750.000 Z" style="stroke-width:2.0;stroke:rgb(115,115,115);stroke-linecap:round;fill:none;" />
<path d="M1619.633,840.767 A670.000,670.000 40.000 0,1 1688.452,857.049 L1710.954,780.279 A750.000,750.000 0.000 0,0 1633.918,762.053 Z" style="stroke-width:2.0;stroke:rgb(115,115,115);stroke-linecap:round;fill:rgb(153,204,255);" />
<text x="1713.7" y="703.2" font-size="65.0px" font-family="CMUBright-Roman" style="text-anchor:start;fill:rgb(0,0,0);" transform="rotate(283.3,1713.7,703.2)" >8-IFG</text>
<path d="M1619.633,840.767 A670.000,670.000 40.000 0,1 1688.452,857.049 L1710.954,780.279 A750.000,750.000 0.000 0,0 1633.918,762.053 Z" style="stroke-width:2.0;stroke:rgb(115,115,115);stroke-linecap:round;fill:none;" />
<path d="M1735.421,872.723 A670.000,670.000 40.000 0,1 1800.227,901.031 L1836.075,829.512 A750.000,750.000 0.000 0,0 1763.531,797.824 Z" style="stroke-width:2.0;stroke:rgb(115,115,115);stroke-linecap:round;fill:rgb(153,204,255);" />
<text x="1852.1" y="753.9" font-size="65.0px" font-family="CMUBright-Roman" style="text-anchor:start;fill:rgb(0,0,0);" transform="rotate(293.6,1852.1,753.9)" >10-IPL</text>
<path d="M1735.421,872.723 A670.000,670.000 40.000 0,1 1800.227,901.031 L1836.075,829.512 A750.000,750.000 0.000 0,0 1763.531,797.824 Z" style="stroke-width:2.0;stroke:rgb(115,115,115);stroke-linecap:round;fill:none;" />
<path d="M1843.643,924.839 A670.000,670.000 40.000 0,1 1902.352,964.264 L1950.394,900.296 A750.000,750.000 0.000 0,0 1884.674,856.163 Z" style="stroke-width:2.0;stroke:rgb(115,115,115);stroke-linecap:round;fill:rgb(153,204,255);" />
<text x="1980.1" y="829.1" font-size="65.0px" font-family="CMUBright-Roman" style="text-anchor:start;fill:rgb(0,0,0);" transform="rotate(303.9,1980.1,829.1)" >19-MTG</text>
<path d="M1843.643,924.839 A670.000,670.000 40.000 0,1 1902.352,964.264 L1950.394,900.296 A750.000,750.000 0.000 0,0 1884.674,856.163 Z" style="stroke-width:2.0;stroke:rgb(115,115,115);stroke-linecap:round;fill:none;" />
<path d="M1940.819,995.442 A670.000,670.000 40.000 0,1 1991.546,1044.717 L2050.238,990.354 A750.000,750.000 0.000 0,0 1993.454,935.196 Z" style="stroke-width:2.0;stroke:rgb(115,115,115);stroke-linecap:round;fill:rgb(153,204,255);" />
<text x="2091.8" y="925.2" font-size="65.0px" font-family="CMUBright-Roman" style="text-anchor:start;fill:rgb(0,0,0);" transform="rotate(314.2,2091.8,925.2)" >23-PP</text>
<path d="M1940.819,995.442 A670.000,670.000 40.000 0,1 1991.546,1044.717 L2050.238,990.354 A750.000,750.000 0.000 0,0 1993.454,935.196 Z" style="stroke-width:2.0;stroke:rgb(115,115,115);stroke-linecap:round;fill:none;" />
<path d="M2023.827,1082.262 A670.000,670.000 40.000 0,1 2064.940,1139.802 L2132.396,1096.793 A750.000,750.000 0.000 0,0 2086.374,1032.383 Z" style="stroke-width:2.0;stroke:rgb(115,115,115);stroke-linecap:round;fill:rgb(153,204,255);" />
<text x="2184.6" y="1039.7" font-size="65.0px" font-family="CMUBright-Roman" style="text-anchor:start;fill:rgb(0,0,0);" transform="rotate(324.5,2184.6,1039.7)" >24-PP</text>
<path d="M2023.827,1082.262 A670.000,670.000 40.000 0,1 2064.940,1139.802 L2132.396,1096.793 A750.000,750.000 0.000 0,0 2086.374,1032.383 Z" style="stroke-width:2.0;stroke:rgb(115,115,115);stroke-linecap:round;fill:none;" />
<path d="M2089.999,1182.508 A670.000,670.000 40.000 0,1 2120.177,1246.465 L2194.228,1216.192 A750.000,750.000 0.000 0,0 2160.447,1144.599 Z" style="stroke-width:2.0;stroke:rgb(115,115,115);stroke-linecap:round;fill:rgb(153,204,255);" />
<text x="2256.2" y="1170.3" font-size="65.0px" font-family="CMUBright-Roman" style="text-anchor:start;fill:rgb(0,0,0);" transform="rotate(334.7,2256.2,1170.3)" >26-PC</text>
<path d="M2089.999,1182.508 A670.000,670.000 40.000 0,1 2120.177,1246.465 L2194.228,1216.192 A750.000,750.000 0.000 0,0 2160.447,1144.599 Z" style="stroke-width:2.0;stroke:rgb(115,115,115);stroke-linecap:round;fill:none;" />
<path d="M2137.208,1292.959 A670.000,670.000 40.000 0,1 2155.481,1361.276 L2233.748,1344.712 A750.000,750.000 0.000 0,0 2213.292,1268.237 Z" style="stroke-width:2.0;stroke:rgb(115,115,115);stroke-linecap:round;fill:rgb(153,204,255);" />
<text x="2303.0" y="1310.6" font-size="65.0px" font-family="CMUBright-Roman" style="text-anchor:start;fill:rgb(0,0,0);" transform="rotate(345.0,2303.0,1310.6)" >35-SG</text>
<path d="M2137.208,1292.959 A670.000,670.000 40.000 0,1 2155.481,1361.276 L2233.748,1344.712 A750.000,750.000 0.000 0,0 2213.292,1268.237 Z" style="stroke-width:2.0;stroke:rgb(115,115,115);stroke-linecap:round;fill:none;" />
<path d="M2163.936,1410.064 A670.000,670.000 40.000 0,1 2169.718,1480.546 L2249.684,1478.223 A750.000,750.000 0.000 0,0 2243.212,1399.325 Z" style="stroke-width:2.0;stroke:rgb(115,115,115);stroke-linecap:round;fill:rgb(116,196,118);" />
<text x="2323.9" y="1457.0" font-size="65.0px" font-family="CMUBright-Roman" style="text-anchor:start;fill:rgb(0,0,0);" transform="rotate(355.3,2323.9,1457.0)" >4-FOC</text>
<path d="M2163.936,1410.064 A670.000,670.000 40.000 0,1 2169.718,1480.546 L2249.684,1478.223 A750.000,750.000 0.000 0,0 2243.212,1399.325 Z" style="stroke-width:2.0;stroke:rgb(115,115,115);stroke-linecap:round;fill:none;" />
<path d="M2169.325,1530.059 A670.000,670.000 40.000 0,1 2162.429,1600.441 L2241.524,1612.434 A750.000,750.000 0.000 0,0 2249.245,1533.649 Z" style="stroke-width:2.0;stroke:rgb(115,115,115);stroke-linecap:round;fill:rgb(116,196,118);" />
<text x="2318.3" y="1604.8" font-size="65.0px" font-family="CMUBright-Roman" style="text-anchor:start;fill:rgb(0,0,0);" transform="rotate(5.6,2318.3,1604.8)" >6-IFG</text>
<path d="M2169.325,1530.059 A670.000,670.000 40.000 0,1 2162.429,1600.441 L2241.524,1612.434 A750.000,750.000 0.000 0,0 2249.245,1533.649 Z" style="stroke-width:2.0;stroke:rgb(115,115,115);stroke-linecap:round;fill:none;" />
<path d="M2153.202,1649.089 A670.000,670.000 40.000 0,1 2133.849,1717.108 L2209.532,1743.032 A750.000,750.000 0.000 0,0 2231.196,1666.891 Z" style="stroke-width:2.0;stroke:rgb(115,115,115);stroke-linecap:round;fill:rgb(116,196,118);" />
<text x="2286.5" y="1749.2" font-size="65.0px" font-family="CMUBright-Roman" style="text-anchor:start;fill:rgb(0,0,0);" transform="rotate(15.9,2286.5,1749.2)" >11-ITG</text>
<path d="M2153.202,1649.089 A670.000,670.000 40.000 0,1 2133.849,1717.108 L2209.532,1743.032 A750.000,750.000 0.000 0,0 2231.196,1666.891 Z" style="stroke-width:2.0;stroke:rgb(115,115,115);stroke-linecap:round;fill:none;" />
<path d="M2116.084,1763.327 A670.000,670.000 40.000 0,1 2084.896,1826.797 L2154.734,1865.818 A750.000,750.000 0.000 0,0 2189.646,1794.769 Z" style="stroke-width:2.0;stroke:rgb(115,115,115);stroke-linecap:round;fill:rgb(116,196,118);" />
<text x="2229.8" y="1884.8" font-size="65.0px" font-family="CMUBright-Roman" style="text-anchor:start;fill:rgb(0,0,0);" transform="rotate(26.2,2229.8,1884.8)" >14-LIX</text>
<path d="M2116.084,1763.327 A670.000,670.000 40.000 0,1 2084.896,1826.797 L2154.734,1865.818 A750.000,750.000 0.000 0,0 2189.646,1794.769 Z" style="stroke-width:2.0;stroke:rgb(115,115,115);stroke-linecap:round;fill:none;" />
<path d="M2059.164,1869.101 A670.000,670.000 40.000 0,1 2017.145,1925.983 L2078.893,1976.846 A750.000,750.000 0.000 0,0 2125.930,1913.173 Z" style="stroke-width:2.0;stroke:rgb(115,115,115);stroke-linecap:round;fill:rgb(116,196,118);" />
<text x="2148.7" y="2009.7" font-size="65.0px" font-family="CMUBright-Roman" style="text-anchor:start;fill:rgb(0,0,0);" transform="rotate(36.5,2148.7,2009.7)" >18-MTG</text>
<path d="M2059.164,1869.101 A670.000,670.000 40.000 0,1 2017.145,1925.983 L2078.893,1976.846 A750.000,750.000 0.000 0,0 2125.930,1913.173 Z" style="stroke-width:2.0;stroke:rgb(115,115,115);stroke-linecap:round;fill:none;" />
<path d="M1984.273,1963.012 A670.000,670.000 40.000 0,1 1932.772,2011.477 L1984.446,2072.549 A750.000,750.000 0.000 0,0 2042.096,2018.297 Z" style="stroke-width:2.0;stroke:rgb(115,115,115);stroke-linecap:round;fill:rgb(116,196,118);" />
<text x="2047.3" y="2117.3" font-size="65.0px" font-family="CMUBright-Roman" style="text-anchor:start;fill:rgb(0,0,0);" transform="rotate(46.7,2047.3,2117.3)" >22-ParG</text>
<path d="M1984.273,1963.012 A670.000,670.000 40.000 0,1 1932.772,2011.477 L1984.446,2072.549 A750.000,750.000 0.000 0,0 2042.096,2018.297 Z" style="stroke-width:2.0;stroke:rgb(115,115,115);stroke-linecap:round;fill:none;" />
<path d="M1893.816,2042.041 A670.000,670.000 40.000 0,1 1834.489,2080.532 L1874.428,2149.849 A750.000,750.000 0.000 0,0 1940.839,2106.763 Z" style="stroke-width:2.0;stroke:rgb(115,115,115);stroke-linecap:round;fill:rgb(153,0,204);" />
<text x="1928.3" y="2205.1" font-size="65.0px" font-family="CMUBright-Roman" style="text-anchor:start;fill:rgb(0,0,0);" transform="rotate(57.0,1928.3,2205.1)" >1-AG</text>
<path d="M1893.816,2042.041 A670.000,670.000 40.000 0,1 1834.489,2080.532 L1874.428,2149.849 A750.000,750.000 0.000 0,0 1940.839,2106.763 Z" style="stroke-width:2.0;stroke:rgb(115,115,115);stroke-linecap:round;fill:none;" />
<path d="M1790.702,2103.649 A670.000,670.000 40.000 0,1 1725.456,2130.928 L1752.376,2206.262 A750.000,750.000 0.000 0,0 1825.413,2175.727 Z" style="stroke-width:2.0;stroke:rgb(115,115,115);stroke-linecap:round;fill:rgb(153,0,204);" />
<text x="1795.5" y="2270.3" font-size="65.0px" font-family="CMUBright-Roman" style="text-anchor:start;fill:rgb(0,0,0);" transform="rotate(67.3,1795.5,2270.3)" >7-IFG</text>
<path d="M1790.702,2103.649 A670.000,670.000 40.000 0,1 1725.456,2130.928 L1752.376,2206.262 A750.000,750.000 0.000 0,0 1825.413,2175.727 Z" style="stroke-width:2.0;stroke:rgb(115,115,115);stroke-linecap:round;fill:none;" />
<path d="M1678.245,2145.855 A670.000,670.000 40.000 0,1 1609.176,2161.045 L1622.212,2239.976 A750.000,750.000 0.000 0,0 1699.528,2222.972 Z" style="stroke-width:2.0;stroke:rgb(115,115,115);stroke-linecap:round;fill:rgb(153,0,204);" />
<text x="1653.7" y="2310.6" font-size="65.0px" font-family="CMUBright-Roman" style="text-anchor:start;fill:rgb(0,0,0);" transform="rotate(77.6,1653.7,2310.6)" >9-IPL</text>
<path d="M1678.245,2145.855 A670.000,670.000 40.000 0,1 1609.176,2161.045 L1622.212,2239.976 A750.000,750.000 0.000 0,0 1699.528,2222.972 Z" style="stroke-width:2.0;stroke:rgb(115,115,115);stroke-linecap:round;fill:none;" />
<path d="M1560.058,2167.303 A670.000,670.000 40.000 0,1 1489.388,2169.916 L1488.121,2249.906 A750.000,750.000 0.000 0,0 1567.229,2246.981 Z" style="stroke-width:2.0;stroke:rgb(115,115,115);stroke-linecap:round;fill:rgb(153,0,204);" />
<text x="1506.0" y="2325.0" font-size="65.0px" font-family="CMUBright-Roman" style="text-anchor:start;fill:rgb(0,0,0);" transform="rotate(87.9,1506.0,2325.0)" >13-LCI</text>
<path d="M1560.058,2167.303 A670.000,670.000 40.000 0,1 1489.388,2169.916 L1488.121,2249.906 A750.000,750.000 0.000 0,0 1567.229,2246.981 Z" style="stroke-width:2.0;stroke:rgb(115,115,115);stroke-linecap:round;fill:none;" />
<path d="M1439.942,2167.303 A670.000,670.000 40.000 0,1 1369.940,2157.255 L1354.411,2235.733 A750.000,750.000 0.000 0,0 1432.771,2246.981 Z" style="stroke-width:2.0;stroke:rgb(115,115,115);stroke-linecap:round;fill:rgb(153,0,204);" />
<text x="1407.1" y="2319.8" font-size="65.0px" font-family="CMUBright-Roman" style="text-anchor:end;fill:rgb(0,0,0);" transform="rotate(-81.8,1407.1,2319.8)" >27-RCI</text>
<path d="M1439.942,2167.303 A670.000,670.000 40.000 0,1 1369.940,2157.255 L1354.411,2235.733 A750.000,750.000 0.000 0,0 1432.771,2246.981 Z" style="stroke-width:2.0;stroke:rgb(115,115,115);stroke-linecap:round;fill:none;" />
<path d="M1321.755,2145.855 A670.000,670.000 40.000 0,1 1254.673,2123.470 L1225.380,2197.914 A750.000,750.000 0.000 0,0 1300.472,2222.972 Z" style="stroke-width:2.0;stroke:rgb(115,115,115);stroke-linecap:round;fill:rgb(153,0,204);" />
<text x="1262.2" y="2290.0" font-size="65.0px" font-family="CMUBright-Roman" style="text-anchor:end;fill:rgb(0,0,0);" transform="rotate(-71.5,1262.2,2290.0)" >28-RCI</text>
<path d="M1321.755,2145.855 A670.000,670.000 40.000 0,1 1254.673,2123.470 L1225.380,2197.914 A750.000,750.000 0.000 0,0 1300.472,2222.972 Z" style="stroke-width:2.0;stroke:rgb(115,115,115);stroke-linecap:round;fill:none;" />
<path d="M1209.298,2103.649 A670.000,670.000 40.000 0,1 1147.290,2069.645 L1105.176,2137.663 A750.000,750.000 0.000 0,0 1174.587,2175.727 Z" style="stroke-width:2.0;stroke:rgb(115,115,115);stroke-linecap:round;fill:rgb(153,0,204);" />
<text x="1125.0" y="2234.8" font-size="65.0px" font-family="CMUBright-Roman" style="text-anchor:end;fill:rgb(0,0,0);" transform="rotate(-61.3,1125.0,2234.8)" >29-RCI</text>
<path d="M1209.298,2103.649 A670.000,670.000 40.000 0,1 1147.290,2069.645 L1105.176,2137.663 A750.000,750.000 0.000 0,0 1174.587,2175.727 Z" style="stroke-width:2.0;stroke:rgb(115,115,115);stroke-linecap:round;fill:none;" />
<path d="M1106.184,2042.041 A670.000,670.000 40.000 0,1 1051.245,1997.512 L997.662,2056.917 A750.000,750.000 0.000 0,0 1059.161,2106.763 Z" style="stroke-width:2.0;stroke:rgb(115,115,115);stroke-linecap:round;fill:rgb(253,208,162);" />
<text x="999.8" y="2156.1" font-size="65.0px" font-family="CMUBright-Roman" style="text-anchor:end;fill:rgb(0,0,0);" transform="rotate(-51.0,999.8,2156.1)" >12-LOC</text>
<path d="M1106.184,2042.041 A670.000,670.000 40.000 0,1 1051.245,1997.512 L997.662,2056.917 A750.000,750.000 0.000 0,0 1059.161,2106.763 Z" style="stroke-width:2.0;stroke:rgb(115,115,115);stroke-linecap:round;fill:none;" />
<path d="M1015.727,1963.012 A670.000,670.000 40.000 0,1 969.622,1909.389 L906.293,1958.271 A750.000,750.000 0.000 0,0 957.904,2018.297 Z" style="stroke-width:2.0;stroke:rgb(115,115,115);stroke-linecap:round;fill:rgb(253,208,162);" />
<text x="890.7" y="2056.2" font-size="65.0px" font-family="CMUBright-Roman" style="text-anchor:end;fill:rgb(0,0,0);" transform="rotate(-40.7,890.7,2056.2)" >16-LG</text>
<path d="M1015.727,1963.012 A670.000,670.000 40.000 0,1 969.622,1909.389 L906.293,1958.271 A750.000,750.000 0.000 0,0 957.904,2018.297 Z" style="stroke-width:2.0;stroke:rgb(115,115,115);stroke-linecap:round;fill:none;" />
<path d="M940.836,1869.101 A670.000,670.000 40.000 0,1 905.046,1808.107 L834.007,1844.896 A750.000,750.000 0.000 0,0 874.070,1913.173 Z" style="stroke-width:2.0;stroke:rgb(115,115,115);stroke-linecap:round;fill:rgb(253,208,162);" />
<text x="801.2" y="1938.5" font-size="65.0px" font-family="CMUBright-Roman" style="text-anchor:end;fill:rgb(0,0,0);" transform="rotate(-30.4,801.2,1938.5)" >17-MFG</text>
<path d="M940.836,1869.101 A670.000,670.000 40.000 0,1 905.046,1808.107 L834.007,1844.896 A750.000,750.000 0.000 0,0 874.070,1913.173 Z" style="stroke-width:2.0;stroke:rgb(115,115,115);stroke-linecap:round;fill:none;" />
<path d="M883.916,1763.327 A670.000,670.000 40.000 0,1 859.593,1696.922 L783.126,1720.436 A750.000,750.000 0.000 0,0 810.354,1794.769 Z" style="stroke-width:2.0;stroke:rgb(115,115,115);stroke-linecap:round;fill:rgb(253,208,162);" />
<text x="734.1" y="1806.6" font-size="65.0px" font-family="CMUBright-Roman" style="text-anchor:end;fill:rgb(0,0,0);" transform="rotate(-20.1,734.1,1806.6)" >20-OFG</text>
<path d="M883.916,1763.327 A670.000,670.000 40.000 0,1 859.593,1696.922 L783.126,1720.436 A750.000,750.000 0.000 0,0 810.354,1794.769 Z" style="stroke-width:2.0;stroke:rgb(115,115,115);stroke-linecap:round;fill:none;" />
<path d="M846.798,1649.089 A670.000,670.000 40.000 0,1 834.722,1579.409 L755.286,1588.890 A750.000,750.000 0.000 0,0 768.804,1666.891 Z" style="stroke-width:2.0;stroke:rgb(115,115,115);stroke-linecap:round;fill:rgb(253,208,162);" />
<text x="691.7" y="1665.0" font-size="65.0px" font-family="CMUBright-Roman" style="text-anchor:end;fill:rgb(0,0,0);" transform="rotate(-9.8,691.7,1665.0)" >21-OP</text>
<path d="M846.798,1649.089 A670.000,670.000 40.000 0,1 834.722,1579.409 L755.286,1588.890 A750.000,750.000 0.000 0,0 768.804,1666.891 Z" style="stroke-width:2.0;stroke:rgb(115,115,115);stroke-linecap:round;fill:none;" />
<path d="M830.675,1530.059 A670.000,670.000 40.000 0,1 831.235,1459.343 L751.382,1454.488 A750.000,750.000 0.000 0,0 750.755,1533.649 Z" style="stroke-width:2.0;stroke:rgb(115,115,115);stroke-linecap:round;fill:rgb(253,208,162);" />
<text x="675.2" y="1518.0" font-size="65.0px" font-family="CMUBright-Roman" style="text-anchor:end;fill:rgb(0,0,0);" transform="rotate(0.5,675.2,1518.0)" >25-PosG</text>
<path d="M830.675,1530.059 A670.000,670.000 40.000 0,1 831.235,1459.343 L751.382,1454.488 A750.000,750.000 0.000 0,0 750.755,1533.649 Z" style="stroke-width:2.0;stroke:rgb(115,115,115);stroke-linecap:round;fill:none;" />
<path d="M836.064,1410.064 A670.000,670.000 40.000 0,1 849.242,1340.583 L771.539,1321.549 A750.000,750.000 0.000 0,0 756.788,1399.325 Z" style="stroke-width:2.0;stroke:rgb(115,115,115);stroke-linecap:round;fill:rgb(253,208,162);" />
<text x="685.2" y="1370.4" font-size="65.0px" font-family="CMUBright-Roman" style="text-anchor:end;fill:rgb(0,0,0);" transform="rotate(10.7,685.2,1370.4)" >34-SG</text>
<path d="M836.064,1410.064 A670.000,670.000 40.000 0,1 849.242,1340.583 L771.539,1321.549 A750.000,750.000 0.000 0,0 756.788,1399.325 Z" style="stroke-width:2.0;stroke:rgb(115,115,115);stroke-linecap:round;fill:none;" />
<path d="M862.792,1292.959 A670.000,670.000 40.000 0,1 888.165,1226.948 L815.110,1194.345 A750.000,750.000 0.000 0,0 786.708,1268.237 Z" style="stroke-width:2.0;stroke:rgb(115,115,115);stroke-linecap:round;fill:rgb(253,141,60);" />
<text x="721.5" y="1227.0" font-size="65.0px" font-family="CMUBright-Roman" style="text-anchor:end;fill:rgb(0,0,0);" transform="rotate(21.0,721.5,1227.0)" >2-COC</text>
<path d="M862.792,1292.959 A670.000,670.000 40.000 0,1 888.165,1226.948 L815.110,1194.345 A750.000,750.000 0.000 0,0 786.708,1268.237 Z" style="stroke-width:2.0;stroke:rgb(115,115,115);stroke-linecap:round;fill:none;" />
<path d="M910.001,1182.508 A670.000,670.000 40.000 0,1 946.752,1122.089 L880.693,1076.965 A750.000,750.000 0.000 0,0 839.553,1144.599 Z" style="stroke-width:2.0;stroke:rgb(115,115,115);stroke-linecap:round;fill:rgb(253,141,60);" />
<text x="782.7" y="1092.4" font-size="65.0px" font-family="CMUBright-Roman" style="text-anchor:end;fill:rgb(0,0,0);" transform="rotate(31.3,782.7,1092.4)" >3-COC</text>
<path d="M910.001,1182.508 A670.000,670.000 40.000 0,1 946.752,1122.089 L880.693,1076.965 A750.000,750.000 0.000 0,0 839.553,1144.599 Z" style="stroke-width:2.0;stroke:rgb(115,115,115);stroke-linecap:round;fill:none;" />
<path d="M976.173,1082.262 A670.000,670.000 40.000 0,1 1023.122,1029.376 L966.181,973.182 A750.000,750.000 0.000 0,0 913.626,1032.383 Z" style="stroke-width:2.0;stroke:rgb(115,115,115);stroke-linecap:round;fill:rgb(253,141,60);" />
<text x="867.4" y="970.5" font-size="65.0px" font-family="CMUBright-Roman" style="text-anchor:end;fill:rgb(0,0,0);" transform="rotate(41.6,867.4,970.5)" >15-LVIIIb</text>
<path d="M976.173,1082.262 A670.000,670.000 40.000 0,1 1023.122,1029.376 L966.181,973.182 A750.000,750.000 0.000 0,0 913.626,1032.383 Z" style="stroke-width:2.0;stroke:rgb(115,115,115);stroke-linecap:round;fill:none;" />
<path d="M1059.181,995.442 A670.000,670.000 40.000 0,1 1114.819,951.789 L1068.827,886.331 A750.000,750.000 0.000 0,0 1006.546,935.196 Z" style="stroke-width:2.0;stroke:rgb(115,115,115);stroke-linecap:round;fill:rgb(253,141,60);" />
<text x="972.1" y="866.0" font-size="65.0px" font-family="CMUBright-Roman" style="text-anchor:end;fill:rgb(0,0,0);" transform="rotate(51.9,972.1,866.0)" >30-RH</text>
<path d="M1059.181,995.442 A670.000,670.000 40.000 0,1 1114.819,951.789 L1068.827,886.331 A750.000,750.000 0.000 0,0 1006.546,935.196 Z" style="stroke-width:2.0;stroke:rgb(115,115,115);stroke-linecap:round;fill:none;" />
<path d="M1156.357,924.839 A670.000,670.000 40.000 0,1 1218.896,891.822 L1185.331,819.204 A750.000,750.000 0.000 0,0 1115.326,856.163 Z" style="stroke-width:2.0;stroke:rgb(115,115,115);stroke-linecap:round;fill:rgb(253,141,60);" />
<text x="1093.3" y="782.2" font-size="65.0px" font-family="CMUBright-Roman" style="text-anchor:end;fill:rgb(0,0,0);" transform="rotate(62.2,1093.3,782.2)" >33-SC</text>
<path d="M1156.357,924.839 A670.000,670.000 40.000 0,1 1218.896,891.822 L1185.331,819.204 A750.000,750.000 0.000 0,0 1115.326,856.163 Z" style="stroke-width:2.0;stroke:rgb(115,115,115);stroke-linecap:round;fill:none;" />
<path d="M1264.579,872.723 A670.000,670.000 40.000 0,1 1332.008,851.403 L1311.949,773.958 A750.000,750.000 0.000 0,0 1236.469,797.824 Z" style="stroke-width:2.0;stroke:rgb(115,115,115);stroke-linecap:round;fill:rgb(66,146,198);" />
<text x="1228.5" y="721.0" font-size="65.0px" font-family="CMUBright-Roman" style="text-anchor:end;fill:rgb(0,0,0);" transform="rotate(72.5,1228.5,721.0)" >31-RLV</text>
<path d="M1264.579,872.723 A670.000,670.000 40.000 0,1 1332.008,851.403 L1311.949,773.958 A750.000,750.000 0.000 0,0 1236.469,797.824 Z" style="stroke-width:2.0;stroke:rgb(115,115,115);stroke-linecap:round;fill:none;" />
<path d="M1380.367,840.767 A670.000,670.000 40.000 0,1 1450.519,831.830 L1444.611,752.048 A750.000,750.000 0.000 0,0 1366.082,762.053 Z" style="stroke-width:2.0;stroke:rgb(115,115,115);stroke-linecap:round;fill:rgb(66,146,198);" />
<text x="1372.0" y="685.0" font-size="65.0px" font-family="CMUBright-Roman" style="text-anchor:end;fill:rgb(0,0,0);" transform="rotate(82.7,1372.0,685.0)" >32-RLV</text>
<path d="M1380.367,840.767 A670.000,670.000 40.000 0,1 1450.519,831.830 L1444.611,752.048 A750.000,750.000 0.000 0,0 1366.082,762.053 Z" style="stroke-width:2.0;stroke:rgb(115,115,115);stroke-linecap:round;fill:none;" />
</g>
<g id="track_1">
<path d="M 1846.4,2034.0 L 1832.7,2012.3 1819.4,1990.2 1806.8,1967.9 1794.9,1945.5 1783.8,1922.9 1773.6,1900.3 1764.4,1877.8 1756.2,1855.4 1749.2,1833.3 1743.4,1811.3 1738.9,1789.7 1735.6,1768.5 1733.8,1747.7 1733.2,1727.3 1734.2,1707.5 1736.5,1688.3 1740.3,1669.6 1745.6,1651.6 1752.3,1634.3 1760.5,1617.7 1770.1,1601.7 1781.1,1586.6 1793.6,1572.2 1807.4,1558.6 1822.5,1545.7 1838.9,1533.7 1856.5,1522.5 1875.3,1512.1 1895.2,1502.5 1916.1,1493.7 1937.9,1485.7 1960.6,1478.4 1984.1,1472.0 2008.2,1466.2 2032.8,1461.3 2057.9,1457.0 2083.2,1453.3 2108.8,1450.4 2134.4,1448.0  " style="stroke-opacity: 1.000000; stroke-width: 5.0; stroke: rgb(251,106,74); fill: none"  />
<path d="M 1846.4,2034.0 L 1830.9,2009.6 1815.7,1984.6 1800.9,1959.2 1786.6,1933.3 1772.7,1906.9 1759.4,1880.1 1746.6,1852.9 1734.5,1825.2 1723.0,1797.3 1712.2,1768.9 1702.2,1740.3 1692.9,1711.4 1684.5,1682.2 1676.8,1652.8 1669.9,1623.1 1663.9,1593.3 1658.8,1563.3 1654.5,1533.1 1651.2,1502.9 1648.7,1472.5 1647.1,1442.1 1646.4,1411.7 1646.5,1381.3 1647.6,1350.8 1649.5,1320.5 1652.3,1290.2 1655.9,1260.0 1660.3,1229.9 1665.6,1200.1 1671.6,1170.4 1678.3,1140.9 1685.8,1111.7 1694.0,1082.7 1702.7,1054.1 1712.1,1025.8 1722.1,997.9 1732.5,970.4 1743.5,943.3 1754.8,916.7  " style="stroke-opacity: 1.000000; stroke-width: 5.0; stroke: rgb(251,106,74); fill: none"  />
<path d="M 1846.4,2034.0 L 1832.2,2011.5 1818.5,1988.5 1805.4,1965.2 1793.0,1941.4 1781.4,1917.4 1770.6,1893.2 1760.7,1868.8 1751.9,1844.2 1744.1,1819.6 1737.5,1794.9 1732.0,1770.3 1727.8,1745.7 1724.8,1721.2 1723.1,1696.9 1722.7,1672.8 1723.7,1648.9 1726.0,1625.3 1729.7,1602.0 1734.8,1579.0 1741.2,1556.4 1749.0,1534.2 1758.1,1512.5 1768.6,1491.1 1780.3,1470.3 1793.3,1450.0 1807.6,1430.2 1823.0,1411.0 1839.5,1392.3 1857.2,1374.3 1875.8,1356.8 1895.4,1340.0 1915.8,1323.7 1937.0,1308.1 1959.0,1293.2 1981.5,1278.9 2004.5,1265.3 2028.0,1252.3 2051.7,1240.0 2075.6,1228.4  " style="stroke-opacity: 1.000000; stroke-width: 5.0; stroke: rgb(251,106,74); fill: none"  />
<path d="M 1846.4,2034.0 L 1830.1,2009.3 1813.3,1984.6 1795.9,1960.1 1778.0,1935.7 1759.4,1911.5 1740.4,1887.4 1720.8,1863.7 1700.6,1840.3 1679.9,1817.2 1658.6,1794.4 1636.8,1772.1 1614.5,1750.2 1591.6,1728.8 1568.3,1707.9 1544.4,1687.4 1520.0,1667.6 1495.2,1648.2 1469.9,1629.5 1444.2,1611.3 1418.1,1593.8 1391.5,1576.8 1364.6,1560.5 1337.3,1544.9 1309.7,1529.8 1281.8,1515.5 1253.5,1501.8 1225.1,1488.7 1196.4,1476.3 1167.4,1464.6 1138.4,1453.5 1109.1,1443.1 1079.8,1433.3 1050.4,1424.1 1021.0,1415.5 991.5,1407.6 962.2,1400.2 932.8,1393.4 903.7,1387.1 874.6,1381.4  " style="stroke-opacity: 1.000000; stroke-width: 5.0; stroke: rgb(251,106,74); fill: none"  />
<path d="M 2134.4,1448.0 L 2108.8,1450.4 2083.2,1453.3 2057.9,1457.0 2032.8,1461.3 2008.2,1466.2 1984.1,1472.0 1960.6,1478.4 1937.9,1485.7 1916.1,1493.7 1895.2,1502.5 1875.3,1512.1 1856.5,1522.5 1838.9,1533.7 1822.5,1545.7 1807.4,1558.6 1793.6,1572.2 1781.1,1586.6 1770.1,1601.7 1760.5,1617.7 1752.3,1634.3 1745.6,1651.6 1740.3,1669.6 1736.5,1688.3 1734.2,1707.5 1733.2,1727.3 1733.8,1747.7 1735.6,1768.5 1738.9,1789.7 1743.4,1811.3 1749.2,1833.3 1756.2,1855.4 1764.4,1877.8 1773.6,1900.3 1783.8,1922.9 1794.9,1945.5 1806.8,1967.9 1819.4,1990.2 1832.7,2012.3 1846.4,2034.0  " style="stroke-opacity: 1.000000; stroke-width: 5.0; stroke: rgb(251,106,74); fill: none"  />
<path d="M 1533.6,864.4 L 1531.9,896.6 1530.3,929.0 1528.7,961.3 1527.2,993.7 1525.8,1026.2 1524.4,1058.7 1523.1,1091.2 1521.9,1123.8 1520.8,1156.4 1519.7,1189.0 1518.7,1221.7 1517.8,1254.4 1516.9,1287.1 1516.2,1319.9 1515.5,1352.6 1514.9,1385.4 1514.4,1418.1 1514.0,1450.9 1513.6,1483.7 1513.3,1516.5 1513.2,1549.3 1513.1,1582.1 1513.1,1614.9 1513.1,1647.6 1513.3,1680.4 1513.6,1713.1 1513.9,1745.8 1514.3,1778.6 1514.8,1811.2 1515.3,1843.9 1516.0,1876.5 1516.7,1909.1 1517.4,1941.6 1518.3,1974.2 1519.2,2006.6 1520.2,2039.1 1521.2,2071.5 1522.4,2103.8 1523.5,2136.1  " style="stroke-opacity: 1.000000; stroke-width: 5.0; stroke: rgb(251,106,74); fill: none"  />
<path d="M 1533.6,864.4 L 1531.8,896.0 1529.9,927.7 1527.8,959.5 1525.4,991.4 1522.9,1023.4 1520.2,1055.5 1517.2,1087.7 1514.0,1119.9 1510.6,1152.2 1506.9,1184.5 1503.0,1216.9 1498.9,1249.3 1494.5,1281.8 1489.9,1314.2 1485.0,1346.7 1479.9,1379.1 1474.5,1411.5 1468.9,1443.9 1463.0,1476.2 1456.9,1508.6 1450.5,1540.8 1443.9,1573.0 1437.0,1605.1 1429.9,1637.2 1422.5,1669.2 1415.0,1701.1 1407.2,1732.8 1399.2,1764.5 1390.9,1796.1 1382.5,1827.5 1373.9,1858.8 1365.0,1890.0 1356.0,1921.0 1346.8,1951.9 1337.4,1982.6 1327.9,2013.2 1318.3,2043.5 1308.4,2073.8 1298.5,2103.8  " style="stroke-opacity: 1.000000; stroke-width: 5.0; stroke: rgb(251,106,74); fill: none"  />
<path d="M 2133.5,1562.1 L 2107.9,1559.9 2082.2,1558.2 2056.6,1557.3 2031.2,1557.0 2006.0,1557.5 1981.3,1558.9 1957.1,1561.0 1933.5,1564.1 1910.5,1568.1 1888.4,1573.0 1867.1,1578.9 1846.8,1585.8 1827.4,1593.7 1809.1,1602.6 1792.0,1612.5 1775.9,1623.4 1761.1,1635.4 1747.6,1648.3 1735.3,1662.3 1724.2,1677.2 1714.5,1693.0 1706.2,1709.8 1699.1,1727.5 1693.3,1746.0 1688.9,1765.3 1685.8,1785.4 1683.9,1806.2 1683.3,1827.7 1683.9,1849.8 1685.7,1872.4 1688.7,1895.5 1692.7,1919.0 1697.7,1942.7 1703.7,1966.8 1710.6,1990.9 1718.3,2015.2 1726.8,2039.4 1735.9,2063.4 1745.5,2087.2  " style="stroke-opacity: 1.000000; stroke-width: 5.0; stroke: rgb(251,106,74); fill: none"  />
<path d="M 1745.5,2087.2 L 1735.9,2063.4 1726.8,2039.4 1718.3,2015.2 1710.6,1990.9 1703.7,1966.8 1697.7,1942.7 1692.7,1919.0 1688.7,1895.5 1685.7,1872.4 1683.9,1849.8 1683.3,1827.7 1683.9,1806.2 1685.8,1785.4 1688.9,1765.3 1693.3,1746.0 1699.1,1727.5 1706.2,1709.8 1714.5,1693.0 1724.2,1677.2 1735.3,1662.3 1747.6,1648.3 1761.1,1635.4 1775.9,1623.4 1792.0,1612.5 1809.1,1602.6 1827.4,1593.7 1846.8,1585.8 1867.1,1578.9 1888.4,1573.0 1910.5,1568.1 1933.5,1564.1 1957.1,1561.0 1981.3,1558.9 2006.0,1557.5 2031.2,1557.0 2056.6,1557.3 2082.2,1558.2 2107.9,1559.9 2133.5,1562.1  " style="stroke-opacity: 1.000000; stroke-width: 5.0; stroke: rgb(251,106,74); fill: none"  />
<path d="M 1745.5,2087.2 L 1735.3,2063.7 1724.6,2040.3 1713.3,2017.3 1701.5,1994.8 1689.1,1972.9 1676.2,1951.7 1662.9,1931.4 1649.0,1912.1 1634.6,1893.8 1619.8,1876.6 1604.5,1860.7 1588.8,1846.0 1572.7,1832.7 1556.2,1820.8 1539.3,1810.4 1522.1,1801.5 1504.5,1794.1 1486.7,1788.3 1468.6,1784.1 1450.2,1781.4 1431.7,1780.4 1412.9,1781.0 1394.0,1783.1 1375.0,1786.8 1355.9,1792.1 1336.7,1798.8 1317.5,1807.1 1298.3,1816.7 1279.1,1827.7 1260.1,1840.0 1241.1,1853.5 1222.4,1868.2 1203.8,1883.9 1185.5,1900.6 1167.5,1918.1 1149.8,1936.4 1132.5,1955.3 1115.6,1974.7 1099.2,1994.5  " style="stroke-opacity: 1.000000; stroke-width: 5.0; stroke: rgb(251,106,74); fill: none"  />
<path d="M 1646.5,880.6 L 1639.6,908.7 1632.1,936.9 1623.9,965.2 1615.1,993.5 1605.7,1021.7 1595.5,1049.9 1584.6,1077.9 1573.0,1105.8 1560.7,1133.4 1547.7,1160.7 1534.0,1187.8 1519.5,1214.5 1504.2,1240.8 1488.3,1266.7 1471.6,1292.1 1454.1,1317.0 1436.0,1341.5 1417.1,1365.4 1397.6,1388.7 1377.4,1411.5 1356.5,1433.7 1335.0,1455.2 1312.9,1476.1 1290.2,1496.4 1266.9,1516.0 1243.1,1534.9 1218.8,1553.2 1194.0,1570.7 1168.8,1587.6 1143.2,1603.8 1117.2,1619.3 1090.9,1634.1 1064.4,1648.2 1037.6,1661.6 1010.7,1674.4 983.6,1686.5 956.5,1697.9 929.4,1708.7 902.3,1718.9  " style="stroke-opacity: 1.000000; stroke-width: 5.0; stroke: rgb(251,106,74); fill: none"  />
<path d="M 1636.7,2121.6 L 1631.0,2097.0 1624.8,2072.5 1618.1,2048.2 1610.8,2024.5 1603.0,2001.3 1594.7,1978.8 1585.8,1957.2 1576.4,1936.5 1566.4,1916.9 1555.9,1898.4 1544.8,1881.1 1533.2,1865.2 1521.1,1850.6 1508.5,1837.5 1495.4,1825.8 1481.8,1815.7 1467.7,1807.2 1453.2,1800.3 1438.3,1795.0 1423.0,1791.4 1407.2,1789.4 1391.2,1789.1 1374.8,1790.4 1358.1,1793.4 1341.2,1797.9 1324.0,1804.0 1306.7,1811.6 1289.1,1820.7 1271.5,1831.1 1253.8,1842.9 1236.1,1856.0 1218.4,1870.3 1200.8,1885.6 1183.2,1902.0 1165.9,1919.2 1148.8,1937.2 1131.9,1955.8 1115.4,1975.0 1099.2,1994.5  " style="stroke-opacity: 1.000000; stroke-width: 5.0; stroke: rgb(251,106,74); fill: none"  />
<path d="M 1636.7,2121.6 L 1630.8,2096.2 1624.2,2070.8 1617.0,2045.7 1609.1,2020.8 1600.5,1996.4 1591.1,1972.5 1581.0,1949.3 1570.2,1926.8 1558.6,1905.2 1546.3,1884.5 1533.2,1864.7 1519.4,1846.0 1504.8,1828.5 1489.5,1812.1 1473.5,1797.0 1456.8,1783.1 1439.4,1770.5 1421.3,1759.3 1402.6,1749.5 1383.2,1741.0 1363.2,1733.9 1342.7,1728.3 1321.7,1724.1 1300.1,1721.2 1278.1,1719.8 1255.7,1719.7 1232.9,1720.9 1209.8,1723.5 1186.5,1727.3 1162.9,1732.3 1139.1,1738.6 1115.3,1745.9 1091.4,1754.3 1067.5,1763.6 1043.8,1773.9 1020.2,1784.9 996.8,1796.7 973.7,1809.2 951.0,1822.1  " style="stroke-opacity: 1.000000; stroke-width: 5.0; stroke: rgb(251,106,74); fill: none"  />
<path d="M 1636.7,2121.6 L 1631.6,2097.2 1626.8,2072.7 1622.7,2048.3 1619.1,2024.3 1616.2,2000.6 1614.0,1977.5 1612.5,1955.0 1611.8,1933.2 1612.0,1912.3 1613.1,1892.4 1615.1,1873.5 1618.0,1855.7 1621.9,1839.1 1626.7,1823.7 1632.6,1809.6 1639.4,1796.9 1647.2,1785.6 1656.0,1775.7 1665.8,1767.3 1676.5,1760.3 1688.2,1754.8 1700.8,1750.8 1714.3,1748.3 1728.7,1747.2 1744.0,1747.6 1760.0,1749.5 1776.7,1752.7 1794.2,1757.3 1812.2,1763.2 1830.9,1770.4 1850.0,1778.7 1869.6,1788.2 1889.6,1798.7 1909.8,1810.1 1930.2,1822.4 1950.7,1835.5 1971.3,1849.2 1991.7,1863.5 2012.0,1878.2  " style="stroke-opacity: 1.000000; stroke-width: 5.0; stroke: rgb(251,106,74); fill: none"  />
<path d="M 1754.8,916.7 L 1743.5,943.3 1732.5,970.4 1722.1,997.9 1712.1,1025.8 1702.7,1054.1 1694.0,1082.7 1685.8,1111.7 1678.3,1140.9 1671.6,1170.4 1665.6,1200.1 1660.3,1229.9 1655.9,1260.0 1652.3,1290.2 1649.5,1320.5 1647.6,1350.8 1646.5,1381.3 1646.4,1411.7 1647.1,1442.1 1648.7,1472.5 1651.2,1502.9 1654.5,1533.1 1658.8,1563.3 1663.9,1593.3 1669.9,1623.1 1676.8,1652.8 1684.5,1682.2 1692.9,1711.4 1702.2,1740.3 1712.2,1768.9 1723.0,1797.3 1734.5,1825.2 1746.6,1852.9 1759.4,1880.1 1772.7,1906.9 1786.6,1933.3 1800.9,1959.2 1815.7,1984.6 1830.9,2009.6 1846.4,2034.0  " style="stroke-opacity: 1.000000; stroke-width: 5.0; stroke: rgb(251,106,74); fill: none"  />
<path d="M 1099.2,1994.5 L 1115.6,1974.7 1132.5,1955.3 1149.8,1936.4 1167.5,1918.1 1185.5,1900.6 1203.8,1883.9 1222.4,1868.2 1241.1,1853.5 1260.1,1840.0 1279.1,1827.7 1298.3,1816.7 1317.5,1807.1 1336.7,1798.8 1355.9,1792.1 1375.0,1786.8 1394.0,1783.1 1412.9,1781.0 1431.7,1780.4 1450.2,1781.4 1468.6,1784.1 1486.7,1788.3 1504.5,1794.1 1522.1,1801.5 1539.3,1810.4 1556.2,1820.8 1572.7,1832.7 1588.8,1846.0 1604.5,1860.7 1619.8,1876.6 1634.6,1893.8 1649.0,1912.1 1662.9,1931.4 1676.2,1951.7 1689.1,1972.9 1701.5,1994.8 1713.3,2017.3 1724.6,2040.3 1735.3,2063.7 1745.5,2087.2  " style="stroke-opacity: 1.000000; stroke-width: 5.0; stroke: rgb(251,106,74); fill: none"  />
<path d="M 1099.2,1994.5 L 1115.4,1975.0 1131.9,1955.8 1148.8,1937.2 1165.9,1919.2 1183.2,1902.0 1200.8,1885.6 1218.4,1870.3 1236.1,1856.0 1253.8,1842.9 1271.5,1831.1 1289.1,1820.7 1306.7,1811.6 1324.0,1804.0 1341.2,1797.9 1358.1,1793.4 1374.8,1790.4 1391.2,1789.1 1407.2,1789.4 1423.0,1791.4 1438.3,1795.0 1453.2,1800.3 1467.7,1807.2 1481.8,1815.7 1495.4,1825.8 1508.5,1837.5 1521.1,1850.6 1533.2,1865.2 1544.8,1881.1 1555.9,1898.4 1566.4,1916.9 1576.4,1936.5 1585.8,1957.2 1594.7,1978.8 1603.0,2001.3 1610.8,2024.5 1618.1,2048.2 1624.8,2072.5 1631.0,2097.0 1636.7,2121.6  " style="stroke-opacity: 1.000000; stroke-width: 5.0; stroke: rgb(251,106,74); fill: none"  />
<path d="M 1099.2,1994.5 L 1114.9,1975.3 1130.9,1956.5 1146.9,1938.2 1162.9,1920.5 1179.0,1903.5 1194.9,1887.3 1210.6,1872.2 1226.0,1858.1 1241.2,1845.2 1256.0,1833.5 1270.4,1823.2 1284.3,1814.3 1297.7,1806.9 1310.6,1801.0 1322.9,1796.7 1334.5,1794.0 1345.6,1792.9 1355.9,1793.5 1365.5,1795.7 1374.4,1799.6 1382.6,1805.1 1390.1,1812.3 1396.7,1821.2 1402.7,1831.6 1407.8,1843.5 1412.3,1857.0 1415.9,1871.8 1418.9,1888.1 1421.1,1905.7 1422.6,1924.4 1423.4,1944.3 1423.6,1965.2 1423.2,1987.1 1422.2,2009.7 1420.6,2033.0 1418.5,2056.8 1415.9,2081.0 1412.9,2105.5 1409.6,2130.0  " style="stroke-opacity: 1.000000; stroke-width: 5.0; stroke: rgb(251,106,74); fill: none"  />
<path d="M 1099.2,1994.5 L 1114.8,1975.4 1130.5,1956.7 1146.1,1938.4 1161.7,1920.6 1177.0,1903.5 1192.2,1887.3 1206.9,1871.9 1221.3,1857.6 1235.2,1844.5 1248.6,1832.5 1261.4,1821.8 1273.5,1812.5 1285.0,1804.7 1295.7,1798.3 1305.7,1793.4 1314.9,1790.1 1323.2,1788.4 1330.7,1788.3 1337.3,1789.8 1343.1,1792.9 1347.9,1797.7 1351.9,1804.1 1354.9,1812.0 1357.1,1821.6 1358.3,1832.6 1358.7,1845.1 1358.2,1859.0 1356.9,1874.2 1354.8,1890.7 1351.9,1908.4 1348.3,1927.3 1343.9,1947.1 1339.0,1967.8 1333.4,1989.3 1327.3,2011.4 1320.6,2034.1 1313.6,2057.1 1306.2,2080.4 1298.5,2103.8  " style="stroke-opacity: 1.000000; stroke-width: 5.0; stroke: rgb(251,106,74); fill: none"  />
<path d="M 1099.2,1994.5 L 1114.7,1975.5 1130.1,1956.7 1145.4,1938.3 1160.5,1920.4 1175.3,1903.1 1189.7,1886.6 1203.6,1870.9 1217.0,1856.2 1229.7,1842.5 1241.7,1830.0 1253.0,1818.7 1263.5,1808.6 1273.1,1800.0 1281.8,1792.7 1289.6,1786.9 1296.4,1782.5 1302.3,1779.7 1307.1,1778.5 1310.8,1778.7 1313.6,1780.6 1315.3,1784.0 1315.9,1788.9 1315.5,1795.3 1314.1,1803.3 1311.6,1812.7 1308.2,1823.5 1303.8,1835.7 1298.5,1849.2 1292.3,1863.9 1285.2,1879.8 1277.4,1896.7 1268.8,1914.7 1259.6,1933.5 1249.7,1953.1 1239.3,1973.3 1228.4,1994.1 1217.2,2015.2 1205.7,2036.6 1194.0,2058.1  " style="stroke-opacity: 1.000000; stroke-width: 5.0; stroke: rgb(251,106,74); fill: none"  />
<path d="M 1523.5,2136.1 L 1522.4,2103.8 1521.2,2071.5 1520.2,2039.1 1519.2,2006.6 1518.3,1974.2 1517.4,1941.6 1516.7,1909.1 1516.0,1876.5 1515.3,1843.9 1514.8,1811.2 1514.3,1778.6 1513.9,1745.8 1513.6,1713.1 1513.3,1680.4 1513.1,1647.6 1513.1,1614.9 1513.1,1582.1 1513.2,1549.3 1513.3,1516.5 1513.6,1483.7 1514.0,1450.9 1514.4,1418.1 1514.9,1385.4 1515.5,1352.6 1516.2,1319.9 1516.9,1287.1 1517.8,1254.4 1518.7,1221.7 1519.7,1189.0 1520.8,1156.4 1521.9,1123.8 1523.1,1091.2 1524.4,1058.7 1525.8,1026.2 1527.2,993.7 1528.7,961.3 1530.3,929.0 1531.9,896.6 1533.6,864.4  " style="stroke-opacity: 1.000000; stroke-width: 5.0; stroke: rgb(251,106,74); fill: none"  />
<path d="M 1523.5,2136.1 L 1522.3,2110.8 1520.6,2085.5 1518.3,2060.5 1515.4,2035.8 1511.9,2011.6 1507.7,1988.1 1502.8,1965.2 1497.2,1943.2 1490.9,1922.1 1483.8,1902.0 1476.0,1883.0 1467.5,1865.2 1458.2,1848.7 1448.1,1833.6 1437.3,1819.8 1425.7,1807.4 1413.4,1796.5 1400.4,1787.1 1386.6,1779.3 1372.2,1773.0 1357.1,1768.2 1341.3,1765.0 1325.0,1763.4 1308.0,1763.3 1290.5,1764.7 1272.6,1767.7 1254.1,1772.1 1235.3,1777.9 1216.1,1785.0 1196.6,1793.5 1176.8,1803.2 1156.8,1814.1 1136.7,1826.0 1116.6,1839.0 1096.4,1852.8 1076.3,1867.5 1056.4,1882.8 1036.7,1898.7 1017.4,1915.0  " style="stroke-opacity: 1.000000; stroke-width: 5.0; stroke: rgb(251,106,74); fill: none"  />
<path d="M 1523.5,2136.1 L 1522.2,2109.0 1520.2,2081.7 1517.4,2054.4 1513.9,2027.2 1509.6,2000.0 1504.5,1973.1 1498.4,1946.4 1491.5,1920.1 1483.6,1894.2 1474.8,1868.8 1465.1,1843.9 1454.4,1819.6 1442.7,1796.0 1430.0,1773.1 1416.4,1750.9 1401.8,1729.6 1386.2,1709.0 1369.6,1689.3 1352.2,1670.6 1333.8,1652.7 1314.5,1635.8 1294.4,1619.8 1273.4,1604.9 1251.6,1590.9 1229.1,1577.9 1205.8,1565.9 1181.8,1554.9 1157.3,1544.9 1132.1,1535.9 1106.4,1527.8 1080.3,1520.7 1053.8,1514.5 1027.0,1509.3 999.9,1504.9 972.6,1501.4 945.3,1498.7 917.9,1496.7 890.6,1495.5 863.5,1495.0  " style="stroke-opacity: 1.000000; stroke-width: 5.0; stroke: rgb(251,106,74); fill: none"  />
<path d="M 1017.4,1915.0 L 1036.7,1898.7 1056.4,1882.8 1076.3,1867.5 1096.4,1852.8 1116.6,1839.0 1136.7,1826.0 1156.8,1814.1 1176.8,1803.2 1196.6,1793.5 1216.1,1785.0 1235.3,1777.9 1254.1,1772.1 1272.6,1767.7 1290.5,1764.7 1308.0,1763.3 1325.0,1763.4 1341.3,1765.0 1357.1,1768.2 1372.2,1773.0 1386.6,1779.3 1400.4,1787.1 1413.4,1796.5 1425.7,1807.4 1437.3,1819.8 1448.1,1833.6 1458.2,1848.7 1467.5,1865.2 1476.0,1883.0 1483.8,1902.0 1490.9,1922.1 1497.2,1943.2 1502.8,1965.2 1507.7,1988.1 1511.9,2011.6 1515.4,2035.8 1518.3,2060.5 1520.6,2085.5 1522.3,2110.8 1523.5,2136.1  " style="stroke-opacity: 1.000000; stroke-width: 5.0; stroke: rgb(251,106,74); fill: none"  />
<path d="M 951.0,1822.1 L 973.7,1809.2 996.8,1796.7 1020.2,1784.9 1043.8,1773.9 1067.5,1763.6 1091.4,1754.3 1115.3,1745.9 1139.1,1738.6 1162.9,1732.3 1186.5,1727.3 1209.8,1723.5 1232.9,1720.9 1255.7,1719.7 1278.1,1719.8 1300.1,1721.2 1321.7,1724.1 1342.7,1728.3 1363.2,1733.9 1383.2,1741.0 1402.6,1749.5 1421.3,1759.3 1439.4,1770.5 1456.8,1783.1 1473.5,1797.0 1489.5,1812.1 1504.8,1828.5 1519.4,1846.0 1533.2,1864.7 1546.3,1884.5 1558.6,1905.2 1570.2,1926.8 1581.0,1949.3 1591.1,1972.5 1600.5,1996.4 1609.1,2020.8 1617.0,2045.7 1624.2,2070.8 1630.8,2096.2 1636.7,2121.6  " style="stroke-opacity: 1.000000; stroke-width: 5.0; stroke: rgb(251,106,74); fill: none"  />
<path d="M 2012.0,1878.2 L 1991.7,1863.5 1971.3,1849.2 1950.7,1835.5 1930.2,1822.4 1909.8,1810.1 1889.6,1798.7 1869.6,1788.2 1850.0,1778.7 1830.9,1770.4 1812.2,1763.2 1794.2,1757.3 1776.7,1752.7 1760.0,1749.5 1744.0,1747.6 1728.7,1747.2 1714.3,1748.3 1700.8,1750.8 1688.2,1754.8 1676.5,1760.3 1665.8,1767.3 1656.0,1775.7 1647.2,1785.6 1639.4,1796.9 1632.6,1809.6 1626.7,1823.7 1621.9,1839.1 1618.0,1855.7 1615.1,1873.5 1613.1,1892.4 1612.0,1912.3 1611.8,1933.2 1612.5,1955.0 1614.0,1977.5 1616.2,2000.6 1619.1,2024.3 1622.7,2048.3 1626.8,2072.7 1631.6,2097.2 1636.7,2121.6  " style="stroke-opacity: 1.000000; stroke-width: 5.0; stroke: rgb(251,106,74); fill: none"  />
<path d="M 902.3,1718.9 L 929.4,1708.7 956.5,1697.9 983.6,1686.5 1010.7,1674.4 1037.6,1661.6 1064.4,1648.2 1090.9,1634.1 1117.2,1619.3 1143.2,1603.8 1168.8,1587.6 1194.0,1570.7 1218.8,1553.2 1243.1,1534.9 1266.9,1516.0 1290.2,1496.4 1312.9,1476.1 1335.0,1455.2 1356.5,1433.7 1377.4,1411.5 1397.6,1388.7 1417.1,1365.4 1436.0,1341.5 1454.1,1317.0 1471.6,1292.1 1488.3,1266.7 1504.2,1240.8 1519.5,1214.5 1534.0,1187.8 1547.7,1160.7 1560.7,1133.4 1573.0,1105.8 1584.6,1077.9 1595.5,1049.9 1605.7,1021.7 1615.1,993.5 1623.9,965.2 1632.1,936.9 1639.6,908.7 1646.5,880.6  " style="stroke-opacity: 1.000000; stroke-width: 5.0; stroke: rgb(251,106,74); fill: none"  />
<path d="M 872.8,1608.7 L 904.7,1603.1 936.5,1597.5 968.4,1591.9 1000.4,1586.1 1032.3,1580.3 1064.3,1574.4 1096.3,1568.4 1128.4,1562.3 1160.4,1556.2 1192.5,1550.0 1224.5,1543.7 1256.6,1537.3 1288.7,1530.9 1320.8,1524.3 1352.9,1517.7 1384.9,1511.0 1417.0,1504.2 1449.1,1497.3 1481.1,1490.4 1513.1,1483.3 1545.1,1476.2 1577.1,1469.0 1609.1,1461.7 1641.0,1454.3 1672.9,1446.9 1704.8,1439.4 1736.6,1431.8 1768.4,1424.1 1800.1,1416.4 1831.9,1408.5 1863.5,1400.7 1895.1,1392.7 1926.7,1384.7 1958.2,1376.7 1989.7,1368.5 2021.1,1360.4 2052.4,1352.1 2083.7,1343.9 2114.9,1335.5  " style="stroke-opacity: 1.000000; stroke-width: 5.0; stroke: rgb(251,106,74); fill: none"  />
<path d="M 863.5,1495.0 L 890.6,1495.5 917.9,1496.7 945.3,1498.7 972.6,1501.4 999.9,1504.9 1027.0,1509.3 1053.8,1514.5 1080.3,1520.7 1106.4,1527.8 1132.1,1535.9 1157.3,1544.9 1181.8,1554.9 1205.8,1565.9 1229.1,1577.9 1251.6,1590.9 1273.4,1604.9 1294.4,1619.8 1314.5,1635.8 1333.8,1652.7 1352.2,1670.6 1369.6,1689.3 1386.2,1709.0 1401.8,1729.6 1416.4,1750.9 1430.0,1773.1 1442.7,1796.0 1454.4,1819.6 1465.1,1843.9 1474.8,1868.8 1483.6,1894.2 1491.5,1920.1 1498.4,1946.4 1504.5,1973.1 1509.6,2000.0 1513.9,2027.2 1517.4,2054.4 1520.2,2081.7 1522.2,2109.0 1523.5,2136.1  " style="stroke-opacity: 1.000000; stroke-width: 5.0; stroke: rgb(251,106,74); fill: none"  />
<path d="M 863.5,1495.0 L 889.6,1495.5 915.8,1496.6 941.9,1498.5 967.9,1501.1 993.5,1504.5 1018.8,1508.7 1043.6,1513.8 1067.9,1519.7 1091.4,1526.5 1114.3,1534.3 1136.3,1543.0 1157.4,1552.7 1177.6,1563.3 1196.8,1574.9 1215.0,1587.4 1232.0,1600.9 1247.9,1615.3 1262.6,1630.7 1276.1,1647.0 1288.4,1664.2 1299.4,1682.2 1309.2,1701.1 1317.7,1720.8 1325.0,1741.3 1330.9,1762.6 1335.7,1784.5 1339.2,1807.0 1341.5,1830.1 1342.5,1853.8 1342.5,1877.9 1341.3,1902.4 1339.1,1927.3 1335.8,1952.4 1331.6,1977.7 1326.5,2003.1 1320.6,2028.4 1313.9,2053.8 1306.5,2078.9 1298.5,2103.8  " style="stroke-opacity: 1.000000; stroke-width: 5.0; stroke: rgb(251,106,74); fill: none"  />
<path d="M 2075.6,1228.4 L 2051.7,1240.0 2028.0,1252.3 2004.5,1265.3 1981.5,1278.9 1959.0,1293.2 1937.0,1308.1 1915.8,1323.7 1895.4,1340.0 1875.8,1356.8 1857.2,1374.3 1839.5,1392.3 1823.0,1411.0 1807.6,1430.2 1793.3,1450.0 1780.3,1470.3 1768.6,1491.1 1758.1,1512.5 1749.0,1534.2 1741.2,1556.4 1734.8,1579.0 1729.7,1602.0 1726.0,1625.3 1723.7,1648.9 1722.7,1672.8 1723.1,1696.9 1724.8,1721.2 1727.8,1745.7 1732.0,1770.3 1737.5,1794.9 1744.1,1819.6 1751.9,1844.2 1760.7,1868.8 1770.6,1893.2 1781.4,1917.4 1793.0,1941.4 1805.4,1965.2 1818.5,1988.5 1832.2,2011.5 1846.4,2034.0  " style="stroke-opacity: 1.000000; stroke-width: 5.0; stroke: rgb(251,106,74); fill: none"  />
<path d="M 1409.6,2130.0 L 1412.9,2105.5 1415.9,2081.0 1418.5,2056.8 1420.6,2033.0 1422.2,2009.7 1423.2,1987.1 1423.6,1965.2 1423.4,1944.3 1422.6,1924.4 1421.1,1905.7 1418.9,1888.1 1415.9,1871.8 1412.3,1857.0 1407.8,1843.5 1402.7,1831.6 1396.7,1821.2 1390.1,1812.3 1382.6,1805.1 1374.4,1799.6 1365.5,1795.7 1355.9,1793.5 1345.6,1792.9 1334.5,1794.0 1322.9,1796.7 1310.6,1801.0 1297.7,1806.9 1284.3,1814.3 1270.4,1823.2 1256.0,1833.5 1241.2,1845.2 1226.0,1858.1 1210.6,1872.2 1194.9,1887.3 1179.0,1903.5 1162.9,1920.5 1146.9,1938.2 1130.9,1956.5 1114.9,1975.3 1099.2,1994.5  " style="stroke-opacity: 1.000000; stroke-width: 5.0; stroke: rgb(251,106,74); fill: none"  />
<path d="M 1298.5,2103.8 L 1308.4,2073.8 1318.3,2043.5 1327.9,2013.2 1337.4,1982.6 1346.8,1951.9 1356.0,1921.0 1365.0,1890.0 1373.9,1858.8 1382.5,1827.5 1390.9,1796.1 1399.2,1764.5 1407.2,1732.8 1415.0,1701.1 1422.5,1669.2 1429.9,1637.2 1437.0,1605.1 1443.9,1573.0 1450.5,1540.8 1456.9,1508.6 1463.0,1476.2 1468.9,1443.9 1474.5,1411.5 1479.9,1379.1 1485.0,1346.7 1489.9,1314.2 1494.5,1281.8 1498.9,1249.3 1503.0,1216.9 1506.9,1184.5 1510.6,1152.2 1514.0,1119.9 1517.2,1087.7 1520.2,1055.5 1522.9,1023.4 1525.4,991.4 1527.8,959.5 1529.9,927.7 1531.8,896.0 1533.6,864.4  " style="stroke-opacity: 1.000000; stroke-width: 5.0; stroke: rgb(251,106,74); fill: none"  />
<path d="M 1298.5,2103.8 L 1306.2,2080.4 1313.6,2057.1 1320.6,2034.1 1327.3,2011.4 1333.4,1989.3 1339.0,1967.8 1343.9,1947.1 1348.3,1927.3 1351.9,1908.4 1354.8,1890.7 1356.9,1874.2 1358.2,1859.0 1358.7,1845.1 1358.3,1832.6 1357.1,1821.6 1354.9,1812.0 1351.9,1804.1 1347.9,1797.7 1343.1,1792.9 1337.3,1789.8 1330.7,1788.3 1323.2,1788.4 1314.9,1790.1 1305.7,1793.4 1295.7,1798.3 1285.0,1804.7 1273.5,1812.5 1261.4,1821.8 1248.6,1832.5 1235.2,1844.5 1221.3,1857.6 1206.9,1871.9 1192.2,1887.3 1177.0,1903.5 1161.7,1920.6 1146.1,1938.4 1130.5,1956.7 1114.8,1975.4 1099.2,1994.5  " style="stroke-opacity: 1.000000; stroke-width: 5.0; stroke: rgb(251,106,74); fill: none"  />
<path d="M 1298.5,2103.8 L 1306.5,2078.9 1313.9,2053.8 1320.6,2028.4 1326.5,2003.1 1331.6,1977.7 1335.8,1952.4 1339.1,1927.3 1341.3,1902.4 1342.5,1877.9 1342.5,1853.8 1341.5,1830.1 1339.2,1807.0 1335.7,1784.5 1330.9,1762.6 1325.0,1741.3 1317.7,1720.8 1309.2,1701.1 1299.4,1682.2 1288.4,1664.2 1276.1,1647.0 1262.6,1630.7 1247.9,1615.3 1232.0,1600.9 1215.0,1587.4 1196.8,1574.9 1177.6,1563.3 1157.4,1552.7 1136.3,1543.0 1114.3,1534.3 1091.4,1526.5 1067.9,1519.7 1043.6,1513.8 1018.8,1508.7 993.5,1504.5 967.9,1501.1 941.9,1498.5 915.8,1496.6 889.6,1495.5 863.5,1495.0  " style="stroke-opacity: 1.000000; stroke-width: 5.0; stroke: rgb(251,106,74); fill: none"  />
<path d="M 1194.0,2058.1 L 1205.7,2036.6 1217.2,2015.2 1228.4,1994.1 1239.3,1973.3 1249.7,1953.1 1259.6,1933.5 1268.8,1914.7 1277.4,1896.7 1285.2,1879.8 1292.3,1863.9 1298.5,1849.2 1303.8,1835.7 1308.2,1823.5 1311.6,1812.7 1314.1,1803.3 1315.5,1795.3 1315.9,1788.9 1315.3,1784.0 1313.6,1780.6 1310.8,1778.7 1307.1,1778.5 1302.3,1779.7 1296.4,1782.5 1289.6,1786.9 1281.8,1792.7 1273.1,1800.0 1263.5,1808.6 1253.0,1818.7 1241.7,1830.0 1229.7,1842.5 1217.0,1856.2 1203.6,1870.9 1189.7,1886.6 1175.3,1903.1 1160.5,1920.4 1145.4,1938.3 1130.1,1956.7 1114.7,1975.5 1099.2,1994.5  " style="stroke-opacity: 1.000000; stroke-width: 5.0; stroke: rgb(251,106,74); fill: none"  />
<path d="M 874.6,1381.4 L 903.7,1387.1 932.8,1393.4 962.2,1400.2 991.5,1407.6 1021.0,1415.5 1050.4,1424.1 1079.8,1433.3 1109.1,1443.1 1138.4,1453.5 1167.4,1464.6 1196.4,1476.3 1225.1,1488.7 1253.5,1501.8 1281.8,1515.5 1309.7,1529.8 1337.3,1544.9 1364.6,1560.5 1391.5,1576.8 1418.1,1593.8 1444.2,1611.3 1469.9,1629.5 1495.2,1648.2 1520.0,1667.6 1544.4,1687.4 1568.3,1707.9 1591.6,1728.8 1614.5,1750.2 1636.8,1772.1 1658.6,1794.4 1679.9,1817.2 1700.6,1840.3 1720.8,1863.7 1740.4,1887.4 1759.4,1911.5 1778.0,1935.7 1795.9,1960.1 1813.3,1984.6 1830.1,2009.3 1846.4,2034.0  " style="stroke-opacity: 1.000000; stroke-width: 5.0; stroke: rgb(251,106,74); fill: none"  />
<path d="M 2114.9,1335.5 L 2083.7,1343.9 2052.4,1352.1 2021.1,1360.4 1989.7,1368.5 1958.2,1376.7 1926.7,1384.7 1895.1,1392.7 1863.5,1400.7 1831.9,1408.5 1800.1,1416.4 1768.4,1424.1 1736.6,1431.8 1704.8,1439.4 1672.9,1446.9 1641.0,1454.3 1609.1,1461.7 1577.1,1469.0 1545.1,1476.2 1513.1,1483.3 1481.1,1490.4 1449.1,1497.3 1417.0,1504.2 1384.9,1511.0 1352.9,1517.7 1320.8,1524.3 1288.7,1530.9 1256.6,1537.3 1224.5,1543.7 1192.5,1550.0 1160.4,1556.2 1128.4,1562.3 1096.3,1568.4 1064.3,1574.4 1032.3,1580.3 1000.4,1586.1 968.4,1591.9 936.5,1597.5 904.7,1603.1 872.8,1608.7  " style="stroke-opacity: 1.000000; stroke-width: 5.0; stroke: rgb(251,106,74); fill: none"  />
</g>
<g id="track_0">
<path d="M 1846.4,2034.0 L 1832.9,2013.4 1819.4,1993.1 1805.7,1973.2 1792.1,1953.9 1778.6,1935.3 1765.3,1917.6 1752.2,1900.7 1739.4,1885.0 1727.0,1870.4 1715.0,1857.1 1703.4,1845.2 1692.3,1834.7 1681.7,1825.6 1671.7,1818.1 1662.3,1812.2 1653.5,1808.0 1645.4,1805.4 1637.9,1804.5 1631.2,1805.3 1625.2,1807.9 1619.8,1812.1 1615.3,1818.0 1611.4,1825.6 1608.3,1834.8 1605.8,1845.7 1604.1,1858.0 1603.1,1871.9 1602.8,1887.2 1603.2,1903.9 1604.2,1921.8 1605.8,1940.9 1608.1,1961.0 1610.8,1982.1 1614.1,2004.1 1617.9,2026.8 1622.1,2050.0 1626.6,2073.7 1631.5,2097.6 1636.7,2121.6  " style="stroke-opacity: 1.000000; stroke-width: 5.0; stroke: rgb(107,174,214); fill: none"  />
<path d="M 1533.6,864.4 L 1532.4,888.9 1531.5,913.4 1530.8,937.5 1530.5,961.1 1530.5,984.0 1530.8,1006.2 1531.5,1027.5 1532.6,1047.8 1534.1,1066.9 1536.0,1084.7 1538.4,1101.2 1541.2,1116.2 1544.4,1129.8 1548.1,1141.7 1552.2,1152.0 1556.8,1160.6 1561.9,1167.5 1567.4,1172.6 1573.3,1175.9 1579.7,1177.4 1586.5,1177.1 1593.7,1175.0 1601.3,1171.1 1609.2,1165.5 1617.5,1158.1 1626.2,1149.1 1635.2,1138.5 1644.4,1126.3 1653.9,1112.6 1663.6,1097.5 1673.5,1081.1 1683.6,1063.5 1693.7,1044.8 1704.0,1025.1 1714.3,1004.6 1724.5,983.3 1734.7,961.5 1744.8,939.2 1754.8,916.7  " style="stroke-opacity: 1.000000; stroke-width: 5.0; stroke: rgb(107,174,214); fill: none"  />
<path d="M 1533.6,864.4 L 1532.5,889.1 1531.7,913.8 1531.3,938.1 1531.3,962.0 1531.8,985.4 1532.8,1008.0 1534.4,1029.8 1536.4,1050.6 1539.0,1070.3 1542.2,1088.9 1546.0,1106.2 1550.4,1122.1 1555.4,1136.6 1561.0,1149.6 1567.2,1161.1 1574.0,1170.9 1581.5,1179.1 1589.6,1185.6 1598.2,1190.4 1607.4,1193.4 1617.2,1194.8 1627.6,1194.4 1638.4,1192.4 1649.8,1188.6 1661.6,1183.2 1673.9,1176.2 1686.6,1167.6 1699.7,1157.5 1713.1,1145.9 1726.8,1133.0 1740.8,1118.8 1754.9,1103.4 1769.2,1086.9 1783.6,1069.4 1798.0,1051.0 1812.4,1031.9 1826.7,1012.2 1840.9,992.1 1854.8,971.6  " style="stroke-opacity: 1.000000; stroke-width: 5.0; stroke: rgb(107,174,214); fill: none"  />
<path d="M 1646.5,880.6 L 1641.0,904.4 1635.5,928.1 1630.3,951.5 1625.4,974.4 1620.7,996.7 1616.4,1018.2 1612.5,1038.8 1609.0,1058.3 1606.0,1076.8 1603.4,1093.9 1601.4,1109.8 1599.8,1124.2 1598.8,1137.1 1598.4,1148.5 1598.5,1158.2 1599.3,1166.2 1600.6,1172.5 1602.5,1177.1 1605.1,1179.9 1608.2,1181.0 1611.9,1180.3 1616.2,1177.7 1621.1,1173.5 1626.5,1167.5 1632.4,1159.8 1638.9,1150.5 1645.9,1139.6 1653.3,1127.1 1661.2,1113.2 1669.4,1097.9 1678.1,1081.4 1687.0,1063.6 1696.2,1044.8 1705.7,1025.0 1715.4,1004.4 1725.2,983.2 1735.0,961.3 1744.9,939.1 1754.8,916.7  " style="stroke-opacity: 1.000000; stroke-width: 5.0; stroke: rgb(107,174,214); fill: none"  />
<path d="M 1646.5,880.6 L 1641.0,904.6 1635.7,928.4 1630.8,952.0 1626.2,975.2 1622.1,997.8 1618.5,1019.7 1615.3,1040.7 1612.8,1060.9 1610.9,1079.9 1609.6,1097.8 1609.0,1114.5 1609.0,1129.8 1609.8,1143.7 1611.3,1156.1 1613.5,1166.9 1616.5,1176.2 1620.3,1183.9 1624.8,1189.9 1630.0,1194.2 1636.0,1196.8 1642.8,1197.7 1650.2,1196.9 1658.4,1194.5 1667.2,1190.4 1676.7,1184.6 1686.8,1177.3 1697.5,1168.4 1708.8,1158.1 1720.6,1146.3 1732.8,1133.2 1745.5,1118.8 1758.5,1103.3 1771.9,1086.7 1785.5,1069.2 1799.3,1050.8 1813.2,1031.7 1827.1,1012.0 1841.0,991.9 1854.8,971.6  " style="stroke-opacity: 1.000000; stroke-width: 5.0; stroke: rgb(107,174,214); fill: none"  />
<path d="M 1636.7,2121.6 L 1631.5,2097.6 1626.6,2073.7 1622.1,2050.0 1617.9,2026.8 1614.1,2004.1 1610.8,1982.1 1608.1,1961.0 1605.8,1940.9 1604.2,1921.8 1603.2,1903.9 1602.8,1887.2 1603.1,1871.9 1604.1,1858.0 1605.8,1845.7 1608.3,1834.8 1611.4,1825.6 1615.3,1818.0 1619.8,1812.1 1625.2,1807.9 1631.2,1805.3 1637.9,1804.5 1645.4,1805.4 1653.5,1808.0 1662.3,1812.2 1671.7,1818.1 1681.7,1825.6 1692.3,1834.7 1703.4,1845.2 1715.0,1857.1 1727.0,1870.4 1739.4,1885.0 1752.2,1900.7 1765.3,1917.6 1778.6,1935.3 1792.1,1953.9 1805.7,1973.2 1819.4,1993.1 1832.9,2013.4 1846.4,2034.0  " style="stroke-opacity: 1.000000; stroke-width: 5.0; stroke: rgb(107,174,214); fill: none"  />
<path d="M 1754.8,916.7 L 1744.8,939.2 1734.7,961.5 1724.5,983.3 1714.3,1004.6 1704.0,1025.1 1693.7,1044.8 1683.6,1063.5 1673.5,1081.1 1663.6,1097.5 1653.9,1112.6 1644.4,1126.3 1635.2,1138.5 1626.2,1149.1 1617.5,1158.1 1609.2,1165.5 1601.3,1171.1 1593.7,1175.0 1586.5,1177.1 1579.7,1177.4 1573.3,1175.9 1567.4,1172.6 1561.9,1167.5 1556.8,1160.6 1552.2,1152.0 1548.1,1141.7 1544.4,1129.8 1541.2,1116.2 1538.4,1101.2 1536.0,1084.7 1534.1,1066.9 1532.6,1047.8 1531.5,1027.5 1530.8,1006.2 1530.5,984.0 1530.5,961.1 1530.8,937.5 1531.5,913.4 1532.4,888.9 1533.6,864.4  " style="stroke-opacity: 1.000000; stroke-width: 5.0; stroke: rgb(107,174,214); fill: none"  />
<path d="M 1754.8,916.7 L 1744.9,939.1 1735.0,961.3 1725.2,983.2 1715.4,1004.4 1705.7,1025.0 1696.2,1044.8 1687.0,1063.6 1678.1,1081.4 1669.4,1097.9 1661.2,1113.2 1653.3,1127.1 1645.9,1139.6 1638.9,1150.5 1632.4,1159.8 1626.5,1167.5 1621.1,1173.5 1616.2,1177.7 1611.9,1180.3 1608.2,1181.0 1605.1,1179.9 1602.5,1177.1 1600.6,1172.5 1599.3,1166.2 1598.5,1158.2 1598.4,1148.5 1598.8,1137.1 1599.8,1124.2 1601.4,1109.8 1603.4,1093.9 1606.0,1076.8 1609.0,1058.3 1612.5,1038.8 1616.4,1018.2 1620.7,996.7 1625.4,974.4 1630.3,951.5 1635.5,928.1 1641.0,904.4 1646.5,880.6  " style="stroke-opacity: 1.000000; stroke-width: 5.0; stroke: rgb(107,174,214); fill: none"  />
<path d="M 1754.8,916.7 L 1745.0,939.2 1735.5,961.5 1726.2,983.6 1717.2,1005.2 1708.7,1026.3 1700.6,1046.7 1693.1,1066.3 1686.1,1084.9 1679.9,1102.5 1674.3,1118.9 1669.4,1134.2 1665.3,1148.1 1662.0,1160.6 1659.6,1171.7 1658.0,1181.3 1657.3,1189.3 1657.5,1195.8 1658.5,1200.6 1660.5,1203.9 1663.4,1205.4 1667.2,1205.4 1671.9,1203.7 1677.4,1200.3 1683.8,1195.4 1691.0,1188.9 1699.1,1180.9 1707.9,1171.4 1717.4,1160.5 1727.6,1148.2 1738.5,1134.6 1749.9,1119.9 1761.9,1104.0 1774.4,1087.2 1787.2,1069.4 1800.4,1050.9 1813.8,1031.7 1827.4,1012.0 1841.1,991.9 1854.8,971.6  " style="stroke-opacity: 1.000000; stroke-width: 5.0; stroke: rgb(107,174,214); fill: none"  />
<path d="M 1754.8,916.7 L 1745.0,939.7 1735.6,962.8 1726.8,985.9 1718.6,1008.8 1711.1,1031.5 1704.5,1053.7 1698.7,1075.5 1693.8,1096.7 1690.0,1117.3 1687.1,1137.0 1685.4,1156.0 1684.8,1174.0 1685.4,1191.0 1687.1,1207.0 1690.1,1222.0 1694.4,1235.8 1699.8,1248.4 1706.5,1259.8 1714.5,1270.0 1723.7,1278.9 1734.1,1286.6 1745.7,1293.0 1758.5,1298.1 1772.4,1301.9 1787.4,1304.4 1803.5,1305.7 1820.5,1305.8 1838.5,1304.7 1857.4,1302.4 1877.1,1299.0 1897.5,1294.6 1918.5,1289.1 1940.1,1282.7 1962.2,1275.3 1984.6,1267.2 2007.3,1258.4 2030.1,1248.9 2052.9,1238.9 2075.6,1228.4  " style="stroke-opacity: 1.000000; stroke-width: 5.0; stroke: rgb(107,174,214); fill: none"  />
<path d="M 1099.2,1994.5 L 1114.6,1975.4 1129.8,1956.4 1144.6,1937.6 1159.0,1919.1 1172.8,1901.1 1186.0,1883.6 1198.5,1866.7 1210.1,1850.6 1220.9,1835.3 1230.6,1821.0 1239.4,1807.6 1247.0,1795.3 1253.5,1784.1 1258.8,1774.0 1262.9,1765.2 1265.7,1757.6 1267.3,1751.4 1267.5,1746.4 1266.5,1742.8 1264.1,1740.5 1260.4,1739.5 1255.5,1739.9 1249.3,1741.7 1241.8,1744.7 1233.1,1749.0 1223.2,1754.6 1212.2,1761.5 1200.1,1769.4 1187.0,1778.6 1172.9,1788.7 1157.9,1799.9 1142.2,1812.0 1125.7,1825.0 1108.6,1838.7 1090.9,1853.0 1072.9,1868.0 1054.5,1883.3 1036.0,1899.0 1017.4,1915.0  " style="stroke-opacity: 1.000000; stroke-width: 5.0; stroke: rgb(107,174,214); fill: none"  />
<path d="M 1099.2,1994.5 L 1114.6,1975.3 1129.7,1956.1 1144.4,1937.0 1158.6,1918.1 1172.1,1899.5 1184.9,1881.4 1196.8,1863.7 1207.8,1846.7 1217.8,1830.4 1226.8,1814.8 1234.6,1800.1 1241.1,1786.3 1246.5,1773.4 1250.5,1761.6 1253.2,1750.8 1254.5,1741.2 1254.5,1732.6 1253.0,1725.3 1250.2,1719.1 1245.9,1714.2 1240.2,1710.4 1233.2,1707.9 1224.8,1706.6 1215.0,1706.4 1204.0,1707.5 1191.7,1709.7 1178.2,1713.0 1163.5,1717.5 1147.8,1723.0 1131.1,1729.5 1113.4,1736.9 1094.9,1745.2 1075.7,1754.4 1055.8,1764.3 1035.4,1774.9 1014.6,1786.1 993.5,1797.7 972.3,1809.8 951.0,1822.1  " style="stroke-opacity: 1.000000; stroke-width: 5.0; stroke: rgb(107,174,214); fill: none"  />
<path d="M 1099.2,1994.5 L 1114.7,1975.1 1129.8,1955.7 1144.4,1936.2 1158.4,1916.8 1171.8,1897.6 1184.2,1878.7 1195.8,1860.2 1206.4,1842.2 1215.9,1824.7 1224.2,1807.8 1231.3,1791.6 1237.1,1776.1 1241.6,1761.4 1244.7,1747.6 1246.4,1734.7 1246.6,1722.7 1245.4,1711.7 1242.7,1701.7 1238.6,1692.8 1232.9,1684.9 1225.8,1678.0 1217.2,1672.2 1207.2,1667.5 1195.8,1663.9 1183.0,1661.3 1168.9,1659.7 1153.6,1659.2 1137.1,1659.7 1119.5,1661.2 1100.8,1663.6 1081.2,1666.9 1060.7,1671.0 1039.4,1676.0 1017.5,1681.7 995.0,1688.1 972.1,1695.0 949.0,1702.6 925.6,1710.6 902.3,1718.9  " style="stroke-opacity: 1.000000; stroke-width: 5.0; stroke: rgb(107,174,214); fill: none"  />
<path d="M 1099.2,1994.5 L 1114.8,1974.9 1130.0,1955.1 1144.6,1935.2 1158.6,1915.3 1171.8,1895.5 1184.2,1875.8 1195.6,1856.3 1205.9,1837.2 1215.1,1818.4 1223.0,1800.1 1229.8,1782.3 1235.1,1765.1 1239.1,1748.5 1241.7,1732.6 1242.8,1717.4 1242.4,1703.0 1240.4,1689.4 1237.0,1676.6 1232.1,1664.6 1225.6,1653.6 1217.6,1643.5 1208.1,1634.2 1197.1,1625.9 1184.7,1618.5 1170.9,1612.1 1155.8,1606.5 1139.4,1601.9 1121.7,1598.2 1102.9,1595.4 1083.0,1593.4 1062.2,1592.3 1040.4,1592.0 1017.9,1592.4 994.7,1593.6 970.9,1595.5 946.7,1598.0 922.2,1601.0 897.5,1604.6 872.8,1608.7  " style="stroke-opacity: 1.000000; stroke-width: 5.0; stroke: rgb(107,174,214); fill: none"  />
<path d="M 1099.2,1994.5 L 1115.0,1974.6 1130.3,1954.5 1145.0,1934.2 1159.1,1913.7 1172.3,1893.1 1184.7,1872.6 1196.0,1852.2 1206.3,1831.9 1215.5,1811.8 1223.4,1792.1 1230.0,1772.7 1235.2,1753.7 1239.0,1735.1 1241.5,1717.1 1242.4,1699.5 1241.8,1682.6 1239.7,1666.3 1236.0,1650.7 1230.9,1635.7 1224.1,1621.5 1215.9,1607.9 1206.1,1595.2 1194.9,1583.2 1182.2,1572.0 1168.1,1561.6 1152.6,1551.9 1135.8,1543.1 1117.8,1535.1 1098.7,1527.8 1078.4,1521.4 1057.1,1515.7 1034.9,1510.7 1011.9,1506.5 988.2,1503.0 963.9,1500.2 939.2,1498.0 914.1,1496.4 888.8,1495.4 863.5,1495.0  " style="stroke-opacity: 1.000000; stroke-width: 5.0; stroke: rgb(107,174,214); fill: none"  />
<path d="M 1523.5,2136.1 L 1522.6,2111.6 1521.5,2087.3 1520.3,2063.4 1519.0,2040.0 1517.5,2017.3 1515.9,1995.4 1514.2,1974.6 1512.4,1954.8 1510.4,1936.2 1508.3,1918.9 1506.1,1903.1 1503.8,1888.8 1501.3,1876.1 1498.7,1865.1 1495.9,1855.7 1493.1,1848.2 1490.1,1842.4 1487.0,1838.5 1483.9,1836.5 1480.6,1836.3 1477.2,1838.0 1473.7,1841.6 1470.2,1847.0 1466.5,1854.2 1462.8,1863.2 1459.1,1873.9 1455.3,1886.3 1451.4,1900.2 1447.6,1915.7 1443.6,1932.7 1439.7,1950.9 1435.8,1970.4 1431.9,1991.0 1428.1,2012.6 1424.2,2035.0 1420.4,2058.1 1416.7,2081.8 1413.1,2105.8 1409.6,2130.0  " style="stroke-opacity: 1.000000; stroke-width: 5.0; stroke: rgb(107,174,214); fill: none"  />
<path d="M 1523.5,2136.1 L 1522.5,2111.5 1521.2,2087.1 1519.7,2063.0 1518.0,2039.5 1515.9,2016.6 1513.6,1994.5 1511.0,1973.4 1508.1,1953.3 1504.9,1934.4 1501.4,1916.8 1497.5,1900.6 1493.4,1885.9 1489.0,1872.7 1484.2,1861.2 1479.2,1851.3 1473.8,1843.1 1468.2,1836.7 1462.2,1832.2 1456.0,1829.4 1449.5,1828.5 1442.8,1829.4 1435.8,1832.1 1428.6,1836.6 1421.2,1843.0 1413.6,1851.0 1405.8,1860.8 1397.8,1872.2 1389.7,1885.1 1381.5,1899.6 1373.1,1915.5 1364.7,1932.7 1356.3,1951.2 1347.9,1970.7 1339.4,1991.3 1331.0,2012.7 1322.7,2034.8 1314.5,2057.4 1306.4,2080.5 1298.5,2103.8  " style="stroke-opacity: 1.000000; stroke-width: 5.0; stroke: rgb(107,174,214); fill: none"  />
<path d="M 1017.4,1915.0 L 1036.0,1899.0 1054.5,1883.3 1072.9,1868.0 1090.9,1853.0 1108.6,1838.7 1125.7,1825.0 1142.2,1812.0 1157.9,1799.9 1172.9,1788.7 1187.0,1778.6 1200.1,1769.4 1212.2,1761.5 1223.2,1754.6 1233.1,1749.0 1241.8,1744.7 1249.3,1741.7 1255.5,1739.9 1260.4,1739.5 1264.1,1740.5 1266.5,1742.8 1267.5,1746.4 1267.3,1751.4 1265.7,1757.6 1262.9,1765.2 1258.8,1774.0 1253.5,1784.1 1247.0,1795.3 1239.4,1807.6 1230.6,1821.0 1220.9,1835.3 1210.1,1850.6 1198.5,1866.7 1186.0,1883.6 1172.8,1901.1 1159.0,1919.1 1144.6,1937.6 1129.8,1956.4 1114.6,1975.4 1099.2,1994.5  " style="stroke-opacity: 1.000000; stroke-width: 5.0; stroke: rgb(107,174,214); fill: none"  />
<path d="M 1017.4,1915.0 L 1035.9,1898.8 1054.2,1882.7 1072.1,1866.5 1089.4,1850.4 1106.0,1834.5 1121.8,1819.0 1136.7,1803.7 1150.6,1789.0 1163.4,1774.7 1174.9,1761.0 1185.2,1747.9 1194.2,1735.4 1201.7,1723.8 1207.8,1712.8 1212.4,1702.7 1215.4,1693.5 1216.9,1685.1 1216.8,1677.6 1215.0,1671.0 1211.7,1665.4 1206.8,1660.7 1200.3,1656.9 1192.3,1654.1 1182.7,1652.2 1171.7,1651.3 1159.2,1651.3 1145.3,1652.1 1130.1,1653.9 1113.6,1656.5 1096.0,1659.9 1077.3,1664.1 1057.7,1669.0 1037.1,1674.5 1015.8,1680.8 993.8,1687.5 971.4,1694.8 948.5,1702.5 925.5,1710.6 902.3,1718.9  " style="stroke-opacity: 1.000000; stroke-width: 5.0; stroke: rgb(107,174,214); fill: none"  />
<path d="M 1017.4,1915.0 L 1036.0,1898.7 1054.4,1882.2 1072.3,1865.7 1089.5,1849.1 1106.0,1832.6 1121.7,1816.3 1136.4,1800.1 1150.0,1784.2 1162.5,1768.7 1173.7,1753.6 1183.6,1738.9 1192.0,1724.7 1199.1,1711.1 1204.6,1698.1 1208.6,1685.7 1210.9,1673.9 1211.7,1662.9 1210.8,1652.6 1208.3,1643.0 1204.2,1634.2 1198.4,1626.2 1191.0,1619.0 1182.0,1612.5 1171.4,1606.9 1159.3,1602.1 1145.7,1598.1 1130.8,1594.8 1114.4,1592.4 1096.8,1590.6 1078.0,1589.7 1058.1,1589.4 1037.2,1589.8 1015.4,1590.9 992.8,1592.6 969.5,1594.9 945.8,1597.7 921.6,1600.9 897.3,1604.6 872.8,1608.7  " style="stroke-opacity: 1.000000; stroke-width: 5.0; stroke: rgb(107,174,214); fill: none"  />
<path d="M 1017.4,1915.0 L 1036.4,1898.3 1055.1,1881.2 1073.2,1863.8 1090.7,1846.1 1107.4,1828.3 1123.2,1810.3 1138.0,1792.2 1151.8,1774.1 1164.3,1756.0 1175.6,1738.0 1185.6,1720.1 1194.2,1702.3 1201.3,1684.7 1206.9,1667.4 1210.9,1650.3 1213.3,1633.6 1214.2,1617.2 1213.4,1601.1 1211.0,1585.5 1206.9,1570.2 1201.2,1555.5 1193.8,1541.2 1184.9,1527.4 1174.4,1514.1 1162.4,1501.3 1148.9,1489.1 1134.0,1477.4 1117.7,1466.3 1100.1,1455.7 1081.4,1445.7 1061.4,1436.3 1040.5,1427.5 1018.6,1419.2 995.9,1411.6 972.5,1404.4 948.6,1397.9 924.2,1391.8 899.5,1386.4 874.6,1381.4  " style="stroke-opacity: 1.000000; stroke-width: 5.0; stroke: rgb(107,174,214); fill: none"  />
<path d="M 951.0,1822.1 L 972.3,1809.8 993.5,1797.7 1014.6,1786.1 1035.4,1774.9 1055.8,1764.3 1075.7,1754.4 1094.9,1745.2 1113.4,1736.9 1131.1,1729.5 1147.8,1723.0 1163.5,1717.5 1178.2,1713.0 1191.7,1709.7 1204.0,1707.5 1215.0,1706.4 1224.8,1706.6 1233.2,1707.9 1240.2,1710.4 1245.9,1714.2 1250.2,1719.1 1253.0,1725.3 1254.5,1732.6 1254.5,1741.2 1253.2,1750.8 1250.5,1761.6 1246.5,1773.4 1241.1,1786.3 1234.6,1800.1 1226.8,1814.8 1217.8,1830.4 1207.8,1846.7 1196.8,1863.7 1184.9,1881.4 1172.1,1899.5 1158.6,1918.1 1144.4,1937.0 1129.7,1956.1 1114.6,1975.3 1099.2,1994.5  " style="stroke-opacity: 1.000000; stroke-width: 5.0; stroke: rgb(107,174,214); fill: none"  />
<path d="M 951.0,1822.1 L 972.1,1809.7 993.0,1797.2 1013.5,1784.8 1033.5,1772.6 1052.8,1760.6 1071.3,1748.8 1088.9,1737.4 1105.4,1726.4 1120.8,1715.9 1135.0,1705.9 1147.9,1696.4 1159.4,1687.6 1169.4,1679.3 1177.9,1671.8 1184.8,1665.0 1190.1,1658.9 1193.8,1653.6 1195.8,1649.0 1196.1,1645.2 1194.7,1642.3 1191.6,1640.1 1186.8,1638.7 1180.3,1638.1 1172.3,1638.4 1162.6,1639.4 1151.4,1641.1 1138.7,1643.7 1124.5,1646.9 1109.1,1650.8 1092.3,1655.4 1074.4,1660.6 1055.4,1666.4 1035.4,1672.7 1014.5,1679.5 993.0,1686.8 970.8,1694.4 948.2,1702.4 925.3,1710.6 902.3,1718.9  " style="stroke-opacity: 1.000000; stroke-width: 5.0; stroke: rgb(107,174,214); fill: none"  />
<path d="M 951.0,1822.1 L 972.2,1809.6 993.1,1796.9 1013.5,1784.2 1033.4,1771.5 1052.6,1758.8 1071.0,1746.3 1088.3,1734.0 1104.6,1721.9 1119.7,1710.2 1133.6,1698.7 1146.0,1687.7 1157.1,1677.1 1166.6,1666.9 1174.5,1657.2 1180.8,1648.1 1185.4,1639.5 1188.4,1631.5 1189.6,1624.1 1189.1,1617.4 1186.8,1611.2 1182.9,1605.7 1177.1,1600.9 1169.7,1596.7 1160.7,1593.1 1149.9,1590.2 1137.6,1588.0 1123.8,1586.4 1108.6,1585.4 1091.9,1585.0 1074.0,1585.2 1054.8,1586.0 1034.6,1587.3 1013.4,1589.1 991.3,1591.4 968.5,1594.1 945.1,1597.3 921.2,1600.8 897.1,1604.6 872.8,1608.7  " style="stroke-opacity: 1.000000; stroke-width: 5.0; stroke: rgb(107,174,214); fill: none"  />
<path d="M 951.0,1822.1 L 972.5,1809.3 993.6,1796.1 1014.3,1782.6 1034.4,1768.9 1053.8,1754.9 1072.3,1740.8 1089.8,1726.6 1106.2,1712.3 1121.4,1698.0 1135.3,1683.7 1147.8,1669.4 1158.9,1655.1 1168.4,1641.0 1176.4,1627.0 1182.8,1613.2 1187.5,1599.5 1190.5,1586.1 1191.7,1572.9 1191.3,1560.0 1189.1,1547.4 1185.2,1535.1 1179.5,1523.1 1172.2,1511.5 1163.2,1500.2 1152.5,1489.3 1140.3,1478.8 1126.6,1468.7 1111.3,1459.0 1094.7,1449.8 1076.8,1441.0 1057.7,1432.6 1037.4,1424.6 1016.2,1417.1 994.0,1410.1 971.1,1403.5 947.6,1397.3 923.5,1391.6 899.2,1386.3 874.6,1381.4  " style="stroke-opacity: 1.000000; stroke-width: 5.0; stroke: rgb(107,174,214); fill: none"  />
<path d="M 1854.8,971.6 L 1840.9,992.1 1826.7,1012.2 1812.4,1031.9 1798.0,1051.0 1783.6,1069.4 1769.2,1086.9 1754.9,1103.4 1740.8,1118.8 1726.8,1133.0 1713.1,1145.9 1699.7,1157.5 1686.6,1167.6 1673.9,1176.2 1661.6,1183.2 1649.8,1188.6 1638.4,1192.4 1627.6,1194.4 1617.2,1194.8 1607.4,1193.4 1598.2,1190.4 1589.6,1185.6 1581.5,1179.1 1574.0,1170.9 1567.2,1161.1 1561.0,1149.6 1555.4,1136.6 1550.4,1122.1 1546.0,1106.2 1542.2,1088.9 1539.0,1070.3 1536.4,1050.6 1534.4,1029.8 1532.8,1008.0 1531.8,985.4 1531.3,962.0 1531.3,938.1 1531.7,913.8 1532.5,889.1 1533.6,864.4  " style="stroke-opacity: 1.000000; stroke-width: 5.0; stroke: rgb(107,174,214); fill: none"  />
<path d="M 1854.8,971.6 L 1841.0,991.9 1827.1,1012.0 1813.2,1031.7 1799.3,1050.8 1785.5,1069.2 1771.9,1086.7 1758.5,1103.3 1745.5,1118.8 1732.8,1133.2 1720.6,1146.3 1708.8,1158.1 1697.5,1168.4 1686.8,1177.3 1676.7,1184.6 1667.2,1190.4 1658.4,1194.5 1650.2,1196.9 1642.8,1197.7 1636.0,1196.8 1630.0,1194.2 1624.8,1189.9 1620.3,1183.9 1616.5,1176.2 1613.5,1166.9 1611.3,1156.1 1609.8,1143.7 1609.0,1129.8 1609.0,1114.5 1609.6,1097.8 1610.9,1079.9 1612.8,1060.9 1615.3,1040.7 1618.5,1019.7 1622.1,997.8 1626.2,975.2 1630.8,952.0 1635.7,928.4 1641.0,904.6 1646.5,880.6  " style="stroke-opacity: 1.000000; stroke-width: 5.0; stroke: rgb(107,174,214); fill: none"  />
<path d="M 1854.8,971.6 L 1841.1,991.9 1827.4,1012.0 1813.8,1031.7 1800.4,1050.9 1787.2,1069.4 1774.4,1087.2 1761.9,1104.0 1749.9,1119.9 1738.5,1134.6 1727.6,1148.2 1717.4,1160.5 1707.9,1171.4 1699.1,1180.9 1691.0,1188.9 1683.8,1195.4 1677.4,1200.3 1671.9,1203.7 1667.2,1205.4 1663.4,1205.4 1660.5,1203.9 1658.5,1200.6 1657.5,1195.8 1657.3,1189.3 1658.0,1181.3 1659.6,1171.7 1662.0,1160.6 1665.3,1148.1 1669.4,1134.2 1674.3,1118.9 1679.9,1102.5 1686.1,1084.9 1693.1,1066.3 1700.6,1046.7 1708.7,1026.3 1717.2,1005.2 1726.2,983.6 1735.5,961.5 1745.0,939.2 1754.8,916.7  " style="stroke-opacity: 1.000000; stroke-width: 5.0; stroke: rgb(107,174,214); fill: none"  />
<path d="M 902.3,1718.9 L 925.6,1710.6 949.0,1702.6 972.1,1695.0 995.0,1688.1 1017.5,1681.7 1039.4,1676.0 1060.7,1671.0 1081.2,1666.9 1100.8,1663.6 1119.5,1661.2 1137.1,1659.7 1153.6,1659.2 1168.9,1659.7 1183.0,1661.3 1195.8,1663.9 1207.2,1667.5 1217.2,1672.2 1225.8,1678.0 1232.9,1684.9 1238.6,1692.8 1242.7,1701.7 1245.4,1711.7 1246.6,1722.7 1246.4,1734.7 1244.7,1747.6 1241.6,1761.4 1237.1,1776.1 1231.3,1791.6 1224.2,1807.8 1215.9,1824.7 1206.4,1842.2 1195.8,1860.2 1184.2,1878.7 1171.8,1897.6 1158.4,1916.8 1144.4,1936.2 1129.8,1955.7 1114.7,1975.1 1099.2,1994.5  " style="stroke-opacity: 1.000000; stroke-width: 5.0; stroke: rgb(107,174,214); fill: none"  />
<path d="M 902.3,1718.9 L 925.5,1710.6 948.5,1702.5 971.4,1694.8 993.8,1687.5 1015.8,1680.8 1037.1,1674.5 1057.7,1669.0 1077.3,1664.1 1096.0,1659.9 1113.6,1656.5 1130.1,1653.9 1145.3,1652.1 1159.2,1651.3 1171.7,1651.3 1182.7,1652.2 1192.3,1654.1 1200.3,1656.9 1206.8,1660.7 1211.7,1665.4 1215.0,1671.0 1216.8,1677.6 1216.9,1685.1 1215.4,1693.5 1212.4,1702.7 1207.8,1712.8 1201.7,1723.8 1194.2,1735.4 1185.2,1747.9 1174.9,1761.0 1163.4,1774.7 1150.6,1789.0 1136.7,1803.7 1121.8,1819.0 1106.0,1834.5 1089.4,1850.4 1072.1,1866.5 1054.2,1882.7 1035.9,1898.8 1017.4,1915.0  " style="stroke-opacity: 1.000000; stroke-width: 5.0; stroke: rgb(107,174,214); fill: none"  />
<path d="M 902.3,1718.9 L 925.3,1710.6 948.2,1702.4 970.8,1694.4 993.0,1686.8 1014.5,1679.5 1035.4,1672.7 1055.4,1666.4 1074.4,1660.6 1092.3,1655.4 1109.1,1650.8 1124.5,1646.9 1138.7,1643.7 1151.4,1641.1 1162.6,1639.4 1172.3,1638.4 1180.3,1638.1 1186.8,1638.7 1191.6,1640.1 1194.7,1642.3 1196.1,1645.2 1195.8,1649.0 1193.8,1653.6 1190.1,1658.9 1184.8,1665.0 1177.9,1671.8 1169.4,1679.3 1159.4,1687.6 1147.9,1696.4 1135.0,1705.9 1120.8,1715.9 1105.4,1726.4 1088.9,1737.4 1071.3,1748.8 1052.8,1760.6 1033.5,1772.6 1013.5,1784.8 993.0,1797.2 972.1,1809.7 951.0,1822.1  " style="stroke-opacity: 1.000000; stroke-width: 5.0; stroke: rgb(107,174,214); fill: none"  />
<path d="M 902.3,1718.9 L 925.3,1710.4 948.1,1701.9 970.4,1693.4 992.3,1684.9 1013.4,1676.5 1033.7,1668.3 1053.1,1660.2 1071.3,1652.3 1088.4,1644.7 1104.1,1637.4 1118.5,1630.4 1131.4,1623.7 1142.7,1617.4 1152.4,1611.5 1160.4,1606.1 1166.7,1601.0 1171.3,1596.4 1174.0,1592.3 1175.0,1588.6 1174.2,1585.5 1171.5,1582.8 1167.0,1580.6 1160.8,1578.8 1152.8,1577.6 1143.1,1576.9 1131.8,1576.6 1118.8,1576.8 1104.4,1577.5 1088.4,1578.6 1071.1,1580.1 1052.5,1582.0 1032.8,1584.3 1012.0,1587.0 990.3,1590.0 967.8,1593.3 944.6,1596.8 921.0,1600.6 897.0,1604.6 872.8,1608.7  " style="stroke-opacity: 1.000000; stroke-width: 5.0; stroke: rgb(107,174,214); fill: none"  />
<path d="M 902.3,1718.9 L 925.5,1710.2 948.5,1701.3 971.0,1692.1 993.0,1682.6 1014.3,1673.0 1034.7,1663.2 1054.1,1653.2 1072.5,1643.1 1089.6,1633.0 1105.4,1622.7 1119.8,1612.5 1132.7,1602.2 1144.1,1591.9 1153.8,1581.6 1161.9,1571.4 1168.3,1561.3 1172.9,1551.2 1175.7,1541.2 1176.7,1531.4 1175.9,1521.7 1173.3,1512.2 1168.9,1502.8 1162.7,1493.6 1154.8,1484.6 1145.2,1475.9 1133.9,1467.3 1121.0,1459.0 1106.6,1451.0 1090.7,1443.2 1073.4,1435.7 1054.8,1428.4 1035.1,1421.5 1014.3,1414.8 992.6,1408.5 970.0,1402.4 946.8,1396.7 923.1,1391.3 899.0,1386.2 874.6,1381.4  " style="stroke-opacity: 1.000000; stroke-width: 5.0; stroke: rgb(107,174,214); fill: none"  />
<path d="M 872.8,1608.7 L 897.5,1604.6 922.2,1601.0 946.7,1598.0 970.9,1595.5 994.7,1593.6 1017.9,1592.4 1040.4,1592.0 1062.2,1592.3 1083.0,1593.4 1102.9,1595.4 1121.7,1598.2 1139.4,1601.9 1155.8,1606.5 1170.9,1612.1 1184.7,1618.5 1197.1,1625.9 1208.1,1634.2 1217.6,1643.5 1225.6,1653.6 1232.1,1664.6 1237.0,1676.6 1240.4,1689.4 1242.4,1703.0 1242.8,1717.4 1241.7,1732.6 1239.1,1748.5 1235.1,1765.1 1229.8,1782.3 1223.0,1800.1 1215.1,1818.4 1205.9,1837.2 1195.6,1856.3 1184.2,1875.8 1171.8,1895.5 1158.6,1915.3 1144.6,1935.2 1130.0,1955.1 1114.8,1974.9 1099.2,1994.5  " style="stroke-opacity: 1.000000; stroke-width: 5.0; stroke: rgb(107,174,214); fill: none"  />
<path d="M 872.8,1608.7 L 897.3,1604.6 921.6,1600.9 945.8,1597.7 969.5,1594.9 992.8,1592.6 1015.4,1590.9 1037.2,1589.8 1058.1,1589.4 1078.0,1589.7 1096.8,1590.6 1114.4,1592.4 1130.8,1594.8 1145.7,1598.1 1159.3,1602.1 1171.4,1606.9 1182.0,1612.5 1191.0,1619.0 1198.4,1626.2 1204.2,1634.2 1208.3,1643.0 1210.8,1652.6 1211.7,1662.9 1210.9,1673.9 1208.6,1685.7 1204.6,1698.1 1199.1,1711.1 1192.0,1724.7 1183.6,1738.9 1173.7,1753.6 1162.5,1768.7 1150.0,1784.2 1136.4,1800.1 1121.7,1816.3 1106.0,1832.6 1089.5,1849.1 1072.3,1865.7 1054.4,1882.2 1036.0,1898.7 1017.4,1915.0  " style="stroke-opacity: 1.000000; stroke-width: 5.0; stroke: rgb(107,174,214); fill: none"  />
<path d="M 872.8,1608.7 L 897.1,1604.6 921.2,1600.8 945.1,1597.3 968.5,1594.1 991.3,1591.4 1013.4,1589.1 1034.6,1587.3 1054.8,1586.0 1074.0,1585.2 1091.9,1585.0 1108.6,1585.4 1123.8,1586.4 1137.6,1588.0 1149.9,1590.2 1160.7,1593.1 1169.7,1596.7 1177.1,1600.9 1182.9,1605.7 1186.8,1611.2 1189.1,1617.4 1189.6,1624.1 1188.4,1631.5 1185.4,1639.5 1180.8,1648.1 1174.5,1657.2 1166.6,1666.9 1157.1,1677.1 1146.0,1687.7 1133.6,1698.7 1119.7,1710.2 1104.6,1721.9 1088.3,1734.0 1071.0,1746.3 1052.6,1758.8 1033.4,1771.5 1013.5,1784.2 993.1,1796.9 972.2,1809.6 951.0,1822.1  " style="stroke-opacity: 1.000000; stroke-width: 5.0; stroke: rgb(107,174,214); fill: none"  />
<path d="M 872.8,1608.7 L 897.0,1604.6 921.0,1600.6 944.6,1596.8 967.8,1593.3 990.3,1590.0 1012.0,1587.0 1032.8,1584.3 1052.5,1582.0 1071.1,1580.1 1088.4,1578.6 1104.4,1577.5 1118.8,1576.8 1131.8,1576.6 1143.1,1576.9 1152.8,1577.6 1160.8,1578.8 1167.0,1580.6 1171.5,1582.8 1174.2,1585.5 1175.0,1588.6 1174.0,1592.3 1171.3,1596.4 1166.7,1601.0 1160.4,1606.1 1152.4,1611.5 1142.7,1617.4 1131.4,1623.7 1118.5,1630.4 1104.1,1637.4 1088.4,1644.7 1071.3,1652.3 1053.1,1660.2 1033.7,1668.3 1013.4,1676.5 992.3,1684.9 970.4,1693.4 948.1,1701.9 925.3,1710.4 902.3,1718.9  " style="stroke-opacity: 1.000000; stroke-width: 5.0; stroke: rgb(107,174,214); fill: none"  />
<path d="M 872.8,1608.7 L 897.0,1604.4 920.9,1600.1 944.4,1595.7 967.4,1591.3 989.7,1586.8 1011.2,1582.3 1031.7,1577.8 1051.0,1573.3 1069.2,1568.9 1086.0,1564.5 1101.3,1560.2 1115.2,1555.9 1127.5,1551.7 1138.1,1547.7 1147.0,1543.7 1154.1,1539.9 1159.4,1536.2 1162.8,1532.6 1164.4,1529.2 1164.1,1525.9 1162.0,1522.8 1158.0,1519.8 1152.2,1517.0 1144.5,1514.4 1135.1,1511.9 1124.0,1509.6 1111.2,1507.5 1096.9,1505.6 1081.0,1503.8 1063.7,1502.2 1045.1,1500.8 1025.2,1499.6 1004.3,1498.5 982.4,1497.5 959.7,1496.7 936.2,1496.1 912.3,1495.6 888.0,1495.2 863.5,1495.0  " style="stroke-opacity: 1.000000; stroke-width: 5.0; stroke: rgb(107,174,214); fill: none"  />
<path d="M 872.8,1608.7 L 897.1,1604.4 921.1,1599.9 944.7,1595.1 967.8,1590.2 990.2,1585.1 1011.8,1579.9 1032.4,1574.4 1051.9,1568.9 1070.2,1563.1 1087.1,1557.3 1102.7,1551.3 1116.7,1545.3 1129.2,1539.1 1140.0,1532.8 1149.1,1526.5 1156.5,1520.1 1162.0,1513.7 1165.8,1507.2 1167.7,1500.6 1167.7,1494.1 1165.9,1487.5 1162.3,1481.0 1156.8,1474.5 1149.6,1467.9 1140.6,1461.5 1129.8,1455.0 1117.5,1448.7 1103.5,1442.4 1088.1,1436.2 1071.2,1430.1 1053.0,1424.1 1033.6,1418.2 1013.1,1412.4 991.6,1406.8 969.3,1401.4 946.3,1396.1 922.7,1391.0 898.8,1386.1 874.6,1381.4  " style="stroke-opacity: 1.000000; stroke-width: 5.0; stroke: rgb(107,174,214); fill: none"  />
<path d="M 863.5,1495.0 L 888.8,1495.4 914.1,1496.4 939.2,1498.0 963.9,1500.2 988.2,1503.0 1011.9,1506.5 1034.9,1510.7 1057.1,1515.7 1078.4,1521.4 1098.7,1527.8 1117.8,1535.1 1135.8,1543.1 1152.6,1551.9 1168.1,1561.6 1182.2,1572.0 1194.9,1583.2 1206.1,1595.2 1215.9,1607.9 1224.1,1621.5 1230.9,1635.7 1236.0,1650.7 1239.7,1666.3 1241.8,1682.6 1242.4,1699.5 1241.5,1717.1 1239.0,1735.1 1235.2,1753.7 1230.0,1772.7 1223.4,1792.1 1215.5,1811.8 1206.3,1831.9 1196.0,1852.2 1184.7,1872.6 1172.3,1893.1 1159.1,1913.7 1145.0,1934.2 1130.3,1954.5 1115.0,1974.6 1099.2,1994.5  " style="stroke-opacity: 1.000000; stroke-width: 5.0; stroke: rgb(107,174,214); fill: none"  />
<path d="M 863.5,1495.0 L 888.0,1495.2 912.3,1495.6 936.2,1496.1 959.7,1496.7 982.4,1497.5 1004.3,1498.5 1025.2,1499.6 1045.1,1500.8 1063.7,1502.2 1081.0,1503.8 1096.9,1505.6 1111.2,1507.5 1124.0,1509.6 1135.1,1511.9 1144.5,1514.4 1152.2,1517.0 1158.0,1519.8 1162.0,1522.8 1164.1,1525.9 1164.4,1529.2 1162.8,1532.6 1159.4,1536.2 1154.1,1539.9 1147.0,1543.7 1138.1,1547.7 1127.5,1551.7 1115.2,1555.9 1101.3,1560.2 1086.0,1564.5 1069.2,1568.9 1051.0,1573.3 1031.7,1577.8 1011.2,1582.3 989.7,1586.8 967.4,1591.3 944.4,1595.7 920.9,1600.1 897.0,1604.4 872.8,1608.7  " style="stroke-opacity: 1.000000; stroke-width: 5.0; stroke: rgb(107,174,214); fill: none"  />
<path d="M 2075.6,1228.4 L 2052.9,1238.9 2030.1,1248.9 2007.3,1258.4 1984.6,1267.2 1962.2,1275.3 1940.1,1282.7 1918.5,1289.1 1897.5,1294.6 1877.1,1299.0 1857.4,1302.4 1838.5,1304.7 1820.5,1305.8 1803.5,1305.7 1787.4,1304.4 1772.4,1301.9 1758.5,1298.1 1745.7,1293.0 1734.1,1286.6 1723.7,1278.9 1714.5,1270.0 1706.5,1259.8 1699.8,1248.4 1694.4,1235.8 1690.1,1222.0 1687.1,1207.0 1685.4,1191.0 1684.8,1174.0 1685.4,1156.0 1687.1,1137.0 1690.0,1117.3 1693.8,1096.7 1698.7,1075.5 1704.5,1053.7 1711.1,1031.5 1718.6,1008.8 1726.8,985.9 1735.6,962.8 1745.0,939.7 1754.8,916.7  " style="stroke-opacity: 1.000000; stroke-width: 5.0; stroke: rgb(107,174,214); fill: none"  />
<path d="M 1409.6,2130.0 L 1413.1,2105.8 1416.7,2081.8 1420.4,2058.1 1424.2,2035.0 1428.1,2012.6 1431.9,1991.0 1435.8,1970.4 1439.7,1950.9 1443.6,1932.7 1447.6,1915.7 1451.4,1900.2 1455.3,1886.3 1459.1,1873.9 1462.8,1863.2 1466.5,1854.2 1470.2,1847.0 1473.7,1841.6 1477.2,1838.0 1480.6,1836.3 1483.9,1836.5 1487.0,1838.5 1490.1,1842.4 1493.1,1848.2 1495.9,1855.7 1498.7,1865.1 1501.3,1876.1 1503.8,1888.8 1506.1,1903.1 1508.3,1918.9 1510.4,1936.2 1512.4,1954.8 1514.2,1974.6 1515.9,1995.4 1517.5,2017.3 1519.0,2040.0 1520.3,2063.4 1521.5,2087.3 1522.6,2111.6 1523.5,2136.1  " style="stroke-opacity: 1.000000; stroke-width: 5.0; stroke: rgb(107,174,214); fill: none"  />
<path d="M 1409.6,2130.0 L 1413.0,2105.8 1416.3,2081.7 1419.4,2058.0 1422.2,2034.7 1424.9,2012.1 1427.2,1990.3 1429.3,1969.5 1431.0,1949.7 1432.4,1931.0 1433.4,1913.7 1434.0,1897.7 1434.3,1883.2 1434.1,1870.3 1433.5,1858.9 1432.5,1849.3 1431.0,1841.3 1429.1,1835.2 1426.8,1830.8 1424.0,1828.2 1420.8,1827.4 1417.2,1828.5 1413.2,1831.4 1408.7,1836.1 1403.8,1842.5 1398.6,1850.7 1393.0,1860.6 1387.0,1872.1 1380.7,1885.1 1374.2,1899.7 1367.3,1915.6 1360.2,1932.9 1352.9,1951.4 1345.4,1971.0 1337.7,1991.5 1329.9,2012.9 1322.1,2035.0 1314.2,2057.6 1306.3,2080.6 1298.5,2103.8  " style="stroke-opacity: 1.000000; stroke-width: 5.0; stroke: rgb(107,174,214); fill: none"  />
<path d="M 1298.5,2103.8 L 1306.4,2080.5 1314.5,2057.4 1322.7,2034.8 1331.0,2012.7 1339.4,1991.3 1347.9,1970.7 1356.3,1951.2 1364.7,1932.7 1373.1,1915.5 1381.5,1899.6 1389.7,1885.1 1397.8,1872.2 1405.8,1860.8 1413.6,1851.0 1421.2,1843.0 1428.6,1836.6 1435.8,1832.1 1442.8,1829.4 1449.5,1828.5 1456.0,1829.4 1462.2,1832.2 1468.2,1836.7 1473.8,1843.1 1479.2,1851.3 1484.2,1861.2 1489.0,1872.7 1493.4,1885.9 1497.5,1900.6 1501.4,1916.8 1504.9,1934.4 1508.1,1953.3 1511.0,1973.4 1513.6,1994.5 1515.9,2016.6 1518.0,2039.5 1519.7,2063.0 1521.2,2087.1 1522.5,2111.5 1523.5,2136.1  " style="stroke-opacity: 1.000000; stroke-width: 5.0; stroke: rgb(107,174,214); fill: none"  />
<path d="M 1298.5,2103.8 L 1306.3,2080.6 1314.2,2057.6 1322.1,2035.0 1329.9,2012.9 1337.7,1991.5 1345.4,1971.0 1352.9,1951.4 1360.2,1932.9 1367.3,1915.6 1374.2,1899.7 1380.7,1885.1 1387.0,1872.1 1393.0,1860.6 1398.6,1850.7 1403.8,1842.5 1408.7,1836.1 1413.2,1831.4 1417.2,1828.5 1420.8,1827.4 1424.0,1828.2 1426.8,1830.8 1429.1,1835.2 1431.0,1841.3 1432.5,1849.3 1433.5,1858.9 1434.1,1870.3 1434.3,1883.2 1434.0,1897.7 1433.4,1913.7 1432.4,1931.0 1431.0,1949.7 1429.3,1969.5 1427.2,1990.3 1424.9,2012.1 1422.2,2034.7 1419.4,2058.0 1416.3,2081.7 1413.0,2105.8 1409.6,2130.0  " style="stroke-opacity: 1.000000; stroke-width: 5.0; stroke: rgb(107,174,214); fill: none"  />
<path d="M 874.6,1381.4 L 899.5,1386.4 924.2,1391.8 948.6,1397.9 972.5,1404.4 995.9,1411.6 1018.6,1419.2 1040.5,1427.5 1061.4,1436.3 1081.4,1445.7 1100.1,1455.7 1117.7,1466.3 1134.0,1477.4 1148.9,1489.1 1162.4,1501.3 1174.4,1514.1 1184.9,1527.4 1193.8,1541.2 1201.2,1555.5 1206.9,1570.2 1211.0,1585.5 1213.4,1601.1 1214.2,1617.2 1213.3,1633.6 1210.9,1650.3 1206.9,1667.4 1201.3,1684.7 1194.2,1702.3 1185.6,1720.1 1175.6,1738.0 1164.3,1756.0 1151.8,1774.1 1138.0,1792.2 1123.2,1810.3 1107.4,1828.3 1090.7,1846.1 1073.2,1863.8 1055.1,1881.2 1036.4,1898.3 1017.4,1915.0  " style="stroke-opacity: 1.000000; stroke-width: 5.0; stroke: rgb(107,174,214); fill: none"  />
<path d="M 874.6,1381.4 L 899.2,1386.3 923.5,1391.6 947.6,1397.3 971.1,1403.5 994.0,1410.1 1016.2,1417.1 1037.4,1424.6 1057.7,1432.6 1076.8,1441.0 1094.7,1449.8 1111.3,1459.0 1126.6,1468.7 1140.3,1478.8 1152.5,1489.3 1163.2,1500.2 1172.2,1511.5 1179.5,1523.1 1185.2,1535.1 1189.1,1547.4 1191.3,1560.0 1191.7,1572.9 1190.5,1586.1 1187.5,1599.5 1182.8,1613.2 1176.4,1627.0 1168.4,1641.0 1158.9,1655.1 1147.8,1669.4 1135.3,1683.7 1121.4,1698.0 1106.2,1712.3 1089.8,1726.6 1072.3,1740.8 1053.8,1754.9 1034.4,1768.9 1014.3,1782.6 993.6,1796.1 972.5,1809.3 951.0,1822.1  " style="stroke-opacity: 1.000000; stroke-width: 5.0; stroke: rgb(107,174,214); fill: none"  />
<path d="M 874.6,1381.4 L 899.0,1386.2 923.1,1391.3 946.8,1396.7 970.0,1402.4 992.6,1408.5 1014.3,1414.8 1035.1,1421.5 1054.8,1428.4 1073.4,1435.7 1090.7,1443.2 1106.6,1451.0 1121.0,1459.0 1133.9,1467.3 1145.2,1475.9 1154.8,1484.6 1162.7,1493.6 1168.9,1502.8 1173.3,1512.2 1175.9,1521.7 1176.7,1531.4 1175.7,1541.2 1172.9,1551.2 1168.3,1561.3 1161.9,1571.4 1153.8,1581.6 1144.1,1591.9 1132.7,1602.2 1119.8,1612.5 1105.4,1622.7 1089.6,1633.0 1072.5,1643.1 1054.1,1653.2 1034.7,1663.2 1014.3,1673.0 993.0,1682.6 971.0,1692.1 948.5,1701.3 925.5,1710.2 902.3,1718.9  " style="stroke-opacity: 1.000000; stroke-width: 5.0; stroke: rgb(107,174,214); fill: none"  />
<path d="M 874.6,1381.4 L 898.8,1386.1 922.7,1391.0 946.3,1396.1 969.3,1401.4 991.6,1406.8 1013.1,1412.4 1033.6,1418.2 1053.0,1424.1 1071.2,1430.1 1088.1,1436.2 1103.5,1442.4 1117.5,1448.7 1129.8,1455.0 1140.6,1461.5 1149.6,1467.9 1156.8,1474.5 1162.3,1481.0 1165.9,1487.5 1167.7,1494.1 1167.7,1500.6 1165.8,1507.2 1162.0,1513.7 1156.5,1520.1 1149.1,1526.5 1140.0,1532.8 1129.2,1539.1 1116.7,1545.3 1102.7,1551.3 1087.1,1557.3 1070.2,1563.1 1051.9,1568.9 1032.4,1574.4 1011.8,1579.9 990.2,1585.1 967.8,1590.2 944.7,1595.1 921.1,1599.9 897.1,1604.4 872.8,1608.7  " style="stroke-opacity: 1.000000; stroke-width: 5.0; stroke: rgb(107,174,214); fill: none"  />
</g>
<defs>
<pattern id="vline-sparse" width="10" height="10" patternTransform="rotate(0 0 0)" patternUnits="userSpaceOnUse"><line x1="0" y1="0" x2="0" y2="10" style="stroke:black;stroke-width:2" /></pattern>
<pattern id="vline" width="10" height="10" patternTransform="rotate(0 0 0)" patternUnits="userSpaceOnUse"><line x1="0" y1="0" x2="0" y2="10" style="stroke:black;stroke-width:5" /></pattern>
<pattern id="hline-sparse" width="10" height="10" patternTransform="rotate(0 0 0)" patternUnits="userSpaceOnUse"><line x1="0" y1="0" x2="10" y2="0" style="stroke:black;stroke-width:2" /></pattern>
<pattern id="hline" width="10" height="10" patternTransform="rotate(0 0 0)" patternUnits="userSpaceOnUse"><line x1="0" y1="0" x2="10" y2="0" style="stroke:black;stroke-width:5" /></pattern>
<pattern id="checker" width="10" height="10" patternTransform="rotate(45 0 0)" patternUnits="userSpaceOnUse"><line x1="0" y1="0" x2="10" y2="0" style="stroke:black;stroke-width:5" /><line x1="0" y1="0" x2="0" y2="10" style="stroke:black;stroke-width:4" /></pattern>
<pattern id="checker" width="10" height="10" patternTransform="rotate(45 0 0)" patternUnits="userSpaceOnUse"><line x1="0" y1="0" x2="10" y2="0" style="stroke:black;stroke-width:2" /><line x1="0" y1="0" x2="0" y2="10" style="stroke:black;stroke-width:2" /></pattern>
</defs>
</svg>
