<?xml version="1.0" encoding="utf-8" standalone="no"?>
<!DOCTYPE svg PUBLIC "-//W3C//DTD SVG 1.1//EN" "http://www.w3.org/Graphics/SVG/1.1/DTD/svg11.dtd">
<svg width="3000px" height="3000px" version="1.1" xmlns="http://www.w3.org/2000/svg" xmlns:xlink="http://www.w3.org/1999/xlink">
<g id="bg">
<rect x="0" y="0" width="3000px" height="3000px" style="fill:rgb(255,255,255);"/>
</g>
<g id="ideograms">
<path d="M1500.000,535.000 A965.000,965.000 40.000 0,1 1601.714,540.376 L1618.579,381.267 A1125.000,1125.000 0.000 0,0 1500.000,375.000 Z" style="stroke-width:2.0;stroke:rgb(115,115,115);stroke-linecap:round;fill:rgb(153,204,255);" />
<text x="1635.1" y="307.6" font-size="195.0px" font-family="CMUBright-Bold" style="text-anchor:start;fill:rgb(0,0,0);" transform="rotate(273.0,1635.1,307.6)" >5</text>
<path d="M1500.000,535.000 A965.000,965.000 40.000 0,1 1601.714,540.376 L1618.579,381.267 A1125.000,1125.000 0.000 0,0 1500.000,375.000 Z" style="stroke-width:2.0;stroke:rgb(115,115,115);stroke-linecap:round;fill:none;" />
<path d="M1672.307,550.508 A965.000,965.000 40.000 0,1 1771.427,573.959 L1816.431,420.418 A1125.000,1125.000 0.000 0,0 1700.877,393.079 Z" style="stroke-width:2.0;stroke:rgb(115,115,115);stroke-linecap:round;fill:rgb(153,204,255);" />
<text x="1847.7" y="351.5" font-size="195.0px" font-family="CMUBright-Bold" style="text-anchor:start;fill:rgb(0,0,0);" transform="rotate(283.3,1847.7,351.5)" >8</text>
<path d="M1672.307,550.508 A965.000,965.000 40.000 0,1 1771.427,573.959 L1816.431,420.418 A1125.000,1125.000 0.000 0,0 1700.877,393.079 Z" style="stroke-width:2.0;stroke:rgb(115,115,115);stroke-linecap:round;fill:none;" />
<path d="M1839.077,596.533 A965.000,965.000 40.000 0,1 1932.417,637.306 L2004.113,494.269 A1125.000,1125.000 0.000 0,0 1895.297,446.736 Z" style="stroke-width:2.0;stroke:rgb(115,115,115);stroke-linecap:round;fill:rgb(153,204,255);" />
<text x="2047.2" y="432.0" font-size="195.0px" font-family="CMUBright-Bold" style="text-anchor:start;fill:rgb(0,0,0);" transform="rotate(293.6,2047.2,432.0)" >10</text>
<path d="M1839.077,596.533 A965.000,965.000 40.000 0,1 1932.417,637.306 L2004.113,494.269 A1125.000,1125.000 0.000 0,0 1895.297,446.736 Z" style="stroke-width:2.0;stroke:rgb(115,115,115);stroke-linecap:round;fill:none;" />
<path d="M1994.948,671.597 A965.000,965.000 40.000 0,1 2079.507,728.381 L2175.592,600.444 A1125.000,1125.000 0.000 0,0 2077.012,534.245 Z" style="stroke-width:2.0;stroke:rgb(115,115,115);stroke-linecap:round;fill:rgb(153,204,255);" />
<text x="2229.1" y="546.9" font-size="195.0px" font-family="CMUBright-Bold" style="text-anchor:start;fill:rgb(0,0,0);" transform="rotate(303.9,2229.1,546.9)" >19</text>
<path d="M1994.948,671.597 A965.000,965.000 40.000 0,1 2079.507,728.381 L2175.592,600.444 A1125.000,1125.000 0.000 0,0 2077.012,534.245 Z" style="stroke-width:2.0;stroke:rgb(115,115,115);stroke-linecap:round;fill:none;" />
<path d="M2134.911,773.286 A965.000,965.000 40.000 0,1 2207.972,844.256 L2325.356,735.532 A1125.000,1125.000 0.000 0,0 2240.181,652.795 Z" style="stroke-width:2.0;stroke:rgb(115,115,115);stroke-linecap:round;fill:rgb(153,204,255);" />
<text x="2387.6" y="692.4" font-size="195.0px" font-family="CMUBright-Bold" style="text-anchor:start;fill:rgb(0,0,0);" transform="rotate(314.2,2387.6,692.4)" >23</text>
<path d="M2134.911,773.286 A965.000,965.000 40.000 0,1 2207.972,844.256 L2325.356,735.532 A1125.000,1125.000 0.000 0,0 2240.181,652.795 Z" style="stroke-width:2.0;stroke:rgb(115,115,115);stroke-linecap:round;fill:none;" />
<path d="M2254.467,898.332 A965.000,965.000 40.000 0,1 2313.683,981.207 L2448.594,895.190 A1125.000,1125.000 0.000 0,0 2379.560,798.574 Z" style="stroke-width:2.0;stroke:rgb(115,115,115);stroke-linecap:round;fill:rgb(153,204,255);" />
<text x="2516.5" y="862.2" font-size="195.0px" font-family="CMUBright-Bold" style="text-anchor:start;fill:rgb(0,0,0);" transform="rotate(324.5,2516.5,862.2)" >24</text>
<path d="M2254.467,898.332 A965.000,965.000 40.000 0,1 2313.683,981.207 L2448.594,895.190 A1125.000,1125.000 0.000 0,0 2379.560,798.574 Z" style="stroke-width:2.0;stroke:rgb(115,115,115);stroke-linecap:round;fill:none;" />
<path d="M2349.775,1042.717 A965.000,965.000 40.000 0,1 2393.240,1134.833 L2541.342,1074.288 A1125.000,1125.000 0.000 0,0 2490.670,966.898 Z" style="stroke-width:2.0;stroke:rgb(115,115,115);stroke-linecap:round;fill:rgb(153,204,255);" />
<text x="2614.7" y="1055.8" font-size="195.0px" font-family="CMUBright-Bold" style="text-anchor:start;fill:rgb(0,0,0);" transform="rotate(334.7,2614.7,1055.8)" >26</text>
<path d="M2349.775,1042.717 A965.000,965.000 40.000 0,1 2393.240,1134.833 L2541.342,1074.288 A1125.000,1125.000 0.000 0,0 2490.670,966.898 Z" style="stroke-width:2.0;stroke:rgb(115,115,115);stroke-linecap:round;fill:none;" />
<path d="M2417.770,1201.799 A965.000,965.000 40.000 0,1 2444.089,1300.196 L2600.621,1267.068 A1125.000,1125.000 0.000 0,0 2569.939,1152.356 Z" style="stroke-width:2.0;stroke:rgb(115,115,115);stroke-linecap:round;fill:rgb(153,204,255);" />
<text x="2676.2" y="1262.0" font-size="195.0px" font-family="CMUBright-Bold" style="text-anchor:start;fill:rgb(0,0,0);" transform="rotate(345.0,2676.2,1262.0)" >35</text>
<path d="M2417.770,1201.799 A965.000,965.000 40.000 0,1 2444.089,1300.196 L2600.621,1267.068 A1125.000,1125.000 0.000 0,0 2569.939,1152.356 Z" style="stroke-width:2.0;stroke:rgb(115,115,115);stroke-linecap:round;fill:none;" />
<path d="M2456.267,1370.465 A965.000,965.000 40.000 0,1 2464.593,1471.980 L2624.526,1467.335 A1125.000,1125.000 0.000 0,0 2614.818,1348.988 Z" style="stroke-width:2.0;stroke:rgb(115,115,115);stroke-linecap:round;fill:rgb(116,196,118);" />
<text x="2699.7" y="1471.8" font-size="195.0px" font-family="CMUBright-Bold" style="text-anchor:start;fill:rgb(0,0,0);" transform="rotate(355.3,2699.7,1471.8)" >4</text>
<path d="M2456.267,1370.465 A965.000,965.000 40.000 0,1 2464.593,1471.980 L2624.526,1467.335 A1125.000,1125.000 0.000 0,0 2614.818,1348.988 Z" style="stroke-width:2.0;stroke:rgb(115,115,115);stroke-linecap:round;fill:none;" />
<path d="M2464.028,1543.295 A965.000,965.000 40.000 0,1 2454.095,1644.665 L2612.287,1668.651 A1125.000,1125.000 0.000 0,0 2623.867,1550.473 Z" style="stroke-width:2.0;stroke:rgb(115,115,115);stroke-linecap:round;fill:rgb(116,196,118);" />
<text x="2684.8" y="1690.4" font-size="195.0px" font-family="CMUBright-Bold" style="text-anchor:start;fill:rgb(0,0,0);" transform="rotate(5.6,2684.8,1690.4)" >6</text>
<path d="M2464.028,1543.295 A965.000,965.000 40.000 0,1 2454.095,1644.665 L2612.287,1668.651 A1125.000,1125.000 0.000 0,0 2623.867,1550.473 Z" style="stroke-width:2.0;stroke:rgb(115,115,115);stroke-linecap:round;fill:none;" />
<path d="M2440.805,1714.733 A965.000,965.000 40.000 0,1 2412.931,1812.701 L2564.298,1864.548 A1125.000,1125.000 0.000 0,0 2596.794,1750.336 Z" style="stroke-width:2.0;stroke:rgb(115,115,115);stroke-linecap:round;fill:rgb(116,196,118);" />
<text x="2632.4" y="1897.0" font-size="195.0px" font-family="CMUBright-Bold" style="text-anchor:start;fill:rgb(0,0,0);" transform="rotate(15.9,2632.4,1897.0)" >11</text>
<path d="M2440.805,1714.733 A965.000,965.000 40.000 0,1 2412.931,1812.701 L2564.298,1864.548 A1125.000,1125.000 0.000 0,0 2596.794,1750.336 Z" style="stroke-width:2.0;stroke:rgb(115,115,115);stroke-linecap:round;fill:none;" />
<path d="M2387.344,1879.269 A965.000,965.000 40.000 0,1 2342.425,1970.686 L2482.102,2048.727 A1125.000,1125.000 0.000 0,0 2534.469,1942.153 Z" style="stroke-width:2.0;stroke:rgb(115,115,115);stroke-linecap:round;fill:rgb(116,196,118);" />
<text x="2543.3" y="2092.8" font-size="195.0px" font-family="CMUBright-Bold" style="text-anchor:start;fill:rgb(0,0,0);" transform="rotate(26.2,2543.3,2092.8)" >14</text>
<path d="M2387.344,1879.269 A965.000,965.000 40.000 0,1 2342.425,1970.686 L2482.102,2048.727 A1125.000,1125.000 0.000 0,0 2534.469,1942.153 Z" style="stroke-width:2.0;stroke:rgb(115,115,115);stroke-linecap:round;fill:none;" />
<path d="M2305.363,2031.616 A965.000,965.000 40.000 0,1 2244.843,2113.542 L2368.340,2215.270 A1125.000,1125.000 0.000 0,0 2438.895,2119.759 Z" style="stroke-width:2.0;stroke:rgb(115,115,115);stroke-linecap:round;fill:rgb(116,196,118);" />
<text x="2419.4" y="2271.1" font-size="195.0px" font-family="CMUBright-Bold" style="text-anchor:start;fill:rgb(0,0,0);" transform="rotate(36.5,2419.4,2271.1)" >18</text>
<path d="M2305.363,2031.616 A965.000,965.000 40.000 0,1 2244.843,2113.542 L2368.340,2215.270 A1125.000,1125.000 0.000 0,0 2438.895,2119.759 Z" style="stroke-width:2.0;stroke:rgb(115,115,115);stroke-linecap:round;fill:none;" />
<path d="M2197.497,2166.875 A965.000,965.000 40.000 0,1 2123.321,2236.679 L2226.669,2358.823 A1125.000,1125.000 0.000 0,0 2313.144,2277.445 Z" style="stroke-width:2.0;stroke:rgb(115,115,115);stroke-linecap:round;fill:rgb(116,196,118);" />
<text x="2268.5" y="2421.6" font-size="195.0px" font-family="CMUBright-Bold" style="text-anchor:start;fill:rgb(0,0,0);" transform="rotate(46.7,2268.5,2421.6)" >22</text>
<path d="M2197.497,2166.875 A965.000,965.000 40.000 0,1 2123.321,2236.679 L2226.669,2358.823 A1125.000,1125.000 0.000 0,0 2313.144,2277.445 Z" style="stroke-width:2.0;stroke:rgb(115,115,115);stroke-linecap:round;fill:none;" />
<path d="M2067.213,2280.701 A965.000,965.000 40.000 0,1 1981.764,2336.139 L2061.642,2474.773 A1125.000,1125.000 0.000 0,0 2161.258,2410.144 Z" style="stroke-width:2.0;stroke:rgb(115,115,115);stroke-linecap:round;fill:rgb(153,0,204);" />
<text x="2091.6" y="2544.0" font-size="195.0px" font-family="CMUBright-Bold" style="text-anchor:start;fill:rgb(0,0,0);" transform="rotate(57.0,2091.6,2544.0)" >1</text>
<path d="M2067.213,2280.701 A965.000,965.000 40.000 0,1 1981.764,2336.139 L2061.642,2474.773 A1125.000,1125.000 0.000 0,0 2161.258,2410.144 Z" style="stroke-width:2.0;stroke:rgb(115,115,115);stroke-linecap:round;fill:none;" />
<path d="M1918.698,2369.435 A965.000,965.000 40.000 0,1 1824.724,2408.724 L1878.564,2559.393 A1125.000,1125.000 0.000 0,0 1988.119,2513.590 Z" style="stroke-width:2.0;stroke:rgb(115,115,115);stroke-linecap:round;fill:rgb(153,0,204);" />
<text x="1896.6" y="2632.6" font-size="195.0px" font-family="CMUBright-Bold" style="text-anchor:start;fill:rgb(0,0,0);" transform="rotate(67.3,1896.6,2632.6)" >7</text>
<path d="M1918.698,2369.435 A965.000,965.000 40.000 0,1 1824.724,2408.724 L1878.564,2559.393 A1125.000,1125.000 0.000 0,0 1988.119,2513.590 Z" style="stroke-width:2.0;stroke:rgb(115,115,115);stroke-linecap:round;fill:none;" />
<path d="M1756.726,2430.224 A965.000,965.000 40.000 0,1 1657.246,2452.102 L1683.318,2609.964 A1125.000,1125.000 0.000 0,0 1799.291,2584.458 Z" style="stroke-width:2.0;stroke:rgb(115,115,115);stroke-linecap:round;fill:rgb(153,0,204);" />
<text x="1685.0" y="2685.6" font-size="195.0px" font-family="CMUBright-Bold" style="text-anchor:start;fill:rgb(0,0,0);" transform="rotate(77.6,1685.0,2685.6)" >9</text>
<path d="M1756.726,2430.224 A965.000,965.000 40.000 0,1 1657.246,2452.102 L1683.318,2609.964 A1125.000,1125.000 0.000 0,0 1799.291,2584.458 Z" style="stroke-width:2.0;stroke:rgb(115,115,115);stroke-linecap:round;fill:none;" />
<path d="M1586.502,2461.115 A965.000,965.000 40.000 0,1 1484.715,2464.879 L1482.181,2624.859 A1125.000,1125.000 0.000 0,0 1600.844,2620.471 Z" style="stroke-width:2.0;stroke:rgb(115,115,115);stroke-linecap:round;fill:rgb(153,0,204);" />
<text x="1470.4" y="2699.6" font-size="195.0px" font-family="CMUBright-Bold" style="text-anchor:start;fill:rgb(0,0,0);" transform="rotate(87.9,1470.4,2699.6)" >13</text>
<path d="M1586.502,2461.115 A965.000,965.000 40.000 0,1 1484.715,2464.879 L1482.181,2624.859 A1125.000,1125.000 0.000 0,0 1600.844,2620.471 Z" style="stroke-width:2.0;stroke:rgb(115,115,115);stroke-linecap:round;fill:none;" />
<path d="M1413.498,2461.115 A965.000,965.000 40.000 0,1 1312.675,2446.644 L1281.616,2603.600 A1125.000,1125.000 0.000 0,0 1399.156,2620.471 Z" style="stroke-width:2.0;stroke:rgb(115,115,115);stroke-linecap:round;fill:rgb(153,0,204);" />
<text x="1402.0" y="2696.0" font-size="195.0px" font-family="CMUBright-Bold" style="text-anchor:end;fill:rgb(0,0,0);" transform="rotate(-81.8,1402.0,2696.0)" >27</text>
<path d="M1413.498,2461.115 A965.000,965.000 40.000 0,1 1312.675,2446.644 L1281.616,2603.600 A1125.000,1125.000 0.000 0,0 1399.156,2620.471 Z" style="stroke-width:2.0;stroke:rgb(115,115,115);stroke-linecap:round;fill:none;" />
<path d="M1243.274,2430.224 A965.000,965.000 40.000 0,1 1146.656,2397.983 L1088.070,2546.871 A1125.000,1125.000 0.000 0,0 1200.709,2584.458 Z" style="stroke-width:2.0;stroke:rgb(115,115,115);stroke-linecap:round;fill:rgb(153,0,204);" />
<text x="1191.0" y="2659.5" font-size="195.0px" font-family="CMUBright-Bold" style="text-anchor:end;fill:rgb(0,0,0);" transform="rotate(-71.5,1191.0,2659.5)" >28</text>
<path d="M1243.274,2430.224 A965.000,965.000 40.000 0,1 1146.656,2397.983 L1088.070,2546.871 A1125.000,1125.000 0.000 0,0 1200.709,2584.458 Z" style="stroke-width:2.0;stroke:rgb(115,115,115);stroke-linecap:round;fill:none;" />
<path d="M1081.302,2369.435 A965.000,965.000 40.000 0,1 991.993,2320.460 L907.764,2456.494 A1125.000,1125.000 0.000 0,0 1011.881,2513.590 Z" style="stroke-width:2.0;stroke:rgb(115,115,115);stroke-linecap:round;fill:rgb(153,0,204);" />
<text x="988.9" y="2585.7" font-size="195.0px" font-family="CMUBright-Bold" style="text-anchor:end;fill:rgb(0,0,0);" transform="rotate(-61.3,988.9,2585.7)" >29</text>
<path d="M1081.302,2369.435 A965.000,965.000 40.000 0,1 991.993,2320.460 L907.764,2456.494 A1125.000,1125.000 0.000 0,0 1011.881,2513.590 Z" style="stroke-width:2.0;stroke:rgb(115,115,115);stroke-linecap:round;fill:none;" />
<path d="M932.787,2280.701 A965.000,965.000 40.000 0,1 853.658,2216.566 L746.493,2335.375 A1125.000,1125.000 0.000 0,0 838.742,2410.144 Z" style="stroke-width:2.0;stroke:rgb(115,115,115);stroke-linecap:round;fill:rgb(253,208,162);" />
<text x="801.7" y="2475.9" font-size="195.0px" font-family="CMUBright-Bold" style="text-anchor:end;fill:rgb(0,0,0);" transform="rotate(-51.0,801.7,2475.9)" >12</text>
<path d="M932.787,2280.701 A965.000,965.000 40.000 0,1 853.658,2216.566 L746.493,2335.375 A1125.000,1125.000 0.000 0,0 838.742,2410.144 Z" style="stroke-width:2.0;stroke:rgb(115,115,115);stroke-linecap:round;fill:none;" />
<path d="M802.503,2166.875 A965.000,965.000 40.000 0,1 736.097,2089.642 L609.440,2187.406 A1125.000,1125.000 0.000 0,0 686.856,2277.445 Z" style="stroke-width:2.0;stroke:rgb(115,115,115);stroke-linecap:round;fill:rgb(253,208,162);" />
<text x="640.0" y="2336.9" font-size="195.0px" font-family="CMUBright-Bold" style="text-anchor:end;fill:rgb(0,0,0);" transform="rotate(-40.7,640.0,2336.9)" >16</text>
<path d="M802.503,2166.875 A965.000,965.000 40.000 0,1 736.097,2089.642 L609.440,2187.406 A1125.000,1125.000 0.000 0,0 686.856,2277.445 Z" style="stroke-width:2.0;stroke:rgb(115,115,115);stroke-linecap:round;fill:none;" />
<path d="M694.637,2031.616 A965.000,965.000 40.000 0,1 643.089,1943.766 L501.010,2017.344 A1125.000,1125.000 0.000 0,0 561.105,2119.759 Z" style="stroke-width:2.0;stroke:rgb(115,115,115);stroke-linecap:round;fill:rgb(253,208,162);" />
<text x="503.9" y="2169.1" font-size="195.0px" font-family="CMUBright-Bold" style="text-anchor:end;fill:rgb(0,0,0);" transform="rotate(-30.4,503.9,2169.1)" >17</text>
<path d="M694.637,2031.616 A965.000,965.000 40.000 0,1 643.089,1943.766 L501.010,2017.344 A1125.000,1125.000 0.000 0,0 561.105,2119.759 Z" style="stroke-width:2.0;stroke:rgb(115,115,115);stroke-linecap:round;fill:none;" />
<path d="M612.656,1879.269 A965.000,965.000 40.000 0,1 577.622,1783.627 L424.689,1830.653 A1125.000,1125.000 0.000 0,0 465.531,1942.153 Z" style="stroke-width:2.0;stroke:rgb(115,115,115);stroke-linecap:round;fill:rgb(253,208,162);" />
<text x="400.8" y="1981.4" font-size="195.0px" font-family="CMUBright-Bold" style="text-anchor:end;fill:rgb(0,0,0);" transform="rotate(-20.1,400.8,1981.4)" >20</text>
<path d="M612.656,1879.269 A965.000,965.000 40.000 0,1 577.622,1783.627 L424.689,1830.653 A1125.000,1125.000 0.000 0,0 465.531,1942.153 Z" style="stroke-width:2.0;stroke:rgb(115,115,115);stroke-linecap:round;fill:none;" />
<path d="M559.195,1714.733 A965.000,965.000 40.000 0,1 541.802,1614.372 L382.929,1633.336 A1125.000,1125.000 0.000 0,0 403.206,1750.336 Z" style="stroke-width:2.0;stroke:rgb(115,115,115);stroke-linecap:round;fill:rgb(253,208,162);" />
<text x="332.0" y="1775.4" font-size="195.0px" font-family="CMUBright-Bold" style="text-anchor:end;fill:rgb(0,0,0);" transform="rotate(-9.8,332.0,1775.4)" >21</text>
<path d="M559.195,1714.733 A965.000,965.000 40.000 0,1 541.802,1614.372 L382.929,1633.336 A1125.000,1125.000 0.000 0,0 403.206,1750.336 Z" style="stroke-width:2.0;stroke:rgb(115,115,115);stroke-linecap:round;fill:none;" />
<path d="M535.972,1543.295 A965.000,965.000 40.000 0,1 536.778,1441.441 L377.073,1431.732 A1125.000,1125.000 0.000 0,0 376.133,1550.473 Z" style="stroke-width:2.0;stroke:rgb(115,115,115);stroke-linecap:round;fill:rgb(253,208,162);" />
<text x="301.7" y="1564.5" font-size="195.0px" font-family="CMUBright-Bold" style="text-anchor:end;fill:rgb(0,0,0);" transform="rotate(0.5,301.7,1564.5)" >25</text>
<path d="M535.972,1543.295 A965.000,965.000 40.000 0,1 536.778,1441.441 L377.073,1431.732 A1125.000,1125.000 0.000 0,0 376.133,1550.473 Z" style="stroke-width:2.0;stroke:rgb(115,115,115);stroke-linecap:round;fill:none;" />
<path d="M543.733,1370.465 A965.000,965.000 40.000 0,1 562.714,1270.393 L407.309,1232.323 A1125.000,1125.000 0.000 0,0 385.182,1348.988 Z" style="stroke-width:2.0;stroke:rgb(115,115,115);stroke-linecap:round;fill:rgb(253,208,162);" />
<text x="309.5" y="1349.5" font-size="195.0px" font-family="CMUBright-Bold" style="text-anchor:end;fill:rgb(0,0,0);" transform="rotate(10.7,309.5,1349.5)" >34</text>
<path d="M543.733,1370.465 A965.000,965.000 40.000 0,1 562.714,1270.393 L407.309,1232.323 A1125.000,1125.000 0.000 0,0 385.182,1348.988 Z" style="stroke-width:2.0;stroke:rgb(115,115,115);stroke-linecap:round;fill:none;" />
<path d="M582.230,1201.799 A965.000,965.000 40.000 0,1 618.774,1106.724 L472.664,1041.517 A1125.000,1125.000 0.000 0,0 430.061,1152.356 Z" style="stroke-width:2.0;stroke:rgb(115,115,115);stroke-linecap:round;fill:rgb(253,141,60);" />
<text x="356.1" y="1137.4" font-size="195.0px" font-family="CMUBright-Bold" style="text-anchor:end;fill:rgb(0,0,0);" transform="rotate(21.0,356.1,1137.4)" >2</text>
<path d="M582.230,1201.799 A965.000,965.000 40.000 0,1 618.774,1106.724 L472.664,1041.517 A1125.000,1125.000 0.000 0,0 430.061,1152.356 Z" style="stroke-width:2.0;stroke:rgb(115,115,115);stroke-linecap:round;fill:none;" />
<path d="M650.225,1042.717 A965.000,965.000 40.000 0,1 703.158,955.695 L571.039,865.447 A1125.000,1125.000 0.000 0,0 509.330,966.898 Z" style="stroke-width:2.0;stroke:rgb(115,115,115);stroke-linecap:round;fill:rgb(253,141,60);" />
<text x="438.3" y="940.7" font-size="195.0px" font-family="CMUBright-Bold" style="text-anchor:end;fill:rgb(0,0,0);" transform="rotate(31.3,438.3,940.7)" >3</text>
<path d="M650.225,1042.717 A965.000,965.000 40.000 0,1 703.158,955.695 L571.039,865.447 A1125.000,1125.000 0.000 0,0 509.330,966.898 Z" style="stroke-width:2.0;stroke:rgb(115,115,115);stroke-linecap:round;fill:none;" />
<path d="M745.533,898.332 A965.000,965.000 40.000 0,1 813.153,822.160 L699.272,709.772 A1125.000,1125.000 0.000 0,0 620.440,798.574 Z" style="stroke-width:2.0;stroke:rgb(115,115,115);stroke-linecap:round;fill:rgb(253,141,60);" />
<text x="555.2" y="760.2" font-size="195.0px" font-family="CMUBright-Bold" style="text-anchor:end;fill:rgb(0,0,0);" transform="rotate(41.6,555.2,760.2)" >15</text>
<path d="M745.533,898.332 A965.000,965.000 40.000 0,1 813.153,822.160 L699.272,709.772 A1125.000,1125.000 0.000 0,0 620.440,798.574 Z" style="stroke-width:2.0;stroke:rgb(115,115,115);stroke-linecap:round;fill:none;" />
<path d="M865.089,773.286 A965.000,965.000 40.000 0,1 945.224,710.412 L853.241,579.496 A1125.000,1125.000 0.000 0,0 759.819,652.795 Z" style="stroke-width:2.0;stroke:rgb(115,115,115);stroke-linecap:round;fill:rgb(253,141,60);" />
<text x="702.5" y="603.4" font-size="195.0px" font-family="CMUBright-Bold" style="text-anchor:end;fill:rgb(0,0,0);" transform="rotate(51.9,702.5,603.4)" >30</text>
<path d="M865.089,773.286 A965.000,965.000 40.000 0,1 945.224,710.412 L853.241,579.496 A1125.000,1125.000 0.000 0,0 759.819,652.795 Z" style="stroke-width:2.0;stroke:rgb(115,115,115);stroke-linecap:round;fill:none;" />
<path d="M1005.052,671.597 A965.000,965.000 40.000 0,1 1095.126,624.042 L1027.997,478.806 A1125.000,1125.000 0.000 0,0 922.988,534.245 Z" style="stroke-width:2.0;stroke:rgb(115,115,115);stroke-linecap:round;fill:rgb(253,141,60);" />
<text x="875.4" y="475.4" font-size="195.0px" font-family="CMUBright-Bold" style="text-anchor:end;fill:rgb(0,0,0);" transform="rotate(62.2,875.4,475.4)" >33</text>
<path d="M1005.052,671.597 A965.000,965.000 40.000 0,1 1095.126,624.042 L1027.997,478.806 A1125.000,1125.000 0.000 0,0 922.988,534.245 Z" style="stroke-width:2.0;stroke:rgb(115,115,115);stroke-linecap:round;fill:none;" />
<path d="M1160.923,596.533 A965.000,965.000 40.000 0,1 1258.041,565.826 L1217.923,410.937 A1125.000,1125.000 0.000 0,0 1104.703,446.736 Z" style="stroke-width:2.0;stroke:rgb(115,115,115);stroke-linecap:round;fill:rgb(66,146,198);" />
<text x="1068.4" y="380.3" font-size="195.0px" font-family="CMUBright-Bold" style="text-anchor:end;fill:rgb(0,0,0);" transform="rotate(72.5,1068.4,380.3)" >31</text>
<path d="M1160.923,596.533 A965.000,965.000 40.000 0,1 1258.041,565.826 L1217.923,410.937 A1125.000,1125.000 0.000 0,0 1104.703,446.736 Z" style="stroke-width:2.0;stroke:rgb(115,115,115);stroke-linecap:round;fill:none;" />
<path d="M1327.693,550.508 A965.000,965.000 40.000 0,1 1428.732,537.635 L1416.916,378.072 A1125.000,1125.000 0.000 0,0 1299.123,393.079 Z" style="stroke-width:2.0;stroke:rgb(115,115,115);stroke-linecap:round;fill:rgb(66,146,198);" />
<text x="1275.3" y="321.2" font-size="195.0px" font-family="CMUBright-Bold" style="text-anchor:end;fill:rgb(0,0,0);" transform="rotate(82.7,1275.3,321.2)" >32</text>
<path d="M1327.693,550.508 A965.000,965.000 40.000 0,1 1428.732,537.635 L1416.916,378.072 A1125.000,1125.000 0.000 0,0 1299.123,393.079 Z" style="stroke-width:2.0;stroke:rgb(115,115,115);stroke-linecap:round;fill:none;" />
</g>
<g id="track_1">
<path d="M 1999.0,2269.1 L 1979.2,2237.8 1960.1,2206.1 1941.9,2173.9 1924.7,2141.6 1908.7,2109.1 1894.1,2076.6 1880.8,2044.2 1869.1,2011.9 1859.0,1980.0 1850.6,1948.4 1844.1,1917.3 1839.4,1886.7 1836.7,1856.7 1835.9,1827.4 1837.3,1798.9 1840.6,1771.2 1846.1,1744.3 1853.7,1718.4 1863.4,1693.4 1875.1,1669.5 1889.0,1646.5 1904.9,1624.7 1922.8,1604.0 1942.7,1584.3 1964.5,1565.9 1988.1,1548.5 2013.5,1532.4 2040.6,1517.4 2069.2,1503.6 2099.3,1490.9 2130.8,1479.3 2163.4,1468.9 2197.2,1459.6 2231.9,1451.4 2267.4,1444.2 2303.5,1438.0 2340.1,1432.8 2376.8,1428.5 2413.7,1425.1  " style="stroke-opacity: 1.000000; stroke-width: 5.0; stroke: rgb(251,106,74); fill: none"  />
<path d="M 1999.0,2269.1 L 1976.6,2233.9 1954.7,2198.0 1933.4,2161.4 1912.7,2124.0 1892.8,2086.0 1873.5,2047.4 1855.2,2008.2 1837.7,1968.4 1821.2,1928.2 1805.7,1887.4 1791.2,1846.1 1777.9,1804.5 1765.7,1762.4 1754.6,1720.0 1744.8,1677.3 1736.1,1634.4 1728.7,1591.1 1722.6,1547.7 1717.7,1504.1 1714.1,1460.4 1711.8,1416.6 1710.8,1372.8 1711.1,1329.0 1712.6,1285.2 1715.4,1241.4 1719.4,1197.8 1724.6,1154.3 1731.0,1111.0 1738.5,1068.0 1747.1,1025.2 1756.9,982.8 1767.6,940.7 1779.4,899.0 1792.0,857.8 1805.5,817.1 1819.9,776.9 1834.9,737.2 1850.7,698.2 1867.0,659.9  " style="stroke-opacity: 1.000000; stroke-width: 5.0; stroke: rgb(251,106,74); fill: none"  />
<path d="M 1999.0,2269.1 L 1978.5,2236.7 1958.8,2203.6 1939.9,2170.0 1922.0,2135.8 1905.2,2101.2 1889.7,2066.3 1875.5,2031.1 1862.8,1995.8 1851.6,1960.3 1842.0,1924.8 1834.2,1889.3 1828.1,1853.9 1823.7,1818.6 1821.3,1783.6 1820.8,1748.9 1822.2,1714.5 1825.5,1680.5 1830.8,1646.9 1838.1,1613.8 1847.4,1581.2 1858.6,1549.3 1871.8,1517.9 1886.8,1487.2 1903.7,1457.3 1922.5,1428.0 1943.0,1399.5 1965.2,1371.8 1989.0,1344.9 2014.4,1318.9 2041.3,1293.8 2069.5,1269.5 2098.9,1246.1 2129.5,1223.7 2161.0,1202.2 2193.5,1181.6 2226.7,1161.9 2260.5,1143.3 2294.6,1125.6 2329.1,1108.8  " style="stroke-opacity: 1.000000; stroke-width: 5.0; stroke: rgb(251,106,74); fill: none"  />
<path d="M 1999.0,2269.1 L 1975.5,2233.5 1951.2,2198.0 1926.2,2162.7 1900.3,2127.5 1873.7,2092.6 1846.2,2058.0 1818.0,2023.8 1788.9,1990.1 1759.1,1956.8 1728.4,1924.1 1697.0,1891.9 1664.9,1860.4 1632.0,1829.5 1598.3,1799.4 1563.9,1770.0 1528.9,1741.3 1493.1,1713.5 1456.7,1686.5 1419.7,1660.3 1382.0,1635.0 1343.8,1610.6 1305.0,1587.2 1265.7,1564.6 1225.9,1543.0 1185.7,1522.3 1145.0,1502.6 1104.0,1483.8 1062.7,1465.9 1021.0,1449.0 979.1,1433.1 937.0,1418.0 894.8,1403.9 852.4,1390.7 810.1,1378.4 767.7,1366.9 725.3,1356.3 683.1,1346.5 641.1,1337.4 599.3,1329.2  " style="stroke-opacity: 1.000000; stroke-width: 5.0; stroke: rgb(251,106,74); fill: none"  />
<path d="M 2413.7,1425.1 L 2376.8,1428.5 2340.1,1432.8 2303.5,1438.0 2267.4,1444.2 2231.9,1451.4 2197.2,1459.6 2163.4,1468.9 2130.8,1479.3 2099.3,1490.9 2069.2,1503.6 2040.6,1517.4 2013.5,1532.4 1988.1,1548.5 1964.5,1565.9 1942.7,1584.3 1922.8,1604.0 1904.9,1624.7 1889.0,1646.5 1875.1,1669.5 1863.4,1693.4 1853.7,1718.4 1846.1,1744.3 1840.6,1771.2 1837.3,1798.9 1835.9,1827.4 1836.7,1856.7 1839.4,1886.7 1844.1,1917.3 1850.6,1948.4 1859.0,1980.0 1869.1,2011.9 1880.8,2044.2 1894.1,2076.6 1908.7,2109.1 1924.7,2141.6 1941.9,2173.9 1960.1,2206.1 1979.2,2237.8 1999.0,2269.1  " style="stroke-opacity: 1.000000; stroke-width: 5.0; stroke: rgb(251,106,74); fill: none"  />
<path d="M 1548.4,584.5 L 1546.0,631.0 1543.6,677.5 1541.4,724.1 1539.2,770.8 1537.2,817.6 1535.2,864.4 1533.3,911.2 1531.6,958.2 1529.9,1005.1 1528.4,1052.1 1526.9,1099.2 1525.6,1146.3 1524.4,1193.4 1523.3,1240.5 1522.3,1287.7 1521.4,1334.9 1520.7,1382.1 1520.1,1429.3 1519.6,1476.5 1519.2,1523.8 1519.0,1571.0 1518.8,1618.2 1518.8,1665.4 1518.9,1712.6 1519.2,1759.8 1519.5,1807.0 1520.0,1854.1 1520.6,1901.2 1521.3,1948.3 1522.1,1995.3 1523.0,2042.3 1524.0,2089.2 1525.1,2136.1 1526.4,2182.9 1527.7,2229.7 1529.1,2276.4 1530.6,2323.1 1532.2,2369.6 1533.9,2416.1  " style="stroke-opacity: 1.000000; stroke-width: 5.0; stroke: rgb(251,106,74); fill: none"  />
<path d="M 1548.4,584.5 L 1545.9,630.0 1543.1,675.6 1540.0,721.5 1536.6,767.4 1533.0,813.5 1529.0,859.8 1524.8,906.1 1520.2,952.6 1515.2,999.1 1510.0,1045.7 1504.4,1092.3 1498.4,1139.0 1492.1,1185.7 1485.4,1232.4 1478.4,1279.1 1471.0,1325.8 1463.3,1372.5 1455.1,1419.2 1446.7,1465.8 1437.9,1512.3 1428.7,1558.8 1419.1,1605.2 1409.2,1651.4 1399.0,1697.6 1388.4,1743.7 1377.5,1789.6 1366.3,1835.4 1354.8,1881.0 1342.9,1926.4 1330.8,1971.7 1318.3,2016.8 1305.6,2061.7 1292.6,2106.4 1279.4,2150.9 1265.9,2195.1 1252.2,2239.1 1238.2,2282.9 1224.1,2326.4 1209.8,2369.6  " style="stroke-opacity: 1.000000; stroke-width: 5.0; stroke: rgb(251,106,74); fill: none"  />
<path d="M 2412.4,1589.4 L 2375.5,1586.2 2338.6,1583.9 2301.7,1582.5 2265.0,1582.1 2228.8,1582.9 2193.2,1584.8 2158.3,1587.9 2124.3,1592.3 2091.3,1598.0 2059.4,1605.1 2028.8,1613.6 1999.5,1623.6 1971.6,1634.9 1945.2,1647.7 1920.5,1662.0 1897.4,1677.8 1876.1,1695.0 1856.6,1713.6 1838.8,1733.7 1823.0,1755.2 1809.0,1778.0 1796.9,1802.2 1786.7,1827.6 1778.5,1854.3 1772.1,1882.2 1767.6,1911.1 1764.9,1941.1 1764.0,1972.0 1764.9,2003.8 1767.5,2036.4 1771.7,2069.6 1777.5,2103.4 1784.8,2137.7 1793.4,2172.3 1803.3,2207.1 1814.5,2242.0 1826.6,2276.9 1839.7,2311.5 1853.6,2345.8  " style="stroke-opacity: 1.000000; stroke-width: 5.0; stroke: rgb(251,106,74); fill: none"  />
<path d="M 1853.6,2345.8 L 1839.7,2311.5 1826.6,2276.9 1814.5,2242.0 1803.3,2207.1 1793.4,2172.3 1784.8,2137.7 1777.5,2103.4 1771.7,2069.6 1767.5,2036.4 1764.9,2003.8 1764.0,1972.0 1764.9,1941.1 1767.6,1911.1 1772.1,1882.2 1778.5,1854.3 1786.7,1827.6 1796.9,1802.2 1809.0,1778.0 1823.0,1755.2 1838.8,1733.7 1856.6,1713.6 1876.1,1695.0 1897.4,1677.8 1920.5,1662.0 1945.2,1647.7 1971.6,1634.9 1999.5,1623.6 2028.8,1613.6 2059.4,1605.1 2091.3,1598.0 2124.3,1592.3 2158.3,1587.9 2193.2,1584.8 2228.8,1582.9 2265.0,1582.1 2301.7,1582.5 2338.6,1583.9 2375.5,1586.2 2412.4,1589.4  " style="stroke-opacity: 1.000000; stroke-width: 5.0; stroke: rgb(251,106,74); fill: none"  />
<path d="M 1853.6,2345.8 L 1839.0,2311.8 1823.5,2278.2 1807.3,2245.0 1790.2,2212.6 1772.4,2181.1 1753.9,2150.6 1734.6,2121.4 1714.6,2093.5 1693.9,2067.2 1672.5,2042.4 1650.5,2019.5 1627.9,1998.4 1604.7,1979.2 1580.9,1962.1 1556.6,1947.1 1531.8,1934.2 1506.5,1923.6 1480.8,1915.2 1454.8,1909.1 1428.3,1905.3 1401.6,1903.9 1374.6,1904.7 1347.4,1907.8 1319.9,1913.1 1292.4,1920.7 1264.8,1930.4 1237.1,1942.3 1209.5,1956.2 1181.9,1972.0 1154.4,1989.7 1127.2,2009.2 1100.1,2030.3 1073.4,2052.9 1047.0,2077.0 1021.1,2102.2 995.6,2128.5 970.7,2155.8 946.4,2183.7 922.8,2212.2  " style="stroke-opacity: 1.000000; stroke-width: 5.0; stroke: rgb(251,106,74); fill: none"  />
<path d="M 1711.1,607.9 L 1701.1,648.3 1690.3,689.0 1678.5,729.7 1665.8,770.4 1652.2,811.1 1637.5,851.7 1621.9,892.1 1605.2,932.2 1587.5,972.0 1568.7,1011.3 1548.9,1050.3 1528.0,1088.7 1506.1,1126.6 1483.1,1163.9 1459.0,1200.5 1433.9,1236.5 1407.8,1271.7 1380.7,1306.1 1352.5,1339.8 1323.4,1372.6 1293.4,1404.5 1262.4,1435.5 1230.5,1465.6 1197.8,1494.8 1164.3,1523.0 1130.0,1550.3 1095.0,1576.6 1059.3,1601.9 1022.9,1626.2 986.0,1649.5 948.6,1671.8 910.8,1693.1 872.6,1713.4 834.0,1732.7 795.2,1751.1 756.3,1768.6 717.2,1785.0 678.2,1800.6 639.2,1815.3  " style="stroke-opacity: 1.000000; stroke-width: 5.0; stroke: rgb(251,106,74); fill: none"  />
<path d="M 1696.9,2395.4 L 1688.7,2359.8 1679.8,2324.5 1670.1,2289.6 1659.6,2255.4 1648.4,2222.0 1636.4,2189.7 1623.6,2158.5 1610.0,2128.7 1595.6,2100.5 1580.5,2073.8 1564.5,2049.0 1547.9,2026.0 1530.4,2005.0 1512.2,1986.1 1493.4,1969.3 1473.8,1954.8 1453.5,1942.5 1432.6,1932.5 1411.1,1924.9 1389.0,1919.7 1366.4,1916.9 1343.3,1916.4 1319.7,1918.3 1295.7,1922.5 1271.3,1929.0 1246.5,1937.8 1221.5,1948.8 1196.3,1961.8 1170.9,1976.9 1145.4,1993.9 1119.9,2012.8 1094.4,2033.3 1069.0,2055.4 1043.8,2079.0 1018.8,2103.8 994.1,2129.7 969.8,2156.5 946.0,2184.1 922.8,2212.2  " style="stroke-opacity: 1.000000; stroke-width: 5.0; stroke: rgb(251,106,74); fill: none"  />
<path d="M 1696.9,2395.4 L 1688.4,2358.7 1679.0,2322.2 1668.5,2285.9 1657.1,2250.1 1644.7,2215.0 1631.2,2180.6 1616.7,2147.2 1601.1,2114.8 1584.4,2083.6 1566.7,2053.7 1547.8,2025.3 1527.9,1998.4 1507.0,1973.1 1484.9,1949.5 1461.9,1927.7 1437.8,1907.7 1412.7,1889.6 1386.6,1873.5 1359.7,1859.3 1331.8,1847.1 1303.0,1837.0 1273.5,1828.8 1243.2,1822.7 1212.1,1818.6 1180.5,1816.5 1148.2,1816.4 1115.4,1818.2 1082.1,1821.9 1048.4,1827.4 1014.5,1834.6 980.3,1843.6 945.9,1854.2 911.5,1866.2 877.1,1879.7 842.9,1894.5 808.9,1910.4 775.2,1927.4 742.0,1945.3 709.3,1964.0  " style="stroke-opacity: 1.000000; stroke-width: 5.0; stroke: rgb(251,106,74); fill: none"  />
<path d="M 1696.9,2395.4 L 1689.5,2360.1 1682.7,2324.8 1676.7,2289.8 1671.5,2255.1 1667.3,2221.0 1664.1,2187.7 1662.0,2155.3 1661.1,2124.0 1661.4,2093.9 1662.9,2065.2 1665.8,2037.9 1670.0,2012.3 1675.5,1988.4 1682.5,1966.2 1690.9,1946.0 1700.7,1927.7 1712.0,1911.4 1724.7,1897.1 1738.7,1884.9 1754.2,1874.9 1771.1,1867.0 1789.2,1861.2 1808.7,1857.6 1829.5,1856.1 1851.4,1856.7 1874.4,1859.3 1898.6,1864.0 1923.7,1870.6 1949.7,1879.1 1976.6,1889.4 2004.2,1901.4 2032.4,1915.0 2061.1,1930.1 2090.2,1946.6 2119.6,1964.4 2149.2,1983.2 2178.8,2003.0 2208.2,2023.6 2237.4,2044.7  " style="stroke-opacity: 1.000000; stroke-width: 5.0; stroke: rgb(251,106,74); fill: none"  />
<path d="M 1867.0,659.9 L 1850.7,698.2 1834.9,737.2 1819.9,776.9 1805.5,817.1 1792.0,857.8 1779.4,899.0 1767.6,940.7 1756.9,982.8 1747.1,1025.2 1738.5,1068.0 1731.0,1111.0 1724.6,1154.3 1719.4,1197.8 1715.4,1241.4 1712.6,1285.2 1711.1,1329.0 1710.8,1372.8 1711.8,1416.6 1714.1,1460.4 1717.7,1504.1 1722.6,1547.7 1728.7,1591.1 1736.1,1634.4 1744.8,1677.3 1754.6,1720.0 1765.7,1762.4 1777.9,1804.5 1791.2,1846.1 1805.7,1887.4 1821.2,1928.2 1837.7,1968.4 1855.2,2008.2 1873.5,2047.4 1892.8,2086.0 1912.7,2124.0 1933.4,2161.4 1954.7,2198.0 1976.6,2233.9 1999.0,2269.1  " style="stroke-opacity: 1.000000; stroke-width: 5.0; stroke: rgb(251,106,74); fill: none"  />
<path d="M 922.8,2212.2 L 946.4,2183.7 970.7,2155.8 995.6,2128.5 1021.1,2102.2 1047.0,2077.0 1073.4,2052.9 1100.1,2030.3 1127.2,2009.2 1154.4,1989.7 1181.9,1972.0 1209.5,1956.2 1237.1,1942.3 1264.8,1930.4 1292.4,1920.7 1319.9,1913.1 1347.4,1907.8 1374.6,1904.7 1401.6,1903.9 1428.3,1905.3 1454.8,1909.1 1480.8,1915.2 1506.5,1923.6 1531.8,1934.2 1556.6,1947.1 1580.9,1962.1 1604.7,1979.2 1627.9,1998.4 1650.5,2019.5 1672.5,2042.4 1693.9,2067.2 1714.6,2093.5 1734.6,2121.4 1753.9,2150.6 1772.4,2181.1 1790.2,2212.6 1807.3,2245.0 1823.5,2278.2 1839.0,2311.8 1853.6,2345.8  " style="stroke-opacity: 1.000000; stroke-width: 5.0; stroke: rgb(251,106,74); fill: none"  />
<path d="M 922.8,2212.2 L 946.0,2184.1 969.8,2156.5 994.1,2129.7 1018.8,2103.8 1043.8,2079.0 1069.0,2055.4 1094.4,2033.3 1119.9,2012.8 1145.4,1993.9 1170.9,1976.9 1196.3,1961.8 1221.5,1948.8 1246.5,1937.8 1271.3,1929.0 1295.7,1922.5 1319.7,1918.3 1343.3,1916.4 1366.4,1916.9 1389.0,1919.7 1411.1,1924.9 1432.6,1932.5 1453.5,1942.5 1473.8,1954.8 1493.4,1969.3 1512.2,1986.1 1530.4,2005.0 1547.9,2026.0 1564.5,2049.0 1580.5,2073.8 1595.6,2100.5 1610.0,2128.7 1623.6,2158.5 1636.4,2189.7 1648.4,2222.0 1659.6,2255.4 1670.1,2289.6 1679.8,2324.5 1688.7,2359.8 1696.9,2395.4  " style="stroke-opacity: 1.000000; stroke-width: 5.0; stroke: rgb(251,106,74); fill: none"  />
<path d="M 922.8,2212.2 L 945.4,2184.6 968.3,2157.5 991.4,2131.1 1014.5,2105.6 1037.6,2081.1 1060.5,2057.9 1083.1,2036.0 1105.4,2015.8 1127.3,1997.2 1148.6,1980.4 1169.3,1965.6 1189.4,1952.8 1208.7,1942.1 1227.2,1933.6 1244.9,1927.3 1261.7,1923.4 1277.6,1921.9 1292.4,1922.7 1306.3,1925.9 1319.2,1931.5 1330.9,1939.5 1341.7,1949.9 1351.3,1962.6 1359.8,1977.5 1367.3,1994.8 1373.6,2014.1 1378.9,2035.6 1383.2,2059.0 1386.4,2084.3 1388.5,2111.3 1389.7,2140.0 1390.0,2170.1 1389.4,2201.5 1387.9,2234.1 1385.6,2267.7 1382.6,2302.0 1378.9,2336.9 1374.6,2372.1 1369.8,2407.5  " style="stroke-opacity: 1.000000; stroke-width: 5.0; stroke: rgb(251,106,74); fill: none"  />
<path d="M 922.8,2212.2 L 945.2,2184.8 967.7,2157.8 990.3,2131.4 1012.7,2105.8 1034.8,2081.2 1056.6,2057.8 1077.9,2035.7 1098.6,2015.1 1118.6,1996.1 1137.9,1978.9 1156.3,1963.5 1173.8,1950.1 1190.3,1938.8 1205.8,1929.6 1220.2,1922.6 1233.4,1917.8 1245.4,1915.4 1256.2,1915.2 1265.7,1917.4 1274.0,1921.9 1281.0,1928.8 1286.7,1938.0 1291.0,1949.4 1294.1,1963.1 1295.9,1979.0 1296.5,1997.0 1295.8,2017.0 1293.9,2039.0 1290.9,2062.8 1286.7,2088.3 1281.5,2115.4 1275.2,2143.9 1268.1,2173.7 1260.0,2204.7 1251.2,2236.6 1241.7,2269.2 1231.5,2302.4 1220.9,2336.0 1209.8,2369.6  " style="stroke-opacity: 1.000000; stroke-width: 5.0; stroke: rgb(251,106,74); fill: none"  />
<path d="M 922.8,2212.2 L 945.0,2184.9 967.3,2157.8 989.3,2131.3 1011.1,2105.5 1032.4,2080.6 1053.1,2056.8 1073.2,2034.2 1092.4,2013.0 1110.7,1993.3 1128.0,1975.3 1144.3,1959.0 1159.4,1944.5 1173.2,1932.0 1185.8,1921.6 1197.0,1913.2 1206.8,1906.9 1215.2,1902.9 1222.1,1901.1 1227.6,1901.5 1231.5,1904.1 1233.9,1909.0 1234.8,1916.1 1234.3,1925.4 1232.2,1936.8 1228.7,1950.4 1223.7,1966.0 1217.4,1983.5 1209.8,2002.9 1200.8,2024.1 1190.7,2047.0 1179.4,2071.4 1167.0,2097.3 1153.7,2124.4 1139.5,2152.6 1124.5,2181.7 1108.9,2211.6 1092.7,2242.0 1076.1,2272.9 1059.2,2303.8  " style="stroke-opacity: 1.000000; stroke-width: 5.0; stroke: rgb(251,106,74); fill: none"  />
<path d="M 1533.9,2416.1 L 1532.2,2369.6 1530.6,2323.1 1529.1,2276.4 1527.7,2229.7 1526.4,2182.9 1525.1,2136.1 1524.0,2089.2 1523.0,2042.3 1522.1,1995.3 1521.3,1948.3 1520.6,1901.2 1520.0,1854.1 1519.5,1807.0 1519.2,1759.8 1518.9,1712.6 1518.8,1665.4 1518.8,1618.2 1519.0,1571.0 1519.2,1523.8 1519.6,1476.5 1520.1,1429.3 1520.7,1382.1 1521.4,1334.9 1522.3,1287.7 1523.3,1240.5 1524.4,1193.4 1525.6,1146.3 1526.9,1099.2 1528.4,1052.1 1529.9,1005.1 1531.6,958.2 1533.3,911.2 1535.2,864.4 1537.2,817.6 1539.2,770.8 1541.4,724.1 1543.6,677.5 1546.0,631.0 1548.4,584.5  " style="stroke-opacity: 1.000000; stroke-width: 5.0; stroke: rgb(251,106,74); fill: none"  />
<path d="M 1533.9,2416.1 L 1532.2,2379.7 1529.7,2343.4 1526.4,2307.3 1522.2,2271.8 1517.1,2236.9 1511.1,2203.0 1504.0,2170.0 1496.0,2138.3 1486.9,2107.9 1476.7,2079.0 1465.5,2051.7 1453.2,2026.1 1439.8,2002.3 1425.3,1980.4 1409.7,1960.6 1393.0,1942.8 1375.3,1927.1 1356.5,1913.6 1336.7,1902.2 1315.9,1893.2 1294.1,1886.3 1271.4,1881.7 1247.9,1879.4 1223.5,1879.2 1198.3,1881.3 1172.4,1885.5 1145.9,1891.8 1118.7,1900.2 1091.1,1910.5 1062.9,1922.7 1034.5,1936.7 1005.7,1952.3 976.8,1969.6 947.7,1988.2 918.7,2008.2 889.8,2029.2 861.1,2051.3 832.8,2074.2 804.9,2097.7  " style="stroke-opacity: 1.000000; stroke-width: 5.0; stroke: rgb(251,106,74); fill: none"  />
<path d="M 1533.9,2416.1 L 1532.0,2377.1 1529.1,2337.9 1525.1,2298.6 1520.1,2259.3 1513.8,2220.2 1506.4,2181.4 1497.7,2143.0 1487.7,2105.1 1476.4,2067.8 1463.7,2031.2 1449.7,1995.3 1434.3,1960.4 1417.4,1926.3 1399.2,1893.3 1379.5,1861.4 1358.5,1830.6 1336.1,1801.1 1312.3,1772.7 1287.1,1745.7 1260.6,1720.0 1232.8,1695.6 1203.8,1672.6 1173.6,1651.0 1142.2,1630.9 1109.8,1612.2 1076.2,1594.9 1041.7,1579.1 1006.3,1564.7 970.1,1551.7 933.2,1540.1 895.5,1529.8 857.4,1521.0 818.7,1513.4 779.7,1507.1 740.4,1502.0 701.0,1498.1 661.6,1495.3 622.3,1493.5 583.3,1492.7  " style="stroke-opacity: 1.000000; stroke-width: 5.0; stroke: rgb(251,106,74); fill: none"  />
<path d="M 804.9,2097.7 L 832.8,2074.2 861.1,2051.3 889.8,2029.2 918.7,2008.2 947.7,1988.2 976.8,1969.6 1005.7,1952.3 1034.5,1936.7 1062.9,1922.7 1091.1,1910.5 1118.7,1900.2 1145.9,1891.8 1172.4,1885.5 1198.3,1881.3 1223.5,1879.2 1247.9,1879.4 1271.4,1881.7 1294.1,1886.3 1315.9,1893.2 1336.7,1902.2 1356.5,1913.6 1375.3,1927.1 1393.0,1942.8 1409.7,1960.6 1425.3,1980.4 1439.8,2002.3 1453.2,2026.1 1465.5,2051.7 1476.7,2079.0 1486.9,2107.9 1496.0,2138.3 1504.0,2170.0 1511.1,2203.0 1517.1,2236.9 1522.2,2271.8 1526.4,2307.3 1529.7,2343.4 1532.2,2379.7 1533.9,2416.1  " style="stroke-opacity: 1.000000; stroke-width: 5.0; stroke: rgb(251,106,74); fill: none"  />
<path d="M 709.3,1964.0 L 742.0,1945.3 775.2,1927.4 808.9,1910.4 842.9,1894.5 877.1,1879.7 911.5,1866.2 945.9,1854.2 980.3,1843.6 1014.5,1834.6 1048.4,1827.4 1082.1,1821.9 1115.4,1818.2 1148.2,1816.4 1180.5,1816.5 1212.1,1818.6 1243.2,1822.7 1273.5,1828.8 1303.0,1837.0 1331.8,1847.1 1359.7,1859.3 1386.6,1873.5 1412.7,1889.6 1437.8,1907.7 1461.9,1927.7 1484.9,1949.5 1507.0,1973.1 1527.9,1998.4 1547.8,2025.3 1566.7,2053.7 1584.4,2083.6 1601.1,2114.8 1616.7,2147.2 1631.2,2180.6 1644.7,2215.0 1657.1,2250.1 1668.5,2285.9 1679.0,2322.2 1688.4,2358.7 1696.9,2395.4  " style="stroke-opacity: 1.000000; stroke-width: 5.0; stroke: rgb(251,106,74); fill: none"  />
<path d="M 2237.4,2044.7 L 2208.2,2023.6 2178.8,2003.0 2149.2,1983.2 2119.6,1964.4 2090.2,1946.6 2061.1,1930.1 2032.4,1915.0 2004.2,1901.4 1976.6,1889.4 1949.7,1879.1 1923.7,1870.6 1898.6,1864.0 1874.4,1859.3 1851.4,1856.7 1829.5,1856.1 1808.7,1857.6 1789.2,1861.2 1771.1,1867.0 1754.2,1874.9 1738.7,1884.9 1724.7,1897.1 1712.0,1911.4 1700.7,1927.7 1690.9,1946.0 1682.5,1966.2 1675.5,1988.4 1670.0,2012.3 1665.8,2037.9 1662.9,2065.2 1661.4,2093.9 1661.1,2124.0 1662.0,2155.3 1664.1,2187.7 1667.3,2221.0 1671.5,2255.1 1676.7,2289.8 1682.7,2324.8 1689.5,2360.1 1696.9,2395.4  " style="stroke-opacity: 1.000000; stroke-width: 5.0; stroke: rgb(251,106,74); fill: none"  />
<path d="M 639.2,1815.3 L 678.2,1800.6 717.2,1785.0 756.3,1768.6 795.2,1751.1 834.0,1732.7 872.6,1713.4 910.8,1693.1 948.6,1671.8 986.0,1649.5 1022.9,1626.2 1059.3,1601.9 1095.0,1576.6 1130.0,1550.3 1164.3,1523.0 1197.8,1494.8 1230.5,1465.6 1262.4,1435.5 1293.4,1404.5 1323.4,1372.6 1352.5,1339.8 1380.7,1306.1 1407.8,1271.7 1433.9,1236.5 1459.0,1200.5 1483.1,1163.9 1506.1,1126.6 1528.0,1088.7 1548.9,1050.3 1568.7,1011.3 1587.5,972.0 1605.2,932.2 1621.9,892.1 1637.5,851.7 1652.2,811.1 1665.8,770.4 1678.5,729.7 1690.3,689.0 1701.1,648.3 1711.1,607.9  " style="stroke-opacity: 1.000000; stroke-width: 5.0; stroke: rgb(251,106,74); fill: none"  />
<path d="M 596.7,1656.5 L 642.5,1648.6 688.4,1640.5 734.4,1632.3 780.4,1624.0 826.4,1615.6 872.5,1607.1 918.6,1598.5 964.7,1589.8 1010.9,1581.0 1057.0,1572.0 1103.2,1562.9 1149.4,1553.8 1195.6,1544.5 1241.9,1535.0 1288.1,1525.5 1334.3,1515.8 1380.4,1506.0 1426.6,1496.1 1472.8,1486.1 1518.9,1476.0 1565.0,1465.7 1611.1,1455.3 1657.1,1444.8 1703.1,1434.2 1749.0,1423.5 1794.9,1412.7 1840.8,1401.7 1886.6,1390.7 1932.3,1379.5 1978.0,1368.3 2023.6,1356.9 2069.1,1345.5 2114.6,1334.0 2160.0,1322.3 2205.3,1310.6 2250.5,1298.9 2295.6,1287.0 2340.7,1275.1 2385.6,1263.1  " style="stroke-opacity: 1.000000; stroke-width: 5.0; stroke: rgb(251,106,74); fill: none"  />
<path d="M 583.3,1492.7 L 622.3,1493.5 661.6,1495.3 701.0,1498.1 740.4,1502.0 779.7,1507.1 818.7,1513.4 857.4,1521.0 895.5,1529.8 933.2,1540.1 970.1,1551.7 1006.3,1564.7 1041.7,1579.1 1076.2,1594.9 1109.8,1612.2 1142.2,1630.9 1173.6,1651.0 1203.8,1672.6 1232.8,1695.6 1260.6,1720.0 1287.1,1745.7 1312.3,1772.7 1336.1,1801.1 1358.5,1830.6 1379.5,1861.4 1399.2,1893.3 1417.4,1926.3 1434.3,1960.4 1449.7,1995.3 1463.7,2031.2 1476.4,2067.8 1487.7,2105.1 1497.7,2143.0 1506.4,2181.4 1513.8,2220.2 1520.1,2259.3 1525.1,2298.6 1529.1,2337.9 1532.0,2377.1 1533.9,2416.1  " style="stroke-opacity: 1.000000; stroke-width: 5.0; stroke: rgb(251,106,74); fill: none"  />
<path d="M 583.3,1492.7 L 620.9,1493.5 658.6,1495.2 696.2,1497.8 733.6,1501.6 770.6,1506.5 807.0,1512.5 842.7,1519.8 877.6,1528.4 911.6,1538.2 944.4,1549.4 976.2,1562.0 1006.6,1575.9 1035.7,1591.1 1063.3,1607.8 1089.5,1625.9 1114.0,1645.3 1136.9,1666.1 1158.1,1688.2 1177.6,1711.7 1195.2,1736.5 1211.1,1762.5 1225.2,1789.7 1237.5,1818.1 1247.9,1847.6 1256.5,1878.2 1263.3,1909.7 1268.4,1942.2 1271.6,1975.5 1273.2,2009.6 1273.1,2044.3 1271.5,2079.6 1268.2,2115.4 1263.6,2151.6 1257.5,2188.0 1250.1,2224.5 1241.6,2261.1 1231.9,2297.6 1221.3,2333.8 1209.8,2369.6  " style="stroke-opacity: 1.000000; stroke-width: 5.0; stroke: rgb(251,106,74); fill: none"  />
<path d="M 2329.1,1108.8 L 2294.6,1125.6 2260.5,1143.3 2226.7,1161.9 2193.5,1181.6 2161.0,1202.2 2129.5,1223.7 2098.9,1246.1 2069.5,1269.5 2041.3,1293.8 2014.4,1318.9 1989.0,1344.9 1965.2,1371.8 1943.0,1399.5 1922.5,1428.0 1903.7,1457.3 1886.8,1487.2 1871.8,1517.9 1858.6,1549.3 1847.4,1581.2 1838.1,1613.8 1830.8,1646.9 1825.5,1680.5 1822.2,1714.5 1820.8,1748.9 1821.3,1783.6 1823.7,1818.6 1828.1,1853.9 1834.2,1889.3 1842.0,1924.8 1851.6,1960.3 1862.8,1995.8 1875.5,2031.1 1889.7,2066.3 1905.2,2101.2 1922.0,2135.8 1939.9,2170.0 1958.8,2203.6 1978.5,2236.7 1999.0,2269.1  " style="stroke-opacity: 1.000000; stroke-width: 5.0; stroke: rgb(251,106,74); fill: none"  />
<path d="M 1369.8,2407.5 L 1374.6,2372.1 1378.9,2336.9 1382.6,2302.0 1385.6,2267.7 1387.9,2234.1 1389.4,2201.5 1390.0,2170.1 1389.7,2140.0 1388.5,2111.3 1386.4,2084.3 1383.2,2059.0 1378.9,2035.6 1373.6,2014.1 1367.3,1994.8 1359.8,1977.5 1351.3,1962.6 1341.7,1949.9 1330.9,1939.5 1319.2,1931.5 1306.3,1925.9 1292.4,1922.7 1277.6,1921.9 1261.7,1923.4 1244.9,1927.3 1227.2,1933.6 1208.7,1942.1 1189.4,1952.8 1169.3,1965.6 1148.6,1980.4 1127.3,1997.2 1105.4,2015.8 1083.1,2036.0 1060.5,2057.9 1037.6,2081.1 1014.5,2105.6 991.4,2131.1 968.3,2157.5 945.4,2184.6 922.8,2212.2  " style="stroke-opacity: 1.000000; stroke-width: 5.0; stroke: rgb(251,106,74); fill: none"  />
<path d="M 1209.8,2369.6 L 1224.1,2326.4 1238.2,2282.9 1252.2,2239.1 1265.9,2195.1 1279.4,2150.9 1292.6,2106.4 1305.6,2061.7 1318.3,2016.8 1330.8,1971.7 1342.9,1926.4 1354.8,1881.0 1366.3,1835.4 1377.5,1789.6 1388.4,1743.7 1399.0,1697.6 1409.2,1651.4 1419.1,1605.2 1428.7,1558.8 1437.9,1512.3 1446.7,1465.8 1455.1,1419.2 1463.3,1372.5 1471.0,1325.8 1478.4,1279.1 1485.4,1232.4 1492.1,1185.7 1498.4,1139.0 1504.4,1092.3 1510.0,1045.7 1515.2,999.1 1520.2,952.6 1524.8,906.1 1529.0,859.8 1533.0,813.5 1536.6,767.4 1540.0,721.5 1543.1,675.6 1545.9,630.0 1548.4,584.5  " style="stroke-opacity: 1.000000; stroke-width: 5.0; stroke: rgb(251,106,74); fill: none"  />
<path d="M 1209.8,2369.6 L 1220.9,2336.0 1231.5,2302.4 1241.7,2269.2 1251.2,2236.6 1260.0,2204.7 1268.1,2173.7 1275.2,2143.9 1281.5,2115.4 1286.7,2088.3 1290.9,2062.8 1293.9,2039.0 1295.8,2017.0 1296.5,1997.0 1295.9,1979.0 1294.1,1963.1 1291.0,1949.4 1286.7,1938.0 1281.0,1928.8 1274.0,1921.9 1265.7,1917.4 1256.2,1915.2 1245.4,1915.4 1233.4,1917.8 1220.2,1922.6 1205.8,1929.6 1190.3,1938.8 1173.8,1950.1 1156.3,1963.5 1137.9,1978.9 1118.6,1996.1 1098.6,2015.1 1077.9,2035.7 1056.6,2057.8 1034.8,2081.2 1012.7,2105.8 990.3,2131.4 967.7,2157.8 945.2,2184.8 922.8,2212.2  " style="stroke-opacity: 1.000000; stroke-width: 5.0; stroke: rgb(251,106,74); fill: none"  />
<path d="M 1209.8,2369.6 L 1221.3,2333.8 1231.9,2297.6 1241.6,2261.1 1250.1,2224.5 1257.5,2188.0 1263.6,2151.6 1268.2,2115.4 1271.5,2079.6 1273.1,2044.3 1273.2,2009.6 1271.6,1975.5 1268.4,1942.2 1263.3,1909.7 1256.5,1878.2 1247.9,1847.6 1237.5,1818.1 1225.2,1789.7 1211.1,1762.5 1195.2,1736.5 1177.6,1711.7 1158.1,1688.2 1136.9,1666.1 1114.0,1645.3 1089.5,1625.9 1063.3,1607.8 1035.7,1591.1 1006.6,1575.9 976.2,1562.0 944.4,1549.4 911.6,1538.2 877.6,1528.4 842.7,1519.8 807.0,1512.5 770.6,1506.5 733.6,1501.6 696.2,1497.8 658.6,1495.2 620.9,1493.5 583.3,1492.7  " style="stroke-opacity: 1.000000; stroke-width: 5.0; stroke: rgb(251,106,74); fill: none"  />
<path d="M 1059.2,2303.8 L 1076.1,2272.9 1092.7,2242.0 1108.9,2211.6 1124.5,2181.7 1139.5,2152.6 1153.7,2124.4 1167.0,2097.3 1179.4,2071.4 1190.7,2047.0 1200.8,2024.1 1209.8,2002.9 1217.4,1983.5 1223.7,1966.0 1228.7,1950.4 1232.2,1936.8 1234.3,1925.4 1234.8,1916.1 1233.9,1909.0 1231.5,1904.1 1227.6,1901.5 1222.1,1901.1 1215.2,1902.9 1206.8,1906.9 1197.0,1913.2 1185.8,1921.6 1173.2,1932.0 1159.4,1944.5 1144.3,1959.0 1128.0,1975.3 1110.7,1993.3 1092.4,2013.0 1073.2,2034.2 1053.1,2056.8 1032.4,2080.6 1011.1,2105.5 989.3,2131.3 967.3,2157.8 945.0,2184.9 922.8,2212.2  " style="stroke-opacity: 1.000000; stroke-width: 5.0; stroke: rgb(251,106,74); fill: none"  />
<path d="M 599.3,1329.2 L 641.1,1337.4 683.1,1346.5 725.3,1356.3 767.7,1366.9 810.1,1378.4 852.4,1390.7 894.8,1403.9 937.0,1418.0 979.1,1433.1 1021.0,1449.0 1062.7,1465.9 1104.0,1483.8 1145.0,1502.6 1185.7,1522.3 1225.9,1543.0 1265.7,1564.6 1305.0,1587.2 1343.8,1610.6 1382.0,1635.0 1419.7,1660.3 1456.7,1686.5 1493.1,1713.5 1528.9,1741.3 1563.9,1770.0 1598.3,1799.4 1632.0,1829.5 1664.9,1860.4 1697.0,1891.9 1728.4,1924.1 1759.1,1956.8 1788.9,1990.1 1818.0,2023.8 1846.2,2058.0 1873.7,2092.6 1900.3,2127.5 1926.2,2162.7 1951.2,2198.0 1975.5,2233.5 1999.0,2269.1  " style="stroke-opacity: 1.000000; stroke-width: 5.0; stroke: rgb(251,106,74); fill: none"  />
<path d="M 2385.6,1263.1 L 2340.7,1275.1 2295.6,1287.0 2250.5,1298.9 2205.3,1310.6 2160.0,1322.3 2114.6,1334.0 2069.1,1345.5 2023.6,1356.9 1978.0,1368.3 1932.3,1379.5 1886.6,1390.7 1840.8,1401.7 1794.9,1412.7 1749.0,1423.5 1703.1,1434.2 1657.1,1444.8 1611.1,1455.3 1565.0,1465.7 1518.9,1476.0 1472.8,1486.1 1426.6,1496.1 1380.4,1506.0 1334.3,1515.8 1288.1,1525.5 1241.9,1535.0 1195.6,1544.5 1149.4,1553.8 1103.2,1562.9 1057.0,1572.0 1010.9,1581.0 964.7,1589.8 918.6,1598.5 872.5,1607.1 826.4,1615.6 780.4,1624.0 734.4,1632.3 688.4,1640.5 642.5,1648.6 596.7,1656.5  " style="stroke-opacity: 1.000000; stroke-width: 5.0; stroke: rgb(251,106,74); fill: none"  />
</g>
<g id="track_0">
<path d="M 1999.0,2269.1 L 1979.5,2239.4 1960.0,2210.2 1940.3,2181.6 1920.7,2153.8 1901.3,2127.0 1882.1,2101.4 1863.3,2077.2 1844.9,2054.5 1826.9,2033.5 1809.6,2014.4 1792.9,1997.2 1776.9,1982.0 1761.7,1969.0 1747.3,1958.2 1733.7,1949.7 1721.1,1943.6 1709.4,1939.9 1698.7,1938.6 1689.0,1939.8 1680.3,1943.4 1672.6,1949.5 1666.0,1958.0 1660.4,1969.0 1655.9,1982.3 1652.4,1997.9 1650.0,2015.7 1648.6,2035.7 1648.1,2057.7 1648.6,2081.7 1650.1,2107.5 1652.4,2135.0 1655.6,2164.0 1659.6,2194.4 1664.4,2226.0 1669.8,2258.7 1675.8,2292.2 1682.4,2326.3 1689.5,2360.7 1696.9,2395.4  " style="stroke-opacity: 1.000000; stroke-width: 5.0; stroke: rgb(107,174,214); fill: none"  />
<path d="M 1548.4,584.5 L 1546.7,619.9 1545.3,655.1 1544.4,689.8 1543.9,723.8 1543.9,756.9 1544.3,788.8 1545.4,819.5 1546.9,848.7 1549.1,876.2 1551.9,901.9 1555.3,925.6 1559.3,947.3 1564.0,966.8 1569.3,984.0 1575.2,998.8 1581.9,1011.2 1589.1,1021.0 1597.1,1028.4 1605.6,1033.1 1614.8,1035.3 1624.6,1034.9 1634.9,1031.9 1645.9,1026.3 1657.3,1018.2 1669.3,1007.6 1681.8,994.6 1694.7,979.3 1708.0,961.7 1721.6,942.0 1735.6,920.3 1749.9,896.7 1764.4,871.3 1779.0,844.4 1793.8,816.0 1808.6,786.4 1823.4,755.8 1838.1,724.3 1852.6,692.3 1867.0,659.9  " style="stroke-opacity: 1.000000; stroke-width: 5.0; stroke: rgb(107,174,214); fill: none"  />
<path d="M 1548.4,584.5 L 1546.7,620.2 1545.6,655.6 1545.1,690.7 1545.1,725.2 1545.9,758.8 1547.3,791.4 1549.5,822.7 1552.4,852.7 1556.2,881.2 1560.8,907.9 1566.3,932.8 1572.6,955.7 1579.8,976.6 1587.8,995.3 1596.8,1011.8 1606.7,1026.0 1617.4,1037.8 1629.0,1047.1 1641.4,1054.0 1654.7,1058.5 1668.8,1060.4 1683.7,1059.9 1699.4,1056.9 1715.8,1051.5 1732.8,1043.7 1750.5,1033.6 1768.8,1021.2 1787.6,1006.7 1806.9,990.0 1826.7,971.4 1846.8,950.9 1867.1,928.7 1887.7,905.0 1908.4,879.8 1929.2,853.3 1950.0,825.8 1970.6,797.5 1991.0,768.4 2011.1,738.9  " style="stroke-opacity: 1.000000; stroke-width: 5.0; stroke: rgb(107,174,214); fill: none"  />
<path d="M 1711.1,607.9 L 1703.0,642.2 1695.2,676.3 1687.7,710.0 1680.6,743.0 1673.9,775.1 1667.7,806.0 1662.1,835.7 1657.0,863.9 1652.6,890.4 1649.0,915.2 1646.0,938.0 1643.8,958.7 1642.3,977.3 1641.7,993.7 1641.9,1007.7 1643.0,1019.3 1644.9,1028.4 1647.7,1035.0 1651.3,1039.0 1655.8,1040.5 1661.2,1039.5 1667.4,1035.9 1674.4,1029.7 1682.2,1021.1 1690.7,1010.0 1700.1,996.6 1710.1,980.9 1720.8,962.9 1732.1,942.9 1744.0,920.9 1756.4,897.0 1769.3,871.5 1782.6,844.4 1796.3,815.9 1810.2,786.2 1824.3,755.6 1838.5,724.2 1852.8,692.2 1867.0,659.9  " style="stroke-opacity: 1.000000; stroke-width: 5.0; stroke: rgb(107,174,214); fill: none"  />
<path d="M 1711.1,607.9 L 1703.1,642.4 1695.5,676.7 1688.3,710.7 1681.8,744.1 1675.8,776.6 1670.6,808.2 1666.1,838.5 1662.5,867.5 1659.7,895.0 1657.8,920.7 1656.9,944.7 1657.0,966.8 1658.1,986.8 1660.3,1004.6 1663.5,1020.3 1667.8,1033.6 1673.2,1044.7 1679.7,1053.3 1687.3,1059.5 1695.9,1063.3 1705.6,1064.6 1716.3,1063.5 1728.1,1060.0 1740.8,1054.0 1754.5,1045.8 1769.1,1035.2 1784.5,1022.4 1800.7,1007.5 1817.7,990.6 1835.4,971.7 1853.6,951.0 1872.4,928.6 1891.6,904.7 1911.2,879.5 1931.0,853.0 1951.1,825.5 1971.2,797.2 1991.2,768.2 2011.1,738.9  " style="stroke-opacity: 1.000000; stroke-width: 5.0; stroke: rgb(107,174,214); fill: none"  />
<path d="M 1696.9,2395.4 L 1689.5,2360.7 1682.4,2326.3 1675.8,2292.2 1669.8,2258.7 1664.4,2226.0 1659.6,2194.4 1655.6,2164.0 1652.4,2135.0 1650.1,2107.5 1648.6,2081.7 1648.1,2057.7 1648.6,2035.7 1650.0,2015.7 1652.4,1997.9 1655.9,1982.3 1660.4,1969.0 1666.0,1958.0 1672.6,1949.5 1680.3,1943.4 1689.0,1939.8 1698.7,1938.6 1709.4,1939.9 1721.1,1943.6 1733.7,1949.7 1747.3,1958.2 1761.7,1969.0 1776.9,1982.0 1792.9,1997.2 1809.6,2014.4 1826.9,2033.5 1844.9,2054.5 1863.3,2077.2 1882.1,2101.4 1901.3,2127.0 1920.7,2153.8 1940.3,2181.6 1960.0,2210.2 1979.5,2239.4 1999.0,2269.1  " style="stroke-opacity: 1.000000; stroke-width: 5.0; stroke: rgb(107,174,214); fill: none"  />
<path d="M 1867.0,659.9 L 1852.6,692.3 1838.1,724.3 1823.4,755.8 1808.6,786.4 1793.8,816.0 1779.0,844.4 1764.4,871.3 1749.9,896.7 1735.6,920.3 1721.6,942.0 1708.0,961.7 1694.7,979.3 1681.8,994.6 1669.3,1007.6 1657.3,1018.2 1645.9,1026.3 1634.9,1031.9 1624.6,1034.9 1614.8,1035.3 1605.6,1033.1 1597.1,1028.4 1589.1,1021.0 1581.9,1011.2 1575.2,998.8 1569.3,984.0 1564.0,966.8 1559.3,947.3 1555.3,925.6 1551.9,901.9 1549.1,876.2 1546.9,848.7 1545.4,819.5 1544.3,788.8 1543.9,756.9 1543.9,723.8 1544.4,689.8 1545.3,655.1 1546.7,619.9 1548.4,584.5  " style="stroke-opacity: 1.000000; stroke-width: 5.0; stroke: rgb(107,174,214); fill: none"  />
<path d="M 1867.0,659.9 L 1852.8,692.2 1838.5,724.2 1824.3,755.6 1810.2,786.2 1796.3,815.9 1782.6,844.4 1769.3,871.5 1756.4,897.0 1744.0,920.9 1732.1,942.9 1720.8,962.9 1710.1,980.9 1700.1,996.6 1690.7,1010.0 1682.2,1021.1 1674.4,1029.7 1667.4,1035.9 1661.2,1039.5 1655.8,1040.5 1651.3,1039.0 1647.7,1035.0 1644.9,1028.4 1643.0,1019.3 1641.9,1007.7 1641.7,993.7 1642.3,977.3 1643.8,958.7 1646.0,938.0 1649.0,915.2 1652.6,890.4 1657.0,863.9 1662.1,835.7 1667.7,806.0 1673.9,775.1 1680.6,743.0 1687.7,710.0 1695.2,676.3 1703.0,642.2 1711.1,607.9  " style="stroke-opacity: 1.000000; stroke-width: 5.0; stroke: rgb(107,174,214); fill: none"  />
<path d="M 1867.0,659.9 L 1852.9,692.3 1839.2,724.4 1825.8,756.2 1812.9,787.4 1800.6,817.8 1788.9,847.1 1778.1,875.3 1768.1,902.1 1759.0,927.5 1751.0,951.1 1744.0,973.1 1738.1,993.1 1733.4,1011.2 1729.9,1027.1 1727.6,1040.9 1726.5,1052.5 1726.8,1061.8 1728.4,1068.8 1731.2,1073.5 1735.4,1075.7 1740.8,1075.6 1747.5,1073.2 1755.5,1068.4 1764.7,1061.3 1775.2,1052.0 1786.7,1040.4 1799.4,1026.7 1813.1,1011.0 1827.9,993.3 1843.5,973.8 1860.0,952.5 1877.2,929.7 1895.2,905.4 1913.7,879.8 1932.7,853.1 1952.0,825.5 1971.6,797.1 1991.3,768.2 2011.1,738.9  " style="stroke-opacity: 1.000000; stroke-width: 5.0; stroke: rgb(107,174,214); fill: none"  />
<path d="M 1867.0,659.9 L 1852.8,693.0 1839.3,726.3 1826.6,759.5 1814.9,792.6 1804.1,825.2 1794.5,857.2 1786.2,888.6 1779.2,919.2 1773.6,948.7 1769.5,977.2 1767.0,1004.5 1766.2,1030.4 1767.0,1055.0 1769.6,1078.1 1773.9,1099.6 1779.9,1119.4 1787.8,1137.6 1797.5,1154.1 1808.9,1168.7 1822.2,1181.6 1837.1,1192.6 1853.9,1201.8 1872.3,1209.1 1892.3,1214.6 1913.9,1218.3 1937.1,1220.2 1961.6,1220.3 1987.6,1218.7 2014.7,1215.4 2043.1,1210.5 2072.5,1204.1 2102.8,1196.2 2133.9,1187.0 2165.7,1176.4 2198.0,1164.7 2230.7,1152.0 2263.5,1138.3 2296.4,1123.9 2329.1,1108.8  " style="stroke-opacity: 1.000000; stroke-width: 5.0; stroke: rgb(107,174,214); fill: none"  />
<path d="M 922.8,2212.2 L 944.9,2184.7 966.7,2157.4 988.1,2130.3 1008.8,2103.7 1028.8,2077.7 1047.8,2052.5 1065.7,2028.2 1082.5,2005.0 1098.0,1983.0 1112.0,1962.3 1124.6,1943.0 1135.6,1925.3 1145.0,1909.1 1152.6,1894.7 1158.5,1882.0 1162.6,1871.1 1164.8,1862.0 1165.2,1854.9 1163.6,1849.7 1160.3,1846.4 1155.0,1845.0 1147.8,1845.6 1138.9,1848.1 1128.1,1852.4 1115.6,1858.7 1101.3,1866.7 1085.5,1876.6 1068.1,1888.1 1049.2,1901.2 1028.9,1915.9 1007.3,1932.0 984.6,1949.4 960.9,1968.1 936.2,1987.8 910.8,2008.5 884.8,2030.0 858.4,2052.1 831.7,2074.8 804.9,2097.7  " style="stroke-opacity: 1.000000; stroke-width: 5.0; stroke: rgb(107,174,214); fill: none"  />
<path d="M 922.8,2212.2 L 944.9,2184.6 966.7,2156.9 987.8,2129.4 1008.2,2102.2 1027.7,2075.4 1046.1,2049.3 1063.3,2023.9 1079.2,1999.3 1093.6,1975.8 1106.5,1953.4 1117.7,1932.2 1127.2,1912.3 1134.8,1893.8 1140.6,1876.8 1144.5,1861.3 1146.4,1847.4 1146.4,1835.1 1144.3,1824.5 1140.2,1815.6 1134.0,1808.5 1125.8,1803.1 1115.7,1799.4 1103.6,1797.5 1089.5,1797.3 1073.6,1798.8 1055.9,1802.0 1036.5,1806.8 1015.4,1813.2 992.7,1821.1 968.6,1830.5 943.2,1841.2 916.6,1853.2 888.9,1866.4 860.3,1880.7 830.9,1895.9 800.9,1912.0 770.6,1928.8 739.9,1946.2 709.3,1964.0  " style="stroke-opacity: 1.000000; stroke-width: 5.0; stroke: rgb(107,174,214); fill: none"  />
<path d="M 922.8,2212.2 L 945.0,2184.3 966.8,2156.3 987.9,2128.2 1008.1,2100.3 1027.2,2072.7 1045.2,2045.5 1061.9,2018.8 1077.1,1992.8 1090.8,1967.6 1102.8,1943.3 1113.0,1919.9 1121.4,1897.7 1127.8,1876.5 1132.3,1856.6 1134.7,1838.0 1135.1,1820.8 1133.3,1805.0 1129.5,1790.6 1123.4,1777.7 1115.3,1766.3 1105.0,1756.4 1092.7,1748.1 1078.3,1741.3 1061.8,1736.0 1043.4,1732.3 1023.2,1730.1 1001.1,1729.3 977.3,1730.0 951.9,1732.2 925.0,1735.6 896.7,1740.4 867.2,1746.4 836.6,1753.5 805.0,1761.7 772.7,1770.9 739.7,1780.9 706.3,1791.8 672.8,1803.3 639.2,1815.3  " style="stroke-opacity: 1.000000; stroke-width: 5.0; stroke: rgb(107,174,214); fill: none"  />
<path d="M 922.8,2212.2 L 945.2,2184.0 967.1,2155.5 988.1,2126.9 1008.3,2098.2 1027.3,2069.6 1045.1,2041.2 1061.5,2013.2 1076.4,1985.6 1089.6,1958.6 1101.1,1932.3 1110.8,1906.6 1118.5,1881.8 1124.2,1857.9 1127.9,1835.0 1129.5,1813.1 1128.9,1792.4 1126.2,1772.8 1121.2,1754.3 1114.1,1737.1 1104.7,1721.2 1093.2,1706.6 1079.6,1693.3 1063.8,1681.3 1045.9,1670.7 1026.0,1661.4 1004.2,1653.5 980.6,1646.8 955.2,1641.5 928.1,1637.4 899.5,1634.6 869.4,1632.9 838.1,1632.5 805.6,1633.1 772.2,1634.8 738.0,1637.5 703.1,1641.1 667.8,1645.5 632.3,1650.7 596.7,1656.5  " style="stroke-opacity: 1.000000; stroke-width: 5.0; stroke: rgb(107,174,214); fill: none"  />
<path d="M 922.8,2212.2 L 945.4,2183.6 967.5,2154.6 988.7,2125.3 1008.9,2095.8 1028.0,2066.2 1045.8,2036.6 1062.2,2007.2 1077.0,1978.0 1090.2,1949.1 1101.5,1920.7 1111.1,1892.7 1118.6,1865.4 1124.2,1838.6 1127.6,1812.6 1128.9,1787.4 1128.1,1763.0 1125.1,1739.5 1119.8,1717.0 1112.4,1695.5 1102.7,1674.9 1090.8,1655.5 1076.7,1637.1 1060.5,1619.8 1042.3,1603.7 1021.9,1588.7 999.7,1574.8 975.5,1562.1 949.6,1550.5 922.0,1540.1 892.8,1530.8 862.1,1522.6 830.2,1515.4 797.0,1509.4 762.9,1504.3 727.9,1500.2 692.3,1497.1 656.1,1494.8 619.7,1493.4 583.3,1492.7  " style="stroke-opacity: 1.000000; stroke-width: 5.0; stroke: rgb(107,174,214); fill: none"  />
<path d="M 1533.9,2416.1 L 1532.5,2380.9 1530.9,2345.9 1529.2,2311.5 1527.3,2277.8 1525.2,2245.1 1523.0,2213.6 1520.5,2183.5 1517.9,2155.0 1515.0,2128.2 1512.0,2103.4 1508.8,2080.6 1505.4,2060.0 1501.8,2041.7 1498.1,2025.8 1494.2,2012.3 1490.0,2001.5 1485.8,1993.2 1481.3,1987.6 1476.8,1984.6 1472.0,1984.4 1467.2,1986.8 1462.2,1991.9 1457.0,1999.7 1451.8,2010.1 1446.5,2023.1 1441.1,2038.5 1435.6,2056.3 1430.0,2076.4 1424.5,2098.8 1418.8,2123.2 1413.2,2149.5 1407.6,2177.5 1402.0,2207.2 1396.4,2238.3 1390.9,2270.6 1385.4,2303.9 1380.1,2337.9 1374.8,2372.6 1369.8,2407.5  " style="stroke-opacity: 1.000000; stroke-width: 5.0; stroke: rgb(107,174,214); fill: none"  />
<path d="M 1533.9,2416.1 L 1532.4,2380.7 1530.6,2345.6 1528.4,2310.9 1525.9,2277.0 1522.9,2244.1 1519.6,2212.3 1515.8,2181.8 1511.6,2152.9 1507.0,2125.7 1501.9,2100.4 1496.4,2077.0 1490.5,2055.8 1484.1,2036.8 1477.3,2020.2 1470.0,2005.9 1462.3,1994.2 1454.2,1985.0 1445.6,1978.4 1436.7,1974.4 1427.3,1973.1 1417.6,1974.4 1407.6,1978.3 1397.2,1984.9 1386.5,1994.0 1375.5,2005.6 1364.3,2019.6 1352.8,2036.0 1341.1,2054.7 1329.3,2075.6 1317.3,2098.5 1305.2,2123.3 1293.0,2149.8 1280.9,2178.0 1268.7,2207.6 1256.6,2238.4 1244.6,2270.2 1232.8,2302.9 1221.2,2336.1 1209.8,2369.6  " style="stroke-opacity: 1.000000; stroke-width: 5.0; stroke: rgb(107,174,214); fill: none"  />
<path d="M 804.9,2097.7 L 831.7,2074.8 858.4,2052.1 884.8,2030.0 910.8,2008.5 936.2,1987.8 960.9,1968.1 984.6,1949.4 1007.3,1932.0 1028.9,1915.9 1049.2,1901.2 1068.1,1888.1 1085.5,1876.6 1101.3,1866.7 1115.6,1858.7 1128.1,1852.4 1138.9,1848.1 1147.8,1845.6 1155.0,1845.0 1160.3,1846.4 1163.6,1849.7 1165.2,1854.9 1164.8,1862.0 1162.6,1871.1 1158.5,1882.0 1152.6,1894.7 1145.0,1909.1 1135.6,1925.3 1124.6,1943.0 1112.0,1962.3 1098.0,1983.0 1082.5,2005.0 1065.7,2028.2 1047.8,2052.5 1028.8,2077.7 1008.8,2103.7 988.1,2130.3 966.7,2157.4 944.9,2184.7 922.8,2212.2  " style="stroke-opacity: 1.000000; stroke-width: 5.0; stroke: rgb(107,174,214); fill: none"  />
<path d="M 804.9,2097.7 L 831.6,2074.5 858.0,2051.1 883.7,2027.8 908.6,2004.7 932.6,1981.8 955.3,1959.4 976.8,1937.5 996.8,1916.2 1015.2,1895.6 1031.8,1875.8 1046.6,1857.0 1059.5,1839.1 1070.4,1822.3 1079.1,1806.5 1085.7,1792.0 1090.1,1778.6 1092.2,1766.6 1092.0,1755.8 1089.6,1746.3 1084.8,1738.2 1077.7,1731.4 1068.4,1726.0 1056.8,1721.9 1043.0,1719.2 1027.1,1717.9 1009.1,1717.9 989.1,1719.1 967.2,1721.6 943.5,1725.4 918.2,1730.3 891.2,1736.3 862.9,1743.4 833.3,1751.4 802.6,1760.3 771.0,1770.1 738.6,1780.6 705.7,1791.7 672.5,1803.3 639.2,1815.3  " style="stroke-opacity: 1.000000; stroke-width: 5.0; stroke: rgb(107,174,214); fill: none"  />
<path d="M 804.9,2097.7 L 831.8,2074.2 858.2,2050.5 883.9,2026.7 908.8,2002.8 932.6,1979.1 955.1,1955.5 976.3,1932.3 995.9,1909.4 1013.9,1887.0 1030.0,1865.2 1044.2,1844.1 1056.5,1823.7 1066.6,1804.0 1074.5,1785.3 1080.2,1767.4 1083.7,1750.5 1084.8,1734.6 1083.5,1719.7 1079.9,1706.0 1073.9,1693.3 1065.6,1681.7 1054.9,1671.3 1042.0,1662.1 1026.7,1654.0 1009.3,1647.0 989.8,1641.2 968.2,1636.6 944.6,1633.0 919.3,1630.6 892.2,1629.2 863.5,1628.8 833.4,1629.4 802.0,1631.0 769.4,1633.4 736.0,1636.6 701.8,1640.7 667.0,1645.4 631.9,1650.7 596.7,1656.5  " style="stroke-opacity: 1.000000; stroke-width: 5.0; stroke: rgb(107,174,214); fill: none"  />
<path d="M 804.9,2097.7 L 832.3,2073.6 859.1,2049.0 885.3,2024.0 910.4,1998.5 934.5,1972.8 957.3,1946.9 978.7,1920.9 998.5,1894.8 1016.6,1868.7 1032.8,1842.8 1047.2,1817.0 1059.5,1791.4 1069.7,1766.1 1077.8,1741.1 1083.6,1716.5 1087.1,1692.4 1088.3,1668.7 1087.2,1645.6 1083.7,1623.1 1077.8,1601.2 1069.6,1579.9 1059.1,1559.3 1046.2,1539.4 1031.1,1520.3 1013.8,1501.9 994.4,1484.3 972.9,1467.4 949.4,1451.4 924.1,1436.2 897.0,1421.8 868.3,1408.3 838.2,1395.6 806.7,1383.7 774.0,1372.6 740.3,1362.4 705.8,1352.9 670.6,1344.2 635.1,1336.3 599.3,1329.2  " style="stroke-opacity: 1.000000; stroke-width: 5.0; stroke: rgb(107,174,214); fill: none"  />
<path d="M 709.3,1964.0 L 739.9,1946.2 770.6,1928.8 800.9,1912.0 830.9,1895.9 860.3,1880.7 888.9,1866.4 916.6,1853.2 943.2,1841.2 968.6,1830.5 992.7,1821.1 1015.4,1813.2 1036.5,1806.8 1055.9,1802.0 1073.6,1798.8 1089.5,1797.3 1103.6,1797.5 1115.7,1799.4 1125.8,1803.1 1134.0,1808.5 1140.2,1815.6 1144.3,1824.5 1146.4,1835.1 1146.4,1847.4 1144.5,1861.3 1140.6,1876.8 1134.8,1893.8 1127.2,1912.3 1117.7,1932.2 1106.5,1953.4 1093.6,1975.8 1079.2,1999.3 1063.3,2023.9 1046.1,2049.3 1027.7,2075.4 1008.2,2102.2 987.8,2129.4 966.7,2156.9 944.9,2184.6 922.8,2212.2  " style="stroke-opacity: 1.000000; stroke-width: 5.0; stroke: rgb(107,174,214); fill: none"  />
<path d="M 709.3,1964.0 L 739.7,1946.0 769.8,1928.1 799.3,1910.2 828.0,1892.6 855.8,1875.3 882.5,1858.4 907.8,1841.9 931.7,1826.1 953.9,1810.9 974.3,1796.5 992.9,1782.9 1009.4,1770.1 1023.9,1758.3 1036.1,1747.5 1046.1,1737.6 1053.7,1728.9 1059.0,1721.2 1061.8,1714.6 1062.2,1709.2 1060.2,1704.9 1055.8,1701.8 1048.9,1699.8 1039.6,1699.0 1028.0,1699.3 1014.0,1700.7 997.9,1703.3 979.6,1706.9 959.2,1711.6 936.9,1717.2 912.8,1723.8 887.0,1731.3 859.6,1739.7 830.8,1748.8 800.8,1758.6 769.7,1769.0 737.8,1780.0 705.3,1791.5 672.3,1803.3 639.2,1815.3  " style="stroke-opacity: 1.000000; stroke-width: 5.0; stroke: rgb(107,174,214); fill: none"  />
<path d="M 709.3,1964.0 L 739.8,1945.9 769.9,1927.6 799.4,1909.3 828.0,1891.0 855.6,1872.8 882.1,1854.8 907.1,1837.0 930.6,1819.6 952.3,1802.7 972.2,1786.2 990.2,1770.3 1006.1,1755.0 1019.7,1740.4 1031.2,1726.5 1040.2,1713.3 1046.9,1701.0 1051.2,1689.5 1052.9,1678.8 1052.2,1669.0 1049.0,1660.2 1043.2,1652.3 1035.0,1645.3 1024.3,1639.2 1011.2,1634.1 995.8,1629.9 978.1,1626.7 958.2,1624.4 936.2,1623.0 912.2,1622.4 886.4,1622.7 858.8,1623.8 829.7,1625.7 799.1,1628.3 767.3,1631.6 734.5,1635.6 700.7,1640.1 666.4,1645.2 631.6,1650.7 596.7,1656.5  " style="stroke-opacity: 1.000000; stroke-width: 5.0; stroke: rgb(107,174,214); fill: none"  />
<path d="M 709.3,1964.0 L 740.2,1945.5 770.7,1926.5 800.5,1907.0 829.5,1887.3 857.3,1867.2 883.9,1846.9 909.1,1826.4 932.7,1805.8 954.6,1785.2 974.7,1764.5 992.7,1743.9 1008.7,1723.4 1022.4,1703.1 1033.9,1682.9 1043.1,1663.0 1049.8,1643.3 1054.2,1624.0 1056.0,1605.0 1055.4,1586.4 1052.2,1568.2 1046.6,1550.5 1038.4,1533.3 1027.9,1516.5 1014.9,1500.3 999.6,1484.6 981.9,1469.5 962.1,1454.9 940.2,1441.0 916.3,1427.7 890.5,1415.0 862.9,1402.9 833.8,1391.4 803.1,1380.6 771.2,1370.5 738.2,1361.0 704.3,1352.1 669.7,1343.8 634.6,1336.2 599.3,1329.2  " style="stroke-opacity: 1.000000; stroke-width: 5.0; stroke: rgb(107,174,214); fill: none"  />
<path d="M 2011.1,738.9 L 1991.0,768.4 1970.6,797.5 1950.0,825.8 1929.2,853.3 1908.4,879.8 1887.7,905.0 1867.1,928.7 1846.8,950.9 1826.7,971.4 1806.9,990.0 1787.6,1006.7 1768.8,1021.2 1750.5,1033.6 1732.8,1043.7 1715.8,1051.5 1699.4,1056.9 1683.7,1059.9 1668.8,1060.4 1654.7,1058.5 1641.4,1054.0 1629.0,1047.1 1617.4,1037.8 1606.7,1026.0 1596.8,1011.8 1587.8,995.3 1579.8,976.6 1572.6,955.7 1566.3,932.8 1560.8,907.9 1556.2,881.2 1552.4,852.7 1549.5,822.7 1547.3,791.4 1545.9,758.8 1545.1,725.2 1545.1,690.7 1545.6,655.6 1546.7,620.2 1548.4,584.5  " style="stroke-opacity: 1.000000; stroke-width: 5.0; stroke: rgb(107,174,214); fill: none"  />
<path d="M 2011.1,738.9 L 1991.2,768.2 1971.2,797.2 1951.1,825.5 1931.0,853.0 1911.2,879.5 1891.6,904.7 1872.4,928.6 1853.6,951.0 1835.4,971.7 1817.7,990.6 1800.7,1007.5 1784.5,1022.4 1769.1,1035.2 1754.5,1045.8 1740.8,1054.0 1728.1,1060.0 1716.3,1063.5 1705.6,1064.6 1695.9,1063.3 1687.3,1059.5 1679.7,1053.3 1673.2,1044.7 1667.8,1033.6 1663.5,1020.3 1660.3,1004.6 1658.1,986.8 1657.0,966.8 1656.9,944.7 1657.8,920.7 1659.7,895.0 1662.5,867.5 1666.1,838.5 1670.6,808.2 1675.8,776.6 1681.8,744.1 1688.3,710.7 1695.5,676.7 1703.1,642.4 1711.1,607.9  " style="stroke-opacity: 1.000000; stroke-width: 5.0; stroke: rgb(107,174,214); fill: none"  />
<path d="M 2011.1,738.9 L 1991.3,768.2 1971.6,797.1 1952.0,825.5 1932.7,853.1 1913.7,879.8 1895.2,905.4 1877.2,929.7 1860.0,952.5 1843.5,973.8 1827.9,993.3 1813.1,1011.0 1799.4,1026.7 1786.7,1040.4 1775.2,1052.0 1764.7,1061.3 1755.5,1068.4 1747.5,1073.2 1740.8,1075.6 1735.4,1075.7 1731.2,1073.5 1728.4,1068.8 1726.8,1061.8 1726.5,1052.5 1727.6,1040.9 1729.9,1027.1 1733.4,1011.2 1738.1,993.1 1744.0,973.1 1751.0,951.1 1759.0,927.5 1768.1,902.1 1778.1,875.3 1788.9,847.1 1800.6,817.8 1812.9,787.4 1825.8,756.2 1839.2,724.4 1852.9,692.3 1867.0,659.9  " style="stroke-opacity: 1.000000; stroke-width: 5.0; stroke: rgb(107,174,214); fill: none"  />
<path d="M 639.2,1815.3 L 672.8,1803.3 706.3,1791.8 739.7,1780.9 772.7,1770.9 805.0,1761.7 836.6,1753.5 867.2,1746.4 896.7,1740.4 925.0,1735.6 951.9,1732.2 977.3,1730.0 1001.1,1729.3 1023.2,1730.1 1043.4,1732.3 1061.8,1736.0 1078.3,1741.3 1092.7,1748.1 1105.0,1756.4 1115.3,1766.3 1123.4,1777.7 1129.5,1790.6 1133.3,1805.0 1135.1,1820.8 1134.7,1838.0 1132.3,1856.6 1127.8,1876.5 1121.4,1897.7 1113.0,1919.9 1102.8,1943.3 1090.8,1967.6 1077.1,1992.8 1061.9,2018.8 1045.2,2045.5 1027.2,2072.7 1008.1,2100.3 987.9,2128.2 966.8,2156.3 945.0,2184.3 922.8,2212.2  " style="stroke-opacity: 1.000000; stroke-width: 5.0; stroke: rgb(107,174,214); fill: none"  />
<path d="M 639.2,1815.3 L 672.5,1803.3 705.7,1791.7 738.6,1780.6 771.0,1770.1 802.6,1760.3 833.3,1751.4 862.9,1743.4 891.2,1736.3 918.2,1730.3 943.5,1725.4 967.2,1721.6 989.1,1719.1 1009.1,1717.9 1027.1,1717.9 1043.0,1719.2 1056.8,1721.9 1068.4,1726.0 1077.7,1731.4 1084.8,1738.2 1089.6,1746.3 1092.0,1755.8 1092.2,1766.6 1090.1,1778.6 1085.7,1792.0 1079.1,1806.5 1070.4,1822.3 1059.5,1839.1 1046.6,1857.0 1031.8,1875.8 1015.2,1895.6 996.8,1916.2 976.8,1937.5 955.3,1959.4 932.6,1981.8 908.6,2004.7 883.7,2027.8 858.0,2051.1 831.6,2074.5 804.9,2097.7  " style="stroke-opacity: 1.000000; stroke-width: 5.0; stroke: rgb(107,174,214); fill: none"  />
<path d="M 639.2,1815.3 L 672.3,1803.3 705.3,1791.5 737.8,1780.0 769.7,1769.0 800.8,1758.6 830.8,1748.8 859.6,1739.7 887.0,1731.3 912.8,1723.8 936.9,1717.2 959.2,1711.6 979.6,1706.9 997.9,1703.3 1014.0,1700.7 1028.0,1699.3 1039.6,1699.0 1048.9,1699.8 1055.8,1701.8 1060.2,1704.9 1062.2,1709.2 1061.8,1714.6 1059.0,1721.2 1053.7,1728.9 1046.1,1737.6 1036.1,1747.5 1023.9,1758.3 1009.4,1770.1 992.9,1782.9 974.3,1796.5 953.9,1810.9 931.7,1826.1 907.8,1841.9 882.5,1858.4 855.8,1875.3 828.0,1892.6 799.3,1910.2 769.8,1928.1 739.7,1946.0 709.3,1964.0  " style="stroke-opacity: 1.000000; stroke-width: 5.0; stroke: rgb(107,174,214); fill: none"  />
<path d="M 639.2,1815.3 L 672.3,1803.1 705.0,1790.8 737.3,1778.5 768.7,1766.3 799.2,1754.2 828.4,1742.3 856.3,1730.7 882.6,1719.4 907.2,1708.4 929.8,1697.9 950.5,1687.8 969.1,1678.2 985.4,1669.1 999.4,1660.7 1010.9,1652.8 1020.0,1645.5 1026.6,1638.9 1030.5,1632.9 1031.9,1627.7 1030.7,1623.1 1026.9,1619.2 1020.4,1616.0 1011.5,1613.6 1000.0,1611.8 986.0,1610.7 969.7,1610.4 951.0,1610.7 930.1,1611.6 907.2,1613.2 882.3,1615.4 855.5,1618.1 827.1,1621.5 797.1,1625.3 765.8,1629.6 733.4,1634.3 700.1,1639.4 666.0,1644.9 631.5,1650.6 596.7,1656.5  " style="stroke-opacity: 1.000000; stroke-width: 5.0; stroke: rgb(107,174,214); fill: none"  />
<path d="M 639.2,1815.3 L 672.6,1802.8 705.7,1789.9 738.1,1776.6 769.8,1763.0 800.4,1749.1 829.8,1735.0 857.8,1720.7 884.2,1706.2 908.9,1691.5 931.6,1676.8 952.4,1662.0 971.0,1647.2 987.4,1632.4 1001.4,1617.6 1013.1,1602.9 1022.2,1588.2 1028.8,1573.7 1032.9,1559.4 1034.3,1545.2 1033.2,1531.3 1029.4,1517.5 1023.1,1504.0 1014.2,1490.8 1002.8,1477.9 988.9,1465.2 972.7,1452.9 954.1,1441.0 933.3,1429.4 910.4,1418.2 885.6,1407.4 858.8,1396.9 830.4,1386.9 800.5,1377.3 769.2,1368.2 736.7,1359.5 703.2,1351.2 669.0,1343.4 634.3,1336.1 599.3,1329.2  " style="stroke-opacity: 1.000000; stroke-width: 5.0; stroke: rgb(107,174,214); fill: none"  />
<path d="M 596.7,1656.5 L 632.3,1650.7 667.8,1645.5 703.1,1641.1 738.0,1637.5 772.2,1634.8 805.6,1633.1 838.1,1632.5 869.4,1632.9 899.5,1634.6 928.1,1637.4 955.2,1641.5 980.6,1646.8 1004.2,1653.5 1026.0,1661.4 1045.9,1670.7 1063.8,1681.3 1079.6,1693.3 1093.2,1706.6 1104.7,1721.2 1114.1,1737.1 1121.2,1754.3 1126.2,1772.8 1128.9,1792.4 1129.5,1813.1 1127.9,1835.0 1124.2,1857.9 1118.5,1881.8 1110.8,1906.6 1101.1,1932.3 1089.6,1958.6 1076.4,1985.6 1061.5,2013.2 1045.1,2041.2 1027.3,2069.6 1008.3,2098.2 988.1,2126.9 967.1,2155.5 945.2,2184.0 922.8,2212.2  " style="stroke-opacity: 1.000000; stroke-width: 5.0; stroke: rgb(107,174,214); fill: none"  />
<path d="M 596.7,1656.5 L 631.9,1650.7 667.0,1645.4 701.8,1640.7 736.0,1636.6 769.4,1633.4 802.0,1631.0 833.4,1629.4 863.5,1628.8 892.2,1629.2 919.3,1630.6 944.6,1633.0 968.2,1636.6 989.8,1641.2 1009.3,1647.0 1026.7,1654.0 1042.0,1662.1 1054.9,1671.3 1065.6,1681.7 1073.9,1693.3 1079.9,1706.0 1083.5,1719.7 1084.8,1734.6 1083.7,1750.5 1080.2,1767.4 1074.5,1785.3 1066.6,1804.0 1056.5,1823.7 1044.2,1844.1 1030.0,1865.2 1013.9,1887.0 995.9,1909.4 976.3,1932.3 955.1,1955.5 932.6,1979.1 908.8,2002.8 883.9,2026.7 858.2,2050.5 831.8,2074.2 804.9,2097.7  " style="stroke-opacity: 1.000000; stroke-width: 5.0; stroke: rgb(107,174,214); fill: none"  />
<path d="M 596.7,1656.5 L 631.6,1650.7 666.4,1645.2 700.7,1640.1 734.5,1635.6 767.3,1631.6 799.1,1628.3 829.7,1625.7 858.8,1623.8 886.4,1622.7 912.2,1622.4 936.2,1623.0 958.2,1624.4 978.1,1626.7 995.8,1629.9 1011.2,1634.1 1024.3,1639.2 1035.0,1645.3 1043.2,1652.3 1049.0,1660.2 1052.2,1669.0 1052.9,1678.8 1051.2,1689.5 1046.9,1701.0 1040.2,1713.3 1031.2,1726.5 1019.7,1740.4 1006.1,1755.0 990.2,1770.3 972.2,1786.2 952.3,1802.7 930.6,1819.6 907.1,1837.0 882.1,1854.8 855.6,1872.8 828.0,1891.0 799.4,1909.3 769.9,1927.6 739.8,1945.9 709.3,1964.0  " style="stroke-opacity: 1.000000; stroke-width: 5.0; stroke: rgb(107,174,214); fill: none"  />
<path d="M 596.7,1656.5 L 631.5,1650.6 666.0,1644.9 700.1,1639.4 733.4,1634.3 765.8,1629.6 797.1,1625.3 827.1,1621.5 855.5,1618.1 882.3,1615.4 907.2,1613.2 930.1,1611.6 951.0,1610.7 969.7,1610.4 986.0,1610.7 1000.0,1611.8 1011.5,1613.6 1020.4,1616.0 1026.9,1619.2 1030.7,1623.1 1031.9,1627.7 1030.5,1632.9 1026.6,1638.9 1020.0,1645.5 1010.9,1652.8 999.4,1660.7 985.4,1669.1 969.1,1678.2 950.5,1687.8 929.8,1697.9 907.2,1708.4 882.6,1719.4 856.3,1730.7 828.4,1742.3 799.2,1754.2 768.7,1766.3 737.3,1778.5 705.0,1790.8 672.3,1803.1 639.2,1815.3  " style="stroke-opacity: 1.000000; stroke-width: 5.0; stroke: rgb(107,174,214); fill: none"  />
<path d="M 596.7,1656.5 L 631.4,1650.4 665.9,1644.2 699.8,1637.9 732.9,1631.5 765.0,1625.0 795.9,1618.5 825.4,1612.1 853.3,1605.6 879.5,1599.2 903.7,1592.9 925.8,1586.7 945.8,1580.5 963.5,1574.5 978.7,1568.7 991.5,1563.0 1001.7,1557.5 1009.4,1552.1 1014.3,1547.0 1016.6,1542.0 1016.3,1537.3 1013.2,1532.8 1007.4,1528.5 999.0,1524.5 988.0,1520.7 974.5,1517.2 958.5,1513.9 940.1,1510.9 919.4,1508.1 896.5,1505.5 871.6,1503.2 844.8,1501.2 816.2,1499.4 786.0,1497.8 754.5,1496.4 721.8,1495.3 688.0,1494.4 653.5,1493.6 618.5,1493.1 583.3,1492.7  " style="stroke-opacity: 1.000000; stroke-width: 5.0; stroke: rgb(107,174,214); fill: none"  />
<path d="M 596.7,1656.5 L 631.6,1650.3 666.2,1643.8 700.2,1637.0 733.5,1629.9 765.7,1622.6 796.8,1615.0 826.5,1607.2 854.6,1599.2 880.9,1590.9 905.3,1582.5 927.7,1573.9 947.9,1565.2 965.9,1556.3 981.5,1547.3 994.6,1538.2 1005.2,1529.0 1013.2,1519.7 1018.6,1510.3 1021.4,1500.9 1021.4,1491.5 1018.8,1482.1 1013.6,1472.6 1005.7,1463.2 995.3,1453.8 982.3,1444.5 966.9,1435.2 949.1,1426.1 929.0,1417.0 906.7,1408.1 882.4,1399.3 856.2,1390.6 828.3,1382.1 798.7,1373.9 767.8,1365.8 735.6,1357.9 702.5,1350.3 668.5,1343.0 634.1,1335.9 599.3,1329.2  " style="stroke-opacity: 1.000000; stroke-width: 5.0; stroke: rgb(107,174,214); fill: none"  />
<path d="M 583.3,1492.7 L 619.7,1493.4 656.1,1494.8 692.3,1497.1 727.9,1500.2 762.9,1504.3 797.0,1509.4 830.2,1515.4 862.1,1522.6 892.8,1530.8 922.0,1540.1 949.6,1550.5 975.5,1562.1 999.7,1574.8 1021.9,1588.7 1042.3,1603.7 1060.5,1619.8 1076.7,1637.1 1090.8,1655.5 1102.7,1674.9 1112.4,1695.5 1119.8,1717.0 1125.1,1739.5 1128.1,1763.0 1128.9,1787.4 1127.6,1812.6 1124.2,1838.6 1118.6,1865.4 1111.1,1892.7 1101.5,1920.7 1090.2,1949.1 1077.0,1978.0 1062.2,2007.2 1045.8,2036.6 1028.0,2066.2 1008.9,2095.8 988.7,2125.3 967.5,2154.6 945.4,2183.6 922.8,2212.2  " style="stroke-opacity: 1.000000; stroke-width: 5.0; stroke: rgb(107,174,214); fill: none"  />
<path d="M 583.3,1492.7 L 618.5,1493.1 653.5,1493.6 688.0,1494.4 721.8,1495.3 754.5,1496.4 786.0,1497.8 816.2,1499.4 844.8,1501.2 871.6,1503.2 896.5,1505.5 919.4,1508.1 940.1,1510.9 958.5,1513.9 974.5,1517.2 988.0,1520.7 999.0,1524.5 1007.4,1528.5 1013.2,1532.8 1016.3,1537.3 1016.6,1542.0 1014.3,1547.0 1009.4,1552.1 1001.7,1557.5 991.5,1563.0 978.7,1568.7 963.5,1574.5 945.8,1580.5 925.8,1586.7 903.7,1592.9 879.5,1599.2 853.3,1605.6 825.4,1612.1 795.9,1618.5 765.0,1625.0 732.9,1631.5 699.8,1637.9 665.9,1644.2 631.4,1650.4 596.7,1656.5  " style="stroke-opacity: 1.000000; stroke-width: 5.0; stroke: rgb(107,174,214); fill: none"  />
<path d="M 2329.1,1108.8 L 2296.4,1123.9 2263.5,1138.3 2230.7,1152.0 2198.0,1164.7 2165.7,1176.4 2133.9,1187.0 2102.8,1196.2 2072.5,1204.1 2043.1,1210.5 2014.7,1215.4 1987.6,1218.7 1961.6,1220.3 1937.1,1220.2 1913.9,1218.3 1892.3,1214.6 1872.3,1209.1 1853.9,1201.8 1837.1,1192.6 1822.2,1181.6 1808.9,1168.7 1797.5,1154.1 1787.8,1137.6 1779.9,1119.4 1773.9,1099.6 1769.6,1078.1 1767.0,1055.0 1766.2,1030.4 1767.0,1004.5 1769.5,977.2 1773.6,948.7 1779.2,919.2 1786.2,888.6 1794.5,857.2 1804.1,825.2 1814.9,792.6 1826.6,759.5 1839.3,726.3 1852.8,693.0 1867.0,659.9  " style="stroke-opacity: 1.000000; stroke-width: 5.0; stroke: rgb(107,174,214); fill: none"  />
<path d="M 1369.8,2407.5 L 1374.8,2372.6 1380.1,2337.9 1385.4,2303.9 1390.9,2270.6 1396.4,2238.3 1402.0,2207.2 1407.6,2177.5 1413.2,2149.5 1418.8,2123.2 1424.5,2098.8 1430.0,2076.4 1435.6,2056.3 1441.1,2038.5 1446.5,2023.1 1451.8,2010.1 1457.0,1999.7 1462.2,1991.9 1467.2,1986.8 1472.0,1984.4 1476.8,1984.6 1481.3,1987.6 1485.8,1993.2 1490.0,2001.5 1494.2,2012.3 1498.1,2025.8 1501.8,2041.7 1505.4,2060.0 1508.8,2080.6 1512.0,2103.4 1515.0,2128.2 1517.9,2155.0 1520.5,2183.5 1523.0,2213.6 1525.2,2245.1 1527.3,2277.8 1529.2,2311.5 1530.9,2345.9 1532.5,2380.9 1533.9,2416.1  " style="stroke-opacity: 1.000000; stroke-width: 5.0; stroke: rgb(107,174,214); fill: none"  />
<path d="M 1369.8,2407.5 L 1374.7,2372.5 1379.4,2337.8 1383.8,2303.6 1388.0,2270.2 1391.8,2237.6 1395.2,2206.2 1398.1,2176.2 1400.6,2147.7 1402.6,2120.8 1404.1,2095.8 1405.0,2072.9 1405.3,2052.0 1405.1,2033.3 1404.2,2017.0 1402.8,2003.1 1400.7,1991.6 1397.9,1982.7 1394.6,1976.4 1390.6,1972.7 1386.0,1971.6 1380.8,1973.1 1374.9,1977.3 1368.5,1984.0 1361.5,1993.3 1354.0,2005.1 1345.9,2019.3 1337.3,2035.9 1328.2,2054.7 1318.8,2075.7 1308.9,2098.6 1298.6,2123.5 1288.1,2150.1 1277.3,2178.3 1266.2,2207.9 1255.0,2238.7 1243.7,2270.5 1232.4,2303.1 1221.1,2336.2 1209.8,2369.6  " style="stroke-opacity: 1.000000; stroke-width: 5.0; stroke: rgb(107,174,214); fill: none"  />
<path d="M 1209.8,2369.6 L 1221.2,2336.1 1232.8,2302.9 1244.6,2270.2 1256.6,2238.4 1268.7,2207.6 1280.9,2178.0 1293.0,2149.8 1305.2,2123.3 1317.3,2098.5 1329.3,2075.6 1341.1,2054.7 1352.8,2036.0 1364.3,2019.6 1375.5,2005.6 1386.5,1994.0 1397.2,1984.9 1407.6,1978.3 1417.6,1974.4 1427.3,1973.1 1436.7,1974.4 1445.6,1978.4 1454.2,1985.0 1462.3,1994.2 1470.0,2005.9 1477.3,2020.2 1484.1,2036.8 1490.5,2055.8 1496.4,2077.0 1501.9,2100.4 1507.0,2125.7 1511.6,2152.9 1515.8,2181.8 1519.6,2212.3 1522.9,2244.1 1525.9,2277.0 1528.4,2310.9 1530.6,2345.6 1532.4,2380.7 1533.9,2416.1  " style="stroke-opacity: 1.000000; stroke-width: 5.0; stroke: rgb(107,174,214); fill: none"  />
<path d="M 1209.8,2369.6 L 1221.1,2336.2 1232.4,2303.1 1243.7,2270.5 1255.0,2238.7 1266.2,2207.9 1277.3,2178.3 1288.1,2150.1 1298.6,2123.5 1308.9,2098.6 1318.8,2075.7 1328.2,2054.7 1337.3,2035.9 1345.9,2019.3 1354.0,2005.1 1361.5,1993.3 1368.5,1984.0 1374.9,1977.3 1380.8,1973.1 1386.0,1971.6 1390.6,1972.7 1394.6,1976.4 1397.9,1982.7 1400.7,1991.6 1402.8,2003.1 1404.2,2017.0 1405.1,2033.3 1405.3,2052.0 1405.0,2072.9 1404.1,2095.8 1402.6,2120.8 1400.6,2147.7 1398.1,2176.2 1395.2,2206.2 1391.8,2237.6 1388.0,2270.2 1383.8,2303.6 1379.4,2337.8 1374.7,2372.5 1369.8,2407.5  " style="stroke-opacity: 1.000000; stroke-width: 5.0; stroke: rgb(107,174,214); fill: none"  />
<path d="M 599.3,1329.2 L 635.1,1336.3 670.6,1344.2 705.8,1352.9 740.3,1362.4 774.0,1372.6 806.7,1383.7 838.2,1395.6 868.3,1408.3 897.0,1421.8 924.1,1436.2 949.4,1451.4 972.9,1467.4 994.4,1484.3 1013.8,1501.9 1031.1,1520.3 1046.2,1539.4 1059.1,1559.3 1069.6,1579.9 1077.8,1601.2 1083.7,1623.1 1087.2,1645.6 1088.3,1668.7 1087.1,1692.4 1083.6,1716.5 1077.8,1741.1 1069.7,1766.1 1059.5,1791.4 1047.2,1817.0 1032.8,1842.8 1016.6,1868.7 998.5,1894.8 978.7,1920.9 957.3,1946.9 934.5,1972.8 910.4,1998.5 885.3,2024.0 859.1,2049.0 832.3,2073.6 804.9,2097.7  " style="stroke-opacity: 1.000000; stroke-width: 5.0; stroke: rgb(107,174,214); fill: none"  />
<path d="M 599.3,1329.2 L 634.6,1336.2 669.7,1343.8 704.3,1352.1 738.2,1361.0 771.2,1370.5 803.1,1380.6 833.8,1391.4 862.9,1402.9 890.5,1415.0 916.3,1427.7 940.2,1441.0 962.1,1454.9 981.9,1469.5 999.6,1484.6 1014.9,1500.3 1027.9,1516.5 1038.4,1533.3 1046.6,1550.5 1052.2,1568.2 1055.4,1586.4 1056.0,1605.0 1054.2,1624.0 1049.8,1643.3 1043.1,1663.0 1033.9,1682.9 1022.4,1703.1 1008.7,1723.4 992.7,1743.9 974.7,1764.5 954.6,1785.2 932.7,1805.8 909.1,1826.4 883.9,1846.9 857.3,1867.2 829.5,1887.3 800.5,1907.0 770.7,1926.5 740.2,1945.5 709.3,1964.0  " style="stroke-opacity: 1.000000; stroke-width: 5.0; stroke: rgb(107,174,214); fill: none"  />
<path d="M 599.3,1329.2 L 634.3,1336.1 669.0,1343.4 703.2,1351.2 736.7,1359.5 769.2,1368.2 800.5,1377.3 830.4,1386.9 858.8,1396.9 885.6,1407.4 910.4,1418.2 933.3,1429.4 954.1,1441.0 972.7,1452.9 988.9,1465.2 1002.8,1477.9 1014.2,1490.8 1023.1,1504.0 1029.4,1517.5 1033.2,1531.3 1034.3,1545.2 1032.9,1559.4 1028.8,1573.7 1022.2,1588.2 1013.1,1602.9 1001.4,1617.6 987.4,1632.4 971.0,1647.2 952.4,1662.0 931.6,1676.8 908.9,1691.5 884.2,1706.2 857.8,1720.7 829.8,1735.0 800.4,1749.1 769.8,1763.0 738.1,1776.6 705.7,1789.9 672.6,1802.8 639.2,1815.3  " style="stroke-opacity: 1.000000; stroke-width: 5.0; stroke: rgb(107,174,214); fill: none"  />
<path d="M 599.3,1329.2 L 634.1,1335.9 668.5,1343.0 702.5,1350.3 735.6,1357.9 767.8,1365.8 798.7,1373.9 828.3,1382.1 856.2,1390.6 882.4,1399.3 906.7,1408.1 929.0,1417.0 949.1,1426.1 966.9,1435.2 982.3,1444.5 995.3,1453.8 1005.7,1463.2 1013.6,1472.6 1018.8,1482.1 1021.4,1491.5 1021.4,1500.9 1018.6,1510.3 1013.2,1519.7 1005.2,1529.0 994.6,1538.2 981.5,1547.3 965.9,1556.3 947.9,1565.2 927.7,1573.9 905.3,1582.5 880.9,1590.9 854.6,1599.2 826.5,1607.2 796.8,1615.0 765.7,1622.6 733.5,1629.9 700.2,1637.0 666.2,1643.8 631.6,1650.3 596.7,1656.5  " style="stroke-opacity: 1.000000; stroke-width: 5.0; stroke: rgb(107,174,214); fill: none"  />
</g>
<defs>
<pattern id="hline-sparse" width="10" height="10" patternTransform="rotate(0 0 0)" patternUnits="userSpaceOnUse"><line x1="0" y1="0" x2="10" y2="0" style="stroke:black;stroke-width:2" /></pattern>
<pattern id="checker" width="10" height="10" patternTransform="rotate(45 0 0)" patternUnits="userSpaceOnUse"><line x1="0" y1="0" x2="10" y2="0" style="stroke:black;stroke-width:5" /><line x1="0" y1="0" x2="0" y2="10" style="stroke:black;stroke-width:4" /></pattern>
<pattern id="checker" width="10" height="10" patternTransform="rotate(45 0 0)" patternUnits="userSpaceOnUse"><line x1="0" y1="0" x2="10" y2="0" style="stroke:black;stroke-width:2" /><line x1="0" y1="0" x2="0" y2="10" style="stroke:black;stroke-width:2" /></pattern>
<pattern id="vline" width="10" height="10" patternTransform="rotate(0 0 0)" patternUnits="userSpaceOnUse"><line x1="0" y1="0" x2="0" y2="10" style="stroke:black;stroke-width:5" /></pattern>
<pattern id="hline" width="10" height="10" patternTransform="rotate(0 0 0)" patternUnits="userSpaceOnUse"><line x1="0" y1="0" x2="10" y2="0" style="stroke:black;stroke-width:5" /></pattern>
<pattern id="vline-sparse" width="10" height="10" patternTransform="rotate(0 0 0)" patternUnits="userSpaceOnUse"><line x1="0" y1="0" x2="0" y2="10" style="stroke:black;stroke-width:2" /></pattern>
</defs>
</svg>
