<?xml version="1.0" encoding="utf-8" standalone="no"?>
<!DOCTYPE svg PUBLIC "-//W3C//DTD SVG 1.1//EN" "http://www.w3.org/Graphics/SVG/1.1/DTD/svg11.dtd">
<svg width="3000px" height="3000px" version="1.1" xmlns="http://www.w3.org/2000/svg" xmlns:xlink="http://www.w3.org/1999/xlink">
<g id="bg">
<rect x="0" y="0" width="3000px" height="3000px" style="fill:rgb(255,255,255);"/>
</g>
<g id="ideograms">
<path d="M1500.000,830.000 A670.000,670.000 40.000 0,1 1570.620,833.732 L1579.053,754.178 A750.000,750.000 0.000 0,0 1500.000,750.000 Z" style="stroke-width:2.0;stroke:rgb(115,115,115);stroke-linecap:round;fill:rgb(153,204,255);" />
<text x="1567.5" y="677.8" font-size="65.0px" font-family="CMUBright-Roman" style="text-anchor:start;fill:rgb(0,0,0);" transform="rotate(273.0,1567.5,677.8)" >5-FP</text>
<path d="M1500.000,830.000 A670.000,670.000 40.000 0,1 1570.620,833.732 L1579.053,754.178 A750.000,750.000 0.000 0,0 1500.000,750.000 Z" style="stroke-width:2.0;stroke:rgb(115,115,115);stroke-linecap:round;fill:none;" />
<path d="M1619.633,840.767 A670.000,670.000 40.000 0,1 1688.452,857.049 L1710.954,780.279 A750.000,750.000 0.000 0,0 1633.918,762.053 Z" style="stroke-width:2.0;stroke:rgb(115,115,115);stroke-linecap:round;fill:rgb(153,204,255);" />
<text x="1713.7" y="703.2" font-size="65.0px" font-family="CMUBright-Roman" style="text-anchor:start;fill:rgb(0,0,0);" transform="rotate(283.3,1713.7,703.2)" >8-IFG</text>
<path d="M1619.633,840.767 A670.000,670.000 40.000 0,1 1688.452,857.049 L1710.954,780.279 A750.000,750.000 0.000 0,0 1633.918,762.053 Z" style="stroke-width:2.0;stroke:rgb(115,115,115);stroke-linecap:round;fill:none;" />
<path d="M1735.421,872.723 A670.000,670.000 40.000 0,1 1800.227,901.031 L1836.075,829.512 A750.000,750.000 0.000 0,0 1763.531,797.824 Z" style="stroke-width:2.0;stroke:rgb(115,115,115);stroke-linecap:round;fill:rgb(153,204,255);" />
<text x="1852.5" y="754.1" font-size="65.0px" font-family="CMUBright-Roman" style="text-anchor:start;fill:rgb(0,0,0);" transform="rotate(293.6,1852.5,754.1)" >18-MTG</text>
<path d="M1735.421,872.723 A670.000,670.000 40.000 0,1 1800.227,901.031 L1836.075,829.512 A750.000,750.000 0.000 0,0 1763.531,797.824 Z" style="stroke-width:2.0;stroke:rgb(115,115,115);stroke-linecap:round;fill:none;" />
<path d="M1843.643,924.839 A670.000,670.000 40.000 0,1 1902.352,964.264 L1950.394,900.296 A750.000,750.000 0.000 0,0 1884.674,856.163 Z" style="stroke-width:2.0;stroke:rgb(115,115,115);stroke-linecap:round;fill:rgb(153,204,255);" />
<text x="1980.1" y="829.1" font-size="65.0px" font-family="CMUBright-Roman" style="text-anchor:start;fill:rgb(0,0,0);" transform="rotate(303.9,1980.1,829.1)" >19-MTG</text>
<path d="M1843.643,924.839 A670.000,670.000 40.000 0,1 1902.352,964.264 L1950.394,900.296 A750.000,750.000 0.000 0,0 1884.674,856.163 Z" style="stroke-width:2.0;stroke:rgb(115,115,115);stroke-linecap:round;fill:none;" />
<path d="M1940.819,995.442 A670.000,670.000 40.000 0,1 1991.546,1044.717 L2050.238,990.354 A750.000,750.000 0.000 0,0 1993.454,935.196 Z" style="stroke-width:2.0;stroke:rgb(115,115,115);stroke-linecap:round;fill:rgb(153,204,255);" />
<text x="2092.1" y="925.6" font-size="65.0px" font-family="CMUBright-Roman" style="text-anchor:start;fill:rgb(0,0,0);" transform="rotate(314.2,2092.1,925.6)" >29-RCI</text>
<path d="M1940.819,995.442 A670.000,670.000 40.000 0,1 1991.546,1044.717 L2050.238,990.354 A750.000,750.000 0.000 0,0 1993.454,935.196 Z" style="stroke-width:2.0;stroke:rgb(115,115,115);stroke-linecap:round;fill:none;" />
<path d="M2023.827,1082.262 A670.000,670.000 40.000 0,1 2064.940,1139.802 L2132.396,1096.793 A750.000,750.000 0.000 0,0 2086.374,1032.383 Z" style="stroke-width:2.0;stroke:rgb(115,115,115);stroke-linecap:round;fill:rgb(153,204,255);" />
<text x="2185.2" y="1040.5" font-size="65.0px" font-family="CMUBright-Roman" style="text-anchor:start;fill:rgb(0,0,0);" transform="rotate(324.5,2185.2,1040.5)" >35-SG</text>
<path d="M2023.827,1082.262 A670.000,670.000 40.000 0,1 2064.940,1139.802 L2132.396,1096.793 A750.000,750.000 0.000 0,0 2086.374,1032.383 Z" style="stroke-width:2.0;stroke:rgb(115,115,115);stroke-linecap:round;fill:none;" />
<path d="M2089.999,1182.508 A670.000,670.000 40.000 0,1 2120.177,1246.465 L2194.228,1216.192 A750.000,750.000 0.000 0,0 2160.447,1144.599 Z" style="stroke-width:2.0;stroke:rgb(115,115,115);stroke-linecap:round;fill:rgb(116,196,118);" />
<text x="2256.2" y="1170.3" font-size="65.0px" font-family="CMUBright-Roman" style="text-anchor:start;fill:rgb(0,0,0);" transform="rotate(334.7,2256.2,1170.3)" >2-COC</text>
<path d="M2089.999,1182.508 A670.000,670.000 40.000 0,1 2120.177,1246.465 L2194.228,1216.192 A750.000,750.000 0.000 0,0 2160.447,1144.599 Z" style="stroke-width:2.0;stroke:rgb(115,115,115);stroke-linecap:round;fill:none;" />
<path d="M2137.208,1292.959 A670.000,670.000 40.000 0,1 2155.481,1361.276 L2233.748,1344.712 A750.000,750.000 0.000 0,0 2213.292,1268.237 Z" style="stroke-width:2.0;stroke:rgb(115,115,115);stroke-linecap:round;fill:rgb(116,196,118);" />
<text x="2303.0" y="1310.6" font-size="65.0px" font-family="CMUBright-Roman" style="text-anchor:start;fill:rgb(0,0,0);" transform="rotate(345.0,2303.0,1310.6)" >3-COC</text>
<path d="M2137.208,1292.959 A670.000,670.000 40.000 0,1 2155.481,1361.276 L2233.748,1344.712 A750.000,750.000 0.000 0,0 2213.292,1268.237 Z" style="stroke-width:2.0;stroke:rgb(115,115,115);stroke-linecap:round;fill:none;" />
<path d="M2163.936,1410.064 A670.000,670.000 40.000 0,1 2169.718,1480.546 L2249.684,1478.223 A750.000,750.000 0.000 0,0 2243.212,1399.325 Z" style="stroke-width:2.0;stroke:rgb(115,115,115);stroke-linecap:round;fill:rgb(116,196,118);" />
<text x="2323.9" y="1457.0" font-size="65.0px" font-family="CMUBright-Roman" style="text-anchor:start;fill:rgb(0,0,0);" transform="rotate(355.3,2323.9,1457.0)" >4-FOC</text>
<path d="M2163.936,1410.064 A670.000,670.000 40.000 0,1 2169.718,1480.546 L2249.684,1478.223 A750.000,750.000 0.000 0,0 2243.212,1399.325 Z" style="stroke-width:2.0;stroke:rgb(115,115,115);stroke-linecap:round;fill:none;" />
<path d="M2169.325,1530.059 A670.000,670.000 40.000 0,1 2162.429,1600.441 L2241.524,1612.434 A750.000,750.000 0.000 0,0 2249.245,1533.649 Z" style="stroke-width:2.0;stroke:rgb(115,115,115);stroke-linecap:round;fill:rgb(116,196,118);" />
<text x="2318.4" y="1603.8" font-size="65.0px" font-family="CMUBright-Roman" style="text-anchor:start;fill:rgb(0,0,0);" transform="rotate(5.6,2318.4,1603.8)" >14-LIX</text>
<path d="M2169.325,1530.059 A670.000,670.000 40.000 0,1 2162.429,1600.441 L2241.524,1612.434 A750.000,750.000 0.000 0,0 2249.245,1533.649 Z" style="stroke-width:2.0;stroke:rgb(115,115,115);stroke-linecap:round;fill:none;" />
<path d="M2153.202,1649.089 A670.000,670.000 40.000 0,1 2133.849,1717.108 L2209.532,1743.032 A750.000,750.000 0.000 0,0 2231.196,1666.891 Z" style="stroke-width:2.0;stroke:rgb(115,115,115);stroke-linecap:round;fill:rgb(116,196,118);" />
<text x="2286.6" y="1748.8" font-size="65.0px" font-family="CMUBright-Roman" style="text-anchor:start;fill:rgb(0,0,0);" transform="rotate(15.9,2286.6,1748.8)" >15-LVIIIb</text>
<path d="M2153.202,1649.089 A670.000,670.000 40.000 0,1 2133.849,1717.108 L2209.532,1743.032 A750.000,750.000 0.000 0,0 2231.196,1666.891 Z" style="stroke-width:2.0;stroke:rgb(115,115,115);stroke-linecap:round;fill:none;" />
<path d="M2116.084,1763.327 A670.000,670.000 40.000 0,1 2084.896,1826.797 L2154.734,1865.818 A750.000,750.000 0.000 0,0 2189.646,1794.769 Z" style="stroke-width:2.0;stroke:rgb(115,115,115);stroke-linecap:round;fill:rgb(116,196,118);" />
<text x="2229.8" y="1884.8" font-size="65.0px" font-family="CMUBright-Roman" style="text-anchor:start;fill:rgb(0,0,0);" transform="rotate(26.2,2229.8,1884.8)" >24-PP</text>
<path d="M2116.084,1763.327 A670.000,670.000 40.000 0,1 2084.896,1826.797 L2154.734,1865.818 A750.000,750.000 0.000 0,0 2189.646,1794.769 Z" style="stroke-width:2.0;stroke:rgb(115,115,115);stroke-linecap:round;fill:none;" />
<path d="M2059.164,1869.101 A670.000,670.000 40.000 0,1 2017.145,1925.983 L2078.893,1976.846 A750.000,750.000 0.000 0,0 2125.930,1913.173 Z" style="stroke-width:2.0;stroke:rgb(115,115,115);stroke-linecap:round;fill:rgb(153,0,204);" />
<text x="2148.7" y="2009.7" font-size="65.0px" font-family="CMUBright-Roman" style="text-anchor:start;fill:rgb(0,0,0);" transform="rotate(36.5,2148.7,2009.7)" >1-AG</text>
<path d="M2059.164,1869.101 A670.000,670.000 40.000 0,1 2017.145,1925.983 L2078.893,1976.846 A750.000,750.000 0.000 0,0 2125.930,1913.173 Z" style="stroke-width:2.0;stroke:rgb(115,115,115);stroke-linecap:round;fill:none;" />
<path d="M1984.273,1963.012 A670.000,670.000 40.000 0,1 1932.772,2011.477 L1984.446,2072.549 A750.000,750.000 0.000 0,0 2042.096,2018.297 Z" style="stroke-width:2.0;stroke:rgb(115,115,115);stroke-linecap:round;fill:rgb(153,0,204);" />
<text x="2047.3" y="2117.3" font-size="65.0px" font-family="CMUBright-Roman" style="text-anchor:start;fill:rgb(0,0,0);" transform="rotate(46.7,2047.3,2117.3)" >7-IFG</text>
<path d="M1984.273,1963.012 A670.000,670.000 40.000 0,1 1932.772,2011.477 L1984.446,2072.549 A750.000,750.000 0.000 0,0 2042.096,2018.297 Z" style="stroke-width:2.0;stroke:rgb(115,115,115);stroke-linecap:round;fill:none;" />
<path d="M1893.816,2042.041 A670.000,670.000 40.000 0,1 1834.489,2080.532 L1874.428,2149.849 A750.000,750.000 0.000 0,0 1940.839,2106.763 Z" style="stroke-width:2.0;stroke:rgb(115,115,115);stroke-linecap:round;fill:rgb(153,0,204);" />
<text x="1928.7" y="2204.9" font-size="65.0px" font-family="CMUBright-Roman" style="text-anchor:start;fill:rgb(0,0,0);" transform="rotate(57.0,1928.7,2204.9)" >9-IPL</text>
<path d="M1893.816,2042.041 A670.000,670.000 40.000 0,1 1834.489,2080.532 L1874.428,2149.849 A750.000,750.000 0.000 0,0 1940.839,2106.763 Z" style="stroke-width:2.0;stroke:rgb(115,115,115);stroke-linecap:round;fill:none;" />
<path d="M1790.702,2103.649 A670.000,670.000 40.000 0,1 1725.456,2130.928 L1752.376,2206.262 A750.000,750.000 0.000 0,0 1825.413,2175.727 Z" style="stroke-width:2.0;stroke:rgb(115,115,115);stroke-linecap:round;fill:rgb(153,0,204);" />
<text x="1795.5" y="2270.3" font-size="65.0px" font-family="CMUBright-Roman" style="text-anchor:start;fill:rgb(0,0,0);" transform="rotate(67.3,1795.5,2270.3)" >17-MFG</text>
<path d="M1790.702,2103.649 A670.000,670.000 40.000 0,1 1725.456,2130.928 L1752.376,2206.262 A750.000,750.000 0.000 0,0 1825.413,2175.727 Z" style="stroke-width:2.0;stroke:rgb(115,115,115);stroke-linecap:round;fill:none;" />
<path d="M1678.245,2145.855 A670.000,670.000 40.000 0,1 1609.176,2161.045 L1622.212,2239.976 A750.000,750.000 0.000 0,0 1699.528,2222.972 Z" style="stroke-width:2.0;stroke:rgb(115,115,115);stroke-linecap:round;fill:rgb(153,0,204);" />
<text x="1653.2" y="2310.7" font-size="65.0px" font-family="CMUBright-Roman" style="text-anchor:start;fill:rgb(0,0,0);" transform="rotate(77.6,1653.2,2310.7)" >25-PosG</text>
<path d="M1678.245,2145.855 A670.000,670.000 40.000 0,1 1609.176,2161.045 L1622.212,2239.976 A750.000,750.000 0.000 0,0 1699.528,2222.972 Z" style="stroke-width:2.0;stroke:rgb(115,115,115);stroke-linecap:round;fill:none;" />
<path d="M1560.058,2167.303 A670.000,670.000 40.000 0,1 1489.388,2169.916 L1488.121,2249.906 A750.000,750.000 0.000 0,0 1567.229,2246.981 Z" style="stroke-width:2.0;stroke:rgb(115,115,115);stroke-linecap:round;fill:rgb(153,0,204);" />
<text x="1506.0" y="2325.0" font-size="65.0px" font-family="CMUBright-Roman" style="text-anchor:start;fill:rgb(0,0,0);" transform="rotate(87.9,1506.0,2325.0)" >27-RCI</text>
<path d="M1560.058,2167.303 A670.000,670.000 40.000 0,1 1489.388,2169.916 L1488.121,2249.906 A750.000,750.000 0.000 0,0 1567.229,2246.981 Z" style="stroke-width:2.0;stroke:rgb(115,115,115);stroke-linecap:round;fill:none;" />
<path d="M1439.942,2167.303 A670.000,670.000 40.000 0,1 1369.940,2157.255 L1354.411,2235.733 A750.000,750.000 0.000 0,0 1432.771,2246.981 Z" style="stroke-width:2.0;stroke:rgb(115,115,115);stroke-linecap:round;fill:rgb(153,0,204);" />
<text x="1407.1" y="2319.8" font-size="65.0px" font-family="CMUBright-Roman" style="text-anchor:end;fill:rgb(0,0,0);" transform="rotate(-81.8,1407.1,2319.8)" >28-RCI</text>
<path d="M1439.942,2167.303 A670.000,670.000 40.000 0,1 1369.940,2157.255 L1354.411,2235.733 A750.000,750.000 0.000 0,0 1432.771,2246.981 Z" style="stroke-width:2.0;stroke:rgb(115,115,115);stroke-linecap:round;fill:none;" />
<path d="M1321.755,2145.855 A670.000,670.000 40.000 0,1 1254.673,2123.470 L1225.380,2197.914 A750.000,750.000 0.000 0,0 1300.472,2222.972 Z" style="stroke-width:2.0;stroke:rgb(115,115,115);stroke-linecap:round;fill:rgb(153,0,204);" />
<text x="1262.2" y="2290.0" font-size="65.0px" font-family="CMUBright-Roman" style="text-anchor:end;fill:rgb(0,0,0);" transform="rotate(-71.5,1262.2,2290.0)" >34-SG</text>
<path d="M1321.755,2145.855 A670.000,670.000 40.000 0,1 1254.673,2123.470 L1225.380,2197.914 A750.000,750.000 0.000 0,0 1300.472,2222.972 Z" style="stroke-width:2.0;stroke:rgb(115,115,115);stroke-linecap:round;fill:none;" />
<path d="M1209.298,2103.649 A670.000,670.000 40.000 0,1 1147.290,2069.645 L1105.176,2137.663 A750.000,750.000 0.000 0,0 1174.587,2175.727 Z" style="stroke-width:2.0;stroke:rgb(115,115,115);stroke-linecap:round;fill:rgb(253,208,162);" />
<text x="1125.0" y="2234.8" font-size="65.0px" font-family="CMUBright-Roman" style="text-anchor:end;fill:rgb(0,0,0);" transform="rotate(-61.3,1125.0,2234.8)" >12-LOC</text>
<path d="M1209.298,2103.649 A670.000,670.000 40.000 0,1 1147.290,2069.645 L1105.176,2137.663 A750.000,750.000 0.000 0,0 1174.587,2175.727 Z" style="stroke-width:2.0;stroke:rgb(115,115,115);stroke-linecap:round;fill:none;" />
<path d="M1106.184,2042.041 A670.000,670.000 40.000 0,1 1051.245,1997.512 L997.662,2056.917 A750.000,750.000 0.000 0,0 1059.161,2106.763 Z" style="stroke-width:2.0;stroke:rgb(115,115,115);stroke-linecap:round;fill:rgb(253,208,162);" />
<text x="999.8" y="2156.1" font-size="65.0px" font-family="CMUBright-Roman" style="text-anchor:end;fill:rgb(0,0,0);" transform="rotate(-51.0,999.8,2156.1)" >16-LG</text>
<path d="M1106.184,2042.041 A670.000,670.000 40.000 0,1 1051.245,1997.512 L997.662,2056.917 A750.000,750.000 0.000 0,0 1059.161,2106.763 Z" style="stroke-width:2.0;stroke:rgb(115,115,115);stroke-linecap:round;fill:none;" />
<path d="M1015.727,1963.012 A670.000,670.000 40.000 0,1 969.622,1909.389 L906.293,1958.271 A750.000,750.000 0.000 0,0 957.904,2018.297 Z" style="stroke-width:2.0;stroke:rgb(115,115,115);stroke-linecap:round;fill:rgb(253,208,162);" />
<text x="890.7" y="2056.2" font-size="65.0px" font-family="CMUBright-Roman" style="text-anchor:end;fill:rgb(0,0,0);" transform="rotate(-40.7,890.7,2056.2)" >20-OFG</text>
<path d="M1015.727,1963.012 A670.000,670.000 40.000 0,1 969.622,1909.389 L906.293,1958.271 A750.000,750.000 0.000 0,0 957.904,2018.297 Z" style="stroke-width:2.0;stroke:rgb(115,115,115);stroke-linecap:round;fill:none;" />
<path d="M940.836,1869.101 A670.000,670.000 40.000 0,1 905.046,1808.107 L834.007,1844.896 A750.000,750.000 0.000 0,0 874.070,1913.173 Z" style="stroke-width:2.0;stroke:rgb(115,115,115);stroke-linecap:round;fill:rgb(253,208,162);" />
<text x="801.2" y="1938.5" font-size="65.0px" font-family="CMUBright-Roman" style="text-anchor:end;fill:rgb(0,0,0);" transform="rotate(-30.4,801.2,1938.5)" >21-OP</text>
<path d="M940.836,1869.101 A670.000,670.000 40.000 0,1 905.046,1808.107 L834.007,1844.896 A750.000,750.000 0.000 0,0 874.070,1913.173 Z" style="stroke-width:2.0;stroke:rgb(115,115,115);stroke-linecap:round;fill:none;" />
<path d="M883.916,1763.327 A670.000,670.000 40.000 0,1 859.593,1696.922 L783.126,1720.436 A750.000,750.000 0.000 0,0 810.354,1794.769 Z" style="stroke-width:2.0;stroke:rgb(115,115,115);stroke-linecap:round;fill:rgb(253,141,60);" />
<text x="734.1" y="1806.6" font-size="65.0px" font-family="CMUBright-Roman" style="text-anchor:end;fill:rgb(0,0,0);" transform="rotate(-20.1,734.1,1806.6)" >11-ITG</text>
<path d="M883.916,1763.327 A670.000,670.000 40.000 0,1 859.593,1696.922 L783.126,1720.436 A750.000,750.000 0.000 0,0 810.354,1794.769 Z" style="stroke-width:2.0;stroke:rgb(115,115,115);stroke-linecap:round;fill:none;" />
<path d="M846.798,1649.089 A670.000,670.000 40.000 0,1 834.722,1579.409 L755.286,1588.890 A750.000,750.000 0.000 0,0 768.804,1666.891 Z" style="stroke-width:2.0;stroke:rgb(115,115,115);stroke-linecap:round;fill:rgb(253,141,60);" />
<text x="691.6" y="1664.5" font-size="65.0px" font-family="CMUBright-Roman" style="text-anchor:end;fill:rgb(0,0,0);" transform="rotate(-9.8,691.6,1664.5)" >30-RH</text>
<path d="M846.798,1649.089 A670.000,670.000 40.000 0,1 834.722,1579.409 L755.286,1588.890 A750.000,750.000 0.000 0,0 768.804,1666.891 Z" style="stroke-width:2.0;stroke:rgb(115,115,115);stroke-linecap:round;fill:none;" />
<path d="M830.675,1530.059 A670.000,670.000 40.000 0,1 831.235,1459.343 L751.382,1454.488 A750.000,750.000 0.000 0,0 750.755,1533.649 Z" style="stroke-width:2.0;stroke:rgb(115,115,115);stroke-linecap:round;fill:rgb(253,141,60);" />
<text x="675.2" y="1517.5" font-size="65.0px" font-family="CMUBright-Roman" style="text-anchor:end;fill:rgb(0,0,0);" transform="rotate(0.5,675.2,1517.5)" >31-RLV</text>
<path d="M830.675,1530.059 A670.000,670.000 40.000 0,1 831.235,1459.343 L751.382,1454.488 A750.000,750.000 0.000 0,0 750.755,1533.649 Z" style="stroke-width:2.0;stroke:rgb(115,115,115);stroke-linecap:round;fill:none;" />
<path d="M836.064,1410.064 A670.000,670.000 40.000 0,1 849.242,1340.583 L771.539,1321.549 A750.000,750.000 0.000 0,0 756.788,1399.325 Z" style="stroke-width:2.0;stroke:rgb(115,115,115);stroke-linecap:round;fill:rgb(253,141,60);" />
<text x="685.3" y="1369.9" font-size="65.0px" font-family="CMUBright-Roman" style="text-anchor:end;fill:rgb(0,0,0);" transform="rotate(10.7,685.3,1369.9)" >32-RLV</text>
<path d="M836.064,1410.064 A670.000,670.000 40.000 0,1 849.242,1340.583 L771.539,1321.549 A750.000,750.000 0.000 0,0 756.788,1399.325 Z" style="stroke-width:2.0;stroke:rgb(115,115,115);stroke-linecap:round;fill:none;" />
<path d="M862.792,1292.959 A670.000,670.000 40.000 0,1 888.165,1226.948 L815.110,1194.345 A750.000,750.000 0.000 0,0 786.708,1268.237 Z" style="stroke-width:2.0;stroke:rgb(115,115,115);stroke-linecap:round;fill:rgb(253,141,60);" />
<text x="721.5" y="1227.0" font-size="65.0px" font-family="CMUBright-Roman" style="text-anchor:end;fill:rgb(0,0,0);" transform="rotate(21.0,721.5,1227.0)" >33-SC</text>
<path d="M862.792,1292.959 A670.000,670.000 40.000 0,1 888.165,1226.948 L815.110,1194.345 A750.000,750.000 0.000 0,0 786.708,1268.237 Z" style="stroke-width:2.0;stroke:rgb(115,115,115);stroke-linecap:round;fill:none;" />
<path d="M910.001,1182.508 A670.000,670.000 40.000 0,1 946.752,1122.089 L880.693,1076.965 A750.000,750.000 0.000 0,0 839.553,1144.599 Z" style="stroke-width:2.0;stroke:rgb(115,115,115);stroke-linecap:round;fill:rgb(66,146,198);" />
<text x="782.7" y="1092.4" font-size="65.0px" font-family="CMUBright-Roman" style="text-anchor:end;fill:rgb(0,0,0);" transform="rotate(31.3,782.7,1092.4)" >6-IFG</text>
<path d="M910.001,1182.508 A670.000,670.000 40.000 0,1 946.752,1122.089 L880.693,1076.965 A750.000,750.000 0.000 0,0 839.553,1144.599 Z" style="stroke-width:2.0;stroke:rgb(115,115,115);stroke-linecap:round;fill:none;" />
<path d="M976.173,1082.262 A670.000,670.000 40.000 0,1 1023.122,1029.376 L966.181,973.182 A750.000,750.000 0.000 0,0 913.626,1032.383 Z" style="stroke-width:2.0;stroke:rgb(115,115,115);stroke-linecap:round;fill:rgb(66,146,198);" />
<text x="867.4" y="970.5" font-size="65.0px" font-family="CMUBright-Roman" style="text-anchor:end;fill:rgb(0,0,0);" transform="rotate(41.6,867.4,970.5)" >10-IPL</text>
<path d="M976.173,1082.262 A670.000,670.000 40.000 0,1 1023.122,1029.376 L966.181,973.182 A750.000,750.000 0.000 0,0 913.626,1032.383 Z" style="stroke-width:2.0;stroke:rgb(115,115,115);stroke-linecap:round;fill:none;" />
<path d="M1059.181,995.442 A670.000,670.000 40.000 0,1 1114.819,951.789 L1068.827,886.331 A750.000,750.000 0.000 0,0 1006.546,935.196 Z" style="stroke-width:2.0;stroke:rgb(115,115,115);stroke-linecap:round;fill:rgb(66,146,198);" />
<text x="971.7" y="866.3" font-size="65.0px" font-family="CMUBright-Roman" style="text-anchor:end;fill:rgb(0,0,0);" transform="rotate(51.9,971.7,866.3)" >13-LCI</text>
<path d="M1059.181,995.442 A670.000,670.000 40.000 0,1 1114.819,951.789 L1068.827,886.331 A750.000,750.000 0.000 0,0 1006.546,935.196 Z" style="stroke-width:2.0;stroke:rgb(115,115,115);stroke-linecap:round;fill:none;" />
<path d="M1156.357,924.839 A670.000,670.000 40.000 0,1 1218.896,891.822 L1185.331,819.204 A750.000,750.000 0.000 0,0 1115.326,856.163 Z" style="stroke-width:2.0;stroke:rgb(115,115,115);stroke-linecap:round;fill:rgb(66,146,198);" />
<text x="1093.3" y="782.2" font-size="65.0px" font-family="CMUBright-Roman" style="text-anchor:end;fill:rgb(0,0,0);" transform="rotate(62.2,1093.3,782.2)" >22-ParG</text>
<path d="M1156.357,924.839 A670.000,670.000 40.000 0,1 1218.896,891.822 L1185.331,819.204 A750.000,750.000 0.000 0,0 1115.326,856.163 Z" style="stroke-width:2.0;stroke:rgb(115,115,115);stroke-linecap:round;fill:none;" />
<path d="M1264.579,872.723 A670.000,670.000 40.000 0,1 1332.008,851.403 L1311.949,773.958 A750.000,750.000 0.000 0,0 1236.469,797.824 Z" style="stroke-width:2.0;stroke:rgb(115,115,115);stroke-linecap:round;fill:rgb(66,146,198);" />
<text x="1228.5" y="721.0" font-size="65.0px" font-family="CMUBright-Roman" style="text-anchor:end;fill:rgb(0,0,0);" transform="rotate(72.5,1228.5,721.0)" >23-PP</text>
<path d="M1264.579,872.723 A670.000,670.000 40.000 0,1 1332.008,851.403 L1311.949,773.958 A750.000,750.000 0.000 0,0 1236.469,797.824 Z" style="stroke-width:2.0;stroke:rgb(115,115,115);stroke-linecap:round;fill:none;" />
<path d="M1380.367,840.767 A670.000,670.000 40.000 0,1 1450.519,831.830 L1444.611,752.048 A750.000,750.000 0.000 0,0 1366.082,762.053 Z" style="stroke-width:2.0;stroke:rgb(115,115,115);stroke-linecap:round;fill:rgb(66,146,198);" />
<text x="1371.5" y="685.1" font-size="65.0px" font-family="CMUBright-Roman" style="text-anchor:end;fill:rgb(0,0,0);" transform="rotate(82.7,1371.5,685.1)" >26-PC</text>
<path d="M1380.367,840.767 A670.000,670.000 40.000 0,1 1450.519,831.830 L1444.611,752.048 A750.000,750.000 0.000 0,0 1366.082,762.053 Z" style="stroke-width:2.0;stroke:rgb(115,115,115);stroke-linecap:round;fill:none;" />
</g>
<g id="track_1">
<path d="M 2012.0,1878.2 L 1986.0,1859.0 1960.0,1839.7 1934.1,1820.3 1908.1,1800.9 1882.1,1781.3 1856.2,1761.7 1830.2,1742.0 1804.3,1722.3 1778.4,1702.4 1752.5,1682.5 1726.7,1662.5 1700.9,1642.4 1675.1,1622.3 1649.3,1602.1 1623.6,1581.8 1597.9,1561.4 1572.3,1540.9 1546.7,1520.4 1521.2,1499.9 1495.7,1479.2 1470.3,1458.5 1445.0,1437.7 1419.7,1416.9 1394.4,1396.0 1369.2,1375.0 1344.1,1354.0 1319.1,1333.0 1294.1,1311.9 1269.2,1290.7 1244.3,1269.5 1219.5,1248.3 1194.8,1227.0 1170.2,1205.7 1145.6,1184.4 1121.2,1163.1 1096.8,1141.7 1072.4,1120.3 1048.2,1098.9 1024.0,1077.4  " style="stroke-opacity: 1.000000; stroke-width: 5.0; stroke: rgb(251,106,74); fill: none"  />
<path d="M 2012.0,1878.2 L 1988.3,1860.4 1964.7,1842.1 1941.3,1823.3 1918.0,1803.9 1895.0,1783.9 1872.1,1763.4 1849.6,1742.4 1827.5,1720.9 1805.7,1698.8 1784.3,1676.2 1763.3,1653.1 1742.8,1629.4 1722.8,1605.3 1703.3,1580.7 1684.4,1555.7 1666.0,1530.2 1648.2,1504.2 1631.1,1477.9 1614.5,1451.1 1598.5,1423.9 1583.3,1396.4 1568.6,1368.5 1554.6,1340.3 1541.3,1311.9 1528.7,1283.1 1516.7,1254.1 1505.4,1224.9 1494.8,1195.5 1484.9,1165.9 1475.6,1136.2 1466.9,1106.4 1458.9,1076.5 1451.5,1046.6 1444.8,1016.7 1438.6,986.9 1433.0,957.1 1428.0,927.4 1423.5,897.9 1419.6,868.6  " style="stroke-opacity: 1.000000; stroke-width: 5.0; stroke: rgb(251,106,74); fill: none"  />
<path d="M 1533.6,864.4 L 1532.0,889.7 1529.9,914.9 1527.2,939.8 1523.9,964.5 1520.0,988.6 1515.4,1012.1 1510.2,1034.9 1504.2,1056.9 1497.6,1077.9 1490.2,1097.8 1482.1,1116.7 1473.3,1134.3 1463.7,1150.6 1453.4,1165.7 1442.4,1179.3 1430.6,1191.5 1418.1,1202.1 1404.9,1211.3 1391.0,1219.0 1376.5,1225.0 1361.3,1229.5 1345.5,1232.5 1329.1,1233.9 1312.2,1233.7 1294.8,1232.0 1276.8,1228.8 1258.5,1224.1 1239.7,1218.0 1220.6,1210.5 1201.2,1201.7 1181.6,1191.7 1161.8,1180.5 1141.9,1168.3 1122.0,1155.0 1102.0,1140.8 1082.2,1125.9 1062.5,1110.2 1043.1,1094.1 1024.0,1077.4  " style="stroke-opacity: 1.000000; stroke-width: 5.0; stroke: rgb(251,106,74); fill: none"  />
<path d="M 1533.6,864.4 L 1532.1,889.4 1530.1,914.2 1527.6,938.8 1524.7,962.9 1521.2,986.5 1517.2,1009.4 1512.6,1031.5 1507.4,1052.6 1501.7,1072.7 1495.4,1091.7 1488.4,1109.4 1480.9,1125.7 1472.7,1140.7 1464.0,1154.2 1454.6,1166.3 1444.6,1176.7 1434.1,1185.5 1423.0,1192.7 1411.3,1198.3 1399.1,1202.1 1386.4,1204.3 1373.1,1204.8 1359.4,1203.6 1345.3,1200.8 1330.7,1196.4 1315.8,1190.3 1300.5,1182.8 1284.9,1173.7 1269.0,1163.2 1253.0,1151.4 1236.7,1138.2 1220.4,1123.9 1203.9,1108.5 1187.5,1092.0 1171.1,1074.7 1154.8,1056.7 1138.6,1038.0 1122.7,1018.8 1107.1,999.2  " style="stroke-opacity: 1.000000; stroke-width: 5.0; stroke: rgb(251,106,74); fill: none"  />
<path d="M 1533.6,864.4 L 1531.9,896.6 1530.1,928.9 1528.2,961.3 1526.3,993.7 1524.3,1026.1 1522.2,1058.6 1520.1,1091.1 1517.9,1123.6 1515.6,1156.1 1513.2,1188.7 1510.7,1221.3 1508.2,1253.9 1505.6,1286.5 1502.9,1319.2 1500.1,1351.8 1497.3,1384.4 1494.3,1417.1 1491.3,1449.7 1488.2,1482.4 1485.0,1515.0 1481.7,1547.6 1478.3,1580.2 1474.9,1612.8 1471.4,1645.4 1467.8,1678.0 1464.1,1710.5 1460.3,1743.0 1456.4,1775.5 1452.5,1807.9 1448.5,1840.4 1444.5,1872.7 1440.3,1905.1 1436.1,1937.3 1431.8,1969.6 1427.5,2001.8 1423.1,2033.9 1418.6,2066.0 1414.1,2098.1 1409.6,2130.0  " style="stroke-opacity: 1.000000; stroke-width: 5.0; stroke: rgb(251,106,74); fill: none"  />
<path d="M 956.2,1169.2 L 983.2,1185.7 1010.2,1202.5 1037.2,1219.4 1064.2,1236.6 1091.2,1254.0 1118.1,1271.6 1145.0,1289.5 1171.9,1307.6 1198.7,1325.9 1225.5,1344.4 1252.2,1363.2 1278.7,1382.2 1305.2,1401.4 1331.6,1420.9 1357.9,1440.5 1384.0,1460.4 1410.0,1480.5 1435.8,1500.8 1461.5,1521.3 1487.1,1542.0 1512.5,1563.0 1537.7,1584.0 1562.7,1605.3 1587.6,1626.8 1612.3,1648.4 1636.8,1670.1 1661.1,1692.1 1685.2,1714.1 1709.0,1736.3 1732.7,1758.7 1756.2,1781.1 1779.5,1803.7 1802.5,1826.3 1825.3,1849.0 1848.0,1871.8 1870.4,1894.7 1892.5,1917.6 1914.5,1940.6 1936.2,1963.5  " style="stroke-opacity: 1.000000; stroke-width: 5.0; stroke: rgb(251,106,74); fill: none"  />
<path d="M 1936.2,1963.5 L 1914.5,1940.6 1892.5,1917.6 1870.4,1894.7 1848.0,1871.8 1825.3,1849.0 1802.5,1826.3 1779.5,1803.7 1756.2,1781.1 1732.7,1758.7 1709.0,1736.3 1685.2,1714.1 1661.1,1692.1 1636.8,1670.1 1612.3,1648.4 1587.6,1626.8 1562.7,1605.3 1537.7,1584.0 1512.5,1563.0 1487.1,1542.0 1461.5,1521.3 1435.8,1500.8 1410.0,1480.5 1384.0,1460.4 1357.9,1440.5 1331.6,1420.9 1305.2,1401.4 1278.7,1382.2 1252.2,1363.2 1225.5,1344.4 1198.7,1325.9 1171.9,1307.6 1145.0,1289.5 1118.1,1271.6 1091.2,1254.0 1064.2,1236.6 1037.2,1219.4 1010.2,1202.5 983.2,1185.7 956.2,1169.2  " style="stroke-opacity: 1.000000; stroke-width: 5.0; stroke: rgb(251,106,74); fill: none"  />
<path d="M 1646.5,880.6 L 1640.4,905.5 1633.6,930.3 1626.2,954.9 1618.2,979.0 1609.6,1002.6 1600.3,1025.6 1590.4,1047.8 1579.8,1069.2 1568.6,1089.6 1556.8,1108.9 1544.3,1127.1 1531.2,1144.1 1517.5,1159.9 1503.1,1174.3 1488.2,1187.3 1472.6,1198.9 1456.5,1209.1 1439.9,1217.7 1422.7,1224.9 1405.0,1230.4 1386.9,1234.5 1368.3,1237.0 1349.3,1237.9 1329.9,1237.4 1310.2,1235.3 1290.2,1231.8 1269.9,1226.8 1249.4,1220.4 1228.7,1212.6 1207.9,1203.6 1187.0,1193.4 1166.1,1182.0 1145.2,1169.5 1124.4,1156.0 1103.8,1141.7 1083.4,1126.5 1063.2,1110.7 1043.4,1094.3 1024.0,1077.4  " style="stroke-opacity: 1.000000; stroke-width: 5.0; stroke: rgb(251,106,74); fill: none"  />
<path d="M 1846.4,2034.0 L 1829.1,2007.5 1811.6,1981.0 1793.9,1954.5 1776.0,1928.0 1757.8,1901.5 1739.4,1875.1 1720.8,1848.7 1701.9,1822.3 1682.8,1796.1 1663.5,1769.9 1643.9,1743.8 1624.2,1717.7 1604.2,1691.8 1584.0,1666.0 1563.6,1640.4 1542.9,1614.8 1522.1,1589.4 1501.0,1564.2 1479.8,1539.1 1458.3,1514.1 1436.7,1489.4 1414.9,1464.8 1392.9,1440.3 1370.8,1416.1 1348.4,1392.1 1326.0,1368.2 1303.3,1344.6 1280.6,1321.1 1257.7,1297.9 1234.7,1274.9 1211.6,1252.1 1188.3,1229.5 1165.0,1207.1 1141.7,1184.9 1118.2,1163.0 1094.7,1141.3 1071.2,1119.8 1047.6,1098.5 1024.0,1077.4  " style="stroke-opacity: 1.000000; stroke-width: 5.0; stroke: rgb(251,106,74); fill: none"  />
<path d="M 1846.4,2034.0 L 1828.8,2006.9 1811.1,1979.8 1793.4,1952.7 1775.5,1925.6 1757.6,1898.5 1739.6,1871.4 1721.6,1844.3 1703.4,1817.2 1685.2,1790.2 1666.8,1763.1 1648.5,1736.1 1630.0,1709.1 1611.4,1682.2 1592.8,1655.2 1574.1,1628.4 1555.3,1601.5 1536.5,1574.7 1517.6,1547.9 1498.6,1521.2 1479.5,1494.5 1460.4,1467.9 1441.2,1441.3 1421.9,1414.8 1402.6,1388.3 1383.2,1361.9 1363.8,1335.5 1344.3,1309.3 1324.7,1283.0 1305.1,1256.9 1285.5,1230.8 1265.8,1204.8 1246.1,1178.8 1226.3,1153.0 1206.5,1127.1 1186.7,1101.4 1166.8,1075.8 1146.9,1050.2 1127.0,1024.7 1107.1,999.2  " style="stroke-opacity: 1.000000; stroke-width: 5.0; stroke: rgb(251,106,74); fill: none"  />
<path d="M 1846.4,2034.0 L 1830.9,2009.6 1815.7,1984.6 1800.9,1959.2 1786.6,1933.3 1772.7,1906.9 1759.4,1880.1 1746.6,1852.9 1734.5,1825.2 1723.0,1797.3 1712.2,1768.9 1702.2,1740.3 1692.9,1711.4 1684.5,1682.2 1676.8,1652.8 1669.9,1623.1 1663.9,1593.3 1658.8,1563.3 1654.5,1533.1 1651.2,1502.9 1648.7,1472.5 1647.1,1442.1 1646.4,1411.7 1646.5,1381.3 1647.6,1350.8 1649.5,1320.5 1652.3,1290.2 1655.9,1260.0 1660.3,1229.9 1665.6,1200.1 1671.6,1170.4 1678.3,1140.9 1685.8,1111.7 1694.0,1082.7 1702.7,1054.1 1712.1,1025.8 1722.1,997.9 1732.5,970.4 1743.5,943.3 1754.8,916.7  " style="stroke-opacity: 1.000000; stroke-width: 5.0; stroke: rgb(251,106,74); fill: none"  />
<path d="M 1846.4,2034.0 L 1829.7,2007.9 1813.1,1981.6 1796.7,1954.9 1780.4,1928.0 1764.4,1900.7 1748.6,1873.1 1733.0,1845.2 1717.6,1817.1 1702.6,1788.7 1687.8,1760.0 1673.3,1731.1 1659.2,1701.9 1645.3,1672.5 1631.8,1642.9 1618.7,1613.0 1605.9,1583.0 1593.5,1552.8 1581.5,1522.4 1569.9,1491.8 1558.6,1461.1 1547.8,1430.3 1537.3,1399.3 1527.3,1368.2 1517.6,1337.0 1508.4,1305.8 1499.5,1274.4 1491.1,1243.1 1483.1,1211.6 1475.4,1180.2 1468.2,1148.8 1461.3,1117.4 1454.9,1086.0 1448.8,1054.6 1443.0,1023.3 1437.7,992.2 1432.6,961.1 1428.0,930.1 1423.6,899.3 1419.6,868.6  " style="stroke-opacity: 1.000000; stroke-width: 5.0; stroke: rgb(251,106,74); fill: none"  />
<path d="M 1024.0,1077.4 L 1048.2,1098.9 1072.4,1120.3 1096.8,1141.7 1121.2,1163.1 1145.6,1184.4 1170.2,1205.7 1194.8,1227.0 1219.5,1248.3 1244.3,1269.5 1269.2,1290.7 1294.1,1311.9 1319.1,1333.0 1344.1,1354.0 1369.2,1375.0 1394.4,1396.0 1419.7,1416.9 1445.0,1437.7 1470.3,1458.5 1495.7,1479.2 1521.2,1499.9 1546.7,1520.4 1572.3,1540.9 1597.9,1561.4 1623.6,1581.8 1649.3,1602.1 1675.1,1622.3 1700.9,1642.4 1726.7,1662.5 1752.5,1682.5 1778.4,1702.4 1804.3,1722.3 1830.2,1742.0 1856.2,1761.7 1882.1,1781.3 1908.1,1800.9 1934.1,1820.3 1960.0,1839.7 1986.0,1859.0 2012.0,1878.2  " style="stroke-opacity: 1.000000; stroke-width: 5.0; stroke: rgb(251,106,74); fill: none"  />
<path d="M 1024.0,1077.4 L 1043.1,1094.1 1062.5,1110.2 1082.2,1125.9 1102.0,1140.8 1122.0,1155.0 1141.9,1168.3 1161.8,1180.5 1181.6,1191.7 1201.2,1201.7 1220.6,1210.5 1239.7,1218.0 1258.5,1224.1 1276.8,1228.8 1294.8,1232.0 1312.2,1233.7 1329.1,1233.9 1345.5,1232.5 1361.3,1229.5 1376.5,1225.0 1391.0,1219.0 1404.9,1211.3 1418.1,1202.1 1430.6,1191.5 1442.4,1179.3 1453.4,1165.7 1463.7,1150.6 1473.3,1134.3 1482.1,1116.7 1490.2,1097.8 1497.6,1077.9 1504.2,1056.9 1510.2,1034.9 1515.4,1012.1 1520.0,988.6 1523.9,964.5 1527.2,939.8 1529.9,914.9 1532.0,889.7 1533.6,864.4  " style="stroke-opacity: 1.000000; stroke-width: 5.0; stroke: rgb(251,106,74); fill: none"  />
<path d="M 1024.0,1077.4 L 1043.4,1094.3 1063.2,1110.7 1083.4,1126.5 1103.8,1141.7 1124.4,1156.0 1145.2,1169.5 1166.1,1182.0 1187.0,1193.4 1207.9,1203.6 1228.7,1212.6 1249.4,1220.4 1269.9,1226.8 1290.2,1231.8 1310.2,1235.3 1329.9,1237.4 1349.3,1237.9 1368.3,1237.0 1386.9,1234.5 1405.0,1230.4 1422.7,1224.9 1439.9,1217.7 1456.5,1209.1 1472.6,1198.9 1488.2,1187.3 1503.1,1174.3 1517.5,1159.9 1531.2,1144.1 1544.3,1127.1 1556.8,1108.9 1568.6,1089.6 1579.8,1069.2 1590.4,1047.8 1600.3,1025.6 1609.6,1002.6 1618.2,979.0 1626.2,954.9 1633.6,930.3 1640.4,905.5 1646.5,880.6  " style="stroke-opacity: 1.000000; stroke-width: 5.0; stroke: rgb(251,106,74); fill: none"  />
<path d="M 1024.0,1077.4 L 1047.6,1098.5 1071.2,1119.8 1094.7,1141.3 1118.2,1163.0 1141.7,1184.9 1165.0,1207.1 1188.3,1229.5 1211.6,1252.1 1234.7,1274.9 1257.7,1297.9 1280.6,1321.1 1303.3,1344.6 1326.0,1368.2 1348.4,1392.1 1370.8,1416.1 1392.9,1440.3 1414.9,1464.8 1436.7,1489.4 1458.3,1514.1 1479.8,1539.1 1501.0,1564.2 1522.1,1589.4 1542.9,1614.8 1563.6,1640.4 1584.0,1666.0 1604.2,1691.8 1624.2,1717.7 1643.9,1743.8 1663.5,1769.9 1682.8,1796.1 1701.9,1822.3 1720.8,1848.7 1739.4,1875.1 1757.8,1901.5 1776.0,1928.0 1793.9,1954.5 1811.6,1981.0 1829.1,2007.5 1846.4,2034.0  " style="stroke-opacity: 1.000000; stroke-width: 5.0; stroke: rgb(251,106,74); fill: none"  />
<path d="M 1024.0,1077.4 L 1044.1,1094.9 1064.7,1111.8 1085.9,1128.3 1107.5,1144.1 1129.5,1159.2 1151.8,1173.5 1174.5,1186.9 1197.4,1199.3 1220.6,1210.7 1244.0,1221.0 1267.6,1230.1 1291.2,1238.0 1315.0,1244.6 1338.8,1249.9 1362.5,1253.9 1386.3,1256.5 1410.0,1257.8 1433.6,1257.6 1457.1,1256.0 1480.4,1253.1 1503.5,1248.7 1526.4,1242.9 1549.0,1235.8 1571.4,1227.3 1593.4,1217.5 1615.1,1206.4 1636.4,1194.0 1657.3,1180.4 1677.8,1165.7 1697.9,1149.9 1717.5,1133.1 1736.6,1115.3 1755.2,1096.7 1773.3,1077.2 1790.8,1057.1 1807.7,1036.3 1824.0,1015.1 1839.8,993.5 1854.8,971.6  " style="stroke-opacity: 1.000000; stroke-width: 5.0; stroke: rgb(251,106,74); fill: none"  />
<path d="M 1194.0,2058.1 L 1206.3,2036.0 1219.2,2014.2 1232.5,1992.9 1246.1,1972.1 1260.1,1952.1 1274.4,1932.9 1289.0,1914.6 1303.9,1897.4 1319.0,1881.4 1334.3,1866.6 1349.8,1853.1 1365.4,1841.1 1381.1,1830.5 1396.9,1821.5 1412.8,1814.0 1428.7,1808.1 1444.6,1803.9 1460.4,1801.3 1476.2,1800.5 1492.0,1801.3 1507.6,1803.8 1523.1,1808.0 1538.5,1813.9 1553.6,1821.4 1568.6,1830.5 1583.4,1841.2 1597.9,1853.4 1612.1,1867.0 1626.1,1882.0 1639.8,1898.3 1653.1,1915.9 1666.1,1934.5 1678.7,1954.2 1690.9,1974.8 1702.7,1996.3 1714.1,2018.3 1725.0,2041.0 1735.5,2064.0 1745.5,2087.2  " style="stroke-opacity: 1.000000; stroke-width: 5.0; stroke: rgb(251,106,74); fill: none"  />
<path d="M 1194.0,2058.1 L 1209.2,2030.4 1224.7,2002.7 1240.4,1975.0 1256.4,1947.2 1272.6,1919.5 1289.0,1891.7 1305.6,1864.0 1322.5,1836.4 1339.6,1808.8 1356.9,1781.2 1374.5,1753.7 1392.2,1726.3 1410.3,1699.0 1428.5,1671.8 1447.0,1644.7 1465.7,1617.7 1484.6,1590.8 1503.7,1564.1 1523.0,1537.5 1542.6,1511.0 1562.3,1484.7 1582.3,1458.6 1602.4,1432.6 1622.7,1406.8 1643.2,1381.2 1663.8,1355.7 1684.7,1330.5 1705.6,1305.4 1726.7,1280.6 1748.0,1255.9 1769.3,1231.4 1790.8,1207.2 1812.4,1183.2 1834.1,1159.3 1855.9,1135.7 1877.7,1112.3 1899.6,1089.1 1921.5,1066.2 1943.5,1043.4  " style="stroke-opacity: 1.000000; stroke-width: 5.0; stroke: rgb(251,106,74); fill: none"  />
<path d="M 1107.1,999.2 L 1122.7,1018.8 1138.6,1038.0 1154.8,1056.7 1171.1,1074.7 1187.5,1092.0 1203.9,1108.5 1220.4,1123.9 1236.7,1138.2 1253.0,1151.4 1269.0,1163.2 1284.9,1173.7 1300.5,1182.8 1315.8,1190.3 1330.7,1196.4 1345.3,1200.8 1359.4,1203.6 1373.1,1204.8 1386.4,1204.3 1399.1,1202.1 1411.3,1198.3 1423.0,1192.7 1434.1,1185.5 1444.6,1176.7 1454.6,1166.3 1464.0,1154.2 1472.7,1140.7 1480.9,1125.7 1488.4,1109.4 1495.4,1091.7 1501.7,1072.7 1507.4,1052.6 1512.6,1031.5 1517.2,1009.4 1521.2,986.5 1524.7,962.9 1527.6,938.8 1530.1,914.2 1532.1,889.4 1533.6,864.4  " style="stroke-opacity: 1.000000; stroke-width: 5.0; stroke: rgb(251,106,74); fill: none"  />
<path d="M 1107.1,999.2 L 1127.0,1024.7 1146.9,1050.2 1166.8,1075.8 1186.7,1101.4 1206.5,1127.1 1226.3,1153.0 1246.1,1178.8 1265.8,1204.8 1285.5,1230.8 1305.1,1256.9 1324.7,1283.0 1344.3,1309.3 1363.8,1335.5 1383.2,1361.9 1402.6,1388.3 1421.9,1414.8 1441.2,1441.3 1460.4,1467.9 1479.5,1494.5 1498.6,1521.2 1517.6,1547.9 1536.5,1574.7 1555.3,1601.5 1574.1,1628.4 1592.8,1655.2 1611.4,1682.2 1630.0,1709.1 1648.5,1736.1 1666.8,1763.1 1685.2,1790.2 1703.4,1817.2 1721.6,1844.3 1739.6,1871.4 1757.6,1898.5 1775.5,1925.6 1793.4,1952.7 1811.1,1979.8 1828.8,2006.9 1846.4,2034.0  " style="stroke-opacity: 1.000000; stroke-width: 5.0; stroke: rgb(251,106,74); fill: none"  />
<path d="M 1107.1,999.2 L 1125.2,1022.6 1143.0,1046.6 1160.6,1071.0 1177.9,1095.9 1194.8,1121.2 1211.4,1147.0 1227.5,1173.3 1243.1,1200.0 1258.2,1227.1 1272.8,1254.5 1286.9,1282.4 1300.4,1310.6 1313.2,1339.2 1325.5,1368.1 1337.1,1397.3 1348.0,1426.7 1358.2,1456.5 1367.8,1486.5 1376.6,1516.7 1384.8,1547.1 1392.2,1577.7 1398.9,1608.5 1404.9,1639.4 1410.1,1670.4 1414.6,1701.4 1418.5,1732.6 1421.6,1763.8 1424.0,1794.9 1425.7,1826.1 1426.8,1857.2 1427.2,1888.2 1427.0,1919.1 1426.1,1949.9 1424.7,1980.6 1422.7,2011.0 1420.1,2041.2 1417.1,2071.1 1413.5,2100.7 1409.6,2130.0  " style="stroke-opacity: 1.000000; stroke-width: 5.0; stroke: rgb(251,106,74); fill: none"  />
<path d="M 1745.5,2087.2 L 1735.5,2064.0 1725.0,2041.0 1714.1,2018.3 1702.7,1996.3 1690.9,1974.8 1678.7,1954.2 1666.1,1934.5 1653.1,1915.9 1639.8,1898.3 1626.1,1882.0 1612.1,1867.0 1597.9,1853.4 1583.4,1841.2 1568.6,1830.5 1553.6,1821.4 1538.5,1813.9 1523.1,1808.0 1507.6,1803.8 1492.0,1801.3 1476.2,1800.5 1460.4,1801.3 1444.6,1803.9 1428.7,1808.1 1412.8,1814.0 1396.9,1821.5 1381.1,1830.5 1365.4,1841.1 1349.8,1853.1 1334.3,1866.6 1319.0,1881.4 1303.9,1897.4 1289.0,1914.6 1274.4,1932.9 1260.1,1952.1 1246.1,1972.1 1232.5,1992.9 1219.2,2014.2 1206.3,2036.0 1194.0,2058.1  " style="stroke-opacity: 1.000000; stroke-width: 5.0; stroke: rgb(251,106,74); fill: none"  />
<path d="M 1745.5,2087.2 L 1734.3,2059.9 1723.5,2032.1 1713.0,2003.8 1703.0,1975.3 1693.4,1946.3 1684.3,1917.0 1675.8,1887.4 1667.8,1857.6 1660.4,1827.4 1653.7,1797.0 1647.5,1766.5 1642.1,1735.7 1637.3,1704.7 1633.1,1673.6 1629.7,1642.4 1627.1,1611.1 1625.1,1579.7 1623.9,1548.2 1623.4,1516.7 1623.6,1485.2 1624.6,1453.8 1626.3,1422.3 1628.8,1391.0 1632.0,1359.7 1635.9,1328.5 1640.5,1297.5 1645.8,1266.6 1651.7,1235.9 1658.4,1205.4 1665.6,1175.2 1673.5,1145.1 1681.9,1115.4 1690.9,1085.9 1700.5,1056.8 1710.5,1028.0 1721.0,999.6 1731.9,971.5 1743.2,943.9 1754.8,916.7  " style="stroke-opacity: 1.000000; stroke-width: 5.0; stroke: rgb(251,106,74); fill: none"  />
<path d="M 1754.8,916.7 L 1743.5,943.3 1732.5,970.4 1722.1,997.9 1712.1,1025.8 1702.7,1054.1 1694.0,1082.7 1685.8,1111.7 1678.3,1140.9 1671.6,1170.4 1665.6,1200.1 1660.3,1229.9 1655.9,1260.0 1652.3,1290.2 1649.5,1320.5 1647.6,1350.8 1646.5,1381.3 1646.4,1411.7 1647.1,1442.1 1648.7,1472.5 1651.2,1502.9 1654.5,1533.1 1658.8,1563.3 1663.9,1593.3 1669.9,1623.1 1676.8,1652.8 1684.5,1682.2 1692.9,1711.4 1702.2,1740.3 1712.2,1768.9 1723.0,1797.3 1734.5,1825.2 1746.6,1852.9 1759.4,1880.1 1772.7,1906.9 1786.6,1933.3 1800.9,1959.2 1815.7,1984.6 1830.9,2009.6 1846.4,2034.0  " style="stroke-opacity: 1.000000; stroke-width: 5.0; stroke: rgb(251,106,74); fill: none"  />
<path d="M 1754.8,916.7 L 1743.2,943.9 1731.9,971.5 1721.0,999.6 1710.5,1028.0 1700.5,1056.8 1690.9,1085.9 1681.9,1115.4 1673.5,1145.1 1665.6,1175.2 1658.4,1205.4 1651.7,1235.9 1645.8,1266.6 1640.5,1297.5 1635.9,1328.5 1632.0,1359.7 1628.8,1391.0 1626.3,1422.3 1624.6,1453.8 1623.6,1485.2 1623.4,1516.7 1623.9,1548.2 1625.1,1579.7 1627.1,1611.1 1629.7,1642.4 1633.1,1673.6 1637.3,1704.7 1642.1,1735.7 1647.5,1766.5 1653.7,1797.0 1660.4,1827.4 1667.8,1857.6 1675.8,1887.4 1684.3,1917.0 1693.4,1946.3 1703.0,1975.3 1713.0,2003.8 1723.5,2032.1 1734.3,2059.9 1745.5,2087.2  " style="stroke-opacity: 1.000000; stroke-width: 5.0; stroke: rgb(251,106,74); fill: none"  />
<path d="M 1854.8,971.6 L 1839.8,993.5 1824.0,1015.1 1807.7,1036.3 1790.8,1057.1 1773.3,1077.2 1755.2,1096.7 1736.6,1115.3 1717.5,1133.1 1697.9,1149.9 1677.8,1165.7 1657.3,1180.4 1636.4,1194.0 1615.1,1206.4 1593.4,1217.5 1571.4,1227.3 1549.0,1235.8 1526.4,1242.9 1503.5,1248.7 1480.4,1253.1 1457.1,1256.0 1433.6,1257.6 1410.0,1257.8 1386.3,1256.5 1362.5,1253.9 1338.8,1249.9 1315.0,1244.6 1291.2,1238.0 1267.6,1230.1 1244.0,1221.0 1220.6,1210.7 1197.4,1199.3 1174.5,1186.9 1151.8,1173.5 1129.5,1159.2 1107.5,1144.1 1085.9,1128.3 1064.7,1111.8 1044.1,1094.9 1024.0,1077.4  " style="stroke-opacity: 1.000000; stroke-width: 5.0; stroke: rgb(251,106,74); fill: none"  />
<path d="M 1017.4,1915.0 L 1039.1,1895.9 1060.7,1876.3 1082.1,1856.0 1103.1,1835.2 1123.9,1813.8 1144.2,1791.8 1164.1,1769.2 1183.5,1746.2 1202.4,1722.5 1220.7,1698.4 1238.4,1673.7 1255.4,1648.6 1271.7,1623.0 1287.4,1596.9 1302.3,1570.4 1316.4,1543.4 1329.8,1516.1 1342.4,1488.3 1354.1,1460.2 1365.0,1431.8 1375.1,1403.1 1384.4,1374.1 1392.8,1344.8 1400.3,1315.3 1407.0,1285.7 1412.9,1255.8 1417.9,1225.8 1422.1,1195.7 1425.5,1165.6 1428.1,1135.4 1429.9,1105.2 1430.9,1075.1 1431.2,1045.0 1430.9,1015.1 1429.8,985.3 1428.1,955.7 1425.8,926.4 1422.9,897.3 1419.6,868.6  " style="stroke-opacity: 1.000000; stroke-width: 5.0; stroke: rgb(251,106,74); fill: none"  />
<path d="M 1419.6,868.6 L 1423.5,897.9 1428.0,927.4 1433.0,957.1 1438.6,986.9 1444.8,1016.7 1451.5,1046.6 1458.9,1076.5 1466.9,1106.4 1475.6,1136.2 1484.9,1165.9 1494.8,1195.5 1505.4,1224.9 1516.7,1254.1 1528.7,1283.1 1541.3,1311.9 1554.6,1340.3 1568.6,1368.5 1583.3,1396.4 1598.5,1423.9 1614.5,1451.1 1631.1,1477.9 1648.2,1504.2 1666.0,1530.2 1684.4,1555.7 1703.3,1580.7 1722.8,1605.3 1742.8,1629.4 1763.3,1653.1 1784.3,1676.2 1805.7,1698.8 1827.5,1720.9 1849.6,1742.4 1872.1,1763.4 1895.0,1783.9 1918.0,1803.9 1941.3,1823.3 1964.7,1842.1 1988.3,1860.4 2012.0,1878.2  " style="stroke-opacity: 1.000000; stroke-width: 5.0; stroke: rgb(251,106,74); fill: none"  />
<path d="M 1419.6,868.6 L 1423.6,899.3 1428.0,930.1 1432.6,961.1 1437.7,992.2 1443.0,1023.3 1448.8,1054.6 1454.9,1086.0 1461.3,1117.4 1468.2,1148.8 1475.4,1180.2 1483.1,1211.6 1491.1,1243.1 1499.5,1274.4 1508.4,1305.8 1517.6,1337.0 1527.3,1368.2 1537.3,1399.3 1547.8,1430.3 1558.6,1461.1 1569.9,1491.8 1581.5,1522.4 1593.5,1552.8 1605.9,1583.0 1618.7,1613.0 1631.8,1642.9 1645.3,1672.5 1659.2,1701.9 1673.3,1731.1 1687.8,1760.0 1702.6,1788.7 1717.6,1817.1 1733.0,1845.2 1748.6,1873.1 1764.4,1900.7 1780.4,1928.0 1796.7,1954.9 1813.1,1981.6 1829.7,2007.9 1846.4,2034.0  " style="stroke-opacity: 1.000000; stroke-width: 5.0; stroke: rgb(251,106,74); fill: none"  />
<path d="M 1419.6,868.6 L 1422.9,897.3 1425.8,926.4 1428.1,955.7 1429.8,985.3 1430.9,1015.1 1431.2,1045.0 1430.9,1075.1 1429.9,1105.2 1428.1,1135.4 1425.5,1165.6 1422.1,1195.7 1417.9,1225.8 1412.9,1255.8 1407.0,1285.7 1400.3,1315.3 1392.8,1344.8 1384.4,1374.1 1375.1,1403.1 1365.0,1431.8 1354.1,1460.2 1342.4,1488.3 1329.8,1516.1 1316.4,1543.4 1302.3,1570.4 1287.4,1596.9 1271.7,1623.0 1255.4,1648.6 1238.4,1673.7 1220.7,1698.4 1202.4,1722.5 1183.5,1746.2 1164.1,1769.2 1144.2,1791.8 1123.9,1813.8 1103.1,1835.2 1082.1,1856.0 1060.7,1876.3 1039.1,1895.9 1017.4,1915.0  " style="stroke-opacity: 1.000000; stroke-width: 5.0; stroke: rgb(251,106,74); fill: none"  />
<path d="M 1409.6,2130.0 L 1414.1,2098.1 1418.6,2066.0 1423.1,2033.9 1427.5,2001.8 1431.8,1969.6 1436.1,1937.3 1440.3,1905.1 1444.5,1872.7 1448.5,1840.4 1452.5,1807.9 1456.4,1775.5 1460.3,1743.0 1464.1,1710.5 1467.8,1678.0 1471.4,1645.4 1474.9,1612.8 1478.3,1580.2 1481.7,1547.6 1485.0,1515.0 1488.2,1482.4 1491.3,1449.7 1494.3,1417.1 1497.3,1384.4 1500.1,1351.8 1502.9,1319.2 1505.6,1286.5 1508.2,1253.9 1510.7,1221.3 1513.2,1188.7 1515.6,1156.1 1517.9,1123.6 1520.1,1091.1 1522.2,1058.6 1524.3,1026.1 1526.3,993.7 1528.2,961.3 1530.1,928.9 1531.9,896.6 1533.6,864.4  " style="stroke-opacity: 1.000000; stroke-width: 5.0; stroke: rgb(251,106,74); fill: none"  />
<path d="M 1409.6,2130.0 L 1413.5,2100.7 1417.1,2071.1 1420.1,2041.2 1422.7,2011.0 1424.7,1980.6 1426.1,1949.9 1427.0,1919.1 1427.2,1888.2 1426.8,1857.2 1425.7,1826.1 1424.0,1794.9 1421.6,1763.8 1418.5,1732.6 1414.6,1701.4 1410.1,1670.4 1404.9,1639.4 1398.9,1608.5 1392.2,1577.7 1384.8,1547.1 1376.6,1516.7 1367.8,1486.5 1358.2,1456.5 1348.0,1426.7 1337.1,1397.3 1325.5,1368.1 1313.2,1339.2 1300.4,1310.6 1286.9,1282.4 1272.8,1254.5 1258.2,1227.1 1243.1,1200.0 1227.5,1173.3 1211.4,1147.0 1194.8,1121.2 1177.9,1095.9 1160.6,1071.0 1143.0,1046.6 1125.2,1022.6 1107.1,999.2  " style="stroke-opacity: 1.000000; stroke-width: 5.0; stroke: rgb(251,106,74); fill: none"  />
<path d="M 1943.5,1043.4 L 1921.5,1066.2 1899.6,1089.1 1877.7,1112.3 1855.9,1135.7 1834.1,1159.3 1812.4,1183.2 1790.8,1207.2 1769.3,1231.4 1748.0,1255.9 1726.7,1280.6 1705.6,1305.4 1684.7,1330.5 1663.8,1355.7 1643.2,1381.2 1622.7,1406.8 1602.4,1432.6 1582.3,1458.6 1562.3,1484.7 1542.6,1511.0 1523.0,1537.5 1503.7,1564.1 1484.6,1590.8 1465.7,1617.7 1447.0,1644.7 1428.5,1671.8 1410.3,1699.0 1392.2,1726.3 1374.5,1753.7 1356.9,1781.2 1339.6,1808.8 1322.5,1836.4 1305.6,1864.0 1289.0,1891.7 1272.6,1919.5 1256.4,1947.2 1240.4,1975.0 1224.7,2002.7 1209.2,2030.4 1194.0,2058.1  " style="stroke-opacity: 1.000000; stroke-width: 5.0; stroke: rgb(251,106,74); fill: none"  />
</g>
<g id="track_0">
<path d="M 2012.0,1878.2 L 1992.2,1863.7 1972.6,1849.4 1953.1,1835.4 1934.0,1821.9 1915.4,1808.8 1897.3,1796.4 1879.9,1784.8 1863.3,1773.8 1847.5,1763.8 1832.7,1754.7 1819.0,1746.6 1806.3,1739.5 1794.8,1733.5 1784.6,1728.6 1775.6,1725.0 1767.9,1722.5 1761.6,1721.2 1756.6,1721.2 1753.0,1722.4 1750.8,1724.9 1750.0,1728.6 1750.7,1733.5 1752.7,1739.6 1756.0,1747.0 1760.8,1755.5 1766.8,1765.1 1774.1,1775.8 1782.6,1787.5 1792.3,1800.2 1803.1,1813.8 1815.0,1828.3 1827.8,1843.5 1841.4,1859.4 1855.9,1875.8 1871.0,1892.8 1886.8,1910.2 1902.9,1927.8 1919.5,1945.7 1936.2,1963.5  " style="stroke-opacity: 1.000000; stroke-width: 5.0; stroke: rgb(107,174,214); fill: none"  />
<path d="M 2012.0,1878.2 L 1992.1,1863.7 1972.3,1849.4 1952.5,1835.6 1933.0,1822.3 1913.8,1809.7 1895.1,1797.7 1877.0,1786.6 1859.5,1776.3 1842.7,1767.1 1826.7,1758.8 1811.7,1751.7 1797.6,1745.8 1784.5,1741.0 1772.5,1737.5 1761.6,1735.3 1751.9,1734.4 1743.4,1734.8 1736.2,1736.6 1730.1,1739.8 1725.4,1744.2 1721.9,1750.1 1719.6,1757.2 1718.7,1765.7 1719.0,1775.4 1720.5,1786.4 1723.3,1798.6 1727.3,1812.0 1732.3,1826.4 1738.5,1841.8 1745.8,1858.3 1754.0,1875.6 1763.2,1893.7 1773.2,1912.5 1784.0,1931.9 1795.5,1951.8 1807.5,1972.0 1820.1,1992.6 1833.1,2013.3 1846.4,2034.0  " style="stroke-opacity: 1.000000; stroke-width: 5.0; stroke: rgb(107,174,214); fill: none"  />
<path d="M 2012.0,1878.2 L 1991.9,1863.6 1971.8,1849.4 1951.7,1835.7 1931.7,1822.5 1912.0,1810.1 1892.5,1798.4 1873.5,1787.7 1855.0,1778.0 1837.1,1769.3 1819.8,1761.7 1803.3,1755.3 1787.6,1750.2 1772.8,1746.4 1758.8,1743.9 1745.8,1742.8 1733.9,1743.1 1722.9,1744.8 1713.1,1748.0 1704.3,1752.5 1696.7,1758.5 1690.1,1766.0 1684.7,1774.8 1680.5,1785.0 1677.3,1796.6 1675.3,1809.4 1674.4,1823.6 1674.6,1838.9 1675.8,1855.4 1678.1,1872.9 1681.3,1891.5 1685.5,1910.9 1690.6,1931.2 1696.5,1952.3 1703.2,1973.9 1710.5,1996.1 1718.5,2018.6 1727.1,2041.4 1736.1,2064.3 1745.5,2087.2  " style="stroke-opacity: 1.000000; stroke-width: 5.0; stroke: rgb(107,174,214); fill: none"  />
<path d="M 2012.0,1878.2 L 1991.7,1863.5 1971.3,1849.2 1950.7,1835.5 1930.2,1822.4 1909.8,1810.1 1889.6,1798.7 1869.6,1788.2 1850.0,1778.7 1830.9,1770.4 1812.2,1763.2 1794.2,1757.3 1776.7,1752.7 1760.0,1749.5 1744.0,1747.6 1728.7,1747.2 1714.3,1748.3 1700.8,1750.8 1688.2,1754.8 1676.5,1760.3 1665.8,1767.3 1656.0,1775.7 1647.2,1785.6 1639.4,1796.9 1632.6,1809.6 1626.7,1823.7 1621.9,1839.1 1618.0,1855.7 1615.1,1873.5 1613.1,1892.4 1612.0,1912.3 1611.8,1933.2 1612.5,1955.0 1614.0,1977.5 1616.2,2000.6 1619.1,2024.3 1622.7,2048.3 1626.8,2072.7 1631.6,2097.2 1636.7,2121.6  " style="stroke-opacity: 1.000000; stroke-width: 5.0; stroke: rgb(107,174,214); fill: none"  />
<path d="M 2012.0,1878.2 L 1990.8,1862.9 1969.1,1848.1 1947.1,1833.9 1924.8,1820.4 1902.3,1807.7 1879.5,1795.9 1856.6,1785.1 1833.7,1775.3 1810.7,1766.6 1787.8,1759.1 1765.0,1752.8 1742.3,1747.8 1719.8,1744.2 1697.5,1741.9 1675.4,1741.0 1653.7,1741.6 1632.3,1743.6 1611.3,1747.1 1590.7,1752.0 1570.6,1758.3 1550.9,1766.2 1531.8,1775.4 1513.1,1786.1 1495.0,1798.1 1477.5,1811.5 1460.6,1826.1 1444.2,1842.1 1428.5,1859.2 1413.4,1877.4 1399.0,1896.8 1385.2,1917.1 1372.1,1938.3 1359.6,1960.3 1347.8,1983.1 1336.6,2006.4 1326.1,2030.3 1316.3,2054.6 1307.1,2079.1 1298.5,2103.8  " style="stroke-opacity: 1.000000; stroke-width: 5.0; stroke: rgb(107,174,214); fill: none"  />
<path d="M 1936.2,1963.5 L 1919.5,1945.7 1902.9,1927.8 1886.8,1910.2 1871.0,1892.8 1855.9,1875.8 1841.4,1859.4 1827.8,1843.5 1815.0,1828.3 1803.1,1813.8 1792.3,1800.2 1782.6,1787.5 1774.1,1775.8 1766.8,1765.1 1760.8,1755.5 1756.0,1747.0 1752.7,1739.6 1750.7,1733.5 1750.0,1728.6 1750.8,1724.9 1753.0,1722.4 1756.6,1721.2 1761.6,1721.2 1767.9,1722.5 1775.6,1725.0 1784.6,1728.6 1794.8,1733.5 1806.3,1739.5 1819.0,1746.6 1832.7,1754.7 1847.5,1763.8 1863.3,1773.8 1879.9,1784.8 1897.3,1796.4 1915.4,1808.8 1934.0,1821.9 1953.1,1835.4 1972.6,1849.4 1992.2,1863.7 2012.0,1878.2  " style="stroke-opacity: 1.000000; stroke-width: 5.0; stroke: rgb(107,174,214); fill: none"  />
<path d="M 1936.2,1963.5 L 1919.4,1945.7 1902.6,1928.2 1886.0,1910.9 1869.6,1894.2 1853.5,1878.1 1838.0,1862.6 1822.9,1848.0 1808.5,1834.3 1794.8,1821.6 1781.9,1810.0 1769.8,1799.6 1758.6,1790.3 1748.4,1782.4 1739.2,1775.8 1731.0,1770.6 1723.9,1766.7 1717.9,1764.4 1713.0,1763.4 1709.2,1764.0 1706.6,1766.0 1705.2,1769.5 1704.9,1774.5 1705.8,1780.9 1707.8,1788.7 1711.0,1797.9 1715.2,1808.5 1720.5,1820.3 1726.8,1833.4 1734.0,1847.6 1742.2,1862.9 1751.3,1879.2 1761.2,1896.5 1771.8,1914.5 1783.1,1933.3 1794.9,1952.8 1807.3,1972.6 1820.1,1992.9 1833.2,2013.4 1846.4,2034.0  " style="stroke-opacity: 1.000000; stroke-width: 5.0; stroke: rgb(107,174,214); fill: none"  />
<path d="M 1936.2,1963.5 L 1919.3,1945.7 1902.3,1928.2 1885.3,1911.0 1868.5,1894.5 1851.9,1878.6 1835.6,1863.5 1819.7,1849.3 1804.3,1836.1 1789.5,1824.0 1775.3,1813.0 1761.7,1803.3 1748.9,1794.9 1736.9,1787.9 1725.7,1782.4 1715.4,1778.2 1706.0,1775.6 1697.6,1774.5 1690.1,1775.0 1683.6,1777.0 1678.1,1780.6 1673.6,1785.7 1670.2,1792.3 1667.7,1800.5 1666.3,1810.1 1665.9,1821.2 1666.4,1833.7 1667.9,1847.5 1670.3,1862.6 1673.7,1878.9 1677.9,1896.4 1682.9,1914.9 1688.6,1934.3 1695.1,1954.6 1702.3,1975.6 1710.0,1997.2 1718.3,2019.4 1727.0,2041.8 1736.1,2064.5 1745.5,2087.2  " style="stroke-opacity: 1.000000; stroke-width: 5.0; stroke: rgb(107,174,214); fill: none"  />
<path d="M 1936.2,1963.5 L 1918.4,1945.0 1900.1,1926.9 1881.5,1909.3 1862.5,1892.4 1843.2,1876.3 1823.7,1861.0 1804.1,1846.7 1784.3,1833.5 1764.4,1821.4 1744.5,1810.5 1724.6,1801.0 1704.7,1792.8 1684.9,1786.0 1665.3,1780.6 1645.9,1776.8 1626.6,1774.5 1607.6,1773.8 1588.8,1774.6 1570.4,1777.0 1552.3,1781.0 1534.6,1786.5 1517.2,1793.6 1500.3,1802.3 1483.7,1812.5 1467.7,1824.1 1452.1,1837.2 1437.0,1851.6 1422.4,1867.4 1408.4,1884.4 1394.8,1902.6 1381.9,1921.9 1369.5,1942.3 1357.6,1963.5 1346.3,1985.5 1335.6,2008.3 1325.5,2031.6 1315.9,2055.4 1306.9,2079.5 1298.5,2103.8  " style="stroke-opacity: 1.000000; stroke-width: 5.0; stroke: rgb(107,174,214); fill: none"  />
<path d="M 1646.5,880.6 L 1641.0,904.6 1635.7,928.4 1630.8,952.0 1626.2,975.2 1622.1,997.8 1618.5,1019.7 1615.3,1040.7 1612.8,1060.9 1610.9,1079.9 1609.6,1097.8 1609.0,1114.5 1609.0,1129.8 1609.8,1143.7 1611.3,1156.1 1613.5,1166.9 1616.5,1176.2 1620.3,1183.9 1624.8,1189.9 1630.0,1194.2 1636.0,1196.8 1642.8,1197.7 1650.2,1196.9 1658.4,1194.5 1667.2,1190.4 1676.7,1184.6 1686.8,1177.3 1697.5,1168.4 1708.8,1158.1 1720.6,1146.3 1732.8,1133.2 1745.5,1118.8 1758.5,1103.3 1771.9,1086.7 1785.5,1069.2 1799.3,1050.8 1813.2,1031.7 1827.1,1012.0 1841.0,991.9 1854.8,971.6  " style="stroke-opacity: 1.000000; stroke-width: 5.0; stroke: rgb(107,174,214); fill: none"  />
<path d="M 1646.5,880.6 L 1641.0,905.0 1635.9,929.4 1631.3,953.7 1627.4,977.7 1624.1,1001.3 1621.5,1024.4 1619.7,1046.9 1618.7,1068.6 1618.6,1089.5 1619.3,1109.4 1621.0,1128.4 1623.6,1146.2 1627.2,1162.9 1631.8,1178.3 1637.4,1192.5 1644.1,1205.3 1651.7,1216.8 1660.3,1226.8 1670.0,1235.4 1680.6,1242.5 1692.2,1248.2 1704.8,1252.4 1718.3,1255.1 1732.6,1256.4 1747.9,1256.3 1763.9,1254.7 1780.7,1251.7 1798.2,1247.4 1816.4,1241.8 1835.1,1234.9 1854.4,1226.9 1874.1,1217.7 1894.3,1207.6 1914.7,1196.4 1935.3,1184.4 1956.0,1171.7 1976.7,1158.3 1997.4,1144.3 2017.9,1130.0  " style="stroke-opacity: 1.000000; stroke-width: 5.0; stroke: rgb(107,174,214); fill: none"  />
<path d="M 1846.4,2034.0 L 1833.1,2013.3 1820.1,1992.6 1807.5,1972.0 1795.5,1951.8 1784.0,1931.9 1773.2,1912.5 1763.2,1893.7 1754.0,1875.6 1745.8,1858.3 1738.5,1841.8 1732.3,1826.4 1727.3,1812.0 1723.3,1798.6 1720.5,1786.4 1719.0,1775.4 1718.7,1765.7 1719.6,1757.2 1721.9,1750.1 1725.4,1744.2 1730.1,1739.8 1736.2,1736.6 1743.4,1734.8 1751.9,1734.4 1761.6,1735.3 1772.5,1737.5 1784.5,1741.0 1797.6,1745.8 1811.7,1751.7 1826.7,1758.8 1842.7,1767.1 1859.5,1776.3 1877.0,1786.6 1895.1,1797.7 1913.8,1809.7 1933.0,1822.3 1952.5,1835.6 1972.3,1849.4 1992.1,1863.7 2012.0,1878.2  " style="stroke-opacity: 1.000000; stroke-width: 5.0; stroke: rgb(107,174,214); fill: none"  />
<path d="M 1846.4,2034.0 L 1833.2,2013.4 1820.1,1992.9 1807.3,1972.6 1794.9,1952.8 1783.1,1933.3 1771.8,1914.5 1761.2,1896.5 1751.3,1879.2 1742.2,1862.9 1734.0,1847.6 1726.8,1833.4 1720.5,1820.3 1715.2,1808.5 1711.0,1797.9 1707.8,1788.7 1705.8,1780.9 1704.9,1774.5 1705.2,1769.5 1706.6,1766.0 1709.2,1764.0 1713.0,1763.4 1717.9,1764.4 1723.9,1766.7 1731.0,1770.6 1739.2,1775.8 1748.4,1782.4 1758.6,1790.3 1769.8,1799.6 1781.9,1810.0 1794.8,1821.6 1808.5,1834.3 1822.9,1848.0 1838.0,1862.6 1853.5,1878.1 1869.6,1894.2 1886.0,1910.9 1902.6,1928.2 1919.4,1945.7 1936.2,1963.5  " style="stroke-opacity: 1.000000; stroke-width: 5.0; stroke: rgb(107,174,214); fill: none"  />
<path d="M 1846.4,2034.0 L 1833.1,2013.5 1819.7,1993.2 1806.4,1973.2 1793.2,1953.8 1780.4,1935.1 1767.8,1917.1 1755.6,1900.1 1743.9,1884.0 1732.7,1869.1 1722.0,1855.4 1712.0,1842.9 1702.6,1831.8 1694.0,1822.2 1686.1,1814.1 1679.0,1807.5 1672.6,1802.4 1667.2,1799.0 1662.5,1797.2 1658.7,1797.1 1655.8,1798.7 1653.8,1801.8 1652.6,1806.7 1652.3,1813.1 1652.9,1821.2 1654.4,1830.8 1656.6,1841.9 1659.7,1854.5 1663.6,1868.5 1668.2,1883.8 1673.5,1900.3 1679.5,1918.0 1686.2,1936.7 1693.4,1956.4 1701.1,1976.9 1709.4,1998.1 1718.0,2019.9 1726.9,2042.1 1736.1,2064.6 1745.5,2087.2  " style="stroke-opacity: 1.000000; stroke-width: 5.0; stroke: rgb(107,174,214); fill: none"  />
<path d="M 1846.4,2034.0 L 1832.9,2013.4 1819.4,1993.1 1805.7,1973.2 1792.1,1953.9 1778.6,1935.3 1765.3,1917.6 1752.2,1900.7 1739.4,1885.0 1727.0,1870.4 1715.0,1857.1 1703.4,1845.2 1692.3,1834.7 1681.7,1825.6 1671.7,1818.1 1662.3,1812.2 1653.5,1808.0 1645.4,1805.4 1637.9,1804.5 1631.2,1805.3 1625.2,1807.9 1619.8,1812.1 1615.3,1818.0 1611.4,1825.6 1608.3,1834.8 1605.8,1845.7 1604.1,1858.0 1603.1,1871.9 1602.8,1887.2 1603.2,1903.9 1604.2,1921.8 1605.8,1940.9 1608.1,1961.0 1610.8,1982.1 1614.1,2004.1 1617.9,2026.8 1622.1,2050.0 1626.6,2073.7 1631.5,2097.6 1636.7,2121.6  " style="stroke-opacity: 1.000000; stroke-width: 5.0; stroke: rgb(107,174,214); fill: none"  />
<path d="M 1846.4,2034.0 L 1832.8,2013.3 1819.0,1992.9 1805.0,1973.0 1790.9,1953.6 1776.7,1935.1 1762.6,1917.3 1748.6,1900.6 1734.7,1885.0 1721.0,1870.5 1707.5,1857.4 1694.3,1845.6 1681.3,1835.3 1668.8,1826.5 1656.6,1819.3 1644.9,1813.7 1633.5,1809.8 1622.7,1807.5 1612.4,1807.0 1602.6,1808.2 1593.3,1811.2 1584.6,1815.8 1576.4,1822.2 1568.8,1830.2 1561.8,1840.0 1555.4,1851.3 1549.6,1864.2 1544.4,1878.6 1539.8,1894.5 1535.7,1911.7 1532.2,1930.2 1529.3,1949.9 1526.9,1970.7 1525.0,1992.5 1523.7,2015.1 1522.8,2038.4 1522.4,2062.3 1522.4,2086.7 1522.8,2111.3 1523.5,2136.1  " style="stroke-opacity: 1.000000; stroke-width: 5.0; stroke: rgb(107,174,214); fill: none"  />
<path d="M 1846.4,2034.0 L 1832.6,2013.1 1818.5,1992.6 1804.1,1972.5 1789.5,1953.0 1774.7,1934.3 1759.8,1916.5 1744.8,1899.7 1729.8,1883.9 1714.8,1869.4 1699.8,1856.1 1685.0,1844.3 1670.3,1833.8 1655.7,1824.9 1641.4,1817.6 1627.3,1811.8 1613.4,1807.8 1599.9,1805.4 1586.7,1804.7 1573.8,1805.7 1561.3,1808.5 1549.2,1812.9 1537.4,1819.1 1526.2,1827.0 1515.3,1836.5 1504.9,1847.6 1495.0,1860.3 1485.5,1874.5 1476.5,1890.1 1468.0,1907.1 1460.0,1925.4 1452.5,1944.9 1445.5,1965.5 1438.9,1987.1 1432.9,2009.5 1427.3,2032.7 1422.2,2056.5 1417.5,2080.7 1413.3,2105.3 1409.6,2130.0  " style="stroke-opacity: 1.000000; stroke-width: 5.0; stroke: rgb(107,174,214); fill: none"  />
<path d="M 1846.4,2034.0 L 1832.4,2012.9 1818.0,1992.1 1803.2,1971.8 1788.1,1952.1 1772.6,1933.1 1756.9,1915.0 1741.0,1897.9 1724.9,1881.9 1708.6,1867.0 1692.3,1853.4 1675.9,1841.1 1659.4,1830.2 1643.0,1820.8 1626.5,1813.0 1610.2,1806.7 1593.9,1802.0 1577.7,1799.0 1561.7,1797.6 1545.9,1797.9 1530.3,1799.9 1514.9,1803.6 1499.7,1808.9 1484.8,1815.9 1470.2,1824.5 1456.0,1834.7 1442.0,1846.4 1428.5,1859.6 1415.3,1874.3 1402.4,1890.3 1390.0,1907.6 1378.0,1926.1 1366.5,1945.6 1355.4,1966.2 1344.7,1987.7 1334.5,2009.9 1324.8,2032.7 1315.5,2056.1 1306.8,2079.8 1298.5,2103.8  " style="stroke-opacity: 1.000000; stroke-width: 5.0; stroke: rgb(107,174,214); fill: none"  />
<path d="M 1024.0,1077.4 L 1042.4,1093.7 1060.6,1109.7 1078.8,1125.3 1096.6,1140.5 1114.0,1155.2 1130.9,1169.1 1147.2,1182.3 1162.7,1194.7 1177.5,1206.1 1191.4,1216.5 1204.4,1225.8 1216.4,1234.0 1227.3,1241.0 1237.1,1246.8 1245.7,1251.2 1253.1,1254.4 1259.3,1256.2 1264.3,1256.7 1268.0,1255.8 1270.3,1253.6 1271.5,1249.9 1271.3,1245.0 1269.8,1238.7 1267.1,1231.1 1263.2,1222.2 1258.0,1212.1 1251.7,1200.8 1244.3,1188.3 1235.8,1174.8 1226.2,1160.3 1215.7,1144.8 1204.3,1128.5 1192.1,1111.5 1179.2,1093.8 1165.7,1075.5 1151.6,1056.8 1137.0,1037.8 1122.2,1018.5 1107.1,999.2  " style="stroke-opacity: 1.000000; stroke-width: 5.0; stroke: rgb(107,174,214); fill: none"  />
<path d="M 1024.0,1077.4 L 1042.8,1093.9 1061.9,1109.9 1081.1,1125.4 1100.4,1140.3 1119.6,1154.4 1138.8,1167.6 1157.7,1179.9 1176.4,1191.0 1194.7,1201.1 1212.6,1209.9 1230.1,1217.4 1247.0,1223.5 1263.4,1228.2 1279.2,1231.5 1294.3,1233.3 1308.8,1233.5 1322.5,1232.2 1335.4,1229.4 1347.5,1224.9 1358.9,1219.0 1369.4,1211.4 1379.0,1202.4 1387.8,1191.8 1395.7,1179.7 1402.8,1166.2 1409.0,1151.4 1414.4,1135.2 1418.9,1117.7 1422.5,1099.0 1425.4,1079.3 1427.4,1058.5 1428.7,1036.8 1429.3,1014.2 1429.2,991.0 1428.4,967.2 1427.0,942.9 1425.0,918.2 1422.5,893.4 1419.6,868.6  " style="stroke-opacity: 1.000000; stroke-width: 5.0; stroke: rgb(107,174,214); fill: none"  />
<path d="M 1194.0,2058.1 L 1205.7,2036.6 1217.2,2015.2 1228.4,1994.1 1239.3,1973.3 1249.7,1953.1 1259.6,1933.5 1268.8,1914.7 1277.4,1896.7 1285.2,1879.8 1292.3,1863.9 1298.5,1849.2 1303.8,1835.7 1308.2,1823.5 1311.6,1812.7 1314.1,1803.3 1315.5,1795.3 1315.9,1788.9 1315.3,1784.0 1313.6,1780.6 1310.8,1778.7 1307.1,1778.5 1302.3,1779.7 1296.4,1782.5 1289.6,1786.9 1281.8,1792.7 1273.1,1800.0 1263.5,1808.6 1253.0,1818.7 1241.7,1830.0 1229.7,1842.5 1217.0,1856.2 1203.6,1870.9 1189.7,1886.6 1175.3,1903.1 1160.5,1920.4 1145.4,1938.3 1130.1,1956.7 1114.7,1975.5 1099.2,1994.5  " style="stroke-opacity: 1.000000; stroke-width: 5.0; stroke: rgb(107,174,214); fill: none"  />
<path d="M 1194.0,2058.1 L 1205.7,2036.5 1217.1,2014.9 1228.2,1993.5 1238.7,1972.3 1248.7,1951.6 1258.0,1931.5 1266.6,1912.0 1274.4,1893.3 1281.4,1875.4 1287.4,1858.5 1292.4,1842.7 1296.4,1827.9 1299.4,1814.3 1301.2,1801.9 1301.9,1790.9 1301.5,1781.1 1300.0,1772.8 1297.2,1765.8 1293.3,1760.2 1288.2,1756.1 1282.0,1753.4 1274.6,1752.2 1266.1,1752.4 1256.4,1754.0 1245.8,1757.0 1234.1,1761.4 1221.4,1767.1 1207.8,1774.1 1193.3,1782.3 1178.0,1791.6 1161.9,1802.1 1145.2,1813.6 1128.0,1826.1 1110.2,1839.4 1092.0,1853.4 1073.5,1868.1 1054.8,1883.4 1036.1,1899.0 1017.4,1915.0  " style="stroke-opacity: 1.000000; stroke-width: 5.0; stroke: rgb(107,174,214); fill: none"  />
<path d="M 1194.0,2058.1 L 1205.7,2036.3 1217.1,2014.4 1228.0,1992.7 1238.4,1971.1 1248.0,1949.8 1256.9,1929.0 1265.0,1908.7 1272.2,1889.1 1278.4,1870.2 1283.6,1852.1 1287.7,1834.8 1290.6,1818.6 1292.4,1803.4 1293.0,1789.2 1292.4,1776.2 1290.5,1764.4 1287.3,1753.8 1282.9,1744.4 1277.2,1736.4 1270.2,1729.6 1262.0,1724.1 1252.5,1720.0 1241.8,1717.1 1229.9,1715.6 1216.9,1715.3 1202.8,1716.3 1187.6,1718.5 1171.5,1722.0 1154.4,1726.5 1136.4,1732.2 1117.7,1739.0 1098.3,1746.7 1078.2,1755.4 1057.7,1764.9 1036.7,1775.2 1015.4,1786.2 994.0,1797.7 972.5,1809.7 951.0,1822.1  " style="stroke-opacity: 1.000000; stroke-width: 5.0; stroke: rgb(107,174,214); fill: none"  />
<path d="M 1107.1,999.2 L 1122.2,1018.5 1137.0,1037.8 1151.6,1056.8 1165.7,1075.5 1179.2,1093.8 1192.1,1111.5 1204.3,1128.5 1215.7,1144.8 1226.2,1160.3 1235.8,1174.8 1244.3,1188.3 1251.7,1200.8 1258.0,1212.1 1263.2,1222.2 1267.1,1231.1 1269.8,1238.7 1271.3,1245.0 1271.5,1249.9 1270.3,1253.6 1268.0,1255.8 1264.3,1256.7 1259.3,1256.2 1253.1,1254.4 1245.7,1251.2 1237.1,1246.8 1227.3,1241.0 1216.4,1234.0 1204.4,1225.8 1191.4,1216.5 1177.5,1206.1 1162.7,1194.7 1147.2,1182.3 1130.9,1169.1 1114.0,1155.2 1096.6,1140.5 1078.8,1125.3 1060.6,1109.7 1042.4,1093.7 1024.0,1077.4  " style="stroke-opacity: 1.000000; stroke-width: 5.0; stroke: rgb(107,174,214); fill: none"  />
<path d="M 1107.1,999.2 L 1122.5,1018.6 1138.1,1037.7 1153.9,1056.3 1169.6,1074.3 1185.4,1091.5 1201.0,1107.9 1216.5,1123.3 1231.7,1137.6 1246.7,1150.8 1261.3,1162.6 1275.5,1173.2 1289.3,1182.3 1302.6,1189.9 1315.4,1196.0 1327.6,1200.5 1339.2,1203.4 1350.2,1204.7 1360.6,1204.3 1370.2,1202.2 1379.2,1198.5 1387.5,1193.0 1395.0,1186.0 1401.8,1177.3 1407.9,1166.9 1413.3,1155.1 1417.9,1141.7 1421.8,1126.9 1425.0,1110.7 1427.5,1093.1 1429.3,1074.4 1430.5,1054.5 1431.0,1033.6 1430.9,1011.8 1430.2,989.1 1429.0,965.8 1427.3,942.0 1425.1,917.7 1422.5,893.2 1419.6,868.6  " style="stroke-opacity: 1.000000; stroke-width: 5.0; stroke: rgb(107,174,214); fill: none"  />
<path d="M 1099.2,1994.5 L 1114.7,1975.5 1130.1,1956.7 1145.4,1938.3 1160.5,1920.4 1175.3,1903.1 1189.7,1886.6 1203.6,1870.9 1217.0,1856.2 1229.7,1842.5 1241.7,1830.0 1253.0,1818.7 1263.5,1808.6 1273.1,1800.0 1281.8,1792.7 1289.6,1786.9 1296.4,1782.5 1302.3,1779.7 1307.1,1778.5 1310.8,1778.7 1313.6,1780.6 1315.3,1784.0 1315.9,1788.9 1315.5,1795.3 1314.1,1803.3 1311.6,1812.7 1308.2,1823.5 1303.8,1835.7 1298.5,1849.2 1292.3,1863.9 1285.2,1879.8 1277.4,1896.7 1268.8,1914.7 1259.6,1933.5 1249.7,1953.1 1239.3,1973.3 1228.4,1994.1 1217.2,2015.2 1205.7,2036.6 1194.0,2058.1  " style="stroke-opacity: 1.000000; stroke-width: 5.0; stroke: rgb(107,174,214); fill: none"  />
<path d="M 1099.2,1994.5 L 1114.6,1975.4 1129.8,1956.4 1144.6,1937.6 1159.0,1919.1 1172.8,1901.1 1186.0,1883.6 1198.5,1866.7 1210.1,1850.6 1220.9,1835.3 1230.6,1821.0 1239.4,1807.6 1247.0,1795.3 1253.5,1784.1 1258.8,1774.0 1262.9,1765.2 1265.7,1757.6 1267.3,1751.4 1267.5,1746.4 1266.5,1742.8 1264.1,1740.5 1260.4,1739.5 1255.5,1739.9 1249.3,1741.7 1241.8,1744.7 1233.1,1749.0 1223.2,1754.6 1212.2,1761.5 1200.1,1769.4 1187.0,1778.6 1172.9,1788.7 1157.9,1799.9 1142.2,1812.0 1125.7,1825.0 1108.6,1838.7 1090.9,1853.0 1072.9,1868.0 1054.5,1883.3 1036.0,1899.0 1017.4,1915.0  " style="stroke-opacity: 1.000000; stroke-width: 5.0; stroke: rgb(107,174,214); fill: none"  />
<path d="M 1099.2,1994.5 L 1114.6,1975.3 1129.7,1956.1 1144.4,1937.0 1158.6,1918.1 1172.1,1899.5 1184.9,1881.4 1196.8,1863.7 1207.8,1846.7 1217.8,1830.4 1226.8,1814.8 1234.6,1800.1 1241.1,1786.3 1246.5,1773.4 1250.5,1761.6 1253.2,1750.8 1254.5,1741.2 1254.5,1732.6 1253.0,1725.3 1250.2,1719.1 1245.9,1714.2 1240.2,1710.4 1233.2,1707.9 1224.8,1706.6 1215.0,1706.4 1204.0,1707.5 1191.7,1709.7 1178.2,1713.0 1163.5,1717.5 1147.8,1723.0 1131.1,1729.5 1113.4,1736.9 1094.9,1745.2 1075.7,1754.4 1055.8,1764.3 1035.4,1774.9 1014.6,1786.1 993.5,1797.7 972.3,1809.8 951.0,1822.1  " style="stroke-opacity: 1.000000; stroke-width: 5.0; stroke: rgb(107,174,214); fill: none"  />
<path d="M 1745.5,2087.2 L 1736.1,2064.3 1727.1,2041.4 1718.5,2018.6 1710.5,1996.1 1703.2,1973.9 1696.5,1952.3 1690.6,1931.2 1685.5,1910.9 1681.3,1891.5 1678.1,1872.9 1675.8,1855.4 1674.6,1838.9 1674.4,1823.6 1675.3,1809.4 1677.3,1796.6 1680.5,1785.0 1684.7,1774.8 1690.1,1766.0 1696.7,1758.5 1704.3,1752.5 1713.1,1748.0 1722.9,1744.8 1733.9,1743.1 1745.8,1742.8 1758.8,1743.9 1772.8,1746.4 1787.6,1750.2 1803.3,1755.3 1819.8,1761.7 1837.1,1769.3 1855.0,1778.0 1873.5,1787.7 1892.5,1798.4 1912.0,1810.1 1931.7,1822.5 1951.7,1835.7 1971.8,1849.4 1991.9,1863.6 2012.0,1878.2  " style="stroke-opacity: 1.000000; stroke-width: 5.0; stroke: rgb(107,174,214); fill: none"  />
<path d="M 1745.5,2087.2 L 1736.1,2064.5 1727.0,2041.8 1718.3,2019.4 1710.0,1997.2 1702.3,1975.6 1695.1,1954.6 1688.6,1934.3 1682.9,1914.9 1677.9,1896.4 1673.7,1878.9 1670.3,1862.6 1667.9,1847.5 1666.4,1833.7 1665.9,1821.2 1666.3,1810.1 1667.7,1800.5 1670.2,1792.3 1673.6,1785.7 1678.1,1780.6 1683.6,1777.0 1690.1,1775.0 1697.6,1774.5 1706.0,1775.6 1715.4,1778.2 1725.7,1782.4 1736.9,1787.9 1748.9,1794.9 1761.7,1803.3 1775.3,1813.0 1789.5,1824.0 1804.3,1836.1 1819.7,1849.3 1835.6,1863.5 1851.9,1878.6 1868.5,1894.5 1885.3,1911.0 1902.3,1928.2 1919.3,1945.7 1936.2,1963.5  " style="stroke-opacity: 1.000000; stroke-width: 5.0; stroke: rgb(107,174,214); fill: none"  />
<path d="M 1745.5,2087.2 L 1736.1,2064.6 1726.9,2042.1 1718.0,2019.9 1709.4,1998.1 1701.1,1976.9 1693.4,1956.4 1686.2,1936.7 1679.5,1918.0 1673.5,1900.3 1668.2,1883.8 1663.6,1868.5 1659.7,1854.5 1656.6,1841.9 1654.4,1830.8 1652.9,1821.2 1652.3,1813.1 1652.6,1806.7 1653.8,1801.8 1655.8,1798.7 1658.7,1797.1 1662.5,1797.2 1667.2,1799.0 1672.6,1802.4 1679.0,1807.5 1686.1,1814.1 1694.0,1822.2 1702.6,1831.8 1712.0,1842.9 1722.0,1855.4 1732.7,1869.1 1743.9,1884.0 1755.6,1900.1 1767.8,1917.1 1780.4,1935.1 1793.2,1953.8 1806.4,1973.2 1819.7,1993.2 1833.1,2013.5 1846.4,2034.0  " style="stroke-opacity: 1.000000; stroke-width: 5.0; stroke: rgb(107,174,214); fill: none"  />
<path d="M 1745.5,2087.2 L 1735.9,2064.6 1726.2,2042.2 1716.3,2020.2 1706.4,1998.8 1696.4,1978.1 1686.5,1958.2 1676.6,1939.3 1666.8,1921.6 1657.2,1905.0 1647.7,1889.8 1638.5,1876.0 1629.4,1863.6 1620.6,1852.8 1612.1,1843.7 1603.9,1836.2 1596.0,1830.4 1588.5,1826.5 1581.4,1824.3 1574.6,1823.9 1568.2,1825.3 1562.2,1828.5 1556.6,1833.5 1551.5,1840.3 1546.7,1848.8 1542.4,1859.0 1538.5,1870.9 1535.1,1884.4 1532.1,1899.4 1529.4,1915.8 1527.2,1933.6 1525.4,1952.7 1524.0,1972.9 1523.0,1994.2 1522.3,2016.4 1521.9,2039.3 1521.9,2063.0 1522.2,2087.1 1522.7,2111.5 1523.5,2136.1  " style="stroke-opacity: 1.000000; stroke-width: 5.0; stroke: rgb(107,174,214); fill: none"  />
<path d="M 1745.5,2087.2 L 1735.7,2064.2 1725.4,2041.5 1714.9,2019.2 1704.0,1997.4 1692.7,1976.4 1681.3,1956.2 1669.5,1936.9 1657.5,1918.8 1645.4,1901.8 1633.0,1886.1 1620.5,1871.8 1607.9,1858.9 1595.2,1847.5 1582.4,1837.7 1569.6,1829.6 1556.7,1823.1 1543.8,1818.3 1530.9,1815.3 1518.0,1814.0 1505.2,1814.4 1492.5,1816.7 1479.9,1820.7 1467.3,1826.4 1455.0,1833.8 1442.8,1842.9 1430.7,1853.6 1418.9,1865.9 1407.2,1879.7 1395.8,1894.9 1384.7,1911.4 1373.8,1929.3 1363.2,1948.3 1352.9,1968.3 1343.0,1989.3 1333.3,2011.1 1324.1,2033.6 1315.2,2056.7 1306.6,2080.1 1298.5,2103.8  " style="stroke-opacity: 1.000000; stroke-width: 5.0; stroke: rgb(107,174,214); fill: none"  />
<path d="M 1854.8,971.6 L 1841.0,991.9 1827.1,1012.0 1813.2,1031.7 1799.3,1050.8 1785.5,1069.2 1771.9,1086.7 1758.5,1103.3 1745.5,1118.8 1732.8,1133.2 1720.6,1146.3 1708.8,1158.1 1697.5,1168.4 1686.8,1177.3 1676.7,1184.6 1667.2,1190.4 1658.4,1194.5 1650.2,1196.9 1642.8,1197.7 1636.0,1196.8 1630.0,1194.2 1624.8,1189.9 1620.3,1183.9 1616.5,1176.2 1613.5,1166.9 1611.3,1156.1 1609.8,1143.7 1609.0,1129.8 1609.0,1114.5 1609.6,1097.8 1610.9,1079.9 1612.8,1060.9 1615.3,1040.7 1618.5,1019.7 1622.1,997.8 1626.2,975.2 1630.8,952.0 1635.7,928.4 1641.0,904.6 1646.5,880.6  " style="stroke-opacity: 1.000000; stroke-width: 5.0; stroke: rgb(107,174,214); fill: none"  />
<path d="M 1017.4,1915.0 L 1036.1,1899.0 1054.8,1883.4 1073.5,1868.1 1092.0,1853.4 1110.2,1839.4 1128.0,1826.1 1145.2,1813.6 1161.9,1802.1 1178.0,1791.6 1193.3,1782.3 1207.8,1774.1 1221.4,1767.1 1234.1,1761.4 1245.8,1757.0 1256.4,1754.0 1266.1,1752.4 1274.6,1752.2 1282.0,1753.4 1288.2,1756.1 1293.3,1760.2 1297.2,1765.8 1300.0,1772.8 1301.5,1781.1 1301.9,1790.9 1301.2,1801.9 1299.4,1814.3 1296.4,1827.9 1292.4,1842.7 1287.4,1858.5 1281.4,1875.4 1274.4,1893.3 1266.6,1912.0 1258.0,1931.5 1248.7,1951.6 1238.7,1972.3 1228.2,1993.5 1217.1,2014.9 1205.7,2036.5 1194.0,2058.1  " style="stroke-opacity: 1.000000; stroke-width: 5.0; stroke: rgb(107,174,214); fill: none"  />
<path d="M 1017.4,1915.0 L 1036.0,1899.0 1054.5,1883.3 1072.9,1868.0 1090.9,1853.0 1108.6,1838.7 1125.7,1825.0 1142.2,1812.0 1157.9,1799.9 1172.9,1788.7 1187.0,1778.6 1200.1,1769.4 1212.2,1761.5 1223.2,1754.6 1233.1,1749.0 1241.8,1744.7 1249.3,1741.7 1255.5,1739.9 1260.4,1739.5 1264.1,1740.5 1266.5,1742.8 1267.5,1746.4 1267.3,1751.4 1265.7,1757.6 1262.9,1765.2 1258.8,1774.0 1253.5,1784.1 1247.0,1795.3 1239.4,1807.6 1230.6,1821.0 1220.9,1835.3 1210.1,1850.6 1198.5,1866.7 1186.0,1883.6 1172.8,1901.1 1159.0,1919.1 1144.6,1937.6 1129.8,1956.4 1114.6,1975.4 1099.2,1994.5  " style="stroke-opacity: 1.000000; stroke-width: 5.0; stroke: rgb(107,174,214); fill: none"  />
<path d="M 1017.4,1915.0 L 1035.9,1899.0 1054.2,1883.0 1072.2,1867.1 1089.6,1851.5 1106.5,1836.2 1122.6,1821.4 1137.9,1807.0 1152.2,1793.2 1165.5,1780.1 1177.7,1767.7 1188.6,1756.1 1198.4,1745.4 1206.7,1735.5 1213.8,1726.6 1219.4,1718.6 1223.5,1711.7 1226.1,1705.8 1227.3,1700.9 1226.9,1697.2 1225.0,1694.5 1221.5,1692.9 1216.6,1692.4 1210.1,1693.0 1202.2,1694.7 1192.9,1697.4 1182.2,1701.1 1170.1,1705.9 1156.8,1711.6 1142.3,1718.2 1126.6,1725.7 1109.9,1734.0 1092.2,1743.1 1073.7,1752.9 1054.4,1763.3 1034.5,1774.3 1014.0,1785.8 993.2,1797.6 972.2,1809.8 951.0,1822.1  " style="stroke-opacity: 1.000000; stroke-width: 5.0; stroke: rgb(107,174,214); fill: none"  />
<path d="M 951.0,1822.1 L 972.5,1809.7 994.0,1797.7 1015.4,1786.2 1036.7,1775.2 1057.7,1764.9 1078.2,1755.4 1098.3,1746.7 1117.7,1739.0 1136.4,1732.2 1154.4,1726.5 1171.5,1722.0 1187.6,1718.5 1202.8,1716.3 1216.9,1715.3 1229.9,1715.6 1241.8,1717.1 1252.5,1720.0 1262.0,1724.1 1270.2,1729.6 1277.2,1736.4 1282.9,1744.4 1287.3,1753.8 1290.5,1764.4 1292.4,1776.2 1293.0,1789.2 1292.4,1803.4 1290.6,1818.6 1287.7,1834.8 1283.6,1852.1 1278.4,1870.2 1272.2,1889.1 1265.0,1908.7 1256.9,1929.0 1248.0,1949.8 1238.4,1971.1 1228.0,1992.7 1217.1,2014.4 1205.7,2036.3 1194.0,2058.1  " style="stroke-opacity: 1.000000; stroke-width: 5.0; stroke: rgb(107,174,214); fill: none"  />
<path d="M 951.0,1822.1 L 972.3,1809.8 993.5,1797.7 1014.6,1786.1 1035.4,1774.9 1055.8,1764.3 1075.7,1754.4 1094.9,1745.2 1113.4,1736.9 1131.1,1729.5 1147.8,1723.0 1163.5,1717.5 1178.2,1713.0 1191.7,1709.7 1204.0,1707.5 1215.0,1706.4 1224.8,1706.6 1233.2,1707.9 1240.2,1710.4 1245.9,1714.2 1250.2,1719.1 1253.0,1725.3 1254.5,1732.6 1254.5,1741.2 1253.2,1750.8 1250.5,1761.6 1246.5,1773.4 1241.1,1786.3 1234.6,1800.1 1226.8,1814.8 1217.8,1830.4 1207.8,1846.7 1196.8,1863.7 1184.9,1881.4 1172.1,1899.5 1158.6,1918.1 1144.4,1937.0 1129.7,1956.1 1114.6,1975.3 1099.2,1994.5  " style="stroke-opacity: 1.000000; stroke-width: 5.0; stroke: rgb(107,174,214); fill: none"  />
<path d="M 951.0,1822.1 L 972.2,1809.8 993.2,1797.6 1014.0,1785.8 1034.5,1774.3 1054.4,1763.3 1073.7,1752.9 1092.2,1743.1 1109.9,1734.0 1126.6,1725.7 1142.3,1718.2 1156.8,1711.6 1170.1,1705.9 1182.2,1701.1 1192.9,1697.4 1202.2,1694.7 1210.1,1693.0 1216.6,1692.4 1221.5,1692.9 1225.0,1694.5 1226.9,1697.2 1227.3,1700.9 1226.1,1705.8 1223.5,1711.7 1219.4,1718.6 1213.8,1726.6 1206.7,1735.5 1198.4,1745.4 1188.6,1756.1 1177.7,1767.7 1165.5,1780.1 1152.2,1793.2 1137.9,1807.0 1122.6,1821.4 1106.5,1836.2 1089.6,1851.5 1072.2,1867.1 1054.2,1883.0 1035.9,1899.0 1017.4,1915.0  " style="stroke-opacity: 1.000000; stroke-width: 5.0; stroke: rgb(107,174,214); fill: none"  />
<path d="M 1636.7,2121.6 L 1631.6,2097.2 1626.8,2072.7 1622.7,2048.3 1619.1,2024.3 1616.2,2000.6 1614.0,1977.5 1612.5,1955.0 1611.8,1933.2 1612.0,1912.3 1613.1,1892.4 1615.1,1873.5 1618.0,1855.7 1621.9,1839.1 1626.7,1823.7 1632.6,1809.6 1639.4,1796.9 1647.2,1785.6 1656.0,1775.7 1665.8,1767.3 1676.5,1760.3 1688.2,1754.8 1700.8,1750.8 1714.3,1748.3 1728.7,1747.2 1744.0,1747.6 1760.0,1749.5 1776.7,1752.7 1794.2,1757.3 1812.2,1763.2 1830.9,1770.4 1850.0,1778.7 1869.6,1788.2 1889.6,1798.7 1909.8,1810.1 1930.2,1822.4 1950.7,1835.5 1971.3,1849.2 1991.7,1863.5 2012.0,1878.2  " style="stroke-opacity: 1.000000; stroke-width: 5.0; stroke: rgb(107,174,214); fill: none"  />
<path d="M 1636.7,2121.6 L 1631.5,2097.6 1626.6,2073.7 1622.1,2050.0 1617.9,2026.8 1614.1,2004.1 1610.8,1982.1 1608.1,1961.0 1605.8,1940.9 1604.2,1921.8 1603.2,1903.9 1602.8,1887.2 1603.1,1871.9 1604.1,1858.0 1605.8,1845.7 1608.3,1834.8 1611.4,1825.6 1615.3,1818.0 1619.8,1812.1 1625.2,1807.9 1631.2,1805.3 1637.9,1804.5 1645.4,1805.4 1653.5,1808.0 1662.3,1812.2 1671.7,1818.1 1681.7,1825.6 1692.3,1834.7 1703.4,1845.2 1715.0,1857.1 1727.0,1870.4 1739.4,1885.0 1752.2,1900.7 1765.3,1917.6 1778.6,1935.3 1792.1,1953.9 1805.7,1973.2 1819.4,1993.1 1832.9,2013.4 1846.4,2034.0  " style="stroke-opacity: 1.000000; stroke-width: 5.0; stroke: rgb(107,174,214); fill: none"  />
<path d="M 1636.7,2121.6 L 1631.3,2097.7 1625.7,2073.9 1619.9,2050.5 1614.0,2027.6 1607.9,2005.5 1601.7,1984.2 1595.3,1963.8 1588.9,1944.6 1582.4,1926.6 1575.8,1909.9 1569.1,1894.6 1562.4,1880.9 1555.7,1868.7 1549.0,1858.2 1542.2,1849.4 1535.5,1842.3 1528.8,1837.0 1522.2,1833.6 1515.5,1832.0 1509.0,1832.2 1502.5,1834.3 1496.2,1838.2 1489.9,1844.0 1483.7,1851.5 1477.6,1860.8 1471.7,1871.8 1465.9,1884.4 1460.2,1898.7 1454.7,1914.4 1449.4,1931.5 1444.2,1949.9 1439.2,1969.6 1434.4,1990.3 1429.7,2012.0 1425.3,2034.6 1421.0,2057.8 1417.0,2081.6 1413.2,2105.7 1409.6,2130.0  " style="stroke-opacity: 1.000000; stroke-width: 5.0; stroke: rgb(107,174,214); fill: none"  />
<path d="M 1419.6,868.6 L 1422.5,893.4 1425.0,918.2 1427.0,942.9 1428.4,967.2 1429.2,991.0 1429.3,1014.2 1428.7,1036.8 1427.4,1058.5 1425.4,1079.3 1422.5,1099.0 1418.9,1117.7 1414.4,1135.2 1409.0,1151.4 1402.8,1166.2 1395.7,1179.7 1387.8,1191.8 1379.0,1202.4 1369.4,1211.4 1358.9,1219.0 1347.5,1224.9 1335.4,1229.4 1322.5,1232.2 1308.8,1233.5 1294.3,1233.3 1279.2,1231.5 1263.4,1228.2 1247.0,1223.5 1230.1,1217.4 1212.6,1209.9 1194.7,1201.1 1176.4,1191.0 1157.7,1179.9 1138.8,1167.6 1119.6,1154.4 1100.4,1140.3 1081.1,1125.4 1061.9,1109.9 1042.8,1093.9 1024.0,1077.4  " style="stroke-opacity: 1.000000; stroke-width: 5.0; stroke: rgb(107,174,214); fill: none"  />
<path d="M 1419.6,868.6 L 1422.5,893.2 1425.1,917.7 1427.3,942.0 1429.0,965.8 1430.2,989.1 1430.9,1011.8 1431.0,1033.6 1430.5,1054.5 1429.3,1074.4 1427.5,1093.1 1425.0,1110.7 1421.8,1126.9 1417.9,1141.7 1413.3,1155.1 1407.9,1166.9 1401.8,1177.3 1395.0,1186.0 1387.5,1193.0 1379.2,1198.5 1370.2,1202.2 1360.6,1204.3 1350.2,1204.7 1339.2,1203.4 1327.6,1200.5 1315.4,1196.0 1302.6,1189.9 1289.3,1182.3 1275.5,1173.2 1261.3,1162.6 1246.7,1150.8 1231.7,1137.6 1216.5,1123.3 1201.0,1107.9 1185.4,1091.5 1169.6,1074.3 1153.9,1056.3 1138.1,1037.7 1122.5,1018.6 1107.1,999.2  " style="stroke-opacity: 1.000000; stroke-width: 5.0; stroke: rgb(107,174,214); fill: none"  />
<path d="M 1523.5,2136.1 L 1522.8,2111.3 1522.4,2086.7 1522.4,2062.3 1522.8,2038.4 1523.7,2015.1 1525.0,1992.5 1526.9,1970.7 1529.3,1949.9 1532.2,1930.2 1535.7,1911.7 1539.8,1894.5 1544.4,1878.6 1549.6,1864.2 1555.4,1851.3 1561.8,1840.0 1568.8,1830.2 1576.4,1822.2 1584.6,1815.8 1593.3,1811.2 1602.6,1808.2 1612.4,1807.0 1622.7,1807.5 1633.5,1809.8 1644.9,1813.7 1656.6,1819.3 1668.8,1826.5 1681.3,1835.3 1694.3,1845.6 1707.5,1857.4 1721.0,1870.5 1734.7,1885.0 1748.6,1900.6 1762.6,1917.3 1776.7,1935.1 1790.9,1953.6 1805.0,1973.0 1819.0,1992.9 1832.8,2013.3 1846.4,2034.0  " style="stroke-opacity: 1.000000; stroke-width: 5.0; stroke: rgb(107,174,214); fill: none"  />
<path d="M 1523.5,2136.1 L 1522.7,2111.5 1522.2,2087.1 1521.9,2063.0 1521.9,2039.3 1522.3,2016.4 1523.0,1994.2 1524.0,1972.9 1525.4,1952.7 1527.2,1933.6 1529.4,1915.8 1532.1,1899.4 1535.1,1884.4 1538.5,1870.9 1542.4,1859.0 1546.7,1848.8 1551.5,1840.3 1556.6,1833.5 1562.2,1828.5 1568.2,1825.3 1574.6,1823.9 1581.4,1824.3 1588.5,1826.5 1596.0,1830.4 1603.9,1836.2 1612.1,1843.7 1620.6,1852.8 1629.4,1863.6 1638.5,1876.0 1647.7,1889.8 1657.2,1905.0 1666.8,1921.6 1676.6,1939.3 1686.5,1958.2 1696.4,1978.1 1706.4,1998.8 1716.3,2020.2 1726.2,2042.2 1735.9,2064.6 1745.5,2087.2  " style="stroke-opacity: 1.000000; stroke-width: 5.0; stroke: rgb(107,174,214); fill: none"  />
<path d="M 1523.5,2136.1 L 1522.6,2111.6 1521.5,2087.3 1520.3,2063.4 1519.0,2040.0 1517.5,2017.3 1515.9,1995.4 1514.2,1974.6 1512.4,1954.8 1510.4,1936.2 1508.3,1918.9 1506.1,1903.1 1503.8,1888.8 1501.3,1876.1 1498.7,1865.1 1495.9,1855.7 1493.1,1848.2 1490.1,1842.4 1487.0,1838.5 1483.9,1836.5 1480.6,1836.3 1477.2,1838.0 1473.7,1841.6 1470.2,1847.0 1466.5,1854.2 1462.8,1863.2 1459.1,1873.9 1455.3,1886.3 1451.4,1900.2 1447.6,1915.7 1443.6,1932.7 1439.7,1950.9 1435.8,1970.4 1431.9,1991.0 1428.1,2012.6 1424.2,2035.0 1420.4,2058.1 1416.7,2081.8 1413.1,2105.8 1409.6,2130.0  " style="stroke-opacity: 1.000000; stroke-width: 5.0; stroke: rgb(107,174,214); fill: none"  />
<path d="M 1409.6,2130.0 L 1413.3,2105.3 1417.5,2080.7 1422.2,2056.5 1427.3,2032.7 1432.9,2009.5 1438.9,1987.1 1445.5,1965.5 1452.5,1944.9 1460.0,1925.4 1468.0,1907.1 1476.5,1890.1 1485.5,1874.5 1495.0,1860.3 1504.9,1847.6 1515.3,1836.5 1526.2,1827.0 1537.4,1819.1 1549.2,1812.9 1561.3,1808.5 1573.8,1805.7 1586.7,1804.7 1599.9,1805.4 1613.4,1807.8 1627.3,1811.8 1641.4,1817.6 1655.7,1824.9 1670.3,1833.8 1685.0,1844.3 1699.8,1856.1 1714.8,1869.4 1729.8,1883.9 1744.8,1899.7 1759.8,1916.5 1774.7,1934.3 1789.5,1953.0 1804.1,1972.5 1818.5,1992.6 1832.6,2013.1 1846.4,2034.0  " style="stroke-opacity: 1.000000; stroke-width: 5.0; stroke: rgb(107,174,214); fill: none"  />
<path d="M 1409.6,2130.0 L 1413.2,2105.7 1417.0,2081.6 1421.0,2057.8 1425.3,2034.6 1429.7,2012.0 1434.4,1990.3 1439.2,1969.6 1444.2,1949.9 1449.4,1931.5 1454.7,1914.4 1460.2,1898.7 1465.9,1884.4 1471.7,1871.8 1477.6,1860.8 1483.7,1851.5 1489.9,1844.0 1496.2,1838.2 1502.5,1834.3 1509.0,1832.2 1515.5,1832.0 1522.2,1833.6 1528.8,1837.0 1535.5,1842.3 1542.2,1849.4 1549.0,1858.2 1555.7,1868.7 1562.4,1880.9 1569.1,1894.6 1575.8,1909.9 1582.4,1926.6 1588.9,1944.6 1595.3,1963.8 1601.7,1984.2 1607.9,2005.5 1614.0,2027.6 1619.9,2050.5 1625.7,2073.9 1631.3,2097.7 1636.7,2121.6  " style="stroke-opacity: 1.000000; stroke-width: 5.0; stroke: rgb(107,174,214); fill: none"  />
<path d="M 1409.6,2130.0 L 1413.1,2105.8 1416.7,2081.8 1420.4,2058.1 1424.2,2035.0 1428.1,2012.6 1431.9,1991.0 1435.8,1970.4 1439.7,1950.9 1443.6,1932.7 1447.6,1915.7 1451.4,1900.2 1455.3,1886.3 1459.1,1873.9 1462.8,1863.2 1466.5,1854.2 1470.2,1847.0 1473.7,1841.6 1477.2,1838.0 1480.6,1836.3 1483.9,1836.5 1487.0,1838.5 1490.1,1842.4 1493.1,1848.2 1495.9,1855.7 1498.7,1865.1 1501.3,1876.1 1503.8,1888.8 1506.1,1903.1 1508.3,1918.9 1510.4,1936.2 1512.4,1954.8 1514.2,1974.6 1515.9,1995.4 1517.5,2017.3 1519.0,2040.0 1520.3,2063.4 1521.5,2087.3 1522.6,2111.6 1523.5,2136.1  " style="stroke-opacity: 1.000000; stroke-width: 5.0; stroke: rgb(107,174,214); fill: none"  />
<path d="M 1298.5,2103.8 L 1307.1,2079.1 1316.3,2054.6 1326.1,2030.3 1336.6,2006.4 1347.8,1983.1 1359.6,1960.3 1372.1,1938.3 1385.2,1917.1 1399.0,1896.8 1413.4,1877.4 1428.5,1859.2 1444.2,1842.1 1460.6,1826.1 1477.5,1811.5 1495.0,1798.1 1513.1,1786.1 1531.8,1775.4 1550.9,1766.2 1570.6,1758.3 1590.7,1752.0 1611.3,1747.1 1632.3,1743.6 1653.7,1741.6 1675.4,1741.0 1697.5,1741.9 1719.8,1744.2 1742.3,1747.8 1765.0,1752.8 1787.8,1759.1 1810.7,1766.6 1833.7,1775.3 1856.6,1785.1 1879.5,1795.9 1902.3,1807.7 1924.8,1820.4 1947.1,1833.9 1969.1,1848.1 1990.8,1862.9 2012.0,1878.2  " style="stroke-opacity: 1.000000; stroke-width: 5.0; stroke: rgb(107,174,214); fill: none"  />
<path d="M 1298.5,2103.8 L 1306.9,2079.5 1315.9,2055.4 1325.5,2031.6 1335.6,2008.3 1346.3,1985.5 1357.6,1963.5 1369.5,1942.3 1381.9,1921.9 1394.8,1902.6 1408.4,1884.4 1422.4,1867.4 1437.0,1851.6 1452.1,1837.2 1467.7,1824.1 1483.7,1812.5 1500.3,1802.3 1517.2,1793.6 1534.6,1786.5 1552.3,1781.0 1570.4,1777.0 1588.8,1774.6 1607.6,1773.8 1626.6,1774.5 1645.9,1776.8 1665.3,1780.6 1684.9,1786.0 1704.7,1792.8 1724.6,1801.0 1744.5,1810.5 1764.4,1821.4 1784.3,1833.5 1804.1,1846.7 1823.7,1861.0 1843.2,1876.3 1862.5,1892.4 1881.5,1909.3 1900.1,1926.9 1918.4,1945.0 1936.2,1963.5  " style="stroke-opacity: 1.000000; stroke-width: 5.0; stroke: rgb(107,174,214); fill: none"  />
<path d="M 1298.5,2103.8 L 1306.8,2079.8 1315.5,2056.1 1324.8,2032.7 1334.5,2009.9 1344.7,1987.7 1355.4,1966.2 1366.5,1945.6 1378.0,1926.1 1390.0,1907.6 1402.4,1890.3 1415.3,1874.3 1428.5,1859.6 1442.0,1846.4 1456.0,1834.7 1470.2,1824.5 1484.8,1815.9 1499.7,1808.9 1514.9,1803.6 1530.3,1799.9 1545.9,1797.9 1561.7,1797.6 1577.7,1799.0 1593.9,1802.0 1610.2,1806.7 1626.5,1813.0 1643.0,1820.8 1659.4,1830.2 1675.9,1841.1 1692.3,1853.4 1708.6,1867.0 1724.9,1881.9 1741.0,1897.9 1756.9,1915.0 1772.6,1933.1 1788.1,1952.1 1803.2,1971.8 1818.0,1992.1 1832.4,2012.9 1846.4,2034.0  " style="stroke-opacity: 1.000000; stroke-width: 5.0; stroke: rgb(107,174,214); fill: none"  />
<path d="M 1298.5,2103.8 L 1306.6,2080.1 1315.2,2056.7 1324.1,2033.6 1333.3,2011.1 1343.0,1989.3 1352.9,1968.3 1363.2,1948.3 1373.8,1929.3 1384.7,1911.4 1395.8,1894.9 1407.2,1879.7 1418.9,1865.9 1430.7,1853.6 1442.8,1842.9 1455.0,1833.8 1467.3,1826.4 1479.9,1820.7 1492.5,1816.7 1505.2,1814.4 1518.0,1814.0 1530.9,1815.3 1543.8,1818.3 1556.7,1823.1 1569.6,1829.6 1582.4,1837.7 1595.2,1847.5 1607.9,1858.9 1620.5,1871.8 1633.0,1886.1 1645.4,1901.8 1657.5,1918.8 1669.5,1936.9 1681.3,1956.2 1692.7,1976.4 1704.0,1997.4 1714.9,2019.2 1725.4,2041.5 1735.7,2064.2 1745.5,2087.2  " style="stroke-opacity: 1.000000; stroke-width: 5.0; stroke: rgb(107,174,214); fill: none"  />
<path d="M 2017.9,1130.0 L 1997.4,1144.3 1976.7,1158.3 1956.0,1171.7 1935.3,1184.4 1914.7,1196.4 1894.3,1207.6 1874.1,1217.7 1854.4,1226.9 1835.1,1234.9 1816.4,1241.8 1798.2,1247.4 1780.7,1251.7 1763.9,1254.7 1747.9,1256.3 1732.6,1256.4 1718.3,1255.1 1704.8,1252.4 1692.2,1248.2 1680.6,1242.5 1670.0,1235.4 1660.3,1226.8 1651.7,1216.8 1644.1,1205.3 1637.4,1192.5 1631.8,1178.3 1627.2,1162.9 1623.6,1146.2 1621.0,1128.4 1619.3,1109.4 1618.6,1089.5 1618.7,1068.6 1619.7,1046.9 1621.5,1024.4 1624.1,1001.3 1627.4,977.7 1631.3,953.7 1635.9,929.4 1641.0,905.0 1646.5,880.6  " style="stroke-opacity: 1.000000; stroke-width: 5.0; stroke: rgb(107,174,214); fill: none"  />
</g>
<defs>
<pattern id="hline" width="10" height="10" patternTransform="rotate(0 0 0)" patternUnits="userSpaceOnUse"><line x1="0" y1="0" x2="10" y2="0" style="stroke:black;stroke-width:5" /></pattern>
<pattern id="checker" width="10" height="10" patternTransform="rotate(45 0 0)" patternUnits="userSpaceOnUse"><line x1="0" y1="0" x2="10" y2="0" style="stroke:black;stroke-width:5" /><line x1="0" y1="0" x2="0" y2="10" style="stroke:black;stroke-width:4" /></pattern>
<pattern id="checker" width="10" height="10" patternTransform="rotate(45 0 0)" patternUnits="userSpaceOnUse"><line x1="0" y1="0" x2="10" y2="0" style="stroke:black;stroke-width:2" /><line x1="0" y1="0" x2="0" y2="10" style="stroke:black;stroke-width:2" /></pattern>
<pattern id="vline-sparse" width="10" height="10" patternTransform="rotate(0 0 0)" patternUnits="userSpaceOnUse"><line x1="0" y1="0" x2="0" y2="10" style="stroke:black;stroke-width:2" /></pattern>
<pattern id="hline-sparse" width="10" height="10" patternTransform="rotate(0 0 0)" patternUnits="userSpaceOnUse"><line x1="0" y1="0" x2="10" y2="0" style="stroke:black;stroke-width:2" /></pattern>
<pattern id="vline" width="10" height="10" patternTransform="rotate(0 0 0)" patternUnits="userSpaceOnUse"><line x1="0" y1="0" x2="0" y2="10" style="stroke:black;stroke-width:5" /></pattern>
</defs>
</svg>
