<?xml version="1.0" encoding="utf-8" standalone="no"?>
<!DOCTYPE svg PUBLIC "-//W3C//DTD SVG 1.1//EN" "http://www.w3.org/Graphics/SVG/1.1/DTD/svg11.dtd">
<svg width="3000px" height="3000px" version="1.1" xmlns="http://www.w3.org/2000/svg" xmlns:xlink="http://www.w3.org/1999/xlink">
<g id="bg">
<rect x="0" y="0" width="3000px" height="3000px" style="fill:rgb(255,255,255);"/>
</g>
<g id="ideograms">
<path d="M1500.000,535.000 A965.000,965.000 40.000 0,1 1601.714,540.376 L1618.579,381.267 A1125.000,1125.000 0.000 0,0 1500.000,375.000 Z" style="stroke-width:2.0;stroke:rgb(115,115,115);stroke-linecap:round;fill:rgb(153,204,255);" />
<text x="1635.1" y="307.6" font-size="195.0px" font-family="CMUBright-Bold" style="text-anchor:start;fill:rgb(0,0,0);" transform="rotate(273.0,1635.1,307.6)" >5</text>
<path d="M1500.000,535.000 A965.000,965.000 40.000 0,1 1601.714,540.376 L1618.579,381.267 A1125.000,1125.000 0.000 0,0 1500.000,375.000 Z" style="stroke-width:2.0;stroke:rgb(115,115,115);stroke-linecap:round;fill:none;" />
<path d="M1672.307,550.508 A965.000,965.000 40.000 0,1 1771.427,573.959 L1816.431,420.418 A1125.000,1125.000 0.000 0,0 1700.877,393.079 Z" style="stroke-width:2.0;stroke:rgb(115,115,115);stroke-linecap:round;fill:rgb(153,204,255);" />
<text x="1847.7" y="351.5" font-size="195.0px" font-family="CMUBright-Bold" style="text-anchor:start;fill:rgb(0,0,0);" transform="rotate(283.3,1847.7,351.5)" >8</text>
<path d="M1672.307,550.508 A965.000,965.000 40.000 0,1 1771.427,573.959 L1816.431,420.418 A1125.000,1125.000 0.000 0,0 1700.877,393.079 Z" style="stroke-width:2.0;stroke:rgb(115,115,115);stroke-linecap:round;fill:none;" />
<path d="M1839.077,596.533 A965.000,965.000 40.000 0,1 1932.417,637.306 L2004.113,494.269 A1125.000,1125.000 0.000 0,0 1895.297,446.736 Z" style="stroke-width:2.0;stroke:rgb(115,115,115);stroke-linecap:round;fill:rgb(153,204,255);" />
<text x="2046.3" y="431.6" font-size="195.0px" font-family="CMUBright-Bold" style="text-anchor:start;fill:rgb(0,0,0);" transform="rotate(293.6,2046.3,431.6)" >17</text>
<path d="M1839.077,596.533 A965.000,965.000 40.000 0,1 1932.417,637.306 L2004.113,494.269 A1125.000,1125.000 0.000 0,0 1895.297,446.736 Z" style="stroke-width:2.0;stroke:rgb(115,115,115);stroke-linecap:round;fill:none;" />
<path d="M1994.948,671.597 A965.000,965.000 40.000 0,1 2079.507,728.381 L2175.592,600.444 A1125.000,1125.000 0.000 0,0 2077.012,534.245 Z" style="stroke-width:2.0;stroke:rgb(115,115,115);stroke-linecap:round;fill:rgb(153,204,255);" />
<text x="2229.1" y="546.9" font-size="195.0px" font-family="CMUBright-Bold" style="text-anchor:start;fill:rgb(0,0,0);" transform="rotate(303.9,2229.1,546.9)" >18</text>
<path d="M1994.948,671.597 A965.000,965.000 40.000 0,1 2079.507,728.381 L2175.592,600.444 A1125.000,1125.000 0.000 0,0 2077.012,534.245 Z" style="stroke-width:2.0;stroke:rgb(115,115,115);stroke-linecap:round;fill:none;" />
<path d="M2134.911,773.286 A965.000,965.000 40.000 0,1 2207.972,844.256 L2325.356,735.532 A1125.000,1125.000 0.000 0,0 2240.181,652.795 Z" style="stroke-width:2.0;stroke:rgb(115,115,115);stroke-linecap:round;fill:rgb(153,204,255);" />
<text x="2387.6" y="692.4" font-size="195.0px" font-family="CMUBright-Bold" style="text-anchor:start;fill:rgb(0,0,0);" transform="rotate(314.2,2387.6,692.4)" >19</text>
<path d="M2134.911,773.286 A965.000,965.000 40.000 0,1 2207.972,844.256 L2325.356,735.532 A1125.000,1125.000 0.000 0,0 2240.181,652.795 Z" style="stroke-width:2.0;stroke:rgb(115,115,115);stroke-linecap:round;fill:none;" />
<path d="M2254.467,898.332 A965.000,965.000 40.000 0,1 2313.683,981.207 L2448.594,895.190 A1125.000,1125.000 0.000 0,0 2379.560,798.574 Z" style="stroke-width:2.0;stroke:rgb(115,115,115);stroke-linecap:round;fill:rgb(153,204,255);" />
<text x="2517.0" y="863.0" font-size="195.0px" font-family="CMUBright-Bold" style="text-anchor:start;fill:rgb(0,0,0);" transform="rotate(324.5,2517.0,863.0)" >27</text>
<path d="M2254.467,898.332 A965.000,965.000 40.000 0,1 2313.683,981.207 L2448.594,895.190 A1125.000,1125.000 0.000 0,0 2379.560,798.574 Z" style="stroke-width:2.0;stroke:rgb(115,115,115);stroke-linecap:round;fill:none;" />
<path d="M2349.775,1042.717 A965.000,965.000 40.000 0,1 2393.240,1134.833 L2541.342,1074.288 A1125.000,1125.000 0.000 0,0 2490.670,966.898 Z" style="stroke-width:2.0;stroke:rgb(115,115,115);stroke-linecap:round;fill:rgb(153,204,255);" />
<text x="2614.7" y="1055.8" font-size="195.0px" font-family="CMUBright-Bold" style="text-anchor:start;fill:rgb(0,0,0);" transform="rotate(334.7,2614.7,1055.8)" >28</text>
<path d="M2349.775,1042.717 A965.000,965.000 40.000 0,1 2393.240,1134.833 L2541.342,1074.288 A1125.000,1125.000 0.000 0,0 2490.670,966.898 Z" style="stroke-width:2.0;stroke:rgb(115,115,115);stroke-linecap:round;fill:none;" />
<path d="M2417.770,1201.799 A965.000,965.000 40.000 0,1 2444.089,1300.196 L2600.621,1267.068 A1125.000,1125.000 0.000 0,0 2569.939,1152.356 Z" style="stroke-width:2.0;stroke:rgb(115,115,115);stroke-linecap:round;fill:rgb(153,204,255);" />
<text x="2676.2" y="1262.0" font-size="195.0px" font-family="CMUBright-Bold" style="text-anchor:start;fill:rgb(0,0,0);" transform="rotate(345.0,2676.2,1262.0)" >34</text>
<path d="M2417.770,1201.799 A965.000,965.000 40.000 0,1 2444.089,1300.196 L2600.621,1267.068 A1125.000,1125.000 0.000 0,0 2569.939,1152.356 Z" style="stroke-width:2.0;stroke:rgb(115,115,115);stroke-linecap:round;fill:none;" />
<path d="M2456.267,1370.465 A965.000,965.000 40.000 0,1 2464.593,1471.980 L2624.526,1467.335 A1125.000,1125.000 0.000 0,0 2614.818,1348.988 Z" style="stroke-width:2.0;stroke:rgb(115,115,115);stroke-linecap:round;fill:rgb(153,204,255);" />
<text x="2699.8" y="1475.8" font-size="195.0px" font-family="CMUBright-Bold" style="text-anchor:start;fill:rgb(0,0,0);" transform="rotate(355.3,2699.8,1475.8)" >35</text>
<path d="M2456.267,1370.465 A965.000,965.000 40.000 0,1 2464.593,1471.980 L2624.526,1467.335 A1125.000,1125.000 0.000 0,0 2614.818,1348.988 Z" style="stroke-width:2.0;stroke:rgb(115,115,115);stroke-linecap:round;fill:none;" />
<path d="M2464.028,1543.295 A965.000,965.000 40.000 0,1 2454.095,1644.665 L2612.287,1668.651 A1125.000,1125.000 0.000 0,0 2623.867,1550.473 Z" style="stroke-width:2.0;stroke:rgb(115,115,115);stroke-linecap:round;fill:rgb(116,196,118);" />
<text x="2684.8" y="1690.4" font-size="195.0px" font-family="CMUBright-Bold" style="text-anchor:start;fill:rgb(0,0,0);" transform="rotate(5.6,2684.8,1690.4)" >3</text>
<path d="M2464.028,1543.295 A965.000,965.000 40.000 0,1 2454.095,1644.665 L2612.287,1668.651 A1125.000,1125.000 0.000 0,0 2623.867,1550.473 Z" style="stroke-width:2.0;stroke:rgb(115,115,115);stroke-linecap:round;fill:none;" />
<path d="M2440.805,1714.733 A965.000,965.000 40.000 0,1 2412.931,1812.701 L2564.298,1864.548 A1125.000,1125.000 0.000 0,0 2596.794,1750.336 Z" style="stroke-width:2.0;stroke:rgb(115,115,115);stroke-linecap:round;fill:rgb(116,196,118);" />
<text x="2633.1" y="1895.1" font-size="195.0px" font-family="CMUBright-Bold" style="text-anchor:start;fill:rgb(0,0,0);" transform="rotate(15.9,2633.1,1895.1)" >4</text>
<path d="M2440.805,1714.733 A965.000,965.000 40.000 0,1 2412.931,1812.701 L2564.298,1864.548 A1125.000,1125.000 0.000 0,0 2596.794,1750.336 Z" style="stroke-width:2.0;stroke:rgb(115,115,115);stroke-linecap:round;fill:none;" />
<path d="M2387.344,1879.269 A965.000,965.000 40.000 0,1 2342.425,1970.686 L2482.102,2048.727 A1125.000,1125.000 0.000 0,0 2534.469,1942.153 Z" style="stroke-width:2.0;stroke:rgb(115,115,115);stroke-linecap:round;fill:rgb(116,196,118);" />
<text x="2543.3" y="2092.8" font-size="195.0px" font-family="CMUBright-Bold" style="text-anchor:start;fill:rgb(0,0,0);" transform="rotate(26.2,2543.3,2092.8)" >14</text>
<path d="M2387.344,1879.269 A965.000,965.000 40.000 0,1 2342.425,1970.686 L2482.102,2048.727 A1125.000,1125.000 0.000 0,0 2534.469,1942.153 Z" style="stroke-width:2.0;stroke:rgb(115,115,115);stroke-linecap:round;fill:none;" />
<path d="M2305.363,2031.616 A965.000,965.000 40.000 0,1 2244.843,2113.542 L2368.340,2215.270 A1125.000,1125.000 0.000 0,0 2438.895,2119.759 Z" style="stroke-width:2.0;stroke:rgb(115,115,115);stroke-linecap:round;fill:rgb(116,196,118);" />
<text x="2419.4" y="2271.1" font-size="195.0px" font-family="CMUBright-Bold" style="text-anchor:start;fill:rgb(0,0,0);" transform="rotate(36.5,2419.4,2271.1)" >15</text>
<path d="M2305.363,2031.616 A965.000,965.000 40.000 0,1 2244.843,2113.542 L2368.340,2215.270 A1125.000,1125.000 0.000 0,0 2438.895,2119.759 Z" style="stroke-width:2.0;stroke:rgb(115,115,115);stroke-linecap:round;fill:none;" />
<path d="M2197.497,2166.875 A965.000,965.000 40.000 0,1 2123.321,2236.679 L2226.669,2358.823 A1125.000,1125.000 0.000 0,0 2313.144,2277.445 Z" style="stroke-width:2.0;stroke:rgb(115,115,115);stroke-linecap:round;fill:rgb(116,196,118);" />
<text x="2268.5" y="2421.6" font-size="195.0px" font-family="CMUBright-Bold" style="text-anchor:start;fill:rgb(0,0,0);" transform="rotate(46.7,2268.5,2421.6)" >24</text>
<path d="M2197.497,2166.875 A965.000,965.000 40.000 0,1 2123.321,2236.679 L2226.669,2358.823 A1125.000,1125.000 0.000 0,0 2313.144,2277.445 Z" style="stroke-width:2.0;stroke:rgb(115,115,115);stroke-linecap:round;fill:none;" />
<path d="M2067.213,2280.701 A965.000,965.000 40.000 0,1 1981.764,2336.139 L2061.642,2474.773 A1125.000,1125.000 0.000 0,0 2161.258,2410.144 Z" style="stroke-width:2.0;stroke:rgb(115,115,115);stroke-linecap:round;fill:rgb(153,0,204);" />
<text x="2091.6" y="2544.0" font-size="195.0px" font-family="CMUBright-Bold" style="text-anchor:start;fill:rgb(0,0,0);" transform="rotate(57.0,2091.6,2544.0)" >1</text>
<path d="M2067.213,2280.701 A965.000,965.000 40.000 0,1 1981.764,2336.139 L2061.642,2474.773 A1125.000,1125.000 0.000 0,0 2161.258,2410.144 Z" style="stroke-width:2.0;stroke:rgb(115,115,115);stroke-linecap:round;fill:none;" />
<path d="M1918.698,2369.435 A965.000,965.000 40.000 0,1 1824.724,2408.724 L1878.564,2559.393 A1125.000,1125.000 0.000 0,0 1988.119,2513.590 Z" style="stroke-width:2.0;stroke:rgb(115,115,115);stroke-linecap:round;fill:rgb(153,0,204);" />
<text x="1893.8" y="2633.6" font-size="195.0px" font-family="CMUBright-Bold" style="text-anchor:start;fill:rgb(0,0,0);" transform="rotate(67.3,1893.8,2633.6)" >6</text>
<path d="M1918.698,2369.435 A965.000,965.000 40.000 0,1 1824.724,2408.724 L1878.564,2559.393 A1125.000,1125.000 0.000 0,0 1988.119,2513.590 Z" style="stroke-width:2.0;stroke:rgb(115,115,115);stroke-linecap:round;fill:none;" />
<path d="M1756.726,2430.224 A965.000,965.000 40.000 0,1 1657.246,2452.102 L1683.318,2609.964 A1125.000,1125.000 0.000 0,0 1799.291,2584.458 Z" style="stroke-width:2.0;stroke:rgb(115,115,115);stroke-linecap:round;fill:rgb(153,0,204);" />
<text x="1688.0" y="2685.2" font-size="195.0px" font-family="CMUBright-Bold" style="text-anchor:start;fill:rgb(0,0,0);" transform="rotate(77.6,1688.0,2685.2)" >7</text>
<path d="M1756.726,2430.224 A965.000,965.000 40.000 0,1 1657.246,2452.102 L1683.318,2609.964 A1125.000,1125.000 0.000 0,0 1799.291,2584.458 Z" style="stroke-width:2.0;stroke:rgb(115,115,115);stroke-linecap:round;fill:none;" />
<path d="M1586.502,2461.115 A965.000,965.000 40.000 0,1 1484.715,2464.879 L1482.181,2624.859 A1125.000,1125.000 0.000 0,0 1600.844,2620.471 Z" style="stroke-width:2.0;stroke:rgb(115,115,115);stroke-linecap:round;fill:rgb(153,0,204);" />
<text x="1470.4" y="2699.6" font-size="195.0px" font-family="CMUBright-Bold" style="text-anchor:start;fill:rgb(0,0,0);" transform="rotate(87.9,1470.4,2699.6)" >9</text>
<path d="M1586.502,2461.115 A965.000,965.000 40.000 0,1 1484.715,2464.879 L1482.181,2624.859 A1125.000,1125.000 0.000 0,0 1600.844,2620.471 Z" style="stroke-width:2.0;stroke:rgb(115,115,115);stroke-linecap:round;fill:none;" />
<path d="M1413.498,2461.115 A965.000,965.000 40.000 0,1 1312.675,2446.644 L1281.616,2603.600 A1125.000,1125.000 0.000 0,0 1399.156,2620.471 Z" style="stroke-width:2.0;stroke:rgb(115,115,115);stroke-linecap:round;fill:rgb(153,0,204);" />
<text x="1403.0" y="2696.1" font-size="195.0px" font-family="CMUBright-Bold" style="text-anchor:end;fill:rgb(0,0,0);" transform="rotate(-81.8,1403.0,2696.1)" >10</text>
<path d="M1413.498,2461.115 A965.000,965.000 40.000 0,1 1312.675,2446.644 L1281.616,2603.600 A1125.000,1125.000 0.000 0,0 1399.156,2620.471 Z" style="stroke-width:2.0;stroke:rgb(115,115,115);stroke-linecap:round;fill:none;" />
<path d="M1243.274,2430.224 A965.000,965.000 40.000 0,1 1146.656,2397.983 L1088.070,2546.871 A1125.000,1125.000 0.000 0,0 1200.709,2584.458 Z" style="stroke-width:2.0;stroke:rgb(115,115,115);stroke-linecap:round;fill:rgb(153,0,204);" />
<text x="1191.0" y="2659.5" font-size="195.0px" font-family="CMUBright-Bold" style="text-anchor:end;fill:rgb(0,0,0);" transform="rotate(-71.5,1191.0,2659.5)" >13</text>
<path d="M1243.274,2430.224 A965.000,965.000 40.000 0,1 1146.656,2397.983 L1088.070,2546.871 A1125.000,1125.000 0.000 0,0 1200.709,2584.458 Z" style="stroke-width:2.0;stroke:rgb(115,115,115);stroke-linecap:round;fill:none;" />
<path d="M1081.302,2369.435 A965.000,965.000 40.000 0,1 991.993,2320.460 L907.764,2456.494 A1125.000,1125.000 0.000 0,0 1011.881,2513.590 Z" style="stroke-width:2.0;stroke:rgb(115,115,115);stroke-linecap:round;fill:rgb(153,0,204);" />
<text x="988.9" y="2585.7" font-size="195.0px" font-family="CMUBright-Bold" style="text-anchor:end;fill:rgb(0,0,0);" transform="rotate(-61.3,988.9,2585.7)" >25</text>
<path d="M1081.302,2369.435 A965.000,965.000 40.000 0,1 991.993,2320.460 L907.764,2456.494 A1125.000,1125.000 0.000 0,0 1011.881,2513.590 Z" style="stroke-width:2.0;stroke:rgb(115,115,115);stroke-linecap:round;fill:none;" />
<path d="M932.787,2280.701 A965.000,965.000 40.000 0,1 853.658,2216.566 L746.493,2335.375 A1125.000,1125.000 0.000 0,0 838.742,2410.144 Z" style="stroke-width:2.0;stroke:rgb(115,115,115);stroke-linecap:round;fill:rgb(153,0,204);" />
<text x="803.3" y="2477.0" font-size="195.0px" font-family="CMUBright-Bold" style="text-anchor:end;fill:rgb(0,0,0);" transform="rotate(-51.0,803.3,2477.0)" >26</text>
<path d="M932.787,2280.701 A965.000,965.000 40.000 0,1 853.658,2216.566 L746.493,2335.375 A1125.000,1125.000 0.000 0,0 838.742,2410.144 Z" style="stroke-width:2.0;stroke:rgb(115,115,115);stroke-linecap:round;fill:none;" />
<path d="M802.503,2166.875 A965.000,965.000 40.000 0,1 736.097,2089.642 L609.440,2187.406 A1125.000,1125.000 0.000 0,0 686.856,2277.445 Z" style="stroke-width:2.0;stroke:rgb(115,115,115);stroke-linecap:round;fill:rgb(253,208,162);" />
<text x="638.6" y="2335.5" font-size="195.0px" font-family="CMUBright-Bold" style="text-anchor:end;fill:rgb(0,0,0);" transform="rotate(-40.7,638.6,2335.5)" >12</text>
<path d="M802.503,2166.875 A965.000,965.000 40.000 0,1 736.097,2089.642 L609.440,2187.406 A1125.000,1125.000 0.000 0,0 686.856,2277.445 Z" style="stroke-width:2.0;stroke:rgb(115,115,115);stroke-linecap:round;fill:none;" />
<path d="M694.637,2031.616 A965.000,965.000 40.000 0,1 643.089,1943.766 L501.010,2017.344 A1125.000,1125.000 0.000 0,0 561.105,2119.759 Z" style="stroke-width:2.0;stroke:rgb(115,115,115);stroke-linecap:round;fill:rgb(253,208,162);" />
<text x="504.4" y="2169.9" font-size="195.0px" font-family="CMUBright-Bold" style="text-anchor:end;fill:rgb(0,0,0);" transform="rotate(-30.4,504.4,2169.9)" >16</text>
<path d="M694.637,2031.616 A965.000,965.000 40.000 0,1 643.089,1943.766 L501.010,2017.344 A1125.000,1125.000 0.000 0,0 561.105,2119.759 Z" style="stroke-width:2.0;stroke:rgb(115,115,115);stroke-linecap:round;fill:none;" />
<path d="M612.656,1879.269 A965.000,965.000 40.000 0,1 577.622,1783.627 L424.689,1830.653 A1125.000,1125.000 0.000 0,0 465.531,1942.153 Z" style="stroke-width:2.0;stroke:rgb(115,115,115);stroke-linecap:round;fill:rgb(253,208,162);" />
<text x="400.8" y="1981.4" font-size="195.0px" font-family="CMUBright-Bold" style="text-anchor:end;fill:rgb(0,0,0);" transform="rotate(-20.1,400.8,1981.4)" >20</text>
<path d="M612.656,1879.269 A965.000,965.000 40.000 0,1 577.622,1783.627 L424.689,1830.653 A1125.000,1125.000 0.000 0,0 465.531,1942.153 Z" style="stroke-width:2.0;stroke:rgb(115,115,115);stroke-linecap:round;fill:none;" />
<path d="M559.195,1714.733 A965.000,965.000 40.000 0,1 541.802,1614.372 L382.929,1633.336 A1125.000,1125.000 0.000 0,0 403.206,1750.336 Z" style="stroke-width:2.0;stroke:rgb(115,115,115);stroke-linecap:round;fill:rgb(253,208,162);" />
<text x="332.0" y="1775.4" font-size="195.0px" font-family="CMUBright-Bold" style="text-anchor:end;fill:rgb(0,0,0);" transform="rotate(-9.8,332.0,1775.4)" >21</text>
<path d="M559.195,1714.733 A965.000,965.000 40.000 0,1 541.802,1614.372 L382.929,1633.336 A1125.000,1125.000 0.000 0,0 403.206,1750.336 Z" style="stroke-width:2.0;stroke:rgb(115,115,115);stroke-linecap:round;fill:none;" />
<path d="M535.972,1543.295 A965.000,965.000 40.000 0,1 536.778,1441.441 L377.073,1431.732 A1125.000,1125.000 0.000 0,0 376.133,1550.473 Z" style="stroke-width:2.0;stroke:rgb(115,115,115);stroke-linecap:round;fill:rgb(253,208,162);" />
<text x="301.7" y="1564.5" font-size="195.0px" font-family="CMUBright-Bold" style="text-anchor:end;fill:rgb(0,0,0);" transform="rotate(0.5,301.7,1564.5)" >29</text>
<path d="M535.972,1543.295 A965.000,965.000 40.000 0,1 536.778,1441.441 L377.073,1431.732 A1125.000,1125.000 0.000 0,0 376.133,1550.473 Z" style="stroke-width:2.0;stroke:rgb(115,115,115);stroke-linecap:round;fill:none;" />
<path d="M543.733,1370.465 A965.000,965.000 40.000 0,1 562.714,1270.393 L407.309,1232.323 A1125.000,1125.000 0.000 0,0 385.182,1348.988 Z" style="stroke-width:2.0;stroke:rgb(115,115,115);stroke-linecap:round;fill:rgb(253,141,60);" />
<text x="309.7" y="1347.5" font-size="195.0px" font-family="CMUBright-Bold" style="text-anchor:end;fill:rgb(0,0,0);" transform="rotate(10.7,309.7,1347.5)" >11</text>
<path d="M543.733,1370.465 A965.000,965.000 40.000 0,1 562.714,1270.393 L407.309,1232.323 A1125.000,1125.000 0.000 0,0 385.182,1348.988 Z" style="stroke-width:2.0;stroke:rgb(115,115,115);stroke-linecap:round;fill:none;" />
<path d="M582.230,1201.799 A965.000,965.000 40.000 0,1 618.774,1106.724 L472.664,1041.517 A1125.000,1125.000 0.000 0,0 430.061,1152.356 Z" style="stroke-width:2.0;stroke:rgb(115,115,115);stroke-linecap:round;fill:rgb(253,141,60);" />
<text x="355.5" y="1139.3" font-size="195.0px" font-family="CMUBright-Bold" style="text-anchor:end;fill:rgb(0,0,0);" transform="rotate(21.0,355.5,1139.3)" >30</text>
<path d="M582.230,1201.799 A965.000,965.000 40.000 0,1 618.774,1106.724 L472.664,1041.517 A1125.000,1125.000 0.000 0,0 430.061,1152.356 Z" style="stroke-width:2.0;stroke:rgb(115,115,115);stroke-linecap:round;fill:none;" />
<path d="M650.225,1042.717 A965.000,965.000 40.000 0,1 703.158,955.695 L571.039,865.447 A1125.000,1125.000 0.000 0,0 509.330,966.898 Z" style="stroke-width:2.0;stroke:rgb(115,115,115);stroke-linecap:round;fill:rgb(253,141,60);" />
<text x="438.3" y="940.7" font-size="195.0px" font-family="CMUBright-Bold" style="text-anchor:end;fill:rgb(0,0,0);" transform="rotate(31.3,438.3,940.7)" >31</text>
<path d="M650.225,1042.717 A965.000,965.000 40.000 0,1 703.158,955.695 L571.039,865.447 A1125.000,1125.000 0.000 0,0 509.330,966.898 Z" style="stroke-width:2.0;stroke:rgb(115,115,115);stroke-linecap:round;fill:none;" />
<path d="M745.533,898.332 A965.000,965.000 40.000 0,1 813.153,822.160 L699.272,709.772 A1125.000,1125.000 0.000 0,0 620.440,798.574 Z" style="stroke-width:2.0;stroke:rgb(115,115,115);stroke-linecap:round;fill:rgb(253,141,60);" />
<text x="555.2" y="760.2" font-size="195.0px" font-family="CMUBright-Bold" style="text-anchor:end;fill:rgb(0,0,0);" transform="rotate(41.6,555.2,760.2)" >32</text>
<path d="M745.533,898.332 A965.000,965.000 40.000 0,1 813.153,822.160 L699.272,709.772 A1125.000,1125.000 0.000 0,0 620.440,798.574 Z" style="stroke-width:2.0;stroke:rgb(115,115,115);stroke-linecap:round;fill:none;" />
<path d="M865.089,773.286 A965.000,965.000 40.000 0,1 945.224,710.412 L853.241,579.496 A1125.000,1125.000 0.000 0,0 759.819,652.795 Z" style="stroke-width:2.0;stroke:rgb(115,115,115);stroke-linecap:round;fill:rgb(66,146,198);" />
<text x="704.0" y="602.0" font-size="195.0px" font-family="CMUBright-Bold" style="text-anchor:end;fill:rgb(0,0,0);" transform="rotate(51.9,704.0,602.0)" >2</text>
<path d="M865.089,773.286 A965.000,965.000 40.000 0,1 945.224,710.412 L853.241,579.496 A1125.000,1125.000 0.000 0,0 759.819,652.795 Z" style="stroke-width:2.0;stroke:rgb(115,115,115);stroke-linecap:round;fill:none;" />
<path d="M1005.052,671.597 A965.000,965.000 40.000 0,1 1095.126,624.042 L1027.997,478.806 A1125.000,1125.000 0.000 0,0 922.988,534.245 Z" style="stroke-width:2.0;stroke:rgb(115,115,115);stroke-linecap:round;fill:rgb(66,146,198);" />
<text x="877.1" y="474.3" font-size="195.0px" font-family="CMUBright-Bold" style="text-anchor:end;fill:rgb(0,0,0);" transform="rotate(62.2,877.1,474.3)" >22</text>
<path d="M1005.052,671.597 A965.000,965.000 40.000 0,1 1095.126,624.042 L1027.997,478.806 A1125.000,1125.000 0.000 0,0 922.988,534.245 Z" style="stroke-width:2.0;stroke:rgb(115,115,115);stroke-linecap:round;fill:none;" />
<path d="M1160.923,596.533 A965.000,965.000 40.000 0,1 1258.041,565.826 L1217.923,410.937 A1125.000,1125.000 0.000 0,0 1104.703,446.736 Z" style="stroke-width:2.0;stroke:rgb(115,115,115);stroke-linecap:round;fill:rgb(66,146,198);" />
<text x="1068.4" y="380.3" font-size="195.0px" font-family="CMUBright-Bold" style="text-anchor:end;fill:rgb(0,0,0);" transform="rotate(72.5,1068.4,380.3)" >23</text>
<path d="M1160.923,596.533 A965.000,965.000 40.000 0,1 1258.041,565.826 L1217.923,410.937 A1125.000,1125.000 0.000 0,0 1104.703,446.736 Z" style="stroke-width:2.0;stroke:rgb(115,115,115);stroke-linecap:round;fill:none;" />
<path d="M1327.693,550.508 A965.000,965.000 40.000 0,1 1428.732,537.635 L1416.916,378.072 A1125.000,1125.000 0.000 0,0 1299.123,393.079 Z" style="stroke-width:2.0;stroke:rgb(115,115,115);stroke-linecap:round;fill:rgb(66,146,198);" />
<text x="1275.3" y="321.2" font-size="195.0px" font-family="CMUBright-Bold" style="text-anchor:end;fill:rgb(0,0,0);" transform="rotate(82.7,1275.3,321.2)" >33</text>
<path d="M1327.693,550.508 A965.000,965.000 40.000 0,1 1428.732,537.635 L1416.916,378.072 A1125.000,1125.000 0.000 0,0 1299.123,393.079 Z" style="stroke-width:2.0;stroke:rgb(115,115,115);stroke-linecap:round;fill:none;" />
</g>
<g id="track_1">
<path d="M 1999.0,2269.1 L 1976.6,2233.9 1954.7,2198.0 1933.4,2161.4 1912.7,2124.0 1892.8,2086.0 1873.5,2047.4 1855.2,2008.2 1837.7,1968.4 1821.2,1928.2 1805.7,1887.4 1791.2,1846.1 1777.9,1804.5 1765.7,1762.4 1754.6,1720.0 1744.8,1677.3 1736.1,1634.4 1728.7,1591.1 1722.6,1547.7 1717.7,1504.1 1714.1,1460.4 1711.8,1416.6 1710.8,1372.8 1711.1,1329.0 1712.6,1285.2 1715.4,1241.4 1719.4,1197.8 1724.6,1154.3 1731.0,1111.0 1738.5,1068.0 1747.1,1025.2 1756.9,982.8 1767.6,940.7 1779.4,899.0 1792.0,857.8 1805.5,817.1 1819.9,776.9 1834.9,737.2 1850.7,698.2 1867.0,659.9  " style="stroke-opacity: 1.000000; stroke-width: 5.0; stroke: rgb(251,106,74); fill: none"  />
<path d="M 1999.0,2269.1 L 1978.9,2237.3 1959.5,2204.9 1941.0,2172.0 1923.6,2138.8 1907.3,2105.2 1892.3,2071.5 1878.7,2037.6 1866.6,2003.8 1856.1,1970.0 1847.3,1936.4 1840.3,1903.0 1835.1,1870.0 1831.8,1837.3 1830.5,1805.0 1831.2,1773.3 1833.9,1742.1 1838.6,1711.5 1845.5,1681.7 1854.3,1652.5 1865.2,1624.1 1878.2,1596.5 1893.2,1569.7 1910.1,1543.9 1929.0,1518.9 1949.7,1494.9 1972.3,1471.8 1996.6,1449.7 2022.6,1428.6 2050.2,1408.5 2079.2,1389.5 2109.6,1371.4 2141.3,1354.4 2174.0,1338.4 2207.8,1323.4 2242.3,1309.4 2277.6,1296.4 2313.3,1284.3 2349.4,1273.3 2385.6,1263.1  " style="stroke-opacity: 1.000000; stroke-width: 5.0; stroke: rgb(251,106,74); fill: none"  />
<path d="M 1548.4,584.5 L 1545.9,631.0 1543.3,677.5 1540.6,724.1 1537.8,770.7 1535.0,817.5 1532.0,864.2 1528.9,911.0 1525.7,957.8 1522.4,1004.7 1519.0,1051.6 1515.5,1098.6 1511.8,1145.5 1508.1,1192.5 1504.2,1239.5 1500.2,1286.5 1496.1,1333.6 1491.8,1380.6 1487.5,1427.6 1483.0,1474.6 1478.4,1521.6 1473.7,1568.6 1468.8,1615.6 1463.8,1662.5 1458.8,1709.4 1453.6,1756.3 1448.2,1803.2 1442.8,1850.0 1437.3,1896.8 1431.6,1943.5 1425.9,1990.2 1420.0,2036.8 1414.0,2083.4 1408.0,2129.9 1401.8,2176.4 1395.6,2222.7 1389.2,2269.0 1382.8,2315.3 1376.3,2361.4 1369.8,2407.5  " style="stroke-opacity: 1.000000; stroke-width: 5.0; stroke: rgb(251,106,74); fill: none"  />
<path d="M 1548.4,584.5 L 1545.9,630.0 1543.1,675.6 1540.0,721.5 1536.6,767.4 1533.0,813.5 1529.0,859.8 1524.8,906.1 1520.2,952.6 1515.2,999.1 1510.0,1045.7 1504.4,1092.3 1498.4,1139.0 1492.1,1185.7 1485.4,1232.4 1478.4,1279.1 1471.0,1325.8 1463.3,1372.5 1455.1,1419.2 1446.7,1465.8 1437.9,1512.3 1428.7,1558.8 1419.1,1605.2 1409.2,1651.4 1399.0,1697.6 1388.4,1743.7 1377.5,1789.6 1366.3,1835.4 1354.8,1881.0 1342.9,1926.4 1330.8,1971.7 1318.3,2016.8 1305.6,2061.7 1292.6,2106.4 1279.4,2150.9 1265.9,2195.1 1252.2,2239.1 1238.2,2282.9 1224.1,2326.4 1209.8,2369.6  " style="stroke-opacity: 1.000000; stroke-width: 5.0; stroke: rgb(251,106,74); fill: none"  />
<path d="M 1696.9,2395.4 L 1687.8,2352.7 1679.2,2309.7 1671.1,2266.2 1663.6,2222.3 1656.6,2178.0 1650.3,2133.4 1644.6,2088.5 1639.6,2043.3 1635.3,1997.9 1631.8,1952.3 1629.0,1906.5 1627.0,1860.5 1625.7,1814.4 1625.3,1768.2 1625.7,1721.9 1626.9,1675.6 1628.9,1629.2 1631.8,1582.9 1635.4,1536.6 1640.0,1490.4 1645.3,1444.3 1651.5,1398.3 1658.5,1352.4 1666.4,1306.7 1675.0,1261.3 1684.4,1216.0 1694.5,1171.0 1705.4,1126.3 1717.1,1081.9 1729.4,1037.8 1742.4,994.1 1756.1,950.7 1770.4,907.8 1785.3,865.3 1800.7,823.2 1816.6,781.6 1833.0,740.5 1849.8,699.9 1867.0,659.9  " style="stroke-opacity: 1.000000; stroke-width: 5.0; stroke: rgb(251,106,74); fill: none"  />
<path d="M 1696.9,2395.4 L 1689.0,2357.1 1681.9,2318.4 1675.9,2279.4 1671.0,2240.1 1667.2,2200.7 1664.6,2161.2 1663.4,2121.9 1663.6,2082.7 1665.2,2043.7 1668.3,2005.1 1672.9,1966.9 1679.1,1929.2 1686.8,1892.0 1696.2,1855.5 1707.2,1819.7 1719.9,1784.6 1734.2,1750.3 1750.1,1716.9 1767.7,1684.4 1786.9,1652.9 1807.7,1622.4 1830.0,1592.8 1853.8,1564.4 1879.2,1537.0 1905.9,1510.8 1934.0,1485.6 1963.4,1461.6 1994.1,1438.8 2025.9,1417.2 2058.8,1396.7 2092.6,1377.3 2127.4,1359.1 2162.9,1342.1 2199.1,1326.2 2235.8,1311.5 2273.0,1297.8 2310.4,1285.2 2348.0,1273.7 2385.6,1263.1  " style="stroke-opacity: 1.000000; stroke-width: 5.0; stroke: rgb(251,106,74); fill: none"  />
<path d="M 1711.1,607.9 L 1700.4,653.2 1689.8,698.5 1679.3,744.0 1668.8,789.5 1658.4,835.2 1648.1,880.9 1637.9,926.7 1627.8,972.5 1617.8,1018.4 1607.9,1064.4 1598.1,1110.4 1588.3,1156.5 1578.7,1202.7 1569.2,1248.9 1559.9,1295.1 1550.6,1341.4 1541.4,1387.7 1532.4,1434.0 1523.5,1480.4 1514.7,1526.8 1506.0,1573.2 1497.4,1619.7 1489.0,1666.1 1480.7,1712.6 1472.5,1759.1 1464.4,1805.5 1456.4,1852.0 1448.6,1898.4 1440.9,1944.9 1433.3,1991.3 1425.8,2037.7 1418.4,2084.0 1411.1,2130.4 1404.0,2176.7 1396.9,2222.9 1390.0,2269.1 1383.1,2315.3 1376.4,2361.4 1369.8,2407.5  " style="stroke-opacity: 1.000000; stroke-width: 5.0; stroke: rgb(251,106,74); fill: none"  />
<path d="M 1533.9,2416.1 L 1532.4,2371.6 1531.4,2326.8 1530.8,2281.7 1530.6,2236.3 1530.9,2190.7 1531.7,2144.9 1533.0,2099.0 1534.8,2052.8 1537.2,2006.6 1540.1,1960.2 1543.6,1913.7 1547.6,1867.2 1552.3,1820.6 1557.5,1774.1 1563.3,1727.5 1569.7,1680.9 1576.6,1634.4 1584.2,1587.9 1592.4,1541.5 1601.2,1495.2 1610.6,1449.1 1620.5,1403.0 1631.1,1357.2 1642.2,1311.5 1653.8,1266.0 1666.0,1220.8 1678.8,1175.7 1692.1,1131.0 1705.8,1086.5 1720.1,1042.2 1734.9,998.3 1750.0,954.7 1765.7,911.5 1781.7,868.6 1798.1,826.0 1814.9,783.9 1831.9,742.1 1849.3,700.8 1867.0,659.9  " style="stroke-opacity: 1.000000; stroke-width: 5.0; stroke: rgb(251,106,74); fill: none"  />
<path d="M 1533.9,2416.1 L 1532.5,2372.6 1531.8,2328.7 1531.6,2284.4 1532.0,2239.9 1533.0,2195.1 1534.8,2150.1 1537.2,2104.9 1540.4,2059.5 1544.3,2014.1 1548.9,1968.6 1554.4,1923.0 1560.6,1877.4 1567.6,1831.8 1575.4,1786.2 1584.0,1740.7 1593.5,1695.4 1603.7,1650.2 1614.8,1605.1 1626.7,1560.2 1639.4,1515.5 1653.0,1471.1 1667.3,1427.0 1682.3,1383.1 1698.2,1339.5 1714.8,1296.3 1732.1,1253.5 1750.1,1211.0 1768.9,1169.0 1788.3,1127.4 1808.3,1086.2 1828.9,1045.5 1850.1,1005.3 1871.8,965.6 1894.0,926.4 1916.7,887.8 1939.8,849.7 1963.2,812.2 1987.0,775.2 2011.1,738.9  " style="stroke-opacity: 1.000000; stroke-width: 5.0; stroke: rgb(251,106,74); fill: none"  />
<path d="M 1533.9,2416.1 L 1532.7,2374.5 1532.4,2332.4 1532.9,2290.0 1534.2,2247.4 1536.6,2204.5 1539.9,2161.5 1544.2,2118.4 1549.6,2075.3 1556.1,2032.3 1563.7,1989.3 1572.5,1946.5 1582.4,1903.9 1593.5,1861.5 1605.7,1819.5 1619.2,1777.8 1633.8,1736.4 1649.6,1695.5 1666.6,1655.1 1684.8,1615.2 1704.1,1575.9 1724.6,1537.1 1746.2,1498.9 1768.9,1461.4 1792.7,1424.6 1817.5,1388.5 1843.3,1353.1 1870.1,1318.4 1897.8,1284.6 1926.3,1251.5 1955.7,1219.2 1985.8,1187.7 2016.6,1157.1 2048.0,1127.4 2080.1,1098.5 2112.6,1070.4 2145.5,1043.3 2178.7,1017.0 2212.2,991.6 2245.9,967.0  " style="stroke-opacity: 1.000000; stroke-width: 5.0; stroke: rgb(251,106,74); fill: none"  />
<path d="M 1533.9,2416.1 L 1532.8,2375.4 1532.6,2334.3 1533.3,2292.8 1535.1,2251.2 1537.9,2209.4 1541.8,2167.6 1546.8,2125.8 1553.1,2084.1 1560.5,2042.6 1569.2,2001.3 1579.2,1960.3 1590.5,1919.7 1603.1,1879.5 1617.0,1839.8 1632.2,1800.6 1648.8,1761.9 1666.7,1724.0 1685.9,1686.7 1706.4,1650.1 1728.2,1614.2 1751.2,1579.2 1775.5,1545.0 1801.0,1511.7 1827.7,1479.2 1855.5,1447.6 1884.4,1417.0 1914.3,1387.4 1945.2,1358.7 1977.0,1331.0 2009.7,1304.2 2043.1,1278.5 2077.3,1253.8 2112.1,1230.1 2147.4,1207.4 2183.2,1185.7 2219.4,1165.0 2255.8,1145.3 2292.4,1126.6 2329.1,1108.8  " style="stroke-opacity: 1.000000; stroke-width: 5.0; stroke: rgb(251,106,74); fill: none"  />
<path d="M 1533.9,2416.1 L 1532.9,2376.3 1532.8,2336.0 1533.7,2295.6 1535.7,2255.0 1538.8,2214.4 1543.2,2173.8 1548.7,2133.4 1555.5,2093.3 1563.7,2053.4 1573.2,2014.0 1584.0,1975.0 1596.3,1936.6 1610.0,1898.8 1625.1,1861.7 1641.6,1825.4 1659.5,1789.8 1678.9,1755.1 1699.7,1721.3 1721.8,1688.5 1745.4,1656.6 1770.2,1625.8 1796.4,1596.0 1823.9,1567.3 1852.6,1539.7 1882.5,1513.2 1913.5,1487.9 1945.6,1463.7 1978.7,1440.7 2012.8,1418.9 2047.7,1398.2 2083.4,1378.7 2119.8,1360.4 2156.8,1343.2 2194.2,1327.2 2232.2,1312.2 2270.4,1298.4 2308.7,1285.6 2347.2,1273.9 2385.6,1263.1  " style="stroke-opacity: 1.000000; stroke-width: 5.0; stroke: rgb(251,106,74); fill: none"  />
<path d="M 1369.8,2407.5 L 1376.3,2361.4 1382.8,2315.3 1389.2,2269.0 1395.6,2222.7 1401.8,2176.4 1408.0,2129.9 1414.0,2083.4 1420.0,2036.8 1425.9,1990.2 1431.6,1943.5 1437.3,1896.8 1442.8,1850.0 1448.2,1803.2 1453.6,1756.3 1458.8,1709.4 1463.8,1662.5 1468.8,1615.6 1473.7,1568.6 1478.4,1521.6 1483.0,1474.6 1487.5,1427.6 1491.8,1380.6 1496.1,1333.6 1500.2,1286.5 1504.2,1239.5 1508.1,1192.5 1511.8,1145.5 1515.5,1098.6 1519.0,1051.6 1522.4,1004.7 1525.7,957.8 1528.9,911.0 1532.0,864.2 1535.0,817.5 1537.8,770.7 1540.6,724.1 1543.3,677.5 1545.9,631.0 1548.4,584.5  " style="stroke-opacity: 1.000000; stroke-width: 5.0; stroke: rgb(251,106,74); fill: none"  />
<path d="M 1369.8,2407.5 L 1376.4,2361.4 1383.1,2315.3 1390.0,2269.1 1396.9,2222.9 1404.0,2176.7 1411.1,2130.4 1418.4,2084.0 1425.8,2037.7 1433.3,1991.3 1440.9,1944.9 1448.6,1898.4 1456.4,1852.0 1464.4,1805.5 1472.5,1759.1 1480.7,1712.6 1489.0,1666.1 1497.4,1619.7 1506.0,1573.2 1514.7,1526.8 1523.5,1480.4 1532.4,1434.0 1541.4,1387.7 1550.6,1341.4 1559.9,1295.1 1569.2,1248.9 1578.7,1202.7 1588.3,1156.5 1598.1,1110.4 1607.9,1064.4 1617.8,1018.4 1627.8,972.5 1637.9,926.7 1648.1,880.9 1658.4,835.2 1668.8,789.5 1679.3,744.0 1689.8,698.5 1700.4,653.2 1711.1,607.9  " style="stroke-opacity: 1.000000; stroke-width: 5.0; stroke: rgb(251,106,74); fill: none"  />
<path d="M 1369.8,2407.5 L 1376.2,2364.4 1383.3,2321.0 1391.0,2277.4 1399.3,2233.7 1408.4,2189.8 1418.1,2145.8 1428.6,2101.8 1439.8,2057.8 1451.8,2013.7 1464.5,1969.8 1478.0,1925.9 1492.2,1882.1 1507.3,1838.5 1523.1,1795.1 1539.7,1751.9 1557.1,1708.9 1575.3,1666.3 1594.2,1623.9 1613.9,1581.9 1634.4,1540.2 1655.7,1498.9 1677.6,1458.0 1700.3,1417.5 1723.6,1377.5 1747.7,1338.0 1772.4,1298.9 1797.7,1260.4 1823.7,1222.3 1850.2,1184.8 1877.2,1147.9 1904.8,1111.5 1932.8,1075.8 1961.2,1040.6 1990.1,1006.0 2019.3,972.0 2048.8,938.7 2078.6,905.9 2108.6,873.9 2138.8,842.4  " style="stroke-opacity: 1.000000; stroke-width: 5.0; stroke: rgb(251,106,74); fill: none"  />
<path d="M 804.9,2097.7 L 838.5,2068.5 872.1,2038.8 905.6,2008.6 939.0,1977.9 972.2,1946.7 1005.3,1915.0 1038.1,1882.8 1070.7,1850.1 1103.1,1816.9 1135.1,1783.3 1166.8,1749.2 1198.2,1714.6 1229.2,1679.5 1259.9,1644.1 1290.1,1608.1 1320.0,1571.8 1349.3,1535.1 1378.3,1497.9 1406.7,1460.4 1434.7,1422.5 1462.2,1384.3 1489.2,1345.7 1515.7,1306.8 1541.7,1267.6 1567.1,1228.2 1592.0,1188.4 1616.4,1148.5 1640.2,1108.3 1663.5,1068.0 1686.3,1027.5 1708.5,986.8 1730.1,946.0 1751.2,905.2 1771.8,864.3 1791.9,823.3 1811.4,782.4 1830.4,741.5 1849.0,700.6 1867.0,659.9  " style="stroke-opacity: 1.000000; stroke-width: 5.0; stroke: rgb(251,106,74); fill: none"  />
<path d="M 1209.8,2369.6 L 1224.1,2326.4 1238.2,2282.9 1252.2,2239.1 1265.9,2195.1 1279.4,2150.9 1292.6,2106.4 1305.6,2061.7 1318.3,2016.8 1330.8,1971.7 1342.9,1926.4 1354.8,1881.0 1366.3,1835.4 1377.5,1789.6 1388.4,1743.7 1399.0,1697.6 1409.2,1651.4 1419.1,1605.2 1428.7,1558.8 1437.9,1512.3 1446.7,1465.8 1455.1,1419.2 1463.3,1372.5 1471.0,1325.8 1478.4,1279.1 1485.4,1232.4 1492.1,1185.7 1498.4,1139.0 1504.4,1092.3 1510.0,1045.7 1515.2,999.1 1520.2,952.6 1524.8,906.1 1529.0,859.8 1533.0,813.5 1536.6,767.4 1540.0,721.5 1543.1,675.6 1545.9,630.0 1548.4,584.5  " style="stroke-opacity: 1.000000; stroke-width: 5.0; stroke: rgb(251,106,74); fill: none"  />
<path d="M 1209.8,2369.6 L 1223.6,2329.3 1238.2,2288.9 1253.6,2248.4 1269.8,2207.8 1286.8,2167.4 1304.8,2127.0 1323.5,2086.8 1343.2,2046.9 1363.7,2007.2 1385.2,1967.8 1407.5,1928.8 1430.8,1890.2 1454.9,1852.1 1479.9,1814.5 1505.8,1777.4 1532.6,1740.9 1560.2,1704.9 1588.7,1669.7 1618.0,1635.0 1648.1,1601.1 1679.0,1567.9 1710.6,1535.5 1743.0,1503.8 1776.1,1472.9 1809.9,1442.8 1844.3,1413.5 1879.3,1385.0 1914.8,1357.4 1950.9,1330.6 1987.5,1304.6 2024.4,1279.5 2061.8,1255.2 2099.5,1231.8 2137.4,1209.3 2175.6,1187.5 2213.9,1166.6 2252.3,1146.5 2290.7,1127.3 2329.1,1108.8  " style="stroke-opacity: 1.000000; stroke-width: 5.0; stroke: rgb(251,106,74); fill: none"  />
<path d="M 1867.0,659.9 L 1850.7,698.2 1834.9,737.2 1819.9,776.9 1805.5,817.1 1792.0,857.8 1779.4,899.0 1767.6,940.7 1756.9,982.8 1747.1,1025.2 1738.5,1068.0 1731.0,1111.0 1724.6,1154.3 1719.4,1197.8 1715.4,1241.4 1712.6,1285.2 1711.1,1329.0 1710.8,1372.8 1711.8,1416.6 1714.1,1460.4 1717.7,1504.1 1722.6,1547.7 1728.7,1591.1 1736.1,1634.4 1744.8,1677.3 1754.6,1720.0 1765.7,1762.4 1777.9,1804.5 1791.2,1846.1 1805.7,1887.4 1821.2,1928.2 1837.7,1968.4 1855.2,2008.2 1873.5,2047.4 1892.8,2086.0 1912.7,2124.0 1933.4,2161.4 1954.7,2198.0 1976.6,2233.9 1999.0,2269.1  " style="stroke-opacity: 1.000000; stroke-width: 5.0; stroke: rgb(251,106,74); fill: none"  />
<path d="M 1867.0,659.9 L 1849.8,699.9 1833.0,740.5 1816.6,781.6 1800.7,823.2 1785.3,865.3 1770.4,907.8 1756.1,950.7 1742.4,994.1 1729.4,1037.8 1717.1,1081.9 1705.4,1126.3 1694.5,1171.0 1684.4,1216.0 1675.0,1261.3 1666.4,1306.7 1658.5,1352.4 1651.5,1398.3 1645.3,1444.3 1640.0,1490.4 1635.4,1536.6 1631.8,1582.9 1628.9,1629.2 1626.9,1675.6 1625.7,1721.9 1625.3,1768.2 1625.7,1814.4 1627.0,1860.5 1629.0,1906.5 1631.8,1952.3 1635.3,1997.9 1639.6,2043.3 1644.6,2088.5 1650.3,2133.4 1656.6,2178.0 1663.6,2222.3 1671.1,2266.2 1679.2,2309.7 1687.8,2352.7 1696.9,2395.4  " style="stroke-opacity: 1.000000; stroke-width: 5.0; stroke: rgb(251,106,74); fill: none"  />
<path d="M 1867.0,659.9 L 1849.3,700.8 1831.9,742.1 1814.9,783.9 1798.1,826.0 1781.7,868.6 1765.7,911.5 1750.0,954.7 1734.9,998.3 1720.1,1042.2 1705.8,1086.5 1692.1,1131.0 1678.8,1175.7 1666.0,1220.8 1653.8,1266.0 1642.2,1311.5 1631.1,1357.2 1620.5,1403.0 1610.6,1449.1 1601.2,1495.2 1592.4,1541.5 1584.2,1587.9 1576.6,1634.4 1569.7,1680.9 1563.3,1727.5 1557.5,1774.1 1552.3,1820.6 1547.6,1867.2 1543.6,1913.7 1540.1,1960.2 1537.2,2006.6 1534.8,2052.8 1533.0,2099.0 1531.7,2144.9 1530.9,2190.7 1530.6,2236.3 1530.8,2281.7 1531.4,2326.8 1532.4,2371.6 1533.9,2416.1  " style="stroke-opacity: 1.000000; stroke-width: 5.0; stroke: rgb(251,106,74); fill: none"  />
<path d="M 1867.0,659.9 L 1849.0,700.6 1830.4,741.5 1811.4,782.4 1791.9,823.3 1771.8,864.3 1751.2,905.2 1730.1,946.0 1708.5,986.8 1686.3,1027.5 1663.5,1068.0 1640.2,1108.3 1616.4,1148.5 1592.0,1188.4 1567.1,1228.2 1541.7,1267.6 1515.7,1306.8 1489.2,1345.7 1462.2,1384.3 1434.7,1422.5 1406.7,1460.4 1378.3,1497.9 1349.3,1535.1 1320.0,1571.8 1290.1,1608.1 1259.9,1644.1 1229.2,1679.5 1198.2,1714.6 1166.8,1749.2 1135.1,1783.3 1103.1,1816.9 1070.7,1850.1 1038.1,1882.8 1005.3,1915.0 972.2,1946.7 939.0,1977.9 905.6,2008.6 872.1,2038.8 838.5,2068.5 804.9,2097.7  " style="stroke-opacity: 1.000000; stroke-width: 5.0; stroke: rgb(251,106,74); fill: none"  />
<path d="M 2011.1,738.9 L 1987.0,775.2 1963.2,812.2 1939.8,849.7 1916.7,887.8 1894.0,926.4 1871.8,965.6 1850.1,1005.3 1828.9,1045.5 1808.3,1086.2 1788.3,1127.4 1768.9,1169.0 1750.1,1211.0 1732.1,1253.5 1714.8,1296.3 1698.2,1339.5 1682.3,1383.1 1667.3,1427.0 1653.0,1471.1 1639.4,1515.5 1626.7,1560.2 1614.8,1605.1 1603.7,1650.2 1593.5,1695.4 1584.0,1740.7 1575.4,1786.2 1567.6,1831.8 1560.6,1877.4 1554.4,1923.0 1548.9,1968.6 1544.3,2014.1 1540.4,2059.5 1537.2,2104.9 1534.8,2150.1 1533.0,2195.1 1532.0,2239.9 1531.6,2284.4 1531.8,2328.7 1532.5,2372.6 1533.9,2416.1  " style="stroke-opacity: 1.000000; stroke-width: 5.0; stroke: rgb(251,106,74); fill: none"  />
<path d="M 2138.8,842.4 L 2108.6,873.9 2078.6,905.9 2048.8,938.7 2019.3,972.0 1990.1,1006.0 1961.2,1040.6 1932.8,1075.8 1904.8,1111.5 1877.2,1147.9 1850.2,1184.8 1823.7,1222.3 1797.7,1260.4 1772.4,1298.9 1747.7,1338.0 1723.6,1377.5 1700.3,1417.5 1677.6,1458.0 1655.7,1498.9 1634.4,1540.2 1613.9,1581.9 1594.2,1623.9 1575.3,1666.3 1557.1,1708.9 1539.7,1751.9 1523.1,1795.1 1507.3,1838.5 1492.2,1882.1 1478.0,1925.9 1464.5,1969.8 1451.8,2013.7 1439.8,2057.8 1428.6,2101.8 1418.1,2145.8 1408.4,2189.8 1399.3,2233.7 1391.0,2277.4 1383.3,2321.0 1376.2,2364.4 1369.8,2407.5  " style="stroke-opacity: 1.000000; stroke-width: 5.0; stroke: rgb(251,106,74); fill: none"  />
<path d="M 639.2,1815.3 L 672.8,1803.3 706.3,1791.8 739.7,1780.9 772.7,1770.9 805.0,1761.7 836.6,1753.5 867.2,1746.4 896.7,1740.4 925.0,1735.6 951.9,1732.2 977.3,1730.0 1001.1,1729.3 1023.2,1730.1 1043.4,1732.3 1061.8,1736.0 1078.3,1741.3 1092.7,1748.1 1105.0,1756.4 1115.3,1766.3 1123.4,1777.7 1129.5,1790.6 1133.3,1805.0 1135.1,1820.8 1134.7,1838.0 1132.3,1856.6 1127.8,1876.5 1121.4,1897.7 1113.0,1919.9 1102.8,1943.3 1090.8,1967.6 1077.1,1992.8 1061.9,2018.8 1045.2,2045.5 1027.2,2072.7 1008.1,2100.3 987.9,2128.2 966.8,2156.3 945.0,2184.3 922.8,2212.2  " style="stroke-opacity: 1.000000; stroke-width: 5.0; stroke: rgb(251,106,74); fill: none"  />
<path d="M 1059.2,2303.8 L 1080.4,2265.8 1102.2,2227.6 1124.8,2189.6 1148.0,2151.5 1171.8,2113.6 1196.4,2075.9 1221.7,2038.4 1247.7,2001.0 1274.3,1964.0 1301.7,1927.3 1329.7,1891.0 1358.4,1855.0 1387.9,1819.5 1417.9,1784.4 1448.7,1749.8 1480.0,1715.7 1512.1,1682.1 1544.7,1649.1 1577.9,1616.7 1611.7,1584.9 1646.1,1553.6 1681.0,1523.1 1716.5,1493.2 1752.4,1463.9 1788.8,1435.3 1825.7,1407.4 1862.9,1380.3 1900.6,1353.8 1938.6,1328.0 1976.9,1302.9 2015.4,1278.5 2054.2,1254.9 2093.3,1231.9 2132.4,1209.7 2171.7,1188.1 2211.1,1167.3 2250.4,1147.1 2289.8,1127.6 2329.1,1108.8  " style="stroke-opacity: 1.000000; stroke-width: 5.0; stroke: rgb(251,106,74); fill: none"  />
<path d="M 922.8,2212.2 L 945.0,2184.3 966.8,2156.3 987.9,2128.2 1008.1,2100.3 1027.2,2072.7 1045.2,2045.5 1061.9,2018.8 1077.1,1992.8 1090.8,1967.6 1102.8,1943.3 1113.0,1919.9 1121.4,1897.7 1127.8,1876.5 1132.3,1856.6 1134.7,1838.0 1135.1,1820.8 1133.3,1805.0 1129.5,1790.6 1123.4,1777.7 1115.3,1766.3 1105.0,1756.4 1092.7,1748.1 1078.3,1741.3 1061.8,1736.0 1043.4,1732.3 1023.2,1730.1 1001.1,1729.3 977.3,1730.0 951.9,1732.2 925.0,1735.6 896.7,1740.4 867.2,1746.4 836.6,1753.5 805.0,1761.7 772.7,1770.9 739.7,1780.9 706.3,1791.8 672.8,1803.3 639.2,1815.3  " style="stroke-opacity: 1.000000; stroke-width: 5.0; stroke: rgb(251,106,74); fill: none"  />
<path d="M 2245.9,967.0 L 2212.2,991.6 2178.7,1017.0 2145.5,1043.3 2112.6,1070.4 2080.1,1098.5 2048.0,1127.4 2016.6,1157.1 1985.8,1187.7 1955.7,1219.2 1926.3,1251.5 1897.8,1284.6 1870.1,1318.4 1843.3,1353.1 1817.5,1388.5 1792.7,1424.6 1768.9,1461.4 1746.2,1498.9 1724.6,1537.1 1704.1,1575.9 1684.8,1615.2 1666.6,1655.1 1649.6,1695.5 1633.8,1736.4 1619.2,1777.8 1605.7,1819.5 1593.5,1861.5 1582.4,1903.9 1572.5,1946.5 1563.7,1989.3 1556.1,2032.3 1549.6,2075.3 1544.2,2118.4 1539.9,2161.5 1536.6,2204.5 1534.2,2247.4 1532.9,2290.0 1532.4,2332.4 1532.7,2374.5 1533.9,2416.1  " style="stroke-opacity: 1.000000; stroke-width: 5.0; stroke: rgb(251,106,74); fill: none"  />
<path d="M 2329.1,1108.8 L 2292.4,1126.6 2255.8,1145.3 2219.4,1165.0 2183.2,1185.7 2147.4,1207.4 2112.1,1230.1 2077.3,1253.8 2043.1,1278.5 2009.7,1304.2 1977.0,1331.0 1945.2,1358.7 1914.3,1387.4 1884.4,1417.0 1855.5,1447.6 1827.7,1479.2 1801.0,1511.7 1775.5,1545.0 1751.2,1579.2 1728.2,1614.2 1706.4,1650.1 1685.9,1686.7 1666.7,1724.0 1648.8,1761.9 1632.2,1800.6 1617.0,1839.8 1603.1,1879.5 1590.5,1919.7 1579.2,1960.3 1569.2,2001.3 1560.5,2042.6 1553.1,2084.1 1546.8,2125.8 1541.8,2167.6 1537.9,2209.4 1535.1,2251.2 1533.3,2292.8 1532.6,2334.3 1532.8,2375.4 1533.9,2416.1  " style="stroke-opacity: 1.000000; stroke-width: 5.0; stroke: rgb(251,106,74); fill: none"  />
<path d="M 2329.1,1108.8 L 2290.7,1127.3 2252.3,1146.5 2213.9,1166.6 2175.6,1187.5 2137.4,1209.3 2099.5,1231.8 2061.8,1255.2 2024.4,1279.5 1987.5,1304.6 1950.9,1330.6 1914.8,1357.4 1879.3,1385.0 1844.3,1413.5 1809.9,1442.8 1776.1,1472.9 1743.0,1503.8 1710.6,1535.5 1679.0,1567.9 1648.1,1601.1 1618.0,1635.0 1588.7,1669.7 1560.2,1704.9 1532.6,1740.9 1505.8,1777.4 1479.9,1814.5 1454.9,1852.1 1430.8,1890.2 1407.5,1928.8 1385.2,1967.8 1363.7,2007.2 1343.2,2046.9 1323.5,2086.8 1304.8,2127.0 1286.8,2167.4 1269.8,2207.8 1253.6,2248.4 1238.2,2288.9 1223.6,2329.3 1209.8,2369.6  " style="stroke-opacity: 1.000000; stroke-width: 5.0; stroke: rgb(251,106,74); fill: none"  />
<path d="M 2329.1,1108.8 L 2289.8,1127.6 2250.4,1147.1 2211.1,1167.3 2171.7,1188.1 2132.4,1209.7 2093.3,1231.9 2054.2,1254.9 2015.4,1278.5 1976.9,1302.9 1938.6,1328.0 1900.6,1353.8 1862.9,1380.3 1825.7,1407.4 1788.8,1435.3 1752.4,1463.9 1716.5,1493.2 1681.0,1523.1 1646.1,1553.6 1611.7,1584.9 1577.9,1616.7 1544.7,1649.1 1512.1,1682.1 1480.0,1715.7 1448.7,1749.8 1417.9,1784.4 1387.9,1819.5 1358.4,1855.0 1329.7,1891.0 1301.7,1927.3 1274.3,1964.0 1247.7,2001.0 1221.7,2038.4 1196.4,2075.9 1171.8,2113.6 1148.0,2151.5 1124.8,2189.6 1102.2,2227.6 1080.4,2265.8 1059.2,2303.8  " style="stroke-opacity: 1.000000; stroke-width: 5.0; stroke: rgb(251,106,74); fill: none"  />
<path d="M 2385.6,1263.1 L 2349.4,1273.3 2313.3,1284.3 2277.6,1296.4 2242.3,1309.4 2207.8,1323.4 2174.0,1338.4 2141.3,1354.4 2109.6,1371.4 2079.2,1389.5 2050.2,1408.5 2022.6,1428.6 1996.6,1449.7 1972.3,1471.8 1949.7,1494.9 1929.0,1518.9 1910.1,1543.9 1893.2,1569.7 1878.2,1596.5 1865.2,1624.1 1854.3,1652.5 1845.5,1681.7 1838.6,1711.5 1833.9,1742.1 1831.2,1773.3 1830.5,1805.0 1831.8,1837.3 1835.1,1870.0 1840.3,1903.0 1847.3,1936.4 1856.1,1970.0 1866.6,2003.8 1878.7,2037.6 1892.3,2071.5 1907.3,2105.2 1923.6,2138.8 1941.0,2172.0 1959.5,2204.9 1978.9,2237.3 1999.0,2269.1  " style="stroke-opacity: 1.000000; stroke-width: 5.0; stroke: rgb(251,106,74); fill: none"  />
<path d="M 2385.6,1263.1 L 2348.0,1273.7 2310.4,1285.2 2273.0,1297.8 2235.8,1311.5 2199.1,1326.2 2162.9,1342.1 2127.4,1359.1 2092.6,1377.3 2058.8,1396.7 2025.9,1417.2 1994.1,1438.8 1963.4,1461.6 1934.0,1485.6 1905.9,1510.8 1879.2,1537.0 1853.8,1564.4 1830.0,1592.8 1807.7,1622.4 1786.9,1652.9 1767.7,1684.4 1750.1,1716.9 1734.2,1750.3 1719.9,1784.6 1707.2,1819.7 1696.2,1855.5 1686.8,1892.0 1679.1,1929.2 1672.9,1966.9 1668.3,2005.1 1665.2,2043.7 1663.6,2082.7 1663.4,2121.9 1664.6,2161.2 1667.2,2200.7 1671.0,2240.1 1675.9,2279.4 1681.9,2318.4 1689.0,2357.1 1696.9,2395.4  " style="stroke-opacity: 1.000000; stroke-width: 5.0; stroke: rgb(251,106,74); fill: none"  />
<path d="M 2385.6,1263.1 L 2347.2,1273.9 2308.7,1285.6 2270.4,1298.4 2232.2,1312.2 2194.2,1327.2 2156.8,1343.2 2119.8,1360.4 2083.4,1378.7 2047.7,1398.2 2012.8,1418.9 1978.7,1440.7 1945.6,1463.7 1913.5,1487.9 1882.5,1513.2 1852.6,1539.7 1823.9,1567.3 1796.4,1596.0 1770.2,1625.8 1745.4,1656.6 1721.8,1688.5 1699.7,1721.3 1678.9,1755.1 1659.5,1789.8 1641.6,1825.4 1625.1,1861.7 1610.0,1898.8 1596.3,1936.6 1584.0,1975.0 1573.2,2014.0 1563.7,2053.4 1555.5,2093.3 1548.7,2133.4 1543.2,2173.8 1538.8,2214.4 1535.7,2255.0 1533.7,2295.6 1532.8,2336.0 1532.9,2376.3 1533.9,2416.1  " style="stroke-opacity: 1.000000; stroke-width: 5.0; stroke: rgb(251,106,74); fill: none"  />
</g>
<g id="track_0">
<path d="M 1999.0,2269.1 L 1979.5,2239.4 1960.0,2210.2 1940.3,2181.6 1920.7,2153.8 1901.3,2127.0 1882.1,2101.4 1863.3,2077.2 1844.9,2054.5 1826.9,2033.5 1809.6,2014.4 1792.9,1997.2 1776.9,1982.0 1761.7,1969.0 1747.3,1958.2 1733.7,1949.7 1721.1,1943.6 1709.4,1939.9 1698.7,1938.6 1689.0,1939.8 1680.3,1943.4 1672.6,1949.5 1666.0,1958.0 1660.4,1969.0 1655.9,1982.3 1652.4,1997.9 1650.0,2015.7 1648.6,2035.7 1648.1,2057.7 1648.6,2081.7 1650.1,2107.5 1652.4,2135.0 1655.6,2164.0 1659.6,2194.4 1664.4,2226.0 1669.8,2258.7 1675.8,2292.2 1682.4,2326.3 1689.5,2360.7 1696.9,2395.4  " style="stroke-opacity: 1.000000; stroke-width: 5.0; stroke: rgb(107,174,214); fill: none"  />
<path d="M 1999.0,2269.1 L 1979.3,2239.3 1959.4,2209.9 1939.2,2181.2 1918.9,2153.4 1898.6,2126.6 1878.3,2101.1 1858.0,2077.0 1838.0,2054.5 1818.3,2033.7 1798.8,2014.8 1779.8,1997.8 1761.2,1983.0 1743.1,1970.3 1725.6,1959.9 1708.6,1951.9 1692.3,1946.2 1676.7,1943.0 1661.9,1942.2 1647.7,1943.9 1634.4,1948.2 1621.8,1954.9 1610.0,1964.0 1599.1,1975.7 1589.1,1989.7 1579.8,2006.0 1571.5,2024.6 1563.9,2045.3 1557.3,2068.2 1551.4,2093.0 1546.4,2119.7 1542.2,2148.0 1538.8,2177.9 1536.1,2209.3 1534.1,2241.8 1532.8,2275.5 1532.2,2309.9 1532.2,2345.0 1532.8,2380.5 1533.9,2416.1  " style="stroke-opacity: 1.000000; stroke-width: 5.0; stroke: rgb(107,174,214); fill: none"  />
<path d="M 1999.0,2269.1 L 1979.1,2239.0 1958.8,2209.4 1938.0,2180.5 1917.0,2152.5 1895.7,2125.6 1874.2,2099.9 1852.6,2075.6 1831.0,2053.0 1809.4,2032.0 1787.8,2012.9 1766.4,1995.8 1745.2,1980.8 1724.3,1968.0 1703.6,1957.4 1683.3,1949.1 1663.4,1943.3 1643.9,1939.8 1624.8,1938.8 1606.3,1940.3 1588.3,1944.3 1570.8,1950.7 1553.9,1959.6 1537.7,1970.9 1522.0,1984.6 1507.1,2000.6 1492.7,2018.9 1479.1,2039.4 1466.2,2061.9 1453.9,2086.4 1442.4,2112.7 1431.6,2140.8 1421.4,2170.4 1412.0,2201.5 1403.3,2233.8 1395.3,2267.2 1387.9,2301.5 1381.2,2336.4 1375.2,2371.8 1369.8,2407.5  " style="stroke-opacity: 1.000000; stroke-width: 5.0; stroke: rgb(107,174,214); fill: none"  />
<path d="M 1999.0,2269.1 L 1978.5,2238.3 1957.3,2207.9 1935.3,2178.2 1912.8,2149.3 1889.6,2121.5 1865.9,2094.8 1841.7,2069.5 1817.1,2045.7 1792.0,2023.4 1766.6,2002.9 1740.8,1984.3 1714.8,1967.5 1688.5,1952.8 1662.1,1940.2 1635.5,1929.8 1608.8,1921.6 1582.1,1915.6 1555.3,1912.0 1528.5,1910.6 1501.9,1911.6 1475.3,1914.9 1448.9,1920.6 1422.6,1928.5 1396.6,1938.6 1370.9,1951.0 1345.4,1965.5 1320.3,1982.1 1295.6,2000.7 1271.3,2021.2 1247.4,2043.6 1224.1,2067.6 1201.3,2093.2 1179.0,2120.2 1157.3,2148.6 1136.3,2178.0 1115.9,2208.5 1096.3,2239.7 1077.4,2271.6 1059.2,2303.8  " style="stroke-opacity: 1.000000; stroke-width: 5.0; stroke: rgb(107,174,214); fill: none"  />
<path d="M 1999.0,2269.1 L 1978.1,2237.8 1956.4,2206.9 1933.9,2176.6 1910.7,2147.1 1886.7,2118.5 1862.0,2091.1 1836.7,2064.9 1810.7,2040.1 1784.1,2016.7 1757.0,1995.0 1729.4,1975.0 1701.3,1956.8 1672.8,1940.5 1643.8,1926.1 1614.6,1913.8 1585.0,1903.6 1555.2,1895.5 1525.1,1889.5 1494.9,1885.7 1464.5,1884.1 1434.0,1884.7 1403.5,1887.4 1372.9,1892.4 1342.4,1899.4 1312.0,1908.6 1281.8,1919.8 1251.7,1933.0 1221.8,1948.2 1192.3,1965.2 1163.0,1983.9 1134.1,2004.3 1105.7,2026.3 1077.7,2049.7 1050.3,2074.3 1023.4,2100.2 997.2,2127.1 971.6,2154.8 946.8,2183.3 922.8,2212.2  " style="stroke-opacity: 1.000000; stroke-width: 5.0; stroke: rgb(107,174,214); fill: none"  />
<path d="M 1548.4,584.5 L 1546.8,621.5 1546.2,658.5 1546.4,695.4 1547.7,732.0 1550.1,768.2 1553.6,803.7 1558.3,838.4 1564.2,872.2 1571.4,904.9 1579.9,936.4 1589.8,966.7 1601.0,995.5 1613.6,1022.8 1627.6,1048.6 1643.0,1072.6 1659.8,1095.0 1677.9,1115.5 1697.4,1134.2 1718.3,1151.0 1740.4,1165.9 1763.9,1178.8 1788.6,1189.8 1814.4,1198.8 1841.5,1205.9 1869.6,1211.0 1898.7,1214.3 1928.8,1215.6 1959.7,1215.1 1991.4,1212.7 2023.8,1208.7 2056.8,1203.0 2090.4,1195.7 2124.3,1186.9 2158.5,1176.7 2192.8,1165.2 2227.2,1152.6 2261.4,1138.8 2295.5,1124.2 2329.1,1108.8  " style="stroke-opacity: 1.000000; stroke-width: 5.0; stroke: rgb(107,174,214); fill: none"  />
<path d="M 1853.6,2345.8 L 1839.9,2313.3 1826.2,2281.1 1812.5,2249.5 1798.9,2218.6 1785.4,2188.7 1772.2,2160.0 1759.4,2132.7 1746.9,2106.9 1734.8,2082.9 1723.3,2060.7 1712.3,2040.5 1701.8,2022.4 1692.1,2006.5 1683.0,1992.9 1674.6,1981.7 1666.9,1973.0 1660.0,1966.7 1653.9,1963.0 1648.5,1961.9 1644.0,1963.3 1640.3,1967.3 1637.4,1973.9 1635.4,1982.9 1634.1,1994.5 1633.7,2008.5 1634.0,2024.9 1635.2,2043.5 1637.1,2064.3 1639.7,2087.1 1643.0,2111.9 1646.9,2138.5 1651.5,2166.8 1656.7,2196.5 1662.4,2227.6 1668.6,2259.8 1675.2,2292.9 1682.2,2326.6 1689.4,2360.9 1696.9,2395.4  " style="stroke-opacity: 1.000000; stroke-width: 5.0; stroke: rgb(107,174,214); fill: none"  />
<path d="M 1696.9,2395.4 L 1689.5,2360.7 1682.4,2326.3 1675.8,2292.2 1669.8,2258.7 1664.4,2226.0 1659.6,2194.4 1655.6,2164.0 1652.4,2135.0 1650.1,2107.5 1648.6,2081.7 1648.1,2057.7 1648.6,2035.7 1650.0,2015.7 1652.4,1997.9 1655.9,1982.3 1660.4,1969.0 1666.0,1958.0 1672.6,1949.5 1680.3,1943.4 1689.0,1939.8 1698.7,1938.6 1709.4,1939.9 1721.1,1943.6 1733.7,1949.7 1747.3,1958.2 1761.7,1969.0 1776.9,1982.0 1792.9,1997.2 1809.6,2014.4 1826.9,2033.5 1844.9,2054.5 1863.3,2077.2 1882.1,2101.4 1901.3,2127.0 1920.7,2153.8 1940.3,2181.6 1960.0,2210.2 1979.5,2239.4 1999.0,2269.1  " style="stroke-opacity: 1.000000; stroke-width: 5.0; stroke: rgb(107,174,214); fill: none"  />
<path d="M 1696.9,2395.4 L 1689.4,2360.9 1682.2,2326.6 1675.2,2292.9 1668.6,2259.8 1662.4,2227.6 1656.7,2196.5 1651.5,2166.8 1646.9,2138.5 1643.0,2111.9 1639.7,2087.1 1637.1,2064.3 1635.2,2043.5 1634.0,2024.9 1633.7,2008.5 1634.1,1994.5 1635.4,1982.9 1637.4,1973.9 1640.3,1967.3 1644.0,1963.3 1648.5,1961.9 1653.9,1963.0 1660.0,1966.7 1666.9,1973.0 1674.6,1981.7 1683.0,1992.9 1692.1,2006.5 1701.8,2022.4 1712.3,2040.5 1723.3,2060.7 1734.8,2082.9 1746.9,2106.9 1759.4,2132.7 1772.2,2160.0 1785.4,2188.7 1798.9,2218.6 1812.5,2249.5 1826.2,2281.1 1839.9,2313.3 1853.6,2345.8  " style="stroke-opacity: 1.000000; stroke-width: 5.0; stroke: rgb(107,174,214); fill: none"  />
<path d="M 1696.9,2395.4 L 1689.3,2360.9 1681.5,2326.8 1673.6,2293.2 1665.7,2260.4 1657.9,2228.6 1650.0,2198.0 1642.2,2168.9 1634.5,2141.3 1627.0,2115.5 1619.6,2091.6 1612.3,2069.7 1605.3,2050.0 1598.5,2032.7 1592.0,2017.7 1585.7,2005.2 1579.7,1995.2 1574.1,1987.8 1568.7,1983.1 1563.7,1981.0 1559.0,1981.6 1554.6,1984.9 1550.6,1990.8 1547.0,1999.4 1543.7,2010.5 1540.7,2024.2 1538.2,2040.4 1536.0,2058.9 1534.1,2079.7 1532.6,2102.6 1531.4,2127.6 1530.6,2154.5 1530.0,2183.1 1529.8,2213.3 1529.9,2244.9 1530.2,2277.7 1530.8,2311.4 1531.6,2345.9 1532.7,2380.9 1533.9,2416.1  " style="stroke-opacity: 1.000000; stroke-width: 5.0; stroke: rgb(107,174,214); fill: none"  />
<path d="M 1711.1,607.9 L 1703.1,642.6 1695.6,677.3 1688.8,711.8 1682.8,745.7 1677.5,778.9 1673.1,811.2 1669.6,842.5 1667.2,872.5 1665.8,901.1 1665.6,928.3 1666.5,953.7 1668.6,977.4 1671.9,999.3 1676.5,1019.1 1682.4,1036.9 1689.6,1052.6 1698.0,1066.1 1707.8,1077.4 1718.8,1086.4 1731.1,1093.2 1744.6,1097.6 1759.4,1099.8 1775.3,1099.6 1792.4,1097.2 1810.6,1092.6 1829.8,1085.8 1850.0,1076.9 1871.1,1066.0 1893.1,1053.0 1915.8,1038.2 1939.2,1021.7 1963.2,1003.5 1987.7,983.8 2012.6,962.7 2037.8,940.4 2063.1,917.0 2088.5,892.8 2113.7,867.8 2138.8,842.4  " style="stroke-opacity: 1.000000; stroke-width: 5.0; stroke: rgb(107,174,214); fill: none"  />
<path d="M 1711.1,607.9 L 1702.8,644.6 1695.5,681.6 1689.2,718.8 1683.9,756.0 1679.9,793.0 1677.1,829.9 1675.7,866.3 1675.7,902.2 1677.2,937.6 1680.2,972.2 1684.8,1006.0 1691.1,1038.8 1699.0,1070.7 1708.6,1101.5 1719.9,1131.2 1733.0,1159.7 1747.7,1186.8 1764.2,1212.7 1782.3,1237.2 1802.2,1260.3 1823.7,1281.9 1846.8,1302.0 1871.4,1320.7 1897.6,1337.8 1925.2,1353.5 1954.3,1367.6 1984.6,1380.2 2016.2,1391.3 2048.9,1401.0 2082.6,1409.2 2117.3,1415.9 2152.9,1421.3 2189.1,1425.4 2225.9,1428.2 2263.2,1429.7 2300.7,1430.1 2338.5,1429.4 2376.2,1427.7 2413.7,1425.1  " style="stroke-opacity: 1.000000; stroke-width: 5.0; stroke: rgb(107,174,214); fill: none"  />
<path d="M 1533.9,2416.1 L 1532.8,2380.5 1532.2,2345.0 1532.2,2309.9 1532.8,2275.5 1534.1,2241.8 1536.1,2209.3 1538.8,2177.9 1542.2,2148.0 1546.4,2119.7 1551.4,2093.0 1557.3,2068.2 1563.9,2045.3 1571.5,2024.6 1579.8,2006.0 1589.1,1989.7 1599.1,1975.7 1610.0,1964.0 1621.8,1954.9 1634.4,1948.2 1647.7,1943.9 1661.9,1942.2 1676.7,1943.0 1692.3,1946.2 1708.6,1951.9 1725.6,1959.9 1743.1,1970.3 1761.2,1983.0 1779.8,1997.8 1798.8,2014.8 1818.3,2033.7 1838.0,2054.5 1858.0,2077.0 1878.3,2101.1 1898.6,2126.6 1918.9,2153.4 1939.2,2181.2 1959.4,2209.9 1979.3,2239.3 1999.0,2269.1  " style="stroke-opacity: 1.000000; stroke-width: 5.0; stroke: rgb(107,174,214); fill: none"  />
<path d="M 1533.9,2416.1 L 1532.7,2380.9 1531.6,2345.9 1530.8,2311.4 1530.2,2277.7 1529.9,2244.9 1529.8,2213.3 1530.0,2183.1 1530.6,2154.5 1531.4,2127.6 1532.6,2102.6 1534.1,2079.7 1536.0,2058.9 1538.2,2040.4 1540.7,2024.2 1543.7,2010.5 1547.0,1999.4 1550.6,1990.8 1554.6,1984.9 1559.0,1981.6 1563.7,1981.0 1568.7,1983.1 1574.1,1987.8 1579.7,1995.2 1585.7,2005.2 1592.0,2017.7 1598.5,2032.7 1605.3,2050.0 1612.3,2069.7 1619.6,2091.6 1627.0,2115.5 1634.5,2141.3 1642.2,2168.9 1650.0,2198.0 1657.9,2228.6 1665.7,2260.4 1673.6,2293.2 1681.5,2326.8 1689.3,2360.9 1696.9,2395.4  " style="stroke-opacity: 1.000000; stroke-width: 5.0; stroke: rgb(107,174,214); fill: none"  />
<path d="M 1533.9,2416.1 L 1532.5,2380.9 1530.9,2345.9 1529.2,2311.5 1527.3,2277.8 1525.2,2245.1 1523.0,2213.6 1520.5,2183.5 1517.9,2155.0 1515.0,2128.2 1512.0,2103.4 1508.8,2080.6 1505.4,2060.0 1501.8,2041.7 1498.1,2025.8 1494.2,2012.3 1490.0,2001.5 1485.8,1993.2 1481.3,1987.6 1476.8,1984.6 1472.0,1984.4 1467.2,1986.8 1462.2,1991.9 1457.0,1999.7 1451.8,2010.1 1446.5,2023.1 1441.1,2038.5 1435.6,2056.3 1430.0,2076.4 1424.5,2098.8 1418.8,2123.2 1413.2,2149.5 1407.6,2177.5 1402.0,2207.2 1396.4,2238.3 1390.9,2270.6 1385.4,2303.9 1380.1,2337.9 1374.8,2372.6 1369.8,2407.5  " style="stroke-opacity: 1.000000; stroke-width: 5.0; stroke: rgb(107,174,214); fill: none"  />
<path d="M 1533.9,2416.1 L 1532.4,2380.7 1530.6,2345.6 1528.4,2310.9 1525.9,2277.0 1522.9,2244.1 1519.6,2212.3 1515.8,2181.8 1511.6,2152.9 1507.0,2125.7 1501.9,2100.4 1496.4,2077.0 1490.5,2055.8 1484.1,2036.8 1477.3,2020.2 1470.0,2005.9 1462.3,1994.2 1454.2,1985.0 1445.6,1978.4 1436.7,1974.4 1427.3,1973.1 1417.6,1974.4 1407.6,1978.3 1397.2,1984.9 1386.5,1994.0 1375.5,2005.6 1364.3,2019.6 1352.8,2036.0 1341.1,2054.7 1329.3,2075.6 1317.3,2098.5 1305.2,2123.3 1293.0,2149.8 1280.9,2178.0 1268.7,2207.6 1256.6,2238.4 1244.6,2270.2 1232.8,2302.9 1221.2,2336.1 1209.8,2369.6  " style="stroke-opacity: 1.000000; stroke-width: 5.0; stroke: rgb(107,174,214); fill: none"  />
<path d="M 1533.9,2416.1 L 1532.3,2380.5 1530.3,2345.1 1527.7,2310.1 1524.5,2275.8 1520.8,2242.3 1516.4,2210.0 1511.4,2179.0 1505.8,2149.4 1499.5,2121.4 1492.5,2095.2 1484.8,2070.9 1476.5,2048.6 1467.5,2028.4 1457.7,2010.5 1447.3,1994.9 1436.3,1981.7 1424.5,1970.9 1412.1,1962.6 1399.1,1956.9 1385.5,1953.6 1371.2,1952.9 1356.5,1954.8 1341.1,1959.2 1325.3,1966.0 1309.0,1975.3 1292.3,1987.0 1275.2,2000.9 1257.7,2017.1 1240.0,2035.4 1222.0,2055.7 1203.8,2077.9 1185.5,2101.9 1167.2,2127.4 1148.8,2154.3 1130.5,2182.5 1112.3,2211.8 1094.3,2241.9 1076.6,2272.7 1059.2,2303.8  " style="stroke-opacity: 1.000000; stroke-width: 5.0; stroke: rgb(107,174,214); fill: none"  />
<path d="M 1533.9,2416.1 L 1532.2,2380.1 1530.0,2344.3 1527.0,2308.9 1523.3,2274.0 1518.8,2239.9 1513.5,2206.9 1507.4,2175.0 1500.5,2144.4 1492.7,2115.4 1484.0,2088.0 1474.4,2062.3 1463.9,2038.6 1452.5,2016.8 1440.2,1997.1 1427.0,1979.6 1412.9,1964.3 1397.9,1951.4 1382.1,1940.7 1365.4,1932.5 1347.9,1926.7 1329.6,1923.2 1310.6,1922.2 1290.8,1923.6 1270.4,1927.3 1249.3,1933.4 1227.6,1941.7 1205.4,1952.3 1182.8,1965.0 1159.7,1979.7 1136.3,1996.4 1112.6,2015.0 1088.7,2035.3 1064.7,2057.1 1040.6,2080.4 1016.6,2104.9 992.7,2130.6 969.0,2157.1 945.7,2184.4 922.8,2212.2  " style="stroke-opacity: 1.000000; stroke-width: 5.0; stroke: rgb(107,174,214); fill: none"  />
<path d="M 1369.8,2407.5 L 1375.2,2371.8 1381.2,2336.4 1387.9,2301.5 1395.3,2267.2 1403.3,2233.8 1412.0,2201.5 1421.4,2170.4 1431.6,2140.8 1442.4,2112.7 1453.9,2086.4 1466.2,2061.9 1479.1,2039.4 1492.7,2018.9 1507.1,2000.6 1522.0,1984.6 1537.7,1970.9 1553.9,1959.6 1570.8,1950.7 1588.3,1944.3 1606.3,1940.3 1624.8,1938.8 1643.9,1939.8 1663.4,1943.3 1683.3,1949.1 1703.6,1957.4 1724.3,1968.0 1745.2,1980.8 1766.4,1995.8 1787.8,2012.9 1809.4,2032.0 1831.0,2053.0 1852.6,2075.6 1874.2,2099.9 1895.7,2125.6 1917.0,2152.5 1938.0,2180.5 1958.8,2209.4 1979.1,2239.0 1999.0,2269.1  " style="stroke-opacity: 1.000000; stroke-width: 5.0; stroke: rgb(107,174,214); fill: none"  />
<path d="M 1369.8,2407.5 L 1374.8,2372.6 1380.1,2337.9 1385.4,2303.9 1390.9,2270.6 1396.4,2238.3 1402.0,2207.2 1407.6,2177.5 1413.2,2149.5 1418.8,2123.2 1424.5,2098.8 1430.0,2076.4 1435.6,2056.3 1441.1,2038.5 1446.5,2023.1 1451.8,2010.1 1457.0,1999.7 1462.2,1991.9 1467.2,1986.8 1472.0,1984.4 1476.8,1984.6 1481.3,1987.6 1485.8,1993.2 1490.0,2001.5 1494.2,2012.3 1498.1,2025.8 1501.8,2041.7 1505.4,2060.0 1508.8,2080.6 1512.0,2103.4 1515.0,2128.2 1517.9,2155.0 1520.5,2183.5 1523.0,2213.6 1525.2,2245.1 1527.3,2277.8 1529.2,2311.5 1530.9,2345.9 1532.5,2380.9 1533.9,2416.1  " style="stroke-opacity: 1.000000; stroke-width: 5.0; stroke: rgb(107,174,214); fill: none"  />
<path d="M 1369.8,2407.5 L 1374.7,2372.5 1379.4,2337.8 1383.8,2303.6 1388.0,2270.2 1391.8,2237.6 1395.2,2206.2 1398.1,2176.2 1400.6,2147.7 1402.6,2120.8 1404.1,2095.8 1405.0,2072.9 1405.3,2052.0 1405.1,2033.3 1404.2,2017.0 1402.8,2003.1 1400.7,1991.6 1397.9,1982.7 1394.6,1976.4 1390.6,1972.7 1386.0,1971.6 1380.8,1973.1 1374.9,1977.3 1368.5,1984.0 1361.5,1993.3 1354.0,2005.1 1345.9,2019.3 1337.3,2035.9 1328.2,2054.7 1318.8,2075.7 1308.9,2098.6 1298.6,2123.5 1288.1,2150.1 1277.3,2178.3 1266.2,2207.9 1255.0,2238.7 1243.7,2270.5 1232.4,2303.1 1221.1,2336.2 1209.8,2369.6  " style="stroke-opacity: 1.000000; stroke-width: 5.0; stroke: rgb(107,174,214); fill: none"  />
<path d="M 1369.8,2407.5 L 1374.6,2372.1 1378.9,2336.9 1382.6,2302.0 1385.6,2267.7 1387.9,2234.1 1389.4,2201.5 1390.0,2170.1 1389.7,2140.0 1388.5,2111.3 1386.4,2084.3 1383.2,2059.0 1378.9,2035.6 1373.6,2014.1 1367.3,1994.8 1359.8,1977.5 1351.3,1962.6 1341.7,1949.9 1330.9,1939.5 1319.2,1931.5 1306.3,1925.9 1292.4,1922.7 1277.6,1921.9 1261.7,1923.4 1244.9,1927.3 1227.2,1933.6 1208.7,1942.1 1189.4,1952.8 1169.3,1965.6 1148.6,1980.4 1127.3,1997.2 1105.4,2015.8 1083.1,2036.0 1060.5,2057.9 1037.6,2081.1 1014.5,2105.6 991.4,2131.1 968.3,2157.5 945.4,2184.6 922.8,2212.2  " style="stroke-opacity: 1.000000; stroke-width: 5.0; stroke: rgb(107,174,214); fill: none"  />
<path d="M 804.9,2097.7 L 831.6,2074.6 857.9,2051.6 883.8,2028.8 908.9,2006.3 933.2,1984.3 956.4,1962.9 978.4,1942.2 999.0,1922.3 1018.2,1903.4 1035.7,1885.6 1051.5,1868.9 1065.5,1853.4 1077.6,1839.2 1087.7,1826.3 1095.8,1814.9 1101.7,1804.9 1105.5,1796.4 1107.2,1789.4 1106.6,1784.0 1103.9,1780.1 1098.9,1777.8 1091.8,1777.1 1082.5,1778.0 1071.1,1780.4 1057.7,1784.3 1042.3,1789.7 1024.9,1796.5 1005.7,1804.7 984.8,1814.3 962.2,1825.1 938.1,1837.1 912.7,1850.2 886.0,1864.3 858.2,1879.3 829.5,1895.1 800.1,1911.6 770.1,1928.7 739.8,1946.2 709.3,1964.0  " style="stroke-opacity: 1.000000; stroke-width: 5.0; stroke: rgb(107,174,214); fill: none"  />
<path d="M 804.9,2097.7 L 831.6,2074.5 858.0,2051.1 883.7,2027.8 908.6,2004.7 932.6,1981.8 955.3,1959.4 976.8,1937.5 996.8,1916.2 1015.2,1895.6 1031.8,1875.8 1046.6,1857.0 1059.5,1839.1 1070.4,1822.3 1079.1,1806.5 1085.7,1792.0 1090.1,1778.6 1092.2,1766.6 1092.0,1755.8 1089.6,1746.3 1084.8,1738.2 1077.7,1731.4 1068.4,1726.0 1056.8,1721.9 1043.0,1719.2 1027.1,1717.9 1009.1,1717.9 989.1,1719.1 967.2,1721.6 943.5,1725.4 918.2,1730.3 891.2,1736.3 862.9,1743.4 833.3,1751.4 802.6,1760.3 771.0,1770.1 738.6,1780.6 705.7,1791.7 672.5,1803.3 639.2,1815.3  " style="stroke-opacity: 1.000000; stroke-width: 5.0; stroke: rgb(107,174,214); fill: none"  />
<path d="M 804.9,2097.7 L 831.8,2074.2 858.2,2050.5 883.9,2026.7 908.8,2002.8 932.6,1979.1 955.1,1955.5 976.3,1932.3 995.9,1909.4 1013.9,1887.0 1030.0,1865.2 1044.2,1844.1 1056.5,1823.7 1066.6,1804.0 1074.5,1785.3 1080.2,1767.4 1083.7,1750.5 1084.8,1734.6 1083.5,1719.7 1079.9,1706.0 1073.9,1693.3 1065.6,1681.7 1054.9,1671.3 1042.0,1662.1 1026.7,1654.0 1009.3,1647.0 989.8,1641.2 968.2,1636.6 944.6,1633.0 919.3,1630.6 892.2,1629.2 863.5,1628.8 833.4,1629.4 802.0,1631.0 769.4,1633.4 736.0,1636.6 701.8,1640.7 667.0,1645.4 631.9,1650.7 596.7,1656.5  " style="stroke-opacity: 1.000000; stroke-width: 5.0; stroke: rgb(107,174,214); fill: none"  />
<path d="M 804.9,2097.7 L 832.0,2074.0 858.6,2049.8 884.4,2025.4 909.4,2000.8 933.2,1976.0 955.8,1951.3 976.9,1926.7 996.5,1902.2 1014.3,1878.0 1030.3,1854.1 1044.4,1830.6 1056.4,1807.6 1066.4,1785.1 1074.1,1763.2 1079.5,1742.0 1082.7,1721.4 1083.5,1701.6 1081.9,1682.6 1077.9,1664.4 1071.6,1647.1 1062.9,1630.7 1051.8,1615.1 1038.4,1600.5 1022.7,1586.9 1004.8,1574.2 984.8,1562.5 962.7,1551.7 938.7,1541.9 912.7,1533.1 885.1,1525.2 855.8,1518.2 825.1,1512.2 793.0,1507.0 759.8,1502.7 725.7,1499.2 690.7,1496.5 655.2,1494.6 619.3,1493.3 583.3,1492.7  " style="stroke-opacity: 1.000000; stroke-width: 5.0; stroke: rgb(107,174,214); fill: none"  />
<path d="M 1209.8,2369.6 L 1221.2,2336.1 1232.8,2302.9 1244.6,2270.2 1256.6,2238.4 1268.7,2207.6 1280.9,2178.0 1293.0,2149.8 1305.2,2123.3 1317.3,2098.5 1329.3,2075.6 1341.1,2054.7 1352.8,2036.0 1364.3,2019.6 1375.5,2005.6 1386.5,1994.0 1397.2,1984.9 1407.6,1978.3 1417.6,1974.4 1427.3,1973.1 1436.7,1974.4 1445.6,1978.4 1454.2,1985.0 1462.3,1994.2 1470.0,2005.9 1477.3,2020.2 1484.1,2036.8 1490.5,2055.8 1496.4,2077.0 1501.9,2100.4 1507.0,2125.7 1511.6,2152.9 1515.8,2181.8 1519.6,2212.3 1522.9,2244.1 1525.9,2277.0 1528.4,2310.9 1530.6,2345.6 1532.4,2380.7 1533.9,2416.1  " style="stroke-opacity: 1.000000; stroke-width: 5.0; stroke: rgb(107,174,214); fill: none"  />
<path d="M 1209.8,2369.6 L 1221.1,2336.2 1232.4,2303.1 1243.7,2270.5 1255.0,2238.7 1266.2,2207.9 1277.3,2178.3 1288.1,2150.1 1298.6,2123.5 1308.9,2098.6 1318.8,2075.7 1328.2,2054.7 1337.3,2035.9 1345.9,2019.3 1354.0,2005.1 1361.5,1993.3 1368.5,1984.0 1374.9,1977.3 1380.8,1973.1 1386.0,1971.6 1390.6,1972.7 1394.6,1976.4 1397.9,1982.7 1400.7,1991.6 1402.8,2003.1 1404.2,2017.0 1405.1,2033.3 1405.3,2052.0 1405.0,2072.9 1404.1,2095.8 1402.6,2120.8 1400.6,2147.7 1398.1,2176.2 1395.2,2206.2 1391.8,2237.6 1388.0,2270.2 1383.8,2303.6 1379.4,2337.8 1374.7,2372.5 1369.8,2407.5  " style="stroke-opacity: 1.000000; stroke-width: 5.0; stroke: rgb(107,174,214); fill: none"  />
<path d="M 1209.8,2369.6 L 1220.9,2336.0 1231.5,2302.4 1241.7,2269.2 1251.2,2236.6 1260.0,2204.7 1268.1,2173.7 1275.2,2143.9 1281.5,2115.4 1286.7,2088.3 1290.9,2062.8 1293.9,2039.0 1295.8,2017.0 1296.5,1997.0 1295.9,1979.0 1294.1,1963.1 1291.0,1949.4 1286.7,1938.0 1281.0,1928.8 1274.0,1921.9 1265.7,1917.4 1256.2,1915.2 1245.4,1915.4 1233.4,1917.8 1220.2,1922.6 1205.8,1929.6 1190.3,1938.8 1173.8,1950.1 1156.3,1963.5 1137.9,1978.9 1118.6,1996.1 1098.6,2015.1 1077.9,2035.7 1056.6,2057.8 1034.8,2081.2 1012.7,2105.8 990.3,2131.4 967.7,2157.8 945.2,2184.8 922.8,2212.2  " style="stroke-opacity: 1.000000; stroke-width: 5.0; stroke: rgb(107,174,214); fill: none"  />
<path d="M 709.3,1964.0 L 739.8,1946.2 770.1,1928.7 800.1,1911.6 829.5,1895.1 858.2,1879.3 886.0,1864.3 912.7,1850.2 938.1,1837.1 962.2,1825.1 984.8,1814.3 1005.7,1804.7 1024.9,1796.5 1042.3,1789.7 1057.7,1784.3 1071.1,1780.4 1082.5,1778.0 1091.8,1777.1 1098.9,1777.8 1103.9,1780.1 1106.6,1784.0 1107.2,1789.4 1105.5,1796.4 1101.7,1804.9 1095.8,1814.9 1087.7,1826.3 1077.6,1839.2 1065.5,1853.4 1051.5,1868.9 1035.7,1885.6 1018.2,1903.4 999.0,1922.3 978.4,1942.2 956.4,1962.9 933.2,1984.3 908.9,2006.3 883.8,2028.8 857.9,2051.6 831.6,2074.6 804.9,2097.7  " style="stroke-opacity: 1.000000; stroke-width: 5.0; stroke: rgb(107,174,214); fill: none"  />
<path d="M 709.3,1964.0 L 739.7,1946.0 769.8,1928.1 799.3,1910.2 828.0,1892.6 855.8,1875.3 882.5,1858.4 907.8,1841.9 931.7,1826.1 953.9,1810.9 974.3,1796.5 992.9,1782.9 1009.4,1770.1 1023.9,1758.3 1036.1,1747.5 1046.1,1737.6 1053.7,1728.9 1059.0,1721.2 1061.8,1714.6 1062.2,1709.2 1060.2,1704.9 1055.8,1701.8 1048.9,1699.8 1039.6,1699.0 1028.0,1699.3 1014.0,1700.7 997.9,1703.3 979.6,1706.9 959.2,1711.6 936.9,1717.2 912.8,1723.8 887.0,1731.3 859.6,1739.7 830.8,1748.8 800.8,1758.6 769.7,1769.0 737.8,1780.0 705.3,1791.5 672.3,1803.3 639.2,1815.3  " style="stroke-opacity: 1.000000; stroke-width: 5.0; stroke: rgb(107,174,214); fill: none"  />
<path d="M 709.3,1964.0 L 739.8,1945.9 769.9,1927.6 799.4,1909.3 828.0,1891.0 855.6,1872.8 882.1,1854.8 907.1,1837.0 930.6,1819.6 952.3,1802.7 972.2,1786.2 990.2,1770.3 1006.1,1755.0 1019.7,1740.4 1031.2,1726.5 1040.2,1713.3 1046.9,1701.0 1051.2,1689.5 1052.9,1678.8 1052.2,1669.0 1049.0,1660.2 1043.2,1652.3 1035.0,1645.3 1024.3,1639.2 1011.2,1634.1 995.8,1629.9 978.1,1626.7 958.2,1624.4 936.2,1623.0 912.2,1622.4 886.4,1622.7 858.8,1623.8 829.7,1625.7 799.1,1628.3 767.3,1631.6 734.5,1635.6 700.7,1640.1 666.4,1645.2 631.6,1650.7 596.7,1656.5  " style="stroke-opacity: 1.000000; stroke-width: 5.0; stroke: rgb(107,174,214); fill: none"  />
<path d="M 1867.0,659.9 L 1852.9,692.3 1839.2,724.4 1825.8,756.2 1812.9,787.4 1800.6,817.8 1788.9,847.1 1778.1,875.3 1768.1,902.1 1759.0,927.5 1751.0,951.1 1744.0,973.1 1738.1,993.1 1733.4,1011.2 1729.9,1027.1 1727.6,1040.9 1726.5,1052.5 1726.8,1061.8 1728.4,1068.8 1731.2,1073.5 1735.4,1075.7 1740.8,1075.6 1747.5,1073.2 1755.5,1068.4 1764.7,1061.3 1775.2,1052.0 1786.7,1040.4 1799.4,1026.7 1813.1,1011.0 1827.9,993.3 1843.5,973.8 1860.0,952.5 1877.2,929.7 1895.2,905.4 1913.7,879.8 1932.7,853.1 1952.0,825.5 1971.6,797.1 1991.3,768.2 2011.1,738.9  " style="stroke-opacity: 1.000000; stroke-width: 5.0; stroke: rgb(107,174,214); fill: none"  />
<path d="M 1867.0,659.9 L 1852.9,692.7 1839.4,725.5 1826.5,758.1 1814.5,790.4 1803.4,822.2 1793.3,853.2 1784.3,883.3 1776.5,912.4 1770.1,940.4 1765.0,967.0 1761.3,992.2 1759.2,1015.9 1758.6,1038.0 1759.6,1058.4 1762.2,1077.0 1766.4,1093.7 1772.3,1108.5 1779.9,1121.3 1789.1,1132.2 1800.0,1141.0 1812.5,1147.8 1826.7,1152.5 1842.4,1155.2 1859.6,1155.9 1878.3,1154.6 1898.4,1151.4 1919.9,1146.2 1942.6,1139.2 1966.6,1130.4 1991.6,1119.9 2017.6,1107.8 2044.5,1094.2 2072.1,1079.2 2100.3,1062.9 2129.1,1045.4 2158.2,1026.9 2187.4,1007.6 2216.7,987.6 2245.9,967.0  " style="stroke-opacity: 1.000000; stroke-width: 5.0; stroke: rgb(107,174,214); fill: none"  />
<path d="M 1867.0,659.9 L 1852.7,693.5 1839.2,727.3 1826.5,761.2 1814.9,795.0 1804.3,828.6 1795.0,861.9 1787.1,894.6 1780.6,926.7 1775.6,958.0 1772.2,988.5 1770.4,1017.9 1770.4,1046.3 1772.2,1073.6 1775.8,1099.6 1781.2,1124.2 1788.5,1147.5 1797.7,1169.3 1808.7,1189.7 1821.7,1208.5 1836.5,1225.7 1853.1,1241.3 1871.5,1255.2 1891.8,1267.6 1913.7,1278.3 1937.2,1287.3 1962.4,1294.8 1989.1,1300.6 2017.1,1304.9 2046.6,1307.6 2077.2,1308.8 2108.9,1308.6 2141.6,1306.9 2175.2,1304.0 2209.4,1299.8 2244.2,1294.4 2279.4,1287.9 2314.8,1280.5 2350.3,1272.2 2385.6,1263.1  " style="stroke-opacity: 1.000000; stroke-width: 5.0; stroke: rgb(107,174,214); fill: none"  />
<path d="M 2011.1,738.9 L 1991.3,768.2 1971.6,797.1 1952.0,825.5 1932.7,853.1 1913.7,879.8 1895.2,905.4 1877.2,929.7 1860.0,952.5 1843.5,973.8 1827.9,993.3 1813.1,1011.0 1799.4,1026.7 1786.7,1040.4 1775.2,1052.0 1764.7,1061.3 1755.5,1068.4 1747.5,1073.2 1740.8,1075.6 1735.4,1075.7 1731.2,1073.5 1728.4,1068.8 1726.8,1061.8 1726.5,1052.5 1727.6,1040.9 1729.9,1027.1 1733.4,1011.2 1738.1,993.1 1744.0,973.1 1751.0,951.1 1759.0,927.5 1768.1,902.1 1778.1,875.3 1788.9,847.1 1800.6,817.8 1812.9,787.4 1825.8,756.2 1839.2,724.4 1852.9,692.3 1867.0,659.9  " style="stroke-opacity: 1.000000; stroke-width: 5.0; stroke: rgb(107,174,214); fill: none"  />
<path d="M 2138.8,842.4 L 2113.7,867.8 2088.5,892.8 2063.1,917.0 2037.8,940.4 2012.6,962.7 1987.7,983.8 1963.2,1003.5 1939.2,1021.7 1915.8,1038.2 1893.1,1053.0 1871.1,1066.0 1850.0,1076.9 1829.8,1085.8 1810.6,1092.6 1792.4,1097.2 1775.3,1099.6 1759.4,1099.8 1744.6,1097.6 1731.1,1093.2 1718.8,1086.4 1707.8,1077.4 1698.0,1066.1 1689.6,1052.6 1682.4,1036.9 1676.5,1019.1 1671.9,999.3 1668.6,977.4 1666.5,953.7 1665.6,928.3 1665.8,901.1 1667.2,872.5 1669.6,842.5 1673.1,811.2 1677.5,778.9 1682.8,745.7 1688.8,711.8 1695.6,677.3 1703.1,642.6 1711.1,607.9  " style="stroke-opacity: 1.000000; stroke-width: 5.0; stroke: rgb(107,174,214); fill: none"  />
<path d="M 639.2,1815.3 L 672.5,1803.3 705.7,1791.7 738.6,1780.6 771.0,1770.1 802.6,1760.3 833.3,1751.4 862.9,1743.4 891.2,1736.3 918.2,1730.3 943.5,1725.4 967.2,1721.6 989.1,1719.1 1009.1,1717.9 1027.1,1717.9 1043.0,1719.2 1056.8,1721.9 1068.4,1726.0 1077.7,1731.4 1084.8,1738.2 1089.6,1746.3 1092.0,1755.8 1092.2,1766.6 1090.1,1778.6 1085.7,1792.0 1079.1,1806.5 1070.4,1822.3 1059.5,1839.1 1046.6,1857.0 1031.8,1875.8 1015.2,1895.6 996.8,1916.2 976.8,1937.5 955.3,1959.4 932.6,1981.8 908.6,2004.7 883.7,2027.8 858.0,2051.1 831.6,2074.5 804.9,2097.7  " style="stroke-opacity: 1.000000; stroke-width: 5.0; stroke: rgb(107,174,214); fill: none"  />
<path d="M 639.2,1815.3 L 672.3,1803.3 705.3,1791.5 737.8,1780.0 769.7,1769.0 800.8,1758.6 830.8,1748.8 859.6,1739.7 887.0,1731.3 912.8,1723.8 936.9,1717.2 959.2,1711.6 979.6,1706.9 997.9,1703.3 1014.0,1700.7 1028.0,1699.3 1039.6,1699.0 1048.9,1699.8 1055.8,1701.8 1060.2,1704.9 1062.2,1709.2 1061.8,1714.6 1059.0,1721.2 1053.7,1728.9 1046.1,1737.6 1036.1,1747.5 1023.9,1758.3 1009.4,1770.1 992.9,1782.9 974.3,1796.5 953.9,1810.9 931.7,1826.1 907.8,1841.9 882.5,1858.4 855.8,1875.3 828.0,1892.6 799.3,1910.2 769.8,1928.1 739.7,1946.0 709.3,1964.0  " style="stroke-opacity: 1.000000; stroke-width: 5.0; stroke: rgb(107,174,214); fill: none"  />
<path d="M 639.2,1815.3 L 672.3,1803.1 705.0,1790.8 737.3,1778.5 768.7,1766.3 799.2,1754.2 828.4,1742.3 856.3,1730.7 882.6,1719.4 907.2,1708.4 929.8,1697.9 950.5,1687.8 969.1,1678.2 985.4,1669.1 999.4,1660.7 1010.9,1652.8 1020.0,1645.5 1026.6,1638.9 1030.5,1632.9 1031.9,1627.7 1030.7,1623.1 1026.9,1619.2 1020.4,1616.0 1011.5,1613.6 1000.0,1611.8 986.0,1610.7 969.7,1610.4 951.0,1610.7 930.1,1611.6 907.2,1613.2 882.3,1615.4 855.5,1618.1 827.1,1621.5 797.1,1625.3 765.8,1629.6 733.4,1634.3 700.1,1639.4 666.0,1644.9 631.5,1650.6 596.7,1656.5  " style="stroke-opacity: 1.000000; stroke-width: 5.0; stroke: rgb(107,174,214); fill: none"  />
<path d="M 596.7,1656.5 L 631.9,1650.7 667.0,1645.4 701.8,1640.7 736.0,1636.6 769.4,1633.4 802.0,1631.0 833.4,1629.4 863.5,1628.8 892.2,1629.2 919.3,1630.6 944.6,1633.0 968.2,1636.6 989.8,1641.2 1009.3,1647.0 1026.7,1654.0 1042.0,1662.1 1054.9,1671.3 1065.6,1681.7 1073.9,1693.3 1079.9,1706.0 1083.5,1719.7 1084.8,1734.6 1083.7,1750.5 1080.2,1767.4 1074.5,1785.3 1066.6,1804.0 1056.5,1823.7 1044.2,1844.1 1030.0,1865.2 1013.9,1887.0 995.9,1909.4 976.3,1932.3 955.1,1955.5 932.6,1979.1 908.8,2002.8 883.9,2026.7 858.2,2050.5 831.8,2074.2 804.9,2097.7  " style="stroke-opacity: 1.000000; stroke-width: 5.0; stroke: rgb(107,174,214); fill: none"  />
<path d="M 596.7,1656.5 L 631.6,1650.7 666.4,1645.2 700.7,1640.1 734.5,1635.6 767.3,1631.6 799.1,1628.3 829.7,1625.7 858.8,1623.8 886.4,1622.7 912.2,1622.4 936.2,1623.0 958.2,1624.4 978.1,1626.7 995.8,1629.9 1011.2,1634.1 1024.3,1639.2 1035.0,1645.3 1043.2,1652.3 1049.0,1660.2 1052.2,1669.0 1052.9,1678.8 1051.2,1689.5 1046.9,1701.0 1040.2,1713.3 1031.2,1726.5 1019.7,1740.4 1006.1,1755.0 990.2,1770.3 972.2,1786.2 952.3,1802.7 930.6,1819.6 907.1,1837.0 882.1,1854.8 855.6,1872.8 828.0,1891.0 799.4,1909.3 769.9,1927.6 739.8,1945.9 709.3,1964.0  " style="stroke-opacity: 1.000000; stroke-width: 5.0; stroke: rgb(107,174,214); fill: none"  />
<path d="M 596.7,1656.5 L 631.5,1650.6 666.0,1644.9 700.1,1639.4 733.4,1634.3 765.8,1629.6 797.1,1625.3 827.1,1621.5 855.5,1618.1 882.3,1615.4 907.2,1613.2 930.1,1611.6 951.0,1610.7 969.7,1610.4 986.0,1610.7 1000.0,1611.8 1011.5,1613.6 1020.4,1616.0 1026.9,1619.2 1030.7,1623.1 1031.9,1627.7 1030.5,1632.9 1026.6,1638.9 1020.0,1645.5 1010.9,1652.8 999.4,1660.7 985.4,1669.1 969.1,1678.2 950.5,1687.8 929.8,1697.9 907.2,1708.4 882.6,1719.4 856.3,1730.7 828.4,1742.3 799.2,1754.2 768.7,1766.3 737.3,1778.5 705.0,1790.8 672.3,1803.1 639.2,1815.3  " style="stroke-opacity: 1.000000; stroke-width: 5.0; stroke: rgb(107,174,214); fill: none"  />
<path d="M 1059.2,2303.8 L 1077.4,2271.6 1096.3,2239.7 1115.9,2208.5 1136.3,2178.0 1157.3,2148.6 1179.0,2120.2 1201.3,2093.2 1224.1,2067.6 1247.4,2043.6 1271.3,2021.2 1295.6,2000.7 1320.3,1982.1 1345.4,1965.5 1370.9,1951.0 1396.6,1938.6 1422.6,1928.5 1448.9,1920.6 1475.3,1914.9 1501.9,1911.6 1528.5,1910.6 1555.3,1912.0 1582.1,1915.6 1608.8,1921.6 1635.5,1929.8 1662.1,1940.2 1688.5,1952.8 1714.8,1967.5 1740.8,1984.3 1766.6,2002.9 1792.0,2023.4 1817.1,2045.7 1841.7,2069.5 1865.9,2094.8 1889.6,2121.5 1912.8,2149.3 1935.3,2178.2 1957.3,2207.9 1978.5,2238.3 1999.0,2269.1  " style="stroke-opacity: 1.000000; stroke-width: 5.0; stroke: rgb(107,174,214); fill: none"  />
<path d="M 1059.2,2303.8 L 1076.6,2272.7 1094.3,2241.9 1112.3,2211.8 1130.5,2182.5 1148.8,2154.3 1167.2,2127.4 1185.5,2101.9 1203.8,2077.9 1222.0,2055.7 1240.0,2035.4 1257.7,2017.1 1275.2,2000.9 1292.3,1987.0 1309.0,1975.3 1325.3,1966.0 1341.1,1959.2 1356.5,1954.8 1371.2,1952.9 1385.5,1953.6 1399.1,1956.9 1412.1,1962.6 1424.5,1970.9 1436.3,1981.7 1447.3,1994.9 1457.7,2010.5 1467.5,2028.4 1476.5,2048.6 1484.8,2070.9 1492.5,2095.2 1499.5,2121.4 1505.8,2149.4 1511.4,2179.0 1516.4,2210.0 1520.8,2242.3 1524.5,2275.8 1527.7,2310.1 1530.3,2345.1 1532.3,2380.5 1533.9,2416.1  " style="stroke-opacity: 1.000000; stroke-width: 5.0; stroke: rgb(107,174,214); fill: none"  />
<path d="M 922.8,2212.2 L 946.8,2183.3 971.6,2154.8 997.2,2127.1 1023.4,2100.2 1050.3,2074.3 1077.7,2049.7 1105.7,2026.3 1134.1,2004.3 1163.0,1983.9 1192.3,1965.2 1221.8,1948.2 1251.7,1933.0 1281.8,1919.8 1312.0,1908.6 1342.4,1899.4 1372.9,1892.4 1403.5,1887.4 1434.0,1884.7 1464.5,1884.1 1494.9,1885.7 1525.1,1889.5 1555.2,1895.5 1585.0,1903.6 1614.6,1913.8 1643.8,1926.1 1672.8,1940.5 1701.3,1956.8 1729.4,1975.0 1757.0,1995.0 1784.1,2016.7 1810.7,2040.1 1836.7,2064.9 1862.0,2091.1 1886.7,2118.5 1910.7,2147.1 1933.9,2176.6 1956.4,2206.9 1978.1,2237.8 1999.0,2269.1  " style="stroke-opacity: 1.000000; stroke-width: 5.0; stroke: rgb(107,174,214); fill: none"  />
<path d="M 922.8,2212.2 L 945.7,2184.4 969.0,2157.1 992.7,2130.6 1016.6,2104.9 1040.6,2080.4 1064.7,2057.1 1088.7,2035.3 1112.6,2015.0 1136.3,1996.4 1159.7,1979.7 1182.8,1965.0 1205.4,1952.3 1227.6,1941.7 1249.3,1933.4 1270.4,1927.3 1290.8,1923.6 1310.6,1922.2 1329.6,1923.2 1347.9,1926.7 1365.4,1932.5 1382.1,1940.7 1397.9,1951.4 1412.9,1964.3 1427.0,1979.6 1440.2,1997.1 1452.5,2016.8 1463.9,2038.6 1474.4,2062.3 1484.0,2088.0 1492.7,2115.4 1500.5,2144.4 1507.4,2175.0 1513.5,2206.9 1518.8,2239.9 1523.3,2274.0 1527.0,2308.9 1530.0,2344.3 1532.2,2380.1 1533.9,2416.1  " style="stroke-opacity: 1.000000; stroke-width: 5.0; stroke: rgb(107,174,214); fill: none"  />
<path d="M 922.8,2212.2 L 945.4,2184.6 968.3,2157.5 991.4,2131.1 1014.5,2105.6 1037.6,2081.1 1060.5,2057.9 1083.1,2036.0 1105.4,2015.8 1127.3,1997.2 1148.6,1980.4 1169.3,1965.6 1189.4,1952.8 1208.7,1942.1 1227.2,1933.6 1244.9,1927.3 1261.7,1923.4 1277.6,1921.9 1292.4,1922.7 1306.3,1925.9 1319.2,1931.5 1330.9,1939.5 1341.7,1949.9 1351.3,1962.6 1359.8,1977.5 1367.3,1994.8 1373.6,2014.1 1378.9,2035.6 1383.2,2059.0 1386.4,2084.3 1388.5,2111.3 1389.7,2140.0 1390.0,2170.1 1389.4,2201.5 1387.9,2234.1 1385.6,2267.7 1382.6,2302.0 1378.9,2336.9 1374.6,2372.1 1369.8,2407.5  " style="stroke-opacity: 1.000000; stroke-width: 5.0; stroke: rgb(107,174,214); fill: none"  />
<path d="M 922.8,2212.2 L 945.2,2184.8 967.7,2157.8 990.3,2131.4 1012.7,2105.8 1034.8,2081.2 1056.6,2057.8 1077.9,2035.7 1098.6,2015.1 1118.6,1996.1 1137.9,1978.9 1156.3,1963.5 1173.8,1950.1 1190.3,1938.8 1205.8,1929.6 1220.2,1922.6 1233.4,1917.8 1245.4,1915.4 1256.2,1915.2 1265.7,1917.4 1274.0,1921.9 1281.0,1928.8 1286.7,1938.0 1291.0,1949.4 1294.1,1963.1 1295.9,1979.0 1296.5,1997.0 1295.8,2017.0 1293.9,2039.0 1290.9,2062.8 1286.7,2088.3 1281.5,2115.4 1275.2,2143.9 1268.1,2173.7 1260.0,2204.7 1251.2,2236.6 1241.7,2269.2 1231.5,2302.4 1220.9,2336.0 1209.8,2369.6  " style="stroke-opacity: 1.000000; stroke-width: 5.0; stroke: rgb(107,174,214); fill: none"  />
<path d="M 2245.9,967.0 L 2216.7,987.6 2187.4,1007.6 2158.2,1026.9 2129.1,1045.4 2100.3,1062.9 2072.1,1079.2 2044.5,1094.2 2017.6,1107.8 1991.6,1119.9 1966.6,1130.4 1942.6,1139.2 1919.9,1146.2 1898.4,1151.4 1878.3,1154.6 1859.6,1155.9 1842.4,1155.2 1826.7,1152.5 1812.5,1147.8 1800.0,1141.0 1789.1,1132.2 1779.9,1121.3 1772.3,1108.5 1766.4,1093.7 1762.2,1077.0 1759.6,1058.4 1758.6,1038.0 1759.2,1015.9 1761.3,992.2 1765.0,967.0 1770.1,940.4 1776.5,912.4 1784.3,883.3 1793.3,853.2 1803.4,822.2 1814.5,790.4 1826.5,758.1 1839.4,725.5 1852.9,692.7 1867.0,659.9  " style="stroke-opacity: 1.000000; stroke-width: 5.0; stroke: rgb(107,174,214); fill: none"  />
<path d="M 2245.9,967.0 L 2217.3,987.6 2188.9,1008.2 2161.1,1028.6 2134.1,1048.7 2107.9,1068.5 2082.9,1087.7 2059.1,1106.4 2036.8,1124.3 2016.0,1141.4 1997.0,1157.6 1979.7,1172.8 1964.4,1187.0 1951.1,1200.0 1939.9,1211.9 1930.8,1222.6 1924.0,1232.1 1919.4,1240.2 1917.2,1247.0 1917.3,1252.4 1919.7,1256.5 1924.4,1259.2 1931.4,1260.6 1940.7,1260.6 1952.3,1259.2 1966.0,1256.5 1981.9,1252.5 1999.8,1247.3 2019.6,1240.8 2041.3,1233.2 2064.8,1224.4 2089.8,1214.7 2116.4,1203.9 2144.2,1192.2 2173.2,1179.8 2203.2,1166.6 2234.0,1152.8 2265.4,1138.5 2297.2,1123.8 2329.1,1108.8  " style="stroke-opacity: 1.000000; stroke-width: 5.0; stroke: rgb(107,174,214); fill: none"  />
<path d="M 2329.1,1108.8 L 2295.5,1124.2 2261.4,1138.8 2227.2,1152.6 2192.8,1165.2 2158.5,1176.7 2124.3,1186.9 2090.4,1195.7 2056.8,1203.0 2023.8,1208.7 1991.4,1212.7 1959.7,1215.1 1928.8,1215.6 1898.7,1214.3 1869.6,1211.0 1841.5,1205.9 1814.4,1198.8 1788.6,1189.8 1763.9,1178.8 1740.4,1165.9 1718.3,1151.0 1697.4,1134.2 1677.9,1115.5 1659.8,1095.0 1643.0,1072.6 1627.6,1048.6 1613.6,1022.8 1601.0,995.5 1589.8,966.7 1579.9,936.4 1571.4,904.9 1564.2,872.2 1558.3,838.4 1553.6,803.7 1550.1,768.2 1547.7,732.0 1546.4,695.4 1546.2,658.5 1546.8,621.5 1548.4,584.5  " style="stroke-opacity: 1.000000; stroke-width: 5.0; stroke: rgb(107,174,214); fill: none"  />
<path d="M 2329.1,1108.8 L 2297.2,1123.8 2265.4,1138.5 2234.0,1152.8 2203.2,1166.6 2173.2,1179.8 2144.2,1192.2 2116.4,1203.9 2089.8,1214.7 2064.8,1224.4 2041.3,1233.2 2019.6,1240.8 1999.8,1247.3 1981.9,1252.5 1966.0,1256.5 1952.3,1259.2 1940.7,1260.6 1931.4,1260.6 1924.4,1259.2 1919.7,1256.5 1917.3,1252.4 1917.2,1247.0 1919.4,1240.2 1924.0,1232.1 1930.8,1222.6 1939.9,1211.9 1951.1,1200.0 1964.4,1187.0 1979.7,1172.8 1997.0,1157.6 2016.0,1141.4 2036.8,1124.3 2059.1,1106.4 2082.9,1087.7 2107.9,1068.5 2134.1,1048.7 2161.1,1028.6 2188.9,1008.2 2217.3,987.6 2245.9,967.0  " style="stroke-opacity: 1.000000; stroke-width: 5.0; stroke: rgb(107,174,214); fill: none"  />
<path d="M 583.3,1492.7 L 619.3,1493.3 655.2,1494.6 690.7,1496.5 725.7,1499.2 759.8,1502.7 793.0,1507.0 825.1,1512.2 855.8,1518.2 885.1,1525.2 912.7,1533.1 938.7,1541.9 962.7,1551.7 984.8,1562.5 1004.8,1574.2 1022.7,1586.9 1038.4,1600.5 1051.8,1615.1 1062.9,1630.7 1071.6,1647.1 1077.9,1664.4 1081.9,1682.6 1083.5,1701.6 1082.7,1721.4 1079.5,1742.0 1074.1,1763.2 1066.4,1785.1 1056.4,1807.6 1044.4,1830.6 1030.3,1854.1 1014.3,1878.0 996.5,1902.2 976.9,1926.7 955.8,1951.3 933.2,1976.0 909.4,2000.8 884.4,2025.4 858.6,2049.8 832.0,2074.0 804.9,2097.7  " style="stroke-opacity: 1.000000; stroke-width: 5.0; stroke: rgb(107,174,214); fill: none"  />
<path d="M 2385.6,1263.1 L 2350.3,1272.2 2314.8,1280.5 2279.4,1287.9 2244.2,1294.4 2209.4,1299.8 2175.2,1304.0 2141.6,1306.9 2108.9,1308.6 2077.2,1308.8 2046.6,1307.6 2017.1,1304.9 1989.1,1300.6 1962.4,1294.8 1937.2,1287.3 1913.7,1278.3 1891.8,1267.6 1871.5,1255.2 1853.1,1241.3 1836.5,1225.7 1821.7,1208.5 1808.7,1189.7 1797.7,1169.3 1788.5,1147.5 1781.2,1124.2 1775.8,1099.6 1772.2,1073.6 1770.4,1046.3 1770.4,1017.9 1772.2,988.5 1775.6,958.0 1780.6,926.7 1787.1,894.6 1795.0,861.9 1804.3,828.6 1814.9,795.0 1826.5,761.2 1839.2,727.3 1852.7,693.5 1867.0,659.9  " style="stroke-opacity: 1.000000; stroke-width: 5.0; stroke: rgb(107,174,214); fill: none"  />
<path d="M 2413.7,1425.1 L 2376.2,1427.7 2338.5,1429.4 2300.7,1430.1 2263.2,1429.7 2225.9,1428.2 2189.1,1425.4 2152.9,1421.3 2117.3,1415.9 2082.6,1409.2 2048.9,1401.0 2016.2,1391.3 1984.6,1380.2 1954.3,1367.6 1925.2,1353.5 1897.6,1337.8 1871.4,1320.7 1846.8,1302.0 1823.7,1281.9 1802.2,1260.3 1782.3,1237.2 1764.2,1212.7 1747.7,1186.8 1733.0,1159.7 1719.9,1131.2 1708.6,1101.5 1699.0,1070.7 1691.1,1038.8 1684.8,1006.0 1680.2,972.2 1677.2,937.6 1675.7,902.2 1675.7,866.3 1677.1,829.9 1679.9,793.0 1683.9,756.0 1689.2,718.8 1695.5,681.6 1702.8,644.6 1711.1,607.9  " style="stroke-opacity: 1.000000; stroke-width: 5.0; stroke: rgb(107,174,214); fill: none"  />
</g>
<defs>
<pattern id="checker" width="10" height="10" patternTransform="rotate(45 0 0)" patternUnits="userSpaceOnUse"><line x1="0" y1="0" x2="10" y2="0" style="stroke:black;stroke-width:2" /><line x1="0" y1="0" x2="0" y2="10" style="stroke:black;stroke-width:2" /></pattern>
<pattern id="vline" width="10" height="10" patternTransform="rotate(0 0 0)" patternUnits="userSpaceOnUse"><line x1="0" y1="0" x2="0" y2="10" style="stroke:black;stroke-width:5" /></pattern>
<pattern id="hline" width="10" height="10" patternTransform="rotate(0 0 0)" patternUnits="userSpaceOnUse"><line x1="0" y1="0" x2="10" y2="0" style="stroke:black;stroke-width:5" /></pattern>
<pattern id="checker" width="10" height="10" patternTransform="rotate(45 0 0)" patternUnits="userSpaceOnUse"><line x1="0" y1="0" x2="10" y2="0" style="stroke:black;stroke-width:5" /><line x1="0" y1="0" x2="0" y2="10" style="stroke:black;stroke-width:4" /></pattern>
<pattern id="hline-sparse" width="10" height="10" patternTransform="rotate(0 0 0)" patternUnits="userSpaceOnUse"><line x1="0" y1="0" x2="10" y2="0" style="stroke:black;stroke-width:2" /></pattern>
<pattern id="vline-sparse" width="10" height="10" patternTransform="rotate(0 0 0)" patternUnits="userSpaceOnUse"><line x1="0" y1="0" x2="0" y2="10" style="stroke:black;stroke-width:2" /></pattern>
</defs>
</svg>
