<?xml version="1.0" encoding="utf-8" standalone="no"?>
<!DOCTYPE svg PUBLIC "-//W3C//DTD SVG 1.1//EN" "http://www.w3.org/Graphics/SVG/1.1/DTD/svg11.dtd">
<svg width="3000px" height="3000px" version="1.1" xmlns="http://www.w3.org/2000/svg" xmlns:xlink="http://www.w3.org/1999/xlink">
<g id="bg">
<rect x="0" y="0" width="3000px" height="3000px" style="fill:rgb(255,255,255);"/>
</g>
<g id="ideograms">
<path d="M1500.000,535.000 A965.000,965.000 40.000 0,1 1601.714,540.376 L1618.579,381.267 A1125.000,1125.000 0.000 0,0 1500.000,375.000 Z" style="stroke-width:2.0;stroke:rgb(115,115,115);stroke-linecap:round;fill:rgb(153,204,255);" />
<text x="1637.1" y="307.9" font-size="195.0px" font-family="CMUBright-Bold" style="text-anchor:start;fill:rgb(0,0,0);" transform="rotate(273.0,1637.1,307.9)" >6</text>
<path d="M1500.000,535.000 A965.000,965.000 40.000 0,1 1601.714,540.376 L1618.579,381.267 A1125.000,1125.000 0.000 0,0 1500.000,375.000 Z" style="stroke-width:2.0;stroke:rgb(115,115,115);stroke-linecap:round;fill:none;" />
<path d="M1672.307,550.508 A965.000,965.000 40.000 0,1 1771.427,573.959 L1816.431,420.418 A1125.000,1125.000 0.000 0,0 1700.877,393.079 Z" style="stroke-width:2.0;stroke:rgb(115,115,115);stroke-linecap:round;fill:rgb(153,204,255);" />
<text x="1844.9" y="350.6" font-size="195.0px" font-family="CMUBright-Bold" style="text-anchor:start;fill:rgb(0,0,0);" transform="rotate(283.3,1844.9,350.6)" >7</text>
<path d="M1672.307,550.508 A965.000,965.000 40.000 0,1 1771.427,573.959 L1816.431,420.418 A1125.000,1125.000 0.000 0,0 1700.877,393.079 Z" style="stroke-width:2.0;stroke:rgb(115,115,115);stroke-linecap:round;fill:none;" />
<path d="M1839.077,596.533 A965.000,965.000 40.000 0,1 1932.417,637.306 L2004.113,494.269 A1125.000,1125.000 0.000 0,0 1895.297,446.736 Z" style="stroke-width:2.0;stroke:rgb(115,115,115);stroke-linecap:round;fill:rgb(153,204,255);" />
<text x="2047.2" y="432.0" font-size="195.0px" font-family="CMUBright-Bold" style="text-anchor:start;fill:rgb(0,0,0);" transform="rotate(293.6,2047.2,432.0)" >8</text>
<path d="M1839.077,596.533 A965.000,965.000 40.000 0,1 1932.417,637.306 L2004.113,494.269 A1125.000,1125.000 0.000 0,0 1895.297,446.736 Z" style="stroke-width:2.0;stroke:rgb(115,115,115);stroke-linecap:round;fill:none;" />
<path d="M1994.948,671.597 A965.000,965.000 40.000 0,1 2079.507,728.381 L2175.592,600.444 A1125.000,1125.000 0.000 0,0 2077.012,534.245 Z" style="stroke-width:2.0;stroke:rgb(115,115,115);stroke-linecap:round;fill:rgb(153,204,255);" />
<text x="2229.1" y="546.9" font-size="195.0px" font-family="CMUBright-Bold" style="text-anchor:start;fill:rgb(0,0,0);" transform="rotate(303.9,2229.1,546.9)" >10</text>
<path d="M1994.948,671.597 A965.000,965.000 40.000 0,1 2079.507,728.381 L2175.592,600.444 A1125.000,1125.000 0.000 0,0 2077.012,534.245 Z" style="stroke-width:2.0;stroke:rgb(115,115,115);stroke-linecap:round;fill:none;" />
<path d="M2134.911,773.286 A965.000,965.000 40.000 0,1 2207.972,844.256 L2325.356,735.532 A1125.000,1125.000 0.000 0,0 2240.181,652.795 Z" style="stroke-width:2.0;stroke:rgb(115,115,115);stroke-linecap:round;fill:rgb(153,204,255);" />
<text x="2387.6" y="692.4" font-size="195.0px" font-family="CMUBright-Bold" style="text-anchor:start;fill:rgb(0,0,0);" transform="rotate(314.2,2387.6,692.4)" >19</text>
<path d="M2134.911,773.286 A965.000,965.000 40.000 0,1 2207.972,844.256 L2325.356,735.532 A1125.000,1125.000 0.000 0,0 2240.181,652.795 Z" style="stroke-width:2.0;stroke:rgb(115,115,115);stroke-linecap:round;fill:none;" />
<path d="M2254.467,898.332 A965.000,965.000 40.000 0,1 2313.683,981.207 L2448.594,895.190 A1125.000,1125.000 0.000 0,0 2379.560,798.574 Z" style="stroke-width:2.0;stroke:rgb(115,115,115);stroke-linecap:round;fill:rgb(153,204,255);" />
<text x="2517.5" y="863.9" font-size="195.0px" font-family="CMUBright-Bold" style="text-anchor:start;fill:rgb(0,0,0);" transform="rotate(324.5,2517.5,863.9)" >26</text>
<path d="M2254.467,898.332 A965.000,965.000 40.000 0,1 2313.683,981.207 L2448.594,895.190 A1125.000,1125.000 0.000 0,0 2379.560,798.574 Z" style="stroke-width:2.0;stroke:rgb(115,115,115);stroke-linecap:round;fill:none;" />
<path d="M2349.775,1042.717 A965.000,965.000 40.000 0,1 2393.240,1134.833 L2541.342,1074.288 A1125.000,1125.000 0.000 0,0 2490.670,966.898 Z" style="stroke-width:2.0;stroke:rgb(115,115,115);stroke-linecap:round;fill:rgb(153,204,255);" />
<text x="2614.7" y="1055.8" font-size="195.0px" font-family="CMUBright-Bold" style="text-anchor:start;fill:rgb(0,0,0);" transform="rotate(334.7,2614.7,1055.8)" >35</text>
<path d="M2349.775,1042.717 A965.000,965.000 40.000 0,1 2393.240,1134.833 L2541.342,1074.288 A1125.000,1125.000 0.000 0,0 2490.670,966.898 Z" style="stroke-width:2.0;stroke:rgb(115,115,115);stroke-linecap:round;fill:none;" />
<path d="M2417.770,1201.799 A965.000,965.000 40.000 0,1 2444.089,1300.196 L2600.621,1267.068 A1125.000,1125.000 0.000 0,0 2569.939,1152.356 Z" style="stroke-width:2.0;stroke:rgb(115,115,115);stroke-linecap:round;fill:rgb(116,196,118);" />
<text x="2675.8" y="1260.0" font-size="195.0px" font-family="CMUBright-Bold" style="text-anchor:start;fill:rgb(0,0,0);" transform="rotate(345.0,2675.8,1260.0)" >2</text>
<path d="M2417.770,1201.799 A965.000,965.000 40.000 0,1 2444.089,1300.196 L2600.621,1267.068 A1125.000,1125.000 0.000 0,0 2569.939,1152.356 Z" style="stroke-width:2.0;stroke:rgb(115,115,115);stroke-linecap:round;fill:none;" />
<path d="M2456.267,1370.465 A965.000,965.000 40.000 0,1 2464.593,1471.980 L2624.526,1467.335 A1125.000,1125.000 0.000 0,0 2614.818,1348.988 Z" style="stroke-width:2.0;stroke:rgb(115,115,115);stroke-linecap:round;fill:rgb(116,196,118);" />
<text x="2699.8" y="1475.8" font-size="195.0px" font-family="CMUBright-Bold" style="text-anchor:start;fill:rgb(0,0,0);" transform="rotate(355.3,2699.8,1475.8)" >3</text>
<path d="M2456.267,1370.465 A965.000,965.000 40.000 0,1 2464.593,1471.980 L2624.526,1467.335 A1125.000,1125.000 0.000 0,0 2614.818,1348.988 Z" style="stroke-width:2.0;stroke:rgb(115,115,115);stroke-linecap:round;fill:none;" />
<path d="M2464.028,1543.295 A965.000,965.000 40.000 0,1 2454.095,1644.665 L2612.287,1668.651 A1125.000,1125.000 0.000 0,0 2623.867,1550.473 Z" style="stroke-width:2.0;stroke:rgb(115,115,115);stroke-linecap:round;fill:rgb(116,196,118);" />
<text x="2684.8" y="1690.4" font-size="195.0px" font-family="CMUBright-Bold" style="text-anchor:start;fill:rgb(0,0,0);" transform="rotate(5.6,2684.8,1690.4)" >15</text>
<path d="M2464.028,1543.295 A965.000,965.000 40.000 0,1 2454.095,1644.665 L2612.287,1668.651 A1125.000,1125.000 0.000 0,0 2623.867,1550.473 Z" style="stroke-width:2.0;stroke:rgb(115,115,115);stroke-linecap:round;fill:none;" />
<path d="M2440.805,1714.733 A965.000,965.000 40.000 0,1 2412.931,1812.701 L2564.298,1864.548 A1125.000,1125.000 0.000 0,0 2596.794,1750.336 Z" style="stroke-width:2.0;stroke:rgb(115,115,115);stroke-linecap:round;fill:rgb(116,196,118);" />
<text x="2632.4" y="1897.0" font-size="195.0px" font-family="CMUBright-Bold" style="text-anchor:start;fill:rgb(0,0,0);" transform="rotate(15.9,2632.4,1897.0)" >22</text>
<path d="M2440.805,1714.733 A965.000,965.000 40.000 0,1 2412.931,1812.701 L2564.298,1864.548 A1125.000,1125.000 0.000 0,0 2596.794,1750.336 Z" style="stroke-width:2.0;stroke:rgb(115,115,115);stroke-linecap:round;fill:none;" />
<path d="M2387.344,1879.269 A965.000,965.000 40.000 0,1 2342.425,1970.686 L2482.102,2048.727 A1125.000,1125.000 0.000 0,0 2534.469,1942.153 Z" style="stroke-width:2.0;stroke:rgb(115,115,115);stroke-linecap:round;fill:rgb(116,196,118);" />
<text x="2542.3" y="2094.6" font-size="195.0px" font-family="CMUBright-Bold" style="text-anchor:start;fill:rgb(0,0,0);" transform="rotate(26.2,2542.3,2094.6)" >23</text>
<path d="M2387.344,1879.269 A965.000,965.000 40.000 0,1 2342.425,1970.686 L2482.102,2048.727 A1125.000,1125.000 0.000 0,0 2534.469,1942.153 Z" style="stroke-width:2.0;stroke:rgb(115,115,115);stroke-linecap:round;fill:none;" />
<path d="M2305.363,2031.616 A965.000,965.000 40.000 0,1 2244.843,2113.542 L2368.340,2215.270 A1125.000,1125.000 0.000 0,0 2438.895,2119.759 Z" style="stroke-width:2.0;stroke:rgb(115,115,115);stroke-linecap:round;fill:rgb(116,196,118);" />
<text x="2420.7" y="2269.6" font-size="195.0px" font-family="CMUBright-Bold" style="text-anchor:start;fill:rgb(0,0,0);" transform="rotate(36.5,2420.7,2269.6)" >24</text>
<path d="M2305.363,2031.616 A965.000,965.000 40.000 0,1 2244.843,2113.542 L2368.340,2215.270 A1125.000,1125.000 0.000 0,0 2438.895,2119.759 Z" style="stroke-width:2.0;stroke:rgb(115,115,115);stroke-linecap:round;fill:none;" />
<path d="M2197.497,2166.875 A965.000,965.000 40.000 0,1 2123.321,2236.679 L2226.669,2358.823 A1125.000,1125.000 0.000 0,0 2313.144,2277.445 Z" style="stroke-width:2.0;stroke:rgb(115,115,115);stroke-linecap:round;fill:rgb(153,0,204);" />
<text x="2268.5" y="2421.6" font-size="195.0px" font-family="CMUBright-Bold" style="text-anchor:start;fill:rgb(0,0,0);" transform="rotate(46.7,2268.5,2421.6)" >1</text>
<path d="M2197.497,2166.875 A965.000,965.000 40.000 0,1 2123.321,2236.679 L2226.669,2358.823 A1125.000,1125.000 0.000 0,0 2313.144,2277.445 Z" style="stroke-width:2.0;stroke:rgb(115,115,115);stroke-linecap:round;fill:none;" />
<path d="M2067.213,2280.701 A965.000,965.000 40.000 0,1 1981.764,2336.139 L2061.642,2474.773 A1125.000,1125.000 0.000 0,0 2161.258,2410.144 Z" style="stroke-width:2.0;stroke:rgb(115,115,115);stroke-linecap:round;fill:rgb(153,0,204);" />
<text x="2089.8" y="2545.0" font-size="195.0px" font-family="CMUBright-Bold" style="text-anchor:start;fill:rgb(0,0,0);" transform="rotate(57.0,2089.8,2545.0)" >9</text>
<path d="M2067.213,2280.701 A965.000,965.000 40.000 0,1 1981.764,2336.139 L2061.642,2474.773 A1125.000,1125.000 0.000 0,0 2161.258,2410.144 Z" style="stroke-width:2.0;stroke:rgb(115,115,115);stroke-linecap:round;fill:none;" />
<path d="M1918.698,2369.435 A965.000,965.000 40.000 0,1 1824.724,2408.724 L1878.564,2559.393 A1125.000,1125.000 0.000 0,0 1988.119,2513.590 Z" style="stroke-width:2.0;stroke:rgb(115,115,115);stroke-linecap:round;fill:rgb(153,0,204);" />
<text x="1893.8" y="2633.6" font-size="195.0px" font-family="CMUBright-Bold" style="text-anchor:start;fill:rgb(0,0,0);" transform="rotate(67.3,1893.8,2633.6)" >13</text>
<path d="M1918.698,2369.435 A965.000,965.000 40.000 0,1 1824.724,2408.724 L1878.564,2559.393 A1125.000,1125.000 0.000 0,0 1988.119,2513.590 Z" style="stroke-width:2.0;stroke:rgb(115,115,115);stroke-linecap:round;fill:none;" />
<path d="M1756.726,2430.224 A965.000,965.000 40.000 0,1 1657.246,2452.102 L1683.318,2609.964 A1125.000,1125.000 0.000 0,0 1799.291,2584.458 Z" style="stroke-width:2.0;stroke:rgb(115,115,115);stroke-linecap:round;fill:rgb(153,0,204);" />
<text x="1686.0" y="2685.5" font-size="195.0px" font-family="CMUBright-Bold" style="text-anchor:start;fill:rgb(0,0,0);" transform="rotate(77.6,1686.0,2685.5)" >17</text>
<path d="M1756.726,2430.224 A965.000,965.000 40.000 0,1 1657.246,2452.102 L1683.318,2609.964 A1125.000,1125.000 0.000 0,0 1799.291,2584.458 Z" style="stroke-width:2.0;stroke:rgb(115,115,115);stroke-linecap:round;fill:none;" />
<path d="M1586.502,2461.115 A965.000,965.000 40.000 0,1 1484.715,2464.879 L1482.181,2624.859 A1125.000,1125.000 0.000 0,0 1600.844,2620.471 Z" style="stroke-width:2.0;stroke:rgb(115,115,115);stroke-linecap:round;fill:rgb(153,0,204);" />
<text x="1470.4" y="2699.6" font-size="195.0px" font-family="CMUBright-Bold" style="text-anchor:start;fill:rgb(0,0,0);" transform="rotate(87.9,1470.4,2699.6)" >28</text>
<path d="M1586.502,2461.115 A965.000,965.000 40.000 0,1 1484.715,2464.879 L1482.181,2624.859 A1125.000,1125.000 0.000 0,0 1600.844,2620.471 Z" style="stroke-width:2.0;stroke:rgb(115,115,115);stroke-linecap:round;fill:none;" />
<path d="M1413.498,2461.115 A965.000,965.000 40.000 0,1 1312.675,2446.644 L1281.616,2603.600 A1125.000,1125.000 0.000 0,0 1399.156,2620.471 Z" style="stroke-width:2.0;stroke:rgb(115,115,115);stroke-linecap:round;fill:rgb(153,0,204);" />
<text x="1403.0" y="2696.1" font-size="195.0px" font-family="CMUBright-Bold" style="text-anchor:end;fill:rgb(0,0,0);" transform="rotate(-81.8,1403.0,2696.1)" >34</text>
<path d="M1413.498,2461.115 A965.000,965.000 40.000 0,1 1312.675,2446.644 L1281.616,2603.600 A1125.000,1125.000 0.000 0,0 1399.156,2620.471 Z" style="stroke-width:2.0;stroke:rgb(115,115,115);stroke-linecap:round;fill:none;" />
<path d="M1243.274,2430.224 A965.000,965.000 40.000 0,1 1146.656,2397.983 L1088.070,2546.871 A1125.000,1125.000 0.000 0,0 1200.709,2584.458 Z" style="stroke-width:2.0;stroke:rgb(115,115,115);stroke-linecap:round;fill:rgb(253,208,162);" />
<text x="1189.1" y="2659.0" font-size="195.0px" font-family="CMUBright-Bold" style="text-anchor:end;fill:rgb(0,0,0);" transform="rotate(-71.5,1189.1,2659.0)" >5</text>
<path d="M1243.274,2430.224 A965.000,965.000 40.000 0,1 1146.656,2397.983 L1088.070,2546.871 A1125.000,1125.000 0.000 0,0 1200.709,2584.458 Z" style="stroke-width:2.0;stroke:rgb(115,115,115);stroke-linecap:round;fill:none;" />
<path d="M1081.302,2369.435 A965.000,965.000 40.000 0,1 991.993,2320.460 L907.764,2456.494 A1125.000,1125.000 0.000 0,0 1011.881,2513.590 Z" style="stroke-width:2.0;stroke:rgb(115,115,115);stroke-linecap:round;fill:rgb(253,208,162);" />
<text x="987.1" y="2584.9" font-size="195.0px" font-family="CMUBright-Bold" style="text-anchor:end;fill:rgb(0,0,0);" transform="rotate(-61.3,987.1,2584.9)" >12</text>
<path d="M1081.302,2369.435 A965.000,965.000 40.000 0,1 991.993,2320.460 L907.764,2456.494 A1125.000,1125.000 0.000 0,0 1011.881,2513.590 Z" style="stroke-width:2.0;stroke:rgb(115,115,115);stroke-linecap:round;fill:none;" />
<path d="M932.787,2280.701 A965.000,965.000 40.000 0,1 853.658,2216.566 L746.493,2335.375 A1125.000,1125.000 0.000 0,0 838.742,2410.144 Z" style="stroke-width:2.0;stroke:rgb(115,115,115);stroke-linecap:round;fill:rgb(253,208,162);" />
<text x="803.3" y="2477.0" font-size="195.0px" font-family="CMUBright-Bold" style="text-anchor:end;fill:rgb(0,0,0);" transform="rotate(-51.0,803.3,2477.0)" >16</text>
<path d="M932.787,2280.701 A965.000,965.000 40.000 0,1 853.658,2216.566 L746.493,2335.375 A1125.000,1125.000 0.000 0,0 838.742,2410.144 Z" style="stroke-width:2.0;stroke:rgb(115,115,115);stroke-linecap:round;fill:none;" />
<path d="M802.503,2166.875 A965.000,965.000 40.000 0,1 736.097,2089.642 L609.440,2187.406 A1125.000,1125.000 0.000 0,0 686.856,2277.445 Z" style="stroke-width:2.0;stroke:rgb(115,115,115);stroke-linecap:round;fill:rgb(253,208,162);" />
<text x="640.0" y="2336.9" font-size="195.0px" font-family="CMUBright-Bold" style="text-anchor:end;fill:rgb(0,0,0);" transform="rotate(-40.7,640.0,2336.9)" >20</text>
<path d="M802.503,2166.875 A965.000,965.000 40.000 0,1 736.097,2089.642 L609.440,2187.406 A1125.000,1125.000 0.000 0,0 686.856,2277.445 Z" style="stroke-width:2.0;stroke:rgb(115,115,115);stroke-linecap:round;fill:none;" />
<path d="M694.637,2031.616 A965.000,965.000 40.000 0,1 643.089,1943.766 L501.010,2017.344 A1125.000,1125.000 0.000 0,0 561.105,2119.759 Z" style="stroke-width:2.0;stroke:rgb(115,115,115);stroke-linecap:round;fill:rgb(253,208,162);" />
<text x="503.3" y="2168.3" font-size="195.0px" font-family="CMUBright-Bold" style="text-anchor:end;fill:rgb(0,0,0);" transform="rotate(-30.4,503.3,2168.3)" >21</text>
<path d="M694.637,2031.616 A965.000,965.000 40.000 0,1 643.089,1943.766 L501.010,2017.344 A1125.000,1125.000 0.000 0,0 561.105,2119.759 Z" style="stroke-width:2.0;stroke:rgb(115,115,115);stroke-linecap:round;fill:none;" />
<path d="M612.656,1879.269 A965.000,965.000 40.000 0,1 577.622,1783.627 L424.689,1830.653 A1125.000,1125.000 0.000 0,0 465.531,1942.153 Z" style="stroke-width:2.0;stroke:rgb(115,115,115);stroke-linecap:round;fill:rgb(253,208,162);" />
<text x="400.8" y="1981.4" font-size="195.0px" font-family="CMUBright-Bold" style="text-anchor:end;fill:rgb(0,0,0);" transform="rotate(-20.1,400.8,1981.4)" >25</text>
<path d="M612.656,1879.269 A965.000,965.000 40.000 0,1 577.622,1783.627 L424.689,1830.653 A1125.000,1125.000 0.000 0,0 465.531,1942.153 Z" style="stroke-width:2.0;stroke:rgb(115,115,115);stroke-linecap:round;fill:none;" />
<path d="M559.195,1714.733 A965.000,965.000 40.000 0,1 541.802,1614.372 L382.929,1633.336 A1125.000,1125.000 0.000 0,0 403.206,1750.336 Z" style="stroke-width:2.0;stroke:rgb(115,115,115);stroke-linecap:round;fill:rgb(253,141,60);" />
<text x="332.0" y="1775.4" font-size="195.0px" font-family="CMUBright-Bold" style="text-anchor:end;fill:rgb(0,0,0);" transform="rotate(-9.8,332.0,1775.4)" >11</text>
<path d="M559.195,1714.733 A965.000,965.000 40.000 0,1 541.802,1614.372 L382.929,1633.336 A1125.000,1125.000 0.000 0,0 403.206,1750.336 Z" style="stroke-width:2.0;stroke:rgb(115,115,115);stroke-linecap:round;fill:none;" />
<path d="M535.972,1543.295 A965.000,965.000 40.000 0,1 536.778,1441.441 L377.073,1431.732 A1125.000,1125.000 0.000 0,0 376.133,1550.473 Z" style="stroke-width:2.0;stroke:rgb(115,115,115);stroke-linecap:round;fill:rgb(253,141,60);" />
<text x="301.7" y="1564.5" font-size="195.0px" font-family="CMUBright-Bold" style="text-anchor:end;fill:rgb(0,0,0);" transform="rotate(0.5,301.7,1564.5)" >30</text>
<path d="M535.972,1543.295 A965.000,965.000 40.000 0,1 536.778,1441.441 L377.073,1431.732 A1125.000,1125.000 0.000 0,0 376.133,1550.473 Z" style="stroke-width:2.0;stroke:rgb(115,115,115);stroke-linecap:round;fill:none;" />
<path d="M543.733,1370.465 A965.000,965.000 40.000 0,1 562.714,1270.393 L407.309,1232.323 A1125.000,1125.000 0.000 0,0 385.182,1348.988 Z" style="stroke-width:2.0;stroke:rgb(115,115,115);stroke-linecap:round;fill:rgb(253,141,60);" />
<text x="309.5" y="1349.5" font-size="195.0px" font-family="CMUBright-Bold" style="text-anchor:end;fill:rgb(0,0,0);" transform="rotate(10.7,309.5,1349.5)" >31</text>
<path d="M543.733,1370.465 A965.000,965.000 40.000 0,1 562.714,1270.393 L407.309,1232.323 A1125.000,1125.000 0.000 0,0 385.182,1348.988 Z" style="stroke-width:2.0;stroke:rgb(115,115,115);stroke-linecap:round;fill:none;" />
<path d="M582.230,1201.799 A965.000,965.000 40.000 0,1 618.774,1106.724 L472.664,1041.517 A1125.000,1125.000 0.000 0,0 430.061,1152.356 Z" style="stroke-width:2.0;stroke:rgb(115,115,115);stroke-linecap:round;fill:rgb(253,141,60);" />
<text x="355.5" y="1139.3" font-size="195.0px" font-family="CMUBright-Bold" style="text-anchor:end;fill:rgb(0,0,0);" transform="rotate(21.0,355.5,1139.3)" >32</text>
<path d="M582.230,1201.799 A965.000,965.000 40.000 0,1 618.774,1106.724 L472.664,1041.517 A1125.000,1125.000 0.000 0,0 430.061,1152.356 Z" style="stroke-width:2.0;stroke:rgb(115,115,115);stroke-linecap:round;fill:none;" />
<path d="M650.225,1042.717 A965.000,965.000 40.000 0,1 703.158,955.695 L571.039,865.447 A1125.000,1125.000 0.000 0,0 509.330,966.898 Z" style="stroke-width:2.0;stroke:rgb(115,115,115);stroke-linecap:round;fill:rgb(253,141,60);" />
<text x="438.3" y="940.7" font-size="195.0px" font-family="CMUBright-Bold" style="text-anchor:end;fill:rgb(0,0,0);" transform="rotate(31.3,438.3,940.7)" >33</text>
<path d="M650.225,1042.717 A965.000,965.000 40.000 0,1 703.158,955.695 L571.039,865.447 A1125.000,1125.000 0.000 0,0 509.330,966.898 Z" style="stroke-width:2.0;stroke:rgb(115,115,115);stroke-linecap:round;fill:none;" />
<path d="M745.533,898.332 A965.000,965.000 40.000 0,1 813.153,822.160 L699.272,709.772 A1125.000,1125.000 0.000 0,0 620.440,798.574 Z" style="stroke-width:2.0;stroke:rgb(115,115,115);stroke-linecap:round;fill:rgb(66,146,198);" />
<text x="557.7" y="757.0" font-size="195.0px" font-family="CMUBright-Bold" style="text-anchor:end;fill:rgb(0,0,0);" transform="rotate(41.6,557.7,757.0)" >4</text>
<path d="M745.533,898.332 A965.000,965.000 40.000 0,1 813.153,822.160 L699.272,709.772 A1125.000,1125.000 0.000 0,0 620.440,798.574 Z" style="stroke-width:2.0;stroke:rgb(115,115,115);stroke-linecap:round;fill:none;" />
<path d="M865.089,773.286 A965.000,965.000 40.000 0,1 945.224,710.412 L853.241,579.496 A1125.000,1125.000 0.000 0,0 759.819,652.795 Z" style="stroke-width:2.0;stroke:rgb(115,115,115);stroke-linecap:round;fill:rgb(66,146,198);" />
<text x="704.0" y="602.0" font-size="195.0px" font-family="CMUBright-Bold" style="text-anchor:end;fill:rgb(0,0,0);" transform="rotate(51.9,704.0,602.0)" >14</text>
<path d="M865.089,773.286 A965.000,965.000 40.000 0,1 945.224,710.412 L853.241,579.496 A1125.000,1125.000 0.000 0,0 759.819,652.795 Z" style="stroke-width:2.0;stroke:rgb(115,115,115);stroke-linecap:round;fill:none;" />
<path d="M1005.052,671.597 A965.000,965.000 40.000 0,1 1095.126,624.042 L1027.997,478.806 A1125.000,1125.000 0.000 0,0 922.988,534.245 Z" style="stroke-width:2.0;stroke:rgb(115,115,115);stroke-linecap:round;fill:rgb(66,146,198);" />
<text x="875.4" y="475.4" font-size="195.0px" font-family="CMUBright-Bold" style="text-anchor:end;fill:rgb(0,0,0);" transform="rotate(62.2,875.4,475.4)" >18</text>
<path d="M1005.052,671.597 A965.000,965.000 40.000 0,1 1095.126,624.042 L1027.997,478.806 A1125.000,1125.000 0.000 0,0 922.988,534.245 Z" style="stroke-width:2.0;stroke:rgb(115,115,115);stroke-linecap:round;fill:none;" />
<path d="M1160.923,596.533 A965.000,965.000 40.000 0,1 1258.041,565.826 L1217.923,410.937 A1125.000,1125.000 0.000 0,0 1104.703,446.736 Z" style="stroke-width:2.0;stroke:rgb(115,115,115);stroke-linecap:round;fill:rgb(66,146,198);" />
<text x="1069.3" y="379.9" font-size="195.0px" font-family="CMUBright-Bold" style="text-anchor:end;fill:rgb(0,0,0);" transform="rotate(72.5,1069.3,379.9)" >27</text>
<path d="M1160.923,596.533 A965.000,965.000 40.000 0,1 1258.041,565.826 L1217.923,410.937 A1125.000,1125.000 0.000 0,0 1104.703,446.736 Z" style="stroke-width:2.0;stroke:rgb(115,115,115);stroke-linecap:round;fill:none;" />
<path d="M1327.693,550.508 A965.000,965.000 40.000 0,1 1428.732,537.635 L1416.916,378.072 A1125.000,1125.000 0.000 0,0 1299.123,393.079 Z" style="stroke-width:2.0;stroke:rgb(115,115,115);stroke-linecap:round;fill:rgb(66,146,198);" />
<text x="1275.3" y="321.2" font-size="195.0px" font-family="CMUBright-Bold" style="text-anchor:end;fill:rgb(0,0,0);" transform="rotate(82.7,1275.3,321.2)" >29</text>
<path d="M1327.693,550.508 A965.000,965.000 40.000 0,1 1428.732,537.635 L1416.916,378.072 A1125.000,1125.000 0.000 0,0 1299.123,393.079 Z" style="stroke-width:2.0;stroke:rgb(115,115,115);stroke-linecap:round;fill:none;" />
</g>
<g id="track_1">
<path d="M 2128.3,2167.6 L 2102.6,2141.0 2076.3,2114.9 2049.4,2089.6 2022.1,2065.2 1994.4,2041.9 1966.3,2019.9 1937.9,1999.3 1909.4,1980.3 1880.8,1962.9 1852.1,1947.2 1823.4,1933.5 1794.8,1921.7 1766.4,1911.9 1738.1,1904.2 1710.1,1898.7 1682.3,1895.4 1655.0,1894.3 1628.0,1895.5 1601.4,1898.9 1575.3,1904.7 1549.8,1912.7 1524.8,1922.9 1500.4,1935.4 1476.6,1950.0 1453.5,1966.8 1431.0,1985.6 1409.3,2006.5 1388.3,2029.2 1368.0,2053.7 1348.6,2079.9 1329.9,2107.7 1312.0,2137.0 1294.9,2167.6 1278.6,2199.3 1263.2,2232.1 1248.6,2265.7 1234.8,2299.9 1221.9,2334.6 1209.8,2369.6  " style="stroke-opacity: 1.000000; stroke-width: 5.0; stroke: rgb(251,106,74); fill: none"  />
<path d="M 2128.3,2167.6 L 2100.0,2137.0 2072.1,2105.6 2044.5,2073.3 2017.5,2040.3 1991.1,2006.5 1965.3,1971.9 1940.2,1936.6 1915.9,1900.6 1892.5,1863.9 1870.0,1826.6 1848.4,1788.6 1827.8,1750.0 1808.3,1710.8 1789.8,1671.0 1772.5,1630.8 1756.3,1590.0 1741.3,1548.8 1727.5,1507.2 1715.0,1465.2 1703.6,1422.8 1693.6,1380.2 1684.7,1337.2 1677.1,1294.0 1670.8,1250.7 1665.7,1207.1 1661.9,1163.5 1659.2,1119.8 1657.8,1076.1 1657.5,1032.4 1658.4,988.7 1660.4,945.2 1663.5,901.9 1667.6,858.8 1672.6,816.0 1678.7,773.5 1685.6,731.4 1693.3,689.7 1701.9,648.5 1711.1,607.9  " style="stroke-opacity: 1.000000; stroke-width: 5.0; stroke: rgb(251,106,74); fill: none"  />
<path d="M 2128.3,2167.6 L 2102.2,2140.5 2075.3,2114.0 2047.8,2088.2 2019.6,2063.4 1990.9,2039.6 1961.7,2017.0 1932.1,1995.7 1902.1,1975.9 1871.8,1957.7 1841.3,1941.2 1810.5,1926.4 1779.6,1913.5 1748.6,1902.6 1717.6,1893.6 1686.6,1886.7 1655.7,1881.9 1624.9,1879.3 1594.2,1878.8 1563.8,1880.4 1533.6,1884.3 1503.7,1890.3 1474.2,1898.5 1445.0,1908.8 1416.3,1921.2 1388.0,1935.6 1360.2,1952.0 1333.0,1970.4 1306.3,1990.6 1280.3,2012.6 1254.8,2036.3 1230.1,2061.5 1206.0,2088.2 1182.6,2116.2 1160.0,2145.4 1138.2,2175.7 1117.2,2206.8 1097.0,2238.6 1077.7,2271.1 1059.2,2303.8  " style="stroke-opacity: 1.000000; stroke-width: 5.0; stroke: rgb(251,106,74); fill: none"  />
<path d="M 2128.3,2167.6 L 2097.1,2134.4 2066.1,2100.8 2035.1,2066.9 2004.2,2032.7 1973.4,1998.2 1942.7,1963.4 1912.1,1928.3 1881.8,1892.9 1851.5,1857.2 1821.5,1821.2 1791.7,1784.9 1762.1,1748.3 1732.7,1711.5 1703.5,1674.4 1674.6,1637.0 1645.9,1599.4 1617.5,1561.5 1589.4,1523.4 1561.6,1485.1 1534.0,1446.6 1506.8,1407.8 1479.9,1368.9 1453.3,1329.7 1426.9,1290.4 1401.0,1251.0 1375.3,1211.4 1350.0,1171.6 1325.0,1131.7 1300.3,1091.8 1276.0,1051.7 1252.0,1011.5 1228.4,971.3 1205.0,931.0 1182.0,890.7 1159.4,850.4 1137.0,810.1 1115.0,769.8 1093.4,729.5 1072.0,689.3  " style="stroke-opacity: 1.000000; stroke-width: 5.0; stroke: rgb(251,106,74); fill: none"  />
<path d="M 2128.3,2167.6 L 2097.9,2135.0 2067.6,2102.0 2037.5,2068.4 2007.5,2034.3 1977.7,1999.8 1948.2,1964.8 1918.9,1929.3 1890.0,1893.4 1861.3,1857.0 1833.0,1820.2 1805.0,1782.9 1777.5,1745.2 1750.3,1707.1 1723.6,1668.6 1697.3,1629.7 1671.5,1590.4 1646.1,1550.7 1621.3,1510.8 1596.9,1470.4 1573.1,1429.8 1549.7,1388.9 1527.0,1347.7 1504.7,1306.2 1483.0,1264.5 1461.9,1222.6 1441.3,1180.5 1421.3,1138.2 1401.8,1095.7 1382.9,1053.1 1364.6,1010.4 1346.8,967.7 1329.5,924.9 1312.8,882.0 1296.7,839.2 1281.1,796.3 1265.9,753.6 1251.3,710.9 1237.2,668.3 1223.6,625.9  " style="stroke-opacity: 1.000000; stroke-width: 5.0; stroke: rgb(251,106,74); fill: none"  />
<path d="M 1209.8,2369.6 L 1221.9,2334.6 1234.8,2299.9 1248.6,2265.7 1263.2,2232.1 1278.6,2199.3 1294.9,2167.6 1312.0,2137.0 1329.9,2107.7 1348.6,2079.9 1368.0,2053.7 1388.3,2029.2 1409.3,2006.5 1431.0,1985.6 1453.5,1966.8 1476.6,1950.0 1500.4,1935.4 1524.8,1922.9 1549.8,1912.7 1575.3,1904.7 1601.4,1898.9 1628.0,1895.5 1655.0,1894.3 1682.3,1895.4 1710.1,1898.7 1738.1,1904.2 1766.4,1911.9 1794.8,1921.7 1823.4,1933.5 1852.1,1947.2 1880.8,1962.9 1909.4,1980.3 1937.9,1999.3 1966.3,2019.9 1994.4,2041.9 2022.1,2065.2 2049.4,2089.6 2076.3,2114.9 2102.6,2141.0 2128.3,2167.6  " style="stroke-opacity: 1.000000; stroke-width: 5.0; stroke: rgb(251,106,74); fill: none"  />
<path d="M 1209.8,2369.6 L 1224.3,2326.5 1239.2,2283.2 1254.3,2239.8 1269.8,2196.4 1285.6,2152.9 1301.7,2109.4 1318.1,2065.9 1334.9,2022.4 1352.0,1978.8 1369.5,1935.3 1387.3,1891.9 1405.5,1848.4 1424.0,1805.1 1442.9,1761.8 1462.1,1718.7 1481.6,1675.6 1501.5,1632.7 1521.7,1589.8 1542.3,1547.2 1563.2,1504.7 1584.4,1462.3 1605.9,1420.1 1627.8,1378.2 1649.9,1336.4 1672.4,1294.8 1695.1,1253.4 1718.1,1212.3 1741.4,1171.4 1764.9,1130.7 1788.6,1090.3 1812.6,1050.1 1836.8,1010.3 1861.3,970.6 1885.9,931.3 1910.6,892.2 1935.5,853.5 1960.6,815.0 1985.8,776.8 2011.1,738.9  " style="stroke-opacity: 1.000000; stroke-width: 5.0; stroke: rgb(251,106,74); fill: none"  />
<path d="M 1711.1,607.9 L 1701.9,648.5 1693.3,689.7 1685.6,731.4 1678.7,773.5 1672.6,816.0 1667.6,858.8 1663.5,901.9 1660.4,945.2 1658.4,988.7 1657.5,1032.4 1657.8,1076.1 1659.2,1119.8 1661.9,1163.5 1665.7,1207.1 1670.8,1250.7 1677.1,1294.0 1684.7,1337.2 1693.6,1380.2 1703.6,1422.8 1715.0,1465.2 1727.5,1507.2 1741.3,1548.8 1756.3,1590.0 1772.5,1630.8 1789.8,1671.0 1808.3,1710.8 1827.8,1750.0 1848.4,1788.6 1870.0,1826.6 1892.5,1863.9 1915.9,1900.6 1940.2,1936.6 1965.3,1971.9 1991.1,2006.5 2017.5,2040.3 2044.5,2073.3 2072.1,2105.6 2100.0,2137.0 2128.3,2167.6  " style="stroke-opacity: 1.000000; stroke-width: 5.0; stroke: rgb(251,106,74); fill: none"  />
<path d="M 1711.1,607.9 L 1700.5,652.2 1689.6,696.6 1678.4,741.1 1666.9,785.7 1655.0,830.5 1642.9,875.2 1630.4,920.1 1617.6,965.0 1604.4,1009.8 1590.9,1054.7 1577.1,1099.6 1562.9,1144.5 1548.3,1189.3 1533.4,1234.1 1518.2,1278.8 1502.6,1323.5 1486.6,1368.0 1470.3,1412.5 1453.6,1456.8 1436.7,1501.0 1419.3,1545.1 1401.7,1589.0 1383.7,1632.8 1365.4,1676.4 1346.7,1719.8 1327.8,1763.1 1308.6,1806.1 1289.1,1848.9 1269.3,1891.5 1249.2,1933.9 1229.0,1976.1 1208.4,2018.0 1187.7,2059.6 1166.7,2101.0 1145.5,2142.1 1124.2,2183.0 1102.6,2223.6 1081.0,2263.8 1059.2,2303.8  " style="stroke-opacity: 1.000000; stroke-width: 5.0; stroke: rgb(251,106,74); fill: none"  />
<path d="M 1711.1,607.9 L 1701.1,648.3 1690.3,689.0 1678.5,729.7 1665.8,770.4 1652.2,811.1 1637.5,851.7 1621.9,892.1 1605.2,932.2 1587.5,972.0 1568.7,1011.3 1548.9,1050.3 1528.0,1088.7 1506.1,1126.6 1483.1,1163.9 1459.0,1200.5 1433.9,1236.5 1407.8,1271.7 1380.7,1306.1 1352.5,1339.8 1323.4,1372.6 1293.4,1404.5 1262.4,1435.5 1230.5,1465.6 1197.8,1494.8 1164.3,1523.0 1130.0,1550.3 1095.0,1576.6 1059.3,1601.9 1022.9,1626.2 986.0,1649.5 948.6,1671.8 910.8,1693.1 872.6,1713.4 834.0,1732.7 795.2,1751.1 756.3,1768.6 717.2,1785.0 678.2,1800.6 639.2,1815.3  " style="stroke-opacity: 1.000000; stroke-width: 5.0; stroke: rgb(251,106,74); fill: none"  />
<path d="M 1867.0,659.9 L 1849.3,699.7 1830.9,739.6 1811.9,779.6 1792.2,819.5 1771.8,859.4 1750.7,899.2 1728.9,938.9 1706.4,978.4 1683.2,1017.6 1659.2,1056.6 1634.5,1095.3 1609.2,1133.7 1583.1,1171.8 1556.3,1209.4 1528.7,1246.6 1500.5,1283.4 1471.7,1319.7 1442.1,1355.5 1411.9,1390.8 1381.1,1425.5 1349.7,1459.7 1317.6,1493.2 1285.0,1526.2 1251.8,1558.6 1218.1,1590.3 1183.9,1621.4 1149.3,1651.8 1114.1,1681.6 1078.6,1710.6 1042.7,1739.1 1006.5,1766.8 970.0,1793.8 933.2,1820.2 896.1,1845.8 858.9,1870.8 821.6,1895.1 784.2,1918.7 746.8,1941.7 709.3,1964.0  " style="stroke-opacity: 1.000000; stroke-width: 5.0; stroke: rgb(251,106,74); fill: none"  />
<path d="M 1999.0,2269.1 L 1977.1,2234.7 1955.9,2199.5 1935.3,2163.5 1915.4,2126.9 1896.4,2089.6 1878.3,2051.7 1861.2,2013.2 1845.2,1974.2 1830.3,1934.7 1816.6,1894.8 1804.1,1854.5 1792.9,1813.9 1783.1,1772.9 1774.7,1731.7 1767.7,1690.2 1762.1,1648.6 1757.9,1606.8 1755.3,1564.9 1754.1,1523.0 1754.5,1481.0 1756.3,1439.1 1759.6,1397.3 1764.4,1355.6 1770.6,1314.1 1778.3,1272.7 1787.4,1231.6 1797.9,1190.8 1809.7,1150.3 1822.8,1110.2 1837.1,1070.5 1852.6,1031.3 1869.3,992.6 1887.0,954.4 1905.7,916.8 1925.3,879.8 1945.7,843.5 1966.9,807.9 1988.7,773.0 2011.1,738.9  " style="stroke-opacity: 1.000000; stroke-width: 5.0; stroke: rgb(251,106,74); fill: none"  />
<path d="M 1999.0,2269.1 L 1978.5,2238.3 1957.3,2207.9 1935.3,2178.2 1912.8,2149.3 1889.6,2121.5 1865.9,2094.8 1841.7,2069.5 1817.1,2045.7 1792.0,2023.4 1766.6,2002.9 1740.8,1984.3 1714.8,1967.5 1688.5,1952.8 1662.1,1940.2 1635.5,1929.8 1608.8,1921.6 1582.1,1915.6 1555.3,1912.0 1528.5,1910.6 1501.9,1911.6 1475.3,1914.9 1448.9,1920.6 1422.6,1928.5 1396.6,1938.6 1370.9,1951.0 1345.4,1965.5 1320.3,1982.1 1295.6,2000.7 1271.3,2021.2 1247.4,2043.6 1224.1,2067.6 1201.3,2093.2 1179.0,2120.2 1157.3,2148.6 1136.3,2178.0 1115.9,2208.5 1096.3,2239.7 1077.4,2271.6 1059.2,2303.8  " style="stroke-opacity: 1.000000; stroke-width: 5.0; stroke: rgb(251,106,74); fill: none"  />
<path d="M 1999.0,2269.1 L 1973.6,2230.1 1948.1,2191.0 1922.6,2152.0 1896.9,2113.0 1871.1,2073.9 1845.1,2034.9 1819.1,1995.9 1793.0,1956.9 1766.7,1917.9 1740.3,1879.0 1713.8,1840.1 1687.2,1801.2 1660.5,1762.4 1633.7,1723.6 1606.7,1684.9 1579.7,1646.2 1552.5,1607.6 1525.3,1569.0 1497.9,1530.5 1470.5,1492.1 1442.9,1453.7 1415.3,1415.4 1387.5,1377.2 1359.7,1339.1 1331.8,1301.1 1303.8,1263.1 1275.7,1225.3 1247.5,1187.5 1219.3,1149.8 1191.0,1112.3 1162.7,1074.8 1134.3,1037.4 1105.8,1000.1 1077.3,963.0 1048.7,925.9 1020.1,889.0 991.5,852.1 962.8,815.4 934.1,778.8  " style="stroke-opacity: 1.000000; stroke-width: 5.0; stroke: rgb(251,106,74); fill: none"  />
<path d="M 1999.0,2269.1 L 1973.7,2230.0 1948.4,2190.9 1923.2,2151.6 1898.0,2112.2 1872.9,2072.8 1847.8,2033.2 1822.8,1993.5 1797.9,1953.7 1773.0,1913.9 1748.2,1873.9 1723.4,1833.9 1698.8,1793.7 1674.2,1753.5 1649.7,1713.2 1625.3,1672.8 1601.0,1632.4 1576.8,1591.8 1552.7,1551.2 1528.7,1510.5 1504.8,1469.8 1481.0,1429.0 1457.3,1388.2 1433.7,1347.3 1410.3,1306.3 1386.9,1265.3 1363.7,1224.3 1340.5,1183.2 1317.5,1142.1 1294.6,1101.0 1271.8,1059.8 1249.2,1018.7 1226.6,977.5 1204.2,936.3 1181.9,895.1 1159.7,853.9 1137.6,812.7 1115.6,771.6 1093.7,730.4 1072.0,689.3  " style="stroke-opacity: 1.000000; stroke-width: 5.0; stroke: rgb(251,106,74); fill: none"  />
<path d="M 2011.1,738.9 L 1985.8,776.8 1960.6,815.0 1935.5,853.5 1910.6,892.2 1885.9,931.3 1861.3,970.6 1836.8,1010.3 1812.6,1050.1 1788.6,1090.3 1764.9,1130.7 1741.4,1171.4 1718.1,1212.3 1695.1,1253.4 1672.4,1294.8 1649.9,1336.4 1627.8,1378.2 1605.9,1420.1 1584.4,1462.3 1563.2,1504.7 1542.3,1547.2 1521.7,1589.8 1501.5,1632.7 1481.6,1675.6 1462.1,1718.7 1442.9,1761.8 1424.0,1805.1 1405.5,1848.4 1387.3,1891.9 1369.5,1935.3 1352.0,1978.8 1334.9,2022.4 1318.1,2065.9 1301.7,2109.4 1285.6,2152.9 1269.8,2196.4 1254.3,2239.8 1239.2,2283.2 1224.3,2326.5 1209.8,2369.6  " style="stroke-opacity: 1.000000; stroke-width: 5.0; stroke: rgb(251,106,74); fill: none"  />
<path d="M 2011.1,738.9 L 1988.7,773.0 1966.9,807.9 1945.7,843.5 1925.3,879.8 1905.7,916.8 1887.0,954.4 1869.3,992.6 1852.6,1031.3 1837.1,1070.5 1822.8,1110.2 1809.7,1150.3 1797.9,1190.8 1787.4,1231.6 1778.3,1272.7 1770.6,1314.1 1764.4,1355.6 1759.6,1397.3 1756.3,1439.1 1754.5,1481.0 1754.1,1523.0 1755.3,1564.9 1757.9,1606.8 1762.1,1648.6 1767.7,1690.2 1774.7,1731.7 1783.1,1772.9 1792.9,1813.9 1804.1,1854.5 1816.6,1894.8 1830.3,1934.7 1845.2,1974.2 1861.2,2013.2 1878.3,2051.7 1896.4,2089.6 1915.4,2126.9 1935.3,2163.5 1955.9,2199.5 1977.1,2234.7 1999.0,2269.1  " style="stroke-opacity: 1.000000; stroke-width: 5.0; stroke: rgb(251,106,74); fill: none"  />
<path d="M 1059.2,2303.8 L 1077.7,2271.1 1097.0,2238.6 1117.2,2206.8 1138.2,2175.7 1160.0,2145.4 1182.6,2116.2 1206.0,2088.2 1230.1,2061.5 1254.8,2036.3 1280.3,2012.6 1306.3,1990.6 1333.0,1970.4 1360.2,1952.0 1388.0,1935.6 1416.3,1921.2 1445.0,1908.8 1474.2,1898.5 1503.7,1890.3 1533.6,1884.3 1563.8,1880.4 1594.2,1878.8 1624.9,1879.3 1655.7,1881.9 1686.6,1886.7 1717.6,1893.6 1748.6,1902.6 1779.6,1913.5 1810.5,1926.4 1841.3,1941.2 1871.8,1957.7 1902.1,1975.9 1932.1,1995.7 1961.7,2017.0 1990.9,2039.6 2019.6,2063.4 2047.8,2088.2 2075.3,2114.0 2102.2,2140.5 2128.3,2167.6  " style="stroke-opacity: 1.000000; stroke-width: 5.0; stroke: rgb(251,106,74); fill: none"  />
<path d="M 1059.2,2303.8 L 1081.0,2263.8 1102.6,2223.6 1124.2,2183.0 1145.5,2142.1 1166.7,2101.0 1187.7,2059.6 1208.4,2018.0 1229.0,1976.1 1249.2,1933.9 1269.3,1891.5 1289.1,1848.9 1308.6,1806.1 1327.8,1763.1 1346.7,1719.8 1365.4,1676.4 1383.7,1632.8 1401.7,1589.0 1419.3,1545.1 1436.7,1501.0 1453.6,1456.8 1470.3,1412.5 1486.6,1368.0 1502.6,1323.5 1518.2,1278.8 1533.4,1234.1 1548.3,1189.3 1562.9,1144.5 1577.1,1099.6 1590.9,1054.7 1604.4,1009.8 1617.6,965.0 1630.4,920.1 1642.9,875.2 1655.0,830.5 1666.9,785.7 1678.4,741.1 1689.6,696.6 1700.5,652.2 1711.1,607.9  " style="stroke-opacity: 1.000000; stroke-width: 5.0; stroke: rgb(251,106,74); fill: none"  />
<path d="M 1059.2,2303.8 L 1077.4,2271.6 1096.3,2239.7 1115.9,2208.5 1136.3,2178.0 1157.3,2148.6 1179.0,2120.2 1201.3,2093.2 1224.1,2067.6 1247.4,2043.6 1271.3,2021.2 1295.6,2000.7 1320.3,1982.1 1345.4,1965.5 1370.9,1951.0 1396.6,1938.6 1422.6,1928.5 1448.9,1920.6 1475.3,1914.9 1501.9,1911.6 1528.5,1910.6 1555.3,1912.0 1582.1,1915.6 1608.8,1921.6 1635.5,1929.8 1662.1,1940.2 1688.5,1952.8 1714.8,1967.5 1740.8,1984.3 1766.6,2002.9 1792.0,2023.4 1817.1,2045.7 1841.7,2069.5 1865.9,2094.8 1889.6,2121.5 1912.8,2149.3 1935.3,2178.2 1957.3,2207.9 1978.5,2238.3 1999.0,2269.1  " style="stroke-opacity: 1.000000; stroke-width: 5.0; stroke: rgb(251,106,74); fill: none"  />
<path d="M 1059.2,2303.8 L 1076.6,2272.7 1094.3,2241.9 1112.3,2211.8 1130.5,2182.5 1148.8,2154.3 1167.2,2127.4 1185.5,2101.9 1203.8,2077.9 1222.0,2055.7 1240.0,2035.4 1257.7,2017.1 1275.2,2000.9 1292.3,1987.0 1309.0,1975.3 1325.3,1966.0 1341.1,1959.2 1356.5,1954.8 1371.2,1952.9 1385.5,1953.6 1399.1,1956.9 1412.1,1962.6 1424.5,1970.9 1436.3,1981.7 1447.3,1994.9 1457.7,2010.5 1467.5,2028.4 1476.5,2048.6 1484.8,2070.9 1492.5,2095.2 1499.5,2121.4 1505.8,2149.4 1511.4,2179.0 1516.4,2210.0 1520.8,2242.3 1524.5,2275.8 1527.7,2310.1 1530.3,2345.1 1532.3,2380.5 1533.9,2416.1  " style="stroke-opacity: 1.000000; stroke-width: 5.0; stroke: rgb(251,106,74); fill: none"  />
<path d="M 1059.2,2303.8 L 1076.4,2272.8 1093.7,2242.2 1111.2,2212.2 1128.7,2183.1 1146.1,2154.9 1163.3,2128.0 1180.3,2102.4 1197.0,2078.5 1213.4,2056.2 1229.2,2035.8 1244.6,2017.4 1259.4,2001.1 1273.7,1987.0 1287.2,1975.2 1300.1,1965.8 1312.3,1958.7 1323.7,1954.1 1334.2,1952.1 1344.0,1952.5 1353.0,1955.5 1361.1,1961.0 1368.3,1969.0 1374.6,1979.5 1380.1,1992.5 1384.7,2007.8 1388.5,2025.4 1391.4,2045.2 1393.5,2067.1 1394.7,2091.1 1395.2,2116.9 1394.9,2144.5 1393.8,2173.7 1392.1,2204.3 1389.7,2236.2 1386.7,2269.2 1383.2,2303.0 1379.1,2337.5 1374.6,2372.4 1369.8,2407.5  " style="stroke-opacity: 1.000000; stroke-width: 5.0; stroke: rgb(251,106,74); fill: none"  />
<path d="M 934.1,778.8 L 962.8,815.4 991.5,852.1 1020.1,889.0 1048.7,925.9 1077.3,963.0 1105.8,1000.1 1134.3,1037.4 1162.7,1074.8 1191.0,1112.3 1219.3,1149.8 1247.5,1187.5 1275.7,1225.3 1303.8,1263.1 1331.8,1301.1 1359.7,1339.1 1387.5,1377.2 1415.3,1415.4 1442.9,1453.7 1470.5,1492.1 1497.9,1530.5 1525.3,1569.0 1552.5,1607.6 1579.7,1646.2 1606.7,1684.9 1633.7,1723.6 1660.5,1762.4 1687.2,1801.2 1713.8,1840.1 1740.3,1879.0 1766.7,1917.9 1793.0,1956.9 1819.1,1995.9 1845.1,2034.9 1871.1,2073.9 1896.9,2113.0 1922.6,2152.0 1948.1,2191.0 1973.6,2230.1 1999.0,2269.1  " style="stroke-opacity: 1.000000; stroke-width: 5.0; stroke: rgb(251,106,74); fill: none"  />
<path d="M 922.8,2212.2 L 946.0,2184.1 969.8,2156.5 994.1,2129.7 1018.8,2103.8 1043.8,2079.0 1069.0,2055.4 1094.4,2033.3 1119.9,2012.8 1145.4,1993.9 1170.9,1976.9 1196.3,1961.8 1221.5,1948.8 1246.5,1937.8 1271.3,1929.0 1295.7,1922.5 1319.7,1918.3 1343.3,1916.4 1366.4,1916.9 1389.0,1919.7 1411.1,1924.9 1432.6,1932.5 1453.5,1942.5 1473.8,1954.8 1493.4,1969.3 1512.2,1986.1 1530.4,2005.0 1547.9,2026.0 1564.5,2049.0 1580.5,2073.8 1595.6,2100.5 1610.0,2128.7 1623.6,2158.5 1636.4,2189.7 1648.4,2222.0 1659.6,2255.4 1670.1,2289.6 1679.8,2324.5 1688.7,2359.8 1696.9,2395.4  " style="stroke-opacity: 1.000000; stroke-width: 5.0; stroke: rgb(251,106,74); fill: none"  />
<path d="M 922.8,2212.2 L 949.3,2178.9 975.6,2144.9 1001.5,2110.1 1026.9,2074.6 1051.9,2038.5 1076.3,2001.7 1100.0,1964.3 1123.2,1926.2 1145.6,1887.6 1167.3,1848.3 1188.1,1808.5 1208.2,1768.2 1227.4,1727.3 1245.6,1686.0 1263.0,1644.2 1279.4,1602.0 1294.8,1559.4 1309.3,1516.4 1322.7,1473.1 1335.1,1429.5 1346.5,1385.6 1356.8,1341.5 1366.2,1297.1 1374.4,1252.6 1381.7,1208.0 1387.9,1163.2 1393.1,1118.4 1397.3,1073.5 1400.5,1028.7 1402.7,983.9 1404.0,939.3 1404.4,894.7 1403.8,850.4 1402.5,806.2 1400.3,762.4 1397.3,718.8 1393.6,675.7 1389.2,632.9 1384.1,590.6  " style="stroke-opacity: 1.000000; stroke-width: 5.0; stroke: rgb(251,106,74); fill: none"  />
<path d="M 922.8,2212.2 L 945.4,2184.6 968.3,2157.5 991.4,2131.1 1014.5,2105.6 1037.6,2081.1 1060.5,2057.9 1083.1,2036.0 1105.4,2015.8 1127.3,1997.2 1148.6,1980.4 1169.3,1965.6 1189.4,1952.8 1208.7,1942.1 1227.2,1933.6 1244.9,1927.3 1261.7,1923.4 1277.6,1921.9 1292.4,1922.7 1306.3,1925.9 1319.2,1931.5 1330.9,1939.5 1341.7,1949.9 1351.3,1962.6 1359.8,1977.5 1367.3,1994.8 1373.6,2014.1 1378.9,2035.6 1383.2,2059.0 1386.4,2084.3 1388.5,2111.3 1389.7,2140.0 1390.0,2170.1 1389.4,2201.5 1387.9,2234.1 1385.6,2267.7 1382.6,2302.0 1378.9,2336.9 1374.6,2372.1 1369.8,2407.5  " style="stroke-opacity: 1.000000; stroke-width: 5.0; stroke: rgb(251,106,74); fill: none"  />
<path d="M 1696.9,2395.4 L 1688.7,2359.8 1679.8,2324.5 1670.1,2289.6 1659.6,2255.4 1648.4,2222.0 1636.4,2189.7 1623.6,2158.5 1610.0,2128.7 1595.6,2100.5 1580.5,2073.8 1564.5,2049.0 1547.9,2026.0 1530.4,2005.0 1512.2,1986.1 1493.4,1969.3 1473.8,1954.8 1453.5,1942.5 1432.6,1932.5 1411.1,1924.9 1389.0,1919.7 1366.4,1916.9 1343.3,1916.4 1319.7,1918.3 1295.7,1922.5 1271.3,1929.0 1246.5,1937.8 1221.5,1948.8 1196.3,1961.8 1170.9,1976.9 1145.4,1993.9 1119.9,2012.8 1094.4,2033.3 1069.0,2055.4 1043.8,2079.0 1018.8,2103.8 994.1,2129.7 969.8,2156.5 946.0,2184.1 922.8,2212.2  " style="stroke-opacity: 1.000000; stroke-width: 5.0; stroke: rgb(251,106,74); fill: none"  />
<path d="M 1696.9,2395.4 L 1687.0,2350.9 1676.8,2306.3 1666.3,2261.6 1655.5,2216.8 1644.4,2171.9 1633.0,2126.9 1621.2,2081.9 1609.1,2036.8 1596.7,1991.8 1583.9,1946.6 1570.7,1901.5 1557.2,1856.5 1543.4,1811.4 1529.2,1766.4 1514.7,1721.4 1499.8,1676.6 1484.5,1631.8 1468.9,1587.0 1453.0,1542.5 1436.7,1498.0 1420.0,1453.6 1403.1,1409.4 1385.8,1365.4 1368.2,1321.5 1350.2,1277.8 1332.0,1234.2 1313.5,1190.9 1294.6,1147.8 1275.5,1104.9 1256.2,1062.2 1236.5,1019.7 1216.7,977.5 1196.6,935.5 1176.2,893.8 1155.7,852.3 1135.0,811.1 1114.2,770.2 1093.1,729.6 1072.0,689.3  " style="stroke-opacity: 1.000000; stroke-width: 5.0; stroke: rgb(251,106,74); fill: none"  />
<path d="M 1072.0,689.3 L 1093.4,729.5 1115.0,769.8 1137.0,810.1 1159.4,850.4 1182.0,890.7 1205.0,931.0 1228.4,971.3 1252.0,1011.5 1276.0,1051.7 1300.3,1091.8 1325.0,1131.7 1350.0,1171.6 1375.3,1211.4 1401.0,1251.0 1426.9,1290.4 1453.3,1329.7 1479.9,1368.9 1506.8,1407.8 1534.0,1446.6 1561.6,1485.1 1589.4,1523.4 1617.5,1561.5 1645.9,1599.4 1674.6,1637.0 1703.5,1674.4 1732.7,1711.5 1762.1,1748.3 1791.7,1784.9 1821.5,1821.2 1851.5,1857.2 1881.8,1892.9 1912.1,1928.3 1942.7,1963.4 1973.4,1998.2 2004.2,2032.7 2035.1,2066.9 2066.1,2100.8 2097.1,2134.4 2128.3,2167.6  " style="stroke-opacity: 1.000000; stroke-width: 5.0; stroke: rgb(251,106,74); fill: none"  />
<path d="M 1072.0,689.3 L 1093.7,730.4 1115.6,771.6 1137.6,812.7 1159.7,853.9 1181.9,895.1 1204.2,936.3 1226.6,977.5 1249.2,1018.7 1271.8,1059.8 1294.6,1101.0 1317.5,1142.1 1340.5,1183.2 1363.7,1224.3 1386.9,1265.3 1410.3,1306.3 1433.7,1347.3 1457.3,1388.2 1481.0,1429.0 1504.8,1469.8 1528.7,1510.5 1552.7,1551.2 1576.8,1591.8 1601.0,1632.4 1625.3,1672.8 1649.7,1713.2 1674.2,1753.5 1698.8,1793.7 1723.4,1833.9 1748.2,1873.9 1773.0,1913.9 1797.9,1953.7 1822.8,1993.5 1847.8,2033.2 1872.9,2072.8 1898.0,2112.2 1923.2,2151.6 1948.4,2190.9 1973.7,2230.0 1999.0,2269.1  " style="stroke-opacity: 1.000000; stroke-width: 5.0; stroke: rgb(251,106,74); fill: none"  />
<path d="M 1072.0,689.3 L 1093.1,729.6 1114.2,770.2 1135.0,811.1 1155.7,852.3 1176.2,893.8 1196.6,935.5 1216.7,977.5 1236.5,1019.7 1256.2,1062.2 1275.5,1104.9 1294.6,1147.8 1313.5,1190.9 1332.0,1234.2 1350.2,1277.8 1368.2,1321.5 1385.8,1365.4 1403.1,1409.4 1420.0,1453.6 1436.7,1498.0 1453.0,1542.5 1468.9,1587.0 1484.5,1631.8 1499.8,1676.6 1514.7,1721.4 1529.2,1766.4 1543.4,1811.4 1557.2,1856.5 1570.7,1901.5 1583.9,1946.6 1596.7,1991.8 1609.1,2036.8 1621.2,2081.9 1633.0,2126.9 1644.4,2171.9 1655.5,2216.8 1666.3,2261.6 1676.8,2306.3 1687.0,2350.9 1696.9,2395.4  " style="stroke-opacity: 1.000000; stroke-width: 5.0; stroke: rgb(251,106,74); fill: none"  />
<path d="M 1072.0,689.3 L 1092.1,728.0 1111.9,767.2 1131.2,807.0 1150.2,847.3 1168.6,888.1 1186.6,929.4 1204.0,971.2 1220.9,1013.4 1237.1,1056.0 1252.6,1099.1 1267.5,1142.5 1281.7,1186.3 1295.2,1230.4 1307.9,1274.8 1319.8,1319.6 1331.0,1364.5 1341.4,1409.7 1350.9,1455.2 1359.7,1500.7 1367.6,1546.5 1374.7,1592.4 1381.0,1638.4 1386.4,1684.4 1391.1,1730.6 1394.9,1776.7 1397.8,1822.8 1400.0,1868.9 1401.4,1914.9 1402.0,1960.8 1401.8,2006.6 1400.9,2052.2 1399.2,2097.6 1396.9,2142.8 1393.9,2187.7 1390.2,2232.4 1385.9,2276.7 1381.1,2320.7 1375.7,2364.3 1369.8,2407.5  " style="stroke-opacity: 1.000000; stroke-width: 5.0; stroke: rgb(251,106,74); fill: none"  />
<path d="M 804.9,2097.7 L 832.4,2074.4 860.2,2051.8 888.3,2029.8 916.3,2008.9 944.4,1989.0 972.2,1970.4 999.7,1953.2 1026.9,1937.5 1053.5,1923.5 1079.5,1911.3 1104.8,1900.9 1129.4,1892.4 1153.1,1886.0 1175.9,1881.7 1197.7,1879.4 1218.5,1879.4 1238.2,1881.6 1256.8,1886.0 1274.2,1892.6 1290.3,1901.5 1305.3,1912.6 1319.0,1925.9 1331.4,1941.3 1342.5,1958.9 1352.4,1978.4 1361.0,2000.0 1368.3,2023.5 1374.4,2048.7 1379.3,2075.7 1382.9,2104.2 1385.4,2134.2 1386.8,2165.5 1387.1,2197.9 1386.4,2231.4 1384.7,2265.7 1382.1,2300.7 1378.7,2336.1 1374.6,2371.7 1369.8,2407.5  " style="stroke-opacity: 1.000000; stroke-width: 5.0; stroke: rgb(251,106,74); fill: none"  />
<path d="M 709.3,1964.0 L 746.8,1941.7 784.2,1918.7 821.6,1895.1 858.9,1870.8 896.1,1845.8 933.2,1820.2 970.0,1793.8 1006.5,1766.8 1042.7,1739.1 1078.6,1710.6 1114.1,1681.6 1149.3,1651.8 1183.9,1621.4 1218.1,1590.3 1251.8,1558.6 1285.0,1526.2 1317.6,1493.2 1349.7,1459.7 1381.1,1425.5 1411.9,1390.8 1442.1,1355.5 1471.7,1319.7 1500.5,1283.4 1528.7,1246.6 1556.3,1209.4 1583.1,1171.8 1609.2,1133.7 1634.5,1095.3 1659.2,1056.6 1683.2,1017.6 1706.4,978.4 1728.9,938.9 1750.7,899.2 1771.8,859.4 1792.2,819.5 1811.9,779.6 1830.9,739.6 1849.3,699.7 1867.0,659.9  " style="stroke-opacity: 1.000000; stroke-width: 5.0; stroke: rgb(251,106,74); fill: none"  />
<path d="M 709.3,1964.0 L 741.0,1945.8 772.9,1928.4 805.1,1911.8 837.3,1896.2 869.4,1881.8 901.3,1868.6 932.9,1856.8 964.0,1846.5 994.5,1837.9 1024.3,1830.9 1053.4,1825.7 1081.6,1822.3 1108.9,1820.8 1135.1,1821.3 1160.2,1823.8 1184.2,1828.3 1207.0,1834.8 1228.5,1843.3 1248.6,1854.0 1267.5,1866.6 1284.9,1881.3 1301.0,1897.9 1315.7,1916.5 1328.9,1937.0 1340.7,1959.4 1351.0,1983.5 1360.0,2009.3 1367.5,2036.6 1373.7,2065.5 1378.5,2095.8 1382.1,2127.3 1384.3,2160.0 1385.4,2193.6 1385.2,2228.1 1384.0,2263.3 1381.8,2299.0 1378.6,2335.1 1374.6,2371.3 1369.8,2407.5  " style="stroke-opacity: 1.000000; stroke-width: 5.0; stroke: rgb(251,106,74); fill: none"  />
<path d="M 709.3,1964.0 L 749.5,1940.4 789.7,1917.0 830.1,1893.5 870.5,1870.2 911.1,1846.8 951.8,1823.6 992.5,1800.3 1033.4,1777.2 1074.3,1754.1 1115.3,1731.1 1156.5,1708.2 1197.7,1685.4 1238.9,1662.6 1280.3,1640.0 1321.7,1617.4 1363.2,1595.0 1404.8,1572.6 1446.5,1550.3 1488.2,1528.2 1529.9,1506.1 1571.8,1484.2 1613.6,1462.4 1655.6,1440.6 1697.5,1419.0 1739.5,1397.5 1781.6,1376.2 1823.6,1354.9 1865.7,1333.8 1907.8,1312.7 1950.0,1291.8 1992.1,1271.0 2034.3,1250.4 2076.4,1229.8 2118.6,1209.3 2160.7,1189.0 2202.8,1168.8 2244.9,1148.7 2287.0,1128.7 2329.1,1108.8  " style="stroke-opacity: 1.000000; stroke-width: 5.0; stroke: rgb(251,106,74); fill: none"  />
<path d="M 639.2,1815.3 L 678.2,1800.6 717.2,1785.0 756.3,1768.6 795.2,1751.1 834.0,1732.7 872.6,1713.4 910.8,1693.1 948.6,1671.8 986.0,1649.5 1022.9,1626.2 1059.3,1601.9 1095.0,1576.6 1130.0,1550.3 1164.3,1523.0 1197.8,1494.8 1230.5,1465.6 1262.4,1435.5 1293.4,1404.5 1323.4,1372.6 1352.5,1339.8 1380.7,1306.1 1407.8,1271.7 1433.9,1236.5 1459.0,1200.5 1483.1,1163.9 1506.1,1126.6 1528.0,1088.7 1548.9,1050.3 1568.7,1011.3 1587.5,972.0 1605.2,932.2 1621.9,892.1 1637.5,851.7 1652.2,811.1 1665.8,770.4 1678.5,729.7 1690.3,689.0 1701.1,648.3 1711.1,607.9  " style="stroke-opacity: 1.000000; stroke-width: 5.0; stroke: rgb(251,106,74); fill: none"  />
<path d="M 1223.6,625.9 L 1237.2,668.3 1251.3,710.9 1265.9,753.6 1281.1,796.3 1296.7,839.2 1312.8,882.0 1329.5,924.9 1346.8,967.7 1364.6,1010.4 1382.9,1053.1 1401.8,1095.7 1421.3,1138.2 1441.3,1180.5 1461.9,1222.6 1483.0,1264.5 1504.7,1306.2 1527.0,1347.7 1549.7,1388.9 1573.1,1429.8 1596.9,1470.4 1621.3,1510.8 1646.1,1550.7 1671.5,1590.4 1697.3,1629.7 1723.6,1668.6 1750.3,1707.1 1777.5,1745.2 1805.0,1782.9 1833.0,1820.2 1861.3,1857.0 1890.0,1893.4 1918.9,1929.3 1948.2,1964.8 1977.7,1999.8 2007.5,2034.3 2037.5,2068.4 2067.6,2102.0 2097.9,2135.0 2128.3,2167.6  " style="stroke-opacity: 1.000000; stroke-width: 5.0; stroke: rgb(251,106,74); fill: none"  />
<path d="M 1533.9,2416.1 L 1532.3,2380.5 1530.3,2345.1 1527.7,2310.1 1524.5,2275.8 1520.8,2242.3 1516.4,2210.0 1511.4,2179.0 1505.8,2149.4 1499.5,2121.4 1492.5,2095.2 1484.8,2070.9 1476.5,2048.6 1467.5,2028.4 1457.7,2010.5 1447.3,1994.9 1436.3,1981.7 1424.5,1970.9 1412.1,1962.6 1399.1,1956.9 1385.5,1953.6 1371.2,1952.9 1356.5,1954.8 1341.1,1959.2 1325.3,1966.0 1309.0,1975.3 1292.3,1987.0 1275.2,2000.9 1257.7,2017.1 1240.0,2035.4 1222.0,2055.7 1203.8,2077.9 1185.5,2101.9 1167.2,2127.4 1148.8,2154.3 1130.5,2182.5 1112.3,2211.8 1094.3,2241.9 1076.6,2272.7 1059.2,2303.8  " style="stroke-opacity: 1.000000; stroke-width: 5.0; stroke: rgb(251,106,74); fill: none"  />
<path d="M 1384.1,590.6 L 1389.2,632.9 1393.6,675.7 1397.3,718.8 1400.3,762.4 1402.5,806.2 1403.8,850.4 1404.4,894.7 1404.0,939.3 1402.7,983.9 1400.5,1028.7 1397.3,1073.5 1393.1,1118.4 1387.9,1163.2 1381.7,1208.0 1374.4,1252.6 1366.2,1297.1 1356.8,1341.5 1346.5,1385.6 1335.1,1429.5 1322.7,1473.1 1309.3,1516.4 1294.8,1559.4 1279.4,1602.0 1263.0,1644.2 1245.6,1686.0 1227.4,1727.3 1208.2,1768.2 1188.1,1808.5 1167.3,1848.3 1145.6,1887.6 1123.2,1926.2 1100.0,1964.3 1076.3,2001.7 1051.9,2038.5 1026.9,2074.6 1001.5,2110.1 975.6,2144.9 949.3,2178.9 922.8,2212.2  " style="stroke-opacity: 1.000000; stroke-width: 5.0; stroke: rgb(251,106,74); fill: none"  />
<path d="M 1369.8,2407.5 L 1374.6,2372.4 1379.1,2337.5 1383.2,2303.0 1386.7,2269.2 1389.7,2236.2 1392.1,2204.3 1393.8,2173.7 1394.9,2144.5 1395.2,2116.9 1394.7,2091.1 1393.5,2067.1 1391.4,2045.2 1388.5,2025.4 1384.7,2007.8 1380.1,1992.5 1374.6,1979.5 1368.3,1969.0 1361.1,1961.0 1353.0,1955.5 1344.0,1952.5 1334.2,1952.1 1323.7,1954.1 1312.3,1958.7 1300.1,1965.8 1287.2,1975.2 1273.7,1987.0 1259.4,2001.1 1244.6,2017.4 1229.2,2035.8 1213.4,2056.2 1197.0,2078.5 1180.3,2102.4 1163.3,2128.0 1146.1,2154.9 1128.7,2183.1 1111.2,2212.2 1093.7,2242.2 1076.4,2272.8 1059.2,2303.8  " style="stroke-opacity: 1.000000; stroke-width: 5.0; stroke: rgb(251,106,74); fill: none"  />
<path d="M 1369.8,2407.5 L 1374.6,2372.1 1378.9,2336.9 1382.6,2302.0 1385.6,2267.7 1387.9,2234.1 1389.4,2201.5 1390.0,2170.1 1389.7,2140.0 1388.5,2111.3 1386.4,2084.3 1383.2,2059.0 1378.9,2035.6 1373.6,2014.1 1367.3,1994.8 1359.8,1977.5 1351.3,1962.6 1341.7,1949.9 1330.9,1939.5 1319.2,1931.5 1306.3,1925.9 1292.4,1922.7 1277.6,1921.9 1261.7,1923.4 1244.9,1927.3 1227.2,1933.6 1208.7,1942.1 1189.4,1952.8 1169.3,1965.6 1148.6,1980.4 1127.3,1997.2 1105.4,2015.8 1083.1,2036.0 1060.5,2057.9 1037.6,2081.1 1014.5,2105.6 991.4,2131.1 968.3,2157.5 945.4,2184.6 922.8,2212.2  " style="stroke-opacity: 1.000000; stroke-width: 5.0; stroke: rgb(251,106,74); fill: none"  />
<path d="M 1369.8,2407.5 L 1375.7,2364.3 1381.1,2320.7 1385.9,2276.7 1390.2,2232.4 1393.9,2187.7 1396.9,2142.8 1399.2,2097.6 1400.9,2052.2 1401.8,2006.6 1402.0,1960.8 1401.4,1914.9 1400.0,1868.9 1397.8,1822.8 1394.9,1776.7 1391.1,1730.6 1386.4,1684.4 1381.0,1638.4 1374.7,1592.4 1367.6,1546.5 1359.7,1500.7 1350.9,1455.2 1341.4,1409.7 1331.0,1364.5 1319.8,1319.6 1307.9,1274.8 1295.2,1230.4 1281.7,1186.3 1267.5,1142.5 1252.6,1099.1 1237.1,1056.0 1220.9,1013.4 1204.0,971.2 1186.6,929.4 1168.6,888.1 1150.2,847.3 1131.2,807.0 1111.9,767.2 1092.1,728.0 1072.0,689.3  " style="stroke-opacity: 1.000000; stroke-width: 5.0; stroke: rgb(251,106,74); fill: none"  />
<path d="M 1369.8,2407.5 L 1374.6,2371.7 1378.7,2336.1 1382.1,2300.7 1384.7,2265.7 1386.4,2231.4 1387.1,2197.9 1386.8,2165.5 1385.4,2134.2 1382.9,2104.2 1379.3,2075.7 1374.4,2048.7 1368.3,2023.5 1361.0,2000.0 1352.4,1978.4 1342.5,1958.9 1331.4,1941.3 1319.0,1925.9 1305.3,1912.6 1290.3,1901.5 1274.2,1892.6 1256.8,1886.0 1238.2,1881.6 1218.5,1879.4 1197.7,1879.4 1175.9,1881.7 1153.1,1886.0 1129.4,1892.4 1104.8,1900.9 1079.5,1911.3 1053.5,1923.5 1026.9,1937.5 999.7,1953.2 972.2,1970.4 944.4,1989.0 916.3,2008.9 888.3,2029.8 860.2,2051.8 832.4,2074.4 804.9,2097.7  " style="stroke-opacity: 1.000000; stroke-width: 5.0; stroke: rgb(251,106,74); fill: none"  />
<path d="M 1369.8,2407.5 L 1374.6,2371.3 1378.6,2335.1 1381.8,2299.0 1384.0,2263.3 1385.2,2228.1 1385.4,2193.6 1384.3,2160.0 1382.1,2127.3 1378.5,2095.8 1373.7,2065.5 1367.5,2036.6 1360.0,2009.3 1351.0,1983.5 1340.7,1959.4 1328.9,1937.0 1315.7,1916.5 1301.0,1897.9 1284.9,1881.3 1267.5,1866.6 1248.6,1854.0 1228.5,1843.3 1207.0,1834.8 1184.2,1828.3 1160.2,1823.8 1135.1,1821.3 1108.9,1820.8 1081.6,1822.3 1053.4,1825.7 1024.3,1830.9 994.5,1837.9 964.0,1846.5 932.9,1856.8 901.3,1868.6 869.4,1881.8 837.3,1896.2 805.1,1911.8 772.9,1928.4 741.0,1945.8 709.3,1964.0  " style="stroke-opacity: 1.000000; stroke-width: 5.0; stroke: rgb(251,106,74); fill: none"  />
<path d="M 2329.1,1108.8 L 2287.0,1128.7 2244.9,1148.7 2202.8,1168.8 2160.7,1189.0 2118.6,1209.3 2076.4,1229.8 2034.3,1250.4 1992.1,1271.0 1950.0,1291.8 1907.8,1312.7 1865.7,1333.8 1823.6,1354.9 1781.6,1376.2 1739.5,1397.5 1697.5,1419.0 1655.6,1440.6 1613.6,1462.4 1571.8,1484.2 1529.9,1506.1 1488.2,1528.2 1446.5,1550.3 1404.8,1572.6 1363.2,1595.0 1321.7,1617.4 1280.3,1640.0 1238.9,1662.6 1197.7,1685.4 1156.5,1708.2 1115.3,1731.1 1074.3,1754.1 1033.4,1777.2 992.5,1800.3 951.8,1823.6 911.1,1846.8 870.5,1870.2 830.1,1893.5 789.7,1917.0 749.5,1940.4 709.3,1964.0  " style="stroke-opacity: 1.000000; stroke-width: 5.0; stroke: rgb(251,106,74); fill: none"  />
</g>
<g id="track_0">
<path d="M 2128.3,2167.6 L 2104.0,2142.0 2079.9,2116.7 2055.9,2091.9 2032.3,2067.8 2009.2,2044.5 1986.8,2022.3 1965.1,2001.2 1944.4,1981.5 1924.7,1963.2 1906.0,1946.5 1888.6,1931.4 1872.5,1918.2 1857.8,1906.7 1844.5,1897.2 1832.7,1889.7 1822.4,1884.2 1813.8,1880.8 1806.7,1879.4 1801.3,1880.2 1797.6,1883.2 1795.6,1888.2 1795.2,1895.4 1796.4,1904.6 1799.3,1915.9 1803.8,1929.1 1809.9,1944.3 1817.5,1961.3 1826.6,1980.1 1837.1,2000.6 1848.9,2022.7 1861.9,2046.2 1876.2,2071.0 1891.5,2097.1 1907.7,2124.1 1924.8,2152.1 1942.6,2180.8 1961.0,2209.9 1979.8,2239.4 1999.0,2269.1  " style="stroke-opacity: 1.000000; stroke-width: 5.0; stroke: rgb(107,174,214); fill: none"  />
<path d="M 2128.3,2167.6 L 2103.6,2141.8 2078.8,2116.5 2053.8,2091.8 2028.9,2068.1 2004.1,2045.4 1979.5,2023.9 1955.3,2003.8 1931.6,1985.2 1908.4,1968.3 1885.9,1953.1 1864.2,1939.9 1843.2,1928.6 1823.2,1919.3 1804.1,1912.2 1786.0,1907.3 1768.9,1904.7 1753.0,1904.3 1738.2,1906.2 1724.6,1910.4 1712.2,1917.0 1701.1,1925.8 1691.1,1936.9 1682.5,1950.3 1675.1,1965.9 1668.9,1983.6 1664.0,2003.4 1660.3,2025.2 1657.8,2048.8 1656.5,2074.3 1656.3,2101.4 1657.2,2130.1 1659.2,2160.1 1662.1,2191.4 1666.0,2223.8 1670.8,2257.1 1676.3,2291.1 1682.6,2325.6 1689.5,2360.5 1696.9,2395.4  " style="stroke-opacity: 1.000000; stroke-width: 5.0; stroke: rgb(107,174,214); fill: none"  />
<path d="M 2128.3,2167.6 L 2103.0,2141.3 2077.2,2115.6 2051.0,2090.6 2024.5,2066.6 1997.7,2043.7 1970.8,2022.1 1943.9,2001.9 1916.9,1983.3 1890.1,1966.4 1863.4,1951.3 1837.0,1938.1 1810.9,1927.0 1785.1,1917.9 1759.8,1911.0 1735.0,1906.3 1710.7,1903.8 1687.0,1903.7 1664.0,1905.9 1641.7,1910.4 1620.0,1917.2 1599.1,1926.4 1579.0,1937.8 1559.7,1951.6 1541.3,1967.5 1523.7,1985.6 1507.0,2005.8 1491.1,2028.1 1476.2,2052.2 1462.1,2078.2 1449.0,2105.9 1436.7,2135.1 1425.4,2165.9 1414.9,2197.9 1405.3,2231.0 1396.6,2265.1 1388.7,2300.0 1381.6,2335.5 1375.3,2371.4 1369.8,2407.5  " style="stroke-opacity: 1.000000; stroke-width: 5.0; stroke: rgb(107,174,214); fill: none"  />
<path d="M 1548.4,584.5 L 1546.6,619.7 1545.0,654.7 1543.6,689.2 1542.5,722.9 1541.7,755.7 1541.1,787.2 1540.9,817.4 1540.9,846.0 1541.3,872.9 1542.1,898.0 1543.3,920.9 1544.8,941.8 1546.7,960.3 1549.0,976.5 1551.8,990.2 1554.9,1001.4 1558.4,1010.1 1562.3,1016.1 1566.6,1019.4 1571.3,1020.1 1576.3,1018.1 1581.8,1013.4 1587.6,1006.1 1593.7,996.3 1600.2,983.8 1607.0,969.0 1614.0,951.7 1621.3,932.1 1628.9,910.4 1636.7,886.6 1644.7,860.9 1652.8,833.5 1661.0,804.4 1669.4,774.0 1677.8,742.3 1686.2,709.6 1694.6,676.2 1702.9,642.2 1711.1,607.9  " style="stroke-opacity: 1.000000; stroke-width: 5.0; stroke: rgb(107,174,214); fill: none"  />
<path d="M 1711.1,607.9 L 1702.9,642.2 1694.6,676.2 1686.2,709.6 1677.8,742.3 1669.4,774.0 1661.0,804.4 1652.8,833.5 1644.7,860.9 1636.7,886.6 1628.9,910.4 1621.3,932.1 1614.0,951.7 1607.0,969.0 1600.2,983.8 1593.7,996.3 1587.6,1006.1 1581.8,1013.4 1576.3,1018.1 1571.3,1020.1 1566.6,1019.4 1562.3,1016.1 1558.4,1010.1 1554.9,1001.4 1551.8,990.2 1549.0,976.5 1546.7,960.3 1544.8,941.8 1543.3,920.9 1542.1,898.0 1541.3,872.9 1540.9,846.0 1540.9,817.4 1541.1,787.2 1541.7,755.7 1542.5,722.9 1543.6,689.2 1545.0,654.7 1546.6,619.7 1548.4,584.5  " style="stroke-opacity: 1.000000; stroke-width: 5.0; stroke: rgb(107,174,214); fill: none"  />
<path d="M 1867.0,659.9 L 1852.9,692.3 1839.2,724.4 1825.8,756.2 1812.9,787.4 1800.6,817.8 1788.9,847.1 1778.1,875.3 1768.1,902.1 1759.0,927.5 1751.0,951.1 1744.0,973.1 1738.1,993.1 1733.4,1011.2 1729.9,1027.1 1727.6,1040.9 1726.5,1052.5 1726.8,1061.8 1728.4,1068.8 1731.2,1073.5 1735.4,1075.7 1740.8,1075.6 1747.5,1073.2 1755.5,1068.4 1764.7,1061.3 1775.2,1052.0 1786.7,1040.4 1799.4,1026.7 1813.1,1011.0 1827.9,993.3 1843.5,973.8 1860.0,952.5 1877.2,929.7 1895.2,905.4 1913.7,879.8 1932.7,853.1 1952.0,825.5 1971.6,797.1 1991.3,768.2 2011.1,738.9  " style="stroke-opacity: 1.000000; stroke-width: 5.0; stroke: rgb(107,174,214); fill: none"  />
<path d="M 1867.0,659.9 L 1852.9,692.4 1839.3,724.9 1826.3,757.0 1813.8,788.7 1802.2,819.7 1791.4,849.8 1781.6,878.8 1772.8,906.7 1765.2,933.2 1758.7,958.2 1753.6,981.7 1749.7,1003.4 1747.2,1023.2 1746.2,1041.2 1746.6,1057.2 1748.4,1071.1 1751.7,1082.9 1756.6,1092.6 1762.9,1100.0 1770.7,1105.3 1780.0,1108.3 1790.8,1109.1 1803.0,1107.8 1816.6,1104.2 1831.5,1098.5 1847.7,1090.7 1865.2,1080.9 1883.8,1069.1 1903.6,1055.5 1924.3,1040.1 1946.0,1023.0 1968.4,1004.3 1991.6,984.2 2015.4,962.8 2039.7,940.3 2064.3,916.9 2089.1,892.6 2114.0,867.7 2138.8,842.4  " style="stroke-opacity: 1.000000; stroke-width: 5.0; stroke: rgb(107,174,214); fill: none"  />
<path d="M 1867.0,659.9 L 1852.8,693.0 1839.3,726.3 1826.6,759.5 1814.9,792.6 1804.1,825.2 1794.5,857.2 1786.2,888.6 1779.2,919.2 1773.6,948.7 1769.5,977.2 1767.0,1004.5 1766.2,1030.4 1767.0,1055.0 1769.6,1078.1 1773.9,1099.6 1779.9,1119.4 1787.8,1137.6 1797.5,1154.1 1808.9,1168.7 1822.2,1181.6 1837.1,1192.6 1853.9,1201.8 1872.3,1209.1 1892.3,1214.6 1913.9,1218.3 1937.1,1220.2 1961.6,1220.3 1987.6,1218.7 2014.7,1215.4 2043.1,1210.5 2072.5,1204.1 2102.8,1196.2 2133.9,1187.0 2165.7,1176.4 2198.0,1164.7 2230.7,1152.0 2263.5,1138.3 2296.4,1123.9 2329.1,1108.8  " style="stroke-opacity: 1.000000; stroke-width: 5.0; stroke: rgb(107,174,214); fill: none"  />
<path d="M 1999.0,2269.1 L 1979.8,2239.4 1961.0,2209.9 1942.6,2180.8 1924.8,2152.1 1907.7,2124.1 1891.5,2097.1 1876.2,2071.0 1861.9,2046.2 1848.9,2022.7 1837.1,2000.6 1826.6,1980.1 1817.5,1961.3 1809.9,1944.3 1803.8,1929.1 1799.3,1915.9 1796.4,1904.6 1795.2,1895.4 1795.6,1888.2 1797.6,1883.2 1801.3,1880.2 1806.7,1879.4 1813.8,1880.8 1822.4,1884.2 1832.7,1889.7 1844.5,1897.2 1857.8,1906.7 1872.5,1918.2 1888.6,1931.4 1906.0,1946.5 1924.7,1963.2 1944.4,1981.5 1965.1,2001.2 1986.8,2022.3 2009.2,2044.5 2032.3,2067.8 2055.9,2091.9 2079.9,2116.7 2104.0,2142.0 2128.3,2167.6  " style="stroke-opacity: 1.000000; stroke-width: 5.0; stroke: rgb(107,174,214); fill: none"  />
<path d="M 1999.0,2269.1 L 1979.5,2239.4 1960.0,2210.2 1940.3,2181.6 1920.7,2153.8 1901.3,2127.0 1882.1,2101.4 1863.3,2077.2 1844.9,2054.5 1826.9,2033.5 1809.6,2014.4 1792.9,1997.2 1776.9,1982.0 1761.7,1969.0 1747.3,1958.2 1733.7,1949.7 1721.1,1943.6 1709.4,1939.9 1698.7,1938.6 1689.0,1939.8 1680.3,1943.4 1672.6,1949.5 1666.0,1958.0 1660.4,1969.0 1655.9,1982.3 1652.4,1997.9 1650.0,2015.7 1648.6,2035.7 1648.1,2057.7 1648.6,2081.7 1650.1,2107.5 1652.4,2135.0 1655.6,2164.0 1659.6,2194.4 1664.4,2226.0 1669.8,2258.7 1675.8,2292.2 1682.4,2326.3 1689.5,2360.7 1696.9,2395.4  " style="stroke-opacity: 1.000000; stroke-width: 5.0; stroke: rgb(107,174,214); fill: none"  />
<path d="M 1999.0,2269.1 L 1979.3,2239.3 1959.4,2209.9 1939.2,2181.2 1918.9,2153.4 1898.6,2126.6 1878.3,2101.1 1858.0,2077.0 1838.0,2054.5 1818.3,2033.7 1798.8,2014.8 1779.8,1997.8 1761.2,1983.0 1743.1,1970.3 1725.6,1959.9 1708.6,1951.9 1692.3,1946.2 1676.7,1943.0 1661.9,1942.2 1647.7,1943.9 1634.4,1948.2 1621.8,1954.9 1610.0,1964.0 1599.1,1975.7 1589.1,1989.7 1579.8,2006.0 1571.5,2024.6 1563.9,2045.3 1557.3,2068.2 1551.4,2093.0 1546.4,2119.7 1542.2,2148.0 1538.8,2177.9 1536.1,2209.3 1534.1,2241.8 1532.8,2275.5 1532.2,2309.9 1532.2,2345.0 1532.8,2380.5 1533.9,2416.1  " style="stroke-opacity: 1.000000; stroke-width: 5.0; stroke: rgb(107,174,214); fill: none"  />
<path d="M 1999.0,2269.1 L 1979.1,2239.0 1958.8,2209.4 1938.0,2180.5 1917.0,2152.5 1895.7,2125.6 1874.2,2099.9 1852.6,2075.6 1831.0,2053.0 1809.4,2032.0 1787.8,2012.9 1766.4,1995.8 1745.2,1980.8 1724.3,1968.0 1703.6,1957.4 1683.3,1949.1 1663.4,1943.3 1643.9,1939.8 1624.8,1938.8 1606.3,1940.3 1588.3,1944.3 1570.8,1950.7 1553.9,1959.6 1537.7,1970.9 1522.0,1984.6 1507.1,2000.6 1492.7,2018.9 1479.1,2039.4 1466.2,2061.9 1453.9,2086.4 1442.4,2112.7 1431.6,2140.8 1421.4,2170.4 1412.0,2201.5 1403.3,2233.8 1395.3,2267.2 1387.9,2301.5 1381.2,2336.4 1375.2,2371.8 1369.8,2407.5  " style="stroke-opacity: 1.000000; stroke-width: 5.0; stroke: rgb(107,174,214); fill: none"  />
<path d="M 2011.1,738.9 L 1991.3,768.2 1971.6,797.1 1952.0,825.5 1932.7,853.1 1913.7,879.8 1895.2,905.4 1877.2,929.7 1860.0,952.5 1843.5,973.8 1827.9,993.3 1813.1,1011.0 1799.4,1026.7 1786.7,1040.4 1775.2,1052.0 1764.7,1061.3 1755.5,1068.4 1747.5,1073.2 1740.8,1075.6 1735.4,1075.7 1731.2,1073.5 1728.4,1068.8 1726.8,1061.8 1726.5,1052.5 1727.6,1040.9 1729.9,1027.1 1733.4,1011.2 1738.1,993.1 1744.0,973.1 1751.0,951.1 1759.0,927.5 1768.1,902.1 1778.1,875.3 1788.9,847.1 1800.6,817.8 1812.9,787.4 1825.8,756.2 1839.2,724.4 1852.9,692.3 1867.0,659.9  " style="stroke-opacity: 1.000000; stroke-width: 5.0; stroke: rgb(107,174,214); fill: none"  />
<path d="M 2011.1,738.9 L 1991.5,768.3 1972.2,797.5 1953.3,826.3 1935.1,854.7 1917.5,882.4 1900.9,909.2 1885.2,935.0 1870.5,959.6 1857.1,982.9 1845.0,1004.8 1834.2,1025.1 1824.8,1043.8 1816.9,1060.7 1810.6,1075.8 1805.9,1088.9 1802.8,1100.2 1801.4,1109.4 1801.7,1116.5 1803.7,1121.6 1807.3,1124.6 1812.7,1125.5 1819.8,1124.3 1828.5,1121.0 1838.8,1115.6 1850.7,1108.3 1864.2,1099.0 1879.1,1087.8 1895.4,1074.8 1913.1,1060.0 1931.9,1043.6 1952.0,1025.6 1973.0,1006.2 1995.0,985.5 2017.8,963.6 2041.2,940.7 2065.2,917.0 2089.6,892.6 2114.1,867.7 2138.8,842.4  " style="stroke-opacity: 1.000000; stroke-width: 5.0; stroke: rgb(107,174,214); fill: none"  />
<path d="M 2011.1,738.9 L 1991.5,768.4 1972.3,797.9 1953.7,827.2 1935.8,856.2 1918.8,884.6 1902.8,912.3 1888.0,939.1 1874.4,964.9 1862.1,989.7 1851.3,1013.1 1842.0,1035.3 1834.4,1055.9 1828.4,1075.1 1824.1,1092.5 1821.7,1108.3 1821.0,1122.4 1822.2,1134.6 1825.2,1144.9 1830.1,1153.4 1836.9,1160.0 1845.5,1164.6 1855.9,1167.3 1868.2,1168.2 1882.2,1167.1 1897.9,1164.2 1915.2,1159.4 1934.2,1152.9 1954.6,1144.6 1976.4,1134.7 1999.6,1123.2 2024.0,1110.3 2049.4,1095.9 2075.8,1080.3 2103.0,1063.5 2130.9,1045.7 2159.3,1027.0 2188.1,1007.5 2217.0,987.5 2245.9,967.0  " style="stroke-opacity: 1.000000; stroke-width: 5.0; stroke: rgb(107,174,214); fill: none"  />
<path d="M 1059.2,2303.8 L 1076.1,2272.9 1092.7,2242.0 1108.9,2211.6 1124.5,2181.7 1139.5,2152.6 1153.7,2124.4 1167.0,2097.3 1179.4,2071.4 1190.7,2047.0 1200.8,2024.1 1209.8,2002.9 1217.4,1983.5 1223.7,1966.0 1228.7,1950.4 1232.2,1936.8 1234.3,1925.4 1234.8,1916.1 1233.9,1909.0 1231.5,1904.1 1227.6,1901.5 1222.1,1901.1 1215.2,1902.9 1206.8,1906.9 1197.0,1913.2 1185.8,1921.6 1173.2,1932.0 1159.4,1944.5 1144.3,1959.0 1128.0,1975.3 1110.7,1993.3 1092.4,2013.0 1073.2,2034.2 1053.1,2056.8 1032.4,2080.6 1011.1,2105.5 989.3,2131.3 967.3,2157.8 945.0,2184.9 922.8,2212.2  " style="stroke-opacity: 1.000000; stroke-width: 5.0; stroke: rgb(107,174,214); fill: none"  />
<path d="M 1059.2,2303.8 L 1076.1,2272.7 1092.6,2241.6 1108.5,2210.7 1123.7,2180.3 1138.1,2150.5 1151.5,2121.5 1163.9,2093.4 1175.1,2066.5 1185.1,2040.7 1193.7,2016.4 1201.0,1993.5 1206.8,1972.3 1211.0,1952.7 1213.7,1934.9 1214.7,1918.9 1214.1,1904.9 1211.9,1892.8 1207.9,1882.8 1202.3,1874.8 1195.0,1868.9 1186.0,1865.0 1175.3,1863.2 1163.1,1863.5 1149.2,1865.8 1133.8,1870.2 1117.0,1876.5 1098.7,1884.7 1079.1,1894.7 1058.2,1906.5 1036.2,1920.0 1013.1,1935.1 989.0,1951.7 964.1,1969.6 938.5,1988.8 912.4,2009.0 885.7,2030.2 858.8,2052.2 831.8,2074.7 804.9,2097.7  " style="stroke-opacity: 1.000000; stroke-width: 5.0; stroke: rgb(107,174,214); fill: none"  />
<path d="M 1059.2,2303.8 L 1076.1,2272.4 1092.5,2241.0 1108.3,2209.6 1123.2,2178.5 1137.1,2147.9 1149.9,2117.9 1161.6,2088.7 1171.9,2060.4 1180.8,2033.2 1188.3,2007.1 1194.2,1982.3 1198.5,1958.9 1201.0,1936.9 1201.9,1916.6 1201.0,1897.8 1198.2,1880.8 1193.7,1865.5 1187.3,1852.1 1179.1,1840.4 1169.0,1830.7 1157.2,1822.8 1143.5,1816.8 1128.1,1812.7 1111.0,1810.5 1092.3,1810.1 1071.9,1811.5 1050.1,1814.7 1026.8,1819.7 1002.2,1826.3 976.3,1834.5 949.3,1844.2 921.4,1855.4 892.5,1867.9 862.9,1881.6 832.7,1896.4 802.1,1912.2 771.2,1928.8 740.2,1946.1 709.3,1964.0  " style="stroke-opacity: 1.000000; stroke-width: 5.0; stroke: rgb(107,174,214); fill: none"  />
<path d="M 1059.2,2303.8 L 1076.3,2272.1 1092.7,2240.2 1108.3,2208.2 1123.0,2176.4 1136.6,2144.8 1149.1,2113.8 1160.2,2083.3 1169.9,2053.5 1178.1,2024.5 1184.7,1996.5 1189.6,1969.6 1192.8,1943.8 1194.2,1919.3 1193.7,1896.1 1191.4,1874.3 1187.1,1853.9 1180.9,1835.1 1172.7,1817.9 1162.6,1802.2 1150.6,1788.3 1136.7,1775.9 1120.8,1765.3 1103.2,1756.3 1083.7,1749.0 1062.5,1743.4 1039.6,1739.5 1015.1,1737.2 989.2,1736.5 961.8,1737.3 933.1,1739.6 903.3,1743.4 872.4,1748.5 840.6,1755.0 808.0,1762.6 774.8,1771.3 741.1,1781.1 707.1,1791.8 673.1,1803.2 639.2,1815.3  " style="stroke-opacity: 1.000000; stroke-width: 5.0; stroke: rgb(107,174,214); fill: none"  />
<path d="M 1853.6,2345.8 L 1839.8,2313.2 1825.8,2280.9 1811.6,2249.2 1797.2,2218.4 1782.9,2188.6 1768.6,2160.0 1754.4,2132.8 1740.3,2107.2 1726.4,2083.4 1712.8,2061.4 1699.4,2041.5 1686.4,2023.7 1673.7,2008.2 1661.5,1995.0 1649.7,1984.2 1638.3,1975.9 1627.5,1970.2 1617.2,1967.0 1607.4,1966.4 1598.2,1968.5 1589.6,1973.1 1581.5,1980.3 1574.1,1990.1 1567.3,2002.3 1561.1,2017.1 1555.5,2034.2 1550.5,2053.6 1546.2,2075.2 1542.4,2098.9 1539.2,2124.5 1536.6,2152.0 1534.6,2181.1 1533.1,2211.8 1532.1,2243.7 1531.6,2276.8 1531.5,2310.8 1531.9,2345.5 1532.7,2380.7 1533.9,2416.1  " style="stroke-opacity: 1.000000; stroke-width: 5.0; stroke: rgb(107,174,214); fill: none"  />
<path d="M 922.8,2212.2 L 945.0,2184.9 967.3,2157.8 989.3,2131.3 1011.1,2105.5 1032.4,2080.6 1053.1,2056.8 1073.2,2034.2 1092.4,2013.0 1110.7,1993.3 1128.0,1975.3 1144.3,1959.0 1159.4,1944.5 1173.2,1932.0 1185.8,1921.6 1197.0,1913.2 1206.8,1906.9 1215.2,1902.9 1222.1,1901.1 1227.6,1901.5 1231.5,1904.1 1233.9,1909.0 1234.8,1916.1 1234.3,1925.4 1232.2,1936.8 1228.7,1950.4 1223.7,1966.0 1217.4,1983.5 1209.8,2002.9 1200.8,2024.1 1190.7,2047.0 1179.4,2071.4 1167.0,2097.3 1153.7,2124.4 1139.5,2152.6 1124.5,2181.7 1108.9,2211.6 1092.7,2242.0 1076.1,2272.9 1059.2,2303.8  " style="stroke-opacity: 1.000000; stroke-width: 5.0; stroke: rgb(107,174,214); fill: none"  />
<path d="M 922.8,2212.2 L 944.9,2184.7 966.7,2157.4 988.1,2130.3 1008.8,2103.7 1028.8,2077.7 1047.8,2052.5 1065.7,2028.2 1082.5,2005.0 1098.0,1983.0 1112.0,1962.3 1124.6,1943.0 1135.6,1925.3 1145.0,1909.1 1152.6,1894.7 1158.5,1882.0 1162.6,1871.1 1164.8,1862.0 1165.2,1854.9 1163.6,1849.7 1160.3,1846.4 1155.0,1845.0 1147.8,1845.6 1138.9,1848.1 1128.1,1852.4 1115.6,1858.7 1101.3,1866.7 1085.5,1876.6 1068.1,1888.1 1049.2,1901.2 1028.9,1915.9 1007.3,1932.0 984.6,1949.4 960.9,1968.1 936.2,1987.8 910.8,2008.5 884.8,2030.0 858.4,2052.1 831.7,2074.8 804.9,2097.7  " style="stroke-opacity: 1.000000; stroke-width: 5.0; stroke: rgb(107,174,214); fill: none"  />
<path d="M 922.8,2212.2 L 944.9,2184.6 966.7,2156.9 987.8,2129.4 1008.2,2102.2 1027.7,2075.4 1046.1,2049.3 1063.3,2023.9 1079.2,1999.3 1093.6,1975.8 1106.5,1953.4 1117.7,1932.2 1127.2,1912.3 1134.8,1893.8 1140.6,1876.8 1144.5,1861.3 1146.4,1847.4 1146.4,1835.1 1144.3,1824.5 1140.2,1815.6 1134.0,1808.5 1125.8,1803.1 1115.7,1799.4 1103.6,1797.5 1089.5,1797.3 1073.6,1798.8 1055.9,1802.0 1036.5,1806.8 1015.4,1813.2 992.7,1821.1 968.6,1830.5 943.2,1841.2 916.6,1853.2 888.9,1866.4 860.3,1880.7 830.9,1895.9 800.9,1912.0 770.6,1928.8 739.9,1946.2 709.3,1964.0  " style="stroke-opacity: 1.000000; stroke-width: 5.0; stroke: rgb(107,174,214); fill: none"  />
<path d="M 1696.9,2395.4 L 1689.5,2360.5 1682.6,2325.6 1676.3,2291.1 1670.8,2257.1 1666.0,2223.8 1662.1,2191.4 1659.2,2160.1 1657.2,2130.1 1656.3,2101.4 1656.5,2074.3 1657.8,2048.8 1660.3,2025.2 1664.0,2003.4 1668.9,1983.6 1675.1,1965.9 1682.5,1950.3 1691.1,1936.9 1701.1,1925.8 1712.2,1917.0 1724.6,1910.4 1738.2,1906.2 1753.0,1904.3 1768.9,1904.7 1786.0,1907.3 1804.1,1912.2 1823.2,1919.3 1843.2,1928.6 1864.2,1939.9 1885.9,1953.1 1908.4,1968.3 1931.6,1985.2 1955.3,2003.8 1979.5,2023.9 2004.1,2045.4 2028.9,2068.1 2053.8,2091.8 2078.8,2116.5 2103.6,2141.8 2128.3,2167.6  " style="stroke-opacity: 1.000000; stroke-width: 5.0; stroke: rgb(107,174,214); fill: none"  />
<path d="M 1696.9,2395.4 L 1689.5,2360.7 1682.4,2326.3 1675.8,2292.2 1669.8,2258.7 1664.4,2226.0 1659.6,2194.4 1655.6,2164.0 1652.4,2135.0 1650.1,2107.5 1648.6,2081.7 1648.1,2057.7 1648.6,2035.7 1650.0,2015.7 1652.4,1997.9 1655.9,1982.3 1660.4,1969.0 1666.0,1958.0 1672.6,1949.5 1680.3,1943.4 1689.0,1939.8 1698.7,1938.6 1709.4,1939.9 1721.1,1943.6 1733.7,1949.7 1747.3,1958.2 1761.7,1969.0 1776.9,1982.0 1792.9,1997.2 1809.6,2014.4 1826.9,2033.5 1844.9,2054.5 1863.3,2077.2 1882.1,2101.4 1901.3,2127.0 1920.7,2153.8 1940.3,2181.6 1960.0,2210.2 1979.5,2239.4 1999.0,2269.1  " style="stroke-opacity: 1.000000; stroke-width: 5.0; stroke: rgb(107,174,214); fill: none"  />
<path d="M 1696.9,2395.4 L 1689.1,2360.8 1681.1,2326.5 1672.8,2292.8 1664.2,2259.9 1655.4,2228.0 1646.5,2197.3 1637.3,2168.0 1628.0,2140.3 1618.6,2114.4 1609.1,2090.4 1599.5,2068.4 1589.9,2048.6 1580.2,2031.0 1570.5,2015.9 1560.8,2003.2 1551.1,1993.0 1541.5,1985.4 1531.9,1980.4 1522.4,1978.1 1513.0,1978.5 1503.7,1981.5 1494.5,1987.1 1485.4,1995.4 1476.5,2006.3 1467.8,2019.7 1459.2,2035.5 1450.9,2053.7 1442.7,2074.2 1434.8,2096.8 1427.1,2121.5 1419.6,2148.1 1412.4,2176.4 1405.4,2206.2 1398.8,2237.5 1392.4,2270.0 1386.3,2303.4 1380.5,2337.7 1374.9,2372.4 1369.8,2407.5  " style="stroke-opacity: 1.000000; stroke-width: 5.0; stroke: rgb(107,174,214); fill: none"  />
<path d="M 2138.8,842.4 L 2114.0,867.7 2089.1,892.6 2064.3,916.9 2039.7,940.3 2015.4,962.8 1991.6,984.2 1968.4,1004.3 1946.0,1023.0 1924.3,1040.1 1903.6,1055.5 1883.8,1069.1 1865.2,1080.9 1847.7,1090.7 1831.5,1098.5 1816.6,1104.2 1803.0,1107.8 1790.8,1109.1 1780.0,1108.3 1770.7,1105.3 1762.9,1100.0 1756.6,1092.6 1751.7,1082.9 1748.4,1071.1 1746.6,1057.2 1746.2,1041.2 1747.2,1023.2 1749.7,1003.4 1753.6,981.7 1758.7,958.2 1765.2,933.2 1772.8,906.7 1781.6,878.8 1791.4,849.8 1802.2,819.7 1813.8,788.7 1826.3,757.0 1839.3,724.9 1852.9,692.4 1867.0,659.9  " style="stroke-opacity: 1.000000; stroke-width: 5.0; stroke: rgb(107,174,214); fill: none"  />
<path d="M 2138.8,842.4 L 2114.1,867.7 2089.6,892.6 2065.2,917.0 2041.2,940.7 2017.8,963.6 1995.0,985.5 1973.0,1006.2 1952.0,1025.6 1931.9,1043.6 1913.1,1060.0 1895.4,1074.8 1879.1,1087.8 1864.2,1099.0 1850.7,1108.3 1838.8,1115.6 1828.5,1121.0 1819.8,1124.3 1812.7,1125.5 1807.3,1124.6 1803.7,1121.6 1801.7,1116.5 1801.4,1109.4 1802.8,1100.2 1805.9,1088.9 1810.6,1075.8 1816.9,1060.7 1824.8,1043.8 1834.2,1025.1 1845.0,1004.8 1857.1,982.9 1870.5,959.6 1885.2,935.0 1900.9,909.2 1917.5,882.4 1935.1,854.7 1953.3,826.3 1972.2,797.5 1991.5,768.3 2011.1,738.9  " style="stroke-opacity: 1.000000; stroke-width: 5.0; stroke: rgb(107,174,214); fill: none"  />
<path d="M 804.9,2097.7 L 831.8,2074.7 858.8,2052.2 885.7,2030.2 912.4,2009.0 938.5,1988.8 964.1,1969.6 989.0,1951.7 1013.1,1935.1 1036.2,1920.0 1058.2,1906.5 1079.1,1894.7 1098.7,1884.7 1117.0,1876.5 1133.8,1870.2 1149.2,1865.8 1163.1,1863.5 1175.3,1863.2 1186.0,1865.0 1195.0,1868.9 1202.3,1874.8 1207.9,1882.8 1211.9,1892.8 1214.1,1904.9 1214.7,1918.9 1213.7,1934.9 1211.0,1952.7 1206.8,1972.3 1201.0,1993.5 1193.7,2016.4 1185.1,2040.7 1175.1,2066.5 1163.9,2093.4 1151.5,2121.5 1138.1,2150.5 1123.7,2180.3 1108.5,2210.7 1092.6,2241.6 1076.1,2272.7 1059.2,2303.8  " style="stroke-opacity: 1.000000; stroke-width: 5.0; stroke: rgb(107,174,214); fill: none"  />
<path d="M 804.9,2097.7 L 831.7,2074.8 858.4,2052.1 884.8,2030.0 910.8,2008.5 936.2,1987.8 960.9,1968.1 984.6,1949.4 1007.3,1932.0 1028.9,1915.9 1049.2,1901.2 1068.1,1888.1 1085.5,1876.6 1101.3,1866.7 1115.6,1858.7 1128.1,1852.4 1138.9,1848.1 1147.8,1845.6 1155.0,1845.0 1160.3,1846.4 1163.6,1849.7 1165.2,1854.9 1164.8,1862.0 1162.6,1871.1 1158.5,1882.0 1152.6,1894.7 1145.0,1909.1 1135.6,1925.3 1124.6,1943.0 1112.0,1962.3 1098.0,1983.0 1082.5,2005.0 1065.7,2028.2 1047.8,2052.5 1028.8,2077.7 1008.8,2103.7 988.1,2130.3 966.7,2157.4 944.9,2184.7 922.8,2212.2  " style="stroke-opacity: 1.000000; stroke-width: 5.0; stroke: rgb(107,174,214); fill: none"  />
<path d="M 804.9,2097.7 L 831.6,2074.6 857.9,2051.6 883.8,2028.8 908.9,2006.3 933.2,1984.3 956.4,1962.9 978.4,1942.2 999.0,1922.3 1018.2,1903.4 1035.7,1885.6 1051.5,1868.9 1065.5,1853.4 1077.6,1839.2 1087.7,1826.3 1095.8,1814.9 1101.7,1804.9 1105.5,1796.4 1107.2,1789.4 1106.6,1784.0 1103.9,1780.1 1098.9,1777.8 1091.8,1777.1 1082.5,1778.0 1071.1,1780.4 1057.7,1784.3 1042.3,1789.7 1024.9,1796.5 1005.7,1804.7 984.8,1814.3 962.2,1825.1 938.1,1837.1 912.7,1850.2 886.0,1864.3 858.2,1879.3 829.5,1895.1 800.1,1911.6 770.1,1928.7 739.8,1946.2 709.3,1964.0  " style="stroke-opacity: 1.000000; stroke-width: 5.0; stroke: rgb(107,174,214); fill: none"  />
<path d="M 709.3,1964.0 L 740.2,1946.1 771.2,1928.8 802.1,1912.2 832.7,1896.4 862.9,1881.6 892.5,1867.9 921.4,1855.4 949.3,1844.2 976.3,1834.5 1002.2,1826.3 1026.8,1819.7 1050.1,1814.7 1071.9,1811.5 1092.3,1810.1 1111.0,1810.5 1128.1,1812.7 1143.5,1816.8 1157.2,1822.8 1169.0,1830.7 1179.1,1840.4 1187.3,1852.1 1193.7,1865.5 1198.2,1880.8 1201.0,1897.8 1201.9,1916.6 1201.0,1936.9 1198.5,1958.9 1194.2,1982.3 1188.3,2007.1 1180.8,2033.2 1171.9,2060.4 1161.6,2088.7 1149.9,2117.9 1137.1,2147.9 1123.2,2178.5 1108.3,2209.6 1092.5,2241.0 1076.1,2272.4 1059.2,2303.8  " style="stroke-opacity: 1.000000; stroke-width: 5.0; stroke: rgb(107,174,214); fill: none"  />
<path d="M 709.3,1964.0 L 739.9,1946.2 770.6,1928.8 800.9,1912.0 830.9,1895.9 860.3,1880.7 888.9,1866.4 916.6,1853.2 943.2,1841.2 968.6,1830.5 992.7,1821.1 1015.4,1813.2 1036.5,1806.8 1055.9,1802.0 1073.6,1798.8 1089.5,1797.3 1103.6,1797.5 1115.7,1799.4 1125.8,1803.1 1134.0,1808.5 1140.2,1815.6 1144.3,1824.5 1146.4,1835.1 1146.4,1847.4 1144.5,1861.3 1140.6,1876.8 1134.8,1893.8 1127.2,1912.3 1117.7,1932.2 1106.5,1953.4 1093.6,1975.8 1079.2,1999.3 1063.3,2023.9 1046.1,2049.3 1027.7,2075.4 1008.2,2102.2 987.8,2129.4 966.7,2156.9 944.9,2184.6 922.8,2212.2  " style="stroke-opacity: 1.000000; stroke-width: 5.0; stroke: rgb(107,174,214); fill: none"  />
<path d="M 709.3,1964.0 L 739.8,1946.2 770.1,1928.7 800.1,1911.6 829.5,1895.1 858.2,1879.3 886.0,1864.3 912.7,1850.2 938.1,1837.1 962.2,1825.1 984.8,1814.3 1005.7,1804.7 1024.9,1796.5 1042.3,1789.7 1057.7,1784.3 1071.1,1780.4 1082.5,1778.0 1091.8,1777.1 1098.9,1777.8 1103.9,1780.1 1106.6,1784.0 1107.2,1789.4 1105.5,1796.4 1101.7,1804.9 1095.8,1814.9 1087.7,1826.3 1077.6,1839.2 1065.5,1853.4 1051.5,1868.9 1035.7,1885.6 1018.2,1903.4 999.0,1922.3 978.4,1942.2 956.4,1962.9 933.2,1984.3 908.9,2006.3 883.8,2028.8 857.9,2051.6 831.6,2074.6 804.9,2097.7  " style="stroke-opacity: 1.000000; stroke-width: 5.0; stroke: rgb(107,174,214); fill: none"  />
<path d="M 639.2,1815.3 L 673.1,1803.2 707.1,1791.8 741.1,1781.1 774.8,1771.3 808.0,1762.6 840.6,1755.0 872.4,1748.5 903.3,1743.4 933.1,1739.6 961.8,1737.3 989.2,1736.5 1015.1,1737.2 1039.6,1739.5 1062.5,1743.4 1083.7,1749.0 1103.2,1756.3 1120.8,1765.3 1136.7,1775.9 1150.6,1788.3 1162.6,1802.2 1172.7,1817.9 1180.9,1835.1 1187.1,1853.9 1191.4,1874.3 1193.7,1896.1 1194.2,1919.3 1192.8,1943.8 1189.6,1969.6 1184.7,1996.5 1178.1,2024.5 1169.9,2053.5 1160.2,2083.3 1149.1,2113.8 1136.6,2144.8 1123.0,2176.4 1108.3,2208.2 1092.7,2240.2 1076.3,2272.1 1059.2,2303.8  " style="stroke-opacity: 1.000000; stroke-width: 5.0; stroke: rgb(107,174,214); fill: none"  />
<path d="M 2245.9,967.0 L 2217.0,987.5 2188.1,1007.5 2159.3,1027.0 2130.9,1045.7 2103.0,1063.5 2075.8,1080.3 2049.4,1095.9 2024.0,1110.3 1999.6,1123.2 1976.4,1134.7 1954.6,1144.6 1934.2,1152.9 1915.2,1159.4 1897.9,1164.2 1882.2,1167.1 1868.2,1168.2 1855.9,1167.3 1845.5,1164.6 1836.9,1160.0 1830.1,1153.4 1825.2,1144.9 1822.2,1134.6 1821.0,1122.4 1821.7,1108.3 1824.1,1092.5 1828.4,1075.1 1834.4,1055.9 1842.0,1035.3 1851.3,1013.1 1862.1,989.7 1874.4,964.9 1888.0,939.1 1902.8,912.3 1918.8,884.6 1935.8,856.2 1953.7,827.2 1972.3,797.9 1991.5,768.4 2011.1,738.9  " style="stroke-opacity: 1.000000; stroke-width: 5.0; stroke: rgb(107,174,214); fill: none"  />
<path d="M 1533.9,2416.1 L 1532.8,2380.5 1532.2,2345.0 1532.2,2309.9 1532.8,2275.5 1534.1,2241.8 1536.1,2209.3 1538.8,2177.9 1542.2,2148.0 1546.4,2119.7 1551.4,2093.0 1557.3,2068.2 1563.9,2045.3 1571.5,2024.6 1579.8,2006.0 1589.1,1989.7 1599.1,1975.7 1610.0,1964.0 1621.8,1954.9 1634.4,1948.2 1647.7,1943.9 1661.9,1942.2 1676.7,1943.0 1692.3,1946.2 1708.6,1951.9 1725.6,1959.9 1743.1,1970.3 1761.2,1983.0 1779.8,1997.8 1798.8,2014.8 1818.3,2033.7 1838.0,2054.5 1858.0,2077.0 1878.3,2101.1 1898.6,2126.6 1918.9,2153.4 1939.2,2181.2 1959.4,2209.9 1979.3,2239.3 1999.0,2269.1  " style="stroke-opacity: 1.000000; stroke-width: 5.0; stroke: rgb(107,174,214); fill: none"  />
<path d="M 1533.9,2416.1 L 1532.7,2380.7 1531.9,2345.5 1531.5,2310.8 1531.6,2276.8 1532.1,2243.7 1533.1,2211.8 1534.6,2181.1 1536.6,2152.0 1539.2,2124.5 1542.4,2098.9 1546.2,2075.2 1550.5,2053.6 1555.5,2034.2 1561.1,2017.1 1567.3,2002.3 1574.1,1990.1 1581.5,1980.3 1589.6,1973.1 1598.2,1968.5 1607.4,1966.4 1617.2,1967.0 1627.5,1970.2 1638.3,1975.9 1649.7,1984.2 1661.5,1995.0 1673.7,2008.2 1686.4,2023.7 1699.4,2041.5 1712.8,2061.4 1726.4,2083.4 1740.3,2107.2 1754.4,2132.8 1768.6,2160.0 1782.9,2188.6 1797.2,2218.4 1811.6,2249.2 1825.8,2280.9 1839.8,2313.2 1853.6,2345.8  " style="stroke-opacity: 1.000000; stroke-width: 5.0; stroke: rgb(107,174,214); fill: none"  />
<path d="M 1369.8,2407.5 L 1375.3,2371.4 1381.6,2335.5 1388.7,2300.0 1396.6,2265.1 1405.3,2231.0 1414.9,2197.9 1425.4,2165.9 1436.7,2135.1 1449.0,2105.9 1462.1,2078.2 1476.2,2052.2 1491.1,2028.1 1507.0,2005.8 1523.7,1985.6 1541.3,1967.5 1559.7,1951.6 1579.0,1937.8 1599.1,1926.4 1620.0,1917.2 1641.7,1910.4 1664.0,1905.9 1687.0,1903.7 1710.7,1903.8 1735.0,1906.3 1759.8,1911.0 1785.1,1917.9 1810.9,1927.0 1837.0,1938.1 1863.4,1951.3 1890.1,1966.4 1916.9,1983.3 1943.9,2001.9 1970.8,2022.1 1997.7,2043.7 2024.5,2066.6 2051.0,2090.6 2077.2,2115.6 2103.0,2141.3 2128.3,2167.6  " style="stroke-opacity: 1.000000; stroke-width: 5.0; stroke: rgb(107,174,214); fill: none"  />
<path d="M 1369.8,2407.5 L 1375.2,2371.8 1381.2,2336.4 1387.9,2301.5 1395.3,2267.2 1403.3,2233.8 1412.0,2201.5 1421.4,2170.4 1431.6,2140.8 1442.4,2112.7 1453.9,2086.4 1466.2,2061.9 1479.1,2039.4 1492.7,2018.9 1507.1,2000.6 1522.0,1984.6 1537.7,1970.9 1553.9,1959.6 1570.8,1950.7 1588.3,1944.3 1606.3,1940.3 1624.8,1938.8 1643.9,1939.8 1663.4,1943.3 1683.3,1949.1 1703.6,1957.4 1724.3,1968.0 1745.2,1980.8 1766.4,1995.8 1787.8,2012.9 1809.4,2032.0 1831.0,2053.0 1852.6,2075.6 1874.2,2099.9 1895.7,2125.6 1917.0,2152.5 1938.0,2180.5 1958.8,2209.4 1979.1,2239.0 1999.0,2269.1  " style="stroke-opacity: 1.000000; stroke-width: 5.0; stroke: rgb(107,174,214); fill: none"  />
<path d="M 1369.8,2407.5 L 1374.9,2372.4 1380.5,2337.7 1386.3,2303.4 1392.4,2270.0 1398.8,2237.5 1405.4,2206.2 1412.4,2176.4 1419.6,2148.1 1427.1,2121.5 1434.8,2096.8 1442.7,2074.2 1450.9,2053.7 1459.2,2035.5 1467.8,2019.7 1476.5,2006.3 1485.4,1995.4 1494.5,1987.1 1503.7,1981.5 1513.0,1978.5 1522.4,1978.1 1531.9,1980.4 1541.5,1985.4 1551.1,1993.0 1560.8,2003.2 1570.5,2015.9 1580.2,2031.0 1589.9,2048.6 1599.5,2068.4 1609.1,2090.4 1618.6,2114.4 1628.0,2140.3 1637.3,2168.0 1646.5,2197.3 1655.4,2228.0 1664.2,2259.9 1672.8,2292.8 1681.1,2326.5 1689.1,2360.8 1696.9,2395.4  " style="stroke-opacity: 1.000000; stroke-width: 5.0; stroke: rgb(107,174,214); fill: none"  />
<path d="M 2329.1,1108.8 L 2296.4,1123.9 2263.5,1138.3 2230.7,1152.0 2198.0,1164.7 2165.7,1176.4 2133.9,1187.0 2102.8,1196.2 2072.5,1204.1 2043.1,1210.5 2014.7,1215.4 1987.6,1218.7 1961.6,1220.3 1937.1,1220.2 1913.9,1218.3 1892.3,1214.6 1872.3,1209.1 1853.9,1201.8 1837.1,1192.6 1822.2,1181.6 1808.9,1168.7 1797.5,1154.1 1787.8,1137.6 1779.9,1119.4 1773.9,1099.6 1769.6,1078.1 1767.0,1055.0 1766.2,1030.4 1767.0,1004.5 1769.5,977.2 1773.6,948.7 1779.2,919.2 1786.2,888.6 1794.5,857.2 1804.1,825.2 1814.9,792.6 1826.6,759.5 1839.3,726.3 1852.8,693.0 1867.0,659.9  " style="stroke-opacity: 1.000000; stroke-width: 5.0; stroke: rgb(107,174,214); fill: none"  />
</g>
<defs>
<pattern id="vline" width="10" height="10" patternTransform="rotate(0 0 0)" patternUnits="userSpaceOnUse"><line x1="0" y1="0" x2="0" y2="10" style="stroke:black;stroke-width:5" /></pattern>
<pattern id="vline-sparse" width="10" height="10" patternTransform="rotate(0 0 0)" patternUnits="userSpaceOnUse"><line x1="0" y1="0" x2="0" y2="10" style="stroke:black;stroke-width:2" /></pattern>
<pattern id="checker" width="10" height="10" patternTransform="rotate(45 0 0)" patternUnits="userSpaceOnUse"><line x1="0" y1="0" x2="10" y2="0" style="stroke:black;stroke-width:5" /><line x1="0" y1="0" x2="0" y2="10" style="stroke:black;stroke-width:4" /></pattern>
<pattern id="checker" width="10" height="10" patternTransform="rotate(45 0 0)" patternUnits="userSpaceOnUse"><line x1="0" y1="0" x2="10" y2="0" style="stroke:black;stroke-width:2" /><line x1="0" y1="0" x2="0" y2="10" style="stroke:black;stroke-width:2" /></pattern>
<pattern id="hline" width="10" height="10" patternTransform="rotate(0 0 0)" patternUnits="userSpaceOnUse"><line x1="0" y1="0" x2="10" y2="0" style="stroke:black;stroke-width:5" /></pattern>
<pattern id="hline-sparse" width="10" height="10" patternTransform="rotate(0 0 0)" patternUnits="userSpaceOnUse"><line x1="0" y1="0" x2="10" y2="0" style="stroke:black;stroke-width:2" /></pattern>
</defs>
</svg>
