<?xml version="1.0" encoding="utf-8" standalone="no"?>
<!DOCTYPE svg PUBLIC "-//W3C//DTD SVG 1.1//EN" "http://www.w3.org/Graphics/SVG/1.1/DTD/svg11.dtd">
<svg width="3000px" height="3000px" version="1.1" xmlns="http://www.w3.org/2000/svg" xmlns:xlink="http://www.w3.org/1999/xlink">
<g id="bg">
<rect x="0" y="0" width="3000px" height="3000px" style="fill:rgb(255,255,255);"/>
</g>
<g id="ideograms">
<path d="M1500.000,535.000 A965.000,965.000 40.000 0,1 1601.714,540.376 L1618.579,381.267 A1125.000,1125.000 0.000 0,0 1500.000,375.000 Z" style="stroke-width:2.0;stroke:rgb(115,115,115);stroke-linecap:round;fill:rgb(153,204,255);" />
<text x="1637.1" y="307.9" font-size="195.0px" font-family="CMUBright-Bold" style="text-anchor:start;fill:rgb(0,0,0);" transform="rotate(273.0,1637.1,307.9)" >8</text>
<path d="M1500.000,535.000 A965.000,965.000 40.000 0,1 1601.714,540.376 L1618.579,381.267 A1125.000,1125.000 0.000 0,0 1500.000,375.000 Z" style="stroke-width:2.0;stroke:rgb(115,115,115);stroke-linecap:round;fill:none;" />
<path d="M1672.307,550.508 A965.000,965.000 40.000 0,1 1771.427,573.959 L1816.431,420.418 A1125.000,1125.000 0.000 0,0 1700.877,393.079 Z" style="stroke-width:2.0;stroke:rgb(115,115,115);stroke-linecap:round;fill:rgb(153,204,255);" />
<text x="1847.7" y="351.5" font-size="195.0px" font-family="CMUBright-Bold" style="text-anchor:start;fill:rgb(0,0,0);" transform="rotate(283.3,1847.7,351.5)" >10</text>
<path d="M1672.307,550.508 A965.000,965.000 40.000 0,1 1771.427,573.959 L1816.431,420.418 A1125.000,1125.000 0.000 0,0 1700.877,393.079 Z" style="stroke-width:2.0;stroke:rgb(115,115,115);stroke-linecap:round;fill:none;" />
<path d="M1839.077,596.533 A965.000,965.000 40.000 0,1 1932.417,637.306 L2004.113,494.269 A1125.000,1125.000 0.000 0,0 1895.297,446.736 Z" style="stroke-width:2.0;stroke:rgb(115,115,115);stroke-linecap:round;fill:rgb(153,204,255);" />
<text x="2047.2" y="432.0" font-size="195.0px" font-family="CMUBright-Bold" style="text-anchor:start;fill:rgb(0,0,0);" transform="rotate(293.6,2047.2,432.0)" >13</text>
<path d="M1839.077,596.533 A965.000,965.000 40.000 0,1 1932.417,637.306 L2004.113,494.269 A1125.000,1125.000 0.000 0,0 1895.297,446.736 Z" style="stroke-width:2.0;stroke:rgb(115,115,115);stroke-linecap:round;fill:none;" />
<path d="M1994.948,671.597 A965.000,965.000 40.000 0,1 2079.507,728.381 L2175.592,600.444 A1125.000,1125.000 0.000 0,0 2077.012,534.245 Z" style="stroke-width:2.0;stroke:rgb(115,115,115);stroke-linecap:round;fill:rgb(153,204,255);" />
<text x="2227.5" y="545.7" font-size="195.0px" font-family="CMUBright-Bold" style="text-anchor:start;fill:rgb(0,0,0);" transform="rotate(303.9,2227.5,545.7)" >14</text>
<path d="M1994.948,671.597 A965.000,965.000 40.000 0,1 2079.507,728.381 L2175.592,600.444 A1125.000,1125.000 0.000 0,0 2077.012,534.245 Z" style="stroke-width:2.0;stroke:rgb(115,115,115);stroke-linecap:round;fill:none;" />
<path d="M2134.911,773.286 A965.000,965.000 40.000 0,1 2207.972,844.256 L2325.356,735.532 A1125.000,1125.000 0.000 0,0 2240.181,652.795 Z" style="stroke-width:2.0;stroke:rgb(115,115,115);stroke-linecap:round;fill:rgb(153,204,255);" />
<text x="2387.6" y="692.4" font-size="195.0px" font-family="CMUBright-Bold" style="text-anchor:start;fill:rgb(0,0,0);" transform="rotate(314.2,2387.6,692.4)" >19</text>
<path d="M2134.911,773.286 A965.000,965.000 40.000 0,1 2207.972,844.256 L2325.356,735.532 A1125.000,1125.000 0.000 0,0 2240.181,652.795 Z" style="stroke-width:2.0;stroke:rgb(115,115,115);stroke-linecap:round;fill:none;" />
<path d="M2254.467,898.332 A965.000,965.000 40.000 0,1 2313.683,981.207 L2448.594,895.190 A1125.000,1125.000 0.000 0,0 2379.560,798.574 Z" style="stroke-width:2.0;stroke:rgb(115,115,115);stroke-linecap:round;fill:rgb(153,204,255);" />
<text x="2517.5" y="863.9" font-size="195.0px" font-family="CMUBright-Bold" style="text-anchor:start;fill:rgb(0,0,0);" transform="rotate(324.5,2517.5,863.9)" >26</text>
<path d="M2254.467,898.332 A965.000,965.000 40.000 0,1 2313.683,981.207 L2448.594,895.190 A1125.000,1125.000 0.000 0,0 2379.560,798.574 Z" style="stroke-width:2.0;stroke:rgb(115,115,115);stroke-linecap:round;fill:none;" />
<path d="M2349.775,1042.717 A965.000,965.000 40.000 0,1 2393.240,1134.833 L2541.342,1074.288 A1125.000,1125.000 0.000 0,0 2490.670,966.898 Z" style="stroke-width:2.0;stroke:rgb(115,115,115);stroke-linecap:round;fill:rgb(153,204,255);" />
<text x="2614.7" y="1055.8" font-size="195.0px" font-family="CMUBright-Bold" style="text-anchor:start;fill:rgb(0,0,0);" transform="rotate(334.7,2614.7,1055.8)" >35</text>
<path d="M2349.775,1042.717 A965.000,965.000 40.000 0,1 2393.240,1134.833 L2541.342,1074.288 A1125.000,1125.000 0.000 0,0 2490.670,966.898 Z" style="stroke-width:2.0;stroke:rgb(115,115,115);stroke-linecap:round;fill:none;" />
<path d="M2417.770,1201.799 A965.000,965.000 40.000 0,1 2444.089,1300.196 L2600.621,1267.068 A1125.000,1125.000 0.000 0,0 2569.939,1152.356 Z" style="stroke-width:2.0;stroke:rgb(115,115,115);stroke-linecap:round;fill:rgb(116,196,118);" />
<text x="2675.8" y="1260.0" font-size="195.0px" font-family="CMUBright-Bold" style="text-anchor:start;fill:rgb(0,0,0);" transform="rotate(345.0,2675.8,1260.0)" >2</text>
<path d="M2417.770,1201.799 A965.000,965.000 40.000 0,1 2444.089,1300.196 L2600.621,1267.068 A1125.000,1125.000 0.000 0,0 2569.939,1152.356 Z" style="stroke-width:2.0;stroke:rgb(115,115,115);stroke-linecap:round;fill:none;" />
<path d="M2456.267,1370.465 A965.000,965.000 40.000 0,1 2464.593,1471.980 L2624.526,1467.335 A1125.000,1125.000 0.000 0,0 2614.818,1348.988 Z" style="stroke-width:2.0;stroke:rgb(115,115,115);stroke-linecap:round;fill:rgb(116,196,118);" />
<text x="2699.8" y="1475.8" font-size="195.0px" font-family="CMUBright-Bold" style="text-anchor:start;fill:rgb(0,0,0);" transform="rotate(355.3,2699.8,1475.8)" >3</text>
<path d="M2456.267,1370.465 A965.000,965.000 40.000 0,1 2464.593,1471.980 L2624.526,1467.335 A1125.000,1125.000 0.000 0,0 2614.818,1348.988 Z" style="stroke-width:2.0;stroke:rgb(115,115,115);stroke-linecap:round;fill:none;" />
<path d="M2464.028,1543.295 A965.000,965.000 40.000 0,1 2454.095,1644.665 L2612.287,1668.651 A1125.000,1125.000 0.000 0,0 2623.867,1550.473 Z" style="stroke-width:2.0;stroke:rgb(115,115,115);stroke-linecap:round;fill:rgb(116,196,118);" />
<text x="2684.8" y="1690.4" font-size="195.0px" font-family="CMUBright-Bold" style="text-anchor:start;fill:rgb(0,0,0);" transform="rotate(5.6,2684.8,1690.4)" >15</text>
<path d="M2464.028,1543.295 A965.000,965.000 40.000 0,1 2454.095,1644.665 L2612.287,1668.651 A1125.000,1125.000 0.000 0,0 2623.867,1550.473 Z" style="stroke-width:2.0;stroke:rgb(115,115,115);stroke-linecap:round;fill:none;" />
<path d="M2440.805,1714.733 A965.000,965.000 40.000 0,1 2412.931,1812.701 L2564.298,1864.548 A1125.000,1125.000 0.000 0,0 2596.794,1750.336 Z" style="stroke-width:2.0;stroke:rgb(115,115,115);stroke-linecap:round;fill:rgb(116,196,118);" />
<text x="2632.4" y="1897.0" font-size="195.0px" font-family="CMUBright-Bold" style="text-anchor:start;fill:rgb(0,0,0);" transform="rotate(15.9,2632.4,1897.0)" >22</text>
<path d="M2440.805,1714.733 A965.000,965.000 40.000 0,1 2412.931,1812.701 L2564.298,1864.548 A1125.000,1125.000 0.000 0,0 2596.794,1750.336 Z" style="stroke-width:2.0;stroke:rgb(115,115,115);stroke-linecap:round;fill:none;" />
<path d="M2387.344,1879.269 A965.000,965.000 40.000 0,1 2342.425,1970.686 L2482.102,2048.727 A1125.000,1125.000 0.000 0,0 2534.469,1942.153 Z" style="stroke-width:2.0;stroke:rgb(115,115,115);stroke-linecap:round;fill:rgb(116,196,118);" />
<text x="2543.3" y="2092.8" font-size="195.0px" font-family="CMUBright-Bold" style="text-anchor:start;fill:rgb(0,0,0);" transform="rotate(26.2,2543.3,2092.8)" >24</text>
<path d="M2387.344,1879.269 A965.000,965.000 40.000 0,1 2342.425,1970.686 L2482.102,2048.727 A1125.000,1125.000 0.000 0,0 2534.469,1942.153 Z" style="stroke-width:2.0;stroke:rgb(115,115,115);stroke-linecap:round;fill:none;" />
<path d="M2305.363,2031.616 A965.000,965.000 40.000 0,1 2244.843,2113.542 L2368.340,2215.270 A1125.000,1125.000 0.000 0,0 2438.895,2119.759 Z" style="stroke-width:2.0;stroke:rgb(115,115,115);stroke-linecap:round;fill:rgb(116,196,118);" />
<text x="2419.4" y="2271.1" font-size="195.0px" font-family="CMUBright-Bold" style="text-anchor:start;fill:rgb(0,0,0);" transform="rotate(36.5,2419.4,2271.1)" >30</text>
<path d="M2305.363,2031.616 A965.000,965.000 40.000 0,1 2244.843,2113.542 L2368.340,2215.270 A1125.000,1125.000 0.000 0,0 2438.895,2119.759 Z" style="stroke-width:2.0;stroke:rgb(115,115,115);stroke-linecap:round;fill:none;" />
<path d="M2197.497,2166.875 A965.000,965.000 40.000 0,1 2123.321,2236.679 L2226.669,2358.823 A1125.000,1125.000 0.000 0,0 2313.144,2277.445 Z" style="stroke-width:2.0;stroke:rgb(115,115,115);stroke-linecap:round;fill:rgb(153,0,204);" />
<text x="2268.5" y="2421.6" font-size="195.0px" font-family="CMUBright-Bold" style="text-anchor:start;fill:rgb(0,0,0);" transform="rotate(46.7,2268.5,2421.6)" >1</text>
<path d="M2197.497,2166.875 A965.000,965.000 40.000 0,1 2123.321,2236.679 L2226.669,2358.823 A1125.000,1125.000 0.000 0,0 2313.144,2277.445 Z" style="stroke-width:2.0;stroke:rgb(115,115,115);stroke-linecap:round;fill:none;" />
<path d="M2067.213,2280.701 A965.000,965.000 40.000 0,1 1981.764,2336.139 L2061.642,2474.773 A1125.000,1125.000 0.000 0,0 2161.258,2410.144 Z" style="stroke-width:2.0;stroke:rgb(115,115,115);stroke-linecap:round;fill:rgb(153,0,204);" />
<text x="2089.8" y="2545.0" font-size="195.0px" font-family="CMUBright-Bold" style="text-anchor:start;fill:rgb(0,0,0);" transform="rotate(57.0,2089.8,2545.0)" >9</text>
<path d="M2067.213,2280.701 A965.000,965.000 40.000 0,1 1981.764,2336.139 L2061.642,2474.773 A1125.000,1125.000 0.000 0,0 2161.258,2410.144 Z" style="stroke-width:2.0;stroke:rgb(115,115,115);stroke-linecap:round;fill:none;" />
<path d="M1918.698,2369.435 A965.000,965.000 40.000 0,1 1824.724,2408.724 L1878.564,2559.393 A1125.000,1125.000 0.000 0,0 1988.119,2513.590 Z" style="stroke-width:2.0;stroke:rgb(115,115,115);stroke-linecap:round;fill:rgb(153,0,204);" />
<text x="1894.7" y="2633.2" font-size="195.0px" font-family="CMUBright-Bold" style="text-anchor:start;fill:rgb(0,0,0);" transform="rotate(67.3,1894.7,2633.2)" >17</text>
<path d="M1918.698,2369.435 A965.000,965.000 40.000 0,1 1824.724,2408.724 L1878.564,2559.393 A1125.000,1125.000 0.000 0,0 1988.119,2513.590 Z" style="stroke-width:2.0;stroke:rgb(115,115,115);stroke-linecap:round;fill:none;" />
<path d="M1756.726,2430.224 A965.000,965.000 40.000 0,1 1657.246,2452.102 L1683.318,2609.964 A1125.000,1125.000 0.000 0,0 1799.291,2584.458 Z" style="stroke-width:2.0;stroke:rgb(115,115,115);stroke-linecap:round;fill:rgb(153,0,204);" />
<text x="1685.0" y="2685.6" font-size="195.0px" font-family="CMUBright-Bold" style="text-anchor:start;fill:rgb(0,0,0);" transform="rotate(77.6,1685.0,2685.6)" >18</text>
<path d="M1756.726,2430.224 A965.000,965.000 40.000 0,1 1657.246,2452.102 L1683.318,2609.964 A1125.000,1125.000 0.000 0,0 1799.291,2584.458 Z" style="stroke-width:2.0;stroke:rgb(115,115,115);stroke-linecap:round;fill:none;" />
<path d="M1586.502,2461.115 A965.000,965.000 40.000 0,1 1484.715,2464.879 L1482.181,2624.859 A1125.000,1125.000 0.000 0,0 1600.844,2620.471 Z" style="stroke-width:2.0;stroke:rgb(115,115,115);stroke-linecap:round;fill:rgb(153,0,204);" />
<text x="1470.4" y="2699.6" font-size="195.0px" font-family="CMUBright-Bold" style="text-anchor:start;fill:rgb(0,0,0);" transform="rotate(87.9,1470.4,2699.6)" >25</text>
<path d="M1586.502,2461.115 A965.000,965.000 40.000 0,1 1484.715,2464.879 L1482.181,2624.859 A1125.000,1125.000 0.000 0,0 1600.844,2620.471 Z" style="stroke-width:2.0;stroke:rgb(115,115,115);stroke-linecap:round;fill:none;" />
<path d="M1413.498,2461.115 A965.000,965.000 40.000 0,1 1312.675,2446.644 L1281.616,2603.600 A1125.000,1125.000 0.000 0,0 1399.156,2620.471 Z" style="stroke-width:2.0;stroke:rgb(115,115,115);stroke-linecap:round;fill:rgb(153,0,204);" />
<text x="1403.0" y="2696.1" font-size="195.0px" font-family="CMUBright-Bold" style="text-anchor:end;fill:rgb(0,0,0);" transform="rotate(-81.8,1403.0,2696.1)" >28</text>
<path d="M1413.498,2461.115 A965.000,965.000 40.000 0,1 1312.675,2446.644 L1281.616,2603.600 A1125.000,1125.000 0.000 0,0 1399.156,2620.471 Z" style="stroke-width:2.0;stroke:rgb(115,115,115);stroke-linecap:round;fill:none;" />
<path d="M1243.274,2430.224 A965.000,965.000 40.000 0,1 1146.656,2397.983 L1088.070,2546.871 A1125.000,1125.000 0.000 0,0 1200.709,2584.458 Z" style="stroke-width:2.0;stroke:rgb(115,115,115);stroke-linecap:round;fill:rgb(153,0,204);" />
<text x="1191.0" y="2659.5" font-size="195.0px" font-family="CMUBright-Bold" style="text-anchor:end;fill:rgb(0,0,0);" transform="rotate(-71.5,1191.0,2659.5)" >34</text>
<path d="M1243.274,2430.224 A965.000,965.000 40.000 0,1 1146.656,2397.983 L1088.070,2546.871 A1125.000,1125.000 0.000 0,0 1200.709,2584.458 Z" style="stroke-width:2.0;stroke:rgb(115,115,115);stroke-linecap:round;fill:none;" />
<path d="M1081.302,2369.435 A965.000,965.000 40.000 0,1 991.993,2320.460 L907.764,2456.494 A1125.000,1125.000 0.000 0,0 1011.881,2513.590 Z" style="stroke-width:2.0;stroke:rgb(115,115,115);stroke-linecap:round;fill:rgb(253,208,162);" />
<text x="987.1" y="2584.9" font-size="195.0px" font-family="CMUBright-Bold" style="text-anchor:end;fill:rgb(0,0,0);" transform="rotate(-61.3,987.1,2584.9)" >5</text>
<path d="M1081.302,2369.435 A965.000,965.000 40.000 0,1 991.993,2320.460 L907.764,2456.494 A1125.000,1125.000 0.000 0,0 1011.881,2513.590 Z" style="stroke-width:2.0;stroke:rgb(115,115,115);stroke-linecap:round;fill:none;" />
<path d="M932.787,2280.701 A965.000,965.000 40.000 0,1 853.658,2216.566 L746.493,2335.375 A1125.000,1125.000 0.000 0,0 838.742,2410.144 Z" style="stroke-width:2.0;stroke:rgb(115,115,115);stroke-linecap:round;fill:rgb(253,208,162);" />
<text x="801.7" y="2475.9" font-size="195.0px" font-family="CMUBright-Bold" style="text-anchor:end;fill:rgb(0,0,0);" transform="rotate(-51.0,801.7,2475.9)" >12</text>
<path d="M932.787,2280.701 A965.000,965.000 40.000 0,1 853.658,2216.566 L746.493,2335.375 A1125.000,1125.000 0.000 0,0 838.742,2410.144 Z" style="stroke-width:2.0;stroke:rgb(115,115,115);stroke-linecap:round;fill:none;" />
<path d="M802.503,2166.875 A965.000,965.000 40.000 0,1 736.097,2089.642 L609.440,2187.406 A1125.000,1125.000 0.000 0,0 686.856,2277.445 Z" style="stroke-width:2.0;stroke:rgb(115,115,115);stroke-linecap:round;fill:rgb(253,208,162);" />
<text x="640.0" y="2336.9" font-size="195.0px" font-family="CMUBright-Bold" style="text-anchor:end;fill:rgb(0,0,0);" transform="rotate(-40.7,640.0,2336.9)" >16</text>
<path d="M802.503,2166.875 A965.000,965.000 40.000 0,1 736.097,2089.642 L609.440,2187.406 A1125.000,1125.000 0.000 0,0 686.856,2277.445 Z" style="stroke-width:2.0;stroke:rgb(115,115,115);stroke-linecap:round;fill:none;" />
<path d="M694.637,2031.616 A965.000,965.000 40.000 0,1 643.089,1943.766 L501.010,2017.344 A1125.000,1125.000 0.000 0,0 561.105,2119.759 Z" style="stroke-width:2.0;stroke:rgb(115,115,115);stroke-linecap:round;fill:rgb(253,208,162);" />
<text x="504.4" y="2169.9" font-size="195.0px" font-family="CMUBright-Bold" style="text-anchor:end;fill:rgb(0,0,0);" transform="rotate(-30.4,504.4,2169.9)" >20</text>
<path d="M694.637,2031.616 A965.000,965.000 40.000 0,1 643.089,1943.766 L501.010,2017.344 A1125.000,1125.000 0.000 0,0 561.105,2119.759 Z" style="stroke-width:2.0;stroke:rgb(115,115,115);stroke-linecap:round;fill:none;" />
<path d="M612.656,1879.269 A965.000,965.000 40.000 0,1 577.622,1783.627 L424.689,1830.653 A1125.000,1125.000 0.000 0,0 465.531,1942.153 Z" style="stroke-width:2.0;stroke:rgb(115,115,115);stroke-linecap:round;fill:rgb(253,208,162);" />
<text x="400.0" y="1979.6" font-size="195.0px" font-family="CMUBright-Bold" style="text-anchor:end;fill:rgb(0,0,0);" transform="rotate(-20.1,400.0,1979.6)" >21</text>
<path d="M612.656,1879.269 A965.000,965.000 40.000 0,1 577.622,1783.627 L424.689,1830.653 A1125.000,1125.000 0.000 0,0 465.531,1942.153 Z" style="stroke-width:2.0;stroke:rgb(115,115,115);stroke-linecap:round;fill:none;" />
<path d="M559.195,1714.733 A965.000,965.000 40.000 0,1 541.802,1614.372 L382.929,1633.336 A1125.000,1125.000 0.000 0,0 403.206,1750.336 Z" style="stroke-width:2.0;stroke:rgb(115,115,115);stroke-linecap:round;fill:rgb(253,141,60);" />
<text x="332.0" y="1775.4" font-size="195.0px" font-family="CMUBright-Bold" style="text-anchor:end;fill:rgb(0,0,0);" transform="rotate(-9.8,332.0,1775.4)" >11</text>
<path d="M559.195,1714.733 A965.000,965.000 40.000 0,1 541.802,1614.372 L382.929,1633.336 A1125.000,1125.000 0.000 0,0 403.206,1750.336 Z" style="stroke-width:2.0;stroke:rgb(115,115,115);stroke-linecap:round;fill:none;" />
<path d="M535.972,1543.295 A965.000,965.000 40.000 0,1 536.778,1441.441 L377.073,1431.732 A1125.000,1125.000 0.000 0,0 376.133,1550.473 Z" style="stroke-width:2.0;stroke:rgb(115,115,115);stroke-linecap:round;fill:rgb(253,141,60);" />
<text x="301.7" y="1564.5" font-size="195.0px" font-family="CMUBright-Bold" style="text-anchor:end;fill:rgb(0,0,0);" transform="rotate(0.5,301.7,1564.5)" >31</text>
<path d="M535.972,1543.295 A965.000,965.000 40.000 0,1 536.778,1441.441 L377.073,1431.732 A1125.000,1125.000 0.000 0,0 376.133,1550.473 Z" style="stroke-width:2.0;stroke:rgb(115,115,115);stroke-linecap:round;fill:none;" />
<path d="M543.733,1370.465 A965.000,965.000 40.000 0,1 562.714,1270.393 L407.309,1232.323 A1125.000,1125.000 0.000 0,0 385.182,1348.988 Z" style="stroke-width:2.0;stroke:rgb(115,115,115);stroke-linecap:round;fill:rgb(253,141,60);" />
<text x="309.5" y="1349.5" font-size="195.0px" font-family="CMUBright-Bold" style="text-anchor:end;fill:rgb(0,0,0);" transform="rotate(10.7,309.5,1349.5)" >32</text>
<path d="M543.733,1370.465 A965.000,965.000 40.000 0,1 562.714,1270.393 L407.309,1232.323 A1125.000,1125.000 0.000 0,0 385.182,1348.988 Z" style="stroke-width:2.0;stroke:rgb(115,115,115);stroke-linecap:round;fill:none;" />
<path d="M582.230,1201.799 A965.000,965.000 40.000 0,1 618.774,1106.724 L472.664,1041.517 A1125.000,1125.000 0.000 0,0 430.061,1152.356 Z" style="stroke-width:2.0;stroke:rgb(115,115,115);stroke-linecap:round;fill:rgb(253,141,60);" />
<text x="355.5" y="1139.3" font-size="195.0px" font-family="CMUBright-Bold" style="text-anchor:end;fill:rgb(0,0,0);" transform="rotate(21.0,355.5,1139.3)" >33</text>
<path d="M582.230,1201.799 A965.000,965.000 40.000 0,1 618.774,1106.724 L472.664,1041.517 A1125.000,1125.000 0.000 0,0 430.061,1152.356 Z" style="stroke-width:2.0;stroke:rgb(115,115,115);stroke-linecap:round;fill:none;" />
<path d="M650.225,1042.717 A965.000,965.000 40.000 0,1 703.158,955.695 L571.039,865.447 A1125.000,1125.000 0.000 0,0 509.330,966.898 Z" style="stroke-width:2.0;stroke:rgb(115,115,115);stroke-linecap:round;fill:rgb(66,146,198);" />
<text x="440.2" y="937.2" font-size="195.0px" font-family="CMUBright-Bold" style="text-anchor:end;fill:rgb(0,0,0);" transform="rotate(31.3,440.2,937.2)" >4</text>
<path d="M650.225,1042.717 A965.000,965.000 40.000 0,1 703.158,955.695 L571.039,865.447 A1125.000,1125.000 0.000 0,0 509.330,966.898 Z" style="stroke-width:2.0;stroke:rgb(115,115,115);stroke-linecap:round;fill:none;" />
<path d="M745.533,898.332 A965.000,965.000 40.000 0,1 813.153,822.160 L699.272,709.772 A1125.000,1125.000 0.000 0,0 620.440,798.574 Z" style="stroke-width:2.0;stroke:rgb(115,115,115);stroke-linecap:round;fill:rgb(66,146,198);" />
<text x="555.2" y="760.2" font-size="195.0px" font-family="CMUBright-Bold" style="text-anchor:end;fill:rgb(0,0,0);" transform="rotate(41.6,555.2,760.2)" >6</text>
<path d="M745.533,898.332 A965.000,965.000 40.000 0,1 813.153,822.160 L699.272,709.772 A1125.000,1125.000 0.000 0,0 620.440,798.574 Z" style="stroke-width:2.0;stroke:rgb(115,115,115);stroke-linecap:round;fill:none;" />
<path d="M865.089,773.286 A965.000,965.000 40.000 0,1 945.224,710.412 L853.241,579.496 A1125.000,1125.000 0.000 0,0 759.819,652.795 Z" style="stroke-width:2.0;stroke:rgb(115,115,115);stroke-linecap:round;fill:rgb(66,146,198);" />
<text x="704.7" y="601.4" font-size="195.0px" font-family="CMUBright-Bold" style="text-anchor:end;fill:rgb(0,0,0);" transform="rotate(51.9,704.7,601.4)" >7</text>
<path d="M865.089,773.286 A965.000,965.000 40.000 0,1 945.224,710.412 L853.241,579.496 A1125.000,1125.000 0.000 0,0 759.819,652.795 Z" style="stroke-width:2.0;stroke:rgb(115,115,115);stroke-linecap:round;fill:none;" />
<path d="M1005.052,671.597 A965.000,965.000 40.000 0,1 1095.126,624.042 L1027.997,478.806 A1125.000,1125.000 0.000 0,0 922.988,534.245 Z" style="stroke-width:2.0;stroke:rgb(115,115,115);stroke-linecap:round;fill:rgb(66,146,198);" />
<text x="875.4" y="475.4" font-size="195.0px" font-family="CMUBright-Bold" style="text-anchor:end;fill:rgb(0,0,0);" transform="rotate(62.2,875.4,475.4)" >23</text>
<path d="M1005.052,671.597 A965.000,965.000 40.000 0,1 1095.126,624.042 L1027.997,478.806 A1125.000,1125.000 0.000 0,0 922.988,534.245 Z" style="stroke-width:2.0;stroke:rgb(115,115,115);stroke-linecap:round;fill:none;" />
<path d="M1160.923,596.533 A965.000,965.000 40.000 0,1 1258.041,565.826 L1217.923,410.937 A1125.000,1125.000 0.000 0,0 1104.703,446.736 Z" style="stroke-width:2.0;stroke:rgb(115,115,115);stroke-linecap:round;fill:rgb(66,146,198);" />
<text x="1069.3" y="379.9" font-size="195.0px" font-family="CMUBright-Bold" style="text-anchor:end;fill:rgb(0,0,0);" transform="rotate(72.5,1069.3,379.9)" >27</text>
<path d="M1160.923,596.533 A965.000,965.000 40.000 0,1 1258.041,565.826 L1217.923,410.937 A1125.000,1125.000 0.000 0,0 1104.703,446.736 Z" style="stroke-width:2.0;stroke:rgb(115,115,115);stroke-linecap:round;fill:none;" />
<path d="M1327.693,550.508 A965.000,965.000 40.000 0,1 1428.732,537.635 L1416.916,378.072 A1125.000,1125.000 0.000 0,0 1299.123,393.079 Z" style="stroke-width:2.0;stroke:rgb(115,115,115);stroke-linecap:round;fill:rgb(66,146,198);" />
<text x="1275.3" y="321.2" font-size="195.0px" font-family="CMUBright-Bold" style="text-anchor:end;fill:rgb(0,0,0);" transform="rotate(82.7,1275.3,321.2)" >29</text>
<path d="M1327.693,550.508 A965.000,965.000 40.000 0,1 1428.732,537.635 L1416.916,378.072 A1125.000,1125.000 0.000 0,0 1299.123,393.079 Z" style="stroke-width:2.0;stroke:rgb(115,115,115);stroke-linecap:round;fill:none;" />
</g>
<g id="track_1">
<path d="M 2128.3,2167.6 L 2102.2,2140.5 2075.3,2114.0 2047.8,2088.2 2019.6,2063.4 1990.9,2039.6 1961.7,2017.0 1932.1,1995.7 1902.1,1975.9 1871.8,1957.7 1841.3,1941.2 1810.5,1926.4 1779.6,1913.5 1748.6,1902.6 1717.6,1893.6 1686.6,1886.7 1655.7,1881.9 1624.9,1879.3 1594.2,1878.8 1563.8,1880.4 1533.6,1884.3 1503.7,1890.3 1474.2,1898.5 1445.0,1908.8 1416.3,1921.2 1388.0,1935.6 1360.2,1952.0 1333.0,1970.4 1306.3,1990.6 1280.3,2012.6 1254.8,2036.3 1230.1,2061.5 1206.0,2088.2 1182.6,2116.2 1160.0,2145.4 1138.2,2175.7 1117.2,2206.8 1097.0,2238.6 1077.7,2271.1 1059.2,2303.8  " style="stroke-opacity: 1.000000; stroke-width: 5.0; stroke: rgb(251,106,74); fill: none"  />
<path d="M 2128.3,2167.6 L 2096.4,2133.7 2064.6,2099.7 2032.7,2065.6 2000.9,2031.3 1969.2,1997.0 1937.4,1962.5 1905.7,1927.9 1874.1,1893.3 1842.5,1858.5 1810.9,1823.6 1779.4,1788.6 1748.0,1753.5 1716.7,1718.3 1685.4,1683.0 1654.2,1647.7 1623.0,1612.2 1592.0,1576.6 1561.0,1541.0 1530.1,1505.3 1499.3,1469.4 1468.6,1433.6 1438.0,1397.6 1407.5,1361.6 1377.1,1325.4 1346.8,1289.3 1316.6,1253.1 1286.5,1216.8 1256.6,1180.4 1226.7,1144.1 1196.9,1107.6 1167.3,1071.2 1137.7,1034.7 1108.3,998.2 1079.0,961.6 1049.8,925.1 1020.7,888.5 991.7,851.9 962.9,815.3 934.1,778.8  " style="stroke-opacity: 1.000000; stroke-width: 5.0; stroke: rgb(251,106,74); fill: none"  />
<path d="M 2128.3,2167.6 L 2101.7,2140.0 2074.3,2113.0 2046.1,2086.7 2017.1,2061.2 1987.5,2036.7 1957.3,2013.3 1926.5,1991.1 1895.2,1970.3 1863.4,1951.0 1831.2,1933.3 1798.6,1917.2 1765.7,1902.8 1732.5,1890.3 1699.0,1879.6 1665.4,1870.8 1631.7,1863.9 1597.8,1859.1 1563.9,1856.3 1530.1,1855.5 1496.3,1856.7 1462.5,1860.0 1429.0,1865.4 1395.6,1872.7 1362.4,1882.0 1329.5,1893.2 1297.0,1906.4 1264.8,1921.4 1233.0,1938.1 1201.7,1956.6 1170.9,1976.6 1140.6,1998.3 1110.9,2021.3 1081.8,2045.6 1053.4,2071.2 1025.7,2097.8 998.8,2125.4 972.6,2153.7 947.2,2182.7 922.8,2212.2  " style="stroke-opacity: 1.000000; stroke-width: 5.0; stroke: rgb(251,106,74); fill: none"  />
<path d="M 2128.3,2167.6 L 2097.9,2135.0 2067.6,2102.0 2037.5,2068.4 2007.5,2034.3 1977.7,1999.8 1948.2,1964.8 1918.9,1929.3 1890.0,1893.4 1861.3,1857.0 1833.0,1820.2 1805.0,1782.9 1777.5,1745.2 1750.3,1707.1 1723.6,1668.6 1697.3,1629.7 1671.5,1590.4 1646.1,1550.7 1621.3,1510.8 1596.9,1470.4 1573.1,1429.8 1549.7,1388.9 1527.0,1347.7 1504.7,1306.2 1483.0,1264.5 1461.9,1222.6 1441.3,1180.5 1421.3,1138.2 1401.8,1095.7 1382.9,1053.1 1364.6,1010.4 1346.8,967.7 1329.5,924.9 1312.8,882.0 1296.7,839.2 1281.1,796.3 1265.9,753.6 1251.3,710.9 1237.2,668.3 1223.6,625.9  " style="stroke-opacity: 1.000000; stroke-width: 5.0; stroke: rgb(251,106,74); fill: none"  />
<path d="M 1059.2,2303.8 L 1077.7,2271.1 1097.0,2238.6 1117.2,2206.8 1138.2,2175.7 1160.0,2145.4 1182.6,2116.2 1206.0,2088.2 1230.1,2061.5 1254.8,2036.3 1280.3,2012.6 1306.3,1990.6 1333.0,1970.4 1360.2,1952.0 1388.0,1935.6 1416.3,1921.2 1445.0,1908.8 1474.2,1898.5 1503.7,1890.3 1533.6,1884.3 1563.8,1880.4 1594.2,1878.8 1624.9,1879.3 1655.7,1881.9 1686.6,1886.7 1717.6,1893.6 1748.6,1902.6 1779.6,1913.5 1810.5,1926.4 1841.3,1941.2 1871.8,1957.7 1902.1,1975.9 1932.1,1995.7 1961.7,2017.0 1990.9,2039.6 2019.6,2063.4 2047.8,2088.2 2075.3,2114.0 2102.2,2140.5 2128.3,2167.6  " style="stroke-opacity: 1.000000; stroke-width: 5.0; stroke: rgb(251,106,74); fill: none"  />
<path d="M 1059.2,2303.8 L 1081.0,2263.8 1102.6,2223.6 1124.2,2183.0 1145.5,2142.1 1166.7,2101.0 1187.7,2059.6 1208.4,2018.0 1229.0,1976.1 1249.2,1933.9 1269.3,1891.5 1289.1,1848.9 1308.6,1806.1 1327.8,1763.1 1346.7,1719.8 1365.4,1676.4 1383.7,1632.8 1401.7,1589.0 1419.3,1545.1 1436.7,1501.0 1453.6,1456.8 1470.3,1412.5 1486.6,1368.0 1502.6,1323.5 1518.2,1278.8 1533.4,1234.1 1548.3,1189.3 1562.9,1144.5 1577.1,1099.6 1590.9,1054.7 1604.4,1009.8 1617.6,965.0 1630.4,920.1 1642.9,875.2 1655.0,830.5 1666.9,785.7 1678.4,741.1 1689.6,696.6 1700.5,652.2 1711.1,607.9  " style="stroke-opacity: 1.000000; stroke-width: 5.0; stroke: rgb(251,106,74); fill: none"  />
<path d="M 934.1,778.8 L 962.9,815.3 991.7,851.9 1020.7,888.5 1049.8,925.1 1079.0,961.6 1108.3,998.2 1137.7,1034.7 1167.3,1071.2 1196.9,1107.6 1226.7,1144.1 1256.6,1180.4 1286.5,1216.8 1316.6,1253.1 1346.8,1289.3 1377.1,1325.4 1407.5,1361.6 1438.0,1397.6 1468.6,1433.6 1499.3,1469.4 1530.1,1505.3 1561.0,1541.0 1592.0,1576.6 1623.0,1612.2 1654.2,1647.7 1685.4,1683.0 1716.7,1718.3 1748.0,1753.5 1779.4,1788.6 1810.9,1823.6 1842.5,1858.5 1874.1,1893.3 1905.7,1927.9 1937.4,1962.5 1969.2,1997.0 2000.9,2031.3 2032.7,2065.6 2064.6,2099.7 2096.4,2133.7 2128.3,2167.6  " style="stroke-opacity: 1.000000; stroke-width: 5.0; stroke: rgb(251,106,74); fill: none"  />
<path d="M 934.1,778.8 L 958.4,810.4 982.1,842.9 1005.1,876.2 1027.3,910.2 1048.7,944.9 1069.0,980.2 1088.3,1016.2 1106.4,1052.7 1123.2,1089.7 1138.7,1127.2 1152.8,1165.1 1165.5,1203.4 1176.6,1242.0 1186.2,1280.8 1194.2,1320.0 1200.6,1359.3 1205.3,1398.7 1208.4,1438.3 1209.8,1477.9 1209.4,1517.5 1207.4,1557.1 1203.7,1596.6 1198.4,1636.0 1191.4,1675.2 1182.8,1714.2 1172.6,1752.9 1160.8,1791.3 1147.5,1829.4 1132.8,1867.0 1116.7,1904.3 1099.3,1941.0 1080.7,1977.2 1060.8,2012.9 1039.9,2047.9 1018.1,2082.3 995.3,2115.9 971.7,2148.8 947.5,2180.9 922.8,2212.2  " style="stroke-opacity: 1.000000; stroke-width: 5.0; stroke: rgb(251,106,74); fill: none"  />
<path d="M 934.1,778.8 L 960.8,813.2 987.2,848.3 1013.4,883.9 1039.2,920.2 1064.7,957.1 1089.8,994.5 1114.4,1032.5 1138.4,1071.0 1162.0,1110.1 1185.0,1149.7 1207.4,1189.8 1229.2,1230.3 1250.3,1271.3 1270.8,1312.8 1290.5,1354.6 1309.5,1396.9 1327.8,1439.5 1345.3,1482.5 1362.1,1525.8 1378.1,1569.4 1393.2,1613.3 1407.6,1657.4 1421.2,1701.8 1434.0,1746.3 1445.9,1791.0 1457.1,1835.9 1467.5,1880.8 1477.0,1925.8 1485.8,1970.9 1493.8,2016.0 1501.1,2061.0 1507.6,2106.0 1513.3,2150.9 1518.4,2195.6 1522.8,2240.2 1526.5,2284.6 1529.5,2328.7 1532.0,2372.6 1533.9,2416.1  " style="stroke-opacity: 1.000000; stroke-width: 5.0; stroke: rgb(251,106,74); fill: none"  />
<path d="M 1548.4,584.5 L 1545.8,625.2 1542.3,666.2 1537.9,707.4 1532.4,748.7 1525.9,790.0 1518.2,831.3 1509.4,872.5 1499.5,913.5 1488.3,954.2 1476.0,994.5 1462.4,1034.4 1447.5,1073.9 1431.3,1112.8 1413.9,1151.1 1395.3,1188.8 1375.3,1225.8 1354.1,1262.0 1331.6,1297.4 1307.9,1332.0 1283.0,1365.8 1256.9,1398.6 1229.6,1430.5 1201.2,1461.4 1171.8,1491.3 1141.2,1520.3 1109.7,1548.2 1077.3,1575.0 1043.9,1600.9 1009.8,1625.6 974.8,1649.3 939.2,1671.9 903.0,1693.5 866.2,1714.0 829.0,1733.4 791.4,1751.8 753.5,1769.2 715.4,1785.5 677.3,1800.9 639.2,1815.3  " style="stroke-opacity: 1.000000; stroke-width: 5.0; stroke: rgb(251,106,74); fill: none"  />
<path d="M 1999.0,2269.1 L 1976.1,2233.2 1953.5,2196.5 1931.5,2159.2 1909.9,2121.3 1888.9,2082.8 1868.5,2043.6 1848.8,2003.9 1829.8,1963.6 1811.6,1922.7 1794.2,1881.4 1777.6,1839.7 1761.9,1797.4 1747.2,1754.8 1733.3,1711.8 1720.5,1668.4 1708.6,1624.7 1697.8,1580.7 1687.9,1536.5 1679.1,1492.0 1671.4,1447.3 1664.7,1402.4 1659.1,1357.4 1654.5,1312.4 1650.9,1267.2 1648.5,1222.1 1647.0,1176.9 1646.6,1131.8 1647.1,1086.7 1648.7,1041.8 1651.2,997.1 1654.6,952.5 1658.9,908.2 1664.1,864.1 1670.1,820.4 1676.9,777.0 1684.5,734.0 1692.7,691.5 1701.6,649.4 1711.1,607.9  " style="stroke-opacity: 1.000000; stroke-width: 5.0; stroke: rgb(251,106,74); fill: none"  />
<path d="M 1999.0,2269.1 L 1978.1,2237.8 1956.4,2206.9 1933.9,2176.6 1910.7,2147.1 1886.7,2118.5 1862.0,2091.1 1836.7,2064.9 1810.7,2040.1 1784.1,2016.7 1757.0,1995.0 1729.4,1975.0 1701.3,1956.8 1672.8,1940.5 1643.8,1926.1 1614.6,1913.8 1585.0,1903.6 1555.2,1895.5 1525.1,1889.5 1494.9,1885.7 1464.5,1884.1 1434.0,1884.7 1403.5,1887.4 1372.9,1892.4 1342.4,1899.4 1312.0,1908.6 1281.8,1919.8 1251.7,1933.0 1221.8,1948.2 1192.3,1965.2 1163.0,1983.9 1134.1,2004.3 1105.7,2026.3 1077.7,2049.7 1050.3,2074.3 1023.4,2100.2 997.2,2127.1 971.6,2154.8 946.8,2183.3 922.8,2212.2  " style="stroke-opacity: 1.000000; stroke-width: 5.0; stroke: rgb(251,106,74); fill: none"  />
<path d="M 1999.0,2269.1 L 1977.1,2234.7 1955.9,2199.5 1935.3,2163.5 1915.4,2126.9 1896.4,2089.6 1878.3,2051.7 1861.2,2013.2 1845.2,1974.2 1830.3,1934.7 1816.6,1894.8 1804.1,1854.5 1792.9,1813.9 1783.1,1772.9 1774.7,1731.7 1767.7,1690.2 1762.1,1648.6 1757.9,1606.8 1755.3,1564.9 1754.1,1523.0 1754.5,1481.0 1756.3,1439.1 1759.6,1397.3 1764.4,1355.6 1770.6,1314.1 1778.3,1272.7 1787.4,1231.6 1797.9,1190.8 1809.7,1150.3 1822.8,1110.2 1837.1,1070.5 1852.6,1031.3 1869.3,992.6 1887.0,954.4 1905.7,916.8 1925.3,879.8 1945.7,843.5 1966.9,807.9 1988.7,773.0 2011.1,738.9  " style="stroke-opacity: 1.000000; stroke-width: 5.0; stroke: rgb(251,106,74); fill: none"  />
<path d="M 1711.1,607.9 L 1700.5,652.2 1689.6,696.6 1678.4,741.1 1666.9,785.7 1655.0,830.5 1642.9,875.2 1630.4,920.1 1617.6,965.0 1604.4,1009.8 1590.9,1054.7 1577.1,1099.6 1562.9,1144.5 1548.3,1189.3 1533.4,1234.1 1518.2,1278.8 1502.6,1323.5 1486.6,1368.0 1470.3,1412.5 1453.6,1456.8 1436.7,1501.0 1419.3,1545.1 1401.7,1589.0 1383.7,1632.8 1365.4,1676.4 1346.7,1719.8 1327.8,1763.1 1308.6,1806.1 1289.1,1848.9 1269.3,1891.5 1249.2,1933.9 1229.0,1976.1 1208.4,2018.0 1187.7,2059.6 1166.7,2101.0 1145.5,2142.1 1124.2,2183.0 1102.6,2223.6 1081.0,2263.8 1059.2,2303.8  " style="stroke-opacity: 1.000000; stroke-width: 5.0; stroke: rgb(251,106,74); fill: none"  />
<path d="M 1711.1,607.9 L 1701.6,649.4 1692.7,691.5 1684.5,734.0 1676.9,777.0 1670.1,820.4 1664.1,864.1 1658.9,908.2 1654.6,952.5 1651.2,997.1 1648.7,1041.8 1647.1,1086.7 1646.6,1131.8 1647.0,1176.9 1648.5,1222.1 1650.9,1267.2 1654.5,1312.4 1659.1,1357.4 1664.7,1402.4 1671.4,1447.3 1679.1,1492.0 1687.9,1536.5 1697.8,1580.7 1708.6,1624.7 1720.5,1668.4 1733.3,1711.8 1747.2,1754.8 1761.9,1797.4 1777.6,1839.7 1794.2,1881.4 1811.6,1922.7 1829.8,1963.6 1848.8,2003.9 1868.5,2043.6 1888.9,2082.8 1909.9,2121.3 1931.5,2159.2 1953.5,2196.5 1976.1,2233.2 1999.0,2269.1  " style="stroke-opacity: 1.000000; stroke-width: 5.0; stroke: rgb(251,106,74); fill: none"  />
<path d="M 922.8,2212.2 L 947.2,2182.7 972.6,2153.7 998.8,2125.4 1025.7,2097.8 1053.4,2071.2 1081.8,2045.6 1110.9,2021.3 1140.6,1998.3 1170.9,1976.6 1201.7,1956.6 1233.0,1938.1 1264.8,1921.4 1297.0,1906.4 1329.5,1893.2 1362.4,1882.0 1395.6,1872.7 1429.0,1865.4 1462.5,1860.0 1496.3,1856.7 1530.1,1855.5 1563.9,1856.3 1597.8,1859.1 1631.7,1863.9 1665.4,1870.8 1699.0,1879.6 1732.5,1890.3 1765.7,1902.8 1798.6,1917.2 1831.2,1933.3 1863.4,1951.0 1895.2,1970.3 1926.5,1991.1 1957.3,2013.3 1987.5,2036.7 2017.1,2061.2 2046.1,2086.7 2074.3,2113.0 2101.7,2140.0 2128.3,2167.6  " style="stroke-opacity: 1.000000; stroke-width: 5.0; stroke: rgb(251,106,74); fill: none"  />
<path d="M 922.8,2212.2 L 947.5,2180.9 971.7,2148.8 995.3,2115.9 1018.1,2082.3 1039.9,2047.9 1060.8,2012.9 1080.7,1977.2 1099.3,1941.0 1116.7,1904.3 1132.8,1867.0 1147.5,1829.4 1160.8,1791.3 1172.6,1752.9 1182.8,1714.2 1191.4,1675.2 1198.4,1636.0 1203.7,1596.6 1207.4,1557.1 1209.4,1517.5 1209.8,1477.9 1208.4,1438.3 1205.3,1398.7 1200.6,1359.3 1194.2,1320.0 1186.2,1280.8 1176.6,1242.0 1165.5,1203.4 1152.8,1165.1 1138.7,1127.2 1123.2,1089.7 1106.4,1052.7 1088.3,1016.2 1069.0,980.2 1048.7,944.9 1027.3,910.2 1005.1,876.2 982.1,842.9 958.4,810.4 934.1,778.8  " style="stroke-opacity: 1.000000; stroke-width: 5.0; stroke: rgb(251,106,74); fill: none"  />
<path d="M 922.8,2212.2 L 946.8,2183.3 971.6,2154.8 997.2,2127.1 1023.4,2100.2 1050.3,2074.3 1077.7,2049.7 1105.7,2026.3 1134.1,2004.3 1163.0,1983.9 1192.3,1965.2 1221.8,1948.2 1251.7,1933.0 1281.8,1919.8 1312.0,1908.6 1342.4,1899.4 1372.9,1892.4 1403.5,1887.4 1434.0,1884.7 1464.5,1884.1 1494.9,1885.7 1525.1,1889.5 1555.2,1895.5 1585.0,1903.6 1614.6,1913.8 1643.8,1926.1 1672.8,1940.5 1701.3,1956.8 1729.4,1975.0 1757.0,1995.0 1784.1,2016.7 1810.7,2040.1 1836.7,2064.9 1862.0,2091.1 1886.7,2118.5 1910.7,2147.1 1933.9,2176.6 1956.4,2206.9 1978.1,2237.8 1999.0,2269.1  " style="stroke-opacity: 1.000000; stroke-width: 5.0; stroke: rgb(251,106,74); fill: none"  />
<path d="M 922.8,2212.2 L 945.7,2184.4 969.0,2157.1 992.7,2130.6 1016.6,2104.9 1040.6,2080.4 1064.7,2057.1 1088.7,2035.3 1112.6,2015.0 1136.3,1996.4 1159.7,1979.7 1182.8,1965.0 1205.4,1952.3 1227.6,1941.7 1249.3,1933.4 1270.4,1927.3 1290.8,1923.6 1310.6,1922.2 1329.6,1923.2 1347.9,1926.7 1365.4,1932.5 1382.1,1940.7 1397.9,1951.4 1412.9,1964.3 1427.0,1979.6 1440.2,1997.1 1452.5,2016.8 1463.9,2038.6 1474.4,2062.3 1484.0,2088.0 1492.7,2115.4 1500.5,2144.4 1507.4,2175.0 1513.5,2206.9 1518.8,2239.9 1523.3,2274.0 1527.0,2308.9 1530.0,2344.3 1532.2,2380.1 1533.9,2416.1  " style="stroke-opacity: 1.000000; stroke-width: 5.0; stroke: rgb(251,106,74); fill: none"  />
<path d="M 922.8,2212.2 L 945.4,2184.6 968.3,2157.5 991.4,2131.1 1014.5,2105.6 1037.6,2081.1 1060.5,2057.9 1083.1,2036.0 1105.4,2015.8 1127.3,1997.2 1148.6,1980.4 1169.3,1965.6 1189.4,1952.8 1208.7,1942.1 1227.2,1933.6 1244.9,1927.3 1261.7,1923.4 1277.6,1921.9 1292.4,1922.7 1306.3,1925.9 1319.2,1931.5 1330.9,1939.5 1341.7,1949.9 1351.3,1962.6 1359.8,1977.5 1367.3,1994.8 1373.6,2014.1 1378.9,2035.6 1383.2,2059.0 1386.4,2084.3 1388.5,2111.3 1389.7,2140.0 1390.0,2170.1 1389.4,2201.5 1387.9,2234.1 1385.6,2267.7 1382.6,2302.0 1378.9,2336.9 1374.6,2372.1 1369.8,2407.5  " style="stroke-opacity: 1.000000; stroke-width: 5.0; stroke: rgb(251,106,74); fill: none"  />
<path d="M 922.8,2212.2 L 945.2,2184.8 967.7,2157.8 990.3,2131.4 1012.7,2105.8 1034.8,2081.2 1056.6,2057.8 1077.9,2035.7 1098.6,2015.1 1118.6,1996.1 1137.9,1978.9 1156.3,1963.5 1173.8,1950.1 1190.3,1938.8 1205.8,1929.6 1220.2,1922.6 1233.4,1917.8 1245.4,1915.4 1256.2,1915.2 1265.7,1917.4 1274.0,1921.9 1281.0,1928.8 1286.7,1938.0 1291.0,1949.4 1294.1,1963.1 1295.9,1979.0 1296.5,1997.0 1295.8,2017.0 1293.9,2039.0 1290.9,2062.8 1286.7,2088.3 1281.5,2115.4 1275.2,2143.9 1268.1,2173.7 1260.0,2204.7 1251.2,2236.6 1241.7,2269.2 1231.5,2302.4 1220.9,2336.0 1209.8,2369.6  " style="stroke-opacity: 1.000000; stroke-width: 5.0; stroke: rgb(251,106,74); fill: none"  />
<path d="M 1867.0,659.9 L 1848.9,701.7 1830.9,743.7 1813.1,786.1 1795.5,828.7 1778.1,871.5 1760.9,914.6 1744.0,958.0 1727.3,1001.6 1710.8,1045.3 1694.7,1089.4 1678.8,1133.6 1663.2,1178.0 1647.9,1222.6 1632.9,1267.3 1618.3,1312.2 1604.0,1357.3 1590.0,1402.5 1576.3,1447.8 1563.0,1493.3 1550.0,1538.9 1537.4,1584.5 1525.2,1630.3 1513.3,1676.1 1501.7,1721.9 1490.5,1767.8 1479.7,1813.8 1469.2,1859.7 1459.1,1905.7 1449.3,1951.6 1439.9,1997.5 1430.8,2043.4 1422.1,2089.3 1413.7,2135.0 1405.6,2180.7 1397.8,2226.3 1390.4,2271.8 1383.2,2317.2 1376.3,2362.4 1369.8,2407.5  " style="stroke-opacity: 1.000000; stroke-width: 5.0; stroke: rgb(251,106,74); fill: none"  />
<path d="M 2011.1,738.9 L 1988.7,773.0 1966.9,807.9 1945.7,843.5 1925.3,879.8 1905.7,916.8 1887.0,954.4 1869.3,992.6 1852.6,1031.3 1837.1,1070.5 1822.8,1110.2 1809.7,1150.3 1797.9,1190.8 1787.4,1231.6 1778.3,1272.7 1770.6,1314.1 1764.4,1355.6 1759.6,1397.3 1756.3,1439.1 1754.5,1481.0 1754.1,1523.0 1755.3,1564.9 1757.9,1606.8 1762.1,1648.6 1767.7,1690.2 1774.7,1731.7 1783.1,1772.9 1792.9,1813.9 1804.1,1854.5 1816.6,1894.8 1830.3,1934.7 1845.2,1974.2 1861.2,2013.2 1878.3,2051.7 1896.4,2089.6 1915.4,2126.9 1935.3,2163.5 1955.9,2199.5 1977.1,2234.7 1999.0,2269.1  " style="stroke-opacity: 1.000000; stroke-width: 5.0; stroke: rgb(251,106,74); fill: none"  />
<path d="M 804.9,2097.7 L 833.7,2073.5 863.2,2050.0 893.3,2027.2 923.9,2005.5 954.9,1984.8 986.4,1965.4 1018.1,1947.4 1050.0,1930.9 1082.0,1916.0 1114.1,1902.7 1146.3,1891.3 1178.4,1881.7 1210.3,1874.1 1242.1,1868.5 1273.7,1864.9 1304.9,1863.4 1335.8,1864.0 1366.4,1866.7 1396.5,1871.6 1426.1,1878.6 1455.1,1887.7 1483.7,1899.0 1511.6,1912.3 1538.8,1927.6 1565.4,1945.0 1591.3,1964.3 1616.5,1985.4 1640.9,2008.3 1664.5,2032.9 1687.3,2059.2 1709.3,2086.9 1730.4,2115.9 1750.6,2146.2 1770.0,2177.7 1788.5,2210.0 1806.2,2243.2 1822.9,2277.0 1838.7,2311.3 1853.6,2345.8  " style="stroke-opacity: 1.000000; stroke-width: 5.0; stroke: rgb(251,106,74); fill: none"  />
<path d="M 804.9,2097.7 L 836.2,2070.2 867.3,2041.9 898.1,2012.8 928.4,1982.7 958.3,1951.9 987.6,1920.3 1016.2,1887.8 1044.2,1854.5 1071.3,1820.5 1097.7,1785.7 1123.2,1750.2 1147.7,1714.0 1171.2,1677.1 1193.8,1639.5 1215.2,1601.3 1235.6,1562.5 1254.9,1523.1 1273.0,1483.2 1289.9,1442.7 1305.6,1401.8 1320.2,1360.4 1333.5,1318.7 1345.6,1276.5 1356.4,1234.0 1366.1,1191.3 1374.5,1148.3 1381.7,1105.1 1387.8,1061.8 1392.6,1018.4 1396.4,974.9 1399.0,931.4 1400.5,888.0 1401.0,844.7 1400.4,801.6 1398.9,758.7 1396.5,716.1 1393.1,673.8 1389.0,632.0 1384.1,590.6  " style="stroke-opacity: 1.000000; stroke-width: 5.0; stroke: rgb(251,106,74); fill: none"  />
<path d="M 804.9,2097.7 L 832.1,2074.6 859.5,2052.0 886.9,2030.2 914.2,2009.2 941.3,1989.2 967.9,1970.4 994.1,1953.0 1019.7,1937.0 1044.5,1922.6 1068.4,1909.9 1091.5,1899.0 1113.5,1890.0 1134.4,1882.9 1154.2,1877.9 1172.7,1874.9 1189.9,1874.1 1205.8,1875.4 1220.3,1878.8 1233.4,1884.5 1245.0,1892.3 1255.2,1902.2 1263.9,1914.4 1271.1,1928.6 1276.8,1944.8 1281.1,1963.1 1283.9,1983.3 1285.2,2005.3 1285.2,2029.1 1283.9,2054.6 1281.2,2081.6 1277.2,2110.0 1272.1,2139.7 1265.9,2170.5 1258.6,2202.3 1250.4,2234.9 1241.3,2268.1 1231.4,2301.8 1220.9,2335.7 1209.8,2369.6  " style="stroke-opacity: 1.000000; stroke-width: 5.0; stroke: rgb(251,106,74); fill: none"  />
<path d="M 1853.6,2345.8 L 1838.7,2311.3 1822.9,2277.0 1806.2,2243.2 1788.5,2210.0 1770.0,2177.7 1750.6,2146.2 1730.4,2115.9 1709.3,2086.9 1687.3,2059.2 1664.5,2032.9 1640.9,2008.3 1616.5,1985.4 1591.3,1964.3 1565.4,1945.0 1538.8,1927.6 1511.6,1912.3 1483.7,1899.0 1455.1,1887.7 1426.1,1878.6 1396.5,1871.6 1366.4,1866.7 1335.8,1864.0 1304.9,1863.4 1273.7,1864.9 1242.1,1868.5 1210.3,1874.1 1178.4,1881.7 1146.3,1891.3 1114.1,1902.7 1082.0,1916.0 1050.0,1930.9 1018.1,1947.4 986.4,1965.4 954.9,1984.8 923.9,2005.5 893.3,2027.2 863.2,2050.0 833.7,2073.5 804.9,2097.7  " style="stroke-opacity: 1.000000; stroke-width: 5.0; stroke: rgb(251,106,74); fill: none"  />
<path d="M 709.3,1964.0 L 740.5,1946.0 772.0,1928.6 803.5,1912.1 834.9,1896.5 866.0,1881.9 896.7,1868.6 926.8,1856.6 956.3,1846.0 985.0,1837.0 1012.8,1829.6 1039.6,1823.9 1065.3,1820.0 1089.8,1817.9 1113.0,1817.7 1134.8,1819.4 1155.3,1823.1 1174.3,1828.7 1191.8,1836.4 1207.7,1846.0 1222.0,1857.6 1234.7,1871.2 1245.8,1886.7 1255.3,1904.1 1263.1,1923.4 1269.4,1944.4 1274.0,1967.1 1277.0,1991.5 1278.5,2017.5 1278.4,2044.9 1276.9,2073.6 1274.0,2103.5 1269.8,2134.6 1264.3,2166.6 1257.6,2199.4 1249.8,2232.8 1241.0,2266.8 1231.4,2301.0 1220.9,2335.3 1209.8,2369.6  " style="stroke-opacity: 1.000000; stroke-width: 5.0; stroke: rgb(251,106,74); fill: none"  />
<path d="M 639.2,1815.3 L 677.3,1800.9 715.4,1785.5 753.5,1769.2 791.4,1751.8 829.0,1733.4 866.2,1714.0 903.0,1693.5 939.2,1671.9 974.8,1649.3 1009.8,1625.6 1043.9,1600.9 1077.3,1575.0 1109.7,1548.2 1141.2,1520.3 1171.8,1491.3 1201.2,1461.4 1229.6,1430.5 1256.9,1398.6 1283.0,1365.8 1307.9,1332.0 1331.6,1297.4 1354.1,1262.0 1375.3,1225.8 1395.3,1188.8 1413.9,1151.1 1431.3,1112.8 1447.5,1073.9 1462.4,1034.4 1476.0,994.5 1488.3,954.2 1499.5,913.5 1509.4,872.5 1518.2,831.3 1525.9,790.0 1532.4,748.7 1537.9,707.4 1542.3,666.2 1545.8,625.2 1548.4,584.5  " style="stroke-opacity: 1.000000; stroke-width: 5.0; stroke: rgb(251,106,74); fill: none"  />
<path d="M 639.2,1815.3 L 673.5,1803.1 708.1,1791.7 742.7,1781.1 777.2,1771.5 811.4,1763.0 845.1,1755.8 878.3,1749.8 910.7,1745.3 942.3,1742.2 972.9,1740.6 1002.4,1740.7 1030.8,1742.4 1057.9,1745.8 1083.6,1751.0 1107.9,1757.9 1130.7,1766.6 1151.9,1777.1 1171.5,1789.3 1189.5,1803.4 1205.8,1819.2 1220.3,1836.8 1233.1,1856.0 1244.2,1876.9 1253.6,1899.5 1261.2,1923.5 1267.1,1949.1 1271.3,1976.1 1273.8,2004.4 1274.8,2033.9 1274.1,2064.5 1272.0,2096.2 1268.3,2128.7 1263.4,2162.0 1257.1,2195.9 1249.6,2230.4 1241.0,2265.1 1231.5,2300.0 1221.0,2334.9 1209.8,2369.6  " style="stroke-opacity: 1.000000; stroke-width: 5.0; stroke: rgb(251,106,74); fill: none"  />
<path d="M 639.2,1815.3 L 682.9,1799.3 726.6,1783.1 770.3,1766.9 814.1,1750.5 857.9,1734.0 901.7,1717.5 945.5,1700.8 989.4,1683.9 1033.2,1667.0 1077.0,1650.0 1120.9,1632.8 1164.7,1615.5 1208.5,1598.1 1252.3,1580.6 1296.0,1562.9 1339.8,1545.2 1383.4,1527.3 1427.1,1509.3 1470.7,1491.2 1514.3,1473.0 1557.8,1454.7 1601.3,1436.2 1644.7,1417.7 1688.1,1399.0 1731.4,1380.3 1774.6,1361.4 1817.7,1342.5 1860.8,1323.4 1903.8,1304.3 1946.8,1285.1 1989.6,1265.7 2032.4,1246.4 2075.0,1226.9 2117.6,1207.4 2160.1,1187.8 2202.5,1168.1 2244.8,1148.4 2287.0,1128.6 2329.1,1108.8  " style="stroke-opacity: 1.000000; stroke-width: 5.0; stroke: rgb(251,106,74); fill: none"  />
<path d="M 1533.9,2416.1 L 1532.0,2372.6 1529.5,2328.7 1526.5,2284.6 1522.8,2240.2 1518.4,2195.6 1513.3,2150.9 1507.6,2106.0 1501.1,2061.0 1493.8,2016.0 1485.8,1970.9 1477.0,1925.8 1467.5,1880.8 1457.1,1835.9 1445.9,1791.0 1434.0,1746.3 1421.2,1701.8 1407.6,1657.4 1393.2,1613.3 1378.1,1569.4 1362.1,1525.8 1345.3,1482.5 1327.8,1439.5 1309.5,1396.9 1290.5,1354.6 1270.8,1312.8 1250.3,1271.3 1229.2,1230.3 1207.4,1189.8 1185.0,1149.7 1162.0,1110.1 1138.4,1071.0 1114.4,1032.5 1089.8,994.5 1064.7,957.1 1039.2,920.2 1013.4,883.9 987.2,848.3 960.8,813.2 934.1,778.8  " style="stroke-opacity: 1.000000; stroke-width: 5.0; stroke: rgb(251,106,74); fill: none"  />
<path d="M 1533.9,2416.1 L 1532.2,2380.1 1530.0,2344.3 1527.0,2308.9 1523.3,2274.0 1518.8,2239.9 1513.5,2206.9 1507.4,2175.0 1500.5,2144.4 1492.7,2115.4 1484.0,2088.0 1474.4,2062.3 1463.9,2038.6 1452.5,2016.8 1440.2,1997.1 1427.0,1979.6 1412.9,1964.3 1397.9,1951.4 1382.1,1940.7 1365.4,1932.5 1347.9,1926.7 1329.6,1923.2 1310.6,1922.2 1290.8,1923.6 1270.4,1927.3 1249.3,1933.4 1227.6,1941.7 1205.4,1952.3 1182.8,1965.0 1159.7,1979.7 1136.3,1996.4 1112.6,2015.0 1088.7,2035.3 1064.7,2057.1 1040.6,2080.4 1016.6,2104.9 992.7,2130.6 969.0,2157.1 945.7,2184.4 922.8,2212.2  " style="stroke-opacity: 1.000000; stroke-width: 5.0; stroke: rgb(251,106,74); fill: none"  />
<path d="M 1223.6,625.9 L 1237.2,668.3 1251.3,710.9 1265.9,753.6 1281.1,796.3 1296.7,839.2 1312.8,882.0 1329.5,924.9 1346.8,967.7 1364.6,1010.4 1382.9,1053.1 1401.8,1095.7 1421.3,1138.2 1441.3,1180.5 1461.9,1222.6 1483.0,1264.5 1504.7,1306.2 1527.0,1347.7 1549.7,1388.9 1573.1,1429.8 1596.9,1470.4 1621.3,1510.8 1646.1,1550.7 1671.5,1590.4 1697.3,1629.7 1723.6,1668.6 1750.3,1707.1 1777.5,1745.2 1805.0,1782.9 1833.0,1820.2 1861.3,1857.0 1890.0,1893.4 1918.9,1929.3 1948.2,1964.8 1977.7,1999.8 2007.5,2034.3 2037.5,2068.4 2067.6,2102.0 2097.9,2135.0 2128.3,2167.6  " style="stroke-opacity: 1.000000; stroke-width: 5.0; stroke: rgb(251,106,74); fill: none"  />
<path d="M 1369.8,2407.5 L 1374.6,2372.1 1378.9,2336.9 1382.6,2302.0 1385.6,2267.7 1387.9,2234.1 1389.4,2201.5 1390.0,2170.1 1389.7,2140.0 1388.5,2111.3 1386.4,2084.3 1383.2,2059.0 1378.9,2035.6 1373.6,2014.1 1367.3,1994.8 1359.8,1977.5 1351.3,1962.6 1341.7,1949.9 1330.9,1939.5 1319.2,1931.5 1306.3,1925.9 1292.4,1922.7 1277.6,1921.9 1261.7,1923.4 1244.9,1927.3 1227.2,1933.6 1208.7,1942.1 1189.4,1952.8 1169.3,1965.6 1148.6,1980.4 1127.3,1997.2 1105.4,2015.8 1083.1,2036.0 1060.5,2057.9 1037.6,2081.1 1014.5,2105.6 991.4,2131.1 968.3,2157.5 945.4,2184.6 922.8,2212.2  " style="stroke-opacity: 1.000000; stroke-width: 5.0; stroke: rgb(251,106,74); fill: none"  />
<path d="M 1369.8,2407.5 L 1376.3,2362.4 1383.2,2317.2 1390.4,2271.8 1397.8,2226.3 1405.6,2180.7 1413.7,2135.0 1422.1,2089.3 1430.8,2043.4 1439.9,1997.5 1449.3,1951.6 1459.1,1905.7 1469.2,1859.7 1479.7,1813.8 1490.5,1767.8 1501.7,1721.9 1513.3,1676.1 1525.2,1630.3 1537.4,1584.5 1550.0,1538.9 1563.0,1493.3 1576.3,1447.8 1590.0,1402.5 1604.0,1357.3 1618.3,1312.2 1632.9,1267.3 1647.9,1222.6 1663.2,1178.0 1678.8,1133.6 1694.7,1089.4 1710.8,1045.3 1727.3,1001.6 1744.0,958.0 1760.9,914.6 1778.1,871.5 1795.5,828.7 1813.1,786.1 1830.9,743.7 1848.9,701.7 1867.0,659.9  " style="stroke-opacity: 1.000000; stroke-width: 5.0; stroke: rgb(251,106,74); fill: none"  />
<path d="M 1384.1,590.6 L 1389.0,632.0 1393.1,673.8 1396.5,716.1 1398.9,758.7 1400.4,801.6 1401.0,844.7 1400.5,888.0 1399.0,931.4 1396.4,974.9 1392.6,1018.4 1387.8,1061.8 1381.7,1105.1 1374.5,1148.3 1366.1,1191.3 1356.4,1234.0 1345.6,1276.5 1333.5,1318.7 1320.2,1360.4 1305.6,1401.8 1289.9,1442.7 1273.0,1483.2 1254.9,1523.1 1235.6,1562.5 1215.2,1601.3 1193.8,1639.5 1171.2,1677.1 1147.7,1714.0 1123.2,1750.2 1097.7,1785.7 1071.3,1820.5 1044.2,1854.5 1016.2,1887.8 987.6,1920.3 958.3,1951.9 928.4,1982.7 898.1,2012.8 867.3,2041.9 836.2,2070.2 804.9,2097.7  " style="stroke-opacity: 1.000000; stroke-width: 5.0; stroke: rgb(251,106,74); fill: none"  />
<path d="M 1209.8,2369.6 L 1220.9,2336.0 1231.5,2302.4 1241.7,2269.2 1251.2,2236.6 1260.0,2204.7 1268.1,2173.7 1275.2,2143.9 1281.5,2115.4 1286.7,2088.3 1290.9,2062.8 1293.9,2039.0 1295.8,2017.0 1296.5,1997.0 1295.9,1979.0 1294.1,1963.1 1291.0,1949.4 1286.7,1938.0 1281.0,1928.8 1274.0,1921.9 1265.7,1917.4 1256.2,1915.2 1245.4,1915.4 1233.4,1917.8 1220.2,1922.6 1205.8,1929.6 1190.3,1938.8 1173.8,1950.1 1156.3,1963.5 1137.9,1978.9 1118.6,1996.1 1098.6,2015.1 1077.9,2035.7 1056.6,2057.8 1034.8,2081.2 1012.7,2105.8 990.3,2131.4 967.7,2157.8 945.2,2184.8 922.8,2212.2  " style="stroke-opacity: 1.000000; stroke-width: 5.0; stroke: rgb(251,106,74); fill: none"  />
<path d="M 1209.8,2369.6 L 1220.9,2335.7 1231.4,2301.8 1241.3,2268.1 1250.4,2234.9 1258.6,2202.3 1265.9,2170.5 1272.1,2139.7 1277.2,2110.0 1281.2,2081.6 1283.9,2054.6 1285.2,2029.1 1285.2,2005.3 1283.9,1983.3 1281.1,1963.1 1276.8,1944.8 1271.1,1928.6 1263.9,1914.4 1255.2,1902.2 1245.0,1892.3 1233.4,1884.5 1220.3,1878.8 1205.8,1875.4 1189.9,1874.1 1172.7,1874.9 1154.2,1877.9 1134.4,1882.9 1113.5,1890.0 1091.5,1899.0 1068.4,1909.9 1044.5,1922.6 1019.7,1937.0 994.1,1953.0 967.9,1970.4 941.3,1989.2 914.2,2009.2 886.9,2030.2 859.5,2052.0 832.1,2074.6 804.9,2097.7  " style="stroke-opacity: 1.000000; stroke-width: 5.0; stroke: rgb(251,106,74); fill: none"  />
<path d="M 1209.8,2369.6 L 1220.9,2335.3 1231.4,2301.0 1241.0,2266.8 1249.8,2232.8 1257.6,2199.4 1264.3,2166.6 1269.8,2134.6 1274.0,2103.5 1276.9,2073.6 1278.4,2044.9 1278.5,2017.5 1277.0,1991.5 1274.0,1967.1 1269.4,1944.4 1263.1,1923.4 1255.3,1904.1 1245.8,1886.7 1234.7,1871.2 1222.0,1857.6 1207.7,1846.0 1191.8,1836.4 1174.3,1828.7 1155.3,1823.1 1134.8,1819.4 1113.0,1817.7 1089.8,1817.9 1065.3,1820.0 1039.6,1823.9 1012.8,1829.6 985.0,1837.0 956.3,1846.0 926.8,1856.6 896.7,1868.6 866.0,1881.9 834.9,1896.5 803.5,1912.1 772.0,1928.6 740.5,1946.0 709.3,1964.0  " style="stroke-opacity: 1.000000; stroke-width: 5.0; stroke: rgb(251,106,74); fill: none"  />
<path d="M 1209.8,2369.6 L 1221.0,2334.9 1231.5,2300.0 1241.0,2265.1 1249.6,2230.4 1257.1,2195.9 1263.4,2162.0 1268.3,2128.7 1272.0,2096.2 1274.1,2064.5 1274.8,2033.9 1273.8,2004.4 1271.3,1976.1 1267.1,1949.1 1261.2,1923.5 1253.6,1899.5 1244.2,1876.9 1233.1,1856.0 1220.3,1836.8 1205.8,1819.2 1189.5,1803.4 1171.5,1789.3 1151.9,1777.1 1130.7,1766.6 1107.9,1757.9 1083.6,1751.0 1057.9,1745.8 1030.8,1742.4 1002.4,1740.7 972.9,1740.6 942.3,1742.2 910.7,1745.3 878.3,1749.8 845.1,1755.8 811.4,1763.0 777.2,1771.5 742.7,1781.1 708.1,1791.7 673.5,1803.1 639.2,1815.3  " style="stroke-opacity: 1.000000; stroke-width: 5.0; stroke: rgb(251,106,74); fill: none"  />
<path d="M 2329.1,1108.8 L 2287.0,1128.6 2244.8,1148.4 2202.5,1168.1 2160.1,1187.8 2117.6,1207.4 2075.0,1226.9 2032.4,1246.4 1989.6,1265.7 1946.8,1285.1 1903.8,1304.3 1860.8,1323.4 1817.7,1342.5 1774.6,1361.4 1731.4,1380.3 1688.1,1399.0 1644.7,1417.7 1601.3,1436.2 1557.8,1454.7 1514.3,1473.0 1470.7,1491.2 1427.1,1509.3 1383.4,1527.3 1339.8,1545.2 1296.0,1562.9 1252.3,1580.6 1208.5,1598.1 1164.7,1615.5 1120.9,1632.8 1077.0,1650.0 1033.2,1667.0 989.4,1683.9 945.5,1700.8 901.7,1717.5 857.9,1734.0 814.1,1750.5 770.3,1766.9 726.6,1783.1 682.9,1799.3 639.2,1815.3  " style="stroke-opacity: 1.000000; stroke-width: 5.0; stroke: rgb(251,106,74); fill: none"  />
</g>
<g id="track_0">
<path d="M 2128.3,2167.6 L 2104.0,2142.0 2079.9,2116.7 2055.9,2091.9 2032.3,2067.8 2009.2,2044.5 1986.8,2022.3 1965.1,2001.2 1944.4,1981.5 1924.7,1963.2 1906.0,1946.5 1888.6,1931.4 1872.5,1918.2 1857.8,1906.7 1844.5,1897.2 1832.7,1889.7 1822.4,1884.2 1813.8,1880.8 1806.7,1879.4 1801.3,1880.2 1797.6,1883.2 1795.6,1888.2 1795.2,1895.4 1796.4,1904.6 1799.3,1915.9 1803.8,1929.1 1809.9,1944.3 1817.5,1961.3 1826.6,1980.1 1837.1,2000.6 1848.9,2022.7 1861.9,2046.2 1876.2,2071.0 1891.5,2097.1 1907.7,2124.1 1924.8,2152.1 1942.6,2180.8 1961.0,2209.9 1979.8,2239.4 1999.0,2269.1  " style="stroke-opacity: 1.000000; stroke-width: 5.0; stroke: rgb(107,174,214); fill: none"  />
<path d="M 2128.3,2167.6 L 2103.9,2141.9 2079.4,2116.7 2055.0,2092.0 2030.7,2068.1 2006.8,2045.2 1983.4,2023.5 1960.5,2003.0 1938.3,1984.0 1917.0,1966.6 1896.5,1950.8 1877.0,1936.9 1858.5,1924.8 1841.2,1914.7 1825.1,1906.7 1810.3,1900.8 1796.8,1897.0 1784.6,1895.4 1773.8,1896.1 1764.5,1899.0 1756.5,1904.1 1750.1,1911.5 1745.1,1921.0 1741.6,1932.8 1739.5,1946.7 1738.9,1962.6 1739.7,1980.6 1741.8,2000.5 1745.3,2022.3 1750.1,2045.8 1756.2,2070.9 1763.4,2097.6 1771.7,2125.5 1781.1,2154.8 1791.4,2185.0 1802.5,2216.2 1814.4,2248.0 1827.0,2280.4 1840.1,2313.1 1853.6,2345.8  " style="stroke-opacity: 1.000000; stroke-width: 5.0; stroke: rgb(107,174,214); fill: none"  />
<path d="M 2128.3,2167.6 L 2103.6,2141.8 2078.8,2116.5 2053.8,2091.8 2028.9,2068.1 2004.1,2045.4 1979.5,2023.9 1955.3,2003.8 1931.6,1985.2 1908.4,1968.3 1885.9,1953.1 1864.2,1939.9 1843.2,1928.6 1823.2,1919.3 1804.1,1912.2 1786.0,1907.3 1768.9,1904.7 1753.0,1904.3 1738.2,1906.2 1724.6,1910.4 1712.2,1917.0 1701.1,1925.8 1691.1,1936.9 1682.5,1950.3 1675.1,1965.9 1668.9,1983.6 1664.0,2003.4 1660.3,2025.2 1657.8,2048.8 1656.5,2074.3 1656.3,2101.4 1657.2,2130.1 1659.2,2160.1 1662.1,2191.4 1666.0,2223.8 1670.8,2257.1 1676.3,2291.1 1682.6,2325.6 1689.5,2360.5 1696.9,2395.4  " style="stroke-opacity: 1.000000; stroke-width: 5.0; stroke: rgb(107,174,214); fill: none"  />
<path d="M 2128.3,2167.6 L 2102.6,2141.0 2076.3,2114.9 2049.4,2089.6 2022.1,2065.2 1994.4,2041.9 1966.3,2019.9 1937.9,1999.3 1909.4,1980.3 1880.8,1962.9 1852.1,1947.2 1823.4,1933.5 1794.8,1921.7 1766.4,1911.9 1738.1,1904.2 1710.1,1898.7 1682.3,1895.4 1655.0,1894.3 1628.0,1895.5 1601.4,1898.9 1575.3,1904.7 1549.8,1912.7 1524.8,1922.9 1500.4,1935.4 1476.6,1950.0 1453.5,1966.8 1431.0,1985.6 1409.3,2006.5 1388.3,2029.2 1368.0,2053.7 1348.6,2079.9 1329.9,2107.7 1312.0,2137.0 1294.9,2167.6 1278.6,2199.3 1263.2,2232.1 1248.6,2265.7 1234.8,2299.9 1221.9,2334.6 1209.8,2369.6  " style="stroke-opacity: 1.000000; stroke-width: 5.0; stroke: rgb(107,174,214); fill: none"  />
<path d="M 814.4,891.4 L 840.8,914.7 867.2,937.8 893.3,960.3 919.0,982.2 944.0,1003.3 968.4,1023.5 991.8,1042.5 1014.2,1060.3 1035.5,1076.7 1055.6,1091.7 1074.3,1105.1 1091.5,1116.9 1107.2,1127.0 1121.3,1135.3 1133.7,1141.7 1144.4,1146.3 1153.4,1148.9 1160.5,1149.6 1165.8,1148.3 1169.2,1145.1 1170.8,1139.8 1170.6,1132.7 1168.5,1123.6 1164.6,1112.7 1158.9,1099.9 1151.5,1085.3 1142.4,1069.0 1131.7,1051.1 1119.4,1031.6 1105.7,1010.7 1090.6,988.4 1074.2,965.0 1056.6,940.4 1038.0,914.9 1018.5,888.6 998.1,861.7 977.2,834.2 955.8,806.5 934.1,778.8  " style="stroke-opacity: 1.000000; stroke-width: 5.0; stroke: rgb(107,174,214); fill: none"  />
<path d="M 934.1,778.8 L 955.8,806.5 977.2,834.2 998.1,861.7 1018.5,888.6 1038.0,914.9 1056.6,940.4 1074.2,965.0 1090.6,988.4 1105.7,1010.7 1119.4,1031.6 1131.7,1051.1 1142.4,1069.0 1151.5,1085.3 1158.9,1099.9 1164.6,1112.7 1168.5,1123.6 1170.6,1132.7 1170.8,1139.8 1169.2,1145.1 1165.8,1148.3 1160.5,1149.6 1153.4,1148.9 1144.4,1146.3 1133.7,1141.7 1121.3,1135.3 1107.2,1127.0 1091.5,1116.9 1074.3,1105.1 1055.6,1091.7 1035.5,1076.7 1014.2,1060.3 991.8,1042.5 968.4,1023.5 944.0,1003.3 919.0,982.2 893.3,960.3 867.2,937.8 840.8,914.7 814.4,891.4  " style="stroke-opacity: 1.000000; stroke-width: 5.0; stroke: rgb(107,174,214); fill: none"  />
<path d="M 1548.4,584.5 L 1546.6,619.7 1545.0,654.7 1543.6,689.2 1542.5,722.9 1541.7,755.7 1541.1,787.2 1540.9,817.4 1540.9,846.0 1541.3,872.9 1542.1,898.0 1543.3,920.9 1544.8,941.8 1546.7,960.3 1549.0,976.5 1551.8,990.2 1554.9,1001.4 1558.4,1010.1 1562.3,1016.1 1566.6,1019.4 1571.3,1020.1 1576.3,1018.1 1581.8,1013.4 1587.6,1006.1 1593.7,996.3 1600.2,983.8 1607.0,969.0 1614.0,951.7 1621.3,932.1 1628.9,910.4 1636.7,886.6 1644.7,860.9 1652.8,833.5 1661.0,804.4 1669.4,774.0 1677.8,742.3 1686.2,709.6 1694.6,676.2 1702.9,642.2 1711.1,607.9  " style="stroke-opacity: 1.000000; stroke-width: 5.0; stroke: rgb(107,174,214); fill: none"  />
<path d="M 1548.4,584.5 L 1546.8,620.5 1545.9,656.4 1545.6,692.0 1546.2,727.0 1547.6,761.4 1549.9,794.8 1553.1,827.1 1557.3,858.1 1562.4,887.7 1568.6,915.8 1575.9,942.2 1584.2,966.9 1593.6,989.6 1604.1,1010.3 1615.7,1028.9 1628.4,1045.3 1642.1,1059.6 1656.9,1071.6 1672.8,1081.3 1689.7,1088.7 1707.6,1093.7 1726.5,1096.5 1746.3,1096.9 1767.0,1095.0 1788.6,1090.8 1810.9,1084.5 1833.9,1075.9 1857.6,1065.3 1881.9,1052.7 1906.7,1038.2 1932.0,1021.8 1957.6,1003.8 1983.5,984.2 2009.6,963.1 2035.7,940.9 2061.8,917.5 2087.7,893.1 2113.4,868.0 2138.8,842.4  " style="stroke-opacity: 1.000000; stroke-width: 5.0; stroke: rgb(107,174,214); fill: none"  />
<path d="M 1548.4,584.5 L 1546.8,621.5 1546.2,658.5 1546.4,695.4 1547.7,732.0 1550.1,768.2 1553.6,803.7 1558.3,838.4 1564.2,872.2 1571.4,904.9 1579.9,936.4 1589.8,966.7 1601.0,995.5 1613.6,1022.8 1627.6,1048.6 1643.0,1072.6 1659.8,1095.0 1677.9,1115.5 1697.4,1134.2 1718.3,1151.0 1740.4,1165.9 1763.9,1178.8 1788.6,1189.8 1814.4,1198.8 1841.5,1205.9 1869.6,1211.0 1898.7,1214.3 1928.8,1215.6 1959.7,1215.1 1991.4,1212.7 2023.8,1208.7 2056.8,1203.0 2090.4,1195.7 2124.3,1186.9 2158.5,1176.7 2192.8,1165.2 2227.2,1152.6 2261.4,1138.8 2295.5,1124.2 2329.1,1108.8  " style="stroke-opacity: 1.000000; stroke-width: 5.0; stroke: rgb(107,174,214); fill: none"  />
<path d="M 1999.0,2269.1 L 1979.8,2239.4 1961.0,2209.9 1942.6,2180.8 1924.8,2152.1 1907.7,2124.1 1891.5,2097.1 1876.2,2071.0 1861.9,2046.2 1848.9,2022.7 1837.1,2000.6 1826.6,1980.1 1817.5,1961.3 1809.9,1944.3 1803.8,1929.1 1799.3,1915.9 1796.4,1904.6 1795.2,1895.4 1795.6,1888.2 1797.6,1883.2 1801.3,1880.2 1806.7,1879.4 1813.8,1880.8 1822.4,1884.2 1832.7,1889.7 1844.5,1897.2 1857.8,1906.7 1872.5,1918.2 1888.6,1931.4 1906.0,1946.5 1924.7,1963.2 1944.4,1981.5 1965.1,2001.2 1986.8,2022.3 2009.2,2044.5 2032.3,2067.8 2055.9,2091.9 2079.9,2116.7 2104.0,2142.0 2128.3,2167.6  " style="stroke-opacity: 1.000000; stroke-width: 5.0; stroke: rgb(107,174,214); fill: none"  />
<path d="M 1999.0,2269.1 L 1979.7,2239.5 1960.4,2210.3 1941.3,2181.6 1922.4,2153.7 1903.8,2126.7 1885.7,2100.8 1868.2,2076.2 1851.3,2053.1 1835.1,2031.6 1819.8,2011.8 1805.4,1993.9 1791.9,1978.0 1779.4,1964.1 1768.0,1952.3 1757.8,1942.8 1748.7,1935.6 1740.7,1930.7 1734.1,1928.1 1728.6,1927.9 1724.4,1930.2 1721.5,1934.7 1719.8,1941.7 1719.4,1951.0 1720.3,1962.6 1722.3,1976.5 1725.6,1992.5 1730.0,2010.6 1735.6,2030.7 1742.3,2052.8 1749.9,2076.6 1758.6,2102.0 1768.2,2129.0 1778.6,2157.4 1789.7,2186.9 1801.5,2217.5 1813.9,2248.8 1826.8,2280.8 1840.1,2313.2 1853.6,2345.8  " style="stroke-opacity: 1.000000; stroke-width: 5.0; stroke: rgb(107,174,214); fill: none"  />
<path d="M 1999.0,2269.1 L 1979.5,2239.4 1960.0,2210.2 1940.3,2181.6 1920.7,2153.8 1901.3,2127.0 1882.1,2101.4 1863.3,2077.2 1844.9,2054.5 1826.9,2033.5 1809.6,2014.4 1792.9,1997.2 1776.9,1982.0 1761.7,1969.0 1747.3,1958.2 1733.7,1949.7 1721.1,1943.6 1709.4,1939.9 1698.7,1938.6 1689.0,1939.8 1680.3,1943.4 1672.6,1949.5 1666.0,1958.0 1660.4,1969.0 1655.9,1982.3 1652.4,1997.9 1650.0,2015.7 1648.6,2035.7 1648.1,2057.7 1648.6,2081.7 1650.1,2107.5 1652.4,2135.0 1655.6,2164.0 1659.6,2194.4 1664.4,2226.0 1669.8,2258.7 1675.8,2292.2 1682.4,2326.3 1689.5,2360.7 1696.9,2395.4  " style="stroke-opacity: 1.000000; stroke-width: 5.0; stroke: rgb(107,174,214); fill: none"  />
<path d="M 1999.0,2269.1 L 1979.1,2239.0 1958.8,2209.4 1938.0,2180.5 1917.0,2152.5 1895.7,2125.6 1874.2,2099.9 1852.6,2075.6 1831.0,2053.0 1809.4,2032.0 1787.8,2012.9 1766.4,1995.8 1745.2,1980.8 1724.3,1968.0 1703.6,1957.4 1683.3,1949.1 1663.4,1943.3 1643.9,1939.8 1624.8,1938.8 1606.3,1940.3 1588.3,1944.3 1570.8,1950.7 1553.9,1959.6 1537.7,1970.9 1522.0,1984.6 1507.1,2000.6 1492.7,2018.9 1479.1,2039.4 1466.2,2061.9 1453.9,2086.4 1442.4,2112.7 1431.6,2140.8 1421.4,2170.4 1412.0,2201.5 1403.3,2233.8 1395.3,2267.2 1387.9,2301.5 1381.2,2336.4 1375.2,2371.8 1369.8,2407.5  " style="stroke-opacity: 1.000000; stroke-width: 5.0; stroke: rgb(107,174,214); fill: none"  />
<path d="M 1999.0,2269.1 L 1978.8,2238.7 1958.0,2208.8 1936.7,2179.5 1914.9,2151.1 1892.7,2123.8 1870.0,2097.8 1847.1,2073.1 1823.9,2050.0 1800.5,2028.6 1777.0,2009.0 1753.3,1991.3 1729.6,1975.6 1705.9,1962.1 1682.2,1950.8 1658.7,1941.7 1635.2,1935.0 1612.0,1930.6 1588.9,1928.6 1566.1,1929.1 1543.6,1931.9 1521.4,1937.2 1499.6,1944.9 1478.2,1955.0 1457.1,1967.4 1436.6,1982.1 1416.5,1999.0 1397.0,2018.0 1378.0,2039.1 1359.5,2062.1 1341.6,2087.0 1324.3,2113.6 1307.7,2141.8 1291.7,2171.5 1276.3,2202.4 1261.6,2234.4 1247.6,2267.3 1234.3,2301.0 1221.7,2335.1 1209.8,2369.6  " style="stroke-opacity: 1.000000; stroke-width: 5.0; stroke: rgb(107,174,214); fill: none"  />
<path d="M 1711.1,607.9 L 1702.9,642.2 1694.6,676.2 1686.2,709.6 1677.8,742.3 1669.4,774.0 1661.0,804.4 1652.8,833.5 1644.7,860.9 1636.7,886.6 1628.9,910.4 1621.3,932.1 1614.0,951.7 1607.0,969.0 1600.2,983.8 1593.7,996.3 1587.6,1006.1 1581.8,1013.4 1576.3,1018.1 1571.3,1020.1 1566.6,1019.4 1562.3,1016.1 1558.4,1010.1 1554.9,1001.4 1551.8,990.2 1549.0,976.5 1546.7,960.3 1544.8,941.8 1543.3,920.9 1542.1,898.0 1541.3,872.9 1540.9,846.0 1540.9,817.4 1541.1,787.2 1541.7,755.7 1542.5,722.9 1543.6,689.2 1545.0,654.7 1546.6,619.7 1548.4,584.5  " style="stroke-opacity: 1.000000; stroke-width: 5.0; stroke: rgb(107,174,214); fill: none"  />
<path d="M 1711.1,607.9 L 1703.1,642.6 1695.6,677.3 1688.8,711.8 1682.8,745.7 1677.5,778.9 1673.1,811.2 1669.6,842.5 1667.2,872.5 1665.8,901.1 1665.6,928.3 1666.5,953.7 1668.6,977.4 1671.9,999.3 1676.5,1019.1 1682.4,1036.9 1689.6,1052.6 1698.0,1066.1 1707.8,1077.4 1718.8,1086.4 1731.1,1093.2 1744.6,1097.6 1759.4,1099.8 1775.3,1099.6 1792.4,1097.2 1810.6,1092.6 1829.8,1085.8 1850.0,1076.9 1871.1,1066.0 1893.1,1053.0 1915.8,1038.2 1939.2,1021.7 1963.2,1003.5 1987.7,983.8 2012.6,962.7 2037.8,940.4 2063.1,917.0 2088.5,892.8 2113.7,867.8 2138.8,842.4  " style="stroke-opacity: 1.000000; stroke-width: 5.0; stroke: rgb(107,174,214); fill: none"  />
<path d="M 1711.1,607.9 L 1703.1,643.0 1695.7,678.2 1689.2,713.1 1683.5,747.7 1678.7,781.7 1675.0,815.0 1672.4,847.4 1671.0,878.7 1670.8,908.7 1671.8,937.5 1674.3,964.8 1678.1,990.5 1683.3,1014.5 1689.9,1036.7 1698.0,1057.1 1707.5,1075.6 1718.5,1092.1 1730.9,1106.5 1744.8,1118.9 1760.1,1129.2 1776.8,1137.4 1794.9,1143.4 1814.4,1147.3 1835.1,1149.2 1857.0,1148.9 1880.1,1146.6 1904.3,1142.4 1929.5,1136.2 1955.7,1128.1 1982.7,1118.2 2010.5,1106.6 2038.9,1093.5 2067.8,1078.8 2097.2,1062.8 2126.9,1045.5 2156.8,1027.1 2186.7,1007.8 2216.4,987.7 2245.9,967.0  " style="stroke-opacity: 1.000000; stroke-width: 5.0; stroke: rgb(107,174,214); fill: none"  />
<path d="M 922.8,2212.2 L 944.9,2184.7 966.7,2157.4 988.1,2130.3 1008.8,2103.7 1028.8,2077.7 1047.8,2052.5 1065.7,2028.2 1082.5,2005.0 1098.0,1983.0 1112.0,1962.3 1124.6,1943.0 1135.6,1925.3 1145.0,1909.1 1152.6,1894.7 1158.5,1882.0 1162.6,1871.1 1164.8,1862.0 1165.2,1854.9 1163.6,1849.7 1160.3,1846.4 1155.0,1845.0 1147.8,1845.6 1138.9,1848.1 1128.1,1852.4 1115.6,1858.7 1101.3,1866.7 1085.5,1876.6 1068.1,1888.1 1049.2,1901.2 1028.9,1915.9 1007.3,1932.0 984.6,1949.4 960.9,1968.1 936.2,1987.8 910.8,2008.5 884.8,2030.0 858.4,2052.1 831.7,2074.8 804.9,2097.7  " style="stroke-opacity: 1.000000; stroke-width: 5.0; stroke: rgb(107,174,214); fill: none"  />
<path d="M 922.8,2212.2 L 944.9,2184.6 966.7,2156.9 987.8,2129.4 1008.2,2102.2 1027.7,2075.4 1046.1,2049.3 1063.3,2023.9 1079.2,1999.3 1093.6,1975.8 1106.5,1953.4 1117.7,1932.2 1127.2,1912.3 1134.8,1893.8 1140.6,1876.8 1144.5,1861.3 1146.4,1847.4 1146.4,1835.1 1144.3,1824.5 1140.2,1815.6 1134.0,1808.5 1125.8,1803.1 1115.7,1799.4 1103.6,1797.5 1089.5,1797.3 1073.6,1798.8 1055.9,1802.0 1036.5,1806.8 1015.4,1813.2 992.7,1821.1 968.6,1830.5 943.2,1841.2 916.6,1853.2 888.9,1866.4 860.3,1880.7 830.9,1895.9 800.9,1912.0 770.6,1928.8 739.9,1946.2 709.3,1964.0  " style="stroke-opacity: 1.000000; stroke-width: 5.0; stroke: rgb(107,174,214); fill: none"  />
<path d="M 922.8,2212.2 L 945.0,2184.3 966.8,2156.3 987.9,2128.2 1008.1,2100.3 1027.2,2072.7 1045.2,2045.5 1061.9,2018.8 1077.1,1992.8 1090.8,1967.6 1102.8,1943.3 1113.0,1919.9 1121.4,1897.7 1127.8,1876.5 1132.3,1856.6 1134.7,1838.0 1135.1,1820.8 1133.3,1805.0 1129.5,1790.6 1123.4,1777.7 1115.3,1766.3 1105.0,1756.4 1092.7,1748.1 1078.3,1741.3 1061.8,1736.0 1043.4,1732.3 1023.2,1730.1 1001.1,1729.3 977.3,1730.0 951.9,1732.2 925.0,1735.6 896.7,1740.4 867.2,1746.4 836.6,1753.5 805.0,1761.7 772.7,1770.9 739.7,1780.9 706.3,1791.8 672.8,1803.3 639.2,1815.3  " style="stroke-opacity: 1.000000; stroke-width: 5.0; stroke: rgb(107,174,214); fill: none"  />
<path d="M 804.9,2097.7 L 831.7,2074.8 858.4,2052.1 884.8,2030.0 910.8,2008.5 936.2,1987.8 960.9,1968.1 984.6,1949.4 1007.3,1932.0 1028.9,1915.9 1049.2,1901.2 1068.1,1888.1 1085.5,1876.6 1101.3,1866.7 1115.6,1858.7 1128.1,1852.4 1138.9,1848.1 1147.8,1845.6 1155.0,1845.0 1160.3,1846.4 1163.6,1849.7 1165.2,1854.9 1164.8,1862.0 1162.6,1871.1 1158.5,1882.0 1152.6,1894.7 1145.0,1909.1 1135.6,1925.3 1124.6,1943.0 1112.0,1962.3 1098.0,1983.0 1082.5,2005.0 1065.7,2028.2 1047.8,2052.5 1028.8,2077.7 1008.8,2103.7 988.1,2130.3 966.7,2157.4 944.9,2184.7 922.8,2212.2  " style="stroke-opacity: 1.000000; stroke-width: 5.0; stroke: rgb(107,174,214); fill: none"  />
<path d="M 804.9,2097.7 L 831.6,2074.6 857.9,2051.6 883.8,2028.8 908.9,2006.3 933.2,1984.3 956.4,1962.9 978.4,1942.2 999.0,1922.3 1018.2,1903.4 1035.7,1885.6 1051.5,1868.9 1065.5,1853.4 1077.6,1839.2 1087.7,1826.3 1095.8,1814.9 1101.7,1804.9 1105.5,1796.4 1107.2,1789.4 1106.6,1784.0 1103.9,1780.1 1098.9,1777.8 1091.8,1777.1 1082.5,1778.0 1071.1,1780.4 1057.7,1784.3 1042.3,1789.7 1024.9,1796.5 1005.7,1804.7 984.8,1814.3 962.2,1825.1 938.1,1837.1 912.7,1850.2 886.0,1864.3 858.2,1879.3 829.5,1895.1 800.1,1911.6 770.1,1928.7 739.8,1946.2 709.3,1964.0  " style="stroke-opacity: 1.000000; stroke-width: 5.0; stroke: rgb(107,174,214); fill: none"  />
<path d="M 804.9,2097.7 L 831.6,2074.5 858.0,2051.1 883.7,2027.8 908.6,2004.7 932.6,1981.8 955.3,1959.4 976.8,1937.5 996.8,1916.2 1015.2,1895.6 1031.8,1875.8 1046.6,1857.0 1059.5,1839.1 1070.4,1822.3 1079.1,1806.5 1085.7,1792.0 1090.1,1778.6 1092.2,1766.6 1092.0,1755.8 1089.6,1746.3 1084.8,1738.2 1077.7,1731.4 1068.4,1726.0 1056.8,1721.9 1043.0,1719.2 1027.1,1717.9 1009.1,1717.9 989.1,1719.1 967.2,1721.6 943.5,1725.4 918.2,1730.3 891.2,1736.3 862.9,1743.4 833.3,1751.4 802.6,1760.3 771.0,1770.1 738.6,1780.6 705.7,1791.7 672.5,1803.3 639.2,1815.3  " style="stroke-opacity: 1.000000; stroke-width: 5.0; stroke: rgb(107,174,214); fill: none"  />
<path d="M 1853.6,2345.8 L 1840.1,2313.1 1827.0,2280.4 1814.4,2248.0 1802.5,2216.2 1791.4,2185.0 1781.1,2154.8 1771.7,2125.5 1763.4,2097.6 1756.2,2070.9 1750.1,2045.8 1745.3,2022.3 1741.8,2000.5 1739.7,1980.6 1738.9,1962.6 1739.5,1946.7 1741.6,1932.8 1745.1,1921.0 1750.1,1911.5 1756.5,1904.1 1764.5,1899.0 1773.8,1896.1 1784.6,1895.4 1796.8,1897.0 1810.3,1900.8 1825.1,1906.7 1841.2,1914.7 1858.5,1924.8 1877.0,1936.9 1896.5,1950.8 1917.0,1966.6 1938.3,1984.0 1960.5,2003.0 1983.4,2023.5 2006.8,2045.2 2030.7,2068.1 2055.0,2092.0 2079.4,2116.7 2103.9,2141.9 2128.3,2167.6  " style="stroke-opacity: 1.000000; stroke-width: 5.0; stroke: rgb(107,174,214); fill: none"  />
<path d="M 1853.6,2345.8 L 1840.1,2313.2 1826.8,2280.8 1813.9,2248.8 1801.5,2217.5 1789.7,2186.9 1778.6,2157.4 1768.2,2129.0 1758.6,2102.0 1749.9,2076.6 1742.3,2052.8 1735.6,2030.7 1730.0,2010.6 1725.6,1992.5 1722.3,1976.5 1720.3,1962.6 1719.4,1951.0 1719.8,1941.7 1721.5,1934.7 1724.4,1930.2 1728.6,1927.9 1734.1,1928.1 1740.7,1930.7 1748.7,1935.6 1757.8,1942.8 1768.0,1952.3 1779.4,1964.1 1791.9,1978.0 1805.4,1993.9 1819.8,2011.8 1835.1,2031.6 1851.3,2053.1 1868.2,2076.2 1885.7,2100.8 1903.8,2126.7 1922.4,2153.7 1941.3,2181.6 1960.4,2210.3 1979.7,2239.5 1999.0,2269.1  " style="stroke-opacity: 1.000000; stroke-width: 5.0; stroke: rgb(107,174,214); fill: none"  />
<path d="M 1853.6,2345.8 L 1839.9,2313.3 1826.2,2281.1 1812.5,2249.5 1798.9,2218.6 1785.4,2188.7 1772.2,2160.0 1759.4,2132.7 1746.9,2106.9 1734.8,2082.9 1723.3,2060.7 1712.3,2040.5 1701.8,2022.4 1692.1,2006.5 1683.0,1992.9 1674.6,1981.7 1666.9,1973.0 1660.0,1966.7 1653.9,1963.0 1648.5,1961.9 1644.0,1963.3 1640.3,1967.3 1637.4,1973.9 1635.4,1982.9 1634.1,1994.5 1633.7,2008.5 1634.0,2024.9 1635.2,2043.5 1637.1,2064.3 1639.7,2087.1 1643.0,2111.9 1646.9,2138.5 1651.5,2166.8 1656.7,2196.5 1662.4,2227.6 1668.6,2259.8 1675.2,2292.9 1682.2,2326.6 1689.4,2360.9 1696.9,2395.4  " style="stroke-opacity: 1.000000; stroke-width: 5.0; stroke: rgb(107,174,214); fill: none"  />
<path d="M 1853.6,2345.8 L 1839.4,2312.7 1824.7,2279.9 1809.5,2247.8 1793.8,2216.5 1777.6,2186.2 1761.1,2157.0 1744.1,2129.3 1726.9,2103.2 1709.4,2078.7 1691.6,2056.1 1673.6,2035.4 1655.5,2016.9 1637.1,2000.5 1618.7,1986.4 1600.2,1974.7 1581.6,1965.3 1563.0,1958.4 1544.5,1954.1 1526.0,1952.2 1507.5,1952.9 1489.2,1956.1 1471.0,1961.8 1453.0,1970.1 1435.1,1980.8 1417.6,1993.9 1400.2,2009.3 1383.1,2027.0 1366.4,2046.8 1350.0,2068.7 1333.9,2092.6 1318.3,2118.3 1303.0,2145.6 1288.2,2174.5 1273.8,2204.8 1260.0,2236.2 1246.6,2268.6 1233.8,2301.8 1221.5,2335.5 1209.8,2369.6  " style="stroke-opacity: 1.000000; stroke-width: 5.0; stroke: rgb(107,174,214); fill: none"  />
<path d="M 1696.9,2395.4 L 1689.5,2360.5 1682.6,2325.6 1676.3,2291.1 1670.8,2257.1 1666.0,2223.8 1662.1,2191.4 1659.2,2160.1 1657.2,2130.1 1656.3,2101.4 1656.5,2074.3 1657.8,2048.8 1660.3,2025.2 1664.0,2003.4 1668.9,1983.6 1675.1,1965.9 1682.5,1950.3 1691.1,1936.9 1701.1,1925.8 1712.2,1917.0 1724.6,1910.4 1738.2,1906.2 1753.0,1904.3 1768.9,1904.7 1786.0,1907.3 1804.1,1912.2 1823.2,1919.3 1843.2,1928.6 1864.2,1939.9 1885.9,1953.1 1908.4,1968.3 1931.6,1985.2 1955.3,2003.8 1979.5,2023.9 2004.1,2045.4 2028.9,2068.1 2053.8,2091.8 2078.8,2116.5 2103.6,2141.8 2128.3,2167.6  " style="stroke-opacity: 1.000000; stroke-width: 5.0; stroke: rgb(107,174,214); fill: none"  />
<path d="M 1696.9,2395.4 L 1689.5,2360.7 1682.4,2326.3 1675.8,2292.2 1669.8,2258.7 1664.4,2226.0 1659.6,2194.4 1655.6,2164.0 1652.4,2135.0 1650.1,2107.5 1648.6,2081.7 1648.1,2057.7 1648.6,2035.7 1650.0,2015.7 1652.4,1997.9 1655.9,1982.3 1660.4,1969.0 1666.0,1958.0 1672.6,1949.5 1680.3,1943.4 1689.0,1939.8 1698.7,1938.6 1709.4,1939.9 1721.1,1943.6 1733.7,1949.7 1747.3,1958.2 1761.7,1969.0 1776.9,1982.0 1792.9,1997.2 1809.6,2014.4 1826.9,2033.5 1844.9,2054.5 1863.3,2077.2 1882.1,2101.4 1901.3,2127.0 1920.7,2153.8 1940.3,2181.6 1960.0,2210.2 1979.5,2239.4 1999.0,2269.1  " style="stroke-opacity: 1.000000; stroke-width: 5.0; stroke: rgb(107,174,214); fill: none"  />
<path d="M 1696.9,2395.4 L 1689.4,2360.9 1682.2,2326.6 1675.2,2292.9 1668.6,2259.8 1662.4,2227.6 1656.7,2196.5 1651.5,2166.8 1646.9,2138.5 1643.0,2111.9 1639.7,2087.1 1637.1,2064.3 1635.2,2043.5 1634.0,2024.9 1633.7,2008.5 1634.1,1994.5 1635.4,1982.9 1637.4,1973.9 1640.3,1967.3 1644.0,1963.3 1648.5,1961.9 1653.9,1963.0 1660.0,1966.7 1666.9,1973.0 1674.6,1981.7 1683.0,1992.9 1692.1,2006.5 1701.8,2022.4 1712.3,2040.5 1723.3,2060.7 1734.8,2082.9 1746.9,2106.9 1759.4,2132.7 1772.2,2160.0 1785.4,2188.7 1798.9,2218.6 1812.5,2249.5 1826.2,2281.1 1839.9,2313.3 1853.6,2345.8  " style="stroke-opacity: 1.000000; stroke-width: 5.0; stroke: rgb(107,174,214); fill: none"  />
<path d="M 1696.9,2395.4 L 1689.0,2360.6 1680.7,2326.1 1671.9,2292.1 1662.6,2258.9 1653.0,2226.7 1642.9,2195.7 1632.5,2166.0 1621.6,2137.9 1610.4,2111.5 1598.9,2086.9 1587.0,2064.4 1574.8,2044.0 1562.3,2025.7 1549.6,2009.8 1536.6,1996.3 1523.3,1985.3 1509.8,1976.8 1496.2,1970.9 1482.3,1967.5 1468.3,1966.8 1454.2,1968.7 1440.0,1973.1 1425.7,1980.2 1411.3,1989.7 1397.0,2001.8 1382.6,2016.2 1368.3,2033.0 1354.0,2052.1 1339.8,2073.3 1325.7,2096.4 1311.8,2121.5 1298.1,2148.3 1284.5,2176.7 1271.3,2206.5 1258.3,2237.5 1245.6,2269.6 1233.3,2302.4 1221.3,2335.8 1209.8,2369.6  " style="stroke-opacity: 1.000000; stroke-width: 5.0; stroke: rgb(107,174,214); fill: none"  />
<path d="M 2138.8,842.4 L 2113.4,868.0 2087.7,893.1 2061.8,917.5 2035.7,940.9 2009.6,963.1 1983.5,984.2 1957.6,1003.8 1932.0,1021.8 1906.7,1038.2 1881.9,1052.7 1857.6,1065.3 1833.9,1075.9 1810.9,1084.5 1788.6,1090.8 1767.0,1095.0 1746.3,1096.9 1726.5,1096.5 1707.6,1093.7 1689.7,1088.7 1672.8,1081.3 1656.9,1071.6 1642.1,1059.6 1628.4,1045.3 1615.7,1028.9 1604.1,1010.3 1593.6,989.6 1584.2,966.9 1575.9,942.2 1568.6,915.8 1562.4,887.7 1557.3,858.1 1553.1,827.1 1549.9,794.8 1547.6,761.4 1546.2,727.0 1545.6,692.0 1545.9,656.4 1546.8,620.5 1548.4,584.5  " style="stroke-opacity: 1.000000; stroke-width: 5.0; stroke: rgb(107,174,214); fill: none"  />
<path d="M 2138.8,842.4 L 2113.7,867.8 2088.5,892.8 2063.1,917.0 2037.8,940.4 2012.6,962.7 1987.7,983.8 1963.2,1003.5 1939.2,1021.7 1915.8,1038.2 1893.1,1053.0 1871.1,1066.0 1850.0,1076.9 1829.8,1085.8 1810.6,1092.6 1792.4,1097.2 1775.3,1099.6 1759.4,1099.8 1744.6,1097.6 1731.1,1093.2 1718.8,1086.4 1707.8,1077.4 1698.0,1066.1 1689.6,1052.6 1682.4,1036.9 1676.5,1019.1 1671.9,999.3 1668.6,977.4 1666.5,953.7 1665.6,928.3 1665.8,901.1 1667.2,872.5 1669.6,842.5 1673.1,811.2 1677.5,778.9 1682.8,745.7 1688.8,711.8 1695.6,677.3 1703.1,642.6 1711.1,607.9  " style="stroke-opacity: 1.000000; stroke-width: 5.0; stroke: rgb(107,174,214); fill: none"  />
<path d="M 709.3,1964.0 L 739.9,1946.2 770.6,1928.8 800.9,1912.0 830.9,1895.9 860.3,1880.7 888.9,1866.4 916.6,1853.2 943.2,1841.2 968.6,1830.5 992.7,1821.1 1015.4,1813.2 1036.5,1806.8 1055.9,1802.0 1073.6,1798.8 1089.5,1797.3 1103.6,1797.5 1115.7,1799.4 1125.8,1803.1 1134.0,1808.5 1140.2,1815.6 1144.3,1824.5 1146.4,1835.1 1146.4,1847.4 1144.5,1861.3 1140.6,1876.8 1134.8,1893.8 1127.2,1912.3 1117.7,1932.2 1106.5,1953.4 1093.6,1975.8 1079.2,1999.3 1063.3,2023.9 1046.1,2049.3 1027.7,2075.4 1008.2,2102.2 987.8,2129.4 966.7,2156.9 944.9,2184.6 922.8,2212.2  " style="stroke-opacity: 1.000000; stroke-width: 5.0; stroke: rgb(107,174,214); fill: none"  />
<path d="M 709.3,1964.0 L 739.8,1946.2 770.1,1928.7 800.1,1911.6 829.5,1895.1 858.2,1879.3 886.0,1864.3 912.7,1850.2 938.1,1837.1 962.2,1825.1 984.8,1814.3 1005.7,1804.7 1024.9,1796.5 1042.3,1789.7 1057.7,1784.3 1071.1,1780.4 1082.5,1778.0 1091.8,1777.1 1098.9,1777.8 1103.9,1780.1 1106.6,1784.0 1107.2,1789.4 1105.5,1796.4 1101.7,1804.9 1095.8,1814.9 1087.7,1826.3 1077.6,1839.2 1065.5,1853.4 1051.5,1868.9 1035.7,1885.6 1018.2,1903.4 999.0,1922.3 978.4,1942.2 956.4,1962.9 933.2,1984.3 908.9,2006.3 883.8,2028.8 857.9,2051.6 831.6,2074.6 804.9,2097.7  " style="stroke-opacity: 1.000000; stroke-width: 5.0; stroke: rgb(107,174,214); fill: none"  />
<path d="M 709.3,1964.0 L 739.7,1946.0 769.8,1928.1 799.3,1910.2 828.0,1892.6 855.8,1875.3 882.5,1858.4 907.8,1841.9 931.7,1826.1 953.9,1810.9 974.3,1796.5 992.9,1782.9 1009.4,1770.1 1023.9,1758.3 1036.1,1747.5 1046.1,1737.6 1053.7,1728.9 1059.0,1721.2 1061.8,1714.6 1062.2,1709.2 1060.2,1704.9 1055.8,1701.8 1048.9,1699.8 1039.6,1699.0 1028.0,1699.3 1014.0,1700.7 997.9,1703.3 979.6,1706.9 959.2,1711.6 936.9,1717.2 912.8,1723.8 887.0,1731.3 859.6,1739.7 830.8,1748.8 800.8,1758.6 769.7,1769.0 737.8,1780.0 705.3,1791.5 672.3,1803.3 639.2,1815.3  " style="stroke-opacity: 1.000000; stroke-width: 5.0; stroke: rgb(107,174,214); fill: none"  />
<path d="M 639.2,1815.3 L 672.8,1803.3 706.3,1791.8 739.7,1780.9 772.7,1770.9 805.0,1761.7 836.6,1753.5 867.2,1746.4 896.7,1740.4 925.0,1735.6 951.9,1732.2 977.3,1730.0 1001.1,1729.3 1023.2,1730.1 1043.4,1732.3 1061.8,1736.0 1078.3,1741.3 1092.7,1748.1 1105.0,1756.4 1115.3,1766.3 1123.4,1777.7 1129.5,1790.6 1133.3,1805.0 1135.1,1820.8 1134.7,1838.0 1132.3,1856.6 1127.8,1876.5 1121.4,1897.7 1113.0,1919.9 1102.8,1943.3 1090.8,1967.6 1077.1,1992.8 1061.9,2018.8 1045.2,2045.5 1027.2,2072.7 1008.1,2100.3 987.9,2128.2 966.8,2156.3 945.0,2184.3 922.8,2212.2  " style="stroke-opacity: 1.000000; stroke-width: 5.0; stroke: rgb(107,174,214); fill: none"  />
<path d="M 639.2,1815.3 L 672.5,1803.3 705.7,1791.7 738.6,1780.6 771.0,1770.1 802.6,1760.3 833.3,1751.4 862.9,1743.4 891.2,1736.3 918.2,1730.3 943.5,1725.4 967.2,1721.6 989.1,1719.1 1009.1,1717.9 1027.1,1717.9 1043.0,1719.2 1056.8,1721.9 1068.4,1726.0 1077.7,1731.4 1084.8,1738.2 1089.6,1746.3 1092.0,1755.8 1092.2,1766.6 1090.1,1778.6 1085.7,1792.0 1079.1,1806.5 1070.4,1822.3 1059.5,1839.1 1046.6,1857.0 1031.8,1875.8 1015.2,1895.6 996.8,1916.2 976.8,1937.5 955.3,1959.4 932.6,1981.8 908.6,2004.7 883.7,2027.8 858.0,2051.1 831.6,2074.5 804.9,2097.7  " style="stroke-opacity: 1.000000; stroke-width: 5.0; stroke: rgb(107,174,214); fill: none"  />
<path d="M 639.2,1815.3 L 672.3,1803.3 705.3,1791.5 737.8,1780.0 769.7,1769.0 800.8,1758.6 830.8,1748.8 859.6,1739.7 887.0,1731.3 912.8,1723.8 936.9,1717.2 959.2,1711.6 979.6,1706.9 997.9,1703.3 1014.0,1700.7 1028.0,1699.3 1039.6,1699.0 1048.9,1699.8 1055.8,1701.8 1060.2,1704.9 1062.2,1709.2 1061.8,1714.6 1059.0,1721.2 1053.7,1728.9 1046.1,1737.6 1036.1,1747.5 1023.9,1758.3 1009.4,1770.1 992.9,1782.9 974.3,1796.5 953.9,1810.9 931.7,1826.1 907.8,1841.9 882.5,1858.4 855.8,1875.3 828.0,1892.6 799.3,1910.2 769.8,1928.1 739.7,1946.0 709.3,1964.0  " style="stroke-opacity: 1.000000; stroke-width: 5.0; stroke: rgb(107,174,214); fill: none"  />
<path d="M 2245.9,967.0 L 2216.4,987.7 2186.7,1007.8 2156.8,1027.1 2126.9,1045.5 2097.2,1062.8 2067.8,1078.8 2038.9,1093.5 2010.5,1106.6 1982.7,1118.2 1955.7,1128.1 1929.5,1136.2 1904.3,1142.4 1880.1,1146.6 1857.0,1148.9 1835.1,1149.2 1814.4,1147.3 1794.9,1143.4 1776.8,1137.4 1760.1,1129.2 1744.8,1118.9 1730.9,1106.5 1718.5,1092.1 1707.5,1075.6 1698.0,1057.1 1689.9,1036.7 1683.3,1014.5 1678.1,990.5 1674.3,964.8 1671.8,937.5 1670.8,908.7 1671.0,878.7 1672.4,847.4 1675.0,815.0 1678.7,781.7 1683.5,747.7 1689.2,713.1 1695.7,678.2 1703.1,643.0 1711.1,607.9  " style="stroke-opacity: 1.000000; stroke-width: 5.0; stroke: rgb(107,174,214); fill: none"  />
<path d="M 1369.8,2407.5 L 1375.2,2371.8 1381.2,2336.4 1387.9,2301.5 1395.3,2267.2 1403.3,2233.8 1412.0,2201.5 1421.4,2170.4 1431.6,2140.8 1442.4,2112.7 1453.9,2086.4 1466.2,2061.9 1479.1,2039.4 1492.7,2018.9 1507.1,2000.6 1522.0,1984.6 1537.7,1970.9 1553.9,1959.6 1570.8,1950.7 1588.3,1944.3 1606.3,1940.3 1624.8,1938.8 1643.9,1939.8 1663.4,1943.3 1683.3,1949.1 1703.6,1957.4 1724.3,1968.0 1745.2,1980.8 1766.4,1995.8 1787.8,2012.9 1809.4,2032.0 1831.0,2053.0 1852.6,2075.6 1874.2,2099.9 1895.7,2125.6 1917.0,2152.5 1938.0,2180.5 1958.8,2209.4 1979.1,2239.0 1999.0,2269.1  " style="stroke-opacity: 1.000000; stroke-width: 5.0; stroke: rgb(107,174,214); fill: none"  />
<path d="M 1209.8,2369.6 L 1221.9,2334.6 1234.8,2299.9 1248.6,2265.7 1263.2,2232.1 1278.6,2199.3 1294.9,2167.6 1312.0,2137.0 1329.9,2107.7 1348.6,2079.9 1368.0,2053.7 1388.3,2029.2 1409.3,2006.5 1431.0,1985.6 1453.5,1966.8 1476.6,1950.0 1500.4,1935.4 1524.8,1922.9 1549.8,1912.7 1575.3,1904.7 1601.4,1898.9 1628.0,1895.5 1655.0,1894.3 1682.3,1895.4 1710.1,1898.7 1738.1,1904.2 1766.4,1911.9 1794.8,1921.7 1823.4,1933.5 1852.1,1947.2 1880.8,1962.9 1909.4,1980.3 1937.9,1999.3 1966.3,2019.9 1994.4,2041.9 2022.1,2065.2 2049.4,2089.6 2076.3,2114.9 2102.6,2141.0 2128.3,2167.6  " style="stroke-opacity: 1.000000; stroke-width: 5.0; stroke: rgb(107,174,214); fill: none"  />
<path d="M 1209.8,2369.6 L 1221.7,2335.1 1234.3,2301.0 1247.6,2267.3 1261.6,2234.4 1276.3,2202.4 1291.7,2171.5 1307.7,2141.8 1324.3,2113.6 1341.6,2087.0 1359.5,2062.1 1378.0,2039.1 1397.0,2018.0 1416.5,1999.0 1436.6,1982.1 1457.1,1967.4 1478.2,1955.0 1499.6,1944.9 1521.4,1937.2 1543.6,1931.9 1566.1,1929.1 1588.9,1928.6 1612.0,1930.6 1635.2,1935.0 1658.7,1941.7 1682.2,1950.8 1705.9,1962.1 1729.6,1975.6 1753.3,1991.3 1777.0,2009.0 1800.5,2028.6 1823.9,2050.0 1847.1,2073.1 1870.0,2097.8 1892.7,2123.8 1914.9,2151.1 1936.7,2179.5 1958.0,2208.8 1978.8,2238.7 1999.0,2269.1  " style="stroke-opacity: 1.000000; stroke-width: 5.0; stroke: rgb(107,174,214); fill: none"  />
<path d="M 1209.8,2369.6 L 1221.5,2335.5 1233.8,2301.8 1246.6,2268.6 1260.0,2236.2 1273.8,2204.8 1288.2,2174.5 1303.0,2145.6 1318.3,2118.3 1333.9,2092.6 1350.0,2068.7 1366.4,2046.8 1383.1,2027.0 1400.2,2009.3 1417.6,1993.9 1435.1,1980.8 1453.0,1970.1 1471.0,1961.8 1489.2,1956.1 1507.5,1952.9 1526.0,1952.2 1544.5,1954.1 1563.0,1958.4 1581.6,1965.3 1600.2,1974.7 1618.7,1986.4 1637.1,2000.5 1655.5,2016.9 1673.6,2035.4 1691.6,2056.1 1709.4,2078.7 1726.9,2103.2 1744.1,2129.3 1761.1,2157.0 1777.6,2186.2 1793.8,2216.5 1809.5,2247.8 1824.7,2279.9 1839.4,2312.7 1853.6,2345.8  " style="stroke-opacity: 1.000000; stroke-width: 5.0; stroke: rgb(107,174,214); fill: none"  />
<path d="M 1209.8,2369.6 L 1221.3,2335.8 1233.3,2302.4 1245.6,2269.6 1258.3,2237.5 1271.3,2206.5 1284.5,2176.7 1298.1,2148.3 1311.8,2121.5 1325.7,2096.4 1339.8,2073.3 1354.0,2052.1 1368.3,2033.0 1382.6,2016.2 1397.0,2001.8 1411.3,1989.7 1425.7,1980.2 1440.0,1973.1 1454.2,1968.7 1468.3,1966.8 1482.3,1967.5 1496.2,1970.9 1509.8,1976.8 1523.3,1985.3 1536.6,1996.3 1549.6,2009.8 1562.3,2025.7 1574.8,2044.0 1587.0,2064.4 1598.9,2086.9 1610.4,2111.5 1621.6,2137.9 1632.5,2166.0 1642.9,2195.7 1653.0,2226.7 1662.6,2258.9 1671.9,2292.1 1680.7,2326.1 1689.0,2360.6 1696.9,2395.4  " style="stroke-opacity: 1.000000; stroke-width: 5.0; stroke: rgb(107,174,214); fill: none"  />
<path d="M 2329.1,1108.8 L 2295.5,1124.2 2261.4,1138.8 2227.2,1152.6 2192.8,1165.2 2158.5,1176.7 2124.3,1186.9 2090.4,1195.7 2056.8,1203.0 2023.8,1208.7 1991.4,1212.7 1959.7,1215.1 1928.8,1215.6 1898.7,1214.3 1869.6,1211.0 1841.5,1205.9 1814.4,1198.8 1788.6,1189.8 1763.9,1178.8 1740.4,1165.9 1718.3,1151.0 1697.4,1134.2 1677.9,1115.5 1659.8,1095.0 1643.0,1072.6 1627.6,1048.6 1613.6,1022.8 1601.0,995.5 1589.8,966.7 1579.9,936.4 1571.4,904.9 1564.2,872.2 1558.3,838.4 1553.6,803.7 1550.1,768.2 1547.7,732.0 1546.4,695.4 1546.2,658.5 1546.8,621.5 1548.4,584.5  " style="stroke-opacity: 1.000000; stroke-width: 5.0; stroke: rgb(107,174,214); fill: none"  />
</g>
<defs>
<pattern id="hline-sparse" width="10" height="10" patternTransform="rotate(0 0 0)" patternUnits="userSpaceOnUse"><line x1="0" y1="0" x2="10" y2="0" style="stroke:black;stroke-width:2" /></pattern>
<pattern id="checker" width="10" height="10" patternTransform="rotate(45 0 0)" patternUnits="userSpaceOnUse"><line x1="0" y1="0" x2="10" y2="0" style="stroke:black;stroke-width:2" /><line x1="0" y1="0" x2="0" y2="10" style="stroke:black;stroke-width:2" /></pattern>
<pattern id="vline-sparse" width="10" height="10" patternTransform="rotate(0 0 0)" patternUnits="userSpaceOnUse"><line x1="0" y1="0" x2="0" y2="10" style="stroke:black;stroke-width:2" /></pattern>
<pattern id="vline" width="10" height="10" patternTransform="rotate(0 0 0)" patternUnits="userSpaceOnUse"><line x1="0" y1="0" x2="0" y2="10" style="stroke:black;stroke-width:5" /></pattern>
<pattern id="checker" width="10" height="10" patternTransform="rotate(45 0 0)" patternUnits="userSpaceOnUse"><line x1="0" y1="0" x2="10" y2="0" style="stroke:black;stroke-width:5" /><line x1="0" y1="0" x2="0" y2="10" style="stroke:black;stroke-width:4" /></pattern>
<pattern id="hline" width="10" height="10" patternTransform="rotate(0 0 0)" patternUnits="userSpaceOnUse"><line x1="0" y1="0" x2="10" y2="0" style="stroke:black;stroke-width:5" /></pattern>
</defs>
</svg>
