<?xml version="1.0" encoding="utf-8" standalone="no"?>
<!DOCTYPE svg PUBLIC "-//W3C//DTD SVG 1.1//EN" "http://www.w3.org/Graphics/SVG/1.1/DTD/svg11.dtd">
<svg width="3000px" height="3000px" version="1.1" xmlns="http://www.w3.org/2000/svg" xmlns:xlink="http://www.w3.org/1999/xlink">
<g id="bg">
<rect x="0" y="0" width="3000px" height="3000px" style="fill:rgb(255,255,255);"/>
</g>
<g id="ideograms">
<path d="M1500.000,830.000 A670.000,670.000 40.000 0,1 1570.620,833.732 L1579.053,754.178 A750.000,750.000 0.000 0,0 1500.000,750.000 Z" style="stroke-width:2.0;stroke:rgb(115,115,115);stroke-linecap:round;fill:rgb(153,204,255);" />
<text x="1568.0" y="677.8" font-size="65.0px" font-family="CMUBright-Roman" style="text-anchor:start;fill:rgb(0,0,0);" transform="rotate(273.0,1568.0,677.8)" >7-IFG</text>
<path d="M1500.000,830.000 A670.000,670.000 40.000 0,1 1570.620,833.732 L1579.053,754.178 A750.000,750.000 0.000 0,0 1500.000,750.000 Z" style="stroke-width:2.0;stroke:rgb(115,115,115);stroke-linecap:round;fill:none;" />
<path d="M1619.633,840.767 A670.000,670.000 40.000 0,1 1688.452,857.049 L1710.954,780.279 A750.000,750.000 0.000 0,0 1633.918,762.053 Z" style="stroke-width:2.0;stroke:rgb(115,115,115);stroke-linecap:round;fill:rgb(153,204,255);" />
<text x="1713.7" y="703.2" font-size="65.0px" font-family="CMUBright-Roman" style="text-anchor:start;fill:rgb(0,0,0);" transform="rotate(283.3,1713.7,703.2)" >8-IFG</text>
<path d="M1619.633,840.767 A670.000,670.000 40.000 0,1 1688.452,857.049 L1710.954,780.279 A750.000,750.000 0.000 0,0 1633.918,762.053 Z" style="stroke-width:2.0;stroke:rgb(115,115,115);stroke-linecap:round;fill:none;" />
<path d="M1735.421,872.723 A670.000,670.000 40.000 0,1 1800.227,901.031 L1836.075,829.512 A750.000,750.000 0.000 0,0 1763.531,797.824 Z" style="stroke-width:2.0;stroke:rgb(115,115,115);stroke-linecap:round;fill:rgb(153,204,255);" />
<text x="1852.5" y="754.1" font-size="65.0px" font-family="CMUBright-Roman" style="text-anchor:start;fill:rgb(0,0,0);" transform="rotate(293.6,1852.5,754.1)" >18-MTG</text>
<path d="M1735.421,872.723 A670.000,670.000 40.000 0,1 1800.227,901.031 L1836.075,829.512 A750.000,750.000 0.000 0,0 1763.531,797.824 Z" style="stroke-width:2.0;stroke:rgb(115,115,115);stroke-linecap:round;fill:none;" />
<path d="M1843.643,924.839 A670.000,670.000 40.000 0,1 1902.352,964.264 L1950.394,900.296 A750.000,750.000 0.000 0,0 1884.674,856.163 Z" style="stroke-width:2.0;stroke:rgb(115,115,115);stroke-linecap:round;fill:rgb(153,204,255);" />
<text x="1980.1" y="829.1" font-size="65.0px" font-family="CMUBright-Roman" style="text-anchor:start;fill:rgb(0,0,0);" transform="rotate(303.9,1980.1,829.1)" >19-MTG</text>
<path d="M1843.643,924.839 A670.000,670.000 40.000 0,1 1902.352,964.264 L1950.394,900.296 A750.000,750.000 0.000 0,0 1884.674,856.163 Z" style="stroke-width:2.0;stroke:rgb(115,115,115);stroke-linecap:round;fill:none;" />
<path d="M1940.819,995.442 A670.000,670.000 40.000 0,1 1991.546,1044.717 L2050.238,990.354 A750.000,750.000 0.000 0,0 1993.454,935.196 Z" style="stroke-width:2.0;stroke:rgb(115,115,115);stroke-linecap:round;fill:rgb(153,204,255);" />
<text x="2092.1" y="925.6" font-size="65.0px" font-family="CMUBright-Roman" style="text-anchor:start;fill:rgb(0,0,0);" transform="rotate(314.2,2092.1,925.6)" >26-PC</text>
<path d="M1940.819,995.442 A670.000,670.000 40.000 0,1 1991.546,1044.717 L2050.238,990.354 A750.000,750.000 0.000 0,0 1993.454,935.196 Z" style="stroke-width:2.0;stroke:rgb(115,115,115);stroke-linecap:round;fill:none;" />
<path d="M2023.827,1082.262 A670.000,670.000 40.000 0,1 2064.940,1139.802 L2132.396,1096.793 A750.000,750.000 0.000 0,0 2086.374,1032.383 Z" style="stroke-width:2.0;stroke:rgb(115,115,115);stroke-linecap:round;fill:rgb(153,204,255);" />
<text x="2185.2" y="1040.5" font-size="65.0px" font-family="CMUBright-Roman" style="text-anchor:start;fill:rgb(0,0,0);" transform="rotate(324.5,2185.2,1040.5)" >27-RCI</text>
<path d="M2023.827,1082.262 A670.000,670.000 40.000 0,1 2064.940,1139.802 L2132.396,1096.793 A750.000,750.000 0.000 0,0 2086.374,1032.383 Z" style="stroke-width:2.0;stroke:rgb(115,115,115);stroke-linecap:round;fill:none;" />
<path d="M2089.999,1182.508 A670.000,670.000 40.000 0,1 2120.177,1246.465 L2194.228,1216.192 A750.000,750.000 0.000 0,0 2160.447,1144.599 Z" style="stroke-width:2.0;stroke:rgb(115,115,115);stroke-linecap:round;fill:rgb(153,204,255);" />
<text x="2256.2" y="1170.3" font-size="65.0px" font-family="CMUBright-Roman" style="text-anchor:start;fill:rgb(0,0,0);" transform="rotate(334.7,2256.2,1170.3)" >35-SG</text>
<path d="M2089.999,1182.508 A670.000,670.000 40.000 0,1 2120.177,1246.465 L2194.228,1216.192 A750.000,750.000 0.000 0,0 2160.447,1144.599 Z" style="stroke-width:2.0;stroke:rgb(115,115,115);stroke-linecap:round;fill:none;" />
<path d="M2137.208,1292.959 A670.000,670.000 40.000 0,1 2155.481,1361.276 L2233.748,1344.712 A750.000,750.000 0.000 0,0 2213.292,1268.237 Z" style="stroke-width:2.0;stroke:rgb(115,115,115);stroke-linecap:round;fill:rgb(116,196,118);" />
<text x="2303.0" y="1310.6" font-size="65.0px" font-family="CMUBright-Roman" style="text-anchor:start;fill:rgb(0,0,0);" transform="rotate(345.0,2303.0,1310.6)" >2-COC</text>
<path d="M2137.208,1292.959 A670.000,670.000 40.000 0,1 2155.481,1361.276 L2233.748,1344.712 A750.000,750.000 0.000 0,0 2213.292,1268.237 Z" style="stroke-width:2.0;stroke:rgb(115,115,115);stroke-linecap:round;fill:none;" />
<path d="M2163.936,1410.064 A670.000,670.000 40.000 0,1 2169.718,1480.546 L2249.684,1478.223 A750.000,750.000 0.000 0,0 2243.212,1399.325 Z" style="stroke-width:2.0;stroke:rgb(115,115,115);stroke-linecap:round;fill:rgb(116,196,118);" />
<text x="2323.9" y="1457.0" font-size="65.0px" font-family="CMUBright-Roman" style="text-anchor:start;fill:rgb(0,0,0);" transform="rotate(355.3,2323.9,1457.0)" >3-COC</text>
<path d="M2163.936,1410.064 A670.000,670.000 40.000 0,1 2169.718,1480.546 L2249.684,1478.223 A750.000,750.000 0.000 0,0 2243.212,1399.325 Z" style="stroke-width:2.0;stroke:rgb(115,115,115);stroke-linecap:round;fill:none;" />
<path d="M2169.325,1530.059 A670.000,670.000 40.000 0,1 2162.429,1600.441 L2241.524,1612.434 A750.000,750.000 0.000 0,0 2249.245,1533.649 Z" style="stroke-width:2.0;stroke:rgb(115,115,115);stroke-linecap:round;fill:rgb(116,196,118);" />
<text x="2318.4" y="1604.3" font-size="65.0px" font-family="CMUBright-Roman" style="text-anchor:start;fill:rgb(0,0,0);" transform="rotate(5.6,2318.4,1604.3)" >15-LVIIIb</text>
<path d="M2169.325,1530.059 A670.000,670.000 40.000 0,1 2162.429,1600.441 L2241.524,1612.434 A750.000,750.000 0.000 0,0 2249.245,1533.649 Z" style="stroke-width:2.0;stroke:rgb(115,115,115);stroke-linecap:round;fill:none;" />
<path d="M2153.202,1649.089 A670.000,670.000 40.000 0,1 2133.849,1717.108 L2209.532,1743.032 A750.000,750.000 0.000 0,0 2231.196,1666.891 Z" style="stroke-width:2.0;stroke:rgb(115,115,115);stroke-linecap:round;fill:rgb(116,196,118);" />
<text x="2286.5" y="1749.2" font-size="65.0px" font-family="CMUBright-Roman" style="text-anchor:start;fill:rgb(0,0,0);" transform="rotate(15.9,2286.5,1749.2)" >22-ParG</text>
<path d="M2153.202,1649.089 A670.000,670.000 40.000 0,1 2133.849,1717.108 L2209.532,1743.032 A750.000,750.000 0.000 0,0 2231.196,1666.891 Z" style="stroke-width:2.0;stroke:rgb(115,115,115);stroke-linecap:round;fill:none;" />
<path d="M2116.084,1763.327 A670.000,670.000 40.000 0,1 2084.896,1826.797 L2154.734,1865.818 A750.000,750.000 0.000 0,0 2189.646,1794.769 Z" style="stroke-width:2.0;stroke:rgb(115,115,115);stroke-linecap:round;fill:rgb(116,196,118);" />
<text x="2229.5" y="1885.2" font-size="65.0px" font-family="CMUBright-Roman" style="text-anchor:start;fill:rgb(0,0,0);" transform="rotate(26.2,2229.5,1885.2)" >23-PP</text>
<path d="M2116.084,1763.327 A670.000,670.000 40.000 0,1 2084.896,1826.797 L2154.734,1865.818 A750.000,750.000 0.000 0,0 2189.646,1794.769 Z" style="stroke-width:2.0;stroke:rgb(115,115,115);stroke-linecap:round;fill:none;" />
<path d="M2059.164,1869.101 A670.000,670.000 40.000 0,1 2017.145,1925.983 L2078.893,1976.846 A750.000,750.000 0.000 0,0 2125.930,1913.173 Z" style="stroke-width:2.0;stroke:rgb(115,115,115);stroke-linecap:round;fill:rgb(153,0,204);" />
<text x="2148.7" y="2009.7" font-size="65.0px" font-family="CMUBright-Roman" style="text-anchor:start;fill:rgb(0,0,0);" transform="rotate(36.5,2148.7,2009.7)" >1-AG</text>
<path d="M2059.164,1869.101 A670.000,670.000 40.000 0,1 2017.145,1925.983 L2078.893,1976.846 A750.000,750.000 0.000 0,0 2125.930,1913.173 Z" style="stroke-width:2.0;stroke:rgb(115,115,115);stroke-linecap:round;fill:none;" />
<path d="M1984.273,1963.012 A670.000,670.000 40.000 0,1 1932.772,2011.477 L1984.446,2072.549 A750.000,750.000 0.000 0,0 2042.096,2018.297 Z" style="stroke-width:2.0;stroke:rgb(115,115,115);stroke-linecap:round;fill:rgb(153,0,204);" />
<text x="2047.7" y="2117.0" font-size="65.0px" font-family="CMUBright-Roman" style="text-anchor:start;fill:rgb(0,0,0);" transform="rotate(46.7,2047.7,2117.0)" >5-FP</text>
<path d="M1984.273,1963.012 A670.000,670.000 40.000 0,1 1932.772,2011.477 L1984.446,2072.549 A750.000,750.000 0.000 0,0 2042.096,2018.297 Z" style="stroke-width:2.0;stroke:rgb(115,115,115);stroke-linecap:round;fill:none;" />
<path d="M1893.816,2042.041 A670.000,670.000 40.000 0,1 1834.489,2080.532 L1874.428,2149.849 A750.000,750.000 0.000 0,0 1940.839,2106.763 Z" style="stroke-width:2.0;stroke:rgb(115,115,115);stroke-linecap:round;fill:rgb(153,0,204);" />
<text x="1928.7" y="2204.9" font-size="65.0px" font-family="CMUBright-Roman" style="text-anchor:start;fill:rgb(0,0,0);" transform="rotate(57.0,1928.7,2204.9)" >9-IPL</text>
<path d="M1893.816,2042.041 A670.000,670.000 40.000 0,1 1834.489,2080.532 L1874.428,2149.849 A750.000,750.000 0.000 0,0 1940.839,2106.763 Z" style="stroke-width:2.0;stroke:rgb(115,115,115);stroke-linecap:round;fill:none;" />
<path d="M1790.702,2103.649 A670.000,670.000 40.000 0,1 1725.456,2130.928 L1752.376,2206.262 A750.000,750.000 0.000 0,0 1825.413,2175.727 Z" style="stroke-width:2.0;stroke:rgb(115,115,115);stroke-linecap:round;fill:rgb(153,0,204);" />
<text x="1796.0" y="2270.1" font-size="65.0px" font-family="CMUBright-Roman" style="text-anchor:start;fill:rgb(0,0,0);" transform="rotate(67.3,1796.0,2270.1)" >10-IPL</text>
<path d="M1790.702,2103.649 A670.000,670.000 40.000 0,1 1725.456,2130.928 L1752.376,2206.262 A750.000,750.000 0.000 0,0 1825.413,2175.727 Z" style="stroke-width:2.0;stroke:rgb(115,115,115);stroke-linecap:round;fill:none;" />
<path d="M1678.245,2145.855 A670.000,670.000 40.000 0,1 1609.176,2161.045 L1622.212,2239.976 A750.000,750.000 0.000 0,0 1699.528,2222.972 Z" style="stroke-width:2.0;stroke:rgb(115,115,115);stroke-linecap:round;fill:rgb(153,0,204);" />
<text x="1653.2" y="2310.7" font-size="65.0px" font-family="CMUBright-Roman" style="text-anchor:start;fill:rgb(0,0,0);" transform="rotate(77.6,1653.2,2310.7)" >17-MFG</text>
<path d="M1678.245,2145.855 A670.000,670.000 40.000 0,1 1609.176,2161.045 L1622.212,2239.976 A750.000,750.000 0.000 0,0 1699.528,2222.972 Z" style="stroke-width:2.0;stroke:rgb(115,115,115);stroke-linecap:round;fill:none;" />
<path d="M1560.058,2167.303 A670.000,670.000 40.000 0,1 1489.388,2169.916 L1488.121,2249.906 A750.000,750.000 0.000 0,0 1567.229,2246.981 Z" style="stroke-width:2.0;stroke:rgb(115,115,115);stroke-linecap:round;fill:rgb(153,0,204);" />
<text x="1506.0" y="2325.0" font-size="65.0px" font-family="CMUBright-Roman" style="text-anchor:start;fill:rgb(0,0,0);" transform="rotate(87.9,1506.0,2325.0)" >34-SG</text>
<path d="M1560.058,2167.303 A670.000,670.000 40.000 0,1 1489.388,2169.916 L1488.121,2249.906 A750.000,750.000 0.000 0,0 1567.229,2246.981 Z" style="stroke-width:2.0;stroke:rgb(115,115,115);stroke-linecap:round;fill:none;" />
<path d="M1439.942,2167.303 A670.000,670.000 40.000 0,1 1369.940,2157.255 L1354.411,2235.733 A750.000,750.000 0.000 0,0 1432.771,2246.981 Z" style="stroke-width:2.0;stroke:rgb(115,115,115);stroke-linecap:round;fill:rgb(253,208,162);" />
<text x="1407.1" y="2319.8" font-size="65.0px" font-family="CMUBright-Roman" style="text-anchor:end;fill:rgb(0,0,0);" transform="rotate(-81.8,1407.1,2319.8)" >12-LOC</text>
<path d="M1439.942,2167.303 A670.000,670.000 40.000 0,1 1369.940,2157.255 L1354.411,2235.733 A750.000,750.000 0.000 0,0 1432.771,2246.981 Z" style="stroke-width:2.0;stroke:rgb(115,115,115);stroke-linecap:round;fill:none;" />
<path d="M1321.755,2145.855 A670.000,670.000 40.000 0,1 1254.673,2123.470 L1225.380,2197.914 A750.000,750.000 0.000 0,0 1300.472,2222.972 Z" style="stroke-width:2.0;stroke:rgb(115,115,115);stroke-linecap:round;fill:rgb(253,208,162);" />
<text x="1262.2" y="2290.0" font-size="65.0px" font-family="CMUBright-Roman" style="text-anchor:end;fill:rgb(0,0,0);" transform="rotate(-71.5,1262.2,2290.0)" >13-LCI</text>
<path d="M1321.755,2145.855 A670.000,670.000 40.000 0,1 1254.673,2123.470 L1225.380,2197.914 A750.000,750.000 0.000 0,0 1300.472,2222.972 Z" style="stroke-width:2.0;stroke:rgb(115,115,115);stroke-linecap:round;fill:none;" />
<path d="M1209.298,2103.649 A670.000,670.000 40.000 0,1 1147.290,2069.645 L1105.176,2137.663 A750.000,750.000 0.000 0,0 1174.587,2175.727 Z" style="stroke-width:2.0;stroke:rgb(115,115,115);stroke-linecap:round;fill:rgb(253,208,162);" />
<text x="1125.0" y="2234.8" font-size="65.0px" font-family="CMUBright-Roman" style="text-anchor:end;fill:rgb(0,0,0);" transform="rotate(-61.3,1125.0,2234.8)" >16-LG</text>
<path d="M1209.298,2103.649 A670.000,670.000 40.000 0,1 1147.290,2069.645 L1105.176,2137.663 A750.000,750.000 0.000 0,0 1174.587,2175.727 Z" style="stroke-width:2.0;stroke:rgb(115,115,115);stroke-linecap:round;fill:none;" />
<path d="M1106.184,2042.041 A670.000,670.000 40.000 0,1 1051.245,1997.512 L997.662,2056.917 A750.000,750.000 0.000 0,0 1059.161,2106.763 Z" style="stroke-width:2.0;stroke:rgb(115,115,115);stroke-linecap:round;fill:rgb(253,208,162);" />
<text x="999.8" y="2156.1" font-size="65.0px" font-family="CMUBright-Roman" style="text-anchor:end;fill:rgb(0,0,0);" transform="rotate(-51.0,999.8,2156.1)" >20-OFG</text>
<path d="M1106.184,2042.041 A670.000,670.000 40.000 0,1 1051.245,1997.512 L997.662,2056.917 A750.000,750.000 0.000 0,0 1059.161,2106.763 Z" style="stroke-width:2.0;stroke:rgb(115,115,115);stroke-linecap:round;fill:none;" />
<path d="M1015.727,1963.012 A670.000,670.000 40.000 0,1 969.622,1909.389 L906.293,1958.271 A750.000,750.000 0.000 0,0 957.904,2018.297 Z" style="stroke-width:2.0;stroke:rgb(115,115,115);stroke-linecap:round;fill:rgb(253,208,162);" />
<text x="890.7" y="2056.2" font-size="65.0px" font-family="CMUBright-Roman" style="text-anchor:end;fill:rgb(0,0,0);" transform="rotate(-40.7,890.7,2056.2)" >21-OP</text>
<path d="M1015.727,1963.012 A670.000,670.000 40.000 0,1 969.622,1909.389 L906.293,1958.271 A750.000,750.000 0.000 0,0 957.904,2018.297 Z" style="stroke-width:2.0;stroke:rgb(115,115,115);stroke-linecap:round;fill:none;" />
<path d="M940.836,1869.101 A670.000,670.000 40.000 0,1 905.046,1808.107 L834.007,1844.896 A750.000,750.000 0.000 0,0 874.070,1913.173 Z" style="stroke-width:2.0;stroke:rgb(115,115,115);stroke-linecap:round;fill:rgb(253,208,162);" />
<text x="801.2" y="1938.5" font-size="65.0px" font-family="CMUBright-Roman" style="text-anchor:end;fill:rgb(0,0,0);" transform="rotate(-30.4,801.2,1938.5)" >25-PosG</text>
<path d="M940.836,1869.101 A670.000,670.000 40.000 0,1 905.046,1808.107 L834.007,1844.896 A750.000,750.000 0.000 0,0 874.070,1913.173 Z" style="stroke-width:2.0;stroke:rgb(115,115,115);stroke-linecap:round;fill:none;" />
<path d="M883.916,1763.327 A670.000,670.000 40.000 0,1 859.593,1696.922 L783.126,1720.436 A750.000,750.000 0.000 0,0 810.354,1794.769 Z" style="stroke-width:2.0;stroke:rgb(115,115,115);stroke-linecap:round;fill:rgb(253,208,162);" />
<text x="734.1" y="1806.6" font-size="65.0px" font-family="CMUBright-Roman" style="text-anchor:end;fill:rgb(0,0,0);" transform="rotate(-20.1,734.1,1806.6)" >28-RCI</text>
<path d="M883.916,1763.327 A670.000,670.000 40.000 0,1 859.593,1696.922 L783.126,1720.436 A750.000,750.000 0.000 0,0 810.354,1794.769 Z" style="stroke-width:2.0;stroke:rgb(115,115,115);stroke-linecap:round;fill:none;" />
<path d="M846.798,1649.089 A670.000,670.000 40.000 0,1 834.722,1579.409 L755.286,1588.890 A750.000,750.000 0.000 0,0 768.804,1666.891 Z" style="stroke-width:2.0;stroke:rgb(115,115,115);stroke-linecap:round;fill:rgb(253,141,60);" />
<text x="691.7" y="1665.0" font-size="65.0px" font-family="CMUBright-Roman" style="text-anchor:end;fill:rgb(0,0,0);" transform="rotate(-9.8,691.7,1665.0)" >11-ITG</text>
<path d="M846.798,1649.089 A670.000,670.000 40.000 0,1 834.722,1579.409 L755.286,1588.890 A750.000,750.000 0.000 0,0 768.804,1666.891 Z" style="stroke-width:2.0;stroke:rgb(115,115,115);stroke-linecap:round;fill:none;" />
<path d="M830.675,1530.059 A670.000,670.000 40.000 0,1 831.235,1459.343 L751.382,1454.488 A750.000,750.000 0.000 0,0 750.755,1533.649 Z" style="stroke-width:2.0;stroke:rgb(115,115,115);stroke-linecap:round;fill:rgb(253,141,60);" />
<text x="675.2" y="1517.5" font-size="65.0px" font-family="CMUBright-Roman" style="text-anchor:end;fill:rgb(0,0,0);" transform="rotate(0.5,675.2,1517.5)" >30-RH</text>
<path d="M830.675,1530.059 A670.000,670.000 40.000 0,1 831.235,1459.343 L751.382,1454.488 A750.000,750.000 0.000 0,0 750.755,1533.649 Z" style="stroke-width:2.0;stroke:rgb(115,115,115);stroke-linecap:round;fill:none;" />
<path d="M836.064,1410.064 A670.000,670.000 40.000 0,1 849.242,1340.583 L771.539,1321.549 A750.000,750.000 0.000 0,0 756.788,1399.325 Z" style="stroke-width:2.0;stroke:rgb(115,115,115);stroke-linecap:round;fill:rgb(253,141,60);" />
<text x="685.3" y="1369.9" font-size="65.0px" font-family="CMUBright-Roman" style="text-anchor:end;fill:rgb(0,0,0);" transform="rotate(10.7,685.3,1369.9)" >31-RLV</text>
<path d="M836.064,1410.064 A670.000,670.000 40.000 0,1 849.242,1340.583 L771.539,1321.549 A750.000,750.000 0.000 0,0 756.788,1399.325 Z" style="stroke-width:2.0;stroke:rgb(115,115,115);stroke-linecap:round;fill:none;" />
<path d="M862.792,1292.959 A670.000,670.000 40.000 0,1 888.165,1226.948 L815.110,1194.345 A750.000,750.000 0.000 0,0 786.708,1268.237 Z" style="stroke-width:2.0;stroke:rgb(115,115,115);stroke-linecap:round;fill:rgb(253,141,60);" />
<text x="721.6" y="1226.5" font-size="65.0px" font-family="CMUBright-Roman" style="text-anchor:end;fill:rgb(0,0,0);" transform="rotate(21.0,721.6,1226.5)" >32-RLV</text>
<path d="M862.792,1292.959 A670.000,670.000 40.000 0,1 888.165,1226.948 L815.110,1194.345 A750.000,750.000 0.000 0,0 786.708,1268.237 Z" style="stroke-width:2.0;stroke:rgb(115,115,115);stroke-linecap:round;fill:none;" />
<path d="M910.001,1182.508 A670.000,670.000 40.000 0,1 946.752,1122.089 L880.693,1076.965 A750.000,750.000 0.000 0,0 839.553,1144.599 Z" style="stroke-width:2.0;stroke:rgb(115,115,115);stroke-linecap:round;fill:rgb(253,141,60);" />
<text x="782.7" y="1092.4" font-size="65.0px" font-family="CMUBright-Roman" style="text-anchor:end;fill:rgb(0,0,0);" transform="rotate(31.3,782.7,1092.4)" >33-SC</text>
<path d="M910.001,1182.508 A670.000,670.000 40.000 0,1 946.752,1122.089 L880.693,1076.965 A750.000,750.000 0.000 0,0 839.553,1144.599 Z" style="stroke-width:2.0;stroke:rgb(115,115,115);stroke-linecap:round;fill:none;" />
<path d="M976.173,1082.262 A670.000,670.000 40.000 0,1 1023.122,1029.376 L966.181,973.182 A750.000,750.000 0.000 0,0 913.626,1032.383 Z" style="stroke-width:2.0;stroke:rgb(115,115,115);stroke-linecap:round;fill:rgb(66,146,198);" />
<text x="867.0" y="970.9" font-size="65.0px" font-family="CMUBright-Roman" style="text-anchor:end;fill:rgb(0,0,0);" transform="rotate(41.6,867.0,970.9)" >4-FOC</text>
<path d="M976.173,1082.262 A670.000,670.000 40.000 0,1 1023.122,1029.376 L966.181,973.182 A750.000,750.000 0.000 0,0 913.626,1032.383 Z" style="stroke-width:2.0;stroke:rgb(115,115,115);stroke-linecap:round;fill:none;" />
<path d="M1059.181,995.442 A670.000,670.000 40.000 0,1 1114.819,951.789 L1068.827,886.331 A750.000,750.000 0.000 0,0 1006.546,935.196 Z" style="stroke-width:2.0;stroke:rgb(115,115,115);stroke-linecap:round;fill:rgb(66,146,198);" />
<text x="971.7" y="866.3" font-size="65.0px" font-family="CMUBright-Roman" style="text-anchor:end;fill:rgb(0,0,0);" transform="rotate(51.9,971.7,866.3)" >6-IFG</text>
<path d="M1059.181,995.442 A670.000,670.000 40.000 0,1 1114.819,951.789 L1068.827,886.331 A750.000,750.000 0.000 0,0 1006.546,935.196 Z" style="stroke-width:2.0;stroke:rgb(115,115,115);stroke-linecap:round;fill:none;" />
<path d="M1156.357,924.839 A670.000,670.000 40.000 0,1 1218.896,891.822 L1185.331,819.204 A750.000,750.000 0.000 0,0 1115.326,856.163 Z" style="stroke-width:2.0;stroke:rgb(115,115,115);stroke-linecap:round;fill:rgb(66,146,198);" />
<text x="1094.2" y="781.7" font-size="65.0px" font-family="CMUBright-Roman" style="text-anchor:end;fill:rgb(0,0,0);" transform="rotate(62.2,1094.2,781.7)" >14-LIX</text>
<path d="M1156.357,924.839 A670.000,670.000 40.000 0,1 1218.896,891.822 L1185.331,819.204 A750.000,750.000 0.000 0,0 1115.326,856.163 Z" style="stroke-width:2.0;stroke:rgb(115,115,115);stroke-linecap:round;fill:none;" />
<path d="M1264.579,872.723 A670.000,670.000 40.000 0,1 1332.008,851.403 L1311.949,773.958 A750.000,750.000 0.000 0,0 1236.469,797.824 Z" style="stroke-width:2.0;stroke:rgb(115,115,115);stroke-linecap:round;fill:rgb(66,146,198);" />
<text x="1229.0" y="720.8" font-size="65.0px" font-family="CMUBright-Roman" style="text-anchor:end;fill:rgb(0,0,0);" transform="rotate(72.5,1229.0,720.8)" >24-PP</text>
<path d="M1264.579,872.723 A670.000,670.000 40.000 0,1 1332.008,851.403 L1311.949,773.958 A750.000,750.000 0.000 0,0 1236.469,797.824 Z" style="stroke-width:2.0;stroke:rgb(115,115,115);stroke-linecap:round;fill:none;" />
<path d="M1380.367,840.767 A670.000,670.000 40.000 0,1 1450.519,831.830 L1444.611,752.048 A750.000,750.000 0.000 0,0 1366.082,762.053 Z" style="stroke-width:2.0;stroke:rgb(115,115,115);stroke-linecap:round;fill:rgb(66,146,198);" />
<text x="1371.5" y="685.1" font-size="65.0px" font-family="CMUBright-Roman" style="text-anchor:end;fill:rgb(0,0,0);" transform="rotate(82.7,1371.5,685.1)" >29-RCI</text>
<path d="M1380.367,840.767 A670.000,670.000 40.000 0,1 1450.519,831.830 L1444.611,752.048 A750.000,750.000 0.000 0,0 1366.082,762.053 Z" style="stroke-width:2.0;stroke:rgb(115,115,115);stroke-linecap:round;fill:none;" />
</g>
<g id="track_1">
<path d="M 2012.0,1878.2 L 1988.9,1860.8 1965.9,1842.8 1943.1,1824.2 1920.5,1804.9 1898.3,1785.1 1876.4,1764.7 1854.9,1743.7 1833.8,1722.1 1813.2,1699.9 1793.2,1677.2 1773.8,1653.9 1754.9,1630.1 1736.7,1605.8 1719.2,1580.9 1702.4,1555.6 1686.3,1529.7 1670.9,1503.4 1656.3,1476.7 1642.5,1449.6 1629.5,1422.0 1617.4,1394.1 1606.0,1365.9 1595.5,1337.3 1585.8,1308.5 1576.9,1279.4 1568.9,1250.0 1561.6,1220.5 1555.2,1190.8 1549.6,1161.0 1544.8,1131.1 1540.8,1101.1 1537.5,1071.2 1535.0,1041.2 1533.1,1011.3 1532.0,981.5 1531.5,951.9 1531.6,922.5 1532.3,893.3 1533.6,864.4  " style="stroke-opacity: 1.000000; stroke-width: 5.0; stroke: rgb(251,106,74); fill: none"  />
<path d="M 2012.0,1878.2 L 1990.0,1862.3 1967.4,1846.9 1944.4,1832.1 1920.9,1817.8 1896.9,1804.3 1872.7,1791.5 1848.0,1779.6 1823.1,1768.6 1798.0,1758.6 1772.6,1749.6 1747.1,1741.7 1721.4,1735.0 1695.7,1729.4 1669.9,1725.0 1644.0,1721.8 1618.2,1719.9 1592.5,1719.3 1566.8,1720.0 1541.2,1721.9 1515.8,1725.2 1490.5,1729.7 1465.5,1735.5 1440.7,1742.6 1416.2,1750.9 1392.0,1760.4 1368.1,1771.1 1344.5,1783.0 1321.4,1796.0 1298.7,1810.0 1276.4,1825.0 1254.5,1841.0 1233.2,1857.9 1212.3,1875.6 1192.0,1894.1 1172.3,1913.2 1153.1,1932.9 1134.5,1953.0 1116.5,1973.6 1099.2,1994.5  " style="stroke-opacity: 1.000000; stroke-width: 5.0; stroke: rgb(251,106,74); fill: none"  />
<path d="M 1533.6,864.4 L 1532.3,893.3 1531.6,922.5 1531.5,951.9 1532.0,981.5 1533.1,1011.3 1535.0,1041.2 1537.5,1071.2 1540.8,1101.1 1544.8,1131.1 1549.6,1161.0 1555.2,1190.8 1561.6,1220.5 1568.9,1250.0 1576.9,1279.4 1585.8,1308.5 1595.5,1337.3 1606.0,1365.9 1617.4,1394.1 1629.5,1422.0 1642.5,1449.6 1656.3,1476.7 1670.9,1503.4 1686.3,1529.7 1702.4,1555.6 1719.2,1580.9 1736.7,1605.8 1754.9,1630.1 1773.8,1653.9 1793.2,1677.2 1813.2,1699.9 1833.8,1722.1 1854.9,1743.7 1876.4,1764.7 1898.3,1785.1 1920.5,1804.9 1943.1,1824.2 1965.9,1842.8 1988.9,1860.8 2012.0,1878.2  " style="stroke-opacity: 1.000000; stroke-width: 5.0; stroke: rgb(251,106,74); fill: none"  />
<path d="M 1533.6,864.4 L 1531.9,896.6 1530.3,929.0 1528.7,961.3 1527.2,993.7 1525.8,1026.2 1524.4,1058.7 1523.1,1091.2 1521.9,1123.8 1520.8,1156.4 1519.7,1189.0 1518.7,1221.7 1517.8,1254.4 1516.9,1287.1 1516.2,1319.9 1515.5,1352.6 1514.9,1385.4 1514.4,1418.1 1514.0,1450.9 1513.6,1483.7 1513.3,1516.5 1513.2,1549.3 1513.1,1582.1 1513.1,1614.9 1513.1,1647.6 1513.3,1680.4 1513.6,1713.1 1513.9,1745.8 1514.3,1778.6 1514.8,1811.2 1515.3,1843.9 1516.0,1876.5 1516.7,1909.1 1517.4,1941.6 1518.3,1974.2 1519.2,2006.6 1520.2,2039.1 1521.2,2071.5 1522.4,2103.8 1523.5,2136.1  " style="stroke-opacity: 1.000000; stroke-width: 5.0; stroke: rgb(251,106,74); fill: none"  />
<path d="M 1646.5,880.6 L 1639.8,910.1 1633.3,939.9 1627.2,970.0 1621.5,1000.4 1616.2,1031.0 1611.3,1061.9 1606.9,1093.0 1602.9,1124.3 1599.4,1155.8 1596.5,1187.5 1594.0,1219.2 1592.1,1251.1 1590.7,1283.1 1589.9,1315.2 1589.7,1347.4 1590.0,1379.5 1590.9,1411.7 1592.4,1443.9 1594.4,1476.1 1597.1,1508.2 1600.3,1540.3 1604.1,1572.3 1608.4,1604.2 1613.4,1636.0 1618.8,1667.7 1624.9,1699.2 1631.4,1730.5 1638.5,1761.7 1646.1,1792.6 1654.2,1823.4 1662.7,1853.9 1671.8,1884.1 1681.2,1914.1 1691.0,1943.8 1701.3,1973.1 1711.9,2002.2 1722.8,2030.9 1734.0,2059.3 1745.5,2087.2  " style="stroke-opacity: 1.000000; stroke-width: 5.0; stroke: rgb(251,106,74); fill: none"  />
<path d="M 1846.4,2034.0 L 1832.6,2013.1 1818.5,1992.6 1804.1,1972.5 1789.5,1953.0 1774.7,1934.3 1759.8,1916.5 1744.8,1899.7 1729.8,1883.9 1714.8,1869.4 1699.8,1856.1 1685.0,1844.3 1670.3,1833.8 1655.7,1824.9 1641.4,1817.6 1627.3,1811.8 1613.4,1807.8 1599.9,1805.4 1586.7,1804.7 1573.8,1805.7 1561.3,1808.5 1549.2,1812.9 1537.4,1819.1 1526.2,1827.0 1515.3,1836.5 1504.9,1847.6 1495.0,1860.3 1485.5,1874.5 1476.5,1890.1 1468.0,1907.1 1460.0,1925.4 1452.5,1944.9 1445.5,1965.5 1438.9,1987.1 1432.9,2009.5 1427.3,2032.7 1422.2,2056.5 1417.5,2080.7 1413.3,2105.3 1409.6,2130.0  " style="stroke-opacity: 1.000000; stroke-width: 5.0; stroke: rgb(251,106,74); fill: none"  />
<path d="M 1846.4,2034.0 L 1830.9,2009.6 1815.7,1984.6 1800.9,1959.2 1786.6,1933.3 1772.7,1906.9 1759.4,1880.1 1746.6,1852.9 1734.5,1825.2 1723.0,1797.3 1712.2,1768.9 1702.2,1740.3 1692.9,1711.4 1684.5,1682.2 1676.8,1652.8 1669.9,1623.1 1663.9,1593.3 1658.8,1563.3 1654.5,1533.1 1651.2,1502.9 1648.7,1472.5 1647.1,1442.1 1646.4,1411.7 1646.5,1381.3 1647.6,1350.8 1649.5,1320.5 1652.3,1290.2 1655.9,1260.0 1660.3,1229.9 1665.6,1200.1 1671.6,1170.4 1678.3,1140.9 1685.8,1111.7 1694.0,1082.7 1702.7,1054.1 1712.1,1025.8 1722.1,997.9 1732.5,970.4 1743.5,943.3 1754.8,916.7  " style="stroke-opacity: 1.000000; stroke-width: 5.0; stroke: rgb(251,106,74); fill: none"  />
<path d="M 1846.4,2034.0 L 1832.0,2012.2 1816.9,1990.8 1801.3,1969.8 1785.1,1949.3 1768.5,1929.5 1751.3,1910.4 1733.7,1892.2 1715.7,1875.0 1697.3,1858.8 1678.4,1843.7 1659.3,1829.8 1639.7,1817.2 1619.9,1805.8 1599.9,1795.9 1579.6,1787.3 1559.0,1780.2 1538.3,1774.6 1517.4,1770.4 1496.4,1767.8 1475.3,1766.7 1454.2,1767.1 1433.0,1769.0 1411.8,1772.4 1390.6,1777.3 1369.5,1783.7 1348.5,1791.5 1327.6,1800.7 1306.9,1811.2 1286.3,1823.0 1266.0,1836.0 1246.0,1850.1 1226.2,1865.4 1206.8,1881.6 1187.7,1898.8 1169.1,1916.7 1150.9,1935.4 1133.1,1954.6 1115.9,1974.4 1099.2,1994.5  " style="stroke-opacity: 1.000000; stroke-width: 5.0; stroke: rgb(251,106,74); fill: none"  />
<path d="M 1846.4,2034.0 L 1831.7,2011.8 1816.3,1990.0 1800.3,1968.5 1783.7,1947.5 1766.5,1927.1 1748.8,1907.3 1730.5,1888.4 1711.7,1870.3 1692.3,1853.2 1672.5,1837.1 1652.3,1822.0 1631.5,1808.1 1610.4,1795.4 1588.9,1784.0 1567.0,1773.8 1544.8,1764.9 1522.3,1757.4 1499.5,1751.3 1476.5,1746.6 1453.2,1743.2 1429.8,1741.3 1406.2,1740.8 1382.5,1741.6 1358.7,1743.9 1334.8,1747.5 1310.9,1752.4 1287.1,1758.7 1263.3,1766.2 1239.6,1774.9 1216.1,1784.8 1192.7,1795.8 1169.6,1807.9 1146.7,1820.9 1124.1,1834.8 1101.9,1849.6 1080.0,1865.1 1058.7,1881.2 1037.7,1897.9 1017.4,1915.0  " style="stroke-opacity: 1.000000; stroke-width: 5.0; stroke: rgb(251,106,74); fill: none"  />
<path d="M 1846.4,2034.0 L 1831.1,2010.9 1815.1,1988.0 1798.4,1965.4 1781.1,1943.2 1763.1,1921.3 1744.4,1900.0 1725.2,1879.3 1705.2,1859.2 1684.7,1839.8 1663.6,1821.2 1641.9,1803.4 1619.6,1786.5 1596.7,1770.5 1573.3,1755.4 1549.5,1741.4 1525.1,1728.3 1500.2,1716.3 1474.9,1705.4 1449.2,1695.6 1423.1,1686.9 1396.7,1679.3 1369.9,1672.9 1342.8,1667.5 1315.5,1663.3 1288.0,1660.2 1260.2,1658.2 1232.3,1657.3 1204.4,1657.4 1176.3,1658.6 1148.2,1660.8 1120.2,1664.0 1092.2,1668.1 1064.3,1673.1 1036.6,1678.9 1009.1,1685.6 981.9,1692.9 955.0,1701.0 928.4,1709.7 902.3,1718.9  " style="stroke-opacity: 1.000000; stroke-width: 5.0; stroke: rgb(251,106,74); fill: none"  />
<path d="M 1745.5,2087.2 L 1734.0,2059.3 1722.8,2030.9 1711.9,2002.2 1701.3,1973.1 1691.0,1943.8 1681.2,1914.1 1671.8,1884.1 1662.7,1853.9 1654.2,1823.4 1646.1,1792.6 1638.5,1761.7 1631.4,1730.5 1624.9,1699.2 1618.8,1667.7 1613.4,1636.0 1608.4,1604.2 1604.1,1572.3 1600.3,1540.3 1597.1,1508.2 1594.4,1476.1 1592.4,1443.9 1590.9,1411.7 1590.0,1379.5 1589.7,1347.4 1589.9,1315.2 1590.7,1283.1 1592.1,1251.1 1594.0,1219.2 1596.5,1187.5 1599.4,1155.8 1602.9,1124.3 1606.9,1093.0 1611.3,1061.9 1616.2,1031.0 1621.5,1000.4 1627.2,970.0 1633.3,939.9 1639.8,910.1 1646.5,880.6  " style="stroke-opacity: 1.000000; stroke-width: 5.0; stroke: rgb(251,106,74); fill: none"  />
<path d="M 1745.5,2087.2 L 1734.6,2060.5 1724.1,2033.2 1714.1,2005.5 1704.6,1977.5 1695.7,1949.0 1687.3,1920.3 1679.6,1891.2 1672.6,1861.9 1666.3,1832.3 1660.8,1802.5 1656.1,1772.6 1652.1,1742.4 1649.0,1712.2 1646.7,1681.9 1645.2,1651.5 1644.6,1621.1 1645.0,1590.6 1646.1,1560.2 1648.2,1529.8 1651.2,1499.5 1655.1,1469.3 1659.8,1439.2 1665.4,1409.3 1671.9,1379.6 1679.2,1350.1 1687.3,1320.7 1696.3,1291.7 1706.0,1262.9 1716.5,1234.4 1727.7,1206.3 1739.6,1178.5 1752.2,1151.1 1765.3,1124.1 1779.1,1097.5 1793.4,1071.3 1808.2,1045.6 1823.4,1020.4 1838.9,995.7 1854.8,971.6  " style="stroke-opacity: 1.000000; stroke-width: 5.0; stroke: rgb(251,106,74); fill: none"  />
<path d="M 1745.5,2087.2 L 1735.2,2063.3 1724.2,2039.5 1712.6,2016.0 1700.3,1993.0 1687.5,1970.5 1674.0,1948.7 1660.0,1927.6 1645.3,1907.5 1630.0,1888.2 1614.2,1870.0 1597.8,1852.9 1580.9,1837.0 1563.4,1822.3 1545.4,1809.0 1527.0,1796.9 1508.0,1786.2 1488.7,1777.0 1468.9,1769.2 1448.7,1762.8 1428.1,1758.0 1407.2,1754.6 1386.0,1752.7 1364.6,1752.3 1342.8,1753.3 1320.9,1755.8 1298.9,1759.8 1276.7,1765.0 1254.4,1771.7 1232.1,1779.6 1209.8,1788.8 1187.5,1799.2 1165.4,1810.6 1143.4,1823.1 1121.6,1836.6 1100.0,1850.9 1078.7,1866.0 1057.8,1881.8 1037.4,1898.2 1017.4,1915.0  " style="stroke-opacity: 1.000000; stroke-width: 5.0; stroke: rgb(251,106,74); fill: none"  />
<path d="M 1745.5,2087.2 L 1735.4,2062.1 1725.7,2036.5 1716.8,2010.6 1708.5,1984.4 1701.1,1957.9 1694.4,1931.3 1688.7,1904.6 1684.0,1877.8 1680.3,1851.0 1677.6,1824.2 1676.0,1797.5 1675.5,1771.0 1676.2,1744.6 1678.1,1718.5 1681.2,1692.7 1685.5,1667.2 1691.0,1642.0 1697.8,1617.2 1705.7,1592.8 1714.9,1568.9 1725.3,1545.4 1736.9,1522.5 1749.7,1500.1 1763.6,1478.3 1778.6,1457.0 1794.7,1436.4 1811.8,1416.3 1830.0,1396.9 1849.0,1378.2 1868.9,1360.1 1889.6,1342.7 1911.1,1326.0 1933.3,1310.0 1956.0,1294.6 1979.3,1280.0 2003.0,1266.0 2027.0,1252.8 2051.2,1240.2 2075.6,1228.4  " style="stroke-opacity: 1.000000; stroke-width: 5.0; stroke: rgb(251,106,74); fill: none"  />
<path d="M 1409.6,2130.0 L 1413.3,2105.3 1417.5,2080.7 1422.2,2056.5 1427.3,2032.7 1432.9,2009.5 1438.9,1987.1 1445.5,1965.5 1452.5,1944.9 1460.0,1925.4 1468.0,1907.1 1476.5,1890.1 1485.5,1874.5 1495.0,1860.3 1504.9,1847.6 1515.3,1836.5 1526.2,1827.0 1537.4,1819.1 1549.2,1812.9 1561.3,1808.5 1573.8,1805.7 1586.7,1804.7 1599.9,1805.4 1613.4,1807.8 1627.3,1811.8 1641.4,1817.6 1655.7,1824.9 1670.3,1833.8 1685.0,1844.3 1699.8,1856.1 1714.8,1869.4 1729.8,1883.9 1744.8,1899.7 1759.8,1916.5 1774.7,1934.3 1789.5,1953.0 1804.1,1972.5 1818.5,1992.6 1832.6,2013.1 1846.4,2034.0  " style="stroke-opacity: 1.000000; stroke-width: 5.0; stroke: rgb(251,106,74); fill: none"  />
<path d="M 1194.0,2058.1 L 1206.0,2036.5 1218.3,2015.1 1230.8,1994.2 1243.4,1973.9 1256.2,1954.3 1268.9,1935.6 1281.7,1917.9 1294.4,1901.3 1307.0,1885.9 1319.5,1871.8 1331.8,1859.0 1343.9,1847.8 1355.8,1838.1 1367.4,1830.0 1378.7,1823.6 1389.7,1818.8 1400.3,1815.8 1410.6,1814.5 1420.5,1815.0 1430.0,1817.2 1439.0,1821.2 1447.6,1826.9 1455.8,1834.4 1463.4,1843.6 1470.7,1854.4 1477.4,1866.9 1483.7,1880.9 1489.5,1896.3 1494.8,1913.2 1499.6,1931.4 1504.0,1950.9 1507.9,1971.4 1511.4,1993.0 1514.4,2015.4 1517.0,2038.6 1519.2,2062.4 1521.0,2086.7 1522.4,2111.3 1523.5,2136.1  " style="stroke-opacity: 1.000000; stroke-width: 5.0; stroke: rgb(251,106,74); fill: none"  />
<path d="M 1636.7,2121.6 L 1631.0,2097.0 1624.8,2072.5 1618.1,2048.2 1610.8,2024.5 1603.0,2001.3 1594.7,1978.8 1585.8,1957.2 1576.4,1936.5 1566.4,1916.9 1555.9,1898.4 1544.8,1881.1 1533.2,1865.2 1521.1,1850.6 1508.5,1837.5 1495.4,1825.8 1481.8,1815.7 1467.7,1807.2 1453.2,1800.3 1438.3,1795.0 1423.0,1791.4 1407.2,1789.4 1391.2,1789.1 1374.8,1790.4 1358.1,1793.4 1341.2,1797.9 1324.0,1804.0 1306.7,1811.6 1289.1,1820.7 1271.5,1831.1 1253.8,1842.9 1236.1,1856.0 1218.4,1870.3 1200.8,1885.6 1183.2,1902.0 1165.9,1919.2 1148.8,1937.2 1131.9,1955.8 1115.4,1975.0 1099.2,1994.5  " style="stroke-opacity: 1.000000; stroke-width: 5.0; stroke: rgb(251,106,74); fill: none"  />
<path d="M 1636.7,2121.6 L 1630.9,2096.6 1624.5,2071.7 1617.5,2047.1 1609.9,2022.8 1601.7,1999.0 1592.8,1975.9 1583.2,1953.6 1573.0,1932.0 1562.1,1911.5 1550.6,1891.9 1538.4,1873.5 1525.6,1856.3 1512.1,1840.3 1498.0,1825.7 1483.2,1812.4 1467.9,1800.6 1451.9,1790.2 1435.4,1781.3 1418.4,1773.9 1400.8,1768.0 1382.7,1763.7 1364.2,1760.9 1345.2,1759.6 1325.8,1759.9 1306.0,1761.7 1285.9,1764.9 1265.6,1769.6 1245.0,1775.6 1224.2,1783.0 1203.2,1791.7 1182.2,1801.6 1161.1,1812.7 1140.0,1824.9 1119.0,1838.0 1098.2,1852.0 1077.5,1866.8 1057.1,1882.4 1037.0,1898.4 1017.4,1915.0  " style="stroke-opacity: 1.000000; stroke-width: 5.0; stroke: rgb(251,106,74); fill: none"  />
<path d="M 1754.8,916.7 L 1743.5,943.3 1732.5,970.4 1722.1,997.9 1712.1,1025.8 1702.7,1054.1 1694.0,1082.7 1685.8,1111.7 1678.3,1140.9 1671.6,1170.4 1665.6,1200.1 1660.3,1229.9 1655.9,1260.0 1652.3,1290.2 1649.5,1320.5 1647.6,1350.8 1646.5,1381.3 1646.4,1411.7 1647.1,1442.1 1648.7,1472.5 1651.2,1502.9 1654.5,1533.1 1658.8,1563.3 1663.9,1593.3 1669.9,1623.1 1676.8,1652.8 1684.5,1682.2 1692.9,1711.4 1702.2,1740.3 1712.2,1768.9 1723.0,1797.3 1734.5,1825.2 1746.6,1852.9 1759.4,1880.1 1772.7,1906.9 1786.6,1933.3 1800.9,1959.2 1815.7,1984.6 1830.9,2009.6 1846.4,2034.0  " style="stroke-opacity: 1.000000; stroke-width: 5.0; stroke: rgb(251,106,74); fill: none"  />
<path d="M 1754.8,916.7 L 1742.5,945.1 1730.5,973.8 1718.6,1002.8 1707.0,1032.1 1695.6,1061.6 1684.4,1091.4 1673.6,1121.4 1663.1,1151.7 1652.8,1182.2 1642.9,1212.9 1633.3,1243.8 1624.1,1274.9 1615.3,1306.1 1606.8,1337.6 1598.7,1369.1 1591.0,1400.8 1583.7,1432.7 1576.8,1464.6 1570.3,1496.7 1564.2,1528.8 1558.5,1561.0 1553.2,1593.3 1548.4,1625.6 1543.9,1657.9 1539.9,1690.3 1536.3,1722.6 1533.1,1755.0 1530.3,1787.3 1527.9,1819.5 1525.8,1851.7 1524.2,1883.8 1522.9,1915.9 1522.0,1947.8 1521.5,1979.6 1521.3,2011.2 1521.4,2042.7 1521.8,2074.0 1522.5,2105.2 1523.5,2136.1  " style="stroke-opacity: 1.000000; stroke-width: 5.0; stroke: rgb(251,106,74); fill: none"  />
<path d="M 1854.8,971.6 L 1838.9,995.7 1823.4,1020.4 1808.2,1045.6 1793.4,1071.3 1779.1,1097.5 1765.3,1124.1 1752.2,1151.1 1739.6,1178.5 1727.7,1206.3 1716.5,1234.4 1706.0,1262.9 1696.3,1291.7 1687.3,1320.7 1679.2,1350.1 1671.9,1379.6 1665.4,1409.3 1659.8,1439.2 1655.1,1469.3 1651.2,1499.5 1648.2,1529.8 1646.1,1560.2 1645.0,1590.6 1644.6,1621.1 1645.2,1651.5 1646.7,1681.9 1649.0,1712.2 1652.1,1742.4 1656.1,1772.6 1660.8,1802.5 1666.3,1832.3 1672.6,1861.9 1679.6,1891.2 1687.3,1920.3 1695.7,1949.0 1704.6,1977.5 1714.1,2005.5 1724.1,2033.2 1734.6,2060.5 1745.5,2087.2  " style="stroke-opacity: 1.000000; stroke-width: 5.0; stroke: rgb(251,106,74); fill: none"  />
<path d="M 1099.2,1994.5 L 1116.5,1973.6 1134.5,1953.0 1153.1,1932.9 1172.3,1913.2 1192.0,1894.1 1212.3,1875.6 1233.2,1857.9 1254.5,1841.0 1276.4,1825.0 1298.7,1810.0 1321.4,1796.0 1344.5,1783.0 1368.1,1771.1 1392.0,1760.4 1416.2,1750.9 1440.7,1742.6 1465.5,1735.5 1490.5,1729.7 1515.8,1725.2 1541.2,1721.9 1566.8,1720.0 1592.5,1719.3 1618.2,1719.9 1644.0,1721.8 1669.9,1725.0 1695.7,1729.4 1721.4,1735.0 1747.1,1741.7 1772.6,1749.6 1798.0,1758.6 1823.1,1768.6 1848.0,1779.6 1872.7,1791.5 1896.9,1804.3 1920.9,1817.8 1944.4,1832.1 1967.4,1846.9 1990.0,1862.3 2012.0,1878.2  " style="stroke-opacity: 1.000000; stroke-width: 5.0; stroke: rgb(251,106,74); fill: none"  />
<path d="M 1099.2,1994.5 L 1115.9,1974.4 1133.1,1954.6 1150.9,1935.4 1169.1,1916.7 1187.7,1898.8 1206.8,1881.6 1226.2,1865.4 1246.0,1850.1 1266.0,1836.0 1286.3,1823.0 1306.9,1811.2 1327.6,1800.7 1348.5,1791.5 1369.5,1783.7 1390.6,1777.3 1411.8,1772.4 1433.0,1769.0 1454.2,1767.1 1475.3,1766.7 1496.4,1767.8 1517.4,1770.4 1538.3,1774.6 1559.0,1780.2 1579.6,1787.3 1599.9,1795.9 1619.9,1805.8 1639.7,1817.2 1659.3,1829.8 1678.4,1843.7 1697.3,1858.8 1715.7,1875.0 1733.7,1892.2 1751.3,1910.4 1768.5,1929.5 1785.1,1949.3 1801.3,1969.8 1816.9,1990.8 1832.0,2012.2 1846.4,2034.0  " style="stroke-opacity: 1.000000; stroke-width: 5.0; stroke: rgb(251,106,74); fill: none"  />
<path d="M 1099.2,1994.5 L 1115.4,1975.0 1131.9,1955.8 1148.8,1937.2 1165.9,1919.2 1183.2,1902.0 1200.8,1885.6 1218.4,1870.3 1236.1,1856.0 1253.8,1842.9 1271.5,1831.1 1289.1,1820.7 1306.7,1811.6 1324.0,1804.0 1341.2,1797.9 1358.1,1793.4 1374.8,1790.4 1391.2,1789.1 1407.2,1789.4 1423.0,1791.4 1438.3,1795.0 1453.2,1800.3 1467.7,1807.2 1481.8,1815.7 1495.4,1825.8 1508.5,1837.5 1521.1,1850.6 1533.2,1865.2 1544.8,1881.1 1555.9,1898.4 1566.4,1916.9 1576.4,1936.5 1585.8,1957.2 1594.7,1978.8 1603.0,2001.3 1610.8,2024.5 1618.1,2048.2 1624.8,2072.5 1631.0,2097.0 1636.7,2121.6  " style="stroke-opacity: 1.000000; stroke-width: 5.0; stroke: rgb(251,106,74); fill: none"  />
<path d="M 1099.2,1994.5 L 1115.1,1975.2 1131.3,1956.2 1147.8,1937.8 1164.4,1920.0 1181.0,1902.9 1197.8,1886.8 1214.4,1871.6 1231.0,1857.6 1247.5,1844.7 1263.7,1833.1 1279.8,1822.8 1295.5,1814.0 1310.9,1806.7 1325.9,1800.9 1340.6,1796.7 1354.8,1794.1 1368.5,1793.1 1381.7,1793.8 1394.4,1796.2 1406.5,1800.3 1418.1,1806.0 1429.1,1813.4 1439.5,1822.4 1449.3,1833.0 1458.5,1845.1 1467.0,1858.8 1474.9,1873.9 1482.2,1890.4 1488.9,1908.2 1494.9,1927.3 1500.4,1947.4 1505.2,1968.6 1509.4,1990.8 1513.1,2013.7 1516.2,2037.4 1518.7,2061.6 1520.8,2086.2 1522.4,2111.1 1523.5,2136.1  " style="stroke-opacity: 1.000000; stroke-width: 5.0; stroke: rgb(251,106,74); fill: none"  />
<path d="M 1017.4,1915.0 L 1037.7,1897.9 1058.7,1881.2 1080.0,1865.1 1101.9,1849.6 1124.1,1834.8 1146.7,1820.9 1169.6,1807.9 1192.7,1795.8 1216.1,1784.8 1239.6,1774.9 1263.3,1766.2 1287.1,1758.7 1310.9,1752.4 1334.8,1747.5 1358.7,1743.9 1382.5,1741.6 1406.2,1740.8 1429.8,1741.3 1453.2,1743.2 1476.5,1746.6 1499.5,1751.3 1522.3,1757.4 1544.8,1764.9 1567.0,1773.8 1588.9,1784.0 1610.4,1795.4 1631.5,1808.1 1652.3,1822.0 1672.5,1837.1 1692.3,1853.2 1711.7,1870.3 1730.5,1888.4 1748.8,1907.3 1766.5,1927.1 1783.7,1947.5 1800.3,1968.5 1816.3,1990.0 1831.7,2011.8 1846.4,2034.0  " style="stroke-opacity: 1.000000; stroke-width: 5.0; stroke: rgb(251,106,74); fill: none"  />
<path d="M 1017.4,1915.0 L 1037.4,1898.2 1057.8,1881.8 1078.7,1866.0 1100.0,1850.9 1121.6,1836.6 1143.4,1823.1 1165.4,1810.6 1187.5,1799.2 1209.8,1788.8 1232.1,1779.6 1254.4,1771.7 1276.7,1765.0 1298.9,1759.8 1320.9,1755.8 1342.8,1753.3 1364.6,1752.3 1386.0,1752.7 1407.2,1754.6 1428.1,1758.0 1448.7,1762.8 1468.9,1769.2 1488.7,1777.0 1508.0,1786.2 1527.0,1796.9 1545.4,1809.0 1563.4,1822.3 1580.9,1837.0 1597.8,1852.9 1614.2,1870.0 1630.0,1888.2 1645.3,1907.5 1660.0,1927.6 1674.0,1948.7 1687.5,1970.5 1700.3,1993.0 1712.6,2016.0 1724.2,2039.5 1735.2,2063.3 1745.5,2087.2  " style="stroke-opacity: 1.000000; stroke-width: 5.0; stroke: rgb(251,106,74); fill: none"  />
<path d="M 1017.4,1915.0 L 1037.0,1898.4 1057.1,1882.4 1077.5,1866.8 1098.2,1852.0 1119.0,1838.0 1140.0,1824.9 1161.1,1812.7 1182.2,1801.6 1203.2,1791.7 1224.2,1783.0 1245.0,1775.6 1265.6,1769.6 1285.9,1764.9 1306.0,1761.7 1325.8,1759.9 1345.2,1759.6 1364.2,1760.9 1382.7,1763.7 1400.8,1768.0 1418.4,1773.9 1435.4,1781.3 1451.9,1790.2 1467.9,1800.6 1483.2,1812.4 1498.0,1825.7 1512.1,1840.3 1525.6,1856.3 1538.4,1873.5 1550.6,1891.9 1562.1,1911.5 1573.0,1932.0 1583.2,1953.6 1592.8,1975.9 1601.7,1999.0 1609.9,2022.8 1617.5,2047.1 1624.5,2071.7 1630.9,2096.6 1636.7,2121.6  " style="stroke-opacity: 1.000000; stroke-width: 5.0; stroke: rgb(251,106,74); fill: none"  />
<path d="M 1017.4,1915.0 L 1036.7,1898.7 1056.4,1882.8 1076.3,1867.5 1096.4,1852.8 1116.6,1839.0 1136.7,1826.0 1156.8,1814.1 1176.8,1803.2 1196.6,1793.5 1216.1,1785.0 1235.3,1777.9 1254.1,1772.1 1272.6,1767.7 1290.5,1764.7 1308.0,1763.3 1325.0,1763.4 1341.3,1765.0 1357.1,1768.2 1372.2,1773.0 1386.6,1779.3 1400.4,1787.1 1413.4,1796.5 1425.7,1807.4 1437.3,1819.8 1448.1,1833.6 1458.2,1848.7 1467.5,1865.2 1476.0,1883.0 1483.8,1902.0 1490.9,1922.1 1497.2,1943.2 1502.8,1965.2 1507.7,1988.1 1511.9,2011.6 1515.4,2035.8 1518.3,2060.5 1520.6,2085.5 1522.3,2110.8 1523.5,2136.1  " style="stroke-opacity: 1.000000; stroke-width: 5.0; stroke: rgb(251,106,74); fill: none"  />
<path d="M 1017.4,1915.0 L 1041.4,1894.4 1065.6,1873.9 1090.1,1853.5 1114.8,1833.1 1139.7,1812.8 1164.8,1792.6 1190.1,1772.5 1215.6,1752.5 1241.3,1732.7 1267.2,1713.0 1293.3,1693.4 1319.6,1674.0 1346.1,1654.8 1372.7,1635.7 1399.5,1616.8 1426.5,1598.1 1453.7,1579.6 1481.0,1561.3 1508.4,1543.2 1536.0,1525.3 1563.7,1507.6 1591.6,1490.1 1619.5,1472.9 1647.6,1455.9 1675.8,1439.1 1704.1,1422.5 1732.4,1406.2 1760.9,1390.1 1789.4,1374.2 1817.9,1358.6 1846.5,1343.2 1875.2,1328.1 1903.8,1313.1 1932.5,1298.4 1961.2,1284.0 1989.8,1269.7 2018.5,1255.7 2047.1,1242.0 2075.6,1228.4  " style="stroke-opacity: 1.000000; stroke-width: 5.0; stroke: rgb(251,106,74); fill: none"  />
<path d="M 2017.9,1130.0 L 1992.1,1148.3 1966.1,1166.5 1939.9,1184.7 1913.5,1202.8 1886.9,1220.8 1860.1,1238.6 1833.1,1256.4 1805.9,1274.0 1778.5,1291.4 1750.9,1308.7 1723.2,1325.9 1695.3,1342.8 1667.2,1359.6 1638.9,1376.2 1610.5,1392.7 1582.0,1408.9 1553.3,1424.9 1524.5,1440.7 1495.5,1456.2 1466.4,1471.6 1437.2,1486.7 1407.9,1501.6 1378.5,1516.3 1349.0,1530.7 1319.4,1544.9 1289.8,1558.9 1260.1,1572.6 1230.3,1586.1 1200.5,1599.3 1170.7,1612.3 1140.8,1625.1 1110.9,1637.6 1081.0,1649.9 1051.2,1662.0 1021.3,1673.8 991.5,1685.4 961.7,1696.8 932.0,1708.0 902.3,1718.9  " style="stroke-opacity: 1.000000; stroke-width: 5.0; stroke: rgb(251,106,74); fill: none"  />
<path d="M 902.3,1718.9 L 928.4,1709.7 955.0,1701.0 981.9,1692.9 1009.1,1685.6 1036.6,1678.9 1064.3,1673.1 1092.2,1668.1 1120.2,1664.0 1148.2,1660.8 1176.3,1658.6 1204.4,1657.4 1232.3,1657.3 1260.2,1658.2 1288.0,1660.2 1315.5,1663.3 1342.8,1667.5 1369.9,1672.9 1396.7,1679.3 1423.1,1686.9 1449.2,1695.6 1474.9,1705.4 1500.2,1716.3 1525.1,1728.3 1549.5,1741.4 1573.3,1755.4 1596.7,1770.5 1619.6,1786.5 1641.9,1803.4 1663.6,1821.2 1684.7,1839.8 1705.2,1859.2 1725.2,1879.3 1744.4,1900.0 1763.1,1921.3 1781.1,1943.2 1798.4,1965.4 1815.1,1988.0 1831.1,2010.9 1846.4,2034.0  " style="stroke-opacity: 1.000000; stroke-width: 5.0; stroke: rgb(251,106,74); fill: none"  />
<path d="M 902.3,1718.9 L 932.0,1708.0 961.7,1696.8 991.5,1685.4 1021.3,1673.8 1051.2,1662.0 1081.0,1649.9 1110.9,1637.6 1140.8,1625.1 1170.7,1612.3 1200.5,1599.3 1230.3,1586.1 1260.1,1572.6 1289.8,1558.9 1319.4,1544.9 1349.0,1530.7 1378.5,1516.3 1407.9,1501.6 1437.2,1486.7 1466.4,1471.6 1495.5,1456.2 1524.5,1440.7 1553.3,1424.9 1582.0,1408.9 1610.5,1392.7 1638.9,1376.2 1667.2,1359.6 1695.3,1342.8 1723.2,1325.9 1750.9,1308.7 1778.5,1291.4 1805.9,1274.0 1833.1,1256.4 1860.1,1238.6 1886.9,1220.8 1913.5,1202.8 1939.9,1184.7 1966.1,1166.5 1992.1,1148.3 2017.9,1130.0  " style="stroke-opacity: 1.000000; stroke-width: 5.0; stroke: rgb(251,106,74); fill: none"  />
<path d="M 1523.5,2136.1 L 1522.4,2103.8 1521.2,2071.5 1520.2,2039.1 1519.2,2006.6 1518.3,1974.2 1517.4,1941.6 1516.7,1909.1 1516.0,1876.5 1515.3,1843.9 1514.8,1811.2 1514.3,1778.6 1513.9,1745.8 1513.6,1713.1 1513.3,1680.4 1513.1,1647.6 1513.1,1614.9 1513.1,1582.1 1513.2,1549.3 1513.3,1516.5 1513.6,1483.7 1514.0,1450.9 1514.4,1418.1 1514.9,1385.4 1515.5,1352.6 1516.2,1319.9 1516.9,1287.1 1517.8,1254.4 1518.7,1221.7 1519.7,1189.0 1520.8,1156.4 1521.9,1123.8 1523.1,1091.2 1524.4,1058.7 1525.8,1026.2 1527.2,993.7 1528.7,961.3 1530.3,929.0 1531.9,896.6 1533.6,864.4  " style="stroke-opacity: 1.000000; stroke-width: 5.0; stroke: rgb(251,106,74); fill: none"  />
<path d="M 1523.5,2136.1 L 1522.4,2111.3 1521.0,2086.7 1519.2,2062.4 1517.0,2038.6 1514.4,2015.4 1511.4,1993.0 1507.9,1971.4 1504.0,1950.9 1499.6,1931.4 1494.8,1913.2 1489.5,1896.3 1483.7,1880.9 1477.4,1866.9 1470.7,1854.4 1463.4,1843.6 1455.8,1834.4 1447.6,1826.9 1439.0,1821.2 1430.0,1817.2 1420.5,1815.0 1410.6,1814.5 1400.3,1815.8 1389.7,1818.8 1378.7,1823.6 1367.4,1830.0 1355.8,1838.1 1343.9,1847.8 1331.8,1859.0 1319.5,1871.8 1307.0,1885.9 1294.4,1901.3 1281.7,1917.9 1268.9,1935.6 1256.2,1954.3 1243.4,1973.9 1230.8,1994.2 1218.3,2015.1 1206.0,2036.5 1194.0,2058.1  " style="stroke-opacity: 1.000000; stroke-width: 5.0; stroke: rgb(251,106,74); fill: none"  />
<path d="M 1523.5,2136.1 L 1522.5,2105.2 1521.8,2074.0 1521.4,2042.7 1521.3,2011.2 1521.5,1979.6 1522.0,1947.8 1522.9,1915.9 1524.2,1883.8 1525.8,1851.7 1527.9,1819.5 1530.3,1787.3 1533.1,1755.0 1536.3,1722.6 1539.9,1690.3 1543.9,1657.9 1548.4,1625.6 1553.2,1593.3 1558.5,1561.0 1564.2,1528.8 1570.3,1496.7 1576.8,1464.6 1583.7,1432.7 1591.0,1400.8 1598.7,1369.1 1606.8,1337.6 1615.3,1306.1 1624.1,1274.9 1633.3,1243.8 1642.9,1212.9 1652.8,1182.2 1663.1,1151.7 1673.6,1121.4 1684.4,1091.4 1695.6,1061.6 1707.0,1032.1 1718.6,1002.8 1730.5,973.8 1742.5,945.1 1754.8,916.7  " style="stroke-opacity: 1.000000; stroke-width: 5.0; stroke: rgb(251,106,74); fill: none"  />
<path d="M 1523.5,2136.1 L 1522.4,2111.1 1520.8,2086.2 1518.7,2061.6 1516.2,2037.4 1513.1,2013.7 1509.4,1990.8 1505.2,1968.6 1500.4,1947.4 1494.9,1927.3 1488.9,1908.2 1482.2,1890.4 1474.9,1873.9 1467.0,1858.8 1458.5,1845.1 1449.3,1833.0 1439.5,1822.4 1429.1,1813.4 1418.1,1806.0 1406.5,1800.3 1394.4,1796.2 1381.7,1793.8 1368.5,1793.1 1354.8,1794.1 1340.6,1796.7 1325.9,1800.9 1310.9,1806.7 1295.5,1814.0 1279.8,1822.8 1263.7,1833.1 1247.5,1844.7 1231.0,1857.6 1214.4,1871.6 1197.8,1886.8 1181.0,1902.9 1164.4,1920.0 1147.8,1937.8 1131.3,1956.2 1115.1,1975.2 1099.2,1994.5  " style="stroke-opacity: 1.000000; stroke-width: 5.0; stroke: rgb(251,106,74); fill: none"  />
<path d="M 1523.5,2136.1 L 1522.3,2110.8 1520.6,2085.5 1518.3,2060.5 1515.4,2035.8 1511.9,2011.6 1507.7,1988.1 1502.8,1965.2 1497.2,1943.2 1490.9,1922.1 1483.8,1902.0 1476.0,1883.0 1467.5,1865.2 1458.2,1848.7 1448.1,1833.6 1437.3,1819.8 1425.7,1807.4 1413.4,1796.5 1400.4,1787.1 1386.6,1779.3 1372.2,1773.0 1357.1,1768.2 1341.3,1765.0 1325.0,1763.4 1308.0,1763.3 1290.5,1764.7 1272.6,1767.7 1254.1,1772.1 1235.3,1777.9 1216.1,1785.0 1196.6,1793.5 1176.8,1803.2 1156.8,1814.1 1136.7,1826.0 1116.6,1839.0 1096.4,1852.8 1076.3,1867.5 1056.4,1882.8 1036.7,1898.7 1017.4,1915.0  " style="stroke-opacity: 1.000000; stroke-width: 5.0; stroke: rgb(251,106,74); fill: none"  />
<path d="M 2075.6,1228.4 L 2051.2,1240.2 2027.0,1252.8 2003.0,1266.0 1979.3,1280.0 1956.0,1294.6 1933.3,1310.0 1911.1,1326.0 1889.6,1342.7 1868.9,1360.1 1849.0,1378.2 1830.0,1396.9 1811.8,1416.3 1794.7,1436.4 1778.6,1457.0 1763.6,1478.3 1749.7,1500.1 1736.9,1522.5 1725.3,1545.4 1714.9,1568.9 1705.7,1592.8 1697.8,1617.2 1691.0,1642.0 1685.5,1667.2 1681.2,1692.7 1678.1,1718.5 1676.2,1744.6 1675.5,1771.0 1676.0,1797.5 1677.6,1824.2 1680.3,1851.0 1684.0,1877.8 1688.7,1904.6 1694.4,1931.3 1701.1,1957.9 1708.5,1984.4 1716.8,2010.6 1725.7,2036.5 1735.4,2062.1 1745.5,2087.2  " style="stroke-opacity: 1.000000; stroke-width: 5.0; stroke: rgb(251,106,74); fill: none"  />
<path d="M 2075.6,1228.4 L 2047.1,1242.0 2018.5,1255.7 1989.8,1269.7 1961.2,1284.0 1932.5,1298.4 1903.8,1313.1 1875.2,1328.1 1846.5,1343.2 1817.9,1358.6 1789.4,1374.2 1760.9,1390.1 1732.4,1406.2 1704.1,1422.5 1675.8,1439.1 1647.6,1455.9 1619.5,1472.9 1591.6,1490.1 1563.7,1507.6 1536.0,1525.3 1508.4,1543.2 1481.0,1561.3 1453.7,1579.6 1426.5,1598.1 1399.5,1616.8 1372.7,1635.7 1346.1,1654.8 1319.6,1674.0 1293.3,1693.4 1267.2,1713.0 1241.3,1732.7 1215.6,1752.5 1190.1,1772.5 1164.8,1792.6 1139.7,1812.8 1114.8,1833.1 1090.1,1853.5 1065.6,1873.9 1041.4,1894.4 1017.4,1915.0  " style="stroke-opacity: 1.000000; stroke-width: 5.0; stroke: rgb(251,106,74); fill: none"  />
</g>
<g id="track_0">
<path d="M 2012.0,1878.2 L 1992.2,1863.7 1972.6,1849.4 1953.1,1835.4 1934.0,1821.9 1915.4,1808.8 1897.3,1796.4 1879.9,1784.8 1863.3,1773.8 1847.5,1763.8 1832.7,1754.7 1819.0,1746.6 1806.3,1739.5 1794.8,1733.5 1784.6,1728.6 1775.6,1725.0 1767.9,1722.5 1761.6,1721.2 1756.6,1721.2 1753.0,1722.4 1750.8,1724.9 1750.0,1728.6 1750.7,1733.5 1752.7,1739.6 1756.0,1747.0 1760.8,1755.5 1766.8,1765.1 1774.1,1775.8 1782.6,1787.5 1792.3,1800.2 1803.1,1813.8 1815.0,1828.3 1827.8,1843.5 1841.4,1859.4 1855.9,1875.8 1871.0,1892.8 1886.8,1910.2 1902.9,1927.8 1919.5,1945.7 1936.2,1963.5  " style="stroke-opacity: 1.000000; stroke-width: 5.0; stroke: rgb(107,174,214); fill: none"  />
<path d="M 2012.0,1878.2 L 1992.1,1863.7 1972.3,1849.4 1952.5,1835.6 1933.0,1822.3 1913.8,1809.7 1895.1,1797.7 1877.0,1786.6 1859.5,1776.3 1842.7,1767.1 1826.7,1758.8 1811.7,1751.7 1797.6,1745.8 1784.5,1741.0 1772.5,1737.5 1761.6,1735.3 1751.9,1734.4 1743.4,1734.8 1736.2,1736.6 1730.1,1739.8 1725.4,1744.2 1721.9,1750.1 1719.6,1757.2 1718.7,1765.7 1719.0,1775.4 1720.5,1786.4 1723.3,1798.6 1727.3,1812.0 1732.3,1826.4 1738.5,1841.8 1745.8,1858.3 1754.0,1875.6 1763.2,1893.7 1773.2,1912.5 1784.0,1931.9 1795.5,1951.8 1807.5,1972.0 1820.1,1992.6 1833.1,2013.3 1846.4,2034.0  " style="stroke-opacity: 1.000000; stroke-width: 5.0; stroke: rgb(107,174,214); fill: none"  />
<path d="M 2012.0,1878.2 L 1991.9,1863.6 1971.8,1849.4 1951.7,1835.7 1931.7,1822.5 1912.0,1810.1 1892.5,1798.4 1873.5,1787.7 1855.0,1778.0 1837.1,1769.3 1819.8,1761.7 1803.3,1755.3 1787.6,1750.2 1772.8,1746.4 1758.8,1743.9 1745.8,1742.8 1733.9,1743.1 1722.9,1744.8 1713.1,1748.0 1704.3,1752.5 1696.7,1758.5 1690.1,1766.0 1684.7,1774.8 1680.5,1785.0 1677.3,1796.6 1675.3,1809.4 1674.4,1823.6 1674.6,1838.9 1675.8,1855.4 1678.1,1872.9 1681.3,1891.5 1685.5,1910.9 1690.6,1931.2 1696.5,1952.3 1703.2,1973.9 1710.5,1996.1 1718.5,2018.6 1727.1,2041.4 1736.1,2064.3 1745.5,2087.2  " style="stroke-opacity: 1.000000; stroke-width: 5.0; stroke: rgb(107,174,214); fill: none"  />
<path d="M 2012.0,1878.2 L 1991.7,1863.5 1971.3,1849.2 1950.7,1835.5 1930.2,1822.4 1909.8,1810.1 1889.6,1798.7 1869.6,1788.2 1850.0,1778.7 1830.9,1770.4 1812.2,1763.2 1794.2,1757.3 1776.7,1752.7 1760.0,1749.5 1744.0,1747.6 1728.7,1747.2 1714.3,1748.3 1700.8,1750.8 1688.2,1754.8 1676.5,1760.3 1665.8,1767.3 1656.0,1775.7 1647.2,1785.6 1639.4,1796.9 1632.6,1809.6 1626.7,1823.7 1621.9,1839.1 1618.0,1855.7 1615.1,1873.5 1613.1,1892.4 1612.0,1912.3 1611.8,1933.2 1612.5,1955.0 1614.0,1977.5 1616.2,2000.6 1619.1,2024.3 1622.7,2048.3 1626.8,2072.7 1631.6,2097.2 1636.7,2121.6  " style="stroke-opacity: 1.000000; stroke-width: 5.0; stroke: rgb(107,174,214); fill: none"  />
<path d="M 2012.0,1878.2 L 1991.4,1863.4 1970.6,1849.0 1949.6,1835.2 1928.5,1822.0 1907.4,1809.7 1886.4,1798.3 1865.4,1787.9 1844.7,1778.5 1824.3,1770.3 1804.2,1763.3 1784.5,1757.5 1765.3,1753.1 1746.6,1750.1 1728.4,1748.5 1710.9,1748.4 1694.0,1749.8 1677.8,1752.6 1662.4,1756.9 1647.6,1762.8 1633.7,1770.1 1620.6,1779.0 1608.3,1789.3 1596.8,1801.1 1586.2,1814.3 1576.4,1828.8 1567.5,1844.7 1559.4,1861.8 1552.2,1880.2 1545.8,1899.7 1540.3,1920.2 1535.5,1941.7 1531.6,1964.1 1528.4,1987.3 1525.9,2011.1 1524.2,2035.5 1523.1,2060.3 1522.7,2085.5 1522.8,2110.8 1523.5,2136.1  " style="stroke-opacity: 1.000000; stroke-width: 5.0; stroke: rgb(107,174,214); fill: none"  />
<path d="M 1936.2,1963.5 L 1919.5,1945.7 1902.9,1927.8 1886.8,1910.2 1871.0,1892.8 1855.9,1875.8 1841.4,1859.4 1827.8,1843.5 1815.0,1828.3 1803.1,1813.8 1792.3,1800.2 1782.6,1787.5 1774.1,1775.8 1766.8,1765.1 1760.8,1755.5 1756.0,1747.0 1752.7,1739.6 1750.7,1733.5 1750.0,1728.6 1750.8,1724.9 1753.0,1722.4 1756.6,1721.2 1761.6,1721.2 1767.9,1722.5 1775.6,1725.0 1784.6,1728.6 1794.8,1733.5 1806.3,1739.5 1819.0,1746.6 1832.7,1754.7 1847.5,1763.8 1863.3,1773.8 1879.9,1784.8 1897.3,1796.4 1915.4,1808.8 1934.0,1821.9 1953.1,1835.4 1972.6,1849.4 1992.2,1863.7 2012.0,1878.2  " style="stroke-opacity: 1.000000; stroke-width: 5.0; stroke: rgb(107,174,214); fill: none"  />
<path d="M 1936.2,1963.5 L 1919.3,1945.7 1902.3,1928.2 1885.3,1911.0 1868.5,1894.5 1851.9,1878.6 1835.6,1863.5 1819.7,1849.3 1804.3,1836.1 1789.5,1824.0 1775.3,1813.0 1761.7,1803.3 1748.9,1794.9 1736.9,1787.9 1725.7,1782.4 1715.4,1778.2 1706.0,1775.6 1697.6,1774.5 1690.1,1775.0 1683.6,1777.0 1678.1,1780.6 1673.6,1785.7 1670.2,1792.3 1667.7,1800.5 1666.3,1810.1 1665.9,1821.2 1666.4,1833.7 1667.9,1847.5 1670.3,1862.6 1673.7,1878.9 1677.9,1896.4 1682.9,1914.9 1688.6,1934.3 1695.1,1954.6 1702.3,1975.6 1710.0,1997.2 1718.3,2019.4 1727.0,2041.8 1736.1,2064.5 1745.5,2087.2  " style="stroke-opacity: 1.000000; stroke-width: 5.0; stroke: rgb(107,174,214); fill: none"  />
<path d="M 1646.5,880.6 L 1641.0,904.6 1635.7,928.4 1630.8,952.0 1626.2,975.2 1622.1,997.8 1618.5,1019.7 1615.3,1040.7 1612.8,1060.9 1610.9,1079.9 1609.6,1097.8 1609.0,1114.5 1609.0,1129.8 1609.8,1143.7 1611.3,1156.1 1613.5,1166.9 1616.5,1176.2 1620.3,1183.9 1624.8,1189.9 1630.0,1194.2 1636.0,1196.8 1642.8,1197.7 1650.2,1196.9 1658.4,1194.5 1667.2,1190.4 1676.7,1184.6 1686.8,1177.3 1697.5,1168.4 1708.8,1158.1 1720.6,1146.3 1732.8,1133.2 1745.5,1118.8 1758.5,1103.3 1771.9,1086.7 1785.5,1069.2 1799.3,1050.8 1813.2,1031.7 1827.1,1012.0 1841.0,991.9 1854.8,971.6  " style="stroke-opacity: 1.000000; stroke-width: 5.0; stroke: rgb(107,174,214); fill: none"  />
<path d="M 1646.5,880.6 L 1641.0,905.3 1635.9,930.1 1631.5,954.8 1627.7,979.4 1624.7,1003.6 1622.4,1027.5 1621.1,1050.8 1620.6,1073.6 1621.1,1095.6 1622.5,1116.8 1625.0,1137.2 1628.5,1156.6 1633.1,1175.0 1638.8,1192.3 1645.5,1208.4 1653.4,1223.4 1662.4,1237.2 1672.4,1249.7 1683.6,1261.0 1695.8,1270.9 1709.1,1279.5 1723.5,1286.7 1738.8,1292.7 1755.1,1297.3 1772.3,1300.5 1790.4,1302.5 1809.4,1303.2 1829.1,1302.6 1849.5,1300.8 1870.6,1297.8 1892.2,1293.7 1914.4,1288.6 1936.9,1282.4 1959.8,1275.3 1982.9,1267.3 2006.2,1258.5 2029.4,1249.0 2052.6,1239.0 2075.6,1228.4  " style="stroke-opacity: 1.000000; stroke-width: 5.0; stroke: rgb(107,174,214); fill: none"  />
<path d="M 1846.4,2034.0 L 1833.1,2013.3 1820.1,1992.6 1807.5,1972.0 1795.5,1951.8 1784.0,1931.9 1773.2,1912.5 1763.2,1893.7 1754.0,1875.6 1745.8,1858.3 1738.5,1841.8 1732.3,1826.4 1727.3,1812.0 1723.3,1798.6 1720.5,1786.4 1719.0,1775.4 1718.7,1765.7 1719.6,1757.2 1721.9,1750.1 1725.4,1744.2 1730.1,1739.8 1736.2,1736.6 1743.4,1734.8 1751.9,1734.4 1761.6,1735.3 1772.5,1737.5 1784.5,1741.0 1797.6,1745.8 1811.7,1751.7 1826.7,1758.8 1842.7,1767.1 1859.5,1776.3 1877.0,1786.6 1895.1,1797.7 1913.8,1809.7 1933.0,1822.3 1952.5,1835.6 1972.3,1849.4 1992.1,1863.7 2012.0,1878.2  " style="stroke-opacity: 1.000000; stroke-width: 5.0; stroke: rgb(107,174,214); fill: none"  />
<path d="M 1846.4,2034.0 L 1833.1,2013.5 1819.7,1993.2 1806.4,1973.2 1793.2,1953.8 1780.4,1935.1 1767.8,1917.1 1755.6,1900.1 1743.9,1884.0 1732.7,1869.1 1722.0,1855.4 1712.0,1842.9 1702.6,1831.8 1694.0,1822.2 1686.1,1814.1 1679.0,1807.5 1672.6,1802.4 1667.2,1799.0 1662.5,1797.2 1658.7,1797.1 1655.8,1798.7 1653.8,1801.8 1652.6,1806.7 1652.3,1813.1 1652.9,1821.2 1654.4,1830.8 1656.6,1841.9 1659.7,1854.5 1663.6,1868.5 1668.2,1883.8 1673.5,1900.3 1679.5,1918.0 1686.2,1936.7 1693.4,1956.4 1701.1,1976.9 1709.4,1998.1 1718.0,2019.9 1726.9,2042.1 1736.1,2064.6 1745.5,2087.2  " style="stroke-opacity: 1.000000; stroke-width: 5.0; stroke: rgb(107,174,214); fill: none"  />
<path d="M 1846.4,2034.0 L 1832.9,2013.4 1819.4,1993.1 1805.7,1973.2 1792.1,1953.9 1778.6,1935.3 1765.3,1917.6 1752.2,1900.7 1739.4,1885.0 1727.0,1870.4 1715.0,1857.1 1703.4,1845.2 1692.3,1834.7 1681.7,1825.6 1671.7,1818.1 1662.3,1812.2 1653.5,1808.0 1645.4,1805.4 1637.9,1804.5 1631.2,1805.3 1625.2,1807.9 1619.8,1812.1 1615.3,1818.0 1611.4,1825.6 1608.3,1834.8 1605.8,1845.7 1604.1,1858.0 1603.1,1871.9 1602.8,1887.2 1603.2,1903.9 1604.2,1921.8 1605.8,1940.9 1608.1,1961.0 1610.8,1982.1 1614.1,2004.1 1617.9,2026.8 1622.1,2050.0 1626.6,2073.7 1631.5,2097.6 1636.7,2121.6  " style="stroke-opacity: 1.000000; stroke-width: 5.0; stroke: rgb(107,174,214); fill: none"  />
<path d="M 1846.4,2034.0 L 1832.8,2013.3 1819.0,1992.9 1805.0,1973.0 1790.9,1953.6 1776.7,1935.1 1762.6,1917.3 1748.6,1900.6 1734.7,1885.0 1721.0,1870.5 1707.5,1857.4 1694.3,1845.6 1681.3,1835.3 1668.8,1826.5 1656.6,1819.3 1644.9,1813.7 1633.5,1809.8 1622.7,1807.5 1612.4,1807.0 1602.6,1808.2 1593.3,1811.2 1584.6,1815.8 1576.4,1822.2 1568.8,1830.2 1561.8,1840.0 1555.4,1851.3 1549.6,1864.2 1544.4,1878.6 1539.8,1894.5 1535.7,1911.7 1532.2,1930.2 1529.3,1949.9 1526.9,1970.7 1525.0,1992.5 1523.7,2015.1 1522.8,2038.4 1522.4,2062.3 1522.4,2086.7 1522.8,2111.3 1523.5,2136.1  " style="stroke-opacity: 1.000000; stroke-width: 5.0; stroke: rgb(107,174,214); fill: none"  />
<path d="M 1745.5,2087.2 L 1736.1,2064.3 1727.1,2041.4 1718.5,2018.6 1710.5,1996.1 1703.2,1973.9 1696.5,1952.3 1690.6,1931.2 1685.5,1910.9 1681.3,1891.5 1678.1,1872.9 1675.8,1855.4 1674.6,1838.9 1674.4,1823.6 1675.3,1809.4 1677.3,1796.6 1680.5,1785.0 1684.7,1774.8 1690.1,1766.0 1696.7,1758.5 1704.3,1752.5 1713.1,1748.0 1722.9,1744.8 1733.9,1743.1 1745.8,1742.8 1758.8,1743.9 1772.8,1746.4 1787.6,1750.2 1803.3,1755.3 1819.8,1761.7 1837.1,1769.3 1855.0,1778.0 1873.5,1787.7 1892.5,1798.4 1912.0,1810.1 1931.7,1822.5 1951.7,1835.7 1971.8,1849.4 1991.9,1863.6 2012.0,1878.2  " style="stroke-opacity: 1.000000; stroke-width: 5.0; stroke: rgb(107,174,214); fill: none"  />
<path d="M 1745.5,2087.2 L 1736.1,2064.5 1727.0,2041.8 1718.3,2019.4 1710.0,1997.2 1702.3,1975.6 1695.1,1954.6 1688.6,1934.3 1682.9,1914.9 1677.9,1896.4 1673.7,1878.9 1670.3,1862.6 1667.9,1847.5 1666.4,1833.7 1665.9,1821.2 1666.3,1810.1 1667.7,1800.5 1670.2,1792.3 1673.6,1785.7 1678.1,1780.6 1683.6,1777.0 1690.1,1775.0 1697.6,1774.5 1706.0,1775.6 1715.4,1778.2 1725.7,1782.4 1736.9,1787.9 1748.9,1794.9 1761.7,1803.3 1775.3,1813.0 1789.5,1824.0 1804.3,1836.1 1819.7,1849.3 1835.6,1863.5 1851.9,1878.6 1868.5,1894.5 1885.3,1911.0 1902.3,1928.2 1919.3,1945.7 1936.2,1963.5  " style="stroke-opacity: 1.000000; stroke-width: 5.0; stroke: rgb(107,174,214); fill: none"  />
<path d="M 1745.5,2087.2 L 1736.1,2064.6 1726.9,2042.1 1718.0,2019.9 1709.4,1998.1 1701.1,1976.9 1693.4,1956.4 1686.2,1936.7 1679.5,1918.0 1673.5,1900.3 1668.2,1883.8 1663.6,1868.5 1659.7,1854.5 1656.6,1841.9 1654.4,1830.8 1652.9,1821.2 1652.3,1813.1 1652.6,1806.7 1653.8,1801.8 1655.8,1798.7 1658.7,1797.1 1662.5,1797.2 1667.2,1799.0 1672.6,1802.4 1679.0,1807.5 1686.1,1814.1 1694.0,1822.2 1702.6,1831.8 1712.0,1842.9 1722.0,1855.4 1732.7,1869.1 1743.9,1884.0 1755.6,1900.1 1767.8,1917.1 1780.4,1935.1 1793.2,1953.8 1806.4,1973.2 1819.7,1993.2 1833.1,2013.5 1846.4,2034.0  " style="stroke-opacity: 1.000000; stroke-width: 5.0; stroke: rgb(107,174,214); fill: none"  />
<path d="M 1745.5,2087.2 L 1736.0,2064.7 1726.5,2042.3 1717.0,2020.4 1707.5,1998.9 1698.2,1978.2 1689.0,1958.3 1680.1,1939.3 1671.4,1921.4 1663.0,1904.7 1655.0,1889.3 1647.4,1875.3 1640.1,1862.7 1633.3,1851.7 1627.0,1842.2 1621.2,1834.5 1615.9,1828.4 1611.1,1824.1 1606.8,1821.5 1603.1,1820.7 1600.0,1821.7 1597.4,1824.5 1595.4,1829.0 1594.0,1835.3 1593.1,1843.3 1592.8,1853.1 1593.1,1864.4 1593.9,1877.3 1595.2,1891.8 1597.0,1907.6 1599.3,1924.9 1602.0,1943.3 1605.2,1963.0 1608.8,1983.6 1612.8,2005.2 1617.0,2027.5 1621.6,2050.5 1626.5,2073.9 1631.5,2097.7 1636.7,2121.6  " style="stroke-opacity: 1.000000; stroke-width: 5.0; stroke: rgb(107,174,214); fill: none"  />
<path d="M 1745.5,2087.2 L 1735.9,2064.6 1726.2,2042.2 1716.3,2020.2 1706.4,1998.8 1696.4,1978.1 1686.5,1958.2 1676.6,1939.3 1666.8,1921.6 1657.2,1905.0 1647.7,1889.8 1638.5,1876.0 1629.4,1863.6 1620.6,1852.8 1612.1,1843.7 1603.9,1836.2 1596.0,1830.4 1588.5,1826.5 1581.4,1824.3 1574.6,1823.9 1568.2,1825.3 1562.2,1828.5 1556.6,1833.5 1551.5,1840.3 1546.7,1848.8 1542.4,1859.0 1538.5,1870.9 1535.1,1884.4 1532.1,1899.4 1529.4,1915.8 1527.2,1933.6 1525.4,1952.7 1524.0,1972.9 1523.0,1994.2 1522.3,2016.4 1521.9,2039.3 1521.9,2063.0 1522.2,2087.1 1522.7,2111.5 1523.5,2136.1  " style="stroke-opacity: 1.000000; stroke-width: 5.0; stroke: rgb(107,174,214); fill: none"  />
<path d="M 1409.6,2130.0 L 1412.9,2105.7 1416.1,2081.5 1418.9,2057.5 1421.3,2034.0 1423.4,2011.1 1425.1,1989.0 1426.3,1967.7 1427.0,1947.5 1427.2,1928.3 1426.9,1910.4 1426.0,1893.7 1424.6,1878.5 1422.6,1864.8 1420.0,1852.5 1416.8,1841.9 1413.0,1832.9 1408.5,1825.6 1403.5,1820.1 1397.9,1816.3 1391.7,1814.2 1384.9,1813.9 1377.6,1815.3 1369.7,1818.5 1361.2,1823.4 1352.3,1829.9 1342.9,1838.1 1333.0,1847.9 1322.7,1859.3 1312.0,1872.0 1301.0,1886.2 1289.6,1901.6 1278.1,1918.3 1266.2,1936.0 1254.3,1954.7 1242.2,1974.2 1230.1,1994.5 1217.9,2015.3 1205.9,2036.6 1194.0,2058.1  " style="stroke-opacity: 1.000000; stroke-width: 5.0; stroke: rgb(107,174,214); fill: none"  />
<path d="M 1409.6,2130.0 L 1412.9,2105.5 1415.9,2081.0 1418.5,2056.8 1420.6,2033.0 1422.2,2009.7 1423.2,1987.1 1423.6,1965.2 1423.4,1944.3 1422.6,1924.4 1421.1,1905.7 1418.9,1888.1 1415.9,1871.8 1412.3,1857.0 1407.8,1843.5 1402.7,1831.6 1396.7,1821.2 1390.1,1812.3 1382.6,1805.1 1374.4,1799.6 1365.5,1795.7 1355.9,1793.5 1345.6,1792.9 1334.5,1794.0 1322.9,1796.7 1310.6,1801.0 1297.7,1806.9 1284.3,1814.3 1270.4,1823.2 1256.0,1833.5 1241.2,1845.2 1226.0,1858.1 1210.6,1872.2 1194.9,1887.3 1179.0,1903.5 1162.9,1920.5 1146.9,1938.2 1130.9,1956.5 1114.9,1975.3 1099.2,1994.5  " style="stroke-opacity: 1.000000; stroke-width: 5.0; stroke: rgb(107,174,214); fill: none"  />
<path d="M 1409.6,2130.0 L 1412.9,2105.3 1415.8,2080.5 1418.2,2055.9 1419.9,2031.6 1421.1,2007.8 1421.6,1984.6 1421.4,1962.0 1420.5,1940.3 1418.7,1919.5 1416.2,1899.7 1412.8,1881.0 1408.6,1863.4 1403.5,1847.2 1397.5,1832.2 1390.7,1818.6 1382.9,1806.4 1374.3,1795.7 1364.8,1786.5 1354.4,1778.8 1343.2,1772.6 1331.1,1768.0 1318.2,1764.9 1304.6,1763.4 1290.1,1763.5 1275.0,1765.0 1259.2,1768.0 1242.7,1772.5 1225.6,1778.3 1208.1,1785.5 1190.0,1794.1 1171.5,1803.8 1152.7,1814.7 1133.5,1826.6 1114.2,1839.5 1094.8,1853.3 1075.3,1867.9 1055.8,1883.1 1036.5,1898.8 1017.4,1915.0  " style="stroke-opacity: 1.000000; stroke-width: 5.0; stroke: rgb(107,174,214); fill: none"  />
<path d="M 1409.6,2130.0 L 1412.9,2104.9 1415.7,2079.8 1417.9,2054.8 1419.5,2030.0 1420.3,2005.5 1420.4,1981.6 1419.7,1958.2 1418.1,1935.5 1415.7,1913.6 1412.3,1892.6 1408.0,1872.6 1402.8,1853.6 1396.6,1835.7 1389.4,1818.9 1381.2,1803.4 1372.0,1789.2 1361.8,1776.3 1350.7,1764.7 1338.6,1754.5 1325.5,1745.8 1311.5,1738.4 1296.5,1732.4 1280.7,1727.9 1264.1,1724.8 1246.6,1723.1 1228.4,1722.8 1209.5,1723.8 1189.9,1726.1 1169.7,1729.7 1149.0,1734.6 1127.8,1740.6 1106.3,1747.7 1084.3,1755.9 1062.2,1765.1 1039.9,1775.1 1017.5,1785.9 995.2,1797.4 973.0,1809.5 951.0,1822.1  " style="stroke-opacity: 1.000000; stroke-width: 5.0; stroke: rgb(107,174,214); fill: none"  />
<path d="M 1298.5,2103.8 L 1306.2,2080.5 1313.7,2057.4 1321.0,2034.6 1328.0,2012.2 1334.6,1990.5 1340.8,1969.5 1346.6,1949.3 1351.8,1930.1 1356.5,1912.0 1360.6,1895.2 1364.1,1879.6 1366.9,1865.3 1369.0,1852.6 1370.5,1841.3 1371.2,1831.6 1371.2,1823.5 1370.4,1817.1 1368.9,1812.4 1366.7,1809.3 1363.7,1808.0 1359.9,1808.4 1355.4,1810.5 1350.2,1814.4 1344.2,1819.8 1337.6,1826.9 1330.3,1835.7 1322.4,1845.9 1313.9,1857.6 1304.8,1870.8 1295.2,1885.3 1285.1,1901.0 1274.6,1917.9 1263.7,1935.8 1252.5,1954.6 1241.1,1974.3 1229.4,1994.6 1217.6,2015.4 1205.8,2036.7 1194.0,2058.1  " style="stroke-opacity: 1.000000; stroke-width: 5.0; stroke: rgb(107,174,214); fill: none"  />
<path d="M 1298.5,2103.8 L 1306.2,2080.2 1313.5,2056.7 1320.4,2033.3 1326.7,2010.2 1332.4,1987.6 1337.5,1965.5 1341.8,1944.1 1345.3,1923.5 1348.1,1903.8 1349.9,1885.1 1350.9,1867.4 1350.9,1850.9 1349.9,1835.6 1348.0,1821.5 1345.0,1808.9 1341.1,1797.6 1336.1,1787.7 1330.0,1779.3 1323.0,1772.4 1314.9,1766.9 1305.8,1763.0 1295.7,1760.6 1284.7,1759.7 1272.8,1760.3 1259.9,1762.4 1246.2,1765.9 1231.7,1770.8 1216.4,1777.0 1200.4,1784.6 1183.7,1793.4 1166.5,1803.4 1148.8,1814.5 1130.6,1826.6 1112.1,1839.7 1093.3,1853.5 1074.3,1868.1 1055.3,1883.3 1036.3,1898.9 1017.4,1915.0  " style="stroke-opacity: 1.000000; stroke-width: 5.0; stroke: rgb(107,174,214); fill: none"  />
<path d="M 1298.5,2103.8 L 1306.3,2079.7 1313.5,2055.4 1320.2,2031.2 1326.1,2007.1 1331.3,1983.2 1335.7,1959.6 1339.2,1936.5 1341.7,1913.9 1343.2,1891.9 1343.6,1870.7 1343.0,1850.2 1341.2,1830.5 1338.3,1811.8 1334.2,1794.1 1328.9,1777.3 1322.4,1761.7 1314.7,1747.2 1305.8,1733.8 1295.7,1721.6 1284.4,1710.6 1271.9,1700.9 1258.3,1692.4 1243.6,1685.1 1227.7,1679.1 1210.9,1674.3 1193.0,1670.7 1174.2,1668.3 1154.5,1667.1 1134.0,1667.1 1112.8,1668.1 1090.9,1670.3 1068.3,1673.4 1045.3,1677.6 1021.9,1682.6 998.2,1688.5 974.2,1695.2 950.2,1702.5 926.2,1710.5 902.3,1718.9  " style="stroke-opacity: 1.000000; stroke-width: 5.0; stroke: rgb(107,174,214); fill: none"  />
<path d="M 1194.0,2058.1 L 1205.9,2036.6 1217.9,2015.3 1230.1,1994.5 1242.2,1974.2 1254.3,1954.7 1266.2,1936.0 1278.1,1918.3 1289.6,1901.6 1301.0,1886.2 1312.0,1872.0 1322.7,1859.3 1333.0,1847.9 1342.9,1838.1 1352.3,1829.9 1361.2,1823.4 1369.7,1818.5 1377.6,1815.3 1384.9,1813.9 1391.7,1814.2 1397.9,1816.3 1403.5,1820.1 1408.5,1825.6 1413.0,1832.9 1416.8,1841.9 1420.0,1852.5 1422.6,1864.8 1424.6,1878.5 1426.0,1893.7 1426.9,1910.4 1427.2,1928.3 1427.0,1947.5 1426.3,1967.7 1425.1,1989.0 1423.4,2011.1 1421.3,2034.0 1418.9,2057.5 1416.1,2081.5 1412.9,2105.7 1409.6,2130.0  " style="stroke-opacity: 1.000000; stroke-width: 5.0; stroke: rgb(107,174,214); fill: none"  />
<path d="M 1194.0,2058.1 L 1205.8,2036.7 1217.6,2015.4 1229.4,1994.6 1241.1,1974.3 1252.5,1954.6 1263.7,1935.8 1274.6,1917.9 1285.1,1901.0 1295.2,1885.3 1304.8,1870.8 1313.9,1857.6 1322.4,1845.9 1330.3,1835.7 1337.6,1826.9 1344.2,1819.8 1350.2,1814.4 1355.4,1810.5 1359.9,1808.4 1363.7,1808.0 1366.7,1809.3 1368.9,1812.4 1370.4,1817.1 1371.2,1823.5 1371.2,1831.6 1370.5,1841.3 1369.0,1852.6 1366.9,1865.3 1364.1,1879.6 1360.6,1895.2 1356.5,1912.0 1351.8,1930.1 1346.6,1949.3 1340.8,1969.5 1334.6,1990.5 1328.0,2012.2 1321.0,2034.6 1313.7,2057.4 1306.2,2080.5 1298.5,2103.8  " style="stroke-opacity: 1.000000; stroke-width: 5.0; stroke: rgb(107,174,214); fill: none"  />
<path d="M 1194.0,2058.1 L 1205.7,2036.6 1217.2,2015.2 1228.4,1994.1 1239.3,1973.3 1249.7,1953.1 1259.6,1933.5 1268.8,1914.7 1277.4,1896.7 1285.2,1879.8 1292.3,1863.9 1298.5,1849.2 1303.8,1835.7 1308.2,1823.5 1311.6,1812.7 1314.1,1803.3 1315.5,1795.3 1315.9,1788.9 1315.3,1784.0 1313.6,1780.6 1310.8,1778.7 1307.1,1778.5 1302.3,1779.7 1296.4,1782.5 1289.6,1786.9 1281.8,1792.7 1273.1,1800.0 1263.5,1808.6 1253.0,1818.7 1241.7,1830.0 1229.7,1842.5 1217.0,1856.2 1203.6,1870.9 1189.7,1886.6 1175.3,1903.1 1160.5,1920.4 1145.4,1938.3 1130.1,1956.7 1114.7,1975.5 1099.2,1994.5  " style="stroke-opacity: 1.000000; stroke-width: 5.0; stroke: rgb(107,174,214); fill: none"  />
<path d="M 1194.0,2058.1 L 1205.7,2036.5 1217.1,2014.9 1228.2,1993.5 1238.7,1972.3 1248.7,1951.6 1258.0,1931.5 1266.6,1912.0 1274.4,1893.3 1281.4,1875.4 1287.4,1858.5 1292.4,1842.7 1296.4,1827.9 1299.4,1814.3 1301.2,1801.9 1301.9,1790.9 1301.5,1781.1 1300.0,1772.8 1297.2,1765.8 1293.3,1760.2 1288.2,1756.1 1282.0,1753.4 1274.6,1752.2 1266.1,1752.4 1256.4,1754.0 1245.8,1757.0 1234.1,1761.4 1221.4,1767.1 1207.8,1774.1 1193.3,1782.3 1178.0,1791.6 1161.9,1802.1 1145.2,1813.6 1128.0,1826.1 1110.2,1839.4 1092.0,1853.4 1073.5,1868.1 1054.8,1883.4 1036.1,1899.0 1017.4,1915.0  " style="stroke-opacity: 1.000000; stroke-width: 5.0; stroke: rgb(107,174,214); fill: none"  />
<path d="M 1636.7,2121.6 L 1631.6,2097.2 1626.8,2072.7 1622.7,2048.3 1619.1,2024.3 1616.2,2000.6 1614.0,1977.5 1612.5,1955.0 1611.8,1933.2 1612.0,1912.3 1613.1,1892.4 1615.1,1873.5 1618.0,1855.7 1621.9,1839.1 1626.7,1823.7 1632.6,1809.6 1639.4,1796.9 1647.2,1785.6 1656.0,1775.7 1665.8,1767.3 1676.5,1760.3 1688.2,1754.8 1700.8,1750.8 1714.3,1748.3 1728.7,1747.2 1744.0,1747.6 1760.0,1749.5 1776.7,1752.7 1794.2,1757.3 1812.2,1763.2 1830.9,1770.4 1850.0,1778.7 1869.6,1788.2 1889.6,1798.7 1909.8,1810.1 1930.2,1822.4 1950.7,1835.5 1971.3,1849.2 1991.7,1863.5 2012.0,1878.2  " style="stroke-opacity: 1.000000; stroke-width: 5.0; stroke: rgb(107,174,214); fill: none"  />
<path d="M 1636.7,2121.6 L 1631.5,2097.6 1626.6,2073.7 1622.1,2050.0 1617.9,2026.8 1614.1,2004.1 1610.8,1982.1 1608.1,1961.0 1605.8,1940.9 1604.2,1921.8 1603.2,1903.9 1602.8,1887.2 1603.1,1871.9 1604.1,1858.0 1605.8,1845.7 1608.3,1834.8 1611.4,1825.6 1615.3,1818.0 1619.8,1812.1 1625.2,1807.9 1631.2,1805.3 1637.9,1804.5 1645.4,1805.4 1653.5,1808.0 1662.3,1812.2 1671.7,1818.1 1681.7,1825.6 1692.3,1834.7 1703.4,1845.2 1715.0,1857.1 1727.0,1870.4 1739.4,1885.0 1752.2,1900.7 1765.3,1917.6 1778.6,1935.3 1792.1,1953.9 1805.7,1973.2 1819.4,1993.1 1832.9,2013.4 1846.4,2034.0  " style="stroke-opacity: 1.000000; stroke-width: 5.0; stroke: rgb(107,174,214); fill: none"  />
<path d="M 1636.7,2121.6 L 1631.5,2097.7 1626.5,2073.9 1621.6,2050.5 1617.0,2027.5 1612.8,2005.2 1608.8,1983.6 1605.2,1963.0 1602.0,1943.3 1599.3,1924.9 1597.0,1907.6 1595.2,1891.8 1593.9,1877.3 1593.1,1864.4 1592.8,1853.1 1593.1,1843.3 1594.0,1835.3 1595.4,1829.0 1597.4,1824.5 1600.0,1821.7 1603.1,1820.7 1606.8,1821.5 1611.1,1824.1 1615.9,1828.4 1621.2,1834.5 1627.0,1842.2 1633.3,1851.7 1640.1,1862.7 1647.4,1875.3 1655.0,1889.3 1663.0,1904.7 1671.4,1921.4 1680.1,1939.3 1689.0,1958.3 1698.2,1978.2 1707.5,1998.9 1717.0,2020.4 1726.5,2042.3 1736.0,2064.7 1745.5,2087.2  " style="stroke-opacity: 1.000000; stroke-width: 5.0; stroke: rgb(107,174,214); fill: none"  />
<path d="M 1636.7,2121.6 L 1631.4,2097.7 1626.0,2074.0 1620.6,2050.7 1615.1,2027.9 1609.6,2005.9 1604.1,1984.6 1598.7,1964.4 1593.4,1945.2 1588.1,1927.3 1583.0,1910.7 1578.0,1895.5 1573.1,1881.9 1568.4,1869.8 1563.9,1859.4 1559.5,1850.7 1555.4,1843.8 1551.4,1838.7 1547.7,1835.4 1544.2,1833.9 1540.9,1834.4 1537.9,1836.6 1535.1,1840.8 1532.6,1846.7 1530.3,1854.5 1528.3,1864.0 1526.5,1875.2 1525.0,1888.0 1523.7,1902.5 1522.6,1918.4 1521.8,1935.8 1521.2,1954.4 1520.9,1974.3 1520.7,1995.3 1520.7,2017.2 1521.0,2039.9 1521.4,2063.4 1522.0,2087.3 1522.7,2111.6 1523.5,2136.1  " style="stroke-opacity: 1.000000; stroke-width: 5.0; stroke: rgb(107,174,214); fill: none"  />
<path d="M 1854.8,971.6 L 1841.0,991.9 1827.1,1012.0 1813.2,1031.7 1799.3,1050.8 1785.5,1069.2 1771.9,1086.7 1758.5,1103.3 1745.5,1118.8 1732.8,1133.2 1720.6,1146.3 1708.8,1158.1 1697.5,1168.4 1686.8,1177.3 1676.7,1184.6 1667.2,1190.4 1658.4,1194.5 1650.2,1196.9 1642.8,1197.7 1636.0,1196.8 1630.0,1194.2 1624.8,1189.9 1620.3,1183.9 1616.5,1176.2 1613.5,1166.9 1611.3,1156.1 1609.8,1143.7 1609.0,1129.8 1609.0,1114.5 1609.6,1097.8 1610.9,1079.9 1612.8,1060.9 1615.3,1040.7 1618.5,1019.7 1622.1,997.8 1626.2,975.2 1630.8,952.0 1635.7,928.4 1641.0,904.6 1646.5,880.6  " style="stroke-opacity: 1.000000; stroke-width: 5.0; stroke: rgb(107,174,214); fill: none"  />
<path d="M 1099.2,1994.5 L 1114.9,1975.3 1130.9,1956.5 1146.9,1938.2 1162.9,1920.5 1179.0,1903.5 1194.9,1887.3 1210.6,1872.2 1226.0,1858.1 1241.2,1845.2 1256.0,1833.5 1270.4,1823.2 1284.3,1814.3 1297.7,1806.9 1310.6,1801.0 1322.9,1796.7 1334.5,1794.0 1345.6,1792.9 1355.9,1793.5 1365.5,1795.7 1374.4,1799.6 1382.6,1805.1 1390.1,1812.3 1396.7,1821.2 1402.7,1831.6 1407.8,1843.5 1412.3,1857.0 1415.9,1871.8 1418.9,1888.1 1421.1,1905.7 1422.6,1924.4 1423.4,1944.3 1423.6,1965.2 1423.2,1987.1 1422.2,2009.7 1420.6,2033.0 1418.5,2056.8 1415.9,2081.0 1412.9,2105.5 1409.6,2130.0  " style="stroke-opacity: 1.000000; stroke-width: 5.0; stroke: rgb(107,174,214); fill: none"  />
<path d="M 1099.2,1994.5 L 1114.7,1975.5 1130.1,1956.7 1145.4,1938.3 1160.5,1920.4 1175.3,1903.1 1189.7,1886.6 1203.6,1870.9 1217.0,1856.2 1229.7,1842.5 1241.7,1830.0 1253.0,1818.7 1263.5,1808.6 1273.1,1800.0 1281.8,1792.7 1289.6,1786.9 1296.4,1782.5 1302.3,1779.7 1307.1,1778.5 1310.8,1778.7 1313.6,1780.6 1315.3,1784.0 1315.9,1788.9 1315.5,1795.3 1314.1,1803.3 1311.6,1812.7 1308.2,1823.5 1303.8,1835.7 1298.5,1849.2 1292.3,1863.9 1285.2,1879.8 1277.4,1896.7 1268.8,1914.7 1259.6,1933.5 1249.7,1953.1 1239.3,1973.3 1228.4,1994.1 1217.2,2015.2 1205.7,2036.6 1194.0,2058.1  " style="stroke-opacity: 1.000000; stroke-width: 5.0; stroke: rgb(107,174,214); fill: none"  />
<path d="M 1099.2,1994.5 L 1114.6,1975.4 1129.8,1956.4 1144.6,1937.6 1159.0,1919.1 1172.8,1901.1 1186.0,1883.6 1198.5,1866.7 1210.1,1850.6 1220.9,1835.3 1230.6,1821.0 1239.4,1807.6 1247.0,1795.3 1253.5,1784.1 1258.8,1774.0 1262.9,1765.2 1265.7,1757.6 1267.3,1751.4 1267.5,1746.4 1266.5,1742.8 1264.1,1740.5 1260.4,1739.5 1255.5,1739.9 1249.3,1741.7 1241.8,1744.7 1233.1,1749.0 1223.2,1754.6 1212.2,1761.5 1200.1,1769.4 1187.0,1778.6 1172.9,1788.7 1157.9,1799.9 1142.2,1812.0 1125.7,1825.0 1108.6,1838.7 1090.9,1853.0 1072.9,1868.0 1054.5,1883.3 1036.0,1899.0 1017.4,1915.0  " style="stroke-opacity: 1.000000; stroke-width: 5.0; stroke: rgb(107,174,214); fill: none"  />
<path d="M 1017.4,1915.0 L 1036.5,1898.8 1055.8,1883.1 1075.3,1867.9 1094.8,1853.3 1114.2,1839.5 1133.5,1826.6 1152.7,1814.7 1171.5,1803.8 1190.0,1794.1 1208.1,1785.5 1225.6,1778.3 1242.7,1772.5 1259.2,1768.0 1275.0,1765.0 1290.1,1763.5 1304.6,1763.4 1318.2,1764.9 1331.1,1768.0 1343.2,1772.6 1354.4,1778.8 1364.8,1786.5 1374.3,1795.7 1382.9,1806.4 1390.7,1818.6 1397.5,1832.2 1403.5,1847.2 1408.6,1863.4 1412.8,1881.0 1416.2,1899.7 1418.7,1919.5 1420.5,1940.3 1421.4,1962.0 1421.6,1984.6 1421.1,2007.8 1419.9,2031.6 1418.2,2055.9 1415.8,2080.5 1412.9,2105.3 1409.6,2130.0  " style="stroke-opacity: 1.000000; stroke-width: 5.0; stroke: rgb(107,174,214); fill: none"  />
<path d="M 1017.4,1915.0 L 1036.3,1898.9 1055.3,1883.3 1074.3,1868.1 1093.3,1853.5 1112.1,1839.7 1130.6,1826.6 1148.8,1814.5 1166.5,1803.4 1183.7,1793.4 1200.4,1784.6 1216.4,1777.0 1231.7,1770.8 1246.2,1765.9 1259.9,1762.4 1272.8,1760.3 1284.7,1759.7 1295.7,1760.6 1305.8,1763.0 1314.9,1766.9 1323.0,1772.4 1330.0,1779.3 1336.1,1787.7 1341.1,1797.6 1345.0,1808.9 1348.0,1821.5 1349.9,1835.6 1350.9,1850.9 1350.9,1867.4 1349.9,1885.1 1348.1,1903.8 1345.3,1923.5 1341.8,1944.1 1337.5,1965.5 1332.4,1987.6 1326.7,2010.2 1320.4,2033.3 1313.5,2056.7 1306.2,2080.2 1298.5,2103.8  " style="stroke-opacity: 1.000000; stroke-width: 5.0; stroke: rgb(107,174,214); fill: none"  />
<path d="M 1017.4,1915.0 L 1036.1,1899.0 1054.8,1883.4 1073.5,1868.1 1092.0,1853.4 1110.2,1839.4 1128.0,1826.1 1145.2,1813.6 1161.9,1802.1 1178.0,1791.6 1193.3,1782.3 1207.8,1774.1 1221.4,1767.1 1234.1,1761.4 1245.8,1757.0 1256.4,1754.0 1266.1,1752.4 1274.6,1752.2 1282.0,1753.4 1288.2,1756.1 1293.3,1760.2 1297.2,1765.8 1300.0,1772.8 1301.5,1781.1 1301.9,1790.9 1301.2,1801.9 1299.4,1814.3 1296.4,1827.9 1292.4,1842.7 1287.4,1858.5 1281.4,1875.4 1274.4,1893.3 1266.6,1912.0 1258.0,1931.5 1248.7,1951.6 1238.7,1972.3 1228.2,1993.5 1217.1,2014.9 1205.7,2036.5 1194.0,2058.1  " style="stroke-opacity: 1.000000; stroke-width: 5.0; stroke: rgb(107,174,214); fill: none"  />
<path d="M 1017.4,1915.0 L 1036.0,1899.0 1054.5,1883.3 1072.9,1868.0 1090.9,1853.0 1108.6,1838.7 1125.7,1825.0 1142.2,1812.0 1157.9,1799.9 1172.9,1788.7 1187.0,1778.6 1200.1,1769.4 1212.2,1761.5 1223.2,1754.6 1233.1,1749.0 1241.8,1744.7 1249.3,1741.7 1255.5,1739.9 1260.4,1739.5 1264.1,1740.5 1266.5,1742.8 1267.5,1746.4 1267.3,1751.4 1265.7,1757.6 1262.9,1765.2 1258.8,1774.0 1253.5,1784.1 1247.0,1795.3 1239.4,1807.6 1230.6,1821.0 1220.9,1835.3 1210.1,1850.6 1198.5,1866.7 1186.0,1883.6 1172.8,1901.1 1159.0,1919.1 1144.6,1937.6 1129.8,1956.4 1114.6,1975.4 1099.2,1994.5  " style="stroke-opacity: 1.000000; stroke-width: 5.0; stroke: rgb(107,174,214); fill: none"  />
<path d="M 951.0,1822.1 L 973.0,1809.5 995.2,1797.4 1017.5,1785.9 1039.9,1775.1 1062.2,1765.1 1084.3,1755.9 1106.3,1747.7 1127.8,1740.6 1149.0,1734.6 1169.7,1729.7 1189.9,1726.1 1209.5,1723.8 1228.4,1722.8 1246.6,1723.1 1264.1,1724.8 1280.7,1727.9 1296.5,1732.4 1311.5,1738.4 1325.5,1745.8 1338.6,1754.5 1350.7,1764.7 1361.8,1776.3 1372.0,1789.2 1381.2,1803.4 1389.4,1818.9 1396.6,1835.7 1402.8,1853.6 1408.0,1872.6 1412.3,1892.6 1415.7,1913.6 1418.1,1935.5 1419.7,1958.2 1420.4,1981.6 1420.3,2005.5 1419.5,2030.0 1417.9,2054.8 1415.7,2079.8 1412.9,2104.9 1409.6,2130.0  " style="stroke-opacity: 1.000000; stroke-width: 5.0; stroke: rgb(107,174,214); fill: none"  />
<path d="M 902.3,1718.9 L 926.2,1710.5 950.2,1702.5 974.2,1695.2 998.2,1688.5 1021.9,1682.6 1045.3,1677.6 1068.3,1673.4 1090.9,1670.3 1112.8,1668.1 1134.0,1667.1 1154.5,1667.1 1174.2,1668.3 1193.0,1670.7 1210.9,1674.3 1227.7,1679.1 1243.6,1685.1 1258.3,1692.4 1271.9,1700.9 1284.4,1710.6 1295.7,1721.6 1305.8,1733.8 1314.7,1747.2 1322.4,1761.7 1328.9,1777.3 1334.2,1794.1 1338.3,1811.8 1341.2,1830.5 1343.0,1850.2 1343.6,1870.7 1343.2,1891.9 1341.7,1913.9 1339.2,1936.5 1335.7,1959.6 1331.3,1983.2 1326.1,2007.1 1320.2,2031.2 1313.5,2055.4 1306.3,2079.7 1298.5,2103.8  " style="stroke-opacity: 1.000000; stroke-width: 5.0; stroke: rgb(107,174,214); fill: none"  />
<path d="M 1523.5,2136.1 L 1522.8,2110.8 1522.7,2085.5 1523.1,2060.3 1524.2,2035.5 1525.9,2011.1 1528.4,1987.3 1531.6,1964.1 1535.5,1941.7 1540.3,1920.2 1545.8,1899.7 1552.2,1880.2 1559.4,1861.8 1567.5,1844.7 1576.4,1828.8 1586.2,1814.3 1596.8,1801.1 1608.3,1789.3 1620.6,1779.0 1633.7,1770.1 1647.6,1762.8 1662.4,1756.9 1677.8,1752.6 1694.0,1749.8 1710.9,1748.4 1728.4,1748.5 1746.6,1750.1 1765.3,1753.1 1784.5,1757.5 1804.2,1763.3 1824.3,1770.3 1844.7,1778.5 1865.4,1787.9 1886.4,1798.3 1907.4,1809.7 1928.5,1822.0 1949.6,1835.2 1970.6,1849.0 1991.4,1863.4 2012.0,1878.2  " style="stroke-opacity: 1.000000; stroke-width: 5.0; stroke: rgb(107,174,214); fill: none"  />
<path d="M 1523.5,2136.1 L 1522.8,2111.3 1522.4,2086.7 1522.4,2062.3 1522.8,2038.4 1523.7,2015.1 1525.0,1992.5 1526.9,1970.7 1529.3,1949.9 1532.2,1930.2 1535.7,1911.7 1539.8,1894.5 1544.4,1878.6 1549.6,1864.2 1555.4,1851.3 1561.8,1840.0 1568.8,1830.2 1576.4,1822.2 1584.6,1815.8 1593.3,1811.2 1602.6,1808.2 1612.4,1807.0 1622.7,1807.5 1633.5,1809.8 1644.9,1813.7 1656.6,1819.3 1668.8,1826.5 1681.3,1835.3 1694.3,1845.6 1707.5,1857.4 1721.0,1870.5 1734.7,1885.0 1748.6,1900.6 1762.6,1917.3 1776.7,1935.1 1790.9,1953.6 1805.0,1973.0 1819.0,1992.9 1832.8,2013.3 1846.4,2034.0  " style="stroke-opacity: 1.000000; stroke-width: 5.0; stroke: rgb(107,174,214); fill: none"  />
<path d="M 1523.5,2136.1 L 1522.7,2111.5 1522.2,2087.1 1521.9,2063.0 1521.9,2039.3 1522.3,2016.4 1523.0,1994.2 1524.0,1972.9 1525.4,1952.7 1527.2,1933.6 1529.4,1915.8 1532.1,1899.4 1535.1,1884.4 1538.5,1870.9 1542.4,1859.0 1546.7,1848.8 1551.5,1840.3 1556.6,1833.5 1562.2,1828.5 1568.2,1825.3 1574.6,1823.9 1581.4,1824.3 1588.5,1826.5 1596.0,1830.4 1603.9,1836.2 1612.1,1843.7 1620.6,1852.8 1629.4,1863.6 1638.5,1876.0 1647.7,1889.8 1657.2,1905.0 1666.8,1921.6 1676.6,1939.3 1686.5,1958.2 1696.4,1978.1 1706.4,1998.8 1716.3,2020.2 1726.2,2042.2 1735.9,2064.6 1745.5,2087.2  " style="stroke-opacity: 1.000000; stroke-width: 5.0; stroke: rgb(107,174,214); fill: none"  />
<path d="M 1523.5,2136.1 L 1522.7,2111.6 1522.0,2087.3 1521.4,2063.4 1521.0,2039.9 1520.7,2017.2 1520.7,1995.3 1520.9,1974.3 1521.2,1954.4 1521.8,1935.8 1522.6,1918.4 1523.7,1902.5 1525.0,1888.0 1526.5,1875.2 1528.3,1864.0 1530.3,1854.5 1532.6,1846.7 1535.1,1840.8 1537.9,1836.6 1540.9,1834.4 1544.2,1833.9 1547.7,1835.4 1551.4,1838.7 1555.4,1843.8 1559.5,1850.7 1563.9,1859.4 1568.4,1869.8 1573.1,1881.9 1578.0,1895.5 1583.0,1910.7 1588.1,1927.3 1593.4,1945.2 1598.7,1964.4 1604.1,1984.6 1609.6,2005.9 1615.1,2027.9 1620.6,2050.7 1626.0,2074.0 1631.4,2097.7 1636.7,2121.6  " style="stroke-opacity: 1.000000; stroke-width: 5.0; stroke: rgb(107,174,214); fill: none"  />
<path d="M 2075.6,1228.4 L 2052.6,1239.0 2029.4,1249.0 2006.2,1258.5 1982.9,1267.3 1959.8,1275.3 1936.9,1282.4 1914.4,1288.6 1892.2,1293.7 1870.6,1297.8 1849.5,1300.8 1829.1,1302.6 1809.4,1303.2 1790.4,1302.5 1772.3,1300.5 1755.1,1297.3 1738.8,1292.7 1723.5,1286.7 1709.1,1279.5 1695.8,1270.9 1683.6,1261.0 1672.4,1249.7 1662.4,1237.2 1653.4,1223.4 1645.5,1208.4 1638.8,1192.3 1633.1,1175.0 1628.5,1156.6 1625.0,1137.2 1622.5,1116.8 1621.1,1095.6 1620.6,1073.6 1621.1,1050.8 1622.4,1027.5 1624.7,1003.6 1627.7,979.4 1631.5,954.8 1635.9,930.1 1641.0,905.3 1646.5,880.6  " style="stroke-opacity: 1.000000; stroke-width: 5.0; stroke: rgb(107,174,214); fill: none"  />
</g>
<defs>
<pattern id="hline" width="10" height="10" patternTransform="rotate(0 0 0)" patternUnits="userSpaceOnUse"><line x1="0" y1="0" x2="10" y2="0" style="stroke:black;stroke-width:5" /></pattern>
<pattern id="checker" width="10" height="10" patternTransform="rotate(45 0 0)" patternUnits="userSpaceOnUse"><line x1="0" y1="0" x2="10" y2="0" style="stroke:black;stroke-width:5" /><line x1="0" y1="0" x2="0" y2="10" style="stroke:black;stroke-width:4" /></pattern>
<pattern id="checker" width="10" height="10" patternTransform="rotate(45 0 0)" patternUnits="userSpaceOnUse"><line x1="0" y1="0" x2="10" y2="0" style="stroke:black;stroke-width:2" /><line x1="0" y1="0" x2="0" y2="10" style="stroke:black;stroke-width:2" /></pattern>
<pattern id="hline-sparse" width="10" height="10" patternTransform="rotate(0 0 0)" patternUnits="userSpaceOnUse"><line x1="0" y1="0" x2="10" y2="0" style="stroke:black;stroke-width:2" /></pattern>
<pattern id="vline" width="10" height="10" patternTransform="rotate(0 0 0)" patternUnits="userSpaceOnUse"><line x1="0" y1="0" x2="0" y2="10" style="stroke:black;stroke-width:5" /></pattern>
<pattern id="vline-sparse" width="10" height="10" patternTransform="rotate(0 0 0)" patternUnits="userSpaceOnUse"><line x1="0" y1="0" x2="0" y2="10" style="stroke:black;stroke-width:2" /></pattern>
</defs>
</svg>
