<?xml version="1.0" encoding="utf-8" standalone="no"?>
<!DOCTYPE svg PUBLIC "-//W3C//DTD SVG 1.1//EN" "http://www.w3.org/Graphics/SVG/1.1/DTD/svg11.dtd">
<svg width="3000px" height="3000px" version="1.1" xmlns="http://www.w3.org/2000/svg" xmlns:xlink="http://www.w3.org/1999/xlink">
<g id="bg">
<rect x="0" y="0" width="3000px" height="3000px" style="fill:rgb(255,255,255);"/>
</g>
<g id="ideograms">
<path d="M1500.000,535.000 A965.000,965.000 40.000 0,1 1601.714,540.376 L1618.579,381.267 A1125.000,1125.000 0.000 0,0 1500.000,375.000 Z" style="stroke-width:2.0;stroke:rgb(115,115,115);stroke-linecap:round;fill:rgb(153,204,255);" />
<text x="1635.1" y="307.6" font-size="195.0px" font-family="CMUBright-Bold" style="text-anchor:start;fill:rgb(0,0,0);" transform="rotate(273.0,1635.1,307.6)" >5</text>
<path d="M1500.000,535.000 A965.000,965.000 40.000 0,1 1601.714,540.376 L1618.579,381.267 A1125.000,1125.000 0.000 0,0 1500.000,375.000 Z" style="stroke-width:2.0;stroke:rgb(115,115,115);stroke-linecap:round;fill:none;" />
<path d="M1672.307,550.508 A965.000,965.000 40.000 0,1 1771.427,573.959 L1816.431,420.418 A1125.000,1125.000 0.000 0,0 1700.877,393.079 Z" style="stroke-width:2.0;stroke:rgb(115,115,115);stroke-linecap:round;fill:rgb(153,204,255);" />
<text x="1847.7" y="351.5" font-size="195.0px" font-family="CMUBright-Bold" style="text-anchor:start;fill:rgb(0,0,0);" transform="rotate(283.3,1847.7,351.5)" >8</text>
<path d="M1672.307,550.508 A965.000,965.000 40.000 0,1 1771.427,573.959 L1816.431,420.418 A1125.000,1125.000 0.000 0,0 1700.877,393.079 Z" style="stroke-width:2.0;stroke:rgb(115,115,115);stroke-linecap:round;fill:none;" />
<path d="M1839.077,596.533 A965.000,965.000 40.000 0,1 1932.417,637.306 L2004.113,494.269 A1125.000,1125.000 0.000 0,0 1895.297,446.736 Z" style="stroke-width:2.0;stroke:rgb(115,115,115);stroke-linecap:round;fill:rgb(153,204,255);" />
<text x="2047.2" y="432.0" font-size="195.0px" font-family="CMUBright-Bold" style="text-anchor:start;fill:rgb(0,0,0);" transform="rotate(293.6,2047.2,432.0)" >10</text>
<path d="M1839.077,596.533 A965.000,965.000 40.000 0,1 1932.417,637.306 L2004.113,494.269 A1125.000,1125.000 0.000 0,0 1895.297,446.736 Z" style="stroke-width:2.0;stroke:rgb(115,115,115);stroke-linecap:round;fill:none;" />
<path d="M1994.948,671.597 A965.000,965.000 40.000 0,1 2079.507,728.381 L2175.592,600.444 A1125.000,1125.000 0.000 0,0 2077.012,534.245 Z" style="stroke-width:2.0;stroke:rgb(115,115,115);stroke-linecap:round;fill:rgb(153,204,255);" />
<text x="2229.1" y="546.9" font-size="195.0px" font-family="CMUBright-Bold" style="text-anchor:start;fill:rgb(0,0,0);" transform="rotate(303.9,2229.1,546.9)" >19</text>
<path d="M1994.948,671.597 A965.000,965.000 40.000 0,1 2079.507,728.381 L2175.592,600.444 A1125.000,1125.000 0.000 0,0 2077.012,534.245 Z" style="stroke-width:2.0;stroke:rgb(115,115,115);stroke-linecap:round;fill:none;" />
<path d="M2134.911,773.286 A965.000,965.000 40.000 0,1 2207.972,844.256 L2325.356,735.532 A1125.000,1125.000 0.000 0,0 2240.181,652.795 Z" style="stroke-width:2.0;stroke:rgb(115,115,115);stroke-linecap:round;fill:rgb(153,204,255);" />
<text x="2387.6" y="692.4" font-size="195.0px" font-family="CMUBright-Bold" style="text-anchor:start;fill:rgb(0,0,0);" transform="rotate(314.2,2387.6,692.4)" >26</text>
<path d="M2134.911,773.286 A965.000,965.000 40.000 0,1 2207.972,844.256 L2325.356,735.532 A1125.000,1125.000 0.000 0,0 2240.181,652.795 Z" style="stroke-width:2.0;stroke:rgb(115,115,115);stroke-linecap:round;fill:none;" />
<path d="M2254.467,898.332 A965.000,965.000 40.000 0,1 2313.683,981.207 L2448.594,895.190 A1125.000,1125.000 0.000 0,0 2379.560,798.574 Z" style="stroke-width:2.0;stroke:rgb(115,115,115);stroke-linecap:round;fill:rgb(153,204,255);" />
<text x="2517.5" y="863.9" font-size="195.0px" font-family="CMUBright-Bold" style="text-anchor:start;fill:rgb(0,0,0);" transform="rotate(324.5,2517.5,863.9)" >35</text>
<path d="M2254.467,898.332 A965.000,965.000 40.000 0,1 2313.683,981.207 L2448.594,895.190 A1125.000,1125.000 0.000 0,0 2379.560,798.574 Z" style="stroke-width:2.0;stroke:rgb(115,115,115);stroke-linecap:round;fill:none;" />
<path d="M2349.775,1042.717 A965.000,965.000 40.000 0,1 2393.240,1134.833 L2541.342,1074.288 A1125.000,1125.000 0.000 0,0 2490.670,966.898 Z" style="stroke-width:2.0;stroke:rgb(115,115,115);stroke-linecap:round;fill:rgb(116,196,118);" />
<text x="2614.0" y="1053.9" font-size="195.0px" font-family="CMUBright-Bold" style="text-anchor:start;fill:rgb(0,0,0);" transform="rotate(334.7,2614.0,1053.9)" >2</text>
<path d="M2349.775,1042.717 A965.000,965.000 40.000 0,1 2393.240,1134.833 L2541.342,1074.288 A1125.000,1125.000 0.000 0,0 2490.670,966.898 Z" style="stroke-width:2.0;stroke:rgb(115,115,115);stroke-linecap:round;fill:none;" />
<path d="M2417.770,1201.799 A965.000,965.000 40.000 0,1 2444.089,1300.196 L2600.621,1267.068 A1125.000,1125.000 0.000 0,0 2569.939,1152.356 Z" style="stroke-width:2.0;stroke:rgb(115,115,115);stroke-linecap:round;fill:rgb(116,196,118);" />
<text x="2676.2" y="1262.0" font-size="195.0px" font-family="CMUBright-Bold" style="text-anchor:start;fill:rgb(0,0,0);" transform="rotate(345.0,2676.2,1262.0)" >3</text>
<path d="M2417.770,1201.799 A965.000,965.000 40.000 0,1 2444.089,1300.196 L2600.621,1267.068 A1125.000,1125.000 0.000 0,0 2569.939,1152.356 Z" style="stroke-width:2.0;stroke:rgb(115,115,115);stroke-linecap:round;fill:none;" />
<path d="M2456.267,1370.465 A965.000,965.000 40.000 0,1 2464.593,1471.980 L2624.526,1467.335 A1125.000,1125.000 0.000 0,0 2614.818,1348.988 Z" style="stroke-width:2.0;stroke:rgb(115,115,115);stroke-linecap:round;fill:rgb(116,196,118);" />
<text x="2699.7" y="1473.8" font-size="195.0px" font-family="CMUBright-Bold" style="text-anchor:start;fill:rgb(0,0,0);" transform="rotate(355.3,2699.7,1473.8)" >22</text>
<path d="M2456.267,1370.465 A965.000,965.000 40.000 0,1 2464.593,1471.980 L2624.526,1467.335 A1125.000,1125.000 0.000 0,0 2614.818,1348.988 Z" style="stroke-width:2.0;stroke:rgb(115,115,115);stroke-linecap:round;fill:none;" />
<path d="M2464.028,1543.295 A965.000,965.000 40.000 0,1 2454.095,1644.665 L2612.287,1668.651 A1125.000,1125.000 0.000 0,0 2623.867,1550.473 Z" style="stroke-width:2.0;stroke:rgb(115,115,115);stroke-linecap:round;fill:rgb(116,196,118);" />
<text x="2684.8" y="1690.4" font-size="195.0px" font-family="CMUBright-Bold" style="text-anchor:start;fill:rgb(0,0,0);" transform="rotate(5.6,2684.8,1690.4)" >23</text>
<path d="M2464.028,1543.295 A965.000,965.000 40.000 0,1 2454.095,1644.665 L2612.287,1668.651 A1125.000,1125.000 0.000 0,0 2623.867,1550.473 Z" style="stroke-width:2.0;stroke:rgb(115,115,115);stroke-linecap:round;fill:none;" />
<path d="M2440.805,1714.733 A965.000,965.000 40.000 0,1 2412.931,1812.701 L2564.298,1864.548 A1125.000,1125.000 0.000 0,0 2596.794,1750.336 Z" style="stroke-width:2.0;stroke:rgb(115,115,115);stroke-linecap:round;fill:rgb(116,196,118);" />
<text x="2632.4" y="1897.0" font-size="195.0px" font-family="CMUBright-Bold" style="text-anchor:start;fill:rgb(0,0,0);" transform="rotate(15.9,2632.4,1897.0)" >24</text>
<path d="M2440.805,1714.733 A965.000,965.000 40.000 0,1 2412.931,1812.701 L2564.298,1864.548 A1125.000,1125.000 0.000 0,0 2596.794,1750.336 Z" style="stroke-width:2.0;stroke:rgb(115,115,115);stroke-linecap:round;fill:none;" />
<path d="M2387.344,1879.269 A965.000,965.000 40.000 0,1 2342.425,1970.686 L2482.102,2048.727 A1125.000,1125.000 0.000 0,0 2534.469,1942.153 Z" style="stroke-width:2.0;stroke:rgb(115,115,115);stroke-linecap:round;fill:rgb(153,0,204);" />
<text x="2543.3" y="2092.8" font-size="195.0px" font-family="CMUBright-Bold" style="text-anchor:start;fill:rgb(0,0,0);" transform="rotate(26.2,2543.3,2092.8)" >1</text>
<path d="M2387.344,1879.269 A965.000,965.000 40.000 0,1 2342.425,1970.686 L2482.102,2048.727 A1125.000,1125.000 0.000 0,0 2534.469,1942.153 Z" style="stroke-width:2.0;stroke:rgb(115,115,115);stroke-linecap:round;fill:none;" />
<path d="M2305.363,2031.616 A965.000,965.000 40.000 0,1 2244.843,2113.542 L2368.340,2215.270 A1125.000,1125.000 0.000 0,0 2438.895,2119.759 Z" style="stroke-width:2.0;stroke:rgb(115,115,115);stroke-linecap:round;fill:rgb(153,0,204);" />
<text x="2421.4" y="2268.8" font-size="195.0px" font-family="CMUBright-Bold" style="text-anchor:start;fill:rgb(0,0,0);" transform="rotate(36.5,2421.4,2268.8)" >7</text>
<path d="M2305.363,2031.616 A965.000,965.000 40.000 0,1 2244.843,2113.542 L2368.340,2215.270 A1125.000,1125.000 0.000 0,0 2438.895,2119.759 Z" style="stroke-width:2.0;stroke:rgb(115,115,115);stroke-linecap:round;fill:none;" />
<path d="M2197.497,2166.875 A965.000,965.000 40.000 0,1 2123.321,2236.679 L2226.669,2358.823 A1125.000,1125.000 0.000 0,0 2313.144,2277.445 Z" style="stroke-width:2.0;stroke:rgb(115,115,115);stroke-linecap:round;fill:rgb(153,0,204);" />
<text x="2267.0" y="2422.9" font-size="195.0px" font-family="CMUBright-Bold" style="text-anchor:start;fill:rgb(0,0,0);" transform="rotate(46.7,2267.0,2422.9)" >9</text>
<path d="M2197.497,2166.875 A965.000,965.000 40.000 0,1 2123.321,2236.679 L2226.669,2358.823 A1125.000,1125.000 0.000 0,0 2313.144,2277.445 Z" style="stroke-width:2.0;stroke:rgb(115,115,115);stroke-linecap:round;fill:none;" />
<path d="M2067.213,2280.701 A965.000,965.000 40.000 0,1 1981.764,2336.139 L2061.642,2474.773 A1125.000,1125.000 0.000 0,0 2161.258,2410.144 Z" style="stroke-width:2.0;stroke:rgb(115,115,115);stroke-linecap:round;fill:rgb(153,0,204);" />
<text x="2091.6" y="2544.0" font-size="195.0px" font-family="CMUBright-Bold" style="text-anchor:start;fill:rgb(0,0,0);" transform="rotate(57.0,2091.6,2544.0)" >12</text>
<path d="M2067.213,2280.701 A965.000,965.000 40.000 0,1 1981.764,2336.139 L2061.642,2474.773 A1125.000,1125.000 0.000 0,0 2161.258,2410.144 Z" style="stroke-width:2.0;stroke:rgb(115,115,115);stroke-linecap:round;fill:none;" />
<path d="M1918.698,2369.435 A965.000,965.000 40.000 0,1 1824.724,2408.724 L1878.564,2559.393 A1125.000,1125.000 0.000 0,0 1988.119,2513.590 Z" style="stroke-width:2.0;stroke:rgb(115,115,115);stroke-linecap:round;fill:rgb(153,0,204);" />
<text x="1894.7" y="2633.2" font-size="195.0px" font-family="CMUBright-Bold" style="text-anchor:start;fill:rgb(0,0,0);" transform="rotate(67.3,1894.7,2633.2)" >17</text>
<path d="M1918.698,2369.435 A965.000,965.000 40.000 0,1 1824.724,2408.724 L1878.564,2559.393 A1125.000,1125.000 0.000 0,0 1988.119,2513.590 Z" style="stroke-width:2.0;stroke:rgb(115,115,115);stroke-linecap:round;fill:none;" />
<path d="M1756.726,2430.224 A965.000,965.000 40.000 0,1 1657.246,2452.102 L1683.318,2609.964 A1125.000,1125.000 0.000 0,0 1799.291,2584.458 Z" style="stroke-width:2.0;stroke:rgb(115,115,115);stroke-linecap:round;fill:rgb(153,0,204);" />
<text x="1685.0" y="2685.6" font-size="195.0px" font-family="CMUBright-Bold" style="text-anchor:start;fill:rgb(0,0,0);" transform="rotate(77.6,1685.0,2685.6)" >20</text>
<path d="M1756.726,2430.224 A965.000,965.000 40.000 0,1 1657.246,2452.102 L1683.318,2609.964 A1125.000,1125.000 0.000 0,0 1799.291,2584.458 Z" style="stroke-width:2.0;stroke:rgb(115,115,115);stroke-linecap:round;fill:none;" />
<path d="M1586.502,2461.115 A965.000,965.000 40.000 0,1 1484.715,2464.879 L1482.181,2624.859 A1125.000,1125.000 0.000 0,0 1600.844,2620.471 Z" style="stroke-width:2.0;stroke:rgb(115,115,115);stroke-linecap:round;fill:rgb(153,0,204);" />
<text x="1472.4" y="2699.7" font-size="195.0px" font-family="CMUBright-Bold" style="text-anchor:start;fill:rgb(0,0,0);" transform="rotate(87.9,1472.4,2699.7)" >21</text>
<path d="M1586.502,2461.115 A965.000,965.000 40.000 0,1 1484.715,2464.879 L1482.181,2624.859 A1125.000,1125.000 0.000 0,0 1600.844,2620.471 Z" style="stroke-width:2.0;stroke:rgb(115,115,115);stroke-linecap:round;fill:none;" />
<path d="M1413.498,2461.115 A965.000,965.000 40.000 0,1 1312.675,2446.644 L1281.616,2603.600 A1125.000,1125.000 0.000 0,0 1399.156,2620.471 Z" style="stroke-width:2.0;stroke:rgb(115,115,115);stroke-linecap:round;fill:rgb(153,0,204);" />
<text x="1403.0" y="2696.1" font-size="195.0px" font-family="CMUBright-Bold" style="text-anchor:end;fill:rgb(0,0,0);" transform="rotate(-81.8,1403.0,2696.1)" >34</text>
<path d="M1413.498,2461.115 A965.000,965.000 40.000 0,1 1312.675,2446.644 L1281.616,2603.600 A1125.000,1125.000 0.000 0,0 1399.156,2620.471 Z" style="stroke-width:2.0;stroke:rgb(115,115,115);stroke-linecap:round;fill:none;" />
<path d="M1243.274,2430.224 A965.000,965.000 40.000 0,1 1146.656,2397.983 L1088.070,2546.871 A1125.000,1125.000 0.000 0,0 1200.709,2584.458 Z" style="stroke-width:2.0;stroke:rgb(115,115,115);stroke-linecap:round;fill:rgb(253,208,162);" />
<text x="1187.2" y="2658.5" font-size="195.0px" font-family="CMUBright-Bold" style="text-anchor:end;fill:rgb(0,0,0);" transform="rotate(-71.5,1187.2,2658.5)" >4</text>
<path d="M1243.274,2430.224 A965.000,965.000 40.000 0,1 1146.656,2397.983 L1088.070,2546.871 A1125.000,1125.000 0.000 0,0 1200.709,2584.458 Z" style="stroke-width:2.0;stroke:rgb(115,115,115);stroke-linecap:round;fill:none;" />
<path d="M1081.302,2369.435 A965.000,965.000 40.000 0,1 991.993,2320.460 L907.764,2456.494 A1125.000,1125.000 0.000 0,0 1011.881,2513.590 Z" style="stroke-width:2.0;stroke:rgb(115,115,115);stroke-linecap:round;fill:rgb(253,208,162);" />
<text x="988.9" y="2585.7" font-size="195.0px" font-family="CMUBright-Bold" style="text-anchor:end;fill:rgb(0,0,0);" transform="rotate(-61.3,988.9,2585.7)" >13</text>
<path d="M1081.302,2369.435 A965.000,965.000 40.000 0,1 991.993,2320.460 L907.764,2456.494 A1125.000,1125.000 0.000 0,0 1011.881,2513.590 Z" style="stroke-width:2.0;stroke:rgb(115,115,115);stroke-linecap:round;fill:none;" />
<path d="M932.787,2280.701 A965.000,965.000 40.000 0,1 853.658,2216.566 L746.493,2335.375 A1125.000,1125.000 0.000 0,0 838.742,2410.144 Z" style="stroke-width:2.0;stroke:rgb(115,115,115);stroke-linecap:round;fill:rgb(253,208,162);" />
<text x="803.3" y="2477.0" font-size="195.0px" font-family="CMUBright-Bold" style="text-anchor:end;fill:rgb(0,0,0);" transform="rotate(-51.0,803.3,2477.0)" >16</text>
<path d="M932.787,2280.701 A965.000,965.000 40.000 0,1 853.658,2216.566 L746.493,2335.375 A1125.000,1125.000 0.000 0,0 838.742,2410.144 Z" style="stroke-width:2.0;stroke:rgb(115,115,115);stroke-linecap:round;fill:none;" />
<path d="M802.503,2166.875 A965.000,965.000 40.000 0,1 736.097,2089.642 L609.440,2187.406 A1125.000,1125.000 0.000 0,0 686.856,2277.445 Z" style="stroke-width:2.0;stroke:rgb(115,115,115);stroke-linecap:round;fill:rgb(253,208,162);" />
<text x="640.0" y="2336.9" font-size="195.0px" font-family="CMUBright-Bold" style="text-anchor:end;fill:rgb(0,0,0);" transform="rotate(-40.7,640.0,2336.9)" >25</text>
<path d="M802.503,2166.875 A965.000,965.000 40.000 0,1 736.097,2089.642 L609.440,2187.406 A1125.000,1125.000 0.000 0,0 686.856,2277.445 Z" style="stroke-width:2.0;stroke:rgb(115,115,115);stroke-linecap:round;fill:none;" />
<path d="M694.637,2031.616 A965.000,965.000 40.000 0,1 643.089,1943.766 L501.010,2017.344 A1125.000,1125.000 0.000 0,0 561.105,2119.759 Z" style="stroke-width:2.0;stroke:rgb(115,115,115);stroke-linecap:round;fill:rgb(253,208,162);" />
<text x="503.9" y="2169.1" font-size="195.0px" font-family="CMUBright-Bold" style="text-anchor:end;fill:rgb(0,0,0);" transform="rotate(-30.4,503.9,2169.1)" >27</text>
<path d="M694.637,2031.616 A965.000,965.000 40.000 0,1 643.089,1943.766 L501.010,2017.344 A1125.000,1125.000 0.000 0,0 561.105,2119.759 Z" style="stroke-width:2.0;stroke:rgb(115,115,115);stroke-linecap:round;fill:none;" />
<path d="M612.656,1879.269 A965.000,965.000 40.000 0,1 577.622,1783.627 L424.689,1830.653 A1125.000,1125.000 0.000 0,0 465.531,1942.153 Z" style="stroke-width:2.0;stroke:rgb(115,115,115);stroke-linecap:round;fill:rgb(253,208,162);" />
<text x="400.8" y="1981.4" font-size="195.0px" font-family="CMUBright-Bold" style="text-anchor:end;fill:rgb(0,0,0);" transform="rotate(-20.1,400.8,1981.4)" >28</text>
<path d="M612.656,1879.269 A965.000,965.000 40.000 0,1 577.622,1783.627 L424.689,1830.653 A1125.000,1125.000 0.000 0,0 465.531,1942.153 Z" style="stroke-width:2.0;stroke:rgb(115,115,115);stroke-linecap:round;fill:none;" />
<path d="M559.195,1714.733 A965.000,965.000 40.000 0,1 541.802,1614.372 L382.929,1633.336 A1125.000,1125.000 0.000 0,0 403.206,1750.336 Z" style="stroke-width:2.0;stroke:rgb(115,115,115);stroke-linecap:round;fill:rgb(253,141,60);" />
<text x="332.0" y="1775.4" font-size="195.0px" font-family="CMUBright-Bold" style="text-anchor:end;fill:rgb(0,0,0);" transform="rotate(-9.8,332.0,1775.4)" >11</text>
<path d="M559.195,1714.733 A965.000,965.000 40.000 0,1 541.802,1614.372 L382.929,1633.336 A1125.000,1125.000 0.000 0,0 403.206,1750.336 Z" style="stroke-width:2.0;stroke:rgb(115,115,115);stroke-linecap:round;fill:none;" />
<path d="M535.972,1543.295 A965.000,965.000 40.000 0,1 536.778,1441.441 L377.073,1431.732 A1125.000,1125.000 0.000 0,0 376.133,1550.473 Z" style="stroke-width:2.0;stroke:rgb(115,115,115);stroke-linecap:round;fill:rgb(253,141,60);" />
<text x="301.7" y="1564.5" font-size="195.0px" font-family="CMUBright-Bold" style="text-anchor:end;fill:rgb(0,0,0);" transform="rotate(0.5,301.7,1564.5)" >30</text>
<path d="M535.972,1543.295 A965.000,965.000 40.000 0,1 536.778,1441.441 L377.073,1431.732 A1125.000,1125.000 0.000 0,0 376.133,1550.473 Z" style="stroke-width:2.0;stroke:rgb(115,115,115);stroke-linecap:round;fill:none;" />
<path d="M543.733,1370.465 A965.000,965.000 40.000 0,1 562.714,1270.393 L407.309,1232.323 A1125.000,1125.000 0.000 0,0 385.182,1348.988 Z" style="stroke-width:2.0;stroke:rgb(115,115,115);stroke-linecap:round;fill:rgb(253,141,60);" />
<text x="309.5" y="1349.5" font-size="195.0px" font-family="CMUBright-Bold" style="text-anchor:end;fill:rgb(0,0,0);" transform="rotate(10.7,309.5,1349.5)" >31</text>
<path d="M543.733,1370.465 A965.000,965.000 40.000 0,1 562.714,1270.393 L407.309,1232.323 A1125.000,1125.000 0.000 0,0 385.182,1348.988 Z" style="stroke-width:2.0;stroke:rgb(115,115,115);stroke-linecap:round;fill:none;" />
<path d="M582.230,1201.799 A965.000,965.000 40.000 0,1 618.774,1106.724 L472.664,1041.517 A1125.000,1125.000 0.000 0,0 430.061,1152.356 Z" style="stroke-width:2.0;stroke:rgb(115,115,115);stroke-linecap:round;fill:rgb(253,141,60);" />
<text x="355.5" y="1139.3" font-size="195.0px" font-family="CMUBright-Bold" style="text-anchor:end;fill:rgb(0,0,0);" transform="rotate(21.0,355.5,1139.3)" >32</text>
<path d="M582.230,1201.799 A965.000,965.000 40.000 0,1 618.774,1106.724 L472.664,1041.517 A1125.000,1125.000 0.000 0,0 430.061,1152.356 Z" style="stroke-width:2.0;stroke:rgb(115,115,115);stroke-linecap:round;fill:none;" />
<path d="M650.225,1042.717 A965.000,965.000 40.000 0,1 703.158,955.695 L571.039,865.447 A1125.000,1125.000 0.000 0,0 509.330,966.898 Z" style="stroke-width:2.0;stroke:rgb(115,115,115);stroke-linecap:round;fill:rgb(253,141,60);" />
<text x="438.3" y="940.7" font-size="195.0px" font-family="CMUBright-Bold" style="text-anchor:end;fill:rgb(0,0,0);" transform="rotate(31.3,438.3,940.7)" >33</text>
<path d="M650.225,1042.717 A965.000,965.000 40.000 0,1 703.158,955.695 L571.039,865.447 A1125.000,1125.000 0.000 0,0 509.330,966.898 Z" style="stroke-width:2.0;stroke:rgb(115,115,115);stroke-linecap:round;fill:none;" />
<path d="M745.533,898.332 A965.000,965.000 40.000 0,1 813.153,822.160 L699.272,709.772 A1125.000,1125.000 0.000 0,0 620.440,798.574 Z" style="stroke-width:2.0;stroke:rgb(115,115,115);stroke-linecap:round;fill:rgb(66,146,198);" />
<text x="555.2" y="760.2" font-size="195.0px" font-family="CMUBright-Bold" style="text-anchor:end;fill:rgb(0,0,0);" transform="rotate(41.6,555.2,760.2)" >6</text>
<path d="M745.533,898.332 A965.000,965.000 40.000 0,1 813.153,822.160 L699.272,709.772 A1125.000,1125.000 0.000 0,0 620.440,798.574 Z" style="stroke-width:2.0;stroke:rgb(115,115,115);stroke-linecap:round;fill:none;" />
<path d="M865.089,773.286 A965.000,965.000 40.000 0,1 945.224,710.412 L853.241,579.496 A1125.000,1125.000 0.000 0,0 759.819,652.795 Z" style="stroke-width:2.0;stroke:rgb(115,115,115);stroke-linecap:round;fill:rgb(66,146,198);" />
<text x="704.0" y="602.0" font-size="195.0px" font-family="CMUBright-Bold" style="text-anchor:end;fill:rgb(0,0,0);" transform="rotate(51.9,704.0,602.0)" >14</text>
<path d="M865.089,773.286 A965.000,965.000 40.000 0,1 945.224,710.412 L853.241,579.496 A1125.000,1125.000 0.000 0,0 759.819,652.795 Z" style="stroke-width:2.0;stroke:rgb(115,115,115);stroke-linecap:round;fill:none;" />
<path d="M1005.052,671.597 A965.000,965.000 40.000 0,1 1095.126,624.042 L1027.997,478.806 A1125.000,1125.000 0.000 0,0 922.988,534.245 Z" style="stroke-width:2.0;stroke:rgb(115,115,115);stroke-linecap:round;fill:rgb(66,146,198);" />
<text x="875.4" y="475.4" font-size="195.0px" font-family="CMUBright-Bold" style="text-anchor:end;fill:rgb(0,0,0);" transform="rotate(62.2,875.4,475.4)" >15</text>
<path d="M1005.052,671.597 A965.000,965.000 40.000 0,1 1095.126,624.042 L1027.997,478.806 A1125.000,1125.000 0.000 0,0 922.988,534.245 Z" style="stroke-width:2.0;stroke:rgb(115,115,115);stroke-linecap:round;fill:none;" />
<path d="M1160.923,596.533 A965.000,965.000 40.000 0,1 1258.041,565.826 L1217.923,410.937 A1125.000,1125.000 0.000 0,0 1104.703,446.736 Z" style="stroke-width:2.0;stroke:rgb(115,115,115);stroke-linecap:round;fill:rgb(66,146,198);" />
<text x="1068.4" y="380.3" font-size="195.0px" font-family="CMUBright-Bold" style="text-anchor:end;fill:rgb(0,0,0);" transform="rotate(72.5,1068.4,380.3)" >18</text>
<path d="M1160.923,596.533 A965.000,965.000 40.000 0,1 1258.041,565.826 L1217.923,410.937 A1125.000,1125.000 0.000 0,0 1104.703,446.736 Z" style="stroke-width:2.0;stroke:rgb(115,115,115);stroke-linecap:round;fill:none;" />
<path d="M1327.693,550.508 A965.000,965.000 40.000 0,1 1428.732,537.635 L1416.916,378.072 A1125.000,1125.000 0.000 0,0 1299.123,393.079 Z" style="stroke-width:2.0;stroke:rgb(115,115,115);stroke-linecap:round;fill:rgb(66,146,198);" />
<text x="1275.3" y="321.2" font-size="195.0px" font-family="CMUBright-Bold" style="text-anchor:end;fill:rgb(0,0,0);" transform="rotate(82.7,1275.3,321.2)" >29</text>
<path d="M1327.693,550.508 A965.000,965.000 40.000 0,1 1428.732,537.635 L1416.916,378.072 A1125.000,1125.000 0.000 0,0 1299.123,393.079 Z" style="stroke-width:2.0;stroke:rgb(115,115,115);stroke-linecap:round;fill:none;" />
</g>
<g id="track_1">
<path d="M 2322.8,1904.3 L 2286.4,1885.9 2250.1,1866.6 2214.0,1846.3 2178.1,1825.1 2142.7,1802.8 2107.7,1779.6 2073.3,1755.3 2039.5,1730.1 2006.5,1703.8 1974.3,1676.6 1942.9,1648.4 1912.5,1619.2 1883.0,1589.0 1854.6,1558.0 1827.3,1526.0 1801.2,1493.1 1776.2,1459.4 1752.5,1424.8 1730.0,1389.4 1708.7,1353.2 1688.8,1316.3 1670.2,1278.7 1652.9,1240.4 1637.0,1201.6 1622.4,1162.1 1609.1,1122.2 1597.1,1081.8 1586.5,1041.0 1577.2,999.9 1569.1,958.4 1562.3,916.8 1556.8,875.0 1552.4,833.1 1549.1,791.2 1547.0,749.4 1545.9,707.8 1545.8,666.4 1546.7,625.2 1548.4,584.5  " style="stroke-opacity: 1.000000; stroke-width: 5.0; stroke: rgb(251,106,74); fill: none"  />
<path d="M 2322.8,1904.3 L 2287.9,1886.6 2253.3,1868.0 2219.0,1848.4 2185.2,1827.8 2152.0,1806.2 2119.6,1783.6 2088.1,1760.0 2057.5,1735.4 2028.1,1709.8 1999.8,1683.4 1972.8,1655.9 1947.2,1627.6 1923.0,1598.4 1900.3,1568.2 1879.1,1537.3 1859.6,1505.5 1841.7,1473.0 1825.6,1439.7 1811.1,1405.7 1798.4,1371.0 1787.5,1335.8 1778.3,1299.9 1771.0,1263.5 1765.3,1226.6 1761.5,1189.4 1759.4,1151.7 1759.0,1113.8 1760.2,1075.6 1763.1,1037.2 1767.6,998.7 1773.6,960.2 1781.0,921.7 1789.9,883.3 1800.0,845.1 1811.4,807.2 1823.8,769.6 1837.3,732.5 1851.8,695.9 1867.0,659.9  " style="stroke-opacity: 1.000000; stroke-width: 5.0; stroke: rgb(251,106,74); fill: none"  />
<path d="M 2322.8,1904.3 L 2286.0,1886.7 2248.6,1869.8 2210.4,1853.6 2171.7,1838.2 2132.4,1823.7 2092.6,1810.3 2052.4,1797.8 2011.8,1786.5 1970.8,1776.4 1929.6,1767.5 1888.1,1759.9 1846.4,1753.7 1804.5,1748.8 1762.6,1745.3 1720.6,1743.2 1678.6,1742.6 1636.6,1743.5 1594.7,1745.8 1552.9,1749.6 1511.3,1754.9 1470.0,1761.7 1428.8,1769.9 1388.0,1779.6 1347.5,1790.8 1307.3,1803.3 1267.6,1817.2 1228.3,1832.4 1189.5,1848.9 1151.2,1866.7 1113.5,1885.6 1076.4,1905.7 1039.9,1926.8 1004.1,1948.9 969.0,1972.0 934.6,1995.8 900.9,2020.4 868.1,2045.6 836.0,2071.4 804.9,2097.7  " style="stroke-opacity: 1.000000; stroke-width: 5.0; stroke: rgb(251,106,74); fill: none"  />
<path d="M 1548.4,584.5 L 1546.7,625.2 1545.8,666.4 1545.9,707.8 1547.0,749.4 1549.1,791.2 1552.4,833.1 1556.8,875.0 1562.3,916.8 1569.1,958.4 1577.2,999.9 1586.5,1041.0 1597.1,1081.8 1609.1,1122.2 1622.4,1162.1 1637.0,1201.6 1652.9,1240.4 1670.2,1278.7 1688.8,1316.3 1708.7,1353.2 1730.0,1389.4 1752.5,1424.8 1776.2,1459.4 1801.2,1493.1 1827.3,1526.0 1854.6,1558.0 1883.0,1589.0 1912.5,1619.2 1942.9,1648.4 1974.3,1676.6 2006.5,1703.8 2039.5,1730.1 2073.3,1755.3 2107.7,1779.6 2142.7,1802.8 2178.1,1825.1 2214.0,1846.3 2250.1,1866.6 2286.4,1885.9 2322.8,1904.3  " style="stroke-opacity: 1.000000; stroke-width: 5.0; stroke: rgb(251,106,74); fill: none"  />
<path d="M 1548.4,584.5 L 1546.6,626.1 1545.5,668.2 1545.4,710.6 1546.1,753.2 1547.7,796.1 1550.4,839.2 1554.0,882.3 1558.8,925.5 1564.6,968.7 1571.5,1011.7 1579.6,1054.7 1588.8,1097.5 1599.2,1140.0 1610.8,1182.2 1623.5,1224.2 1637.5,1265.7 1652.7,1306.8 1669.0,1347.5 1686.6,1387.7 1705.3,1427.4 1725.2,1466.5 1746.2,1505.0 1768.3,1542.8 1791.5,1580.0 1815.7,1616.5 1840.9,1652.3 1867.2,1687.4 1894.3,1721.7 1922.3,1755.3 1951.2,1788.0 1980.8,1819.9 2011.1,1851.0 2042.1,1881.3 2073.6,1910.7 2105.7,1939.2 2138.2,1966.9 2171.0,1993.7 2204.1,2019.6 2237.4,2044.7  " style="stroke-opacity: 1.000000; stroke-width: 5.0; stroke: rgb(251,106,74); fill: none"  />
<path d="M 2237.4,2044.7 L 2204.1,2019.6 2171.0,1993.7 2138.2,1966.9 2105.7,1939.2 2073.6,1910.7 2042.1,1881.3 2011.1,1851.0 1980.8,1819.9 1951.2,1788.0 1922.3,1755.3 1894.3,1721.7 1867.2,1687.4 1840.9,1652.3 1815.7,1616.5 1791.5,1580.0 1768.3,1542.8 1746.2,1505.0 1725.2,1466.5 1705.3,1427.4 1686.6,1387.7 1669.0,1347.5 1652.7,1306.8 1637.5,1265.7 1623.5,1224.2 1610.8,1182.2 1599.2,1140.0 1588.8,1097.5 1579.6,1054.7 1571.5,1011.7 1564.6,968.7 1558.8,925.5 1554.0,882.3 1550.4,839.2 1547.7,796.1 1546.1,753.2 1545.4,710.6 1545.5,668.2 1546.6,626.1 1548.4,584.5  " style="stroke-opacity: 1.000000; stroke-width: 5.0; stroke: rgb(251,106,74); fill: none"  />
<path d="M 2237.4,2044.7 L 2205.0,2021.4 2171.9,1998.6 2137.9,1976.6 2103.3,1955.3 2068.0,1935.0 2032.1,1915.7 1995.6,1897.5 1958.6,1880.5 1921.1,1864.7 1883.1,1850.3 1844.9,1837.3 1806.2,1825.8 1767.3,1815.8 1728.2,1807.3 1688.8,1800.4 1649.4,1795.2 1609.8,1791.6 1570.2,1789.7 1530.5,1789.5 1490.9,1790.9 1451.4,1794.1 1412.1,1798.9 1372.8,1805.4 1333.9,1813.6 1295.1,1823.3 1256.7,1834.6 1218.7,1847.5 1181.0,1861.9 1143.8,1877.7 1107.0,1894.8 1070.8,1913.3 1035.1,1933.0 1000.1,1953.9 965.7,1975.8 932.0,1998.7 899.0,2022.4 866.8,2046.9 835.4,2072.0 804.9,2097.7  " style="stroke-opacity: 1.000000; stroke-width: 5.0; stroke: rgb(251,106,74); fill: none"  />
<path d="M 2128.3,2167.6 L 2100.7,2137.7 2073.4,2106.8 2046.8,2075.1 2020.7,2042.6 1995.3,2009.3 1970.7,1975.3 1947.0,1940.5 1924.3,1905.0 1902.6,1868.8 1882.0,1832.0 1862.5,1794.5 1844.3,1756.5 1827.3,1718.0 1811.6,1678.9 1797.3,1639.3 1784.4,1599.4 1772.9,1559.0 1762.8,1518.3 1754.2,1477.2 1747.0,1435.9 1741.3,1394.4 1737.1,1352.6 1734.4,1310.7 1733.1,1268.7 1733.3,1226.7 1734.9,1184.6 1737.9,1142.6 1742.3,1100.7 1748.0,1058.9 1755.0,1017.2 1763.3,975.9 1772.7,934.8 1783.4,894.0 1795.0,853.7 1807.7,813.8 1821.3,774.4 1835.8,735.6 1851.1,697.4 1867.0,659.9  " style="stroke-opacity: 1.000000; stroke-width: 5.0; stroke: rgb(251,106,74); fill: none"  />
<path d="M 2128.3,2167.6 L 2101.2,2139.5 2073.2,2111.9 2044.3,2084.8 2014.7,2058.6 1984.3,2033.3 1953.1,2008.9 1921.3,1985.7 1888.9,1963.7 1855.8,1943.1 1822.2,1923.8 1788.0,1906.1 1753.4,1889.9 1718.3,1875.4 1682.9,1862.5 1647.1,1851.4 1611.0,1842.1 1574.6,1834.6 1538.0,1828.9 1501.3,1825.1 1464.4,1823.1 1427.5,1823.1 1390.5,1824.9 1353.6,1828.5 1316.7,1834.0 1279.9,1841.2 1243.3,1850.3 1206.9,1861.1 1170.8,1873.5 1135.0,1887.5 1099.5,1903.1 1064.4,1920.2 1029.8,1938.6 995.7,1958.3 962.2,1979.2 929.3,2001.2 897.1,2024.2 865.5,2048.0 834.8,2072.6 804.9,2097.7  " style="stroke-opacity: 1.000000; stroke-width: 5.0; stroke: rgb(251,106,74); fill: none"  />
<path d="M 2128.3,2167.6 L 2100.6,2138.9 2072.0,2110.6 2042.6,2082.8 2012.3,2055.7 1981.2,2029.4 1949.3,2004.0 1916.6,1979.6 1883.2,1956.3 1849.2,1934.1 1814.4,1913.1 1779.1,1893.5 1743.1,1875.2 1706.6,1858.4 1669.6,1843.1 1632.2,1829.3 1594.2,1817.1 1555.9,1806.5 1517.3,1797.6 1478.3,1790.3 1439.1,1784.7 1399.7,1780.7 1360.1,1778.4 1320.4,1777.8 1280.5,1778.9 1240.7,1781.5 1200.9,1785.8 1161.1,1791.7 1121.5,1799.1 1082.1,1808.0 1042.8,1818.3 1003.9,1830.0 965.3,1843.1 927.1,1857.3 889.3,1872.7 852.1,1889.2 815.4,1906.7 779.3,1925.0 743.9,1944.2 709.3,1964.0  " style="stroke-opacity: 1.000000; stroke-width: 5.0; stroke: rgb(251,106,74); fill: none"  />
<path d="M 2128.3,2167.6 L 2100.0,2138.2 2070.9,2109.2 2040.9,2080.6 2010.0,2052.6 1978.3,2025.3 1945.8,1998.7 1912.5,1972.9 1878.5,1948.1 1843.7,1924.2 1808.2,1901.4 1772.0,1879.7 1735.1,1859.2 1697.7,1839.9 1659.6,1821.9 1621.0,1805.2 1581.9,1789.9 1542.3,1775.9 1502.3,1763.4 1461.9,1752.3 1421.0,1742.7 1379.9,1734.5 1338.5,1727.7 1296.9,1722.4 1255.0,1718.6 1213.0,1716.3 1170.9,1715.3 1128.8,1715.8 1086.7,1717.6 1044.6,1720.8 1002.7,1725.2 960.9,1731.0 919.3,1737.9 878.0,1746.1 837.0,1755.3 796.4,1765.5 756.3,1776.7 716.6,1788.8 677.6,1801.7 639.2,1815.3  " style="stroke-opacity: 1.000000; stroke-width: 5.0; stroke: rgb(251,106,74); fill: none"  />
<path d="M 1867.0,659.9 L 1851.8,695.9 1837.3,732.5 1823.8,769.6 1811.4,807.2 1800.0,845.1 1789.9,883.3 1781.0,921.7 1773.6,960.2 1767.6,998.7 1763.1,1037.2 1760.2,1075.6 1759.0,1113.8 1759.4,1151.7 1761.5,1189.4 1765.3,1226.6 1771.0,1263.5 1778.3,1299.9 1787.5,1335.8 1798.4,1371.0 1811.1,1405.7 1825.6,1439.7 1841.7,1473.0 1859.6,1505.5 1879.1,1537.3 1900.3,1568.2 1923.0,1598.4 1947.2,1627.6 1972.8,1655.9 1999.8,1683.4 2028.1,1709.8 2057.5,1735.4 2088.1,1760.0 2119.6,1783.6 2152.0,1806.2 2185.2,1827.8 2219.0,1848.4 2253.3,1868.0 2287.9,1886.6 2322.8,1904.3  " style="stroke-opacity: 1.000000; stroke-width: 5.0; stroke: rgb(251,106,74); fill: none"  />
<path d="M 1867.0,659.9 L 1851.1,697.4 1835.8,735.6 1821.3,774.4 1807.7,813.8 1795.0,853.7 1783.4,894.0 1772.7,934.8 1763.3,975.9 1755.0,1017.2 1748.0,1058.9 1742.3,1100.7 1737.9,1142.6 1734.9,1184.6 1733.3,1226.7 1733.1,1268.7 1734.4,1310.7 1737.1,1352.6 1741.3,1394.4 1747.0,1435.9 1754.2,1477.2 1762.8,1518.3 1772.9,1559.0 1784.4,1599.4 1797.3,1639.3 1811.6,1678.9 1827.3,1718.0 1844.3,1756.5 1862.5,1794.5 1882.0,1832.0 1902.6,1868.8 1924.3,1905.0 1947.0,1940.5 1970.7,1975.3 1995.3,2009.3 2020.7,2042.6 2046.8,2075.1 2073.4,2106.8 2100.7,2137.7 2128.3,2167.6  " style="stroke-opacity: 1.000000; stroke-width: 5.0; stroke: rgb(251,106,74); fill: none"  />
<path d="M 1867.0,659.9 L 1849.3,700.8 1831.9,742.1 1814.9,783.9 1798.1,826.0 1781.7,868.6 1765.7,911.5 1750.0,954.7 1734.9,998.3 1720.1,1042.2 1705.8,1086.5 1692.1,1131.0 1678.8,1175.7 1666.0,1220.8 1653.8,1266.0 1642.2,1311.5 1631.1,1357.2 1620.5,1403.0 1610.6,1449.1 1601.2,1495.2 1592.4,1541.5 1584.2,1587.9 1576.6,1634.4 1569.7,1680.9 1563.3,1727.5 1557.5,1774.1 1552.3,1820.6 1547.6,1867.2 1543.6,1913.7 1540.1,1960.2 1537.2,2006.6 1534.8,2052.8 1533.0,2099.0 1531.7,2144.9 1530.9,2190.7 1530.6,2236.3 1530.8,2281.7 1531.4,2326.8 1532.4,2371.6 1533.9,2416.1  " style="stroke-opacity: 1.000000; stroke-width: 5.0; stroke: rgb(251,106,74); fill: none"  />
<path d="M 1999.0,2269.1 L 1978.5,2238.3 1957.3,2207.9 1935.3,2178.2 1912.8,2149.3 1889.6,2121.5 1865.9,2094.8 1841.7,2069.5 1817.1,2045.7 1792.0,2023.4 1766.6,2002.9 1740.8,1984.3 1714.8,1967.5 1688.5,1952.8 1662.1,1940.2 1635.5,1929.8 1608.8,1921.6 1582.1,1915.6 1555.3,1912.0 1528.5,1910.6 1501.9,1911.6 1475.3,1914.9 1448.9,1920.6 1422.6,1928.5 1396.6,1938.6 1370.9,1951.0 1345.4,1965.5 1320.3,1982.1 1295.6,2000.7 1271.3,2021.2 1247.4,2043.6 1224.1,2067.6 1201.3,2093.2 1179.0,2120.2 1157.3,2148.6 1136.3,2178.0 1115.9,2208.5 1096.3,2239.7 1077.4,2271.6 1059.2,2303.8  " style="stroke-opacity: 1.000000; stroke-width: 5.0; stroke: rgb(251,106,74); fill: none"  />
<path d="M 1999.0,2269.1 L 1978.1,2237.8 1956.4,2206.9 1933.9,2176.6 1910.7,2147.1 1886.7,2118.5 1862.0,2091.1 1836.7,2064.9 1810.7,2040.1 1784.1,2016.7 1757.0,1995.0 1729.4,1975.0 1701.3,1956.8 1672.8,1940.5 1643.8,1926.1 1614.6,1913.8 1585.0,1903.6 1555.2,1895.5 1525.1,1889.5 1494.9,1885.7 1464.5,1884.1 1434.0,1884.7 1403.5,1887.4 1372.9,1892.4 1342.4,1899.4 1312.0,1908.6 1281.8,1919.8 1251.7,1933.0 1221.8,1948.2 1192.3,1965.2 1163.0,1983.9 1134.1,2004.3 1105.7,2026.3 1077.7,2049.7 1050.3,2074.3 1023.4,2100.2 997.2,2127.1 971.6,2154.8 946.8,2183.3 922.8,2212.2  " style="stroke-opacity: 1.000000; stroke-width: 5.0; stroke: rgb(251,106,74); fill: none"  />
<path d="M 1999.0,2269.1 L 1977.7,2237.2 1955.6,2205.7 1932.5,2174.7 1908.6,2144.5 1883.9,2115.1 1858.3,2086.7 1832.0,2059.4 1804.9,2033.4 1777.0,2008.7 1748.5,1985.5 1719.3,1963.8 1689.5,1943.8 1659.0,1925.5 1628.1,1909.0 1596.5,1894.4 1564.6,1881.6 1532.1,1870.8 1499.3,1862.0 1466.1,1855.2 1432.6,1850.3 1398.9,1847.6 1364.9,1846.8 1330.7,1848.0 1296.4,1851.3 1262.1,1856.5 1227.7,1863.6 1193.4,1872.6 1159.1,1883.4 1125.0,1896.0 1091.1,1910.2 1057.4,1926.1 1024.1,1943.4 991.1,1962.2 958.6,1982.3 926.6,2003.5 895.1,2025.8 864.3,2049.1 834.2,2073.1 804.9,2097.7  " style="stroke-opacity: 1.000000; stroke-width: 5.0; stroke: rgb(251,106,74); fill: none"  />
<path d="M 1999.0,2269.1 L 1977.3,2236.6 1954.7,2204.4 1931.2,2172.6 1906.7,2141.5 1881.3,2111.2 1855.0,2081.7 1827.8,2053.1 1799.8,2025.7 1771.0,1999.5 1741.3,1974.6 1710.9,1951.0 1679.7,1928.9 1647.8,1908.3 1615.2,1889.4 1582.0,1872.0 1548.1,1856.4 1513.7,1842.5 1478.7,1830.4 1443.2,1820.1 1407.3,1811.6 1371.0,1804.9 1334.3,1800.1 1297.3,1797.1 1260.0,1795.9 1222.5,1796.5 1184.9,1798.8 1147.2,1802.9 1109.4,1808.7 1071.6,1816.1 1033.9,1825.1 996.4,1835.6 959.1,1847.6 922.0,1860.9 885.3,1875.5 849.0,1891.3 813.1,1908.1 777.9,1925.9 743.2,1944.6 709.3,1964.0  " style="stroke-opacity: 1.000000; stroke-width: 5.0; stroke: rgb(251,106,74); fill: none"  />
<path d="M 1999.0,2269.1 L 1976.9,2235.9 1953.8,2202.9 1929.8,2170.3 1904.8,2138.3 1878.9,2106.9 1852.1,2076.2 1824.3,2046.3 1795.6,2017.3 1766.1,1989.4 1735.6,1962.6 1704.3,1937.0 1672.2,1912.6 1639.3,1889.6 1605.6,1867.9 1571.2,1847.6 1536.1,1828.9 1500.3,1811.6 1463.9,1795.9 1426.9,1781.8 1389.3,1769.2 1351.2,1758.3 1312.6,1749.0 1273.6,1741.3 1234.3,1735.2 1194.6,1730.7 1154.7,1727.8 1114.5,1726.5 1074.2,1726.7 1033.8,1728.4 993.3,1731.6 952.9,1736.1 912.6,1742.1 872.5,1749.3 832.6,1757.7 793.0,1767.3 753.8,1777.9 715.0,1789.5 676.8,1802.0 639.2,1815.3  " style="stroke-opacity: 1.000000; stroke-width: 5.0; stroke: rgb(251,106,74); fill: none"  />
<path d="M 1059.2,2303.8 L 1077.4,2271.6 1096.3,2239.7 1115.9,2208.5 1136.3,2178.0 1157.3,2148.6 1179.0,2120.2 1201.3,2093.2 1224.1,2067.6 1247.4,2043.6 1271.3,2021.2 1295.6,2000.7 1320.3,1982.1 1345.4,1965.5 1370.9,1951.0 1396.6,1938.6 1422.6,1928.5 1448.9,1920.6 1475.3,1914.9 1501.9,1911.6 1528.5,1910.6 1555.3,1912.0 1582.1,1915.6 1608.8,1921.6 1635.5,1929.8 1662.1,1940.2 1688.5,1952.8 1714.8,1967.5 1740.8,1984.3 1766.6,2002.9 1792.0,2023.4 1817.1,2045.7 1841.7,2069.5 1865.9,2094.8 1889.6,2121.5 1912.8,2149.3 1935.3,2178.2 1957.3,2207.9 1978.5,2238.3 1999.0,2269.1  " style="stroke-opacity: 1.000000; stroke-width: 5.0; stroke: rgb(251,106,74); fill: none"  />
<path d="M 1059.2,2303.8 L 1076.8,2272.4 1094.9,2241.4 1113.4,2211.0 1132.4,2181.5 1151.6,2153.1 1171.1,2125.9 1190.9,2100.1 1210.8,2075.9 1230.8,2053.4 1250.8,2032.8 1270.9,2014.2 1290.9,1997.6 1310.9,1983.3 1330.7,1971.2 1350.3,1961.5 1369.8,1954.1 1389.0,1949.2 1407.9,1946.9 1426.5,1947.0 1444.8,1949.6 1462.7,1954.7 1480.2,1962.3 1497.2,1972.4 1513.8,1984.9 1529.9,1999.8 1545.6,2017.0 1560.7,2036.3 1575.2,2057.8 1589.2,2081.4 1602.7,2106.8 1615.6,2134.0 1627.9,2162.8 1639.5,2193.1 1650.6,2224.7 1661.1,2257.4 1671.0,2291.0 1680.2,2325.4 1688.9,2360.2 1696.9,2395.4  " style="stroke-opacity: 1.000000; stroke-width: 5.0; stroke: rgb(251,106,74); fill: none"  />
<path d="M 922.8,2212.2 L 946.8,2183.3 971.6,2154.8 997.2,2127.1 1023.4,2100.2 1050.3,2074.3 1077.7,2049.7 1105.7,2026.3 1134.1,2004.3 1163.0,1983.9 1192.3,1965.2 1221.8,1948.2 1251.7,1933.0 1281.8,1919.8 1312.0,1908.6 1342.4,1899.4 1372.9,1892.4 1403.5,1887.4 1434.0,1884.7 1464.5,1884.1 1494.9,1885.7 1525.1,1889.5 1555.2,1895.5 1585.0,1903.6 1614.6,1913.8 1643.8,1926.1 1672.8,1940.5 1701.3,1956.8 1729.4,1975.0 1757.0,1995.0 1784.1,2016.7 1810.7,2040.1 1836.7,2064.9 1862.0,2091.1 1886.7,2118.5 1910.7,2147.1 1933.9,2176.6 1956.4,2206.9 1978.1,2237.8 1999.0,2269.1  " style="stroke-opacity: 1.000000; stroke-width: 5.0; stroke: rgb(251,106,74); fill: none"  />
<path d="M 922.8,2212.2 L 946.0,2184.1 969.8,2156.5 994.1,2129.7 1018.8,2103.8 1043.8,2079.0 1069.0,2055.4 1094.4,2033.3 1119.9,2012.8 1145.4,1993.9 1170.9,1976.9 1196.3,1961.8 1221.5,1948.8 1246.5,1937.8 1271.3,1929.0 1295.7,1922.5 1319.7,1918.3 1343.3,1916.4 1366.4,1916.9 1389.0,1919.7 1411.1,1924.9 1432.6,1932.5 1453.5,1942.5 1473.8,1954.8 1493.4,1969.3 1512.2,1986.1 1530.4,2005.0 1547.9,2026.0 1564.5,2049.0 1580.5,2073.8 1595.6,2100.5 1610.0,2128.7 1623.6,2158.5 1636.4,2189.7 1648.4,2222.0 1659.6,2255.4 1670.1,2289.6 1679.8,2324.5 1688.7,2359.8 1696.9,2395.4  " style="stroke-opacity: 1.000000; stroke-width: 5.0; stroke: rgb(251,106,74); fill: none"  />
<path d="M 1853.6,2345.8 L 1835.7,2302.9 1817.9,2259.8 1800.1,2216.7 1782.3,2173.5 1764.6,2130.1 1747.0,2086.7 1729.5,2043.2 1712.1,1999.6 1694.7,1956.0 1677.4,1912.2 1660.2,1868.4 1643.1,1824.5 1626.1,1780.5 1609.2,1736.5 1592.4,1692.4 1575.8,1648.3 1559.2,1604.1 1542.7,1559.8 1526.3,1515.5 1510.1,1471.2 1494.0,1426.8 1478.0,1382.3 1462.1,1337.9 1446.3,1293.4 1430.6,1248.9 1415.1,1204.4 1399.7,1159.8 1384.4,1115.3 1369.2,1070.7 1354.1,1026.2 1339.2,981.6 1324.3,937.1 1309.6,892.5 1295.0,848.0 1280.5,803.5 1266.1,759.1 1251.9,714.6 1237.7,670.2 1223.6,625.9  " style="stroke-opacity: 1.000000; stroke-width: 5.0; stroke: rgb(251,106,74); fill: none"  />
<path d="M 1223.6,625.9 L 1237.7,670.2 1251.9,714.6 1266.1,759.1 1280.5,803.5 1295.0,848.0 1309.6,892.5 1324.3,937.1 1339.2,981.6 1354.1,1026.2 1369.2,1070.7 1384.4,1115.3 1399.7,1159.8 1415.1,1204.4 1430.6,1248.9 1446.3,1293.4 1462.1,1337.9 1478.0,1382.3 1494.0,1426.8 1510.1,1471.2 1526.3,1515.5 1542.7,1559.8 1559.2,1604.1 1575.8,1648.3 1592.4,1692.4 1609.2,1736.5 1626.1,1780.5 1643.1,1824.5 1660.2,1868.4 1677.4,1912.2 1694.7,1956.0 1712.1,1999.6 1729.5,2043.2 1747.0,2086.7 1764.6,2130.1 1782.3,2173.5 1800.1,2216.7 1817.9,2259.8 1835.7,2302.9 1853.6,2345.8  " style="stroke-opacity: 1.000000; stroke-width: 5.0; stroke: rgb(251,106,74); fill: none"  />
<path d="M 1223.6,625.9 L 1236.9,668.4 1249.8,711.4 1262.4,754.7 1274.6,798.4 1286.4,842.4 1297.8,886.8 1308.8,931.4 1319.3,976.4 1329.4,1021.6 1338.9,1067.1 1347.9,1112.8 1356.4,1158.7 1364.3,1204.8 1371.7,1251.1 1378.5,1297.6 1384.7,1344.2 1390.4,1390.9 1395.4,1437.7 1399.9,1484.6 1403.7,1531.5 1407.0,1578.5 1409.6,1625.5 1411.7,1672.5 1413.1,1719.5 1414.0,1766.5 1414.2,1813.3 1413.9,1860.1 1413.0,1906.8 1411.6,1953.4 1409.6,1999.8 1407.1,2046.1 1404.0,2092.1 1400.5,2138.0 1396.4,2183.6 1391.9,2229.0 1387.0,2274.1 1381.6,2318.9 1375.9,2363.3 1369.8,2407.5  " style="stroke-opacity: 1.000000; stroke-width: 5.0; stroke: rgb(251,106,74); fill: none"  />
<path d="M 1696.9,2395.4 L 1688.9,2360.2 1680.2,2325.4 1671.0,2291.0 1661.1,2257.4 1650.6,2224.7 1639.5,2193.1 1627.9,2162.8 1615.6,2134.0 1602.7,2106.8 1589.2,2081.4 1575.2,2057.8 1560.7,2036.3 1545.6,2017.0 1529.9,1999.8 1513.8,1984.9 1497.2,1972.4 1480.2,1962.3 1462.7,1954.7 1444.8,1949.6 1426.5,1947.0 1407.9,1946.9 1389.0,1949.2 1369.8,1954.1 1350.3,1961.5 1330.7,1971.2 1310.9,1983.3 1290.9,1997.6 1270.9,2014.2 1250.8,2032.8 1230.8,2053.4 1210.8,2075.9 1190.9,2100.1 1171.1,2125.9 1151.6,2153.1 1132.4,2181.5 1113.4,2211.0 1094.9,2241.4 1076.8,2272.4 1059.2,2303.8  " style="stroke-opacity: 1.000000; stroke-width: 5.0; stroke: rgb(251,106,74); fill: none"  />
<path d="M 1696.9,2395.4 L 1688.7,2359.8 1679.8,2324.5 1670.1,2289.6 1659.6,2255.4 1648.4,2222.0 1636.4,2189.7 1623.6,2158.5 1610.0,2128.7 1595.6,2100.5 1580.5,2073.8 1564.5,2049.0 1547.9,2026.0 1530.4,2005.0 1512.2,1986.1 1493.4,1969.3 1473.8,1954.8 1453.5,1942.5 1432.6,1932.5 1411.1,1924.9 1389.0,1919.7 1366.4,1916.9 1343.3,1916.4 1319.7,1918.3 1295.7,1922.5 1271.3,1929.0 1246.5,1937.8 1221.5,1948.8 1196.3,1961.8 1170.9,1976.9 1145.4,1993.9 1119.9,2012.8 1094.4,2033.3 1069.0,2055.4 1043.8,2079.0 1018.8,2103.8 994.1,2129.7 969.8,2156.5 946.0,2184.1 922.8,2212.2  " style="stroke-opacity: 1.000000; stroke-width: 5.0; stroke: rgb(251,106,74); fill: none"  />
<path d="M 1696.9,2395.4 L 1688.6,2355.5 1681.0,2315.0 1674.4,2274.2 1668.7,2232.9 1664.0,2191.3 1660.3,2149.4 1657.8,2107.4 1656.5,2065.3 1656.5,2023.1 1657.6,1980.9 1660.1,1938.8 1664.0,1896.8 1669.2,1855.0 1675.8,1813.4 1683.8,1772.1 1693.2,1731.2 1704.0,1690.6 1716.2,1650.5 1729.9,1610.8 1744.9,1571.7 1761.3,1533.1 1779.1,1495.1 1798.3,1457.7 1818.7,1421.0 1840.4,1385.0 1863.4,1349.7 1887.5,1315.2 1912.8,1281.4 1939.2,1248.5 1966.5,1216.4 1994.8,1185.1 2024.0,1154.7 2054.0,1125.1 2084.8,1096.5 2116.1,1068.8 2148.0,1041.9 2180.3,1016.0 2213.0,991.1 2245.9,967.0  " style="stroke-opacity: 1.000000; stroke-width: 5.0; stroke: rgb(251,106,74); fill: none"  />
<path d="M 1533.9,2416.1 L 1532.4,2371.6 1531.4,2326.8 1530.8,2281.7 1530.6,2236.3 1530.9,2190.7 1531.7,2144.9 1533.0,2099.0 1534.8,2052.8 1537.2,2006.6 1540.1,1960.2 1543.6,1913.7 1547.6,1867.2 1552.3,1820.6 1557.5,1774.1 1563.3,1727.5 1569.7,1680.9 1576.6,1634.4 1584.2,1587.9 1592.4,1541.5 1601.2,1495.2 1610.6,1449.1 1620.5,1403.0 1631.1,1357.2 1642.2,1311.5 1653.8,1266.0 1666.0,1220.8 1678.8,1175.7 1692.1,1131.0 1705.8,1086.5 1720.1,1042.2 1734.9,998.3 1750.0,954.7 1765.7,911.5 1781.7,868.6 1798.1,826.0 1814.9,783.9 1831.9,742.1 1849.3,700.8 1867.0,659.9  " style="stroke-opacity: 1.000000; stroke-width: 5.0; stroke: rgb(251,106,74); fill: none"  />
<path d="M 1533.9,2416.1 L 1532.6,2373.5 1532.1,2330.6 1532.3,2287.2 1533.2,2243.6 1534.9,2199.7 1537.5,2155.6 1541.0,2111.4 1545.4,2067.1 1550.6,2022.7 1556.9,1978.3 1564.1,1934.0 1572.3,1889.7 1581.5,1845.5 1591.7,1801.5 1602.9,1757.6 1615.1,1714.1 1628.4,1670.7 1642.6,1627.7 1657.9,1585.0 1674.2,1542.7 1691.4,1500.7 1709.7,1459.2 1728.9,1418.2 1749.0,1377.6 1770.0,1337.5 1791.9,1298.0 1814.7,1259.1 1838.3,1220.7 1862.6,1182.9 1887.7,1145.8 1913.5,1109.3 1940.0,1073.4 1967.0,1038.3 1994.6,1003.8 2022.7,970.1 2051.2,937.0 2080.1,904.8 2109.3,873.2 2138.8,842.4  " style="stroke-opacity: 1.000000; stroke-width: 5.0; stroke: rgb(251,106,74); fill: none"  />
<path d="M 1533.9,2416.1 L 1532.7,2374.5 1532.4,2332.4 1532.9,2290.0 1534.2,2247.4 1536.6,2204.5 1539.9,2161.5 1544.2,2118.4 1549.6,2075.3 1556.1,2032.3 1563.7,1989.3 1572.5,1946.5 1582.4,1903.9 1593.5,1861.5 1605.7,1819.5 1619.2,1777.8 1633.8,1736.4 1649.6,1695.5 1666.6,1655.1 1684.8,1615.2 1704.1,1575.9 1724.6,1537.1 1746.2,1498.9 1768.9,1461.4 1792.7,1424.6 1817.5,1388.5 1843.3,1353.1 1870.1,1318.4 1897.8,1284.6 1926.3,1251.5 1955.7,1219.2 1985.8,1187.7 2016.6,1157.1 2048.0,1127.4 2080.1,1098.5 2112.6,1070.4 2145.5,1043.3 2178.7,1017.0 2212.2,991.6 2245.9,967.0  " style="stroke-opacity: 1.000000; stroke-width: 5.0; stroke: rgb(251,106,74); fill: none"  />
<path d="M 804.9,2097.7 L 836.0,2071.4 868.1,2045.6 900.9,2020.4 934.6,1995.8 969.0,1972.0 1004.1,1948.9 1039.9,1926.8 1076.4,1905.7 1113.5,1885.6 1151.2,1866.7 1189.5,1848.9 1228.3,1832.4 1267.6,1817.2 1307.3,1803.3 1347.5,1790.8 1388.0,1779.6 1428.8,1769.9 1470.0,1761.7 1511.3,1754.9 1552.9,1749.6 1594.7,1745.8 1636.6,1743.5 1678.6,1742.6 1720.6,1743.2 1762.6,1745.3 1804.5,1748.8 1846.4,1753.7 1888.1,1759.9 1929.6,1767.5 1970.8,1776.4 2011.8,1786.5 2052.4,1797.8 2092.6,1810.3 2132.4,1823.7 2171.7,1838.2 2210.4,1853.6 2248.6,1869.8 2286.0,1886.7 2322.8,1904.3  " style="stroke-opacity: 1.000000; stroke-width: 5.0; stroke: rgb(251,106,74); fill: none"  />
<path d="M 804.9,2097.7 L 835.4,2072.0 866.8,2046.9 899.0,2022.4 932.0,1998.7 965.7,1975.8 1000.1,1953.9 1035.1,1933.0 1070.8,1913.3 1107.0,1894.8 1143.8,1877.7 1181.0,1861.9 1218.7,1847.5 1256.7,1834.6 1295.1,1823.3 1333.9,1813.6 1372.8,1805.4 1412.1,1798.9 1451.4,1794.1 1490.9,1790.9 1530.5,1789.5 1570.2,1789.7 1609.8,1791.6 1649.4,1795.2 1688.8,1800.4 1728.2,1807.3 1767.3,1815.8 1806.2,1825.8 1844.9,1837.3 1883.1,1850.3 1921.1,1864.7 1958.6,1880.5 1995.6,1897.5 2032.1,1915.7 2068.0,1935.0 2103.3,1955.3 2137.9,1976.6 2171.9,1998.6 2205.0,2021.4 2237.4,2044.7  " style="stroke-opacity: 1.000000; stroke-width: 5.0; stroke: rgb(251,106,74); fill: none"  />
<path d="M 804.9,2097.7 L 834.8,2072.6 865.5,2048.0 897.1,2024.2 929.3,2001.2 962.2,1979.2 995.7,1958.3 1029.8,1938.6 1064.4,1920.2 1099.5,1903.1 1135.0,1887.5 1170.8,1873.5 1206.9,1861.1 1243.3,1850.3 1279.9,1841.2 1316.7,1834.0 1353.6,1828.5 1390.5,1824.9 1427.5,1823.1 1464.4,1823.1 1501.3,1825.1 1538.0,1828.9 1574.6,1834.6 1611.0,1842.1 1647.1,1851.4 1682.9,1862.5 1718.3,1875.4 1753.4,1889.9 1788.0,1906.1 1822.2,1923.8 1855.8,1943.1 1888.9,1963.7 1921.3,1985.7 1953.1,2008.9 1984.3,2033.3 2014.7,2058.6 2044.3,2084.8 2073.2,2111.9 2101.2,2139.5 2128.3,2167.6  " style="stroke-opacity: 1.000000; stroke-width: 5.0; stroke: rgb(251,106,74); fill: none"  />
<path d="M 804.9,2097.7 L 834.2,2073.1 864.3,2049.1 895.1,2025.8 926.6,2003.5 958.6,1982.3 991.1,1962.2 1024.1,1943.4 1057.4,1926.1 1091.1,1910.2 1125.0,1896.0 1159.1,1883.4 1193.4,1872.6 1227.7,1863.6 1262.1,1856.5 1296.4,1851.3 1330.7,1848.0 1364.9,1846.8 1398.9,1847.6 1432.6,1850.3 1466.1,1855.2 1499.3,1862.0 1532.1,1870.8 1564.6,1881.6 1596.5,1894.4 1628.1,1909.0 1659.0,1925.5 1689.5,1943.8 1719.3,1963.8 1748.5,1985.5 1777.0,2008.7 1804.9,2033.4 1832.0,2059.4 1858.3,2086.7 1883.9,2115.1 1908.6,2144.5 1932.5,2174.7 1955.6,2205.7 1977.7,2237.2 1999.0,2269.1  " style="stroke-opacity: 1.000000; stroke-width: 5.0; stroke: rgb(251,106,74); fill: none"  />
<path d="M 2138.8,842.4 L 2109.3,873.2 2080.1,904.8 2051.2,937.0 2022.7,970.1 1994.6,1003.8 1967.0,1038.3 1940.0,1073.4 1913.5,1109.3 1887.7,1145.8 1862.6,1182.9 1838.3,1220.7 1814.7,1259.1 1791.9,1298.0 1770.0,1337.5 1749.0,1377.6 1728.9,1418.2 1709.7,1459.2 1691.4,1500.7 1674.2,1542.7 1657.9,1585.0 1642.6,1627.7 1628.4,1670.7 1615.1,1714.1 1602.9,1757.6 1591.7,1801.5 1581.5,1845.5 1572.3,1889.7 1564.1,1934.0 1556.9,1978.3 1550.6,2022.7 1545.4,2067.1 1541.0,2111.4 1537.5,2155.6 1534.9,2199.7 1533.2,2243.6 1532.3,2287.2 1532.1,2330.6 1532.6,2373.5 1533.9,2416.1  " style="stroke-opacity: 1.000000; stroke-width: 5.0; stroke: rgb(251,106,74); fill: none"  />
<path d="M 709.3,1964.0 L 743.9,1944.2 779.3,1925.0 815.4,1906.7 852.1,1889.2 889.3,1872.7 927.1,1857.3 965.3,1843.1 1003.9,1830.0 1042.8,1818.3 1082.1,1808.0 1121.5,1799.1 1161.1,1791.7 1200.9,1785.8 1240.7,1781.5 1280.5,1778.9 1320.4,1777.8 1360.1,1778.4 1399.7,1780.7 1439.1,1784.7 1478.3,1790.3 1517.3,1797.6 1555.9,1806.5 1594.2,1817.1 1632.2,1829.3 1669.6,1843.1 1706.6,1858.4 1743.1,1875.2 1779.1,1893.5 1814.4,1913.1 1849.2,1934.1 1883.2,1956.3 1916.6,1979.6 1949.3,2004.0 1981.2,2029.4 2012.3,2055.7 2042.6,2082.8 2072.0,2110.6 2100.6,2138.9 2128.3,2167.6  " style="stroke-opacity: 1.000000; stroke-width: 5.0; stroke: rgb(251,106,74); fill: none"  />
<path d="M 709.3,1964.0 L 743.2,1944.6 777.9,1925.9 813.1,1908.1 849.0,1891.3 885.3,1875.5 922.0,1860.9 959.1,1847.6 996.4,1835.6 1033.9,1825.1 1071.6,1816.1 1109.4,1808.7 1147.2,1802.9 1184.9,1798.8 1222.5,1796.5 1260.0,1795.9 1297.3,1797.1 1334.3,1800.1 1371.0,1804.9 1407.3,1811.6 1443.2,1820.1 1478.7,1830.4 1513.7,1842.5 1548.1,1856.4 1582.0,1872.0 1615.2,1889.4 1647.8,1908.3 1679.7,1928.9 1710.9,1951.0 1741.3,1974.6 1771.0,1999.5 1799.8,2025.7 1827.8,2053.1 1855.0,2081.7 1881.3,2111.2 1906.7,2141.5 1931.2,2172.6 1954.7,2204.4 1977.3,2236.6 1999.0,2269.1  " style="stroke-opacity: 1.000000; stroke-width: 5.0; stroke: rgb(251,106,74); fill: none"  />
<path d="M 639.2,1815.3 L 677.6,1801.7 716.6,1788.8 756.3,1776.7 796.4,1765.5 837.0,1755.3 878.0,1746.1 919.3,1737.9 960.9,1731.0 1002.7,1725.2 1044.6,1720.8 1086.7,1717.6 1128.8,1715.8 1170.9,1715.3 1213.0,1716.3 1255.0,1718.6 1296.9,1722.4 1338.5,1727.7 1379.9,1734.5 1421.0,1742.7 1461.9,1752.3 1502.3,1763.4 1542.3,1775.9 1581.9,1789.9 1621.0,1805.2 1659.6,1821.9 1697.7,1839.9 1735.1,1859.2 1772.0,1879.7 1808.2,1901.4 1843.7,1924.2 1878.5,1948.1 1912.5,1972.9 1945.8,1998.7 1978.3,2025.3 2010.0,2052.6 2040.9,2080.6 2070.9,2109.2 2100.0,2138.2 2128.3,2167.6  " style="stroke-opacity: 1.000000; stroke-width: 5.0; stroke: rgb(251,106,74); fill: none"  />
<path d="M 639.2,1815.3 L 676.8,1802.0 715.0,1789.5 753.8,1777.9 793.0,1767.3 832.6,1757.7 872.5,1749.3 912.6,1742.1 952.9,1736.1 993.3,1731.6 1033.8,1728.4 1074.2,1726.7 1114.5,1726.5 1154.7,1727.8 1194.6,1730.7 1234.3,1735.2 1273.6,1741.3 1312.6,1749.0 1351.2,1758.3 1389.3,1769.2 1426.9,1781.8 1463.9,1795.9 1500.3,1811.6 1536.1,1828.9 1571.2,1847.6 1605.6,1867.9 1639.3,1889.6 1672.2,1912.6 1704.3,1937.0 1735.6,1962.6 1766.1,1989.4 1795.6,2017.3 1824.3,2046.3 1852.1,2076.2 1878.9,2106.9 1904.8,2138.3 1929.8,2170.3 1953.8,2202.9 1976.9,2235.9 1999.0,2269.1  " style="stroke-opacity: 1.000000; stroke-width: 5.0; stroke: rgb(251,106,74); fill: none"  />
<path d="M 1369.8,2407.5 L 1375.9,2363.3 1381.6,2318.9 1387.0,2274.1 1391.9,2229.0 1396.4,2183.6 1400.5,2138.0 1404.0,2092.1 1407.1,2046.1 1409.6,1999.8 1411.6,1953.4 1413.0,1906.8 1413.9,1860.1 1414.2,1813.3 1414.0,1766.5 1413.1,1719.5 1411.7,1672.5 1409.6,1625.5 1407.0,1578.5 1403.7,1531.5 1399.9,1484.6 1395.4,1437.7 1390.4,1390.9 1384.7,1344.2 1378.5,1297.6 1371.7,1251.1 1364.3,1204.8 1356.4,1158.7 1347.9,1112.8 1338.9,1067.1 1329.4,1021.6 1319.3,976.4 1308.8,931.4 1297.8,886.8 1286.4,842.4 1274.6,798.4 1262.4,754.7 1249.8,711.4 1236.9,668.4 1223.6,625.9  " style="stroke-opacity: 1.000000; stroke-width: 5.0; stroke: rgb(251,106,74); fill: none"  />
<path d="M 2245.9,967.0 L 2213.0,991.1 2180.3,1016.0 2148.0,1041.9 2116.1,1068.8 2084.8,1096.5 2054.0,1125.1 2024.0,1154.7 1994.8,1185.1 1966.5,1216.4 1939.2,1248.5 1912.8,1281.4 1887.5,1315.2 1863.4,1349.7 1840.4,1385.0 1818.7,1421.0 1798.3,1457.7 1779.1,1495.1 1761.3,1533.1 1744.9,1571.7 1729.9,1610.8 1716.2,1650.5 1704.0,1690.6 1693.2,1731.2 1683.8,1772.1 1675.8,1813.4 1669.2,1855.0 1664.0,1896.8 1660.1,1938.8 1657.6,1980.9 1656.5,2023.1 1656.5,2065.3 1657.8,2107.4 1660.3,2149.4 1664.0,2191.3 1668.7,2232.9 1674.4,2274.2 1681.0,2315.0 1688.6,2355.5 1696.9,2395.4  " style="stroke-opacity: 1.000000; stroke-width: 5.0; stroke: rgb(251,106,74); fill: none"  />
<path d="M 2245.9,967.0 L 2212.2,991.6 2178.7,1017.0 2145.5,1043.3 2112.6,1070.4 2080.1,1098.5 2048.0,1127.4 2016.6,1157.1 1985.8,1187.7 1955.7,1219.2 1926.3,1251.5 1897.8,1284.6 1870.1,1318.4 1843.3,1353.1 1817.5,1388.5 1792.7,1424.6 1768.9,1461.4 1746.2,1498.9 1724.6,1537.1 1704.1,1575.9 1684.8,1615.2 1666.6,1655.1 1649.6,1695.5 1633.8,1736.4 1619.2,1777.8 1605.7,1819.5 1593.5,1861.5 1582.4,1903.9 1572.5,1946.5 1563.7,1989.3 1556.1,2032.3 1549.6,2075.3 1544.2,2118.4 1539.9,2161.5 1536.6,2204.5 1534.2,2247.4 1532.9,2290.0 1532.4,2332.4 1532.7,2374.5 1533.9,2416.1  " style="stroke-opacity: 1.000000; stroke-width: 5.0; stroke: rgb(251,106,74); fill: none"  />
</g>
<g id="track_0">
<path d="M 2322.8,1904.3 L 2291.1,1888.8 2259.6,1873.6 2228.4,1858.8 2197.8,1844.5 2168.1,1830.9 2139.3,1817.9 2111.6,1805.8 2085.2,1794.7 2060.3,1784.5 2037.0,1775.4 2015.5,1767.4 1995.7,1760.6 1977.9,1755.1 1962.1,1750.8 1948.4,1747.9 1936.9,1746.4 1927.6,1746.2 1920.5,1747.5 1915.7,1750.1 1913.3,1754.2 1913.1,1759.6 1915.3,1766.4 1919.7,1774.6 1926.4,1784.2 1935.2,1795.0 1946.3,1807.1 1959.4,1820.3 1974.5,1834.8 1991.5,1850.3 2010.3,1866.8 2030.8,1884.2 2052.8,1902.4 2076.3,1921.5 2101.0,1941.1 2126.8,1961.3 2153.6,1981.8 2181.1,2002.7 2209.1,2023.7 2237.4,2044.7  " style="stroke-opacity: 1.000000; stroke-width: 5.0; stroke: rgb(107,174,214); fill: none"  />
<path d="M 2322.8,1904.3 L 2290.9,1888.8 2259.1,1873.8 2227.6,1859.3 2196.5,1845.4 2166.1,1832.4 2136.5,1820.3 2107.9,1809.2 2080.5,1799.2 2054.3,1790.3 2029.6,1782.8 2006.4,1776.6 1984.9,1771.8 1965.2,1768.4 1947.3,1766.5 1931.3,1766.2 1917.3,1767.4 1905.4,1770.2 1895.5,1774.6 1887.8,1780.6 1882.2,1788.2 1878.7,1797.3 1877.4,1808.1 1878.2,1820.3 1881.2,1834.0 1886.2,1849.2 1893.3,1865.8 1902.3,1883.6 1913.2,1902.8 1925.9,1923.1 1940.4,1944.5 1956.5,1966.9 1974.2,1990.2 1993.2,2014.3 2013.5,2039.0 2034.9,2064.2 2057.2,2089.9 2080.4,2115.7 2104.1,2141.7 2128.3,2167.6  " style="stroke-opacity: 1.000000; stroke-width: 5.0; stroke: rgb(107,174,214); fill: none"  />
<path d="M 2322.8,1904.3 L 2290.7,1888.8 2258.5,1873.8 2226.5,1859.5 2194.7,1846.0 2163.5,1833.5 2133.0,1822.0 2103.3,1811.7 2074.6,1802.6 2046.9,1794.9 2020.6,1788.6 1995.5,1783.9 1971.9,1780.6 1949.9,1779.0 1929.5,1779.1 1910.9,1780.9 1894.0,1784.4 1878.9,1789.6 1865.7,1796.6 1854.5,1805.3 1845.2,1815.8 1837.9,1828.0 1832.5,1841.9 1829.1,1857.5 1827.6,1874.7 1828.1,1893.4 1830.4,1913.7 1834.6,1935.3 1840.6,1958.4 1848.3,1982.7 1857.7,2008.1 1868.6,2034.7 1881.0,2062.1 1894.8,2090.4 1909.8,2119.3 1925.9,2148.8 1943.1,2178.7 1961.1,2208.8 1979.7,2239.0 1999.0,2269.1  " style="stroke-opacity: 1.000000; stroke-width: 5.0; stroke: rgb(107,174,214); fill: none"  />
<path d="M 2322.8,1904.3 L 2290.3,1888.7 2257.7,1873.7 2225.1,1859.5 2192.6,1846.3 2160.5,1834.1 2128.9,1823.0 2097.9,1813.3 2067.7,1804.9 2038.4,1798.0 2010.2,1792.7 1983.0,1789.0 1957.1,1787.0 1932.6,1786.7 1909.4,1788.2 1887.7,1791.5 1867.6,1796.7 1849.1,1803.8 1832.2,1812.7 1817.1,1823.5 1803.6,1836.1 1792.0,1850.6 1782.0,1866.9 1773.9,1884.9 1767.5,1904.7 1762.8,1926.2 1759.9,1949.2 1758.7,1973.7 1759.2,1999.7 1761.2,2027.0 1764.8,2055.5 1769.9,2085.2 1776.4,2115.8 1784.3,2147.3 1793.4,2179.6 1803.6,2212.3 1814.9,2245.5 1827.0,2279.0 1840.0,2312.5 1853.6,2345.8  " style="stroke-opacity: 1.000000; stroke-width: 5.0; stroke: rgb(107,174,214); fill: none"  />
<path d="M 2322.8,1904.3 L 2289.9,1888.5 2256.7,1873.5 2223.4,1859.3 2190.1,1846.2 2157.0,1834.1 2124.3,1823.4 2091.9,1814.0 2060.2,1806.0 2029.1,1799.6 1998.8,1794.9 1969.4,1791.8 1941.1,1790.5 1913.8,1791.1 1887.6,1793.5 1862.8,1797.8 1839.2,1804.0 1817.0,1812.2 1796.2,1822.4 1776.8,1834.4 1759.0,1848.4 1742.6,1864.4 1727.8,1882.2 1714.6,1901.8 1702.9,1923.2 1692.8,1946.3 1684.3,1971.1 1677.2,1997.5 1671.7,2025.4 1667.7,2054.6 1665.1,2085.2 1663.9,2116.9 1664.1,2149.6 1665.5,2183.3 1668.2,2217.7 1672.0,2252.7 1676.9,2288.1 1682.7,2323.9 1689.4,2359.7 1696.9,2395.4  " style="stroke-opacity: 1.000000; stroke-width: 5.0; stroke: rgb(107,174,214); fill: none"  />
<path d="M 2322.8,1904.3 L 2289.4,1888.3 2255.6,1873.2 2221.6,1858.9 2187.4,1845.7 2153.2,1833.7 2119.2,1822.9 2085.5,1813.6 2052.1,1805.8 2019.1,1799.6 1986.8,1795.0 1955.1,1792.2 1924.2,1791.2 1894.1,1792.0 1864.9,1794.8 1836.8,1799.5 1809.6,1806.1 1783.6,1814.7 1758.8,1825.3 1735.1,1837.9 1712.7,1852.4 1691.6,1868.9 1671.8,1887.3 1653.3,1907.5 1636.2,1929.6 1620.5,1953.4 1606.1,1978.9 1593.0,2006.0 1581.3,2034.7 1571.0,2064.8 1562.0,2096.2 1554.3,2128.8 1547.8,2162.4 1542.5,2197.1 1538.5,2232.5 1535.5,2268.6 1533.7,2305.2 1532.8,2342.1 1532.9,2379.1 1533.9,2416.1  " style="stroke-opacity: 1.000000; stroke-width: 5.0; stroke: rgb(107,174,214); fill: none"  />
<path d="M 2322.8,1904.3 L 2288.8,1888.1 2254.4,1872.7 2219.5,1858.3 2184.5,1844.9 2149.2,1832.7 2113.9,1821.8 2078.7,1812.3 2043.7,1804.3 2008.9,1797.9 1974.5,1793.1 1940.5,1790.1 1907.1,1788.9 1874.2,1789.5 1842.1,1792.0 1810.6,1796.5 1780.0,1802.9 1750.2,1811.2 1721.3,1821.5 1693.4,1833.7 1666.5,1847.9 1640.6,1864.1 1615.8,1882.1 1592.2,1902.0 1569.6,1923.7 1548.2,1947.2 1528.0,1972.3 1508.9,1999.1 1491.1,2027.4 1474.4,2057.2 1458.9,2088.3 1444.6,2120.6 1431.4,2154.0 1419.4,2188.4 1408.5,2223.7 1398.7,2259.7 1390.0,2296.2 1382.3,2333.1 1375.5,2370.3 1369.8,2407.5  " style="stroke-opacity: 1.000000; stroke-width: 5.0; stroke: rgb(107,174,214); fill: none"  />
<path d="M 1548.4,584.5 L 1546.7,619.9 1545.3,655.1 1544.4,689.8 1543.9,723.8 1543.9,756.9 1544.3,788.8 1545.4,819.5 1546.9,848.7 1549.1,876.2 1551.9,901.9 1555.3,925.6 1559.3,947.3 1564.0,966.8 1569.3,984.0 1575.2,998.8 1581.9,1011.2 1589.1,1021.0 1597.1,1028.4 1605.6,1033.1 1614.8,1035.3 1624.6,1034.9 1634.9,1031.9 1645.9,1026.3 1657.3,1018.2 1669.3,1007.6 1681.8,994.6 1694.7,979.3 1708.0,961.7 1721.6,942.0 1735.6,920.3 1749.9,896.7 1764.4,871.3 1779.0,844.4 1793.8,816.0 1808.6,786.4 1823.4,755.8 1838.1,724.3 1852.6,692.3 1867.0,659.9  " style="stroke-opacity: 1.000000; stroke-width: 5.0; stroke: rgb(107,174,214); fill: none"  />
<path d="M 1548.4,584.5 L 1546.7,620.2 1545.6,655.6 1545.1,690.7 1545.1,725.2 1545.9,758.8 1547.3,791.4 1549.5,822.7 1552.4,852.7 1556.2,881.2 1560.8,907.9 1566.3,932.8 1572.6,955.7 1579.8,976.6 1587.8,995.3 1596.8,1011.8 1606.7,1026.0 1617.4,1037.8 1629.0,1047.1 1641.4,1054.0 1654.7,1058.5 1668.8,1060.4 1683.7,1059.9 1699.4,1056.9 1715.8,1051.5 1732.8,1043.7 1750.5,1033.6 1768.8,1021.2 1787.6,1006.7 1806.9,990.0 1826.7,971.4 1846.8,950.9 1867.1,928.7 1887.7,905.0 1908.4,879.8 1929.2,853.3 1950.0,825.8 1970.6,797.5 1991.0,768.4 2011.1,738.9  " style="stroke-opacity: 1.000000; stroke-width: 5.0; stroke: rgb(107,174,214); fill: none"  />
<path d="M 2237.4,2044.7 L 2209.1,2023.7 2181.1,2002.7 2153.6,1981.8 2126.8,1961.3 2101.0,1941.1 2076.3,1921.5 2052.8,1902.4 2030.8,1884.2 2010.3,1866.8 1991.5,1850.3 1974.5,1834.8 1959.4,1820.3 1946.3,1807.1 1935.2,1795.0 1926.4,1784.2 1919.7,1774.6 1915.3,1766.4 1913.1,1759.6 1913.3,1754.2 1915.7,1750.1 1920.5,1747.5 1927.6,1746.2 1936.9,1746.4 1948.4,1747.9 1962.1,1750.8 1977.9,1755.1 1995.7,1760.6 2015.5,1767.4 2037.0,1775.4 2060.3,1784.5 2085.2,1794.7 2111.6,1805.8 2139.3,1817.9 2168.1,1830.9 2197.8,1844.5 2228.4,1858.8 2259.6,1873.6 2291.1,1888.8 2322.8,1904.3  " style="stroke-opacity: 1.000000; stroke-width: 5.0; stroke: rgb(107,174,214); fill: none"  />
<path d="M 2237.4,2044.7 L 2209.0,2023.8 2180.7,2003.2 2152.6,1983.1 2125.1,1963.6 2098.3,1944.8 2072.2,1927.0 2047.2,1910.1 2023.2,1894.4 2000.5,1880.0 1979.2,1866.8 1959.4,1855.1 1941.2,1844.9 1924.7,1836.3 1909.9,1829.3 1896.9,1824.0 1885.9,1820.4 1876.7,1818.6 1869.6,1818.6 1864.4,1820.3 1861.3,1823.9 1860.1,1829.2 1861.0,1836.3 1863.9,1845.2 1868.8,1855.7 1875.6,1868.0 1884.3,1881.8 1894.8,1897.2 1907.1,1914.1 1921.0,1932.4 1936.6,1952.0 1953.7,1972.8 1972.1,1994.7 1991.8,2017.6 2012.6,2041.3 2034.4,2065.8 2057.1,2090.8 2080.4,2116.2 2104.2,2141.9 2128.3,2167.6  " style="stroke-opacity: 1.000000; stroke-width: 5.0; stroke: rgb(107,174,214); fill: none"  />
<path d="M 2237.4,2044.7 L 2208.8,2023.8 2180.2,2003.3 2151.7,1983.4 2123.6,1964.2 2096.0,1946.0 2069.1,1928.8 2042.9,1912.7 2017.7,1898.0 1993.6,1884.6 1970.6,1872.8 1948.9,1862.6 1928.6,1854.0 1909.8,1847.1 1892.5,1842.1 1876.8,1838.9 1862.9,1837.6 1850.6,1838.2 1840.1,1840.8 1831.4,1845.3 1824.6,1851.8 1819.5,1860.2 1816.3,1870.5 1815.0,1882.7 1815.4,1896.7 1817.7,1912.5 1821.6,1930.1 1827.3,1949.3 1834.6,1970.1 1843.6,1992.4 1854.0,2016.0 1865.8,2040.9 1879.0,2067.0 1893.5,2094.1 1909.0,2122.0 1925.5,2150.7 1943.0,2179.9 1961.1,2209.5 1979.8,2239.3 1999.0,2269.1  " style="stroke-opacity: 1.000000; stroke-width: 5.0; stroke: rgb(107,174,214); fill: none"  />
<path d="M 2237.4,2044.7 L 2208.2,2023.6 2178.8,2003.0 2149.2,1983.2 2119.6,1964.4 2090.2,1946.6 2061.1,1930.1 2032.4,1915.0 2004.2,1901.4 1976.6,1889.4 1949.7,1879.1 1923.7,1870.6 1898.6,1864.0 1874.4,1859.3 1851.4,1856.7 1829.5,1856.1 1808.7,1857.6 1789.2,1861.2 1771.1,1867.0 1754.2,1874.9 1738.7,1884.9 1724.7,1897.1 1712.0,1911.4 1700.7,1927.7 1690.9,1946.0 1682.5,1966.2 1675.5,1988.4 1670.0,2012.3 1665.8,2037.9 1662.9,2065.2 1661.4,2093.9 1661.1,2124.0 1662.0,2155.3 1664.1,2187.7 1667.3,2221.0 1671.5,2255.1 1676.7,2289.8 1682.7,2324.8 1689.5,2360.1 1696.9,2395.4  " style="stroke-opacity: 1.000000; stroke-width: 5.0; stroke: rgb(107,174,214); fill: none"  />
<path d="M 1711.1,607.9 L 1703.0,642.2 1695.2,676.3 1687.7,710.0 1680.6,743.0 1673.9,775.1 1667.7,806.0 1662.1,835.7 1657.0,863.9 1652.6,890.4 1649.0,915.2 1646.0,938.0 1643.8,958.7 1642.3,977.3 1641.7,993.7 1641.9,1007.7 1643.0,1019.3 1644.9,1028.4 1647.7,1035.0 1651.3,1039.0 1655.8,1040.5 1661.2,1039.5 1667.4,1035.9 1674.4,1029.7 1682.2,1021.1 1690.7,1010.0 1700.1,996.6 1710.1,980.9 1720.8,962.9 1732.1,942.9 1744.0,920.9 1756.4,897.0 1769.3,871.5 1782.6,844.4 1796.3,815.9 1810.2,786.2 1824.3,755.6 1838.5,724.2 1852.8,692.2 1867.0,659.9  " style="stroke-opacity: 1.000000; stroke-width: 5.0; stroke: rgb(107,174,214); fill: none"  />
<path d="M 1711.1,607.9 L 1703.1,643.0 1695.7,678.2 1689.2,713.1 1683.5,747.7 1678.7,781.7 1675.0,815.0 1672.4,847.4 1671.0,878.7 1670.8,908.7 1671.8,937.5 1674.3,964.8 1678.1,990.5 1683.3,1014.5 1689.9,1036.7 1698.0,1057.1 1707.5,1075.6 1718.5,1092.1 1730.9,1106.5 1744.8,1118.9 1760.1,1129.2 1776.8,1137.4 1794.9,1143.4 1814.4,1147.3 1835.1,1149.2 1857.0,1148.9 1880.1,1146.6 1904.3,1142.4 1929.5,1136.2 1955.7,1128.1 1982.7,1118.2 2010.5,1106.6 2038.9,1093.5 2067.8,1078.8 2097.2,1062.8 2126.9,1045.5 2156.8,1027.1 2186.7,1007.8 2216.4,987.7 2245.9,967.0  " style="stroke-opacity: 1.000000; stroke-width: 5.0; stroke: rgb(107,174,214); fill: none"  />
<path d="M 2128.3,2167.6 L 2104.1,2141.7 2080.4,2115.7 2057.2,2089.9 2034.9,2064.2 2013.5,2039.0 1993.2,2014.3 1974.2,1990.2 1956.5,1966.9 1940.4,1944.5 1925.9,1923.1 1913.2,1902.8 1902.3,1883.6 1893.3,1865.8 1886.2,1849.2 1881.2,1834.0 1878.2,1820.3 1877.4,1808.1 1878.7,1797.3 1882.2,1788.2 1887.8,1780.6 1895.5,1774.6 1905.4,1770.2 1917.3,1767.4 1931.3,1766.2 1947.3,1766.5 1965.2,1768.4 1984.9,1771.8 2006.4,1776.6 2029.6,1782.8 2054.3,1790.3 2080.5,1799.2 2107.9,1809.2 2136.5,1820.3 2166.1,1832.4 2196.5,1845.4 2227.6,1859.3 2259.1,1873.8 2290.9,1888.8 2322.8,1904.3  " style="stroke-opacity: 1.000000; stroke-width: 5.0; stroke: rgb(107,174,214); fill: none"  />
<path d="M 2128.3,2167.6 L 2104.2,2141.9 2080.4,2116.2 2057.1,2090.8 2034.4,2065.8 2012.6,2041.3 1991.8,2017.6 1972.1,1994.7 1953.7,1972.8 1936.6,1952.0 1921.0,1932.4 1907.1,1914.1 1894.8,1897.2 1884.3,1881.8 1875.6,1868.0 1868.8,1855.7 1863.9,1845.2 1861.0,1836.3 1860.1,1829.2 1861.3,1823.9 1864.4,1820.3 1869.6,1818.6 1876.7,1818.6 1885.9,1820.4 1896.9,1824.0 1909.9,1829.3 1924.7,1836.3 1941.2,1844.9 1959.4,1855.1 1979.2,1866.8 2000.5,1880.0 2023.2,1894.4 2047.2,1910.1 2072.2,1927.0 2098.3,1944.8 2125.1,1963.6 2152.6,1983.1 2180.7,2003.2 2209.0,2023.8 2237.4,2044.7  " style="stroke-opacity: 1.000000; stroke-width: 5.0; stroke: rgb(107,174,214); fill: none"  />
<path d="M 2128.3,2167.6 L 2104.0,2142.0 2079.9,2116.7 2055.9,2091.9 2032.3,2067.8 2009.2,2044.5 1986.8,2022.3 1965.1,2001.2 1944.4,1981.5 1924.7,1963.2 1906.0,1946.5 1888.6,1931.4 1872.5,1918.2 1857.8,1906.7 1844.5,1897.2 1832.7,1889.7 1822.4,1884.2 1813.8,1880.8 1806.7,1879.4 1801.3,1880.2 1797.6,1883.2 1795.6,1888.2 1795.2,1895.4 1796.4,1904.6 1799.3,1915.9 1803.8,1929.1 1809.9,1944.3 1817.5,1961.3 1826.6,1980.1 1837.1,2000.6 1848.9,2022.7 1861.9,2046.2 1876.2,2071.0 1891.5,2097.1 1907.7,2124.1 1924.8,2152.1 1942.6,2180.8 1961.0,2209.9 1979.8,2239.4 1999.0,2269.1  " style="stroke-opacity: 1.000000; stroke-width: 5.0; stroke: rgb(107,174,214); fill: none"  />
<path d="M 2128.3,2167.6 L 2103.9,2141.9 2079.4,2116.7 2055.0,2092.0 2030.7,2068.1 2006.8,2045.2 1983.4,2023.5 1960.5,2003.0 1938.3,1984.0 1917.0,1966.6 1896.5,1950.8 1877.0,1936.9 1858.5,1924.8 1841.2,1914.7 1825.1,1906.7 1810.3,1900.8 1796.8,1897.0 1784.6,1895.4 1773.8,1896.1 1764.5,1899.0 1756.5,1904.1 1750.1,1911.5 1745.1,1921.0 1741.6,1932.8 1739.5,1946.7 1738.9,1962.6 1739.7,1980.6 1741.8,2000.5 1745.3,2022.3 1750.1,2045.8 1756.2,2070.9 1763.4,2097.6 1771.7,2125.5 1781.1,2154.8 1791.4,2185.0 1802.5,2216.2 1814.4,2248.0 1827.0,2280.4 1840.1,2313.1 1853.6,2345.8  " style="stroke-opacity: 1.000000; stroke-width: 5.0; stroke: rgb(107,174,214); fill: none"  />
<path d="M 2128.3,2167.6 L 2103.0,2141.3 2077.2,2115.6 2051.0,2090.6 2024.5,2066.6 1997.7,2043.7 1970.8,2022.1 1943.9,2001.9 1916.9,1983.3 1890.1,1966.4 1863.4,1951.3 1837.0,1938.1 1810.9,1927.0 1785.1,1917.9 1759.8,1911.0 1735.0,1906.3 1710.7,1903.8 1687.0,1903.7 1664.0,1905.9 1641.7,1910.4 1620.0,1917.2 1599.1,1926.4 1579.0,1937.8 1559.7,1951.6 1541.3,1967.5 1523.7,1985.6 1507.0,2005.8 1491.1,2028.1 1476.2,2052.2 1462.1,2078.2 1449.0,2105.9 1436.7,2135.1 1425.4,2165.9 1414.9,2197.9 1405.3,2231.0 1396.6,2265.1 1388.7,2300.0 1381.6,2335.5 1375.3,2371.4 1369.8,2407.5  " style="stroke-opacity: 1.000000; stroke-width: 5.0; stroke: rgb(107,174,214); fill: none"  />
<path d="M 1867.0,659.9 L 1852.6,692.3 1838.1,724.3 1823.4,755.8 1808.6,786.4 1793.8,816.0 1779.0,844.4 1764.4,871.3 1749.9,896.7 1735.6,920.3 1721.6,942.0 1708.0,961.7 1694.7,979.3 1681.8,994.6 1669.3,1007.6 1657.3,1018.2 1645.9,1026.3 1634.9,1031.9 1624.6,1034.9 1614.8,1035.3 1605.6,1033.1 1597.1,1028.4 1589.1,1021.0 1581.9,1011.2 1575.2,998.8 1569.3,984.0 1564.0,966.8 1559.3,947.3 1555.3,925.6 1551.9,901.9 1549.1,876.2 1546.9,848.7 1545.4,819.5 1544.3,788.8 1543.9,756.9 1543.9,723.8 1544.4,689.8 1545.3,655.1 1546.7,619.9 1548.4,584.5  " style="stroke-opacity: 1.000000; stroke-width: 5.0; stroke: rgb(107,174,214); fill: none"  />
<path d="M 1867.0,659.9 L 1852.8,692.2 1838.5,724.2 1824.3,755.6 1810.2,786.2 1796.3,815.9 1782.6,844.4 1769.3,871.5 1756.4,897.0 1744.0,920.9 1732.1,942.9 1720.8,962.9 1710.1,980.9 1700.1,996.6 1690.7,1010.0 1682.2,1021.1 1674.4,1029.7 1667.4,1035.9 1661.2,1039.5 1655.8,1040.5 1651.3,1039.0 1647.7,1035.0 1644.9,1028.4 1643.0,1019.3 1641.9,1007.7 1641.7,993.7 1642.3,977.3 1643.8,958.7 1646.0,938.0 1649.0,915.2 1652.6,890.4 1657.0,863.9 1662.1,835.7 1667.7,806.0 1673.9,775.1 1680.6,743.0 1687.7,710.0 1695.2,676.3 1703.0,642.2 1711.1,607.9  " style="stroke-opacity: 1.000000; stroke-width: 5.0; stroke: rgb(107,174,214); fill: none"  />
<path d="M 1867.0,659.9 L 1852.9,692.3 1839.2,724.4 1825.8,756.2 1812.9,787.4 1800.6,817.8 1788.9,847.1 1778.1,875.3 1768.1,902.1 1759.0,927.5 1751.0,951.1 1744.0,973.1 1738.1,993.1 1733.4,1011.2 1729.9,1027.1 1727.6,1040.9 1726.5,1052.5 1726.8,1061.8 1728.4,1068.8 1731.2,1073.5 1735.4,1075.7 1740.8,1075.6 1747.5,1073.2 1755.5,1068.4 1764.7,1061.3 1775.2,1052.0 1786.7,1040.4 1799.4,1026.7 1813.1,1011.0 1827.9,993.3 1843.5,973.8 1860.0,952.5 1877.2,929.7 1895.2,905.4 1913.7,879.8 1932.7,853.1 1952.0,825.5 1971.6,797.1 1991.3,768.2 2011.1,738.9  " style="stroke-opacity: 1.000000; stroke-width: 5.0; stroke: rgb(107,174,214); fill: none"  />
<path d="M 1867.0,659.9 L 1852.9,692.4 1839.3,724.9 1826.3,757.0 1813.8,788.7 1802.2,819.7 1791.4,849.8 1781.6,878.8 1772.8,906.7 1765.2,933.2 1758.7,958.2 1753.6,981.7 1749.7,1003.4 1747.2,1023.2 1746.2,1041.2 1746.6,1057.2 1748.4,1071.1 1751.7,1082.9 1756.6,1092.6 1762.9,1100.0 1770.7,1105.3 1780.0,1108.3 1790.8,1109.1 1803.0,1107.8 1816.6,1104.2 1831.5,1098.5 1847.7,1090.7 1865.2,1080.9 1883.8,1069.1 1903.6,1055.5 1924.3,1040.1 1946.0,1023.0 1968.4,1004.3 1991.6,984.2 2015.4,962.8 2039.7,940.3 2064.3,916.9 2089.1,892.6 2114.0,867.7 2138.8,842.4  " style="stroke-opacity: 1.000000; stroke-width: 5.0; stroke: rgb(107,174,214); fill: none"  />
<path d="M 1867.0,659.9 L 1852.9,692.7 1839.4,725.5 1826.5,758.1 1814.5,790.4 1803.4,822.2 1793.3,853.2 1784.3,883.3 1776.5,912.4 1770.1,940.4 1765.0,967.0 1761.3,992.2 1759.2,1015.9 1758.6,1038.0 1759.6,1058.4 1762.2,1077.0 1766.4,1093.7 1772.3,1108.5 1779.9,1121.3 1789.1,1132.2 1800.0,1141.0 1812.5,1147.8 1826.7,1152.5 1842.4,1155.2 1859.6,1155.9 1878.3,1154.6 1898.4,1151.4 1919.9,1146.2 1942.6,1139.2 1966.6,1130.4 1991.6,1119.9 2017.6,1107.8 2044.5,1094.2 2072.1,1079.2 2100.3,1062.9 2129.1,1045.4 2158.2,1026.9 2187.4,1007.6 2216.7,987.6 2245.9,967.0  " style="stroke-opacity: 1.000000; stroke-width: 5.0; stroke: rgb(107,174,214); fill: none"  />
<path d="M 1999.0,2269.1 L 1979.7,2239.0 1961.1,2208.8 1943.1,2178.7 1925.9,2148.8 1909.8,2119.3 1894.8,2090.4 1881.0,2062.1 1868.6,2034.7 1857.7,2008.1 1848.3,1982.7 1840.6,1958.4 1834.6,1935.3 1830.4,1913.7 1828.1,1893.4 1827.6,1874.7 1829.1,1857.5 1832.5,1841.9 1837.9,1828.0 1845.2,1815.8 1854.5,1805.3 1865.7,1796.6 1878.9,1789.6 1894.0,1784.4 1910.9,1780.9 1929.5,1779.1 1949.9,1779.0 1971.9,1780.6 1995.5,1783.9 2020.6,1788.6 2046.9,1794.9 2074.6,1802.6 2103.3,1811.7 2133.0,1822.0 2163.5,1833.5 2194.7,1846.0 2226.5,1859.5 2258.5,1873.8 2290.7,1888.8 2322.8,1904.3  " style="stroke-opacity: 1.000000; stroke-width: 5.0; stroke: rgb(107,174,214); fill: none"  />
<path d="M 1999.0,2269.1 L 1979.8,2239.3 1961.1,2209.5 1943.0,2179.9 1925.5,2150.7 1909.0,2122.0 1893.5,2094.1 1879.0,2067.0 1865.8,2040.9 1854.0,2016.0 1843.6,1992.4 1834.6,1970.1 1827.3,1949.3 1821.6,1930.1 1817.7,1912.5 1815.4,1896.7 1815.0,1882.7 1816.3,1870.5 1819.5,1860.2 1824.6,1851.8 1831.4,1845.3 1840.1,1840.8 1850.6,1838.2 1862.9,1837.6 1876.8,1838.9 1892.5,1842.1 1909.8,1847.1 1928.6,1854.0 1948.9,1862.6 1970.6,1872.8 1993.6,1884.6 2017.7,1898.0 2042.9,1912.7 2069.1,1928.8 2096.0,1946.0 2123.6,1964.2 2151.7,1983.4 2180.2,2003.3 2208.8,2023.8 2237.4,2044.7  " style="stroke-opacity: 1.000000; stroke-width: 5.0; stroke: rgb(107,174,214); fill: none"  />
<path d="M 1999.0,2269.1 L 1979.8,2239.4 1961.0,2209.9 1942.6,2180.8 1924.8,2152.1 1907.7,2124.1 1891.5,2097.1 1876.2,2071.0 1861.9,2046.2 1848.9,2022.7 1837.1,2000.6 1826.6,1980.1 1817.5,1961.3 1809.9,1944.3 1803.8,1929.1 1799.3,1915.9 1796.4,1904.6 1795.2,1895.4 1795.6,1888.2 1797.6,1883.2 1801.3,1880.2 1806.7,1879.4 1813.8,1880.8 1822.4,1884.2 1832.7,1889.7 1844.5,1897.2 1857.8,1906.7 1872.5,1918.2 1888.6,1931.4 1906.0,1946.5 1924.7,1963.2 1944.4,1981.5 1965.1,2001.2 1986.8,2022.3 2009.2,2044.5 2032.3,2067.8 2055.9,2091.9 2079.9,2116.7 2104.0,2142.0 2128.3,2167.6  " style="stroke-opacity: 1.000000; stroke-width: 5.0; stroke: rgb(107,174,214); fill: none"  />
<path d="M 1999.0,2269.1 L 1979.7,2239.5 1960.4,2210.3 1941.3,2181.6 1922.4,2153.7 1903.8,2126.7 1885.7,2100.8 1868.2,2076.2 1851.3,2053.1 1835.1,2031.6 1819.8,2011.8 1805.4,1993.9 1791.9,1978.0 1779.4,1964.1 1768.0,1952.3 1757.8,1942.8 1748.7,1935.6 1740.7,1930.7 1734.1,1928.1 1728.6,1927.9 1724.4,1930.2 1721.5,1934.7 1719.8,1941.7 1719.4,1951.0 1720.3,1962.6 1722.3,1976.5 1725.6,1992.5 1730.0,2010.6 1735.6,2030.7 1742.3,2052.8 1749.9,2076.6 1758.6,2102.0 1768.2,2129.0 1778.6,2157.4 1789.7,2186.9 1801.5,2217.5 1813.9,2248.8 1826.8,2280.8 1840.1,2313.2 1853.6,2345.8  " style="stroke-opacity: 1.000000; stroke-width: 5.0; stroke: rgb(107,174,214); fill: none"  />
<path d="M 1999.0,2269.1 L 1979.5,2239.4 1960.0,2210.2 1940.3,2181.6 1920.7,2153.8 1901.3,2127.0 1882.1,2101.4 1863.3,2077.2 1844.9,2054.5 1826.9,2033.5 1809.6,2014.4 1792.9,1997.2 1776.9,1982.0 1761.7,1969.0 1747.3,1958.2 1733.7,1949.7 1721.1,1943.6 1709.4,1939.9 1698.7,1938.6 1689.0,1939.8 1680.3,1943.4 1672.6,1949.5 1666.0,1958.0 1660.4,1969.0 1655.9,1982.3 1652.4,1997.9 1650.0,2015.7 1648.6,2035.7 1648.1,2057.7 1648.6,2081.7 1650.1,2107.5 1652.4,2135.0 1655.6,2164.0 1659.6,2194.4 1664.4,2226.0 1669.8,2258.7 1675.8,2292.2 1682.4,2326.3 1689.5,2360.7 1696.9,2395.4  " style="stroke-opacity: 1.000000; stroke-width: 5.0; stroke: rgb(107,174,214); fill: none"  />
<path d="M 1999.0,2269.1 L 1979.3,2239.3 1959.4,2209.9 1939.2,2181.2 1918.9,2153.4 1898.6,2126.6 1878.3,2101.1 1858.0,2077.0 1838.0,2054.5 1818.3,2033.7 1798.8,2014.8 1779.8,1997.8 1761.2,1983.0 1743.1,1970.3 1725.6,1959.9 1708.6,1951.9 1692.3,1946.2 1676.7,1943.0 1661.9,1942.2 1647.7,1943.9 1634.4,1948.2 1621.8,1954.9 1610.0,1964.0 1599.1,1975.7 1589.1,1989.7 1579.8,2006.0 1571.5,2024.6 1563.9,2045.3 1557.3,2068.2 1551.4,2093.0 1546.4,2119.7 1542.2,2148.0 1538.8,2177.9 1536.1,2209.3 1534.1,2241.8 1532.8,2275.5 1532.2,2309.9 1532.2,2345.0 1532.8,2380.5 1533.9,2416.1  " style="stroke-opacity: 1.000000; stroke-width: 5.0; stroke: rgb(107,174,214); fill: none"  />
<path d="M 1059.2,2303.8 L 1076.3,2272.1 1092.7,2240.2 1108.3,2208.2 1123.0,2176.4 1136.6,2144.8 1149.1,2113.8 1160.2,2083.3 1169.9,2053.5 1178.1,2024.5 1184.7,1996.5 1189.6,1969.6 1192.8,1943.8 1194.2,1919.3 1193.7,1896.1 1191.4,1874.3 1187.1,1853.9 1180.9,1835.1 1172.7,1817.9 1162.6,1802.2 1150.6,1788.3 1136.7,1775.9 1120.8,1765.3 1103.2,1756.3 1083.7,1749.0 1062.5,1743.4 1039.6,1739.5 1015.1,1737.2 989.2,1736.5 961.8,1737.3 933.1,1739.6 903.3,1743.4 872.4,1748.5 840.6,1755.0 808.0,1762.6 774.8,1771.3 741.1,1781.1 707.1,1791.8 673.1,1803.2 639.2,1815.3  " style="stroke-opacity: 1.000000; stroke-width: 5.0; stroke: rgb(107,174,214); fill: none"  />
<path d="M 1853.6,2345.8 L 1840.0,2312.5 1827.0,2279.0 1814.9,2245.5 1803.6,2212.3 1793.4,2179.6 1784.3,2147.3 1776.4,2115.8 1769.9,2085.2 1764.8,2055.5 1761.2,2027.0 1759.2,1999.7 1758.7,1973.7 1759.9,1949.2 1762.8,1926.2 1767.5,1904.7 1773.9,1884.9 1782.0,1866.9 1792.0,1850.6 1803.6,1836.1 1817.1,1823.5 1832.2,1812.7 1849.1,1803.8 1867.6,1796.7 1887.7,1791.5 1909.4,1788.2 1932.6,1786.7 1957.1,1787.0 1983.0,1789.0 2010.2,1792.7 2038.4,1798.0 2067.7,1804.9 2097.9,1813.3 2128.9,1823.0 2160.5,1834.1 2192.6,1846.3 2225.1,1859.5 2257.7,1873.7 2290.3,1888.7 2322.8,1904.3  " style="stroke-opacity: 1.000000; stroke-width: 5.0; stroke: rgb(107,174,214); fill: none"  />
<path d="M 1853.6,2345.8 L 1840.1,2313.1 1827.0,2280.4 1814.4,2248.0 1802.5,2216.2 1791.4,2185.0 1781.1,2154.8 1771.7,2125.5 1763.4,2097.6 1756.2,2070.9 1750.1,2045.8 1745.3,2022.3 1741.8,2000.5 1739.7,1980.6 1738.9,1962.6 1739.5,1946.7 1741.6,1932.8 1745.1,1921.0 1750.1,1911.5 1756.5,1904.1 1764.5,1899.0 1773.8,1896.1 1784.6,1895.4 1796.8,1897.0 1810.3,1900.8 1825.1,1906.7 1841.2,1914.7 1858.5,1924.8 1877.0,1936.9 1896.5,1950.8 1917.0,1966.6 1938.3,1984.0 1960.5,2003.0 1983.4,2023.5 2006.8,2045.2 2030.7,2068.1 2055.0,2092.0 2079.4,2116.7 2103.9,2141.9 2128.3,2167.6  " style="stroke-opacity: 1.000000; stroke-width: 5.0; stroke: rgb(107,174,214); fill: none"  />
<path d="M 1853.6,2345.8 L 1840.1,2313.2 1826.8,2280.8 1813.9,2248.8 1801.5,2217.5 1789.7,2186.9 1778.6,2157.4 1768.2,2129.0 1758.6,2102.0 1749.9,2076.6 1742.3,2052.8 1735.6,2030.7 1730.0,2010.6 1725.6,1992.5 1722.3,1976.5 1720.3,1962.6 1719.4,1951.0 1719.8,1941.7 1721.5,1934.7 1724.4,1930.2 1728.6,1927.9 1734.1,1928.1 1740.7,1930.7 1748.7,1935.6 1757.8,1942.8 1768.0,1952.3 1779.4,1964.1 1791.9,1978.0 1805.4,1993.9 1819.8,2011.8 1835.1,2031.6 1851.3,2053.1 1868.2,2076.2 1885.7,2100.8 1903.8,2126.7 1922.4,2153.7 1941.3,2181.6 1960.4,2210.3 1979.7,2239.5 1999.0,2269.1  " style="stroke-opacity: 1.000000; stroke-width: 5.0; stroke: rgb(107,174,214); fill: none"  />
<path d="M 1853.6,2345.8 L 1839.6,2313.0 1825.3,2280.5 1810.5,2248.7 1795.5,2217.7 1780.3,2187.7 1764.8,2159.0 1749.3,2131.7 1733.6,2105.9 1717.9,2081.9 1702.1,2059.9 1686.4,2039.8 1670.8,2021.9 1655.2,2006.2 1639.8,1992.8 1624.6,1981.8 1609.6,1973.4 1594.8,1967.4 1580.3,1964.0 1566.1,1963.2 1552.2,1964.9 1538.6,1969.3 1525.4,1976.2 1512.6,1985.7 1500.2,1997.7 1488.2,2012.1 1476.7,2028.9 1465.5,2048.0 1454.9,2069.3 1444.7,2092.6 1435.0,2118.0 1425.8,2145.1 1417.1,2174.0 1408.8,2204.3 1401.1,2236.0 1393.9,2268.9 1387.1,2302.6 1380.8,2337.2 1375.1,2372.2 1369.8,2407.5  " style="stroke-opacity: 1.000000; stroke-width: 5.0; stroke: rgb(107,174,214); fill: none"  />
<path d="M 2011.1,738.9 L 1991.0,768.4 1970.6,797.5 1950.0,825.8 1929.2,853.3 1908.4,879.8 1887.7,905.0 1867.1,928.7 1846.8,950.9 1826.7,971.4 1806.9,990.0 1787.6,1006.7 1768.8,1021.2 1750.5,1033.6 1732.8,1043.7 1715.8,1051.5 1699.4,1056.9 1683.7,1059.9 1668.8,1060.4 1654.7,1058.5 1641.4,1054.0 1629.0,1047.1 1617.4,1037.8 1606.7,1026.0 1596.8,1011.8 1587.8,995.3 1579.8,976.6 1572.6,955.7 1566.3,932.8 1560.8,907.9 1556.2,881.2 1552.4,852.7 1549.5,822.7 1547.3,791.4 1545.9,758.8 1545.1,725.2 1545.1,690.7 1545.6,655.6 1546.7,620.2 1548.4,584.5  " style="stroke-opacity: 1.000000; stroke-width: 5.0; stroke: rgb(107,174,214); fill: none"  />
<path d="M 2011.1,738.9 L 1991.3,768.2 1971.6,797.1 1952.0,825.5 1932.7,853.1 1913.7,879.8 1895.2,905.4 1877.2,929.7 1860.0,952.5 1843.5,973.8 1827.9,993.3 1813.1,1011.0 1799.4,1026.7 1786.7,1040.4 1775.2,1052.0 1764.7,1061.3 1755.5,1068.4 1747.5,1073.2 1740.8,1075.6 1735.4,1075.7 1731.2,1073.5 1728.4,1068.8 1726.8,1061.8 1726.5,1052.5 1727.6,1040.9 1729.9,1027.1 1733.4,1011.2 1738.1,993.1 1744.0,973.1 1751.0,951.1 1759.0,927.5 1768.1,902.1 1778.1,875.3 1788.9,847.1 1800.6,817.8 1812.9,787.4 1825.8,756.2 1839.2,724.4 1852.9,692.3 1867.0,659.9  " style="stroke-opacity: 1.000000; stroke-width: 5.0; stroke: rgb(107,174,214); fill: none"  />
<path d="M 1696.9,2395.4 L 1689.4,2359.7 1682.7,2323.9 1676.9,2288.1 1672.0,2252.7 1668.2,2217.7 1665.5,2183.3 1664.1,2149.6 1663.9,2116.9 1665.1,2085.2 1667.7,2054.6 1671.7,2025.4 1677.2,1997.5 1684.3,1971.1 1692.8,1946.3 1702.9,1923.2 1714.6,1901.8 1727.8,1882.2 1742.6,1864.4 1759.0,1848.4 1776.8,1834.4 1796.2,1822.4 1817.0,1812.2 1839.2,1804.0 1862.8,1797.8 1887.6,1793.5 1913.8,1791.1 1941.1,1790.5 1969.4,1791.8 1998.8,1794.9 2029.1,1799.6 2060.2,1806.0 2091.9,1814.0 2124.3,1823.4 2157.0,1834.1 2190.1,1846.2 2223.4,1859.3 2256.7,1873.5 2289.9,1888.5 2322.8,1904.3  " style="stroke-opacity: 1.000000; stroke-width: 5.0; stroke: rgb(107,174,214); fill: none"  />
<path d="M 1696.9,2395.4 L 1689.5,2360.1 1682.7,2324.8 1676.7,2289.8 1671.5,2255.1 1667.3,2221.0 1664.1,2187.7 1662.0,2155.3 1661.1,2124.0 1661.4,2093.9 1662.9,2065.2 1665.8,2037.9 1670.0,2012.3 1675.5,1988.4 1682.5,1966.2 1690.9,1946.0 1700.7,1927.7 1712.0,1911.4 1724.7,1897.1 1738.7,1884.9 1754.2,1874.9 1771.1,1867.0 1789.2,1861.2 1808.7,1857.6 1829.5,1856.1 1851.4,1856.7 1874.4,1859.3 1898.6,1864.0 1923.7,1870.6 1949.7,1879.1 1976.6,1889.4 2004.2,1901.4 2032.4,1915.0 2061.1,1930.1 2090.2,1946.6 2119.6,1964.4 2149.2,1983.2 2178.8,2003.0 2208.2,2023.6 2237.4,2044.7  " style="stroke-opacity: 1.000000; stroke-width: 5.0; stroke: rgb(107,174,214); fill: none"  />
<path d="M 1696.9,2395.4 L 1689.5,2360.7 1682.4,2326.3 1675.8,2292.2 1669.8,2258.7 1664.4,2226.0 1659.6,2194.4 1655.6,2164.0 1652.4,2135.0 1650.1,2107.5 1648.6,2081.7 1648.1,2057.7 1648.6,2035.7 1650.0,2015.7 1652.4,1997.9 1655.9,1982.3 1660.4,1969.0 1666.0,1958.0 1672.6,1949.5 1680.3,1943.4 1689.0,1939.8 1698.7,1938.6 1709.4,1939.9 1721.1,1943.6 1733.7,1949.7 1747.3,1958.2 1761.7,1969.0 1776.9,1982.0 1792.9,1997.2 1809.6,2014.4 1826.9,2033.5 1844.9,2054.5 1863.3,2077.2 1882.1,2101.4 1901.3,2127.0 1920.7,2153.8 1940.3,2181.6 1960.0,2210.2 1979.5,2239.4 1999.0,2269.1  " style="stroke-opacity: 1.000000; stroke-width: 5.0; stroke: rgb(107,174,214); fill: none"  />
<path d="M 1696.9,2395.4 L 1689.3,2360.9 1681.5,2326.8 1673.6,2293.2 1665.7,2260.4 1657.9,2228.6 1650.0,2198.0 1642.2,2168.9 1634.5,2141.3 1627.0,2115.5 1619.6,2091.6 1612.3,2069.7 1605.3,2050.0 1598.5,2032.7 1592.0,2017.7 1585.7,2005.2 1579.7,1995.2 1574.1,1987.8 1568.7,1983.1 1563.7,1981.0 1559.0,1981.6 1554.6,1984.9 1550.6,1990.8 1547.0,1999.4 1543.7,2010.5 1540.7,2024.2 1538.2,2040.4 1536.0,2058.9 1534.1,2079.7 1532.6,2102.6 1531.4,2127.6 1530.6,2154.5 1530.0,2183.1 1529.8,2213.3 1529.9,2244.9 1530.2,2277.7 1530.8,2311.4 1531.6,2345.9 1532.7,2380.9 1533.9,2416.1  " style="stroke-opacity: 1.000000; stroke-width: 5.0; stroke: rgb(107,174,214); fill: none"  />
<path d="M 1533.9,2416.1 L 1532.9,2379.1 1532.8,2342.1 1533.7,2305.2 1535.5,2268.6 1538.5,2232.5 1542.5,2197.1 1547.8,2162.4 1554.3,2128.8 1562.0,2096.2 1571.0,2064.8 1581.3,2034.7 1593.0,2006.0 1606.1,1978.9 1620.5,1953.4 1636.2,1929.6 1653.3,1907.5 1671.8,1887.3 1691.6,1868.9 1712.7,1852.4 1735.1,1837.9 1758.8,1825.3 1783.6,1814.7 1809.6,1806.1 1836.8,1799.5 1864.9,1794.8 1894.1,1792.0 1924.2,1791.2 1955.1,1792.2 1986.8,1795.0 2019.1,1799.6 2052.1,1805.8 2085.5,1813.6 2119.2,1822.9 2153.2,1833.7 2187.4,1845.7 2221.6,1858.9 2255.6,1873.2 2289.4,1888.3 2322.8,1904.3  " style="stroke-opacity: 1.000000; stroke-width: 5.0; stroke: rgb(107,174,214); fill: none"  />
<path d="M 1533.9,2416.1 L 1532.8,2380.5 1532.2,2345.0 1532.2,2309.9 1532.8,2275.5 1534.1,2241.8 1536.1,2209.3 1538.8,2177.9 1542.2,2148.0 1546.4,2119.7 1551.4,2093.0 1557.3,2068.2 1563.9,2045.3 1571.5,2024.6 1579.8,2006.0 1589.1,1989.7 1599.1,1975.7 1610.0,1964.0 1621.8,1954.9 1634.4,1948.2 1647.7,1943.9 1661.9,1942.2 1676.7,1943.0 1692.3,1946.2 1708.6,1951.9 1725.6,1959.9 1743.1,1970.3 1761.2,1983.0 1779.8,1997.8 1798.8,2014.8 1818.3,2033.7 1838.0,2054.5 1858.0,2077.0 1878.3,2101.1 1898.6,2126.6 1918.9,2153.4 1939.2,2181.2 1959.4,2209.9 1979.3,2239.3 1999.0,2269.1  " style="stroke-opacity: 1.000000; stroke-width: 5.0; stroke: rgb(107,174,214); fill: none"  />
<path d="M 1533.9,2416.1 L 1532.7,2380.9 1531.6,2345.9 1530.8,2311.4 1530.2,2277.7 1529.9,2244.9 1529.8,2213.3 1530.0,2183.1 1530.6,2154.5 1531.4,2127.6 1532.6,2102.6 1534.1,2079.7 1536.0,2058.9 1538.2,2040.4 1540.7,2024.2 1543.7,2010.5 1547.0,1999.4 1550.6,1990.8 1554.6,1984.9 1559.0,1981.6 1563.7,1981.0 1568.7,1983.1 1574.1,1987.8 1579.7,1995.2 1585.7,2005.2 1592.0,2017.7 1598.5,2032.7 1605.3,2050.0 1612.3,2069.7 1619.6,2091.6 1627.0,2115.5 1634.5,2141.3 1642.2,2168.9 1650.0,2198.0 1657.9,2228.6 1665.7,2260.4 1673.6,2293.2 1681.5,2326.8 1689.3,2360.9 1696.9,2395.4  " style="stroke-opacity: 1.000000; stroke-width: 5.0; stroke: rgb(107,174,214); fill: none"  />
<path d="M 2138.8,842.4 L 2114.0,867.7 2089.1,892.6 2064.3,916.9 2039.7,940.3 2015.4,962.8 1991.6,984.2 1968.4,1004.3 1946.0,1023.0 1924.3,1040.1 1903.6,1055.5 1883.8,1069.1 1865.2,1080.9 1847.7,1090.7 1831.5,1098.5 1816.6,1104.2 1803.0,1107.8 1790.8,1109.1 1780.0,1108.3 1770.7,1105.3 1762.9,1100.0 1756.6,1092.6 1751.7,1082.9 1748.4,1071.1 1746.6,1057.2 1746.2,1041.2 1747.2,1023.2 1749.7,1003.4 1753.6,981.7 1758.7,958.2 1765.2,933.2 1772.8,906.7 1781.6,878.8 1791.4,849.8 1802.2,819.7 1813.8,788.7 1826.3,757.0 1839.3,724.9 1852.9,692.4 1867.0,659.9  " style="stroke-opacity: 1.000000; stroke-width: 5.0; stroke: rgb(107,174,214); fill: none"  />
<path d="M 2138.8,842.4 L 2114.2,867.8 2090.0,893.1 2066.3,918.1 2043.3,942.8 2021.1,966.9 1999.9,990.3 1979.9,1012.8 1961.1,1034.5 1943.7,1055.0 1927.8,1074.3 1913.6,1092.4 1901.0,1109.1 1890.3,1124.3 1881.4,1138.0 1874.4,1150.2 1869.3,1160.7 1866.3,1169.5 1865.3,1176.5 1866.3,1181.9 1869.4,1185.5 1874.6,1187.3 1881.7,1187.4 1890.9,1185.7 1902.0,1182.3 1915.0,1177.2 1929.9,1170.5 1946.6,1162.1 1965.0,1152.2 1985.0,1140.8 2006.5,1128.0 2029.4,1113.9 2053.6,1098.6 2078.9,1082.1 2105.2,1064.7 2132.4,1046.4 2160.2,1027.3 2188.5,1007.6 2217.2,987.5 2245.9,967.0  " style="stroke-opacity: 1.000000; stroke-width: 5.0; stroke: rgb(107,174,214); fill: none"  />
<path d="M 709.3,1964.0 L 739.7,1946.0 769.8,1928.1 799.3,1910.2 828.0,1892.6 855.8,1875.3 882.5,1858.4 907.8,1841.9 931.7,1826.1 953.9,1810.9 974.3,1796.5 992.9,1782.9 1009.4,1770.1 1023.9,1758.3 1036.1,1747.5 1046.1,1737.6 1053.7,1728.9 1059.0,1721.2 1061.8,1714.6 1062.2,1709.2 1060.2,1704.9 1055.8,1701.8 1048.9,1699.8 1039.6,1699.0 1028.0,1699.3 1014.0,1700.7 997.9,1703.3 979.6,1706.9 959.2,1711.6 936.9,1717.2 912.8,1723.8 887.0,1731.3 859.6,1739.7 830.8,1748.8 800.8,1758.6 769.7,1769.0 737.8,1780.0 705.3,1791.5 672.3,1803.3 639.2,1815.3  " style="stroke-opacity: 1.000000; stroke-width: 5.0; stroke: rgb(107,174,214); fill: none"  />
<path d="M 639.2,1815.3 L 673.1,1803.2 707.1,1791.8 741.1,1781.1 774.8,1771.3 808.0,1762.6 840.6,1755.0 872.4,1748.5 903.3,1743.4 933.1,1739.6 961.8,1737.3 989.2,1736.5 1015.1,1737.2 1039.6,1739.5 1062.5,1743.4 1083.7,1749.0 1103.2,1756.3 1120.8,1765.3 1136.7,1775.9 1150.6,1788.3 1162.6,1802.2 1172.7,1817.9 1180.9,1835.1 1187.1,1853.9 1191.4,1874.3 1193.7,1896.1 1194.2,1919.3 1192.8,1943.8 1189.6,1969.6 1184.7,1996.5 1178.1,2024.5 1169.9,2053.5 1160.2,2083.3 1149.1,2113.8 1136.6,2144.8 1123.0,2176.4 1108.3,2208.2 1092.7,2240.2 1076.3,2272.1 1059.2,2303.8  " style="stroke-opacity: 1.000000; stroke-width: 5.0; stroke: rgb(107,174,214); fill: none"  />
<path d="M 639.2,1815.3 L 672.3,1803.3 705.3,1791.5 737.8,1780.0 769.7,1769.0 800.8,1758.6 830.8,1748.8 859.6,1739.7 887.0,1731.3 912.8,1723.8 936.9,1717.2 959.2,1711.6 979.6,1706.9 997.9,1703.3 1014.0,1700.7 1028.0,1699.3 1039.6,1699.0 1048.9,1699.8 1055.8,1701.8 1060.2,1704.9 1062.2,1709.2 1061.8,1714.6 1059.0,1721.2 1053.7,1728.9 1046.1,1737.6 1036.1,1747.5 1023.9,1758.3 1009.4,1770.1 992.9,1782.9 974.3,1796.5 953.9,1810.9 931.7,1826.1 907.8,1841.9 882.5,1858.4 855.8,1875.3 828.0,1892.6 799.3,1910.2 769.8,1928.1 739.7,1946.0 709.3,1964.0  " style="stroke-opacity: 1.000000; stroke-width: 5.0; stroke: rgb(107,174,214); fill: none"  />
<path d="M 1369.8,2407.5 L 1375.5,2370.3 1382.3,2333.1 1390.0,2296.2 1398.7,2259.7 1408.5,2223.7 1419.4,2188.4 1431.4,2154.0 1444.6,2120.6 1458.9,2088.3 1474.4,2057.2 1491.1,2027.4 1508.9,1999.1 1528.0,1972.3 1548.2,1947.2 1569.6,1923.7 1592.2,1902.0 1615.8,1882.1 1640.6,1864.1 1666.5,1847.9 1693.4,1833.7 1721.3,1821.5 1750.2,1811.2 1780.0,1802.9 1810.6,1796.5 1842.1,1792.0 1874.2,1789.5 1907.1,1788.9 1940.5,1790.1 1974.5,1793.1 2008.9,1797.9 2043.7,1804.3 2078.7,1812.3 2113.9,1821.8 2149.2,1832.7 2184.5,1844.9 2219.5,1858.3 2254.4,1872.7 2288.8,1888.1 2322.8,1904.3  " style="stroke-opacity: 1.000000; stroke-width: 5.0; stroke: rgb(107,174,214); fill: none"  />
<path d="M 1369.8,2407.5 L 1375.3,2371.4 1381.6,2335.5 1388.7,2300.0 1396.6,2265.1 1405.3,2231.0 1414.9,2197.9 1425.4,2165.9 1436.7,2135.1 1449.0,2105.9 1462.1,2078.2 1476.2,2052.2 1491.1,2028.1 1507.0,2005.8 1523.7,1985.6 1541.3,1967.5 1559.7,1951.6 1579.0,1937.8 1599.1,1926.4 1620.0,1917.2 1641.7,1910.4 1664.0,1905.9 1687.0,1903.7 1710.7,1903.8 1735.0,1906.3 1759.8,1911.0 1785.1,1917.9 1810.9,1927.0 1837.0,1938.1 1863.4,1951.3 1890.1,1966.4 1916.9,1983.3 1943.9,2001.9 1970.8,2022.1 1997.7,2043.7 2024.5,2066.6 2051.0,2090.6 2077.2,2115.6 2103.0,2141.3 2128.3,2167.6  " style="stroke-opacity: 1.000000; stroke-width: 5.0; stroke: rgb(107,174,214); fill: none"  />
<path d="M 1369.8,2407.5 L 1375.1,2372.2 1380.8,2337.2 1387.1,2302.6 1393.9,2268.9 1401.1,2236.0 1408.8,2204.3 1417.1,2174.0 1425.8,2145.1 1435.0,2118.0 1444.7,2092.6 1454.9,2069.3 1465.5,2048.0 1476.7,2028.9 1488.2,2012.1 1500.2,1997.7 1512.6,1985.7 1525.4,1976.2 1538.6,1969.3 1552.2,1964.9 1566.1,1963.2 1580.3,1964.0 1594.8,1967.4 1609.6,1973.4 1624.6,1981.8 1639.8,1992.8 1655.2,2006.2 1670.8,2021.9 1686.4,2039.8 1702.1,2059.9 1717.9,2081.9 1733.6,2105.9 1749.3,2131.7 1764.8,2159.0 1780.3,2187.7 1795.5,2217.7 1810.5,2248.7 1825.3,2280.5 1839.6,2313.0 1853.6,2345.8  " style="stroke-opacity: 1.000000; stroke-width: 5.0; stroke: rgb(107,174,214); fill: none"  />
<path d="M 2245.9,967.0 L 2216.4,987.7 2186.7,1007.8 2156.8,1027.1 2126.9,1045.5 2097.2,1062.8 2067.8,1078.8 2038.9,1093.5 2010.5,1106.6 1982.7,1118.2 1955.7,1128.1 1929.5,1136.2 1904.3,1142.4 1880.1,1146.6 1857.0,1148.9 1835.1,1149.2 1814.4,1147.3 1794.9,1143.4 1776.8,1137.4 1760.1,1129.2 1744.8,1118.9 1730.9,1106.5 1718.5,1092.1 1707.5,1075.6 1698.0,1057.1 1689.9,1036.7 1683.3,1014.5 1678.1,990.5 1674.3,964.8 1671.8,937.5 1670.8,908.7 1671.0,878.7 1672.4,847.4 1675.0,815.0 1678.7,781.7 1683.5,747.7 1689.2,713.1 1695.7,678.2 1703.1,643.0 1711.1,607.9  " style="stroke-opacity: 1.000000; stroke-width: 5.0; stroke: rgb(107,174,214); fill: none"  />
<path d="M 2245.9,967.0 L 2216.7,987.6 2187.4,1007.6 2158.2,1026.9 2129.1,1045.4 2100.3,1062.9 2072.1,1079.2 2044.5,1094.2 2017.6,1107.8 1991.6,1119.9 1966.6,1130.4 1942.6,1139.2 1919.9,1146.2 1898.4,1151.4 1878.3,1154.6 1859.6,1155.9 1842.4,1155.2 1826.7,1152.5 1812.5,1147.8 1800.0,1141.0 1789.1,1132.2 1779.9,1121.3 1772.3,1108.5 1766.4,1093.7 1762.2,1077.0 1759.6,1058.4 1758.6,1038.0 1759.2,1015.9 1761.3,992.2 1765.0,967.0 1770.1,940.4 1776.5,912.4 1784.3,883.3 1793.3,853.2 1803.4,822.2 1814.5,790.4 1826.5,758.1 1839.4,725.5 1852.9,692.7 1867.0,659.9  " style="stroke-opacity: 1.000000; stroke-width: 5.0; stroke: rgb(107,174,214); fill: none"  />
<path d="M 2245.9,967.0 L 2217.2,987.5 2188.5,1007.6 2160.2,1027.3 2132.4,1046.4 2105.2,1064.7 2078.9,1082.1 2053.6,1098.6 2029.4,1113.9 2006.5,1128.0 1985.0,1140.8 1965.0,1152.2 1946.6,1162.1 1929.9,1170.5 1915.0,1177.2 1902.0,1182.3 1890.9,1185.7 1881.7,1187.4 1874.6,1187.3 1869.4,1185.5 1866.3,1181.9 1865.3,1176.5 1866.3,1169.5 1869.3,1160.7 1874.4,1150.2 1881.4,1138.0 1890.3,1124.3 1901.0,1109.1 1913.6,1092.4 1927.8,1074.3 1943.7,1055.0 1961.1,1034.5 1979.9,1012.8 1999.9,990.3 2021.1,966.9 2043.3,942.8 2066.3,918.1 2090.0,893.1 2114.2,867.8 2138.8,842.4  " style="stroke-opacity: 1.000000; stroke-width: 5.0; stroke: rgb(107,174,214); fill: none"  />
</g>
<defs>
<pattern id="vline-sparse" width="10" height="10" patternTransform="rotate(0 0 0)" patternUnits="userSpaceOnUse"><line x1="0" y1="0" x2="0" y2="10" style="stroke:black;stroke-width:2" /></pattern>
<pattern id="hline-sparse" width="10" height="10" patternTransform="rotate(0 0 0)" patternUnits="userSpaceOnUse"><line x1="0" y1="0" x2="10" y2="0" style="stroke:black;stroke-width:2" /></pattern>
<pattern id="checker" width="10" height="10" patternTransform="rotate(45 0 0)" patternUnits="userSpaceOnUse"><line x1="0" y1="0" x2="10" y2="0" style="stroke:black;stroke-width:5" /><line x1="0" y1="0" x2="0" y2="10" style="stroke:black;stroke-width:4" /></pattern>
<pattern id="hline" width="10" height="10" patternTransform="rotate(0 0 0)" patternUnits="userSpaceOnUse"><line x1="0" y1="0" x2="10" y2="0" style="stroke:black;stroke-width:5" /></pattern>
<pattern id="checker" width="10" height="10" patternTransform="rotate(45 0 0)" patternUnits="userSpaceOnUse"><line x1="0" y1="0" x2="10" y2="0" style="stroke:black;stroke-width:2" /><line x1="0" y1="0" x2="0" y2="10" style="stroke:black;stroke-width:2" /></pattern>
<pattern id="vline" width="10" height="10" patternTransform="rotate(0 0 0)" patternUnits="userSpaceOnUse"><line x1="0" y1="0" x2="0" y2="10" style="stroke:black;stroke-width:5" /></pattern>
</defs>
</svg>
