<?xml version="1.0" encoding="utf-8" standalone="no"?>
<!DOCTYPE svg PUBLIC "-//W3C//DTD SVG 1.1//EN" "http://www.w3.org/Graphics/SVG/1.1/DTD/svg11.dtd">
<svg width="3000px" height="3000px" version="1.1" xmlns="http://www.w3.org/2000/svg" xmlns:xlink="http://www.w3.org/1999/xlink">
<g id="bg">
<rect x="0" y="0" width="3000px" height="3000px" style="fill:rgb(255,255,255);"/>
</g>
<g id="ideograms">
<path d="M1500.000,830.000 A670.000,670.000 40.000 0,1 1570.620,833.732 L1579.053,754.178 A750.000,750.000 0.000 0,0 1500.000,750.000 Z" style="stroke-width:2.0;stroke:rgb(115,115,115);stroke-linecap:round;fill:rgb(153,204,255);" />
<text x="1568.0" y="677.8" font-size="65.0px" font-family="CMUBright-Roman" style="text-anchor:start;fill:rgb(0,0,0);" transform="rotate(273.0,1568.0,677.8)" >8-IFG</text>
<path d="M1500.000,830.000 A670.000,670.000 40.000 0,1 1570.620,833.732 L1579.053,754.178 A750.000,750.000 0.000 0,0 1500.000,750.000 Z" style="stroke-width:2.0;stroke:rgb(115,115,115);stroke-linecap:round;fill:none;" />
<path d="M1619.633,840.767 A670.000,670.000 40.000 0,1 1688.452,857.049 L1710.954,780.279 A750.000,750.000 0.000 0,0 1633.918,762.053 Z" style="stroke-width:2.0;stroke:rgb(115,115,115);stroke-linecap:round;fill:rgb(153,204,255);" />
<text x="1712.7" y="702.9" font-size="65.0px" font-family="CMUBright-Roman" style="text-anchor:start;fill:rgb(0,0,0);" transform="rotate(283.3,1712.7,702.9)" >14-LIX</text>
<path d="M1619.633,840.767 A670.000,670.000 40.000 0,1 1688.452,857.049 L1710.954,780.279 A750.000,750.000 0.000 0,0 1633.918,762.053 Z" style="stroke-width:2.0;stroke:rgb(115,115,115);stroke-linecap:round;fill:none;" />
<path d="M1735.421,872.723 A670.000,670.000 40.000 0,1 1800.227,901.031 L1836.075,829.512 A750.000,750.000 0.000 0,0 1763.531,797.824 Z" style="stroke-width:2.0;stroke:rgb(115,115,115);stroke-linecap:round;fill:rgb(153,204,255);" />
<text x="1852.1" y="753.9" font-size="65.0px" font-family="CMUBright-Roman" style="text-anchor:start;fill:rgb(0,0,0);" transform="rotate(293.6,1852.1,753.9)" >15-LVIIIb</text>
<path d="M1735.421,872.723 A670.000,670.000 40.000 0,1 1800.227,901.031 L1836.075,829.512 A750.000,750.000 0.000 0,0 1763.531,797.824 Z" style="stroke-width:2.0;stroke:rgb(115,115,115);stroke-linecap:round;fill:none;" />
<path d="M1843.643,924.839 A670.000,670.000 40.000 0,1 1902.352,964.264 L1950.394,900.296 A750.000,750.000 0.000 0,0 1884.674,856.163 Z" style="stroke-width:2.0;stroke:rgb(115,115,115);stroke-linecap:round;fill:rgb(153,204,255);" />
<text x="1980.1" y="829.1" font-size="65.0px" font-family="CMUBright-Roman" style="text-anchor:start;fill:rgb(0,0,0);" transform="rotate(303.9,1980.1,829.1)" >19-MTG</text>
<path d="M1843.643,924.839 A670.000,670.000 40.000 0,1 1902.352,964.264 L1950.394,900.296 A750.000,750.000 0.000 0,0 1884.674,856.163 Z" style="stroke-width:2.0;stroke:rgb(115,115,115);stroke-linecap:round;fill:none;" />
<path d="M1940.819,995.442 A670.000,670.000 40.000 0,1 1991.546,1044.717 L2050.238,990.354 A750.000,750.000 0.000 0,0 1993.454,935.196 Z" style="stroke-width:2.0;stroke:rgb(115,115,115);stroke-linecap:round;fill:rgb(153,204,255);" />
<text x="2092.1" y="925.6" font-size="65.0px" font-family="CMUBright-Roman" style="text-anchor:start;fill:rgb(0,0,0);" transform="rotate(314.2,2092.1,925.6)" >22-ParG</text>
<path d="M1940.819,995.442 A670.000,670.000 40.000 0,1 1991.546,1044.717 L2050.238,990.354 A750.000,750.000 0.000 0,0 1993.454,935.196 Z" style="stroke-width:2.0;stroke:rgb(115,115,115);stroke-linecap:round;fill:none;" />
<path d="M2023.827,1082.262 A670.000,670.000 40.000 0,1 2064.940,1139.802 L2132.396,1096.793 A750.000,750.000 0.000 0,0 2086.374,1032.383 Z" style="stroke-width:2.0;stroke:rgb(115,115,115);stroke-linecap:round;fill:rgb(153,204,255);" />
<text x="2185.2" y="1040.5" font-size="65.0px" font-family="CMUBright-Roman" style="text-anchor:start;fill:rgb(0,0,0);" transform="rotate(324.5,2185.2,1040.5)" >29-RCI</text>
<path d="M2023.827,1082.262 A670.000,670.000 40.000 0,1 2064.940,1139.802 L2132.396,1096.793 A750.000,750.000 0.000 0,0 2086.374,1032.383 Z" style="stroke-width:2.0;stroke:rgb(115,115,115);stroke-linecap:round;fill:none;" />
<path d="M2089.999,1182.508 A670.000,670.000 40.000 0,1 2120.177,1246.465 L2194.228,1216.192 A750.000,750.000 0.000 0,0 2160.447,1144.599 Z" style="stroke-width:2.0;stroke:rgb(115,115,115);stroke-linecap:round;fill:rgb(116,196,118);" />
<text x="2256.2" y="1170.3" font-size="65.0px" font-family="CMUBright-Roman" style="text-anchor:start;fill:rgb(0,0,0);" transform="rotate(334.7,2256.2,1170.3)" >2-COC</text>
<path d="M2089.999,1182.508 A670.000,670.000 40.000 0,1 2120.177,1246.465 L2194.228,1216.192 A750.000,750.000 0.000 0,0 2160.447,1144.599 Z" style="stroke-width:2.0;stroke:rgb(115,115,115);stroke-linecap:round;fill:none;" />
<path d="M2137.208,1292.959 A670.000,670.000 40.000 0,1 2155.481,1361.276 L2233.748,1344.712 A750.000,750.000 0.000 0,0 2213.292,1268.237 Z" style="stroke-width:2.0;stroke:rgb(115,115,115);stroke-linecap:round;fill:rgb(116,196,118);" />
<text x="2303.0" y="1310.6" font-size="65.0px" font-family="CMUBright-Roman" style="text-anchor:start;fill:rgb(0,0,0);" transform="rotate(345.0,2303.0,1310.6)" >3-COC</text>
<path d="M2137.208,1292.959 A670.000,670.000 40.000 0,1 2155.481,1361.276 L2233.748,1344.712 A750.000,750.000 0.000 0,0 2213.292,1268.237 Z" style="stroke-width:2.0;stroke:rgb(115,115,115);stroke-linecap:round;fill:none;" />
<path d="M2163.936,1410.064 A670.000,670.000 40.000 0,1 2169.718,1480.546 L2249.684,1478.223 A750.000,750.000 0.000 0,0 2243.212,1399.325 Z" style="stroke-width:2.0;stroke:rgb(115,115,115);stroke-linecap:round;fill:rgb(116,196,118);" />
<text x="2323.9" y="1457.0" font-size="65.0px" font-family="CMUBright-Roman" style="text-anchor:start;fill:rgb(0,0,0);" transform="rotate(355.3,2323.9,1457.0)" >4-FOC</text>
<path d="M2163.936,1410.064 A670.000,670.000 40.000 0,1 2169.718,1480.546 L2249.684,1478.223 A750.000,750.000 0.000 0,0 2243.212,1399.325 Z" style="stroke-width:2.0;stroke:rgb(115,115,115);stroke-linecap:round;fill:none;" />
<path d="M2169.325,1530.059 A670.000,670.000 40.000 0,1 2162.429,1600.441 L2241.524,1612.434 A750.000,750.000 0.000 0,0 2249.245,1533.649 Z" style="stroke-width:2.0;stroke:rgb(115,115,115);stroke-linecap:round;fill:rgb(116,196,118);" />
<text x="2318.3" y="1604.8" font-size="65.0px" font-family="CMUBright-Roman" style="text-anchor:start;fill:rgb(0,0,0);" transform="rotate(5.6,2318.3,1604.8)" >6-IFG</text>
<path d="M2169.325,1530.059 A670.000,670.000 40.000 0,1 2162.429,1600.441 L2241.524,1612.434 A750.000,750.000 0.000 0,0 2249.245,1533.649 Z" style="stroke-width:2.0;stroke:rgb(115,115,115);stroke-linecap:round;fill:none;" />
<path d="M2153.202,1649.089 A670.000,670.000 40.000 0,1 2133.849,1717.108 L2209.532,1743.032 A750.000,750.000 0.000 0,0 2231.196,1666.891 Z" style="stroke-width:2.0;stroke:rgb(115,115,115);stroke-linecap:round;fill:rgb(116,196,118);" />
<text x="2286.5" y="1749.2" font-size="65.0px" font-family="CMUBright-Roman" style="text-anchor:start;fill:rgb(0,0,0);" transform="rotate(15.9,2286.5,1749.2)" >18-MTG</text>
<path d="M2153.202,1649.089 A670.000,670.000 40.000 0,1 2133.849,1717.108 L2209.532,1743.032 A750.000,750.000 0.000 0,0 2231.196,1666.891 Z" style="stroke-width:2.0;stroke:rgb(115,115,115);stroke-linecap:round;fill:none;" />
<path d="M2116.084,1763.327 A670.000,670.000 40.000 0,1 2084.896,1826.797 L2154.734,1865.818 A750.000,750.000 0.000 0,0 2189.646,1794.769 Z" style="stroke-width:2.0;stroke:rgb(115,115,115);stroke-linecap:round;fill:rgb(116,196,118);" />
<text x="2229.5" y="1885.2" font-size="65.0px" font-family="CMUBright-Roman" style="text-anchor:start;fill:rgb(0,0,0);" transform="rotate(26.2,2229.5,1885.2)" >23-PP</text>
<path d="M2116.084,1763.327 A670.000,670.000 40.000 0,1 2084.896,1826.797 L2154.734,1865.818 A750.000,750.000 0.000 0,0 2189.646,1794.769 Z" style="stroke-width:2.0;stroke:rgb(115,115,115);stroke-linecap:round;fill:none;" />
<path d="M2059.164,1869.101 A670.000,670.000 40.000 0,1 2017.145,1925.983 L2078.893,1976.846 A750.000,750.000 0.000 0,0 2125.930,1913.173 Z" style="stroke-width:2.0;stroke:rgb(115,115,115);stroke-linecap:round;fill:rgb(116,196,118);" />
<text x="2149.3" y="2008.9" font-size="65.0px" font-family="CMUBright-Roman" style="text-anchor:start;fill:rgb(0,0,0);" transform="rotate(36.5,2149.3,2008.9)" >24-PP</text>
<path d="M2059.164,1869.101 A670.000,670.000 40.000 0,1 2017.145,1925.983 L2078.893,1976.846 A750.000,750.000 0.000 0,0 2125.930,1913.173 Z" style="stroke-width:2.0;stroke:rgb(115,115,115);stroke-linecap:round;fill:none;" />
<path d="M1984.273,1963.012 A670.000,670.000 40.000 0,1 1932.772,2011.477 L1984.446,2072.549 A750.000,750.000 0.000 0,0 2042.096,2018.297 Z" style="stroke-width:2.0;stroke:rgb(115,115,115);stroke-linecap:round;fill:rgb(153,0,204);" />
<text x="2047.3" y="2117.3" font-size="65.0px" font-family="CMUBright-Roman" style="text-anchor:start;fill:rgb(0,0,0);" transform="rotate(46.7,2047.3,2117.3)" >1-AG</text>
<path d="M1984.273,1963.012 A670.000,670.000 40.000 0,1 1932.772,2011.477 L1984.446,2072.549 A750.000,750.000 0.000 0,0 2042.096,2018.297 Z" style="stroke-width:2.0;stroke:rgb(115,115,115);stroke-linecap:round;fill:none;" />
<path d="M1893.816,2042.041 A670.000,670.000 40.000 0,1 1834.489,2080.532 L1874.428,2149.849 A750.000,750.000 0.000 0,0 1940.839,2106.763 Z" style="stroke-width:2.0;stroke:rgb(115,115,115);stroke-linecap:round;fill:rgb(153,0,204);" />
<text x="1928.3" y="2205.1" font-size="65.0px" font-family="CMUBright-Roman" style="text-anchor:start;fill:rgb(0,0,0);" transform="rotate(57.0,1928.3,2205.1)" >7-IFG</text>
<path d="M1893.816,2042.041 A670.000,670.000 40.000 0,1 1834.489,2080.532 L1874.428,2149.849 A750.000,750.000 0.000 0,0 1940.839,2106.763 Z" style="stroke-width:2.0;stroke:rgb(115,115,115);stroke-linecap:round;fill:none;" />
<path d="M1790.702,2103.649 A670.000,670.000 40.000 0,1 1725.456,2130.928 L1752.376,2206.262 A750.000,750.000 0.000 0,0 1825.413,2175.727 Z" style="stroke-width:2.0;stroke:rgb(115,115,115);stroke-linecap:round;fill:rgb(153,0,204);" />
<text x="1796.0" y="2270.1" font-size="65.0px" font-family="CMUBright-Roman" style="text-anchor:start;fill:rgb(0,0,0);" transform="rotate(67.3,1796.0,2270.1)" >9-IPL</text>
<path d="M1790.702,2103.649 A670.000,670.000 40.000 0,1 1725.456,2130.928 L1752.376,2206.262 A750.000,750.000 0.000 0,0 1825.413,2175.727 Z" style="stroke-width:2.0;stroke:rgb(115,115,115);stroke-linecap:round;fill:none;" />
<path d="M1678.245,2145.855 A670.000,670.000 40.000 0,1 1609.176,2161.045 L1622.212,2239.976 A750.000,750.000 0.000 0,0 1699.528,2222.972 Z" style="stroke-width:2.0;stroke:rgb(115,115,115);stroke-linecap:round;fill:rgb(153,0,204);" />
<text x="1653.2" y="2310.7" font-size="65.0px" font-family="CMUBright-Roman" style="text-anchor:start;fill:rgb(0,0,0);" transform="rotate(77.6,1653.2,2310.7)" >17-MFG</text>
<path d="M1678.245,2145.855 A670.000,670.000 40.000 0,1 1609.176,2161.045 L1622.212,2239.976 A750.000,750.000 0.000 0,0 1699.528,2222.972 Z" style="stroke-width:2.0;stroke:rgb(115,115,115);stroke-linecap:round;fill:none;" />
<path d="M1560.058,2167.303 A670.000,670.000 40.000 0,1 1489.388,2169.916 L1488.121,2249.906 A750.000,750.000 0.000 0,0 1567.229,2246.981 Z" style="stroke-width:2.0;stroke:rgb(115,115,115);stroke-linecap:round;fill:rgb(153,0,204);" />
<text x="1506.0" y="2325.0" font-size="65.0px" font-family="CMUBright-Roman" style="text-anchor:start;fill:rgb(0,0,0);" transform="rotate(87.9,1506.0,2325.0)" >25-PosG</text>
<path d="M1560.058,2167.303 A670.000,670.000 40.000 0,1 1489.388,2169.916 L1488.121,2249.906 A750.000,750.000 0.000 0,0 1567.229,2246.981 Z" style="stroke-width:2.0;stroke:rgb(115,115,115);stroke-linecap:round;fill:none;" />
<path d="M1439.942,2167.303 A670.000,670.000 40.000 0,1 1369.940,2157.255 L1354.411,2235.733 A750.000,750.000 0.000 0,0 1432.771,2246.981 Z" style="stroke-width:2.0;stroke:rgb(115,115,115);stroke-linecap:round;fill:rgb(153,0,204);" />
<text x="1407.1" y="2319.8" font-size="65.0px" font-family="CMUBright-Roman" style="text-anchor:end;fill:rgb(0,0,0);" transform="rotate(-81.8,1407.1,2319.8)" >26-PC</text>
<path d="M1439.942,2167.303 A670.000,670.000 40.000 0,1 1369.940,2157.255 L1354.411,2235.733 A750.000,750.000 0.000 0,0 1432.771,2246.981 Z" style="stroke-width:2.0;stroke:rgb(115,115,115);stroke-linecap:round;fill:none;" />
<path d="M1321.755,2145.855 A670.000,670.000 40.000 0,1 1254.673,2123.470 L1225.380,2197.914 A750.000,750.000 0.000 0,0 1300.472,2222.972 Z" style="stroke-width:2.0;stroke:rgb(115,115,115);stroke-linecap:round;fill:rgb(153,0,204);" />
<text x="1262.2" y="2290.0" font-size="65.0px" font-family="CMUBright-Roman" style="text-anchor:end;fill:rgb(0,0,0);" transform="rotate(-71.5,1262.2,2290.0)" >34-SG</text>
<path d="M1321.755,2145.855 A670.000,670.000 40.000 0,1 1254.673,2123.470 L1225.380,2197.914 A750.000,750.000 0.000 0,0 1300.472,2222.972 Z" style="stroke-width:2.0;stroke:rgb(115,115,115);stroke-linecap:round;fill:none;" />
<path d="M1209.298,2103.649 A670.000,670.000 40.000 0,1 1147.290,2069.645 L1105.176,2137.663 A750.000,750.000 0.000 0,0 1174.587,2175.727 Z" style="stroke-width:2.0;stroke:rgb(115,115,115);stroke-linecap:round;fill:rgb(253,208,162);" />
<text x="1125.0" y="2234.8" font-size="65.0px" font-family="CMUBright-Roman" style="text-anchor:end;fill:rgb(0,0,0);" transform="rotate(-61.3,1125.0,2234.8)" >12-LOC</text>
<path d="M1209.298,2103.649 A670.000,670.000 40.000 0,1 1147.290,2069.645 L1105.176,2137.663 A750.000,750.000 0.000 0,0 1174.587,2175.727 Z" style="stroke-width:2.0;stroke:rgb(115,115,115);stroke-linecap:round;fill:none;" />
<path d="M1106.184,2042.041 A670.000,670.000 40.000 0,1 1051.245,1997.512 L997.662,2056.917 A750.000,750.000 0.000 0,0 1059.161,2106.763 Z" style="stroke-width:2.0;stroke:rgb(115,115,115);stroke-linecap:round;fill:rgb(253,208,162);" />
<text x="999.8" y="2156.1" font-size="65.0px" font-family="CMUBright-Roman" style="text-anchor:end;fill:rgb(0,0,0);" transform="rotate(-51.0,999.8,2156.1)" >16-LG</text>
<path d="M1106.184,2042.041 A670.000,670.000 40.000 0,1 1051.245,1997.512 L997.662,2056.917 A750.000,750.000 0.000 0,0 1059.161,2106.763 Z" style="stroke-width:2.0;stroke:rgb(115,115,115);stroke-linecap:round;fill:none;" />
<path d="M1015.727,1963.012 A670.000,670.000 40.000 0,1 969.622,1909.389 L906.293,1958.271 A750.000,750.000 0.000 0,0 957.904,2018.297 Z" style="stroke-width:2.0;stroke:rgb(115,115,115);stroke-linecap:round;fill:rgb(253,208,162);" />
<text x="890.7" y="2056.2" font-size="65.0px" font-family="CMUBright-Roman" style="text-anchor:end;fill:rgb(0,0,0);" transform="rotate(-40.7,890.7,2056.2)" >20-OFG</text>
<path d="M1015.727,1963.012 A670.000,670.000 40.000 0,1 969.622,1909.389 L906.293,1958.271 A750.000,750.000 0.000 0,0 957.904,2018.297 Z" style="stroke-width:2.0;stroke:rgb(115,115,115);stroke-linecap:round;fill:none;" />
<path d="M940.836,1869.101 A670.000,670.000 40.000 0,1 905.046,1808.107 L834.007,1844.896 A750.000,750.000 0.000 0,0 874.070,1913.173 Z" style="stroke-width:2.0;stroke:rgb(115,115,115);stroke-linecap:round;fill:rgb(253,208,162);" />
<text x="801.2" y="1938.5" font-size="65.0px" font-family="CMUBright-Roman" style="text-anchor:end;fill:rgb(0,0,0);" transform="rotate(-30.4,801.2,1938.5)" >21-OP</text>
<path d="M940.836,1869.101 A670.000,670.000 40.000 0,1 905.046,1808.107 L834.007,1844.896 A750.000,750.000 0.000 0,0 874.070,1913.173 Z" style="stroke-width:2.0;stroke:rgb(115,115,115);stroke-linecap:round;fill:none;" />
<path d="M883.916,1763.327 A670.000,670.000 40.000 0,1 859.593,1696.922 L783.126,1720.436 A750.000,750.000 0.000 0,0 810.354,1794.769 Z" style="stroke-width:2.0;stroke:rgb(115,115,115);stroke-linecap:round;fill:rgb(253,208,162);" />
<text x="734.1" y="1806.6" font-size="65.0px" font-family="CMUBright-Roman" style="text-anchor:end;fill:rgb(0,0,0);" transform="rotate(-20.1,734.1,1806.6)" >35-SG</text>
<path d="M883.916,1763.327 A670.000,670.000 40.000 0,1 859.593,1696.922 L783.126,1720.436 A750.000,750.000 0.000 0,0 810.354,1794.769 Z" style="stroke-width:2.0;stroke:rgb(115,115,115);stroke-linecap:round;fill:none;" />
<path d="M846.798,1649.089 A670.000,670.000 40.000 0,1 834.722,1579.409 L755.286,1588.890 A750.000,750.000 0.000 0,0 768.804,1666.891 Z" style="stroke-width:2.0;stroke:rgb(115,115,115);stroke-linecap:round;fill:rgb(253,141,60);" />
<text x="691.7" y="1665.0" font-size="65.0px" font-family="CMUBright-Roman" style="text-anchor:end;fill:rgb(0,0,0);" transform="rotate(-9.8,691.7,1665.0)" >11-ITG</text>
<path d="M846.798,1649.089 A670.000,670.000 40.000 0,1 834.722,1579.409 L755.286,1588.890 A750.000,750.000 0.000 0,0 768.804,1666.891 Z" style="stroke-width:2.0;stroke:rgb(115,115,115);stroke-linecap:round;fill:none;" />
<path d="M830.675,1530.059 A670.000,670.000 40.000 0,1 831.235,1459.343 L751.382,1454.488 A750.000,750.000 0.000 0,0 750.755,1533.649 Z" style="stroke-width:2.0;stroke:rgb(115,115,115);stroke-linecap:round;fill:rgb(253,141,60);" />
<text x="675.2" y="1517.5" font-size="65.0px" font-family="CMUBright-Roman" style="text-anchor:end;fill:rgb(0,0,0);" transform="rotate(0.5,675.2,1517.5)" >30-RH</text>
<path d="M830.675,1530.059 A670.000,670.000 40.000 0,1 831.235,1459.343 L751.382,1454.488 A750.000,750.000 0.000 0,0 750.755,1533.649 Z" style="stroke-width:2.0;stroke:rgb(115,115,115);stroke-linecap:round;fill:none;" />
<path d="M836.064,1410.064 A670.000,670.000 40.000 0,1 849.242,1340.583 L771.539,1321.549 A750.000,750.000 0.000 0,0 756.788,1399.325 Z" style="stroke-width:2.0;stroke:rgb(115,115,115);stroke-linecap:round;fill:rgb(253,141,60);" />
<text x="685.3" y="1369.9" font-size="65.0px" font-family="CMUBright-Roman" style="text-anchor:end;fill:rgb(0,0,0);" transform="rotate(10.7,685.3,1369.9)" >31-RLV</text>
<path d="M836.064,1410.064 A670.000,670.000 40.000 0,1 849.242,1340.583 L771.539,1321.549 A750.000,750.000 0.000 0,0 756.788,1399.325 Z" style="stroke-width:2.0;stroke:rgb(115,115,115);stroke-linecap:round;fill:none;" />
<path d="M862.792,1292.959 A670.000,670.000 40.000 0,1 888.165,1226.948 L815.110,1194.345 A750.000,750.000 0.000 0,0 786.708,1268.237 Z" style="stroke-width:2.0;stroke:rgb(115,115,115);stroke-linecap:round;fill:rgb(253,141,60);" />
<text x="721.6" y="1226.5" font-size="65.0px" font-family="CMUBright-Roman" style="text-anchor:end;fill:rgb(0,0,0);" transform="rotate(21.0,721.6,1226.5)" >32-RLV</text>
<path d="M862.792,1292.959 A670.000,670.000 40.000 0,1 888.165,1226.948 L815.110,1194.345 A750.000,750.000 0.000 0,0 786.708,1268.237 Z" style="stroke-width:2.0;stroke:rgb(115,115,115);stroke-linecap:round;fill:none;" />
<path d="M910.001,1182.508 A670.000,670.000 40.000 0,1 946.752,1122.089 L880.693,1076.965 A750.000,750.000 0.000 0,0 839.553,1144.599 Z" style="stroke-width:2.0;stroke:rgb(115,115,115);stroke-linecap:round;fill:rgb(253,141,60);" />
<text x="782.7" y="1092.4" font-size="65.0px" font-family="CMUBright-Roman" style="text-anchor:end;fill:rgb(0,0,0);" transform="rotate(31.3,782.7,1092.4)" >33-SC</text>
<path d="M910.001,1182.508 A670.000,670.000 40.000 0,1 946.752,1122.089 L880.693,1076.965 A750.000,750.000 0.000 0,0 839.553,1144.599 Z" style="stroke-width:2.0;stroke:rgb(115,115,115);stroke-linecap:round;fill:none;" />
<path d="M976.173,1082.262 A670.000,670.000 40.000 0,1 1023.122,1029.376 L966.181,973.182 A750.000,750.000 0.000 0,0 913.626,1032.383 Z" style="stroke-width:2.0;stroke:rgb(115,115,115);stroke-linecap:round;fill:rgb(66,146,198);" />
<text x="867.4" y="970.5" font-size="65.0px" font-family="CMUBright-Roman" style="text-anchor:end;fill:rgb(0,0,0);" transform="rotate(41.6,867.4,970.5)" >5-FP</text>
<path d="M976.173,1082.262 A670.000,670.000 40.000 0,1 1023.122,1029.376 L966.181,973.182 A750.000,750.000 0.000 0,0 913.626,1032.383 Z" style="stroke-width:2.0;stroke:rgb(115,115,115);stroke-linecap:round;fill:none;" />
<path d="M1059.181,995.442 A670.000,670.000 40.000 0,1 1114.819,951.789 L1068.827,886.331 A750.000,750.000 0.000 0,0 1006.546,935.196 Z" style="stroke-width:2.0;stroke:rgb(115,115,115);stroke-linecap:round;fill:rgb(66,146,198);" />
<text x="972.1" y="866.0" font-size="65.0px" font-family="CMUBright-Roman" style="text-anchor:end;fill:rgb(0,0,0);" transform="rotate(51.9,972.1,866.0)" >10-IPL</text>
<path d="M1059.181,995.442 A670.000,670.000 40.000 0,1 1114.819,951.789 L1068.827,886.331 A750.000,750.000 0.000 0,0 1006.546,935.196 Z" style="stroke-width:2.0;stroke:rgb(115,115,115);stroke-linecap:round;fill:none;" />
<path d="M1156.357,924.839 A670.000,670.000 40.000 0,1 1218.896,891.822 L1185.331,819.204 A750.000,750.000 0.000 0,0 1115.326,856.163 Z" style="stroke-width:2.0;stroke:rgb(115,115,115);stroke-linecap:round;fill:rgb(66,146,198);" />
<text x="1093.3" y="782.2" font-size="65.0px" font-family="CMUBright-Roman" style="text-anchor:end;fill:rgb(0,0,0);" transform="rotate(62.2,1093.3,782.2)" >13-LCI</text>
<path d="M1156.357,924.839 A670.000,670.000 40.000 0,1 1218.896,891.822 L1185.331,819.204 A750.000,750.000 0.000 0,0 1115.326,856.163 Z" style="stroke-width:2.0;stroke:rgb(115,115,115);stroke-linecap:round;fill:none;" />
<path d="M1264.579,872.723 A670.000,670.000 40.000 0,1 1332.008,851.403 L1311.949,773.958 A750.000,750.000 0.000 0,0 1236.469,797.824 Z" style="stroke-width:2.0;stroke:rgb(115,115,115);stroke-linecap:round;fill:rgb(66,146,198);" />
<text x="1228.0" y="721.1" font-size="65.0px" font-family="CMUBright-Roman" style="text-anchor:end;fill:rgb(0,0,0);" transform="rotate(72.5,1228.0,721.1)" >27-RCI</text>
<path d="M1264.579,872.723 A670.000,670.000 40.000 0,1 1332.008,851.403 L1311.949,773.958 A750.000,750.000 0.000 0,0 1236.469,797.824 Z" style="stroke-width:2.0;stroke:rgb(115,115,115);stroke-linecap:round;fill:none;" />
<path d="M1380.367,840.767 A670.000,670.000 40.000 0,1 1450.519,831.830 L1444.611,752.048 A750.000,750.000 0.000 0,0 1366.082,762.053 Z" style="stroke-width:2.0;stroke:rgb(115,115,115);stroke-linecap:round;fill:rgb(66,146,198);" />
<text x="1371.5" y="685.1" font-size="65.0px" font-family="CMUBright-Roman" style="text-anchor:end;fill:rgb(0,0,0);" transform="rotate(82.7,1371.5,685.1)" >28-RCI</text>
<path d="M1380.367,840.767 A670.000,670.000 40.000 0,1 1450.519,831.830 L1444.611,752.048 A750.000,750.000 0.000 0,0 1366.082,762.053 Z" style="stroke-width:2.0;stroke:rgb(115,115,115);stroke-linecap:round;fill:none;" />
</g>
<g id="track_1">
<path d="M 1936.2,1963.5 L 1914.1,1940.0 1892.0,1916.4 1869.9,1892.7 1847.8,1868.9 1825.7,1845.0 1803.7,1821.1 1781.7,1797.1 1759.7,1773.0 1737.8,1748.9 1715.9,1724.7 1694.0,1700.4 1672.2,1676.0 1650.4,1651.6 1628.7,1627.1 1607.0,1602.5 1585.4,1577.9 1563.9,1553.2 1542.3,1528.5 1520.9,1503.6 1499.5,1478.8 1478.2,1453.9 1457.0,1428.9 1435.8,1403.9 1414.7,1378.8 1393.6,1353.7 1372.7,1328.5 1351.8,1303.4 1331.0,1278.1 1310.2,1252.9 1289.6,1227.6 1269.0,1202.3 1248.5,1176.9 1228.0,1151.6 1207.7,1126.2 1187.4,1100.8 1167.2,1075.4 1147.1,1050.0 1127.1,1024.6 1107.1,999.2  " style="stroke-opacity: 1.000000; stroke-width: 5.0; stroke: rgb(251,106,74); fill: none"  />
<path d="M 1936.2,1963.5 L 1919.4,1945.5 1903.0,1927.5 1886.9,1909.5 1871.4,1891.7 1856.5,1874.2 1842.4,1857.0 1829.2,1840.3 1817.0,1824.2 1805.8,1808.6 1795.7,1793.8 1786.9,1779.7 1779.3,1766.4 1773.0,1753.9 1768.1,1742.4 1764.7,1731.9 1762.6,1722.4 1762.0,1713.9 1762.9,1706.4 1765.3,1700.1 1769.2,1694.8 1774.6,1690.7 1781.5,1687.6 1789.7,1685.7 1799.5,1684.8 1810.6,1685.0 1823.0,1686.3 1836.7,1688.7 1851.6,1692.0 1867.7,1696.3 1884.9,1701.6 1903.0,1707.7 1922.1,1714.7 1941.9,1722.4 1962.5,1730.8 1983.6,1739.8 2005.2,1749.4 2027.1,1759.5 2049.1,1770.0 2071.3,1780.7  " style="stroke-opacity: 1.000000; stroke-width: 5.0; stroke: rgb(251,106,74); fill: none"  />
<path d="M 1936.2,1963.5 L 1915.1,1940.9 1894.1,1917.9 1873.2,1894.6 1852.4,1871.0 1831.7,1847.0 1811.2,1822.7 1790.9,1798.1 1770.8,1773.1 1750.9,1747.9 1731.2,1722.3 1711.8,1696.4 1692.7,1670.2 1673.8,1643.8 1655.2,1617.0 1637.0,1590.0 1619.1,1562.8 1601.5,1535.2 1584.2,1507.5 1567.3,1479.5 1550.7,1451.3 1534.5,1422.9 1518.7,1394.2 1503.3,1365.5 1488.2,1336.5 1473.5,1307.4 1459.3,1278.2 1445.4,1248.8 1431.8,1219.3 1418.7,1189.7 1406.0,1160.1 1393.6,1130.4 1381.7,1100.7 1370.1,1070.9 1358.8,1041.2 1348.0,1011.4 1337.5,981.7 1327.4,952.1 1317.6,922.6 1308.1,893.1  " style="stroke-opacity: 1.000000; stroke-width: 5.0; stroke: rgb(251,106,74); fill: none"  />
<path d="M 2133.5,1562.1 L 2108.2,1559.9 2083.0,1558.2 2057.9,1557.1 2033.1,1556.7 2008.6,1556.9 1984.7,1557.9 1961.4,1559.7 1938.8,1562.3 1917.0,1565.7 1896.2,1570.0 1876.3,1575.2 1857.6,1581.2 1840.0,1588.3 1823.6,1596.2 1808.5,1605.1 1794.7,1614.9 1782.2,1625.6 1771.2,1637.3 1761.5,1649.9 1753.3,1663.3 1746.6,1677.7 1741.3,1692.8 1737.5,1708.8 1735.2,1725.6 1734.2,1743.1 1734.7,1761.3 1736.6,1780.2 1739.8,1799.6 1744.3,1819.6 1750.1,1840.1 1757.1,1861.0 1765.2,1882.2 1774.3,1903.8 1784.4,1925.5 1795.4,1947.3 1807.3,1969.2 1819.8,1991.0 1832.9,2012.6 1846.4,2034.0  " style="stroke-opacity: 1.000000; stroke-width: 5.0; stroke: rgb(251,106,74); fill: none"  />
<path d="M 1846.4,2034.0 L 1832.9,2012.6 1819.8,1991.0 1807.3,1969.2 1795.4,1947.3 1784.4,1925.5 1774.3,1903.8 1765.2,1882.2 1757.1,1861.0 1750.1,1840.1 1744.3,1819.6 1739.8,1799.6 1736.6,1780.2 1734.7,1761.3 1734.2,1743.1 1735.2,1725.6 1737.5,1708.8 1741.3,1692.8 1746.6,1677.7 1753.3,1663.3 1761.5,1649.9 1771.2,1637.3 1782.2,1625.6 1794.7,1614.9 1808.5,1605.1 1823.6,1596.2 1840.0,1588.3 1857.6,1581.2 1876.3,1575.2 1896.2,1570.0 1917.0,1565.7 1938.8,1562.3 1961.4,1559.7 1984.7,1557.9 2008.6,1556.9 2033.1,1556.7 2057.9,1557.1 2083.0,1558.2 2108.2,1559.9 2133.5,1562.1  " style="stroke-opacity: 1.000000; stroke-width: 5.0; stroke: rgb(251,106,74); fill: none"  />
<path d="M 1846.4,2034.0 L 1832.2,2012.6 1817.5,1991.5 1802.3,1970.9 1786.6,1950.8 1770.5,1931.5 1754.1,1913.0 1737.3,1895.4 1720.2,1878.9 1702.7,1863.4 1685.1,1849.2 1667.2,1836.2 1649.1,1824.6 1630.9,1814.4 1612.5,1805.6 1594.1,1798.4 1575.5,1792.7 1557.0,1788.6 1538.4,1786.0 1519.8,1785.1 1501.3,1785.8 1482.8,1788.1 1464.5,1792.0 1446.3,1797.5 1428.2,1804.5 1410.3,1813.1 1392.7,1823.2 1375.2,1834.7 1358.1,1847.6 1341.2,1861.9 1324.6,1877.4 1308.4,1894.1 1292.6,1911.9 1277.1,1930.6 1262.1,1950.3 1247.5,1970.8 1233.3,1991.9 1219.7,2013.6 1206.6,2035.7 1194.0,2058.1  " style="stroke-opacity: 1.000000; stroke-width: 5.0; stroke: rgb(251,106,74); fill: none"  />
<path d="M 1533.6,864.4 L 1532.1,889.4 1530.1,914.2 1527.6,938.8 1524.7,962.9 1521.2,986.5 1517.2,1009.4 1512.6,1031.5 1507.4,1052.6 1501.7,1072.7 1495.4,1091.7 1488.4,1109.4 1480.9,1125.7 1472.7,1140.7 1464.0,1154.2 1454.6,1166.3 1444.6,1176.7 1434.1,1185.5 1423.0,1192.7 1411.3,1198.3 1399.1,1202.1 1386.4,1204.3 1373.1,1204.8 1359.4,1203.6 1345.3,1200.8 1330.7,1196.4 1315.8,1190.3 1300.5,1182.8 1284.9,1173.7 1269.0,1163.2 1253.0,1151.4 1236.7,1138.2 1220.4,1123.9 1203.9,1108.5 1187.5,1092.0 1171.1,1074.7 1154.8,1056.7 1138.6,1038.0 1122.7,1018.8 1107.1,999.2  " style="stroke-opacity: 1.000000; stroke-width: 5.0; stroke: rgb(251,106,74); fill: none"  />
<path d="M 1533.6,864.4 L 1531.8,893.3 1529.4,922.4 1526.5,951.6 1522.8,981.0 1518.6,1010.5 1513.6,1040.1 1507.9,1069.6 1501.5,1099.1 1494.3,1128.4 1486.4,1157.7 1477.7,1186.7 1468.2,1215.6 1457.9,1244.2 1446.8,1272.5 1434.9,1300.5 1422.2,1328.2 1408.7,1355.5 1394.4,1382.4 1379.4,1408.8 1363.6,1434.8 1347.0,1460.4 1329.7,1485.4 1311.6,1509.9 1292.9,1533.9 1273.5,1557.4 1253.5,1580.2 1232.8,1602.5 1211.5,1624.2 1189.7,1645.3 1167.4,1665.8 1144.6,1685.7 1121.4,1704.9 1097.8,1723.6 1073.9,1741.6 1049.7,1758.9 1025.2,1775.7 1000.6,1791.8 975.8,1807.3 951.0,1822.1  " style="stroke-opacity: 1.000000; stroke-width: 5.0; stroke: rgb(251,106,74); fill: none"  />
<path d="M 1745.5,2087.2 L 1733.2,2058.1 1720.8,2028.9 1708.0,1999.7 1695.1,1970.4 1682.0,1941.1 1668.6,1911.8 1654.9,1882.5 1641.1,1853.2 1627.0,1824.0 1612.7,1794.7 1598.1,1765.5 1583.3,1736.4 1568.3,1707.4 1553.0,1678.4 1537.5,1649.5 1521.7,1620.6 1505.8,1591.9 1489.6,1563.3 1473.1,1534.8 1456.5,1506.5 1439.6,1478.2 1422.6,1450.1 1405.3,1422.2 1387.8,1394.4 1370.1,1366.7 1352.3,1339.3 1334.2,1312.0 1316.0,1284.8 1297.7,1257.9 1279.1,1231.1 1260.5,1204.6 1241.7,1178.2 1222.7,1152.0 1203.7,1126.0 1184.5,1100.2 1165.3,1074.7 1145.9,1049.3 1126.6,1024.2 1107.1,999.2  " style="stroke-opacity: 1.000000; stroke-width: 5.0; stroke: rgb(251,106,74); fill: none"  />
<path d="M 1107.1,999.2 L 1127.1,1024.6 1147.1,1050.0 1167.2,1075.4 1187.4,1100.8 1207.7,1126.2 1228.0,1151.6 1248.5,1176.9 1269.0,1202.3 1289.6,1227.6 1310.2,1252.9 1331.0,1278.1 1351.8,1303.4 1372.7,1328.5 1393.6,1353.7 1414.7,1378.8 1435.8,1403.9 1457.0,1428.9 1478.2,1453.9 1499.5,1478.8 1520.9,1503.6 1542.3,1528.5 1563.9,1553.2 1585.4,1577.9 1607.0,1602.5 1628.7,1627.1 1650.4,1651.6 1672.2,1676.0 1694.0,1700.4 1715.9,1724.7 1737.8,1748.9 1759.7,1773.0 1781.7,1797.1 1803.7,1821.1 1825.7,1845.0 1847.8,1868.9 1869.9,1892.7 1892.0,1916.4 1914.1,1940.0 1936.2,1963.5  " style="stroke-opacity: 1.000000; stroke-width: 5.0; stroke: rgb(251,106,74); fill: none"  />
<path d="M 1107.1,999.2 L 1122.7,1018.8 1138.6,1038.0 1154.8,1056.7 1171.1,1074.7 1187.5,1092.0 1203.9,1108.5 1220.4,1123.9 1236.7,1138.2 1253.0,1151.4 1269.0,1163.2 1284.9,1173.7 1300.5,1182.8 1315.8,1190.3 1330.7,1196.4 1345.3,1200.8 1359.4,1203.6 1373.1,1204.8 1386.4,1204.3 1399.1,1202.1 1411.3,1198.3 1423.0,1192.7 1434.1,1185.5 1444.6,1176.7 1454.6,1166.3 1464.0,1154.2 1472.7,1140.7 1480.9,1125.7 1488.4,1109.4 1495.4,1091.7 1501.7,1072.7 1507.4,1052.6 1512.6,1031.5 1517.2,1009.4 1521.2,986.5 1524.7,962.9 1527.6,938.8 1530.1,914.2 1532.1,889.4 1533.6,864.4  " style="stroke-opacity: 1.000000; stroke-width: 5.0; stroke: rgb(251,106,74); fill: none"  />
<path d="M 1107.1,999.2 L 1126.6,1024.2 1145.9,1049.3 1165.3,1074.7 1184.5,1100.2 1203.7,1126.0 1222.7,1152.0 1241.7,1178.2 1260.5,1204.6 1279.1,1231.1 1297.7,1257.9 1316.0,1284.8 1334.2,1312.0 1352.3,1339.3 1370.1,1366.7 1387.8,1394.4 1405.3,1422.2 1422.6,1450.1 1439.6,1478.2 1456.5,1506.5 1473.1,1534.8 1489.6,1563.3 1505.8,1591.9 1521.7,1620.6 1537.5,1649.5 1553.0,1678.4 1568.3,1707.4 1583.3,1736.4 1598.1,1765.5 1612.7,1794.7 1627.0,1824.0 1641.1,1853.2 1654.9,1882.5 1668.6,1911.8 1682.0,1941.1 1695.1,1970.4 1708.0,1999.7 1720.8,2028.9 1733.2,2058.1 1745.5,2087.2  " style="stroke-opacity: 1.000000; stroke-width: 5.0; stroke: rgb(251,106,74); fill: none"  />
<path d="M 1107.1,999.2 L 1123.5,1019.6 1140.4,1039.6 1157.8,1059.1 1175.7,1078.1 1194.1,1096.3 1212.9,1113.8 1232.0,1130.3 1251.6,1145.9 1271.4,1160.4 1291.5,1173.7 1311.8,1185.8 1332.4,1196.6 1353.1,1206.1 1374.0,1214.3 1395.0,1221.0 1416.1,1226.2 1437.2,1230.0 1458.4,1232.2 1479.6,1233.0 1500.7,1232.2 1521.7,1229.9 1542.6,1226.1 1563.4,1220.8 1584.1,1214.0 1604.5,1205.7 1624.8,1196.1 1644.8,1185.1 1664.5,1172.8 1683.9,1159.2 1702.9,1144.4 1721.6,1128.5 1739.9,1111.5 1757.8,1093.6 1775.3,1074.8 1792.2,1055.3 1808.7,1035.1 1824.6,1014.3 1840.0,993.1 1854.8,971.6  " style="stroke-opacity: 1.000000; stroke-width: 5.0; stroke: rgb(251,106,74); fill: none"  />
<path d="M 1107.1,999.2 L 1125.2,1022.6 1143.0,1046.6 1160.6,1071.0 1177.9,1095.9 1194.8,1121.2 1211.4,1147.0 1227.5,1173.3 1243.1,1200.0 1258.2,1227.1 1272.8,1254.5 1286.9,1282.4 1300.4,1310.6 1313.2,1339.2 1325.5,1368.1 1337.1,1397.3 1348.0,1426.7 1358.2,1456.5 1367.8,1486.5 1376.6,1516.7 1384.8,1547.1 1392.2,1577.7 1398.9,1608.5 1404.9,1639.4 1410.1,1670.4 1414.6,1701.4 1418.5,1732.6 1421.6,1763.8 1424.0,1794.9 1425.7,1826.1 1426.8,1857.2 1427.2,1888.2 1427.0,1919.1 1426.1,1949.9 1424.7,1980.6 1422.7,2011.0 1420.1,2041.2 1417.1,2071.1 1413.5,2100.7 1409.6,2130.0  " style="stroke-opacity: 1.000000; stroke-width: 5.0; stroke: rgb(251,106,74); fill: none"  />
<path d="M 1194.0,2058.1 L 1206.6,2035.7 1219.7,2013.6 1233.3,1991.9 1247.5,1970.8 1262.1,1950.3 1277.1,1930.6 1292.6,1911.9 1308.4,1894.1 1324.6,1877.4 1341.2,1861.9 1358.1,1847.6 1375.2,1834.7 1392.7,1823.2 1410.3,1813.1 1428.2,1804.5 1446.3,1797.5 1464.5,1792.0 1482.8,1788.1 1501.3,1785.8 1519.8,1785.1 1538.4,1786.0 1557.0,1788.6 1575.5,1792.7 1594.1,1798.4 1612.5,1805.6 1630.9,1814.4 1649.1,1824.6 1667.2,1836.2 1685.1,1849.2 1702.7,1863.4 1720.2,1878.9 1737.3,1895.4 1754.1,1913.0 1770.5,1931.5 1786.6,1950.8 1802.3,1970.9 1817.5,1991.5 1832.2,2012.6 1846.4,2034.0  " style="stroke-opacity: 1.000000; stroke-width: 5.0; stroke: rgb(251,106,74); fill: none"  />
<path d="M 1194.0,2058.1 L 1206.2,2036.3 1218.7,2014.7 1231.6,1993.7 1244.8,1973.2 1258.1,1953.4 1271.7,1934.5 1285.4,1916.6 1299.2,1899.8 1313.1,1884.2 1327.0,1869.9 1340.9,1857.0 1354.8,1845.5 1368.7,1835.5 1382.5,1827.1 1396.1,1820.4 1409.6,1815.3 1422.9,1811.9 1436.1,1810.2 1449.0,1810.3 1461.7,1812.1 1474.1,1815.7 1486.2,1821.0 1498.1,1828.0 1509.6,1836.7 1520.8,1847.0 1531.6,1858.9 1542.1,1872.4 1552.2,1887.3 1562.0,1903.6 1571.3,1921.3 1580.2,1940.2 1588.8,1960.2 1596.9,1981.2 1604.6,2003.2 1611.9,2025.9 1618.7,2049.2 1625.1,2073.1 1631.1,2097.3 1636.7,2121.6  " style="stroke-opacity: 1.000000; stroke-width: 5.0; stroke: rgb(251,106,74); fill: none"  />
<path d="M 1099.2,1994.5 L 1114.9,1975.3 1130.9,1956.5 1146.9,1938.2 1162.9,1920.5 1179.0,1903.5 1194.9,1887.3 1210.6,1872.2 1226.0,1858.1 1241.2,1845.2 1256.0,1833.5 1270.4,1823.2 1284.3,1814.3 1297.7,1806.9 1310.6,1801.0 1322.9,1796.7 1334.5,1794.0 1345.6,1792.9 1355.9,1793.5 1365.5,1795.7 1374.4,1799.6 1382.6,1805.1 1390.1,1812.3 1396.7,1821.2 1402.7,1831.6 1407.8,1843.5 1412.3,1857.0 1415.9,1871.8 1418.9,1888.1 1421.1,1905.7 1422.6,1924.4 1423.4,1944.3 1423.6,1965.2 1423.2,1987.1 1422.2,2009.7 1420.6,2033.0 1418.5,2056.8 1415.9,2081.0 1412.9,2105.5 1409.6,2130.0  " style="stroke-opacity: 1.000000; stroke-width: 5.0; stroke: rgb(251,106,74); fill: none"  />
<path d="M 1636.7,2121.6 L 1631.1,2097.3 1625.1,2073.1 1618.7,2049.2 1611.9,2025.9 1604.6,2003.2 1596.9,1981.2 1588.8,1960.2 1580.2,1940.2 1571.3,1921.3 1562.0,1903.6 1552.2,1887.3 1542.1,1872.4 1531.6,1858.9 1520.8,1847.0 1509.6,1836.7 1498.1,1828.0 1486.2,1821.0 1474.1,1815.7 1461.7,1812.1 1449.0,1810.3 1436.1,1810.2 1422.9,1811.9 1409.6,1815.3 1396.1,1820.4 1382.5,1827.1 1368.7,1835.5 1354.8,1845.5 1340.9,1857.0 1327.0,1869.9 1313.1,1884.2 1299.2,1899.8 1285.4,1916.6 1271.7,1934.5 1258.1,1953.4 1244.8,1973.2 1231.6,1993.7 1218.7,2014.7 1206.2,2036.3 1194.0,2058.1  " style="stroke-opacity: 1.000000; stroke-width: 5.0; stroke: rgb(251,106,74); fill: none"  />
<path d="M 1636.7,2121.6 L 1630.9,2096.6 1624.5,2071.7 1617.5,2047.1 1609.9,2022.8 1601.7,1999.0 1592.8,1975.9 1583.2,1953.6 1573.0,1932.0 1562.1,1911.5 1550.6,1891.9 1538.4,1873.5 1525.6,1856.3 1512.1,1840.3 1498.0,1825.7 1483.2,1812.4 1467.9,1800.6 1451.9,1790.2 1435.4,1781.3 1418.4,1773.9 1400.8,1768.0 1382.7,1763.7 1364.2,1760.9 1345.2,1759.6 1325.8,1759.9 1306.0,1761.7 1285.9,1764.9 1265.6,1769.6 1245.0,1775.6 1224.2,1783.0 1203.2,1791.7 1182.2,1801.6 1161.1,1812.7 1140.0,1824.9 1119.0,1838.0 1098.2,1852.0 1077.5,1866.8 1057.1,1882.4 1037.0,1898.4 1017.4,1915.0  " style="stroke-opacity: 1.000000; stroke-width: 5.0; stroke: rgb(251,106,74); fill: none"  />
<path d="M 1636.7,2121.6 L 1630.8,2096.2 1624.2,2070.8 1617.0,2045.7 1609.1,2020.8 1600.5,1996.4 1591.1,1972.5 1581.0,1949.3 1570.2,1926.8 1558.6,1905.2 1546.3,1884.5 1533.2,1864.7 1519.4,1846.0 1504.8,1828.5 1489.5,1812.1 1473.5,1797.0 1456.8,1783.1 1439.4,1770.5 1421.3,1759.3 1402.6,1749.5 1383.2,1741.0 1363.2,1733.9 1342.7,1728.3 1321.7,1724.1 1300.1,1721.2 1278.1,1719.8 1255.7,1719.7 1232.9,1720.9 1209.8,1723.5 1186.5,1727.3 1162.9,1732.3 1139.1,1738.6 1115.3,1745.9 1091.4,1754.3 1067.5,1763.6 1043.8,1773.9 1020.2,1784.9 996.8,1796.7 973.7,1809.2 951.0,1822.1  " style="stroke-opacity: 1.000000; stroke-width: 5.0; stroke: rgb(251,106,74); fill: none"  />
<path d="M 2112.2,1674.2 L 2086.0,1667.1 2059.5,1660.6 2032.7,1654.7 2005.7,1649.7 1978.5,1645.4 1951.3,1642.0 1924.1,1639.5 1896.9,1637.9 1869.8,1637.4 1843.0,1637.9 1816.3,1639.5 1789.9,1642.2 1763.8,1646.0 1738.1,1651.0 1712.8,1657.1 1688.0,1664.4 1663.6,1672.8 1639.8,1682.5 1616.5,1693.3 1593.9,1705.3 1571.8,1718.4 1550.4,1732.6 1529.7,1747.9 1509.7,1764.3 1490.4,1781.8 1471.8,1800.2 1453.9,1819.6 1436.8,1839.8 1420.4,1861.0 1404.8,1882.9 1390.0,1905.5 1376.0,1928.8 1362.7,1952.7 1350.1,1977.1 1338.3,2002.0 1327.3,2027.2 1317.0,2052.6 1307.4,2078.1 1298.5,2103.8  " style="stroke-opacity: 1.000000; stroke-width: 5.0; stroke: rgb(251,106,74); fill: none"  />
<path d="M 1854.8,971.6 L 1840.0,993.1 1824.6,1014.3 1808.7,1035.1 1792.2,1055.3 1775.3,1074.8 1757.8,1093.6 1739.9,1111.5 1721.6,1128.5 1702.9,1144.4 1683.9,1159.2 1664.5,1172.8 1644.8,1185.1 1624.8,1196.1 1604.5,1205.7 1584.1,1214.0 1563.4,1220.8 1542.6,1226.1 1521.7,1229.9 1500.7,1232.2 1479.6,1233.0 1458.4,1232.2 1437.2,1230.0 1416.1,1226.2 1395.0,1221.0 1374.0,1214.3 1353.1,1206.1 1332.4,1196.6 1311.8,1185.8 1291.5,1173.7 1271.4,1160.4 1251.6,1145.9 1232.0,1130.3 1212.9,1113.8 1194.1,1096.3 1175.7,1078.1 1157.8,1059.1 1140.4,1039.6 1123.5,1019.6 1107.1,999.2  " style="stroke-opacity: 1.000000; stroke-width: 5.0; stroke: rgb(251,106,74); fill: none"  />
<path d="M 1017.4,1915.0 L 1037.0,1898.4 1057.1,1882.4 1077.5,1866.8 1098.2,1852.0 1119.0,1838.0 1140.0,1824.9 1161.1,1812.7 1182.2,1801.6 1203.2,1791.7 1224.2,1783.0 1245.0,1775.6 1265.6,1769.6 1285.9,1764.9 1306.0,1761.7 1325.8,1759.9 1345.2,1759.6 1364.2,1760.9 1382.7,1763.7 1400.8,1768.0 1418.4,1773.9 1435.4,1781.3 1451.9,1790.2 1467.9,1800.6 1483.2,1812.4 1498.0,1825.7 1512.1,1840.3 1525.6,1856.3 1538.4,1873.5 1550.6,1891.9 1562.1,1911.5 1573.0,1932.0 1583.2,1953.6 1592.8,1975.9 1601.7,1999.0 1609.9,2022.8 1617.5,2047.1 1624.5,2071.7 1630.9,2096.6 1636.7,2121.6  " style="stroke-opacity: 1.000000; stroke-width: 5.0; stroke: rgb(251,106,74); fill: none"  />
<path d="M 951.0,1822.1 L 975.8,1807.3 1000.6,1791.8 1025.2,1775.7 1049.7,1758.9 1073.9,1741.6 1097.8,1723.6 1121.4,1704.9 1144.6,1685.7 1167.4,1665.8 1189.7,1645.3 1211.5,1624.2 1232.8,1602.5 1253.5,1580.2 1273.5,1557.4 1292.9,1533.9 1311.6,1509.9 1329.7,1485.4 1347.0,1460.4 1363.6,1434.8 1379.4,1408.8 1394.4,1382.4 1408.7,1355.5 1422.2,1328.2 1434.9,1300.5 1446.8,1272.5 1457.9,1244.2 1468.2,1215.6 1477.7,1186.7 1486.4,1157.7 1494.3,1128.4 1501.5,1099.1 1507.9,1069.6 1513.6,1040.1 1518.6,1010.5 1522.8,981.0 1526.5,951.6 1529.4,922.4 1531.8,893.3 1533.6,864.4  " style="stroke-opacity: 1.000000; stroke-width: 5.0; stroke: rgb(251,106,74); fill: none"  />
<path d="M 951.0,1822.1 L 973.7,1809.2 996.8,1796.7 1020.2,1784.9 1043.8,1773.9 1067.5,1763.6 1091.4,1754.3 1115.3,1745.9 1139.1,1738.6 1162.9,1732.3 1186.5,1727.3 1209.8,1723.5 1232.9,1720.9 1255.7,1719.7 1278.1,1719.8 1300.1,1721.2 1321.7,1724.1 1342.7,1728.3 1363.2,1733.9 1383.2,1741.0 1402.6,1749.5 1421.3,1759.3 1439.4,1770.5 1456.8,1783.1 1473.5,1797.0 1489.5,1812.1 1504.8,1828.5 1519.4,1846.0 1533.2,1864.7 1546.3,1884.5 1558.6,1905.2 1570.2,1926.8 1581.0,1949.3 1591.1,1972.5 1600.5,1996.4 1609.1,2020.8 1617.0,2045.7 1624.2,2070.8 1630.8,2096.2 1636.7,2121.6  " style="stroke-opacity: 1.000000; stroke-width: 5.0; stroke: rgb(251,106,74); fill: none"  />
<path d="M 2071.3,1780.7 L 2049.1,1770.0 2027.1,1759.5 2005.2,1749.4 1983.6,1739.8 1962.5,1730.8 1941.9,1722.4 1922.1,1714.7 1903.0,1707.7 1884.9,1701.6 1867.7,1696.3 1851.6,1692.0 1836.7,1688.7 1823.0,1686.3 1810.6,1685.0 1799.5,1684.8 1789.7,1685.7 1781.5,1687.6 1774.6,1690.7 1769.2,1694.8 1765.3,1700.1 1762.9,1706.4 1762.0,1713.9 1762.6,1722.4 1764.7,1731.9 1768.1,1742.4 1773.0,1753.9 1779.3,1766.4 1786.9,1779.7 1795.7,1793.8 1805.8,1808.6 1817.0,1824.2 1829.2,1840.3 1842.4,1857.0 1856.5,1874.2 1871.4,1891.7 1886.9,1909.5 1903.0,1927.5 1919.4,1945.5 1936.2,1963.5  " style="stroke-opacity: 1.000000; stroke-width: 5.0; stroke: rgb(251,106,74); fill: none"  />
<path d="M 1523.5,2136.1 L 1522.3,2103.8 1521.0,2071.5 1519.7,2039.1 1518.3,2006.7 1516.8,1974.2 1515.2,1941.7 1513.6,1909.2 1511.9,1876.7 1510.1,1844.1 1508.3,1811.5 1506.3,1778.8 1504.3,1746.2 1502.2,1713.5 1500.0,1680.9 1497.8,1648.2 1495.4,1615.5 1493.0,1582.8 1490.5,1550.1 1487.9,1517.4 1485.2,1484.8 1482.5,1452.1 1479.6,1419.4 1476.7,1386.8 1473.7,1354.1 1470.6,1321.5 1467.4,1288.9 1464.1,1256.4 1460.8,1223.9 1457.4,1191.3 1453.9,1158.9 1450.4,1126.4 1446.7,1094.0 1443.0,1061.7 1439.3,1029.4 1435.4,997.1 1431.6,964.9 1427.6,932.8 1423.6,900.6 1419.6,868.6  " style="stroke-opacity: 1.000000; stroke-width: 5.0; stroke: rgb(251,106,74); fill: none"  />
<path d="M 1409.6,2130.0 L 1413.5,2100.7 1417.1,2071.1 1420.1,2041.2 1422.7,2011.0 1424.7,1980.6 1426.1,1949.9 1427.0,1919.1 1427.2,1888.2 1426.8,1857.2 1425.7,1826.1 1424.0,1794.9 1421.6,1763.8 1418.5,1732.6 1414.6,1701.4 1410.1,1670.4 1404.9,1639.4 1398.9,1608.5 1392.2,1577.7 1384.8,1547.1 1376.6,1516.7 1367.8,1486.5 1358.2,1456.5 1348.0,1426.7 1337.1,1397.3 1325.5,1368.1 1313.2,1339.2 1300.4,1310.6 1286.9,1282.4 1272.8,1254.5 1258.2,1227.1 1243.1,1200.0 1227.5,1173.3 1211.4,1147.0 1194.8,1121.2 1177.9,1095.9 1160.6,1071.0 1143.0,1046.6 1125.2,1022.6 1107.1,999.2  " style="stroke-opacity: 1.000000; stroke-width: 5.0; stroke: rgb(251,106,74); fill: none"  />
<path d="M 1409.6,2130.0 L 1412.9,2105.5 1415.9,2081.0 1418.5,2056.8 1420.6,2033.0 1422.2,2009.7 1423.2,1987.1 1423.6,1965.2 1423.4,1944.3 1422.6,1924.4 1421.1,1905.7 1418.9,1888.1 1415.9,1871.8 1412.3,1857.0 1407.8,1843.5 1402.7,1831.6 1396.7,1821.2 1390.1,1812.3 1382.6,1805.1 1374.4,1799.6 1365.5,1795.7 1355.9,1793.5 1345.6,1792.9 1334.5,1794.0 1322.9,1796.7 1310.6,1801.0 1297.7,1806.9 1284.3,1814.3 1270.4,1823.2 1256.0,1833.5 1241.2,1845.2 1226.0,1858.1 1210.6,1872.2 1194.9,1887.3 1179.0,1903.5 1162.9,1920.5 1146.9,1938.2 1130.9,1956.5 1114.9,1975.3 1099.2,1994.5  " style="stroke-opacity: 1.000000; stroke-width: 5.0; stroke: rgb(251,106,74); fill: none"  />
<path d="M 1308.1,893.1 L 1317.6,922.6 1327.4,952.1 1337.5,981.7 1348.0,1011.4 1358.8,1041.2 1370.1,1070.9 1381.7,1100.7 1393.6,1130.4 1406.0,1160.1 1418.7,1189.7 1431.8,1219.3 1445.4,1248.8 1459.3,1278.2 1473.5,1307.4 1488.2,1336.5 1503.3,1365.5 1518.7,1394.2 1534.5,1422.9 1550.7,1451.3 1567.3,1479.5 1584.2,1507.5 1601.5,1535.2 1619.1,1562.8 1637.0,1590.0 1655.2,1617.0 1673.8,1643.8 1692.7,1670.2 1711.8,1696.4 1731.2,1722.3 1750.9,1747.9 1770.8,1773.1 1790.9,1798.1 1811.2,1822.7 1831.7,1847.0 1852.4,1871.0 1873.2,1894.6 1894.1,1917.9 1915.1,1940.9 1936.2,1963.5  " style="stroke-opacity: 1.000000; stroke-width: 5.0; stroke: rgb(251,106,74); fill: none"  />
<path d="M 1419.6,868.6 L 1423.6,900.6 1427.6,932.8 1431.6,964.9 1435.4,997.1 1439.3,1029.4 1443.0,1061.7 1446.7,1094.0 1450.4,1126.4 1453.9,1158.9 1457.4,1191.3 1460.8,1223.9 1464.1,1256.4 1467.4,1288.9 1470.6,1321.5 1473.7,1354.1 1476.7,1386.8 1479.6,1419.4 1482.5,1452.1 1485.2,1484.8 1487.9,1517.4 1490.5,1550.1 1493.0,1582.8 1495.4,1615.5 1497.8,1648.2 1500.0,1680.9 1502.2,1713.5 1504.3,1746.2 1506.3,1778.8 1508.3,1811.5 1510.1,1844.1 1511.9,1876.7 1513.6,1909.2 1515.2,1941.7 1516.8,1974.2 1518.3,2006.7 1519.7,2039.1 1521.0,2071.5 1522.3,2103.8 1523.5,2136.1  " style="stroke-opacity: 1.000000; stroke-width: 5.0; stroke: rgb(251,106,74); fill: none"  />
<path d="M 1298.5,2103.8 L 1307.4,2078.1 1317.0,2052.6 1327.3,2027.2 1338.3,2002.0 1350.1,1977.1 1362.7,1952.7 1376.0,1928.8 1390.0,1905.5 1404.8,1882.9 1420.4,1861.0 1436.8,1839.8 1453.9,1819.6 1471.8,1800.2 1490.4,1781.8 1509.7,1764.3 1529.7,1747.9 1550.4,1732.6 1571.8,1718.4 1593.9,1705.3 1616.5,1693.3 1639.8,1682.5 1663.6,1672.8 1688.0,1664.4 1712.8,1657.1 1738.1,1651.0 1763.8,1646.0 1789.9,1642.2 1816.3,1639.5 1843.0,1637.9 1869.8,1637.4 1896.9,1637.9 1924.1,1639.5 1951.3,1642.0 1978.5,1645.4 2005.7,1649.7 2032.7,1654.7 2059.5,1660.6 2086.0,1667.1 2112.2,1674.2  " style="stroke-opacity: 1.000000; stroke-width: 5.0; stroke: rgb(251,106,74); fill: none"  />
</g>
<g id="track_0">
<path d="M 1936.2,1963.5 L 1919.4,1945.7 1902.6,1928.2 1886.0,1910.9 1869.6,1894.2 1853.5,1878.1 1838.0,1862.6 1822.9,1848.0 1808.5,1834.3 1794.8,1821.6 1781.9,1810.0 1769.8,1799.6 1758.6,1790.3 1748.4,1782.4 1739.2,1775.8 1731.0,1770.6 1723.9,1766.7 1717.9,1764.4 1713.0,1763.4 1709.2,1764.0 1706.6,1766.0 1705.2,1769.5 1704.9,1774.5 1705.8,1780.9 1707.8,1788.7 1711.0,1797.9 1715.2,1808.5 1720.5,1820.3 1726.8,1833.4 1734.0,1847.6 1742.2,1862.9 1751.3,1879.2 1761.2,1896.5 1771.8,1914.5 1783.1,1933.3 1794.9,1952.8 1807.3,1972.6 1820.1,1992.9 1833.2,2013.4 1846.4,2034.0  " style="stroke-opacity: 1.000000; stroke-width: 5.0; stroke: rgb(107,174,214); fill: none"  />
<path d="M 1936.2,1963.5 L 1919.3,1945.7 1902.3,1928.2 1885.3,1911.0 1868.5,1894.5 1851.9,1878.6 1835.6,1863.5 1819.7,1849.3 1804.3,1836.1 1789.5,1824.0 1775.3,1813.0 1761.7,1803.3 1748.9,1794.9 1736.9,1787.9 1725.7,1782.4 1715.4,1778.2 1706.0,1775.6 1697.6,1774.5 1690.1,1775.0 1683.6,1777.0 1678.1,1780.6 1673.6,1785.7 1670.2,1792.3 1667.7,1800.5 1666.3,1810.1 1665.9,1821.2 1666.4,1833.7 1667.9,1847.5 1670.3,1862.6 1673.7,1878.9 1677.9,1896.4 1682.9,1914.9 1688.6,1934.3 1695.1,1954.6 1702.3,1975.6 1710.0,1997.2 1718.3,2019.4 1727.0,2041.8 1736.1,2064.5 1745.5,2087.2  " style="stroke-opacity: 1.000000; stroke-width: 5.0; stroke: rgb(107,174,214); fill: none"  />
<path d="M 1936.2,1963.5 L 1919.1,1945.6 1901.8,1928.0 1884.5,1910.9 1867.2,1894.4 1850.0,1878.7 1832.9,1863.7 1816.1,1849.8 1799.7,1836.9 1783.6,1825.1 1768.0,1814.6 1752.9,1805.4 1738.3,1797.6 1724.4,1791.2 1711.1,1786.2 1698.5,1782.8 1686.7,1781.0 1675.7,1780.7 1665.4,1782.0 1655.9,1785.0 1647.3,1789.5 1639.6,1795.6 1632.7,1803.4 1626.7,1812.7 1621.5,1823.5 1617.3,1835.8 1613.9,1849.5 1611.3,1864.6 1609.6,1881.0 1608.6,1898.7 1608.5,1917.6 1609.2,1937.5 1610.5,1958.3 1612.6,1980.1 1615.3,2002.6 1618.6,2025.7 1622.4,2049.3 1626.8,2073.2 1631.6,2097.4 1636.7,2121.6  " style="stroke-opacity: 1.000000; stroke-width: 5.0; stroke: rgb(107,174,214); fill: none"  />
<path d="M 1936.2,1963.5 L 1918.4,1945.0 1900.1,1926.9 1881.5,1909.3 1862.5,1892.4 1843.2,1876.3 1823.7,1861.0 1804.1,1846.7 1784.3,1833.5 1764.4,1821.4 1744.5,1810.5 1724.6,1801.0 1704.7,1792.8 1684.9,1786.0 1665.3,1780.6 1645.9,1776.8 1626.6,1774.5 1607.6,1773.8 1588.8,1774.6 1570.4,1777.0 1552.3,1781.0 1534.6,1786.5 1517.2,1793.6 1500.3,1802.3 1483.7,1812.5 1467.7,1824.1 1452.1,1837.2 1437.0,1851.6 1422.4,1867.4 1408.4,1884.4 1394.8,1902.6 1381.9,1921.9 1369.5,1942.3 1357.6,1963.5 1346.3,1985.5 1335.6,2008.3 1325.5,2031.6 1315.9,2055.4 1306.9,2079.5 1298.5,2103.8  " style="stroke-opacity: 1.000000; stroke-width: 5.0; stroke: rgb(107,174,214); fill: none"  />
<path d="M 1024.0,1077.4 L 1042.4,1093.7 1060.6,1109.7 1078.8,1125.3 1096.6,1140.5 1114.0,1155.2 1130.9,1169.1 1147.2,1182.3 1162.7,1194.7 1177.5,1206.1 1191.4,1216.5 1204.4,1225.8 1216.4,1234.0 1227.3,1241.0 1237.1,1246.8 1245.7,1251.2 1253.1,1254.4 1259.3,1256.2 1264.3,1256.7 1268.0,1255.8 1270.3,1253.6 1271.5,1249.9 1271.3,1245.0 1269.8,1238.7 1267.1,1231.1 1263.2,1222.2 1258.0,1212.1 1251.7,1200.8 1244.3,1188.3 1235.8,1174.8 1226.2,1160.3 1215.7,1144.8 1204.3,1128.5 1192.1,1111.5 1179.2,1093.8 1165.7,1075.5 1151.6,1056.8 1137.0,1037.8 1122.2,1018.5 1107.1,999.2  " style="stroke-opacity: 1.000000; stroke-width: 5.0; stroke: rgb(107,174,214); fill: none"  />
<path d="M 1024.0,1077.4 L 1042.8,1093.9 1061.9,1109.9 1081.1,1125.4 1100.4,1140.3 1119.6,1154.4 1138.8,1167.6 1157.7,1179.9 1176.4,1191.0 1194.7,1201.1 1212.6,1209.9 1230.1,1217.4 1247.0,1223.5 1263.4,1228.2 1279.2,1231.5 1294.3,1233.3 1308.8,1233.5 1322.5,1232.2 1335.4,1229.4 1347.5,1224.9 1358.9,1219.0 1369.4,1211.4 1379.0,1202.4 1387.8,1191.8 1395.7,1179.7 1402.8,1166.2 1409.0,1151.4 1414.4,1135.2 1418.9,1117.7 1422.5,1099.0 1425.4,1079.3 1427.4,1058.5 1428.7,1036.8 1429.3,1014.2 1429.2,991.0 1428.4,967.2 1427.0,942.9 1425.0,918.2 1422.5,893.4 1419.6,868.6  " style="stroke-opacity: 1.000000; stroke-width: 5.0; stroke: rgb(107,174,214); fill: none"  />
<path d="M 1846.4,2034.0 L 1833.2,2013.4 1820.1,1992.9 1807.3,1972.6 1794.9,1952.8 1783.1,1933.3 1771.8,1914.5 1761.2,1896.5 1751.3,1879.2 1742.2,1862.9 1734.0,1847.6 1726.8,1833.4 1720.5,1820.3 1715.2,1808.5 1711.0,1797.9 1707.8,1788.7 1705.8,1780.9 1704.9,1774.5 1705.2,1769.5 1706.6,1766.0 1709.2,1764.0 1713.0,1763.4 1717.9,1764.4 1723.9,1766.7 1731.0,1770.6 1739.2,1775.8 1748.4,1782.4 1758.6,1790.3 1769.8,1799.6 1781.9,1810.0 1794.8,1821.6 1808.5,1834.3 1822.9,1848.0 1838.0,1862.6 1853.5,1878.1 1869.6,1894.2 1886.0,1910.9 1902.6,1928.2 1919.4,1945.7 1936.2,1963.5  " style="stroke-opacity: 1.000000; stroke-width: 5.0; stroke: rgb(107,174,214); fill: none"  />
<path d="M 1846.4,2034.0 L 1832.9,2013.4 1819.4,1993.1 1805.7,1973.2 1792.1,1953.9 1778.6,1935.3 1765.3,1917.6 1752.2,1900.7 1739.4,1885.0 1727.0,1870.4 1715.0,1857.1 1703.4,1845.2 1692.3,1834.7 1681.7,1825.6 1671.7,1818.1 1662.3,1812.2 1653.5,1808.0 1645.4,1805.4 1637.9,1804.5 1631.2,1805.3 1625.2,1807.9 1619.8,1812.1 1615.3,1818.0 1611.4,1825.6 1608.3,1834.8 1605.8,1845.7 1604.1,1858.0 1603.1,1871.9 1602.8,1887.2 1603.2,1903.9 1604.2,1921.8 1605.8,1940.9 1608.1,1961.0 1610.8,1982.1 1614.1,2004.1 1617.9,2026.8 1622.1,2050.0 1626.6,2073.7 1631.5,2097.6 1636.7,2121.6  " style="stroke-opacity: 1.000000; stroke-width: 5.0; stroke: rgb(107,174,214); fill: none"  />
<path d="M 1846.4,2034.0 L 1832.4,2012.9 1818.0,1992.1 1803.2,1971.8 1788.1,1952.1 1772.6,1933.1 1756.9,1915.0 1741.0,1897.9 1724.9,1881.9 1708.6,1867.0 1692.3,1853.4 1675.9,1841.1 1659.4,1830.2 1643.0,1820.8 1626.5,1813.0 1610.2,1806.7 1593.9,1802.0 1577.7,1799.0 1561.7,1797.6 1545.9,1797.9 1530.3,1799.9 1514.9,1803.6 1499.7,1808.9 1484.8,1815.9 1470.2,1824.5 1456.0,1834.7 1442.0,1846.4 1428.5,1859.6 1415.3,1874.3 1402.4,1890.3 1390.0,1907.6 1378.0,1926.1 1366.5,1945.6 1355.4,1966.2 1344.7,1987.7 1334.5,2009.9 1324.8,2032.7 1315.5,2056.1 1306.8,2079.8 1298.5,2103.8  " style="stroke-opacity: 1.000000; stroke-width: 5.0; stroke: rgb(107,174,214); fill: none"  />
<path d="M 1533.6,864.4 L 1532.5,889.1 1531.7,913.8 1531.3,938.1 1531.3,962.0 1531.8,985.4 1532.8,1008.0 1534.4,1029.8 1536.4,1050.6 1539.0,1070.3 1542.2,1088.9 1546.0,1106.2 1550.4,1122.1 1555.4,1136.6 1561.0,1149.6 1567.2,1161.1 1574.0,1170.9 1581.5,1179.1 1589.6,1185.6 1598.2,1190.4 1607.4,1193.4 1617.2,1194.8 1627.6,1194.4 1638.4,1192.4 1649.8,1188.6 1661.6,1183.2 1673.9,1176.2 1686.6,1167.6 1699.7,1157.5 1713.1,1145.9 1726.8,1133.0 1740.8,1118.8 1754.9,1103.4 1769.2,1086.9 1783.6,1069.4 1798.0,1051.0 1812.4,1031.9 1826.7,1012.2 1840.9,992.1 1854.8,971.6  " style="stroke-opacity: 1.000000; stroke-width: 5.0; stroke: rgb(107,174,214); fill: none"  />
<path d="M 1745.5,2087.2 L 1736.1,2064.5 1727.0,2041.8 1718.3,2019.4 1710.0,1997.2 1702.3,1975.6 1695.1,1954.6 1688.6,1934.3 1682.9,1914.9 1677.9,1896.4 1673.7,1878.9 1670.3,1862.6 1667.9,1847.5 1666.4,1833.7 1665.9,1821.2 1666.3,1810.1 1667.7,1800.5 1670.2,1792.3 1673.6,1785.7 1678.1,1780.6 1683.6,1777.0 1690.1,1775.0 1697.6,1774.5 1706.0,1775.6 1715.4,1778.2 1725.7,1782.4 1736.9,1787.9 1748.9,1794.9 1761.7,1803.3 1775.3,1813.0 1789.5,1824.0 1804.3,1836.1 1819.7,1849.3 1835.6,1863.5 1851.9,1878.6 1868.5,1894.5 1885.3,1911.0 1902.3,1928.2 1919.3,1945.7 1936.2,1963.5  " style="stroke-opacity: 1.000000; stroke-width: 5.0; stroke: rgb(107,174,214); fill: none"  />
<path d="M 1745.5,2087.2 L 1736.0,2064.7 1726.5,2042.3 1717.0,2020.4 1707.5,1998.9 1698.2,1978.2 1689.0,1958.3 1680.1,1939.3 1671.4,1921.4 1663.0,1904.7 1655.0,1889.3 1647.4,1875.3 1640.1,1862.7 1633.3,1851.7 1627.0,1842.2 1621.2,1834.5 1615.9,1828.4 1611.1,1824.1 1606.8,1821.5 1603.1,1820.7 1600.0,1821.7 1597.4,1824.5 1595.4,1829.0 1594.0,1835.3 1593.1,1843.3 1592.8,1853.1 1593.1,1864.4 1593.9,1877.3 1595.2,1891.8 1597.0,1907.6 1599.3,1924.9 1602.0,1943.3 1605.2,1963.0 1608.8,1983.6 1612.8,2005.2 1617.0,2027.5 1621.6,2050.5 1626.5,2073.9 1631.5,2097.7 1636.7,2121.6  " style="stroke-opacity: 1.000000; stroke-width: 5.0; stroke: rgb(107,174,214); fill: none"  />
<path d="M 1745.5,2087.2 L 1735.9,2064.6 1726.2,2042.2 1716.3,2020.2 1706.4,1998.8 1696.4,1978.1 1686.5,1958.2 1676.6,1939.3 1666.8,1921.6 1657.2,1905.0 1647.7,1889.8 1638.5,1876.0 1629.4,1863.6 1620.6,1852.8 1612.1,1843.7 1603.9,1836.2 1596.0,1830.4 1588.5,1826.5 1581.4,1824.3 1574.6,1823.9 1568.2,1825.3 1562.2,1828.5 1556.6,1833.5 1551.5,1840.3 1546.7,1848.8 1542.4,1859.0 1538.5,1870.9 1535.1,1884.4 1532.1,1899.4 1529.4,1915.8 1527.2,1933.6 1525.4,1952.7 1524.0,1972.9 1523.0,1994.2 1522.3,2016.4 1521.9,2039.3 1521.9,2063.0 1522.2,2087.1 1522.7,2111.5 1523.5,2136.1  " style="stroke-opacity: 1.000000; stroke-width: 5.0; stroke: rgb(107,174,214); fill: none"  />
<path d="M 1745.5,2087.2 L 1735.7,2064.2 1725.4,2041.5 1714.9,2019.2 1704.0,1997.4 1692.7,1976.4 1681.3,1956.2 1669.5,1936.9 1657.5,1918.8 1645.4,1901.8 1633.0,1886.1 1620.5,1871.8 1607.9,1858.9 1595.2,1847.5 1582.4,1837.7 1569.6,1829.6 1556.7,1823.1 1543.8,1818.3 1530.9,1815.3 1518.0,1814.0 1505.2,1814.4 1492.5,1816.7 1479.9,1820.7 1467.3,1826.4 1455.0,1833.8 1442.8,1842.9 1430.7,1853.6 1418.9,1865.9 1407.2,1879.7 1395.8,1894.9 1384.7,1911.4 1373.8,1929.3 1363.2,1948.3 1352.9,1968.3 1343.0,1989.3 1333.3,2011.1 1324.1,2033.6 1315.2,2056.7 1306.6,2080.1 1298.5,2103.8  " style="stroke-opacity: 1.000000; stroke-width: 5.0; stroke: rgb(107,174,214); fill: none"  />
<path d="M 1107.1,999.2 L 1122.2,1018.5 1137.0,1037.8 1151.6,1056.8 1165.7,1075.5 1179.2,1093.8 1192.1,1111.5 1204.3,1128.5 1215.7,1144.8 1226.2,1160.3 1235.8,1174.8 1244.3,1188.3 1251.7,1200.8 1258.0,1212.1 1263.2,1222.2 1267.1,1231.1 1269.8,1238.7 1271.3,1245.0 1271.5,1249.9 1270.3,1253.6 1268.0,1255.8 1264.3,1256.7 1259.3,1256.2 1253.1,1254.4 1245.7,1251.2 1237.1,1246.8 1227.3,1241.0 1216.4,1234.0 1204.4,1225.8 1191.4,1216.5 1177.5,1206.1 1162.7,1194.7 1147.2,1182.3 1130.9,1169.1 1114.0,1155.2 1096.6,1140.5 1078.8,1125.3 1060.6,1109.7 1042.4,1093.7 1024.0,1077.4  " style="stroke-opacity: 1.000000; stroke-width: 5.0; stroke: rgb(107,174,214); fill: none"  />
<path d="M 1107.1,999.2 L 1122.3,1018.5 1137.4,1037.5 1152.4,1056.1 1167.3,1074.3 1181.8,1091.8 1195.9,1108.5 1209.6,1124.4 1222.7,1139.4 1235.2,1153.3 1247.0,1166.0 1258.1,1177.5 1268.4,1187.7 1277.9,1196.5 1286.5,1203.9 1294.2,1209.8 1300.9,1214.3 1306.7,1217.2 1311.5,1218.5 1315.3,1218.3 1318.0,1216.5 1319.8,1213.2 1320.5,1208.2 1320.2,1201.8 1318.9,1193.8 1316.6,1184.4 1313.3,1173.5 1309.1,1161.2 1304.0,1147.7 1298.1,1132.8 1291.3,1116.9 1283.7,1099.8 1275.4,1081.7 1266.5,1062.8 1256.9,1043.0 1246.8,1022.6 1236.3,1001.7 1225.4,980.4 1214.2,958.8 1202.8,937.1  " style="stroke-opacity: 1.000000; stroke-width: 5.0; stroke: rgb(107,174,214); fill: none"  />
<path d="M 1194.0,2058.1 L 1205.7,2036.6 1217.2,2015.2 1228.4,1994.1 1239.3,1973.3 1249.7,1953.1 1259.6,1933.5 1268.8,1914.7 1277.4,1896.7 1285.2,1879.8 1292.3,1863.9 1298.5,1849.2 1303.8,1835.7 1308.2,1823.5 1311.6,1812.7 1314.1,1803.3 1315.5,1795.3 1315.9,1788.9 1315.3,1784.0 1313.6,1780.6 1310.8,1778.7 1307.1,1778.5 1302.3,1779.7 1296.4,1782.5 1289.6,1786.9 1281.8,1792.7 1273.1,1800.0 1263.5,1808.6 1253.0,1818.7 1241.7,1830.0 1229.7,1842.5 1217.0,1856.2 1203.6,1870.9 1189.7,1886.6 1175.3,1903.1 1160.5,1920.4 1145.4,1938.3 1130.1,1956.7 1114.7,1975.5 1099.2,1994.5  " style="stroke-opacity: 1.000000; stroke-width: 5.0; stroke: rgb(107,174,214); fill: none"  />
<path d="M 1194.0,2058.1 L 1205.7,2036.5 1217.1,2014.9 1228.2,1993.5 1238.7,1972.3 1248.7,1951.6 1258.0,1931.5 1266.6,1912.0 1274.4,1893.3 1281.4,1875.4 1287.4,1858.5 1292.4,1842.7 1296.4,1827.9 1299.4,1814.3 1301.2,1801.9 1301.9,1790.9 1301.5,1781.1 1300.0,1772.8 1297.2,1765.8 1293.3,1760.2 1288.2,1756.1 1282.0,1753.4 1274.6,1752.2 1266.1,1752.4 1256.4,1754.0 1245.8,1757.0 1234.1,1761.4 1221.4,1767.1 1207.8,1774.1 1193.3,1782.3 1178.0,1791.6 1161.9,1802.1 1145.2,1813.6 1128.0,1826.1 1110.2,1839.4 1092.0,1853.4 1073.5,1868.1 1054.8,1883.4 1036.1,1899.0 1017.4,1915.0  " style="stroke-opacity: 1.000000; stroke-width: 5.0; stroke: rgb(107,174,214); fill: none"  />
<path d="M 1194.0,2058.1 L 1205.7,2036.3 1217.1,2014.4 1228.0,1992.7 1238.4,1971.1 1248.0,1949.8 1256.9,1929.0 1265.0,1908.7 1272.2,1889.1 1278.4,1870.2 1283.6,1852.1 1287.7,1834.8 1290.6,1818.6 1292.4,1803.4 1293.0,1789.2 1292.4,1776.2 1290.5,1764.4 1287.3,1753.8 1282.9,1744.4 1277.2,1736.4 1270.2,1729.6 1262.0,1724.1 1252.5,1720.0 1241.8,1717.1 1229.9,1715.6 1216.9,1715.3 1202.8,1716.3 1187.6,1718.5 1171.5,1722.0 1154.4,1726.5 1136.4,1732.2 1117.7,1739.0 1098.3,1746.7 1078.2,1755.4 1057.7,1764.9 1036.7,1775.2 1015.4,1786.2 994.0,1797.7 972.5,1809.7 951.0,1822.1  " style="stroke-opacity: 1.000000; stroke-width: 5.0; stroke: rgb(107,174,214); fill: none"  />
<path d="M 1194.0,2058.1 L 1205.8,2036.1 1217.2,2013.9 1228.0,1991.7 1238.2,1969.6 1247.7,1947.7 1256.3,1926.1 1264.1,1905.0 1270.8,1884.3 1276.5,1864.2 1281.1,1844.7 1284.5,1826.0 1286.7,1808.1 1287.7,1791.1 1287.3,1775.0 1285.7,1759.9 1282.7,1745.7 1278.4,1732.7 1272.8,1720.7 1265.8,1709.8 1257.4,1700.1 1247.7,1691.6 1236.7,1684.2 1224.5,1678.0 1211.0,1672.9 1196.2,1669.0 1180.4,1666.3 1163.4,1664.7 1145.3,1664.2 1126.3,1664.8 1106.4,1666.4 1085.7,1669.0 1064.2,1672.6 1042.2,1677.0 1019.5,1682.3 996.5,1688.4 973.1,1695.2 949.5,1702.6 925.9,1710.5 902.3,1718.9  " style="stroke-opacity: 1.000000; stroke-width: 5.0; stroke: rgb(107,174,214); fill: none"  />
<path d="M 1202.8,937.1 L 1214.2,958.8 1225.4,980.4 1236.3,1001.7 1246.8,1022.6 1256.9,1043.0 1266.5,1062.8 1275.4,1081.7 1283.7,1099.8 1291.3,1116.9 1298.1,1132.8 1304.0,1147.7 1309.1,1161.2 1313.3,1173.5 1316.6,1184.4 1318.9,1193.8 1320.2,1201.8 1320.5,1208.2 1319.8,1213.2 1318.0,1216.5 1315.3,1218.3 1311.5,1218.5 1306.7,1217.2 1300.9,1214.3 1294.2,1209.8 1286.5,1203.9 1277.9,1196.5 1268.4,1187.7 1258.1,1177.5 1247.0,1166.0 1235.2,1153.3 1222.7,1139.4 1209.6,1124.4 1195.9,1108.5 1181.8,1091.8 1167.3,1074.3 1152.4,1056.1 1137.4,1037.5 1122.3,1018.5 1107.1,999.2  " style="stroke-opacity: 1.000000; stroke-width: 5.0; stroke: rgb(107,174,214); fill: none"  />
<path d="M 1202.8,937.1 L 1214.3,958.8 1225.8,980.2 1237.3,1001.2 1248.6,1021.7 1259.8,1041.5 1270.7,1060.5 1281.3,1078.6 1291.5,1095.7 1301.3,1111.5 1310.7,1126.2 1319.6,1139.5 1327.9,1151.3 1335.7,1161.7 1342.8,1170.5 1349.3,1177.7 1355.2,1183.3 1360.3,1187.2 1364.8,1189.4 1368.5,1189.8 1371.6,1188.6 1373.9,1185.6 1375.5,1180.9 1376.3,1174.5 1376.5,1166.4 1375.9,1156.7 1374.6,1145.4 1372.7,1132.6 1370.1,1118.3 1366.9,1102.7 1363.0,1085.7 1358.6,1067.6 1353.7,1048.3 1348.3,1028.1 1342.4,1007.0 1336.1,985.1 1329.5,962.6 1322.6,939.7 1315.4,916.5 1308.1,893.1  " style="stroke-opacity: 1.000000; stroke-width: 5.0; stroke: rgb(107,174,214); fill: none"  />
<path d="M 1202.8,937.1 L 1214.4,958.8 1226.1,980.3 1237.9,1001.3 1249.7,1021.7 1261.5,1041.5 1273.2,1060.3 1284.7,1078.3 1296.0,1095.1 1307.1,1110.7 1317.9,1125.0 1328.4,1138.0 1338.5,1149.5 1348.2,1159.4 1357.5,1167.8 1366.4,1174.5 1374.7,1179.5 1382.6,1182.8 1389.9,1184.3 1396.7,1184.1 1402.9,1182.2 1408.6,1178.4 1413.7,1172.9 1418.2,1165.7 1422.2,1156.8 1425.6,1146.2 1428.4,1134.1 1430.6,1120.3 1432.3,1105.1 1433.4,1088.5 1434.0,1070.6 1434.1,1051.4 1433.7,1031.1 1432.8,1009.9 1431.5,987.7 1429.8,964.8 1427.7,941.3 1425.3,917.3 1422.6,893.0 1419.6,868.6  " style="stroke-opacity: 1.000000; stroke-width: 5.0; stroke: rgb(107,174,214); fill: none"  />
<path d="M 1099.2,1994.5 L 1114.7,1975.5 1130.1,1956.7 1145.4,1938.3 1160.5,1920.4 1175.3,1903.1 1189.7,1886.6 1203.6,1870.9 1217.0,1856.2 1229.7,1842.5 1241.7,1830.0 1253.0,1818.7 1263.5,1808.6 1273.1,1800.0 1281.8,1792.7 1289.6,1786.9 1296.4,1782.5 1302.3,1779.7 1307.1,1778.5 1310.8,1778.7 1313.6,1780.6 1315.3,1784.0 1315.9,1788.9 1315.5,1795.3 1314.1,1803.3 1311.6,1812.7 1308.2,1823.5 1303.8,1835.7 1298.5,1849.2 1292.3,1863.9 1285.2,1879.8 1277.4,1896.7 1268.8,1914.7 1259.6,1933.5 1249.7,1953.1 1239.3,1973.3 1228.4,1994.1 1217.2,2015.2 1205.7,2036.6 1194.0,2058.1  " style="stroke-opacity: 1.000000; stroke-width: 5.0; stroke: rgb(107,174,214); fill: none"  />
<path d="M 1099.2,1994.5 L 1114.6,1975.4 1129.8,1956.4 1144.6,1937.6 1159.0,1919.1 1172.8,1901.1 1186.0,1883.6 1198.5,1866.7 1210.1,1850.6 1220.9,1835.3 1230.6,1821.0 1239.4,1807.6 1247.0,1795.3 1253.5,1784.1 1258.8,1774.0 1262.9,1765.2 1265.7,1757.6 1267.3,1751.4 1267.5,1746.4 1266.5,1742.8 1264.1,1740.5 1260.4,1739.5 1255.5,1739.9 1249.3,1741.7 1241.8,1744.7 1233.1,1749.0 1223.2,1754.6 1212.2,1761.5 1200.1,1769.4 1187.0,1778.6 1172.9,1788.7 1157.9,1799.9 1142.2,1812.0 1125.7,1825.0 1108.6,1838.7 1090.9,1853.0 1072.9,1868.0 1054.5,1883.3 1036.0,1899.0 1017.4,1915.0  " style="stroke-opacity: 1.000000; stroke-width: 5.0; stroke: rgb(107,174,214); fill: none"  />
<path d="M 1099.2,1994.5 L 1114.6,1975.3 1129.7,1956.1 1144.4,1937.0 1158.6,1918.1 1172.1,1899.5 1184.9,1881.4 1196.8,1863.7 1207.8,1846.7 1217.8,1830.4 1226.8,1814.8 1234.6,1800.1 1241.1,1786.3 1246.5,1773.4 1250.5,1761.6 1253.2,1750.8 1254.5,1741.2 1254.5,1732.6 1253.0,1725.3 1250.2,1719.1 1245.9,1714.2 1240.2,1710.4 1233.2,1707.9 1224.8,1706.6 1215.0,1706.4 1204.0,1707.5 1191.7,1709.7 1178.2,1713.0 1163.5,1717.5 1147.8,1723.0 1131.1,1729.5 1113.4,1736.9 1094.9,1745.2 1075.7,1754.4 1055.8,1764.3 1035.4,1774.9 1014.6,1786.1 993.5,1797.7 972.3,1809.8 951.0,1822.1  " style="stroke-opacity: 1.000000; stroke-width: 5.0; stroke: rgb(107,174,214); fill: none"  />
<path d="M 1636.7,2121.6 L 1631.6,2097.4 1626.8,2073.2 1622.4,2049.3 1618.6,2025.7 1615.3,2002.6 1612.6,1980.1 1610.5,1958.3 1609.2,1937.5 1608.5,1917.6 1608.6,1898.7 1609.6,1881.0 1611.3,1864.6 1613.9,1849.5 1617.3,1835.8 1621.5,1823.5 1626.7,1812.7 1632.7,1803.4 1639.6,1795.6 1647.3,1789.5 1655.9,1785.0 1665.4,1782.0 1675.7,1780.7 1686.7,1781.0 1698.5,1782.8 1711.1,1786.2 1724.4,1791.2 1738.3,1797.6 1752.9,1805.4 1768.0,1814.6 1783.6,1825.1 1799.7,1836.9 1816.1,1849.8 1832.9,1863.7 1850.0,1878.7 1867.2,1894.4 1884.5,1910.9 1901.8,1928.0 1919.1,1945.6 1936.2,1963.5  " style="stroke-opacity: 1.000000; stroke-width: 5.0; stroke: rgb(107,174,214); fill: none"  />
<path d="M 1636.7,2121.6 L 1631.5,2097.6 1626.6,2073.7 1622.1,2050.0 1617.9,2026.8 1614.1,2004.1 1610.8,1982.1 1608.1,1961.0 1605.8,1940.9 1604.2,1921.8 1603.2,1903.9 1602.8,1887.2 1603.1,1871.9 1604.1,1858.0 1605.8,1845.7 1608.3,1834.8 1611.4,1825.6 1615.3,1818.0 1619.8,1812.1 1625.2,1807.9 1631.2,1805.3 1637.9,1804.5 1645.4,1805.4 1653.5,1808.0 1662.3,1812.2 1671.7,1818.1 1681.7,1825.6 1692.3,1834.7 1703.4,1845.2 1715.0,1857.1 1727.0,1870.4 1739.4,1885.0 1752.2,1900.7 1765.3,1917.6 1778.6,1935.3 1792.1,1953.9 1805.7,1973.2 1819.4,1993.1 1832.9,2013.4 1846.4,2034.0  " style="stroke-opacity: 1.000000; stroke-width: 5.0; stroke: rgb(107,174,214); fill: none"  />
<path d="M 1636.7,2121.6 L 1631.5,2097.7 1626.5,2073.9 1621.6,2050.5 1617.0,2027.5 1612.8,2005.2 1608.8,1983.6 1605.2,1963.0 1602.0,1943.3 1599.3,1924.9 1597.0,1907.6 1595.2,1891.8 1593.9,1877.3 1593.1,1864.4 1592.8,1853.1 1593.1,1843.3 1594.0,1835.3 1595.4,1829.0 1597.4,1824.5 1600.0,1821.7 1603.1,1820.7 1606.8,1821.5 1611.1,1824.1 1615.9,1828.4 1621.2,1834.5 1627.0,1842.2 1633.3,1851.7 1640.1,1862.7 1647.4,1875.3 1655.0,1889.3 1663.0,1904.7 1671.4,1921.4 1680.1,1939.3 1689.0,1958.3 1698.2,1978.2 1707.5,1998.9 1717.0,2020.4 1726.5,2042.3 1736.0,2064.7 1745.5,2087.2  " style="stroke-opacity: 1.000000; stroke-width: 5.0; stroke: rgb(107,174,214); fill: none"  />
<path d="M 1636.7,2121.6 L 1631.2,2097.5 1625.4,2073.5 1619.3,2050.0 1612.9,2026.9 1606.2,2004.5 1599.2,1983.0 1592.0,1962.4 1584.5,1942.9 1576.7,1924.6 1568.7,1907.5 1560.4,1891.9 1552.0,1877.7 1543.3,1865.0 1534.4,1854.0 1525.4,1844.6 1516.2,1837.0 1506.8,1831.1 1497.3,1826.9 1487.7,1824.6 1478.0,1824.1 1468.2,1825.4 1458.3,1828.5 1448.4,1833.4 1438.4,1840.0 1428.5,1848.4 1418.5,1858.4 1408.5,1870.1 1398.6,1883.3 1388.8,1898.0 1379.0,1914.1 1369.3,1931.5 1359.8,1950.1 1350.4,1969.9 1341.2,1990.5 1332.2,2012.1 1323.4,2034.3 1314.8,2057.1 1306.5,2080.3 1298.5,2103.8  " style="stroke-opacity: 1.000000; stroke-width: 5.0; stroke: rgb(107,174,214); fill: none"  />
<path d="M 1854.8,971.6 L 1840.9,992.1 1826.7,1012.2 1812.4,1031.9 1798.0,1051.0 1783.6,1069.4 1769.2,1086.9 1754.9,1103.4 1740.8,1118.8 1726.8,1133.0 1713.1,1145.9 1699.7,1157.5 1686.6,1167.6 1673.9,1176.2 1661.6,1183.2 1649.8,1188.6 1638.4,1192.4 1627.6,1194.4 1617.2,1194.8 1607.4,1193.4 1598.2,1190.4 1589.6,1185.6 1581.5,1179.1 1574.0,1170.9 1567.2,1161.1 1561.0,1149.6 1555.4,1136.6 1550.4,1122.1 1546.0,1106.2 1542.2,1088.9 1539.0,1070.3 1536.4,1050.6 1534.4,1029.8 1532.8,1008.0 1531.8,985.4 1531.3,962.0 1531.3,938.1 1531.7,913.8 1532.5,889.1 1533.6,864.4  " style="stroke-opacity: 1.000000; stroke-width: 5.0; stroke: rgb(107,174,214); fill: none"  />
<path d="M 1017.4,1915.0 L 1036.1,1899.0 1054.8,1883.4 1073.5,1868.1 1092.0,1853.4 1110.2,1839.4 1128.0,1826.1 1145.2,1813.6 1161.9,1802.1 1178.0,1791.6 1193.3,1782.3 1207.8,1774.1 1221.4,1767.1 1234.1,1761.4 1245.8,1757.0 1256.4,1754.0 1266.1,1752.4 1274.6,1752.2 1282.0,1753.4 1288.2,1756.1 1293.3,1760.2 1297.2,1765.8 1300.0,1772.8 1301.5,1781.1 1301.9,1790.9 1301.2,1801.9 1299.4,1814.3 1296.4,1827.9 1292.4,1842.7 1287.4,1858.5 1281.4,1875.4 1274.4,1893.3 1266.6,1912.0 1258.0,1931.5 1248.7,1951.6 1238.7,1972.3 1228.2,1993.5 1217.1,2014.9 1205.7,2036.5 1194.0,2058.1  " style="stroke-opacity: 1.000000; stroke-width: 5.0; stroke: rgb(107,174,214); fill: none"  />
<path d="M 1017.4,1915.0 L 1036.0,1899.0 1054.5,1883.3 1072.9,1868.0 1090.9,1853.0 1108.6,1838.7 1125.7,1825.0 1142.2,1812.0 1157.9,1799.9 1172.9,1788.7 1187.0,1778.6 1200.1,1769.4 1212.2,1761.5 1223.2,1754.6 1233.1,1749.0 1241.8,1744.7 1249.3,1741.7 1255.5,1739.9 1260.4,1739.5 1264.1,1740.5 1266.5,1742.8 1267.5,1746.4 1267.3,1751.4 1265.7,1757.6 1262.9,1765.2 1258.8,1774.0 1253.5,1784.1 1247.0,1795.3 1239.4,1807.6 1230.6,1821.0 1220.9,1835.3 1210.1,1850.6 1198.5,1866.7 1186.0,1883.6 1172.8,1901.1 1159.0,1919.1 1144.6,1937.6 1129.8,1956.4 1114.6,1975.4 1099.2,1994.5  " style="stroke-opacity: 1.000000; stroke-width: 5.0; stroke: rgb(107,174,214); fill: none"  />
<path d="M 1017.4,1915.0 L 1035.9,1899.0 1054.2,1883.0 1072.2,1867.1 1089.6,1851.5 1106.5,1836.2 1122.6,1821.4 1137.9,1807.0 1152.2,1793.2 1165.5,1780.1 1177.7,1767.7 1188.6,1756.1 1198.4,1745.4 1206.7,1735.5 1213.8,1726.6 1219.4,1718.6 1223.5,1711.7 1226.1,1705.8 1227.3,1700.9 1226.9,1697.2 1225.0,1694.5 1221.5,1692.9 1216.6,1692.4 1210.1,1693.0 1202.2,1694.7 1192.9,1697.4 1182.2,1701.1 1170.1,1705.9 1156.8,1711.6 1142.3,1718.2 1126.6,1725.7 1109.9,1734.0 1092.2,1743.1 1073.7,1752.9 1054.4,1763.3 1034.5,1774.3 1014.0,1785.8 993.2,1797.6 972.2,1809.8 951.0,1822.1  " style="stroke-opacity: 1.000000; stroke-width: 5.0; stroke: rgb(107,174,214); fill: none"  />
<path d="M 1017.4,1915.0 L 1035.9,1898.8 1054.2,1882.7 1072.1,1866.5 1089.4,1850.4 1106.0,1834.5 1121.8,1819.0 1136.7,1803.7 1150.6,1789.0 1163.4,1774.7 1174.9,1761.0 1185.2,1747.9 1194.2,1735.4 1201.7,1723.8 1207.8,1712.8 1212.4,1702.7 1215.4,1693.5 1216.9,1685.1 1216.8,1677.6 1215.0,1671.0 1211.7,1665.4 1206.8,1660.7 1200.3,1656.9 1192.3,1654.1 1182.7,1652.2 1171.7,1651.3 1159.2,1651.3 1145.3,1652.1 1130.1,1653.9 1113.6,1656.5 1096.0,1659.9 1077.3,1664.1 1057.7,1669.0 1037.1,1674.5 1015.8,1680.8 993.8,1687.5 971.4,1694.8 948.5,1702.5 925.5,1710.6 902.3,1718.9  " style="stroke-opacity: 1.000000; stroke-width: 5.0; stroke: rgb(107,174,214); fill: none"  />
<path d="M 951.0,1822.1 L 972.5,1809.7 994.0,1797.7 1015.4,1786.2 1036.7,1775.2 1057.7,1764.9 1078.2,1755.4 1098.3,1746.7 1117.7,1739.0 1136.4,1732.2 1154.4,1726.5 1171.5,1722.0 1187.6,1718.5 1202.8,1716.3 1216.9,1715.3 1229.9,1715.6 1241.8,1717.1 1252.5,1720.0 1262.0,1724.1 1270.2,1729.6 1277.2,1736.4 1282.9,1744.4 1287.3,1753.8 1290.5,1764.4 1292.4,1776.2 1293.0,1789.2 1292.4,1803.4 1290.6,1818.6 1287.7,1834.8 1283.6,1852.1 1278.4,1870.2 1272.2,1889.1 1265.0,1908.7 1256.9,1929.0 1248.0,1949.8 1238.4,1971.1 1228.0,1992.7 1217.1,2014.4 1205.7,2036.3 1194.0,2058.1  " style="stroke-opacity: 1.000000; stroke-width: 5.0; stroke: rgb(107,174,214); fill: none"  />
<path d="M 951.0,1822.1 L 972.3,1809.8 993.5,1797.7 1014.6,1786.1 1035.4,1774.9 1055.8,1764.3 1075.7,1754.4 1094.9,1745.2 1113.4,1736.9 1131.1,1729.5 1147.8,1723.0 1163.5,1717.5 1178.2,1713.0 1191.7,1709.7 1204.0,1707.5 1215.0,1706.4 1224.8,1706.6 1233.2,1707.9 1240.2,1710.4 1245.9,1714.2 1250.2,1719.1 1253.0,1725.3 1254.5,1732.6 1254.5,1741.2 1253.2,1750.8 1250.5,1761.6 1246.5,1773.4 1241.1,1786.3 1234.6,1800.1 1226.8,1814.8 1217.8,1830.4 1207.8,1846.7 1196.8,1863.7 1184.9,1881.4 1172.1,1899.5 1158.6,1918.1 1144.4,1937.0 1129.7,1956.1 1114.6,1975.3 1099.2,1994.5  " style="stroke-opacity: 1.000000; stroke-width: 5.0; stroke: rgb(107,174,214); fill: none"  />
<path d="M 951.0,1822.1 L 972.2,1809.8 993.2,1797.6 1014.0,1785.8 1034.5,1774.3 1054.4,1763.3 1073.7,1752.9 1092.2,1743.1 1109.9,1734.0 1126.6,1725.7 1142.3,1718.2 1156.8,1711.6 1170.1,1705.9 1182.2,1701.1 1192.9,1697.4 1202.2,1694.7 1210.1,1693.0 1216.6,1692.4 1221.5,1692.9 1225.0,1694.5 1226.9,1697.2 1227.3,1700.9 1226.1,1705.8 1223.5,1711.7 1219.4,1718.6 1213.8,1726.6 1206.7,1735.5 1198.4,1745.4 1188.6,1756.1 1177.7,1767.7 1165.5,1780.1 1152.2,1793.2 1137.9,1807.0 1122.6,1821.4 1106.5,1836.2 1089.6,1851.5 1072.2,1867.1 1054.2,1883.0 1035.9,1899.0 1017.4,1915.0  " style="stroke-opacity: 1.000000; stroke-width: 5.0; stroke: rgb(107,174,214); fill: none"  />
<path d="M 951.0,1822.1 L 972.1,1809.7 993.0,1797.2 1013.5,1784.8 1033.5,1772.6 1052.8,1760.6 1071.3,1748.8 1088.9,1737.4 1105.4,1726.4 1120.8,1715.9 1135.0,1705.9 1147.9,1696.4 1159.4,1687.6 1169.4,1679.3 1177.9,1671.8 1184.8,1665.0 1190.1,1658.9 1193.8,1653.6 1195.8,1649.0 1196.1,1645.2 1194.7,1642.3 1191.6,1640.1 1186.8,1638.7 1180.3,1638.1 1172.3,1638.4 1162.6,1639.4 1151.4,1641.1 1138.7,1643.7 1124.5,1646.9 1109.1,1650.8 1092.3,1655.4 1074.4,1660.6 1055.4,1666.4 1035.4,1672.7 1014.5,1679.5 993.0,1686.8 970.8,1694.4 948.2,1702.4 925.3,1710.6 902.3,1718.9  " style="stroke-opacity: 1.000000; stroke-width: 5.0; stroke: rgb(107,174,214); fill: none"  />
<path d="M 2071.3,1780.7 L 2049.3,1770.0 2027.4,1759.4 2005.7,1749.1 1984.5,1739.2 1963.8,1729.7 1943.8,1720.7 1924.6,1712.3 1906.3,1704.6 1889.0,1697.5 1872.9,1691.2 1857.9,1685.6 1844.2,1680.9 1831.8,1677.1 1820.8,1674.2 1811.3,1672.1 1803.3,1671.1 1796.9,1671.0 1792.0,1671.8 1788.6,1673.7 1786.9,1676.5 1786.8,1680.2 1788.3,1685.0 1791.4,1690.7 1796.0,1697.3 1802.2,1704.8 1809.8,1713.2 1818.9,1722.4 1829.4,1732.4 1841.2,1743.2 1854.3,1754.6 1868.5,1766.7 1883.8,1779.4 1900.1,1792.6 1917.3,1806.2 1935.2,1820.2 1953.8,1834.5 1972.9,1849.0 1992.3,1863.6 2012.0,1878.2  " style="stroke-opacity: 1.000000; stroke-width: 5.0; stroke: rgb(107,174,214); fill: none"  />
<path d="M 2012.0,1878.2 L 1992.3,1863.6 1972.9,1849.0 1953.8,1834.5 1935.2,1820.2 1917.3,1806.2 1900.1,1792.6 1883.8,1779.4 1868.5,1766.7 1854.3,1754.6 1841.2,1743.2 1829.4,1732.4 1818.9,1722.4 1809.8,1713.2 1802.2,1704.8 1796.0,1697.3 1791.4,1690.7 1788.3,1685.0 1786.8,1680.2 1786.9,1676.5 1788.6,1673.7 1792.0,1671.8 1796.9,1671.0 1803.3,1671.1 1811.3,1672.1 1820.8,1674.2 1831.8,1677.1 1844.2,1680.9 1857.9,1685.6 1872.9,1691.2 1889.0,1697.5 1906.3,1704.6 1924.6,1712.3 1943.8,1720.7 1963.8,1729.7 1984.5,1739.2 2005.7,1749.1 2027.4,1759.4 2049.3,1770.0 2071.3,1780.7  " style="stroke-opacity: 1.000000; stroke-width: 5.0; stroke: rgb(107,174,214); fill: none"  />
<path d="M 1523.5,2136.1 L 1522.7,2111.5 1522.2,2087.1 1521.9,2063.0 1521.9,2039.3 1522.3,2016.4 1523.0,1994.2 1524.0,1972.9 1525.4,1952.7 1527.2,1933.6 1529.4,1915.8 1532.1,1899.4 1535.1,1884.4 1538.5,1870.9 1542.4,1859.0 1546.7,1848.8 1551.5,1840.3 1556.6,1833.5 1562.2,1828.5 1568.2,1825.3 1574.6,1823.9 1581.4,1824.3 1588.5,1826.5 1596.0,1830.4 1603.9,1836.2 1612.1,1843.7 1620.6,1852.8 1629.4,1863.6 1638.5,1876.0 1647.7,1889.8 1657.2,1905.0 1666.8,1921.6 1676.6,1939.3 1686.5,1958.2 1696.4,1978.1 1706.4,1998.8 1716.3,2020.2 1726.2,2042.2 1735.9,2064.6 1745.5,2087.2  " style="stroke-opacity: 1.000000; stroke-width: 5.0; stroke: rgb(107,174,214); fill: none"  />
<path d="M 1308.1,893.1 L 1315.4,916.5 1322.6,939.7 1329.5,962.6 1336.1,985.1 1342.4,1007.0 1348.3,1028.1 1353.7,1048.3 1358.6,1067.6 1363.0,1085.7 1366.9,1102.7 1370.1,1118.3 1372.7,1132.6 1374.6,1145.4 1375.9,1156.7 1376.5,1166.4 1376.3,1174.5 1375.5,1180.9 1373.9,1185.6 1371.6,1188.6 1368.5,1189.8 1364.8,1189.4 1360.3,1187.2 1355.2,1183.3 1349.3,1177.7 1342.8,1170.5 1335.7,1161.7 1327.9,1151.3 1319.6,1139.5 1310.7,1126.2 1301.3,1111.5 1291.5,1095.7 1281.3,1078.6 1270.7,1060.5 1259.8,1041.5 1248.6,1021.7 1237.3,1001.2 1225.8,980.2 1214.3,958.8 1202.8,937.1  " style="stroke-opacity: 1.000000; stroke-width: 5.0; stroke: rgb(107,174,214); fill: none"  />
<path d="M 1308.1,893.1 L 1315.5,916.4 1323.0,939.6 1330.6,962.3 1338.1,984.5 1345.5,1006.0 1352.8,1026.6 1360.0,1046.3 1367.1,1064.9 1373.9,1082.3 1380.5,1098.4 1386.9,1113.0 1392.9,1126.2 1398.7,1137.8 1404.2,1147.8 1409.3,1156.0 1414.0,1162.5 1418.4,1167.3 1422.4,1170.2 1426.0,1171.4 1429.3,1170.7 1432.1,1168.1 1434.5,1163.8 1436.4,1157.6 1438.0,1149.7 1439.2,1140.0 1440.0,1128.7 1440.4,1115.8 1440.3,1101.3 1440.0,1085.3 1439.2,1067.9 1438.1,1049.3 1436.7,1029.5 1435.0,1008.6 1433.0,986.7 1430.7,964.1 1428.2,940.8 1425.5,917.0 1422.6,892.9 1419.6,868.6  " style="stroke-opacity: 1.000000; stroke-width: 5.0; stroke: rgb(107,174,214); fill: none"  />
<path d="M 1419.6,868.6 L 1422.5,893.4 1425.0,918.2 1427.0,942.9 1428.4,967.2 1429.2,991.0 1429.3,1014.2 1428.7,1036.8 1427.4,1058.5 1425.4,1079.3 1422.5,1099.0 1418.9,1117.7 1414.4,1135.2 1409.0,1151.4 1402.8,1166.2 1395.7,1179.7 1387.8,1191.8 1379.0,1202.4 1369.4,1211.4 1358.9,1219.0 1347.5,1224.9 1335.4,1229.4 1322.5,1232.2 1308.8,1233.5 1294.3,1233.3 1279.2,1231.5 1263.4,1228.2 1247.0,1223.5 1230.1,1217.4 1212.6,1209.9 1194.7,1201.1 1176.4,1191.0 1157.7,1179.9 1138.8,1167.6 1119.6,1154.4 1100.4,1140.3 1081.1,1125.4 1061.9,1109.9 1042.8,1093.9 1024.0,1077.4  " style="stroke-opacity: 1.000000; stroke-width: 5.0; stroke: rgb(107,174,214); fill: none"  />
<path d="M 1419.6,868.6 L 1422.6,893.0 1425.3,917.3 1427.7,941.3 1429.8,964.8 1431.5,987.7 1432.8,1009.9 1433.7,1031.1 1434.1,1051.4 1434.0,1070.6 1433.4,1088.5 1432.3,1105.1 1430.6,1120.3 1428.4,1134.1 1425.6,1146.2 1422.2,1156.8 1418.2,1165.7 1413.7,1172.9 1408.6,1178.4 1402.9,1182.2 1396.7,1184.1 1389.9,1184.3 1382.6,1182.8 1374.7,1179.5 1366.4,1174.5 1357.5,1167.8 1348.2,1159.4 1338.5,1149.5 1328.4,1138.0 1317.9,1125.0 1307.1,1110.7 1296.0,1095.1 1284.7,1078.3 1273.2,1060.3 1261.5,1041.5 1249.7,1021.7 1237.9,1001.3 1226.1,980.3 1214.4,958.8 1202.8,937.1  " style="stroke-opacity: 1.000000; stroke-width: 5.0; stroke: rgb(107,174,214); fill: none"  />
<path d="M 1419.6,868.6 L 1422.6,892.9 1425.5,917.0 1428.2,940.8 1430.7,964.1 1433.0,986.7 1435.0,1008.6 1436.7,1029.5 1438.1,1049.3 1439.2,1067.9 1440.0,1085.3 1440.3,1101.3 1440.4,1115.8 1440.0,1128.7 1439.2,1140.0 1438.0,1149.7 1436.4,1157.6 1434.5,1163.8 1432.1,1168.1 1429.3,1170.7 1426.0,1171.4 1422.4,1170.2 1418.4,1167.3 1414.0,1162.5 1409.3,1156.0 1404.2,1147.8 1398.7,1137.8 1392.9,1126.2 1386.9,1113.0 1380.5,1098.4 1373.9,1082.3 1367.1,1064.9 1360.0,1046.3 1352.8,1026.6 1345.5,1006.0 1338.1,984.5 1330.6,962.3 1323.0,939.6 1315.5,916.4 1308.1,893.1  " style="stroke-opacity: 1.000000; stroke-width: 5.0; stroke: rgb(107,174,214); fill: none"  />
<path d="M 1298.5,2103.8 L 1306.9,2079.5 1315.9,2055.4 1325.5,2031.6 1335.6,2008.3 1346.3,1985.5 1357.6,1963.5 1369.5,1942.3 1381.9,1921.9 1394.8,1902.6 1408.4,1884.4 1422.4,1867.4 1437.0,1851.6 1452.1,1837.2 1467.7,1824.1 1483.7,1812.5 1500.3,1802.3 1517.2,1793.6 1534.6,1786.5 1552.3,1781.0 1570.4,1777.0 1588.8,1774.6 1607.6,1773.8 1626.6,1774.5 1645.9,1776.8 1665.3,1780.6 1684.9,1786.0 1704.7,1792.8 1724.6,1801.0 1744.5,1810.5 1764.4,1821.4 1784.3,1833.5 1804.1,1846.7 1823.7,1861.0 1843.2,1876.3 1862.5,1892.4 1881.5,1909.3 1900.1,1926.9 1918.4,1945.0 1936.2,1963.5  " style="stroke-opacity: 1.000000; stroke-width: 5.0; stroke: rgb(107,174,214); fill: none"  />
<path d="M 1298.5,2103.8 L 1306.8,2079.8 1315.5,2056.1 1324.8,2032.7 1334.5,2009.9 1344.7,1987.7 1355.4,1966.2 1366.5,1945.6 1378.0,1926.1 1390.0,1907.6 1402.4,1890.3 1415.3,1874.3 1428.5,1859.6 1442.0,1846.4 1456.0,1834.7 1470.2,1824.5 1484.8,1815.9 1499.7,1808.9 1514.9,1803.6 1530.3,1799.9 1545.9,1797.9 1561.7,1797.6 1577.7,1799.0 1593.9,1802.0 1610.2,1806.7 1626.5,1813.0 1643.0,1820.8 1659.4,1830.2 1675.9,1841.1 1692.3,1853.4 1708.6,1867.0 1724.9,1881.9 1741.0,1897.9 1756.9,1915.0 1772.6,1933.1 1788.1,1952.1 1803.2,1971.8 1818.0,1992.1 1832.4,2012.9 1846.4,2034.0  " style="stroke-opacity: 1.000000; stroke-width: 5.0; stroke: rgb(107,174,214); fill: none"  />
<path d="M 1298.5,2103.8 L 1306.6,2080.1 1315.2,2056.7 1324.1,2033.6 1333.3,2011.1 1343.0,1989.3 1352.9,1968.3 1363.2,1948.3 1373.8,1929.3 1384.7,1911.4 1395.8,1894.9 1407.2,1879.7 1418.9,1865.9 1430.7,1853.6 1442.8,1842.9 1455.0,1833.8 1467.3,1826.4 1479.9,1820.7 1492.5,1816.7 1505.2,1814.4 1518.0,1814.0 1530.9,1815.3 1543.8,1818.3 1556.7,1823.1 1569.6,1829.6 1582.4,1837.7 1595.2,1847.5 1607.9,1858.9 1620.5,1871.8 1633.0,1886.1 1645.4,1901.8 1657.5,1918.8 1669.5,1936.9 1681.3,1956.2 1692.7,1976.4 1704.0,1997.4 1714.9,2019.2 1725.4,2041.5 1735.7,2064.2 1745.5,2087.2  " style="stroke-opacity: 1.000000; stroke-width: 5.0; stroke: rgb(107,174,214); fill: none"  />
<path d="M 1298.5,2103.8 L 1306.5,2080.3 1314.8,2057.1 1323.4,2034.3 1332.2,2012.1 1341.2,1990.5 1350.4,1969.9 1359.8,1950.1 1369.3,1931.5 1379.0,1914.1 1388.8,1898.0 1398.6,1883.3 1408.5,1870.1 1418.5,1858.4 1428.5,1848.4 1438.4,1840.0 1448.4,1833.4 1458.3,1828.5 1468.2,1825.4 1478.0,1824.1 1487.7,1824.6 1497.3,1826.9 1506.8,1831.1 1516.2,1837.0 1525.4,1844.6 1534.4,1854.0 1543.3,1865.0 1552.0,1877.7 1560.4,1891.9 1568.7,1907.5 1576.7,1924.6 1584.5,1942.9 1592.0,1962.4 1599.2,1983.0 1606.2,2004.5 1612.9,2026.9 1619.3,2050.0 1625.4,2073.5 1631.2,2097.5 1636.7,2121.6  " style="stroke-opacity: 1.000000; stroke-width: 5.0; stroke: rgb(107,174,214); fill: none"  />
<path d="M 902.3,1718.9 L 925.9,1710.5 949.5,1702.6 973.1,1695.2 996.5,1688.4 1019.5,1682.3 1042.2,1677.0 1064.2,1672.6 1085.7,1669.0 1106.4,1666.4 1126.3,1664.8 1145.3,1664.2 1163.4,1664.7 1180.4,1666.3 1196.2,1669.0 1211.0,1672.9 1224.5,1678.0 1236.7,1684.2 1247.7,1691.6 1257.4,1700.1 1265.8,1709.8 1272.8,1720.7 1278.4,1732.7 1282.7,1745.7 1285.7,1759.9 1287.3,1775.0 1287.7,1791.1 1286.7,1808.1 1284.5,1826.0 1281.1,1844.7 1276.5,1864.2 1270.8,1884.3 1264.1,1905.0 1256.3,1926.1 1247.7,1947.7 1238.2,1969.6 1228.0,1991.7 1217.2,2013.9 1205.8,2036.1 1194.0,2058.1  " style="stroke-opacity: 1.000000; stroke-width: 5.0; stroke: rgb(107,174,214); fill: none"  />
<path d="M 902.3,1718.9 L 925.5,1710.6 948.5,1702.5 971.4,1694.8 993.8,1687.5 1015.8,1680.8 1037.1,1674.5 1057.7,1669.0 1077.3,1664.1 1096.0,1659.9 1113.6,1656.5 1130.1,1653.9 1145.3,1652.1 1159.2,1651.3 1171.7,1651.3 1182.7,1652.2 1192.3,1654.1 1200.3,1656.9 1206.8,1660.7 1211.7,1665.4 1215.0,1671.0 1216.8,1677.6 1216.9,1685.1 1215.4,1693.5 1212.4,1702.7 1207.8,1712.8 1201.7,1723.8 1194.2,1735.4 1185.2,1747.9 1174.9,1761.0 1163.4,1774.7 1150.6,1789.0 1136.7,1803.7 1121.8,1819.0 1106.0,1834.5 1089.4,1850.4 1072.1,1866.5 1054.2,1882.7 1035.9,1898.8 1017.4,1915.0  " style="stroke-opacity: 1.000000; stroke-width: 5.0; stroke: rgb(107,174,214); fill: none"  />
<path d="M 902.3,1718.9 L 925.3,1710.6 948.2,1702.4 970.8,1694.4 993.0,1686.8 1014.5,1679.5 1035.4,1672.7 1055.4,1666.4 1074.4,1660.6 1092.3,1655.4 1109.1,1650.8 1124.5,1646.9 1138.7,1643.7 1151.4,1641.1 1162.6,1639.4 1172.3,1638.4 1180.3,1638.1 1186.8,1638.7 1191.6,1640.1 1194.7,1642.3 1196.1,1645.2 1195.8,1649.0 1193.8,1653.6 1190.1,1658.9 1184.8,1665.0 1177.9,1671.8 1169.4,1679.3 1159.4,1687.6 1147.9,1696.4 1135.0,1705.9 1120.8,1715.9 1105.4,1726.4 1088.9,1737.4 1071.3,1748.8 1052.8,1760.6 1033.5,1772.6 1013.5,1784.8 993.0,1797.2 972.1,1809.7 951.0,1822.1  " style="stroke-opacity: 1.000000; stroke-width: 5.0; stroke: rgb(107,174,214); fill: none"  />
</g>
<defs>
<pattern id="hline-sparse" width="10" height="10" patternTransform="rotate(0 0 0)" patternUnits="userSpaceOnUse"><line x1="0" y1="0" x2="10" y2="0" style="stroke:black;stroke-width:2" /></pattern>
<pattern id="checker" width="10" height="10" patternTransform="rotate(45 0 0)" patternUnits="userSpaceOnUse"><line x1="0" y1="0" x2="10" y2="0" style="stroke:black;stroke-width:5" /><line x1="0" y1="0" x2="0" y2="10" style="stroke:black;stroke-width:4" /></pattern>
<pattern id="checker" width="10" height="10" patternTransform="rotate(45 0 0)" patternUnits="userSpaceOnUse"><line x1="0" y1="0" x2="10" y2="0" style="stroke:black;stroke-width:2" /><line x1="0" y1="0" x2="0" y2="10" style="stroke:black;stroke-width:2" /></pattern>
<pattern id="hline" width="10" height="10" patternTransform="rotate(0 0 0)" patternUnits="userSpaceOnUse"><line x1="0" y1="0" x2="10" y2="0" style="stroke:black;stroke-width:5" /></pattern>
<pattern id="vline" width="10" height="10" patternTransform="rotate(0 0 0)" patternUnits="userSpaceOnUse"><line x1="0" y1="0" x2="0" y2="10" style="stroke:black;stroke-width:5" /></pattern>
<pattern id="vline-sparse" width="10" height="10" patternTransform="rotate(0 0 0)" patternUnits="userSpaceOnUse"><line x1="0" y1="0" x2="0" y2="10" style="stroke:black;stroke-width:2" /></pattern>
</defs>
</svg>
