<?xml version="1.0" encoding="utf-8" standalone="no"?>
<!DOCTYPE svg PUBLIC "-//W3C//DTD SVG 1.1//EN" "http://www.w3.org/Graphics/SVG/1.1/DTD/svg11.dtd">
<svg width="3000px" height="3000px" version="1.1" xmlns="http://www.w3.org/2000/svg" xmlns:xlink="http://www.w3.org/1999/xlink">
<g id="bg">
<rect x="0" y="0" width="3000px" height="3000px" style="fill:rgb(255,255,255);"/>
</g>
<g id="ideograms">
<path d="M1500.000,535.000 A965.000,965.000 40.000 0,1 1601.714,540.376 L1618.579,381.267 A1125.000,1125.000 0.000 0,0 1500.000,375.000 Z" style="stroke-width:2.0;stroke:rgb(115,115,115);stroke-linecap:round;fill:rgb(153,204,255);" />
<text x="1635.1" y="307.6" font-size="195.0px" font-family="CMUBright-Bold" style="text-anchor:start;fill:rgb(0,0,0);" transform="rotate(273.0,1635.1,307.6)" >5</text>
<path d="M1500.000,535.000 A965.000,965.000 40.000 0,1 1601.714,540.376 L1618.579,381.267 A1125.000,1125.000 0.000 0,0 1500.000,375.000 Z" style="stroke-width:2.0;stroke:rgb(115,115,115);stroke-linecap:round;fill:none;" />
<path d="M1672.307,550.508 A965.000,965.000 40.000 0,1 1771.427,573.959 L1816.431,420.418 A1125.000,1125.000 0.000 0,0 1700.877,393.079 Z" style="stroke-width:2.0;stroke:rgb(115,115,115);stroke-linecap:round;fill:rgb(153,204,255);" />
<text x="1847.7" y="351.5" font-size="195.0px" font-family="CMUBright-Bold" style="text-anchor:start;fill:rgb(0,0,0);" transform="rotate(283.3,1847.7,351.5)" >9</text>
<path d="M1672.307,550.508 A965.000,965.000 40.000 0,1 1771.427,573.959 L1816.431,420.418 A1125.000,1125.000 0.000 0,0 1700.877,393.079 Z" style="stroke-width:2.0;stroke:rgb(115,115,115);stroke-linecap:round;fill:none;" />
<path d="M1839.077,596.533 A965.000,965.000 40.000 0,1 1932.417,637.306 L2004.113,494.269 A1125.000,1125.000 0.000 0,0 1895.297,446.736 Z" style="stroke-width:2.0;stroke:rgb(115,115,115);stroke-linecap:round;fill:rgb(153,204,255);" />
<text x="2047.2" y="432.0" font-size="195.0px" font-family="CMUBright-Bold" style="text-anchor:start;fill:rgb(0,0,0);" transform="rotate(293.6,2047.2,432.0)" >10</text>
<path d="M1839.077,596.533 A965.000,965.000 40.000 0,1 1932.417,637.306 L2004.113,494.269 A1125.000,1125.000 0.000 0,0 1895.297,446.736 Z" style="stroke-width:2.0;stroke:rgb(115,115,115);stroke-linecap:round;fill:none;" />
<path d="M1994.948,671.597 A965.000,965.000 40.000 0,1 2079.507,728.381 L2175.592,600.444 A1125.000,1125.000 0.000 0,0 2077.012,534.245 Z" style="stroke-width:2.0;stroke:rgb(115,115,115);stroke-linecap:round;fill:rgb(153,204,255);" />
<text x="2229.1" y="546.9" font-size="195.0px" font-family="CMUBright-Bold" style="text-anchor:start;fill:rgb(0,0,0);" transform="rotate(303.9,2229.1,546.9)" >13</text>
<path d="M1994.948,671.597 A965.000,965.000 40.000 0,1 2079.507,728.381 L2175.592,600.444 A1125.000,1125.000 0.000 0,0 2077.012,534.245 Z" style="stroke-width:2.0;stroke:rgb(115,115,115);stroke-linecap:round;fill:none;" />
<path d="M2134.911,773.286 A965.000,965.000 40.000 0,1 2207.972,844.256 L2325.356,735.532 A1125.000,1125.000 0.000 0,0 2240.181,652.795 Z" style="stroke-width:2.0;stroke:rgb(115,115,115);stroke-linecap:round;fill:rgb(153,204,255);" />
<text x="2387.6" y="692.4" font-size="195.0px" font-family="CMUBright-Bold" style="text-anchor:start;fill:rgb(0,0,0);" transform="rotate(314.2,2387.6,692.4)" >18</text>
<path d="M2134.911,773.286 A965.000,965.000 40.000 0,1 2207.972,844.256 L2325.356,735.532 A1125.000,1125.000 0.000 0,0 2240.181,652.795 Z" style="stroke-width:2.0;stroke:rgb(115,115,115);stroke-linecap:round;fill:none;" />
<path d="M2254.467,898.332 A965.000,965.000 40.000 0,1 2313.683,981.207 L2448.594,895.190 A1125.000,1125.000 0.000 0,0 2379.560,798.574 Z" style="stroke-width:2.0;stroke:rgb(115,115,115);stroke-linecap:round;fill:rgb(153,204,255);" />
<text x="2517.5" y="863.9" font-size="195.0px" font-family="CMUBright-Bold" style="text-anchor:start;fill:rgb(0,0,0);" transform="rotate(324.5,2517.5,863.9)" >28</text>
<path d="M2254.467,898.332 A965.000,965.000 40.000 0,1 2313.683,981.207 L2448.594,895.190 A1125.000,1125.000 0.000 0,0 2379.560,798.574 Z" style="stroke-width:2.0;stroke:rgb(115,115,115);stroke-linecap:round;fill:none;" />
<path d="M2349.775,1042.717 A965.000,965.000 40.000 0,1 2393.240,1134.833 L2541.342,1074.288 A1125.000,1125.000 0.000 0,0 2490.670,966.898 Z" style="stroke-width:2.0;stroke:rgb(115,115,115);stroke-linecap:round;fill:rgb(116,196,118);" />
<text x="2614.0" y="1053.9" font-size="195.0px" font-family="CMUBright-Bold" style="text-anchor:start;fill:rgb(0,0,0);" transform="rotate(334.7,2614.0,1053.9)" >2</text>
<path d="M2349.775,1042.717 A965.000,965.000 40.000 0,1 2393.240,1134.833 L2541.342,1074.288 A1125.000,1125.000 0.000 0,0 2490.670,966.898 Z" style="stroke-width:2.0;stroke:rgb(115,115,115);stroke-linecap:round;fill:none;" />
<path d="M2417.770,1201.799 A965.000,965.000 40.000 0,1 2444.089,1300.196 L2600.621,1267.068 A1125.000,1125.000 0.000 0,0 2569.939,1152.356 Z" style="stroke-width:2.0;stroke:rgb(115,115,115);stroke-linecap:round;fill:rgb(116,196,118);" />
<text x="2676.2" y="1262.0" font-size="195.0px" font-family="CMUBright-Bold" style="text-anchor:start;fill:rgb(0,0,0);" transform="rotate(345.0,2676.2,1262.0)" >3</text>
<path d="M2417.770,1201.799 A965.000,965.000 40.000 0,1 2444.089,1300.196 L2600.621,1267.068 A1125.000,1125.000 0.000 0,0 2569.939,1152.356 Z" style="stroke-width:2.0;stroke:rgb(115,115,115);stroke-linecap:round;fill:none;" />
<path d="M2456.267,1370.465 A965.000,965.000 40.000 0,1 2464.593,1471.980 L2624.526,1467.335 A1125.000,1125.000 0.000 0,0 2614.818,1348.988 Z" style="stroke-width:2.0;stroke:rgb(115,115,115);stroke-linecap:round;fill:rgb(116,196,118);" />
<text x="2699.7" y="1471.8" font-size="195.0px" font-family="CMUBright-Bold" style="text-anchor:start;fill:rgb(0,0,0);" transform="rotate(355.3,2699.7,1471.8)" >4</text>
<path d="M2456.267,1370.465 A965.000,965.000 40.000 0,1 2464.593,1471.980 L2624.526,1467.335 A1125.000,1125.000 0.000 0,0 2614.818,1348.988 Z" style="stroke-width:2.0;stroke:rgb(115,115,115);stroke-linecap:round;fill:none;" />
<path d="M2464.028,1543.295 A965.000,965.000 40.000 0,1 2454.095,1644.665 L2612.287,1668.651 A1125.000,1125.000 0.000 0,0 2623.867,1550.473 Z" style="stroke-width:2.0;stroke:rgb(115,115,115);stroke-linecap:round;fill:rgb(116,196,118);" />
<text x="2684.8" y="1690.4" font-size="195.0px" font-family="CMUBright-Bold" style="text-anchor:start;fill:rgb(0,0,0);" transform="rotate(5.6,2684.8,1690.4)" >6</text>
<path d="M2464.028,1543.295 A965.000,965.000 40.000 0,1 2454.095,1644.665 L2612.287,1668.651 A1125.000,1125.000 0.000 0,0 2623.867,1550.473 Z" style="stroke-width:2.0;stroke:rgb(115,115,115);stroke-linecap:round;fill:none;" />
<path d="M2440.805,1714.733 A965.000,965.000 40.000 0,1 2412.931,1812.701 L2564.298,1864.548 A1125.000,1125.000 0.000 0,0 2596.794,1750.336 Z" style="stroke-width:2.0;stroke:rgb(115,115,115);stroke-linecap:round;fill:rgb(116,196,118);" />
<text x="2631.8" y="1898.9" font-size="195.0px" font-family="CMUBright-Bold" style="text-anchor:start;fill:rgb(0,0,0);" transform="rotate(15.9,2631.8,1898.9)" >15</text>
<path d="M2440.805,1714.733 A965.000,965.000 40.000 0,1 2412.931,1812.701 L2564.298,1864.548 A1125.000,1125.000 0.000 0,0 2596.794,1750.336 Z" style="stroke-width:2.0;stroke:rgb(115,115,115);stroke-linecap:round;fill:none;" />
<path d="M2387.344,1879.269 A965.000,965.000 40.000 0,1 2342.425,1970.686 L2482.102,2048.727 A1125.000,1125.000 0.000 0,0 2534.469,1942.153 Z" style="stroke-width:2.0;stroke:rgb(115,115,115);stroke-linecap:round;fill:rgb(116,196,118);" />
<text x="2543.3" y="2092.8" font-size="195.0px" font-family="CMUBright-Bold" style="text-anchor:start;fill:rgb(0,0,0);" transform="rotate(26.2,2543.3,2092.8)" >22</text>
<path d="M2387.344,1879.269 A965.000,965.000 40.000 0,1 2342.425,1970.686 L2482.102,2048.727 A1125.000,1125.000 0.000 0,0 2534.469,1942.153 Z" style="stroke-width:2.0;stroke:rgb(115,115,115);stroke-linecap:round;fill:none;" />
<path d="M2305.363,2031.616 A965.000,965.000 40.000 0,1 2244.843,2113.542 L2368.340,2215.270 A1125.000,1125.000 0.000 0,0 2438.895,2119.759 Z" style="stroke-width:2.0;stroke:rgb(115,115,115);stroke-linecap:round;fill:rgb(116,196,118);" />
<text x="2419.4" y="2271.1" font-size="195.0px" font-family="CMUBright-Bold" style="text-anchor:start;fill:rgb(0,0,0);" transform="rotate(36.5,2419.4,2271.1)" >23</text>
<path d="M2305.363,2031.616 A965.000,965.000 40.000 0,1 2244.843,2113.542 L2368.340,2215.270 A1125.000,1125.000 0.000 0,0 2438.895,2119.759 Z" style="stroke-width:2.0;stroke:rgb(115,115,115);stroke-linecap:round;fill:none;" />
<path d="M2197.497,2166.875 A965.000,965.000 40.000 0,1 2123.321,2236.679 L2226.669,2358.823 A1125.000,1125.000 0.000 0,0 2313.144,2277.445 Z" style="stroke-width:2.0;stroke:rgb(115,115,115);stroke-linecap:round;fill:rgb(116,196,118);" />
<text x="2268.5" y="2421.6" font-size="195.0px" font-family="CMUBright-Bold" style="text-anchor:start;fill:rgb(0,0,0);" transform="rotate(46.7,2268.5,2421.6)" >24</text>
<path d="M2197.497,2166.875 A965.000,965.000 40.000 0,1 2123.321,2236.679 L2226.669,2358.823 A1125.000,1125.000 0.000 0,0 2313.144,2277.445 Z" style="stroke-width:2.0;stroke:rgb(115,115,115);stroke-linecap:round;fill:none;" />
<path d="M2067.213,2280.701 A965.000,965.000 40.000 0,1 1981.764,2336.139 L2061.642,2474.773 A1125.000,1125.000 0.000 0,0 2161.258,2410.144 Z" style="stroke-width:2.0;stroke:rgb(115,115,115);stroke-linecap:round;fill:rgb(153,0,204);" />
<text x="2091.6" y="2544.0" font-size="195.0px" font-family="CMUBright-Bold" style="text-anchor:start;fill:rgb(0,0,0);" transform="rotate(57.0,2091.6,2544.0)" >1</text>
<path d="M2067.213,2280.701 A965.000,965.000 40.000 0,1 1981.764,2336.139 L2061.642,2474.773 A1125.000,1125.000 0.000 0,0 2161.258,2410.144 Z" style="stroke-width:2.0;stroke:rgb(115,115,115);stroke-linecap:round;fill:none;" />
<path d="M1918.698,2369.435 A965.000,965.000 40.000 0,1 1824.724,2408.724 L1878.564,2559.393 A1125.000,1125.000 0.000 0,0 1988.119,2513.590 Z" style="stroke-width:2.0;stroke:rgb(115,115,115);stroke-linecap:round;fill:rgb(153,0,204);" />
<text x="1896.6" y="2632.6" font-size="195.0px" font-family="CMUBright-Bold" style="text-anchor:start;fill:rgb(0,0,0);" transform="rotate(67.3,1896.6,2632.6)" >7</text>
<path d="M1918.698,2369.435 A965.000,965.000 40.000 0,1 1824.724,2408.724 L1878.564,2559.393 A1125.000,1125.000 0.000 0,0 1988.119,2513.590 Z" style="stroke-width:2.0;stroke:rgb(115,115,115);stroke-linecap:round;fill:none;" />
<path d="M1756.726,2430.224 A965.000,965.000 40.000 0,1 1657.246,2452.102 L1683.318,2609.964 A1125.000,1125.000 0.000 0,0 1799.291,2584.458 Z" style="stroke-width:2.0;stroke:rgb(115,115,115);stroke-linecap:round;fill:rgb(153,0,204);" />
<text x="1686.0" y="2685.5" font-size="195.0px" font-family="CMUBright-Bold" style="text-anchor:start;fill:rgb(0,0,0);" transform="rotate(77.6,1686.0,2685.5)" >17</text>
<path d="M1756.726,2430.224 A965.000,965.000 40.000 0,1 1657.246,2452.102 L1683.318,2609.964 A1125.000,1125.000 0.000 0,0 1799.291,2584.458 Z" style="stroke-width:2.0;stroke:rgb(115,115,115);stroke-linecap:round;fill:none;" />
<path d="M1586.502,2461.115 A965.000,965.000 40.000 0,1 1484.715,2464.879 L1482.181,2624.859 A1125.000,1125.000 0.000 0,0 1600.844,2620.471 Z" style="stroke-width:2.0;stroke:rgb(115,115,115);stroke-linecap:round;fill:rgb(153,0,204);" />
<text x="1470.4" y="2699.6" font-size="195.0px" font-family="CMUBright-Bold" style="text-anchor:start;fill:rgb(0,0,0);" transform="rotate(87.9,1470.4,2699.6)" >25</text>
<path d="M1586.502,2461.115 A965.000,965.000 40.000 0,1 1484.715,2464.879 L1482.181,2624.859 A1125.000,1125.000 0.000 0,0 1600.844,2620.471 Z" style="stroke-width:2.0;stroke:rgb(115,115,115);stroke-linecap:round;fill:none;" />
<path d="M1413.498,2461.115 A965.000,965.000 40.000 0,1 1312.675,2446.644 L1281.616,2603.600 A1125.000,1125.000 0.000 0,0 1399.156,2620.471 Z" style="stroke-width:2.0;stroke:rgb(115,115,115);stroke-linecap:round;fill:rgb(153,0,204);" />
<text x="1403.0" y="2696.1" font-size="195.0px" font-family="CMUBright-Bold" style="text-anchor:end;fill:rgb(0,0,0);" transform="rotate(-81.8,1403.0,2696.1)" >26</text>
<path d="M1413.498,2461.115 A965.000,965.000 40.000 0,1 1312.675,2446.644 L1281.616,2603.600 A1125.000,1125.000 0.000 0,0 1399.156,2620.471 Z" style="stroke-width:2.0;stroke:rgb(115,115,115);stroke-linecap:round;fill:none;" />
<path d="M1243.274,2430.224 A965.000,965.000 40.000 0,1 1146.656,2397.983 L1088.070,2546.871 A1125.000,1125.000 0.000 0,0 1200.709,2584.458 Z" style="stroke-width:2.0;stroke:rgb(115,115,115);stroke-linecap:round;fill:rgb(153,0,204);" />
<text x="1191.0" y="2659.5" font-size="195.0px" font-family="CMUBright-Bold" style="text-anchor:end;fill:rgb(0,0,0);" transform="rotate(-71.5,1191.0,2659.5)" >34</text>
<path d="M1243.274,2430.224 A965.000,965.000 40.000 0,1 1146.656,2397.983 L1088.070,2546.871 A1125.000,1125.000 0.000 0,0 1200.709,2584.458 Z" style="stroke-width:2.0;stroke:rgb(115,115,115);stroke-linecap:round;fill:none;" />
<path d="M1081.302,2369.435 A965.000,965.000 40.000 0,1 991.993,2320.460 L907.764,2456.494 A1125.000,1125.000 0.000 0,0 1011.881,2513.590 Z" style="stroke-width:2.0;stroke:rgb(115,115,115);stroke-linecap:round;fill:rgb(253,208,162);" />
<text x="987.1" y="2584.9" font-size="195.0px" font-family="CMUBright-Bold" style="text-anchor:end;fill:rgb(0,0,0);" transform="rotate(-61.3,987.1,2584.9)" >12</text>
<path d="M1081.302,2369.435 A965.000,965.000 40.000 0,1 991.993,2320.460 L907.764,2456.494 A1125.000,1125.000 0.000 0,0 1011.881,2513.590 Z" style="stroke-width:2.0;stroke:rgb(115,115,115);stroke-linecap:round;fill:none;" />
<path d="M932.787,2280.701 A965.000,965.000 40.000 0,1 853.658,2216.566 L746.493,2335.375 A1125.000,1125.000 0.000 0,0 838.742,2410.144 Z" style="stroke-width:2.0;stroke:rgb(115,115,115);stroke-linecap:round;fill:rgb(253,208,162);" />
<text x="803.3" y="2477.0" font-size="195.0px" font-family="CMUBright-Bold" style="text-anchor:end;fill:rgb(0,0,0);" transform="rotate(-51.0,803.3,2477.0)" >16</text>
<path d="M932.787,2280.701 A965.000,965.000 40.000 0,1 853.658,2216.566 L746.493,2335.375 A1125.000,1125.000 0.000 0,0 838.742,2410.144 Z" style="stroke-width:2.0;stroke:rgb(115,115,115);stroke-linecap:round;fill:none;" />
<path d="M802.503,2166.875 A965.000,965.000 40.000 0,1 736.097,2089.642 L609.440,2187.406 A1125.000,1125.000 0.000 0,0 686.856,2277.445 Z" style="stroke-width:2.0;stroke:rgb(115,115,115);stroke-linecap:round;fill:rgb(253,208,162);" />
<text x="640.0" y="2336.9" font-size="195.0px" font-family="CMUBright-Bold" style="text-anchor:end;fill:rgb(0,0,0);" transform="rotate(-40.7,640.0,2336.9)" >20</text>
<path d="M802.503,2166.875 A965.000,965.000 40.000 0,1 736.097,2089.642 L609.440,2187.406 A1125.000,1125.000 0.000 0,0 686.856,2277.445 Z" style="stroke-width:2.0;stroke:rgb(115,115,115);stroke-linecap:round;fill:none;" />
<path d="M694.637,2031.616 A965.000,965.000 40.000 0,1 643.089,1943.766 L501.010,2017.344 A1125.000,1125.000 0.000 0,0 561.105,2119.759 Z" style="stroke-width:2.0;stroke:rgb(115,115,115);stroke-linecap:round;fill:rgb(253,208,162);" />
<text x="503.3" y="2168.3" font-size="195.0px" font-family="CMUBright-Bold" style="text-anchor:end;fill:rgb(0,0,0);" transform="rotate(-30.4,503.3,2168.3)" >21</text>
<path d="M694.637,2031.616 A965.000,965.000 40.000 0,1 643.089,1943.766 L501.010,2017.344 A1125.000,1125.000 0.000 0,0 561.105,2119.759 Z" style="stroke-width:2.0;stroke:rgb(115,115,115);stroke-linecap:round;fill:none;" />
<path d="M612.656,1879.269 A965.000,965.000 40.000 0,1 577.622,1783.627 L424.689,1830.653 A1125.000,1125.000 0.000 0,0 465.531,1942.153 Z" style="stroke-width:2.0;stroke:rgb(115,115,115);stroke-linecap:round;fill:rgb(253,208,162);" />
<text x="400.8" y="1981.4" font-size="195.0px" font-family="CMUBright-Bold" style="text-anchor:end;fill:rgb(0,0,0);" transform="rotate(-20.1,400.8,1981.4)" >35</text>
<path d="M612.656,1879.269 A965.000,965.000 40.000 0,1 577.622,1783.627 L424.689,1830.653 A1125.000,1125.000 0.000 0,0 465.531,1942.153 Z" style="stroke-width:2.0;stroke:rgb(115,115,115);stroke-linecap:round;fill:none;" />
<path d="M559.195,1714.733 A965.000,965.000 40.000 0,1 541.802,1614.372 L382.929,1633.336 A1125.000,1125.000 0.000 0,0 403.206,1750.336 Z" style="stroke-width:2.0;stroke:rgb(115,115,115);stroke-linecap:round;fill:rgb(253,141,60);" />
<text x="332.0" y="1775.4" font-size="195.0px" font-family="CMUBright-Bold" style="text-anchor:end;fill:rgb(0,0,0);" transform="rotate(-9.8,332.0,1775.4)" >11</text>
<path d="M559.195,1714.733 A965.000,965.000 40.000 0,1 541.802,1614.372 L382.929,1633.336 A1125.000,1125.000 0.000 0,0 403.206,1750.336 Z" style="stroke-width:2.0;stroke:rgb(115,115,115);stroke-linecap:round;fill:none;" />
<path d="M535.972,1543.295 A965.000,965.000 40.000 0,1 536.778,1441.441 L377.073,1431.732 A1125.000,1125.000 0.000 0,0 376.133,1550.473 Z" style="stroke-width:2.0;stroke:rgb(115,115,115);stroke-linecap:round;fill:rgb(253,141,60);" />
<text x="301.7" y="1564.5" font-size="195.0px" font-family="CMUBright-Bold" style="text-anchor:end;fill:rgb(0,0,0);" transform="rotate(0.5,301.7,1564.5)" >30</text>
<path d="M535.972,1543.295 A965.000,965.000 40.000 0,1 536.778,1441.441 L377.073,1431.732 A1125.000,1125.000 0.000 0,0 376.133,1550.473 Z" style="stroke-width:2.0;stroke:rgb(115,115,115);stroke-linecap:round;fill:none;" />
<path d="M543.733,1370.465 A965.000,965.000 40.000 0,1 562.714,1270.393 L407.309,1232.323 A1125.000,1125.000 0.000 0,0 385.182,1348.988 Z" style="stroke-width:2.0;stroke:rgb(115,115,115);stroke-linecap:round;fill:rgb(253,141,60);" />
<text x="309.5" y="1349.5" font-size="195.0px" font-family="CMUBright-Bold" style="text-anchor:end;fill:rgb(0,0,0);" transform="rotate(10.7,309.5,1349.5)" >31</text>
<path d="M543.733,1370.465 A965.000,965.000 40.000 0,1 562.714,1270.393 L407.309,1232.323 A1125.000,1125.000 0.000 0,0 385.182,1348.988 Z" style="stroke-width:2.0;stroke:rgb(115,115,115);stroke-linecap:round;fill:none;" />
<path d="M582.230,1201.799 A965.000,965.000 40.000 0,1 618.774,1106.724 L472.664,1041.517 A1125.000,1125.000 0.000 0,0 430.061,1152.356 Z" style="stroke-width:2.0;stroke:rgb(115,115,115);stroke-linecap:round;fill:rgb(253,141,60);" />
<text x="355.5" y="1139.3" font-size="195.0px" font-family="CMUBright-Bold" style="text-anchor:end;fill:rgb(0,0,0);" transform="rotate(21.0,355.5,1139.3)" >32</text>
<path d="M582.230,1201.799 A965.000,965.000 40.000 0,1 618.774,1106.724 L472.664,1041.517 A1125.000,1125.000 0.000 0,0 430.061,1152.356 Z" style="stroke-width:2.0;stroke:rgb(115,115,115);stroke-linecap:round;fill:none;" />
<path d="M650.225,1042.717 A965.000,965.000 40.000 0,1 703.158,955.695 L571.039,865.447 A1125.000,1125.000 0.000 0,0 509.330,966.898 Z" style="stroke-width:2.0;stroke:rgb(115,115,115);stroke-linecap:round;fill:rgb(253,141,60);" />
<text x="438.3" y="940.7" font-size="195.0px" font-family="CMUBright-Bold" style="text-anchor:end;fill:rgb(0,0,0);" transform="rotate(31.3,438.3,940.7)" >33</text>
<path d="M650.225,1042.717 A965.000,965.000 40.000 0,1 703.158,955.695 L571.039,865.447 A1125.000,1125.000 0.000 0,0 509.330,966.898 Z" style="stroke-width:2.0;stroke:rgb(115,115,115);stroke-linecap:round;fill:none;" />
<path d="M745.533,898.332 A965.000,965.000 40.000 0,1 813.153,822.160 L699.272,709.772 A1125.000,1125.000 0.000 0,0 620.440,798.574 Z" style="stroke-width:2.0;stroke:rgb(115,115,115);stroke-linecap:round;fill:rgb(66,146,198);" />
<text x="555.2" y="760.2" font-size="195.0px" font-family="CMUBright-Bold" style="text-anchor:end;fill:rgb(0,0,0);" transform="rotate(41.6,555.2,760.2)" >8</text>
<path d="M745.533,898.332 A965.000,965.000 40.000 0,1 813.153,822.160 L699.272,709.772 A1125.000,1125.000 0.000 0,0 620.440,798.574 Z" style="stroke-width:2.0;stroke:rgb(115,115,115);stroke-linecap:round;fill:none;" />
<path d="M865.089,773.286 A965.000,965.000 40.000 0,1 945.224,710.412 L853.241,579.496 A1125.000,1125.000 0.000 0,0 759.819,652.795 Z" style="stroke-width:2.0;stroke:rgb(115,115,115);stroke-linecap:round;fill:rgb(66,146,198);" />
<text x="704.0" y="602.0" font-size="195.0px" font-family="CMUBright-Bold" style="text-anchor:end;fill:rgb(0,0,0);" transform="rotate(51.9,704.0,602.0)" >14</text>
<path d="M865.089,773.286 A965.000,965.000 40.000 0,1 945.224,710.412 L853.241,579.496 A1125.000,1125.000 0.000 0,0 759.819,652.795 Z" style="stroke-width:2.0;stroke:rgb(115,115,115);stroke-linecap:round;fill:none;" />
<path d="M1005.052,671.597 A965.000,965.000 40.000 0,1 1095.126,624.042 L1027.997,478.806 A1125.000,1125.000 0.000 0,0 922.988,534.245 Z" style="stroke-width:2.0;stroke:rgb(115,115,115);stroke-linecap:round;fill:rgb(66,146,198);" />
<text x="875.4" y="475.4" font-size="195.0px" font-family="CMUBright-Bold" style="text-anchor:end;fill:rgb(0,0,0);" transform="rotate(62.2,875.4,475.4)" >19</text>
<path d="M1005.052,671.597 A965.000,965.000 40.000 0,1 1095.126,624.042 L1027.997,478.806 A1125.000,1125.000 0.000 0,0 922.988,534.245 Z" style="stroke-width:2.0;stroke:rgb(115,115,115);stroke-linecap:round;fill:none;" />
<path d="M1160.923,596.533 A965.000,965.000 40.000 0,1 1258.041,565.826 L1217.923,410.937 A1125.000,1125.000 0.000 0,0 1104.703,446.736 Z" style="stroke-width:2.0;stroke:rgb(115,115,115);stroke-linecap:round;fill:rgb(66,146,198);" />
<text x="1069.3" y="379.9" font-size="195.0px" font-family="CMUBright-Bold" style="text-anchor:end;fill:rgb(0,0,0);" transform="rotate(72.5,1069.3,379.9)" >27</text>
<path d="M1160.923,596.533 A965.000,965.000 40.000 0,1 1258.041,565.826 L1217.923,410.937 A1125.000,1125.000 0.000 0,0 1104.703,446.736 Z" style="stroke-width:2.0;stroke:rgb(115,115,115);stroke-linecap:round;fill:none;" />
<path d="M1327.693,550.508 A965.000,965.000 40.000 0,1 1428.732,537.635 L1416.916,378.072 A1125.000,1125.000 0.000 0,0 1299.123,393.079 Z" style="stroke-width:2.0;stroke:rgb(115,115,115);stroke-linecap:round;fill:rgb(66,146,198);" />
<text x="1275.3" y="321.2" font-size="195.0px" font-family="CMUBright-Bold" style="text-anchor:end;fill:rgb(0,0,0);" transform="rotate(82.7,1275.3,321.2)" >29</text>
<path d="M1327.693,550.508 A965.000,965.000 40.000 0,1 1428.732,537.635 L1416.916,378.072 A1125.000,1125.000 0.000 0,0 1299.123,393.079 Z" style="stroke-width:2.0;stroke:rgb(115,115,115);stroke-linecap:round;fill:none;" />
</g>
<g id="track_1">
<path d="M 1999.0,2269.1 L 1976.1,2233.2 1953.5,2196.5 1931.5,2159.2 1909.9,2121.3 1888.9,2082.8 1868.5,2043.6 1848.8,2003.9 1829.8,1963.6 1811.6,1922.7 1794.2,1881.4 1777.6,1839.7 1761.9,1797.4 1747.2,1754.8 1733.3,1711.8 1720.5,1668.4 1708.6,1624.7 1697.8,1580.7 1687.9,1536.5 1679.1,1492.0 1671.4,1447.3 1664.7,1402.4 1659.1,1357.4 1654.5,1312.4 1650.9,1267.2 1648.5,1222.1 1647.0,1176.9 1646.6,1131.8 1647.1,1086.7 1648.7,1041.8 1651.2,997.1 1654.6,952.5 1658.9,908.2 1664.1,864.1 1670.1,820.4 1676.9,777.0 1684.5,734.0 1692.7,691.5 1701.6,649.4 1711.1,607.9  " style="stroke-opacity: 1.000000; stroke-width: 5.0; stroke: rgb(251,106,74); fill: none"  />
<path d="M 1999.0,2269.1 L 1976.6,2233.9 1954.7,2198.0 1933.4,2161.4 1912.7,2124.0 1892.8,2086.0 1873.5,2047.4 1855.2,2008.2 1837.7,1968.4 1821.2,1928.2 1805.7,1887.4 1791.2,1846.1 1777.9,1804.5 1765.7,1762.4 1754.6,1720.0 1744.8,1677.3 1736.1,1634.4 1728.7,1591.1 1722.6,1547.7 1717.7,1504.1 1714.1,1460.4 1711.8,1416.6 1710.8,1372.8 1711.1,1329.0 1712.6,1285.2 1715.4,1241.4 1719.4,1197.8 1724.6,1154.3 1731.0,1111.0 1738.5,1068.0 1747.1,1025.2 1756.9,982.8 1767.6,940.7 1779.4,899.0 1792.0,857.8 1805.5,817.1 1819.9,776.9 1834.9,737.2 1850.7,698.2 1867.0,659.9  " style="stroke-opacity: 1.000000; stroke-width: 5.0; stroke: rgb(251,106,74); fill: none"  />
<path d="M 1999.0,2269.1 L 1979.8,2239.3 1961.1,2209.5 1943.0,2179.9 1925.5,2150.7 1909.0,2122.0 1893.5,2094.1 1879.0,2067.0 1865.8,2040.9 1854.0,2016.0 1843.6,1992.4 1834.6,1970.1 1827.3,1949.3 1821.6,1930.1 1817.7,1912.5 1815.4,1896.7 1815.0,1882.7 1816.3,1870.5 1819.5,1860.2 1824.6,1851.8 1831.4,1845.3 1840.1,1840.8 1850.6,1838.2 1862.9,1837.6 1876.8,1838.9 1892.5,1842.1 1909.8,1847.1 1928.6,1854.0 1948.9,1862.6 1970.6,1872.8 1993.6,1884.6 2017.7,1898.0 2042.9,1912.7 2069.1,1928.8 2096.0,1946.0 2123.6,1964.2 2151.7,1983.4 2180.2,2003.3 2208.8,2023.8 2237.4,2044.7  " style="stroke-opacity: 1.000000; stroke-width: 5.0; stroke: rgb(251,106,74); fill: none"  />
<path d="M 1999.0,2269.1 L 1974.3,2230.8 1949.7,2192.2 1925.3,2153.4 1900.9,2114.2 1876.8,2074.8 1852.8,2035.0 1829.0,1995.0 1805.5,1954.7 1782.1,1914.2 1759.0,1873.4 1736.1,1832.4 1713.5,1791.1 1691.2,1749.6 1669.1,1707.9 1647.3,1666.0 1625.8,1623.9 1604.7,1581.5 1583.8,1539.0 1563.2,1496.3 1543.0,1453.5 1523.2,1410.5 1503.6,1367.4 1484.4,1324.1 1465.5,1280.8 1447.0,1237.3 1428.9,1193.7 1411.0,1150.1 1393.6,1106.4 1376.4,1062.7 1359.6,1018.9 1343.2,975.1 1327.1,931.3 1311.4,887.5 1295.9,843.7 1280.8,800.0 1266.1,756.4 1251.6,712.8 1237.5,669.3 1223.6,625.9  " style="stroke-opacity: 1.000000; stroke-width: 5.0; stroke: rgb(251,106,74); fill: none"  />
<path d="M 2412.4,1589.4 L 2375.5,1586.2 2338.6,1583.9 2301.7,1582.5 2265.0,1582.1 2228.8,1582.9 2193.2,1584.8 2158.3,1587.9 2124.3,1592.3 2091.3,1598.0 2059.4,1605.1 2028.8,1613.6 1999.5,1623.6 1971.6,1634.9 1945.2,1647.7 1920.5,1662.0 1897.4,1677.8 1876.1,1695.0 1856.6,1713.6 1838.8,1733.7 1823.0,1755.2 1809.0,1778.0 1796.9,1802.2 1786.7,1827.6 1778.5,1854.3 1772.1,1882.2 1767.6,1911.1 1764.9,1941.1 1764.0,1972.0 1764.9,2003.8 1767.5,2036.4 1771.7,2069.6 1777.5,2103.4 1784.8,2137.7 1793.4,2172.3 1803.3,2207.1 1814.5,2242.0 1826.6,2276.9 1839.7,2311.5 1853.6,2345.8  " style="stroke-opacity: 1.000000; stroke-width: 5.0; stroke: rgb(251,106,74); fill: none"  />
<path d="M 1853.6,2345.8 L 1839.7,2311.5 1826.6,2276.9 1814.5,2242.0 1803.3,2207.1 1793.4,2172.3 1784.8,2137.7 1777.5,2103.4 1771.7,2069.6 1767.5,2036.4 1764.9,2003.8 1764.0,1972.0 1764.9,1941.1 1767.6,1911.1 1772.1,1882.2 1778.5,1854.3 1786.7,1827.6 1796.9,1802.2 1809.0,1778.0 1823.0,1755.2 1838.8,1733.7 1856.6,1713.6 1876.1,1695.0 1897.4,1677.8 1920.5,1662.0 1945.2,1647.7 1971.6,1634.9 1999.5,1623.6 2028.8,1613.6 2059.4,1605.1 2091.3,1598.0 2124.3,1592.3 2158.3,1587.9 2193.2,1584.8 2228.8,1582.9 2265.0,1582.1 2301.7,1582.5 2338.6,1583.9 2375.5,1586.2 2412.4,1589.4  " style="stroke-opacity: 1.000000; stroke-width: 5.0; stroke: rgb(251,106,74); fill: none"  />
<path d="M 1853.6,2345.8 L 1839.2,2312.3 1824.1,2279.1 1808.4,2246.6 1792.0,2214.8 1775.0,2183.9 1757.4,2154.2 1739.2,2125.9 1720.5,2099.0 1701.3,2073.7 1681.6,2050.2 1661.5,2028.6 1641.0,2009.0 1620.1,1991.4 1598.8,1976.1 1577.3,1962.9 1555.4,1952.1 1533.3,1943.7 1510.9,1937.6 1488.4,1934.0 1465.8,1932.8 1443.0,1934.0 1420.1,1937.7 1397.3,1943.8 1374.4,1952.2 1351.5,1963.0 1328.8,1976.0 1306.1,1991.3 1283.7,2008.6 1261.4,2028.0 1239.3,2049.3 1217.6,2072.4 1196.2,2097.2 1175.1,2123.5 1154.5,2151.1 1134.3,2180.0 1114.7,2209.9 1095.6,2240.6 1077.1,2272.0 1059.2,2303.8  " style="stroke-opacity: 1.000000; stroke-width: 5.0; stroke: rgb(251,106,74); fill: none"  />
<path d="M 814.4,891.4 L 842.8,916.0 872.0,940.0 901.7,963.2 932.0,985.5 962.7,1006.6 993.8,1026.5 1025.2,1045.0 1056.8,1062.1 1088.7,1077.5 1120.6,1091.2 1152.5,1103.1 1184.4,1113.2 1216.3,1121.3 1248.0,1127.5 1279.5,1131.6 1310.7,1133.6 1341.6,1133.5 1372.2,1131.2 1402.4,1126.8 1432.1,1120.3 1461.3,1111.6 1490.0,1100.8 1518.1,1088.0 1545.6,1073.0 1572.5,1056.1 1598.7,1037.2 1624.2,1016.5 1648.9,994.0 1672.9,969.7 1696.1,943.9 1718.5,916.5 1740.1,887.8 1760.8,857.8 1780.7,826.7 1799.8,794.6 1817.9,761.7 1835.1,728.2 1851.5,694.2 1867.0,659.9  " style="stroke-opacity: 1.000000; stroke-width: 5.0; stroke: rgb(251,106,74); fill: none"  />
<path d="M 814.4,891.4 L 842.3,916.7 869.5,942.8 896.1,969.5 921.8,996.9 946.4,1024.9 969.8,1053.5 992.0,1082.5 1012.6,1111.9 1031.7,1141.6 1049.1,1171.7 1064.8,1202.0 1078.5,1232.5 1090.4,1263.2 1100.2,1293.9 1108.0,1324.7 1113.7,1355.5 1117.3,1386.2 1118.7,1416.8 1117.9,1447.3 1114.9,1477.6 1109.8,1507.6 1102.5,1537.4 1093.0,1566.8 1081.5,1595.9 1067.8,1624.6 1052.2,1652.8 1034.6,1680.6 1015.2,1707.8 994.0,1734.5 971.0,1760.6 946.5,1786.1 920.6,1811.0 893.3,1835.1 864.7,1858.6 835.1,1881.2 804.6,1903.2 773.4,1924.3 741.5,1944.5 709.3,1964.0  " style="stroke-opacity: 1.000000; stroke-width: 5.0; stroke: rgb(251,106,74); fill: none"  />
<path d="M 1711.1,607.9 L 1701.6,649.4 1692.7,691.5 1684.5,734.0 1676.9,777.0 1670.1,820.4 1664.1,864.1 1658.9,908.2 1654.6,952.5 1651.2,997.1 1648.7,1041.8 1647.1,1086.7 1646.6,1131.8 1647.0,1176.9 1648.5,1222.1 1650.9,1267.2 1654.5,1312.4 1659.1,1357.4 1664.7,1402.4 1671.4,1447.3 1679.1,1492.0 1687.9,1536.5 1697.8,1580.7 1708.6,1624.7 1720.5,1668.4 1733.3,1711.8 1747.2,1754.8 1761.9,1797.4 1777.6,1839.7 1794.2,1881.4 1811.6,1922.7 1829.8,1963.6 1848.8,2003.9 1868.5,2043.6 1888.9,2082.8 1909.9,2121.3 1931.5,2159.2 1953.5,2196.5 1976.1,2233.2 1999.0,2269.1  " style="stroke-opacity: 1.000000; stroke-width: 5.0; stroke: rgb(251,106,74); fill: none"  />
<path d="M 1711.1,607.9 L 1701.0,651.3 1691.3,695.1 1681.9,739.2 1673.0,783.6 1664.4,828.4 1656.3,873.5 1648.7,918.8 1641.5,964.4 1634.8,1010.3 1628.7,1056.3 1623.1,1102.6 1618.0,1149.0 1613.5,1195.6 1609.6,1242.3 1606.2,1289.1 1603.4,1336.1 1601.3,1383.1 1599.7,1430.1 1598.7,1477.2 1598.3,1524.3 1598.6,1571.4 1599.4,1618.5 1600.8,1665.5 1602.9,1712.5 1605.5,1759.4 1608.7,1806.2 1612.4,1852.8 1616.8,1899.3 1621.7,1945.6 1627.1,1991.8 1633.0,2037.7 1639.4,2083.4 1646.4,2128.9 1653.8,2174.1 1661.6,2219.0 1669.9,2263.6 1678.5,2307.9 1687.5,2351.8 1696.9,2395.4  " style="stroke-opacity: 1.000000; stroke-width: 5.0; stroke: rgb(251,106,74); fill: none"  />
<path d="M 1711.1,607.9 L 1700.7,652.2 1690.5,696.8 1680.6,741.6 1670.9,786.7 1661.4,832.0 1652.2,877.5 1643.3,923.1 1634.6,969.0 1626.3,1015.0 1618.2,1061.2 1610.5,1107.5 1603.1,1154.0 1596.0,1200.6 1589.3,1247.3 1582.9,1294.1 1576.8,1341.0 1571.1,1388.0 1565.8,1435.1 1560.8,1482.2 1556.2,1529.3 1551.9,1576.5 1548.0,1623.7 1544.5,1670.9 1541.3,1718.0 1538.5,1765.2 1536.1,1812.3 1534.0,1859.4 1532.2,1906.5 1530.8,1953.4 1529.7,2000.3 1529.0,2047.1 1528.6,2093.7 1528.5,2140.3 1528.7,2186.7 1529.2,2232.9 1529.9,2279.0 1531.0,2324.9 1532.3,2370.6 1533.9,2416.1  " style="stroke-opacity: 1.000000; stroke-width: 5.0; stroke: rgb(251,106,74); fill: none"  />
<path d="M 1711.1,607.9 L 1700.3,653.1 1689.5,698.5 1678.5,743.8 1667.5,789.2 1656.3,834.7 1645.0,880.1 1633.6,925.6 1622.1,971.2 1610.5,1016.7 1598.8,1062.2 1586.9,1107.8 1574.9,1153.4 1562.8,1198.9 1550.6,1244.5 1538.3,1290.0 1525.9,1335.5 1513.3,1381.0 1500.6,1426.5 1487.8,1472.0 1474.9,1517.4 1461.8,1562.8 1448.7,1608.1 1435.4,1653.5 1422.0,1698.7 1408.5,1743.9 1394.9,1789.1 1381.2,1834.2 1367.4,1879.2 1353.5,1924.2 1339.5,1969.1 1325.4,2013.9 1311.2,2058.7 1297.0,2103.4 1282.6,2148.0 1268.2,2192.5 1253.7,2236.9 1239.1,2281.2 1224.5,2325.5 1209.8,2369.6  " style="stroke-opacity: 1.000000; stroke-width: 5.0; stroke: rgb(251,106,74); fill: none"  />
<path d="M 1867.0,659.9 L 1850.7,698.2 1834.9,737.2 1819.9,776.9 1805.5,817.1 1792.0,857.8 1779.4,899.0 1767.6,940.7 1756.9,982.8 1747.1,1025.2 1738.5,1068.0 1731.0,1111.0 1724.6,1154.3 1719.4,1197.8 1715.4,1241.4 1712.6,1285.2 1711.1,1329.0 1710.8,1372.8 1711.8,1416.6 1714.1,1460.4 1717.7,1504.1 1722.6,1547.7 1728.7,1591.1 1736.1,1634.4 1744.8,1677.3 1754.6,1720.0 1765.7,1762.4 1777.9,1804.5 1791.2,1846.1 1805.7,1887.4 1821.2,1928.2 1837.7,1968.4 1855.2,2008.2 1873.5,2047.4 1892.8,2086.0 1912.7,2124.0 1933.4,2161.4 1954.7,2198.0 1976.6,2233.9 1999.0,2269.1  " style="stroke-opacity: 1.000000; stroke-width: 5.0; stroke: rgb(251,106,74); fill: none"  />
<path d="M 1867.0,659.9 L 1851.5,694.2 1835.1,728.2 1817.9,761.7 1799.8,794.6 1780.7,826.7 1760.8,857.8 1740.1,887.8 1718.5,916.5 1696.1,943.9 1672.9,969.7 1648.9,994.0 1624.2,1016.5 1598.7,1037.2 1572.5,1056.1 1545.6,1073.0 1518.1,1088.0 1490.0,1100.8 1461.3,1111.6 1432.1,1120.3 1402.4,1126.8 1372.2,1131.2 1341.6,1133.5 1310.7,1133.6 1279.5,1131.6 1248.0,1127.5 1216.3,1121.3 1184.4,1113.2 1152.5,1103.1 1120.6,1091.2 1088.7,1077.5 1056.8,1062.1 1025.2,1045.0 993.8,1026.5 962.7,1006.6 932.0,985.5 901.7,963.2 872.0,940.0 842.8,916.0 814.4,891.4  " style="stroke-opacity: 1.000000; stroke-width: 5.0; stroke: rgb(251,106,74); fill: none"  />
<path d="M 1867.0,659.9 L 1852.0,693.2 1836.4,726.1 1820.2,758.4 1803.3,790.0 1785.8,820.5 1767.7,849.9 1749.1,878.0 1730.0,904.6 1710.4,929.5 1690.3,952.7 1669.9,974.0 1649.0,993.3 1627.9,1010.5 1606.4,1025.6 1584.6,1038.3 1562.5,1048.8 1540.3,1056.9 1517.9,1062.6 1495.3,1065.9 1472.6,1066.7 1449.9,1065.1 1427.1,1061.1 1404.3,1054.7 1381.6,1045.8 1358.9,1034.7 1336.3,1021.3 1313.9,1005.7 1291.7,988.0 1269.8,968.3 1248.1,946.6 1226.7,923.2 1205.7,898.1 1185.0,871.5 1164.8,843.5 1145.1,814.3 1126.0,784.1 1107.3,753.0 1089.3,721.4 1072.0,689.3  " style="stroke-opacity: 1.000000; stroke-width: 5.0; stroke: rgb(251,106,74); fill: none"  />
<path d="M 1867.0,659.9 L 1848.9,701.7 1830.9,743.7 1813.1,786.1 1795.5,828.7 1778.1,871.5 1760.9,914.6 1744.0,958.0 1727.3,1001.6 1710.8,1045.3 1694.7,1089.4 1678.8,1133.6 1663.2,1178.0 1647.9,1222.6 1632.9,1267.3 1618.3,1312.2 1604.0,1357.3 1590.0,1402.5 1576.3,1447.8 1563.0,1493.3 1550.0,1538.9 1537.4,1584.5 1525.2,1630.3 1513.3,1676.1 1501.7,1721.9 1490.5,1767.8 1479.7,1813.8 1469.2,1859.7 1459.1,1905.7 1449.3,1951.6 1439.9,1997.5 1430.8,2043.4 1422.1,2089.3 1413.7,2135.0 1405.6,2180.7 1397.8,2226.3 1390.4,2271.8 1383.2,2317.2 1376.3,2362.4 1369.8,2407.5  " style="stroke-opacity: 1.000000; stroke-width: 5.0; stroke: rgb(251,106,74); fill: none"  />
<path d="M 1059.2,2303.8 L 1077.1,2272.0 1095.6,2240.6 1114.7,2209.9 1134.3,2180.0 1154.5,2151.1 1175.1,2123.5 1196.2,2097.2 1217.6,2072.4 1239.3,2049.3 1261.4,2028.0 1283.7,2008.6 1306.1,1991.3 1328.8,1976.0 1351.5,1963.0 1374.4,1952.2 1397.3,1943.8 1420.1,1937.7 1443.0,1934.0 1465.8,1932.8 1488.4,1934.0 1510.9,1937.6 1533.3,1943.7 1555.4,1952.1 1577.3,1962.9 1598.8,1976.1 1620.1,1991.4 1641.0,2009.0 1661.5,2028.6 1681.6,2050.2 1701.3,2073.7 1720.5,2099.0 1739.2,2125.9 1757.4,2154.2 1775.0,2183.9 1792.0,2214.8 1808.4,2246.6 1824.1,2279.1 1839.2,2312.3 1853.6,2345.8  " style="stroke-opacity: 1.000000; stroke-width: 5.0; stroke: rgb(251,106,74); fill: none"  />
<path d="M 1059.2,2303.8 L 1076.8,2272.4 1094.9,2241.4 1113.4,2211.0 1132.4,2181.5 1151.6,2153.1 1171.1,2125.9 1190.9,2100.1 1210.8,2075.9 1230.8,2053.4 1250.8,2032.8 1270.9,2014.2 1290.9,1997.6 1310.9,1983.3 1330.7,1971.2 1350.3,1961.5 1369.8,1954.1 1389.0,1949.2 1407.9,1946.9 1426.5,1947.0 1444.8,1949.6 1462.7,1954.7 1480.2,1962.3 1497.2,1972.4 1513.8,1984.9 1529.9,1999.8 1545.6,2017.0 1560.7,2036.3 1575.2,2057.8 1589.2,2081.4 1602.7,2106.8 1615.6,2134.0 1627.9,2162.8 1639.5,2193.1 1650.6,2224.7 1661.1,2257.4 1671.0,2291.0 1680.2,2325.4 1688.9,2360.2 1696.9,2395.4  " style="stroke-opacity: 1.000000; stroke-width: 5.0; stroke: rgb(251,106,74); fill: none"  />
<path d="M 2011.1,738.9 L 1990.4,769.0 1969.2,798.6 1947.4,827.5 1925.2,855.5 1902.5,882.5 1879.5,908.2 1856.1,932.5 1832.6,955.2 1808.9,976.3 1785.0,995.5 1761.1,1012.8 1737.1,1028.1 1713.2,1041.2 1689.4,1052.2 1665.7,1060.9 1642.1,1067.2 1618.8,1071.2 1595.7,1072.8 1572.9,1072.0 1550.4,1068.8 1528.3,1063.2 1506.6,1055.1 1485.4,1044.7 1464.6,1032.0 1444.2,1017.0 1424.4,999.8 1405.2,980.4 1386.5,959.0 1368.4,935.7 1350.9,910.5 1334.1,883.7 1317.9,855.2 1302.3,825.3 1287.5,794.2 1273.3,761.9 1259.8,728.8 1247.0,694.9 1235.0,660.6 1223.6,625.9  " style="stroke-opacity: 1.000000; stroke-width: 5.0; stroke: rgb(251,106,74); fill: none"  />
<path d="M 922.8,2212.2 L 945.4,2184.6 968.3,2157.5 991.4,2131.1 1014.5,2105.6 1037.6,2081.1 1060.5,2057.9 1083.1,2036.0 1105.4,2015.8 1127.3,1997.2 1148.6,1980.4 1169.3,1965.6 1189.4,1952.8 1208.7,1942.1 1227.2,1933.6 1244.9,1927.3 1261.7,1923.4 1277.6,1921.9 1292.4,1922.7 1306.3,1925.9 1319.2,1931.5 1330.9,1939.5 1341.7,1949.9 1351.3,1962.6 1359.8,1977.5 1367.3,1994.8 1373.6,2014.1 1378.9,2035.6 1383.2,2059.0 1386.4,2084.3 1388.5,2111.3 1389.7,2140.0 1390.0,2170.1 1389.4,2201.5 1387.9,2234.1 1385.6,2267.7 1382.6,2302.0 1378.9,2336.9 1374.6,2372.1 1369.8,2407.5  " style="stroke-opacity: 1.000000; stroke-width: 5.0; stroke: rgb(251,106,74); fill: none"  />
<path d="M 1696.9,2395.4 L 1687.5,2351.8 1678.5,2307.9 1669.9,2263.6 1661.6,2219.0 1653.8,2174.1 1646.4,2128.9 1639.4,2083.4 1633.0,2037.7 1627.1,1991.8 1621.7,1945.6 1616.8,1899.3 1612.4,1852.8 1608.7,1806.2 1605.5,1759.4 1602.9,1712.5 1600.8,1665.5 1599.4,1618.5 1598.6,1571.4 1598.3,1524.3 1598.7,1477.2 1599.7,1430.1 1601.3,1383.1 1603.4,1336.1 1606.2,1289.1 1609.6,1242.3 1613.5,1195.6 1618.0,1149.0 1623.1,1102.6 1628.7,1056.3 1634.8,1010.3 1641.5,964.4 1648.7,918.8 1656.3,873.5 1664.4,828.4 1673.0,783.6 1681.9,739.2 1691.3,695.1 1701.0,651.3 1711.1,607.9  " style="stroke-opacity: 1.000000; stroke-width: 5.0; stroke: rgb(251,106,74); fill: none"  />
<path d="M 1696.9,2395.4 L 1688.9,2360.2 1680.2,2325.4 1671.0,2291.0 1661.1,2257.4 1650.6,2224.7 1639.5,2193.1 1627.9,2162.8 1615.6,2134.0 1602.7,2106.8 1589.2,2081.4 1575.2,2057.8 1560.7,2036.3 1545.6,2017.0 1529.9,1999.8 1513.8,1984.9 1497.2,1972.4 1480.2,1962.3 1462.7,1954.7 1444.8,1949.6 1426.5,1947.0 1407.9,1946.9 1389.0,1949.2 1369.8,1954.1 1350.3,1961.5 1330.7,1971.2 1310.9,1983.3 1290.9,1997.6 1270.9,2014.2 1250.8,2032.8 1230.8,2053.4 1210.8,2075.9 1190.9,2100.1 1171.1,2125.9 1151.6,2153.1 1132.4,2181.5 1113.4,2211.0 1094.9,2241.4 1076.8,2272.4 1059.2,2303.8  " style="stroke-opacity: 1.000000; stroke-width: 5.0; stroke: rgb(251,106,74); fill: none"  />
<path d="M 1696.9,2395.4 L 1688.6,2359.3 1679.4,2323.4 1669.3,2287.9 1658.3,2253.0 1646.4,2218.8 1633.6,2185.5 1619.8,2153.3 1605.1,2122.3 1589.5,2092.7 1572.9,2064.5 1555.3,2038.0 1536.8,2013.2 1517.4,1990.2 1497.1,1969.1 1475.8,1950.0 1453.7,1932.9 1430.8,1918.0 1407.0,1905.1 1382.4,1894.5 1357.1,1886.0 1331.1,1879.8 1304.3,1875.8 1277.0,1874.0 1249.1,1874.3 1220.6,1876.9 1191.7,1881.5 1162.4,1888.2 1132.7,1897.0 1102.7,1907.6 1072.5,1920.2 1042.2,1934.4 1011.9,1950.4 981.5,1967.9 951.3,1986.8 921.2,2007.0 891.5,2028.4 862.1,2050.7 833.2,2073.9 804.9,2097.7  " style="stroke-opacity: 1.000000; stroke-width: 5.0; stroke: rgb(251,106,74); fill: none"  />
<path d="M 1696.9,2395.4 L 1688.4,2358.7 1679.0,2322.2 1668.5,2285.9 1657.1,2250.1 1644.7,2215.0 1631.2,2180.6 1616.7,2147.2 1601.1,2114.8 1584.4,2083.6 1566.7,2053.7 1547.8,2025.3 1527.9,1998.4 1507.0,1973.1 1484.9,1949.5 1461.9,1927.7 1437.8,1907.7 1412.7,1889.6 1386.6,1873.5 1359.7,1859.3 1331.8,1847.1 1303.0,1837.0 1273.5,1828.8 1243.2,1822.7 1212.1,1818.6 1180.5,1816.5 1148.2,1816.4 1115.4,1818.2 1082.1,1821.9 1048.4,1827.4 1014.5,1834.6 980.3,1843.6 945.9,1854.2 911.5,1866.2 877.1,1879.7 842.9,1894.5 808.9,1910.4 775.2,1927.4 742.0,1945.3 709.3,1964.0  " style="stroke-opacity: 1.000000; stroke-width: 5.0; stroke: rgb(251,106,74); fill: none"  />
<path d="M 2138.8,842.4 L 2107.9,874.5 2077.1,907.1 2046.4,940.2 2015.9,973.8 1985.6,1007.8 1955.5,1042.3 1925.7,1077.4 1896.2,1112.8 1866.9,1148.8 1838.0,1185.2 1809.5,1222.0 1781.3,1259.2 1753.6,1296.9 1726.2,1335.0 1699.3,1373.5 1672.9,1412.3 1646.9,1451.6 1621.4,1491.2 1596.4,1531.1 1571.9,1571.3 1548.0,1611.9 1524.6,1652.7 1501.7,1693.8 1479.3,1735.2 1457.5,1776.8 1436.3,1818.6 1415.6,1860.5 1395.4,1902.7 1375.9,1945.0 1356.8,1987.3 1338.4,2029.8 1320.5,2072.4 1303.1,2115.0 1286.2,2157.5 1269.9,2200.1 1254.2,2242.6 1238.9,2285.1 1224.1,2327.4 1209.8,2369.6  " style="stroke-opacity: 1.000000; stroke-width: 5.0; stroke: rgb(251,106,74); fill: none"  />
<path d="M 1072.0,689.3 L 1089.3,721.4 1107.3,753.0 1126.0,784.1 1145.1,814.3 1164.8,843.5 1185.0,871.5 1205.7,898.1 1226.7,923.2 1248.1,946.6 1269.8,968.3 1291.7,988.0 1313.9,1005.7 1336.3,1021.3 1358.9,1034.7 1381.6,1045.8 1404.3,1054.7 1427.1,1061.1 1449.9,1065.1 1472.6,1066.7 1495.3,1065.9 1517.9,1062.6 1540.3,1056.9 1562.5,1048.8 1584.6,1038.3 1606.4,1025.6 1627.9,1010.5 1649.0,993.3 1669.9,974.0 1690.3,952.7 1710.4,929.5 1730.0,904.6 1749.1,878.0 1767.7,849.9 1785.8,820.5 1803.3,790.0 1820.2,758.4 1836.4,726.1 1852.0,693.2 1867.0,659.9  " style="stroke-opacity: 1.000000; stroke-width: 5.0; stroke: rgb(251,106,74); fill: none"  />
<path d="M 804.9,2097.7 L 833.2,2073.9 862.1,2050.7 891.5,2028.4 921.2,2007.0 951.3,1986.8 981.5,1967.9 1011.9,1950.4 1042.2,1934.4 1072.5,1920.2 1102.7,1907.6 1132.7,1897.0 1162.4,1888.2 1191.7,1881.5 1220.6,1876.9 1249.1,1874.3 1277.0,1874.0 1304.3,1875.8 1331.1,1879.8 1357.1,1886.0 1382.4,1894.5 1407.0,1905.1 1430.8,1918.0 1453.7,1932.9 1475.8,1950.0 1497.1,1969.1 1517.4,1990.2 1536.8,2013.2 1555.3,2038.0 1572.9,2064.5 1589.5,2092.7 1605.1,2122.3 1619.8,2153.3 1633.6,2185.5 1646.4,2218.8 1658.3,2253.0 1669.3,2287.9 1679.4,2323.4 1688.6,2359.3 1696.9,2395.4  " style="stroke-opacity: 1.000000; stroke-width: 5.0; stroke: rgb(251,106,74); fill: none"  />
<path d="M 709.3,1964.0 L 741.5,1944.5 773.4,1924.3 804.6,1903.2 835.1,1881.2 864.7,1858.6 893.3,1835.1 920.6,1811.0 946.5,1786.1 971.0,1760.6 994.0,1734.5 1015.2,1707.8 1034.6,1680.6 1052.2,1652.8 1067.8,1624.6 1081.5,1595.9 1093.0,1566.8 1102.5,1537.4 1109.8,1507.6 1114.9,1477.6 1117.9,1447.3 1118.7,1416.8 1117.3,1386.2 1113.7,1355.5 1108.0,1324.7 1100.2,1293.9 1090.4,1263.2 1078.5,1232.5 1064.8,1202.0 1049.1,1171.7 1031.7,1141.6 1012.6,1111.9 992.0,1082.5 969.8,1053.5 946.4,1024.9 921.8,996.9 896.1,969.5 869.5,942.8 842.3,916.7 814.4,891.4  " style="stroke-opacity: 1.000000; stroke-width: 5.0; stroke: rgb(251,106,74); fill: none"  />
<path d="M 709.3,1964.0 L 742.0,1945.3 775.2,1927.4 808.9,1910.4 842.9,1894.5 877.1,1879.7 911.5,1866.2 945.9,1854.2 980.3,1843.6 1014.5,1834.6 1048.4,1827.4 1082.1,1821.9 1115.4,1818.2 1148.2,1816.4 1180.5,1816.5 1212.1,1818.6 1243.2,1822.7 1273.5,1828.8 1303.0,1837.0 1331.8,1847.1 1359.7,1859.3 1386.6,1873.5 1412.7,1889.6 1437.8,1907.7 1461.9,1927.7 1484.9,1949.5 1507.0,1973.1 1527.9,1998.4 1547.8,2025.3 1566.7,2053.7 1584.4,2083.6 1601.1,2114.8 1616.7,2147.2 1631.2,2180.6 1644.7,2215.0 1657.1,2250.1 1668.5,2285.9 1679.0,2322.2 1688.4,2358.7 1696.9,2395.4  " style="stroke-opacity: 1.000000; stroke-width: 5.0; stroke: rgb(251,106,74); fill: none"  />
<path d="M 2237.4,2044.7 L 2208.8,2023.8 2180.2,2003.3 2151.7,1983.4 2123.6,1964.2 2096.0,1946.0 2069.1,1928.8 2042.9,1912.7 2017.7,1898.0 1993.6,1884.6 1970.6,1872.8 1948.9,1862.6 1928.6,1854.0 1909.8,1847.1 1892.5,1842.1 1876.8,1838.9 1862.9,1837.6 1850.6,1838.2 1840.1,1840.8 1831.4,1845.3 1824.6,1851.8 1819.5,1860.2 1816.3,1870.5 1815.0,1882.7 1815.4,1896.7 1817.7,1912.5 1821.6,1930.1 1827.3,1949.3 1834.6,1970.1 1843.6,1992.4 1854.0,2016.0 1865.8,2040.9 1879.0,2067.0 1893.5,2094.1 1909.0,2122.0 1925.5,2150.7 1943.0,2179.9 1961.1,2209.5 1979.8,2239.3 1999.0,2269.1  " style="stroke-opacity: 1.000000; stroke-width: 5.0; stroke: rgb(251,106,74); fill: none"  />
<path d="M 1533.9,2416.1 L 1532.3,2370.6 1531.0,2324.9 1529.9,2279.0 1529.2,2232.9 1528.7,2186.7 1528.5,2140.3 1528.6,2093.7 1529.0,2047.1 1529.7,2000.3 1530.8,1953.4 1532.2,1906.5 1534.0,1859.4 1536.1,1812.3 1538.5,1765.2 1541.3,1718.0 1544.5,1670.9 1548.0,1623.7 1551.9,1576.5 1556.2,1529.3 1560.8,1482.2 1565.8,1435.1 1571.1,1388.0 1576.8,1341.0 1582.9,1294.1 1589.3,1247.3 1596.0,1200.6 1603.1,1154.0 1610.5,1107.5 1618.2,1061.2 1626.3,1015.0 1634.6,969.0 1643.3,923.1 1652.2,877.5 1661.4,832.0 1670.9,786.7 1680.6,741.6 1690.5,696.8 1700.7,652.2 1711.1,607.9  " style="stroke-opacity: 1.000000; stroke-width: 5.0; stroke: rgb(251,106,74); fill: none"  />
<path d="M 1533.9,2416.1 L 1532.7,2374.5 1532.4,2332.4 1532.9,2290.0 1534.2,2247.4 1536.6,2204.5 1539.9,2161.5 1544.2,2118.4 1549.6,2075.3 1556.1,2032.3 1563.7,1989.3 1572.5,1946.5 1582.4,1903.9 1593.5,1861.5 1605.7,1819.5 1619.2,1777.8 1633.8,1736.4 1649.6,1695.5 1666.6,1655.1 1684.8,1615.2 1704.1,1575.9 1724.6,1537.1 1746.2,1498.9 1768.9,1461.4 1792.7,1424.6 1817.5,1388.5 1843.3,1353.1 1870.1,1318.4 1897.8,1284.6 1926.3,1251.5 1955.7,1219.2 1985.8,1187.7 2016.6,1157.1 2048.0,1127.4 2080.1,1098.5 2112.6,1070.4 2145.5,1043.3 2178.7,1017.0 2212.2,991.6 2245.9,967.0  " style="stroke-opacity: 1.000000; stroke-width: 5.0; stroke: rgb(251,106,74); fill: none"  />
<path d="M 1369.8,2407.5 L 1376.3,2362.4 1383.2,2317.2 1390.4,2271.8 1397.8,2226.3 1405.6,2180.7 1413.7,2135.0 1422.1,2089.3 1430.8,2043.4 1439.9,1997.5 1449.3,1951.6 1459.1,1905.7 1469.2,1859.7 1479.7,1813.8 1490.5,1767.8 1501.7,1721.9 1513.3,1676.1 1525.2,1630.3 1537.4,1584.5 1550.0,1538.9 1563.0,1493.3 1576.3,1447.8 1590.0,1402.5 1604.0,1357.3 1618.3,1312.2 1632.9,1267.3 1647.9,1222.6 1663.2,1178.0 1678.8,1133.6 1694.7,1089.4 1710.8,1045.3 1727.3,1001.6 1744.0,958.0 1760.9,914.6 1778.1,871.5 1795.5,828.7 1813.1,786.1 1830.9,743.7 1848.9,701.7 1867.0,659.9  " style="stroke-opacity: 1.000000; stroke-width: 5.0; stroke: rgb(251,106,74); fill: none"  />
<path d="M 1369.8,2407.5 L 1374.6,2372.1 1378.9,2336.9 1382.6,2302.0 1385.6,2267.7 1387.9,2234.1 1389.4,2201.5 1390.0,2170.1 1389.7,2140.0 1388.5,2111.3 1386.4,2084.3 1383.2,2059.0 1378.9,2035.6 1373.6,2014.1 1367.3,1994.8 1359.8,1977.5 1351.3,1962.6 1341.7,1949.9 1330.9,1939.5 1319.2,1931.5 1306.3,1925.9 1292.4,1922.7 1277.6,1921.9 1261.7,1923.4 1244.9,1927.3 1227.2,1933.6 1208.7,1942.1 1189.4,1952.8 1169.3,1965.6 1148.6,1980.4 1127.3,1997.2 1105.4,2015.8 1083.1,2036.0 1060.5,2057.9 1037.6,2081.1 1014.5,2105.6 991.4,2131.1 968.3,2157.5 945.4,2184.6 922.8,2212.2  " style="stroke-opacity: 1.000000; stroke-width: 5.0; stroke: rgb(251,106,74); fill: none"  />
<path d="M 1223.6,625.9 L 1237.5,669.3 1251.6,712.8 1266.1,756.4 1280.8,800.0 1295.9,843.7 1311.4,887.5 1327.1,931.3 1343.2,975.1 1359.6,1018.9 1376.4,1062.7 1393.6,1106.4 1411.0,1150.1 1428.9,1193.7 1447.0,1237.3 1465.5,1280.8 1484.4,1324.1 1503.6,1367.4 1523.2,1410.5 1543.0,1453.5 1563.2,1496.3 1583.8,1539.0 1604.7,1581.5 1625.8,1623.9 1647.3,1666.0 1669.1,1707.9 1691.2,1749.6 1713.5,1791.1 1736.1,1832.4 1759.0,1873.4 1782.1,1914.2 1805.5,1954.7 1829.0,1995.0 1852.8,2035.0 1876.8,2074.8 1900.9,2114.2 1925.3,2153.4 1949.7,2192.2 1974.3,2230.8 1999.0,2269.1  " style="stroke-opacity: 1.000000; stroke-width: 5.0; stroke: rgb(251,106,74); fill: none"  />
<path d="M 1223.6,625.9 L 1235.0,660.6 1247.0,694.9 1259.8,728.8 1273.3,761.9 1287.5,794.2 1302.3,825.3 1317.9,855.2 1334.1,883.7 1350.9,910.5 1368.4,935.7 1386.5,959.0 1405.2,980.4 1424.4,999.8 1444.2,1017.0 1464.6,1032.0 1485.4,1044.7 1506.6,1055.1 1528.3,1063.2 1550.4,1068.8 1572.9,1072.0 1595.7,1072.8 1618.8,1071.2 1642.1,1067.2 1665.7,1060.9 1689.4,1052.2 1713.2,1041.2 1737.1,1028.1 1761.1,1012.8 1785.0,995.5 1808.9,976.3 1832.6,955.2 1856.1,932.5 1879.5,908.2 1902.5,882.5 1925.2,855.5 1947.4,827.5 1969.2,798.6 1990.4,769.0 2011.1,738.9  " style="stroke-opacity: 1.000000; stroke-width: 5.0; stroke: rgb(251,106,74); fill: none"  />
<path d="M 1223.6,625.9 L 1235.4,661.6 1248.1,697.2 1261.7,732.3 1276.3,767.0 1291.8,800.9 1308.3,833.9 1325.8,865.9 1344.2,896.7 1363.6,926.3 1384.0,954.5 1405.3,981.1 1427.5,1006.1 1450.7,1029.4 1474.7,1050.9 1499.6,1070.6 1525.4,1088.3 1552.0,1104.1 1579.4,1117.9 1607.6,1129.6 1636.4,1139.2 1666.0,1146.7 1696.1,1152.2 1726.9,1155.6 1758.1,1156.9 1789.9,1156.1 1822.1,1153.4 1854.6,1148.6 1887.4,1142.0 1920.4,1133.5 1953.6,1123.2 1986.8,1111.2 2020.1,1097.6 2053.3,1082.5 2086.3,1066.0 2119.1,1048.2 2151.5,1029.3 2183.6,1009.3 2215.0,988.5 2245.9,967.0  " style="stroke-opacity: 1.000000; stroke-width: 5.0; stroke: rgb(251,106,74); fill: none"  />
<path d="M 2245.9,967.0 L 2212.2,991.6 2178.7,1017.0 2145.5,1043.3 2112.6,1070.4 2080.1,1098.5 2048.0,1127.4 2016.6,1157.1 1985.8,1187.7 1955.7,1219.2 1926.3,1251.5 1897.8,1284.6 1870.1,1318.4 1843.3,1353.1 1817.5,1388.5 1792.7,1424.6 1768.9,1461.4 1746.2,1498.9 1724.6,1537.1 1704.1,1575.9 1684.8,1615.2 1666.6,1655.1 1649.6,1695.5 1633.8,1736.4 1619.2,1777.8 1605.7,1819.5 1593.5,1861.5 1582.4,1903.9 1572.5,1946.5 1563.7,1989.3 1556.1,2032.3 1549.6,2075.3 1544.2,2118.4 1539.9,2161.5 1536.6,2204.5 1534.2,2247.4 1532.9,2290.0 1532.4,2332.4 1532.7,2374.5 1533.9,2416.1  " style="stroke-opacity: 1.000000; stroke-width: 5.0; stroke: rgb(251,106,74); fill: none"  />
<path d="M 2245.9,967.0 L 2215.0,988.5 2183.6,1009.3 2151.5,1029.3 2119.1,1048.2 2086.3,1066.0 2053.3,1082.5 2020.1,1097.6 1986.8,1111.2 1953.6,1123.2 1920.4,1133.5 1887.4,1142.0 1854.6,1148.6 1822.1,1153.4 1789.9,1156.1 1758.1,1156.9 1726.9,1155.6 1696.1,1152.2 1666.0,1146.7 1636.4,1139.2 1607.6,1129.6 1579.4,1117.9 1552.0,1104.1 1525.4,1088.3 1499.6,1070.6 1474.7,1050.9 1450.7,1029.4 1427.5,1006.1 1405.3,981.1 1384.0,954.5 1363.6,926.3 1344.2,896.7 1325.8,865.9 1308.3,833.9 1291.8,800.9 1276.3,767.0 1261.7,732.3 1248.1,697.2 1235.4,661.6 1223.6,625.9  " style="stroke-opacity: 1.000000; stroke-width: 5.0; stroke: rgb(251,106,74); fill: none"  />
<path d="M 1209.8,2369.6 L 1224.5,2325.5 1239.1,2281.2 1253.7,2236.9 1268.2,2192.5 1282.6,2148.0 1297.0,2103.4 1311.2,2058.7 1325.4,2013.9 1339.5,1969.1 1353.5,1924.2 1367.4,1879.2 1381.2,1834.2 1394.9,1789.1 1408.5,1743.9 1422.0,1698.7 1435.4,1653.5 1448.7,1608.1 1461.8,1562.8 1474.9,1517.4 1487.8,1472.0 1500.6,1426.5 1513.3,1381.0 1525.9,1335.5 1538.3,1290.0 1550.6,1244.5 1562.8,1198.9 1574.9,1153.4 1586.9,1107.8 1598.8,1062.2 1610.5,1016.7 1622.1,971.2 1633.6,925.6 1645.0,880.1 1656.3,834.7 1667.5,789.2 1678.5,743.8 1689.5,698.5 1700.3,653.1 1711.1,607.9  " style="stroke-opacity: 1.000000; stroke-width: 5.0; stroke: rgb(251,106,74); fill: none"  />
<path d="M 1209.8,2369.6 L 1224.1,2327.4 1238.9,2285.1 1254.2,2242.6 1269.9,2200.1 1286.2,2157.5 1303.1,2115.0 1320.5,2072.4 1338.4,2029.8 1356.8,1987.3 1375.9,1945.0 1395.4,1902.7 1415.6,1860.5 1436.3,1818.6 1457.5,1776.8 1479.3,1735.2 1501.7,1693.8 1524.6,1652.7 1548.0,1611.9 1571.9,1571.3 1596.4,1531.1 1621.4,1491.2 1646.9,1451.6 1672.9,1412.3 1699.3,1373.5 1726.2,1335.0 1753.6,1296.9 1781.3,1259.2 1809.5,1222.0 1838.0,1185.2 1866.9,1148.8 1896.2,1112.8 1925.7,1077.4 1955.5,1042.3 1985.6,1007.8 2015.9,973.8 2046.4,940.2 2077.1,907.1 2107.9,874.5 2138.8,842.4  " style="stroke-opacity: 1.000000; stroke-width: 5.0; stroke: rgb(251,106,74); fill: none"  />
</g>
<g id="track_0">
<path d="M 1999.0,2269.1 L 1979.7,2239.5 1960.4,2210.3 1941.3,2181.6 1922.4,2153.7 1903.8,2126.7 1885.7,2100.8 1868.2,2076.2 1851.3,2053.1 1835.1,2031.6 1819.8,2011.8 1805.4,1993.9 1791.9,1978.0 1779.4,1964.1 1768.0,1952.3 1757.8,1942.8 1748.7,1935.6 1740.7,1930.7 1734.1,1928.1 1728.6,1927.9 1724.4,1930.2 1721.5,1934.7 1719.8,1941.7 1719.4,1951.0 1720.3,1962.6 1722.3,1976.5 1725.6,1992.5 1730.0,2010.6 1735.6,2030.7 1742.3,2052.8 1749.9,2076.6 1758.6,2102.0 1768.2,2129.0 1778.6,2157.4 1789.7,2186.9 1801.5,2217.5 1813.9,2248.8 1826.8,2280.8 1840.1,2313.2 1853.6,2345.8  " style="stroke-opacity: 1.000000; stroke-width: 5.0; stroke: rgb(107,174,214); fill: none"  />
<path d="M 1999.0,2269.1 L 1979.5,2239.4 1960.0,2210.2 1940.3,2181.6 1920.7,2153.8 1901.3,2127.0 1882.1,2101.4 1863.3,2077.2 1844.9,2054.5 1826.9,2033.5 1809.6,2014.4 1792.9,1997.2 1776.9,1982.0 1761.7,1969.0 1747.3,1958.2 1733.7,1949.7 1721.1,1943.6 1709.4,1939.9 1698.7,1938.6 1689.0,1939.8 1680.3,1943.4 1672.6,1949.5 1666.0,1958.0 1660.4,1969.0 1655.9,1982.3 1652.4,1997.9 1650.0,2015.7 1648.6,2035.7 1648.1,2057.7 1648.6,2081.7 1650.1,2107.5 1652.4,2135.0 1655.6,2164.0 1659.6,2194.4 1664.4,2226.0 1669.8,2258.7 1675.8,2292.2 1682.4,2326.3 1689.5,2360.7 1696.9,2395.4  " style="stroke-opacity: 1.000000; stroke-width: 5.0; stroke: rgb(107,174,214); fill: none"  />
<path d="M 1999.0,2269.1 L 1978.8,2238.7 1958.0,2208.8 1936.7,2179.5 1914.9,2151.1 1892.7,2123.8 1870.0,2097.8 1847.1,2073.1 1823.9,2050.0 1800.5,2028.6 1777.0,2009.0 1753.3,1991.3 1729.6,1975.6 1705.9,1962.1 1682.2,1950.8 1658.7,1941.7 1635.2,1935.0 1612.0,1930.6 1588.9,1928.6 1566.1,1929.1 1543.6,1931.9 1521.4,1937.2 1499.6,1944.9 1478.2,1955.0 1457.1,1967.4 1436.6,1982.1 1416.5,1999.0 1397.0,2018.0 1378.0,2039.1 1359.5,2062.1 1341.6,2087.0 1324.3,2113.6 1307.7,2141.8 1291.7,2171.5 1276.3,2202.4 1261.6,2234.4 1247.6,2267.3 1234.3,2301.0 1221.7,2335.1 1209.8,2369.6  " style="stroke-opacity: 1.000000; stroke-width: 5.0; stroke: rgb(107,174,214); fill: none"  />
<path d="M 1548.4,584.5 L 1546.7,619.9 1545.3,655.1 1544.4,689.8 1543.9,723.8 1543.9,756.9 1544.3,788.8 1545.4,819.5 1546.9,848.7 1549.1,876.2 1551.9,901.9 1555.3,925.6 1559.3,947.3 1564.0,966.8 1569.3,984.0 1575.2,998.8 1581.9,1011.2 1589.1,1021.0 1597.1,1028.4 1605.6,1033.1 1614.8,1035.3 1624.6,1034.9 1634.9,1031.9 1645.9,1026.3 1657.3,1018.2 1669.3,1007.6 1681.8,994.6 1694.7,979.3 1708.0,961.7 1721.6,942.0 1735.6,920.3 1749.9,896.7 1764.4,871.3 1779.0,844.4 1793.8,816.0 1808.6,786.4 1823.4,755.8 1838.1,724.3 1852.6,692.3 1867.0,659.9  " style="stroke-opacity: 1.000000; stroke-width: 5.0; stroke: rgb(107,174,214); fill: none"  />
<path d="M 1548.4,584.5 L 1546.8,621.0 1546.0,657.4 1546.1,693.6 1547.1,729.3 1549.0,764.5 1552.0,798.9 1556.1,832.3 1561.2,864.7 1567.6,895.7 1575.1,925.4 1583.8,953.7 1593.8,980.2 1605.0,1005.1 1617.5,1028.2 1631.3,1049.4 1646.3,1068.6 1662.5,1085.8 1680.0,1101.0 1698.7,1114.0 1718.6,1124.9 1739.7,1133.7 1761.9,1140.3 1785.1,1144.8 1809.4,1147.1 1834.6,1147.3 1860.8,1145.4 1887.8,1141.5 1915.6,1135.6 1944.1,1127.8 1973.2,1118.2 2002.8,1106.8 2032.8,1093.8 2063.2,1079.2 2093.8,1063.3 2124.5,1046.0 2155.2,1027.6 2185.7,1008.2 2216.0,987.9 2245.9,967.0  " style="stroke-opacity: 1.000000; stroke-width: 5.0; stroke: rgb(107,174,214); fill: none"  />
<path d="M 1853.6,2345.8 L 1840.1,2313.2 1826.8,2280.8 1813.9,2248.8 1801.5,2217.5 1789.7,2186.9 1778.6,2157.4 1768.2,2129.0 1758.6,2102.0 1749.9,2076.6 1742.3,2052.8 1735.6,2030.7 1730.0,2010.6 1725.6,1992.5 1722.3,1976.5 1720.3,1962.6 1719.4,1951.0 1719.8,1941.7 1721.5,1934.7 1724.4,1930.2 1728.6,1927.9 1734.1,1928.1 1740.7,1930.7 1748.7,1935.6 1757.8,1942.8 1768.0,1952.3 1779.4,1964.1 1791.9,1978.0 1805.4,1993.9 1819.8,2011.8 1835.1,2031.6 1851.3,2053.1 1868.2,2076.2 1885.7,2100.8 1903.8,2126.7 1922.4,2153.7 1941.3,2181.6 1960.4,2210.3 1979.7,2239.5 1999.0,2269.1  " style="stroke-opacity: 1.000000; stroke-width: 5.0; stroke: rgb(107,174,214); fill: none"  />
<path d="M 1853.6,2345.8 L 1839.9,2313.3 1826.2,2281.1 1812.5,2249.5 1798.9,2218.6 1785.4,2188.7 1772.2,2160.0 1759.4,2132.7 1746.9,2106.9 1734.8,2082.9 1723.3,2060.7 1712.3,2040.5 1701.8,2022.4 1692.1,2006.5 1683.0,1992.9 1674.6,1981.7 1666.9,1973.0 1660.0,1966.7 1653.9,1963.0 1648.5,1961.9 1644.0,1963.3 1640.3,1967.3 1637.4,1973.9 1635.4,1982.9 1634.1,1994.5 1633.7,2008.5 1634.0,2024.9 1635.2,2043.5 1637.1,2064.3 1639.7,2087.1 1643.0,2111.9 1646.9,2138.5 1651.5,2166.8 1656.7,2196.5 1662.4,2227.6 1668.6,2259.8 1675.2,2292.9 1682.2,2326.6 1689.4,2360.9 1696.9,2395.4  " style="stroke-opacity: 1.000000; stroke-width: 5.0; stroke: rgb(107,174,214); fill: none"  />
<path d="M 1853.6,2345.8 L 1839.4,2312.7 1824.7,2279.9 1809.5,2247.8 1793.8,2216.5 1777.6,2186.2 1761.1,2157.0 1744.1,2129.3 1726.9,2103.2 1709.4,2078.7 1691.6,2056.1 1673.6,2035.4 1655.5,2016.9 1637.1,2000.5 1618.7,1986.4 1600.2,1974.7 1581.6,1965.3 1563.0,1958.4 1544.5,1954.1 1526.0,1952.2 1507.5,1952.9 1489.2,1956.1 1471.0,1961.8 1453.0,1970.1 1435.1,1980.8 1417.6,1993.9 1400.2,2009.3 1383.1,2027.0 1366.4,2046.8 1350.0,2068.7 1333.9,2092.6 1318.3,2118.3 1303.0,2145.6 1288.2,2174.5 1273.8,2204.8 1260.0,2236.2 1246.6,2268.6 1233.8,2301.8 1221.5,2335.5 1209.8,2369.6  " style="stroke-opacity: 1.000000; stroke-width: 5.0; stroke: rgb(107,174,214); fill: none"  />
<path d="M 814.4,891.4 L 841.0,914.8 867.7,937.8 894.2,960.1 920.5,981.7 946.3,1002.4 971.6,1021.9 996.2,1040.3 1020.0,1057.2 1042.9,1072.7 1064.7,1086.5 1085.4,1098.7 1104.8,1109.0 1123.0,1117.5 1139.7,1124.1 1155.0,1128.7 1168.9,1131.2 1181.1,1131.7 1191.8,1130.1 1200.8,1126.4 1208.3,1120.5 1214.0,1112.6 1218.1,1102.6 1220.6,1090.6 1221.4,1076.6 1220.6,1060.6 1218.2,1042.8 1214.3,1023.2 1208.8,1001.8 1202.0,978.8 1193.7,954.3 1184.1,928.5 1173.3,901.3 1161.4,873.1 1148.4,843.8 1134.5,813.8 1119.8,783.2 1104.4,752.1 1088.4,720.7 1072.0,689.3  " style="stroke-opacity: 1.000000; stroke-width: 5.0; stroke: rgb(107,174,214); fill: none"  />
<path d="M 1711.1,607.9 L 1703.0,642.2 1695.2,676.3 1687.7,710.0 1680.6,743.0 1673.9,775.1 1667.7,806.0 1662.1,835.7 1657.0,863.9 1652.6,890.4 1649.0,915.2 1646.0,938.0 1643.8,958.7 1642.3,977.3 1641.7,993.7 1641.9,1007.7 1643.0,1019.3 1644.9,1028.4 1647.7,1035.0 1651.3,1039.0 1655.8,1040.5 1661.2,1039.5 1667.4,1035.9 1674.4,1029.7 1682.2,1021.1 1690.7,1010.0 1700.1,996.6 1710.1,980.9 1720.8,962.9 1732.1,942.9 1744.0,920.9 1756.4,897.0 1769.3,871.5 1782.6,844.4 1796.3,815.9 1810.2,786.2 1824.3,755.6 1838.5,724.2 1852.8,692.2 1867.0,659.9  " style="stroke-opacity: 1.000000; stroke-width: 5.0; stroke: rgb(107,174,214); fill: none"  />
<path d="M 1867.0,659.9 L 1852.6,692.3 1838.1,724.3 1823.4,755.8 1808.6,786.4 1793.8,816.0 1779.0,844.4 1764.4,871.3 1749.9,896.7 1735.6,920.3 1721.6,942.0 1708.0,961.7 1694.7,979.3 1681.8,994.6 1669.3,1007.6 1657.3,1018.2 1645.9,1026.3 1634.9,1031.9 1624.6,1034.9 1614.8,1035.3 1605.6,1033.1 1597.1,1028.4 1589.1,1021.0 1581.9,1011.2 1575.2,998.8 1569.3,984.0 1564.0,966.8 1559.3,947.3 1555.3,925.6 1551.9,901.9 1549.1,876.2 1546.9,848.7 1545.4,819.5 1544.3,788.8 1543.9,756.9 1543.9,723.8 1544.4,689.8 1545.3,655.1 1546.7,619.9 1548.4,584.5  " style="stroke-opacity: 1.000000; stroke-width: 5.0; stroke: rgb(107,174,214); fill: none"  />
<path d="M 1867.0,659.9 L 1852.8,692.2 1838.5,724.2 1824.3,755.6 1810.2,786.2 1796.3,815.9 1782.6,844.4 1769.3,871.5 1756.4,897.0 1744.0,920.9 1732.1,942.9 1720.8,962.9 1710.1,980.9 1700.1,996.6 1690.7,1010.0 1682.2,1021.1 1674.4,1029.7 1667.4,1035.9 1661.2,1039.5 1655.8,1040.5 1651.3,1039.0 1647.7,1035.0 1644.9,1028.4 1643.0,1019.3 1641.9,1007.7 1641.7,993.7 1642.3,977.3 1643.8,958.7 1646.0,938.0 1649.0,915.2 1652.6,890.4 1657.0,863.9 1662.1,835.7 1667.7,806.0 1673.9,775.1 1680.6,743.0 1687.7,710.0 1695.2,676.3 1703.0,642.2 1711.1,607.9  " style="stroke-opacity: 1.000000; stroke-width: 5.0; stroke: rgb(107,174,214); fill: none"  />
<path d="M 1867.0,659.9 L 1852.9,692.3 1839.2,724.4 1825.8,756.2 1812.9,787.4 1800.6,817.8 1788.9,847.1 1778.1,875.3 1768.1,902.1 1759.0,927.5 1751.0,951.1 1744.0,973.1 1738.1,993.1 1733.4,1011.2 1729.9,1027.1 1727.6,1040.9 1726.5,1052.5 1726.8,1061.8 1728.4,1068.8 1731.2,1073.5 1735.4,1075.7 1740.8,1075.6 1747.5,1073.2 1755.5,1068.4 1764.7,1061.3 1775.2,1052.0 1786.7,1040.4 1799.4,1026.7 1813.1,1011.0 1827.9,993.3 1843.5,973.8 1860.0,952.5 1877.2,929.7 1895.2,905.4 1913.7,879.8 1932.7,853.1 1952.0,825.5 1971.6,797.1 1991.3,768.2 2011.1,738.9  " style="stroke-opacity: 1.000000; stroke-width: 5.0; stroke: rgb(107,174,214); fill: none"  />
<path d="M 1059.2,2303.8 L 1076.1,2272.9 1092.7,2242.0 1108.9,2211.6 1124.5,2181.7 1139.5,2152.6 1153.7,2124.4 1167.0,2097.3 1179.4,2071.4 1190.7,2047.0 1200.8,2024.1 1209.8,2002.9 1217.4,1983.5 1223.7,1966.0 1228.7,1950.4 1232.2,1936.8 1234.3,1925.4 1234.8,1916.1 1233.9,1909.0 1231.5,1904.1 1227.6,1901.5 1222.1,1901.1 1215.2,1902.9 1206.8,1906.9 1197.0,1913.2 1185.8,1921.6 1173.2,1932.0 1159.4,1944.5 1144.3,1959.0 1128.0,1975.3 1110.7,1993.3 1092.4,2013.0 1073.2,2034.2 1053.1,2056.8 1032.4,2080.6 1011.1,2105.5 989.3,2131.3 967.3,2157.8 945.0,2184.9 922.8,2212.2  " style="stroke-opacity: 1.000000; stroke-width: 5.0; stroke: rgb(107,174,214); fill: none"  />
<path d="M 1059.2,2303.8 L 1076.1,2272.7 1092.6,2241.6 1108.5,2210.7 1123.7,2180.3 1138.1,2150.5 1151.5,2121.5 1163.9,2093.4 1175.1,2066.5 1185.1,2040.7 1193.7,2016.4 1201.0,1993.5 1206.8,1972.3 1211.0,1952.7 1213.7,1934.9 1214.7,1918.9 1214.1,1904.9 1211.9,1892.8 1207.9,1882.8 1202.3,1874.8 1195.0,1868.9 1186.0,1865.0 1175.3,1863.2 1163.1,1863.5 1149.2,1865.8 1133.8,1870.2 1117.0,1876.5 1098.7,1884.7 1079.1,1894.7 1058.2,1906.5 1036.2,1920.0 1013.1,1935.1 989.0,1951.7 964.1,1969.6 938.5,1988.8 912.4,2009.0 885.7,2030.2 858.8,2052.2 831.8,2074.7 804.9,2097.7  " style="stroke-opacity: 1.000000; stroke-width: 5.0; stroke: rgb(107,174,214); fill: none"  />
<path d="M 1059.2,2303.8 L 1076.1,2272.4 1092.5,2241.0 1108.3,2209.6 1123.2,2178.5 1137.1,2147.9 1149.9,2117.9 1161.6,2088.7 1171.9,2060.4 1180.8,2033.2 1188.3,2007.1 1194.2,1982.3 1198.5,1958.9 1201.0,1936.9 1201.9,1916.6 1201.0,1897.8 1198.2,1880.8 1193.7,1865.5 1187.3,1852.1 1179.1,1840.4 1169.0,1830.7 1157.2,1822.8 1143.5,1816.8 1128.1,1812.7 1111.0,1810.5 1092.3,1810.1 1071.9,1811.5 1050.1,1814.7 1026.8,1819.7 1002.2,1826.3 976.3,1834.5 949.3,1844.2 921.4,1855.4 892.5,1867.9 862.9,1881.6 832.7,1896.4 802.1,1912.2 771.2,1928.8 740.2,1946.1 709.3,1964.0  " style="stroke-opacity: 1.000000; stroke-width: 5.0; stroke: rgb(107,174,214); fill: none"  />
<path d="M 1059.2,2303.8 L 1076.3,2272.1 1092.7,2240.2 1108.3,2208.2 1123.0,2176.4 1136.6,2144.8 1149.1,2113.8 1160.2,2083.3 1169.9,2053.5 1178.1,2024.5 1184.7,1996.5 1189.6,1969.6 1192.8,1943.8 1194.2,1919.3 1193.7,1896.1 1191.4,1874.3 1187.1,1853.9 1180.9,1835.1 1172.7,1817.9 1162.6,1802.2 1150.6,1788.3 1136.7,1775.9 1120.8,1765.3 1103.2,1756.3 1083.7,1749.0 1062.5,1743.4 1039.6,1739.5 1015.1,1737.2 989.2,1736.5 961.8,1737.3 933.1,1739.6 903.3,1743.4 872.4,1748.5 840.6,1755.0 808.0,1762.6 774.8,1771.3 741.1,1781.1 707.1,1791.8 673.1,1803.2 639.2,1815.3  " style="stroke-opacity: 1.000000; stroke-width: 5.0; stroke: rgb(107,174,214); fill: none"  />
<path d="M 2011.1,738.9 L 1991.3,768.2 1971.6,797.1 1952.0,825.5 1932.7,853.1 1913.7,879.8 1895.2,905.4 1877.2,929.7 1860.0,952.5 1843.5,973.8 1827.9,993.3 1813.1,1011.0 1799.4,1026.7 1786.7,1040.4 1775.2,1052.0 1764.7,1061.3 1755.5,1068.4 1747.5,1073.2 1740.8,1075.6 1735.4,1075.7 1731.2,1073.5 1728.4,1068.8 1726.8,1061.8 1726.5,1052.5 1727.6,1040.9 1729.9,1027.1 1733.4,1011.2 1738.1,993.1 1744.0,973.1 1751.0,951.1 1759.0,927.5 1768.1,902.1 1778.1,875.3 1788.9,847.1 1800.6,817.8 1812.9,787.4 1825.8,756.2 1839.2,724.4 1852.9,692.3 1867.0,659.9  " style="stroke-opacity: 1.000000; stroke-width: 5.0; stroke: rgb(107,174,214); fill: none"  />
<path d="M 2011.1,738.9 L 1991.5,768.4 1972.3,797.9 1953.7,827.2 1935.8,856.2 1918.8,884.6 1902.8,912.3 1888.0,939.1 1874.4,964.9 1862.1,989.7 1851.3,1013.1 1842.0,1035.3 1834.4,1055.9 1828.4,1075.1 1824.1,1092.5 1821.7,1108.3 1821.0,1122.4 1822.2,1134.6 1825.2,1144.9 1830.1,1153.4 1836.9,1160.0 1845.5,1164.6 1855.9,1167.3 1868.2,1168.2 1882.2,1167.1 1897.9,1164.2 1915.2,1159.4 1934.2,1152.9 1954.6,1144.6 1976.4,1134.7 1999.6,1123.2 2024.0,1110.3 2049.4,1095.9 2075.8,1080.3 2103.0,1063.5 2130.9,1045.7 2159.3,1027.0 2188.1,1007.5 2217.0,987.5 2245.9,967.0  " style="stroke-opacity: 1.000000; stroke-width: 5.0; stroke: rgb(107,174,214); fill: none"  />
<path d="M 922.8,2212.2 L 945.0,2184.9 967.3,2157.8 989.3,2131.3 1011.1,2105.5 1032.4,2080.6 1053.1,2056.8 1073.2,2034.2 1092.4,2013.0 1110.7,1993.3 1128.0,1975.3 1144.3,1959.0 1159.4,1944.5 1173.2,1932.0 1185.8,1921.6 1197.0,1913.2 1206.8,1906.9 1215.2,1902.9 1222.1,1901.1 1227.6,1901.5 1231.5,1904.1 1233.9,1909.0 1234.8,1916.1 1234.3,1925.4 1232.2,1936.8 1228.7,1950.4 1223.7,1966.0 1217.4,1983.5 1209.8,2002.9 1200.8,2024.1 1190.7,2047.0 1179.4,2071.4 1167.0,2097.3 1153.7,2124.4 1139.5,2152.6 1124.5,2181.7 1108.9,2211.6 1092.7,2242.0 1076.1,2272.9 1059.2,2303.8  " style="stroke-opacity: 1.000000; stroke-width: 5.0; stroke: rgb(107,174,214); fill: none"  />
<path d="M 922.8,2212.2 L 944.9,2184.7 966.7,2157.4 988.1,2130.3 1008.8,2103.7 1028.8,2077.7 1047.8,2052.5 1065.7,2028.2 1082.5,2005.0 1098.0,1983.0 1112.0,1962.3 1124.6,1943.0 1135.6,1925.3 1145.0,1909.1 1152.6,1894.7 1158.5,1882.0 1162.6,1871.1 1164.8,1862.0 1165.2,1854.9 1163.6,1849.7 1160.3,1846.4 1155.0,1845.0 1147.8,1845.6 1138.9,1848.1 1128.1,1852.4 1115.6,1858.7 1101.3,1866.7 1085.5,1876.6 1068.1,1888.1 1049.2,1901.2 1028.9,1915.9 1007.3,1932.0 984.6,1949.4 960.9,1968.1 936.2,1987.8 910.8,2008.5 884.8,2030.0 858.4,2052.1 831.7,2074.8 804.9,2097.7  " style="stroke-opacity: 1.000000; stroke-width: 5.0; stroke: rgb(107,174,214); fill: none"  />
<path d="M 922.8,2212.2 L 944.9,2184.6 966.7,2156.9 987.8,2129.4 1008.2,2102.2 1027.7,2075.4 1046.1,2049.3 1063.3,2023.9 1079.2,1999.3 1093.6,1975.8 1106.5,1953.4 1117.7,1932.2 1127.2,1912.3 1134.8,1893.8 1140.6,1876.8 1144.5,1861.3 1146.4,1847.4 1146.4,1835.1 1144.3,1824.5 1140.2,1815.6 1134.0,1808.5 1125.8,1803.1 1115.7,1799.4 1103.6,1797.5 1089.5,1797.3 1073.6,1798.8 1055.9,1802.0 1036.5,1806.8 1015.4,1813.2 992.7,1821.1 968.6,1830.5 943.2,1841.2 916.6,1853.2 888.9,1866.4 860.3,1880.7 830.9,1895.9 800.9,1912.0 770.6,1928.8 739.9,1946.2 709.3,1964.0  " style="stroke-opacity: 1.000000; stroke-width: 5.0; stroke: rgb(107,174,214); fill: none"  />
<path d="M 1696.9,2395.4 L 1689.5,2360.7 1682.4,2326.3 1675.8,2292.2 1669.8,2258.7 1664.4,2226.0 1659.6,2194.4 1655.6,2164.0 1652.4,2135.0 1650.1,2107.5 1648.6,2081.7 1648.1,2057.7 1648.6,2035.7 1650.0,2015.7 1652.4,1997.9 1655.9,1982.3 1660.4,1969.0 1666.0,1958.0 1672.6,1949.5 1680.3,1943.4 1689.0,1939.8 1698.7,1938.6 1709.4,1939.9 1721.1,1943.6 1733.7,1949.7 1747.3,1958.2 1761.7,1969.0 1776.9,1982.0 1792.9,1997.2 1809.6,2014.4 1826.9,2033.5 1844.9,2054.5 1863.3,2077.2 1882.1,2101.4 1901.3,2127.0 1920.7,2153.8 1940.3,2181.6 1960.0,2210.2 1979.5,2239.4 1999.0,2269.1  " style="stroke-opacity: 1.000000; stroke-width: 5.0; stroke: rgb(107,174,214); fill: none"  />
<path d="M 1696.9,2395.4 L 1689.4,2360.9 1682.2,2326.6 1675.2,2292.9 1668.6,2259.8 1662.4,2227.6 1656.7,2196.5 1651.5,2166.8 1646.9,2138.5 1643.0,2111.9 1639.7,2087.1 1637.1,2064.3 1635.2,2043.5 1634.0,2024.9 1633.7,2008.5 1634.1,1994.5 1635.4,1982.9 1637.4,1973.9 1640.3,1967.3 1644.0,1963.3 1648.5,1961.9 1653.9,1963.0 1660.0,1966.7 1666.9,1973.0 1674.6,1981.7 1683.0,1992.9 1692.1,2006.5 1701.8,2022.4 1712.3,2040.5 1723.3,2060.7 1734.8,2082.9 1746.9,2106.9 1759.4,2132.7 1772.2,2160.0 1785.4,2188.7 1798.9,2218.6 1812.5,2249.5 1826.2,2281.1 1839.9,2313.3 1853.6,2345.8  " style="stroke-opacity: 1.000000; stroke-width: 5.0; stroke: rgb(107,174,214); fill: none"  />
<path d="M 1696.9,2395.4 L 1689.0,2360.6 1680.7,2326.1 1671.9,2292.1 1662.6,2258.9 1653.0,2226.7 1642.9,2195.7 1632.5,2166.0 1621.6,2137.9 1610.4,2111.5 1598.9,2086.9 1587.0,2064.4 1574.8,2044.0 1562.3,2025.7 1549.6,2009.8 1536.6,1996.3 1523.3,1985.3 1509.8,1976.8 1496.2,1970.9 1482.3,1967.5 1468.3,1966.8 1454.2,1968.7 1440.0,1973.1 1425.7,1980.2 1411.3,1989.7 1397.0,2001.8 1382.6,2016.2 1368.3,2033.0 1354.0,2052.1 1339.8,2073.3 1325.7,2096.4 1311.8,2121.5 1298.1,2148.3 1284.5,2176.7 1271.3,2206.5 1258.3,2237.5 1245.6,2269.6 1233.3,2302.4 1221.3,2335.8 1209.8,2369.6  " style="stroke-opacity: 1.000000; stroke-width: 5.0; stroke: rgb(107,174,214); fill: none"  />
<path d="M 1072.0,689.3 L 1088.4,720.7 1104.4,752.1 1119.8,783.2 1134.5,813.8 1148.4,843.8 1161.4,873.1 1173.3,901.3 1184.1,928.5 1193.7,954.3 1202.0,978.8 1208.8,1001.8 1214.3,1023.2 1218.2,1042.8 1220.6,1060.6 1221.4,1076.6 1220.6,1090.6 1218.1,1102.6 1214.0,1112.6 1208.3,1120.5 1200.8,1126.4 1191.8,1130.1 1181.1,1131.7 1168.9,1131.2 1155.0,1128.7 1139.7,1124.1 1123.0,1117.5 1104.8,1109.0 1085.4,1098.7 1064.7,1086.5 1042.9,1072.7 1020.0,1057.2 996.2,1040.3 971.6,1021.9 946.3,1002.4 920.5,981.7 894.2,960.1 867.7,937.8 841.0,914.8 814.4,891.4  " style="stroke-opacity: 1.000000; stroke-width: 5.0; stroke: rgb(107,174,214); fill: none"  />
<path d="M 804.9,2097.7 L 831.8,2074.7 858.8,2052.2 885.7,2030.2 912.4,2009.0 938.5,1988.8 964.1,1969.6 989.0,1951.7 1013.1,1935.1 1036.2,1920.0 1058.2,1906.5 1079.1,1894.7 1098.7,1884.7 1117.0,1876.5 1133.8,1870.2 1149.2,1865.8 1163.1,1863.5 1175.3,1863.2 1186.0,1865.0 1195.0,1868.9 1202.3,1874.8 1207.9,1882.8 1211.9,1892.8 1214.1,1904.9 1214.7,1918.9 1213.7,1934.9 1211.0,1952.7 1206.8,1972.3 1201.0,1993.5 1193.7,2016.4 1185.1,2040.7 1175.1,2066.5 1163.9,2093.4 1151.5,2121.5 1138.1,2150.5 1123.7,2180.3 1108.5,2210.7 1092.6,2241.6 1076.1,2272.7 1059.2,2303.8  " style="stroke-opacity: 1.000000; stroke-width: 5.0; stroke: rgb(107,174,214); fill: none"  />
<path d="M 804.9,2097.7 L 831.7,2074.8 858.4,2052.1 884.8,2030.0 910.8,2008.5 936.2,1987.8 960.9,1968.1 984.6,1949.4 1007.3,1932.0 1028.9,1915.9 1049.2,1901.2 1068.1,1888.1 1085.5,1876.6 1101.3,1866.7 1115.6,1858.7 1128.1,1852.4 1138.9,1848.1 1147.8,1845.6 1155.0,1845.0 1160.3,1846.4 1163.6,1849.7 1165.2,1854.9 1164.8,1862.0 1162.6,1871.1 1158.5,1882.0 1152.6,1894.7 1145.0,1909.1 1135.6,1925.3 1124.6,1943.0 1112.0,1962.3 1098.0,1983.0 1082.5,2005.0 1065.7,2028.2 1047.8,2052.5 1028.8,2077.7 1008.8,2103.7 988.1,2130.3 966.7,2157.4 944.9,2184.7 922.8,2212.2  " style="stroke-opacity: 1.000000; stroke-width: 5.0; stroke: rgb(107,174,214); fill: none"  />
<path d="M 804.9,2097.7 L 831.6,2074.6 857.9,2051.6 883.8,2028.8 908.9,2006.3 933.2,1984.3 956.4,1962.9 978.4,1942.2 999.0,1922.3 1018.2,1903.4 1035.7,1885.6 1051.5,1868.9 1065.5,1853.4 1077.6,1839.2 1087.7,1826.3 1095.8,1814.9 1101.7,1804.9 1105.5,1796.4 1107.2,1789.4 1106.6,1784.0 1103.9,1780.1 1098.9,1777.8 1091.8,1777.1 1082.5,1778.0 1071.1,1780.4 1057.7,1784.3 1042.3,1789.7 1024.9,1796.5 1005.7,1804.7 984.8,1814.3 962.2,1825.1 938.1,1837.1 912.7,1850.2 886.0,1864.3 858.2,1879.3 829.5,1895.1 800.1,1911.6 770.1,1928.7 739.8,1946.2 709.3,1964.0  " style="stroke-opacity: 1.000000; stroke-width: 5.0; stroke: rgb(107,174,214); fill: none"  />
<path d="M 804.9,2097.7 L 831.6,2074.5 858.0,2051.1 883.7,2027.8 908.6,2004.7 932.6,1981.8 955.3,1959.4 976.8,1937.5 996.8,1916.2 1015.2,1895.6 1031.8,1875.8 1046.6,1857.0 1059.5,1839.1 1070.4,1822.3 1079.1,1806.5 1085.7,1792.0 1090.1,1778.6 1092.2,1766.6 1092.0,1755.8 1089.6,1746.3 1084.8,1738.2 1077.7,1731.4 1068.4,1726.0 1056.8,1721.9 1043.0,1719.2 1027.1,1717.9 1009.1,1717.9 989.1,1719.1 967.2,1721.6 943.5,1725.4 918.2,1730.3 891.2,1736.3 862.9,1743.4 833.3,1751.4 802.6,1760.3 771.0,1770.1 738.6,1780.6 705.7,1791.7 672.5,1803.3 639.2,1815.3  " style="stroke-opacity: 1.000000; stroke-width: 5.0; stroke: rgb(107,174,214); fill: none"  />
<path d="M 709.3,1964.0 L 740.2,1946.1 771.2,1928.8 802.1,1912.2 832.7,1896.4 862.9,1881.6 892.5,1867.9 921.4,1855.4 949.3,1844.2 976.3,1834.5 1002.2,1826.3 1026.8,1819.7 1050.1,1814.7 1071.9,1811.5 1092.3,1810.1 1111.0,1810.5 1128.1,1812.7 1143.5,1816.8 1157.2,1822.8 1169.0,1830.7 1179.1,1840.4 1187.3,1852.1 1193.7,1865.5 1198.2,1880.8 1201.0,1897.8 1201.9,1916.6 1201.0,1936.9 1198.5,1958.9 1194.2,1982.3 1188.3,2007.1 1180.8,2033.2 1171.9,2060.4 1161.6,2088.7 1149.9,2117.9 1137.1,2147.9 1123.2,2178.5 1108.3,2209.6 1092.5,2241.0 1076.1,2272.4 1059.2,2303.8  " style="stroke-opacity: 1.000000; stroke-width: 5.0; stroke: rgb(107,174,214); fill: none"  />
<path d="M 709.3,1964.0 L 739.9,1946.2 770.6,1928.8 800.9,1912.0 830.9,1895.9 860.3,1880.7 888.9,1866.4 916.6,1853.2 943.2,1841.2 968.6,1830.5 992.7,1821.1 1015.4,1813.2 1036.5,1806.8 1055.9,1802.0 1073.6,1798.8 1089.5,1797.3 1103.6,1797.5 1115.7,1799.4 1125.8,1803.1 1134.0,1808.5 1140.2,1815.6 1144.3,1824.5 1146.4,1835.1 1146.4,1847.4 1144.5,1861.3 1140.6,1876.8 1134.8,1893.8 1127.2,1912.3 1117.7,1932.2 1106.5,1953.4 1093.6,1975.8 1079.2,1999.3 1063.3,2023.9 1046.1,2049.3 1027.7,2075.4 1008.2,2102.2 987.8,2129.4 966.7,2156.9 944.9,2184.6 922.8,2212.2  " style="stroke-opacity: 1.000000; stroke-width: 5.0; stroke: rgb(107,174,214); fill: none"  />
<path d="M 709.3,1964.0 L 739.8,1946.2 770.1,1928.7 800.1,1911.6 829.5,1895.1 858.2,1879.3 886.0,1864.3 912.7,1850.2 938.1,1837.1 962.2,1825.1 984.8,1814.3 1005.7,1804.7 1024.9,1796.5 1042.3,1789.7 1057.7,1784.3 1071.1,1780.4 1082.5,1778.0 1091.8,1777.1 1098.9,1777.8 1103.9,1780.1 1106.6,1784.0 1107.2,1789.4 1105.5,1796.4 1101.7,1804.9 1095.8,1814.9 1087.7,1826.3 1077.6,1839.2 1065.5,1853.4 1051.5,1868.9 1035.7,1885.6 1018.2,1903.4 999.0,1922.3 978.4,1942.2 956.4,1962.9 933.2,1984.3 908.9,2006.3 883.8,2028.8 857.9,2051.6 831.6,2074.6 804.9,2097.7  " style="stroke-opacity: 1.000000; stroke-width: 5.0; stroke: rgb(107,174,214); fill: none"  />
<path d="M 709.3,1964.0 L 739.7,1946.0 769.8,1928.1 799.3,1910.2 828.0,1892.6 855.8,1875.3 882.5,1858.4 907.8,1841.9 931.7,1826.1 953.9,1810.9 974.3,1796.5 992.9,1782.9 1009.4,1770.1 1023.9,1758.3 1036.1,1747.5 1046.1,1737.6 1053.7,1728.9 1059.0,1721.2 1061.8,1714.6 1062.2,1709.2 1060.2,1704.9 1055.8,1701.8 1048.9,1699.8 1039.6,1699.0 1028.0,1699.3 1014.0,1700.7 997.9,1703.3 979.6,1706.9 959.2,1711.6 936.9,1717.2 912.8,1723.8 887.0,1731.3 859.6,1739.7 830.8,1748.8 800.8,1758.6 769.7,1769.0 737.8,1780.0 705.3,1791.5 672.3,1803.3 639.2,1815.3  " style="stroke-opacity: 1.000000; stroke-width: 5.0; stroke: rgb(107,174,214); fill: none"  />
<path d="M 2237.4,2044.7 L 2209.0,2023.8 2180.7,2003.2 2152.6,1983.1 2125.1,1963.6 2098.3,1944.8 2072.2,1927.0 2047.2,1910.1 2023.2,1894.4 2000.5,1880.0 1979.2,1866.8 1959.4,1855.1 1941.2,1844.9 1924.7,1836.3 1909.9,1829.3 1896.9,1824.0 1885.9,1820.4 1876.7,1818.6 1869.6,1818.6 1864.4,1820.3 1861.3,1823.9 1860.1,1829.2 1861.0,1836.3 1863.9,1845.2 1868.8,1855.7 1875.6,1868.0 1884.3,1881.8 1894.8,1897.2 1907.1,1914.1 1921.0,1932.4 1936.6,1952.0 1953.7,1972.8 1972.1,1994.7 1991.8,2017.6 2012.6,2041.3 2034.4,2065.8 2057.1,2090.8 2080.4,2116.2 2104.2,2141.9 2128.3,2167.6  " style="stroke-opacity: 1.000000; stroke-width: 5.0; stroke: rgb(107,174,214); fill: none"  />
<path d="M 2128.3,2167.6 L 2104.2,2141.9 2080.4,2116.2 2057.1,2090.8 2034.4,2065.8 2012.6,2041.3 1991.8,2017.6 1972.1,1994.7 1953.7,1972.8 1936.6,1952.0 1921.0,1932.4 1907.1,1914.1 1894.8,1897.2 1884.3,1881.8 1875.6,1868.0 1868.8,1855.7 1863.9,1845.2 1861.0,1836.3 1860.1,1829.2 1861.3,1823.9 1864.4,1820.3 1869.6,1818.6 1876.7,1818.6 1885.9,1820.4 1896.9,1824.0 1909.9,1829.3 1924.7,1836.3 1941.2,1844.9 1959.4,1855.1 1979.2,1866.8 2000.5,1880.0 2023.2,1894.4 2047.2,1910.1 2072.2,1927.0 2098.3,1944.8 2125.1,1963.6 2152.6,1983.1 2180.7,2003.2 2209.0,2023.8 2237.4,2044.7  " style="stroke-opacity: 1.000000; stroke-width: 5.0; stroke: rgb(107,174,214); fill: none"  />
<path d="M 2245.9,967.0 L 2216.0,987.9 2185.7,1008.2 2155.2,1027.6 2124.5,1046.0 2093.8,1063.3 2063.2,1079.2 2032.8,1093.8 2002.8,1106.8 1973.2,1118.2 1944.1,1127.8 1915.6,1135.6 1887.8,1141.5 1860.8,1145.4 1834.6,1147.3 1809.4,1147.1 1785.1,1144.8 1761.9,1140.3 1739.7,1133.7 1718.6,1124.9 1698.7,1114.0 1680.0,1101.0 1662.5,1085.8 1646.3,1068.6 1631.3,1049.4 1617.5,1028.2 1605.0,1005.1 1593.8,980.2 1583.8,953.7 1575.1,925.4 1567.6,895.7 1561.2,864.7 1556.1,832.3 1552.0,798.9 1549.0,764.5 1547.1,729.3 1546.1,693.6 1546.0,657.4 1546.8,621.0 1548.4,584.5  " style="stroke-opacity: 1.000000; stroke-width: 5.0; stroke: rgb(107,174,214); fill: none"  />
<path d="M 2245.9,967.0 L 2217.0,987.5 2188.1,1007.5 2159.3,1027.0 2130.9,1045.7 2103.0,1063.5 2075.8,1080.3 2049.4,1095.9 2024.0,1110.3 1999.6,1123.2 1976.4,1134.7 1954.6,1144.6 1934.2,1152.9 1915.2,1159.4 1897.9,1164.2 1882.2,1167.1 1868.2,1168.2 1855.9,1167.3 1845.5,1164.6 1836.9,1160.0 1830.1,1153.4 1825.2,1144.9 1822.2,1134.6 1821.0,1122.4 1821.7,1108.3 1824.1,1092.5 1828.4,1075.1 1834.4,1055.9 1842.0,1035.3 1851.3,1013.1 1862.1,989.7 1874.4,964.9 1888.0,939.1 1902.8,912.3 1918.8,884.6 1935.8,856.2 1953.7,827.2 1972.3,797.9 1991.5,768.4 2011.1,738.9  " style="stroke-opacity: 1.000000; stroke-width: 5.0; stroke: rgb(107,174,214); fill: none"  />
<path d="M 1209.8,2369.6 L 1221.7,2335.1 1234.3,2301.0 1247.6,2267.3 1261.6,2234.4 1276.3,2202.4 1291.7,2171.5 1307.7,2141.8 1324.3,2113.6 1341.6,2087.0 1359.5,2062.1 1378.0,2039.1 1397.0,2018.0 1416.5,1999.0 1436.6,1982.1 1457.1,1967.4 1478.2,1955.0 1499.6,1944.9 1521.4,1937.2 1543.6,1931.9 1566.1,1929.1 1588.9,1928.6 1612.0,1930.6 1635.2,1935.0 1658.7,1941.7 1682.2,1950.8 1705.9,1962.1 1729.6,1975.6 1753.3,1991.3 1777.0,2009.0 1800.5,2028.6 1823.9,2050.0 1847.1,2073.1 1870.0,2097.8 1892.7,2123.8 1914.9,2151.1 1936.7,2179.5 1958.0,2208.8 1978.8,2238.7 1999.0,2269.1  " style="stroke-opacity: 1.000000; stroke-width: 5.0; stroke: rgb(107,174,214); fill: none"  />
<path d="M 1209.8,2369.6 L 1221.5,2335.5 1233.8,2301.8 1246.6,2268.6 1260.0,2236.2 1273.8,2204.8 1288.2,2174.5 1303.0,2145.6 1318.3,2118.3 1333.9,2092.6 1350.0,2068.7 1366.4,2046.8 1383.1,2027.0 1400.2,2009.3 1417.6,1993.9 1435.1,1980.8 1453.0,1970.1 1471.0,1961.8 1489.2,1956.1 1507.5,1952.9 1526.0,1952.2 1544.5,1954.1 1563.0,1958.4 1581.6,1965.3 1600.2,1974.7 1618.7,1986.4 1637.1,2000.5 1655.5,2016.9 1673.6,2035.4 1691.6,2056.1 1709.4,2078.7 1726.9,2103.2 1744.1,2129.3 1761.1,2157.0 1777.6,2186.2 1793.8,2216.5 1809.5,2247.8 1824.7,2279.9 1839.4,2312.7 1853.6,2345.8  " style="stroke-opacity: 1.000000; stroke-width: 5.0; stroke: rgb(107,174,214); fill: none"  />
<path d="M 1209.8,2369.6 L 1221.3,2335.8 1233.3,2302.4 1245.6,2269.6 1258.3,2237.5 1271.3,2206.5 1284.5,2176.7 1298.1,2148.3 1311.8,2121.5 1325.7,2096.4 1339.8,2073.3 1354.0,2052.1 1368.3,2033.0 1382.6,2016.2 1397.0,2001.8 1411.3,1989.7 1425.7,1980.2 1440.0,1973.1 1454.2,1968.7 1468.3,1966.8 1482.3,1967.5 1496.2,1970.9 1509.8,1976.8 1523.3,1985.3 1536.6,1996.3 1549.6,2009.8 1562.3,2025.7 1574.8,2044.0 1587.0,2064.4 1598.9,2086.9 1610.4,2111.5 1621.6,2137.9 1632.5,2166.0 1642.9,2195.7 1653.0,2226.7 1662.6,2258.9 1671.9,2292.1 1680.7,2326.1 1689.0,2360.6 1696.9,2395.4  " style="stroke-opacity: 1.000000; stroke-width: 5.0; stroke: rgb(107,174,214); fill: none"  />
<path d="M 639.2,1815.3 L 673.1,1803.2 707.1,1791.8 741.1,1781.1 774.8,1771.3 808.0,1762.6 840.6,1755.0 872.4,1748.5 903.3,1743.4 933.1,1739.6 961.8,1737.3 989.2,1736.5 1015.1,1737.2 1039.6,1739.5 1062.5,1743.4 1083.7,1749.0 1103.2,1756.3 1120.8,1765.3 1136.7,1775.9 1150.6,1788.3 1162.6,1802.2 1172.7,1817.9 1180.9,1835.1 1187.1,1853.9 1191.4,1874.3 1193.7,1896.1 1194.2,1919.3 1192.8,1943.8 1189.6,1969.6 1184.7,1996.5 1178.1,2024.5 1169.9,2053.5 1160.2,2083.3 1149.1,2113.8 1136.6,2144.8 1123.0,2176.4 1108.3,2208.2 1092.7,2240.2 1076.3,2272.1 1059.2,2303.8  " style="stroke-opacity: 1.000000; stroke-width: 5.0; stroke: rgb(107,174,214); fill: none"  />
<path d="M 639.2,1815.3 L 672.5,1803.3 705.7,1791.7 738.6,1780.6 771.0,1770.1 802.6,1760.3 833.3,1751.4 862.9,1743.4 891.2,1736.3 918.2,1730.3 943.5,1725.4 967.2,1721.6 989.1,1719.1 1009.1,1717.9 1027.1,1717.9 1043.0,1719.2 1056.8,1721.9 1068.4,1726.0 1077.7,1731.4 1084.8,1738.2 1089.6,1746.3 1092.0,1755.8 1092.2,1766.6 1090.1,1778.6 1085.7,1792.0 1079.1,1806.5 1070.4,1822.3 1059.5,1839.1 1046.6,1857.0 1031.8,1875.8 1015.2,1895.6 996.8,1916.2 976.8,1937.5 955.3,1959.4 932.6,1981.8 908.6,2004.7 883.7,2027.8 858.0,2051.1 831.6,2074.5 804.9,2097.7  " style="stroke-opacity: 1.000000; stroke-width: 5.0; stroke: rgb(107,174,214); fill: none"  />
<path d="M 639.2,1815.3 L 672.3,1803.3 705.3,1791.5 737.8,1780.0 769.7,1769.0 800.8,1758.6 830.8,1748.8 859.6,1739.7 887.0,1731.3 912.8,1723.8 936.9,1717.2 959.2,1711.6 979.6,1706.9 997.9,1703.3 1014.0,1700.7 1028.0,1699.3 1039.6,1699.0 1048.9,1699.8 1055.8,1701.8 1060.2,1704.9 1062.2,1709.2 1061.8,1714.6 1059.0,1721.2 1053.7,1728.9 1046.1,1737.6 1036.1,1747.5 1023.9,1758.3 1009.4,1770.1 992.9,1782.9 974.3,1796.5 953.9,1810.9 931.7,1826.1 907.8,1841.9 882.5,1858.4 855.8,1875.3 828.0,1892.6 799.3,1910.2 769.8,1928.1 739.7,1946.0 709.3,1964.0  " style="stroke-opacity: 1.000000; stroke-width: 5.0; stroke: rgb(107,174,214); fill: none"  />
</g>
<defs>
<pattern id="hline" width="10" height="10" patternTransform="rotate(0 0 0)" patternUnits="userSpaceOnUse"><line x1="0" y1="0" x2="10" y2="0" style="stroke:black;stroke-width:5" /></pattern>
<pattern id="vline-sparse" width="10" height="10" patternTransform="rotate(0 0 0)" patternUnits="userSpaceOnUse"><line x1="0" y1="0" x2="0" y2="10" style="stroke:black;stroke-width:2" /></pattern>
<pattern id="hline-sparse" width="10" height="10" patternTransform="rotate(0 0 0)" patternUnits="userSpaceOnUse"><line x1="0" y1="0" x2="10" y2="0" style="stroke:black;stroke-width:2" /></pattern>
<pattern id="checker" width="10" height="10" patternTransform="rotate(45 0 0)" patternUnits="userSpaceOnUse"><line x1="0" y1="0" x2="10" y2="0" style="stroke:black;stroke-width:2" /><line x1="0" y1="0" x2="0" y2="10" style="stroke:black;stroke-width:2" /></pattern>
<pattern id="vline" width="10" height="10" patternTransform="rotate(0 0 0)" patternUnits="userSpaceOnUse"><line x1="0" y1="0" x2="0" y2="10" style="stroke:black;stroke-width:5" /></pattern>
<pattern id="checker" width="10" height="10" patternTransform="rotate(45 0 0)" patternUnits="userSpaceOnUse"><line x1="0" y1="0" x2="10" y2="0" style="stroke:black;stroke-width:5" /><line x1="0" y1="0" x2="0" y2="10" style="stroke:black;stroke-width:4" /></pattern>
</defs>
</svg>
