<?xml version="1.0" encoding="utf-8" standalone="no"?>
<!DOCTYPE svg PUBLIC "-//W3C//DTD SVG 1.1//EN" "http://www.w3.org/Graphics/SVG/1.1/DTD/svg11.dtd">
<svg width="3000px" height="3000px" version="1.1" xmlns="http://www.w3.org/2000/svg" xmlns:xlink="http://www.w3.org/1999/xlink">
<g id="bg">
<rect x="0" y="0" width="3000px" height="3000px" style="fill:rgb(255,255,255);"/>
</g>
<g id="ideograms">
<path d="M1500.000,830.000 A670.000,670.000 40.000 0,1 1570.620,833.732 L1579.053,754.178 A750.000,750.000 0.000 0,0 1500.000,750.000 Z" style="stroke-width:2.0;stroke:rgb(115,115,115);stroke-linecap:round;fill:rgb(153,204,255);" />
<text x="1568.0" y="677.8" font-size="65.0px" font-family="CMUBright-Roman" style="text-anchor:start;fill:rgb(0,0,0);" transform="rotate(273.0,1568.0,677.8)" >4-FOC</text>
<path d="M1500.000,830.000 A670.000,670.000 40.000 0,1 1570.620,833.732 L1579.053,754.178 A750.000,750.000 0.000 0,0 1500.000,750.000 Z" style="stroke-width:2.0;stroke:rgb(115,115,115);stroke-linecap:round;fill:none;" />
<path d="M1619.633,840.767 A670.000,670.000 40.000 0,1 1688.452,857.049 L1710.954,780.279 A750.000,750.000 0.000 0,0 1633.918,762.053 Z" style="stroke-width:2.0;stroke:rgb(115,115,115);stroke-linecap:round;fill:rgb(153,204,255);" />
<text x="1713.2" y="703.0" font-size="65.0px" font-family="CMUBright-Roman" style="text-anchor:start;fill:rgb(0,0,0);" transform="rotate(283.3,1713.2,703.0)" >5-FP</text>
<path d="M1619.633,840.767 A670.000,670.000 40.000 0,1 1688.452,857.049 L1710.954,780.279 A750.000,750.000 0.000 0,0 1633.918,762.053 Z" style="stroke-width:2.0;stroke:rgb(115,115,115);stroke-linecap:round;fill:none;" />
<path d="M1735.421,872.723 A670.000,670.000 40.000 0,1 1800.227,901.031 L1836.075,829.512 A750.000,750.000 0.000 0,0 1763.531,797.824 Z" style="stroke-width:2.0;stroke:rgb(115,115,115);stroke-linecap:round;fill:rgb(153,204,255);" />
<text x="1852.5" y="754.1" font-size="65.0px" font-family="CMUBright-Roman" style="text-anchor:start;fill:rgb(0,0,0);" transform="rotate(293.6,1852.5,754.1)" >6-IFG</text>
<path d="M1735.421,872.723 A670.000,670.000 40.000 0,1 1800.227,901.031 L1836.075,829.512 A750.000,750.000 0.000 0,0 1763.531,797.824 Z" style="stroke-width:2.0;stroke:rgb(115,115,115);stroke-linecap:round;fill:none;" />
<path d="M1843.643,924.839 A670.000,670.000 40.000 0,1 1902.352,964.264 L1950.394,900.296 A750.000,750.000 0.000 0,0 1884.674,856.163 Z" style="stroke-width:2.0;stroke:rgb(115,115,115);stroke-linecap:round;fill:rgb(153,204,255);" />
<text x="1979.7" y="828.8" font-size="65.0px" font-family="CMUBright-Roman" style="text-anchor:start;fill:rgb(0,0,0);" transform="rotate(303.9,1979.7,828.8)" >10-IPL</text>
<path d="M1843.643,924.839 A670.000,670.000 40.000 0,1 1902.352,964.264 L1950.394,900.296 A750.000,750.000 0.000 0,0 1884.674,856.163 Z" style="stroke-width:2.0;stroke:rgb(115,115,115);stroke-linecap:round;fill:none;" />
<path d="M1940.819,995.442 A670.000,670.000 40.000 0,1 1991.546,1044.717 L2050.238,990.354 A750.000,750.000 0.000 0,0 1993.454,935.196 Z" style="stroke-width:2.0;stroke:rgb(115,115,115);stroke-linecap:round;fill:rgb(153,204,255);" />
<text x="2092.1" y="925.6" font-size="65.0px" font-family="CMUBright-Roman" style="text-anchor:start;fill:rgb(0,0,0);" transform="rotate(314.2,2092.1,925.6)" >19-MTG</text>
<path d="M1940.819,995.442 A670.000,670.000 40.000 0,1 1991.546,1044.717 L2050.238,990.354 A750.000,750.000 0.000 0,0 1993.454,935.196 Z" style="stroke-width:2.0;stroke:rgb(115,115,115);stroke-linecap:round;fill:none;" />
<path d="M2023.827,1082.262 A670.000,670.000 40.000 0,1 2064.940,1139.802 L2132.396,1096.793 A750.000,750.000 0.000 0,0 2086.374,1032.383 Z" style="stroke-width:2.0;stroke:rgb(115,115,115);stroke-linecap:round;fill:rgb(153,204,255);" />
<text x="2184.9" y="1040.1" font-size="65.0px" font-family="CMUBright-Roman" style="text-anchor:start;fill:rgb(0,0,0);" transform="rotate(324.5,2184.9,1040.1)" >23-PP</text>
<path d="M2023.827,1082.262 A670.000,670.000 40.000 0,1 2064.940,1139.802 L2132.396,1096.793 A750.000,750.000 0.000 0,0 2086.374,1032.383 Z" style="stroke-width:2.0;stroke:rgb(115,115,115);stroke-linecap:round;fill:none;" />
<path d="M2089.999,1182.508 A670.000,670.000 40.000 0,1 2120.177,1246.465 L2194.228,1216.192 A750.000,750.000 0.000 0,0 2160.447,1144.599 Z" style="stroke-width:2.0;stroke:rgb(115,115,115);stroke-linecap:round;fill:rgb(153,204,255);" />
<text x="2255.8" y="1169.3" font-size="65.0px" font-family="CMUBright-Roman" style="text-anchor:start;fill:rgb(0,0,0);" transform="rotate(334.7,2255.8,1169.3)" >24-PP</text>
<path d="M2089.999,1182.508 A670.000,670.000 40.000 0,1 2120.177,1246.465 L2194.228,1216.192 A750.000,750.000 0.000 0,0 2160.447,1144.599 Z" style="stroke-width:2.0;stroke:rgb(115,115,115);stroke-linecap:round;fill:none;" />
<path d="M2137.208,1292.959 A670.000,670.000 40.000 0,1 2155.481,1361.276 L2233.748,1344.712 A750.000,750.000 0.000 0,0 2213.292,1268.237 Z" style="stroke-width:2.0;stroke:rgb(115,115,115);stroke-linecap:round;fill:rgb(116,196,118);" />
<text x="2303.0" y="1310.6" font-size="65.0px" font-family="CMUBright-Roman" style="text-anchor:start;fill:rgb(0,0,0);" transform="rotate(345.0,2303.0,1310.6)" >3-COC</text>
<path d="M2137.208,1292.959 A670.000,670.000 40.000 0,1 2155.481,1361.276 L2233.748,1344.712 A750.000,750.000 0.000 0,0 2213.292,1268.237 Z" style="stroke-width:2.0;stroke:rgb(115,115,115);stroke-linecap:round;fill:none;" />
<path d="M2163.936,1410.064 A670.000,670.000 40.000 0,1 2169.718,1480.546 L2249.684,1478.223 A750.000,750.000 0.000 0,0 2243.212,1399.325 Z" style="stroke-width:2.0;stroke:rgb(115,115,115);stroke-linecap:round;fill:rgb(116,196,118);" />
<text x="2323.9" y="1457.0" font-size="65.0px" font-family="CMUBright-Roman" style="text-anchor:start;fill:rgb(0,0,0);" transform="rotate(355.3,2323.9,1457.0)" >11-ITG</text>
<path d="M2163.936,1410.064 A670.000,670.000 40.000 0,1 2169.718,1480.546 L2249.684,1478.223 A750.000,750.000 0.000 0,0 2243.212,1399.325 Z" style="stroke-width:2.0;stroke:rgb(115,115,115);stroke-linecap:round;fill:none;" />
<path d="M2169.325,1530.059 A670.000,670.000 40.000 0,1 2162.429,1600.441 L2241.524,1612.434 A750.000,750.000 0.000 0,0 2249.245,1533.649 Z" style="stroke-width:2.0;stroke:rgb(115,115,115);stroke-linecap:round;fill:rgb(116,196,118);" />
<text x="2318.3" y="1604.8" font-size="65.0px" font-family="CMUBright-Roman" style="text-anchor:start;fill:rgb(0,0,0);" transform="rotate(5.6,2318.3,1604.8)" >22-ParG</text>
<path d="M2169.325,1530.059 A670.000,670.000 40.000 0,1 2162.429,1600.441 L2241.524,1612.434 A750.000,750.000 0.000 0,0 2249.245,1533.649 Z" style="stroke-width:2.0;stroke:rgb(115,115,115);stroke-linecap:round;fill:none;" />
<path d="M2153.202,1649.089 A670.000,670.000 40.000 0,1 2133.849,1717.108 L2209.532,1743.032 A750.000,750.000 0.000 0,0 2231.196,1666.891 Z" style="stroke-width:2.0;stroke:rgb(115,115,115);stroke-linecap:round;fill:rgb(116,196,118);" />
<text x="2286.6" y="1748.8" font-size="65.0px" font-family="CMUBright-Roman" style="text-anchor:start;fill:rgb(0,0,0);" transform="rotate(15.9,2286.6,1748.8)" >30-RH</text>
<path d="M2153.202,1649.089 A670.000,670.000 40.000 0,1 2133.849,1717.108 L2209.532,1743.032 A750.000,750.000 0.000 0,0 2231.196,1666.891 Z" style="stroke-width:2.0;stroke:rgb(115,115,115);stroke-linecap:round;fill:none;" />
<path d="M2116.084,1763.327 A670.000,670.000 40.000 0,1 2084.896,1826.797 L2154.734,1865.818 A750.000,750.000 0.000 0,0 2189.646,1794.769 Z" style="stroke-width:2.0;stroke:rgb(115,115,115);stroke-linecap:round;fill:rgb(116,196,118);" />
<text x="2229.3" y="1885.7" font-size="65.0px" font-family="CMUBright-Roman" style="text-anchor:start;fill:rgb(0,0,0);" transform="rotate(26.2,2229.3,1885.7)" >33-SC</text>
<path d="M2116.084,1763.327 A670.000,670.000 40.000 0,1 2084.896,1826.797 L2154.734,1865.818 A750.000,750.000 0.000 0,0 2189.646,1794.769 Z" style="stroke-width:2.0;stroke:rgb(115,115,115);stroke-linecap:round;fill:none;" />
<path d="M2059.164,1869.101 A670.000,670.000 40.000 0,1 2017.145,1925.983 L2078.893,1976.846 A750.000,750.000 0.000 0,0 2125.930,1913.173 Z" style="stroke-width:2.0;stroke:rgb(115,115,115);stroke-linecap:round;fill:rgb(153,0,204);" />
<text x="2148.7" y="2009.7" font-size="65.0px" font-family="CMUBright-Roman" style="text-anchor:start;fill:rgb(0,0,0);" transform="rotate(36.5,2148.7,2009.7)" >1-AG</text>
<path d="M2059.164,1869.101 A670.000,670.000 40.000 0,1 2017.145,1925.983 L2078.893,1976.846 A750.000,750.000 0.000 0,0 2125.930,1913.173 Z" style="stroke-width:2.0;stroke:rgb(115,115,115);stroke-linecap:round;fill:none;" />
<path d="M1984.273,1963.012 A670.000,670.000 40.000 0,1 1932.772,2011.477 L1984.446,2072.549 A750.000,750.000 0.000 0,0 2042.096,2018.297 Z" style="stroke-width:2.0;stroke:rgb(115,115,115);stroke-linecap:round;fill:rgb(153,0,204);" />
<text x="2047.3" y="2117.3" font-size="65.0px" font-family="CMUBright-Roman" style="text-anchor:start;fill:rgb(0,0,0);" transform="rotate(46.7,2047.3,2117.3)" >7-IFG</text>
<path d="M1984.273,1963.012 A670.000,670.000 40.000 0,1 1932.772,2011.477 L1984.446,2072.549 A750.000,750.000 0.000 0,0 2042.096,2018.297 Z" style="stroke-width:2.0;stroke:rgb(115,115,115);stroke-linecap:round;fill:none;" />
<path d="M1893.816,2042.041 A670.000,670.000 40.000 0,1 1834.489,2080.532 L1874.428,2149.849 A750.000,750.000 0.000 0,0 1940.839,2106.763 Z" style="stroke-width:2.0;stroke:rgb(115,115,115);stroke-linecap:round;fill:rgb(153,0,204);" />
<text x="1928.7" y="2204.9" font-size="65.0px" font-family="CMUBright-Roman" style="text-anchor:start;fill:rgb(0,0,0);" transform="rotate(57.0,1928.7,2204.9)" >9-IPL</text>
<path d="M1893.816,2042.041 A670.000,670.000 40.000 0,1 1834.489,2080.532 L1874.428,2149.849 A750.000,750.000 0.000 0,0 1940.839,2106.763 Z" style="stroke-width:2.0;stroke:rgb(115,115,115);stroke-linecap:round;fill:none;" />
<path d="M1790.702,2103.649 A670.000,670.000 40.000 0,1 1725.456,2130.928 L1752.376,2206.262 A750.000,750.000 0.000 0,0 1825.413,2175.727 Z" style="stroke-width:2.0;stroke:rgb(115,115,115);stroke-linecap:round;fill:rgb(153,0,204);" />
<text x="1796.0" y="2270.1" font-size="65.0px" font-family="CMUBright-Roman" style="text-anchor:start;fill:rgb(0,0,0);" transform="rotate(67.3,1796.0,2270.1)" >15-LVIIIb</text>
<path d="M1790.702,2103.649 A670.000,670.000 40.000 0,1 1725.456,2130.928 L1752.376,2206.262 A750.000,750.000 0.000 0,0 1825.413,2175.727 Z" style="stroke-width:2.0;stroke:rgb(115,115,115);stroke-linecap:round;fill:none;" />
<path d="M1678.245,2145.855 A670.000,670.000 40.000 0,1 1609.176,2161.045 L1622.212,2239.976 A750.000,750.000 0.000 0,0 1699.528,2222.972 Z" style="stroke-width:2.0;stroke:rgb(115,115,115);stroke-linecap:round;fill:rgb(153,0,204);" />
<text x="1653.2" y="2310.7" font-size="65.0px" font-family="CMUBright-Roman" style="text-anchor:start;fill:rgb(0,0,0);" transform="rotate(77.6,1653.2,2310.7)" >17-MFG</text>
<path d="M1678.245,2145.855 A670.000,670.000 40.000 0,1 1609.176,2161.045 L1622.212,2239.976 A750.000,750.000 0.000 0,0 1699.528,2222.972 Z" style="stroke-width:2.0;stroke:rgb(115,115,115);stroke-linecap:round;fill:none;" />
<path d="M1560.058,2167.303 A670.000,670.000 40.000 0,1 1489.388,2169.916 L1488.121,2249.906 A750.000,750.000 0.000 0,0 1567.229,2246.981 Z" style="stroke-width:2.0;stroke:rgb(115,115,115);stroke-linecap:round;fill:rgb(153,0,204);" />
<text x="1506.0" y="2325.0" font-size="65.0px" font-family="CMUBright-Roman" style="text-anchor:start;fill:rgb(0,0,0);" transform="rotate(87.9,1506.0,2325.0)" >18-MTG</text>
<path d="M1560.058,2167.303 A670.000,670.000 40.000 0,1 1489.388,2169.916 L1488.121,2249.906 A750.000,750.000 0.000 0,0 1567.229,2246.981 Z" style="stroke-width:2.0;stroke:rgb(115,115,115);stroke-linecap:round;fill:none;" />
<path d="M1439.942,2167.303 A670.000,670.000 40.000 0,1 1369.940,2157.255 L1354.411,2235.733 A750.000,750.000 0.000 0,0 1432.771,2246.981 Z" style="stroke-width:2.0;stroke:rgb(115,115,115);stroke-linecap:round;fill:rgb(153,0,204);" />
<text x="1407.1" y="2319.8" font-size="65.0px" font-family="CMUBright-Roman" style="text-anchor:end;fill:rgb(0,0,0);" transform="rotate(-81.8,1407.1,2319.8)" >34-SG</text>
<path d="M1439.942,2167.303 A670.000,670.000 40.000 0,1 1369.940,2157.255 L1354.411,2235.733 A750.000,750.000 0.000 0,0 1432.771,2246.981 Z" style="stroke-width:2.0;stroke:rgb(115,115,115);stroke-linecap:round;fill:none;" />
<path d="M1321.755,2145.855 A670.000,670.000 40.000 0,1 1254.673,2123.470 L1225.380,2197.914 A750.000,750.000 0.000 0,0 1300.472,2222.972 Z" style="stroke-width:2.0;stroke:rgb(115,115,115);stroke-linecap:round;fill:rgb(253,208,162);" />
<text x="1262.2" y="2290.0" font-size="65.0px" font-family="CMUBright-Roman" style="text-anchor:end;fill:rgb(0,0,0);" transform="rotate(-71.5,1262.2,2290.0)" >12-LOC</text>
<path d="M1321.755,2145.855 A670.000,670.000 40.000 0,1 1254.673,2123.470 L1225.380,2197.914 A750.000,750.000 0.000 0,0 1300.472,2222.972 Z" style="stroke-width:2.0;stroke:rgb(115,115,115);stroke-linecap:round;fill:none;" />
<path d="M1209.298,2103.649 A670.000,670.000 40.000 0,1 1147.290,2069.645 L1105.176,2137.663 A750.000,750.000 0.000 0,0 1174.587,2175.727 Z" style="stroke-width:2.0;stroke:rgb(115,115,115);stroke-linecap:round;fill:rgb(253,208,162);" />
<text x="1125.0" y="2234.8" font-size="65.0px" font-family="CMUBright-Roman" style="text-anchor:end;fill:rgb(0,0,0);" transform="rotate(-61.3,1125.0,2234.8)" >16-LG</text>
<path d="M1209.298,2103.649 A670.000,670.000 40.000 0,1 1147.290,2069.645 L1105.176,2137.663 A750.000,750.000 0.000 0,0 1174.587,2175.727 Z" style="stroke-width:2.0;stroke:rgb(115,115,115);stroke-linecap:round;fill:none;" />
<path d="M1106.184,2042.041 A670.000,670.000 40.000 0,1 1051.245,1997.512 L997.662,2056.917 A750.000,750.000 0.000 0,0 1059.161,2106.763 Z" style="stroke-width:2.0;stroke:rgb(115,115,115);stroke-linecap:round;fill:rgb(253,208,162);" />
<text x="999.8" y="2156.1" font-size="65.0px" font-family="CMUBright-Roman" style="text-anchor:end;fill:rgb(0,0,0);" transform="rotate(-51.0,999.8,2156.1)" >20-OFG</text>
<path d="M1106.184,2042.041 A670.000,670.000 40.000 0,1 1051.245,1997.512 L997.662,2056.917 A750.000,750.000 0.000 0,0 1059.161,2106.763 Z" style="stroke-width:2.0;stroke:rgb(115,115,115);stroke-linecap:round;fill:none;" />
<path d="M1015.727,1963.012 A670.000,670.000 40.000 0,1 969.622,1909.389 L906.293,1958.271 A750.000,750.000 0.000 0,0 957.904,2018.297 Z" style="stroke-width:2.0;stroke:rgb(115,115,115);stroke-linecap:round;fill:rgb(253,208,162);" />
<text x="890.7" y="2056.2" font-size="65.0px" font-family="CMUBright-Roman" style="text-anchor:end;fill:rgb(0,0,0);" transform="rotate(-40.7,890.7,2056.2)" >21-OP</text>
<path d="M1015.727,1963.012 A670.000,670.000 40.000 0,1 969.622,1909.389 L906.293,1958.271 A750.000,750.000 0.000 0,0 957.904,2018.297 Z" style="stroke-width:2.0;stroke:rgb(115,115,115);stroke-linecap:round;fill:none;" />
<path d="M940.836,1869.101 A670.000,670.000 40.000 0,1 905.046,1808.107 L834.007,1844.896 A750.000,750.000 0.000 0,0 874.070,1913.173 Z" style="stroke-width:2.0;stroke:rgb(115,115,115);stroke-linecap:round;fill:rgb(253,208,162);" />
<text x="801.2" y="1938.5" font-size="65.0px" font-family="CMUBright-Roman" style="text-anchor:end;fill:rgb(0,0,0);" transform="rotate(-30.4,801.2,1938.5)" >27-RCI</text>
<path d="M940.836,1869.101 A670.000,670.000 40.000 0,1 905.046,1808.107 L834.007,1844.896 A750.000,750.000 0.000 0,0 874.070,1913.173 Z" style="stroke-width:2.0;stroke:rgb(115,115,115);stroke-linecap:round;fill:none;" />
<path d="M883.916,1763.327 A670.000,670.000 40.000 0,1 859.593,1696.922 L783.126,1720.436 A750.000,750.000 0.000 0,0 810.354,1794.769 Z" style="stroke-width:2.0;stroke:rgb(115,115,115);stroke-linecap:round;fill:rgb(253,208,162);" />
<text x="734.1" y="1806.6" font-size="65.0px" font-family="CMUBright-Roman" style="text-anchor:end;fill:rgb(0,0,0);" transform="rotate(-20.1,734.1,1806.6)" >29-RCI</text>
<path d="M883.916,1763.327 A670.000,670.000 40.000 0,1 859.593,1696.922 L783.126,1720.436 A750.000,750.000 0.000 0,0 810.354,1794.769 Z" style="stroke-width:2.0;stroke:rgb(115,115,115);stroke-linecap:round;fill:none;" />
<path d="M846.798,1649.089 A670.000,670.000 40.000 0,1 834.722,1579.409 L755.286,1588.890 A750.000,750.000 0.000 0,0 768.804,1666.891 Z" style="stroke-width:2.0;stroke:rgb(115,115,115);stroke-linecap:round;fill:rgb(253,141,60);" />
<text x="691.7" y="1665.0" font-size="65.0px" font-family="CMUBright-Roman" style="text-anchor:end;fill:rgb(0,0,0);" transform="rotate(-9.8,691.7,1665.0)" >2-COC</text>
<path d="M846.798,1649.089 A670.000,670.000 40.000 0,1 834.722,1579.409 L755.286,1588.890 A750.000,750.000 0.000 0,0 768.804,1666.891 Z" style="stroke-width:2.0;stroke:rgb(115,115,115);stroke-linecap:round;fill:none;" />
<path d="M830.675,1530.059 A670.000,670.000 40.000 0,1 831.235,1459.343 L751.382,1454.488 A750.000,750.000 0.000 0,0 750.755,1533.649 Z" style="stroke-width:2.0;stroke:rgb(115,115,115);stroke-linecap:round;fill:rgb(253,141,60);" />
<text x="675.2" y="1517.0" font-size="65.0px" font-family="CMUBright-Roman" style="text-anchor:end;fill:rgb(0,0,0);" transform="rotate(0.5,675.2,1517.0)" >14-LIX</text>
<path d="M830.675,1530.059 A670.000,670.000 40.000 0,1 831.235,1459.343 L751.382,1454.488 A750.000,750.000 0.000 0,0 750.755,1533.649 Z" style="stroke-width:2.0;stroke:rgb(115,115,115);stroke-linecap:round;fill:none;" />
<path d="M836.064,1410.064 A670.000,670.000 40.000 0,1 849.242,1340.583 L771.539,1321.549 A750.000,750.000 0.000 0,0 756.788,1399.325 Z" style="stroke-width:2.0;stroke:rgb(115,115,115);stroke-linecap:round;fill:rgb(253,141,60);" />
<text x="685.3" y="1369.9" font-size="65.0px" font-family="CMUBright-Roman" style="text-anchor:end;fill:rgb(0,0,0);" transform="rotate(10.7,685.3,1369.9)" >31-RLV</text>
<path d="M836.064,1410.064 A670.000,670.000 40.000 0,1 849.242,1340.583 L771.539,1321.549 A750.000,750.000 0.000 0,0 756.788,1399.325 Z" style="stroke-width:2.0;stroke:rgb(115,115,115);stroke-linecap:round;fill:none;" />
<path d="M862.792,1292.959 A670.000,670.000 40.000 0,1 888.165,1226.948 L815.110,1194.345 A750.000,750.000 0.000 0,0 786.708,1268.237 Z" style="stroke-width:2.0;stroke:rgb(115,115,115);stroke-linecap:round;fill:rgb(253,141,60);" />
<text x="721.6" y="1226.5" font-size="65.0px" font-family="CMUBright-Roman" style="text-anchor:end;fill:rgb(0,0,0);" transform="rotate(21.0,721.6,1226.5)" >32-RLV</text>
<path d="M862.792,1292.959 A670.000,670.000 40.000 0,1 888.165,1226.948 L815.110,1194.345 A750.000,750.000 0.000 0,0 786.708,1268.237 Z" style="stroke-width:2.0;stroke:rgb(115,115,115);stroke-linecap:round;fill:none;" />
<path d="M910.001,1182.508 A670.000,670.000 40.000 0,1 946.752,1122.089 L880.693,1076.965 A750.000,750.000 0.000 0,0 839.553,1144.599 Z" style="stroke-width:2.0;stroke:rgb(115,115,115);stroke-linecap:round;fill:rgb(66,146,198);" />
<text x="782.7" y="1092.4" font-size="65.0px" font-family="CMUBright-Roman" style="text-anchor:end;fill:rgb(0,0,0);" transform="rotate(31.3,782.7,1092.4)" >8-IFG</text>
<path d="M910.001,1182.508 A670.000,670.000 40.000 0,1 946.752,1122.089 L880.693,1076.965 A750.000,750.000 0.000 0,0 839.553,1144.599 Z" style="stroke-width:2.0;stroke:rgb(115,115,115);stroke-linecap:round;fill:none;" />
<path d="M976.173,1082.262 A670.000,670.000 40.000 0,1 1023.122,1029.376 L966.181,973.182 A750.000,750.000 0.000 0,0 913.626,1032.383 Z" style="stroke-width:2.0;stroke:rgb(115,115,115);stroke-linecap:round;fill:rgb(66,146,198);" />
<text x="867.0" y="970.9" font-size="65.0px" font-family="CMUBright-Roman" style="text-anchor:end;fill:rgb(0,0,0);" transform="rotate(41.6,867.0,970.9)" >13-LCI</text>
<path d="M976.173,1082.262 A670.000,670.000 40.000 0,1 1023.122,1029.376 L966.181,973.182 A750.000,750.000 0.000 0,0 913.626,1032.383 Z" style="stroke-width:2.0;stroke:rgb(115,115,115);stroke-linecap:round;fill:none;" />
<path d="M1059.181,995.442 A670.000,670.000 40.000 0,1 1114.819,951.789 L1068.827,886.331 A750.000,750.000 0.000 0,0 1006.546,935.196 Z" style="stroke-width:2.0;stroke:rgb(115,115,115);stroke-linecap:round;fill:rgb(66,146,198);" />
<text x="971.7" y="866.3" font-size="65.0px" font-family="CMUBright-Roman" style="text-anchor:end;fill:rgb(0,0,0);" transform="rotate(51.9,971.7,866.3)" >25-PosG</text>
<path d="M1059.181,995.442 A670.000,670.000 40.000 0,1 1114.819,951.789 L1068.827,886.331 A750.000,750.000 0.000 0,0 1006.546,935.196 Z" style="stroke-width:2.0;stroke:rgb(115,115,115);stroke-linecap:round;fill:none;" />
<path d="M1156.357,924.839 A670.000,670.000 40.000 0,1 1218.896,891.822 L1185.331,819.204 A750.000,750.000 0.000 0,0 1115.326,856.163 Z" style="stroke-width:2.0;stroke:rgb(115,115,115);stroke-linecap:round;fill:rgb(66,146,198);" />
<text x="1093.3" y="782.2" font-size="65.0px" font-family="CMUBright-Roman" style="text-anchor:end;fill:rgb(0,0,0);" transform="rotate(62.2,1093.3,782.2)" >26-PC</text>
<path d="M1156.357,924.839 A670.000,670.000 40.000 0,1 1218.896,891.822 L1185.331,819.204 A750.000,750.000 0.000 0,0 1115.326,856.163 Z" style="stroke-width:2.0;stroke:rgb(115,115,115);stroke-linecap:round;fill:none;" />
<path d="M1264.579,872.723 A670.000,670.000 40.000 0,1 1332.008,851.403 L1311.949,773.958 A750.000,750.000 0.000 0,0 1236.469,797.824 Z" style="stroke-width:2.0;stroke:rgb(115,115,115);stroke-linecap:round;fill:rgb(66,146,198);" />
<text x="1228.0" y="721.1" font-size="65.0px" font-family="CMUBright-Roman" style="text-anchor:end;fill:rgb(0,0,0);" transform="rotate(72.5,1228.0,721.1)" >28-RCI</text>
<path d="M1264.579,872.723 A670.000,670.000 40.000 0,1 1332.008,851.403 L1311.949,773.958 A750.000,750.000 0.000 0,0 1236.469,797.824 Z" style="stroke-width:2.0;stroke:rgb(115,115,115);stroke-linecap:round;fill:none;" />
<path d="M1380.367,840.767 A670.000,670.000 40.000 0,1 1450.519,831.830 L1444.611,752.048 A750.000,750.000 0.000 0,0 1366.082,762.053 Z" style="stroke-width:2.0;stroke:rgb(115,115,115);stroke-linecap:round;fill:rgb(66,146,198);" />
<text x="1371.5" y="685.1" font-size="65.0px" font-family="CMUBright-Roman" style="text-anchor:end;fill:rgb(0,0,0);" transform="rotate(82.7,1371.5,685.1)" >35-SG</text>
<path d="M1380.367,840.767 A670.000,670.000 40.000 0,1 1450.519,831.830 L1444.611,752.048 A750.000,750.000 0.000 0,0 1366.082,762.053 Z" style="stroke-width:2.0;stroke:rgb(115,115,115);stroke-linecap:round;fill:none;" />
</g>
<g id="track_1">
<path d="M 1754.8,916.7 L 1743.7,942.8 1733.2,969.3 1723.1,996.2 1713.6,1023.6 1704.8,1051.3 1696.7,1079.3 1689.4,1107.6 1682.8,1136.1 1677.1,1164.8 1672.2,1193.7 1668.2,1222.7 1665.2,1251.9 1663.1,1281.0 1662.0,1310.2 1661.8,1339.4 1662.7,1368.6 1664.6,1397.7 1667.5,1426.7 1671.5,1455.5 1676.5,1484.2 1682.5,1512.7 1689.5,1541.0 1697.5,1569.0 1706.4,1596.7 1716.4,1624.2 1727.2,1651.3 1739.0,1678.1 1751.7,1704.5 1765.2,1730.5 1779.5,1756.1 1794.6,1781.2 1810.4,1805.8 1826.8,1830.0 1843.9,1853.6 1861.5,1876.7 1879.6,1899.3 1898.1,1921.3 1917.0,1942.7 1936.2,1963.5  " style="stroke-opacity: 1.000000; stroke-width: 5.0; stroke: rgb(251,106,74); fill: none"  />
<path d="M 1936.2,1963.5 L 1917.0,1942.7 1898.1,1921.3 1879.6,1899.3 1861.5,1876.7 1843.9,1853.6 1826.8,1830.0 1810.4,1805.8 1794.6,1781.2 1779.5,1756.1 1765.2,1730.5 1751.7,1704.5 1739.0,1678.1 1727.2,1651.3 1716.4,1624.2 1706.4,1596.7 1697.5,1569.0 1689.5,1541.0 1682.5,1512.7 1676.5,1484.2 1671.5,1455.5 1667.5,1426.7 1664.6,1397.7 1662.7,1368.6 1661.8,1339.4 1662.0,1310.2 1663.1,1281.0 1665.2,1251.9 1668.2,1222.7 1672.2,1193.7 1677.1,1164.8 1682.8,1136.1 1689.4,1107.6 1696.7,1079.3 1704.8,1051.3 1713.6,1023.6 1723.1,996.2 1733.2,969.3 1743.7,942.8 1754.8,916.7  " style="stroke-opacity: 1.000000; stroke-width: 5.0; stroke: rgb(251,106,74); fill: none"  />
<path d="M 1936.2,1963.5 L 1918.4,1945.0 1900.1,1926.9 1881.5,1909.3 1862.5,1892.4 1843.2,1876.3 1823.7,1861.0 1804.1,1846.7 1784.3,1833.5 1764.4,1821.4 1744.5,1810.5 1724.6,1801.0 1704.7,1792.8 1684.9,1786.0 1665.3,1780.6 1645.9,1776.8 1626.6,1774.5 1607.6,1773.8 1588.8,1774.6 1570.4,1777.0 1552.3,1781.0 1534.6,1786.5 1517.2,1793.6 1500.3,1802.3 1483.7,1812.5 1467.7,1824.1 1452.1,1837.2 1437.0,1851.6 1422.4,1867.4 1408.4,1884.4 1394.8,1902.6 1381.9,1921.9 1369.5,1942.3 1357.6,1963.5 1346.3,1985.5 1335.6,2008.3 1325.5,2031.6 1315.9,2055.4 1306.9,2079.5 1298.5,2103.8  " style="stroke-opacity: 1.000000; stroke-width: 5.0; stroke: rgb(251,106,74); fill: none"  />
<path d="M 956.2,1169.2 L 979.5,1183.0 1003.4,1196.4 1027.7,1209.1 1052.4,1221.2 1077.4,1232.6 1102.7,1243.1 1128.3,1252.7 1154.1,1261.5 1180.0,1269.2 1206.1,1275.8 1232.2,1281.4 1258.4,1285.8 1284.5,1289.1 1310.6,1291.1 1336.7,1292.0 1362.5,1291.5 1388.3,1289.9 1413.8,1286.9 1439.1,1282.7 1464.1,1277.2 1488.8,1270.4 1513.3,1262.4 1537.3,1253.1 1561.0,1242.6 1584.3,1231.0 1607.1,1218.1 1629.5,1204.2 1651.4,1189.2 1672.7,1173.2 1693.6,1156.2 1713.9,1138.3 1733.7,1119.6 1752.8,1100.1 1771.4,1079.9 1789.4,1059.1 1806.7,1037.8 1823.4,1016.0 1839.5,993.9 1854.8,971.6  " style="stroke-opacity: 1.000000; stroke-width: 5.0; stroke: rgb(251,106,74); fill: none"  />
<path d="M 956.2,1169.2 L 981.3,1184.8 1006.5,1200.9 1031.5,1217.6 1056.4,1234.8 1081.2,1252.6 1105.7,1271.0 1130.0,1289.9 1154.0,1309.4 1177.7,1329.4 1201.1,1350.0 1224.0,1371.2 1246.6,1392.8 1268.6,1415.1 1290.2,1437.8 1311.4,1461.1 1331.9,1484.8 1352.0,1509.1 1371.5,1533.8 1390.4,1559.0 1408.7,1584.6 1426.4,1610.6 1443.4,1637.1 1459.9,1663.9 1475.7,1691.1 1490.9,1718.6 1505.4,1746.4 1519.2,1774.5 1532.5,1802.8 1545.0,1831.4 1557.0,1860.1 1568.2,1889.1 1578.9,1918.1 1588.9,1947.2 1598.3,1976.4 1607.1,2005.6 1615.4,2034.7 1623.0,2063.8 1630.1,2092.8 1636.7,2121.6  " style="stroke-opacity: 1.000000; stroke-width: 5.0; stroke: rgb(251,106,74); fill: none"  />
<path d="M 956.2,1169.2 L 978.4,1183.1 1000.2,1197.5 1021.7,1212.5 1042.6,1228.0 1062.9,1244.1 1082.5,1260.7 1101.2,1277.7 1118.9,1295.3 1135.7,1313.2 1151.3,1331.6 1165.7,1350.4 1178.9,1369.5 1190.8,1389.0 1201.4,1408.8 1210.5,1428.8 1218.2,1449.1 1224.4,1469.7 1229.2,1490.4 1232.4,1511.3 1234.2,1532.4 1234.4,1553.6 1233.1,1574.8 1230.3,1596.1 1226.0,1617.4 1220.2,1638.7 1213.0,1659.9 1204.5,1681.1 1194.6,1702.1 1183.4,1723.0 1171.0,1743.6 1157.4,1764.1 1142.7,1784.3 1127.1,1804.2 1110.5,1823.7 1093.1,1842.9 1074.9,1861.6 1056.2,1879.9 1037.0,1897.7 1017.4,1915.0  " style="stroke-opacity: 1.000000; stroke-width: 5.0; stroke: rgb(251,106,74); fill: none"  />
<path d="M 956.2,1169.2 L 980.2,1184.2 1004.1,1199.8 1027.8,1216.1 1051.3,1233.0 1074.4,1250.6 1097.2,1268.9 1119.4,1287.8 1141.2,1307.3 1162.4,1327.5 1183.0,1348.4 1203.0,1369.8 1222.2,1391.9 1240.7,1414.6 1258.4,1437.8 1275.3,1461.7 1291.3,1486.0 1306.5,1510.9 1320.7,1536.3 1334.1,1562.2 1346.5,1588.5 1358.0,1615.3 1368.5,1642.4 1378.1,1670.0 1386.7,1697.8 1394.4,1726.0 1401.1,1754.5 1406.8,1783.1 1411.6,1812.0 1415.5,1841.1 1418.5,1870.2 1420.6,1899.4 1421.9,1928.7 1422.3,1957.9 1421.9,1987.1 1420.8,2016.1 1419.0,2045.0 1416.4,2073.6 1413.3,2102.0 1409.6,2130.0  " style="stroke-opacity: 1.000000; stroke-width: 5.0; stroke: rgb(251,106,74); fill: none"  />
<path d="M 1846.4,2034.0 L 1832.4,2012.9 1818.0,1992.1 1803.2,1971.8 1788.1,1952.1 1772.6,1933.1 1756.9,1915.0 1741.0,1897.9 1724.9,1881.9 1708.6,1867.0 1692.3,1853.4 1675.9,1841.1 1659.4,1830.2 1643.0,1820.8 1626.5,1813.0 1610.2,1806.7 1593.9,1802.0 1577.7,1799.0 1561.7,1797.6 1545.9,1797.9 1530.3,1799.9 1514.9,1803.6 1499.7,1808.9 1484.8,1815.9 1470.2,1824.5 1456.0,1834.7 1442.0,1846.4 1428.5,1859.6 1415.3,1874.3 1402.4,1890.3 1390.0,1907.6 1378.0,1926.1 1366.5,1945.6 1355.4,1966.2 1344.7,1987.7 1334.5,2009.9 1324.8,2032.7 1315.5,2056.1 1306.8,2079.8 1298.5,2103.8  " style="stroke-opacity: 1.000000; stroke-width: 5.0; stroke: rgb(251,106,74); fill: none"  />
<path d="M 1846.4,2034.0 L 1829.3,2007.4 1812.2,1980.6 1795.3,1953.6 1778.4,1926.4 1761.6,1899.1 1745.0,1871.5 1728.5,1843.7 1712.1,1815.7 1695.9,1787.6 1679.8,1759.3 1663.9,1730.8 1648.2,1702.1 1632.7,1673.3 1617.4,1644.4 1602.3,1615.2 1587.4,1586.0 1572.7,1556.6 1558.2,1527.1 1543.9,1497.5 1529.9,1467.7 1516.1,1437.9 1502.5,1407.9 1489.2,1377.9 1476.1,1347.8 1463.2,1317.6 1450.6,1287.4 1438.2,1257.1 1426.1,1226.7 1414.2,1196.4 1402.6,1166.0 1391.1,1135.6 1380.0,1105.1 1369.0,1074.7 1358.3,1044.4 1347.8,1014.0 1337.6,983.7 1327.5,953.4 1317.7,923.2 1308.1,893.1  " style="stroke-opacity: 1.000000; stroke-width: 5.0; stroke: rgb(251,106,74); fill: none"  />
<path d="M 1854.8,971.6 L 1839.5,993.9 1823.4,1016.0 1806.7,1037.8 1789.4,1059.1 1771.4,1079.9 1752.8,1100.1 1733.7,1119.6 1713.9,1138.3 1693.6,1156.2 1672.7,1173.2 1651.4,1189.2 1629.5,1204.2 1607.1,1218.1 1584.3,1231.0 1561.0,1242.6 1537.3,1253.1 1513.3,1262.4 1488.8,1270.4 1464.1,1277.2 1439.1,1282.7 1413.8,1286.9 1388.3,1289.9 1362.5,1291.5 1336.7,1292.0 1310.6,1291.1 1284.5,1289.1 1258.4,1285.8 1232.2,1281.4 1206.1,1275.8 1180.0,1269.2 1154.1,1261.5 1128.3,1252.7 1102.7,1243.1 1077.4,1232.6 1052.4,1221.2 1027.7,1209.1 1003.4,1196.4 979.5,1183.0 956.2,1169.2  " style="stroke-opacity: 1.000000; stroke-width: 5.0; stroke: rgb(251,106,74); fill: none"  />
<path d="M 1854.8,971.6 L 1839.8,993.5 1824.0,1015.1 1807.7,1036.3 1790.8,1057.1 1773.3,1077.2 1755.2,1096.7 1736.6,1115.3 1717.5,1133.1 1697.9,1149.9 1677.8,1165.7 1657.3,1180.4 1636.4,1194.0 1615.1,1206.4 1593.4,1217.5 1571.4,1227.3 1549.0,1235.8 1526.4,1242.9 1503.5,1248.7 1480.4,1253.1 1457.1,1256.0 1433.6,1257.6 1410.0,1257.8 1386.3,1256.5 1362.5,1253.9 1338.8,1249.9 1315.0,1244.6 1291.2,1238.0 1267.6,1230.1 1244.0,1221.0 1220.6,1210.7 1197.4,1199.3 1174.5,1186.9 1151.8,1173.5 1129.5,1159.2 1107.5,1144.1 1085.9,1128.3 1064.7,1111.8 1044.1,1094.9 1024.0,1077.4  " style="stroke-opacity: 1.000000; stroke-width: 5.0; stroke: rgb(251,106,74); fill: none"  />
<path d="M 1854.8,971.6 L 1840.3,992.8 1825.2,1013.6 1809.7,1034.0 1793.7,1053.8 1777.3,1072.8 1760.6,1091.1 1743.5,1108.4 1726.1,1124.7 1708.5,1139.8 1690.6,1153.8 1672.5,1166.5 1654.3,1177.8 1635.9,1187.7 1617.4,1196.2 1598.8,1203.1 1580.2,1208.5 1561.5,1212.4 1542.9,1214.6 1524.3,1215.2 1505.8,1214.3 1487.4,1211.7 1469.1,1207.5 1451.0,1201.7 1433.0,1194.4 1415.3,1185.5 1397.8,1175.1 1380.6,1163.3 1363.6,1150.1 1347.0,1135.6 1330.6,1119.9 1314.7,1102.9 1299.1,1084.9 1284.0,1065.9 1269.2,1046.0 1255.0,1025.3 1241.2,1003.9 1227.9,982.0 1215.1,959.7 1202.8,937.1  " style="stroke-opacity: 1.000000; stroke-width: 5.0; stroke: rgb(251,106,74); fill: none"  />
<path d="M 1854.8,971.6 L 1840.7,992.2 1826.3,1012.6 1811.6,1032.4 1796.6,1051.6 1781.6,1070.1 1766.4,1087.7 1751.1,1104.3 1735.8,1119.8 1720.6,1134.1 1705.5,1147.1 1690.4,1158.7 1675.5,1168.9 1660.9,1177.6 1646.4,1184.7 1632.2,1190.2 1618.3,1194.1 1604.7,1196.3 1591.5,1196.7 1578.6,1195.5 1566.2,1192.5 1554.1,1187.9 1542.5,1181.5 1531.3,1173.5 1520.6,1163.8 1510.4,1152.5 1500.7,1139.7 1491.4,1125.3 1482.7,1109.6 1474.5,1092.4 1466.8,1074.0 1459.5,1054.4 1452.8,1033.7 1446.6,1012.0 1440.9,989.5 1435.7,966.2 1431.0,942.4 1426.7,918.0 1422.9,893.4 1419.6,868.6  " style="stroke-opacity: 1.000000; stroke-width: 5.0; stroke: rgb(251,106,74); fill: none"  />
<path d="M 1298.5,2103.8 L 1306.9,2079.5 1315.9,2055.4 1325.5,2031.6 1335.6,2008.3 1346.3,1985.5 1357.6,1963.5 1369.5,1942.3 1381.9,1921.9 1394.8,1902.6 1408.4,1884.4 1422.4,1867.4 1437.0,1851.6 1452.1,1837.2 1467.7,1824.1 1483.7,1812.5 1500.3,1802.3 1517.2,1793.6 1534.6,1786.5 1552.3,1781.0 1570.4,1777.0 1588.8,1774.6 1607.6,1773.8 1626.6,1774.5 1645.9,1776.8 1665.3,1780.6 1684.9,1786.0 1704.7,1792.8 1724.6,1801.0 1744.5,1810.5 1764.4,1821.4 1784.3,1833.5 1804.1,1846.7 1823.7,1861.0 1843.2,1876.3 1862.5,1892.4 1881.5,1909.3 1900.1,1926.9 1918.4,1945.0 1936.2,1963.5  " style="stroke-opacity: 1.000000; stroke-width: 5.0; stroke: rgb(251,106,74); fill: none"  />
<path d="M 1298.5,2103.8 L 1306.8,2079.8 1315.5,2056.1 1324.8,2032.7 1334.5,2009.9 1344.7,1987.7 1355.4,1966.2 1366.5,1945.6 1378.0,1926.1 1390.0,1907.6 1402.4,1890.3 1415.3,1874.3 1428.5,1859.6 1442.0,1846.4 1456.0,1834.7 1470.2,1824.5 1484.8,1815.9 1499.7,1808.9 1514.9,1803.6 1530.3,1799.9 1545.9,1797.9 1561.7,1797.6 1577.7,1799.0 1593.9,1802.0 1610.2,1806.7 1626.5,1813.0 1643.0,1820.8 1659.4,1830.2 1675.9,1841.1 1692.3,1853.4 1708.6,1867.0 1724.9,1881.9 1741.0,1897.9 1756.9,1915.0 1772.6,1933.1 1788.1,1952.1 1803.2,1971.8 1818.0,1992.1 1832.4,2012.9 1846.4,2034.0  " style="stroke-opacity: 1.000000; stroke-width: 5.0; stroke: rgb(251,106,74); fill: none"  />
<path d="M 1298.5,2103.8 L 1306.5,2080.3 1314.8,2057.1 1323.4,2034.3 1332.2,2012.1 1341.2,1990.5 1350.4,1969.9 1359.8,1950.1 1369.3,1931.5 1379.0,1914.1 1388.8,1898.0 1398.6,1883.3 1408.5,1870.1 1418.5,1858.4 1428.5,1848.4 1438.4,1840.0 1448.4,1833.4 1458.3,1828.5 1468.2,1825.4 1478.0,1824.1 1487.7,1824.6 1497.3,1826.9 1506.8,1831.1 1516.2,1837.0 1525.4,1844.6 1534.4,1854.0 1543.3,1865.0 1552.0,1877.7 1560.4,1891.9 1568.7,1907.5 1576.7,1924.6 1584.5,1942.9 1592.0,1962.4 1599.2,1983.0 1606.2,2004.5 1612.9,2026.9 1619.3,2050.0 1625.4,2073.5 1631.2,2097.5 1636.7,2121.6  " style="stroke-opacity: 1.000000; stroke-width: 5.0; stroke: rgb(251,106,74); fill: none"  />
<path d="M 1298.5,2103.8 L 1307.4,2076.3 1315.9,2048.3 1323.8,2020.0 1331.2,1991.3 1338.0,1962.3 1344.2,1933.0 1349.7,1903.4 1354.6,1873.6 1358.6,1843.7 1362.0,1813.6 1364.5,1783.3 1366.2,1753.0 1367.1,1722.6 1367.2,1692.2 1366.4,1661.8 1364.7,1631.4 1362.1,1601.1 1358.7,1570.8 1354.4,1540.7 1349.2,1510.7 1343.1,1480.9 1336.2,1451.2 1328.4,1421.8 1319.7,1392.6 1310.2,1363.7 1300.0,1335.1 1288.9,1306.8 1277.1,1278.8 1264.5,1251.2 1251.2,1223.9 1237.3,1197.1 1222.8,1170.7 1207.6,1144.7 1191.9,1119.2 1175.8,1094.2 1159.1,1069.6 1142.1,1045.6 1124.7,1022.2 1107.1,999.2  " style="stroke-opacity: 1.000000; stroke-width: 5.0; stroke: rgb(251,106,74); fill: none"  />
<path d="M 1298.5,2103.8 L 1307.9,2075.0 1317.0,2045.9 1325.8,2016.5 1334.2,1986.7 1342.2,1956.7 1349.9,1926.3 1357.1,1895.8 1363.8,1864.9 1370.1,1833.9 1375.9,1802.6 1381.2,1771.2 1386.0,1739.6 1390.2,1707.8 1393.9,1676.0 1397.0,1644.0 1399.6,1611.9 1401.6,1579.8 1403.0,1547.6 1403.8,1515.4 1404.1,1483.1 1403.7,1450.9 1402.8,1418.7 1401.3,1386.5 1399.3,1354.4 1396.7,1322.4 1393.5,1290.4 1389.8,1258.6 1385.5,1227.0 1380.7,1195.4 1375.4,1164.1 1369.6,1133.0 1363.4,1102.0 1356.7,1071.3 1349.5,1040.9 1341.9,1010.7 1334.0,980.8 1325.7,951.3 1317.1,922.0 1308.1,893.1  " style="stroke-opacity: 1.000000; stroke-width: 5.0; stroke: rgb(251,106,74); fill: none"  />
<path d="M 1298.5,2103.8 L 1306.3,2080.6 1314.2,2057.6 1322.1,2035.0 1329.9,2012.9 1337.7,1991.5 1345.4,1971.0 1352.9,1951.4 1360.2,1932.9 1367.3,1915.6 1374.2,1899.7 1380.7,1885.1 1387.0,1872.1 1393.0,1860.6 1398.6,1850.7 1403.8,1842.5 1408.7,1836.1 1413.2,1831.4 1417.2,1828.5 1420.8,1827.4 1424.0,1828.2 1426.8,1830.8 1429.1,1835.2 1431.0,1841.3 1432.5,1849.3 1433.5,1858.9 1434.1,1870.3 1434.3,1883.2 1434.0,1897.7 1433.4,1913.7 1432.4,1931.0 1431.0,1949.7 1429.3,1969.5 1427.2,1990.3 1424.9,2012.1 1422.2,2034.7 1419.4,2058.0 1416.3,2081.7 1413.0,2105.8 1409.6,2130.0  " style="stroke-opacity: 1.000000; stroke-width: 5.0; stroke: rgb(251,106,74); fill: none"  />
<path d="M 1024.0,1077.4 L 1044.1,1094.9 1064.7,1111.8 1085.9,1128.3 1107.5,1144.1 1129.5,1159.2 1151.8,1173.5 1174.5,1186.9 1197.4,1199.3 1220.6,1210.7 1244.0,1221.0 1267.6,1230.1 1291.2,1238.0 1315.0,1244.6 1338.8,1249.9 1362.5,1253.9 1386.3,1256.5 1410.0,1257.8 1433.6,1257.6 1457.1,1256.0 1480.4,1253.1 1503.5,1248.7 1526.4,1242.9 1549.0,1235.8 1571.4,1227.3 1593.4,1217.5 1615.1,1206.4 1636.4,1194.0 1657.3,1180.4 1677.8,1165.7 1697.9,1149.9 1717.5,1133.1 1736.6,1115.3 1755.2,1096.7 1773.3,1077.2 1790.8,1057.1 1807.7,1036.3 1824.0,1015.1 1839.8,993.5 1854.8,971.6  " style="stroke-opacity: 1.000000; stroke-width: 5.0; stroke: rgb(251,106,74); fill: none"  />
<path d="M 1194.0,2058.1 L 1206.2,2036.3 1218.7,2014.7 1231.6,1993.7 1244.8,1973.2 1258.1,1953.4 1271.7,1934.5 1285.4,1916.6 1299.2,1899.8 1313.1,1884.2 1327.0,1869.9 1340.9,1857.0 1354.8,1845.5 1368.7,1835.5 1382.5,1827.1 1396.1,1820.4 1409.6,1815.3 1422.9,1811.9 1436.1,1810.2 1449.0,1810.3 1461.7,1812.1 1474.1,1815.7 1486.2,1821.0 1498.1,1828.0 1509.6,1836.7 1520.8,1847.0 1531.6,1858.9 1542.1,1872.4 1552.2,1887.3 1562.0,1903.6 1571.3,1921.3 1580.2,1940.2 1588.8,1960.2 1596.9,1981.2 1604.6,2003.2 1611.9,2025.9 1618.7,2049.2 1625.1,2073.1 1631.1,2097.3 1636.7,2121.6  " style="stroke-opacity: 1.000000; stroke-width: 5.0; stroke: rgb(251,106,74); fill: none"  />
<path d="M 1194.0,2058.1 L 1208.0,2032.0 1221.7,2005.5 1235.1,1978.6 1248.1,1951.2 1260.6,1923.4 1272.7,1895.3 1284.3,1866.8 1295.4,1837.9 1305.9,1808.7 1315.9,1779.2 1325.2,1749.4 1333.9,1719.4 1341.9,1689.1 1349.3,1658.6 1356.0,1627.9 1362.0,1597.0 1367.2,1566.0 1371.7,1534.9 1375.6,1503.6 1378.6,1472.3 1381.0,1440.9 1382.6,1409.5 1383.4,1378.0 1383.5,1346.6 1383.0,1315.2 1381.6,1283.8 1379.6,1252.6 1376.9,1221.4 1373.6,1190.4 1369.6,1159.5 1364.9,1128.8 1359.6,1098.4 1353.8,1068.1 1347.4,1038.1 1340.4,1008.5 1333.0,979.1 1325.1,950.1 1316.8,921.4 1308.1,893.1  " style="stroke-opacity: 1.000000; stroke-width: 5.0; stroke: rgb(251,106,74); fill: none"  />
<path d="M 1194.0,2058.1 L 1205.9,2036.6 1217.9,2015.3 1230.1,1994.5 1242.2,1974.2 1254.3,1954.7 1266.2,1936.0 1278.1,1918.3 1289.6,1901.6 1301.0,1886.2 1312.0,1872.0 1322.7,1859.3 1333.0,1847.9 1342.9,1838.1 1352.3,1829.9 1361.2,1823.4 1369.7,1818.5 1377.6,1815.3 1384.9,1813.9 1391.7,1814.2 1397.9,1816.3 1403.5,1820.1 1408.5,1825.6 1413.0,1832.9 1416.8,1841.9 1420.0,1852.5 1422.6,1864.8 1424.6,1878.5 1426.0,1893.7 1426.9,1910.4 1427.2,1928.3 1427.0,1947.5 1426.3,1967.7 1425.1,1989.0 1423.4,2011.1 1421.3,2034.0 1418.9,2057.5 1416.1,2081.5 1412.9,2105.7 1409.6,2130.0  " style="stroke-opacity: 1.000000; stroke-width: 5.0; stroke: rgb(251,106,74); fill: none"  />
<path d="M 1636.7,2121.6 L 1630.1,2092.8 1623.0,2063.8 1615.4,2034.7 1607.1,2005.6 1598.3,1976.4 1588.9,1947.2 1578.9,1918.1 1568.2,1889.1 1557.0,1860.1 1545.0,1831.4 1532.5,1802.8 1519.2,1774.5 1505.4,1746.4 1490.9,1718.6 1475.7,1691.1 1459.9,1663.9 1443.4,1637.1 1426.4,1610.6 1408.7,1584.6 1390.4,1559.0 1371.5,1533.8 1352.0,1509.1 1331.9,1484.8 1311.4,1461.1 1290.2,1437.8 1268.6,1415.1 1246.6,1392.8 1224.0,1371.2 1201.1,1350.0 1177.7,1329.4 1154.0,1309.4 1130.0,1289.9 1105.7,1271.0 1081.2,1252.6 1056.4,1234.8 1031.5,1217.6 1006.5,1200.9 981.3,1184.8 956.2,1169.2  " style="stroke-opacity: 1.000000; stroke-width: 5.0; stroke: rgb(251,106,74); fill: none"  />
<path d="M 1636.7,2121.6 L 1631.2,2097.5 1625.4,2073.5 1619.3,2050.0 1612.9,2026.9 1606.2,2004.5 1599.2,1983.0 1592.0,1962.4 1584.5,1942.9 1576.7,1924.6 1568.7,1907.5 1560.4,1891.9 1552.0,1877.7 1543.3,1865.0 1534.4,1854.0 1525.4,1844.6 1516.2,1837.0 1506.8,1831.1 1497.3,1826.9 1487.7,1824.6 1478.0,1824.1 1468.2,1825.4 1458.3,1828.5 1448.4,1833.4 1438.4,1840.0 1428.5,1848.4 1418.5,1858.4 1408.5,1870.1 1398.6,1883.3 1388.8,1898.0 1379.0,1914.1 1369.3,1931.5 1359.8,1950.1 1350.4,1969.9 1341.2,1990.5 1332.2,2012.1 1323.4,2034.3 1314.8,2057.1 1306.5,2080.3 1298.5,2103.8  " style="stroke-opacity: 1.000000; stroke-width: 5.0; stroke: rgb(251,106,74); fill: none"  />
<path d="M 1636.7,2121.6 L 1631.1,2097.3 1625.1,2073.1 1618.7,2049.2 1611.9,2025.9 1604.6,2003.2 1596.9,1981.2 1588.8,1960.2 1580.2,1940.2 1571.3,1921.3 1562.0,1903.6 1552.2,1887.3 1542.1,1872.4 1531.6,1858.9 1520.8,1847.0 1509.6,1836.7 1498.1,1828.0 1486.2,1821.0 1474.1,1815.7 1461.7,1812.1 1449.0,1810.3 1436.1,1810.2 1422.9,1811.9 1409.6,1815.3 1396.1,1820.4 1382.5,1827.1 1368.7,1835.5 1354.8,1845.5 1340.9,1857.0 1327.0,1869.9 1313.1,1884.2 1299.2,1899.8 1285.4,1916.6 1271.7,1934.5 1258.1,1953.4 1244.8,1973.2 1231.6,1993.7 1218.7,2014.7 1206.2,2036.3 1194.0,2058.1  " style="stroke-opacity: 1.000000; stroke-width: 5.0; stroke: rgb(251,106,74); fill: none"  />
<path d="M 1636.7,2121.6 L 1630.9,2096.6 1624.5,2071.7 1617.5,2047.1 1609.9,2022.8 1601.7,1999.0 1592.8,1975.9 1583.2,1953.6 1573.0,1932.0 1562.1,1911.5 1550.6,1891.9 1538.4,1873.5 1525.6,1856.3 1512.1,1840.3 1498.0,1825.7 1483.2,1812.4 1467.9,1800.6 1451.9,1790.2 1435.4,1781.3 1418.4,1773.9 1400.8,1768.0 1382.7,1763.7 1364.2,1760.9 1345.2,1759.6 1325.8,1759.9 1306.0,1761.7 1285.9,1764.9 1265.6,1769.6 1245.0,1775.6 1224.2,1783.0 1203.2,1791.7 1182.2,1801.6 1161.1,1812.7 1140.0,1824.9 1119.0,1838.0 1098.2,1852.0 1077.5,1866.8 1057.1,1882.4 1037.0,1898.4 1017.4,1915.0  " style="stroke-opacity: 1.000000; stroke-width: 5.0; stroke: rgb(251,106,74); fill: none"  />
<path d="M 1017.4,1915.0 L 1037.0,1897.7 1056.2,1879.9 1074.9,1861.6 1093.1,1842.9 1110.5,1823.7 1127.1,1804.2 1142.7,1784.3 1157.4,1764.1 1171.0,1743.6 1183.4,1723.0 1194.6,1702.1 1204.5,1681.1 1213.0,1659.9 1220.2,1638.7 1226.0,1617.4 1230.3,1596.1 1233.1,1574.8 1234.4,1553.6 1234.2,1532.4 1232.4,1511.3 1229.2,1490.4 1224.4,1469.7 1218.2,1449.1 1210.5,1428.8 1201.4,1408.8 1190.8,1389.0 1178.9,1369.5 1165.7,1350.4 1151.3,1331.6 1135.7,1313.2 1118.9,1295.3 1101.2,1277.7 1082.5,1260.7 1062.9,1244.1 1042.6,1228.0 1021.7,1212.5 1000.2,1197.5 978.4,1183.1 956.2,1169.2  " style="stroke-opacity: 1.000000; stroke-width: 5.0; stroke: rgb(251,106,74); fill: none"  />
<path d="M 1017.4,1915.0 L 1037.0,1898.4 1057.1,1882.4 1077.5,1866.8 1098.2,1852.0 1119.0,1838.0 1140.0,1824.9 1161.1,1812.7 1182.2,1801.6 1203.2,1791.7 1224.2,1783.0 1245.0,1775.6 1265.6,1769.6 1285.9,1764.9 1306.0,1761.7 1325.8,1759.9 1345.2,1759.6 1364.2,1760.9 1382.7,1763.7 1400.8,1768.0 1418.4,1773.9 1435.4,1781.3 1451.9,1790.2 1467.9,1800.6 1483.2,1812.4 1498.0,1825.7 1512.1,1840.3 1525.6,1856.3 1538.4,1873.5 1550.6,1891.9 1562.1,1911.5 1573.0,1932.0 1583.2,1953.6 1592.8,1975.9 1601.7,1999.0 1609.9,2022.8 1617.5,2047.1 1624.5,2071.7 1630.9,2096.6 1636.7,2121.6  " style="stroke-opacity: 1.000000; stroke-width: 5.0; stroke: rgb(251,106,74); fill: none"  />
<path d="M 1017.4,1915.0 L 1036.5,1898.8 1055.8,1883.1 1075.3,1867.9 1094.8,1853.3 1114.2,1839.5 1133.5,1826.6 1152.7,1814.7 1171.5,1803.8 1190.0,1794.1 1208.1,1785.5 1225.6,1778.3 1242.7,1772.5 1259.2,1768.0 1275.0,1765.0 1290.1,1763.5 1304.6,1763.4 1318.2,1764.9 1331.1,1768.0 1343.2,1772.6 1354.4,1778.8 1364.8,1786.5 1374.3,1795.7 1382.9,1806.4 1390.7,1818.6 1397.5,1832.2 1403.5,1847.2 1408.6,1863.4 1412.8,1881.0 1416.2,1899.7 1418.7,1919.5 1420.5,1940.3 1421.4,1962.0 1421.6,1984.6 1421.1,2007.8 1419.9,2031.6 1418.2,2055.9 1415.8,2080.5 1412.9,2105.3 1409.6,2130.0  " style="stroke-opacity: 1.000000; stroke-width: 5.0; stroke: rgb(251,106,74); fill: none"  />
<path d="M 1107.1,999.2 L 1124.7,1022.2 1142.1,1045.6 1159.1,1069.6 1175.8,1094.2 1191.9,1119.2 1207.6,1144.7 1222.8,1170.7 1237.3,1197.1 1251.2,1223.9 1264.5,1251.2 1277.1,1278.8 1288.9,1306.8 1300.0,1335.1 1310.2,1363.7 1319.7,1392.6 1328.4,1421.8 1336.2,1451.2 1343.1,1480.9 1349.2,1510.7 1354.4,1540.7 1358.7,1570.8 1362.1,1601.1 1364.7,1631.4 1366.4,1661.8 1367.2,1692.2 1367.1,1722.6 1366.2,1753.0 1364.5,1783.3 1362.0,1813.6 1358.6,1843.7 1354.6,1873.6 1349.7,1903.4 1344.2,1933.0 1338.0,1962.3 1331.2,1991.3 1323.8,2020.0 1315.9,2048.3 1307.4,2076.3 1298.5,2103.8  " style="stroke-opacity: 1.000000; stroke-width: 5.0; stroke: rgb(251,106,74); fill: none"  />
<path d="M 1202.8,937.1 L 1215.1,959.7 1227.9,982.0 1241.2,1003.9 1255.0,1025.3 1269.2,1046.0 1284.0,1065.9 1299.1,1084.9 1314.7,1102.9 1330.6,1119.9 1347.0,1135.6 1363.6,1150.1 1380.6,1163.3 1397.8,1175.1 1415.3,1185.5 1433.0,1194.4 1451.0,1201.7 1469.1,1207.5 1487.4,1211.7 1505.8,1214.3 1524.3,1215.2 1542.9,1214.6 1561.5,1212.4 1580.2,1208.5 1598.8,1203.1 1617.4,1196.2 1635.9,1187.7 1654.3,1177.8 1672.5,1166.5 1690.6,1153.8 1708.5,1139.8 1726.1,1124.7 1743.5,1108.4 1760.6,1091.1 1777.3,1072.8 1793.7,1053.8 1809.7,1034.0 1825.2,1013.6 1840.3,992.8 1854.8,971.6  " style="stroke-opacity: 1.000000; stroke-width: 5.0; stroke: rgb(251,106,74); fill: none"  />
<path d="M 951.0,1822.1 L 974.7,1807.8 998.3,1792.9 1021.7,1777.2 1044.7,1760.9 1067.3,1743.9 1089.4,1726.3 1111.0,1707.9 1132.0,1688.9 1152.2,1669.3 1171.8,1649.0 1190.5,1628.1 1208.4,1606.6 1225.5,1584.5 1241.5,1561.8 1256.7,1538.6 1270.8,1514.8 1283.9,1490.5 1295.9,1465.7 1306.9,1440.5 1316.7,1414.8 1325.5,1388.7 1333.2,1362.3 1339.7,1335.5 1345.1,1308.4 1349.5,1281.0 1352.7,1253.4 1354.9,1225.6 1356.0,1197.6 1356.1,1169.5 1355.2,1141.4 1353.2,1113.2 1350.4,1085.1 1346.7,1057.0 1342.1,1029.0 1336.6,1001.3 1330.5,973.8 1323.6,946.5 1316.2,919.6 1308.1,893.1  " style="stroke-opacity: 1.000000; stroke-width: 5.0; stroke: rgb(251,106,74); fill: none"  />
<path d="M 1308.1,893.1 L 1317.7,923.2 1327.5,953.4 1337.6,983.7 1347.8,1014.0 1358.3,1044.4 1369.0,1074.7 1380.0,1105.1 1391.1,1135.6 1402.6,1166.0 1414.2,1196.4 1426.1,1226.7 1438.2,1257.1 1450.6,1287.4 1463.2,1317.6 1476.1,1347.8 1489.2,1377.9 1502.5,1407.9 1516.1,1437.9 1529.9,1467.7 1543.9,1497.5 1558.2,1527.1 1572.7,1556.6 1587.4,1586.0 1602.3,1615.2 1617.4,1644.4 1632.7,1673.3 1648.2,1702.1 1663.9,1730.8 1679.8,1759.3 1695.9,1787.6 1712.1,1815.7 1728.5,1843.7 1745.0,1871.5 1761.6,1899.1 1778.4,1926.4 1795.3,1953.6 1812.2,1980.6 1829.3,2007.4 1846.4,2034.0  " style="stroke-opacity: 1.000000; stroke-width: 5.0; stroke: rgb(251,106,74); fill: none"  />
<path d="M 1308.1,893.1 L 1317.1,922.0 1325.7,951.3 1334.0,980.8 1341.9,1010.7 1349.5,1040.9 1356.7,1071.3 1363.4,1102.0 1369.6,1133.0 1375.4,1164.1 1380.7,1195.4 1385.5,1227.0 1389.8,1258.6 1393.5,1290.4 1396.7,1322.4 1399.3,1354.4 1401.3,1386.5 1402.8,1418.7 1403.7,1450.9 1404.1,1483.1 1403.8,1515.4 1403.0,1547.6 1401.6,1579.8 1399.6,1611.9 1397.0,1644.0 1393.9,1676.0 1390.2,1707.8 1386.0,1739.6 1381.2,1771.2 1375.9,1802.6 1370.1,1833.9 1363.8,1864.9 1357.1,1895.8 1349.9,1926.3 1342.2,1956.7 1334.2,1986.7 1325.8,2016.5 1317.0,2045.9 1307.9,2075.0 1298.5,2103.8  " style="stroke-opacity: 1.000000; stroke-width: 5.0; stroke: rgb(251,106,74); fill: none"  />
<path d="M 1308.1,893.1 L 1316.8,921.4 1325.1,950.1 1333.0,979.1 1340.4,1008.5 1347.4,1038.1 1353.8,1068.1 1359.6,1098.4 1364.9,1128.8 1369.6,1159.5 1373.6,1190.4 1376.9,1221.4 1379.6,1252.6 1381.6,1283.8 1383.0,1315.2 1383.5,1346.6 1383.4,1378.0 1382.6,1409.5 1381.0,1440.9 1378.6,1472.3 1375.6,1503.6 1371.7,1534.9 1367.2,1566.0 1362.0,1597.0 1356.0,1627.9 1349.3,1658.6 1341.9,1689.1 1333.9,1719.4 1325.2,1749.4 1315.9,1779.2 1305.9,1808.7 1295.4,1837.9 1284.3,1866.8 1272.7,1895.3 1260.6,1923.4 1248.1,1951.2 1235.1,1978.6 1221.7,2005.5 1208.0,2032.0 1194.0,2058.1  " style="stroke-opacity: 1.000000; stroke-width: 5.0; stroke: rgb(251,106,74); fill: none"  />
<path d="M 1308.1,893.1 L 1316.2,919.6 1323.6,946.5 1330.5,973.8 1336.6,1001.3 1342.1,1029.0 1346.7,1057.0 1350.4,1085.1 1353.2,1113.2 1355.2,1141.4 1356.1,1169.5 1356.0,1197.6 1354.9,1225.6 1352.7,1253.4 1349.5,1281.0 1345.1,1308.4 1339.7,1335.5 1333.2,1362.3 1325.5,1388.7 1316.7,1414.8 1306.9,1440.5 1295.9,1465.7 1283.9,1490.5 1270.8,1514.8 1256.7,1538.6 1241.5,1561.8 1225.5,1584.5 1208.4,1606.6 1190.5,1628.1 1171.8,1649.0 1152.2,1669.3 1132.0,1688.9 1111.0,1707.9 1089.4,1726.3 1067.3,1743.9 1044.7,1760.9 1021.7,1777.2 998.3,1792.9 974.7,1807.8 951.0,1822.1  " style="stroke-opacity: 1.000000; stroke-width: 5.0; stroke: rgb(251,106,74); fill: none"  />
<path d="M 1409.6,2130.0 L 1413.3,2102.0 1416.4,2073.6 1419.0,2045.0 1420.8,2016.1 1421.9,1987.1 1422.3,1957.9 1421.9,1928.7 1420.6,1899.4 1418.5,1870.2 1415.5,1841.1 1411.6,1812.0 1406.8,1783.1 1401.1,1754.5 1394.4,1726.0 1386.7,1697.8 1378.1,1670.0 1368.5,1642.4 1358.0,1615.3 1346.5,1588.5 1334.1,1562.2 1320.7,1536.3 1306.5,1510.9 1291.3,1486.0 1275.3,1461.7 1258.4,1437.8 1240.7,1414.6 1222.2,1391.9 1203.0,1369.8 1183.0,1348.4 1162.4,1327.5 1141.2,1307.3 1119.4,1287.8 1097.2,1268.9 1074.4,1250.6 1051.3,1233.0 1027.8,1216.1 1004.1,1199.8 980.2,1184.2 956.2,1169.2  " style="stroke-opacity: 1.000000; stroke-width: 5.0; stroke: rgb(251,106,74); fill: none"  />
<path d="M 1409.6,2130.0 L 1413.0,2105.8 1416.3,2081.7 1419.4,2058.0 1422.2,2034.7 1424.9,2012.1 1427.2,1990.3 1429.3,1969.5 1431.0,1949.7 1432.4,1931.0 1433.4,1913.7 1434.0,1897.7 1434.3,1883.2 1434.1,1870.3 1433.5,1858.9 1432.5,1849.3 1431.0,1841.3 1429.1,1835.2 1426.8,1830.8 1424.0,1828.2 1420.8,1827.4 1417.2,1828.5 1413.2,1831.4 1408.7,1836.1 1403.8,1842.5 1398.6,1850.7 1393.0,1860.6 1387.0,1872.1 1380.7,1885.1 1374.2,1899.7 1367.3,1915.6 1360.2,1932.9 1352.9,1951.4 1345.4,1971.0 1337.7,1991.5 1329.9,2012.9 1322.1,2035.0 1314.2,2057.6 1306.3,2080.6 1298.5,2103.8  " style="stroke-opacity: 1.000000; stroke-width: 5.0; stroke: rgb(251,106,74); fill: none"  />
<path d="M 1409.6,2130.0 L 1412.9,2105.7 1416.1,2081.5 1418.9,2057.5 1421.3,2034.0 1423.4,2011.1 1425.1,1989.0 1426.3,1967.7 1427.0,1947.5 1427.2,1928.3 1426.9,1910.4 1426.0,1893.7 1424.6,1878.5 1422.6,1864.8 1420.0,1852.5 1416.8,1841.9 1413.0,1832.9 1408.5,1825.6 1403.5,1820.1 1397.9,1816.3 1391.7,1814.2 1384.9,1813.9 1377.6,1815.3 1369.7,1818.5 1361.2,1823.4 1352.3,1829.9 1342.9,1838.1 1333.0,1847.9 1322.7,1859.3 1312.0,1872.0 1301.0,1886.2 1289.6,1901.6 1278.1,1918.3 1266.2,1936.0 1254.3,1954.7 1242.2,1974.2 1230.1,1994.5 1217.9,2015.3 1205.9,2036.6 1194.0,2058.1  " style="stroke-opacity: 1.000000; stroke-width: 5.0; stroke: rgb(251,106,74); fill: none"  />
<path d="M 1409.6,2130.0 L 1412.9,2105.3 1415.8,2080.5 1418.2,2055.9 1419.9,2031.6 1421.1,2007.8 1421.6,1984.6 1421.4,1962.0 1420.5,1940.3 1418.7,1919.5 1416.2,1899.7 1412.8,1881.0 1408.6,1863.4 1403.5,1847.2 1397.5,1832.2 1390.7,1818.6 1382.9,1806.4 1374.3,1795.7 1364.8,1786.5 1354.4,1778.8 1343.2,1772.6 1331.1,1768.0 1318.2,1764.9 1304.6,1763.4 1290.1,1763.5 1275.0,1765.0 1259.2,1768.0 1242.7,1772.5 1225.6,1778.3 1208.1,1785.5 1190.0,1794.1 1171.5,1803.8 1152.7,1814.7 1133.5,1826.6 1114.2,1839.5 1094.8,1853.3 1075.3,1867.9 1055.8,1883.1 1036.5,1898.8 1017.4,1915.0  " style="stroke-opacity: 1.000000; stroke-width: 5.0; stroke: rgb(251,106,74); fill: none"  />
<path d="M 1419.6,868.6 L 1422.9,893.4 1426.7,918.0 1431.0,942.4 1435.7,966.2 1440.9,989.5 1446.6,1012.0 1452.8,1033.7 1459.5,1054.4 1466.8,1074.0 1474.5,1092.4 1482.7,1109.6 1491.4,1125.3 1500.7,1139.7 1510.4,1152.5 1520.6,1163.8 1531.3,1173.5 1542.5,1181.5 1554.1,1187.9 1566.2,1192.5 1578.6,1195.5 1591.5,1196.7 1604.7,1196.3 1618.3,1194.1 1632.2,1190.2 1646.4,1184.7 1660.9,1177.6 1675.5,1168.9 1690.4,1158.7 1705.5,1147.1 1720.6,1134.1 1735.8,1119.8 1751.1,1104.3 1766.4,1087.7 1781.6,1070.1 1796.6,1051.6 1811.6,1032.4 1826.3,1012.6 1840.7,992.2 1854.8,971.6  " style="stroke-opacity: 1.000000; stroke-width: 5.0; stroke: rgb(251,106,74); fill: none"  />
</g>
<g id="track_0">
<path d="M 2012.0,1878.2 L 1992.1,1863.7 1972.3,1849.4 1952.5,1835.6 1933.0,1822.3 1913.8,1809.7 1895.1,1797.7 1877.0,1786.6 1859.5,1776.3 1842.7,1767.1 1826.7,1758.8 1811.7,1751.7 1797.6,1745.8 1784.5,1741.0 1772.5,1737.5 1761.6,1735.3 1751.9,1734.4 1743.4,1734.8 1736.2,1736.6 1730.1,1739.8 1725.4,1744.2 1721.9,1750.1 1719.6,1757.2 1718.7,1765.7 1719.0,1775.4 1720.5,1786.4 1723.3,1798.6 1727.3,1812.0 1732.3,1826.4 1738.5,1841.8 1745.8,1858.3 1754.0,1875.6 1763.2,1893.7 1773.2,1912.5 1784.0,1931.9 1795.5,1951.8 1807.5,1972.0 1820.1,1992.6 1833.1,2013.3 1846.4,2034.0  " style="stroke-opacity: 1.000000; stroke-width: 5.0; stroke: rgb(107,174,214); fill: none"  />
<path d="M 2012.0,1878.2 L 1991.7,1863.5 1971.3,1849.2 1950.7,1835.5 1930.2,1822.4 1909.8,1810.1 1889.6,1798.7 1869.6,1788.2 1850.0,1778.7 1830.9,1770.4 1812.2,1763.2 1794.2,1757.3 1776.7,1752.7 1760.0,1749.5 1744.0,1747.6 1728.7,1747.2 1714.3,1748.3 1700.8,1750.8 1688.2,1754.8 1676.5,1760.3 1665.8,1767.3 1656.0,1775.7 1647.2,1785.6 1639.4,1796.9 1632.6,1809.6 1626.7,1823.7 1621.9,1839.1 1618.0,1855.7 1615.1,1873.5 1613.1,1892.4 1612.0,1912.3 1611.8,1933.2 1612.5,1955.0 1614.0,1977.5 1616.2,2000.6 1619.1,2024.3 1622.7,2048.3 1626.8,2072.7 1631.6,2097.2 1636.7,2121.6  " style="stroke-opacity: 1.000000; stroke-width: 5.0; stroke: rgb(107,174,214); fill: none"  />
<path d="M 2012.0,1878.2 L 1991.1,1863.2 1969.9,1848.6 1948.4,1834.6 1926.7,1821.4 1904.9,1808.9 1883.0,1797.4 1861.1,1786.8 1839.2,1777.3 1817.5,1769.0 1796.0,1761.9 1774.7,1756.0 1753.7,1751.5 1733.0,1748.4 1712.8,1746.6 1692.9,1746.3 1673.6,1747.5 1654.7,1750.2 1636.4,1754.3 1618.7,1760.0 1601.6,1767.1 1585.2,1775.7 1569.4,1785.9 1554.2,1797.4 1539.8,1810.3 1526.1,1824.7 1513.1,1840.3 1500.8,1857.2 1489.3,1875.3 1478.5,1894.6 1468.4,1914.9 1459.1,1936.3 1450.5,1958.5 1442.6,1981.5 1435.5,2005.2 1429.0,2029.5 1423.2,2054.2 1418.0,2079.3 1413.5,2104.7 1409.6,2130.0  " style="stroke-opacity: 1.000000; stroke-width: 5.0; stroke: rgb(107,174,214); fill: none"  />
<path d="M 1646.5,880.6 L 1641.0,904.6 1635.7,928.4 1630.8,952.0 1626.2,975.2 1622.1,997.8 1618.5,1019.7 1615.3,1040.7 1612.8,1060.9 1610.9,1079.9 1609.6,1097.8 1609.0,1114.5 1609.0,1129.8 1609.8,1143.7 1611.3,1156.1 1613.5,1166.9 1616.5,1176.2 1620.3,1183.9 1624.8,1189.9 1630.0,1194.2 1636.0,1196.8 1642.8,1197.7 1650.2,1196.9 1658.4,1194.5 1667.2,1190.4 1676.7,1184.6 1686.8,1177.3 1697.5,1168.4 1708.8,1158.1 1720.6,1146.3 1732.8,1133.2 1745.5,1118.8 1758.5,1103.3 1771.9,1086.7 1785.5,1069.2 1799.3,1050.8 1813.2,1031.7 1827.1,1012.0 1841.0,991.9 1854.8,971.6  " style="stroke-opacity: 1.000000; stroke-width: 5.0; stroke: rgb(107,174,214); fill: none"  />
<path d="M 1936.2,1963.5 L 1919.4,1945.7 1902.6,1928.2 1886.0,1910.9 1869.6,1894.2 1853.5,1878.1 1838.0,1862.6 1822.9,1848.0 1808.5,1834.3 1794.8,1821.6 1781.9,1810.0 1769.8,1799.6 1758.6,1790.3 1748.4,1782.4 1739.2,1775.8 1731.0,1770.6 1723.9,1766.7 1717.9,1764.4 1713.0,1763.4 1709.2,1764.0 1706.6,1766.0 1705.2,1769.5 1704.9,1774.5 1705.8,1780.9 1707.8,1788.7 1711.0,1797.9 1715.2,1808.5 1720.5,1820.3 1726.8,1833.4 1734.0,1847.6 1742.2,1862.9 1751.3,1879.2 1761.2,1896.5 1771.8,1914.5 1783.1,1933.3 1794.9,1952.8 1807.3,1972.6 1820.1,1992.9 1833.2,2013.4 1846.4,2034.0  " style="stroke-opacity: 1.000000; stroke-width: 5.0; stroke: rgb(107,174,214); fill: none"  />
<path d="M 1936.2,1963.5 L 1918.7,1945.3 1900.8,1927.4 1882.6,1910.1 1864.2,1893.4 1845.6,1877.5 1826.9,1862.5 1808.2,1848.5 1789.5,1835.6 1770.8,1823.8 1752.3,1813.4 1734.0,1804.2 1715.8,1796.5 1698.0,1790.1 1680.4,1785.3 1663.2,1782.1 1646.3,1780.4 1629.9,1780.3 1613.9,1781.8 1598.4,1784.9 1583.3,1789.7 1568.8,1796.0 1554.9,1804.0 1541.5,1813.5 1528.7,1824.6 1516.4,1837.2 1504.8,1851.2 1493.8,1866.6 1483.5,1883.4 1473.7,1901.4 1464.6,1920.7 1456.1,1941.0 1448.2,1962.3 1440.9,1984.5 1434.3,2007.5 1428.2,2031.2 1422.7,2055.5 1417.8,2080.1 1413.4,2105.0 1409.6,2130.0  " style="stroke-opacity: 1.000000; stroke-width: 5.0; stroke: rgb(107,174,214); fill: none"  />
<path d="M 956.2,1169.2 L 978.0,1182.2 1000.0,1194.6 1022.1,1206.5 1044.3,1217.7 1066.4,1228.0 1088.4,1237.5 1110.2,1246.1 1131.7,1253.5 1152.8,1259.9 1173.4,1265.1 1193.5,1269.0 1213.1,1271.6 1232.0,1273.0 1250.2,1272.9 1267.7,1271.5 1284.4,1268.6 1300.2,1264.4 1315.3,1258.7 1329.4,1251.5 1342.6,1242.9 1354.9,1232.9 1366.2,1221.6 1376.6,1208.8 1386.0,1194.7 1394.4,1179.3 1401.9,1162.7 1408.4,1144.9 1413.9,1126.0 1418.6,1106.0 1422.2,1085.1 1425.0,1063.2 1427.0,1040.6 1428.0,1017.2 1428.3,993.3 1427.9,968.8 1426.7,944.0 1424.9,918.9 1422.5,893.8 1419.6,868.6  " style="stroke-opacity: 1.000000; stroke-width: 5.0; stroke: rgb(107,174,214); fill: none"  />
<path d="M 1846.4,2034.0 L 1833.1,2013.3 1820.1,1992.6 1807.5,1972.0 1795.5,1951.8 1784.0,1931.9 1773.2,1912.5 1763.2,1893.7 1754.0,1875.6 1745.8,1858.3 1738.5,1841.8 1732.3,1826.4 1727.3,1812.0 1723.3,1798.6 1720.5,1786.4 1719.0,1775.4 1718.7,1765.7 1719.6,1757.2 1721.9,1750.1 1725.4,1744.2 1730.1,1739.8 1736.2,1736.6 1743.4,1734.8 1751.9,1734.4 1761.6,1735.3 1772.5,1737.5 1784.5,1741.0 1797.6,1745.8 1811.7,1751.7 1826.7,1758.8 1842.7,1767.1 1859.5,1776.3 1877.0,1786.6 1895.1,1797.7 1913.8,1809.7 1933.0,1822.3 1952.5,1835.6 1972.3,1849.4 1992.1,1863.7 2012.0,1878.2  " style="stroke-opacity: 1.000000; stroke-width: 5.0; stroke: rgb(107,174,214); fill: none"  />
<path d="M 1846.4,2034.0 L 1833.2,2013.4 1820.1,1992.9 1807.3,1972.6 1794.9,1952.8 1783.1,1933.3 1771.8,1914.5 1761.2,1896.5 1751.3,1879.2 1742.2,1862.9 1734.0,1847.6 1726.8,1833.4 1720.5,1820.3 1715.2,1808.5 1711.0,1797.9 1707.8,1788.7 1705.8,1780.9 1704.9,1774.5 1705.2,1769.5 1706.6,1766.0 1709.2,1764.0 1713.0,1763.4 1717.9,1764.4 1723.9,1766.7 1731.0,1770.6 1739.2,1775.8 1748.4,1782.4 1758.6,1790.3 1769.8,1799.6 1781.9,1810.0 1794.8,1821.6 1808.5,1834.3 1822.9,1848.0 1838.0,1862.6 1853.5,1878.1 1869.6,1894.2 1886.0,1910.9 1902.6,1928.2 1919.4,1945.7 1936.2,1963.5  " style="stroke-opacity: 1.000000; stroke-width: 5.0; stroke: rgb(107,174,214); fill: none"  />
<path d="M 1846.4,2034.0 L 1832.9,2013.4 1819.4,1993.1 1805.7,1973.2 1792.1,1953.9 1778.6,1935.3 1765.3,1917.6 1752.2,1900.7 1739.4,1885.0 1727.0,1870.4 1715.0,1857.1 1703.4,1845.2 1692.3,1834.7 1681.7,1825.6 1671.7,1818.1 1662.3,1812.2 1653.5,1808.0 1645.4,1805.4 1637.9,1804.5 1631.2,1805.3 1625.2,1807.9 1619.8,1812.1 1615.3,1818.0 1611.4,1825.6 1608.3,1834.8 1605.8,1845.7 1604.1,1858.0 1603.1,1871.9 1602.8,1887.2 1603.2,1903.9 1604.2,1921.8 1605.8,1940.9 1608.1,1961.0 1610.8,1982.1 1614.1,2004.1 1617.9,2026.8 1622.1,2050.0 1626.6,2073.7 1631.5,2097.6 1636.7,2121.6  " style="stroke-opacity: 1.000000; stroke-width: 5.0; stroke: rgb(107,174,214); fill: none"  />
<path d="M 1846.4,2034.0 L 1832.6,2013.1 1818.5,1992.6 1804.1,1972.5 1789.5,1953.0 1774.7,1934.3 1759.8,1916.5 1744.8,1899.7 1729.8,1883.9 1714.8,1869.4 1699.8,1856.1 1685.0,1844.3 1670.3,1833.8 1655.7,1824.9 1641.4,1817.6 1627.3,1811.8 1613.4,1807.8 1599.9,1805.4 1586.7,1804.7 1573.8,1805.7 1561.3,1808.5 1549.2,1812.9 1537.4,1819.1 1526.2,1827.0 1515.3,1836.5 1504.9,1847.6 1495.0,1860.3 1485.5,1874.5 1476.5,1890.1 1468.0,1907.1 1460.0,1925.4 1452.5,1944.9 1445.5,1965.5 1438.9,1987.1 1432.9,2009.5 1427.3,2032.7 1422.2,2056.5 1417.5,2080.7 1413.3,2105.3 1409.6,2130.0  " style="stroke-opacity: 1.000000; stroke-width: 5.0; stroke: rgb(107,174,214); fill: none"  />
<path d="M 1854.8,971.6 L 1841.0,991.9 1827.1,1012.0 1813.2,1031.7 1799.3,1050.8 1785.5,1069.2 1771.9,1086.7 1758.5,1103.3 1745.5,1118.8 1732.8,1133.2 1720.6,1146.3 1708.8,1158.1 1697.5,1168.4 1686.8,1177.3 1676.7,1184.6 1667.2,1190.4 1658.4,1194.5 1650.2,1196.9 1642.8,1197.7 1636.0,1196.8 1630.0,1194.2 1624.8,1189.9 1620.3,1183.9 1616.5,1176.2 1613.5,1166.9 1611.3,1156.1 1609.8,1143.7 1609.0,1129.8 1609.0,1114.5 1609.6,1097.8 1610.9,1079.9 1612.8,1060.9 1615.3,1040.7 1618.5,1019.7 1622.1,997.8 1626.2,975.2 1630.8,952.0 1635.7,928.4 1641.0,904.6 1646.5,880.6  " style="stroke-opacity: 1.000000; stroke-width: 5.0; stroke: rgb(107,174,214); fill: none"  />
<path d="M 1854.8,971.6 L 1841.2,991.9 1827.8,1012.2 1814.8,1032.3 1802.1,1052.0 1789.9,1071.2 1778.3,1089.8 1767.4,1107.7 1757.3,1124.8 1747.9,1141.0 1739.5,1156.2 1732.0,1170.3 1725.5,1183.2 1720.0,1195.0 1715.6,1205.4 1712.4,1214.6 1710.2,1222.4 1709.3,1228.8 1709.5,1233.7 1710.8,1237.3 1713.4,1239.3 1717.1,1240.0 1722.0,1239.1 1728.1,1236.8 1735.2,1233.1 1743.5,1228.0 1752.9,1221.6 1763.2,1213.8 1774.5,1204.8 1786.8,1194.5 1799.9,1183.1 1813.8,1170.6 1828.4,1157.2 1843.7,1142.8 1859.5,1127.6 1875.8,1111.7 1892.4,1095.2 1909.3,1078.3 1926.4,1061.0 1943.5,1043.4  " style="stroke-opacity: 1.000000; stroke-width: 5.0; stroke: rgb(107,174,214); fill: none"  />
<path d="M 1298.5,2103.8 L 1306.2,2080.5 1313.7,2057.4 1321.0,2034.6 1328.0,2012.2 1334.6,1990.5 1340.8,1969.5 1346.6,1949.3 1351.8,1930.1 1356.5,1912.0 1360.6,1895.2 1364.1,1879.6 1366.9,1865.3 1369.0,1852.6 1370.5,1841.3 1371.2,1831.6 1371.2,1823.5 1370.4,1817.1 1368.9,1812.4 1366.7,1809.3 1363.7,1808.0 1359.9,1808.4 1355.4,1810.5 1350.2,1814.4 1344.2,1819.8 1337.6,1826.9 1330.3,1835.7 1322.4,1845.9 1313.9,1857.6 1304.8,1870.8 1295.2,1885.3 1285.1,1901.0 1274.6,1917.9 1263.7,1935.8 1252.5,1954.6 1241.1,1974.3 1229.4,1994.6 1217.6,2015.4 1205.8,2036.7 1194.0,2058.1  " style="stroke-opacity: 1.000000; stroke-width: 5.0; stroke: rgb(107,174,214); fill: none"  />
<path d="M 1298.5,2103.8 L 1306.2,2080.4 1313.6,2057.1 1320.6,2034.1 1327.3,2011.4 1333.4,1989.3 1339.0,1967.8 1343.9,1947.1 1348.3,1927.3 1351.9,1908.4 1354.8,1890.7 1356.9,1874.2 1358.2,1859.0 1358.7,1845.1 1358.3,1832.6 1357.1,1821.6 1354.9,1812.0 1351.9,1804.1 1347.9,1797.7 1343.1,1792.9 1337.3,1789.8 1330.7,1788.3 1323.2,1788.4 1314.9,1790.1 1305.7,1793.4 1295.7,1798.3 1285.0,1804.7 1273.5,1812.5 1261.4,1821.8 1248.6,1832.5 1235.2,1844.5 1221.3,1857.6 1206.9,1871.9 1192.2,1887.3 1177.0,1903.5 1161.7,1920.6 1146.1,1938.4 1130.5,1956.7 1114.8,1975.4 1099.2,1994.5  " style="stroke-opacity: 1.000000; stroke-width: 5.0; stroke: rgb(107,174,214); fill: none"  />
<path d="M 1298.5,2103.8 L 1306.2,2080.2 1313.5,2056.7 1320.4,2033.3 1326.7,2010.2 1332.4,1987.6 1337.5,1965.5 1341.8,1944.1 1345.3,1923.5 1348.1,1903.8 1349.9,1885.1 1350.9,1867.4 1350.9,1850.9 1349.9,1835.6 1348.0,1821.5 1345.0,1808.9 1341.1,1797.6 1336.1,1787.7 1330.0,1779.3 1323.0,1772.4 1314.9,1766.9 1305.8,1763.0 1295.7,1760.6 1284.7,1759.7 1272.8,1760.3 1259.9,1762.4 1246.2,1765.9 1231.7,1770.8 1216.4,1777.0 1200.4,1784.6 1183.7,1793.4 1166.5,1803.4 1148.8,1814.5 1130.6,1826.6 1112.1,1839.7 1093.3,1853.5 1074.3,1868.1 1055.3,1883.3 1036.3,1898.9 1017.4,1915.0  " style="stroke-opacity: 1.000000; stroke-width: 5.0; stroke: rgb(107,174,214); fill: none"  />
<path d="M 1298.5,2103.8 L 1306.3,2079.7 1313.5,2055.4 1320.2,2031.2 1326.1,2007.1 1331.3,1983.2 1335.7,1959.6 1339.2,1936.5 1341.7,1913.9 1343.2,1891.9 1343.6,1870.7 1343.0,1850.2 1341.2,1830.5 1338.3,1811.8 1334.2,1794.1 1328.9,1777.3 1322.4,1761.7 1314.7,1747.2 1305.8,1733.8 1295.7,1721.6 1284.4,1710.6 1271.9,1700.9 1258.3,1692.4 1243.6,1685.1 1227.7,1679.1 1210.9,1674.3 1193.0,1670.7 1174.2,1668.3 1154.5,1667.1 1134.0,1667.1 1112.8,1668.1 1090.9,1670.3 1068.3,1673.4 1045.3,1677.6 1021.9,1682.6 998.2,1688.5 974.2,1695.2 950.2,1702.5 926.2,1710.5 902.3,1718.9  " style="stroke-opacity: 1.000000; stroke-width: 5.0; stroke: rgb(107,174,214); fill: none"  />
<path d="M 1024.0,1077.4 L 1042.6,1093.8 1061.4,1109.7 1080.2,1125.2 1098.9,1140.1 1117.5,1154.2 1135.8,1167.6 1153.8,1180.0 1171.3,1191.3 1188.4,1201.6 1204.9,1210.7 1220.8,1218.5 1236.0,1225.0 1250.4,1230.1 1264.1,1233.9 1276.9,1236.1 1288.9,1236.9 1299.9,1236.2 1310.0,1233.9 1319.1,1230.2 1327.3,1224.9 1334.5,1218.1 1340.6,1209.8 1345.8,1200.0 1349.9,1188.7 1353.1,1176.1 1355.3,1162.1 1356.5,1146.8 1356.7,1130.3 1356.0,1112.6 1354.5,1093.9 1352.1,1074.1 1348.8,1053.4 1344.8,1032.0 1340.1,1009.8 1334.8,987.1 1328.8,963.9 1322.4,940.4 1315.4,916.8 1308.1,893.1  " style="stroke-opacity: 1.000000; stroke-width: 5.0; stroke: rgb(107,174,214); fill: none"  />
<path d="M 1194.0,2058.1 L 1205.8,2036.7 1217.6,2015.4 1229.4,1994.6 1241.1,1974.3 1252.5,1954.6 1263.7,1935.8 1274.6,1917.9 1285.1,1901.0 1295.2,1885.3 1304.8,1870.8 1313.9,1857.6 1322.4,1845.9 1330.3,1835.7 1337.6,1826.9 1344.2,1819.8 1350.2,1814.4 1355.4,1810.5 1359.9,1808.4 1363.7,1808.0 1366.7,1809.3 1368.9,1812.4 1370.4,1817.1 1371.2,1823.5 1371.2,1831.6 1370.5,1841.3 1369.0,1852.6 1366.9,1865.3 1364.1,1879.6 1360.6,1895.2 1356.5,1912.0 1351.8,1930.1 1346.6,1949.3 1340.8,1969.5 1334.6,1990.5 1328.0,2012.2 1321.0,2034.6 1313.7,2057.4 1306.2,2080.5 1298.5,2103.8  " style="stroke-opacity: 1.000000; stroke-width: 5.0; stroke: rgb(107,174,214); fill: none"  />
<path d="M 1194.0,2058.1 L 1205.7,2036.6 1217.2,2015.2 1228.4,1994.1 1239.3,1973.3 1249.7,1953.1 1259.6,1933.5 1268.8,1914.7 1277.4,1896.7 1285.2,1879.8 1292.3,1863.9 1298.5,1849.2 1303.8,1835.7 1308.2,1823.5 1311.6,1812.7 1314.1,1803.3 1315.5,1795.3 1315.9,1788.9 1315.3,1784.0 1313.6,1780.6 1310.8,1778.7 1307.1,1778.5 1302.3,1779.7 1296.4,1782.5 1289.6,1786.9 1281.8,1792.7 1273.1,1800.0 1263.5,1808.6 1253.0,1818.7 1241.7,1830.0 1229.7,1842.5 1217.0,1856.2 1203.6,1870.9 1189.7,1886.6 1175.3,1903.1 1160.5,1920.4 1145.4,1938.3 1130.1,1956.7 1114.7,1975.5 1099.2,1994.5  " style="stroke-opacity: 1.000000; stroke-width: 5.0; stroke: rgb(107,174,214); fill: none"  />
<path d="M 1194.0,2058.1 L 1205.7,2036.5 1217.1,2014.9 1228.2,1993.5 1238.7,1972.3 1248.7,1951.6 1258.0,1931.5 1266.6,1912.0 1274.4,1893.3 1281.4,1875.4 1287.4,1858.5 1292.4,1842.7 1296.4,1827.9 1299.4,1814.3 1301.2,1801.9 1301.9,1790.9 1301.5,1781.1 1300.0,1772.8 1297.2,1765.8 1293.3,1760.2 1288.2,1756.1 1282.0,1753.4 1274.6,1752.2 1266.1,1752.4 1256.4,1754.0 1245.8,1757.0 1234.1,1761.4 1221.4,1767.1 1207.8,1774.1 1193.3,1782.3 1178.0,1791.6 1161.9,1802.1 1145.2,1813.6 1128.0,1826.1 1110.2,1839.4 1092.0,1853.4 1073.5,1868.1 1054.8,1883.4 1036.1,1899.0 1017.4,1915.0  " style="stroke-opacity: 1.000000; stroke-width: 5.0; stroke: rgb(107,174,214); fill: none"  />
<path d="M 1194.0,2058.1 L 1205.8,2036.1 1217.2,2013.9 1228.0,1991.7 1238.2,1969.6 1247.7,1947.7 1256.3,1926.1 1264.1,1905.0 1270.8,1884.3 1276.5,1864.2 1281.1,1844.7 1284.5,1826.0 1286.7,1808.1 1287.7,1791.1 1287.3,1775.0 1285.7,1759.9 1282.7,1745.7 1278.4,1732.7 1272.8,1720.7 1265.8,1709.8 1257.4,1700.1 1247.7,1691.6 1236.7,1684.2 1224.5,1678.0 1211.0,1672.9 1196.2,1669.0 1180.4,1666.3 1163.4,1664.7 1145.3,1664.2 1126.3,1664.8 1106.4,1666.4 1085.7,1669.0 1064.2,1672.6 1042.2,1677.0 1019.5,1682.3 996.5,1688.4 973.1,1695.2 949.5,1702.6 925.9,1710.5 902.3,1718.9  " style="stroke-opacity: 1.000000; stroke-width: 5.0; stroke: rgb(107,174,214); fill: none"  />
<path d="M 1636.7,2121.6 L 1631.6,2097.2 1626.8,2072.7 1622.7,2048.3 1619.1,2024.3 1616.2,2000.6 1614.0,1977.5 1612.5,1955.0 1611.8,1933.2 1612.0,1912.3 1613.1,1892.4 1615.1,1873.5 1618.0,1855.7 1621.9,1839.1 1626.7,1823.7 1632.6,1809.6 1639.4,1796.9 1647.2,1785.6 1656.0,1775.7 1665.8,1767.3 1676.5,1760.3 1688.2,1754.8 1700.8,1750.8 1714.3,1748.3 1728.7,1747.2 1744.0,1747.6 1760.0,1749.5 1776.7,1752.7 1794.2,1757.3 1812.2,1763.2 1830.9,1770.4 1850.0,1778.7 1869.6,1788.2 1889.6,1798.7 1909.8,1810.1 1930.2,1822.4 1950.7,1835.5 1971.3,1849.2 1991.7,1863.5 2012.0,1878.2  " style="stroke-opacity: 1.000000; stroke-width: 5.0; stroke: rgb(107,174,214); fill: none"  />
<path d="M 1636.7,2121.6 L 1631.5,2097.6 1626.6,2073.7 1622.1,2050.0 1617.9,2026.8 1614.1,2004.1 1610.8,1982.1 1608.1,1961.0 1605.8,1940.9 1604.2,1921.8 1603.2,1903.9 1602.8,1887.2 1603.1,1871.9 1604.1,1858.0 1605.8,1845.7 1608.3,1834.8 1611.4,1825.6 1615.3,1818.0 1619.8,1812.1 1625.2,1807.9 1631.2,1805.3 1637.9,1804.5 1645.4,1805.4 1653.5,1808.0 1662.3,1812.2 1671.7,1818.1 1681.7,1825.6 1692.3,1834.7 1703.4,1845.2 1715.0,1857.1 1727.0,1870.4 1739.4,1885.0 1752.2,1900.7 1765.3,1917.6 1778.6,1935.3 1792.1,1953.9 1805.7,1973.2 1819.4,1993.1 1832.9,2013.4 1846.4,2034.0  " style="stroke-opacity: 1.000000; stroke-width: 5.0; stroke: rgb(107,174,214); fill: none"  />
<path d="M 1636.7,2121.6 L 1631.3,2097.7 1625.7,2073.9 1619.9,2050.5 1614.0,2027.6 1607.9,2005.5 1601.7,1984.2 1595.3,1963.8 1588.9,1944.6 1582.4,1926.6 1575.8,1909.9 1569.1,1894.6 1562.4,1880.9 1555.7,1868.7 1549.0,1858.2 1542.2,1849.4 1535.5,1842.3 1528.8,1837.0 1522.2,1833.6 1515.5,1832.0 1509.0,1832.2 1502.5,1834.3 1496.2,1838.2 1489.9,1844.0 1483.7,1851.5 1477.6,1860.8 1471.7,1871.8 1465.9,1884.4 1460.2,1898.7 1454.7,1914.4 1449.4,1931.5 1444.2,1949.9 1439.2,1969.6 1434.4,1990.3 1429.7,2012.0 1425.3,2034.6 1421.0,2057.8 1417.0,2081.6 1413.2,2105.7 1409.6,2130.0  " style="stroke-opacity: 1.000000; stroke-width: 5.0; stroke: rgb(107,174,214); fill: none"  />
<path d="M 1523.5,2136.1 L 1522.6,2111.6 1521.5,2087.3 1520.3,2063.4 1519.0,2040.0 1517.5,2017.3 1515.9,1995.4 1514.2,1974.6 1512.4,1954.8 1510.4,1936.2 1508.3,1918.9 1506.1,1903.1 1503.8,1888.8 1501.3,1876.1 1498.7,1865.1 1495.9,1855.7 1493.1,1848.2 1490.1,1842.4 1487.0,1838.5 1483.9,1836.5 1480.6,1836.3 1477.2,1838.0 1473.7,1841.6 1470.2,1847.0 1466.5,1854.2 1462.8,1863.2 1459.1,1873.9 1455.3,1886.3 1451.4,1900.2 1447.6,1915.7 1443.6,1932.7 1439.7,1950.9 1435.8,1970.4 1431.9,1991.0 1428.1,2012.6 1424.2,2035.0 1420.4,2058.1 1416.7,2081.8 1413.1,2105.8 1409.6,2130.0  " style="stroke-opacity: 1.000000; stroke-width: 5.0; stroke: rgb(107,174,214); fill: none"  />
<path d="M 1943.5,1043.4 L 1926.4,1061.0 1909.3,1078.3 1892.4,1095.2 1875.8,1111.7 1859.5,1127.6 1843.7,1142.8 1828.4,1157.2 1813.8,1170.6 1799.9,1183.1 1786.8,1194.5 1774.5,1204.8 1763.2,1213.8 1752.9,1221.6 1743.5,1228.0 1735.2,1233.1 1728.1,1236.8 1722.0,1239.1 1717.1,1240.0 1713.4,1239.3 1710.8,1237.3 1709.5,1233.7 1709.3,1228.8 1710.2,1222.4 1712.4,1214.6 1715.6,1205.4 1720.0,1195.0 1725.5,1183.2 1732.0,1170.3 1739.5,1156.2 1747.9,1141.0 1757.3,1124.8 1767.4,1107.7 1778.3,1089.8 1789.9,1071.2 1802.1,1052.0 1814.8,1032.3 1827.8,1012.2 1841.2,991.9 1854.8,971.6  " style="stroke-opacity: 1.000000; stroke-width: 5.0; stroke: rgb(107,174,214); fill: none"  />
<path d="M 1099.2,1994.5 L 1114.8,1975.4 1130.5,1956.7 1146.1,1938.4 1161.7,1920.6 1177.0,1903.5 1192.2,1887.3 1206.9,1871.9 1221.3,1857.6 1235.2,1844.5 1248.6,1832.5 1261.4,1821.8 1273.5,1812.5 1285.0,1804.7 1295.7,1798.3 1305.7,1793.4 1314.9,1790.1 1323.2,1788.4 1330.7,1788.3 1337.3,1789.8 1343.1,1792.9 1347.9,1797.7 1351.9,1804.1 1354.9,1812.0 1357.1,1821.6 1358.3,1832.6 1358.7,1845.1 1358.2,1859.0 1356.9,1874.2 1354.8,1890.7 1351.9,1908.4 1348.3,1927.3 1343.9,1947.1 1339.0,1967.8 1333.4,1989.3 1327.3,2011.4 1320.6,2034.1 1313.6,2057.1 1306.2,2080.4 1298.5,2103.8  " style="stroke-opacity: 1.000000; stroke-width: 5.0; stroke: rgb(107,174,214); fill: none"  />
<path d="M 1099.2,1994.5 L 1114.7,1975.5 1130.1,1956.7 1145.4,1938.3 1160.5,1920.4 1175.3,1903.1 1189.7,1886.6 1203.6,1870.9 1217.0,1856.2 1229.7,1842.5 1241.7,1830.0 1253.0,1818.7 1263.5,1808.6 1273.1,1800.0 1281.8,1792.7 1289.6,1786.9 1296.4,1782.5 1302.3,1779.7 1307.1,1778.5 1310.8,1778.7 1313.6,1780.6 1315.3,1784.0 1315.9,1788.9 1315.5,1795.3 1314.1,1803.3 1311.6,1812.7 1308.2,1823.5 1303.8,1835.7 1298.5,1849.2 1292.3,1863.9 1285.2,1879.8 1277.4,1896.7 1268.8,1914.7 1259.6,1933.5 1249.7,1953.1 1239.3,1973.3 1228.4,1994.1 1217.2,2015.2 1205.7,2036.6 1194.0,2058.1  " style="stroke-opacity: 1.000000; stroke-width: 5.0; stroke: rgb(107,174,214); fill: none"  />
<path d="M 1099.2,1994.5 L 1114.6,1975.4 1129.8,1956.4 1144.6,1937.6 1159.0,1919.1 1172.8,1901.1 1186.0,1883.6 1198.5,1866.7 1210.1,1850.6 1220.9,1835.3 1230.6,1821.0 1239.4,1807.6 1247.0,1795.3 1253.5,1784.1 1258.8,1774.0 1262.9,1765.2 1265.7,1757.6 1267.3,1751.4 1267.5,1746.4 1266.5,1742.8 1264.1,1740.5 1260.4,1739.5 1255.5,1739.9 1249.3,1741.7 1241.8,1744.7 1233.1,1749.0 1223.2,1754.6 1212.2,1761.5 1200.1,1769.4 1187.0,1778.6 1172.9,1788.7 1157.9,1799.9 1142.2,1812.0 1125.7,1825.0 1108.6,1838.7 1090.9,1853.0 1072.9,1868.0 1054.5,1883.3 1036.0,1899.0 1017.4,1915.0  " style="stroke-opacity: 1.000000; stroke-width: 5.0; stroke: rgb(107,174,214); fill: none"  />
<path d="M 1017.4,1915.0 L 1036.3,1898.9 1055.3,1883.3 1074.3,1868.1 1093.3,1853.5 1112.1,1839.7 1130.6,1826.6 1148.8,1814.5 1166.5,1803.4 1183.7,1793.4 1200.4,1784.6 1216.4,1777.0 1231.7,1770.8 1246.2,1765.9 1259.9,1762.4 1272.8,1760.3 1284.7,1759.7 1295.7,1760.6 1305.8,1763.0 1314.9,1766.9 1323.0,1772.4 1330.0,1779.3 1336.1,1787.7 1341.1,1797.6 1345.0,1808.9 1348.0,1821.5 1349.9,1835.6 1350.9,1850.9 1350.9,1867.4 1349.9,1885.1 1348.1,1903.8 1345.3,1923.5 1341.8,1944.1 1337.5,1965.5 1332.4,1987.6 1326.7,2010.2 1320.4,2033.3 1313.5,2056.7 1306.2,2080.2 1298.5,2103.8  " style="stroke-opacity: 1.000000; stroke-width: 5.0; stroke: rgb(107,174,214); fill: none"  />
<path d="M 1017.4,1915.0 L 1036.1,1899.0 1054.8,1883.4 1073.5,1868.1 1092.0,1853.4 1110.2,1839.4 1128.0,1826.1 1145.2,1813.6 1161.9,1802.1 1178.0,1791.6 1193.3,1782.3 1207.8,1774.1 1221.4,1767.1 1234.1,1761.4 1245.8,1757.0 1256.4,1754.0 1266.1,1752.4 1274.6,1752.2 1282.0,1753.4 1288.2,1756.1 1293.3,1760.2 1297.2,1765.8 1300.0,1772.8 1301.5,1781.1 1301.9,1790.9 1301.2,1801.9 1299.4,1814.3 1296.4,1827.9 1292.4,1842.7 1287.4,1858.5 1281.4,1875.4 1274.4,1893.3 1266.6,1912.0 1258.0,1931.5 1248.7,1951.6 1238.7,1972.3 1228.2,1993.5 1217.1,2014.9 1205.7,2036.5 1194.0,2058.1  " style="stroke-opacity: 1.000000; stroke-width: 5.0; stroke: rgb(107,174,214); fill: none"  />
<path d="M 1017.4,1915.0 L 1036.0,1899.0 1054.5,1883.3 1072.9,1868.0 1090.9,1853.0 1108.6,1838.7 1125.7,1825.0 1142.2,1812.0 1157.9,1799.9 1172.9,1788.7 1187.0,1778.6 1200.1,1769.4 1212.2,1761.5 1223.2,1754.6 1233.1,1749.0 1241.8,1744.7 1249.3,1741.7 1255.5,1739.9 1260.4,1739.5 1264.1,1740.5 1266.5,1742.8 1267.5,1746.4 1267.3,1751.4 1265.7,1757.6 1262.9,1765.2 1258.8,1774.0 1253.5,1784.1 1247.0,1795.3 1239.4,1807.6 1230.6,1821.0 1220.9,1835.3 1210.1,1850.6 1198.5,1866.7 1186.0,1883.6 1172.8,1901.1 1159.0,1919.1 1144.6,1937.6 1129.8,1956.4 1114.6,1975.4 1099.2,1994.5  " style="stroke-opacity: 1.000000; stroke-width: 5.0; stroke: rgb(107,174,214); fill: none"  />
<path d="M 1017.4,1915.0 L 1035.9,1898.8 1054.2,1882.7 1072.1,1866.5 1089.4,1850.4 1106.0,1834.5 1121.8,1819.0 1136.7,1803.7 1150.6,1789.0 1163.4,1774.7 1174.9,1761.0 1185.2,1747.9 1194.2,1735.4 1201.7,1723.8 1207.8,1712.8 1212.4,1702.7 1215.4,1693.5 1216.9,1685.1 1216.8,1677.6 1215.0,1671.0 1211.7,1665.4 1206.8,1660.7 1200.3,1656.9 1192.3,1654.1 1182.7,1652.2 1171.7,1651.3 1159.2,1651.3 1145.3,1652.1 1130.1,1653.9 1113.6,1656.5 1096.0,1659.9 1077.3,1664.1 1057.7,1669.0 1037.1,1674.5 1015.8,1680.8 993.8,1687.5 971.4,1694.8 948.5,1702.5 925.5,1710.6 902.3,1718.9  " style="stroke-opacity: 1.000000; stroke-width: 5.0; stroke: rgb(107,174,214); fill: none"  />
<path d="M 1308.1,893.1 L 1315.4,916.8 1322.4,940.4 1328.8,963.9 1334.8,987.1 1340.1,1009.8 1344.8,1032.0 1348.8,1053.4 1352.1,1074.1 1354.5,1093.9 1356.0,1112.6 1356.7,1130.3 1356.5,1146.8 1355.3,1162.1 1353.1,1176.1 1349.9,1188.7 1345.8,1200.0 1340.6,1209.8 1334.5,1218.1 1327.3,1224.9 1319.1,1230.2 1310.0,1233.9 1299.9,1236.2 1288.9,1236.9 1276.9,1236.1 1264.1,1233.9 1250.4,1230.1 1236.0,1225.0 1220.8,1218.5 1204.9,1210.7 1188.4,1201.6 1171.3,1191.3 1153.8,1180.0 1135.8,1167.6 1117.5,1154.2 1098.9,1140.1 1080.2,1125.2 1061.4,1109.7 1042.6,1093.8 1024.0,1077.4  " style="stroke-opacity: 1.000000; stroke-width: 5.0; stroke: rgb(107,174,214); fill: none"  />
<path d="M 902.3,1718.9 L 926.2,1710.5 950.2,1702.5 974.2,1695.2 998.2,1688.5 1021.9,1682.6 1045.3,1677.6 1068.3,1673.4 1090.9,1670.3 1112.8,1668.1 1134.0,1667.1 1154.5,1667.1 1174.2,1668.3 1193.0,1670.7 1210.9,1674.3 1227.7,1679.1 1243.6,1685.1 1258.3,1692.4 1271.9,1700.9 1284.4,1710.6 1295.7,1721.6 1305.8,1733.8 1314.7,1747.2 1322.4,1761.7 1328.9,1777.3 1334.2,1794.1 1338.3,1811.8 1341.2,1830.5 1343.0,1850.2 1343.6,1870.7 1343.2,1891.9 1341.7,1913.9 1339.2,1936.5 1335.7,1959.6 1331.3,1983.2 1326.1,2007.1 1320.2,2031.2 1313.5,2055.4 1306.3,2079.7 1298.5,2103.8  " style="stroke-opacity: 1.000000; stroke-width: 5.0; stroke: rgb(107,174,214); fill: none"  />
<path d="M 902.3,1718.9 L 925.9,1710.5 949.5,1702.6 973.1,1695.2 996.5,1688.4 1019.5,1682.3 1042.2,1677.0 1064.2,1672.6 1085.7,1669.0 1106.4,1666.4 1126.3,1664.8 1145.3,1664.2 1163.4,1664.7 1180.4,1666.3 1196.2,1669.0 1211.0,1672.9 1224.5,1678.0 1236.7,1684.2 1247.7,1691.6 1257.4,1700.1 1265.8,1709.8 1272.8,1720.7 1278.4,1732.7 1282.7,1745.7 1285.7,1759.9 1287.3,1775.0 1287.7,1791.1 1286.7,1808.1 1284.5,1826.0 1281.1,1844.7 1276.5,1864.2 1270.8,1884.3 1264.1,1905.0 1256.3,1926.1 1247.7,1947.7 1238.2,1969.6 1228.0,1991.7 1217.2,2013.9 1205.8,2036.1 1194.0,2058.1  " style="stroke-opacity: 1.000000; stroke-width: 5.0; stroke: rgb(107,174,214); fill: none"  />
<path d="M 902.3,1718.9 L 925.5,1710.6 948.5,1702.5 971.4,1694.8 993.8,1687.5 1015.8,1680.8 1037.1,1674.5 1057.7,1669.0 1077.3,1664.1 1096.0,1659.9 1113.6,1656.5 1130.1,1653.9 1145.3,1652.1 1159.2,1651.3 1171.7,1651.3 1182.7,1652.2 1192.3,1654.1 1200.3,1656.9 1206.8,1660.7 1211.7,1665.4 1215.0,1671.0 1216.8,1677.6 1216.9,1685.1 1215.4,1693.5 1212.4,1702.7 1207.8,1712.8 1201.7,1723.8 1194.2,1735.4 1185.2,1747.9 1174.9,1761.0 1163.4,1774.7 1150.6,1789.0 1136.7,1803.7 1121.8,1819.0 1106.0,1834.5 1089.4,1850.4 1072.1,1866.5 1054.2,1882.7 1035.9,1898.8 1017.4,1915.0  " style="stroke-opacity: 1.000000; stroke-width: 5.0; stroke: rgb(107,174,214); fill: none"  />
<path d="M 1409.6,2130.0 L 1413.5,2104.7 1418.0,2079.3 1423.2,2054.2 1429.0,2029.5 1435.5,2005.2 1442.6,1981.5 1450.5,1958.5 1459.1,1936.3 1468.4,1914.9 1478.5,1894.6 1489.3,1875.3 1500.8,1857.2 1513.1,1840.3 1526.1,1824.7 1539.8,1810.3 1554.2,1797.4 1569.4,1785.9 1585.2,1775.7 1601.6,1767.1 1618.7,1760.0 1636.4,1754.3 1654.7,1750.2 1673.6,1747.5 1692.9,1746.3 1712.8,1746.6 1733.0,1748.4 1753.7,1751.5 1774.7,1756.0 1796.0,1761.9 1817.5,1769.0 1839.2,1777.3 1861.1,1786.8 1883.0,1797.4 1904.9,1808.9 1926.7,1821.4 1948.4,1834.6 1969.9,1848.6 1991.1,1863.2 2012.0,1878.2  " style="stroke-opacity: 1.000000; stroke-width: 5.0; stroke: rgb(107,174,214); fill: none"  />
<path d="M 1409.6,2130.0 L 1413.4,2105.0 1417.8,2080.1 1422.7,2055.5 1428.2,2031.2 1434.3,2007.5 1440.9,1984.5 1448.2,1962.3 1456.1,1941.0 1464.6,1920.7 1473.7,1901.4 1483.5,1883.4 1493.8,1866.6 1504.8,1851.2 1516.4,1837.2 1528.7,1824.6 1541.5,1813.5 1554.9,1804.0 1568.8,1796.0 1583.3,1789.7 1598.4,1784.9 1613.9,1781.8 1629.9,1780.3 1646.3,1780.4 1663.2,1782.1 1680.4,1785.3 1698.0,1790.1 1715.8,1796.5 1734.0,1804.2 1752.3,1813.4 1770.8,1823.8 1789.5,1835.6 1808.2,1848.5 1826.9,1862.5 1845.6,1877.5 1864.2,1893.4 1882.6,1910.1 1900.8,1927.4 1918.7,1945.3 1936.2,1963.5  " style="stroke-opacity: 1.000000; stroke-width: 5.0; stroke: rgb(107,174,214); fill: none"  />
<path d="M 1409.6,2130.0 L 1413.3,2105.3 1417.5,2080.7 1422.2,2056.5 1427.3,2032.7 1432.9,2009.5 1438.9,1987.1 1445.5,1965.5 1452.5,1944.9 1460.0,1925.4 1468.0,1907.1 1476.5,1890.1 1485.5,1874.5 1495.0,1860.3 1504.9,1847.6 1515.3,1836.5 1526.2,1827.0 1537.4,1819.1 1549.2,1812.9 1561.3,1808.5 1573.8,1805.7 1586.7,1804.7 1599.9,1805.4 1613.4,1807.8 1627.3,1811.8 1641.4,1817.6 1655.7,1824.9 1670.3,1833.8 1685.0,1844.3 1699.8,1856.1 1714.8,1869.4 1729.8,1883.9 1744.8,1899.7 1759.8,1916.5 1774.7,1934.3 1789.5,1953.0 1804.1,1972.5 1818.5,1992.6 1832.6,2013.1 1846.4,2034.0  " style="stroke-opacity: 1.000000; stroke-width: 5.0; stroke: rgb(107,174,214); fill: none"  />
<path d="M 1409.6,2130.0 L 1413.2,2105.7 1417.0,2081.6 1421.0,2057.8 1425.3,2034.6 1429.7,2012.0 1434.4,1990.3 1439.2,1969.6 1444.2,1949.9 1449.4,1931.5 1454.7,1914.4 1460.2,1898.7 1465.9,1884.4 1471.7,1871.8 1477.6,1860.8 1483.7,1851.5 1489.9,1844.0 1496.2,1838.2 1502.5,1834.3 1509.0,1832.2 1515.5,1832.0 1522.2,1833.6 1528.8,1837.0 1535.5,1842.3 1542.2,1849.4 1549.0,1858.2 1555.7,1868.7 1562.4,1880.9 1569.1,1894.6 1575.8,1909.9 1582.4,1926.6 1588.9,1944.6 1595.3,1963.8 1601.7,1984.2 1607.9,2005.5 1614.0,2027.6 1619.9,2050.5 1625.7,2073.9 1631.3,2097.7 1636.7,2121.6  " style="stroke-opacity: 1.000000; stroke-width: 5.0; stroke: rgb(107,174,214); fill: none"  />
<path d="M 1409.6,2130.0 L 1413.1,2105.8 1416.7,2081.8 1420.4,2058.1 1424.2,2035.0 1428.1,2012.6 1431.9,1991.0 1435.8,1970.4 1439.7,1950.9 1443.6,1932.7 1447.6,1915.7 1451.4,1900.2 1455.3,1886.3 1459.1,1873.9 1462.8,1863.2 1466.5,1854.2 1470.2,1847.0 1473.7,1841.6 1477.2,1838.0 1480.6,1836.3 1483.9,1836.5 1487.0,1838.5 1490.1,1842.4 1493.1,1848.2 1495.9,1855.7 1498.7,1865.1 1501.3,1876.1 1503.8,1888.8 1506.1,1903.1 1508.3,1918.9 1510.4,1936.2 1512.4,1954.8 1514.2,1974.6 1515.9,1995.4 1517.5,2017.3 1519.0,2040.0 1520.3,2063.4 1521.5,2087.3 1522.6,2111.6 1523.5,2136.1  " style="stroke-opacity: 1.000000; stroke-width: 5.0; stroke: rgb(107,174,214); fill: none"  />
<path d="M 1419.6,868.6 L 1422.5,893.8 1424.9,918.9 1426.7,944.0 1427.9,968.8 1428.3,993.3 1428.0,1017.2 1427.0,1040.6 1425.0,1063.2 1422.2,1085.1 1418.6,1106.0 1413.9,1126.0 1408.4,1144.9 1401.9,1162.7 1394.4,1179.3 1386.0,1194.7 1376.6,1208.8 1366.2,1221.6 1354.9,1232.9 1342.6,1242.9 1329.4,1251.5 1315.3,1258.7 1300.2,1264.4 1284.4,1268.6 1267.7,1271.5 1250.2,1272.9 1232.0,1273.0 1213.1,1271.6 1193.5,1269.0 1173.4,1265.1 1152.8,1259.9 1131.7,1253.5 1110.2,1246.1 1088.4,1237.5 1066.4,1228.0 1044.3,1217.7 1022.1,1206.5 1000.0,1194.6 978.0,1182.2 956.2,1169.2  " style="stroke-opacity: 1.000000; stroke-width: 5.0; stroke: rgb(107,174,214); fill: none"  />
</g>
<defs>
<pattern id="checker" width="10" height="10" patternTransform="rotate(45 0 0)" patternUnits="userSpaceOnUse"><line x1="0" y1="0" x2="10" y2="0" style="stroke:black;stroke-width:2" /><line x1="0" y1="0" x2="0" y2="10" style="stroke:black;stroke-width:2" /></pattern>
<pattern id="checker" width="10" height="10" patternTransform="rotate(45 0 0)" patternUnits="userSpaceOnUse"><line x1="0" y1="0" x2="10" y2="0" style="stroke:black;stroke-width:5" /><line x1="0" y1="0" x2="0" y2="10" style="stroke:black;stroke-width:4" /></pattern>
<pattern id="hline" width="10" height="10" patternTransform="rotate(0 0 0)" patternUnits="userSpaceOnUse"><line x1="0" y1="0" x2="10" y2="0" style="stroke:black;stroke-width:5" /></pattern>
<pattern id="vline-sparse" width="10" height="10" patternTransform="rotate(0 0 0)" patternUnits="userSpaceOnUse"><line x1="0" y1="0" x2="0" y2="10" style="stroke:black;stroke-width:2" /></pattern>
<pattern id="hline-sparse" width="10" height="10" patternTransform="rotate(0 0 0)" patternUnits="userSpaceOnUse"><line x1="0" y1="0" x2="10" y2="0" style="stroke:black;stroke-width:2" /></pattern>
<pattern id="vline" width="10" height="10" patternTransform="rotate(0 0 0)" patternUnits="userSpaceOnUse"><line x1="0" y1="0" x2="0" y2="10" style="stroke:black;stroke-width:5" /></pattern>
</defs>
</svg>
