<?xml version="1.0" encoding="utf-8" standalone="no"?>
<!DOCTYPE svg PUBLIC "-//W3C//DTD SVG 1.1//EN" "http://www.w3.org/Graphics/SVG/1.1/DTD/svg11.dtd">
<svg width="3000px" height="3000px" version="1.1" xmlns="http://www.w3.org/2000/svg" xmlns:xlink="http://www.w3.org/1999/xlink">
<g id="bg">
<rect x="0" y="0" width="3000px" height="3000px" style="fill:rgb(255,255,255);"/>
</g>
<g id="ideograms">
<path d="M1500.000,830.000 A670.000,670.000 40.000 0,1 1570.620,833.732 L1579.053,754.178 A750.000,750.000 0.000 0,0 1500.000,750.000 Z" style="stroke-width:2.0;stroke:rgb(115,115,115);stroke-linecap:round;fill:rgb(153,204,255);" />
<text x="1568.0" y="677.8" font-size="65.0px" font-family="CMUBright-Roman" style="text-anchor:start;fill:rgb(0,0,0);" transform="rotate(273.0,1568.0,677.8)" >4-FOC</text>
<path d="M1500.000,830.000 A670.000,670.000 40.000 0,1 1570.620,833.732 L1579.053,754.178 A750.000,750.000 0.000 0,0 1500.000,750.000 Z" style="stroke-width:2.0;stroke:rgb(115,115,115);stroke-linecap:round;fill:none;" />
<path d="M1619.633,840.767 A670.000,670.000 40.000 0,1 1688.452,857.049 L1710.954,780.279 A750.000,750.000 0.000 0,0 1633.918,762.053 Z" style="stroke-width:2.0;stroke:rgb(115,115,115);stroke-linecap:round;fill:rgb(153,204,255);" />
<text x="1713.2" y="703.0" font-size="65.0px" font-family="CMUBright-Roman" style="text-anchor:start;fill:rgb(0,0,0);" transform="rotate(283.3,1713.2,703.0)" >5-FP</text>
<path d="M1619.633,840.767 A670.000,670.000 40.000 0,1 1688.452,857.049 L1710.954,780.279 A750.000,750.000 0.000 0,0 1633.918,762.053 Z" style="stroke-width:2.0;stroke:rgb(115,115,115);stroke-linecap:round;fill:none;" />
<path d="M1735.421,872.723 A670.000,670.000 40.000 0,1 1800.227,901.031 L1836.075,829.512 A750.000,750.000 0.000 0,0 1763.531,797.824 Z" style="stroke-width:2.0;stroke:rgb(115,115,115);stroke-linecap:round;fill:rgb(153,204,255);" />
<text x="1852.5" y="754.1" font-size="65.0px" font-family="CMUBright-Roman" style="text-anchor:start;fill:rgb(0,0,0);" transform="rotate(293.6,1852.5,754.1)" >6-IFG</text>
<path d="M1735.421,872.723 A670.000,670.000 40.000 0,1 1800.227,901.031 L1836.075,829.512 A750.000,750.000 0.000 0,0 1763.531,797.824 Z" style="stroke-width:2.0;stroke:rgb(115,115,115);stroke-linecap:round;fill:none;" />
<path d="M1843.643,924.839 A670.000,670.000 40.000 0,1 1902.352,964.264 L1950.394,900.296 A750.000,750.000 0.000 0,0 1884.674,856.163 Z" style="stroke-width:2.0;stroke:rgb(115,115,115);stroke-linecap:round;fill:rgb(153,204,255);" />
<text x="1980.1" y="829.1" font-size="65.0px" font-family="CMUBright-Roman" style="text-anchor:start;fill:rgb(0,0,0);" transform="rotate(303.9,1980.1,829.1)" >8-IFG</text>
<path d="M1843.643,924.839 A670.000,670.000 40.000 0,1 1902.352,964.264 L1950.394,900.296 A750.000,750.000 0.000 0,0 1884.674,856.163 Z" style="stroke-width:2.0;stroke:rgb(115,115,115);stroke-linecap:round;fill:none;" />
<path d="M1940.819,995.442 A670.000,670.000 40.000 0,1 1991.546,1044.717 L2050.238,990.354 A750.000,750.000 0.000 0,0 1993.454,935.196 Z" style="stroke-width:2.0;stroke:rgb(115,115,115);stroke-linecap:round;fill:rgb(153,204,255);" />
<text x="2091.8" y="925.2" font-size="65.0px" font-family="CMUBright-Roman" style="text-anchor:start;fill:rgb(0,0,0);" transform="rotate(314.2,2091.8,925.2)" >10-IPL</text>
<path d="M1940.819,995.442 A670.000,670.000 40.000 0,1 1991.546,1044.717 L2050.238,990.354 A750.000,750.000 0.000 0,0 1993.454,935.196 Z" style="stroke-width:2.0;stroke:rgb(115,115,115);stroke-linecap:round;fill:none;" />
<path d="M2023.827,1082.262 A670.000,670.000 40.000 0,1 2064.940,1139.802 L2132.396,1096.793 A750.000,750.000 0.000 0,0 2086.374,1032.383 Z" style="stroke-width:2.0;stroke:rgb(115,115,115);stroke-linecap:round;fill:rgb(153,204,255);" />
<text x="2185.2" y="1040.5" font-size="65.0px" font-family="CMUBright-Roman" style="text-anchor:start;fill:rgb(0,0,0);" transform="rotate(324.5,2185.2,1040.5)" >19-MTG</text>
<path d="M2023.827,1082.262 A670.000,670.000 40.000 0,1 2064.940,1139.802 L2132.396,1096.793 A750.000,750.000 0.000 0,0 2086.374,1032.383 Z" style="stroke-width:2.0;stroke:rgb(115,115,115);stroke-linecap:round;fill:none;" />
<path d="M2089.999,1182.508 A670.000,670.000 40.000 0,1 2120.177,1246.465 L2194.228,1216.192 A750.000,750.000 0.000 0,0 2160.447,1144.599 Z" style="stroke-width:2.0;stroke:rgb(115,115,115);stroke-linecap:round;fill:rgb(153,204,255);" />
<text x="2256.2" y="1170.3" font-size="65.0px" font-family="CMUBright-Roman" style="text-anchor:start;fill:rgb(0,0,0);" transform="rotate(334.7,2256.2,1170.3)" >22-ParG</text>
<path d="M2089.999,1182.508 A670.000,670.000 40.000 0,1 2120.177,1246.465 L2194.228,1216.192 A750.000,750.000 0.000 0,0 2160.447,1144.599 Z" style="stroke-width:2.0;stroke:rgb(115,115,115);stroke-linecap:round;fill:none;" />
<path d="M2137.208,1292.959 A670.000,670.000 40.000 0,1 2155.481,1361.276 L2233.748,1344.712 A750.000,750.000 0.000 0,0 2213.292,1268.237 Z" style="stroke-width:2.0;stroke:rgb(115,115,115);stroke-linecap:round;fill:rgb(116,196,118);" />
<text x="2303.0" y="1310.6" font-size="65.0px" font-family="CMUBright-Roman" style="text-anchor:start;fill:rgb(0,0,0);" transform="rotate(345.0,2303.0,1310.6)" >3-COC</text>
<path d="M2137.208,1292.959 A670.000,670.000 40.000 0,1 2155.481,1361.276 L2233.748,1344.712 A750.000,750.000 0.000 0,0 2213.292,1268.237 Z" style="stroke-width:2.0;stroke:rgb(115,115,115);stroke-linecap:round;fill:none;" />
<path d="M2163.936,1410.064 A670.000,670.000 40.000 0,1 2169.718,1480.546 L2249.684,1478.223 A750.000,750.000 0.000 0,0 2243.212,1399.325 Z" style="stroke-width:2.0;stroke:rgb(115,115,115);stroke-linecap:round;fill:rgb(116,196,118);" />
<text x="2323.9" y="1457.0" font-size="65.0px" font-family="CMUBright-Roman" style="text-anchor:start;fill:rgb(0,0,0);" transform="rotate(355.3,2323.9,1457.0)" >11-ITG</text>
<path d="M2163.936,1410.064 A670.000,670.000 40.000 0,1 2169.718,1480.546 L2249.684,1478.223 A750.000,750.000 0.000 0,0 2243.212,1399.325 Z" style="stroke-width:2.0;stroke:rgb(115,115,115);stroke-linecap:round;fill:none;" />
<path d="M2169.325,1530.059 A670.000,670.000 40.000 0,1 2162.429,1600.441 L2241.524,1612.434 A750.000,750.000 0.000 0,0 2249.245,1533.649 Z" style="stroke-width:2.0;stroke:rgb(115,115,115);stroke-linecap:round;fill:rgb(116,196,118);" />
<text x="2318.4" y="1603.8" font-size="65.0px" font-family="CMUBright-Roman" style="text-anchor:start;fill:rgb(0,0,0);" transform="rotate(5.6,2318.4,1603.8)" >24-PP</text>
<path d="M2169.325,1530.059 A670.000,670.000 40.000 0,1 2162.429,1600.441 L2241.524,1612.434 A750.000,750.000 0.000 0,0 2249.245,1533.649 Z" style="stroke-width:2.0;stroke:rgb(115,115,115);stroke-linecap:round;fill:none;" />
<path d="M2153.202,1649.089 A670.000,670.000 40.000 0,1 2133.849,1717.108 L2209.532,1743.032 A750.000,750.000 0.000 0,0 2231.196,1666.891 Z" style="stroke-width:2.0;stroke:rgb(115,115,115);stroke-linecap:round;fill:rgb(116,196,118);" />
<text x="2286.6" y="1748.8" font-size="65.0px" font-family="CMUBright-Roman" style="text-anchor:start;fill:rgb(0,0,0);" transform="rotate(15.9,2286.6,1748.8)" >30-RH</text>
<path d="M2153.202,1649.089 A670.000,670.000 40.000 0,1 2133.849,1717.108 L2209.532,1743.032 A750.000,750.000 0.000 0,0 2231.196,1666.891 Z" style="stroke-width:2.0;stroke:rgb(115,115,115);stroke-linecap:round;fill:none;" />
<path d="M2116.084,1763.327 A670.000,670.000 40.000 0,1 2084.896,1826.797 L2154.734,1865.818 A750.000,750.000 0.000 0,0 2189.646,1794.769 Z" style="stroke-width:2.0;stroke:rgb(115,115,115);stroke-linecap:round;fill:rgb(116,196,118);" />
<text x="2229.3" y="1885.7" font-size="65.0px" font-family="CMUBright-Roman" style="text-anchor:start;fill:rgb(0,0,0);" transform="rotate(26.2,2229.3,1885.7)" >33-SC</text>
<path d="M2116.084,1763.327 A670.000,670.000 40.000 0,1 2084.896,1826.797 L2154.734,1865.818 A750.000,750.000 0.000 0,0 2189.646,1794.769 Z" style="stroke-width:2.0;stroke:rgb(115,115,115);stroke-linecap:round;fill:none;" />
<path d="M2059.164,1869.101 A670.000,670.000 40.000 0,1 2017.145,1925.983 L2078.893,1976.846 A750.000,750.000 0.000 0,0 2125.930,1913.173 Z" style="stroke-width:2.0;stroke:rgb(115,115,115);stroke-linecap:round;fill:rgb(116,196,118);" />
<text x="2148.7" y="2009.7" font-size="65.0px" font-family="CMUBright-Roman" style="text-anchor:start;fill:rgb(0,0,0);" transform="rotate(36.5,2148.7,2009.7)" >35-SG</text>
<path d="M2059.164,1869.101 A670.000,670.000 40.000 0,1 2017.145,1925.983 L2078.893,1976.846 A750.000,750.000 0.000 0,0 2125.930,1913.173 Z" style="stroke-width:2.0;stroke:rgb(115,115,115);stroke-linecap:round;fill:none;" />
<path d="M1984.273,1963.012 A670.000,670.000 40.000 0,1 1932.772,2011.477 L1984.446,2072.549 A750.000,750.000 0.000 0,0 2042.096,2018.297 Z" style="stroke-width:2.0;stroke:rgb(115,115,115);stroke-linecap:round;fill:rgb(153,0,204);" />
<text x="2047.3" y="2117.3" font-size="65.0px" font-family="CMUBright-Roman" style="text-anchor:start;fill:rgb(0,0,0);" transform="rotate(46.7,2047.3,2117.3)" >1-AG</text>
<path d="M1984.273,1963.012 A670.000,670.000 40.000 0,1 1932.772,2011.477 L1984.446,2072.549 A750.000,750.000 0.000 0,0 2042.096,2018.297 Z" style="stroke-width:2.0;stroke:rgb(115,115,115);stroke-linecap:round;fill:none;" />
<path d="M1893.816,2042.041 A670.000,670.000 40.000 0,1 1834.489,2080.532 L1874.428,2149.849 A750.000,750.000 0.000 0,0 1940.839,2106.763 Z" style="stroke-width:2.0;stroke:rgb(115,115,115);stroke-linecap:round;fill:rgb(153,0,204);" />
<text x="1928.3" y="2205.1" font-size="65.0px" font-family="CMUBright-Roman" style="text-anchor:start;fill:rgb(0,0,0);" transform="rotate(57.0,1928.3,2205.1)" >7-IFG</text>
<path d="M1893.816,2042.041 A670.000,670.000 40.000 0,1 1834.489,2080.532 L1874.428,2149.849 A750.000,750.000 0.000 0,0 1940.839,2106.763 Z" style="stroke-width:2.0;stroke:rgb(115,115,115);stroke-linecap:round;fill:none;" />
<path d="M1790.702,2103.649 A670.000,670.000 40.000 0,1 1725.456,2130.928 L1752.376,2206.262 A750.000,750.000 0.000 0,0 1825.413,2175.727 Z" style="stroke-width:2.0;stroke:rgb(115,115,115);stroke-linecap:round;fill:rgb(153,0,204);" />
<text x="1796.0" y="2270.1" font-size="65.0px" font-family="CMUBright-Roman" style="text-anchor:start;fill:rgb(0,0,0);" transform="rotate(67.3,1796.0,2270.1)" >9-IPL</text>
<path d="M1790.702,2103.649 A670.000,670.000 40.000 0,1 1725.456,2130.928 L1752.376,2206.262 A750.000,750.000 0.000 0,0 1825.413,2175.727 Z" style="stroke-width:2.0;stroke:rgb(115,115,115);stroke-linecap:round;fill:none;" />
<path d="M1678.245,2145.855 A670.000,670.000 40.000 0,1 1609.176,2161.045 L1622.212,2239.976 A750.000,750.000 0.000 0,0 1699.528,2222.972 Z" style="stroke-width:2.0;stroke:rgb(115,115,115);stroke-linecap:round;fill:rgb(153,0,204);" />
<text x="1653.2" y="2310.7" font-size="65.0px" font-family="CMUBright-Roman" style="text-anchor:start;fill:rgb(0,0,0);" transform="rotate(77.6,1653.2,2310.7)" >13-LCI</text>
<path d="M1678.245,2145.855 A670.000,670.000 40.000 0,1 1609.176,2161.045 L1622.212,2239.976 A750.000,750.000 0.000 0,0 1699.528,2222.972 Z" style="stroke-width:2.0;stroke:rgb(115,115,115);stroke-linecap:round;fill:none;" />
<path d="M1560.058,2167.303 A670.000,670.000 40.000 0,1 1489.388,2169.916 L1488.121,2249.906 A750.000,750.000 0.000 0,0 1567.229,2246.981 Z" style="stroke-width:2.0;stroke:rgb(115,115,115);stroke-linecap:round;fill:rgb(153,0,204);" />
<text x="1506.0" y="2325.0" font-size="65.0px" font-family="CMUBright-Roman" style="text-anchor:start;fill:rgb(0,0,0);" transform="rotate(87.9,1506.0,2325.0)" >25-PosG</text>
<path d="M1560.058,2167.303 A670.000,670.000 40.000 0,1 1489.388,2169.916 L1488.121,2249.906 A750.000,750.000 0.000 0,0 1567.229,2246.981 Z" style="stroke-width:2.0;stroke:rgb(115,115,115);stroke-linecap:round;fill:none;" />
<path d="M1439.942,2167.303 A670.000,670.000 40.000 0,1 1369.940,2157.255 L1354.411,2235.733 A750.000,750.000 0.000 0,0 1432.771,2246.981 Z" style="stroke-width:2.0;stroke:rgb(115,115,115);stroke-linecap:round;fill:rgb(153,0,204);" />
<text x="1407.1" y="2319.8" font-size="65.0px" font-family="CMUBright-Roman" style="text-anchor:end;fill:rgb(0,0,0);" transform="rotate(-81.8,1407.1,2319.8)" >26-PC</text>
<path d="M1439.942,2167.303 A670.000,670.000 40.000 0,1 1369.940,2157.255 L1354.411,2235.733 A750.000,750.000 0.000 0,0 1432.771,2246.981 Z" style="stroke-width:2.0;stroke:rgb(115,115,115);stroke-linecap:round;fill:none;" />
<path d="M1321.755,2145.855 A670.000,670.000 40.000 0,1 1254.673,2123.470 L1225.380,2197.914 A750.000,750.000 0.000 0,0 1300.472,2222.972 Z" style="stroke-width:2.0;stroke:rgb(115,115,115);stroke-linecap:round;fill:rgb(153,0,204);" />
<text x="1262.2" y="2290.0" font-size="65.0px" font-family="CMUBright-Roman" style="text-anchor:end;fill:rgb(0,0,0);" transform="rotate(-71.5,1262.2,2290.0)" >28-RCI</text>
<path d="M1321.755,2145.855 A670.000,670.000 40.000 0,1 1254.673,2123.470 L1225.380,2197.914 A750.000,750.000 0.000 0,0 1300.472,2222.972 Z" style="stroke-width:2.0;stroke:rgb(115,115,115);stroke-linecap:round;fill:none;" />
<path d="M1209.298,2103.649 A670.000,670.000 40.000 0,1 1147.290,2069.645 L1105.176,2137.663 A750.000,750.000 0.000 0,0 1174.587,2175.727 Z" style="stroke-width:2.0;stroke:rgb(115,115,115);stroke-linecap:round;fill:rgb(253,208,162);" />
<text x="1125.0" y="2234.8" font-size="65.0px" font-family="CMUBright-Roman" style="text-anchor:end;fill:rgb(0,0,0);" transform="rotate(-61.3,1125.0,2234.8)" >12-LOC</text>
<path d="M1209.298,2103.649 A670.000,670.000 40.000 0,1 1147.290,2069.645 L1105.176,2137.663 A750.000,750.000 0.000 0,0 1174.587,2175.727 Z" style="stroke-width:2.0;stroke:rgb(115,115,115);stroke-linecap:round;fill:none;" />
<path d="M1106.184,2042.041 A670.000,670.000 40.000 0,1 1051.245,1997.512 L997.662,2056.917 A750.000,750.000 0.000 0,0 1059.161,2106.763 Z" style="stroke-width:2.0;stroke:rgb(115,115,115);stroke-linecap:round;fill:rgb(253,208,162);" />
<text x="999.0" y="2155.5" font-size="65.0px" font-family="CMUBright-Roman" style="text-anchor:end;fill:rgb(0,0,0);" transform="rotate(-51.0,999.0,2155.5)" >14-LIX</text>
<path d="M1106.184,2042.041 A670.000,670.000 40.000 0,1 1051.245,1997.512 L997.662,2056.917 A750.000,750.000 0.000 0,0 1059.161,2106.763 Z" style="stroke-width:2.0;stroke:rgb(115,115,115);stroke-linecap:round;fill:none;" />
<path d="M1015.727,1963.012 A670.000,670.000 40.000 0,1 969.622,1909.389 L906.293,1958.271 A750.000,750.000 0.000 0,0 957.904,2018.297 Z" style="stroke-width:2.0;stroke:rgb(115,115,115);stroke-linecap:round;fill:rgb(253,208,162);" />
<text x="890.7" y="2056.2" font-size="65.0px" font-family="CMUBright-Roman" style="text-anchor:end;fill:rgb(0,0,0);" transform="rotate(-40.7,890.7,2056.2)" >16-LG</text>
<path d="M1015.727,1963.012 A670.000,670.000 40.000 0,1 969.622,1909.389 L906.293,1958.271 A750.000,750.000 0.000 0,0 957.904,2018.297 Z" style="stroke-width:2.0;stroke:rgb(115,115,115);stroke-linecap:round;fill:none;" />
<path d="M940.836,1869.101 A670.000,670.000 40.000 0,1 905.046,1808.107 L834.007,1844.896 A750.000,750.000 0.000 0,0 874.070,1913.173 Z" style="stroke-width:2.0;stroke:rgb(115,115,115);stroke-linecap:round;fill:rgb(253,208,162);" />
<text x="801.2" y="1938.5" font-size="65.0px" font-family="CMUBright-Roman" style="text-anchor:end;fill:rgb(0,0,0);" transform="rotate(-30.4,801.2,1938.5)" >20-OFG</text>
<path d="M940.836,1869.101 A670.000,670.000 40.000 0,1 905.046,1808.107 L834.007,1844.896 A750.000,750.000 0.000 0,0 874.070,1913.173 Z" style="stroke-width:2.0;stroke:rgb(115,115,115);stroke-linecap:round;fill:none;" />
<path d="M883.916,1763.327 A670.000,670.000 40.000 0,1 859.593,1696.922 L783.126,1720.436 A750.000,750.000 0.000 0,0 810.354,1794.769 Z" style="stroke-width:2.0;stroke:rgb(115,115,115);stroke-linecap:round;fill:rgb(253,208,162);" />
<text x="734.1" y="1806.6" font-size="65.0px" font-family="CMUBright-Roman" style="text-anchor:end;fill:rgb(0,0,0);" transform="rotate(-20.1,734.1,1806.6)" >21-OP</text>
<path d="M883.916,1763.327 A670.000,670.000 40.000 0,1 859.593,1696.922 L783.126,1720.436 A750.000,750.000 0.000 0,0 810.354,1794.769 Z" style="stroke-width:2.0;stroke:rgb(115,115,115);stroke-linecap:round;fill:none;" />
<path d="M846.798,1649.089 A670.000,670.000 40.000 0,1 834.722,1579.409 L755.286,1588.890 A750.000,750.000 0.000 0,0 768.804,1666.891 Z" style="stroke-width:2.0;stroke:rgb(115,115,115);stroke-linecap:round;fill:rgb(253,208,162);" />
<text x="691.6" y="1664.5" font-size="65.0px" font-family="CMUBright-Roman" style="text-anchor:end;fill:rgb(0,0,0);" transform="rotate(-9.8,691.6,1664.5)" >23-PP</text>
<path d="M846.798,1649.089 A670.000,670.000 40.000 0,1 834.722,1579.409 L755.286,1588.890 A750.000,750.000 0.000 0,0 768.804,1666.891 Z" style="stroke-width:2.0;stroke:rgb(115,115,115);stroke-linecap:round;fill:none;" />
<path d="M830.675,1530.059 A670.000,670.000 40.000 0,1 831.235,1459.343 L751.382,1454.488 A750.000,750.000 0.000 0,0 750.755,1533.649 Z" style="stroke-width:2.0;stroke:rgb(115,115,115);stroke-linecap:round;fill:rgb(253,141,60);" />
<text x="675.2" y="1518.0" font-size="65.0px" font-family="CMUBright-Roman" style="text-anchor:end;fill:rgb(0,0,0);" transform="rotate(0.5,675.2,1518.0)" >2-COC</text>
<path d="M830.675,1530.059 A670.000,670.000 40.000 0,1 831.235,1459.343 L751.382,1454.488 A750.000,750.000 0.000 0,0 750.755,1533.649 Z" style="stroke-width:2.0;stroke:rgb(115,115,115);stroke-linecap:round;fill:none;" />
<path d="M836.064,1410.064 A670.000,670.000 40.000 0,1 849.242,1340.583 L771.539,1321.549 A750.000,750.000 0.000 0,0 756.788,1399.325 Z" style="stroke-width:2.0;stroke:rgb(115,115,115);stroke-linecap:round;fill:rgb(253,141,60);" />
<text x="685.3" y="1369.9" font-size="65.0px" font-family="CMUBright-Roman" style="text-anchor:end;fill:rgb(0,0,0);" transform="rotate(10.7,685.3,1369.9)" >15-LVIIIb</text>
<path d="M836.064,1410.064 A670.000,670.000 40.000 0,1 849.242,1340.583 L771.539,1321.549 A750.000,750.000 0.000 0,0 756.788,1399.325 Z" style="stroke-width:2.0;stroke:rgb(115,115,115);stroke-linecap:round;fill:none;" />
<path d="M862.792,1292.959 A670.000,670.000 40.000 0,1 888.165,1226.948 L815.110,1194.345 A750.000,750.000 0.000 0,0 786.708,1268.237 Z" style="stroke-width:2.0;stroke:rgb(115,115,115);stroke-linecap:round;fill:rgb(253,141,60);" />
<text x="721.6" y="1226.5" font-size="65.0px" font-family="CMUBright-Roman" style="text-anchor:end;fill:rgb(0,0,0);" transform="rotate(21.0,721.6,1226.5)" >31-RLV</text>
<path d="M862.792,1292.959 A670.000,670.000 40.000 0,1 888.165,1226.948 L815.110,1194.345 A750.000,750.000 0.000 0,0 786.708,1268.237 Z" style="stroke-width:2.0;stroke:rgb(115,115,115);stroke-linecap:round;fill:none;" />
<path d="M910.001,1182.508 A670.000,670.000 40.000 0,1 946.752,1122.089 L880.693,1076.965 A750.000,750.000 0.000 0,0 839.553,1144.599 Z" style="stroke-width:2.0;stroke:rgb(115,115,115);stroke-linecap:round;fill:rgb(253,141,60);" />
<text x="783.0" y="1091.9" font-size="65.0px" font-family="CMUBright-Roman" style="text-anchor:end;fill:rgb(0,0,0);" transform="rotate(31.3,783.0,1091.9)" >32-RLV</text>
<path d="M910.001,1182.508 A670.000,670.000 40.000 0,1 946.752,1122.089 L880.693,1076.965 A750.000,750.000 0.000 0,0 839.553,1144.599 Z" style="stroke-width:2.0;stroke:rgb(115,115,115);stroke-linecap:round;fill:none;" />
<path d="M976.173,1082.262 A670.000,670.000 40.000 0,1 1023.122,1029.376 L966.181,973.182 A750.000,750.000 0.000 0,0 913.626,1032.383 Z" style="stroke-width:2.0;stroke:rgb(115,115,115);stroke-linecap:round;fill:rgb(66,146,198);" />
<text x="867.0" y="970.9" font-size="65.0px" font-family="CMUBright-Roman" style="text-anchor:end;fill:rgb(0,0,0);" transform="rotate(41.6,867.0,970.9)" >17-MFG</text>
<path d="M976.173,1082.262 A670.000,670.000 40.000 0,1 1023.122,1029.376 L966.181,973.182 A750.000,750.000 0.000 0,0 913.626,1032.383 Z" style="stroke-width:2.0;stroke:rgb(115,115,115);stroke-linecap:round;fill:none;" />
<path d="M1059.181,995.442 A670.000,670.000 40.000 0,1 1114.819,951.789 L1068.827,886.331 A750.000,750.000 0.000 0,0 1006.546,935.196 Z" style="stroke-width:2.0;stroke:rgb(115,115,115);stroke-linecap:round;fill:rgb(66,146,198);" />
<text x="971.7" y="866.3" font-size="65.0px" font-family="CMUBright-Roman" style="text-anchor:end;fill:rgb(0,0,0);" transform="rotate(51.9,971.7,866.3)" >18-MTG</text>
<path d="M1059.181,995.442 A670.000,670.000 40.000 0,1 1114.819,951.789 L1068.827,886.331 A750.000,750.000 0.000 0,0 1006.546,935.196 Z" style="stroke-width:2.0;stroke:rgb(115,115,115);stroke-linecap:round;fill:none;" />
<path d="M1156.357,924.839 A670.000,670.000 40.000 0,1 1218.896,891.822 L1185.331,819.204 A750.000,750.000 0.000 0,0 1115.326,856.163 Z" style="stroke-width:2.0;stroke:rgb(115,115,115);stroke-linecap:round;fill:rgb(66,146,198);" />
<text x="1093.3" y="782.2" font-size="65.0px" font-family="CMUBright-Roman" style="text-anchor:end;fill:rgb(0,0,0);" transform="rotate(62.2,1093.3,782.2)" >27-RCI</text>
<path d="M1156.357,924.839 A670.000,670.000 40.000 0,1 1218.896,891.822 L1185.331,819.204 A750.000,750.000 0.000 0,0 1115.326,856.163 Z" style="stroke-width:2.0;stroke:rgb(115,115,115);stroke-linecap:round;fill:none;" />
<path d="M1264.579,872.723 A670.000,670.000 40.000 0,1 1332.008,851.403 L1311.949,773.958 A750.000,750.000 0.000 0,0 1236.469,797.824 Z" style="stroke-width:2.0;stroke:rgb(115,115,115);stroke-linecap:round;fill:rgb(66,146,198);" />
<text x="1228.0" y="721.1" font-size="65.0px" font-family="CMUBright-Roman" style="text-anchor:end;fill:rgb(0,0,0);" transform="rotate(72.5,1228.0,721.1)" >29-RCI</text>
<path d="M1264.579,872.723 A670.000,670.000 40.000 0,1 1332.008,851.403 L1311.949,773.958 A750.000,750.000 0.000 0,0 1236.469,797.824 Z" style="stroke-width:2.0;stroke:rgb(115,115,115);stroke-linecap:round;fill:none;" />
<path d="M1380.367,840.767 A670.000,670.000 40.000 0,1 1450.519,831.830 L1444.611,752.048 A750.000,750.000 0.000 0,0 1366.082,762.053 Z" style="stroke-width:2.0;stroke:rgb(115,115,115);stroke-linecap:round;fill:rgb(66,146,198);" />
<text x="1371.5" y="685.1" font-size="65.0px" font-family="CMUBright-Roman" style="text-anchor:end;fill:rgb(0,0,0);" transform="rotate(82.7,1371.5,685.1)" >34-SG</text>
<path d="M1380.367,840.767 A670.000,670.000 40.000 0,1 1450.519,831.830 L1444.611,752.048 A750.000,750.000 0.000 0,0 1366.082,762.053 Z" style="stroke-width:2.0;stroke:rgb(115,115,115);stroke-linecap:round;fill:none;" />
</g>
<g id="track_1">
<path d="M 1936.2,1963.5 L 1916.1,1941.8 1896.2,1919.6 1876.5,1896.9 1857.0,1873.6 1837.9,1849.9 1819.1,1825.7 1800.7,1801.0 1782.8,1775.8 1765.3,1750.2 1748.2,1724.1 1731.8,1697.6 1715.8,1670.7 1700.4,1643.4 1685.7,1615.8 1671.5,1587.7 1658.0,1559.3 1645.1,1530.6 1632.9,1501.6 1621.4,1472.3 1610.6,1442.7 1600.4,1412.9 1591.0,1382.9 1582.3,1352.7 1574.3,1322.3 1567.0,1291.7 1560.4,1261.0 1554.5,1230.3 1549.3,1199.4 1544.8,1168.6 1540.9,1137.7 1537.7,1106.8 1535.2,1076.0 1533.3,1045.3 1532.0,1014.6 1531.2,984.2 1531.0,953.9 1531.4,923.8 1532.3,893.9 1533.6,864.4  " style="stroke-opacity: 1.000000; stroke-width: 5.0; stroke: rgb(251,106,74); fill: none"  />
<path d="M 1936.2,1963.5 L 1917.9,1943.6 1899.9,1923.0 1882.4,1901.9 1865.4,1880.2 1849.2,1858.1 1833.6,1835.5 1818.9,1812.5 1805.0,1789.0 1792.1,1765.2 1780.2,1741.1 1769.3,1716.7 1759.6,1692.0 1751.0,1667.1 1743.5,1642.0 1737.3,1616.7 1732.4,1591.3 1728.7,1565.8 1726.3,1540.2 1725.2,1514.6 1725.4,1489.0 1726.9,1463.4 1729.7,1437.8 1733.8,1412.4 1739.2,1387.0 1745.8,1361.9 1753.6,1336.9 1762.6,1312.1 1772.7,1287.6 1783.9,1263.3 1796.2,1239.4 1809.5,1215.8 1823.8,1192.6 1838.9,1169.8 1854.8,1147.5 1871.4,1125.6 1888.7,1104.2 1906.5,1083.4 1924.8,1063.1 1943.5,1043.4  " style="stroke-opacity: 1.000000; stroke-width: 5.0; stroke: rgb(251,106,74); fill: none"  />
<path d="M 1936.2,1963.5 L 1914.0,1940.0 1891.8,1916.5 1869.5,1893.0 1847.1,1869.6 1824.6,1846.1 1802.1,1822.6 1779.5,1799.2 1756.8,1775.8 1734.0,1752.5 1711.2,1729.1 1688.2,1705.8 1665.2,1682.6 1642.2,1659.3 1619.0,1636.2 1595.8,1613.1 1572.6,1590.0 1549.2,1567.0 1525.8,1544.0 1502.4,1521.1 1478.8,1498.2 1455.3,1475.5 1431.6,1452.7 1407.9,1430.1 1384.2,1407.5 1360.4,1385.0 1336.6,1362.5 1312.7,1340.1 1288.8,1317.8 1264.8,1295.6 1240.9,1273.4 1216.8,1251.3 1192.8,1229.3 1168.7,1207.4 1144.6,1185.5 1120.5,1163.8 1096.4,1142.1 1072.3,1120.4 1048.1,1098.9 1024.0,1077.4  " style="stroke-opacity: 1.000000; stroke-width: 5.0; stroke: rgb(251,106,74); fill: none"  />
<path d="M 1936.2,1963.5 L 1915.6,1941.4 1895.1,1918.8 1874.8,1895.7 1854.7,1872.2 1834.8,1848.3 1815.1,1824.0 1795.8,1799.3 1776.7,1774.1 1758.0,1748.6 1739.6,1722.6 1721.6,1696.3 1704.0,1669.6 1686.9,1642.6 1670.2,1615.2 1653.9,1587.5 1638.1,1559.5 1622.8,1531.1 1608.0,1502.5 1593.8,1473.6 1580.0,1444.4 1566.8,1415.0 1554.1,1385.4 1541.9,1355.6 1530.3,1325.6 1519.3,1295.4 1508.8,1265.1 1498.8,1234.7 1489.4,1204.1 1480.5,1173.5 1472.2,1142.8 1464.3,1112.1 1457.1,1081.4 1450.3,1050.7 1444.0,1020.1 1438.2,989.5 1432.9,959.1 1428.0,928.8 1423.6,898.6 1419.6,868.6  " style="stroke-opacity: 1.000000; stroke-width: 5.0; stroke: rgb(251,106,74); fill: none"  />
<path d="M 1533.6,864.4 L 1532.3,893.9 1531.4,923.8 1531.0,953.9 1531.2,984.2 1532.0,1014.6 1533.3,1045.3 1535.2,1076.0 1537.7,1106.8 1540.9,1137.7 1544.8,1168.6 1549.3,1199.4 1554.5,1230.3 1560.4,1261.0 1567.0,1291.7 1574.3,1322.3 1582.3,1352.7 1591.0,1382.9 1600.4,1412.9 1610.6,1442.7 1621.4,1472.3 1632.9,1501.6 1645.1,1530.6 1658.0,1559.3 1671.5,1587.7 1685.7,1615.8 1700.4,1643.4 1715.8,1670.7 1731.8,1697.6 1748.2,1724.1 1765.3,1750.2 1782.8,1775.8 1800.7,1801.0 1819.1,1825.7 1837.9,1849.9 1857.0,1873.6 1876.5,1896.9 1896.2,1919.6 1916.1,1941.8 1936.2,1963.5  " style="stroke-opacity: 1.000000; stroke-width: 5.0; stroke: rgb(251,106,74); fill: none"  />
<path d="M 1646.5,880.6 L 1639.1,912.0 1631.5,943.5 1623.9,975.0 1616.3,1006.5 1608.5,1038.1 1600.7,1069.6 1592.8,1101.2 1584.8,1132.8 1576.7,1164.4 1568.6,1196.1 1560.3,1227.7 1552.0,1259.3 1543.6,1291.0 1535.2,1322.6 1526.6,1354.2 1518.0,1385.8 1509.2,1417.4 1500.4,1449.0 1491.5,1480.5 1482.6,1512.1 1473.5,1543.6 1464.4,1575.1 1455.1,1606.5 1445.9,1638.0 1436.5,1669.4 1427.1,1700.7 1417.5,1732.0 1408.0,1763.3 1398.3,1794.5 1388.6,1825.7 1378.8,1856.8 1368.9,1887.9 1359.0,1918.9 1349.1,1949.9 1339.1,1980.8 1329.0,2011.6 1318.9,2042.4 1308.7,2073.1 1298.5,2103.8  " style="stroke-opacity: 1.000000; stroke-width: 5.0; stroke: rgb(251,106,74); fill: none"  />
<path d="M 1754.8,916.7 L 1743.5,943.3 1732.5,970.4 1722.1,997.9 1712.1,1025.8 1702.7,1054.1 1694.0,1082.7 1685.8,1111.7 1678.3,1140.9 1671.6,1170.4 1665.6,1200.1 1660.3,1229.9 1655.9,1260.0 1652.3,1290.2 1649.5,1320.5 1647.6,1350.8 1646.5,1381.3 1646.4,1411.7 1647.1,1442.1 1648.7,1472.5 1651.2,1502.9 1654.5,1533.1 1658.8,1563.3 1663.9,1593.3 1669.9,1623.1 1676.8,1652.8 1684.5,1682.2 1692.9,1711.4 1702.2,1740.3 1712.2,1768.9 1723.0,1797.3 1734.5,1825.2 1746.6,1852.9 1759.4,1880.1 1772.7,1906.9 1786.6,1933.3 1800.9,1959.2 1815.7,1984.6 1830.9,2009.6 1846.4,2034.0  " style="stroke-opacity: 1.000000; stroke-width: 5.0; stroke: rgb(251,106,74); fill: none"  />
<path d="M 1846.4,2034.0 L 1830.9,2009.6 1815.7,1984.6 1800.9,1959.2 1786.6,1933.3 1772.7,1906.9 1759.4,1880.1 1746.6,1852.9 1734.5,1825.2 1723.0,1797.3 1712.2,1768.9 1702.2,1740.3 1692.9,1711.4 1684.5,1682.2 1676.8,1652.8 1669.9,1623.1 1663.9,1593.3 1658.8,1563.3 1654.5,1533.1 1651.2,1502.9 1648.7,1472.5 1647.1,1442.1 1646.4,1411.7 1646.5,1381.3 1647.6,1350.8 1649.5,1320.5 1652.3,1290.2 1655.9,1260.0 1660.3,1229.9 1665.6,1200.1 1671.6,1170.4 1678.3,1140.9 1685.8,1111.7 1694.0,1082.7 1702.7,1054.1 1712.1,1025.8 1722.1,997.9 1732.5,970.4 1743.5,943.3 1754.8,916.7  " style="stroke-opacity: 1.000000; stroke-width: 5.0; stroke: rgb(251,106,74); fill: none"  />
<path d="M 1846.4,2034.0 L 1829.1,2007.5 1811.6,1981.0 1793.9,1954.5 1776.0,1928.0 1757.8,1901.5 1739.4,1875.1 1720.8,1848.7 1701.9,1822.3 1682.8,1796.1 1663.5,1769.9 1643.9,1743.8 1624.2,1717.7 1604.2,1691.8 1584.0,1666.0 1563.6,1640.4 1542.9,1614.8 1522.1,1589.4 1501.0,1564.2 1479.8,1539.1 1458.3,1514.1 1436.7,1489.4 1414.9,1464.8 1392.9,1440.3 1370.8,1416.1 1348.4,1392.1 1326.0,1368.2 1303.3,1344.6 1280.6,1321.1 1257.7,1297.9 1234.7,1274.9 1211.6,1252.1 1188.3,1229.5 1165.0,1207.1 1141.7,1184.9 1118.2,1163.0 1094.7,1141.3 1071.2,1119.8 1047.6,1098.5 1024.0,1077.4  " style="stroke-opacity: 1.000000; stroke-width: 5.0; stroke: rgb(251,106,74); fill: none"  />
<path d="M 1846.4,2034.0 L 1830.8,2010.4 1814.5,1987.0 1797.5,1963.7 1779.9,1940.8 1761.7,1918.2 1742.7,1896.0 1723.2,1874.2 1703.0,1853.0 1682.2,1832.4 1660.8,1812.4 1638.7,1793.1 1616.1,1774.5 1592.9,1756.7 1569.2,1739.7 1544.9,1723.5 1520.0,1708.2 1494.7,1693.8 1468.9,1680.2 1442.7,1667.6 1416.0,1656.0 1388.9,1645.3 1361.4,1635.5 1333.6,1626.8 1305.5,1619.0 1277.1,1612.2 1248.5,1606.3 1219.7,1601.4 1190.7,1597.4 1161.5,1594.4 1132.3,1592.2 1103.1,1591.0 1073.8,1590.6 1044.6,1591.0 1015.4,1592.2 986.4,1594.2 957.6,1596.8 929.0,1600.2 900.8,1604.1 872.8,1608.7  " style="stroke-opacity: 1.000000; stroke-width: 5.0; stroke: rgb(251,106,74); fill: none"  />
<path d="M 1846.4,2034.0 L 1829.7,2007.9 1813.1,1981.6 1796.7,1954.9 1780.4,1928.0 1764.4,1900.7 1748.6,1873.1 1733.0,1845.2 1717.6,1817.1 1702.6,1788.7 1687.8,1760.0 1673.3,1731.1 1659.2,1701.9 1645.3,1672.5 1631.8,1642.9 1618.7,1613.0 1605.9,1583.0 1593.5,1552.8 1581.5,1522.4 1569.9,1491.8 1558.6,1461.1 1547.8,1430.3 1537.3,1399.3 1527.3,1368.2 1517.6,1337.0 1508.4,1305.8 1499.5,1274.4 1491.1,1243.1 1483.1,1211.6 1475.4,1180.2 1468.2,1148.8 1461.3,1117.4 1454.9,1086.0 1448.8,1054.6 1443.0,1023.3 1437.7,992.2 1432.6,961.1 1428.0,930.1 1423.6,899.3 1419.6,868.6  " style="stroke-opacity: 1.000000; stroke-width: 5.0; stroke: rgb(251,106,74); fill: none"  />
<path d="M 1745.5,2087.2 L 1734.9,2061.0 1724.7,2034.3 1715.1,2007.2 1706.1,1979.7 1697.7,1951.9 1690.0,1923.8 1683.1,1895.4 1677.0,1866.8 1671.7,1837.9 1667.3,1809.0 1663.8,1779.9 1661.2,1750.7 1659.6,1721.5 1658.9,1692.3 1659.3,1663.1 1660.6,1634.0 1663.0,1604.9 1666.4,1576.0 1670.8,1547.2 1676.2,1518.6 1682.6,1490.2 1690.1,1462.0 1698.5,1434.1 1707.9,1406.5 1718.3,1379.2 1729.6,1352.3 1741.8,1325.7 1754.9,1299.5 1768.8,1273.7 1783.5,1248.4 1799.0,1223.5 1815.2,1199.1 1832.0,1175.2 1849.4,1151.9 1867.4,1129.0 1885.9,1106.7 1904.8,1085.0 1924.0,1063.9 1943.5,1043.4  " style="stroke-opacity: 1.000000; stroke-width: 5.0; stroke: rgb(251,106,74); fill: none"  />
<path d="M 1745.5,2087.2 L 1733.5,2058.8 1721.1,2030.2 1708.3,2001.6 1695.2,1973.0 1681.7,1944.3 1667.9,1915.7 1653.7,1887.1 1639.1,1858.6 1624.1,1830.1 1608.8,1801.7 1593.0,1773.5 1576.9,1745.3 1560.5,1717.3 1543.6,1689.5 1526.4,1661.8 1508.8,1634.3 1490.8,1607.0 1472.5,1579.9 1453.8,1553.1 1434.8,1526.5 1415.5,1500.1 1395.8,1474.0 1375.8,1448.2 1355.5,1422.6 1334.9,1397.3 1314.0,1372.4 1292.9,1347.7 1271.5,1323.4 1249.8,1299.3 1227.9,1275.6 1205.8,1252.2 1183.6,1229.2 1161.1,1206.5 1138.5,1184.1 1115.8,1162.1 1093.0,1140.4 1070.0,1119.1 1047.0,1098.1 1024.0,1077.4  " style="stroke-opacity: 1.000000; stroke-width: 5.0; stroke: rgb(251,106,74); fill: none"  />
<path d="M 1745.5,2087.2 L 1733.2,2058.1 1720.8,2028.9 1708.0,1999.7 1695.1,1970.4 1682.0,1941.1 1668.6,1911.8 1654.9,1882.5 1641.1,1853.2 1627.0,1824.0 1612.7,1794.7 1598.1,1765.5 1583.3,1736.4 1568.3,1707.4 1553.0,1678.4 1537.5,1649.5 1521.7,1620.6 1505.8,1591.9 1489.6,1563.3 1473.1,1534.8 1456.5,1506.5 1439.6,1478.2 1422.6,1450.1 1405.3,1422.2 1387.8,1394.4 1370.1,1366.7 1352.3,1339.3 1334.2,1312.0 1316.0,1284.8 1297.7,1257.9 1279.1,1231.1 1260.5,1204.6 1241.7,1178.2 1222.7,1152.0 1203.7,1126.0 1184.5,1100.2 1165.3,1074.7 1145.9,1049.3 1126.6,1024.2 1107.1,999.2  " style="stroke-opacity: 1.000000; stroke-width: 5.0; stroke: rgb(251,106,74); fill: none"  />
<path d="M 1745.5,2087.2 L 1733.4,2058.0 1721.4,2028.6 1709.5,1999.1 1697.8,1969.3 1686.2,1939.3 1674.7,1909.2 1663.4,1879.0 1652.3,1848.5 1641.4,1817.9 1630.6,1787.2 1620.1,1756.3 1609.8,1725.4 1599.6,1694.2 1589.7,1663.0 1580.1,1631.7 1570.6,1600.2 1561.4,1568.7 1552.4,1537.0 1543.7,1505.3 1535.2,1473.6 1526.9,1441.7 1518.9,1409.9 1511.1,1377.9 1503.6,1346.0 1496.4,1314.0 1489.4,1282.0 1482.6,1249.9 1476.1,1217.9 1469.8,1185.9 1463.8,1153.9 1458.0,1122.0 1452.4,1090.1 1447.1,1058.2 1442.0,1026.4 1437.1,994.6 1432.4,963.0 1427.9,931.4 1423.6,900.0 1419.6,868.6  " style="stroke-opacity: 1.000000; stroke-width: 5.0; stroke: rgb(251,106,74); fill: none"  />
<path d="M 1943.5,1043.4 L 1924.8,1063.1 1906.5,1083.4 1888.7,1104.2 1871.4,1125.6 1854.8,1147.5 1838.9,1169.8 1823.8,1192.6 1809.5,1215.8 1796.2,1239.4 1783.9,1263.3 1772.7,1287.6 1762.6,1312.1 1753.6,1336.9 1745.8,1361.9 1739.2,1387.0 1733.8,1412.4 1729.7,1437.8 1726.9,1463.4 1725.4,1489.0 1725.2,1514.6 1726.3,1540.2 1728.7,1565.8 1732.4,1591.3 1737.3,1616.7 1743.5,1642.0 1751.0,1667.1 1759.6,1692.0 1769.3,1716.7 1780.2,1741.1 1792.1,1765.2 1805.0,1789.0 1818.9,1812.5 1833.6,1835.5 1849.2,1858.1 1865.4,1880.2 1882.4,1901.9 1899.9,1923.0 1917.9,1943.6 1936.2,1963.5  " style="stroke-opacity: 1.000000; stroke-width: 5.0; stroke: rgb(251,106,74); fill: none"  />
<path d="M 1943.5,1043.4 L 1924.0,1063.9 1904.8,1085.0 1885.9,1106.7 1867.4,1129.0 1849.4,1151.9 1832.0,1175.2 1815.2,1199.1 1799.0,1223.5 1783.5,1248.4 1768.8,1273.7 1754.9,1299.5 1741.8,1325.7 1729.6,1352.3 1718.3,1379.2 1707.9,1406.5 1698.5,1434.1 1690.1,1462.0 1682.6,1490.2 1676.2,1518.6 1670.8,1547.2 1666.4,1576.0 1663.0,1604.9 1660.6,1634.0 1659.3,1663.1 1658.9,1692.3 1659.6,1721.5 1661.2,1750.7 1663.8,1779.9 1667.3,1809.0 1671.7,1837.9 1677.0,1866.8 1683.1,1895.4 1690.0,1923.8 1697.7,1951.9 1706.1,1979.7 1715.1,2007.2 1724.7,2034.3 1734.9,2061.0 1745.5,2087.2  " style="stroke-opacity: 1.000000; stroke-width: 5.0; stroke: rgb(251,106,74); fill: none"  />
<path d="M 1943.5,1043.4 L 1922.6,1065.3 1901.7,1087.5 1881.0,1110.3 1860.6,1133.4 1840.3,1157.0 1820.2,1181.0 1800.5,1205.4 1781.0,1230.3 1761.9,1255.5 1743.1,1281.2 1724.7,1307.2 1706.7,1333.6 1689.1,1360.4 1672.0,1387.5 1655.3,1415.0 1639.1,1442.7 1623.3,1470.8 1608.1,1499.2 1593.3,1527.9 1579.1,1556.8 1565.4,1586.0 1552.3,1615.4 1539.6,1645.1 1527.6,1674.9 1516.0,1704.9 1505.0,1735.0 1494.6,1765.3 1484.7,1795.7 1475.3,1826.2 1466.5,1856.7 1458.2,1887.3 1450.4,1917.8 1443.2,1948.4 1436.4,1978.9 1430.1,2009.4 1424.3,2039.8 1419.0,2070.0 1414.1,2100.1 1409.6,2130.0  " style="stroke-opacity: 1.000000; stroke-width: 5.0; stroke: rgb(251,106,74); fill: none"  />
<path d="M 1194.0,2058.1 L 1207.0,2033.7 1219.6,2008.7 1231.6,1983.3 1242.9,1957.5 1253.6,1931.3 1263.6,1904.8 1272.7,1878.0 1281.0,1851.0 1288.3,1823.7 1294.7,1796.3 1300.0,1768.7 1304.4,1741.1 1307.7,1713.3 1309.8,1685.6 1310.9,1657.9 1310.8,1630.3 1309.6,1602.7 1307.2,1575.3 1303.7,1548.0 1299.0,1520.9 1293.1,1494.0 1286.1,1467.4 1278.0,1441.0 1268.8,1414.9 1258.5,1389.2 1247.1,1363.8 1234.7,1338.8 1221.3,1314.3 1207.0,1290.1 1191.7,1266.4 1175.6,1243.2 1158.8,1220.5 1141.1,1198.3 1122.9,1176.7 1104.0,1155.7 1084.6,1135.2 1064.7,1115.3 1044.5,1096.1 1024.0,1077.4  " style="stroke-opacity: 1.000000; stroke-width: 5.0; stroke: rgb(251,106,74); fill: none"  />
<path d="M 1194.0,2058.1 L 1205.8,2036.7 1217.6,2015.4 1229.4,1994.6 1241.1,1974.3 1252.5,1954.6 1263.7,1935.8 1274.6,1917.9 1285.1,1901.0 1295.2,1885.3 1304.8,1870.8 1313.9,1857.6 1322.4,1845.9 1330.3,1835.7 1337.6,1826.9 1344.2,1819.8 1350.2,1814.4 1355.4,1810.5 1359.9,1808.4 1363.7,1808.0 1366.7,1809.3 1368.9,1812.4 1370.4,1817.1 1371.2,1823.5 1371.2,1831.6 1370.5,1841.3 1369.0,1852.6 1366.9,1865.3 1364.1,1879.6 1360.6,1895.2 1356.5,1912.0 1351.8,1930.1 1346.6,1949.3 1340.8,1969.5 1334.6,1990.5 1328.0,2012.2 1321.0,2034.6 1313.7,2057.4 1306.2,2080.5 1298.5,2103.8  " style="stroke-opacity: 1.000000; stroke-width: 5.0; stroke: rgb(251,106,74); fill: none"  />
<path d="M 1194.0,2058.1 L 1208.3,2031.5 1222.5,2004.5 1236.4,1977.1 1250.0,1949.3 1263.2,1921.2 1276.2,1892.7 1288.7,1863.9 1300.9,1834.7 1312.6,1805.3 1323.9,1775.6 1334.7,1745.6 1345.0,1715.4 1354.8,1684.9 1364.2,1654.2 1372.9,1623.3 1381.2,1592.2 1388.9,1560.9 1396.0,1529.5 1402.6,1497.9 1408.6,1466.3 1414.1,1434.5 1418.9,1402.6 1423.2,1370.7 1426.9,1338.8 1430.0,1306.8 1432.6,1274.8 1434.6,1242.8 1436.1,1210.9 1437.0,1179.0 1437.4,1147.3 1437.3,1115.6 1436.6,1084.0 1435.5,1052.6 1433.9,1021.4 1431.8,990.4 1429.4,959.5 1426.5,929.0 1423.2,898.6 1419.6,868.6  " style="stroke-opacity: 1.000000; stroke-width: 5.0; stroke: rgb(251,106,74); fill: none"  />
<path d="M 1017.4,1915.0 L 1037.3,1897.4 1056.9,1879.2 1076.1,1860.5 1094.7,1841.2 1112.6,1821.4 1129.8,1801.2 1146.1,1780.5 1161.5,1759.5 1175.8,1738.0 1189.2,1716.2 1201.3,1694.1 1212.3,1671.7 1222.1,1649.1 1230.5,1626.2 1237.7,1603.2 1243.5,1580.0 1247.9,1556.7 1250.9,1533.3 1252.5,1509.8 1252.7,1486.3 1251.4,1462.8 1248.8,1439.3 1244.8,1416.0 1239.3,1392.7 1232.6,1369.5 1224.5,1346.5 1215.1,1323.8 1204.4,1301.2 1192.6,1278.9 1179.6,1256.9 1165.6,1235.2 1150.6,1213.9 1134.6,1193.0 1117.7,1172.5 1100.1,1152.4 1081.8,1132.9 1063.0,1113.8 1043.7,1095.3 1024.0,1077.4  " style="stroke-opacity: 1.000000; stroke-width: 5.0; stroke: rgb(251,106,74); fill: none"  />
<path d="M 1017.4,1915.0 L 1039.1,1895.9 1060.7,1876.3 1082.1,1856.0 1103.1,1835.2 1123.9,1813.8 1144.2,1791.8 1164.1,1769.2 1183.5,1746.2 1202.4,1722.5 1220.7,1698.4 1238.4,1673.7 1255.4,1648.6 1271.7,1623.0 1287.4,1596.9 1302.3,1570.4 1316.4,1543.4 1329.8,1516.1 1342.4,1488.3 1354.1,1460.2 1365.0,1431.8 1375.1,1403.1 1384.4,1374.1 1392.8,1344.8 1400.3,1315.3 1407.0,1285.7 1412.9,1255.8 1417.9,1225.8 1422.1,1195.7 1425.5,1165.6 1428.1,1135.4 1429.9,1105.2 1430.9,1075.1 1431.2,1045.0 1430.9,1015.1 1429.8,985.3 1428.1,955.7 1425.8,926.4 1422.9,897.3 1419.6,868.6  " style="stroke-opacity: 1.000000; stroke-width: 5.0; stroke: rgb(251,106,74); fill: none"  />
<path d="M 1024.0,1077.4 L 1048.1,1098.9 1072.3,1120.4 1096.4,1142.1 1120.5,1163.8 1144.6,1185.5 1168.7,1207.4 1192.8,1229.3 1216.8,1251.3 1240.9,1273.4 1264.8,1295.6 1288.8,1317.8 1312.7,1340.1 1336.6,1362.5 1360.4,1385.0 1384.2,1407.5 1407.9,1430.1 1431.6,1452.7 1455.3,1475.5 1478.8,1498.2 1502.4,1521.1 1525.8,1544.0 1549.2,1567.0 1572.6,1590.0 1595.8,1613.1 1619.0,1636.2 1642.2,1659.3 1665.2,1682.6 1688.2,1705.8 1711.2,1729.1 1734.0,1752.5 1756.8,1775.8 1779.5,1799.2 1802.1,1822.6 1824.6,1846.1 1847.1,1869.6 1869.5,1893.0 1891.8,1916.5 1914.0,1940.0 1936.2,1963.5  " style="stroke-opacity: 1.000000; stroke-width: 5.0; stroke: rgb(251,106,74); fill: none"  />
<path d="M 1024.0,1077.4 L 1047.6,1098.5 1071.2,1119.8 1094.7,1141.3 1118.2,1163.0 1141.7,1184.9 1165.0,1207.1 1188.3,1229.5 1211.6,1252.1 1234.7,1274.9 1257.7,1297.9 1280.6,1321.1 1303.3,1344.6 1326.0,1368.2 1348.4,1392.1 1370.8,1416.1 1392.9,1440.3 1414.9,1464.8 1436.7,1489.4 1458.3,1514.1 1479.8,1539.1 1501.0,1564.2 1522.1,1589.4 1542.9,1614.8 1563.6,1640.4 1584.0,1666.0 1604.2,1691.8 1624.2,1717.7 1643.9,1743.8 1663.5,1769.9 1682.8,1796.1 1701.9,1822.3 1720.8,1848.7 1739.4,1875.1 1757.8,1901.5 1776.0,1928.0 1793.9,1954.5 1811.6,1981.0 1829.1,2007.5 1846.4,2034.0  " style="stroke-opacity: 1.000000; stroke-width: 5.0; stroke: rgb(251,106,74); fill: none"  />
<path d="M 1024.0,1077.4 L 1047.0,1098.1 1070.0,1119.1 1093.0,1140.4 1115.8,1162.1 1138.5,1184.1 1161.1,1206.5 1183.6,1229.2 1205.8,1252.2 1227.9,1275.6 1249.8,1299.3 1271.5,1323.4 1292.9,1347.7 1314.0,1372.4 1334.9,1397.3 1355.5,1422.6 1375.8,1448.2 1395.8,1474.0 1415.5,1500.1 1434.8,1526.5 1453.8,1553.1 1472.5,1579.9 1490.8,1607.0 1508.8,1634.3 1526.4,1661.8 1543.6,1689.5 1560.5,1717.3 1576.9,1745.3 1593.0,1773.5 1608.8,1801.7 1624.1,1830.1 1639.1,1858.6 1653.7,1887.1 1667.9,1915.7 1681.7,1944.3 1695.2,1973.0 1708.3,2001.6 1721.1,2030.2 1733.5,2058.8 1745.5,2087.2  " style="stroke-opacity: 1.000000; stroke-width: 5.0; stroke: rgb(251,106,74); fill: none"  />
<path d="M 1024.0,1077.4 L 1044.5,1096.1 1064.7,1115.3 1084.6,1135.2 1104.0,1155.7 1122.9,1176.7 1141.1,1198.3 1158.8,1220.5 1175.6,1243.2 1191.7,1266.4 1207.0,1290.1 1221.3,1314.3 1234.7,1338.8 1247.1,1363.8 1258.5,1389.2 1268.8,1414.9 1278.0,1441.0 1286.1,1467.4 1293.1,1494.0 1299.0,1520.9 1303.7,1548.0 1307.2,1575.3 1309.6,1602.7 1310.8,1630.3 1310.9,1657.9 1309.8,1685.6 1307.7,1713.3 1304.4,1741.1 1300.0,1768.7 1294.7,1796.3 1288.3,1823.7 1281.0,1851.0 1272.7,1878.0 1263.6,1904.8 1253.6,1931.3 1242.9,1957.5 1231.6,1983.3 1219.6,2008.7 1207.0,2033.7 1194.0,2058.1  " style="stroke-opacity: 1.000000; stroke-width: 5.0; stroke: rgb(251,106,74); fill: none"  />
<path d="M 1024.0,1077.4 L 1043.7,1095.3 1063.0,1113.8 1081.8,1132.9 1100.1,1152.4 1117.7,1172.5 1134.6,1193.0 1150.6,1213.9 1165.6,1235.2 1179.6,1256.9 1192.6,1278.9 1204.4,1301.2 1215.1,1323.8 1224.5,1346.5 1232.6,1369.5 1239.3,1392.7 1244.8,1416.0 1248.8,1439.3 1251.4,1462.8 1252.7,1486.3 1252.5,1509.8 1250.9,1533.3 1247.9,1556.7 1243.5,1580.0 1237.7,1603.2 1230.5,1626.2 1222.1,1649.1 1212.3,1671.7 1201.3,1694.1 1189.2,1716.2 1175.8,1738.0 1161.5,1759.5 1146.1,1780.5 1129.8,1801.2 1112.6,1821.4 1094.7,1841.2 1076.1,1860.5 1056.9,1879.2 1037.3,1897.4 1017.4,1915.0  " style="stroke-opacity: 1.000000; stroke-width: 5.0; stroke: rgb(251,106,74); fill: none"  />
<path d="M 1024.0,1077.4 L 1043.0,1094.7 1061.7,1112.4 1079.8,1130.6 1097.2,1149.1 1113.9,1167.8 1129.8,1186.9 1144.6,1206.1 1158.4,1225.5 1171.1,1245.1 1182.5,1264.7 1192.6,1284.3 1201.4,1303.9 1208.8,1323.4 1214.7,1342.9 1219.1,1362.2 1221.9,1381.4 1223.2,1400.4 1223.0,1419.2 1221.1,1437.7 1217.6,1455.9 1212.6,1473.8 1206.0,1491.3 1197.8,1508.5 1188.1,1525.3 1177.0,1541.7 1164.4,1557.7 1150.3,1573.2 1135.0,1588.2 1118.4,1602.8 1100.6,1616.8 1081.7,1630.3 1061.7,1643.3 1040.8,1655.8 1019.1,1667.7 996.7,1679.1 973.7,1689.9 950.2,1700.1 926.4,1709.8 902.3,1718.9  " style="stroke-opacity: 1.000000; stroke-width: 5.0; stroke: rgb(251,106,74); fill: none"  />
<path d="M 1024.0,1077.4 L 1046.0,1097.2 1067.8,1117.6 1089.5,1138.5 1110.9,1159.9 1132.1,1181.8 1153.0,1204.3 1173.5,1227.2 1193.6,1250.7 1213.4,1274.6 1232.7,1299.0 1251.5,1323.9 1269.8,1349.3 1287.5,1375.1 1304.7,1401.4 1321.3,1428.0 1337.3,1455.1 1352.7,1482.5 1367.5,1510.3 1381.6,1538.5 1395.0,1566.9 1407.8,1595.7 1419.9,1624.8 1431.3,1654.1 1442.0,1683.7 1452.0,1713.4 1461.3,1743.4 1469.9,1773.5 1477.9,1803.8 1485.1,1834.1 1491.7,1864.5 1497.7,1895.0 1503.0,1925.5 1507.6,1955.9 1511.7,1986.3 1515.1,2016.6 1518.0,2046.7 1520.4,2076.7 1522.2,2106.5 1523.5,2136.1  " style="stroke-opacity: 1.000000; stroke-width: 5.0; stroke: rgb(251,106,74); fill: none"  />
<path d="M 1107.1,999.2 L 1126.6,1024.2 1145.9,1049.3 1165.3,1074.7 1184.5,1100.2 1203.7,1126.0 1222.7,1152.0 1241.7,1178.2 1260.5,1204.6 1279.1,1231.1 1297.7,1257.9 1316.0,1284.8 1334.2,1312.0 1352.3,1339.3 1370.1,1366.7 1387.8,1394.4 1405.3,1422.2 1422.6,1450.1 1439.6,1478.2 1456.5,1506.5 1473.1,1534.8 1489.6,1563.3 1505.8,1591.9 1521.7,1620.6 1537.5,1649.5 1553.0,1678.4 1568.3,1707.4 1583.3,1736.4 1598.1,1765.5 1612.7,1794.7 1627.0,1824.0 1641.1,1853.2 1654.9,1882.5 1668.6,1911.8 1682.0,1941.1 1695.1,1970.4 1708.0,1999.7 1720.8,2028.9 1733.2,2058.1 1745.5,2087.2  " style="stroke-opacity: 1.000000; stroke-width: 5.0; stroke: rgb(251,106,74); fill: none"  />
<path d="M 902.3,1718.9 L 926.4,1709.8 950.2,1700.1 973.7,1689.9 996.7,1679.1 1019.1,1667.7 1040.8,1655.8 1061.7,1643.3 1081.7,1630.3 1100.6,1616.8 1118.4,1602.8 1135.0,1588.2 1150.3,1573.2 1164.4,1557.7 1177.0,1541.7 1188.1,1525.3 1197.8,1508.5 1206.0,1491.3 1212.6,1473.8 1217.6,1455.9 1221.1,1437.7 1223.0,1419.2 1223.2,1400.4 1221.9,1381.4 1219.1,1362.2 1214.7,1342.9 1208.8,1323.4 1201.4,1303.9 1192.6,1284.3 1182.5,1264.7 1171.1,1245.1 1158.4,1225.5 1144.6,1206.1 1129.8,1186.9 1113.9,1167.8 1097.2,1149.1 1079.8,1130.6 1061.7,1112.4 1043.0,1094.7 1024.0,1077.4  " style="stroke-opacity: 1.000000; stroke-width: 5.0; stroke: rgb(251,106,74); fill: none"  />
<path d="M 872.8,1608.7 L 900.8,1604.1 929.0,1600.2 957.6,1596.8 986.4,1594.2 1015.4,1592.2 1044.6,1591.0 1073.8,1590.6 1103.1,1591.0 1132.3,1592.2 1161.5,1594.4 1190.7,1597.4 1219.7,1601.4 1248.5,1606.3 1277.1,1612.2 1305.5,1619.0 1333.6,1626.8 1361.4,1635.5 1388.9,1645.3 1416.0,1656.0 1442.7,1667.6 1468.9,1680.2 1494.7,1693.8 1520.0,1708.2 1544.9,1723.5 1569.2,1739.7 1592.9,1756.7 1616.1,1774.5 1638.7,1793.1 1660.8,1812.4 1682.2,1832.4 1703.0,1853.0 1723.2,1874.2 1742.7,1896.0 1761.7,1918.2 1779.9,1940.8 1797.5,1963.7 1814.5,1987.0 1830.8,2010.4 1846.4,2034.0  " style="stroke-opacity: 1.000000; stroke-width: 5.0; stroke: rgb(251,106,74); fill: none"  />
<path d="M 872.8,1608.7 L 904.0,1603.4 935.3,1598.2 966.8,1593.2 998.5,1588.4 1030.2,1583.7 1062.1,1579.3 1094.2,1575.0 1126.3,1570.9 1158.6,1567.1 1190.9,1563.4 1223.4,1560.0 1255.9,1556.9 1288.5,1553.9 1321.1,1551.2 1353.8,1548.8 1386.6,1546.5 1419.4,1544.6 1452.2,1542.8 1485.1,1541.4 1517.9,1540.2 1550.8,1539.2 1583.7,1538.5 1616.5,1538.0 1649.4,1537.8 1682.2,1537.9 1714.9,1538.1 1747.7,1538.7 1780.3,1539.4 1812.9,1540.4 1845.5,1541.7 1877.9,1543.1 1910.3,1544.8 1942.5,1546.7 1974.7,1548.8 2006.7,1551.1 2038.6,1553.6 2070.4,1556.2 2102.0,1559.1 2133.5,1562.1  " style="stroke-opacity: 1.000000; stroke-width: 5.0; stroke: rgb(251,106,74); fill: none"  />
<path d="M 2133.5,1562.1 L 2102.0,1559.1 2070.4,1556.2 2038.6,1553.6 2006.7,1551.1 1974.7,1548.8 1942.5,1546.7 1910.3,1544.8 1877.9,1543.1 1845.5,1541.7 1812.9,1540.4 1780.3,1539.4 1747.7,1538.7 1714.9,1538.1 1682.2,1537.9 1649.4,1537.8 1616.5,1538.0 1583.7,1538.5 1550.8,1539.2 1517.9,1540.2 1485.1,1541.4 1452.2,1542.8 1419.4,1544.6 1386.6,1546.5 1353.8,1548.8 1321.1,1551.2 1288.5,1553.9 1255.9,1556.9 1223.4,1560.0 1190.9,1563.4 1158.6,1567.1 1126.3,1570.9 1094.2,1575.0 1062.1,1579.3 1030.2,1583.7 998.5,1588.4 966.8,1593.2 935.3,1598.2 904.0,1603.4 872.8,1608.7  " style="stroke-opacity: 1.000000; stroke-width: 5.0; stroke: rgb(251,106,74); fill: none"  />
<path d="M 1523.5,2136.1 L 1522.2,2106.5 1520.4,2076.7 1518.0,2046.7 1515.1,2016.6 1511.7,1986.3 1507.6,1955.9 1503.0,1925.5 1497.7,1895.0 1491.7,1864.5 1485.1,1834.1 1477.9,1803.8 1469.9,1773.5 1461.3,1743.4 1452.0,1713.4 1442.0,1683.7 1431.3,1654.1 1419.9,1624.8 1407.8,1595.7 1395.0,1566.9 1381.6,1538.5 1367.5,1510.3 1352.7,1482.5 1337.3,1455.1 1321.3,1428.0 1304.7,1401.4 1287.5,1375.1 1269.8,1349.3 1251.5,1323.9 1232.7,1299.0 1213.4,1274.6 1193.6,1250.7 1173.5,1227.2 1153.0,1204.3 1132.1,1181.8 1110.9,1159.9 1089.5,1138.5 1067.8,1117.6 1046.0,1097.2 1024.0,1077.4  " style="stroke-opacity: 1.000000; stroke-width: 5.0; stroke: rgb(251,106,74); fill: none"  />
<path d="M 1409.6,2130.0 L 1414.1,2100.1 1419.0,2070.0 1424.3,2039.8 1430.1,2009.4 1436.4,1978.9 1443.2,1948.4 1450.4,1917.8 1458.2,1887.3 1466.5,1856.7 1475.3,1826.2 1484.7,1795.7 1494.6,1765.3 1505.0,1735.0 1516.0,1704.9 1527.6,1674.9 1539.6,1645.1 1552.3,1615.4 1565.4,1586.0 1579.1,1556.8 1593.3,1527.9 1608.1,1499.2 1623.3,1470.8 1639.1,1442.7 1655.3,1415.0 1672.0,1387.5 1689.1,1360.4 1706.7,1333.6 1724.7,1307.2 1743.1,1281.2 1761.9,1255.5 1781.0,1230.3 1800.5,1205.4 1820.2,1181.0 1840.3,1157.0 1860.6,1133.4 1881.0,1110.3 1901.7,1087.5 1922.6,1065.3 1943.5,1043.4  " style="stroke-opacity: 1.000000; stroke-width: 5.0; stroke: rgb(251,106,74); fill: none"  />
<path d="M 1202.8,937.1 L 1216.4,963.4 1229.7,990.1 1242.7,1017.3 1255.2,1044.8 1267.4,1072.8 1279.0,1101.2 1290.2,1129.9 1300.8,1158.9 1310.9,1188.3 1320.3,1217.9 1329.2,1247.8 1337.4,1278.0 1344.9,1308.4 1351.8,1339.0 1358.0,1369.8 1363.5,1400.8 1368.3,1431.9 1372.3,1463.1 1375.6,1494.4 1378.2,1525.8 1380.0,1557.2 1381.1,1588.7 1381.5,1620.1 1381.1,1651.6 1380.0,1683.0 1378.2,1714.3 1375.7,1745.5 1372.5,1776.6 1368.7,1807.6 1364.2,1838.4 1359.0,1869.0 1353.3,1899.4 1347.0,1929.5 1340.1,1959.4 1332.7,1989.0 1324.8,2018.2 1316.4,2047.1 1307.7,2075.6 1298.5,2103.8  " style="stroke-opacity: 1.000000; stroke-width: 5.0; stroke: rgb(251,106,74); fill: none"  />
<path d="M 1298.5,2103.8 L 1308.7,2073.1 1318.9,2042.4 1329.0,2011.6 1339.1,1980.8 1349.1,1949.9 1359.0,1918.9 1368.9,1887.9 1378.8,1856.8 1388.6,1825.7 1398.3,1794.5 1408.0,1763.3 1417.5,1732.0 1427.1,1700.7 1436.5,1669.4 1445.9,1638.0 1455.1,1606.5 1464.4,1575.1 1473.5,1543.6 1482.6,1512.1 1491.5,1480.5 1500.4,1449.0 1509.2,1417.4 1518.0,1385.8 1526.6,1354.2 1535.2,1322.6 1543.6,1291.0 1552.0,1259.3 1560.3,1227.7 1568.6,1196.1 1576.7,1164.4 1584.8,1132.8 1592.8,1101.2 1600.7,1069.6 1608.5,1038.1 1616.3,1006.5 1623.9,975.0 1631.5,943.5 1639.1,912.0 1646.5,880.6  " style="stroke-opacity: 1.000000; stroke-width: 5.0; stroke: rgb(251,106,74); fill: none"  />
<path d="M 1298.5,2103.8 L 1306.2,2080.5 1313.7,2057.4 1321.0,2034.6 1328.0,2012.2 1334.6,1990.5 1340.8,1969.5 1346.6,1949.3 1351.8,1930.1 1356.5,1912.0 1360.6,1895.2 1364.1,1879.6 1366.9,1865.3 1369.0,1852.6 1370.5,1841.3 1371.2,1831.6 1371.2,1823.5 1370.4,1817.1 1368.9,1812.4 1366.7,1809.3 1363.7,1808.0 1359.9,1808.4 1355.4,1810.5 1350.2,1814.4 1344.2,1819.8 1337.6,1826.9 1330.3,1835.7 1322.4,1845.9 1313.9,1857.6 1304.8,1870.8 1295.2,1885.3 1285.1,1901.0 1274.6,1917.9 1263.7,1935.8 1252.5,1954.6 1241.1,1974.3 1229.4,1994.6 1217.6,2015.4 1205.8,2036.7 1194.0,2058.1  " style="stroke-opacity: 1.000000; stroke-width: 5.0; stroke: rgb(251,106,74); fill: none"  />
<path d="M 1298.5,2103.8 L 1307.7,2075.6 1316.4,2047.1 1324.8,2018.2 1332.7,1989.0 1340.1,1959.4 1347.0,1929.5 1353.3,1899.4 1359.0,1869.0 1364.2,1838.4 1368.7,1807.6 1372.5,1776.6 1375.7,1745.5 1378.2,1714.3 1380.0,1683.0 1381.1,1651.6 1381.5,1620.1 1381.1,1588.7 1380.0,1557.2 1378.2,1525.8 1375.6,1494.4 1372.3,1463.1 1368.3,1431.9 1363.5,1400.8 1358.0,1369.8 1351.8,1339.0 1344.9,1308.4 1337.4,1278.0 1329.2,1247.8 1320.3,1217.9 1310.9,1188.3 1300.8,1158.9 1290.2,1129.9 1279.0,1101.2 1267.4,1072.8 1255.2,1044.8 1242.7,1017.3 1229.7,990.1 1216.4,963.4 1202.8,937.1  " style="stroke-opacity: 1.000000; stroke-width: 5.0; stroke: rgb(251,106,74); fill: none"  />
<path d="M 1419.6,868.6 L 1423.6,898.6 1428.0,928.8 1432.9,959.1 1438.2,989.5 1444.0,1020.1 1450.3,1050.7 1457.1,1081.4 1464.3,1112.1 1472.2,1142.8 1480.5,1173.5 1489.4,1204.1 1498.8,1234.7 1508.8,1265.1 1519.3,1295.4 1530.3,1325.6 1541.9,1355.6 1554.1,1385.4 1566.8,1415.0 1580.0,1444.4 1593.8,1473.6 1608.0,1502.5 1622.8,1531.1 1638.1,1559.5 1653.9,1587.5 1670.2,1615.2 1686.9,1642.6 1704.0,1669.6 1721.6,1696.3 1739.6,1722.6 1758.0,1748.6 1776.7,1774.1 1795.8,1799.3 1815.1,1824.0 1834.8,1848.3 1854.7,1872.2 1874.8,1895.7 1895.1,1918.8 1915.6,1941.4 1936.2,1963.5  " style="stroke-opacity: 1.000000; stroke-width: 5.0; stroke: rgb(251,106,74); fill: none"  />
<path d="M 1419.6,868.6 L 1423.6,899.3 1428.0,930.1 1432.6,961.1 1437.7,992.2 1443.0,1023.3 1448.8,1054.6 1454.9,1086.0 1461.3,1117.4 1468.2,1148.8 1475.4,1180.2 1483.1,1211.6 1491.1,1243.1 1499.5,1274.4 1508.4,1305.8 1517.6,1337.0 1527.3,1368.2 1537.3,1399.3 1547.8,1430.3 1558.6,1461.1 1569.9,1491.8 1581.5,1522.4 1593.5,1552.8 1605.9,1583.0 1618.7,1613.0 1631.8,1642.9 1645.3,1672.5 1659.2,1701.9 1673.3,1731.1 1687.8,1760.0 1702.6,1788.7 1717.6,1817.1 1733.0,1845.2 1748.6,1873.1 1764.4,1900.7 1780.4,1928.0 1796.7,1954.9 1813.1,1981.6 1829.7,2007.9 1846.4,2034.0  " style="stroke-opacity: 1.000000; stroke-width: 5.0; stroke: rgb(251,106,74); fill: none"  />
<path d="M 1419.6,868.6 L 1423.6,900.0 1427.9,931.4 1432.4,963.0 1437.1,994.6 1442.0,1026.4 1447.1,1058.2 1452.4,1090.1 1458.0,1122.0 1463.8,1153.9 1469.8,1185.9 1476.1,1217.9 1482.6,1249.9 1489.4,1282.0 1496.4,1314.0 1503.6,1346.0 1511.1,1377.9 1518.9,1409.9 1526.9,1441.7 1535.2,1473.6 1543.7,1505.3 1552.4,1537.0 1561.4,1568.7 1570.6,1600.2 1580.1,1631.7 1589.7,1663.0 1599.6,1694.2 1609.8,1725.4 1620.1,1756.3 1630.6,1787.2 1641.4,1817.9 1652.3,1848.5 1663.4,1879.0 1674.7,1909.2 1686.2,1939.3 1697.8,1969.3 1709.5,1999.1 1721.4,2028.6 1733.4,2058.0 1745.5,2087.2  " style="stroke-opacity: 1.000000; stroke-width: 5.0; stroke: rgb(251,106,74); fill: none"  />
<path d="M 1419.6,868.6 L 1423.2,898.6 1426.5,929.0 1429.4,959.5 1431.8,990.4 1433.9,1021.4 1435.5,1052.6 1436.6,1084.0 1437.3,1115.6 1437.4,1147.3 1437.0,1179.0 1436.1,1210.9 1434.6,1242.8 1432.6,1274.8 1430.0,1306.8 1426.9,1338.8 1423.2,1370.7 1418.9,1402.6 1414.1,1434.5 1408.6,1466.3 1402.6,1497.9 1396.0,1529.5 1388.9,1560.9 1381.2,1592.2 1372.9,1623.3 1364.2,1654.2 1354.8,1684.9 1345.0,1715.4 1334.7,1745.6 1323.9,1775.6 1312.6,1805.3 1300.9,1834.7 1288.7,1863.9 1276.2,1892.7 1263.2,1921.2 1250.0,1949.3 1236.4,1977.1 1222.5,2004.5 1208.3,2031.5 1194.0,2058.1  " style="stroke-opacity: 1.000000; stroke-width: 5.0; stroke: rgb(251,106,74); fill: none"  />
<path d="M 1419.6,868.6 L 1422.9,897.3 1425.8,926.4 1428.1,955.7 1429.8,985.3 1430.9,1015.1 1431.2,1045.0 1430.9,1075.1 1429.9,1105.2 1428.1,1135.4 1425.5,1165.6 1422.1,1195.7 1417.9,1225.8 1412.9,1255.8 1407.0,1285.7 1400.3,1315.3 1392.8,1344.8 1384.4,1374.1 1375.1,1403.1 1365.0,1431.8 1354.1,1460.2 1342.4,1488.3 1329.8,1516.1 1316.4,1543.4 1302.3,1570.4 1287.4,1596.9 1271.7,1623.0 1255.4,1648.6 1238.4,1673.7 1220.7,1698.4 1202.4,1722.5 1183.5,1746.2 1164.1,1769.2 1144.2,1791.8 1123.9,1813.8 1103.1,1835.2 1082.1,1856.0 1060.7,1876.3 1039.1,1895.9 1017.4,1915.0  " style="stroke-opacity: 1.000000; stroke-width: 5.0; stroke: rgb(251,106,74); fill: none"  />
</g>
<g id="track_0">
<path d="M 1936.2,1963.5 L 1919.3,1945.7 1902.3,1928.2 1885.3,1911.0 1868.5,1894.5 1851.9,1878.6 1835.6,1863.5 1819.7,1849.3 1804.3,1836.1 1789.5,1824.0 1775.3,1813.0 1761.7,1803.3 1748.9,1794.9 1736.9,1787.9 1725.7,1782.4 1715.4,1778.2 1706.0,1775.6 1697.6,1774.5 1690.1,1775.0 1683.6,1777.0 1678.1,1780.6 1673.6,1785.7 1670.2,1792.3 1667.7,1800.5 1666.3,1810.1 1665.9,1821.2 1666.4,1833.7 1667.9,1847.5 1670.3,1862.6 1673.7,1878.9 1677.9,1896.4 1682.9,1914.9 1688.6,1934.3 1695.1,1954.6 1702.3,1975.6 1710.0,1997.2 1718.3,2019.4 1727.0,2041.8 1736.1,2064.5 1745.5,2087.2  " style="stroke-opacity: 1.000000; stroke-width: 5.0; stroke: rgb(107,174,214); fill: none"  />
<path d="M 1936.2,1963.5 L 1918.9,1945.5 1901.3,1927.8 1883.6,1910.6 1865.7,1894.1 1847.8,1878.3 1830.0,1863.4 1812.2,1849.5 1794.6,1836.7 1777.3,1825.1 1760.2,1814.7 1743.5,1805.7 1727.1,1798.1 1711.2,1791.9 1695.8,1787.2 1680.9,1784.1 1666.6,1782.6 1652.8,1782.6 1639.7,1784.3 1627.2,1787.6 1615.4,1792.6 1604.2,1799.1 1593.8,1807.3 1584.1,1817.0 1575.1,1828.3 1566.9,1841.1 1559.4,1855.4 1552.6,1871.0 1546.6,1888.0 1541.2,1906.3 1536.6,1925.7 1532.7,1946.2 1529.5,1967.7 1526.9,1990.1 1524.9,2013.3 1523.6,2037.1 1522.8,2061.4 1522.6,2086.1 1522.8,2111.1 1523.5,2136.1  " style="stroke-opacity: 1.000000; stroke-width: 5.0; stroke: rgb(107,174,214); fill: none"  />
<path d="M 1936.2,1963.5 L 1918.7,1945.3 1900.8,1927.4 1882.6,1910.1 1864.2,1893.4 1845.6,1877.5 1826.9,1862.5 1808.2,1848.5 1789.5,1835.6 1770.8,1823.8 1752.3,1813.4 1734.0,1804.2 1715.8,1796.5 1698.0,1790.1 1680.4,1785.3 1663.2,1782.1 1646.3,1780.4 1629.9,1780.3 1613.9,1781.8 1598.4,1784.9 1583.3,1789.7 1568.8,1796.0 1554.9,1804.0 1541.5,1813.5 1528.7,1824.6 1516.4,1837.2 1504.8,1851.2 1493.8,1866.6 1483.5,1883.4 1473.7,1901.4 1464.6,1920.7 1456.1,1941.0 1448.2,1962.3 1440.9,1984.5 1434.3,2007.5 1428.2,2031.2 1422.7,2055.5 1417.8,2080.1 1413.4,2105.0 1409.6,2130.0  " style="stroke-opacity: 1.000000; stroke-width: 5.0; stroke: rgb(107,174,214); fill: none"  />
<path d="M 1936.2,1963.5 L 1918.4,1945.0 1900.1,1926.9 1881.5,1909.3 1862.5,1892.4 1843.2,1876.3 1823.7,1861.0 1804.1,1846.7 1784.3,1833.5 1764.4,1821.4 1744.5,1810.5 1724.6,1801.0 1704.7,1792.8 1684.9,1786.0 1665.3,1780.6 1645.9,1776.8 1626.6,1774.5 1607.6,1773.8 1588.8,1774.6 1570.4,1777.0 1552.3,1781.0 1534.6,1786.5 1517.2,1793.6 1500.3,1802.3 1483.7,1812.5 1467.7,1824.1 1452.1,1837.2 1437.0,1851.6 1422.4,1867.4 1408.4,1884.4 1394.8,1902.6 1381.9,1921.9 1369.5,1942.3 1357.6,1963.5 1346.3,1985.5 1335.6,2008.3 1325.5,2031.6 1315.9,2055.4 1306.9,2079.5 1298.5,2103.8  " style="stroke-opacity: 1.000000; stroke-width: 5.0; stroke: rgb(107,174,214); fill: none"  />
<path d="M 1533.6,864.4 L 1532.5,889.4 1531.8,914.3 1531.7,939.0 1532.1,963.3 1533.0,987.2 1534.6,1010.3 1536.9,1032.8 1539.8,1054.3 1543.4,1074.9 1547.7,1094.4 1552.7,1112.7 1558.5,1129.8 1565.0,1145.6 1572.3,1160.0 1580.3,1172.9 1589.1,1184.3 1598.7,1194.2 1609.0,1202.6 1620.0,1209.3 1631.7,1214.4 1644.2,1217.9 1657.3,1219.8 1671.0,1220.1 1685.4,1218.8 1700.3,1215.9 1715.8,1211.5 1731.8,1205.6 1748.3,1198.2 1765.2,1189.4 1782.4,1179.3 1799.9,1168.0 1817.7,1155.5 1835.7,1141.9 1853.8,1127.3 1871.9,1111.8 1890.1,1095.5 1908.1,1078.6 1925.9,1061.2 1943.5,1043.4  " style="stroke-opacity: 1.000000; stroke-width: 5.0; stroke: rgb(107,174,214); fill: none"  />
<path d="M 1646.5,880.6 L 1641.0,904.6 1635.7,928.4 1630.8,952.0 1626.2,975.2 1622.1,997.8 1618.5,1019.7 1615.3,1040.7 1612.8,1060.9 1610.9,1079.9 1609.6,1097.8 1609.0,1114.5 1609.0,1129.8 1609.8,1143.7 1611.3,1156.1 1613.5,1166.9 1616.5,1176.2 1620.3,1183.9 1624.8,1189.9 1630.0,1194.2 1636.0,1196.8 1642.8,1197.7 1650.2,1196.9 1658.4,1194.5 1667.2,1190.4 1676.7,1184.6 1686.8,1177.3 1697.5,1168.4 1708.8,1158.1 1720.6,1146.3 1732.8,1133.2 1745.5,1118.8 1758.5,1103.3 1771.9,1086.7 1785.5,1069.2 1799.3,1050.8 1813.2,1031.7 1827.1,1012.0 1841.0,991.9 1854.8,971.6  " style="stroke-opacity: 1.000000; stroke-width: 5.0; stroke: rgb(107,174,214); fill: none"  />
<path d="M 1646.5,880.6 L 1641.0,904.7 1635.8,928.8 1631.1,952.7 1626.9,976.3 1623.2,999.3 1620.2,1021.8 1617.8,1043.5 1616.1,1064.3 1615.1,1084.2 1614.9,1103.0 1615.6,1120.7 1617.1,1137.2 1619.4,1152.3 1622.6,1166.1 1626.7,1178.5 1631.6,1189.4 1637.5,1198.8 1644.3,1206.6 1651.9,1212.9 1660.4,1217.5 1669.8,1220.6 1680.1,1222.1 1691.1,1222.0 1703.0,1220.4 1715.6,1217.2 1729.0,1212.4 1743.0,1206.3 1757.7,1198.6 1772.9,1189.7 1788.7,1179.4 1805.0,1167.9 1821.6,1155.3 1838.6,1141.6 1855.9,1126.9 1873.4,1111.5 1891.0,1095.2 1908.6,1078.4 1926.1,1061.1 1943.5,1043.4  " style="stroke-opacity: 1.000000; stroke-width: 5.0; stroke: rgb(107,174,214); fill: none"  />
<path d="M 1646.5,880.6 L 1641.0,905.0 1635.9,929.4 1631.3,953.7 1627.4,977.7 1624.1,1001.3 1621.5,1024.4 1619.7,1046.9 1618.7,1068.6 1618.6,1089.5 1619.3,1109.4 1621.0,1128.4 1623.6,1146.2 1627.2,1162.9 1631.8,1178.3 1637.4,1192.5 1644.1,1205.3 1651.7,1216.8 1660.3,1226.8 1670.0,1235.4 1680.6,1242.5 1692.2,1248.2 1704.8,1252.4 1718.3,1255.1 1732.6,1256.4 1747.9,1256.3 1763.9,1254.7 1780.7,1251.7 1798.2,1247.4 1816.4,1241.8 1835.1,1234.9 1854.4,1226.9 1874.1,1217.7 1894.3,1207.6 1914.7,1196.4 1935.3,1184.4 1956.0,1171.7 1976.7,1158.3 1997.4,1144.3 2017.9,1130.0  " style="stroke-opacity: 1.000000; stroke-width: 5.0; stroke: rgb(107,174,214); fill: none"  />
<path d="M 1854.8,971.6 L 1841.0,991.9 1827.1,1012.0 1813.2,1031.7 1799.3,1050.8 1785.5,1069.2 1771.9,1086.7 1758.5,1103.3 1745.5,1118.8 1732.8,1133.2 1720.6,1146.3 1708.8,1158.1 1697.5,1168.4 1686.8,1177.3 1676.7,1184.6 1667.2,1190.4 1658.4,1194.5 1650.2,1196.9 1642.8,1197.7 1636.0,1196.8 1630.0,1194.2 1624.8,1189.9 1620.3,1183.9 1616.5,1176.2 1613.5,1166.9 1611.3,1156.1 1609.8,1143.7 1609.0,1129.8 1609.0,1114.5 1609.6,1097.8 1610.9,1079.9 1612.8,1060.9 1615.3,1040.7 1618.5,1019.7 1622.1,997.8 1626.2,975.2 1630.8,952.0 1635.7,928.4 1641.0,904.6 1646.5,880.6  " style="stroke-opacity: 1.000000; stroke-width: 5.0; stroke: rgb(107,174,214); fill: none"  />
<path d="M 1854.8,971.6 L 1841.2,991.9 1827.8,1012.2 1814.8,1032.3 1802.1,1052.0 1789.9,1071.2 1778.3,1089.8 1767.4,1107.7 1757.3,1124.8 1747.9,1141.0 1739.5,1156.2 1732.0,1170.3 1725.5,1183.2 1720.0,1195.0 1715.6,1205.4 1712.4,1214.6 1710.2,1222.4 1709.3,1228.8 1709.5,1233.7 1710.8,1237.3 1713.4,1239.3 1717.1,1240.0 1722.0,1239.1 1728.1,1236.8 1735.2,1233.1 1743.5,1228.0 1752.9,1221.6 1763.2,1213.8 1774.5,1204.8 1786.8,1194.5 1799.9,1183.1 1813.8,1170.6 1828.4,1157.2 1843.7,1142.8 1859.5,1127.6 1875.8,1111.7 1892.4,1095.2 1909.3,1078.3 1926.4,1061.0 1943.5,1043.4  " style="stroke-opacity: 1.000000; stroke-width: 5.0; stroke: rgb(107,174,214); fill: none"  />
<path d="M 1854.8,971.6 L 1841.2,992.1 1827.9,1012.5 1815.0,1032.9 1802.6,1053.0 1790.8,1072.7 1779.7,1091.9 1769.4,1110.6 1759.9,1128.5 1751.4,1145.7 1743.9,1162.0 1737.5,1177.3 1732.2,1191.7 1728.0,1205.0 1725.1,1217.1 1723.3,1228.1 1722.9,1237.8 1723.7,1246.3 1725.8,1253.5 1729.2,1259.4 1733.9,1263.9 1739.9,1267.1 1747.1,1269.0 1755.6,1269.6 1765.3,1268.9 1776.2,1266.8 1788.3,1263.5 1801.4,1259.0 1815.6,1253.2 1830.8,1246.4 1846.9,1238.4 1863.8,1229.4 1881.5,1219.4 1899.8,1208.6 1918.7,1196.9 1938.0,1184.6 1957.8,1171.6 1977.7,1158.1 1997.8,1144.2 2017.9,1130.0  " style="stroke-opacity: 1.000000; stroke-width: 5.0; stroke: rgb(107,174,214); fill: none"  />
<path d="M 1745.5,2087.2 L 1736.1,2064.5 1727.0,2041.8 1718.3,2019.4 1710.0,1997.2 1702.3,1975.6 1695.1,1954.6 1688.6,1934.3 1682.9,1914.9 1677.9,1896.4 1673.7,1878.9 1670.3,1862.6 1667.9,1847.5 1666.4,1833.7 1665.9,1821.2 1666.3,1810.1 1667.7,1800.5 1670.2,1792.3 1673.6,1785.7 1678.1,1780.6 1683.6,1777.0 1690.1,1775.0 1697.6,1774.5 1706.0,1775.6 1715.4,1778.2 1725.7,1782.4 1736.9,1787.9 1748.9,1794.9 1761.7,1803.3 1775.3,1813.0 1789.5,1824.0 1804.3,1836.1 1819.7,1849.3 1835.6,1863.5 1851.9,1878.6 1868.5,1894.5 1885.3,1911.0 1902.3,1928.2 1919.3,1945.7 1936.2,1963.5  " style="stroke-opacity: 1.000000; stroke-width: 5.0; stroke: rgb(107,174,214); fill: none"  />
<path d="M 1745.5,2087.2 L 1735.9,2064.6 1726.2,2042.2 1716.3,2020.2 1706.4,1998.8 1696.4,1978.1 1686.5,1958.2 1676.6,1939.3 1666.8,1921.6 1657.2,1905.0 1647.7,1889.8 1638.5,1876.0 1629.4,1863.6 1620.6,1852.8 1612.1,1843.7 1603.9,1836.2 1596.0,1830.4 1588.5,1826.5 1581.4,1824.3 1574.6,1823.9 1568.2,1825.3 1562.2,1828.5 1556.6,1833.5 1551.5,1840.3 1546.7,1848.8 1542.4,1859.0 1538.5,1870.9 1535.1,1884.4 1532.1,1899.4 1529.4,1915.8 1527.2,1933.6 1525.4,1952.7 1524.0,1972.9 1523.0,1994.2 1522.3,2016.4 1521.9,2039.3 1521.9,2063.0 1522.2,2087.1 1522.7,2111.5 1523.5,2136.1  " style="stroke-opacity: 1.000000; stroke-width: 5.0; stroke: rgb(107,174,214); fill: none"  />
<path d="M 1943.5,1043.4 L 1925.9,1061.2 1908.1,1078.6 1890.1,1095.5 1871.9,1111.8 1853.8,1127.3 1835.7,1141.9 1817.7,1155.5 1799.9,1168.0 1782.4,1179.3 1765.2,1189.4 1748.3,1198.2 1731.8,1205.6 1715.8,1211.5 1700.3,1215.9 1685.4,1218.8 1671.0,1220.1 1657.3,1219.8 1644.2,1217.9 1631.7,1214.4 1620.0,1209.3 1609.0,1202.6 1598.7,1194.2 1589.1,1184.3 1580.3,1172.9 1572.3,1160.0 1565.0,1145.6 1558.5,1129.8 1552.7,1112.7 1547.7,1094.4 1543.4,1074.9 1539.8,1054.3 1536.9,1032.8 1534.6,1010.3 1533.0,987.2 1532.1,963.3 1531.7,939.0 1531.8,914.3 1532.5,889.4 1533.6,864.4  " style="stroke-opacity: 1.000000; stroke-width: 5.0; stroke: rgb(107,174,214); fill: none"  />
<path d="M 1943.5,1043.4 L 1926.1,1061.1 1908.6,1078.4 1891.0,1095.2 1873.4,1111.5 1855.9,1126.9 1838.6,1141.6 1821.6,1155.3 1805.0,1167.9 1788.7,1179.4 1772.9,1189.7 1757.7,1198.6 1743.0,1206.3 1729.0,1212.4 1715.6,1217.2 1703.0,1220.4 1691.1,1222.0 1680.1,1222.1 1669.8,1220.6 1660.4,1217.5 1651.9,1212.9 1644.3,1206.6 1637.5,1198.8 1631.6,1189.4 1626.7,1178.5 1622.6,1166.1 1619.4,1152.3 1617.1,1137.2 1615.6,1120.7 1614.9,1103.0 1615.1,1084.2 1616.1,1064.3 1617.8,1043.5 1620.2,1021.8 1623.2,999.3 1626.9,976.3 1631.1,952.7 1635.8,928.8 1641.0,904.7 1646.5,880.6  " style="stroke-opacity: 1.000000; stroke-width: 5.0; stroke: rgb(107,174,214); fill: none"  />
<path d="M 1943.5,1043.4 L 1926.4,1061.0 1909.3,1078.3 1892.4,1095.2 1875.8,1111.7 1859.5,1127.6 1843.7,1142.8 1828.4,1157.2 1813.8,1170.6 1799.9,1183.1 1786.8,1194.5 1774.5,1204.8 1763.2,1213.8 1752.9,1221.6 1743.5,1228.0 1735.2,1233.1 1728.1,1236.8 1722.0,1239.1 1717.1,1240.0 1713.4,1239.3 1710.8,1237.3 1709.5,1233.7 1709.3,1228.8 1710.2,1222.4 1712.4,1214.6 1715.6,1205.4 1720.0,1195.0 1725.5,1183.2 1732.0,1170.3 1739.5,1156.2 1747.9,1141.0 1757.3,1124.8 1767.4,1107.7 1778.3,1089.8 1789.9,1071.2 1802.1,1052.0 1814.8,1032.3 1827.8,1012.2 1841.2,991.9 1854.8,971.6  " style="stroke-opacity: 1.000000; stroke-width: 5.0; stroke: rgb(107,174,214); fill: none"  />
<path d="M 1943.5,1043.4 L 1926.5,1061.0 1909.7,1078.6 1893.2,1096.0 1877.2,1113.1 1861.8,1129.8 1847.1,1146.1 1833.2,1161.8 1820.1,1176.8 1808.1,1191.0 1797.0,1204.5 1787.1,1217.0 1778.4,1228.6 1771.0,1239.2 1764.8,1248.7 1759.9,1257.1 1756.4,1264.4 1754.3,1270.5 1753.6,1275.4 1754.4,1279.1 1756.5,1281.6 1760.1,1282.9 1765.0,1283.0 1771.4,1281.8 1779.1,1279.4 1788.2,1275.9 1798.5,1271.2 1810.1,1265.4 1822.8,1258.5 1836.7,1250.6 1851.7,1241.7 1867.6,1231.9 1884.4,1221.3 1901.9,1209.9 1920.2,1197.8 1939.1,1185.0 1958.4,1171.8 1978.1,1158.1 1997.9,1144.2 2017.9,1130.0  " style="stroke-opacity: 1.000000; stroke-width: 5.0; stroke: rgb(107,174,214); fill: none"  />
<path d="M 1194.0,2058.1 L 1205.7,2036.5 1217.1,2014.9 1228.2,1993.5 1238.7,1972.3 1248.7,1951.6 1258.0,1931.5 1266.6,1912.0 1274.4,1893.3 1281.4,1875.4 1287.4,1858.5 1292.4,1842.7 1296.4,1827.9 1299.4,1814.3 1301.2,1801.9 1301.9,1790.9 1301.5,1781.1 1300.0,1772.8 1297.2,1765.8 1293.3,1760.2 1288.2,1756.1 1282.0,1753.4 1274.6,1752.2 1266.1,1752.4 1256.4,1754.0 1245.8,1757.0 1234.1,1761.4 1221.4,1767.1 1207.8,1774.1 1193.3,1782.3 1178.0,1791.6 1161.9,1802.1 1145.2,1813.6 1128.0,1826.1 1110.2,1839.4 1092.0,1853.4 1073.5,1868.1 1054.8,1883.4 1036.1,1899.0 1017.4,1915.0  " style="stroke-opacity: 1.000000; stroke-width: 5.0; stroke: rgb(107,174,214); fill: none"  />
<path d="M 1194.0,2058.1 L 1205.7,2036.3 1217.1,2014.4 1228.0,1992.7 1238.4,1971.1 1248.0,1949.8 1256.9,1929.0 1265.0,1908.7 1272.2,1889.1 1278.4,1870.2 1283.6,1852.1 1287.7,1834.8 1290.6,1818.6 1292.4,1803.4 1293.0,1789.2 1292.4,1776.2 1290.5,1764.4 1287.3,1753.8 1282.9,1744.4 1277.2,1736.4 1270.2,1729.6 1262.0,1724.1 1252.5,1720.0 1241.8,1717.1 1229.9,1715.6 1216.9,1715.3 1202.8,1716.3 1187.6,1718.5 1171.5,1722.0 1154.4,1726.5 1136.4,1732.2 1117.7,1739.0 1098.3,1746.7 1078.2,1755.4 1057.7,1764.9 1036.7,1775.2 1015.4,1786.2 994.0,1797.7 972.5,1809.7 951.0,1822.1  " style="stroke-opacity: 1.000000; stroke-width: 5.0; stroke: rgb(107,174,214); fill: none"  />
<path d="M 1194.0,2058.1 L 1205.8,2036.1 1217.2,2013.9 1228.0,1991.7 1238.2,1969.6 1247.7,1947.7 1256.3,1926.1 1264.1,1905.0 1270.8,1884.3 1276.5,1864.2 1281.1,1844.7 1284.5,1826.0 1286.7,1808.1 1287.7,1791.1 1287.3,1775.0 1285.7,1759.9 1282.7,1745.7 1278.4,1732.7 1272.8,1720.7 1265.8,1709.8 1257.4,1700.1 1247.7,1691.6 1236.7,1684.2 1224.5,1678.0 1211.0,1672.9 1196.2,1669.0 1180.4,1666.3 1163.4,1664.7 1145.3,1664.2 1126.3,1664.8 1106.4,1666.4 1085.7,1669.0 1064.2,1672.6 1042.2,1677.0 1019.5,1682.3 996.5,1688.4 973.1,1695.2 949.5,1702.6 925.9,1710.5 902.3,1718.9  " style="stroke-opacity: 1.000000; stroke-width: 5.0; stroke: rgb(107,174,214); fill: none"  />
<path d="M 1636.7,2121.6 L 1631.2,2097.5 1625.4,2073.5 1619.3,2050.0 1612.9,2026.9 1606.2,2004.5 1599.2,1983.0 1592.0,1962.4 1584.5,1942.9 1576.7,1924.6 1568.7,1907.5 1560.4,1891.9 1552.0,1877.7 1543.3,1865.0 1534.4,1854.0 1525.4,1844.6 1516.2,1837.0 1506.8,1831.1 1497.3,1826.9 1487.7,1824.6 1478.0,1824.1 1468.2,1825.4 1458.3,1828.5 1448.4,1833.4 1438.4,1840.0 1428.5,1848.4 1418.5,1858.4 1408.5,1870.1 1398.6,1883.3 1388.8,1898.0 1379.0,1914.1 1369.3,1931.5 1359.8,1950.1 1350.4,1969.9 1341.2,1990.5 1332.2,2012.1 1323.4,2034.3 1314.8,2057.1 1306.5,2080.3 1298.5,2103.8  " style="stroke-opacity: 1.000000; stroke-width: 5.0; stroke: rgb(107,174,214); fill: none"  />
<path d="M 1017.4,1915.0 L 1036.1,1899.0 1054.8,1883.4 1073.5,1868.1 1092.0,1853.4 1110.2,1839.4 1128.0,1826.1 1145.2,1813.6 1161.9,1802.1 1178.0,1791.6 1193.3,1782.3 1207.8,1774.1 1221.4,1767.1 1234.1,1761.4 1245.8,1757.0 1256.4,1754.0 1266.1,1752.4 1274.6,1752.2 1282.0,1753.4 1288.2,1756.1 1293.3,1760.2 1297.2,1765.8 1300.0,1772.8 1301.5,1781.1 1301.9,1790.9 1301.2,1801.9 1299.4,1814.3 1296.4,1827.9 1292.4,1842.7 1287.4,1858.5 1281.4,1875.4 1274.4,1893.3 1266.6,1912.0 1258.0,1931.5 1248.7,1951.6 1238.7,1972.3 1228.2,1993.5 1217.1,2014.9 1205.7,2036.5 1194.0,2058.1  " style="stroke-opacity: 1.000000; stroke-width: 5.0; stroke: rgb(107,174,214); fill: none"  />
<path d="M 1017.4,1915.0 L 1035.9,1899.0 1054.2,1883.0 1072.2,1867.1 1089.6,1851.5 1106.5,1836.2 1122.6,1821.4 1137.9,1807.0 1152.2,1793.2 1165.5,1780.1 1177.7,1767.7 1188.6,1756.1 1198.4,1745.4 1206.7,1735.5 1213.8,1726.6 1219.4,1718.6 1223.5,1711.7 1226.1,1705.8 1227.3,1700.9 1226.9,1697.2 1225.0,1694.5 1221.5,1692.9 1216.6,1692.4 1210.1,1693.0 1202.2,1694.7 1192.9,1697.4 1182.2,1701.1 1170.1,1705.9 1156.8,1711.6 1142.3,1718.2 1126.6,1725.7 1109.9,1734.0 1092.2,1743.1 1073.7,1752.9 1054.4,1763.3 1034.5,1774.3 1014.0,1785.8 993.2,1797.6 972.2,1809.8 951.0,1822.1  " style="stroke-opacity: 1.000000; stroke-width: 5.0; stroke: rgb(107,174,214); fill: none"  />
<path d="M 1017.4,1915.0 L 1035.9,1898.8 1054.2,1882.7 1072.1,1866.5 1089.4,1850.4 1106.0,1834.5 1121.8,1819.0 1136.7,1803.7 1150.6,1789.0 1163.4,1774.7 1174.9,1761.0 1185.2,1747.9 1194.2,1735.4 1201.7,1723.8 1207.8,1712.8 1212.4,1702.7 1215.4,1693.5 1216.9,1685.1 1216.8,1677.6 1215.0,1671.0 1211.7,1665.4 1206.8,1660.7 1200.3,1656.9 1192.3,1654.1 1182.7,1652.2 1171.7,1651.3 1159.2,1651.3 1145.3,1652.1 1130.1,1653.9 1113.6,1656.5 1096.0,1659.9 1077.3,1664.1 1057.7,1669.0 1037.1,1674.5 1015.8,1680.8 993.8,1687.5 971.4,1694.8 948.5,1702.5 925.5,1710.6 902.3,1718.9  " style="stroke-opacity: 1.000000; stroke-width: 5.0; stroke: rgb(107,174,214); fill: none"  />
<path d="M 1024.0,1077.4 L 1042.8,1093.9 1061.9,1109.9 1081.1,1125.4 1100.4,1140.3 1119.6,1154.4 1138.8,1167.6 1157.7,1179.9 1176.4,1191.0 1194.7,1201.1 1212.6,1209.9 1230.1,1217.4 1247.0,1223.5 1263.4,1228.2 1279.2,1231.5 1294.3,1233.3 1308.8,1233.5 1322.5,1232.2 1335.4,1229.4 1347.5,1224.9 1358.9,1219.0 1369.4,1211.4 1379.0,1202.4 1387.8,1191.8 1395.7,1179.7 1402.8,1166.2 1409.0,1151.4 1414.4,1135.2 1418.9,1117.7 1422.5,1099.0 1425.4,1079.3 1427.4,1058.5 1428.7,1036.8 1429.3,1014.2 1429.2,991.0 1428.4,967.2 1427.0,942.9 1425.0,918.2 1422.5,893.4 1419.6,868.6  " style="stroke-opacity: 1.000000; stroke-width: 5.0; stroke: rgb(107,174,214); fill: none"  />
<path d="M 2017.9,1130.0 L 1997.4,1144.3 1976.7,1158.3 1956.0,1171.7 1935.3,1184.4 1914.7,1196.4 1894.3,1207.6 1874.1,1217.7 1854.4,1226.9 1835.1,1234.9 1816.4,1241.8 1798.2,1247.4 1780.7,1251.7 1763.9,1254.7 1747.9,1256.3 1732.6,1256.4 1718.3,1255.1 1704.8,1252.4 1692.2,1248.2 1680.6,1242.5 1670.0,1235.4 1660.3,1226.8 1651.7,1216.8 1644.1,1205.3 1637.4,1192.5 1631.8,1178.3 1627.2,1162.9 1623.6,1146.2 1621.0,1128.4 1619.3,1109.4 1618.6,1089.5 1618.7,1068.6 1619.7,1046.9 1621.5,1024.4 1624.1,1001.3 1627.4,977.7 1631.3,953.7 1635.9,929.4 1641.0,905.0 1646.5,880.6  " style="stroke-opacity: 1.000000; stroke-width: 5.0; stroke: rgb(107,174,214); fill: none"  />
<path d="M 2017.9,1130.0 L 1997.8,1144.2 1977.7,1158.1 1957.8,1171.6 1938.0,1184.6 1918.7,1196.9 1899.8,1208.6 1881.5,1219.4 1863.8,1229.4 1846.9,1238.4 1830.8,1246.4 1815.6,1253.2 1801.4,1259.0 1788.3,1263.5 1776.2,1266.8 1765.3,1268.9 1755.6,1269.6 1747.1,1269.0 1739.9,1267.1 1733.9,1263.9 1729.2,1259.4 1725.8,1253.5 1723.7,1246.3 1722.9,1237.8 1723.3,1228.1 1725.1,1217.1 1728.0,1205.0 1732.2,1191.7 1737.5,1177.3 1743.9,1162.0 1751.4,1145.7 1759.9,1128.5 1769.4,1110.6 1779.7,1091.9 1790.8,1072.7 1802.6,1053.0 1815.0,1032.9 1827.9,1012.5 1841.2,992.1 1854.8,971.6  " style="stroke-opacity: 1.000000; stroke-width: 5.0; stroke: rgb(107,174,214); fill: none"  />
<path d="M 2017.9,1130.0 L 1997.9,1144.2 1978.1,1158.1 1958.4,1171.8 1939.1,1185.0 1920.2,1197.8 1901.9,1209.9 1884.4,1221.3 1867.6,1231.9 1851.7,1241.7 1836.7,1250.6 1822.8,1258.5 1810.1,1265.4 1798.5,1271.2 1788.2,1275.9 1779.1,1279.4 1771.4,1281.8 1765.0,1283.0 1760.1,1282.9 1756.5,1281.6 1754.4,1279.1 1753.6,1275.4 1754.3,1270.5 1756.4,1264.4 1759.9,1257.1 1764.8,1248.7 1771.0,1239.2 1778.4,1228.6 1787.1,1217.0 1797.0,1204.5 1808.1,1191.0 1820.1,1176.8 1833.2,1161.8 1847.1,1146.1 1861.8,1129.8 1877.2,1113.1 1893.2,1096.0 1909.7,1078.6 1926.5,1061.0 1943.5,1043.4  " style="stroke-opacity: 1.000000; stroke-width: 5.0; stroke: rgb(107,174,214); fill: none"  />
<path d="M 951.0,1822.1 L 972.5,1809.7 994.0,1797.7 1015.4,1786.2 1036.7,1775.2 1057.7,1764.9 1078.2,1755.4 1098.3,1746.7 1117.7,1739.0 1136.4,1732.2 1154.4,1726.5 1171.5,1722.0 1187.6,1718.5 1202.8,1716.3 1216.9,1715.3 1229.9,1715.6 1241.8,1717.1 1252.5,1720.0 1262.0,1724.1 1270.2,1729.6 1277.2,1736.4 1282.9,1744.4 1287.3,1753.8 1290.5,1764.4 1292.4,1776.2 1293.0,1789.2 1292.4,1803.4 1290.6,1818.6 1287.7,1834.8 1283.6,1852.1 1278.4,1870.2 1272.2,1889.1 1265.0,1908.7 1256.9,1929.0 1248.0,1949.8 1238.4,1971.1 1228.0,1992.7 1217.1,2014.4 1205.7,2036.3 1194.0,2058.1  " style="stroke-opacity: 1.000000; stroke-width: 5.0; stroke: rgb(107,174,214); fill: none"  />
<path d="M 951.0,1822.1 L 972.2,1809.8 993.2,1797.6 1014.0,1785.8 1034.5,1774.3 1054.4,1763.3 1073.7,1752.9 1092.2,1743.1 1109.9,1734.0 1126.6,1725.7 1142.3,1718.2 1156.8,1711.6 1170.1,1705.9 1182.2,1701.1 1192.9,1697.4 1202.2,1694.7 1210.1,1693.0 1216.6,1692.4 1221.5,1692.9 1225.0,1694.5 1226.9,1697.2 1227.3,1700.9 1226.1,1705.8 1223.5,1711.7 1219.4,1718.6 1213.8,1726.6 1206.7,1735.5 1198.4,1745.4 1188.6,1756.1 1177.7,1767.7 1165.5,1780.1 1152.2,1793.2 1137.9,1807.0 1122.6,1821.4 1106.5,1836.2 1089.6,1851.5 1072.2,1867.1 1054.2,1883.0 1035.9,1899.0 1017.4,1915.0  " style="stroke-opacity: 1.000000; stroke-width: 5.0; stroke: rgb(107,174,214); fill: none"  />
<path d="M 951.0,1822.1 L 972.1,1809.7 993.0,1797.2 1013.5,1784.8 1033.5,1772.6 1052.8,1760.6 1071.3,1748.8 1088.9,1737.4 1105.4,1726.4 1120.8,1715.9 1135.0,1705.9 1147.9,1696.4 1159.4,1687.6 1169.4,1679.3 1177.9,1671.8 1184.8,1665.0 1190.1,1658.9 1193.8,1653.6 1195.8,1649.0 1196.1,1645.2 1194.7,1642.3 1191.6,1640.1 1186.8,1638.7 1180.3,1638.1 1172.3,1638.4 1162.6,1639.4 1151.4,1641.1 1138.7,1643.7 1124.5,1646.9 1109.1,1650.8 1092.3,1655.4 1074.4,1660.6 1055.4,1666.4 1035.4,1672.7 1014.5,1679.5 993.0,1686.8 970.8,1694.4 948.2,1702.4 925.3,1710.6 902.3,1718.9  " style="stroke-opacity: 1.000000; stroke-width: 5.0; stroke: rgb(107,174,214); fill: none"  />
<path d="M 902.3,1718.9 L 925.9,1710.5 949.5,1702.6 973.1,1695.2 996.5,1688.4 1019.5,1682.3 1042.2,1677.0 1064.2,1672.6 1085.7,1669.0 1106.4,1666.4 1126.3,1664.8 1145.3,1664.2 1163.4,1664.7 1180.4,1666.3 1196.2,1669.0 1211.0,1672.9 1224.5,1678.0 1236.7,1684.2 1247.7,1691.6 1257.4,1700.1 1265.8,1709.8 1272.8,1720.7 1278.4,1732.7 1282.7,1745.7 1285.7,1759.9 1287.3,1775.0 1287.7,1791.1 1286.7,1808.1 1284.5,1826.0 1281.1,1844.7 1276.5,1864.2 1270.8,1884.3 1264.1,1905.0 1256.3,1926.1 1247.7,1947.7 1238.2,1969.6 1228.0,1991.7 1217.2,2013.9 1205.8,2036.1 1194.0,2058.1  " style="stroke-opacity: 1.000000; stroke-width: 5.0; stroke: rgb(107,174,214); fill: none"  />
<path d="M 902.3,1718.9 L 925.5,1710.6 948.5,1702.5 971.4,1694.8 993.8,1687.5 1015.8,1680.8 1037.1,1674.5 1057.7,1669.0 1077.3,1664.1 1096.0,1659.9 1113.6,1656.5 1130.1,1653.9 1145.3,1652.1 1159.2,1651.3 1171.7,1651.3 1182.7,1652.2 1192.3,1654.1 1200.3,1656.9 1206.8,1660.7 1211.7,1665.4 1215.0,1671.0 1216.8,1677.6 1216.9,1685.1 1215.4,1693.5 1212.4,1702.7 1207.8,1712.8 1201.7,1723.8 1194.2,1735.4 1185.2,1747.9 1174.9,1761.0 1163.4,1774.7 1150.6,1789.0 1136.7,1803.7 1121.8,1819.0 1106.0,1834.5 1089.4,1850.4 1072.1,1866.5 1054.2,1882.7 1035.9,1898.8 1017.4,1915.0  " style="stroke-opacity: 1.000000; stroke-width: 5.0; stroke: rgb(107,174,214); fill: none"  />
<path d="M 902.3,1718.9 L 925.3,1710.6 948.2,1702.4 970.8,1694.4 993.0,1686.8 1014.5,1679.5 1035.4,1672.7 1055.4,1666.4 1074.4,1660.6 1092.3,1655.4 1109.1,1650.8 1124.5,1646.9 1138.7,1643.7 1151.4,1641.1 1162.6,1639.4 1172.3,1638.4 1180.3,1638.1 1186.8,1638.7 1191.6,1640.1 1194.7,1642.3 1196.1,1645.2 1195.8,1649.0 1193.8,1653.6 1190.1,1658.9 1184.8,1665.0 1177.9,1671.8 1169.4,1679.3 1159.4,1687.6 1147.9,1696.4 1135.0,1705.9 1120.8,1715.9 1105.4,1726.4 1088.9,1737.4 1071.3,1748.8 1052.8,1760.6 1033.5,1772.6 1013.5,1784.8 993.0,1797.2 972.1,1809.7 951.0,1822.1  " style="stroke-opacity: 1.000000; stroke-width: 5.0; stroke: rgb(107,174,214); fill: none"  />
<path d="M 1523.5,2136.1 L 1522.8,2111.1 1522.6,2086.1 1522.8,2061.4 1523.6,2037.1 1524.9,2013.3 1526.9,1990.1 1529.5,1967.7 1532.7,1946.2 1536.6,1925.7 1541.2,1906.3 1546.6,1888.0 1552.6,1871.0 1559.4,1855.4 1566.9,1841.1 1575.1,1828.3 1584.1,1817.0 1593.8,1807.3 1604.2,1799.1 1615.4,1792.6 1627.2,1787.6 1639.7,1784.3 1652.8,1782.6 1666.6,1782.6 1680.9,1784.1 1695.8,1787.2 1711.2,1791.9 1727.1,1798.1 1743.5,1805.7 1760.2,1814.7 1777.3,1825.1 1794.6,1836.7 1812.2,1849.5 1830.0,1863.4 1847.8,1878.3 1865.7,1894.1 1883.6,1910.6 1901.3,1927.8 1918.9,1945.5 1936.2,1963.5  " style="stroke-opacity: 1.000000; stroke-width: 5.0; stroke: rgb(107,174,214); fill: none"  />
<path d="M 1523.5,2136.1 L 1522.7,2111.5 1522.2,2087.1 1521.9,2063.0 1521.9,2039.3 1522.3,2016.4 1523.0,1994.2 1524.0,1972.9 1525.4,1952.7 1527.2,1933.6 1529.4,1915.8 1532.1,1899.4 1535.1,1884.4 1538.5,1870.9 1542.4,1859.0 1546.7,1848.8 1551.5,1840.3 1556.6,1833.5 1562.2,1828.5 1568.2,1825.3 1574.6,1823.9 1581.4,1824.3 1588.5,1826.5 1596.0,1830.4 1603.9,1836.2 1612.1,1843.7 1620.6,1852.8 1629.4,1863.6 1638.5,1876.0 1647.7,1889.8 1657.2,1905.0 1666.8,1921.6 1676.6,1939.3 1686.5,1958.2 1696.4,1978.1 1706.4,1998.8 1716.3,2020.2 1726.2,2042.2 1735.9,2064.6 1745.5,2087.2  " style="stroke-opacity: 1.000000; stroke-width: 5.0; stroke: rgb(107,174,214); fill: none"  />
<path d="M 1409.6,2130.0 L 1413.4,2105.0 1417.8,2080.1 1422.7,2055.5 1428.2,2031.2 1434.3,2007.5 1440.9,1984.5 1448.2,1962.3 1456.1,1941.0 1464.6,1920.7 1473.7,1901.4 1483.5,1883.4 1493.8,1866.6 1504.8,1851.2 1516.4,1837.2 1528.7,1824.6 1541.5,1813.5 1554.9,1804.0 1568.8,1796.0 1583.3,1789.7 1598.4,1784.9 1613.9,1781.8 1629.9,1780.3 1646.3,1780.4 1663.2,1782.1 1680.4,1785.3 1698.0,1790.1 1715.8,1796.5 1734.0,1804.2 1752.3,1813.4 1770.8,1823.8 1789.5,1835.6 1808.2,1848.5 1826.9,1862.5 1845.6,1877.5 1864.2,1893.4 1882.6,1910.1 1900.8,1927.4 1918.7,1945.3 1936.2,1963.5  " style="stroke-opacity: 1.000000; stroke-width: 5.0; stroke: rgb(107,174,214); fill: none"  />
<path d="M 1298.5,2103.8 L 1306.9,2079.5 1315.9,2055.4 1325.5,2031.6 1335.6,2008.3 1346.3,1985.5 1357.6,1963.5 1369.5,1942.3 1381.9,1921.9 1394.8,1902.6 1408.4,1884.4 1422.4,1867.4 1437.0,1851.6 1452.1,1837.2 1467.7,1824.1 1483.7,1812.5 1500.3,1802.3 1517.2,1793.6 1534.6,1786.5 1552.3,1781.0 1570.4,1777.0 1588.8,1774.6 1607.6,1773.8 1626.6,1774.5 1645.9,1776.8 1665.3,1780.6 1684.9,1786.0 1704.7,1792.8 1724.6,1801.0 1744.5,1810.5 1764.4,1821.4 1784.3,1833.5 1804.1,1846.7 1823.7,1861.0 1843.2,1876.3 1862.5,1892.4 1881.5,1909.3 1900.1,1926.9 1918.4,1945.0 1936.2,1963.5  " style="stroke-opacity: 1.000000; stroke-width: 5.0; stroke: rgb(107,174,214); fill: none"  />
<path d="M 1298.5,2103.8 L 1306.5,2080.3 1314.8,2057.1 1323.4,2034.3 1332.2,2012.1 1341.2,1990.5 1350.4,1969.9 1359.8,1950.1 1369.3,1931.5 1379.0,1914.1 1388.8,1898.0 1398.6,1883.3 1408.5,1870.1 1418.5,1858.4 1428.5,1848.4 1438.4,1840.0 1448.4,1833.4 1458.3,1828.5 1468.2,1825.4 1478.0,1824.1 1487.7,1824.6 1497.3,1826.9 1506.8,1831.1 1516.2,1837.0 1525.4,1844.6 1534.4,1854.0 1543.3,1865.0 1552.0,1877.7 1560.4,1891.9 1568.7,1907.5 1576.7,1924.6 1584.5,1942.9 1592.0,1962.4 1599.2,1983.0 1606.2,2004.5 1612.9,2026.9 1619.3,2050.0 1625.4,2073.5 1631.2,2097.5 1636.7,2121.6  " style="stroke-opacity: 1.000000; stroke-width: 5.0; stroke: rgb(107,174,214); fill: none"  />
<path d="M 1308.1,893.1 L 1315.5,916.4 1323.0,939.6 1330.6,962.3 1338.1,984.5 1345.5,1006.0 1352.8,1026.6 1360.0,1046.3 1367.1,1064.9 1373.9,1082.3 1380.5,1098.4 1386.9,1113.0 1392.9,1126.2 1398.7,1137.8 1404.2,1147.8 1409.3,1156.0 1414.0,1162.5 1418.4,1167.3 1422.4,1170.2 1426.0,1171.4 1429.3,1170.7 1432.1,1168.1 1434.5,1163.8 1436.4,1157.6 1438.0,1149.7 1439.2,1140.0 1440.0,1128.7 1440.4,1115.8 1440.3,1101.3 1440.0,1085.3 1439.2,1067.9 1438.1,1049.3 1436.7,1029.5 1435.0,1008.6 1433.0,986.7 1430.7,964.1 1428.2,940.8 1425.5,917.0 1422.6,892.9 1419.6,868.6  " style="stroke-opacity: 1.000000; stroke-width: 5.0; stroke: rgb(107,174,214); fill: none"  />
<path d="M 1419.6,868.6 L 1422.5,893.4 1425.0,918.2 1427.0,942.9 1428.4,967.2 1429.2,991.0 1429.3,1014.2 1428.7,1036.8 1427.4,1058.5 1425.4,1079.3 1422.5,1099.0 1418.9,1117.7 1414.4,1135.2 1409.0,1151.4 1402.8,1166.2 1395.7,1179.7 1387.8,1191.8 1379.0,1202.4 1369.4,1211.4 1358.9,1219.0 1347.5,1224.9 1335.4,1229.4 1322.5,1232.2 1308.8,1233.5 1294.3,1233.3 1279.2,1231.5 1263.4,1228.2 1247.0,1223.5 1230.1,1217.4 1212.6,1209.9 1194.7,1201.1 1176.4,1191.0 1157.7,1179.9 1138.8,1167.6 1119.6,1154.4 1100.4,1140.3 1081.1,1125.4 1061.9,1109.9 1042.8,1093.9 1024.0,1077.4  " style="stroke-opacity: 1.000000; stroke-width: 5.0; stroke: rgb(107,174,214); fill: none"  />
<path d="M 1419.6,868.6 L 1422.6,892.9 1425.5,917.0 1428.2,940.8 1430.7,964.1 1433.0,986.7 1435.0,1008.6 1436.7,1029.5 1438.1,1049.3 1439.2,1067.9 1440.0,1085.3 1440.3,1101.3 1440.4,1115.8 1440.0,1128.7 1439.2,1140.0 1438.0,1149.7 1436.4,1157.6 1434.5,1163.8 1432.1,1168.1 1429.3,1170.7 1426.0,1171.4 1422.4,1170.2 1418.4,1167.3 1414.0,1162.5 1409.3,1156.0 1404.2,1147.8 1398.7,1137.8 1392.9,1126.2 1386.9,1113.0 1380.5,1098.4 1373.9,1082.3 1367.1,1064.9 1360.0,1046.3 1352.8,1026.6 1345.5,1006.0 1338.1,984.5 1330.6,962.3 1323.0,939.6 1315.5,916.4 1308.1,893.1  " style="stroke-opacity: 1.000000; stroke-width: 5.0; stroke: rgb(107,174,214); fill: none"  />
</g>
<defs>
<pattern id="checker" width="10" height="10" patternTransform="rotate(45 0 0)" patternUnits="userSpaceOnUse"><line x1="0" y1="0" x2="10" y2="0" style="stroke:black;stroke-width:5" /><line x1="0" y1="0" x2="0" y2="10" style="stroke:black;stroke-width:4" /></pattern>
<pattern id="hline" width="10" height="10" patternTransform="rotate(0 0 0)" patternUnits="userSpaceOnUse"><line x1="0" y1="0" x2="10" y2="0" style="stroke:black;stroke-width:5" /></pattern>
<pattern id="vline" width="10" height="10" patternTransform="rotate(0 0 0)" patternUnits="userSpaceOnUse"><line x1="0" y1="0" x2="0" y2="10" style="stroke:black;stroke-width:5" /></pattern>
<pattern id="hline-sparse" width="10" height="10" patternTransform="rotate(0 0 0)" patternUnits="userSpaceOnUse"><line x1="0" y1="0" x2="10" y2="0" style="stroke:black;stroke-width:2" /></pattern>
<pattern id="vline-sparse" width="10" height="10" patternTransform="rotate(0 0 0)" patternUnits="userSpaceOnUse"><line x1="0" y1="0" x2="0" y2="10" style="stroke:black;stroke-width:2" /></pattern>
<pattern id="checker" width="10" height="10" patternTransform="rotate(45 0 0)" patternUnits="userSpaceOnUse"><line x1="0" y1="0" x2="10" y2="0" style="stroke:black;stroke-width:2" /><line x1="0" y1="0" x2="0" y2="10" style="stroke:black;stroke-width:2" /></pattern>
</defs>
</svg>
