<?xml version="1.0" encoding="utf-8" standalone="no"?>
<!DOCTYPE svg PUBLIC "-//W3C//DTD SVG 1.1//EN" "http://www.w3.org/Graphics/SVG/1.1/DTD/svg11.dtd">
<svg width="3000px" height="3000px" version="1.1" xmlns="http://www.w3.org/2000/svg" xmlns:xlink="http://www.w3.org/1999/xlink">
<g id="bg">
<rect x="0" y="0" width="3000px" height="3000px" style="fill:rgb(255,255,255);"/>
</g>
<g id="ideograms">
<path d="M1500.000,535.000 A965.000,965.000 40.000 0,1 1601.714,540.376 L1618.579,381.267 A1125.000,1125.000 0.000 0,0 1500.000,375.000 Z" style="stroke-width:2.0;stroke:rgb(115,115,115);stroke-linecap:round;fill:rgb(153,204,255);" />
<text x="1633.1" y="307.4" font-size="195.0px" font-family="CMUBright-Bold" style="text-anchor:start;fill:rgb(0,0,0);" transform="rotate(273.0,1633.1,307.4)" >4</text>
<path d="M1500.000,535.000 A965.000,965.000 40.000 0,1 1601.714,540.376 L1618.579,381.267 A1125.000,1125.000 0.000 0,0 1500.000,375.000 Z" style="stroke-width:2.0;stroke:rgb(115,115,115);stroke-linecap:round;fill:none;" />
<path d="M1672.307,550.508 A965.000,965.000 40.000 0,1 1771.427,573.959 L1816.431,420.418 A1125.000,1125.000 0.000 0,0 1700.877,393.079 Z" style="stroke-width:2.0;stroke:rgb(115,115,115);stroke-linecap:round;fill:rgb(153,204,255);" />
<text x="1845.8" y="350.9" font-size="195.0px" font-family="CMUBright-Bold" style="text-anchor:start;fill:rgb(0,0,0);" transform="rotate(283.3,1845.8,350.9)" >5</text>
<path d="M1672.307,550.508 A965.000,965.000 40.000 0,1 1771.427,573.959 L1816.431,420.418 A1125.000,1125.000 0.000 0,0 1700.877,393.079 Z" style="stroke-width:2.0;stroke:rgb(115,115,115);stroke-linecap:round;fill:none;" />
<path d="M1839.077,596.533 A965.000,965.000 40.000 0,1 1932.417,637.306 L2004.113,494.269 A1125.000,1125.000 0.000 0,0 1895.297,446.736 Z" style="stroke-width:2.0;stroke:rgb(115,115,115);stroke-linecap:round;fill:rgb(153,204,255);" />
<text x="2047.2" y="432.0" font-size="195.0px" font-family="CMUBright-Bold" style="text-anchor:start;fill:rgb(0,0,0);" transform="rotate(293.6,2047.2,432.0)" >6</text>
<path d="M1839.077,596.533 A965.000,965.000 40.000 0,1 1932.417,637.306 L2004.113,494.269 A1125.000,1125.000 0.000 0,0 1895.297,446.736 Z" style="stroke-width:2.0;stroke:rgb(115,115,115);stroke-linecap:round;fill:none;" />
<path d="M1994.948,671.597 A965.000,965.000 40.000 0,1 2079.507,728.381 L2175.592,600.444 A1125.000,1125.000 0.000 0,0 2077.012,534.245 Z" style="stroke-width:2.0;stroke:rgb(115,115,115);stroke-linecap:round;fill:rgb(153,204,255);" />
<text x="2229.1" y="546.9" font-size="195.0px" font-family="CMUBright-Bold" style="text-anchor:start;fill:rgb(0,0,0);" transform="rotate(303.9,2229.1,546.9)" >8</text>
<path d="M1994.948,671.597 A965.000,965.000 40.000 0,1 2079.507,728.381 L2175.592,600.444 A1125.000,1125.000 0.000 0,0 2077.012,534.245 Z" style="stroke-width:2.0;stroke:rgb(115,115,115);stroke-linecap:round;fill:none;" />
<path d="M2134.911,773.286 A965.000,965.000 40.000 0,1 2207.972,844.256 L2325.356,735.532 A1125.000,1125.000 0.000 0,0 2240.181,652.795 Z" style="stroke-width:2.0;stroke:rgb(115,115,115);stroke-linecap:round;fill:rgb(153,204,255);" />
<text x="2387.6" y="692.4" font-size="195.0px" font-family="CMUBright-Bold" style="text-anchor:start;fill:rgb(0,0,0);" transform="rotate(314.2,2387.6,692.4)" >10</text>
<path d="M2134.911,773.286 A965.000,965.000 40.000 0,1 2207.972,844.256 L2325.356,735.532 A1125.000,1125.000 0.000 0,0 2240.181,652.795 Z" style="stroke-width:2.0;stroke:rgb(115,115,115);stroke-linecap:round;fill:none;" />
<path d="M2254.467,898.332 A965.000,965.000 40.000 0,1 2313.683,981.207 L2448.594,895.190 A1125.000,1125.000 0.000 0,0 2379.560,798.574 Z" style="stroke-width:2.0;stroke:rgb(115,115,115);stroke-linecap:round;fill:rgb(153,204,255);" />
<text x="2517.5" y="863.9" font-size="195.0px" font-family="CMUBright-Bold" style="text-anchor:start;fill:rgb(0,0,0);" transform="rotate(324.5,2517.5,863.9)" >19</text>
<path d="M2254.467,898.332 A965.000,965.000 40.000 0,1 2313.683,981.207 L2448.594,895.190 A1125.000,1125.000 0.000 0,0 2379.560,798.574 Z" style="stroke-width:2.0;stroke:rgb(115,115,115);stroke-linecap:round;fill:none;" />
<path d="M2349.775,1042.717 A965.000,965.000 40.000 0,1 2393.240,1134.833 L2541.342,1074.288 A1125.000,1125.000 0.000 0,0 2490.670,966.898 Z" style="stroke-width:2.0;stroke:rgb(115,115,115);stroke-linecap:round;fill:rgb(153,204,255);" />
<text x="2614.0" y="1053.9" font-size="195.0px" font-family="CMUBright-Bold" style="text-anchor:start;fill:rgb(0,0,0);" transform="rotate(334.7,2614.0,1053.9)" >22</text>
<path d="M2349.775,1042.717 A965.000,965.000 40.000 0,1 2393.240,1134.833 L2541.342,1074.288 A1125.000,1125.000 0.000 0,0 2490.670,966.898 Z" style="stroke-width:2.0;stroke:rgb(115,115,115);stroke-linecap:round;fill:none;" />
<path d="M2417.770,1201.799 A965.000,965.000 40.000 0,1 2444.089,1300.196 L2600.621,1267.068 A1125.000,1125.000 0.000 0,0 2569.939,1152.356 Z" style="stroke-width:2.0;stroke:rgb(115,115,115);stroke-linecap:round;fill:rgb(116,196,118);" />
<text x="2676.2" y="1262.0" font-size="195.0px" font-family="CMUBright-Bold" style="text-anchor:start;fill:rgb(0,0,0);" transform="rotate(345.0,2676.2,1262.0)" >3</text>
<path d="M2417.770,1201.799 A965.000,965.000 40.000 0,1 2444.089,1300.196 L2600.621,1267.068 A1125.000,1125.000 0.000 0,0 2569.939,1152.356 Z" style="stroke-width:2.0;stroke:rgb(115,115,115);stroke-linecap:round;fill:none;" />
<path d="M2456.267,1370.465 A965.000,965.000 40.000 0,1 2464.593,1471.980 L2624.526,1467.335 A1125.000,1125.000 0.000 0,0 2614.818,1348.988 Z" style="stroke-width:2.0;stroke:rgb(115,115,115);stroke-linecap:round;fill:rgb(116,196,118);" />
<text x="2699.7" y="1473.8" font-size="195.0px" font-family="CMUBright-Bold" style="text-anchor:start;fill:rgb(0,0,0);" transform="rotate(355.3,2699.7,1473.8)" >11</text>
<path d="M2456.267,1370.465 A965.000,965.000 40.000 0,1 2464.593,1471.980 L2624.526,1467.335 A1125.000,1125.000 0.000 0,0 2614.818,1348.988 Z" style="stroke-width:2.0;stroke:rgb(115,115,115);stroke-linecap:round;fill:none;" />
<path d="M2464.028,1543.295 A965.000,965.000 40.000 0,1 2454.095,1644.665 L2612.287,1668.651 A1125.000,1125.000 0.000 0,0 2623.867,1550.473 Z" style="stroke-width:2.0;stroke:rgb(115,115,115);stroke-linecap:round;fill:rgb(116,196,118);" />
<text x="2685.1" y="1688.4" font-size="195.0px" font-family="CMUBright-Bold" style="text-anchor:start;fill:rgb(0,0,0);" transform="rotate(5.6,2685.1,1688.4)" >24</text>
<path d="M2464.028,1543.295 A965.000,965.000 40.000 0,1 2454.095,1644.665 L2612.287,1668.651 A1125.000,1125.000 0.000 0,0 2623.867,1550.473 Z" style="stroke-width:2.0;stroke:rgb(115,115,115);stroke-linecap:round;fill:none;" />
<path d="M2440.805,1714.733 A965.000,965.000 40.000 0,1 2412.931,1812.701 L2564.298,1864.548 A1125.000,1125.000 0.000 0,0 2596.794,1750.336 Z" style="stroke-width:2.0;stroke:rgb(115,115,115);stroke-linecap:round;fill:rgb(116,196,118);" />
<text x="2631.8" y="1898.9" font-size="195.0px" font-family="CMUBright-Bold" style="text-anchor:start;fill:rgb(0,0,0);" transform="rotate(15.9,2631.8,1898.9)" >30</text>
<path d="M2440.805,1714.733 A965.000,965.000 40.000 0,1 2412.931,1812.701 L2564.298,1864.548 A1125.000,1125.000 0.000 0,0 2596.794,1750.336 Z" style="stroke-width:2.0;stroke:rgb(115,115,115);stroke-linecap:round;fill:none;" />
<path d="M2387.344,1879.269 A965.000,965.000 40.000 0,1 2342.425,1970.686 L2482.102,2048.727 A1125.000,1125.000 0.000 0,0 2534.469,1942.153 Z" style="stroke-width:2.0;stroke:rgb(115,115,115);stroke-linecap:round;fill:rgb(116,196,118);" />
<text x="2542.3" y="2094.6" font-size="195.0px" font-family="CMUBright-Bold" style="text-anchor:start;fill:rgb(0,0,0);" transform="rotate(26.2,2542.3,2094.6)" >33</text>
<path d="M2387.344,1879.269 A965.000,965.000 40.000 0,1 2342.425,1970.686 L2482.102,2048.727 A1125.000,1125.000 0.000 0,0 2534.469,1942.153 Z" style="stroke-width:2.0;stroke:rgb(115,115,115);stroke-linecap:round;fill:none;" />
<path d="M2305.363,2031.616 A965.000,965.000 40.000 0,1 2244.843,2113.542 L2368.340,2215.270 A1125.000,1125.000 0.000 0,0 2438.895,2119.759 Z" style="stroke-width:2.0;stroke:rgb(115,115,115);stroke-linecap:round;fill:rgb(116,196,118);" />
<text x="2419.4" y="2271.1" font-size="195.0px" font-family="CMUBright-Bold" style="text-anchor:start;fill:rgb(0,0,0);" transform="rotate(36.5,2419.4,2271.1)" >35</text>
<path d="M2305.363,2031.616 A965.000,965.000 40.000 0,1 2244.843,2113.542 L2368.340,2215.270 A1125.000,1125.000 0.000 0,0 2438.895,2119.759 Z" style="stroke-width:2.0;stroke:rgb(115,115,115);stroke-linecap:round;fill:none;" />
<path d="M2197.497,2166.875 A965.000,965.000 40.000 0,1 2123.321,2236.679 L2226.669,2358.823 A1125.000,1125.000 0.000 0,0 2313.144,2277.445 Z" style="stroke-width:2.0;stroke:rgb(115,115,115);stroke-linecap:round;fill:rgb(153,0,204);" />
<text x="2268.5" y="2421.6" font-size="195.0px" font-family="CMUBright-Bold" style="text-anchor:start;fill:rgb(0,0,0);" transform="rotate(46.7,2268.5,2421.6)" >1</text>
<path d="M2197.497,2166.875 A965.000,965.000 40.000 0,1 2123.321,2236.679 L2226.669,2358.823 A1125.000,1125.000 0.000 0,0 2313.144,2277.445 Z" style="stroke-width:2.0;stroke:rgb(115,115,115);stroke-linecap:round;fill:none;" />
<path d="M2067.213,2280.701 A965.000,965.000 40.000 0,1 1981.764,2336.139 L2061.642,2474.773 A1125.000,1125.000 0.000 0,0 2161.258,2410.144 Z" style="stroke-width:2.0;stroke:rgb(115,115,115);stroke-linecap:round;fill:rgb(153,0,204);" />
<text x="2092.5" y="2543.6" font-size="195.0px" font-family="CMUBright-Bold" style="text-anchor:start;fill:rgb(0,0,0);" transform="rotate(57.0,2092.5,2543.6)" >7</text>
<path d="M2067.213,2280.701 A965.000,965.000 40.000 0,1 1981.764,2336.139 L2061.642,2474.773 A1125.000,1125.000 0.000 0,0 2161.258,2410.144 Z" style="stroke-width:2.0;stroke:rgb(115,115,115);stroke-linecap:round;fill:none;" />
<path d="M1918.698,2369.435 A965.000,965.000 40.000 0,1 1824.724,2408.724 L1878.564,2559.393 A1125.000,1125.000 0.000 0,0 1988.119,2513.590 Z" style="stroke-width:2.0;stroke:rgb(115,115,115);stroke-linecap:round;fill:rgb(153,0,204);" />
<text x="1893.8" y="2633.6" font-size="195.0px" font-family="CMUBright-Bold" style="text-anchor:start;fill:rgb(0,0,0);" transform="rotate(67.3,1893.8,2633.6)" >9</text>
<path d="M1918.698,2369.435 A965.000,965.000 40.000 0,1 1824.724,2408.724 L1878.564,2559.393 A1125.000,1125.000 0.000 0,0 1988.119,2513.590 Z" style="stroke-width:2.0;stroke:rgb(115,115,115);stroke-linecap:round;fill:none;" />
<path d="M1756.726,2430.224 A965.000,965.000 40.000 0,1 1657.246,2452.102 L1683.318,2609.964 A1125.000,1125.000 0.000 0,0 1799.291,2584.458 Z" style="stroke-width:2.0;stroke:rgb(115,115,115);stroke-linecap:round;fill:rgb(153,0,204);" />
<text x="1685.0" y="2685.6" font-size="195.0px" font-family="CMUBright-Bold" style="text-anchor:start;fill:rgb(0,0,0);" transform="rotate(77.6,1685.0,2685.6)" >13</text>
<path d="M1756.726,2430.224 A965.000,965.000 40.000 0,1 1657.246,2452.102 L1683.318,2609.964 A1125.000,1125.000 0.000 0,0 1799.291,2584.458 Z" style="stroke-width:2.0;stroke:rgb(115,115,115);stroke-linecap:round;fill:none;" />
<path d="M1586.502,2461.115 A965.000,965.000 40.000 0,1 1484.715,2464.879 L1482.181,2624.859 A1125.000,1125.000 0.000 0,0 1600.844,2620.471 Z" style="stroke-width:2.0;stroke:rgb(115,115,115);stroke-linecap:round;fill:rgb(153,0,204);" />
<text x="1470.4" y="2699.6" font-size="195.0px" font-family="CMUBright-Bold" style="text-anchor:start;fill:rgb(0,0,0);" transform="rotate(87.9,1470.4,2699.6)" >25</text>
<path d="M1586.502,2461.115 A965.000,965.000 40.000 0,1 1484.715,2464.879 L1482.181,2624.859 A1125.000,1125.000 0.000 0,0 1600.844,2620.471 Z" style="stroke-width:2.0;stroke:rgb(115,115,115);stroke-linecap:round;fill:none;" />
<path d="M1413.498,2461.115 A965.000,965.000 40.000 0,1 1312.675,2446.644 L1281.616,2603.600 A1125.000,1125.000 0.000 0,0 1399.156,2620.471 Z" style="stroke-width:2.0;stroke:rgb(115,115,115);stroke-linecap:round;fill:rgb(153,0,204);" />
<text x="1403.0" y="2696.1" font-size="195.0px" font-family="CMUBright-Bold" style="text-anchor:end;fill:rgb(0,0,0);" transform="rotate(-81.8,1403.0,2696.1)" >26</text>
<path d="M1413.498,2461.115 A965.000,965.000 40.000 0,1 1312.675,2446.644 L1281.616,2603.600 A1125.000,1125.000 0.000 0,0 1399.156,2620.471 Z" style="stroke-width:2.0;stroke:rgb(115,115,115);stroke-linecap:round;fill:none;" />
<path d="M1243.274,2430.224 A965.000,965.000 40.000 0,1 1146.656,2397.983 L1088.070,2546.871 A1125.000,1125.000 0.000 0,0 1200.709,2584.458 Z" style="stroke-width:2.0;stroke:rgb(115,115,115);stroke-linecap:round;fill:rgb(153,0,204);" />
<text x="1191.0" y="2659.5" font-size="195.0px" font-family="CMUBright-Bold" style="text-anchor:end;fill:rgb(0,0,0);" transform="rotate(-71.5,1191.0,2659.5)" >28</text>
<path d="M1243.274,2430.224 A965.000,965.000 40.000 0,1 1146.656,2397.983 L1088.070,2546.871 A1125.000,1125.000 0.000 0,0 1200.709,2584.458 Z" style="stroke-width:2.0;stroke:rgb(115,115,115);stroke-linecap:round;fill:none;" />
<path d="M1081.302,2369.435 A965.000,965.000 40.000 0,1 991.993,2320.460 L907.764,2456.494 A1125.000,1125.000 0.000 0,0 1011.881,2513.590 Z" style="stroke-width:2.0;stroke:rgb(115,115,115);stroke-linecap:round;fill:rgb(253,208,162);" />
<text x="987.1" y="2584.9" font-size="195.0px" font-family="CMUBright-Bold" style="text-anchor:end;fill:rgb(0,0,0);" transform="rotate(-61.3,987.1,2584.9)" >12</text>
<path d="M1081.302,2369.435 A965.000,965.000 40.000 0,1 991.993,2320.460 L907.764,2456.494 A1125.000,1125.000 0.000 0,0 1011.881,2513.590 Z" style="stroke-width:2.0;stroke:rgb(115,115,115);stroke-linecap:round;fill:none;" />
<path d="M932.787,2280.701 A965.000,965.000 40.000 0,1 853.658,2216.566 L746.493,2335.375 A1125.000,1125.000 0.000 0,0 838.742,2410.144 Z" style="stroke-width:2.0;stroke:rgb(115,115,115);stroke-linecap:round;fill:rgb(253,208,162);" />
<text x="801.7" y="2475.9" font-size="195.0px" font-family="CMUBright-Bold" style="text-anchor:end;fill:rgb(0,0,0);" transform="rotate(-51.0,801.7,2475.9)" >14</text>
<path d="M932.787,2280.701 A965.000,965.000 40.000 0,1 853.658,2216.566 L746.493,2335.375 A1125.000,1125.000 0.000 0,0 838.742,2410.144 Z" style="stroke-width:2.0;stroke:rgb(115,115,115);stroke-linecap:round;fill:none;" />
<path d="M802.503,2166.875 A965.000,965.000 40.000 0,1 736.097,2089.642 L609.440,2187.406 A1125.000,1125.000 0.000 0,0 686.856,2277.445 Z" style="stroke-width:2.0;stroke:rgb(115,115,115);stroke-linecap:round;fill:rgb(253,208,162);" />
<text x="640.0" y="2336.9" font-size="195.0px" font-family="CMUBright-Bold" style="text-anchor:end;fill:rgb(0,0,0);" transform="rotate(-40.7,640.0,2336.9)" >16</text>
<path d="M802.503,2166.875 A965.000,965.000 40.000 0,1 736.097,2089.642 L609.440,2187.406 A1125.000,1125.000 0.000 0,0 686.856,2277.445 Z" style="stroke-width:2.0;stroke:rgb(115,115,115);stroke-linecap:round;fill:none;" />
<path d="M694.637,2031.616 A965.000,965.000 40.000 0,1 643.089,1943.766 L501.010,2017.344 A1125.000,1125.000 0.000 0,0 561.105,2119.759 Z" style="stroke-width:2.0;stroke:rgb(115,115,115);stroke-linecap:round;fill:rgb(253,208,162);" />
<text x="504.4" y="2169.9" font-size="195.0px" font-family="CMUBright-Bold" style="text-anchor:end;fill:rgb(0,0,0);" transform="rotate(-30.4,504.4,2169.9)" >20</text>
<path d="M694.637,2031.616 A965.000,965.000 40.000 0,1 643.089,1943.766 L501.010,2017.344 A1125.000,1125.000 0.000 0,0 561.105,2119.759 Z" style="stroke-width:2.0;stroke:rgb(115,115,115);stroke-linecap:round;fill:none;" />
<path d="M612.656,1879.269 A965.000,965.000 40.000 0,1 577.622,1783.627 L424.689,1830.653 A1125.000,1125.000 0.000 0,0 465.531,1942.153 Z" style="stroke-width:2.0;stroke:rgb(115,115,115);stroke-linecap:round;fill:rgb(253,208,162);" />
<text x="400.0" y="1979.6" font-size="195.0px" font-family="CMUBright-Bold" style="text-anchor:end;fill:rgb(0,0,0);" transform="rotate(-20.1,400.0,1979.6)" >21</text>
<path d="M612.656,1879.269 A965.000,965.000 40.000 0,1 577.622,1783.627 L424.689,1830.653 A1125.000,1125.000 0.000 0,0 465.531,1942.153 Z" style="stroke-width:2.0;stroke:rgb(115,115,115);stroke-linecap:round;fill:none;" />
<path d="M559.195,1714.733 A965.000,965.000 40.000 0,1 541.802,1614.372 L382.929,1633.336 A1125.000,1125.000 0.000 0,0 403.206,1750.336 Z" style="stroke-width:2.0;stroke:rgb(115,115,115);stroke-linecap:round;fill:rgb(253,208,162);" />
<text x="332.5" y="1777.4" font-size="195.0px" font-family="CMUBright-Bold" style="text-anchor:end;fill:rgb(0,0,0);" transform="rotate(-9.8,332.5,1777.4)" >23</text>
<path d="M559.195,1714.733 A965.000,965.000 40.000 0,1 541.802,1614.372 L382.929,1633.336 A1125.000,1125.000 0.000 0,0 403.206,1750.336 Z" style="stroke-width:2.0;stroke:rgb(115,115,115);stroke-linecap:round;fill:none;" />
<path d="M535.972,1543.295 A965.000,965.000 40.000 0,1 536.778,1441.441 L377.073,1431.732 A1125.000,1125.000 0.000 0,0 376.133,1550.473 Z" style="stroke-width:2.0;stroke:rgb(115,115,115);stroke-linecap:round;fill:rgb(253,141,60);" />
<text x="301.6" y="1562.5" font-size="195.0px" font-family="CMUBright-Bold" style="text-anchor:end;fill:rgb(0,0,0);" transform="rotate(0.5,301.6,1562.5)" >2</text>
<path d="M535.972,1543.295 A965.000,965.000 40.000 0,1 536.778,1441.441 L377.073,1431.732 A1125.000,1125.000 0.000 0,0 376.133,1550.473 Z" style="stroke-width:2.0;stroke:rgb(115,115,115);stroke-linecap:round;fill:none;" />
<path d="M543.733,1370.465 A965.000,965.000 40.000 0,1 562.714,1270.393 L407.309,1232.323 A1125.000,1125.000 0.000 0,0 385.182,1348.988 Z" style="stroke-width:2.0;stroke:rgb(115,115,115);stroke-linecap:round;fill:rgb(253,141,60);" />
<text x="309.5" y="1349.5" font-size="195.0px" font-family="CMUBright-Bold" style="text-anchor:end;fill:rgb(0,0,0);" transform="rotate(10.7,309.5,1349.5)" >15</text>
<path d="M543.733,1370.465 A965.000,965.000 40.000 0,1 562.714,1270.393 L407.309,1232.323 A1125.000,1125.000 0.000 0,0 385.182,1348.988 Z" style="stroke-width:2.0;stroke:rgb(115,115,115);stroke-linecap:round;fill:none;" />
<path d="M582.230,1201.799 A965.000,965.000 40.000 0,1 618.774,1106.724 L472.664,1041.517 A1125.000,1125.000 0.000 0,0 430.061,1152.356 Z" style="stroke-width:2.0;stroke:rgb(115,115,115);stroke-linecap:round;fill:rgb(253,141,60);" />
<text x="355.5" y="1139.3" font-size="195.0px" font-family="CMUBright-Bold" style="text-anchor:end;fill:rgb(0,0,0);" transform="rotate(21.0,355.5,1139.3)" >31</text>
<path d="M582.230,1201.799 A965.000,965.000 40.000 0,1 618.774,1106.724 L472.664,1041.517 A1125.000,1125.000 0.000 0,0 430.061,1152.356 Z" style="stroke-width:2.0;stroke:rgb(115,115,115);stroke-linecap:round;fill:none;" />
<path d="M650.225,1042.717 A965.000,965.000 40.000 0,1 703.158,955.695 L571.039,865.447 A1125.000,1125.000 0.000 0,0 509.330,966.898 Z" style="stroke-width:2.0;stroke:rgb(115,115,115);stroke-linecap:round;fill:rgb(253,141,60);" />
<text x="438.3" y="940.7" font-size="195.0px" font-family="CMUBright-Bold" style="text-anchor:end;fill:rgb(0,0,0);" transform="rotate(31.3,438.3,940.7)" >32</text>
<path d="M650.225,1042.717 A965.000,965.000 40.000 0,1 703.158,955.695 L571.039,865.447 A1125.000,1125.000 0.000 0,0 509.330,966.898 Z" style="stroke-width:2.0;stroke:rgb(115,115,115);stroke-linecap:round;fill:none;" />
<path d="M745.533,898.332 A965.000,965.000 40.000 0,1 813.153,822.160 L699.272,709.772 A1125.000,1125.000 0.000 0,0 620.440,798.574 Z" style="stroke-width:2.0;stroke:rgb(115,115,115);stroke-linecap:round;fill:rgb(66,146,198);" />
<text x="555.8" y="759.4" font-size="195.0px" font-family="CMUBright-Bold" style="text-anchor:end;fill:rgb(0,0,0);" transform="rotate(41.6,555.8,759.4)" >17</text>
<path d="M745.533,898.332 A965.000,965.000 40.000 0,1 813.153,822.160 L699.272,709.772 A1125.000,1125.000 0.000 0,0 620.440,798.574 Z" style="stroke-width:2.0;stroke:rgb(115,115,115);stroke-linecap:round;fill:none;" />
<path d="M865.089,773.286 A965.000,965.000 40.000 0,1 945.224,710.412 L853.241,579.496 A1125.000,1125.000 0.000 0,0 759.819,652.795 Z" style="stroke-width:2.0;stroke:rgb(115,115,115);stroke-linecap:round;fill:rgb(66,146,198);" />
<text x="702.5" y="603.4" font-size="195.0px" font-family="CMUBright-Bold" style="text-anchor:end;fill:rgb(0,0,0);" transform="rotate(51.9,702.5,603.4)" >18</text>
<path d="M865.089,773.286 A965.000,965.000 40.000 0,1 945.224,710.412 L853.241,579.496 A1125.000,1125.000 0.000 0,0 759.819,652.795 Z" style="stroke-width:2.0;stroke:rgb(115,115,115);stroke-linecap:round;fill:none;" />
<path d="M1005.052,671.597 A965.000,965.000 40.000 0,1 1095.126,624.042 L1027.997,478.806 A1125.000,1125.000 0.000 0,0 922.988,534.245 Z" style="stroke-width:2.0;stroke:rgb(115,115,115);stroke-linecap:round;fill:rgb(66,146,198);" />
<text x="876.3" y="474.8" font-size="195.0px" font-family="CMUBright-Bold" style="text-anchor:end;fill:rgb(0,0,0);" transform="rotate(62.2,876.3,474.8)" >27</text>
<path d="M1005.052,671.597 A965.000,965.000 40.000 0,1 1095.126,624.042 L1027.997,478.806 A1125.000,1125.000 0.000 0,0 922.988,534.245 Z" style="stroke-width:2.0;stroke:rgb(115,115,115);stroke-linecap:round;fill:none;" />
<path d="M1160.923,596.533 A965.000,965.000 40.000 0,1 1258.041,565.826 L1217.923,410.937 A1125.000,1125.000 0.000 0,0 1104.703,446.736 Z" style="stroke-width:2.0;stroke:rgb(115,115,115);stroke-linecap:round;fill:rgb(66,146,198);" />
<text x="1068.4" y="380.3" font-size="195.0px" font-family="CMUBright-Bold" style="text-anchor:end;fill:rgb(0,0,0);" transform="rotate(72.5,1068.4,380.3)" >29</text>
<path d="M1160.923,596.533 A965.000,965.000 40.000 0,1 1258.041,565.826 L1217.923,410.937 A1125.000,1125.000 0.000 0,0 1104.703,446.736 Z" style="stroke-width:2.0;stroke:rgb(115,115,115);stroke-linecap:round;fill:none;" />
<path d="M1327.693,550.508 A965.000,965.000 40.000 0,1 1428.732,537.635 L1416.916,378.072 A1125.000,1125.000 0.000 0,0 1299.123,393.079 Z" style="stroke-width:2.0;stroke:rgb(115,115,115);stroke-linecap:round;fill:rgb(66,146,198);" />
<text x="1275.3" y="321.2" font-size="195.0px" font-family="CMUBright-Bold" style="text-anchor:end;fill:rgb(0,0,0);" transform="rotate(82.7,1275.3,321.2)" >34</text>
<path d="M1327.693,550.508 A965.000,965.000 40.000 0,1 1428.732,537.635 L1416.916,378.072 A1125.000,1125.000 0.000 0,0 1299.123,393.079 Z" style="stroke-width:2.0;stroke:rgb(115,115,115);stroke-linecap:round;fill:none;" />
</g>
<g id="track_1">
<path d="M 2128.3,2167.6 L 2099.3,2136.4 2070.6,2104.4 2042.2,2071.6 2014.2,2038.1 1986.7,2003.9 1959.6,1969.1 1933.1,1933.5 1907.3,1897.2 1882.1,1860.3 1857.5,1822.8 1833.8,1784.6 1810.8,1745.9 1788.7,1706.6 1767.4,1666.7 1747.0,1626.3 1727.5,1585.5 1709.0,1544.1 1691.4,1502.3 1674.8,1460.1 1659.2,1417.5 1644.6,1374.6 1631.1,1331.3 1618.5,1287.8 1607.0,1244.0 1596.4,1200.0 1586.9,1155.8 1578.5,1111.5 1571.0,1067.1 1564.5,1022.6 1558.9,978.2 1554.3,933.7 1550.7,889.3 1547.9,845.0 1546.0,800.9 1545.0,757.0 1544.7,713.4 1545.2,670.1 1546.5,627.1 1548.4,584.5  " style="stroke-opacity: 1.000000; stroke-width: 5.0; stroke: rgb(251,106,74); fill: none"  />
<path d="M 2128.3,2167.6 L 2101.8,2138.9 2075.9,2109.2 2050.7,2078.8 2026.3,2047.6 2002.9,2015.7 1980.5,1983.2 1959.3,1950.0 1939.3,1916.3 1920.7,1882.0 1903.5,1847.3 1887.9,1812.1 1873.8,1776.6 1861.4,1740.7 1850.8,1704.5 1841.9,1668.1 1834.7,1631.5 1829.4,1594.8 1826.0,1557.9 1824.4,1521.0 1824.7,1484.1 1826.9,1447.2 1830.9,1410.4 1836.8,1373.8 1844.5,1337.3 1854.0,1301.0 1865.2,1265.1 1878.2,1229.4 1892.8,1194.1 1909.0,1159.1 1926.7,1124.7 1945.8,1090.7 1966.3,1057.3 1988.1,1024.5 2011.0,992.3 2034.9,960.8 2059.8,930.0 2085.5,900.0 2111.9,870.8 2138.8,842.4  " style="stroke-opacity: 1.000000; stroke-width: 5.0; stroke: rgb(251,106,74); fill: none"  />
<path d="M 2128.3,2167.6 L 2096.4,2133.8 2064.3,2099.9 2032.2,2066.1 1999.9,2032.3 1967.6,1998.5 1935.1,1964.7 1902.5,1931.0 1869.8,1897.3 1837.0,1863.6 1804.1,1830.0 1771.1,1796.4 1738.0,1762.9 1704.8,1729.5 1671.5,1696.1 1638.0,1662.8 1604.5,1629.6 1570.9,1596.4 1537.2,1563.4 1503.4,1530.4 1469.5,1497.5 1435.6,1464.7 1401.5,1431.9 1367.4,1399.3 1333.2,1366.8 1299.0,1334.3 1264.6,1302.0 1230.3,1269.7 1195.8,1237.6 1161.3,1205.6 1126.8,1173.7 1092.2,1141.9 1057.5,1110.2 1022.9,1078.6 988.2,1047.1 953.4,1015.7 918.7,984.5 883.9,953.3 849.2,922.3 814.4,891.4  " style="stroke-opacity: 1.000000; stroke-width: 5.0; stroke: rgb(251,106,74); fill: none"  />
<path d="M 2128.3,2167.6 L 2098.6,2135.7 2069.1,2103.2 2039.9,2070.0 2010.9,2036.2 1982.2,2001.7 1953.9,1966.7 1926.0,1931.0 1898.5,1894.8 1871.6,1858.0 1845.1,1820.7 1819.2,1782.8 1793.9,1744.3 1769.2,1705.4 1745.1,1665.9 1721.7,1626.0 1698.9,1585.6 1676.9,1544.8 1655.6,1503.6 1635.0,1462.0 1615.2,1420.0 1596.2,1377.6 1577.9,1335.0 1560.4,1292.0 1543.7,1248.8 1527.8,1205.3 1512.6,1161.7 1498.3,1117.8 1484.7,1073.8 1471.9,1029.7 1459.9,985.6 1448.6,941.4 1438.1,897.1 1428.4,852.9 1419.3,808.8 1411.0,764.8 1403.3,720.9 1396.3,677.2 1389.9,633.8 1384.1,590.6  " style="stroke-opacity: 1.000000; stroke-width: 5.0; stroke: rgb(251,106,74); fill: none"  />
<path d="M 1548.4,584.5 L 1546.5,627.1 1545.2,670.1 1544.7,713.4 1545.0,757.0 1546.0,800.9 1547.9,845.0 1550.7,889.3 1554.3,933.7 1558.9,978.2 1564.5,1022.6 1571.0,1067.1 1578.5,1111.5 1586.9,1155.8 1596.4,1200.0 1607.0,1244.0 1618.5,1287.8 1631.1,1331.3 1644.6,1374.6 1659.2,1417.5 1674.8,1460.1 1691.4,1502.3 1709.0,1544.1 1727.5,1585.5 1747.0,1626.3 1767.4,1666.7 1788.7,1706.6 1810.8,1745.9 1833.8,1784.6 1857.5,1822.8 1882.1,1860.3 1907.3,1897.2 1933.1,1933.5 1959.6,1969.1 1986.7,2003.9 2014.2,2038.1 2042.2,2071.6 2070.6,2104.4 2099.3,2136.4 2128.3,2167.6  " style="stroke-opacity: 1.000000; stroke-width: 5.0; stroke: rgb(251,106,74); fill: none"  />
<path d="M 1711.1,607.9 L 1700.3,653.1 1689.5,698.5 1678.5,743.8 1667.5,789.2 1656.3,834.7 1645.0,880.1 1633.6,925.6 1622.1,971.2 1610.5,1016.7 1598.8,1062.2 1586.9,1107.8 1574.9,1153.4 1562.8,1198.9 1550.6,1244.5 1538.3,1290.0 1525.9,1335.5 1513.3,1381.0 1500.6,1426.5 1487.8,1472.0 1474.9,1517.4 1461.8,1562.8 1448.7,1608.1 1435.4,1653.5 1422.0,1698.7 1408.5,1743.9 1394.9,1789.1 1381.2,1834.2 1367.4,1879.2 1353.5,1924.2 1339.5,1969.1 1325.4,2013.9 1311.2,2058.7 1297.0,2103.4 1282.6,2148.0 1268.2,2192.5 1253.7,2236.9 1239.1,2281.2 1224.5,2325.5 1209.8,2369.6  " style="stroke-opacity: 1.000000; stroke-width: 5.0; stroke: rgb(251,106,74); fill: none"  />
<path d="M 1867.0,659.9 L 1850.7,698.2 1834.9,737.2 1819.9,776.9 1805.5,817.1 1792.0,857.8 1779.4,899.0 1767.6,940.7 1756.9,982.8 1747.1,1025.2 1738.5,1068.0 1731.0,1111.0 1724.6,1154.3 1719.4,1197.8 1715.4,1241.4 1712.6,1285.2 1711.1,1329.0 1710.8,1372.8 1711.8,1416.6 1714.1,1460.4 1717.7,1504.1 1722.6,1547.7 1728.7,1591.1 1736.1,1634.4 1744.8,1677.3 1754.6,1720.0 1765.7,1762.4 1777.9,1804.5 1791.2,1846.1 1805.7,1887.4 1821.2,1928.2 1837.7,1968.4 1855.2,2008.2 1873.5,2047.4 1892.8,2086.0 1912.7,2124.0 1933.4,2161.4 1954.7,2198.0 1976.6,2233.9 1999.0,2269.1  " style="stroke-opacity: 1.000000; stroke-width: 5.0; stroke: rgb(251,106,74); fill: none"  />
<path d="M 1999.0,2269.1 L 1976.6,2233.9 1954.7,2198.0 1933.4,2161.4 1912.7,2124.0 1892.8,2086.0 1873.5,2047.4 1855.2,2008.2 1837.7,1968.4 1821.2,1928.2 1805.7,1887.4 1791.2,1846.1 1777.9,1804.5 1765.7,1762.4 1754.6,1720.0 1744.8,1677.3 1736.1,1634.4 1728.7,1591.1 1722.6,1547.7 1717.7,1504.1 1714.1,1460.4 1711.8,1416.6 1710.8,1372.8 1711.1,1329.0 1712.6,1285.2 1715.4,1241.4 1719.4,1197.8 1724.6,1154.3 1731.0,1111.0 1738.5,1068.0 1747.1,1025.2 1756.9,982.8 1767.6,940.7 1779.4,899.0 1792.0,857.8 1805.5,817.1 1819.9,776.9 1834.9,737.2 1850.7,698.2 1867.0,659.9  " style="stroke-opacity: 1.000000; stroke-width: 5.0; stroke: rgb(251,106,74); fill: none"  />
<path d="M 1999.0,2269.1 L 1974.1,2230.9 1948.9,2192.8 1923.3,2154.6 1897.5,2116.4 1871.3,2078.3 1844.8,2040.2 1817.9,2002.2 1790.8,1964.3 1763.3,1926.4 1735.5,1888.7 1707.3,1851.1 1678.8,1813.6 1650.1,1776.3 1621.0,1739.1 1591.5,1702.2 1561.8,1665.4 1531.8,1628.8 1501.5,1592.4 1470.9,1556.3 1440.0,1520.4 1408.8,1484.7 1377.4,1449.3 1345.8,1414.1 1313.8,1379.2 1281.7,1344.6 1249.3,1310.2 1216.7,1276.2 1184.0,1242.4 1151.0,1208.9 1117.9,1175.8 1084.6,1142.9 1051.1,1110.4 1017.6,1078.1 983.9,1046.2 950.1,1014.6 916.3,983.3 882.3,952.4 848.4,921.7 814.4,891.4  " style="stroke-opacity: 1.000000; stroke-width: 5.0; stroke: rgb(251,106,74); fill: none"  />
<path d="M 1999.0,2269.1 L 1976.4,2235.1 1952.9,2201.4 1928.5,2167.9 1903.2,2134.8 1876.9,2102.3 1849.6,2070.3 1821.5,2039.0 1792.4,2008.5 1762.4,1978.8 1731.5,1950.0 1699.8,1922.2 1667.2,1895.4 1633.8,1869.8 1599.6,1845.3 1564.6,1821.9 1528.9,1799.9 1492.4,1779.1 1455.2,1759.6 1417.4,1741.4 1379.0,1724.7 1340.0,1709.2 1300.4,1695.2 1260.4,1682.6 1219.9,1671.4 1179.0,1661.5 1137.8,1653.1 1096.3,1646.0 1054.5,1640.3 1012.5,1635.9 970.4,1632.8 928.3,1631.0 886.1,1630.4 844.0,1631.0 802.1,1632.8 760.3,1635.6 718.8,1639.5 677.7,1644.3 636.9,1650.0 596.7,1656.5  " style="stroke-opacity: 1.000000; stroke-width: 5.0; stroke: rgb(251,106,74); fill: none"  />
<path d="M 1999.0,2269.1 L 1974.9,2231.6 1951.0,2193.6 1927.3,2155.2 1903.9,2116.4 1880.8,2077.1 1858.0,2037.4 1835.6,1997.2 1813.5,1956.7 1791.8,1915.8 1770.5,1874.5 1749.6,1832.8 1729.2,1790.8 1709.3,1748.5 1689.9,1705.8 1671.0,1662.8 1652.6,1619.6 1634.7,1576.0 1617.4,1532.2 1600.6,1488.2 1584.4,1444.0 1568.8,1399.6 1553.7,1354.9 1539.3,1310.2 1525.4,1265.3 1512.0,1220.2 1499.3,1175.1 1487.2,1129.9 1475.6,1084.7 1464.6,1039.4 1454.2,994.1 1444.3,948.9 1435.0,903.7 1426.2,858.5 1418.0,813.5 1410.2,768.5 1403.0,723.8 1396.2,679.2 1390.0,634.8 1384.1,590.6  " style="stroke-opacity: 1.000000; stroke-width: 5.0; stroke: rgb(251,106,74); fill: none"  />
<path d="M 1853.6,2345.8 L 1838.3,2308.0 1823.7,2269.6 1809.8,2230.6 1796.8,2191.0 1784.8,2150.9 1773.7,2110.4 1763.8,2069.5 1754.9,2028.2 1747.3,1986.7 1741.0,1945.0 1735.9,1903.1 1732.2,1861.1 1729.8,1819.1 1728.9,1777.0 1729.4,1734.9 1731.3,1693.0 1734.7,1651.1 1739.6,1609.4 1745.9,1568.0 1753.8,1526.8 1763.0,1485.9 1773.8,1445.3 1785.9,1405.1 1799.5,1365.4 1814.4,1326.1 1830.7,1287.3 1848.3,1249.0 1867.1,1211.3 1887.2,1174.1 1908.4,1137.6 1930.7,1101.8 1954.0,1066.7 1978.2,1032.2 2003.3,998.6 2029.2,965.7 2055.8,933.6 2083.0,902.3 2110.7,871.9 2138.8,842.4  " style="stroke-opacity: 1.000000; stroke-width: 5.0; stroke: rgb(251,106,74); fill: none"  />
<path d="M 1853.6,2345.8 L 1836.2,2304.8 1818.4,2263.7 1800.0,2222.5 1781.1,2181.2 1761.7,2140.0 1741.8,2098.7 1721.3,2057.5 1700.3,2016.4 1678.8,1975.4 1656.7,1934.6 1634.0,1893.9 1610.8,1853.3 1587.1,1813.0 1562.8,1772.9 1538.0,1733.0 1512.7,1693.4 1486.8,1654.1 1460.4,1615.1 1433.5,1576.4 1406.1,1538.1 1378.3,1500.1 1349.9,1462.6 1321.1,1425.3 1291.9,1388.5 1262.2,1352.2 1232.1,1316.2 1201.7,1280.7 1170.8,1245.6 1139.6,1211.0 1108.1,1176.8 1076.3,1143.1 1044.3,1110.0 1011.9,1077.2 979.4,1045.0 946.6,1013.3 913.7,982.1 880.7,951.3 847.6,921.1 814.4,891.4  " style="stroke-opacity: 1.000000; stroke-width: 5.0; stroke: rgb(251,106,74); fill: none"  />
<path d="M 1853.6,2345.8 L 1835.9,2303.8 1818.0,2261.8 1799.6,2219.7 1781.0,2177.5 1762.1,2135.3 1742.8,2093.1 1723.2,2050.9 1703.2,2008.7 1682.9,1966.6 1662.3,1924.5 1641.3,1882.5 1620.0,1840.5 1598.3,1798.6 1576.3,1756.9 1554.0,1715.3 1531.3,1673.8 1508.3,1632.4 1485.0,1591.2 1461.3,1550.2 1437.3,1509.3 1413.0,1468.6 1388.5,1428.2 1363.6,1387.9 1338.4,1347.9 1313.0,1308.1 1287.2,1268.5 1261.3,1229.2 1235.0,1190.1 1208.6,1151.3 1181.9,1112.7 1155.0,1074.5 1127.9,1036.5 1100.6,998.8 1073.2,961.3 1045.6,924.2 1017.9,887.4 990.1,850.9 962.1,814.7 934.1,778.8  " style="stroke-opacity: 1.000000; stroke-width: 5.0; stroke: rgb(251,106,74); fill: none"  />
<path d="M 1853.6,2345.8 L 1836.2,2303.7 1818.9,2261.4 1801.8,2218.8 1784.8,2175.9 1768.1,2132.8 1751.6,2089.4 1735.4,2045.8 1719.4,2002.0 1703.6,1957.9 1688.2,1913.7 1673.0,1869.2 1658.1,1824.6 1643.5,1779.8 1629.2,1734.8 1615.3,1689.6 1601.7,1644.3 1588.4,1598.9 1575.5,1553.4 1562.9,1507.7 1550.6,1461.9 1538.8,1416.1 1527.2,1370.2 1516.1,1324.2 1505.2,1278.1 1494.8,1232.1 1484.7,1186.0 1474.9,1139.8 1465.5,1093.7 1456.5,1047.6 1447.8,1001.6 1439.5,955.5 1431.4,909.6 1423.8,863.7 1416.4,817.9 1409.4,772.1 1402.6,726.5 1396.2,681.1 1390.0,635.8 1384.1,590.6  " style="stroke-opacity: 1.000000; stroke-width: 5.0; stroke: rgb(251,106,74); fill: none"  />
<path d="M 2138.8,842.4 L 2111.9,870.8 2085.5,900.0 2059.8,930.0 2034.9,960.8 2011.0,992.3 1988.1,1024.5 1966.3,1057.3 1945.8,1090.7 1926.7,1124.7 1909.0,1159.1 1892.8,1194.1 1878.2,1229.4 1865.2,1265.1 1854.0,1301.0 1844.5,1337.3 1836.8,1373.8 1830.9,1410.4 1826.9,1447.2 1824.7,1484.1 1824.4,1521.0 1826.0,1557.9 1829.4,1594.8 1834.7,1631.5 1841.9,1668.1 1850.8,1704.5 1861.4,1740.7 1873.8,1776.6 1887.9,1812.1 1903.5,1847.3 1920.7,1882.0 1939.3,1916.3 1959.3,1950.0 1980.5,1983.2 2002.9,2015.7 2026.3,2047.6 2050.7,2078.8 2075.9,2109.2 2101.8,2138.9 2128.3,2167.6  " style="stroke-opacity: 1.000000; stroke-width: 5.0; stroke: rgb(251,106,74); fill: none"  />
<path d="M 2138.8,842.4 L 2110.7,871.9 2083.0,902.3 2055.8,933.6 2029.2,965.7 2003.3,998.6 1978.2,1032.2 1954.0,1066.7 1930.7,1101.8 1908.4,1137.6 1887.2,1174.1 1867.1,1211.3 1848.3,1249.0 1830.7,1287.3 1814.4,1326.1 1799.5,1365.4 1785.9,1405.1 1773.8,1445.3 1763.0,1485.9 1753.8,1526.8 1745.9,1568.0 1739.6,1609.4 1734.7,1651.1 1731.3,1693.0 1729.4,1734.9 1728.9,1777.0 1729.8,1819.1 1732.2,1861.1 1735.9,1903.1 1741.0,1945.0 1747.3,1986.7 1754.9,2028.2 1763.8,2069.5 1773.7,2110.4 1784.8,2150.9 1796.8,2191.0 1809.8,2230.6 1823.7,2269.6 1838.3,2308.0 1853.6,2345.8  " style="stroke-opacity: 1.000000; stroke-width: 5.0; stroke: rgb(251,106,74); fill: none"  />
<path d="M 2138.8,842.4 L 2108.6,873.9 2078.6,905.9 2048.8,938.7 2019.3,972.0 1990.1,1006.0 1961.2,1040.6 1932.8,1075.8 1904.8,1111.5 1877.2,1147.9 1850.2,1184.8 1823.7,1222.3 1797.7,1260.4 1772.4,1298.9 1747.7,1338.0 1723.6,1377.5 1700.3,1417.5 1677.6,1458.0 1655.7,1498.9 1634.4,1540.2 1613.9,1581.9 1594.2,1623.9 1575.3,1666.3 1557.1,1708.9 1539.7,1751.9 1523.1,1795.1 1507.3,1838.5 1492.2,1882.1 1478.0,1925.9 1464.5,1969.8 1451.8,2013.7 1439.8,2057.8 1428.6,2101.8 1418.1,2145.8 1408.4,2189.8 1399.3,2233.7 1391.0,2277.4 1383.3,2321.0 1376.2,2364.4 1369.8,2407.5  " style="stroke-opacity: 1.000000; stroke-width: 5.0; stroke: rgb(251,106,74); fill: none"  />
<path d="M 1059.2,2303.8 L 1078.0,2268.6 1096.1,2232.7 1113.4,2196.1 1129.8,2159.0 1145.2,2121.2 1159.5,2083.1 1172.6,2044.4 1184.5,2005.5 1195.1,1966.2 1204.3,1926.7 1212.0,1887.0 1218.3,1847.2 1223.0,1807.3 1226.1,1767.4 1227.6,1727.5 1227.5,1687.6 1225.8,1647.9 1222.3,1608.4 1217.2,1569.1 1210.5,1530.1 1202.0,1491.3 1192.0,1453.0 1180.3,1415.0 1167.0,1377.5 1152.1,1340.4 1135.7,1303.9 1117.9,1267.9 1098.6,1232.5 1077.9,1197.7 1056.0,1163.6 1032.8,1130.2 1008.5,1097.5 983.1,1065.5 956.8,1034.4 929.6,1004.0 901.7,974.6 873.1,945.9 843.9,918.2 814.4,891.4  " style="stroke-opacity: 1.000000; stroke-width: 5.0; stroke: rgb(251,106,74); fill: none"  />
<path d="M 1059.2,2303.8 L 1076.2,2272.9 1093.3,2242.4 1110.3,2212.3 1127.1,2183.1 1143.6,2154.8 1159.7,2127.7 1175.4,2101.8 1190.5,2077.5 1205.1,2054.9 1218.9,2034.0 1232.0,2015.1 1244.2,1998.2 1255.6,1983.4 1266.1,1970.9 1275.6,1960.7 1284.2,1952.8 1291.7,1947.3 1298.2,1944.2 1303.6,1943.7 1308.0,1945.6 1311.2,1949.9 1313.4,1956.7 1314.5,1966.0 1314.5,1977.6 1313.5,1991.6 1311.4,2007.8 1308.3,2026.2 1304.2,2046.7 1299.2,2069.1 1293.3,2093.5 1286.6,2119.5 1279.0,2147.1 1270.8,2176.2 1261.8,2206.4 1252.3,2237.8 1242.2,2270.0 1231.7,2302.8 1220.9,2336.1 1209.8,2369.6  " style="stroke-opacity: 1.000000; stroke-width: 5.0; stroke: rgb(251,106,74); fill: none"  />
<path d="M 1059.2,2303.8 L 1079.9,2265.5 1100.3,2226.6 1120.3,2187.1 1139.9,2147.1 1159.0,2106.6 1177.6,2065.6 1195.7,2024.1 1213.2,1982.1 1230.1,1939.8 1246.3,1897.0 1261.9,1853.8 1276.8,1810.2 1290.9,1766.3 1304.3,1722.1 1317.0,1677.6 1328.9,1632.8 1340.0,1587.7 1350.3,1542.5 1359.7,1497.0 1368.4,1451.4 1376.2,1405.6 1383.2,1359.8 1389.4,1313.8 1394.7,1267.8 1399.2,1221.7 1403.0,1175.6 1405.9,1129.6 1408.0,1083.6 1409.3,1037.7 1409.8,991.9 1409.6,946.3 1408.7,900.9 1407.1,855.7 1404.8,810.7 1401.8,766.0 1398.3,721.6 1394.1,677.5 1389.4,633.9 1384.1,590.6  " style="stroke-opacity: 1.000000; stroke-width: 5.0; stroke: rgb(251,106,74); fill: none"  />
<path d="M 804.9,2097.7 L 833.6,2072.4 861.9,2046.2 889.4,2019.2 916.2,1991.4 942.0,1963.0 966.7,1933.8 990.2,1904.1 1012.4,1873.7 1033.1,1842.8 1052.3,1811.4 1069.8,1779.6 1085.7,1747.3 1099.7,1714.7 1111.9,1681.8 1122.2,1648.6 1130.5,1615.2 1136.9,1581.6 1141.2,1547.9 1143.5,1514.1 1143.8,1480.3 1142.0,1446.4 1138.2,1412.6 1132.4,1379.0 1124.6,1345.4 1114.8,1312.1 1103.1,1279.0 1089.6,1246.1 1074.3,1213.7 1057.3,1181.5 1038.6,1149.8 1018.4,1118.6 996.7,1087.9 973.7,1057.8 949.4,1028.2 924.1,999.4 897.7,971.2 870.6,943.8 842.8,917.2 814.4,891.4  " style="stroke-opacity: 1.000000; stroke-width: 5.0; stroke: rgb(251,106,74); fill: none"  />
<path d="M 804.9,2097.7 L 836.2,2070.2 867.3,2041.9 898.1,2012.8 928.4,1982.7 958.3,1951.9 987.6,1920.3 1016.2,1887.8 1044.2,1854.5 1071.3,1820.5 1097.7,1785.7 1123.2,1750.2 1147.7,1714.0 1171.2,1677.1 1193.8,1639.5 1215.2,1601.3 1235.6,1562.5 1254.9,1523.1 1273.0,1483.2 1289.9,1442.7 1305.6,1401.8 1320.2,1360.4 1333.5,1318.7 1345.6,1276.5 1356.4,1234.0 1366.1,1191.3 1374.5,1148.3 1381.7,1105.1 1387.8,1061.8 1392.6,1018.4 1396.4,974.9 1399.0,931.4 1400.5,888.0 1401.0,844.7 1400.4,801.6 1398.9,758.7 1396.5,716.1 1393.1,673.8 1389.0,632.0 1384.1,590.6  " style="stroke-opacity: 1.000000; stroke-width: 5.0; stroke: rgb(251,106,74); fill: none"  />
<path d="M 814.4,891.4 L 849.2,922.3 883.9,953.3 918.7,984.5 953.4,1015.7 988.2,1047.1 1022.9,1078.6 1057.5,1110.2 1092.2,1141.9 1126.8,1173.7 1161.3,1205.6 1195.8,1237.6 1230.3,1269.7 1264.6,1302.0 1299.0,1334.3 1333.2,1366.8 1367.4,1399.3 1401.5,1431.9 1435.6,1464.7 1469.5,1497.5 1503.4,1530.4 1537.2,1563.4 1570.9,1596.4 1604.5,1629.6 1638.0,1662.8 1671.5,1696.1 1704.8,1729.5 1738.0,1762.9 1771.1,1796.4 1804.1,1830.0 1837.0,1863.6 1869.8,1897.3 1902.5,1931.0 1935.1,1964.7 1967.6,1998.5 1999.9,2032.3 2032.2,2066.1 2064.3,2099.9 2096.4,2133.8 2128.3,2167.6  " style="stroke-opacity: 1.000000; stroke-width: 5.0; stroke: rgb(251,106,74); fill: none"  />
<path d="M 814.4,891.4 L 848.4,921.7 882.3,952.4 916.3,983.3 950.1,1014.6 983.9,1046.2 1017.6,1078.1 1051.1,1110.4 1084.6,1142.9 1117.9,1175.8 1151.0,1208.9 1184.0,1242.4 1216.7,1276.2 1249.3,1310.2 1281.7,1344.6 1313.8,1379.2 1345.8,1414.1 1377.4,1449.3 1408.8,1484.7 1440.0,1520.4 1470.9,1556.3 1501.5,1592.4 1531.8,1628.8 1561.8,1665.4 1591.5,1702.2 1621.0,1739.1 1650.1,1776.3 1678.8,1813.6 1707.3,1851.1 1735.5,1888.7 1763.3,1926.4 1790.8,1964.3 1817.9,2002.2 1844.8,2040.2 1871.3,2078.3 1897.5,2116.4 1923.3,2154.6 1948.9,2192.8 1974.1,2230.9 1999.0,2269.1  " style="stroke-opacity: 1.000000; stroke-width: 5.0; stroke: rgb(251,106,74); fill: none"  />
<path d="M 814.4,891.4 L 847.6,921.1 880.7,951.3 913.7,982.1 946.6,1013.3 979.4,1045.0 1011.9,1077.2 1044.3,1110.0 1076.3,1143.1 1108.1,1176.8 1139.6,1211.0 1170.8,1245.6 1201.7,1280.7 1232.1,1316.2 1262.2,1352.2 1291.9,1388.5 1321.1,1425.3 1349.9,1462.6 1378.3,1500.1 1406.1,1538.1 1433.5,1576.4 1460.4,1615.1 1486.8,1654.1 1512.7,1693.4 1538.0,1733.0 1562.8,1772.9 1587.1,1813.0 1610.8,1853.3 1634.0,1893.9 1656.7,1934.6 1678.8,1975.4 1700.3,2016.4 1721.3,2057.5 1741.8,2098.7 1761.7,2140.0 1781.1,2181.2 1800.0,2222.5 1818.4,2263.7 1836.2,2304.8 1853.6,2345.8  " style="stroke-opacity: 1.000000; stroke-width: 5.0; stroke: rgb(251,106,74); fill: none"  />
<path d="M 814.4,891.4 L 843.9,918.2 873.1,945.9 901.7,974.6 929.6,1004.0 956.8,1034.4 983.1,1065.5 1008.5,1097.5 1032.8,1130.2 1056.0,1163.6 1077.9,1197.7 1098.6,1232.5 1117.9,1267.9 1135.7,1303.9 1152.1,1340.4 1167.0,1377.5 1180.3,1415.0 1192.0,1453.0 1202.0,1491.3 1210.5,1530.1 1217.2,1569.1 1222.3,1608.4 1225.8,1647.9 1227.5,1687.6 1227.6,1727.5 1226.1,1767.4 1223.0,1807.3 1218.3,1847.2 1212.0,1887.0 1204.3,1926.7 1195.1,1966.2 1184.5,2005.5 1172.6,2044.4 1159.5,2083.1 1145.2,2121.2 1129.8,2159.0 1113.4,2196.1 1096.1,2232.7 1078.0,2268.6 1059.2,2303.8  " style="stroke-opacity: 1.000000; stroke-width: 5.0; stroke: rgb(251,106,74); fill: none"  />
<path d="M 814.4,891.4 L 842.8,917.2 870.6,943.8 897.7,971.2 924.1,999.4 949.4,1028.2 973.7,1057.8 996.7,1087.9 1018.4,1118.6 1038.6,1149.8 1057.3,1181.5 1074.3,1213.7 1089.6,1246.1 1103.1,1279.0 1114.8,1312.1 1124.6,1345.4 1132.4,1379.0 1138.2,1412.6 1142.0,1446.4 1143.8,1480.3 1143.5,1514.1 1141.2,1547.9 1136.9,1581.6 1130.5,1615.2 1122.2,1648.6 1111.9,1681.8 1099.7,1714.7 1085.7,1747.3 1069.8,1779.6 1052.3,1811.4 1033.1,1842.8 1012.4,1873.7 990.2,1904.1 966.7,1933.8 942.0,1963.0 916.2,1991.4 889.4,2019.2 861.9,2046.2 833.6,2072.4 804.9,2097.7  " style="stroke-opacity: 1.000000; stroke-width: 5.0; stroke: rgb(251,106,74); fill: none"  />
<path d="M 814.4,891.4 L 841.8,916.3 868.7,941.8 894.7,967.9 919.9,994.5 943.9,1021.6 966.8,1049.0 988.2,1076.7 1008.0,1104.7 1026.3,1132.8 1042.7,1161.0 1057.3,1189.3 1070.0,1217.5 1080.6,1245.7 1089.0,1273.7 1095.4,1301.6 1099.5,1329.2 1101.4,1356.6 1101.0,1383.6 1098.3,1410.2 1093.3,1436.5 1086.0,1462.2 1076.5,1487.5 1064.8,1512.3 1050.8,1536.5 1034.7,1560.1 1016.6,1583.1 996.4,1605.4 974.3,1627.0 950.4,1648.0 924.7,1668.2 897.5,1687.7 868.7,1706.4 838.7,1724.4 807.4,1741.6 775.1,1758.0 741.9,1773.5 708.1,1788.3 673.8,1802.2 639.2,1815.3  " style="stroke-opacity: 1.000000; stroke-width: 5.0; stroke: rgb(251,106,74); fill: none"  />
<path d="M 814.4,891.4 L 846.1,919.9 877.5,949.2 908.7,979.3 939.6,1010.1 970.1,1041.7 1000.2,1074.0 1029.7,1107.1 1058.8,1140.9 1087.2,1175.4 1115.0,1210.6 1142.0,1246.4 1168.4,1283.0 1194.0,1320.1 1218.7,1357.9 1242.7,1396.3 1265.7,1435.3 1287.9,1474.8 1309.1,1514.9 1329.5,1555.4 1348.8,1596.4 1367.2,1637.9 1384.6,1679.7 1401.0,1722.0 1416.4,1764.5 1430.8,1807.4 1444.3,1850.6 1456.7,1893.9 1468.1,1937.5 1478.6,1981.2 1488.1,2025.0 1496.6,2068.9 1504.3,2112.8 1511.0,2156.6 1516.8,2200.4 1521.8,2244.0 1526.0,2287.5 1529.3,2330.7 1532.0,2373.6 1533.9,2416.1  " style="stroke-opacity: 1.000000; stroke-width: 5.0; stroke: rgb(251,106,74); fill: none"  />
<path d="M 934.1,778.8 L 962.1,814.7 990.1,850.9 1017.9,887.4 1045.6,924.2 1073.2,961.3 1100.6,998.8 1127.9,1036.5 1155.0,1074.5 1181.9,1112.7 1208.6,1151.3 1235.0,1190.1 1261.3,1229.2 1287.2,1268.5 1313.0,1308.1 1338.4,1347.9 1363.6,1387.9 1388.5,1428.2 1413.0,1468.6 1437.3,1509.3 1461.3,1550.2 1485.0,1591.2 1508.3,1632.4 1531.3,1673.8 1554.0,1715.3 1576.3,1756.9 1598.3,1798.6 1620.0,1840.5 1641.3,1882.5 1662.3,1924.5 1682.9,1966.6 1703.2,2008.7 1723.2,2050.9 1742.8,2093.1 1762.1,2135.3 1781.0,2177.5 1799.6,2219.7 1818.0,2261.8 1835.9,2303.8 1853.6,2345.8  " style="stroke-opacity: 1.000000; stroke-width: 5.0; stroke: rgb(251,106,74); fill: none"  />
<path d="M 639.2,1815.3 L 673.8,1802.2 708.1,1788.3 741.9,1773.5 775.1,1758.0 807.4,1741.6 838.7,1724.4 868.7,1706.4 897.5,1687.7 924.7,1668.2 950.4,1648.0 974.3,1627.0 996.4,1605.4 1016.6,1583.1 1034.7,1560.1 1050.8,1536.5 1064.8,1512.3 1076.5,1487.5 1086.0,1462.2 1093.3,1436.5 1098.3,1410.2 1101.0,1383.6 1101.4,1356.6 1099.5,1329.2 1095.4,1301.6 1089.0,1273.7 1080.6,1245.7 1070.0,1217.5 1057.3,1189.3 1042.7,1161.0 1026.3,1132.8 1008.0,1104.7 988.2,1076.7 966.8,1049.0 943.9,1021.6 919.9,994.5 894.7,967.9 868.7,941.8 841.8,916.3 814.4,891.4  " style="stroke-opacity: 1.000000; stroke-width: 5.0; stroke: rgb(251,106,74); fill: none"  />
<path d="M 596.7,1656.5 L 636.9,1650.0 677.7,1644.3 718.8,1639.5 760.3,1635.6 802.1,1632.8 844.0,1631.0 886.1,1630.4 928.3,1631.0 970.4,1632.8 1012.5,1635.9 1054.5,1640.3 1096.3,1646.0 1137.8,1653.1 1179.0,1661.5 1219.9,1671.4 1260.4,1682.6 1300.4,1695.2 1340.0,1709.2 1379.0,1724.7 1417.4,1741.4 1455.2,1759.6 1492.4,1779.1 1528.9,1799.9 1564.6,1821.9 1599.6,1845.3 1633.8,1869.8 1667.2,1895.4 1699.8,1922.2 1731.5,1950.0 1762.4,1978.8 1792.4,2008.5 1821.5,2039.0 1849.6,2070.3 1876.9,2102.3 1903.2,2134.8 1928.5,2167.9 1952.9,2201.4 1976.4,2235.1 1999.0,2269.1  " style="stroke-opacity: 1.000000; stroke-width: 5.0; stroke: rgb(251,106,74); fill: none"  />
<path d="M 596.7,1656.5 L 641.6,1648.9 686.7,1641.4 732.1,1634.2 777.6,1627.3 823.4,1620.6 869.4,1614.2 915.5,1608.0 961.8,1602.2 1008.2,1596.6 1054.8,1591.4 1101.5,1586.5 1148.4,1581.9 1195.3,1577.7 1242.4,1573.8 1289.5,1570.2 1336.7,1567.0 1383.9,1564.2 1431.2,1561.7 1478.5,1559.6 1525.8,1557.8 1573.2,1556.5 1620.5,1555.4 1667.8,1554.8 1715.1,1554.5 1762.4,1554.5 1809.6,1554.9 1856.7,1555.7 1903.7,1556.8 1950.7,1558.3 1997.6,1560.0 2044.3,1562.1 2090.9,1564.5 2137.3,1567.3 2183.6,1570.3 2229.8,1573.6 2275.7,1577.2 2321.5,1581.0 2367.0,1585.1 2412.4,1589.4  " style="stroke-opacity: 1.000000; stroke-width: 5.0; stroke: rgb(251,106,74); fill: none"  />
<path d="M 2412.4,1589.4 L 2367.0,1585.1 2321.5,1581.0 2275.7,1577.2 2229.8,1573.6 2183.6,1570.3 2137.3,1567.3 2090.9,1564.5 2044.3,1562.1 1997.6,1560.0 1950.7,1558.3 1903.7,1556.8 1856.7,1555.7 1809.6,1554.9 1762.4,1554.5 1715.1,1554.5 1667.8,1554.8 1620.5,1555.4 1573.2,1556.5 1525.8,1557.8 1478.5,1559.6 1431.2,1561.7 1383.9,1564.2 1336.7,1567.0 1289.5,1570.2 1242.4,1573.8 1195.3,1577.7 1148.4,1581.9 1101.5,1586.5 1054.8,1591.4 1008.2,1596.6 961.8,1602.2 915.5,1608.0 869.4,1614.2 823.4,1620.6 777.6,1627.3 732.1,1634.2 686.7,1641.4 641.6,1648.9 596.7,1656.5  " style="stroke-opacity: 1.000000; stroke-width: 5.0; stroke: rgb(251,106,74); fill: none"  />
<path d="M 1533.9,2416.1 L 1532.0,2373.6 1529.3,2330.7 1526.0,2287.5 1521.8,2244.0 1516.8,2200.4 1511.0,2156.6 1504.3,2112.8 1496.6,2068.9 1488.1,2025.0 1478.6,1981.2 1468.1,1937.5 1456.7,1893.9 1444.3,1850.6 1430.8,1807.4 1416.4,1764.5 1401.0,1722.0 1384.6,1679.7 1367.2,1637.9 1348.8,1596.4 1329.5,1555.4 1309.1,1514.9 1287.9,1474.8 1265.7,1435.3 1242.7,1396.3 1218.7,1357.9 1194.0,1320.1 1168.4,1283.0 1142.0,1246.4 1115.0,1210.6 1087.2,1175.4 1058.8,1140.9 1029.7,1107.1 1000.2,1074.0 970.1,1041.7 939.6,1010.1 908.7,979.3 877.5,949.2 846.1,919.9 814.4,891.4  " style="stroke-opacity: 1.000000; stroke-width: 5.0; stroke: rgb(251,106,74); fill: none"  />
<path d="M 1369.8,2407.5 L 1376.2,2364.4 1383.3,2321.0 1391.0,2277.4 1399.3,2233.7 1408.4,2189.8 1418.1,2145.8 1428.6,2101.8 1439.8,2057.8 1451.8,2013.7 1464.5,1969.8 1478.0,1925.9 1492.2,1882.1 1507.3,1838.5 1523.1,1795.1 1539.7,1751.9 1557.1,1708.9 1575.3,1666.3 1594.2,1623.9 1613.9,1581.9 1634.4,1540.2 1655.7,1498.9 1677.6,1458.0 1700.3,1417.5 1723.6,1377.5 1747.7,1338.0 1772.4,1298.9 1797.7,1260.4 1823.7,1222.3 1850.2,1184.8 1877.2,1147.9 1904.8,1111.5 1932.8,1075.8 1961.2,1040.6 1990.1,1006.0 2019.3,972.0 2048.8,938.7 2078.6,905.9 2108.6,873.9 2138.8,842.4  " style="stroke-opacity: 1.000000; stroke-width: 5.0; stroke: rgb(251,106,74); fill: none"  />
<path d="M 1072.0,689.3 L 1091.6,727.1 1110.7,765.6 1129.4,804.7 1147.5,844.4 1164.9,884.7 1181.7,925.6 1197.8,966.9 1213.1,1008.7 1227.6,1051.0 1241.2,1093.7 1254.0,1136.8 1265.8,1180.3 1276.7,1224.1 1286.6,1268.2 1295.5,1312.5 1303.4,1357.1 1310.3,1401.9 1316.1,1446.8 1320.9,1491.9 1324.6,1537.1 1327.2,1582.4 1328.8,1627.7 1329.3,1673.0 1328.8,1718.3 1327.2,1763.5 1324.6,1808.6 1321.0,1853.6 1316.4,1898.4 1310.9,1943.0 1304.4,1987.4 1297.0,2031.4 1288.7,2075.2 1279.6,2118.6 1269.7,2161.6 1259.0,2204.2 1247.6,2246.4 1235.6,2288.0 1223.0,2329.1 1209.8,2369.6  " style="stroke-opacity: 1.000000; stroke-width: 5.0; stroke: rgb(251,106,74); fill: none"  />
<path d="M 1209.8,2369.6 L 1224.5,2325.5 1239.1,2281.2 1253.7,2236.9 1268.2,2192.5 1282.6,2148.0 1297.0,2103.4 1311.2,2058.7 1325.4,2013.9 1339.5,1969.1 1353.5,1924.2 1367.4,1879.2 1381.2,1834.2 1394.9,1789.1 1408.5,1743.9 1422.0,1698.7 1435.4,1653.5 1448.7,1608.1 1461.8,1562.8 1474.9,1517.4 1487.8,1472.0 1500.6,1426.5 1513.3,1381.0 1525.9,1335.5 1538.3,1290.0 1550.6,1244.5 1562.8,1198.9 1574.9,1153.4 1586.9,1107.8 1598.8,1062.2 1610.5,1016.7 1622.1,971.2 1633.6,925.6 1645.0,880.1 1656.3,834.7 1667.5,789.2 1678.5,743.8 1689.5,698.5 1700.3,653.1 1711.1,607.9  " style="stroke-opacity: 1.000000; stroke-width: 5.0; stroke: rgb(251,106,74); fill: none"  />
<path d="M 1209.8,2369.6 L 1220.9,2336.1 1231.7,2302.8 1242.2,2270.0 1252.3,2237.8 1261.8,2206.4 1270.8,2176.2 1279.0,2147.1 1286.6,2119.5 1293.3,2093.5 1299.2,2069.1 1304.2,2046.7 1308.3,2026.2 1311.4,2007.8 1313.5,1991.6 1314.5,1977.6 1314.5,1966.0 1313.4,1956.7 1311.2,1949.9 1308.0,1945.6 1303.6,1943.7 1298.2,1944.2 1291.7,1947.3 1284.2,1952.8 1275.6,1960.7 1266.1,1970.9 1255.6,1983.4 1244.2,1998.2 1232.0,2015.1 1218.9,2034.0 1205.1,2054.9 1190.5,2077.5 1175.4,2101.8 1159.7,2127.7 1143.6,2154.8 1127.1,2183.1 1110.3,2212.3 1093.3,2242.4 1076.2,2272.9 1059.2,2303.8  " style="stroke-opacity: 1.000000; stroke-width: 5.0; stroke: rgb(251,106,74); fill: none"  />
<path d="M 1209.8,2369.6 L 1223.0,2329.1 1235.6,2288.0 1247.6,2246.4 1259.0,2204.2 1269.7,2161.6 1279.6,2118.6 1288.7,2075.2 1297.0,2031.4 1304.4,1987.4 1310.9,1943.0 1316.4,1898.4 1321.0,1853.6 1324.6,1808.6 1327.2,1763.5 1328.8,1718.3 1329.3,1673.0 1328.8,1627.7 1327.2,1582.4 1324.6,1537.1 1320.9,1491.9 1316.1,1446.8 1310.3,1401.9 1303.4,1357.1 1295.5,1312.5 1286.6,1268.2 1276.7,1224.1 1265.8,1180.3 1254.0,1136.8 1241.2,1093.7 1227.6,1051.0 1213.1,1008.7 1197.8,966.9 1181.7,925.6 1164.9,884.7 1147.5,844.4 1129.4,804.7 1110.7,765.6 1091.6,727.1 1072.0,689.3  " style="stroke-opacity: 1.000000; stroke-width: 5.0; stroke: rgb(251,106,74); fill: none"  />
<path d="M 1384.1,590.6 L 1389.9,633.8 1396.3,677.2 1403.3,720.9 1411.0,764.8 1419.3,808.8 1428.4,852.9 1438.1,897.1 1448.6,941.4 1459.9,985.6 1471.9,1029.7 1484.7,1073.8 1498.3,1117.8 1512.6,1161.7 1527.8,1205.3 1543.7,1248.8 1560.4,1292.0 1577.9,1335.0 1596.2,1377.6 1615.2,1420.0 1635.0,1462.0 1655.6,1503.6 1676.9,1544.8 1698.9,1585.6 1721.7,1626.0 1745.1,1665.9 1769.2,1705.4 1793.9,1744.3 1819.2,1782.8 1845.1,1820.7 1871.6,1858.0 1898.5,1894.8 1926.0,1931.0 1953.9,1966.7 1982.2,2001.7 2010.9,2036.2 2039.9,2070.0 2069.1,2103.2 2098.6,2135.7 2128.3,2167.6  " style="stroke-opacity: 1.000000; stroke-width: 5.0; stroke: rgb(251,106,74); fill: none"  />
<path d="M 1384.1,590.6 L 1390.0,634.8 1396.2,679.2 1403.0,723.8 1410.2,768.5 1418.0,813.5 1426.2,858.5 1435.0,903.7 1444.3,948.9 1454.2,994.1 1464.6,1039.4 1475.6,1084.7 1487.2,1129.9 1499.3,1175.1 1512.0,1220.2 1525.4,1265.3 1539.3,1310.2 1553.7,1354.9 1568.8,1399.6 1584.4,1444.0 1600.6,1488.2 1617.4,1532.2 1634.7,1576.0 1652.6,1619.6 1671.0,1662.8 1689.9,1705.8 1709.3,1748.5 1729.2,1790.8 1749.6,1832.8 1770.5,1874.5 1791.8,1915.8 1813.5,1956.7 1835.6,1997.2 1858.0,2037.4 1880.8,2077.1 1903.9,2116.4 1927.3,2155.2 1951.0,2193.6 1974.9,2231.6 1999.0,2269.1  " style="stroke-opacity: 1.000000; stroke-width: 5.0; stroke: rgb(251,106,74); fill: none"  />
<path d="M 1384.1,590.6 L 1390.0,635.8 1396.2,681.1 1402.6,726.5 1409.4,772.1 1416.4,817.9 1423.8,863.7 1431.4,909.6 1439.5,955.5 1447.8,1001.6 1456.5,1047.6 1465.5,1093.7 1474.9,1139.8 1484.7,1186.0 1494.8,1232.1 1505.2,1278.1 1516.1,1324.2 1527.2,1370.2 1538.8,1416.1 1550.6,1461.9 1562.9,1507.7 1575.5,1553.4 1588.4,1598.9 1601.7,1644.3 1615.3,1689.6 1629.2,1734.8 1643.5,1779.8 1658.1,1824.6 1673.0,1869.2 1688.2,1913.7 1703.6,1957.9 1719.4,2002.0 1735.4,2045.8 1751.6,2089.4 1768.1,2132.8 1784.8,2175.9 1801.8,2218.8 1818.9,2261.4 1836.2,2303.7 1853.6,2345.8  " style="stroke-opacity: 1.000000; stroke-width: 5.0; stroke: rgb(251,106,74); fill: none"  />
<path d="M 1384.1,590.6 L 1389.4,633.9 1394.1,677.5 1398.3,721.6 1401.8,766.0 1404.8,810.7 1407.1,855.7 1408.7,900.9 1409.6,946.3 1409.8,991.9 1409.3,1037.7 1408.0,1083.6 1405.9,1129.6 1403.0,1175.6 1399.2,1221.7 1394.7,1267.8 1389.4,1313.8 1383.2,1359.8 1376.2,1405.6 1368.4,1451.4 1359.7,1497.0 1350.3,1542.5 1340.0,1587.7 1328.9,1632.8 1317.0,1677.6 1304.3,1722.1 1290.9,1766.3 1276.8,1810.2 1261.9,1853.8 1246.3,1897.0 1230.1,1939.8 1213.2,1982.1 1195.7,2024.1 1177.6,2065.6 1159.0,2106.6 1139.9,2147.1 1120.3,2187.1 1100.3,2226.6 1079.9,2265.5 1059.2,2303.8  " style="stroke-opacity: 1.000000; stroke-width: 5.0; stroke: rgb(251,106,74); fill: none"  />
<path d="M 1384.1,590.6 L 1389.0,632.0 1393.1,673.8 1396.5,716.1 1398.9,758.7 1400.4,801.6 1401.0,844.7 1400.5,888.0 1399.0,931.4 1396.4,974.9 1392.6,1018.4 1387.8,1061.8 1381.7,1105.1 1374.5,1148.3 1366.1,1191.3 1356.4,1234.0 1345.6,1276.5 1333.5,1318.7 1320.2,1360.4 1305.6,1401.8 1289.9,1442.7 1273.0,1483.2 1254.9,1523.1 1235.6,1562.5 1215.2,1601.3 1193.8,1639.5 1171.2,1677.1 1147.7,1714.0 1123.2,1750.2 1097.7,1785.7 1071.3,1820.5 1044.2,1854.5 1016.2,1887.8 987.6,1920.3 958.3,1951.9 928.4,1982.7 898.1,2012.8 867.3,2041.9 836.2,2070.2 804.9,2097.7  " style="stroke-opacity: 1.000000; stroke-width: 5.0; stroke: rgb(251,106,74); fill: none"  />
</g>
<g id="track_0">
<path d="M 2128.3,2167.6 L 2103.9,2141.9 2079.4,2116.7 2055.0,2092.0 2030.7,2068.1 2006.8,2045.2 1983.4,2023.5 1960.5,2003.0 1938.3,1984.0 1917.0,1966.6 1896.5,1950.8 1877.0,1936.9 1858.5,1924.8 1841.2,1914.7 1825.1,1906.7 1810.3,1900.8 1796.8,1897.0 1784.6,1895.4 1773.8,1896.1 1764.5,1899.0 1756.5,1904.1 1750.1,1911.5 1745.1,1921.0 1741.6,1932.8 1739.5,1946.7 1738.9,1962.6 1739.7,1980.6 1741.8,2000.5 1745.3,2022.3 1750.1,2045.8 1756.2,2070.9 1763.4,2097.6 1771.7,2125.5 1781.1,2154.8 1791.4,2185.0 1802.5,2216.2 1814.4,2248.0 1827.0,2280.4 1840.1,2313.1 1853.6,2345.8  " style="stroke-opacity: 1.000000; stroke-width: 5.0; stroke: rgb(107,174,214); fill: none"  />
<path d="M 2128.3,2167.6 L 2103.4,2141.6 2078.1,2116.1 2052.5,2091.4 2026.8,2067.6 2001.0,2044.9 1975.3,2023.4 1949.7,2003.4 1924.4,1985.0 1899.4,1968.2 1874.8,1953.3 1850.7,1940.3 1827.2,1929.3 1804.3,1920.4 1782.0,1913.7 1760.6,1909.2 1739.9,1907.0 1720.1,1907.1 1701.2,1909.5 1683.2,1914.3 1666.2,1921.4 1650.1,1930.8 1635.1,1942.6 1621.1,1956.6 1608.2,1972.9 1596.3,1991.3 1585.5,2011.9 1575.8,2034.4 1567.0,2058.9 1559.4,2085.2 1552.7,2113.2 1547.1,2142.7 1542.4,2173.7 1538.7,2205.9 1535.9,2239.3 1533.9,2273.6 1532.8,2308.6 1532.5,2344.2 1532.9,2380.1 1533.9,2416.1  " style="stroke-opacity: 1.000000; stroke-width: 5.0; stroke: rgb(107,174,214); fill: none"  />
<path d="M 2128.3,2167.6 L 2103.0,2141.3 2077.2,2115.6 2051.0,2090.6 2024.5,2066.6 1997.7,2043.7 1970.8,2022.1 1943.9,2001.9 1916.9,1983.3 1890.1,1966.4 1863.4,1951.3 1837.0,1938.1 1810.9,1927.0 1785.1,1917.9 1759.8,1911.0 1735.0,1906.3 1710.7,1903.8 1687.0,1903.7 1664.0,1905.9 1641.7,1910.4 1620.0,1917.2 1599.1,1926.4 1579.0,1937.8 1559.7,1951.6 1541.3,1967.5 1523.7,1985.6 1507.0,2005.8 1491.1,2028.1 1476.2,2052.2 1462.1,2078.2 1449.0,2105.9 1436.7,2135.1 1425.4,2165.9 1414.9,2197.9 1405.3,2231.0 1396.6,2265.1 1388.7,2300.0 1381.6,2335.5 1375.3,2371.4 1369.8,2407.5  " style="stroke-opacity: 1.000000; stroke-width: 5.0; stroke: rgb(107,174,214); fill: none"  />
<path d="M 2128.3,2167.6 L 2102.6,2141.0 2076.3,2114.9 2049.4,2089.6 2022.1,2065.2 1994.4,2041.9 1966.3,2019.9 1937.9,1999.3 1909.4,1980.3 1880.8,1962.9 1852.1,1947.2 1823.4,1933.5 1794.8,1921.7 1766.4,1911.9 1738.1,1904.2 1710.1,1898.7 1682.3,1895.4 1655.0,1894.3 1628.0,1895.5 1601.4,1898.9 1575.3,1904.7 1549.8,1912.7 1524.8,1922.9 1500.4,1935.4 1476.6,1950.0 1453.5,1966.8 1431.0,1985.6 1409.3,2006.5 1388.3,2029.2 1368.0,2053.7 1348.6,2079.9 1329.9,2107.7 1312.0,2137.0 1294.9,2167.6 1278.6,2199.3 1263.2,2232.1 1248.6,2265.7 1234.8,2299.9 1221.9,2334.6 1209.8,2369.6  " style="stroke-opacity: 1.000000; stroke-width: 5.0; stroke: rgb(107,174,214); fill: none"  />
<path d="M 1548.4,584.5 L 1546.8,620.5 1545.9,656.4 1545.6,692.0 1546.2,727.0 1547.6,761.4 1549.9,794.8 1553.1,827.1 1557.3,858.1 1562.4,887.7 1568.6,915.8 1575.9,942.2 1584.2,966.9 1593.6,989.6 1604.1,1010.3 1615.7,1028.9 1628.4,1045.3 1642.1,1059.6 1656.9,1071.6 1672.8,1081.3 1689.7,1088.7 1707.6,1093.7 1726.5,1096.5 1746.3,1096.9 1767.0,1095.0 1788.6,1090.8 1810.9,1084.5 1833.9,1075.9 1857.6,1065.3 1881.9,1052.7 1906.7,1038.2 1932.0,1021.8 1957.6,1003.8 1983.5,984.2 2009.6,963.1 2035.7,940.9 2061.8,917.5 2087.7,893.1 2113.4,868.0 2138.8,842.4  " style="stroke-opacity: 1.000000; stroke-width: 5.0; stroke: rgb(107,174,214); fill: none"  />
<path d="M 1711.1,607.9 L 1703.1,642.4 1695.5,676.7 1688.3,710.7 1681.8,744.1 1675.8,776.6 1670.6,808.2 1666.1,838.5 1662.5,867.5 1659.7,895.0 1657.8,920.7 1656.9,944.7 1657.0,966.8 1658.1,986.8 1660.3,1004.6 1663.5,1020.3 1667.8,1033.6 1673.2,1044.7 1679.7,1053.3 1687.3,1059.5 1695.9,1063.3 1705.6,1064.6 1716.3,1063.5 1728.1,1060.0 1740.8,1054.0 1754.5,1045.8 1769.1,1035.2 1784.5,1022.4 1800.7,1007.5 1817.7,990.6 1835.4,971.7 1853.6,951.0 1872.4,928.6 1891.6,904.7 1911.2,879.5 1931.0,853.0 1951.1,825.5 1971.2,797.2 1991.2,768.2 2011.1,738.9  " style="stroke-opacity: 1.000000; stroke-width: 5.0; stroke: rgb(107,174,214); fill: none"  />
<path d="M 1711.1,607.9 L 1703.1,642.6 1695.6,677.3 1688.8,711.8 1682.8,745.7 1677.5,778.9 1673.1,811.2 1669.6,842.5 1667.2,872.5 1665.8,901.1 1665.6,928.3 1666.5,953.7 1668.6,977.4 1671.9,999.3 1676.5,1019.1 1682.4,1036.9 1689.6,1052.6 1698.0,1066.1 1707.8,1077.4 1718.8,1086.4 1731.1,1093.2 1744.6,1097.6 1759.4,1099.8 1775.3,1099.6 1792.4,1097.2 1810.6,1092.6 1829.8,1085.8 1850.0,1076.9 1871.1,1066.0 1893.1,1053.0 1915.8,1038.2 1939.2,1021.7 1963.2,1003.5 1987.7,983.8 2012.6,962.7 2037.8,940.4 2063.1,917.0 2088.5,892.8 2113.7,867.8 2138.8,842.4  " style="stroke-opacity: 1.000000; stroke-width: 5.0; stroke: rgb(107,174,214); fill: none"  />
<path d="M 1711.1,607.9 L 1703.1,643.0 1695.7,678.2 1689.2,713.1 1683.5,747.7 1678.7,781.7 1675.0,815.0 1672.4,847.4 1671.0,878.7 1670.8,908.7 1671.8,937.5 1674.3,964.8 1678.1,990.5 1683.3,1014.5 1689.9,1036.7 1698.0,1057.1 1707.5,1075.6 1718.5,1092.1 1730.9,1106.5 1744.8,1118.9 1760.1,1129.2 1776.8,1137.4 1794.9,1143.4 1814.4,1147.3 1835.1,1149.2 1857.0,1148.9 1880.1,1146.6 1904.3,1142.4 1929.5,1136.2 1955.7,1128.1 1982.7,1118.2 2010.5,1106.6 2038.9,1093.5 2067.8,1078.8 2097.2,1062.8 2126.9,1045.5 2156.8,1027.1 2186.7,1007.8 2216.4,987.7 2245.9,967.0  " style="stroke-opacity: 1.000000; stroke-width: 5.0; stroke: rgb(107,174,214); fill: none"  />
<path d="M 2011.1,738.9 L 1991.2,768.2 1971.2,797.2 1951.1,825.5 1931.0,853.0 1911.2,879.5 1891.6,904.7 1872.4,928.6 1853.6,951.0 1835.4,971.7 1817.7,990.6 1800.7,1007.5 1784.5,1022.4 1769.1,1035.2 1754.5,1045.8 1740.8,1054.0 1728.1,1060.0 1716.3,1063.5 1705.6,1064.6 1695.9,1063.3 1687.3,1059.5 1679.7,1053.3 1673.2,1044.7 1667.8,1033.6 1663.5,1020.3 1660.3,1004.6 1658.1,986.8 1657.0,966.8 1656.9,944.7 1657.8,920.7 1659.7,895.0 1662.5,867.5 1666.1,838.5 1670.6,808.2 1675.8,776.6 1681.8,744.1 1688.3,710.7 1695.5,676.7 1703.1,642.4 1711.1,607.9  " style="stroke-opacity: 1.000000; stroke-width: 5.0; stroke: rgb(107,174,214); fill: none"  />
<path d="M 2011.1,738.9 L 1991.5,768.3 1972.2,797.5 1953.3,826.3 1935.1,854.7 1917.5,882.4 1900.9,909.2 1885.2,935.0 1870.5,959.6 1857.1,982.9 1845.0,1004.8 1834.2,1025.1 1824.8,1043.8 1816.9,1060.7 1810.6,1075.8 1805.9,1088.9 1802.8,1100.2 1801.4,1109.4 1801.7,1116.5 1803.7,1121.6 1807.3,1124.6 1812.7,1125.5 1819.8,1124.3 1828.5,1121.0 1838.8,1115.6 1850.7,1108.3 1864.2,1099.0 1879.1,1087.8 1895.4,1074.8 1913.1,1060.0 1931.9,1043.6 1952.0,1025.6 1973.0,1006.2 1995.0,985.5 2017.8,963.6 2041.2,940.7 2065.2,917.0 2089.6,892.6 2114.1,867.7 2138.8,842.4  " style="stroke-opacity: 1.000000; stroke-width: 5.0; stroke: rgb(107,174,214); fill: none"  />
<path d="M 2011.1,738.9 L 1991.5,768.4 1972.3,797.9 1953.7,827.2 1935.8,856.2 1918.8,884.6 1902.8,912.3 1888.0,939.1 1874.4,964.9 1862.1,989.7 1851.3,1013.1 1842.0,1035.3 1834.4,1055.9 1828.4,1075.1 1824.1,1092.5 1821.7,1108.3 1821.0,1122.4 1822.2,1134.6 1825.2,1144.9 1830.1,1153.4 1836.9,1160.0 1845.5,1164.6 1855.9,1167.3 1868.2,1168.2 1882.2,1167.1 1897.9,1164.2 1915.2,1159.4 1934.2,1152.9 1954.6,1144.6 1976.4,1134.7 1999.6,1123.2 2024.0,1110.3 2049.4,1095.9 2075.8,1080.3 2103.0,1063.5 2130.9,1045.7 2159.3,1027.0 2188.1,1007.5 2217.0,987.5 2245.9,967.0  " style="stroke-opacity: 1.000000; stroke-width: 5.0; stroke: rgb(107,174,214); fill: none"  />
<path d="M 1853.6,2345.8 L 1840.1,2313.1 1827.0,2280.4 1814.4,2248.0 1802.5,2216.2 1791.4,2185.0 1781.1,2154.8 1771.7,2125.5 1763.4,2097.6 1756.2,2070.9 1750.1,2045.8 1745.3,2022.3 1741.8,2000.5 1739.7,1980.6 1738.9,1962.6 1739.5,1946.7 1741.6,1932.8 1745.1,1921.0 1750.1,1911.5 1756.5,1904.1 1764.5,1899.0 1773.8,1896.1 1784.6,1895.4 1796.8,1897.0 1810.3,1900.8 1825.1,1906.7 1841.2,1914.7 1858.5,1924.8 1877.0,1936.9 1896.5,1950.8 1917.0,1966.6 1938.3,1984.0 1960.5,2003.0 1983.4,2023.5 2006.8,2045.2 2030.7,2068.1 2055.0,2092.0 2079.4,2116.7 2103.9,2141.9 2128.3,2167.6  " style="stroke-opacity: 1.000000; stroke-width: 5.0; stroke: rgb(107,174,214); fill: none"  />
<path d="M 1853.6,2345.8 L 1839.8,2313.2 1825.8,2280.9 1811.6,2249.2 1797.2,2218.4 1782.9,2188.6 1768.6,2160.0 1754.4,2132.8 1740.3,2107.2 1726.4,2083.4 1712.8,2061.4 1699.4,2041.5 1686.4,2023.7 1673.7,2008.2 1661.5,1995.0 1649.7,1984.2 1638.3,1975.9 1627.5,1970.2 1617.2,1967.0 1607.4,1966.4 1598.2,1968.5 1589.6,1973.1 1581.5,1980.3 1574.1,1990.1 1567.3,2002.3 1561.1,2017.1 1555.5,2034.2 1550.5,2053.6 1546.2,2075.2 1542.4,2098.9 1539.2,2124.5 1536.6,2152.0 1534.6,2181.1 1533.1,2211.8 1532.1,2243.7 1531.6,2276.8 1531.5,2310.8 1531.9,2345.5 1532.7,2380.7 1533.9,2416.1  " style="stroke-opacity: 1.000000; stroke-width: 5.0; stroke: rgb(107,174,214); fill: none"  />
<path d="M 2138.8,842.4 L 2113.4,868.0 2087.7,893.1 2061.8,917.5 2035.7,940.9 2009.6,963.1 1983.5,984.2 1957.6,1003.8 1932.0,1021.8 1906.7,1038.2 1881.9,1052.7 1857.6,1065.3 1833.9,1075.9 1810.9,1084.5 1788.6,1090.8 1767.0,1095.0 1746.3,1096.9 1726.5,1096.5 1707.6,1093.7 1689.7,1088.7 1672.8,1081.3 1656.9,1071.6 1642.1,1059.6 1628.4,1045.3 1615.7,1028.9 1604.1,1010.3 1593.6,989.6 1584.2,966.9 1575.9,942.2 1568.6,915.8 1562.4,887.7 1557.3,858.1 1553.1,827.1 1549.9,794.8 1547.6,761.4 1546.2,727.0 1545.6,692.0 1545.9,656.4 1546.8,620.5 1548.4,584.5  " style="stroke-opacity: 1.000000; stroke-width: 5.0; stroke: rgb(107,174,214); fill: none"  />
<path d="M 2138.8,842.4 L 2113.7,867.8 2088.5,892.8 2063.1,917.0 2037.8,940.4 2012.6,962.7 1987.7,983.8 1963.2,1003.5 1939.2,1021.7 1915.8,1038.2 1893.1,1053.0 1871.1,1066.0 1850.0,1076.9 1829.8,1085.8 1810.6,1092.6 1792.4,1097.2 1775.3,1099.6 1759.4,1099.8 1744.6,1097.6 1731.1,1093.2 1718.8,1086.4 1707.8,1077.4 1698.0,1066.1 1689.6,1052.6 1682.4,1036.9 1676.5,1019.1 1671.9,999.3 1668.6,977.4 1666.5,953.7 1665.6,928.3 1665.8,901.1 1667.2,872.5 1669.6,842.5 1673.1,811.2 1677.5,778.9 1682.8,745.7 1688.8,711.8 1695.6,677.3 1703.1,642.6 1711.1,607.9  " style="stroke-opacity: 1.000000; stroke-width: 5.0; stroke: rgb(107,174,214); fill: none"  />
<path d="M 2138.8,842.4 L 2114.1,867.7 2089.6,892.6 2065.2,917.0 2041.2,940.7 2017.8,963.6 1995.0,985.5 1973.0,1006.2 1952.0,1025.6 1931.9,1043.6 1913.1,1060.0 1895.4,1074.8 1879.1,1087.8 1864.2,1099.0 1850.7,1108.3 1838.8,1115.6 1828.5,1121.0 1819.8,1124.3 1812.7,1125.5 1807.3,1124.6 1803.7,1121.6 1801.7,1116.5 1801.4,1109.4 1802.8,1100.2 1805.9,1088.9 1810.6,1075.8 1816.9,1060.7 1824.8,1043.8 1834.2,1025.1 1845.0,1004.8 1857.1,982.9 1870.5,959.6 1885.2,935.0 1900.9,909.2 1917.5,882.4 1935.1,854.7 1953.3,826.3 1972.2,797.5 1991.5,768.3 2011.1,738.9  " style="stroke-opacity: 1.000000; stroke-width: 5.0; stroke: rgb(107,174,214); fill: none"  />
<path d="M 2138.8,842.4 L 2114.2,867.8 2090.0,893.1 2066.3,918.1 2043.3,942.8 2021.1,966.9 1999.9,990.3 1979.9,1012.8 1961.1,1034.5 1943.7,1055.0 1927.8,1074.3 1913.6,1092.4 1901.0,1109.1 1890.3,1124.3 1881.4,1138.0 1874.4,1150.2 1869.3,1160.7 1866.3,1169.5 1865.3,1176.5 1866.3,1181.9 1869.4,1185.5 1874.6,1187.3 1881.7,1187.4 1890.9,1185.7 1902.0,1182.3 1915.0,1177.2 1929.9,1170.5 1946.6,1162.1 1965.0,1152.2 1985.0,1140.8 2006.5,1128.0 2029.4,1113.9 2053.6,1098.6 2078.9,1082.1 2105.2,1064.7 2132.4,1046.4 2160.2,1027.3 2188.5,1007.6 2217.2,987.5 2245.9,967.0  " style="stroke-opacity: 1.000000; stroke-width: 5.0; stroke: rgb(107,174,214); fill: none"  />
<path d="M 1059.2,2303.8 L 1076.1,2272.7 1092.6,2241.6 1108.5,2210.7 1123.7,2180.3 1138.1,2150.5 1151.5,2121.5 1163.9,2093.4 1175.1,2066.5 1185.1,2040.7 1193.7,2016.4 1201.0,1993.5 1206.8,1972.3 1211.0,1952.7 1213.7,1934.9 1214.7,1918.9 1214.1,1904.9 1211.9,1892.8 1207.9,1882.8 1202.3,1874.8 1195.0,1868.9 1186.0,1865.0 1175.3,1863.2 1163.1,1863.5 1149.2,1865.8 1133.8,1870.2 1117.0,1876.5 1098.7,1884.7 1079.1,1894.7 1058.2,1906.5 1036.2,1920.0 1013.1,1935.1 989.0,1951.7 964.1,1969.6 938.5,1988.8 912.4,2009.0 885.7,2030.2 858.8,2052.2 831.8,2074.7 804.9,2097.7  " style="stroke-opacity: 1.000000; stroke-width: 5.0; stroke: rgb(107,174,214); fill: none"  />
<path d="M 1059.2,2303.8 L 1076.1,2272.4 1092.5,2241.0 1108.3,2209.6 1123.2,2178.5 1137.1,2147.9 1149.9,2117.9 1161.6,2088.7 1171.9,2060.4 1180.8,2033.2 1188.3,2007.1 1194.2,1982.3 1198.5,1958.9 1201.0,1936.9 1201.9,1916.6 1201.0,1897.8 1198.2,1880.8 1193.7,1865.5 1187.3,1852.1 1179.1,1840.4 1169.0,1830.7 1157.2,1822.8 1143.5,1816.8 1128.1,1812.7 1111.0,1810.5 1092.3,1810.1 1071.9,1811.5 1050.1,1814.7 1026.8,1819.7 1002.2,1826.3 976.3,1834.5 949.3,1844.2 921.4,1855.4 892.5,1867.9 862.9,1881.6 832.7,1896.4 802.1,1912.2 771.2,1928.8 740.2,1946.1 709.3,1964.0  " style="stroke-opacity: 1.000000; stroke-width: 5.0; stroke: rgb(107,174,214); fill: none"  />
<path d="M 1059.2,2303.8 L 1076.3,2272.1 1092.7,2240.2 1108.3,2208.2 1123.0,2176.4 1136.6,2144.8 1149.1,2113.8 1160.2,2083.3 1169.9,2053.5 1178.1,2024.5 1184.7,1996.5 1189.6,1969.6 1192.8,1943.8 1194.2,1919.3 1193.7,1896.1 1191.4,1874.3 1187.1,1853.9 1180.9,1835.1 1172.7,1817.9 1162.6,1802.2 1150.6,1788.3 1136.7,1775.9 1120.8,1765.3 1103.2,1756.3 1083.7,1749.0 1062.5,1743.4 1039.6,1739.5 1015.1,1737.2 989.2,1736.5 961.8,1737.3 933.1,1739.6 903.3,1743.4 872.4,1748.5 840.6,1755.0 808.0,1762.6 774.8,1771.3 741.1,1781.1 707.1,1791.8 673.1,1803.2 639.2,1815.3  " style="stroke-opacity: 1.000000; stroke-width: 5.0; stroke: rgb(107,174,214); fill: none"  />
<path d="M 1696.9,2395.4 L 1689.0,2360.6 1680.7,2326.1 1671.9,2292.1 1662.6,2258.9 1653.0,2226.7 1642.9,2195.7 1632.5,2166.0 1621.6,2137.9 1610.4,2111.5 1598.9,2086.9 1587.0,2064.4 1574.8,2044.0 1562.3,2025.7 1549.6,2009.8 1536.6,1996.3 1523.3,1985.3 1509.8,1976.8 1496.2,1970.9 1482.3,1967.5 1468.3,1966.8 1454.2,1968.7 1440.0,1973.1 1425.7,1980.2 1411.3,1989.7 1397.0,2001.8 1382.6,2016.2 1368.3,2033.0 1354.0,2052.1 1339.8,2073.3 1325.7,2096.4 1311.8,2121.5 1298.1,2148.3 1284.5,2176.7 1271.3,2206.5 1258.3,2237.5 1245.6,2269.6 1233.3,2302.4 1221.3,2335.8 1209.8,2369.6  " style="stroke-opacity: 1.000000; stroke-width: 5.0; stroke: rgb(107,174,214); fill: none"  />
<path d="M 804.9,2097.7 L 831.8,2074.7 858.8,2052.2 885.7,2030.2 912.4,2009.0 938.5,1988.8 964.1,1969.6 989.0,1951.7 1013.1,1935.1 1036.2,1920.0 1058.2,1906.5 1079.1,1894.7 1098.7,1884.7 1117.0,1876.5 1133.8,1870.2 1149.2,1865.8 1163.1,1863.5 1175.3,1863.2 1186.0,1865.0 1195.0,1868.9 1202.3,1874.8 1207.9,1882.8 1211.9,1892.8 1214.1,1904.9 1214.7,1918.9 1213.7,1934.9 1211.0,1952.7 1206.8,1972.3 1201.0,1993.5 1193.7,2016.4 1185.1,2040.7 1175.1,2066.5 1163.9,2093.4 1151.5,2121.5 1138.1,2150.5 1123.7,2180.3 1108.5,2210.7 1092.6,2241.6 1076.1,2272.7 1059.2,2303.8  " style="stroke-opacity: 1.000000; stroke-width: 5.0; stroke: rgb(107,174,214); fill: none"  />
<path d="M 804.9,2097.7 L 831.6,2074.6 857.9,2051.6 883.8,2028.8 908.9,2006.3 933.2,1984.3 956.4,1962.9 978.4,1942.2 999.0,1922.3 1018.2,1903.4 1035.7,1885.6 1051.5,1868.9 1065.5,1853.4 1077.6,1839.2 1087.7,1826.3 1095.8,1814.9 1101.7,1804.9 1105.5,1796.4 1107.2,1789.4 1106.6,1784.0 1103.9,1780.1 1098.9,1777.8 1091.8,1777.1 1082.5,1778.0 1071.1,1780.4 1057.7,1784.3 1042.3,1789.7 1024.9,1796.5 1005.7,1804.7 984.8,1814.3 962.2,1825.1 938.1,1837.1 912.7,1850.2 886.0,1864.3 858.2,1879.3 829.5,1895.1 800.1,1911.6 770.1,1928.7 739.8,1946.2 709.3,1964.0  " style="stroke-opacity: 1.000000; stroke-width: 5.0; stroke: rgb(107,174,214); fill: none"  />
<path d="M 804.9,2097.7 L 831.6,2074.5 858.0,2051.1 883.7,2027.8 908.6,2004.7 932.6,1981.8 955.3,1959.4 976.8,1937.5 996.8,1916.2 1015.2,1895.6 1031.8,1875.8 1046.6,1857.0 1059.5,1839.1 1070.4,1822.3 1079.1,1806.5 1085.7,1792.0 1090.1,1778.6 1092.2,1766.6 1092.0,1755.8 1089.6,1746.3 1084.8,1738.2 1077.7,1731.4 1068.4,1726.0 1056.8,1721.9 1043.0,1719.2 1027.1,1717.9 1009.1,1717.9 989.1,1719.1 967.2,1721.6 943.5,1725.4 918.2,1730.3 891.2,1736.3 862.9,1743.4 833.3,1751.4 802.6,1760.3 771.0,1770.1 738.6,1780.6 705.7,1791.7 672.5,1803.3 639.2,1815.3  " style="stroke-opacity: 1.000000; stroke-width: 5.0; stroke: rgb(107,174,214); fill: none"  />
<path d="M 814.4,891.4 L 841.6,915.1 869.0,938.2 896.7,960.5 924.5,981.9 952.2,1002.2 979.7,1021.3 1007.0,1038.9 1033.9,1055.0 1060.3,1069.5 1086.1,1082.1 1111.2,1092.9 1135.7,1101.7 1159.3,1108.6 1182.0,1113.3 1203.8,1115.8 1224.6,1116.2 1244.3,1114.3 1262.9,1110.2 1280.4,1103.8 1296.7,1095.2 1311.8,1084.4 1325.7,1071.3 1338.4,1056.1 1349.8,1038.7 1360.0,1019.3 1368.9,997.9 1376.6,974.5 1383.1,949.4 1388.4,922.5 1392.5,894.0 1395.5,864.1 1397.4,832.8 1398.2,800.4 1398.0,766.9 1396.8,732.6 1394.8,697.6 1392.0,662.1 1388.4,626.4 1384.1,590.6  " style="stroke-opacity: 1.000000; stroke-width: 5.0; stroke: rgb(107,174,214); fill: none"  />
<path d="M 2245.9,967.0 L 2216.4,987.7 2186.7,1007.8 2156.8,1027.1 2126.9,1045.5 2097.2,1062.8 2067.8,1078.8 2038.9,1093.5 2010.5,1106.6 1982.7,1118.2 1955.7,1128.1 1929.5,1136.2 1904.3,1142.4 1880.1,1146.6 1857.0,1148.9 1835.1,1149.2 1814.4,1147.3 1794.9,1143.4 1776.8,1137.4 1760.1,1129.2 1744.8,1118.9 1730.9,1106.5 1718.5,1092.1 1707.5,1075.6 1698.0,1057.1 1689.9,1036.7 1683.3,1014.5 1678.1,990.5 1674.3,964.8 1671.8,937.5 1670.8,908.7 1671.0,878.7 1672.4,847.4 1675.0,815.0 1678.7,781.7 1683.5,747.7 1689.2,713.1 1695.7,678.2 1703.1,643.0 1711.1,607.9  " style="stroke-opacity: 1.000000; stroke-width: 5.0; stroke: rgb(107,174,214); fill: none"  />
<path d="M 2245.9,967.0 L 2217.0,987.5 2188.1,1007.5 2159.3,1027.0 2130.9,1045.7 2103.0,1063.5 2075.8,1080.3 2049.4,1095.9 2024.0,1110.3 1999.6,1123.2 1976.4,1134.7 1954.6,1144.6 1934.2,1152.9 1915.2,1159.4 1897.9,1164.2 1882.2,1167.1 1868.2,1168.2 1855.9,1167.3 1845.5,1164.6 1836.9,1160.0 1830.1,1153.4 1825.2,1144.9 1822.2,1134.6 1821.0,1122.4 1821.7,1108.3 1824.1,1092.5 1828.4,1075.1 1834.4,1055.9 1842.0,1035.3 1851.3,1013.1 1862.1,989.7 1874.4,964.9 1888.0,939.1 1902.8,912.3 1918.8,884.6 1935.8,856.2 1953.7,827.2 1972.3,797.9 1991.5,768.4 2011.1,738.9  " style="stroke-opacity: 1.000000; stroke-width: 5.0; stroke: rgb(107,174,214); fill: none"  />
<path d="M 2245.9,967.0 L 2217.2,987.5 2188.5,1007.6 2160.2,1027.3 2132.4,1046.4 2105.2,1064.7 2078.9,1082.1 2053.6,1098.6 2029.4,1113.9 2006.5,1128.0 1985.0,1140.8 1965.0,1152.2 1946.6,1162.1 1929.9,1170.5 1915.0,1177.2 1902.0,1182.3 1890.9,1185.7 1881.7,1187.4 1874.6,1187.3 1869.4,1185.5 1866.3,1181.9 1865.3,1176.5 1866.3,1169.5 1869.3,1160.7 1874.4,1150.2 1881.4,1138.0 1890.3,1124.3 1901.0,1109.1 1913.6,1092.4 1927.8,1074.3 1943.7,1055.0 1961.1,1034.5 1979.9,1012.8 1999.9,990.3 2021.1,966.9 2043.3,942.8 2066.3,918.1 2090.0,893.1 2114.2,867.8 2138.8,842.4  " style="stroke-opacity: 1.000000; stroke-width: 5.0; stroke: rgb(107,174,214); fill: none"  />
<path d="M 709.3,1964.0 L 740.2,1946.1 771.2,1928.8 802.1,1912.2 832.7,1896.4 862.9,1881.6 892.5,1867.9 921.4,1855.4 949.3,1844.2 976.3,1834.5 1002.2,1826.3 1026.8,1819.7 1050.1,1814.7 1071.9,1811.5 1092.3,1810.1 1111.0,1810.5 1128.1,1812.7 1143.5,1816.8 1157.2,1822.8 1169.0,1830.7 1179.1,1840.4 1187.3,1852.1 1193.7,1865.5 1198.2,1880.8 1201.0,1897.8 1201.9,1916.6 1201.0,1936.9 1198.5,1958.9 1194.2,1982.3 1188.3,2007.1 1180.8,2033.2 1171.9,2060.4 1161.6,2088.7 1149.9,2117.9 1137.1,2147.9 1123.2,2178.5 1108.3,2209.6 1092.5,2241.0 1076.1,2272.4 1059.2,2303.8  " style="stroke-opacity: 1.000000; stroke-width: 5.0; stroke: rgb(107,174,214); fill: none"  />
<path d="M 709.3,1964.0 L 739.8,1946.2 770.1,1928.7 800.1,1911.6 829.5,1895.1 858.2,1879.3 886.0,1864.3 912.7,1850.2 938.1,1837.1 962.2,1825.1 984.8,1814.3 1005.7,1804.7 1024.9,1796.5 1042.3,1789.7 1057.7,1784.3 1071.1,1780.4 1082.5,1778.0 1091.8,1777.1 1098.9,1777.8 1103.9,1780.1 1106.6,1784.0 1107.2,1789.4 1105.5,1796.4 1101.7,1804.9 1095.8,1814.9 1087.7,1826.3 1077.6,1839.2 1065.5,1853.4 1051.5,1868.9 1035.7,1885.6 1018.2,1903.4 999.0,1922.3 978.4,1942.2 956.4,1962.9 933.2,1984.3 908.9,2006.3 883.8,2028.8 857.9,2051.6 831.6,2074.6 804.9,2097.7  " style="stroke-opacity: 1.000000; stroke-width: 5.0; stroke: rgb(107,174,214); fill: none"  />
<path d="M 709.3,1964.0 L 739.7,1946.0 769.8,1928.1 799.3,1910.2 828.0,1892.6 855.8,1875.3 882.5,1858.4 907.8,1841.9 931.7,1826.1 953.9,1810.9 974.3,1796.5 992.9,1782.9 1009.4,1770.1 1023.9,1758.3 1036.1,1747.5 1046.1,1737.6 1053.7,1728.9 1059.0,1721.2 1061.8,1714.6 1062.2,1709.2 1060.2,1704.9 1055.8,1701.8 1048.9,1699.8 1039.6,1699.0 1028.0,1699.3 1014.0,1700.7 997.9,1703.3 979.6,1706.9 959.2,1711.6 936.9,1717.2 912.8,1723.8 887.0,1731.3 859.6,1739.7 830.8,1748.8 800.8,1758.6 769.7,1769.0 737.8,1780.0 705.3,1791.5 672.3,1803.3 639.2,1815.3  " style="stroke-opacity: 1.000000; stroke-width: 5.0; stroke: rgb(107,174,214); fill: none"  />
<path d="M 639.2,1815.3 L 673.1,1803.2 707.1,1791.8 741.1,1781.1 774.8,1771.3 808.0,1762.6 840.6,1755.0 872.4,1748.5 903.3,1743.4 933.1,1739.6 961.8,1737.3 989.2,1736.5 1015.1,1737.2 1039.6,1739.5 1062.5,1743.4 1083.7,1749.0 1103.2,1756.3 1120.8,1765.3 1136.7,1775.9 1150.6,1788.3 1162.6,1802.2 1172.7,1817.9 1180.9,1835.1 1187.1,1853.9 1191.4,1874.3 1193.7,1896.1 1194.2,1919.3 1192.8,1943.8 1189.6,1969.6 1184.7,1996.5 1178.1,2024.5 1169.9,2053.5 1160.2,2083.3 1149.1,2113.8 1136.6,2144.8 1123.0,2176.4 1108.3,2208.2 1092.7,2240.2 1076.3,2272.1 1059.2,2303.8  " style="stroke-opacity: 1.000000; stroke-width: 5.0; stroke: rgb(107,174,214); fill: none"  />
<path d="M 639.2,1815.3 L 672.5,1803.3 705.7,1791.7 738.6,1780.6 771.0,1770.1 802.6,1760.3 833.3,1751.4 862.9,1743.4 891.2,1736.3 918.2,1730.3 943.5,1725.4 967.2,1721.6 989.1,1719.1 1009.1,1717.9 1027.1,1717.9 1043.0,1719.2 1056.8,1721.9 1068.4,1726.0 1077.7,1731.4 1084.8,1738.2 1089.6,1746.3 1092.0,1755.8 1092.2,1766.6 1090.1,1778.6 1085.7,1792.0 1079.1,1806.5 1070.4,1822.3 1059.5,1839.1 1046.6,1857.0 1031.8,1875.8 1015.2,1895.6 996.8,1916.2 976.8,1937.5 955.3,1959.4 932.6,1981.8 908.6,2004.7 883.7,2027.8 858.0,2051.1 831.6,2074.5 804.9,2097.7  " style="stroke-opacity: 1.000000; stroke-width: 5.0; stroke: rgb(107,174,214); fill: none"  />
<path d="M 639.2,1815.3 L 672.3,1803.3 705.3,1791.5 737.8,1780.0 769.7,1769.0 800.8,1758.6 830.8,1748.8 859.6,1739.7 887.0,1731.3 912.8,1723.8 936.9,1717.2 959.2,1711.6 979.6,1706.9 997.9,1703.3 1014.0,1700.7 1028.0,1699.3 1039.6,1699.0 1048.9,1699.8 1055.8,1701.8 1060.2,1704.9 1062.2,1709.2 1061.8,1714.6 1059.0,1721.2 1053.7,1728.9 1046.1,1737.6 1036.1,1747.5 1023.9,1758.3 1009.4,1770.1 992.9,1782.9 974.3,1796.5 953.9,1810.9 931.7,1826.1 907.8,1841.9 882.5,1858.4 855.8,1875.3 828.0,1892.6 799.3,1910.2 769.8,1928.1 739.7,1946.0 709.3,1964.0  " style="stroke-opacity: 1.000000; stroke-width: 5.0; stroke: rgb(107,174,214); fill: none"  />
<path d="M 1533.9,2416.1 L 1532.9,2380.1 1532.5,2344.2 1532.8,2308.6 1533.9,2273.6 1535.9,2239.3 1538.7,2205.9 1542.4,2173.7 1547.1,2142.7 1552.7,2113.2 1559.4,2085.2 1567.0,2058.9 1575.8,2034.4 1585.5,2011.9 1596.3,1991.3 1608.2,1972.9 1621.1,1956.6 1635.1,1942.6 1650.1,1930.8 1666.2,1921.4 1683.2,1914.3 1701.2,1909.5 1720.1,1907.1 1739.9,1907.0 1760.6,1909.2 1782.0,1913.7 1804.3,1920.4 1827.2,1929.3 1850.7,1940.3 1874.8,1953.3 1899.4,1968.2 1924.4,1985.0 1949.7,2003.4 1975.3,2023.4 2001.0,2044.9 2026.8,2067.6 2052.5,2091.4 2078.1,2116.1 2103.4,2141.6 2128.3,2167.6  " style="stroke-opacity: 1.000000; stroke-width: 5.0; stroke: rgb(107,174,214); fill: none"  />
<path d="M 1533.9,2416.1 L 1532.7,2380.7 1531.9,2345.5 1531.5,2310.8 1531.6,2276.8 1532.1,2243.7 1533.1,2211.8 1534.6,2181.1 1536.6,2152.0 1539.2,2124.5 1542.4,2098.9 1546.2,2075.2 1550.5,2053.6 1555.5,2034.2 1561.1,2017.1 1567.3,2002.3 1574.1,1990.1 1581.5,1980.3 1589.6,1973.1 1598.2,1968.5 1607.4,1966.4 1617.2,1967.0 1627.5,1970.2 1638.3,1975.9 1649.7,1984.2 1661.5,1995.0 1673.7,2008.2 1686.4,2023.7 1699.4,2041.5 1712.8,2061.4 1726.4,2083.4 1740.3,2107.2 1754.4,2132.8 1768.6,2160.0 1782.9,2188.6 1797.2,2218.4 1811.6,2249.2 1825.8,2280.9 1839.8,2313.2 1853.6,2345.8  " style="stroke-opacity: 1.000000; stroke-width: 5.0; stroke: rgb(107,174,214); fill: none"  />
<path d="M 1369.8,2407.5 L 1375.3,2371.4 1381.6,2335.5 1388.7,2300.0 1396.6,2265.1 1405.3,2231.0 1414.9,2197.9 1425.4,2165.9 1436.7,2135.1 1449.0,2105.9 1462.1,2078.2 1476.2,2052.2 1491.1,2028.1 1507.0,2005.8 1523.7,1985.6 1541.3,1967.5 1559.7,1951.6 1579.0,1937.8 1599.1,1926.4 1620.0,1917.2 1641.7,1910.4 1664.0,1905.9 1687.0,1903.7 1710.7,1903.8 1735.0,1906.3 1759.8,1911.0 1785.1,1917.9 1810.9,1927.0 1837.0,1938.1 1863.4,1951.3 1890.1,1966.4 1916.9,1983.3 1943.9,2001.9 1970.8,2022.1 1997.7,2043.7 2024.5,2066.6 2051.0,2090.6 2077.2,2115.6 2103.0,2141.3 2128.3,2167.6  " style="stroke-opacity: 1.000000; stroke-width: 5.0; stroke: rgb(107,174,214); fill: none"  />
<path d="M 1209.8,2369.6 L 1221.9,2334.6 1234.8,2299.9 1248.6,2265.7 1263.2,2232.1 1278.6,2199.3 1294.9,2167.6 1312.0,2137.0 1329.9,2107.7 1348.6,2079.9 1368.0,2053.7 1388.3,2029.2 1409.3,2006.5 1431.0,1985.6 1453.5,1966.8 1476.6,1950.0 1500.4,1935.4 1524.8,1922.9 1549.8,1912.7 1575.3,1904.7 1601.4,1898.9 1628.0,1895.5 1655.0,1894.3 1682.3,1895.4 1710.1,1898.7 1738.1,1904.2 1766.4,1911.9 1794.8,1921.7 1823.4,1933.5 1852.1,1947.2 1880.8,1962.9 1909.4,1980.3 1937.9,1999.3 1966.3,2019.9 1994.4,2041.9 2022.1,2065.2 2049.4,2089.6 2076.3,2114.9 2102.6,2141.0 2128.3,2167.6  " style="stroke-opacity: 1.000000; stroke-width: 5.0; stroke: rgb(107,174,214); fill: none"  />
<path d="M 1209.8,2369.6 L 1221.3,2335.8 1233.3,2302.4 1245.6,2269.6 1258.3,2237.5 1271.3,2206.5 1284.5,2176.7 1298.1,2148.3 1311.8,2121.5 1325.7,2096.4 1339.8,2073.3 1354.0,2052.1 1368.3,2033.0 1382.6,2016.2 1397.0,2001.8 1411.3,1989.7 1425.7,1980.2 1440.0,1973.1 1454.2,1968.7 1468.3,1966.8 1482.3,1967.5 1496.2,1970.9 1509.8,1976.8 1523.3,1985.3 1536.6,1996.3 1549.6,2009.8 1562.3,2025.7 1574.8,2044.0 1587.0,2064.4 1598.9,2086.9 1610.4,2111.5 1621.6,2137.9 1632.5,2166.0 1642.9,2195.7 1653.0,2226.7 1662.6,2258.9 1671.9,2292.1 1680.7,2326.1 1689.0,2360.6 1696.9,2395.4  " style="stroke-opacity: 1.000000; stroke-width: 5.0; stroke: rgb(107,174,214); fill: none"  />
<path d="M 1223.6,625.9 L 1234.3,659.5 1245.1,692.8 1256.0,725.5 1266.8,757.5 1277.5,788.5 1288.0,818.2 1298.4,846.6 1308.5,873.4 1318.4,898.4 1327.9,921.5 1337.1,942.7 1345.8,961.6 1354.1,978.3 1362.0,992.7 1369.3,1004.6 1376.2,1014.0 1382.5,1020.8 1388.3,1025.0 1393.5,1026.7 1398.1,1025.6 1402.1,1022.0 1405.6,1015.7 1408.5,1006.9 1410.7,995.5 1412.4,981.6 1413.5,965.2 1414.1,946.6 1414.1,925.7 1413.5,902.7 1412.5,877.7 1410.9,850.9 1408.8,822.3 1406.4,792.2 1403.5,760.8 1400.2,728.2 1396.6,694.6 1392.7,660.4 1388.5,625.6 1384.1,590.6  " style="stroke-opacity: 1.000000; stroke-width: 5.0; stroke: rgb(107,174,214); fill: none"  />
<path d="M 1384.1,590.6 L 1388.4,626.4 1392.0,662.1 1394.8,697.6 1396.8,732.6 1398.0,766.9 1398.2,800.4 1397.4,832.8 1395.5,864.1 1392.5,894.0 1388.4,922.5 1383.1,949.4 1376.6,974.5 1368.9,997.9 1360.0,1019.3 1349.8,1038.7 1338.4,1056.1 1325.7,1071.3 1311.8,1084.4 1296.7,1095.2 1280.4,1103.8 1262.9,1110.2 1244.3,1114.3 1224.6,1116.2 1203.8,1115.8 1182.0,1113.3 1159.3,1108.6 1135.7,1101.7 1111.2,1092.9 1086.1,1082.1 1060.3,1069.5 1033.9,1055.0 1007.0,1038.9 979.7,1021.3 952.2,1002.2 924.5,981.9 896.7,960.5 869.0,938.2 841.6,915.1 814.4,891.4  " style="stroke-opacity: 1.000000; stroke-width: 5.0; stroke: rgb(107,174,214); fill: none"  />
<path d="M 1384.1,590.6 L 1388.5,625.6 1392.7,660.4 1396.6,694.6 1400.2,728.2 1403.5,760.8 1406.4,792.2 1408.8,822.3 1410.9,850.9 1412.5,877.7 1413.5,902.7 1414.1,925.7 1414.1,946.6 1413.5,965.2 1412.4,981.6 1410.7,995.5 1408.5,1006.9 1405.6,1015.7 1402.1,1022.0 1398.1,1025.6 1393.5,1026.7 1388.3,1025.0 1382.5,1020.8 1376.2,1014.0 1369.3,1004.6 1362.0,992.7 1354.1,978.3 1345.8,961.6 1337.1,942.7 1327.9,921.5 1318.4,898.4 1308.5,873.4 1298.4,846.6 1288.0,818.2 1277.5,788.5 1266.8,757.5 1256.0,725.5 1245.1,692.8 1234.3,659.5 1223.6,625.9  " style="stroke-opacity: 1.000000; stroke-width: 5.0; stroke: rgb(107,174,214); fill: none"  />
</g>
<defs>
<pattern id="vline" width="10" height="10" patternTransform="rotate(0 0 0)" patternUnits="userSpaceOnUse"><line x1="0" y1="0" x2="0" y2="10" style="stroke:black;stroke-width:5" /></pattern>
<pattern id="hline-sparse" width="10" height="10" patternTransform="rotate(0 0 0)" patternUnits="userSpaceOnUse"><line x1="0" y1="0" x2="10" y2="0" style="stroke:black;stroke-width:2" /></pattern>
<pattern id="hline" width="10" height="10" patternTransform="rotate(0 0 0)" patternUnits="userSpaceOnUse"><line x1="0" y1="0" x2="10" y2="0" style="stroke:black;stroke-width:5" /></pattern>
<pattern id="vline-sparse" width="10" height="10" patternTransform="rotate(0 0 0)" patternUnits="userSpaceOnUse"><line x1="0" y1="0" x2="0" y2="10" style="stroke:black;stroke-width:2" /></pattern>
<pattern id="checker" width="10" height="10" patternTransform="rotate(45 0 0)" patternUnits="userSpaceOnUse"><line x1="0" y1="0" x2="10" y2="0" style="stroke:black;stroke-width:2" /><line x1="0" y1="0" x2="0" y2="10" style="stroke:black;stroke-width:2" /></pattern>
<pattern id="checker" width="10" height="10" patternTransform="rotate(45 0 0)" patternUnits="userSpaceOnUse"><line x1="0" y1="0" x2="10" y2="0" style="stroke:black;stroke-width:5" /><line x1="0" y1="0" x2="0" y2="10" style="stroke:black;stroke-width:4" /></pattern>
</defs>
</svg>
