<?xml version="1.0" encoding="utf-8" standalone="no"?>
<!DOCTYPE svg PUBLIC "-//W3C//DTD SVG 1.1//EN" "http://www.w3.org/Graphics/SVG/1.1/DTD/svg11.dtd">
<svg width="3000px" height="3000px" version="1.1" xmlns="http://www.w3.org/2000/svg" xmlns:xlink="http://www.w3.org/1999/xlink">
<g id="bg">
<rect x="0" y="0" width="3000px" height="3000px" style="fill:rgb(255,255,255);"/>
</g>
<g id="ideograms">
<path d="M1500.000,535.000 A965.000,965.000 40.000 0,1 1601.714,540.376 L1618.579,381.267 A1125.000,1125.000 0.000 0,0 1500.000,375.000 Z" style="stroke-width:2.0;stroke:rgb(115,115,115);stroke-linecap:round;fill:rgb(153,204,255);" />
<text x="1637.1" y="307.9" font-size="195.0px" font-family="CMUBright-Bold" style="text-anchor:start;fill:rgb(0,0,0);" transform="rotate(273.0,1637.1,307.9)" >6</text>
<path d="M1500.000,535.000 A965.000,965.000 40.000 0,1 1601.714,540.376 L1618.579,381.267 A1125.000,1125.000 0.000 0,0 1500.000,375.000 Z" style="stroke-width:2.0;stroke:rgb(115,115,115);stroke-linecap:round;fill:none;" />
<path d="M1672.307,550.508 A965.000,965.000 40.000 0,1 1771.427,573.959 L1816.431,420.418 A1125.000,1125.000 0.000 0,0 1700.877,393.079 Z" style="stroke-width:2.0;stroke:rgb(115,115,115);stroke-linecap:round;fill:rgb(153,204,255);" />
<text x="1847.7" y="351.5" font-size="195.0px" font-family="CMUBright-Bold" style="text-anchor:start;fill:rgb(0,0,0);" transform="rotate(283.3,1847.7,351.5)" >8</text>
<path d="M1672.307,550.508 A965.000,965.000 40.000 0,1 1771.427,573.959 L1816.431,420.418 A1125.000,1125.000 0.000 0,0 1700.877,393.079 Z" style="stroke-width:2.0;stroke:rgb(115,115,115);stroke-linecap:round;fill:none;" />
<path d="M1839.077,596.533 A965.000,965.000 40.000 0,1 1932.417,637.306 L2004.113,494.269 A1125.000,1125.000 0.000 0,0 1895.297,446.736 Z" style="stroke-width:2.0;stroke:rgb(115,115,115);stroke-linecap:round;fill:rgb(153,204,255);" />
<text x="2047.2" y="432.0" font-size="195.0px" font-family="CMUBright-Bold" style="text-anchor:start;fill:rgb(0,0,0);" transform="rotate(293.6,2047.2,432.0)" >19</text>
<path d="M1839.077,596.533 A965.000,965.000 40.000 0,1 1932.417,637.306 L2004.113,494.269 A1125.000,1125.000 0.000 0,0 1895.297,446.736 Z" style="stroke-width:2.0;stroke:rgb(115,115,115);stroke-linecap:round;fill:none;" />
<path d="M1994.948,671.597 A965.000,965.000 40.000 0,1 2079.507,728.381 L2175.592,600.444 A1125.000,1125.000 0.000 0,0 2077.012,534.245 Z" style="stroke-width:2.0;stroke:rgb(115,115,115);stroke-linecap:round;fill:rgb(153,204,255);" />
<text x="2229.1" y="546.9" font-size="195.0px" font-family="CMUBright-Bold" style="text-anchor:start;fill:rgb(0,0,0);" transform="rotate(303.9,2229.1,546.9)" >35</text>
<path d="M1994.948,671.597 A965.000,965.000 40.000 0,1 2079.507,728.381 L2175.592,600.444 A1125.000,1125.000 0.000 0,0 2077.012,534.245 Z" style="stroke-width:2.0;stroke:rgb(115,115,115);stroke-linecap:round;fill:none;" />
<path d="M2134.911,773.286 A965.000,965.000 40.000 0,1 2207.972,844.256 L2325.356,735.532 A1125.000,1125.000 0.000 0,0 2240.181,652.795 Z" style="stroke-width:2.0;stroke:rgb(115,115,115);stroke-linecap:round;fill:rgb(116,196,118);" />
<text x="2386.2" y="690.9" font-size="195.0px" font-family="CMUBright-Bold" style="text-anchor:start;fill:rgb(0,0,0);" transform="rotate(314.2,2386.2,690.9)" >11</text>
<path d="M2134.911,773.286 A965.000,965.000 40.000 0,1 2207.972,844.256 L2325.356,735.532 A1125.000,1125.000 0.000 0,0 2240.181,652.795 Z" style="stroke-width:2.0;stroke:rgb(115,115,115);stroke-linecap:round;fill:none;" />
<path d="M2254.467,898.332 A965.000,965.000 40.000 0,1 2313.683,981.207 L2448.594,895.190 A1125.000,1125.000 0.000 0,0 2379.560,798.574 Z" style="stroke-width:2.0;stroke:rgb(115,115,115);stroke-linecap:round;fill:rgb(116,196,118);" />
<text x="2516.5" y="862.2" font-size="195.0px" font-family="CMUBright-Bold" style="text-anchor:start;fill:rgb(0,0,0);" transform="rotate(324.5,2516.5,862.2)" >14</text>
<path d="M2254.467,898.332 A965.000,965.000 40.000 0,1 2313.683,981.207 L2448.594,895.190 A1125.000,1125.000 0.000 0,0 2379.560,798.574 Z" style="stroke-width:2.0;stroke:rgb(115,115,115);stroke-linecap:round;fill:none;" />
<path d="M2349.775,1042.717 A965.000,965.000 40.000 0,1 2393.240,1134.833 L2541.342,1074.288 A1125.000,1125.000 0.000 0,0 2490.670,966.898 Z" style="stroke-width:2.0;stroke:rgb(115,115,115);stroke-linecap:round;fill:rgb(116,196,118);" />
<text x="2614.0" y="1053.9" font-size="195.0px" font-family="CMUBright-Bold" style="text-anchor:start;fill:rgb(0,0,0);" transform="rotate(334.7,2614.0,1053.9)" >22</text>
<path d="M2349.775,1042.717 A965.000,965.000 40.000 0,1 2393.240,1134.833 L2541.342,1074.288 A1125.000,1125.000 0.000 0,0 2490.670,966.898 Z" style="stroke-width:2.0;stroke:rgb(115,115,115);stroke-linecap:round;fill:none;" />
<path d="M2417.770,1201.799 A965.000,965.000 40.000 0,1 2444.089,1300.196 L2600.621,1267.068 A1125.000,1125.000 0.000 0,0 2569.939,1152.356 Z" style="stroke-width:2.0;stroke:rgb(115,115,115);stroke-linecap:round;fill:rgb(116,196,118);" />
<text x="2676.2" y="1262.0" font-size="195.0px" font-family="CMUBright-Bold" style="text-anchor:start;fill:rgb(0,0,0);" transform="rotate(345.0,2676.2,1262.0)" >23</text>
<path d="M2417.770,1201.799 A965.000,965.000 40.000 0,1 2444.089,1300.196 L2600.621,1267.068 A1125.000,1125.000 0.000 0,0 2569.939,1152.356 Z" style="stroke-width:2.0;stroke:rgb(115,115,115);stroke-linecap:round;fill:none;" />
<path d="M2456.267,1370.465 A965.000,965.000 40.000 0,1 2464.593,1471.980 L2624.526,1467.335 A1125.000,1125.000 0.000 0,0 2614.818,1348.988 Z" style="stroke-width:2.0;stroke:rgb(115,115,115);stroke-linecap:round;fill:rgb(116,196,118);" />
<text x="2699.7" y="1473.8" font-size="195.0px" font-family="CMUBright-Bold" style="text-anchor:start;fill:rgb(0,0,0);" transform="rotate(355.3,2699.7,1473.8)" >24</text>
<path d="M2456.267,1370.465 A965.000,965.000 40.000 0,1 2464.593,1471.980 L2624.526,1467.335 A1125.000,1125.000 0.000 0,0 2614.818,1348.988 Z" style="stroke-width:2.0;stroke:rgb(115,115,115);stroke-linecap:round;fill:none;" />
<path d="M2464.028,1543.295 A965.000,965.000 40.000 0,1 2454.095,1644.665 L2612.287,1668.651 A1125.000,1125.000 0.000 0,0 2623.867,1550.473 Z" style="stroke-width:2.0;stroke:rgb(115,115,115);stroke-linecap:round;fill:rgb(116,196,118);" />
<text x="2684.8" y="1690.4" font-size="195.0px" font-family="CMUBright-Bold" style="text-anchor:start;fill:rgb(0,0,0);" transform="rotate(5.6,2684.8,1690.4)" >33</text>
<path d="M2464.028,1543.295 A965.000,965.000 40.000 0,1 2454.095,1644.665 L2612.287,1668.651 A1125.000,1125.000 0.000 0,0 2623.867,1550.473 Z" style="stroke-width:2.0;stroke:rgb(115,115,115);stroke-linecap:round;fill:none;" />
<path d="M2440.805,1714.733 A965.000,965.000 40.000 0,1 2412.931,1812.701 L2564.298,1864.548 A1125.000,1125.000 0.000 0,0 2596.794,1750.336 Z" style="stroke-width:2.0;stroke:rgb(115,115,115);stroke-linecap:round;fill:rgb(153,0,204);" />
<text x="2632.4" y="1897.0" font-size="195.0px" font-family="CMUBright-Bold" style="text-anchor:start;fill:rgb(0,0,0);" transform="rotate(15.9,2632.4,1897.0)" >1</text>
<path d="M2440.805,1714.733 A965.000,965.000 40.000 0,1 2412.931,1812.701 L2564.298,1864.548 A1125.000,1125.000 0.000 0,0 2596.794,1750.336 Z" style="stroke-width:2.0;stroke:rgb(115,115,115);stroke-linecap:round;fill:none;" />
<path d="M2387.344,1879.269 A965.000,965.000 40.000 0,1 2342.425,1970.686 L2482.102,2048.727 A1125.000,1125.000 0.000 0,0 2534.469,1942.153 Z" style="stroke-width:2.0;stroke:rgb(115,115,115);stroke-linecap:round;fill:rgb(153,0,204);" />
<text x="2542.3" y="2094.6" font-size="195.0px" font-family="CMUBright-Bold" style="text-anchor:start;fill:rgb(0,0,0);" transform="rotate(26.2,2542.3,2094.6)" >9</text>
<path d="M2387.344,1879.269 A965.000,965.000 40.000 0,1 2342.425,1970.686 L2482.102,2048.727 A1125.000,1125.000 0.000 0,0 2534.469,1942.153 Z" style="stroke-width:2.0;stroke:rgb(115,115,115);stroke-linecap:round;fill:none;" />
<path d="M2305.363,2031.616 A965.000,965.000 40.000 0,1 2244.843,2113.542 L2368.340,2215.270 A1125.000,1125.000 0.000 0,0 2438.895,2119.759 Z" style="stroke-width:2.0;stroke:rgb(115,115,115);stroke-linecap:round;fill:rgb(153,0,204);" />
<text x="2420.7" y="2269.6" font-size="195.0px" font-family="CMUBright-Bold" style="text-anchor:start;fill:rgb(0,0,0);" transform="rotate(36.5,2420.7,2269.6)" >12</text>
<path d="M2305.363,2031.616 A965.000,965.000 40.000 0,1 2244.843,2113.542 L2368.340,2215.270 A1125.000,1125.000 0.000 0,0 2438.895,2119.759 Z" style="stroke-width:2.0;stroke:rgb(115,115,115);stroke-linecap:round;fill:none;" />
<path d="M2197.497,2166.875 A965.000,965.000 40.000 0,1 2123.321,2236.679 L2226.669,2358.823 A1125.000,1125.000 0.000 0,0 2313.144,2277.445 Z" style="stroke-width:2.0;stroke:rgb(115,115,115);stroke-linecap:round;fill:rgb(153,0,204);" />
<text x="2267.7" y="2422.3" font-size="195.0px" font-family="CMUBright-Bold" style="text-anchor:start;fill:rgb(0,0,0);" transform="rotate(46.7,2267.7,2422.3)" >17</text>
<path d="M2197.497,2166.875 A965.000,965.000 40.000 0,1 2123.321,2236.679 L2226.669,2358.823 A1125.000,1125.000 0.000 0,0 2313.144,2277.445 Z" style="stroke-width:2.0;stroke:rgb(115,115,115);stroke-linecap:round;fill:none;" />
<path d="M2067.213,2280.701 A965.000,965.000 40.000 0,1 1981.764,2336.139 L2061.642,2474.773 A1125.000,1125.000 0.000 0,0 2161.258,2410.144 Z" style="stroke-width:2.0;stroke:rgb(115,115,115);stroke-linecap:round;fill:rgb(153,0,204);" />
<text x="2089.8" y="2545.0" font-size="195.0px" font-family="CMUBright-Bold" style="text-anchor:start;fill:rgb(0,0,0);" transform="rotate(57.0,2089.8,2545.0)" >25</text>
<path d="M2067.213,2280.701 A965.000,965.000 40.000 0,1 1981.764,2336.139 L2061.642,2474.773 A1125.000,1125.000 0.000 0,0 2161.258,2410.144 Z" style="stroke-width:2.0;stroke:rgb(115,115,115);stroke-linecap:round;fill:none;" />
<path d="M1918.698,2369.435 A965.000,965.000 40.000 0,1 1824.724,2408.724 L1878.564,2559.393 A1125.000,1125.000 0.000 0,0 1988.119,2513.590 Z" style="stroke-width:2.0;stroke:rgb(115,115,115);stroke-linecap:round;fill:rgb(153,0,204);" />
<text x="1893.8" y="2633.6" font-size="195.0px" font-family="CMUBright-Bold" style="text-anchor:start;fill:rgb(0,0,0);" transform="rotate(67.3,1893.8,2633.6)" >28</text>
<path d="M1918.698,2369.435 A965.000,965.000 40.000 0,1 1824.724,2408.724 L1878.564,2559.393 A1125.000,1125.000 0.000 0,0 1988.119,2513.590 Z" style="stroke-width:2.0;stroke:rgb(115,115,115);stroke-linecap:round;fill:none;" />
<path d="M1756.726,2430.224 A965.000,965.000 40.000 0,1 1657.246,2452.102 L1683.318,2609.964 A1125.000,1125.000 0.000 0,0 1799.291,2584.458 Z" style="stroke-width:2.0;stroke:rgb(115,115,115);stroke-linecap:round;fill:rgb(153,0,204);" />
<text x="1685.0" y="2685.6" font-size="195.0px" font-family="CMUBright-Bold" style="text-anchor:start;fill:rgb(0,0,0);" transform="rotate(77.6,1685.0,2685.6)" >34</text>
<path d="M1756.726,2430.224 A965.000,965.000 40.000 0,1 1657.246,2452.102 L1683.318,2609.964 A1125.000,1125.000 0.000 0,0 1799.291,2584.458 Z" style="stroke-width:2.0;stroke:rgb(115,115,115);stroke-linecap:round;fill:none;" />
<path d="M1586.502,2461.115 A965.000,965.000 40.000 0,1 1484.715,2464.879 L1482.181,2624.859 A1125.000,1125.000 0.000 0,0 1600.844,2620.471 Z" style="stroke-width:2.0;stroke:rgb(115,115,115);stroke-linecap:round;fill:rgb(253,208,162);" />
<text x="1472.4" y="2699.7" font-size="195.0px" font-family="CMUBright-Bold" style="text-anchor:start;fill:rgb(0,0,0);" transform="rotate(87.9,1472.4,2699.7)" >5</text>
<path d="M1586.502,2461.115 A965.000,965.000 40.000 0,1 1484.715,2464.879 L1482.181,2624.859 A1125.000,1125.000 0.000 0,0 1600.844,2620.471 Z" style="stroke-width:2.0;stroke:rgb(115,115,115);stroke-linecap:round;fill:none;" />
<path d="M1413.498,2461.115 A965.000,965.000 40.000 0,1 1312.675,2446.644 L1281.616,2603.600 A1125.000,1125.000 0.000 0,0 1399.156,2620.471 Z" style="stroke-width:2.0;stroke:rgb(115,115,115);stroke-linecap:round;fill:rgb(253,208,162);" />
<text x="1400.0" y="2695.8" font-size="195.0px" font-family="CMUBright-Bold" style="text-anchor:end;fill:rgb(0,0,0);" transform="rotate(-81.8,1400.0,2695.8)" >7</text>
<path d="M1413.498,2461.115 A965.000,965.000 40.000 0,1 1312.675,2446.644 L1281.616,2603.600 A1125.000,1125.000 0.000 0,0 1399.156,2620.471 Z" style="stroke-width:2.0;stroke:rgb(115,115,115);stroke-linecap:round;fill:none;" />
<path d="M1243.274,2430.224 A965.000,965.000 40.000 0,1 1146.656,2397.983 L1088.070,2546.871 A1125.000,1125.000 0.000 0,0 1200.709,2584.458 Z" style="stroke-width:2.0;stroke:rgb(115,115,115);stroke-linecap:round;fill:rgb(253,208,162);" />
<text x="1191.0" y="2659.5" font-size="195.0px" font-family="CMUBright-Bold" style="text-anchor:end;fill:rgb(0,0,0);" transform="rotate(-71.5,1191.0,2659.5)" >10</text>
<path d="M1243.274,2430.224 A965.000,965.000 40.000 0,1 1146.656,2397.983 L1088.070,2546.871 A1125.000,1125.000 0.000 0,0 1200.709,2584.458 Z" style="stroke-width:2.0;stroke:rgb(115,115,115);stroke-linecap:round;fill:none;" />
<path d="M1081.302,2369.435 A965.000,965.000 40.000 0,1 991.993,2320.460 L907.764,2456.494 A1125.000,1125.000 0.000 0,0 1011.881,2513.590 Z" style="stroke-width:2.0;stroke:rgb(115,115,115);stroke-linecap:round;fill:rgb(253,208,162);" />
<text x="988.9" y="2585.7" font-size="195.0px" font-family="CMUBright-Bold" style="text-anchor:end;fill:rgb(0,0,0);" transform="rotate(-61.3,988.9,2585.7)" >13</text>
<path d="M1081.302,2369.435 A965.000,965.000 40.000 0,1 991.993,2320.460 L907.764,2456.494 A1125.000,1125.000 0.000 0,0 1011.881,2513.590 Z" style="stroke-width:2.0;stroke:rgb(115,115,115);stroke-linecap:round;fill:none;" />
<path d="M932.787,2280.701 A965.000,965.000 40.000 0,1 853.658,2216.566 L746.493,2335.375 A1125.000,1125.000 0.000 0,0 838.742,2410.144 Z" style="stroke-width:2.0;stroke:rgb(115,115,115);stroke-linecap:round;fill:rgb(253,208,162);" />
<text x="803.3" y="2477.0" font-size="195.0px" font-family="CMUBright-Bold" style="text-anchor:end;fill:rgb(0,0,0);" transform="rotate(-51.0,803.3,2477.0)" >16</text>
<path d="M932.787,2280.701 A965.000,965.000 40.000 0,1 853.658,2216.566 L746.493,2335.375 A1125.000,1125.000 0.000 0,0 838.742,2410.144 Z" style="stroke-width:2.0;stroke:rgb(115,115,115);stroke-linecap:round;fill:none;" />
<path d="M802.503,2166.875 A965.000,965.000 40.000 0,1 736.097,2089.642 L609.440,2187.406 A1125.000,1125.000 0.000 0,0 686.856,2277.445 Z" style="stroke-width:2.0;stroke:rgb(115,115,115);stroke-linecap:round;fill:rgb(253,208,162);" />
<text x="640.0" y="2336.9" font-size="195.0px" font-family="CMUBright-Bold" style="text-anchor:end;fill:rgb(0,0,0);" transform="rotate(-40.7,640.0,2336.9)" >20</text>
<path d="M802.503,2166.875 A965.000,965.000 40.000 0,1 736.097,2089.642 L609.440,2187.406 A1125.000,1125.000 0.000 0,0 686.856,2277.445 Z" style="stroke-width:2.0;stroke:rgb(115,115,115);stroke-linecap:round;fill:none;" />
<path d="M694.637,2031.616 A965.000,965.000 40.000 0,1 643.089,1943.766 L501.010,2017.344 A1125.000,1125.000 0.000 0,0 561.105,2119.759 Z" style="stroke-width:2.0;stroke:rgb(115,115,115);stroke-linecap:round;fill:rgb(253,208,162);" />
<text x="503.3" y="2168.3" font-size="195.0px" font-family="CMUBright-Bold" style="text-anchor:end;fill:rgb(0,0,0);" transform="rotate(-30.4,503.3,2168.3)" >21</text>
<path d="M694.637,2031.616 A965.000,965.000 40.000 0,1 643.089,1943.766 L501.010,2017.344 A1125.000,1125.000 0.000 0,0 561.105,2119.759 Z" style="stroke-width:2.0;stroke:rgb(115,115,115);stroke-linecap:round;fill:none;" />
<path d="M612.656,1879.269 A965.000,965.000 40.000 0,1 577.622,1783.627 L424.689,1830.653 A1125.000,1125.000 0.000 0,0 465.531,1942.153 Z" style="stroke-width:2.0;stroke:rgb(115,115,115);stroke-linecap:round;fill:rgb(253,141,60);" />
<text x="400.0" y="1979.6" font-size="195.0px" font-family="CMUBright-Bold" style="text-anchor:end;fill:rgb(0,0,0);" transform="rotate(-20.1,400.0,1979.6)" >2</text>
<path d="M612.656,1879.269 A965.000,965.000 40.000 0,1 577.622,1783.627 L424.689,1830.653 A1125.000,1125.000 0.000 0,0 465.531,1942.153 Z" style="stroke-width:2.0;stroke:rgb(115,115,115);stroke-linecap:round;fill:none;" />
<path d="M559.195,1714.733 A965.000,965.000 40.000 0,1 541.802,1614.372 L382.929,1633.336 A1125.000,1125.000 0.000 0,0 403.206,1750.336 Z" style="stroke-width:2.0;stroke:rgb(115,115,115);stroke-linecap:round;fill:rgb(253,141,60);" />
<text x="332.5" y="1777.4" font-size="195.0px" font-family="CMUBright-Bold" style="text-anchor:end;fill:rgb(0,0,0);" transform="rotate(-9.8,332.5,1777.4)" >3</text>
<path d="M559.195,1714.733 A965.000,965.000 40.000 0,1 541.802,1614.372 L382.929,1633.336 A1125.000,1125.000 0.000 0,0 403.206,1750.336 Z" style="stroke-width:2.0;stroke:rgb(115,115,115);stroke-linecap:round;fill:none;" />
<path d="M535.972,1543.295 A965.000,965.000 40.000 0,1 536.778,1441.441 L377.073,1431.732 A1125.000,1125.000 0.000 0,0 376.133,1550.473 Z" style="stroke-width:2.0;stroke:rgb(115,115,115);stroke-linecap:round;fill:rgb(253,141,60);" />
<text x="301.7" y="1564.5" font-size="195.0px" font-family="CMUBright-Bold" style="text-anchor:end;fill:rgb(0,0,0);" transform="rotate(0.5,301.7,1564.5)" >15</text>
<path d="M535.972,1543.295 A965.000,965.000 40.000 0,1 536.778,1441.441 L377.073,1431.732 A1125.000,1125.000 0.000 0,0 376.133,1550.473 Z" style="stroke-width:2.0;stroke:rgb(115,115,115);stroke-linecap:round;fill:none;" />
<path d="M543.733,1370.465 A965.000,965.000 40.000 0,1 562.714,1270.393 L407.309,1232.323 A1125.000,1125.000 0.000 0,0 385.182,1348.988 Z" style="stroke-width:2.0;stroke:rgb(115,115,115);stroke-linecap:round;fill:rgb(253,141,60);" />
<text x="309.5" y="1349.5" font-size="195.0px" font-family="CMUBright-Bold" style="text-anchor:end;fill:rgb(0,0,0);" transform="rotate(10.7,309.5,1349.5)" >30</text>
<path d="M543.733,1370.465 A965.000,965.000 40.000 0,1 562.714,1270.393 L407.309,1232.323 A1125.000,1125.000 0.000 0,0 385.182,1348.988 Z" style="stroke-width:2.0;stroke:rgb(115,115,115);stroke-linecap:round;fill:none;" />
<path d="M582.230,1201.799 A965.000,965.000 40.000 0,1 618.774,1106.724 L472.664,1041.517 A1125.000,1125.000 0.000 0,0 430.061,1152.356 Z" style="stroke-width:2.0;stroke:rgb(115,115,115);stroke-linecap:round;fill:rgb(253,141,60);" />
<text x="355.5" y="1139.3" font-size="195.0px" font-family="CMUBright-Bold" style="text-anchor:end;fill:rgb(0,0,0);" transform="rotate(21.0,355.5,1139.3)" >31</text>
<path d="M582.230,1201.799 A965.000,965.000 40.000 0,1 618.774,1106.724 L472.664,1041.517 A1125.000,1125.000 0.000 0,0 430.061,1152.356 Z" style="stroke-width:2.0;stroke:rgb(115,115,115);stroke-linecap:round;fill:none;" />
<path d="M650.225,1042.717 A965.000,965.000 40.000 0,1 703.158,955.695 L571.039,865.447 A1125.000,1125.000 0.000 0,0 509.330,966.898 Z" style="stroke-width:2.0;stroke:rgb(115,115,115);stroke-linecap:round;fill:rgb(253,141,60);" />
<text x="438.3" y="940.7" font-size="195.0px" font-family="CMUBright-Bold" style="text-anchor:end;fill:rgb(0,0,0);" transform="rotate(31.3,438.3,940.7)" >32</text>
<path d="M650.225,1042.717 A965.000,965.000 40.000 0,1 703.158,955.695 L571.039,865.447 A1125.000,1125.000 0.000 0,0 509.330,966.898 Z" style="stroke-width:2.0;stroke:rgb(115,115,115);stroke-linecap:round;fill:none;" />
<path d="M745.533,898.332 A965.000,965.000 40.000 0,1 813.153,822.160 L699.272,709.772 A1125.000,1125.000 0.000 0,0 620.440,798.574 Z" style="stroke-width:2.0;stroke:rgb(115,115,115);stroke-linecap:round;fill:rgb(66,146,198);" />
<text x="557.7" y="757.0" font-size="195.0px" font-family="CMUBright-Bold" style="text-anchor:end;fill:rgb(0,0,0);" transform="rotate(41.6,557.7,757.0)" >4</text>
<path d="M745.533,898.332 A965.000,965.000 40.000 0,1 813.153,822.160 L699.272,709.772 A1125.000,1125.000 0.000 0,0 620.440,798.574 Z" style="stroke-width:2.0;stroke:rgb(115,115,115);stroke-linecap:round;fill:none;" />
<path d="M865.089,773.286 A965.000,965.000 40.000 0,1 945.224,710.412 L853.241,579.496 A1125.000,1125.000 0.000 0,0 759.819,652.795 Z" style="stroke-width:2.0;stroke:rgb(115,115,115);stroke-linecap:round;fill:rgb(66,146,198);" />
<text x="702.5" y="603.4" font-size="195.0px" font-family="CMUBright-Bold" style="text-anchor:end;fill:rgb(0,0,0);" transform="rotate(51.9,702.5,603.4)" >18</text>
<path d="M865.089,773.286 A965.000,965.000 40.000 0,1 945.224,710.412 L853.241,579.496 A1125.000,1125.000 0.000 0,0 759.819,652.795 Z" style="stroke-width:2.0;stroke:rgb(115,115,115);stroke-linecap:round;fill:none;" />
<path d="M1005.052,671.597 A965.000,965.000 40.000 0,1 1095.126,624.042 L1027.997,478.806 A1125.000,1125.000 0.000 0,0 922.988,534.245 Z" style="stroke-width:2.0;stroke:rgb(115,115,115);stroke-linecap:round;fill:rgb(66,146,198);" />
<text x="875.4" y="475.4" font-size="195.0px" font-family="CMUBright-Bold" style="text-anchor:end;fill:rgb(0,0,0);" transform="rotate(62.2,875.4,475.4)" >26</text>
<path d="M1005.052,671.597 A965.000,965.000 40.000 0,1 1095.126,624.042 L1027.997,478.806 A1125.000,1125.000 0.000 0,0 922.988,534.245 Z" style="stroke-width:2.0;stroke:rgb(115,115,115);stroke-linecap:round;fill:none;" />
<path d="M1160.923,596.533 A965.000,965.000 40.000 0,1 1258.041,565.826 L1217.923,410.937 A1125.000,1125.000 0.000 0,0 1104.703,446.736 Z" style="stroke-width:2.0;stroke:rgb(115,115,115);stroke-linecap:round;fill:rgb(66,146,198);" />
<text x="1069.3" y="379.9" font-size="195.0px" font-family="CMUBright-Bold" style="text-anchor:end;fill:rgb(0,0,0);" transform="rotate(72.5,1069.3,379.9)" >27</text>
<path d="M1160.923,596.533 A965.000,965.000 40.000 0,1 1258.041,565.826 L1217.923,410.937 A1125.000,1125.000 0.000 0,0 1104.703,446.736 Z" style="stroke-width:2.0;stroke:rgb(115,115,115);stroke-linecap:round;fill:none;" />
<path d="M1327.693,550.508 A965.000,965.000 40.000 0,1 1428.732,537.635 L1416.916,378.072 A1125.000,1125.000 0.000 0,0 1299.123,393.079 Z" style="stroke-width:2.0;stroke:rgb(115,115,115);stroke-linecap:round;fill:rgb(66,146,198);" />
<text x="1275.3" y="321.2" font-size="195.0px" font-family="CMUBright-Bold" style="text-anchor:end;fill:rgb(0,0,0);" transform="rotate(82.7,1275.3,321.2)" >29</text>
<path d="M1327.693,550.508 A965.000,965.000 40.000 0,1 1428.732,537.635 L1416.916,378.072 A1125.000,1125.000 0.000 0,0 1299.123,393.079 Z" style="stroke-width:2.0;stroke:rgb(115,115,115);stroke-linecap:round;fill:none;" />
</g>
<g id="track_1">
<path d="M 2381.8,1750.9 L 2344.1,1740.6 2305.9,1731.3 2267.2,1722.9 2228.3,1715.5 2189.2,1709.4 2150.0,1704.5 2110.8,1700.9 2071.7,1698.6 2032.7,1697.9 1994.0,1698.6 1955.5,1700.9 1917.5,1704.8 1880.0,1710.3 1842.9,1717.4 1806.5,1726.2 1770.7,1736.8 1735.7,1748.9 1701.4,1762.8 1667.9,1778.4 1635.2,1795.6 1603.5,1814.5 1572.6,1835.0 1542.8,1857.1 1513.9,1880.7 1486.1,1905.8 1459.3,1932.4 1433.6,1960.3 1408.9,1989.5 1385.4,2019.9 1362.9,2051.5 1341.6,2084.1 1321.3,2117.7 1302.2,2152.1 1284.1,2187.2 1267.2,2223.0 1251.3,2259.3 1236.4,2295.9 1222.6,2332.7 1209.8,2369.6  " style="stroke-opacity: 1.000000; stroke-width: 5.0; stroke: rgb(251,106,74); fill: none"  />
<path d="M 1533.9,2416.1 L 1532.3,2370.6 1531.0,2324.9 1529.9,2279.0 1529.2,2232.9 1528.7,2186.7 1528.5,2140.3 1528.6,2093.7 1529.0,2047.1 1529.7,2000.3 1530.8,1953.4 1532.2,1906.5 1534.0,1859.4 1536.1,1812.3 1538.5,1765.2 1541.3,1718.0 1544.5,1670.9 1548.0,1623.7 1551.9,1576.5 1556.2,1529.3 1560.8,1482.2 1565.8,1435.1 1571.1,1388.0 1576.8,1341.0 1582.9,1294.1 1589.3,1247.3 1596.0,1200.6 1603.1,1154.0 1610.5,1107.5 1618.2,1061.2 1626.3,1015.0 1634.6,969.0 1643.3,923.1 1652.2,877.5 1661.4,832.0 1670.9,786.7 1680.6,741.6 1690.5,696.8 1700.7,652.2 1711.1,607.9  " style="stroke-opacity: 1.000000; stroke-width: 5.0; stroke: rgb(251,106,74); fill: none"  />
<path d="M 1533.9,2416.1 L 1532.4,2371.6 1531.4,2326.8 1530.8,2281.7 1530.6,2236.3 1530.9,2190.7 1531.7,2144.9 1533.0,2099.0 1534.8,2052.8 1537.2,2006.6 1540.1,1960.2 1543.6,1913.7 1547.6,1867.2 1552.3,1820.6 1557.5,1774.1 1563.3,1727.5 1569.7,1680.9 1576.6,1634.4 1584.2,1587.9 1592.4,1541.5 1601.2,1495.2 1610.6,1449.1 1620.5,1403.0 1631.1,1357.2 1642.2,1311.5 1653.8,1266.0 1666.0,1220.8 1678.8,1175.7 1692.1,1131.0 1705.8,1086.5 1720.1,1042.2 1734.9,998.3 1750.0,954.7 1765.7,911.5 1781.7,868.6 1798.1,826.0 1814.9,783.9 1831.9,742.1 1849.3,700.8 1867.0,659.9  " style="stroke-opacity: 1.000000; stroke-width: 5.0; stroke: rgb(251,106,74); fill: none"  />
<path d="M 1548.4,584.5 L 1545.9,631.0 1543.3,677.5 1540.6,724.1 1537.8,770.7 1535.0,817.5 1532.0,864.2 1528.9,911.0 1525.7,957.8 1522.4,1004.7 1519.0,1051.6 1515.5,1098.6 1511.8,1145.5 1508.1,1192.5 1504.2,1239.5 1500.2,1286.5 1496.1,1333.6 1491.8,1380.6 1487.5,1427.6 1483.0,1474.6 1478.4,1521.6 1473.7,1568.6 1468.8,1615.6 1463.8,1662.5 1458.8,1709.4 1453.6,1756.3 1448.2,1803.2 1442.8,1850.0 1437.3,1896.8 1431.6,1943.5 1425.9,1990.2 1420.0,2036.8 1414.0,2083.4 1408.0,2129.9 1401.8,2176.4 1395.6,2222.7 1389.2,2269.0 1382.8,2315.3 1376.3,2361.4 1369.8,2407.5  " style="stroke-opacity: 1.000000; stroke-width: 5.0; stroke: rgb(251,106,74); fill: none"  />
<path d="M 1369.8,2407.5 L 1376.3,2361.4 1382.8,2315.3 1389.2,2269.0 1395.6,2222.7 1401.8,2176.4 1408.0,2129.9 1414.0,2083.4 1420.0,2036.8 1425.9,1990.2 1431.6,1943.5 1437.3,1896.8 1442.8,1850.0 1448.2,1803.2 1453.6,1756.3 1458.8,1709.4 1463.8,1662.5 1468.8,1615.6 1473.7,1568.6 1478.4,1521.6 1483.0,1474.6 1487.5,1427.6 1491.8,1380.6 1496.1,1333.6 1500.2,1286.5 1504.2,1239.5 1508.1,1192.5 1511.8,1145.5 1515.5,1098.6 1519.0,1051.6 1522.4,1004.7 1525.7,957.8 1528.9,911.0 1532.0,864.2 1535.0,817.5 1537.8,770.7 1540.6,724.1 1543.3,677.5 1545.9,631.0 1548.4,584.5  " style="stroke-opacity: 1.000000; stroke-width: 5.0; stroke: rgb(251,106,74); fill: none"  />
<path d="M 1369.8,2407.5 L 1375.5,2370.3 1382.3,2333.1 1390.0,2296.2 1398.7,2259.7 1408.5,2223.7 1419.4,2188.4 1431.4,2154.0 1444.6,2120.6 1458.9,2088.3 1474.4,2057.2 1491.1,2027.4 1508.9,1999.1 1528.0,1972.3 1548.2,1947.2 1569.6,1923.7 1592.2,1902.0 1615.8,1882.1 1640.6,1864.1 1666.5,1847.9 1693.4,1833.7 1721.3,1821.5 1750.2,1811.2 1780.0,1802.9 1810.6,1796.5 1842.1,1792.0 1874.2,1789.5 1907.1,1788.9 1940.5,1790.1 1974.5,1793.1 2008.9,1797.9 2043.7,1804.3 2078.7,1812.3 2113.9,1821.8 2149.2,1832.7 2184.5,1844.9 2219.5,1858.3 2254.4,1872.7 2288.8,1888.1 2322.8,1904.3  " style="stroke-opacity: 1.000000; stroke-width: 5.0; stroke: rgb(251,106,74); fill: none"  />
<path d="M 1369.8,2407.5 L 1375.4,2370.9 1381.9,2334.4 1389.4,2298.3 1397.7,2262.6 1407.1,2227.6 1417.4,2193.5 1428.7,2160.3 1441.1,2128.3 1454.5,2097.6 1469.0,2068.4 1484.6,2040.6 1501.2,2014.5 1518.8,1990.1 1537.6,1967.6 1557.3,1947.0 1578.1,1928.3 1599.9,1911.7 1622.7,1897.2 1646.4,1884.7 1671.0,1874.4 1696.5,1866.3 1722.9,1860.3 1750.0,1856.5 1777.9,1854.8 1806.4,1855.2 1835.6,1857.7 1865.4,1862.2 1895.6,1868.8 1926.3,1877.2 1957.3,1887.4 1988.6,1899.4 2020.1,1913.1 2051.6,1928.3 2083.2,1944.9 2114.6,1962.9 2145.9,1982.0 2176.8,2002.1 2207.4,2023.1 2237.4,2044.7  " style="stroke-opacity: 1.000000; stroke-width: 5.0; stroke: rgb(251,106,74); fill: none"  />
<path d="M 1369.8,2407.5 L 1375.2,2371.8 1381.2,2336.4 1387.9,2301.5 1395.3,2267.2 1403.3,2233.8 1412.0,2201.5 1421.4,2170.4 1431.6,2140.8 1442.4,2112.7 1453.9,2086.4 1466.2,2061.9 1479.1,2039.4 1492.7,2018.9 1507.1,2000.6 1522.0,1984.6 1537.7,1970.9 1553.9,1959.6 1570.8,1950.7 1588.3,1944.3 1606.3,1940.3 1624.8,1938.8 1643.9,1939.8 1663.4,1943.3 1683.3,1949.1 1703.6,1957.4 1724.3,1968.0 1745.2,1980.8 1766.4,1995.8 1787.8,2012.9 1809.4,2032.0 1831.0,2053.0 1852.6,2075.6 1874.2,2099.9 1895.7,2125.6 1917.0,2152.5 1938.0,2180.5 1958.8,2209.4 1979.1,2239.0 1999.0,2269.1  " style="stroke-opacity: 1.000000; stroke-width: 5.0; stroke: rgb(251,106,74); fill: none"  />
<path d="M 1711.1,607.9 L 1700.7,652.2 1690.5,696.8 1680.6,741.6 1670.9,786.7 1661.4,832.0 1652.2,877.5 1643.3,923.1 1634.6,969.0 1626.3,1015.0 1618.2,1061.2 1610.5,1107.5 1603.1,1154.0 1596.0,1200.6 1589.3,1247.3 1582.9,1294.1 1576.8,1341.0 1571.1,1388.0 1565.8,1435.1 1560.8,1482.2 1556.2,1529.3 1551.9,1576.5 1548.0,1623.7 1544.5,1670.9 1541.3,1718.0 1538.5,1765.2 1536.1,1812.3 1534.0,1859.4 1532.2,1906.5 1530.8,1953.4 1529.7,2000.3 1529.0,2047.1 1528.6,2093.7 1528.5,2140.3 1528.7,2186.7 1529.2,2232.9 1529.9,2279.0 1531.0,2324.9 1532.3,2370.6 1533.9,2416.1  " style="stroke-opacity: 1.000000; stroke-width: 5.0; stroke: rgb(251,106,74); fill: none"  />
<path d="M 1711.1,607.9 L 1700.3,653.1 1689.5,698.5 1678.5,743.8 1667.5,789.2 1656.3,834.7 1645.0,880.1 1633.6,925.6 1622.1,971.2 1610.5,1016.7 1598.8,1062.2 1586.9,1107.8 1574.9,1153.4 1562.8,1198.9 1550.6,1244.5 1538.3,1290.0 1525.9,1335.5 1513.3,1381.0 1500.6,1426.5 1487.8,1472.0 1474.9,1517.4 1461.8,1562.8 1448.7,1608.1 1435.4,1653.5 1422.0,1698.7 1408.5,1743.9 1394.9,1789.1 1381.2,1834.2 1367.4,1879.2 1353.5,1924.2 1339.5,1969.1 1325.4,2013.9 1311.2,2058.7 1297.0,2103.4 1282.6,2148.0 1268.2,2192.5 1253.7,2236.9 1239.1,2281.2 1224.5,2325.5 1209.8,2369.6  " style="stroke-opacity: 1.000000; stroke-width: 5.0; stroke: rgb(251,106,74); fill: none"  />
<path d="M 2322.8,1904.3 L 2288.8,1888.1 2254.4,1872.7 2219.5,1858.3 2184.5,1844.9 2149.2,1832.7 2113.9,1821.8 2078.7,1812.3 2043.7,1804.3 2008.9,1797.9 1974.5,1793.1 1940.5,1790.1 1907.1,1788.9 1874.2,1789.5 1842.1,1792.0 1810.6,1796.5 1780.0,1802.9 1750.2,1811.2 1721.3,1821.5 1693.4,1833.7 1666.5,1847.9 1640.6,1864.1 1615.8,1882.1 1592.2,1902.0 1569.6,1923.7 1548.2,1947.2 1528.0,1972.3 1508.9,1999.1 1491.1,2027.4 1474.4,2057.2 1458.9,2088.3 1444.6,2120.6 1431.4,2154.0 1419.4,2188.4 1408.5,2223.7 1398.7,2259.7 1390.0,2296.2 1382.3,2333.1 1375.5,2370.3 1369.8,2407.5  " style="stroke-opacity: 1.000000; stroke-width: 5.0; stroke: rgb(251,106,74); fill: none"  />
<path d="M 2322.8,1904.3 L 2288.2,1887.8 2253.0,1872.1 2217.4,1857.4 2181.3,1843.7 2145.0,1831.1 2108.5,1819.8 2071.9,1809.9 2035.3,1801.5 1998.7,1794.6 1962.3,1789.3 1926.1,1785.7 1890.3,1783.8 1854.8,1783.7 1819.7,1785.4 1785.1,1789.0 1751.1,1794.5 1717.8,1801.8 1685.1,1811.1 1653.1,1822.3 1621.8,1835.3 1591.4,1850.2 1561.9,1867.0 1533.2,1885.6 1505.4,1906.0 1478.6,1928.0 1452.7,1951.8 1427.9,1977.1 1404.0,2004.0 1381.2,2032.3 1359.4,2061.9 1338.6,2092.8 1318.9,2124.8 1300.2,2157.8 1282.6,2191.7 1266.0,2226.4 1250.5,2261.6 1235.9,2297.4 1222.4,2333.4 1209.8,2369.6  " style="stroke-opacity: 1.000000; stroke-width: 5.0; stroke: rgb(251,106,74); fill: none"  />
<path d="M 1209.8,2369.6 L 1222.6,2332.7 1236.4,2295.9 1251.3,2259.3 1267.2,2223.0 1284.1,2187.2 1302.2,2152.1 1321.3,2117.7 1341.6,2084.1 1362.9,2051.5 1385.4,2019.9 1408.9,1989.5 1433.6,1960.3 1459.3,1932.4 1486.1,1905.8 1513.9,1880.7 1542.8,1857.1 1572.6,1835.0 1603.5,1814.5 1635.2,1795.6 1667.9,1778.4 1701.4,1762.8 1735.7,1748.9 1770.7,1736.8 1806.5,1726.2 1842.9,1717.4 1880.0,1710.3 1917.5,1704.8 1955.5,1700.9 1994.0,1698.6 2032.7,1697.9 2071.7,1698.6 2110.8,1700.9 2150.0,1704.5 2189.2,1709.4 2228.3,1715.5 2267.2,1722.9 2305.9,1731.3 2344.1,1740.6 2381.8,1750.9  " style="stroke-opacity: 1.000000; stroke-width: 5.0; stroke: rgb(251,106,74); fill: none"  />
<path d="M 1209.8,2369.6 L 1224.5,2325.5 1239.1,2281.2 1253.7,2236.9 1268.2,2192.5 1282.6,2148.0 1297.0,2103.4 1311.2,2058.7 1325.4,2013.9 1339.5,1969.1 1353.5,1924.2 1367.4,1879.2 1381.2,1834.2 1394.9,1789.1 1408.5,1743.9 1422.0,1698.7 1435.4,1653.5 1448.7,1608.1 1461.8,1562.8 1474.9,1517.4 1487.8,1472.0 1500.6,1426.5 1513.3,1381.0 1525.9,1335.5 1538.3,1290.0 1550.6,1244.5 1562.8,1198.9 1574.9,1153.4 1586.9,1107.8 1598.8,1062.2 1610.5,1016.7 1622.1,971.2 1633.6,925.6 1645.0,880.1 1656.3,834.7 1667.5,789.2 1678.5,743.8 1689.5,698.5 1700.3,653.1 1711.1,607.9  " style="stroke-opacity: 1.000000; stroke-width: 5.0; stroke: rgb(251,106,74); fill: none"  />
<path d="M 1209.8,2369.6 L 1222.4,2333.4 1235.9,2297.4 1250.5,2261.6 1266.0,2226.4 1282.6,2191.7 1300.2,2157.8 1318.9,2124.8 1338.6,2092.8 1359.4,2061.9 1381.2,2032.3 1404.0,2004.0 1427.9,1977.1 1452.7,1951.8 1478.6,1928.0 1505.4,1906.0 1533.2,1885.6 1561.9,1867.0 1591.4,1850.2 1621.8,1835.3 1653.1,1822.3 1685.1,1811.1 1717.8,1801.8 1751.1,1794.5 1785.1,1789.0 1819.7,1785.4 1854.8,1783.7 1890.3,1783.8 1926.1,1785.7 1962.3,1789.3 1998.7,1794.6 2035.3,1801.5 2071.9,1809.9 2108.5,1819.8 2145.0,1831.1 2181.3,1843.7 2217.4,1857.4 2253.0,1872.1 2288.2,1887.8 2322.8,1904.3  " style="stroke-opacity: 1.000000; stroke-width: 5.0; stroke: rgb(251,106,74); fill: none"  />
<path d="M 1209.8,2369.6 L 1224.6,2325.5 1239.4,2281.3 1254.4,2237.1 1269.5,2192.9 1284.7,2148.6 1300.0,2104.4 1315.4,2060.1 1331.0,2015.8 1346.6,1971.5 1362.4,1927.1 1378.3,1882.8 1394.3,1838.5 1410.4,1794.2 1426.7,1750.0 1443.0,1705.7 1459.5,1661.5 1476.1,1617.3 1492.8,1573.1 1509.6,1529.0 1526.6,1484.9 1543.6,1440.9 1560.8,1396.9 1578.1,1353.0 1595.5,1309.1 1613.0,1265.3 1630.6,1221.5 1648.3,1177.8 1666.0,1134.2 1683.9,1090.7 1701.9,1047.2 1719.9,1003.8 1738.1,960.5 1756.3,917.3 1774.6,874.1 1792.9,831.1 1811.4,788.2 1829.8,745.3 1848.4,702.6 1867.0,659.9  " style="stroke-opacity: 1.000000; stroke-width: 5.0; stroke: rgb(251,106,74); fill: none"  />
<path d="M 1209.8,2369.6 L 1221.3,2335.8 1233.3,2302.4 1245.6,2269.6 1258.3,2237.5 1271.3,2206.5 1284.5,2176.7 1298.1,2148.3 1311.8,2121.5 1325.7,2096.4 1339.8,2073.3 1354.0,2052.1 1368.3,2033.0 1382.6,2016.2 1397.0,2001.8 1411.3,1989.7 1425.7,1980.2 1440.0,1973.1 1454.2,1968.7 1468.3,1966.8 1482.3,1967.5 1496.2,1970.9 1509.8,1976.8 1523.3,1985.3 1536.6,1996.3 1549.6,2009.8 1562.3,2025.7 1574.8,2044.0 1587.0,2064.4 1598.9,2086.9 1610.4,2111.5 1621.6,2137.9 1632.5,2166.0 1642.9,2195.7 1653.0,2226.7 1662.6,2258.9 1671.9,2292.1 1680.7,2326.1 1689.0,2360.6 1696.9,2395.4  " style="stroke-opacity: 1.000000; stroke-width: 5.0; stroke: rgb(251,106,74); fill: none"  />
<path d="M 2237.4,2044.7 L 2207.4,2023.1 2176.8,2002.1 2145.9,1982.0 2114.6,1962.9 2083.2,1944.9 2051.6,1928.3 2020.1,1913.1 1988.6,1899.4 1957.3,1887.4 1926.3,1877.2 1895.6,1868.8 1865.4,1862.2 1835.6,1857.7 1806.4,1855.2 1777.9,1854.8 1750.0,1856.5 1722.9,1860.3 1696.5,1866.3 1671.0,1874.4 1646.4,1884.7 1622.7,1897.2 1599.9,1911.7 1578.1,1928.3 1557.3,1947.0 1537.6,1967.6 1518.8,1990.1 1501.2,2014.5 1484.6,2040.6 1469.0,2068.4 1454.5,2097.6 1441.1,2128.3 1428.7,2160.3 1417.4,2193.5 1407.1,2227.6 1397.7,2262.6 1389.4,2298.3 1381.9,2334.4 1375.4,2370.9 1369.8,2407.5  " style="stroke-opacity: 1.000000; stroke-width: 5.0; stroke: rgb(251,106,74); fill: none"  />
<path d="M 2237.4,2044.7 L 2206.3,2022.3 2174.5,2000.6 2142.0,1979.7 2109.0,1959.8 2075.5,1941.0 2041.6,1923.4 2007.4,1907.1 1972.8,1892.2 1938.1,1878.9 1903.2,1867.2 1868.3,1857.2 1833.3,1848.9 1798.4,1842.5 1763.6,1837.9 1729.0,1835.3 1694.5,1834.6 1660.4,1835.9 1626.5,1839.1 1593.1,1844.4 1560.0,1851.7 1527.4,1860.9 1495.3,1872.2 1463.8,1885.3 1432.8,1900.4 1402.5,1917.3 1372.8,1936.1 1343.8,1956.6 1315.6,1978.7 1288.0,2002.5 1261.3,2027.7 1235.4,2054.4 1210.2,2082.4 1186.0,2111.5 1162.6,2141.8 1140.1,2172.9 1118.5,2204.8 1097.8,2237.4 1078.0,2270.5 1059.2,2303.8  " style="stroke-opacity: 1.000000; stroke-width: 5.0; stroke: rgb(251,106,74); fill: none"  />
<path d="M 2237.4,2044.7 L 2205.7,2021.9 2173.2,1999.7 2140.0,1978.3 2106.2,1957.7 2071.7,1938.2 2036.7,1919.8 2001.3,1902.7 1965.4,1886.9 1929.2,1872.4 1892.7,1859.5 1855.9,1848.2 1818.9,1838.4 1781.8,1830.4 1744.7,1824.1 1707.5,1819.5 1670.3,1816.8 1633.2,1815.9 1596.2,1816.8 1559.3,1819.6 1522.7,1824.3 1486.4,1830.8 1450.3,1839.2 1414.6,1849.4 1379.3,1861.3 1344.4,1875.1 1310.0,1890.5 1276.1,1907.6 1242.8,1926.3 1210.0,1946.5 1177.9,1968.2 1146.4,1991.2 1115.7,2015.5 1085.7,2041.0 1056.4,2067.6 1028.0,2095.1 1000.3,2123.4 973.6,2152.5 947.7,2182.1 922.8,2212.2  " style="stroke-opacity: 1.000000; stroke-width: 5.0; stroke: rgb(251,106,74); fill: none"  />
<path d="M 2237.4,2044.7 L 2205.0,2021.4 2171.9,1998.6 2137.9,1976.6 2103.3,1955.3 2068.0,1935.0 2032.1,1915.7 1995.6,1897.5 1958.6,1880.5 1921.1,1864.7 1883.1,1850.3 1844.9,1837.3 1806.2,1825.8 1767.3,1815.8 1728.2,1807.3 1688.8,1800.4 1649.4,1795.2 1609.8,1791.6 1570.2,1789.7 1530.5,1789.5 1490.9,1790.9 1451.4,1794.1 1412.1,1798.9 1372.8,1805.4 1333.9,1813.6 1295.1,1823.3 1256.7,1834.6 1218.7,1847.5 1181.0,1861.9 1143.8,1877.7 1107.0,1894.8 1070.8,1913.3 1035.1,1933.0 1000.1,1953.9 965.7,1975.8 932.0,1998.7 899.0,2022.4 866.8,2046.9 835.4,2072.0 804.9,2097.7  " style="stroke-opacity: 1.000000; stroke-width: 5.0; stroke: rgb(251,106,74); fill: none"  />
<path d="M 2237.4,2044.7 L 2204.3,2020.8 2170.5,1997.5 2135.9,1974.7 2100.5,1952.7 2064.4,1931.4 2027.7,1911.1 1990.4,1891.7 1952.4,1873.3 1913.9,1856.0 1874.9,1839.9 1835.4,1825.1 1795.5,1811.5 1755.2,1799.2 1714.6,1788.2 1673.6,1778.7 1632.4,1770.6 1590.9,1764.0 1549.3,1758.8 1507.5,1755.1 1465.6,1752.8 1423.7,1752.1 1381.8,1752.9 1339.8,1755.1 1298.0,1758.9 1256.3,1764.0 1214.7,1770.6 1173.3,1778.6 1132.2,1787.9 1091.4,1798.5 1050.9,1810.4 1010.8,1823.5 971.1,1837.8 931.9,1853.2 893.2,1869.6 855.1,1886.9 817.6,1905.1 780.8,1924.0 744.7,1943.7 709.3,1964.0  " style="stroke-opacity: 1.000000; stroke-width: 5.0; stroke: rgb(251,106,74); fill: none"  />
<path d="M 1059.2,2303.8 L 1078.0,2270.5 1097.8,2237.4 1118.5,2204.8 1140.1,2172.9 1162.6,2141.8 1186.0,2111.5 1210.2,2082.4 1235.4,2054.4 1261.3,2027.7 1288.0,2002.5 1315.6,1978.7 1343.8,1956.6 1372.8,1936.1 1402.5,1917.3 1432.8,1900.4 1463.8,1885.3 1495.3,1872.2 1527.4,1860.9 1560.0,1851.7 1593.1,1844.4 1626.5,1839.1 1660.4,1835.9 1694.5,1834.6 1729.0,1835.3 1763.6,1837.9 1798.4,1842.5 1833.3,1848.9 1868.3,1857.2 1903.2,1867.2 1938.1,1878.9 1972.8,1892.2 2007.4,1907.1 2041.6,1923.4 2075.5,1941.0 2109.0,1959.8 2142.0,1979.7 2174.5,2000.6 2206.3,2022.3 2237.4,2044.7  " style="stroke-opacity: 1.000000; stroke-width: 5.0; stroke: rgb(251,106,74); fill: none"  />
<path d="M 1059.2,2303.8 L 1077.1,2272.0 1095.6,2240.6 1114.7,2209.9 1134.3,2180.0 1154.5,2151.1 1175.1,2123.5 1196.2,2097.2 1217.6,2072.4 1239.3,2049.3 1261.4,2028.0 1283.7,2008.6 1306.1,1991.3 1328.8,1976.0 1351.5,1963.0 1374.4,1952.2 1397.3,1943.8 1420.1,1937.7 1443.0,1934.0 1465.8,1932.8 1488.4,1934.0 1510.9,1937.6 1533.3,1943.7 1555.4,1952.1 1577.3,1962.9 1598.8,1976.1 1620.1,1991.4 1641.0,2009.0 1661.5,2028.6 1681.6,2050.2 1701.3,2073.7 1720.5,2099.0 1739.2,2125.9 1757.4,2154.2 1775.0,2183.9 1792.0,2214.8 1808.4,2246.6 1824.1,2279.1 1839.2,2312.3 1853.6,2345.8  " style="stroke-opacity: 1.000000; stroke-width: 5.0; stroke: rgb(251,106,74); fill: none"  />
<path d="M 922.8,2212.2 L 947.7,2182.1 973.6,2152.5 1000.3,2123.4 1028.0,2095.1 1056.4,2067.6 1085.7,2041.0 1115.7,2015.5 1146.4,1991.2 1177.9,1968.2 1210.0,1946.5 1242.8,1926.3 1276.1,1907.6 1310.0,1890.5 1344.4,1875.1 1379.3,1861.3 1414.6,1849.4 1450.3,1839.2 1486.4,1830.8 1522.7,1824.3 1559.3,1819.6 1596.2,1816.8 1633.2,1815.9 1670.3,1816.8 1707.5,1819.5 1744.7,1824.1 1781.8,1830.4 1818.9,1838.4 1855.9,1848.2 1892.7,1859.5 1929.2,1872.4 1965.4,1886.9 2001.3,1902.7 2036.7,1919.8 2071.7,1938.2 2106.2,1957.7 2140.0,1978.3 2173.2,1999.7 2205.7,2021.9 2237.4,2044.7  " style="stroke-opacity: 1.000000; stroke-width: 5.0; stroke: rgb(251,106,74); fill: none"  />
<path d="M 1867.0,659.9 L 1849.3,700.8 1831.9,742.1 1814.9,783.9 1798.1,826.0 1781.7,868.6 1765.7,911.5 1750.0,954.7 1734.9,998.3 1720.1,1042.2 1705.8,1086.5 1692.1,1131.0 1678.8,1175.7 1666.0,1220.8 1653.8,1266.0 1642.2,1311.5 1631.1,1357.2 1620.5,1403.0 1610.6,1449.1 1601.2,1495.2 1592.4,1541.5 1584.2,1587.9 1576.6,1634.4 1569.7,1680.9 1563.3,1727.5 1557.5,1774.1 1552.3,1820.6 1547.6,1867.2 1543.6,1913.7 1540.1,1960.2 1537.2,2006.6 1534.8,2052.8 1533.0,2099.0 1531.7,2144.9 1530.9,2190.7 1530.6,2236.3 1530.8,2281.7 1531.4,2326.8 1532.4,2371.6 1533.9,2416.1  " style="stroke-opacity: 1.000000; stroke-width: 5.0; stroke: rgb(251,106,74); fill: none"  />
<path d="M 1867.0,659.9 L 1848.4,702.6 1829.8,745.3 1811.4,788.2 1792.9,831.1 1774.6,874.1 1756.3,917.3 1738.1,960.5 1719.9,1003.8 1701.9,1047.2 1683.9,1090.7 1666.0,1134.2 1648.3,1177.8 1630.6,1221.5 1613.0,1265.3 1595.5,1309.1 1578.1,1353.0 1560.8,1396.9 1543.6,1440.9 1526.6,1484.9 1509.6,1529.0 1492.8,1573.1 1476.1,1617.3 1459.5,1661.5 1443.0,1705.7 1426.7,1750.0 1410.4,1794.2 1394.3,1838.5 1378.3,1882.8 1362.4,1927.1 1346.6,1971.5 1331.0,2015.8 1315.4,2060.1 1300.0,2104.4 1284.7,2148.6 1269.5,2192.9 1254.4,2237.1 1239.4,2281.3 1224.6,2325.5 1209.8,2369.6  " style="stroke-opacity: 1.000000; stroke-width: 5.0; stroke: rgb(251,106,74); fill: none"  />
<path d="M 804.9,2097.7 L 835.4,2072.0 866.8,2046.9 899.0,2022.4 932.0,1998.7 965.7,1975.8 1000.1,1953.9 1035.1,1933.0 1070.8,1913.3 1107.0,1894.8 1143.8,1877.7 1181.0,1861.9 1218.7,1847.5 1256.7,1834.6 1295.1,1823.3 1333.9,1813.6 1372.8,1805.4 1412.1,1798.9 1451.4,1794.1 1490.9,1790.9 1530.5,1789.5 1570.2,1789.7 1609.8,1791.6 1649.4,1795.2 1688.8,1800.4 1728.2,1807.3 1767.3,1815.8 1806.2,1825.8 1844.9,1837.3 1883.1,1850.3 1921.1,1864.7 1958.6,1880.5 1995.6,1897.5 2032.1,1915.7 2068.0,1935.0 2103.3,1955.3 2137.9,1976.6 2171.9,1998.6 2205.0,2021.4 2237.4,2044.7  " style="stroke-opacity: 1.000000; stroke-width: 5.0; stroke: rgb(251,106,74); fill: none"  />
<path d="M 709.3,1964.0 L 744.7,1943.7 780.8,1924.0 817.6,1905.1 855.1,1886.9 893.2,1869.6 931.9,1853.2 971.1,1837.8 1010.8,1823.5 1050.9,1810.4 1091.4,1798.5 1132.2,1787.9 1173.3,1778.6 1214.7,1770.6 1256.3,1764.0 1298.0,1758.9 1339.8,1755.1 1381.8,1752.9 1423.7,1752.1 1465.6,1752.8 1507.5,1755.1 1549.3,1758.8 1590.9,1764.0 1632.4,1770.6 1673.6,1778.7 1714.6,1788.2 1755.2,1799.2 1795.5,1811.5 1835.4,1825.1 1874.9,1839.9 1913.9,1856.0 1952.4,1873.3 1990.4,1891.7 2027.7,1911.1 2064.4,1931.4 2100.5,1952.7 2135.9,1974.7 2170.5,1997.5 2204.3,2020.8 2237.4,2044.7  " style="stroke-opacity: 1.000000; stroke-width: 5.0; stroke: rgb(251,106,74); fill: none"  />
<path d="M 1999.0,2269.1 L 1979.1,2239.0 1958.8,2209.4 1938.0,2180.5 1917.0,2152.5 1895.7,2125.6 1874.2,2099.9 1852.6,2075.6 1831.0,2053.0 1809.4,2032.0 1787.8,2012.9 1766.4,1995.8 1745.2,1980.8 1724.3,1968.0 1703.6,1957.4 1683.3,1949.1 1663.4,1943.3 1643.9,1939.8 1624.8,1938.8 1606.3,1940.3 1588.3,1944.3 1570.8,1950.7 1553.9,1959.6 1537.7,1970.9 1522.0,1984.6 1507.1,2000.6 1492.7,2018.9 1479.1,2039.4 1466.2,2061.9 1453.9,2086.4 1442.4,2112.7 1431.6,2140.8 1421.4,2170.4 1412.0,2201.5 1403.3,2233.8 1395.3,2267.2 1387.9,2301.5 1381.2,2336.4 1375.2,2371.8 1369.8,2407.5  " style="stroke-opacity: 1.000000; stroke-width: 5.0; stroke: rgb(251,106,74); fill: none"  />
<path d="M 1223.6,625.9 L 1237.7,670.2 1251.9,714.6 1266.1,759.1 1280.5,803.5 1295.0,848.0 1309.6,892.5 1324.3,937.1 1339.2,981.6 1354.1,1026.2 1369.2,1070.7 1384.4,1115.3 1399.7,1159.8 1415.1,1204.4 1430.6,1248.9 1446.3,1293.4 1462.1,1337.9 1478.0,1382.3 1494.0,1426.8 1510.1,1471.2 1526.3,1515.5 1542.7,1559.8 1559.2,1604.1 1575.8,1648.3 1592.4,1692.4 1609.2,1736.5 1626.1,1780.5 1643.1,1824.5 1660.2,1868.4 1677.4,1912.2 1694.7,1956.0 1712.1,1999.6 1729.5,2043.2 1747.0,2086.7 1764.6,2130.1 1782.3,2173.5 1800.1,2216.7 1817.9,2259.8 1835.7,2302.9 1853.6,2345.8  " style="stroke-opacity: 1.000000; stroke-width: 5.0; stroke: rgb(251,106,74); fill: none"  />
<path d="M 1853.6,2345.8 L 1839.2,2312.3 1824.1,2279.1 1808.4,2246.6 1792.0,2214.8 1775.0,2183.9 1757.4,2154.2 1739.2,2125.9 1720.5,2099.0 1701.3,2073.7 1681.6,2050.2 1661.5,2028.6 1641.0,2009.0 1620.1,1991.4 1598.8,1976.1 1577.3,1962.9 1555.4,1952.1 1533.3,1943.7 1510.9,1937.6 1488.4,1934.0 1465.8,1932.8 1443.0,1934.0 1420.1,1937.7 1397.3,1943.8 1374.4,1952.2 1351.5,1963.0 1328.8,1976.0 1306.1,1991.3 1283.7,2008.6 1261.4,2028.0 1239.3,2049.3 1217.6,2072.4 1196.2,2097.2 1175.1,2123.5 1154.5,2151.1 1134.3,2180.0 1114.7,2209.9 1095.6,2240.6 1077.1,2272.0 1059.2,2303.8  " style="stroke-opacity: 1.000000; stroke-width: 5.0; stroke: rgb(251,106,74); fill: none"  />
<path d="M 1853.6,2345.8 L 1835.7,2302.9 1817.9,2259.8 1800.1,2216.7 1782.3,2173.5 1764.6,2130.1 1747.0,2086.7 1729.5,2043.2 1712.1,1999.6 1694.7,1956.0 1677.4,1912.2 1660.2,1868.4 1643.1,1824.5 1626.1,1780.5 1609.2,1736.5 1592.4,1692.4 1575.8,1648.3 1559.2,1604.1 1542.7,1559.8 1526.3,1515.5 1510.1,1471.2 1494.0,1426.8 1478.0,1382.3 1462.1,1337.9 1446.3,1293.4 1430.6,1248.9 1415.1,1204.4 1399.7,1159.8 1384.4,1115.3 1369.2,1070.7 1354.1,1026.2 1339.2,981.6 1324.3,937.1 1309.6,892.5 1295.0,848.0 1280.5,803.5 1266.1,759.1 1251.9,714.6 1237.7,670.2 1223.6,625.9  " style="stroke-opacity: 1.000000; stroke-width: 5.0; stroke: rgb(251,106,74); fill: none"  />
<path d="M 1696.9,2395.4 L 1689.0,2360.6 1680.7,2326.1 1671.9,2292.1 1662.6,2258.9 1653.0,2226.7 1642.9,2195.7 1632.5,2166.0 1621.6,2137.9 1610.4,2111.5 1598.9,2086.9 1587.0,2064.4 1574.8,2044.0 1562.3,2025.7 1549.6,2009.8 1536.6,1996.3 1523.3,1985.3 1509.8,1976.8 1496.2,1970.9 1482.3,1967.5 1468.3,1966.8 1454.2,1968.7 1440.0,1973.1 1425.7,1980.2 1411.3,1989.7 1397.0,2001.8 1382.6,2016.2 1368.3,2033.0 1354.0,2052.1 1339.8,2073.3 1325.7,2096.4 1311.8,2121.5 1298.1,2148.3 1284.5,2176.7 1271.3,2206.5 1258.3,2237.5 1245.6,2269.6 1233.3,2302.4 1221.3,2335.8 1209.8,2369.6  " style="stroke-opacity: 1.000000; stroke-width: 5.0; stroke: rgb(251,106,74); fill: none"  />
</g>
<g id="track_0">
<path d="M 2381.8,1750.9 L 2347.8,1741.3 2314.1,1732.0 2280.8,1723.0 2248.1,1714.4 2216.4,1706.3 2185.8,1698.7 2156.4,1691.7 2128.4,1685.4 2102.1,1679.8 2077.6,1675.0 2054.9,1671.0 2034.3,1667.9 2015.8,1665.6 1999.5,1664.3 1985.5,1663.9 1973.8,1664.4 1964.7,1665.9 1957.9,1668.4 1953.7,1671.9 1952.0,1676.3 1952.8,1681.7 1956.2,1688.0 1962.0,1695.3 1970.3,1703.5 1980.9,1712.5 1993.9,1722.4 2009.2,1733.2 2026.6,1744.7 2046.1,1756.9 2067.6,1769.8 2090.9,1783.2 2115.8,1797.3 2142.3,1811.8 2170.1,1826.7 2199.1,1841.9 2229.1,1857.4 2259.9,1873.0 2291.2,1888.7 2322.8,1904.3  " style="stroke-opacity: 1.000000; stroke-width: 5.0; stroke: rgb(107,174,214); fill: none"  />
<path d="M 2381.8,1750.9 L 2347.4,1741.3 2313.0,1732.4 2279.0,1724.0 2245.4,1716.4 2212.4,1709.6 2180.3,1703.8 2149.3,1698.9 2119.4,1695.2 2090.8,1692.5 2063.7,1691.0 2038.2,1690.8 2014.5,1691.9 1992.5,1694.2 1972.5,1697.9 1954.4,1703.0 1938.4,1709.5 1924.5,1717.3 1912.8,1726.5 1903.3,1737.1 1896.0,1749.1 1891.0,1762.4 1888.2,1777.1 1887.6,1793.0 1889.2,1810.2 1893.0,1828.5 1899.0,1848.0 1907.0,1868.6 1917.0,1890.2 1928.9,1912.7 1942.6,1936.1 1958.1,1960.2 1975.2,1985.0 1993.8,2010.4 2013.8,2036.2 2034.9,2062.4 2057.1,2088.7 2080.2,2115.1 2104.0,2141.5 2128.3,2167.6  " style="stroke-opacity: 1.000000; stroke-width: 5.0; stroke: rgb(107,174,214); fill: none"  />
<path d="M 2381.8,1750.9 L 2347.0,1741.3 2312.2,1732.4 2277.6,1724.3 2243.3,1717.0 2209.5,1710.8 2176.5,1705.6 2144.3,1701.5 2113.1,1698.7 2083.0,1697.1 2054.2,1696.9 2026.9,1698.1 2001.0,1700.7 1976.8,1704.9 1954.3,1710.5 1933.6,1717.6 1914.7,1726.3 1897.7,1736.6 1882.7,1748.3 1869.7,1761.7 1858.8,1776.5 1849.9,1792.8 1843.0,1810.6 1838.2,1829.9 1835.4,1850.5 1834.7,1872.4 1835.9,1895.5 1839.1,1919.9 1844.2,1945.4 1851.1,1971.9 1859.8,1999.3 1870.1,2027.6 1882.0,2056.6 1895.3,2086.2 1910.0,2116.3 1925.9,2146.7 1942.9,2177.3 1960.9,2208.1 1979.6,2238.7 1999.0,2269.1  " style="stroke-opacity: 1.000000; stroke-width: 5.0; stroke: rgb(107,174,214); fill: none"  />
<path d="M 2381.8,1750.9 L 2346.1,1741.2 2310.1,1732.3 2274.1,1724.3 2238.1,1717.4 2202.3,1711.7 2166.9,1707.2 2132.1,1704.0 2097.8,1702.3 2064.3,1702.0 2031.6,1703.3 2000.0,1706.2 1969.4,1710.8 1939.9,1717.0 1911.7,1724.9 1884.8,1734.5 1859.3,1745.9 1835.3,1759.0 1812.7,1773.9 1791.7,1790.5 1772.2,1808.8 1754.4,1828.7 1738.2,1850.4 1723.6,1873.6 1710.7,1898.3 1699.5,1924.6 1689.9,1952.3 1681.9,1981.3 1675.5,2011.6 1670.7,2043.0 1667.4,2075.5 1665.6,2109.0 1665.3,2143.3 1666.3,2178.3 1668.7,2213.9 1672.2,2249.9 1676.9,2286.2 1682.7,2322.7 1689.4,2359.1 1696.9,2395.4  " style="stroke-opacity: 1.000000; stroke-width: 5.0; stroke: rgb(107,174,214); fill: none"  />
<path d="M 1533.9,2416.1 L 1532.4,2380.7 1530.6,2345.6 1528.4,2310.9 1525.9,2277.0 1522.9,2244.1 1519.6,2212.3 1515.8,2181.8 1511.6,2152.9 1507.0,2125.7 1501.9,2100.4 1496.4,2077.0 1490.5,2055.8 1484.1,2036.8 1477.3,2020.2 1470.0,2005.9 1462.3,1994.2 1454.2,1985.0 1445.6,1978.4 1436.7,1974.4 1427.3,1973.1 1417.6,1974.4 1407.6,1978.3 1397.2,1984.9 1386.5,1994.0 1375.5,2005.6 1364.3,2019.6 1352.8,2036.0 1341.1,2054.7 1329.3,2075.6 1317.3,2098.5 1305.2,2123.3 1293.0,2149.8 1280.9,2178.0 1268.7,2207.6 1256.6,2238.4 1244.6,2270.2 1232.8,2302.9 1221.2,2336.1 1209.8,2369.6  " style="stroke-opacity: 1.000000; stroke-width: 5.0; stroke: rgb(107,174,214); fill: none"  />
<path d="M 1711.1,607.9 L 1703.0,642.2 1695.2,676.3 1687.7,710.0 1680.6,743.0 1673.9,775.1 1667.7,806.0 1662.1,835.7 1657.0,863.9 1652.6,890.4 1649.0,915.2 1646.0,938.0 1643.8,958.7 1642.3,977.3 1641.7,993.7 1641.9,1007.7 1643.0,1019.3 1644.9,1028.4 1647.7,1035.0 1651.3,1039.0 1655.8,1040.5 1661.2,1039.5 1667.4,1035.9 1674.4,1029.7 1682.2,1021.1 1690.7,1010.0 1700.1,996.6 1710.1,980.9 1720.8,962.9 1732.1,942.9 1744.0,920.9 1756.4,897.0 1769.3,871.5 1782.6,844.4 1796.3,815.9 1810.2,786.2 1824.3,755.6 1838.5,724.2 1852.8,692.2 1867.0,659.9  " style="stroke-opacity: 1.000000; stroke-width: 5.0; stroke: rgb(107,174,214); fill: none"  />
<path d="M 1711.1,607.9 L 1703.1,642.4 1695.5,676.7 1688.3,710.7 1681.8,744.1 1675.8,776.6 1670.6,808.2 1666.1,838.5 1662.5,867.5 1659.7,895.0 1657.8,920.7 1656.9,944.7 1657.0,966.8 1658.1,986.8 1660.3,1004.6 1663.5,1020.3 1667.8,1033.6 1673.2,1044.7 1679.7,1053.3 1687.3,1059.5 1695.9,1063.3 1705.6,1064.6 1716.3,1063.5 1728.1,1060.0 1740.8,1054.0 1754.5,1045.8 1769.1,1035.2 1784.5,1022.4 1800.7,1007.5 1817.7,990.6 1835.4,971.7 1853.6,951.0 1872.4,928.6 1891.6,904.7 1911.2,879.5 1931.0,853.0 1951.1,825.5 1971.2,797.2 1991.2,768.2 2011.1,738.9  " style="stroke-opacity: 1.000000; stroke-width: 5.0; stroke: rgb(107,174,214); fill: none"  />
<path d="M 2322.8,1904.3 L 2291.2,1888.7 2259.9,1873.0 2229.1,1857.4 2199.1,1841.9 2170.1,1826.7 2142.3,1811.8 2115.8,1797.3 2090.9,1783.2 2067.6,1769.8 2046.1,1756.9 2026.6,1744.7 2009.2,1733.2 1993.9,1722.4 1980.9,1712.5 1970.3,1703.5 1962.0,1695.3 1956.2,1688.0 1952.8,1681.7 1952.0,1676.3 1953.7,1671.9 1957.9,1668.4 1964.7,1665.9 1973.8,1664.4 1985.5,1663.9 1999.5,1664.3 2015.8,1665.6 2034.3,1667.9 2054.9,1671.0 2077.6,1675.0 2102.1,1679.8 2128.4,1685.4 2156.4,1691.7 2185.8,1698.7 2216.4,1706.3 2248.1,1714.4 2280.8,1723.0 2314.1,1732.0 2347.8,1741.3 2381.8,1750.9  " style="stroke-opacity: 1.000000; stroke-width: 5.0; stroke: rgb(107,174,214); fill: none"  />
<path d="M 2322.8,1904.3 L 2291.1,1888.8 2259.6,1873.6 2228.4,1858.8 2197.8,1844.5 2168.1,1830.9 2139.3,1817.9 2111.6,1805.8 2085.2,1794.7 2060.3,1784.5 2037.0,1775.4 2015.5,1767.4 1995.7,1760.6 1977.9,1755.1 1962.1,1750.8 1948.4,1747.9 1936.9,1746.4 1927.6,1746.2 1920.5,1747.5 1915.7,1750.1 1913.3,1754.2 1913.1,1759.6 1915.3,1766.4 1919.7,1774.6 1926.4,1784.2 1935.2,1795.0 1946.3,1807.1 1959.4,1820.3 1974.5,1834.8 1991.5,1850.3 2010.3,1866.8 2030.8,1884.2 2052.8,1902.4 2076.3,1921.5 2101.0,1941.1 2126.8,1961.3 2153.6,1981.8 2181.1,2002.7 2209.1,2023.7 2237.4,2044.7  " style="stroke-opacity: 1.000000; stroke-width: 5.0; stroke: rgb(107,174,214); fill: none"  />
<path d="M 2322.8,1904.3 L 2290.9,1888.8 2259.1,1873.8 2227.6,1859.3 2196.5,1845.4 2166.1,1832.4 2136.5,1820.3 2107.9,1809.2 2080.5,1799.2 2054.3,1790.3 2029.6,1782.8 2006.4,1776.6 1984.9,1771.8 1965.2,1768.4 1947.3,1766.5 1931.3,1766.2 1917.3,1767.4 1905.4,1770.2 1895.5,1774.6 1887.8,1780.6 1882.2,1788.2 1878.7,1797.3 1877.4,1808.1 1878.2,1820.3 1881.2,1834.0 1886.2,1849.2 1893.3,1865.8 1902.3,1883.6 1913.2,1902.8 1925.9,1923.1 1940.4,1944.5 1956.5,1966.9 1974.2,1990.2 1993.2,2014.3 2013.5,2039.0 2034.9,2064.2 2057.2,2089.9 2080.4,2115.7 2104.1,2141.7 2128.3,2167.6  " style="stroke-opacity: 1.000000; stroke-width: 5.0; stroke: rgb(107,174,214); fill: none"  />
<path d="M 2322.8,1904.3 L 2290.7,1888.8 2258.5,1873.8 2226.5,1859.5 2194.7,1846.0 2163.5,1833.5 2133.0,1822.0 2103.3,1811.7 2074.6,1802.6 2046.9,1794.9 2020.6,1788.6 1995.5,1783.9 1971.9,1780.6 1949.9,1779.0 1929.5,1779.1 1910.9,1780.9 1894.0,1784.4 1878.9,1789.6 1865.7,1796.6 1854.5,1805.3 1845.2,1815.8 1837.9,1828.0 1832.5,1841.9 1829.1,1857.5 1827.6,1874.7 1828.1,1893.4 1830.4,1913.7 1834.6,1935.3 1840.6,1958.4 1848.3,1982.7 1857.7,2008.1 1868.6,2034.7 1881.0,2062.1 1894.8,2090.4 1909.8,2119.3 1925.9,2148.8 1943.1,2178.7 1961.1,2208.8 1979.7,2239.0 1999.0,2269.1  " style="stroke-opacity: 1.000000; stroke-width: 5.0; stroke: rgb(107,174,214); fill: none"  />
<path d="M 2322.8,1904.3 L 2290.3,1888.7 2257.7,1873.7 2225.1,1859.5 2192.6,1846.3 2160.5,1834.1 2128.9,1823.0 2097.9,1813.3 2067.7,1804.9 2038.4,1798.0 2010.2,1792.7 1983.0,1789.0 1957.1,1787.0 1932.6,1786.7 1909.4,1788.2 1887.7,1791.5 1867.6,1796.7 1849.1,1803.8 1832.2,1812.7 1817.1,1823.5 1803.6,1836.1 1792.0,1850.6 1782.0,1866.9 1773.9,1884.9 1767.5,1904.7 1762.8,1926.2 1759.9,1949.2 1758.7,1973.7 1759.2,1999.7 1761.2,2027.0 1764.8,2055.5 1769.9,2085.2 1776.4,2115.8 1784.3,2147.3 1793.4,2179.6 1803.6,2212.3 1814.9,2245.5 1827.0,2279.0 1840.0,2312.5 1853.6,2345.8  " style="stroke-opacity: 1.000000; stroke-width: 5.0; stroke: rgb(107,174,214); fill: none"  />
<path d="M 2322.8,1904.3 L 2289.9,1888.5 2256.7,1873.5 2223.4,1859.3 2190.1,1846.2 2157.0,1834.1 2124.3,1823.4 2091.9,1814.0 2060.2,1806.0 2029.1,1799.6 1998.8,1794.9 1969.4,1791.8 1941.1,1790.5 1913.8,1791.1 1887.6,1793.5 1862.8,1797.8 1839.2,1804.0 1817.0,1812.2 1796.2,1822.4 1776.8,1834.4 1759.0,1848.4 1742.6,1864.4 1727.8,1882.2 1714.6,1901.8 1702.9,1923.2 1692.8,1946.3 1684.3,1971.1 1677.2,1997.5 1671.7,2025.4 1667.7,2054.6 1665.1,2085.2 1663.9,2116.9 1664.1,2149.6 1665.5,2183.3 1668.2,2217.7 1672.0,2252.7 1676.9,2288.1 1682.7,2323.9 1689.4,2359.7 1696.9,2395.4  " style="stroke-opacity: 1.000000; stroke-width: 5.0; stroke: rgb(107,174,214); fill: none"  />
<path d="M 1209.8,2369.6 L 1221.2,2336.1 1232.8,2302.9 1244.6,2270.2 1256.6,2238.4 1268.7,2207.6 1280.9,2178.0 1293.0,2149.8 1305.2,2123.3 1317.3,2098.5 1329.3,2075.6 1341.1,2054.7 1352.8,2036.0 1364.3,2019.6 1375.5,2005.6 1386.5,1994.0 1397.2,1984.9 1407.6,1978.3 1417.6,1974.4 1427.3,1973.1 1436.7,1974.4 1445.6,1978.4 1454.2,1985.0 1462.3,1994.2 1470.0,2005.9 1477.3,2020.2 1484.1,2036.8 1490.5,2055.8 1496.4,2077.0 1501.9,2100.4 1507.0,2125.7 1511.6,2152.9 1515.8,2181.8 1519.6,2212.3 1522.9,2244.1 1525.9,2277.0 1528.4,2310.9 1530.6,2345.6 1532.4,2380.7 1533.9,2416.1  " style="stroke-opacity: 1.000000; stroke-width: 5.0; stroke: rgb(107,174,214); fill: none"  />
<path d="M 2237.4,2044.7 L 2209.1,2023.7 2181.1,2002.7 2153.6,1981.8 2126.8,1961.3 2101.0,1941.1 2076.3,1921.5 2052.8,1902.4 2030.8,1884.2 2010.3,1866.8 1991.5,1850.3 1974.5,1834.8 1959.4,1820.3 1946.3,1807.1 1935.2,1795.0 1926.4,1784.2 1919.7,1774.6 1915.3,1766.4 1913.1,1759.6 1913.3,1754.2 1915.7,1750.1 1920.5,1747.5 1927.6,1746.2 1936.9,1746.4 1948.4,1747.9 1962.1,1750.8 1977.9,1755.1 1995.7,1760.6 2015.5,1767.4 2037.0,1775.4 2060.3,1784.5 2085.2,1794.7 2111.6,1805.8 2139.3,1817.9 2168.1,1830.9 2197.8,1844.5 2228.4,1858.8 2259.6,1873.6 2291.1,1888.8 2322.8,1904.3  " style="stroke-opacity: 1.000000; stroke-width: 5.0; stroke: rgb(107,174,214); fill: none"  />
<path d="M 2237.4,2044.7 L 2208.8,2023.8 2180.2,2003.3 2151.7,1983.4 2123.6,1964.2 2096.0,1946.0 2069.1,1928.8 2042.9,1912.7 2017.7,1898.0 1993.6,1884.6 1970.6,1872.8 1948.9,1862.6 1928.6,1854.0 1909.8,1847.1 1892.5,1842.1 1876.8,1838.9 1862.9,1837.6 1850.6,1838.2 1840.1,1840.8 1831.4,1845.3 1824.6,1851.8 1819.5,1860.2 1816.3,1870.5 1815.0,1882.7 1815.4,1896.7 1817.7,1912.5 1821.6,1930.1 1827.3,1949.3 1834.6,1970.1 1843.6,1992.4 1854.0,2016.0 1865.8,2040.9 1879.0,2067.0 1893.5,2094.1 1909.0,2122.0 1925.5,2150.7 1943.0,2179.9 1961.1,2209.5 1979.8,2239.3 1999.0,2269.1  " style="stroke-opacity: 1.000000; stroke-width: 5.0; stroke: rgb(107,174,214); fill: none"  />
<path d="M 2237.4,2044.7 L 2208.5,2023.7 2179.6,2003.2 2150.6,1983.4 2121.8,1964.5 2093.3,1946.6 2065.3,1929.9 2038.0,1914.4 2011.3,1900.3 1985.5,1887.8 1960.7,1876.9 1936.9,1867.8 1914.2,1860.4 1892.9,1854.9 1872.8,1851.3 1854.1,1849.7 1836.9,1850.1 1821.1,1852.6 1806.9,1857.1 1794.3,1863.7 1783.3,1872.4 1773.9,1883.1 1766.1,1895.8 1759.9,1910.5 1755.4,1927.1 1752.5,1945.7 1751.2,1966.0 1751.5,1988.1 1753.3,2011.8 1756.5,2037.1 1761.2,2063.8 1767.2,2091.9 1774.5,2121.1 1783.0,2151.4 1792.6,2182.6 1803.2,2214.5 1814.8,2246.9 1827.1,2279.8 1840.1,2312.8 1853.6,2345.8  " style="stroke-opacity: 1.000000; stroke-width: 5.0; stroke: rgb(107,174,214); fill: none"  />
<path d="M 922.8,2212.2 L 944.9,2184.7 966.7,2157.4 988.1,2130.3 1008.8,2103.7 1028.8,2077.7 1047.8,2052.5 1065.7,2028.2 1082.5,2005.0 1098.0,1983.0 1112.0,1962.3 1124.6,1943.0 1135.6,1925.3 1145.0,1909.1 1152.6,1894.7 1158.5,1882.0 1162.6,1871.1 1164.8,1862.0 1165.2,1854.9 1163.6,1849.7 1160.3,1846.4 1155.0,1845.0 1147.8,1845.6 1138.9,1848.1 1128.1,1852.4 1115.6,1858.7 1101.3,1866.7 1085.5,1876.6 1068.1,1888.1 1049.2,1901.2 1028.9,1915.9 1007.3,1932.0 984.6,1949.4 960.9,1968.1 936.2,1987.8 910.8,2008.5 884.8,2030.0 858.4,2052.1 831.7,2074.8 804.9,2097.7  " style="stroke-opacity: 1.000000; stroke-width: 5.0; stroke: rgb(107,174,214); fill: none"  />
<path d="M 922.8,2212.2 L 944.9,2184.6 966.7,2156.9 987.8,2129.4 1008.2,2102.2 1027.7,2075.4 1046.1,2049.3 1063.3,2023.9 1079.2,1999.3 1093.6,1975.8 1106.5,1953.4 1117.7,1932.2 1127.2,1912.3 1134.8,1893.8 1140.6,1876.8 1144.5,1861.3 1146.4,1847.4 1146.4,1835.1 1144.3,1824.5 1140.2,1815.6 1134.0,1808.5 1125.8,1803.1 1115.7,1799.4 1103.6,1797.5 1089.5,1797.3 1073.6,1798.8 1055.9,1802.0 1036.5,1806.8 1015.4,1813.2 992.7,1821.1 968.6,1830.5 943.2,1841.2 916.6,1853.2 888.9,1866.4 860.3,1880.7 830.9,1895.9 800.9,1912.0 770.6,1928.8 739.9,1946.2 709.3,1964.0  " style="stroke-opacity: 1.000000; stroke-width: 5.0; stroke: rgb(107,174,214); fill: none"  />
<path d="M 2128.3,2167.6 L 2104.0,2141.5 2080.2,2115.1 2057.1,2088.7 2034.9,2062.4 2013.8,2036.2 1993.8,2010.4 1975.2,1985.0 1958.1,1960.2 1942.6,1936.1 1928.9,1912.7 1917.0,1890.2 1907.0,1868.6 1899.0,1848.0 1893.0,1828.5 1889.2,1810.2 1887.6,1793.0 1888.2,1777.1 1891.0,1762.4 1896.0,1749.1 1903.3,1737.1 1912.8,1726.5 1924.5,1717.3 1938.4,1709.5 1954.4,1703.0 1972.5,1697.9 1992.5,1694.2 2014.5,1691.9 2038.2,1690.8 2063.7,1691.0 2090.8,1692.5 2119.4,1695.2 2149.3,1698.9 2180.3,1703.8 2212.4,1709.6 2245.4,1716.4 2279.0,1724.0 2313.0,1732.4 2347.4,1741.3 2381.8,1750.9  " style="stroke-opacity: 1.000000; stroke-width: 5.0; stroke: rgb(107,174,214); fill: none"  />
<path d="M 2128.3,2167.6 L 2104.1,2141.7 2080.4,2115.7 2057.2,2089.9 2034.9,2064.2 2013.5,2039.0 1993.2,2014.3 1974.2,1990.2 1956.5,1966.9 1940.4,1944.5 1925.9,1923.1 1913.2,1902.8 1902.3,1883.6 1893.3,1865.8 1886.2,1849.2 1881.2,1834.0 1878.2,1820.3 1877.4,1808.1 1878.7,1797.3 1882.2,1788.2 1887.8,1780.6 1895.5,1774.6 1905.4,1770.2 1917.3,1767.4 1931.3,1766.2 1947.3,1766.5 1965.2,1768.4 1984.9,1771.8 2006.4,1776.6 2029.6,1782.8 2054.3,1790.3 2080.5,1799.2 2107.9,1809.2 2136.5,1820.3 2166.1,1832.4 2196.5,1845.4 2227.6,1859.3 2259.1,1873.8 2290.9,1888.8 2322.8,1904.3  " style="stroke-opacity: 1.000000; stroke-width: 5.0; stroke: rgb(107,174,214); fill: none"  />
<path d="M 2128.3,2167.6 L 2103.9,2141.9 2079.4,2116.7 2055.0,2092.0 2030.7,2068.1 2006.8,2045.2 1983.4,2023.5 1960.5,2003.0 1938.3,1984.0 1917.0,1966.6 1896.5,1950.8 1877.0,1936.9 1858.5,1924.8 1841.2,1914.7 1825.1,1906.7 1810.3,1900.8 1796.8,1897.0 1784.6,1895.4 1773.8,1896.1 1764.5,1899.0 1756.5,1904.1 1750.1,1911.5 1745.1,1921.0 1741.6,1932.8 1739.5,1946.7 1738.9,1962.6 1739.7,1980.6 1741.8,2000.5 1745.3,2022.3 1750.1,2045.8 1756.2,2070.9 1763.4,2097.6 1771.7,2125.5 1781.1,2154.8 1791.4,2185.0 1802.5,2216.2 1814.4,2248.0 1827.0,2280.4 1840.1,2313.1 1853.6,2345.8  " style="stroke-opacity: 1.000000; stroke-width: 5.0; stroke: rgb(107,174,214); fill: none"  />
<path d="M 2128.3,2167.6 L 2103.6,2141.8 2078.8,2116.5 2053.8,2091.8 2028.9,2068.1 2004.1,2045.4 1979.5,2023.9 1955.3,2003.8 1931.6,1985.2 1908.4,1968.3 1885.9,1953.1 1864.2,1939.9 1843.2,1928.6 1823.2,1919.3 1804.1,1912.2 1786.0,1907.3 1768.9,1904.7 1753.0,1904.3 1738.2,1906.2 1724.6,1910.4 1712.2,1917.0 1701.1,1925.8 1691.1,1936.9 1682.5,1950.3 1675.1,1965.9 1668.9,1983.6 1664.0,2003.4 1660.3,2025.2 1657.8,2048.8 1656.5,2074.3 1656.3,2101.4 1657.2,2130.1 1659.2,2160.1 1662.1,2191.4 1666.0,2223.8 1670.8,2257.1 1676.3,2291.1 1682.6,2325.6 1689.5,2360.5 1696.9,2395.4  " style="stroke-opacity: 1.000000; stroke-width: 5.0; stroke: rgb(107,174,214); fill: none"  />
<path d="M 1867.0,659.9 L 1852.8,692.2 1838.5,724.2 1824.3,755.6 1810.2,786.2 1796.3,815.9 1782.6,844.4 1769.3,871.5 1756.4,897.0 1744.0,920.9 1732.1,942.9 1720.8,962.9 1710.1,980.9 1700.1,996.6 1690.7,1010.0 1682.2,1021.1 1674.4,1029.7 1667.4,1035.9 1661.2,1039.5 1655.8,1040.5 1651.3,1039.0 1647.7,1035.0 1644.9,1028.4 1643.0,1019.3 1641.9,1007.7 1641.7,993.7 1642.3,977.3 1643.8,958.7 1646.0,938.0 1649.0,915.2 1652.6,890.4 1657.0,863.9 1662.1,835.7 1667.7,806.0 1673.9,775.1 1680.6,743.0 1687.7,710.0 1695.2,676.3 1703.0,642.2 1711.1,607.9  " style="stroke-opacity: 1.000000; stroke-width: 5.0; stroke: rgb(107,174,214); fill: none"  />
<path d="M 804.9,2097.7 L 831.7,2074.8 858.4,2052.1 884.8,2030.0 910.8,2008.5 936.2,1987.8 960.9,1968.1 984.6,1949.4 1007.3,1932.0 1028.9,1915.9 1049.2,1901.2 1068.1,1888.1 1085.5,1876.6 1101.3,1866.7 1115.6,1858.7 1128.1,1852.4 1138.9,1848.1 1147.8,1845.6 1155.0,1845.0 1160.3,1846.4 1163.6,1849.7 1165.2,1854.9 1164.8,1862.0 1162.6,1871.1 1158.5,1882.0 1152.6,1894.7 1145.0,1909.1 1135.6,1925.3 1124.6,1943.0 1112.0,1962.3 1098.0,1983.0 1082.5,2005.0 1065.7,2028.2 1047.8,2052.5 1028.8,2077.7 1008.8,2103.7 988.1,2130.3 966.7,2157.4 944.9,2184.7 922.8,2212.2  " style="stroke-opacity: 1.000000; stroke-width: 5.0; stroke: rgb(107,174,214); fill: none"  />
<path d="M 804.9,2097.7 L 831.6,2074.6 857.9,2051.6 883.8,2028.8 908.9,2006.3 933.2,1984.3 956.4,1962.9 978.4,1942.2 999.0,1922.3 1018.2,1903.4 1035.7,1885.6 1051.5,1868.9 1065.5,1853.4 1077.6,1839.2 1087.7,1826.3 1095.8,1814.9 1101.7,1804.9 1105.5,1796.4 1107.2,1789.4 1106.6,1784.0 1103.9,1780.1 1098.9,1777.8 1091.8,1777.1 1082.5,1778.0 1071.1,1780.4 1057.7,1784.3 1042.3,1789.7 1024.9,1796.5 1005.7,1804.7 984.8,1814.3 962.2,1825.1 938.1,1837.1 912.7,1850.2 886.0,1864.3 858.2,1879.3 829.5,1895.1 800.1,1911.6 770.1,1928.7 739.8,1946.2 709.3,1964.0  " style="stroke-opacity: 1.000000; stroke-width: 5.0; stroke: rgb(107,174,214); fill: none"  />
<path d="M 709.3,1964.0 L 739.9,1946.2 770.6,1928.8 800.9,1912.0 830.9,1895.9 860.3,1880.7 888.9,1866.4 916.6,1853.2 943.2,1841.2 968.6,1830.5 992.7,1821.1 1015.4,1813.2 1036.5,1806.8 1055.9,1802.0 1073.6,1798.8 1089.5,1797.3 1103.6,1797.5 1115.7,1799.4 1125.8,1803.1 1134.0,1808.5 1140.2,1815.6 1144.3,1824.5 1146.4,1835.1 1146.4,1847.4 1144.5,1861.3 1140.6,1876.8 1134.8,1893.8 1127.2,1912.3 1117.7,1932.2 1106.5,1953.4 1093.6,1975.8 1079.2,1999.3 1063.3,2023.9 1046.1,2049.3 1027.7,2075.4 1008.2,2102.2 987.8,2129.4 966.7,2156.9 944.9,2184.6 922.8,2212.2  " style="stroke-opacity: 1.000000; stroke-width: 5.0; stroke: rgb(107,174,214); fill: none"  />
<path d="M 709.3,1964.0 L 739.8,1946.2 770.1,1928.7 800.1,1911.6 829.5,1895.1 858.2,1879.3 886.0,1864.3 912.7,1850.2 938.1,1837.1 962.2,1825.1 984.8,1814.3 1005.7,1804.7 1024.9,1796.5 1042.3,1789.7 1057.7,1784.3 1071.1,1780.4 1082.5,1778.0 1091.8,1777.1 1098.9,1777.8 1103.9,1780.1 1106.6,1784.0 1107.2,1789.4 1105.5,1796.4 1101.7,1804.9 1095.8,1814.9 1087.7,1826.3 1077.6,1839.2 1065.5,1853.4 1051.5,1868.9 1035.7,1885.6 1018.2,1903.4 999.0,1922.3 978.4,1942.2 956.4,1962.9 933.2,1984.3 908.9,2006.3 883.8,2028.8 857.9,2051.6 831.6,2074.6 804.9,2097.7  " style="stroke-opacity: 1.000000; stroke-width: 5.0; stroke: rgb(107,174,214); fill: none"  />
<path d="M 1999.0,2269.1 L 1979.6,2238.7 1960.9,2208.1 1942.9,2177.3 1925.9,2146.7 1910.0,2116.3 1895.3,2086.2 1882.0,2056.6 1870.1,2027.6 1859.8,1999.3 1851.1,1971.9 1844.2,1945.4 1839.1,1919.9 1835.9,1895.5 1834.7,1872.4 1835.4,1850.5 1838.2,1829.9 1843.0,1810.6 1849.9,1792.8 1858.8,1776.5 1869.7,1761.7 1882.7,1748.3 1897.7,1736.6 1914.7,1726.3 1933.6,1717.6 1954.3,1710.5 1976.8,1704.9 2001.0,1700.7 2026.9,1698.1 2054.2,1696.9 2083.0,1697.1 2113.1,1698.7 2144.3,1701.5 2176.5,1705.6 2209.5,1710.8 2243.3,1717.0 2277.6,1724.3 2312.2,1732.4 2347.0,1741.3 2381.8,1750.9  " style="stroke-opacity: 1.000000; stroke-width: 5.0; stroke: rgb(107,174,214); fill: none"  />
<path d="M 1999.0,2269.1 L 1979.7,2239.0 1961.1,2208.8 1943.1,2178.7 1925.9,2148.8 1909.8,2119.3 1894.8,2090.4 1881.0,2062.1 1868.6,2034.7 1857.7,2008.1 1848.3,1982.7 1840.6,1958.4 1834.6,1935.3 1830.4,1913.7 1828.1,1893.4 1827.6,1874.7 1829.1,1857.5 1832.5,1841.9 1837.9,1828.0 1845.2,1815.8 1854.5,1805.3 1865.7,1796.6 1878.9,1789.6 1894.0,1784.4 1910.9,1780.9 1929.5,1779.1 1949.9,1779.0 1971.9,1780.6 1995.5,1783.9 2020.6,1788.6 2046.9,1794.9 2074.6,1802.6 2103.3,1811.7 2133.0,1822.0 2163.5,1833.5 2194.7,1846.0 2226.5,1859.5 2258.5,1873.8 2290.7,1888.8 2322.8,1904.3  " style="stroke-opacity: 1.000000; stroke-width: 5.0; stroke: rgb(107,174,214); fill: none"  />
<path d="M 1999.0,2269.1 L 1979.8,2239.3 1961.1,2209.5 1943.0,2179.9 1925.5,2150.7 1909.0,2122.0 1893.5,2094.1 1879.0,2067.0 1865.8,2040.9 1854.0,2016.0 1843.6,1992.4 1834.6,1970.1 1827.3,1949.3 1821.6,1930.1 1817.7,1912.5 1815.4,1896.7 1815.0,1882.7 1816.3,1870.5 1819.5,1860.2 1824.6,1851.8 1831.4,1845.3 1840.1,1840.8 1850.6,1838.2 1862.9,1837.6 1876.8,1838.9 1892.5,1842.1 1909.8,1847.1 1928.6,1854.0 1948.9,1862.6 1970.6,1872.8 1993.6,1884.6 2017.7,1898.0 2042.9,1912.7 2069.1,1928.8 2096.0,1946.0 2123.6,1964.2 2151.7,1983.4 2180.2,2003.3 2208.8,2023.8 2237.4,2044.7  " style="stroke-opacity: 1.000000; stroke-width: 5.0; stroke: rgb(107,174,214); fill: none"  />
<path d="M 1999.0,2269.1 L 1979.7,2239.5 1960.4,2210.3 1941.3,2181.6 1922.4,2153.7 1903.8,2126.7 1885.7,2100.8 1868.2,2076.2 1851.3,2053.1 1835.1,2031.6 1819.8,2011.8 1805.4,1993.9 1791.9,1978.0 1779.4,1964.1 1768.0,1952.3 1757.8,1942.8 1748.7,1935.6 1740.7,1930.7 1734.1,1928.1 1728.6,1927.9 1724.4,1930.2 1721.5,1934.7 1719.8,1941.7 1719.4,1951.0 1720.3,1962.6 1722.3,1976.5 1725.6,1992.5 1730.0,2010.6 1735.6,2030.7 1742.3,2052.8 1749.9,2076.6 1758.6,2102.0 1768.2,2129.0 1778.6,2157.4 1789.7,2186.9 1801.5,2217.5 1813.9,2248.8 1826.8,2280.8 1840.1,2313.2 1853.6,2345.8  " style="stroke-opacity: 1.000000; stroke-width: 5.0; stroke: rgb(107,174,214); fill: none"  />
<path d="M 1999.0,2269.1 L 1979.5,2239.4 1960.0,2210.2 1940.3,2181.6 1920.7,2153.8 1901.3,2127.0 1882.1,2101.4 1863.3,2077.2 1844.9,2054.5 1826.9,2033.5 1809.6,2014.4 1792.9,1997.2 1776.9,1982.0 1761.7,1969.0 1747.3,1958.2 1733.7,1949.7 1721.1,1943.6 1709.4,1939.9 1698.7,1938.6 1689.0,1939.8 1680.3,1943.4 1672.6,1949.5 1666.0,1958.0 1660.4,1969.0 1655.9,1982.3 1652.4,1997.9 1650.0,2015.7 1648.6,2035.7 1648.1,2057.7 1648.6,2081.7 1650.1,2107.5 1652.4,2135.0 1655.6,2164.0 1659.6,2194.4 1664.4,2226.0 1669.8,2258.7 1675.8,2292.2 1682.4,2326.3 1689.5,2360.7 1696.9,2395.4  " style="stroke-opacity: 1.000000; stroke-width: 5.0; stroke: rgb(107,174,214); fill: none"  />
<path d="M 1853.6,2345.8 L 1840.0,2312.5 1827.0,2279.0 1814.9,2245.5 1803.6,2212.3 1793.4,2179.6 1784.3,2147.3 1776.4,2115.8 1769.9,2085.2 1764.8,2055.5 1761.2,2027.0 1759.2,1999.7 1758.7,1973.7 1759.9,1949.2 1762.8,1926.2 1767.5,1904.7 1773.9,1884.9 1782.0,1866.9 1792.0,1850.6 1803.6,1836.1 1817.1,1823.5 1832.2,1812.7 1849.1,1803.8 1867.6,1796.7 1887.7,1791.5 1909.4,1788.2 1932.6,1786.7 1957.1,1787.0 1983.0,1789.0 2010.2,1792.7 2038.4,1798.0 2067.7,1804.9 2097.9,1813.3 2128.9,1823.0 2160.5,1834.1 2192.6,1846.3 2225.1,1859.5 2257.7,1873.7 2290.3,1888.7 2322.8,1904.3  " style="stroke-opacity: 1.000000; stroke-width: 5.0; stroke: rgb(107,174,214); fill: none"  />
<path d="M 1853.6,2345.8 L 1840.1,2312.8 1827.1,2279.8 1814.8,2246.9 1803.2,2214.5 1792.6,2182.6 1783.0,2151.4 1774.5,2121.1 1767.2,2091.9 1761.2,2063.8 1756.5,2037.1 1753.3,2011.8 1751.5,1988.1 1751.2,1966.0 1752.5,1945.7 1755.4,1927.1 1759.9,1910.5 1766.1,1895.8 1773.9,1883.1 1783.3,1872.4 1794.3,1863.7 1806.9,1857.1 1821.1,1852.6 1836.9,1850.1 1854.1,1849.7 1872.8,1851.3 1892.9,1854.9 1914.2,1860.4 1936.9,1867.8 1960.7,1876.9 1985.5,1887.8 2011.3,1900.3 2038.0,1914.4 2065.3,1929.9 2093.3,1946.6 2121.8,1964.5 2150.6,1983.4 2179.6,2003.2 2208.5,2023.7 2237.4,2044.7  " style="stroke-opacity: 1.000000; stroke-width: 5.0; stroke: rgb(107,174,214); fill: none"  />
<path d="M 1853.6,2345.8 L 1840.1,2313.1 1827.0,2280.4 1814.4,2248.0 1802.5,2216.2 1791.4,2185.0 1781.1,2154.8 1771.7,2125.5 1763.4,2097.6 1756.2,2070.9 1750.1,2045.8 1745.3,2022.3 1741.8,2000.5 1739.7,1980.6 1738.9,1962.6 1739.5,1946.7 1741.6,1932.8 1745.1,1921.0 1750.1,1911.5 1756.5,1904.1 1764.5,1899.0 1773.8,1896.1 1784.6,1895.4 1796.8,1897.0 1810.3,1900.8 1825.1,1906.7 1841.2,1914.7 1858.5,1924.8 1877.0,1936.9 1896.5,1950.8 1917.0,1966.6 1938.3,1984.0 1960.5,2003.0 1983.4,2023.5 2006.8,2045.2 2030.7,2068.1 2055.0,2092.0 2079.4,2116.7 2103.9,2141.9 2128.3,2167.6  " style="stroke-opacity: 1.000000; stroke-width: 5.0; stroke: rgb(107,174,214); fill: none"  />
<path d="M 1853.6,2345.8 L 1840.1,2313.2 1826.8,2280.8 1813.9,2248.8 1801.5,2217.5 1789.7,2186.9 1778.6,2157.4 1768.2,2129.0 1758.6,2102.0 1749.9,2076.6 1742.3,2052.8 1735.6,2030.7 1730.0,2010.6 1725.6,1992.5 1722.3,1976.5 1720.3,1962.6 1719.4,1951.0 1719.8,1941.7 1721.5,1934.7 1724.4,1930.2 1728.6,1927.9 1734.1,1928.1 1740.7,1930.7 1748.7,1935.6 1757.8,1942.8 1768.0,1952.3 1779.4,1964.1 1791.9,1978.0 1805.4,1993.9 1819.8,2011.8 1835.1,2031.6 1851.3,2053.1 1868.2,2076.2 1885.7,2100.8 1903.8,2126.7 1922.4,2153.7 1941.3,2181.6 1960.4,2210.3 1979.7,2239.5 1999.0,2269.1  " style="stroke-opacity: 1.000000; stroke-width: 5.0; stroke: rgb(107,174,214); fill: none"  />
<path d="M 1853.6,2345.8 L 1839.9,2313.3 1826.2,2281.1 1812.5,2249.5 1798.9,2218.6 1785.4,2188.7 1772.2,2160.0 1759.4,2132.7 1746.9,2106.9 1734.8,2082.9 1723.3,2060.7 1712.3,2040.5 1701.8,2022.4 1692.1,2006.5 1683.0,1992.9 1674.6,1981.7 1666.9,1973.0 1660.0,1966.7 1653.9,1963.0 1648.5,1961.9 1644.0,1963.3 1640.3,1967.3 1637.4,1973.9 1635.4,1982.9 1634.1,1994.5 1633.7,2008.5 1634.0,2024.9 1635.2,2043.5 1637.1,2064.3 1639.7,2087.1 1643.0,2111.9 1646.9,2138.5 1651.5,2166.8 1656.7,2196.5 1662.4,2227.6 1668.6,2259.8 1675.2,2292.9 1682.2,2326.6 1689.4,2360.9 1696.9,2395.4  " style="stroke-opacity: 1.000000; stroke-width: 5.0; stroke: rgb(107,174,214); fill: none"  />
<path d="M 1696.9,2395.4 L 1689.4,2359.1 1682.7,2322.7 1676.9,2286.2 1672.2,2249.9 1668.7,2213.9 1666.3,2178.3 1665.3,2143.3 1665.6,2109.0 1667.4,2075.5 1670.7,2043.0 1675.5,2011.6 1681.9,1981.3 1689.9,1952.3 1699.5,1924.6 1710.7,1898.3 1723.6,1873.6 1738.2,1850.4 1754.4,1828.7 1772.2,1808.8 1791.7,1790.5 1812.7,1773.9 1835.3,1759.0 1859.3,1745.9 1884.8,1734.5 1911.7,1724.9 1939.9,1717.0 1969.4,1710.8 2000.0,1706.2 2031.6,1703.3 2064.3,1702.0 2097.8,1702.3 2132.1,1704.0 2166.9,1707.2 2202.3,1711.7 2238.1,1717.4 2274.1,1724.3 2310.1,1732.3 2346.1,1741.2 2381.8,1750.9  " style="stroke-opacity: 1.000000; stroke-width: 5.0; stroke: rgb(107,174,214); fill: none"  />
<path d="M 1696.9,2395.4 L 1689.4,2359.7 1682.7,2323.9 1676.9,2288.1 1672.0,2252.7 1668.2,2217.7 1665.5,2183.3 1664.1,2149.6 1663.9,2116.9 1665.1,2085.2 1667.7,2054.6 1671.7,2025.4 1677.2,1997.5 1684.3,1971.1 1692.8,1946.3 1702.9,1923.2 1714.6,1901.8 1727.8,1882.2 1742.6,1864.4 1759.0,1848.4 1776.8,1834.4 1796.2,1822.4 1817.0,1812.2 1839.2,1804.0 1862.8,1797.8 1887.6,1793.5 1913.8,1791.1 1941.1,1790.5 1969.4,1791.8 1998.8,1794.9 2029.1,1799.6 2060.2,1806.0 2091.9,1814.0 2124.3,1823.4 2157.0,1834.1 2190.1,1846.2 2223.4,1859.3 2256.7,1873.5 2289.9,1888.5 2322.8,1904.3  " style="stroke-opacity: 1.000000; stroke-width: 5.0; stroke: rgb(107,174,214); fill: none"  />
<path d="M 1696.9,2395.4 L 1689.5,2360.5 1682.6,2325.6 1676.3,2291.1 1670.8,2257.1 1666.0,2223.8 1662.1,2191.4 1659.2,2160.1 1657.2,2130.1 1656.3,2101.4 1656.5,2074.3 1657.8,2048.8 1660.3,2025.2 1664.0,2003.4 1668.9,1983.6 1675.1,1965.9 1682.5,1950.3 1691.1,1936.9 1701.1,1925.8 1712.2,1917.0 1724.6,1910.4 1738.2,1906.2 1753.0,1904.3 1768.9,1904.7 1786.0,1907.3 1804.1,1912.2 1823.2,1919.3 1843.2,1928.6 1864.2,1939.9 1885.9,1953.1 1908.4,1968.3 1931.6,1985.2 1955.3,2003.8 1979.5,2023.9 2004.1,2045.4 2028.9,2068.1 2053.8,2091.8 2078.8,2116.5 2103.6,2141.8 2128.3,2167.6  " style="stroke-opacity: 1.000000; stroke-width: 5.0; stroke: rgb(107,174,214); fill: none"  />
<path d="M 1696.9,2395.4 L 1689.5,2360.7 1682.4,2326.3 1675.8,2292.2 1669.8,2258.7 1664.4,2226.0 1659.6,2194.4 1655.6,2164.0 1652.4,2135.0 1650.1,2107.5 1648.6,2081.7 1648.1,2057.7 1648.6,2035.7 1650.0,2015.7 1652.4,1997.9 1655.9,1982.3 1660.4,1969.0 1666.0,1958.0 1672.6,1949.5 1680.3,1943.4 1689.0,1939.8 1698.7,1938.6 1709.4,1939.9 1721.1,1943.6 1733.7,1949.7 1747.3,1958.2 1761.7,1969.0 1776.9,1982.0 1792.9,1997.2 1809.6,2014.4 1826.9,2033.5 1844.9,2054.5 1863.3,2077.2 1882.1,2101.4 1901.3,2127.0 1920.7,2153.8 1940.3,2181.6 1960.0,2210.2 1979.5,2239.4 1999.0,2269.1  " style="stroke-opacity: 1.000000; stroke-width: 5.0; stroke: rgb(107,174,214); fill: none"  />
<path d="M 1696.9,2395.4 L 1689.4,2360.9 1682.2,2326.6 1675.2,2292.9 1668.6,2259.8 1662.4,2227.6 1656.7,2196.5 1651.5,2166.8 1646.9,2138.5 1643.0,2111.9 1639.7,2087.1 1637.1,2064.3 1635.2,2043.5 1634.0,2024.9 1633.7,2008.5 1634.1,1994.5 1635.4,1982.9 1637.4,1973.9 1640.3,1967.3 1644.0,1963.3 1648.5,1961.9 1653.9,1963.0 1660.0,1966.7 1666.9,1973.0 1674.6,1981.7 1683.0,1992.9 1692.1,2006.5 1701.8,2022.4 1712.3,2040.5 1723.3,2060.7 1734.8,2082.9 1746.9,2106.9 1759.4,2132.7 1772.2,2160.0 1785.4,2188.7 1798.9,2218.6 1812.5,2249.5 1826.2,2281.1 1839.9,2313.3 1853.6,2345.8  " style="stroke-opacity: 1.000000; stroke-width: 5.0; stroke: rgb(107,174,214); fill: none"  />
<path d="M 2011.1,738.9 L 1991.2,768.2 1971.2,797.2 1951.1,825.5 1931.0,853.0 1911.2,879.5 1891.6,904.7 1872.4,928.6 1853.6,951.0 1835.4,971.7 1817.7,990.6 1800.7,1007.5 1784.5,1022.4 1769.1,1035.2 1754.5,1045.8 1740.8,1054.0 1728.1,1060.0 1716.3,1063.5 1705.6,1064.6 1695.9,1063.3 1687.3,1059.5 1679.7,1053.3 1673.2,1044.7 1667.8,1033.6 1663.5,1020.3 1660.3,1004.6 1658.1,986.8 1657.0,966.8 1656.9,944.7 1657.8,920.7 1659.7,895.0 1662.5,867.5 1666.1,838.5 1670.6,808.2 1675.8,776.6 1681.8,744.1 1688.3,710.7 1695.5,676.7 1703.1,642.4 1711.1,607.9  " style="stroke-opacity: 1.000000; stroke-width: 5.0; stroke: rgb(107,174,214); fill: none"  />
</g>
<defs>
<pattern id="vline-sparse" width="10" height="10" patternTransform="rotate(0 0 0)" patternUnits="userSpaceOnUse"><line x1="0" y1="0" x2="0" y2="10" style="stroke:black;stroke-width:2" /></pattern>
<pattern id="hline" width="10" height="10" patternTransform="rotate(0 0 0)" patternUnits="userSpaceOnUse"><line x1="0" y1="0" x2="10" y2="0" style="stroke:black;stroke-width:5" /></pattern>
<pattern id="vline" width="10" height="10" patternTransform="rotate(0 0 0)" patternUnits="userSpaceOnUse"><line x1="0" y1="0" x2="0" y2="10" style="stroke:black;stroke-width:5" /></pattern>
<pattern id="checker" width="10" height="10" patternTransform="rotate(45 0 0)" patternUnits="userSpaceOnUse"><line x1="0" y1="0" x2="10" y2="0" style="stroke:black;stroke-width:2" /><line x1="0" y1="0" x2="0" y2="10" style="stroke:black;stroke-width:2" /></pattern>
<pattern id="checker" width="10" height="10" patternTransform="rotate(45 0 0)" patternUnits="userSpaceOnUse"><line x1="0" y1="0" x2="10" y2="0" style="stroke:black;stroke-width:5" /><line x1="0" y1="0" x2="0" y2="10" style="stroke:black;stroke-width:4" /></pattern>
<pattern id="hline-sparse" width="10" height="10" patternTransform="rotate(0 0 0)" patternUnits="userSpaceOnUse"><line x1="0" y1="0" x2="10" y2="0" style="stroke:black;stroke-width:2" /></pattern>
</defs>
</svg>
