<?xml version="1.0" encoding="utf-8" standalone="no"?>
<!DOCTYPE svg PUBLIC "-//W3C//DTD SVG 1.1//EN" "http://www.w3.org/Graphics/SVG/1.1/DTD/svg11.dtd">
<svg width="3000px" height="3000px" version="1.1" xmlns="http://www.w3.org/2000/svg" xmlns:xlink="http://www.w3.org/1999/xlink">
<g id="bg">
<rect x="0" y="0" width="3000px" height="3000px" style="fill:rgb(255,255,255);"/>
</g>
<g id="ideograms">
<path d="M1500.000,830.000 A670.000,670.000 40.000 0,1 1570.620,833.732 L1579.053,754.178 A750.000,750.000 0.000 0,0 1500.000,750.000 Z" style="stroke-width:2.0;stroke:rgb(115,115,115);stroke-linecap:round;fill:rgb(153,204,255);" />
<text x="1568.0" y="677.8" font-size="65.0px" font-family="CMUBright-Roman" style="text-anchor:start;fill:rgb(0,0,0);" transform="rotate(273.0,1568.0,677.8)" >6-IFG</text>
<path d="M1500.000,830.000 A670.000,670.000 40.000 0,1 1570.620,833.732 L1579.053,754.178 A750.000,750.000 0.000 0,0 1500.000,750.000 Z" style="stroke-width:2.0;stroke:rgb(115,115,115);stroke-linecap:round;fill:none;" />
<path d="M1619.633,840.767 A670.000,670.000 40.000 0,1 1688.452,857.049 L1710.954,780.279 A750.000,750.000 0.000 0,0 1633.918,762.053 Z" style="stroke-width:2.0;stroke:rgb(115,115,115);stroke-linecap:round;fill:rgb(153,204,255);" />
<text x="1713.7" y="703.2" font-size="65.0px" font-family="CMUBright-Roman" style="text-anchor:start;fill:rgb(0,0,0);" transform="rotate(283.3,1713.7,703.2)" >8-IFG</text>
<path d="M1619.633,840.767 A670.000,670.000 40.000 0,1 1688.452,857.049 L1710.954,780.279 A750.000,750.000 0.000 0,0 1633.918,762.053 Z" style="stroke-width:2.0;stroke:rgb(115,115,115);stroke-linecap:round;fill:none;" />
<path d="M1735.421,872.723 A670.000,670.000 40.000 0,1 1800.227,901.031 L1836.075,829.512 A750.000,750.000 0.000 0,0 1763.531,797.824 Z" style="stroke-width:2.0;stroke:rgb(115,115,115);stroke-linecap:round;fill:rgb(153,204,255);" />
<text x="1852.5" y="754.1" font-size="65.0px" font-family="CMUBright-Roman" style="text-anchor:start;fill:rgb(0,0,0);" transform="rotate(293.6,1852.5,754.1)" >19-MTG</text>
<path d="M1735.421,872.723 A670.000,670.000 40.000 0,1 1800.227,901.031 L1836.075,829.512 A750.000,750.000 0.000 0,0 1763.531,797.824 Z" style="stroke-width:2.0;stroke:rgb(115,115,115);stroke-linecap:round;fill:none;" />
<path d="M1843.643,924.839 A670.000,670.000 40.000 0,1 1902.352,964.264 L1950.394,900.296 A750.000,750.000 0.000 0,0 1884.674,856.163 Z" style="stroke-width:2.0;stroke:rgb(115,115,115);stroke-linecap:round;fill:rgb(153,204,255);" />
<text x="1980.1" y="829.1" font-size="65.0px" font-family="CMUBright-Roman" style="text-anchor:start;fill:rgb(0,0,0);" transform="rotate(303.9,1980.1,829.1)" >35-SG</text>
<path d="M1843.643,924.839 A670.000,670.000 40.000 0,1 1902.352,964.264 L1950.394,900.296 A750.000,750.000 0.000 0,0 1884.674,856.163 Z" style="stroke-width:2.0;stroke:rgb(115,115,115);stroke-linecap:round;fill:none;" />
<path d="M1940.819,995.442 A670.000,670.000 40.000 0,1 1991.546,1044.717 L2050.238,990.354 A750.000,750.000 0.000 0,0 1993.454,935.196 Z" style="stroke-width:2.0;stroke:rgb(115,115,115);stroke-linecap:round;fill:rgb(116,196,118);" />
<text x="2092.1" y="925.6" font-size="65.0px" font-family="CMUBright-Roman" style="text-anchor:start;fill:rgb(0,0,0);" transform="rotate(314.2,2092.1,925.6)" >11-ITG</text>
<path d="M1940.819,995.442 A670.000,670.000 40.000 0,1 1991.546,1044.717 L2050.238,990.354 A750.000,750.000 0.000 0,0 1993.454,935.196 Z" style="stroke-width:2.0;stroke:rgb(115,115,115);stroke-linecap:round;fill:none;" />
<path d="M2023.827,1082.262 A670.000,670.000 40.000 0,1 2064.940,1139.802 L2132.396,1096.793 A750.000,750.000 0.000 0,0 2086.374,1032.383 Z" style="stroke-width:2.0;stroke:rgb(115,115,115);stroke-linecap:round;fill:rgb(116,196,118);" />
<text x="2184.6" y="1039.7" font-size="65.0px" font-family="CMUBright-Roman" style="text-anchor:start;fill:rgb(0,0,0);" transform="rotate(324.5,2184.6,1039.7)" >14-LIX</text>
<path d="M2023.827,1082.262 A670.000,670.000 40.000 0,1 2064.940,1139.802 L2132.396,1096.793 A750.000,750.000 0.000 0,0 2086.374,1032.383 Z" style="stroke-width:2.0;stroke:rgb(115,115,115);stroke-linecap:round;fill:none;" />
<path d="M2089.999,1182.508 A670.000,670.000 40.000 0,1 2120.177,1246.465 L2194.228,1216.192 A750.000,750.000 0.000 0,0 2160.447,1144.599 Z" style="stroke-width:2.0;stroke:rgb(115,115,115);stroke-linecap:round;fill:rgb(116,196,118);" />
<text x="2256.2" y="1170.3" font-size="65.0px" font-family="CMUBright-Roman" style="text-anchor:start;fill:rgb(0,0,0);" transform="rotate(334.7,2256.2,1170.3)" >22-ParG</text>
<path d="M2089.999,1182.508 A670.000,670.000 40.000 0,1 2120.177,1246.465 L2194.228,1216.192 A750.000,750.000 0.000 0,0 2160.447,1144.599 Z" style="stroke-width:2.0;stroke:rgb(115,115,115);stroke-linecap:round;fill:none;" />
<path d="M2137.208,1292.959 A670.000,670.000 40.000 0,1 2155.481,1361.276 L2233.748,1344.712 A750.000,750.000 0.000 0,0 2213.292,1268.237 Z" style="stroke-width:2.0;stroke:rgb(115,115,115);stroke-linecap:round;fill:rgb(116,196,118);" />
<text x="2302.8" y="1310.1" font-size="65.0px" font-family="CMUBright-Roman" style="text-anchor:start;fill:rgb(0,0,0);" transform="rotate(345.0,2302.8,1310.1)" >23-PP</text>
<path d="M2137.208,1292.959 A670.000,670.000 40.000 0,1 2155.481,1361.276 L2233.748,1344.712 A750.000,750.000 0.000 0,0 2213.292,1268.237 Z" style="stroke-width:2.0;stroke:rgb(115,115,115);stroke-linecap:round;fill:none;" />
<path d="M2163.936,1410.064 A670.000,670.000 40.000 0,1 2169.718,1480.546 L2249.684,1478.223 A750.000,750.000 0.000 0,0 2243.212,1399.325 Z" style="stroke-width:2.0;stroke:rgb(115,115,115);stroke-linecap:round;fill:rgb(116,196,118);" />
<text x="2323.8" y="1456.0" font-size="65.0px" font-family="CMUBright-Roman" style="text-anchor:start;fill:rgb(0,0,0);" transform="rotate(355.3,2323.8,1456.0)" >24-PP</text>
<path d="M2163.936,1410.064 A670.000,670.000 40.000 0,1 2169.718,1480.546 L2249.684,1478.223 A750.000,750.000 0.000 0,0 2243.212,1399.325 Z" style="stroke-width:2.0;stroke:rgb(115,115,115);stroke-linecap:round;fill:none;" />
<path d="M2169.325,1530.059 A670.000,670.000 40.000 0,1 2162.429,1600.441 L2241.524,1612.434 A750.000,750.000 0.000 0,0 2249.245,1533.649 Z" style="stroke-width:2.0;stroke:rgb(115,115,115);stroke-linecap:round;fill:rgb(116,196,118);" />
<text x="2318.3" y="1604.8" font-size="65.0px" font-family="CMUBright-Roman" style="text-anchor:start;fill:rgb(0,0,0);" transform="rotate(5.6,2318.3,1604.8)" >33-SC</text>
<path d="M2169.325,1530.059 A670.000,670.000 40.000 0,1 2162.429,1600.441 L2241.524,1612.434 A750.000,750.000 0.000 0,0 2249.245,1533.649 Z" style="stroke-width:2.0;stroke:rgb(115,115,115);stroke-linecap:round;fill:none;" />
<path d="M2153.202,1649.089 A670.000,670.000 40.000 0,1 2133.849,1717.108 L2209.532,1743.032 A750.000,750.000 0.000 0,0 2231.196,1666.891 Z" style="stroke-width:2.0;stroke:rgb(115,115,115);stroke-linecap:round;fill:rgb(153,0,204);" />
<text x="2286.5" y="1749.2" font-size="65.0px" font-family="CMUBright-Roman" style="text-anchor:start;fill:rgb(0,0,0);" transform="rotate(15.9,2286.5,1749.2)" >1-AG</text>
<path d="M2153.202,1649.089 A670.000,670.000 40.000 0,1 2133.849,1717.108 L2209.532,1743.032 A750.000,750.000 0.000 0,0 2231.196,1666.891 Z" style="stroke-width:2.0;stroke:rgb(115,115,115);stroke-linecap:round;fill:none;" />
<path d="M2116.084,1763.327 A670.000,670.000 40.000 0,1 2084.896,1826.797 L2154.734,1865.818 A750.000,750.000 0.000 0,0 2189.646,1794.769 Z" style="stroke-width:2.0;stroke:rgb(115,115,115);stroke-linecap:round;fill:rgb(153,0,204);" />
<text x="2229.5" y="1885.2" font-size="65.0px" font-family="CMUBright-Roman" style="text-anchor:start;fill:rgb(0,0,0);" transform="rotate(26.2,2229.5,1885.2)" >9-IPL</text>
<path d="M2116.084,1763.327 A670.000,670.000 40.000 0,1 2084.896,1826.797 L2154.734,1865.818 A750.000,750.000 0.000 0,0 2189.646,1794.769 Z" style="stroke-width:2.0;stroke:rgb(115,115,115);stroke-linecap:round;fill:none;" />
<path d="M2059.164,1869.101 A670.000,670.000 40.000 0,1 2017.145,1925.983 L2078.893,1976.846 A750.000,750.000 0.000 0,0 2125.930,1913.173 Z" style="stroke-width:2.0;stroke:rgb(115,115,115);stroke-linecap:round;fill:rgb(153,0,204);" />
<text x="2148.7" y="2009.7" font-size="65.0px" font-family="CMUBright-Roman" style="text-anchor:start;fill:rgb(0,0,0);" transform="rotate(36.5,2148.7,2009.7)" >12-LOC</text>
<path d="M2059.164,1869.101 A670.000,670.000 40.000 0,1 2017.145,1925.983 L2078.893,1976.846 A750.000,750.000 0.000 0,0 2125.930,1913.173 Z" style="stroke-width:2.0;stroke:rgb(115,115,115);stroke-linecap:round;fill:none;" />
<path d="M1984.273,1963.012 A670.000,670.000 40.000 0,1 1932.772,2011.477 L1984.446,2072.549 A750.000,750.000 0.000 0,0 2042.096,2018.297 Z" style="stroke-width:2.0;stroke:rgb(115,115,115);stroke-linecap:round;fill:rgb(153,0,204);" />
<text x="2047.3" y="2117.3" font-size="65.0px" font-family="CMUBright-Roman" style="text-anchor:start;fill:rgb(0,0,0);" transform="rotate(46.7,2047.3,2117.3)" >17-MFG</text>
<path d="M1984.273,1963.012 A670.000,670.000 40.000 0,1 1932.772,2011.477 L1984.446,2072.549 A750.000,750.000 0.000 0,0 2042.096,2018.297 Z" style="stroke-width:2.0;stroke:rgb(115,115,115);stroke-linecap:round;fill:none;" />
<path d="M1893.816,2042.041 A670.000,670.000 40.000 0,1 1834.489,2080.532 L1874.428,2149.849 A750.000,750.000 0.000 0,0 1940.839,2106.763 Z" style="stroke-width:2.0;stroke:rgb(115,115,115);stroke-linecap:round;fill:rgb(153,0,204);" />
<text x="1928.3" y="2205.1" font-size="65.0px" font-family="CMUBright-Roman" style="text-anchor:start;fill:rgb(0,0,0);" transform="rotate(57.0,1928.3,2205.1)" >25-PosG</text>
<path d="M1893.816,2042.041 A670.000,670.000 40.000 0,1 1834.489,2080.532 L1874.428,2149.849 A750.000,750.000 0.000 0,0 1940.839,2106.763 Z" style="stroke-width:2.0;stroke:rgb(115,115,115);stroke-linecap:round;fill:none;" />
<path d="M1790.702,2103.649 A670.000,670.000 40.000 0,1 1725.456,2130.928 L1752.376,2206.262 A750.000,750.000 0.000 0,0 1825.413,2175.727 Z" style="stroke-width:2.0;stroke:rgb(115,115,115);stroke-linecap:round;fill:rgb(153,0,204);" />
<text x="1795.5" y="2270.3" font-size="65.0px" font-family="CMUBright-Roman" style="text-anchor:start;fill:rgb(0,0,0);" transform="rotate(67.3,1795.5,2270.3)" >28-RCI</text>
<path d="M1790.702,2103.649 A670.000,670.000 40.000 0,1 1725.456,2130.928 L1752.376,2206.262 A750.000,750.000 0.000 0,0 1825.413,2175.727 Z" style="stroke-width:2.0;stroke:rgb(115,115,115);stroke-linecap:round;fill:none;" />
<path d="M1678.245,2145.855 A670.000,670.000 40.000 0,1 1609.176,2161.045 L1622.212,2239.976 A750.000,750.000 0.000 0,0 1699.528,2222.972 Z" style="stroke-width:2.0;stroke:rgb(115,115,115);stroke-linecap:round;fill:rgb(153,0,204);" />
<text x="1653.2" y="2310.7" font-size="65.0px" font-family="CMUBright-Roman" style="text-anchor:start;fill:rgb(0,0,0);" transform="rotate(77.6,1653.2,2310.7)" >34-SG</text>
<path d="M1678.245,2145.855 A670.000,670.000 40.000 0,1 1609.176,2161.045 L1622.212,2239.976 A750.000,750.000 0.000 0,0 1699.528,2222.972 Z" style="stroke-width:2.0;stroke:rgb(115,115,115);stroke-linecap:round;fill:none;" />
<path d="M1560.058,2167.303 A670.000,670.000 40.000 0,1 1489.388,2169.916 L1488.121,2249.906 A750.000,750.000 0.000 0,0 1567.229,2246.981 Z" style="stroke-width:2.0;stroke:rgb(115,115,115);stroke-linecap:round;fill:rgb(253,208,162);" />
<text x="1506.5" y="2325.0" font-size="65.0px" font-family="CMUBright-Roman" style="text-anchor:start;fill:rgb(0,0,0);" transform="rotate(87.9,1506.5,2325.0)" >5-FP</text>
<path d="M1560.058,2167.303 A670.000,670.000 40.000 0,1 1489.388,2169.916 L1488.121,2249.906 A750.000,750.000 0.000 0,0 1567.229,2246.981 Z" style="stroke-width:2.0;stroke:rgb(115,115,115);stroke-linecap:round;fill:none;" />
<path d="M1439.942,2167.303 A670.000,670.000 40.000 0,1 1369.940,2157.255 L1354.411,2235.733 A750.000,750.000 0.000 0,0 1432.771,2246.981 Z" style="stroke-width:2.0;stroke:rgb(115,115,115);stroke-linecap:round;fill:rgb(253,208,162);" />
<text x="1407.1" y="2319.8" font-size="65.0px" font-family="CMUBright-Roman" style="text-anchor:end;fill:rgb(0,0,0);" transform="rotate(-81.8,1407.1,2319.8)" >7-IFG</text>
<path d="M1439.942,2167.303 A670.000,670.000 40.000 0,1 1369.940,2157.255 L1354.411,2235.733 A750.000,750.000 0.000 0,0 1432.771,2246.981 Z" style="stroke-width:2.0;stroke:rgb(115,115,115);stroke-linecap:round;fill:none;" />
<path d="M1321.755,2145.855 A670.000,670.000 40.000 0,1 1254.673,2123.470 L1225.380,2197.914 A750.000,750.000 0.000 0,0 1300.472,2222.972 Z" style="stroke-width:2.0;stroke:rgb(115,115,115);stroke-linecap:round;fill:rgb(253,208,162);" />
<text x="1261.7" y="2289.8" font-size="65.0px" font-family="CMUBright-Roman" style="text-anchor:end;fill:rgb(0,0,0);" transform="rotate(-71.5,1261.7,2289.8)" >10-IPL</text>
<path d="M1321.755,2145.855 A670.000,670.000 40.000 0,1 1254.673,2123.470 L1225.380,2197.914 A750.000,750.000 0.000 0,0 1300.472,2222.972 Z" style="stroke-width:2.0;stroke:rgb(115,115,115);stroke-linecap:round;fill:none;" />
<path d="M1209.298,2103.649 A670.000,670.000 40.000 0,1 1147.290,2069.645 L1105.176,2137.663 A750.000,750.000 0.000 0,0 1174.587,2175.727 Z" style="stroke-width:2.0;stroke:rgb(115,115,115);stroke-linecap:round;fill:rgb(253,208,162);" />
<text x="1125.0" y="2234.8" font-size="65.0px" font-family="CMUBright-Roman" style="text-anchor:end;fill:rgb(0,0,0);" transform="rotate(-61.3,1125.0,2234.8)" >13-LCI</text>
<path d="M1209.298,2103.649 A670.000,670.000 40.000 0,1 1147.290,2069.645 L1105.176,2137.663 A750.000,750.000 0.000 0,0 1174.587,2175.727 Z" style="stroke-width:2.0;stroke:rgb(115,115,115);stroke-linecap:round;fill:none;" />
<path d="M1106.184,2042.041 A670.000,670.000 40.000 0,1 1051.245,1997.512 L997.662,2056.917 A750.000,750.000 0.000 0,0 1059.161,2106.763 Z" style="stroke-width:2.0;stroke:rgb(115,115,115);stroke-linecap:round;fill:rgb(253,208,162);" />
<text x="999.8" y="2156.1" font-size="65.0px" font-family="CMUBright-Roman" style="text-anchor:end;fill:rgb(0,0,0);" transform="rotate(-51.0,999.8,2156.1)" >16-LG</text>
<path d="M1106.184,2042.041 A670.000,670.000 40.000 0,1 1051.245,1997.512 L997.662,2056.917 A750.000,750.000 0.000 0,0 1059.161,2106.763 Z" style="stroke-width:2.0;stroke:rgb(115,115,115);stroke-linecap:round;fill:none;" />
<path d="M1015.727,1963.012 A670.000,670.000 40.000 0,1 969.622,1909.389 L906.293,1958.271 A750.000,750.000 0.000 0,0 957.904,2018.297 Z" style="stroke-width:2.0;stroke:rgb(115,115,115);stroke-linecap:round;fill:rgb(253,208,162);" />
<text x="890.7" y="2056.2" font-size="65.0px" font-family="CMUBright-Roman" style="text-anchor:end;fill:rgb(0,0,0);" transform="rotate(-40.7,890.7,2056.2)" >20-OFG</text>
<path d="M1015.727,1963.012 A670.000,670.000 40.000 0,1 969.622,1909.389 L906.293,1958.271 A750.000,750.000 0.000 0,0 957.904,2018.297 Z" style="stroke-width:2.0;stroke:rgb(115,115,115);stroke-linecap:round;fill:none;" />
<path d="M940.836,1869.101 A670.000,670.000 40.000 0,1 905.046,1808.107 L834.007,1844.896 A750.000,750.000 0.000 0,0 874.070,1913.173 Z" style="stroke-width:2.0;stroke:rgb(115,115,115);stroke-linecap:round;fill:rgb(253,208,162);" />
<text x="801.2" y="1938.5" font-size="65.0px" font-family="CMUBright-Roman" style="text-anchor:end;fill:rgb(0,0,0);" transform="rotate(-30.4,801.2,1938.5)" >21-OP</text>
<path d="M940.836,1869.101 A670.000,670.000 40.000 0,1 905.046,1808.107 L834.007,1844.896 A750.000,750.000 0.000 0,0 874.070,1913.173 Z" style="stroke-width:2.0;stroke:rgb(115,115,115);stroke-linecap:round;fill:none;" />
<path d="M883.916,1763.327 A670.000,670.000 40.000 0,1 859.593,1696.922 L783.126,1720.436 A750.000,750.000 0.000 0,0 810.354,1794.769 Z" style="stroke-width:2.0;stroke:rgb(115,115,115);stroke-linecap:round;fill:rgb(253,141,60);" />
<text x="734.1" y="1806.6" font-size="65.0px" font-family="CMUBright-Roman" style="text-anchor:end;fill:rgb(0,0,0);" transform="rotate(-20.1,734.1,1806.6)" >2-COC</text>
<path d="M883.916,1763.327 A670.000,670.000 40.000 0,1 859.593,1696.922 L783.126,1720.436 A750.000,750.000 0.000 0,0 810.354,1794.769 Z" style="stroke-width:2.0;stroke:rgb(115,115,115);stroke-linecap:round;fill:none;" />
<path d="M846.798,1649.089 A670.000,670.000 40.000 0,1 834.722,1579.409 L755.286,1588.890 A750.000,750.000 0.000 0,0 768.804,1666.891 Z" style="stroke-width:2.0;stroke:rgb(115,115,115);stroke-linecap:round;fill:rgb(253,141,60);" />
<text x="691.7" y="1665.0" font-size="65.0px" font-family="CMUBright-Roman" style="text-anchor:end;fill:rgb(0,0,0);" transform="rotate(-9.8,691.7,1665.0)" >3-COC</text>
<path d="M846.798,1649.089 A670.000,670.000 40.000 0,1 834.722,1579.409 L755.286,1588.890 A750.000,750.000 0.000 0,0 768.804,1666.891 Z" style="stroke-width:2.0;stroke:rgb(115,115,115);stroke-linecap:round;fill:none;" />
<path d="M830.675,1530.059 A670.000,670.000 40.000 0,1 831.235,1459.343 L751.382,1454.488 A750.000,750.000 0.000 0,0 750.755,1533.649 Z" style="stroke-width:2.0;stroke:rgb(115,115,115);stroke-linecap:round;fill:rgb(253,141,60);" />
<text x="675.2" y="1517.5" font-size="65.0px" font-family="CMUBright-Roman" style="text-anchor:end;fill:rgb(0,0,0);" transform="rotate(0.5,675.2,1517.5)" >15-LVIIIb</text>
<path d="M830.675,1530.059 A670.000,670.000 40.000 0,1 831.235,1459.343 L751.382,1454.488 A750.000,750.000 0.000 0,0 750.755,1533.649 Z" style="stroke-width:2.0;stroke:rgb(115,115,115);stroke-linecap:round;fill:none;" />
<path d="M836.064,1410.064 A670.000,670.000 40.000 0,1 849.242,1340.583 L771.539,1321.549 A750.000,750.000 0.000 0,0 756.788,1399.325 Z" style="stroke-width:2.0;stroke:rgb(115,115,115);stroke-linecap:round;fill:rgb(253,141,60);" />
<text x="685.3" y="1369.9" font-size="65.0px" font-family="CMUBright-Roman" style="text-anchor:end;fill:rgb(0,0,0);" transform="rotate(10.7,685.3,1369.9)" >30-RH</text>
<path d="M836.064,1410.064 A670.000,670.000 40.000 0,1 849.242,1340.583 L771.539,1321.549 A750.000,750.000 0.000 0,0 756.788,1399.325 Z" style="stroke-width:2.0;stroke:rgb(115,115,115);stroke-linecap:round;fill:none;" />
<path d="M862.792,1292.959 A670.000,670.000 40.000 0,1 888.165,1226.948 L815.110,1194.345 A750.000,750.000 0.000 0,0 786.708,1268.237 Z" style="stroke-width:2.0;stroke:rgb(115,115,115);stroke-linecap:round;fill:rgb(253,141,60);" />
<text x="721.6" y="1226.5" font-size="65.0px" font-family="CMUBright-Roman" style="text-anchor:end;fill:rgb(0,0,0);" transform="rotate(21.0,721.6,1226.5)" >31-RLV</text>
<path d="M862.792,1292.959 A670.000,670.000 40.000 0,1 888.165,1226.948 L815.110,1194.345 A750.000,750.000 0.000 0,0 786.708,1268.237 Z" style="stroke-width:2.0;stroke:rgb(115,115,115);stroke-linecap:round;fill:none;" />
<path d="M910.001,1182.508 A670.000,670.000 40.000 0,1 946.752,1122.089 L880.693,1076.965 A750.000,750.000 0.000 0,0 839.553,1144.599 Z" style="stroke-width:2.0;stroke:rgb(115,115,115);stroke-linecap:round;fill:rgb(253,141,60);" />
<text x="783.0" y="1091.9" font-size="65.0px" font-family="CMUBright-Roman" style="text-anchor:end;fill:rgb(0,0,0);" transform="rotate(31.3,783.0,1091.9)" >32-RLV</text>
<path d="M910.001,1182.508 A670.000,670.000 40.000 0,1 946.752,1122.089 L880.693,1076.965 A750.000,750.000 0.000 0,0 839.553,1144.599 Z" style="stroke-width:2.0;stroke:rgb(115,115,115);stroke-linecap:round;fill:none;" />
<path d="M976.173,1082.262 A670.000,670.000 40.000 0,1 1023.122,1029.376 L966.181,973.182 A750.000,750.000 0.000 0,0 913.626,1032.383 Z" style="stroke-width:2.0;stroke:rgb(115,115,115);stroke-linecap:round;fill:rgb(66,146,198);" />
<text x="867.0" y="970.9" font-size="65.0px" font-family="CMUBright-Roman" style="text-anchor:end;fill:rgb(0,0,0);" transform="rotate(41.6,867.0,970.9)" >4-FOC</text>
<path d="M976.173,1082.262 A670.000,670.000 40.000 0,1 1023.122,1029.376 L966.181,973.182 A750.000,750.000 0.000 0,0 913.626,1032.383 Z" style="stroke-width:2.0;stroke:rgb(115,115,115);stroke-linecap:round;fill:none;" />
<path d="M1059.181,995.442 A670.000,670.000 40.000 0,1 1114.819,951.789 L1068.827,886.331 A750.000,750.000 0.000 0,0 1006.546,935.196 Z" style="stroke-width:2.0;stroke:rgb(115,115,115);stroke-linecap:round;fill:rgb(66,146,198);" />
<text x="971.7" y="866.3" font-size="65.0px" font-family="CMUBright-Roman" style="text-anchor:end;fill:rgb(0,0,0);" transform="rotate(51.9,971.7,866.3)" >18-MTG</text>
<path d="M1059.181,995.442 A670.000,670.000 40.000 0,1 1114.819,951.789 L1068.827,886.331 A750.000,750.000 0.000 0,0 1006.546,935.196 Z" style="stroke-width:2.0;stroke:rgb(115,115,115);stroke-linecap:round;fill:none;" />
<path d="M1156.357,924.839 A670.000,670.000 40.000 0,1 1218.896,891.822 L1185.331,819.204 A750.000,750.000 0.000 0,0 1115.326,856.163 Z" style="stroke-width:2.0;stroke:rgb(115,115,115);stroke-linecap:round;fill:rgb(66,146,198);" />
<text x="1093.3" y="782.2" font-size="65.0px" font-family="CMUBright-Roman" style="text-anchor:end;fill:rgb(0,0,0);" transform="rotate(62.2,1093.3,782.2)" >26-PC</text>
<path d="M1156.357,924.839 A670.000,670.000 40.000 0,1 1218.896,891.822 L1185.331,819.204 A750.000,750.000 0.000 0,0 1115.326,856.163 Z" style="stroke-width:2.0;stroke:rgb(115,115,115);stroke-linecap:round;fill:none;" />
<path d="M1264.579,872.723 A670.000,670.000 40.000 0,1 1332.008,851.403 L1311.949,773.958 A750.000,750.000 0.000 0,0 1236.469,797.824 Z" style="stroke-width:2.0;stroke:rgb(115,115,115);stroke-linecap:round;fill:rgb(66,146,198);" />
<text x="1228.0" y="721.1" font-size="65.0px" font-family="CMUBright-Roman" style="text-anchor:end;fill:rgb(0,0,0);" transform="rotate(72.5,1228.0,721.1)" >27-RCI</text>
<path d="M1264.579,872.723 A670.000,670.000 40.000 0,1 1332.008,851.403 L1311.949,773.958 A750.000,750.000 0.000 0,0 1236.469,797.824 Z" style="stroke-width:2.0;stroke:rgb(115,115,115);stroke-linecap:round;fill:none;" />
<path d="M1380.367,840.767 A670.000,670.000 40.000 0,1 1450.519,831.830 L1444.611,752.048 A750.000,750.000 0.000 0,0 1366.082,762.053 Z" style="stroke-width:2.0;stroke:rgb(115,115,115);stroke-linecap:round;fill:rgb(66,146,198);" />
<text x="1371.5" y="685.1" font-size="65.0px" font-family="CMUBright-Roman" style="text-anchor:end;fill:rgb(0,0,0);" transform="rotate(82.7,1371.5,685.1)" >29-RCI</text>
<path d="M1380.367,840.767 A670.000,670.000 40.000 0,1 1450.519,831.830 L1444.611,752.048 A750.000,750.000 0.000 0,0 1366.082,762.053 Z" style="stroke-width:2.0;stroke:rgb(115,115,115);stroke-linecap:round;fill:none;" />
</g>
<g id="track_1">
<path d="M 2112.2,1674.2 L 2086.0,1667.1 2059.5,1660.6 2032.7,1654.7 2005.7,1649.7 1978.5,1645.4 1951.3,1642.0 1924.1,1639.5 1896.9,1637.9 1869.8,1637.4 1843.0,1637.9 1816.3,1639.5 1789.9,1642.2 1763.8,1646.0 1738.1,1651.0 1712.8,1657.1 1688.0,1664.4 1663.6,1672.8 1639.8,1682.5 1616.5,1693.3 1593.9,1705.3 1571.8,1718.4 1550.4,1732.6 1529.7,1747.9 1509.7,1764.3 1490.4,1781.8 1471.8,1800.2 1453.9,1819.6 1436.8,1839.8 1420.4,1861.0 1404.8,1882.9 1390.0,1905.5 1376.0,1928.8 1362.7,1952.7 1350.1,1977.1 1338.3,2002.0 1327.3,2027.2 1317.0,2052.6 1307.4,2078.1 1298.5,2103.8  " style="stroke-opacity: 1.000000; stroke-width: 5.0; stroke: rgb(251,106,74); fill: none"  />
<path d="M 1523.5,2136.1 L 1522.4,2104.5 1521.5,2072.7 1520.8,2040.9 1520.3,2008.9 1519.9,1976.7 1519.8,1944.5 1519.8,1912.2 1520.1,1879.8 1520.6,1847.3 1521.4,1814.8 1522.4,1782.2 1523.6,1749.5 1525.0,1716.9 1526.7,1684.1 1528.7,1651.4 1530.9,1618.6 1533.3,1585.9 1536.0,1553.1 1539.0,1520.3 1542.2,1487.6 1545.7,1454.9 1549.4,1422.2 1553.3,1389.6 1557.5,1357.1 1562.0,1324.6 1566.7,1292.1 1571.6,1259.8 1576.7,1227.5 1582.1,1195.3 1587.7,1163.3 1593.5,1131.3 1599.5,1099.5 1605.7,1067.8 1612.1,1036.2 1618.6,1004.8 1625.4,973.5 1632.3,942.3 1639.3,911.4 1646.5,880.6  " style="stroke-opacity: 1.000000; stroke-width: 5.0; stroke: rgb(251,106,74); fill: none"  />
<path d="M 1523.5,2136.1 L 1522.5,2105.2 1521.8,2074.0 1521.4,2042.7 1521.3,2011.2 1521.5,1979.6 1522.0,1947.8 1522.9,1915.9 1524.2,1883.8 1525.8,1851.7 1527.9,1819.5 1530.3,1787.3 1533.1,1755.0 1536.3,1722.6 1539.9,1690.3 1543.9,1657.9 1548.4,1625.6 1553.2,1593.3 1558.5,1561.0 1564.2,1528.8 1570.3,1496.7 1576.8,1464.6 1583.7,1432.7 1591.0,1400.8 1598.7,1369.1 1606.8,1337.6 1615.3,1306.1 1624.1,1274.9 1633.3,1243.8 1642.9,1212.9 1652.8,1182.2 1663.1,1151.7 1673.6,1121.4 1684.4,1091.4 1695.6,1061.6 1707.0,1032.1 1718.6,1002.8 1730.5,973.8 1742.5,945.1 1754.8,916.7  " style="stroke-opacity: 1.000000; stroke-width: 5.0; stroke: rgb(251,106,74); fill: none"  />
<path d="M 1533.6,864.4 L 1531.9,896.6 1530.1,928.9 1528.2,961.3 1526.3,993.7 1524.3,1026.1 1522.2,1058.6 1520.1,1091.1 1517.9,1123.6 1515.6,1156.1 1513.2,1188.7 1510.7,1221.3 1508.2,1253.9 1505.6,1286.5 1502.9,1319.2 1500.1,1351.8 1497.3,1384.4 1494.3,1417.1 1491.3,1449.7 1488.2,1482.4 1485.0,1515.0 1481.7,1547.6 1478.3,1580.2 1474.9,1612.8 1471.4,1645.4 1467.8,1678.0 1464.1,1710.5 1460.3,1743.0 1456.4,1775.5 1452.5,1807.9 1448.5,1840.4 1444.5,1872.7 1440.3,1905.1 1436.1,1937.3 1431.8,1969.6 1427.5,2001.8 1423.1,2033.9 1418.6,2066.0 1414.1,2098.1 1409.6,2130.0  " style="stroke-opacity: 1.000000; stroke-width: 5.0; stroke: rgb(251,106,74); fill: none"  />
<path d="M 1409.6,2130.0 L 1414.1,2098.1 1418.6,2066.0 1423.1,2033.9 1427.5,2001.8 1431.8,1969.6 1436.1,1937.3 1440.3,1905.1 1444.5,1872.7 1448.5,1840.4 1452.5,1807.9 1456.4,1775.5 1460.3,1743.0 1464.1,1710.5 1467.8,1678.0 1471.4,1645.4 1474.9,1612.8 1478.3,1580.2 1481.7,1547.6 1485.0,1515.0 1488.2,1482.4 1491.3,1449.7 1494.3,1417.1 1497.3,1384.4 1500.1,1351.8 1502.9,1319.2 1505.6,1286.5 1508.2,1253.9 1510.7,1221.3 1513.2,1188.7 1515.6,1156.1 1517.9,1123.6 1520.1,1091.1 1522.2,1058.6 1524.3,1026.1 1526.3,993.7 1528.2,961.3 1530.1,928.9 1531.9,896.6 1533.6,864.4  " style="stroke-opacity: 1.000000; stroke-width: 5.0; stroke: rgb(251,106,74); fill: none"  />
<path d="M 1409.6,2130.0 L 1413.6,2104.2 1418.3,2078.5 1423.6,2052.8 1429.7,2027.5 1436.5,2002.5 1444.0,1978.0 1452.4,1954.1 1461.5,1930.9 1471.5,1908.4 1482.2,1886.8 1493.8,1866.2 1506.2,1846.5 1519.4,1827.9 1533.5,1810.5 1548.3,1794.2 1564.0,1779.1 1580.4,1765.3 1597.6,1752.8 1615.6,1741.6 1634.3,1731.7 1653.7,1723.2 1673.7,1716.1 1694.4,1710.3 1715.7,1705.8 1737.5,1702.8 1759.8,1701.0 1782.6,1700.6 1805.9,1701.4 1829.5,1703.5 1853.3,1706.8 1877.5,1711.3 1901.8,1716.8 1926.3,1723.4 1950.7,1731.0 1975.2,1739.4 1999.6,1748.7 2023.8,1758.8 2047.7,1769.5 2071.3,1780.7  " style="stroke-opacity: 1.000000; stroke-width: 5.0; stroke: rgb(251,106,74); fill: none"  />
<path d="M 1409.6,2130.0 L 1413.5,2104.7 1418.0,2079.3 1423.2,2054.2 1429.0,2029.5 1435.5,2005.2 1442.6,1981.5 1450.5,1958.5 1459.1,1936.3 1468.4,1914.9 1478.5,1894.6 1489.3,1875.3 1500.8,1857.2 1513.1,1840.3 1526.1,1824.7 1539.8,1810.3 1554.2,1797.4 1569.4,1785.9 1585.2,1775.7 1601.6,1767.1 1618.7,1760.0 1636.4,1754.3 1654.7,1750.2 1673.6,1747.5 1692.9,1746.3 1712.8,1746.6 1733.0,1748.4 1753.7,1751.5 1774.7,1756.0 1796.0,1761.9 1817.5,1769.0 1839.2,1777.3 1861.1,1786.8 1883.0,1797.4 1904.9,1808.9 1926.7,1821.4 1948.4,1834.6 1969.9,1848.6 1991.1,1863.2 2012.0,1878.2  " style="stroke-opacity: 1.000000; stroke-width: 5.0; stroke: rgb(251,106,74); fill: none"  />
<path d="M 1409.6,2130.0 L 1413.3,2105.3 1417.5,2080.7 1422.2,2056.5 1427.3,2032.7 1432.9,2009.5 1438.9,1987.1 1445.5,1965.5 1452.5,1944.9 1460.0,1925.4 1468.0,1907.1 1476.5,1890.1 1485.5,1874.5 1495.0,1860.3 1504.9,1847.6 1515.3,1836.5 1526.2,1827.0 1537.4,1819.1 1549.2,1812.9 1561.3,1808.5 1573.8,1805.7 1586.7,1804.7 1599.9,1805.4 1613.4,1807.8 1627.3,1811.8 1641.4,1817.6 1655.7,1824.9 1670.3,1833.8 1685.0,1844.3 1699.8,1856.1 1714.8,1869.4 1729.8,1883.9 1744.8,1899.7 1759.8,1916.5 1774.7,1934.3 1789.5,1953.0 1804.1,1972.5 1818.5,1992.6 1832.6,2013.1 1846.4,2034.0  " style="stroke-opacity: 1.000000; stroke-width: 5.0; stroke: rgb(251,106,74); fill: none"  />
<path d="M 1646.5,880.6 L 1639.3,911.4 1632.3,942.3 1625.4,973.5 1618.6,1004.8 1612.1,1036.2 1605.7,1067.8 1599.5,1099.5 1593.5,1131.3 1587.7,1163.3 1582.1,1195.3 1576.7,1227.5 1571.6,1259.8 1566.7,1292.1 1562.0,1324.6 1557.5,1357.1 1553.3,1389.6 1549.4,1422.2 1545.7,1454.9 1542.2,1487.6 1539.0,1520.3 1536.0,1553.1 1533.3,1585.9 1530.9,1618.6 1528.7,1651.4 1526.7,1684.1 1525.0,1716.9 1523.6,1749.5 1522.4,1782.2 1521.4,1814.8 1520.6,1847.3 1520.1,1879.8 1519.8,1912.2 1519.8,1944.5 1519.9,1976.7 1520.3,2008.9 1520.8,2040.9 1521.5,2072.7 1522.4,2104.5 1523.5,2136.1  " style="stroke-opacity: 1.000000; stroke-width: 5.0; stroke: rgb(251,106,74); fill: none"  />
<path d="M 1646.5,880.6 L 1639.1,912.0 1631.5,943.5 1623.9,975.0 1616.3,1006.5 1608.5,1038.1 1600.7,1069.6 1592.8,1101.2 1584.8,1132.8 1576.7,1164.4 1568.6,1196.1 1560.3,1227.7 1552.0,1259.3 1543.6,1291.0 1535.2,1322.6 1526.6,1354.2 1518.0,1385.8 1509.2,1417.4 1500.4,1449.0 1491.5,1480.5 1482.6,1512.1 1473.5,1543.6 1464.4,1575.1 1455.1,1606.5 1445.9,1638.0 1436.5,1669.4 1427.1,1700.7 1417.5,1732.0 1408.0,1763.3 1398.3,1794.5 1388.6,1825.7 1378.8,1856.8 1368.9,1887.9 1359.0,1918.9 1349.1,1949.9 1339.1,1980.8 1329.0,2011.6 1318.9,2042.4 1308.7,2073.1 1298.5,2103.8  " style="stroke-opacity: 1.000000; stroke-width: 5.0; stroke: rgb(251,106,74); fill: none"  />
<path d="M 2071.3,1780.7 L 2047.7,1769.5 2023.8,1758.8 1999.6,1748.7 1975.2,1739.4 1950.7,1731.0 1926.3,1723.4 1901.8,1716.8 1877.5,1711.3 1853.3,1706.8 1829.5,1703.5 1805.9,1701.4 1782.6,1700.6 1759.8,1701.0 1737.5,1702.8 1715.7,1705.8 1694.4,1710.3 1673.7,1716.1 1653.7,1723.2 1634.3,1731.7 1615.6,1741.6 1597.6,1752.8 1580.4,1765.3 1564.0,1779.1 1548.3,1794.2 1533.5,1810.5 1519.4,1827.9 1506.2,1846.5 1493.8,1866.2 1482.2,1886.8 1471.5,1908.4 1461.5,1930.9 1452.4,1954.1 1444.0,1978.0 1436.5,2002.5 1429.7,2027.5 1423.6,2052.8 1418.3,2078.5 1413.6,2104.2 1409.6,2130.0  " style="stroke-opacity: 1.000000; stroke-width: 5.0; stroke: rgb(251,106,74); fill: none"  />
<path d="M 2071.3,1780.7 L 2047.3,1769.3 2022.8,1758.4 1998.1,1748.1 1973.1,1738.6 1947.8,1729.9 1922.5,1722.1 1897.1,1715.2 1871.6,1709.3 1846.3,1704.5 1821.0,1700.9 1795.9,1698.3 1771.0,1697.0 1746.3,1697.0 1722.0,1698.2 1698.0,1700.7 1674.4,1704.5 1651.2,1709.6 1628.5,1716.0 1606.3,1723.7 1584.6,1732.8 1563.5,1743.2 1543.0,1754.8 1523.0,1767.7 1503.8,1781.9 1485.1,1797.2 1467.2,1813.7 1449.9,1831.3 1433.3,1849.9 1417.5,1869.5 1402.4,1890.1 1387.9,1911.6 1374.3,1933.8 1361.3,1956.7 1349.1,1980.2 1337.5,2004.3 1326.7,2028.8 1316.6,2053.6 1307.2,2078.6 1298.5,2103.8  " style="stroke-opacity: 1.000000; stroke-width: 5.0; stroke: rgb(251,106,74); fill: none"  />
<path d="M 1298.5,2103.8 L 1307.4,2078.1 1317.0,2052.6 1327.3,2027.2 1338.3,2002.0 1350.1,1977.1 1362.7,1952.7 1376.0,1928.8 1390.0,1905.5 1404.8,1882.9 1420.4,1861.0 1436.8,1839.8 1453.9,1819.6 1471.8,1800.2 1490.4,1781.8 1509.7,1764.3 1529.7,1747.9 1550.4,1732.6 1571.8,1718.4 1593.9,1705.3 1616.5,1693.3 1639.8,1682.5 1663.6,1672.8 1688.0,1664.4 1712.8,1657.1 1738.1,1651.0 1763.8,1646.0 1789.9,1642.2 1816.3,1639.5 1843.0,1637.9 1869.8,1637.4 1896.9,1637.9 1924.1,1639.5 1951.3,1642.0 1978.5,1645.4 2005.7,1649.7 2032.7,1654.7 2059.5,1660.6 2086.0,1667.1 2112.2,1674.2  " style="stroke-opacity: 1.000000; stroke-width: 5.0; stroke: rgb(251,106,74); fill: none"  />
<path d="M 1298.5,2103.8 L 1308.7,2073.1 1318.9,2042.4 1329.0,2011.6 1339.1,1980.8 1349.1,1949.9 1359.0,1918.9 1368.9,1887.9 1378.8,1856.8 1388.6,1825.7 1398.3,1794.5 1408.0,1763.3 1417.5,1732.0 1427.1,1700.7 1436.5,1669.4 1445.9,1638.0 1455.1,1606.5 1464.4,1575.1 1473.5,1543.6 1482.6,1512.1 1491.5,1480.5 1500.4,1449.0 1509.2,1417.4 1518.0,1385.8 1526.6,1354.2 1535.2,1322.6 1543.6,1291.0 1552.0,1259.3 1560.3,1227.7 1568.6,1196.1 1576.7,1164.4 1584.8,1132.8 1592.8,1101.2 1600.7,1069.6 1608.5,1038.1 1616.3,1006.5 1623.9,975.0 1631.5,943.5 1639.1,912.0 1646.5,880.6  " style="stroke-opacity: 1.000000; stroke-width: 5.0; stroke: rgb(251,106,74); fill: none"  />
<path d="M 1298.5,2103.8 L 1307.2,2078.6 1316.6,2053.6 1326.7,2028.8 1337.5,2004.3 1349.1,1980.2 1361.3,1956.7 1374.3,1933.8 1387.9,1911.6 1402.4,1890.1 1417.5,1869.5 1433.3,1849.9 1449.9,1831.3 1467.2,1813.7 1485.1,1797.2 1503.8,1781.9 1523.0,1767.7 1543.0,1754.8 1563.5,1743.2 1584.6,1732.8 1606.3,1723.7 1628.5,1716.0 1651.2,1709.6 1674.4,1704.5 1698.0,1700.7 1722.0,1698.2 1746.3,1697.0 1771.0,1697.0 1795.9,1698.3 1821.0,1700.9 1846.3,1704.5 1871.6,1709.3 1897.1,1715.2 1922.5,1722.1 1947.8,1729.9 1973.1,1738.6 1998.1,1748.1 2022.8,1758.4 2047.3,1769.3 2071.3,1780.7  " style="stroke-opacity: 1.000000; stroke-width: 5.0; stroke: rgb(251,106,74); fill: none"  />
<path d="M 1298.5,2103.8 L 1308.8,2073.1 1319.1,2042.5 1329.5,2011.8 1340.0,1981.1 1350.5,1950.4 1361.1,1919.6 1371.9,1888.9 1382.6,1858.1 1393.5,1827.3 1404.5,1796.6 1415.5,1765.8 1426.6,1735.0 1437.8,1704.3 1449.1,1673.6 1460.4,1642.8 1471.9,1612.1 1483.4,1581.4 1495.0,1550.8 1506.7,1520.1 1518.5,1489.5 1530.3,1459.0 1542.2,1428.4 1554.2,1397.9 1566.3,1367.4 1578.4,1337.0 1590.6,1306.6 1602.9,1276.3 1615.3,1246.0 1627.7,1215.8 1640.2,1185.6 1652.7,1155.5 1665.3,1125.4 1677.9,1095.4 1690.6,1065.5 1703.4,1035.6 1716.2,1005.8 1729.0,976.0 1741.9,946.3 1754.8,916.7  " style="stroke-opacity: 1.000000; stroke-width: 5.0; stroke: rgb(251,106,74); fill: none"  />
<path d="M 1298.5,2103.8 L 1306.5,2080.3 1314.8,2057.1 1323.4,2034.3 1332.2,2012.1 1341.2,1990.5 1350.4,1969.9 1359.8,1950.1 1369.3,1931.5 1379.0,1914.1 1388.8,1898.0 1398.6,1883.3 1408.5,1870.1 1418.5,1858.4 1428.5,1848.4 1438.4,1840.0 1448.4,1833.4 1458.3,1828.5 1468.2,1825.4 1478.0,1824.1 1487.7,1824.6 1497.3,1826.9 1506.8,1831.1 1516.2,1837.0 1525.4,1844.6 1534.4,1854.0 1543.3,1865.0 1552.0,1877.7 1560.4,1891.9 1568.7,1907.5 1576.7,1924.6 1584.5,1942.9 1592.0,1962.4 1599.2,1983.0 1606.2,2004.5 1612.9,2026.9 1619.3,2050.0 1625.4,2073.5 1631.2,2097.5 1636.7,2121.6  " style="stroke-opacity: 1.000000; stroke-width: 5.0; stroke: rgb(251,106,74); fill: none"  />
<path d="M 2012.0,1878.2 L 1991.1,1863.2 1969.9,1848.6 1948.4,1834.6 1926.7,1821.4 1904.9,1808.9 1883.0,1797.4 1861.1,1786.8 1839.2,1777.3 1817.5,1769.0 1796.0,1761.9 1774.7,1756.0 1753.7,1751.5 1733.0,1748.4 1712.8,1746.6 1692.9,1746.3 1673.6,1747.5 1654.7,1750.2 1636.4,1754.3 1618.7,1760.0 1601.6,1767.1 1585.2,1775.7 1569.4,1785.9 1554.2,1797.4 1539.8,1810.3 1526.1,1824.7 1513.1,1840.3 1500.8,1857.2 1489.3,1875.3 1478.5,1894.6 1468.4,1914.9 1459.1,1936.3 1450.5,1958.5 1442.6,1981.5 1435.5,2005.2 1429.0,2029.5 1423.2,2054.2 1418.0,2079.3 1413.5,2104.7 1409.6,2130.0  " style="stroke-opacity: 1.000000; stroke-width: 5.0; stroke: rgb(251,106,74); fill: none"  />
<path d="M 2012.0,1878.2 L 1990.4,1862.6 1968.3,1847.6 1945.8,1833.1 1922.9,1819.2 1899.6,1806.2 1876.0,1793.9 1852.3,1782.6 1828.3,1772.3 1804.2,1763.1 1780.0,1754.9 1755.7,1748.0 1731.4,1742.3 1707.2,1737.8 1683.0,1734.6 1659.0,1732.8 1635.1,1732.3 1611.3,1733.2 1587.9,1735.5 1564.6,1739.1 1541.7,1744.2 1519.0,1750.6 1496.8,1758.4 1474.9,1767.5 1453.4,1778.0 1432.3,1789.8 1411.7,1802.8 1391.6,1817.0 1371.9,1832.4 1352.8,1848.9 1334.3,1866.4 1316.3,1884.9 1298.8,1904.3 1282.0,1924.6 1265.7,1945.6 1250.1,1967.2 1235.1,1989.4 1220.7,2012.0 1207.0,2034.9 1194.0,2058.1  " style="stroke-opacity: 1.000000; stroke-width: 5.0; stroke: rgb(251,106,74); fill: none"  />
<path d="M 2012.0,1878.2 L 1990.0,1862.3 1967.4,1846.9 1944.4,1832.1 1920.9,1817.8 1896.9,1804.3 1872.7,1791.5 1848.0,1779.6 1823.1,1768.6 1798.0,1758.6 1772.6,1749.6 1747.1,1741.7 1721.4,1735.0 1695.7,1729.4 1669.9,1725.0 1644.0,1721.8 1618.2,1719.9 1592.5,1719.3 1566.8,1720.0 1541.2,1721.9 1515.8,1725.2 1490.5,1729.7 1465.5,1735.5 1440.7,1742.6 1416.2,1750.9 1392.0,1760.4 1368.1,1771.1 1344.5,1783.0 1321.4,1796.0 1298.7,1810.0 1276.4,1825.0 1254.5,1841.0 1233.2,1857.9 1212.3,1875.6 1192.0,1894.1 1172.3,1913.2 1153.1,1932.9 1134.5,1953.0 1116.5,1973.6 1099.2,1994.5  " style="stroke-opacity: 1.000000; stroke-width: 5.0; stroke: rgb(251,106,74); fill: none"  />
<path d="M 2012.0,1878.2 L 1989.5,1862.0 1966.5,1846.2 1942.9,1830.9 1918.9,1816.1 1894.4,1802.0 1869.4,1788.6 1844.1,1776.0 1818.4,1764.2 1792.3,1753.2 1766.0,1743.2 1739.4,1734.2 1712.6,1726.2 1685.6,1719.2 1658.4,1713.4 1631.1,1708.6 1603.7,1705.0 1576.2,1702.5 1548.7,1701.1 1521.2,1701.0 1493.7,1702.0 1466.3,1704.2 1438.9,1707.5 1411.7,1712.1 1384.7,1717.7 1357.8,1724.5 1331.1,1732.3 1304.7,1741.3 1278.5,1751.3 1252.7,1762.2 1227.2,1774.1 1202.0,1787.0 1177.2,1800.6 1152.9,1815.1 1129.0,1830.3 1105.6,1846.2 1082.7,1862.7 1060.4,1879.7 1038.6,1897.2 1017.4,1915.0  " style="stroke-opacity: 1.000000; stroke-width: 5.0; stroke: rgb(251,106,74); fill: none"  />
<path d="M 2012.0,1878.2 L 1989.0,1861.6 1965.5,1845.4 1941.5,1829.6 1916.9,1814.3 1891.9,1799.6 1866.4,1785.4 1840.5,1771.9 1814.1,1759.2 1787.4,1747.2 1760.3,1736.0 1732.9,1725.7 1705.2,1716.2 1677.2,1707.7 1649.0,1700.1 1620.5,1693.5 1591.9,1687.9 1563.1,1683.3 1534.2,1679.7 1505.2,1677.1 1476.1,1675.6 1447.0,1675.1 1417.9,1675.6 1388.8,1677.1 1359.7,1679.7 1330.8,1683.3 1301.9,1687.9 1273.2,1693.4 1244.6,1699.9 1216.3,1707.3 1188.2,1715.5 1160.3,1724.6 1132.8,1734.5 1105.6,1745.2 1078.7,1756.6 1052.3,1768.6 1026.2,1781.2 1000.7,1794.4 975.6,1808.1 951.0,1822.1  " style="stroke-opacity: 1.000000; stroke-width: 5.0; stroke: rgb(251,106,74); fill: none"  />
<path d="M 1194.0,2058.1 L 1207.0,2034.9 1220.7,2012.0 1235.1,1989.4 1250.1,1967.2 1265.7,1945.6 1282.0,1924.6 1298.8,1904.3 1316.3,1884.9 1334.3,1866.4 1352.8,1848.9 1371.9,1832.4 1391.6,1817.0 1411.7,1802.8 1432.3,1789.8 1453.4,1778.0 1474.9,1767.5 1496.8,1758.4 1519.0,1750.6 1541.7,1744.2 1564.6,1739.1 1587.9,1735.5 1611.3,1733.2 1635.1,1732.3 1659.0,1732.8 1683.0,1734.6 1707.2,1737.8 1731.4,1742.3 1755.7,1748.0 1780.0,1754.9 1804.2,1763.1 1828.3,1772.3 1852.3,1782.6 1876.0,1793.9 1899.6,1806.2 1922.9,1819.2 1945.8,1833.1 1968.3,1847.6 1990.4,1862.6 2012.0,1878.2  " style="stroke-opacity: 1.000000; stroke-width: 5.0; stroke: rgb(251,106,74); fill: none"  />
<path d="M 1194.0,2058.1 L 1206.3,2036.0 1219.2,2014.2 1232.5,1992.9 1246.1,1972.1 1260.1,1952.1 1274.4,1932.9 1289.0,1914.6 1303.9,1897.4 1319.0,1881.4 1334.3,1866.6 1349.8,1853.1 1365.4,1841.1 1381.1,1830.5 1396.9,1821.5 1412.8,1814.0 1428.7,1808.1 1444.6,1803.9 1460.4,1801.3 1476.2,1800.5 1492.0,1801.3 1507.6,1803.8 1523.1,1808.0 1538.5,1813.9 1553.6,1821.4 1568.6,1830.5 1583.4,1841.2 1597.9,1853.4 1612.1,1867.0 1626.1,1882.0 1639.8,1898.3 1653.1,1915.9 1666.1,1934.5 1678.7,1954.2 1690.9,1974.8 1702.7,1996.3 1714.1,2018.3 1725.0,2041.0 1735.5,2064.0 1745.5,2087.2  " style="stroke-opacity: 1.000000; stroke-width: 5.0; stroke: rgb(251,106,74); fill: none"  />
<path d="M 1099.2,1994.5 L 1116.5,1973.6 1134.5,1953.0 1153.1,1932.9 1172.3,1913.2 1192.0,1894.1 1212.3,1875.6 1233.2,1857.9 1254.5,1841.0 1276.4,1825.0 1298.7,1810.0 1321.4,1796.0 1344.5,1783.0 1368.1,1771.1 1392.0,1760.4 1416.2,1750.9 1440.7,1742.6 1465.5,1735.5 1490.5,1729.7 1515.8,1725.2 1541.2,1721.9 1566.8,1720.0 1592.5,1719.3 1618.2,1719.9 1644.0,1721.8 1669.9,1725.0 1695.7,1729.4 1721.4,1735.0 1747.1,1741.7 1772.6,1749.6 1798.0,1758.6 1823.1,1768.6 1848.0,1779.6 1872.7,1791.5 1896.9,1804.3 1920.9,1817.8 1944.4,1832.1 1967.4,1846.9 1990.0,1862.3 2012.0,1878.2  " style="stroke-opacity: 1.000000; stroke-width: 5.0; stroke: rgb(251,106,74); fill: none"  />
<path d="M 1754.8,916.7 L 1742.5,945.1 1730.5,973.8 1718.6,1002.8 1707.0,1032.1 1695.6,1061.6 1684.4,1091.4 1673.6,1121.4 1663.1,1151.7 1652.8,1182.2 1642.9,1212.9 1633.3,1243.8 1624.1,1274.9 1615.3,1306.1 1606.8,1337.6 1598.7,1369.1 1591.0,1400.8 1583.7,1432.7 1576.8,1464.6 1570.3,1496.7 1564.2,1528.8 1558.5,1561.0 1553.2,1593.3 1548.4,1625.6 1543.9,1657.9 1539.9,1690.3 1536.3,1722.6 1533.1,1755.0 1530.3,1787.3 1527.9,1819.5 1525.8,1851.7 1524.2,1883.8 1522.9,1915.9 1522.0,1947.8 1521.5,1979.6 1521.3,2011.2 1521.4,2042.7 1521.8,2074.0 1522.5,2105.2 1523.5,2136.1  " style="stroke-opacity: 1.000000; stroke-width: 5.0; stroke: rgb(251,106,74); fill: none"  />
<path d="M 1754.8,916.7 L 1741.9,946.3 1729.0,976.0 1716.2,1005.8 1703.4,1035.6 1690.6,1065.5 1677.9,1095.4 1665.3,1125.4 1652.7,1155.5 1640.2,1185.6 1627.7,1215.8 1615.3,1246.0 1602.9,1276.3 1590.6,1306.6 1578.4,1337.0 1566.3,1367.4 1554.2,1397.9 1542.2,1428.4 1530.3,1459.0 1518.5,1489.5 1506.7,1520.1 1495.0,1550.8 1483.4,1581.4 1471.9,1612.1 1460.4,1642.8 1449.1,1673.6 1437.8,1704.3 1426.6,1735.0 1415.5,1765.8 1404.5,1796.6 1393.5,1827.3 1382.6,1858.1 1371.9,1888.9 1361.1,1919.6 1350.5,1950.4 1340.0,1981.1 1329.5,2011.8 1319.1,2042.5 1308.8,2073.1 1298.5,2103.8  " style="stroke-opacity: 1.000000; stroke-width: 5.0; stroke: rgb(251,106,74); fill: none"  />
<path d="M 1017.4,1915.0 L 1038.6,1897.2 1060.4,1879.7 1082.7,1862.7 1105.6,1846.2 1129.0,1830.3 1152.9,1815.1 1177.2,1800.6 1202.0,1787.0 1227.2,1774.1 1252.7,1762.2 1278.5,1751.3 1304.7,1741.3 1331.1,1732.3 1357.8,1724.5 1384.7,1717.7 1411.7,1712.1 1438.9,1707.5 1466.3,1704.2 1493.7,1702.0 1521.2,1701.0 1548.7,1701.1 1576.2,1702.5 1603.7,1705.0 1631.1,1708.6 1658.4,1713.4 1685.6,1719.2 1712.6,1726.2 1739.4,1734.2 1766.0,1743.2 1792.3,1753.2 1818.4,1764.2 1844.1,1776.0 1869.4,1788.6 1894.4,1802.0 1918.9,1816.1 1942.9,1830.9 1966.5,1846.2 1989.5,1862.0 2012.0,1878.2  " style="stroke-opacity: 1.000000; stroke-width: 5.0; stroke: rgb(251,106,74); fill: none"  />
<path d="M 951.0,1822.1 L 975.6,1808.1 1000.7,1794.4 1026.2,1781.2 1052.3,1768.6 1078.7,1756.6 1105.6,1745.2 1132.8,1734.5 1160.3,1724.6 1188.2,1715.5 1216.3,1707.3 1244.6,1699.9 1273.2,1693.4 1301.9,1687.9 1330.8,1683.3 1359.7,1679.7 1388.8,1677.1 1417.9,1675.6 1447.0,1675.1 1476.1,1675.6 1505.2,1677.1 1534.2,1679.7 1563.1,1683.3 1591.9,1687.9 1620.5,1693.5 1649.0,1700.1 1677.2,1707.7 1705.2,1716.2 1732.9,1725.7 1760.3,1736.0 1787.4,1747.2 1814.1,1759.2 1840.5,1771.9 1866.4,1785.4 1891.9,1799.6 1916.9,1814.3 1941.5,1829.6 1965.5,1845.4 1989.0,1861.6 2012.0,1878.2  " style="stroke-opacity: 1.000000; stroke-width: 5.0; stroke: rgb(251,106,74); fill: none"  />
<path d="M 1846.4,2034.0 L 1832.6,2013.1 1818.5,1992.6 1804.1,1972.5 1789.5,1953.0 1774.7,1934.3 1759.8,1916.5 1744.8,1899.7 1729.8,1883.9 1714.8,1869.4 1699.8,1856.1 1685.0,1844.3 1670.3,1833.8 1655.7,1824.9 1641.4,1817.6 1627.3,1811.8 1613.4,1807.8 1599.9,1805.4 1586.7,1804.7 1573.8,1805.7 1561.3,1808.5 1549.2,1812.9 1537.4,1819.1 1526.2,1827.0 1515.3,1836.5 1504.9,1847.6 1495.0,1860.3 1485.5,1874.5 1476.5,1890.1 1468.0,1907.1 1460.0,1925.4 1452.5,1944.9 1445.5,1965.5 1438.9,1987.1 1432.9,2009.5 1427.3,2032.7 1422.2,2056.5 1417.5,2080.7 1413.3,2105.3 1409.6,2130.0  " style="stroke-opacity: 1.000000; stroke-width: 5.0; stroke: rgb(251,106,74); fill: none"  />
<path d="M 1308.1,893.1 L 1317.9,923.9 1327.7,954.7 1337.6,985.6 1347.6,1016.4 1357.7,1047.3 1367.8,1078.2 1378.0,1109.2 1388.3,1140.1 1398.7,1171.0 1409.2,1202.0 1419.7,1232.9 1430.3,1263.8 1441.0,1294.7 1451.8,1325.7 1462.7,1356.6 1473.7,1387.4 1484.7,1418.3 1495.8,1449.2 1507.0,1480.0 1518.3,1510.8 1529.7,1541.5 1541.1,1572.2 1552.6,1602.9 1564.2,1633.6 1575.8,1664.2 1587.6,1694.8 1599.4,1725.3 1611.2,1755.8 1623.2,1786.2 1635.2,1816.6 1647.2,1846.9 1659.3,1877.2 1671.5,1907.4 1683.7,1937.5 1696.0,1967.6 1708.3,1997.6 1720.7,2027.5 1733.1,2057.4 1745.5,2087.2  " style="stroke-opacity: 1.000000; stroke-width: 5.0; stroke: rgb(251,106,74); fill: none"  />
<path d="M 1745.5,2087.2 L 1735.5,2064.0 1725.0,2041.0 1714.1,2018.3 1702.7,1996.3 1690.9,1974.8 1678.7,1954.2 1666.1,1934.5 1653.1,1915.9 1639.8,1898.3 1626.1,1882.0 1612.1,1867.0 1597.9,1853.4 1583.4,1841.2 1568.6,1830.5 1553.6,1821.4 1538.5,1813.9 1523.1,1808.0 1507.6,1803.8 1492.0,1801.3 1476.2,1800.5 1460.4,1801.3 1444.6,1803.9 1428.7,1808.1 1412.8,1814.0 1396.9,1821.5 1381.1,1830.5 1365.4,1841.1 1349.8,1853.1 1334.3,1866.6 1319.0,1881.4 1303.9,1897.4 1289.0,1914.6 1274.4,1932.9 1260.1,1952.1 1246.1,1972.1 1232.5,1992.9 1219.2,2014.2 1206.3,2036.0 1194.0,2058.1  " style="stroke-opacity: 1.000000; stroke-width: 5.0; stroke: rgb(251,106,74); fill: none"  />
<path d="M 1745.5,2087.2 L 1733.1,2057.4 1720.7,2027.5 1708.3,1997.6 1696.0,1967.6 1683.7,1937.5 1671.5,1907.4 1659.3,1877.2 1647.2,1846.9 1635.2,1816.6 1623.2,1786.2 1611.2,1755.8 1599.4,1725.3 1587.6,1694.8 1575.8,1664.2 1564.2,1633.6 1552.6,1602.9 1541.1,1572.2 1529.7,1541.5 1518.3,1510.8 1507.0,1480.0 1495.8,1449.2 1484.7,1418.3 1473.7,1387.4 1462.7,1356.6 1451.8,1325.7 1441.0,1294.7 1430.3,1263.8 1419.7,1232.9 1409.2,1202.0 1398.7,1171.0 1388.3,1140.1 1378.0,1109.2 1367.8,1078.2 1357.7,1047.3 1347.6,1016.4 1337.6,985.6 1327.7,954.7 1317.9,923.9 1308.1,893.1  " style="stroke-opacity: 1.000000; stroke-width: 5.0; stroke: rgb(251,106,74); fill: none"  />
<path d="M 1636.7,2121.6 L 1631.2,2097.5 1625.4,2073.5 1619.3,2050.0 1612.9,2026.9 1606.2,2004.5 1599.2,1983.0 1592.0,1962.4 1584.5,1942.9 1576.7,1924.6 1568.7,1907.5 1560.4,1891.9 1552.0,1877.7 1543.3,1865.0 1534.4,1854.0 1525.4,1844.6 1516.2,1837.0 1506.8,1831.1 1497.3,1826.9 1487.7,1824.6 1478.0,1824.1 1468.2,1825.4 1458.3,1828.5 1448.4,1833.4 1438.4,1840.0 1428.5,1848.4 1418.5,1858.4 1408.5,1870.1 1398.6,1883.3 1388.8,1898.0 1379.0,1914.1 1369.3,1931.5 1359.8,1950.1 1350.4,1969.9 1341.2,1990.5 1332.2,2012.1 1323.4,2034.3 1314.8,2057.1 1306.5,2080.3 1298.5,2103.8  " style="stroke-opacity: 1.000000; stroke-width: 5.0; stroke: rgb(251,106,74); fill: none"  />
</g>
<g id="track_0">
<path d="M 2112.2,1674.2 L 2088.6,1667.5 2065.2,1661.1 2042.1,1654.8 2019.4,1648.8 1997.4,1643.2 1976.1,1637.9 1955.7,1633.1 1936.3,1628.7 1918.1,1624.9 1901.0,1621.5 1885.3,1618.8 1870.9,1616.6 1858.1,1615.0 1846.8,1614.1 1837.1,1613.8 1829.0,1614.2 1822.6,1615.2 1817.9,1616.9 1815.0,1619.3 1813.8,1622.4 1814.4,1626.1 1816.7,1630.5 1820.8,1635.6 1826.5,1641.3 1833.9,1647.6 1842.9,1654.4 1853.5,1661.9 1865.6,1669.9 1879.2,1678.3 1894.1,1687.3 1910.2,1696.7 1927.6,1706.4 1945.9,1716.5 1965.3,1726.8 1985.4,1737.4 2006.2,1748.1 2027.6,1759.0 2049.3,1769.9 2071.3,1780.7  " style="stroke-opacity: 1.000000; stroke-width: 5.0; stroke: rgb(107,174,214); fill: none"  />
<path d="M 2112.2,1674.2 L 2088.3,1667.6 2064.5,1661.3 2040.8,1655.5 2017.5,1650.3 1994.6,1645.6 1972.4,1641.5 1950.8,1638.1 1930.0,1635.5 1910.2,1633.7 1891.4,1632.6 1873.7,1632.5 1857.2,1633.2 1841.9,1634.9 1828.0,1637.4 1815.5,1640.9 1804.4,1645.4 1794.8,1650.9 1786.6,1657.3 1780.0,1664.6 1775.0,1672.9 1771.5,1682.2 1769.5,1692.4 1769.1,1703.4 1770.2,1715.3 1772.9,1728.1 1777.0,1741.6 1782.6,1755.9 1789.5,1770.9 1797.8,1786.6 1807.3,1802.8 1818.1,1819.5 1830.0,1836.8 1842.9,1854.4 1856.7,1872.3 1871.4,1890.4 1886.8,1908.7 1902.8,1927.1 1919.4,1945.4 1936.2,1963.5  " style="stroke-opacity: 1.000000; stroke-width: 5.0; stroke: rgb(107,174,214); fill: none"  />
<path d="M 2112.2,1674.2 L 2088.1,1667.5 2063.9,1661.4 2039.9,1655.7 2016.1,1650.7 1992.6,1646.3 1969.7,1642.7 1947.3,1639.9 1925.6,1637.9 1904.8,1636.9 1884.8,1636.7 1865.8,1637.5 1847.9,1639.4 1831.1,1642.2 1815.4,1646.1 1801.0,1651.1 1787.9,1657.1 1776.1,1664.2 1765.7,1672.4 1756.7,1681.7 1749.1,1692.0 1742.9,1703.3 1738.1,1715.7 1734.8,1729.0 1732.9,1743.3 1732.4,1758.5 1733.2,1774.6 1735.5,1791.5 1739.0,1809.2 1743.8,1827.6 1749.8,1846.7 1756.9,1866.3 1765.2,1886.4 1774.5,1907.0 1784.7,1927.9 1795.7,1949.0 1807.5,1970.3 1820.0,1991.6 1833.0,2012.9 1846.4,2034.0  " style="stroke-opacity: 1.000000; stroke-width: 5.0; stroke: rgb(107,174,214); fill: none"  />
<path d="M 2112.2,1674.2 L 2087.4,1667.4 2062.5,1661.3 2037.4,1655.7 2012.5,1650.9 1987.6,1647.0 1963.1,1643.8 1938.8,1641.7 1915.1,1640.5 1891.8,1640.3 1869.1,1641.2 1847.1,1643.2 1825.9,1646.3 1805.4,1650.6 1785.9,1656.1 1767.2,1662.8 1749.5,1670.7 1732.8,1679.8 1717.1,1690.1 1702.5,1701.7 1689.0,1714.4 1676.6,1728.2 1665.4,1743.3 1655.3,1759.4 1646.3,1776.6 1638.5,1794.8 1631.8,1814.0 1626.3,1834.2 1621.9,1855.2 1618.5,1877.0 1616.2,1899.6 1615.0,1922.8 1614.8,1946.6 1615.5,1970.9 1617.1,1995.6 1619.6,2020.7 1622.8,2045.9 1626.8,2071.2 1631.5,2096.5 1636.7,2121.6  " style="stroke-opacity: 1.000000; stroke-width: 5.0; stroke: rgb(107,174,214); fill: none"  />
<path d="M 1523.5,2136.1 L 1522.5,2111.5 1521.2,2087.1 1519.7,2063.0 1518.0,2039.5 1515.9,2016.6 1513.6,1994.5 1511.0,1973.4 1508.1,1953.3 1504.9,1934.4 1501.4,1916.8 1497.5,1900.6 1493.4,1885.9 1489.0,1872.7 1484.2,1861.2 1479.2,1851.3 1473.8,1843.1 1468.2,1836.7 1462.2,1832.2 1456.0,1829.4 1449.5,1828.5 1442.8,1829.4 1435.8,1832.1 1428.6,1836.6 1421.2,1843.0 1413.6,1851.0 1405.8,1860.8 1397.8,1872.2 1389.7,1885.1 1381.5,1899.6 1373.1,1915.5 1364.7,1932.7 1356.3,1951.2 1347.9,1970.7 1339.4,1991.3 1331.0,2012.7 1322.7,2034.8 1314.5,2057.4 1306.4,2080.5 1298.5,2103.8  " style="stroke-opacity: 1.000000; stroke-width: 5.0; stroke: rgb(107,174,214); fill: none"  />
<path d="M 1646.5,880.6 L 1641.0,904.4 1635.5,928.1 1630.3,951.5 1625.4,974.4 1620.7,996.7 1616.4,1018.2 1612.5,1038.8 1609.0,1058.3 1606.0,1076.8 1603.4,1093.9 1601.4,1109.8 1599.8,1124.2 1598.8,1137.1 1598.4,1148.5 1598.5,1158.2 1599.3,1166.2 1600.6,1172.5 1602.5,1177.1 1605.1,1179.9 1608.2,1181.0 1611.9,1180.3 1616.2,1177.7 1621.1,1173.5 1626.5,1167.5 1632.4,1159.8 1638.9,1150.5 1645.9,1139.6 1653.3,1127.1 1661.2,1113.2 1669.4,1097.9 1678.1,1081.4 1687.0,1063.6 1696.2,1044.8 1705.7,1025.0 1715.4,1004.4 1725.2,983.2 1735.0,961.3 1744.9,939.1 1754.8,916.7  " style="stroke-opacity: 1.000000; stroke-width: 5.0; stroke: rgb(107,174,214); fill: none"  />
<path d="M 1646.5,880.6 L 1641.0,904.6 1635.7,928.4 1630.8,952.0 1626.2,975.2 1622.1,997.8 1618.5,1019.7 1615.3,1040.7 1612.8,1060.9 1610.9,1079.9 1609.6,1097.8 1609.0,1114.5 1609.0,1129.8 1609.8,1143.7 1611.3,1156.1 1613.5,1166.9 1616.5,1176.2 1620.3,1183.9 1624.8,1189.9 1630.0,1194.2 1636.0,1196.8 1642.8,1197.7 1650.2,1196.9 1658.4,1194.5 1667.2,1190.4 1676.7,1184.6 1686.8,1177.3 1697.5,1168.4 1708.8,1158.1 1720.6,1146.3 1732.8,1133.2 1745.5,1118.8 1758.5,1103.3 1771.9,1086.7 1785.5,1069.2 1799.3,1050.8 1813.2,1031.7 1827.1,1012.0 1841.0,991.9 1854.8,971.6  " style="stroke-opacity: 1.000000; stroke-width: 5.0; stroke: rgb(107,174,214); fill: none"  />
<path d="M 2071.3,1780.7 L 2049.3,1769.9 2027.6,1759.0 2006.2,1748.1 1985.4,1737.4 1965.3,1726.8 1945.9,1716.5 1927.6,1706.4 1910.2,1696.7 1894.1,1687.3 1879.2,1678.3 1865.6,1669.9 1853.5,1661.9 1842.9,1654.4 1833.9,1647.6 1826.5,1641.3 1820.8,1635.6 1816.7,1630.5 1814.4,1626.1 1813.8,1622.4 1815.0,1619.3 1817.9,1616.9 1822.6,1615.2 1829.0,1614.2 1837.1,1613.8 1846.8,1614.1 1858.1,1615.0 1870.9,1616.6 1885.3,1618.8 1901.0,1621.5 1918.1,1624.9 1936.3,1628.7 1955.7,1633.1 1976.1,1637.9 1997.4,1643.2 2019.4,1648.8 2042.1,1654.8 2065.2,1661.1 2088.6,1667.5 2112.2,1674.2  " style="stroke-opacity: 1.000000; stroke-width: 5.0; stroke: rgb(107,174,214); fill: none"  />
<path d="M 2071.3,1780.7 L 2049.3,1770.0 2027.4,1759.4 2005.7,1749.1 1984.5,1739.2 1963.8,1729.7 1943.8,1720.7 1924.6,1712.3 1906.3,1704.6 1889.0,1697.5 1872.9,1691.2 1857.9,1685.6 1844.2,1680.9 1831.8,1677.1 1820.8,1674.2 1811.3,1672.1 1803.3,1671.1 1796.9,1671.0 1792.0,1671.8 1788.6,1673.7 1786.9,1676.5 1786.8,1680.2 1788.3,1685.0 1791.4,1690.7 1796.0,1697.3 1802.2,1704.8 1809.8,1713.2 1818.9,1722.4 1829.4,1732.4 1841.2,1743.2 1854.3,1754.6 1868.5,1766.7 1883.8,1779.4 1900.1,1792.6 1917.3,1806.2 1935.2,1820.2 1953.8,1834.5 1972.9,1849.0 1992.3,1863.6 2012.0,1878.2  " style="stroke-opacity: 1.000000; stroke-width: 5.0; stroke: rgb(107,174,214); fill: none"  />
<path d="M 2071.3,1780.7 L 2049.1,1770.0 2027.1,1759.5 2005.2,1749.4 1983.6,1739.8 1962.5,1730.8 1941.9,1722.4 1922.1,1714.7 1903.0,1707.7 1884.9,1701.6 1867.7,1696.3 1851.6,1692.0 1836.7,1688.7 1823.0,1686.3 1810.6,1685.0 1799.5,1684.8 1789.7,1685.7 1781.5,1687.6 1774.6,1690.7 1769.2,1694.8 1765.3,1700.1 1762.9,1706.4 1762.0,1713.9 1762.6,1722.4 1764.7,1731.9 1768.1,1742.4 1773.0,1753.9 1779.3,1766.4 1786.9,1779.7 1795.7,1793.8 1805.8,1808.6 1817.0,1824.2 1829.2,1840.3 1842.4,1857.0 1856.5,1874.2 1871.4,1891.7 1886.9,1909.5 1903.0,1927.5 1919.4,1945.5 1936.2,1963.5  " style="stroke-opacity: 1.000000; stroke-width: 5.0; stroke: rgb(107,174,214); fill: none"  />
<path d="M 2071.3,1780.7 L 2049.0,1769.9 2026.6,1759.5 2004.4,1749.6 1982.4,1740.2 1960.7,1731.5 1939.5,1723.6 1918.9,1716.4 1898.9,1710.1 1879.7,1704.8 1861.4,1700.4 1844.0,1697.1 1827.7,1694.9 1812.4,1693.7 1798.2,1693.8 1785.3,1695.0 1773.5,1697.4 1763.1,1701.1 1753.9,1705.9 1746.1,1712.0 1739.7,1719.3 1734.6,1727.7 1730.8,1737.4 1728.5,1748.2 1727.5,1760.1 1727.8,1773.1 1729.4,1787.2 1732.3,1802.3 1736.5,1818.3 1741.8,1835.1 1748.3,1852.8 1755.9,1871.2 1764.5,1890.3 1774.1,1909.9 1784.5,1930.0 1795.7,1950.5 1807.6,1971.2 1820.1,1992.1 1833.1,2013.1 1846.4,2034.0  " style="stroke-opacity: 1.000000; stroke-width: 5.0; stroke: rgb(107,174,214); fill: none"  />
<path d="M 2071.3,1780.7 L 2048.7,1769.9 2026.1,1759.5 2003.4,1749.6 1980.9,1740.4 1958.6,1731.9 1936.6,1724.3 1915.1,1717.5 1894.2,1711.7 1873.8,1706.9 1854.2,1703.2 1835.4,1700.6 1817.4,1699.2 1800.3,1699.1 1784.3,1700.1 1769.2,1702.4 1755.2,1706.0 1742.4,1710.9 1730.7,1717.1 1720.1,1724.6 1710.8,1733.4 1702.7,1743.4 1695.8,1754.7 1690.1,1767.3 1685.7,1781.0 1682.5,1795.9 1680.5,1811.9 1679.6,1828.9 1679.9,1846.9 1681.4,1865.9 1683.9,1885.7 1687.4,1906.3 1691.9,1927.6 1697.4,1949.4 1703.7,1971.8 1710.8,1994.6 1718.6,2017.6 1727.1,2040.8 1736.1,2064.1 1745.5,2087.2  " style="stroke-opacity: 1.000000; stroke-width: 5.0; stroke: rgb(107,174,214); fill: none"  />
<path d="M 2071.3,1780.7 L 2048.4,1769.8 2025.4,1759.3 2002.3,1749.5 1979.2,1740.3 1956.2,1732.0 1933.4,1724.5 1911.0,1718.0 1888.9,1712.5 1867.3,1708.0 1846.3,1704.7 1825.9,1702.6 1806.2,1701.7 1787.3,1702.1 1769.1,1703.8 1751.9,1706.8 1735.5,1711.1 1720.1,1716.8 1705.6,1723.8 1692.2,1732.2 1679.8,1741.9 1668.5,1753.0 1658.2,1765.3 1649.0,1779.0 1640.9,1793.8 1633.9,1809.9 1627.9,1827.1 1623.1,1845.4 1619.2,1864.8 1616.4,1885.1 1614.6,1906.3 1613.8,1928.3 1613.9,1951.0 1614.9,1974.4 1616.8,1998.3 1619.4,2022.6 1622.8,2047.2 1626.9,2072.0 1631.5,2096.9 1636.7,2121.6  " style="stroke-opacity: 1.000000; stroke-width: 5.0; stroke: rgb(107,174,214); fill: none"  />
<path d="M 1298.5,2103.8 L 1306.4,2080.5 1314.5,2057.4 1322.7,2034.8 1331.0,2012.7 1339.4,1991.3 1347.9,1970.7 1356.3,1951.2 1364.7,1932.7 1373.1,1915.5 1381.5,1899.6 1389.7,1885.1 1397.8,1872.2 1405.8,1860.8 1413.6,1851.0 1421.2,1843.0 1428.6,1836.6 1435.8,1832.1 1442.8,1829.4 1449.5,1828.5 1456.0,1829.4 1462.2,1832.2 1468.2,1836.7 1473.8,1843.1 1479.2,1851.3 1484.2,1861.2 1489.0,1872.7 1493.4,1885.9 1497.5,1900.6 1501.4,1916.8 1504.9,1934.4 1508.1,1953.3 1511.0,1973.4 1513.6,1994.5 1515.9,2016.6 1518.0,2039.5 1519.7,2063.0 1521.2,2087.1 1522.5,2111.5 1523.5,2136.1  " style="stroke-opacity: 1.000000; stroke-width: 5.0; stroke: rgb(107,174,214); fill: none"  />
<path d="M 2012.0,1878.2 L 1992.3,1863.6 1972.9,1849.0 1953.8,1834.5 1935.2,1820.2 1917.3,1806.2 1900.1,1792.6 1883.8,1779.4 1868.5,1766.7 1854.3,1754.6 1841.2,1743.2 1829.4,1732.4 1818.9,1722.4 1809.8,1713.2 1802.2,1704.8 1796.0,1697.3 1791.4,1690.7 1788.3,1685.0 1786.8,1680.2 1786.9,1676.5 1788.6,1673.7 1792.0,1671.8 1796.9,1671.0 1803.3,1671.1 1811.3,1672.1 1820.8,1674.2 1831.8,1677.1 1844.2,1680.9 1857.9,1685.6 1872.9,1691.2 1889.0,1697.5 1906.3,1704.6 1924.6,1712.3 1943.8,1720.7 1963.8,1729.7 1984.5,1739.2 2005.7,1749.1 2027.4,1759.4 2049.3,1770.0 2071.3,1780.7  " style="stroke-opacity: 1.000000; stroke-width: 5.0; stroke: rgb(107,174,214); fill: none"  />
<path d="M 2012.0,1878.2 L 1992.1,1863.7 1972.3,1849.4 1952.5,1835.6 1933.0,1822.3 1913.8,1809.7 1895.1,1797.7 1877.0,1786.6 1859.5,1776.3 1842.7,1767.1 1826.7,1758.8 1811.7,1751.7 1797.6,1745.8 1784.5,1741.0 1772.5,1737.5 1761.6,1735.3 1751.9,1734.4 1743.4,1734.8 1736.2,1736.6 1730.1,1739.8 1725.4,1744.2 1721.9,1750.1 1719.6,1757.2 1718.7,1765.7 1719.0,1775.4 1720.5,1786.4 1723.3,1798.6 1727.3,1812.0 1732.3,1826.4 1738.5,1841.8 1745.8,1858.3 1754.0,1875.6 1763.2,1893.7 1773.2,1912.5 1784.0,1931.9 1795.5,1951.8 1807.5,1972.0 1820.1,1992.6 1833.1,2013.3 1846.4,2034.0  " style="stroke-opacity: 1.000000; stroke-width: 5.0; stroke: rgb(107,174,214); fill: none"  />
<path d="M 2012.0,1878.2 L 1991.9,1863.6 1971.8,1849.4 1951.7,1835.7 1931.7,1822.5 1912.0,1810.1 1892.5,1798.4 1873.5,1787.7 1855.0,1778.0 1837.1,1769.3 1819.8,1761.7 1803.3,1755.3 1787.6,1750.2 1772.8,1746.4 1758.8,1743.9 1745.8,1742.8 1733.9,1743.1 1722.9,1744.8 1713.1,1748.0 1704.3,1752.5 1696.7,1758.5 1690.1,1766.0 1684.7,1774.8 1680.5,1785.0 1677.3,1796.6 1675.3,1809.4 1674.4,1823.6 1674.6,1838.9 1675.8,1855.4 1678.1,1872.9 1681.3,1891.5 1685.5,1910.9 1690.6,1931.2 1696.5,1952.3 1703.2,1973.9 1710.5,1996.1 1718.5,2018.6 1727.1,2041.4 1736.1,2064.3 1745.5,2087.2  " style="stroke-opacity: 1.000000; stroke-width: 5.0; stroke: rgb(107,174,214); fill: none"  />
<path d="M 1099.2,1994.5 L 1114.6,1975.4 1129.8,1956.4 1144.6,1937.6 1159.0,1919.1 1172.8,1901.1 1186.0,1883.6 1198.5,1866.7 1210.1,1850.6 1220.9,1835.3 1230.6,1821.0 1239.4,1807.6 1247.0,1795.3 1253.5,1784.1 1258.8,1774.0 1262.9,1765.2 1265.7,1757.6 1267.3,1751.4 1267.5,1746.4 1266.5,1742.8 1264.1,1740.5 1260.4,1739.5 1255.5,1739.9 1249.3,1741.7 1241.8,1744.7 1233.1,1749.0 1223.2,1754.6 1212.2,1761.5 1200.1,1769.4 1187.0,1778.6 1172.9,1788.7 1157.9,1799.9 1142.2,1812.0 1125.7,1825.0 1108.6,1838.7 1090.9,1853.0 1072.9,1868.0 1054.5,1883.3 1036.0,1899.0 1017.4,1915.0  " style="stroke-opacity: 1.000000; stroke-width: 5.0; stroke: rgb(107,174,214); fill: none"  />
<path d="M 1099.2,1994.5 L 1114.6,1975.3 1129.7,1956.1 1144.4,1937.0 1158.6,1918.1 1172.1,1899.5 1184.9,1881.4 1196.8,1863.7 1207.8,1846.7 1217.8,1830.4 1226.8,1814.8 1234.6,1800.1 1241.1,1786.3 1246.5,1773.4 1250.5,1761.6 1253.2,1750.8 1254.5,1741.2 1254.5,1732.6 1253.0,1725.3 1250.2,1719.1 1245.9,1714.2 1240.2,1710.4 1233.2,1707.9 1224.8,1706.6 1215.0,1706.4 1204.0,1707.5 1191.7,1709.7 1178.2,1713.0 1163.5,1717.5 1147.8,1723.0 1131.1,1729.5 1113.4,1736.9 1094.9,1745.2 1075.7,1754.4 1055.8,1764.3 1035.4,1774.9 1014.6,1786.1 993.5,1797.7 972.3,1809.8 951.0,1822.1  " style="stroke-opacity: 1.000000; stroke-width: 5.0; stroke: rgb(107,174,214); fill: none"  />
<path d="M 1936.2,1963.5 L 1919.4,1945.4 1902.8,1927.1 1886.8,1908.7 1871.4,1890.4 1856.7,1872.3 1842.9,1854.4 1830.0,1836.8 1818.1,1819.5 1807.3,1802.8 1797.8,1786.6 1789.5,1770.9 1782.6,1755.9 1777.0,1741.6 1772.9,1728.1 1770.2,1715.3 1769.1,1703.4 1769.5,1692.4 1771.5,1682.2 1775.0,1672.9 1780.0,1664.6 1786.6,1657.3 1794.8,1650.9 1804.4,1645.4 1815.5,1640.9 1828.0,1637.4 1841.9,1634.9 1857.2,1633.2 1873.7,1632.5 1891.4,1632.6 1910.2,1633.7 1930.0,1635.5 1950.8,1638.1 1972.4,1641.5 1994.6,1645.6 2017.5,1650.3 2040.8,1655.5 2064.5,1661.3 2088.3,1667.6 2112.2,1674.2  " style="stroke-opacity: 1.000000; stroke-width: 5.0; stroke: rgb(107,174,214); fill: none"  />
<path d="M 1936.2,1963.5 L 1919.4,1945.5 1903.0,1927.5 1886.9,1909.5 1871.4,1891.7 1856.5,1874.2 1842.4,1857.0 1829.2,1840.3 1817.0,1824.2 1805.8,1808.6 1795.7,1793.8 1786.9,1779.7 1779.3,1766.4 1773.0,1753.9 1768.1,1742.4 1764.7,1731.9 1762.6,1722.4 1762.0,1713.9 1762.9,1706.4 1765.3,1700.1 1769.2,1694.8 1774.6,1690.7 1781.5,1687.6 1789.7,1685.7 1799.5,1684.8 1810.6,1685.0 1823.0,1686.3 1836.7,1688.7 1851.6,1692.0 1867.7,1696.3 1884.9,1701.6 1903.0,1707.7 1922.1,1714.7 1941.9,1722.4 1962.5,1730.8 1983.6,1739.8 2005.2,1749.4 2027.1,1759.5 2049.1,1770.0 2071.3,1780.7  " style="stroke-opacity: 1.000000; stroke-width: 5.0; stroke: rgb(107,174,214); fill: none"  />
<path d="M 1936.2,1963.5 L 1919.3,1945.7 1902.3,1928.2 1885.3,1911.0 1868.5,1894.5 1851.9,1878.6 1835.6,1863.5 1819.7,1849.3 1804.3,1836.1 1789.5,1824.0 1775.3,1813.0 1761.7,1803.3 1748.9,1794.9 1736.9,1787.9 1725.7,1782.4 1715.4,1778.2 1706.0,1775.6 1697.6,1774.5 1690.1,1775.0 1683.6,1777.0 1678.1,1780.6 1673.6,1785.7 1670.2,1792.3 1667.7,1800.5 1666.3,1810.1 1665.9,1821.2 1666.4,1833.7 1667.9,1847.5 1670.3,1862.6 1673.7,1878.9 1677.9,1896.4 1682.9,1914.9 1688.6,1934.3 1695.1,1954.6 1702.3,1975.6 1710.0,1997.2 1718.3,2019.4 1727.0,2041.8 1736.1,2064.5 1745.5,2087.2  " style="stroke-opacity: 1.000000; stroke-width: 5.0; stroke: rgb(107,174,214); fill: none"  />
<path d="M 1936.2,1963.5 L 1919.1,1945.6 1901.8,1928.0 1884.5,1910.9 1867.2,1894.4 1850.0,1878.7 1832.9,1863.7 1816.1,1849.8 1799.7,1836.9 1783.6,1825.1 1768.0,1814.6 1752.9,1805.4 1738.3,1797.6 1724.4,1791.2 1711.1,1786.2 1698.5,1782.8 1686.7,1781.0 1675.7,1780.7 1665.4,1782.0 1655.9,1785.0 1647.3,1789.5 1639.6,1795.6 1632.7,1803.4 1626.7,1812.7 1621.5,1823.5 1617.3,1835.8 1613.9,1849.5 1611.3,1864.6 1609.6,1881.0 1608.6,1898.7 1608.5,1917.6 1609.2,1937.5 1610.5,1958.3 1612.6,1980.1 1615.3,2002.6 1618.6,2025.7 1622.4,2049.3 1626.8,2073.2 1631.6,2097.4 1636.7,2121.6  " style="stroke-opacity: 1.000000; stroke-width: 5.0; stroke: rgb(107,174,214); fill: none"  />
<path d="M 1754.8,916.7 L 1744.9,939.1 1735.0,961.3 1725.2,983.2 1715.4,1004.4 1705.7,1025.0 1696.2,1044.8 1687.0,1063.6 1678.1,1081.4 1669.4,1097.9 1661.2,1113.2 1653.3,1127.1 1645.9,1139.6 1638.9,1150.5 1632.4,1159.8 1626.5,1167.5 1621.1,1173.5 1616.2,1177.7 1611.9,1180.3 1608.2,1181.0 1605.1,1179.9 1602.5,1177.1 1600.6,1172.5 1599.3,1166.2 1598.5,1158.2 1598.4,1148.5 1598.8,1137.1 1599.8,1124.2 1601.4,1109.8 1603.4,1093.9 1606.0,1076.8 1609.0,1058.3 1612.5,1038.8 1616.4,1018.2 1620.7,996.7 1625.4,974.4 1630.3,951.5 1635.5,928.1 1641.0,904.4 1646.5,880.6  " style="stroke-opacity: 1.000000; stroke-width: 5.0; stroke: rgb(107,174,214); fill: none"  />
<path d="M 1017.4,1915.0 L 1036.0,1899.0 1054.5,1883.3 1072.9,1868.0 1090.9,1853.0 1108.6,1838.7 1125.7,1825.0 1142.2,1812.0 1157.9,1799.9 1172.9,1788.7 1187.0,1778.6 1200.1,1769.4 1212.2,1761.5 1223.2,1754.6 1233.1,1749.0 1241.8,1744.7 1249.3,1741.7 1255.5,1739.9 1260.4,1739.5 1264.1,1740.5 1266.5,1742.8 1267.5,1746.4 1267.3,1751.4 1265.7,1757.6 1262.9,1765.2 1258.8,1774.0 1253.5,1784.1 1247.0,1795.3 1239.4,1807.6 1230.6,1821.0 1220.9,1835.3 1210.1,1850.6 1198.5,1866.7 1186.0,1883.6 1172.8,1901.1 1159.0,1919.1 1144.6,1937.6 1129.8,1956.4 1114.6,1975.4 1099.2,1994.5  " style="stroke-opacity: 1.000000; stroke-width: 5.0; stroke: rgb(107,174,214); fill: none"  />
<path d="M 1017.4,1915.0 L 1035.9,1899.0 1054.2,1883.0 1072.2,1867.1 1089.6,1851.5 1106.5,1836.2 1122.6,1821.4 1137.9,1807.0 1152.2,1793.2 1165.5,1780.1 1177.7,1767.7 1188.6,1756.1 1198.4,1745.4 1206.7,1735.5 1213.8,1726.6 1219.4,1718.6 1223.5,1711.7 1226.1,1705.8 1227.3,1700.9 1226.9,1697.2 1225.0,1694.5 1221.5,1692.9 1216.6,1692.4 1210.1,1693.0 1202.2,1694.7 1192.9,1697.4 1182.2,1701.1 1170.1,1705.9 1156.8,1711.6 1142.3,1718.2 1126.6,1725.7 1109.9,1734.0 1092.2,1743.1 1073.7,1752.9 1054.4,1763.3 1034.5,1774.3 1014.0,1785.8 993.2,1797.6 972.2,1809.8 951.0,1822.1  " style="stroke-opacity: 1.000000; stroke-width: 5.0; stroke: rgb(107,174,214); fill: none"  />
<path d="M 951.0,1822.1 L 972.3,1809.8 993.5,1797.7 1014.6,1786.1 1035.4,1774.9 1055.8,1764.3 1075.7,1754.4 1094.9,1745.2 1113.4,1736.9 1131.1,1729.5 1147.8,1723.0 1163.5,1717.5 1178.2,1713.0 1191.7,1709.7 1204.0,1707.5 1215.0,1706.4 1224.8,1706.6 1233.2,1707.9 1240.2,1710.4 1245.9,1714.2 1250.2,1719.1 1253.0,1725.3 1254.5,1732.6 1254.5,1741.2 1253.2,1750.8 1250.5,1761.6 1246.5,1773.4 1241.1,1786.3 1234.6,1800.1 1226.8,1814.8 1217.8,1830.4 1207.8,1846.7 1196.8,1863.7 1184.9,1881.4 1172.1,1899.5 1158.6,1918.1 1144.4,1937.0 1129.7,1956.1 1114.6,1975.3 1099.2,1994.5  " style="stroke-opacity: 1.000000; stroke-width: 5.0; stroke: rgb(107,174,214); fill: none"  />
<path d="M 951.0,1822.1 L 972.2,1809.8 993.2,1797.6 1014.0,1785.8 1034.5,1774.3 1054.4,1763.3 1073.7,1752.9 1092.2,1743.1 1109.9,1734.0 1126.6,1725.7 1142.3,1718.2 1156.8,1711.6 1170.1,1705.9 1182.2,1701.1 1192.9,1697.4 1202.2,1694.7 1210.1,1693.0 1216.6,1692.4 1221.5,1692.9 1225.0,1694.5 1226.9,1697.2 1227.3,1700.9 1226.1,1705.8 1223.5,1711.7 1219.4,1718.6 1213.8,1726.6 1206.7,1735.5 1198.4,1745.4 1188.6,1756.1 1177.7,1767.7 1165.5,1780.1 1152.2,1793.2 1137.9,1807.0 1122.6,1821.4 1106.5,1836.2 1089.6,1851.5 1072.2,1867.1 1054.2,1883.0 1035.9,1899.0 1017.4,1915.0  " style="stroke-opacity: 1.000000; stroke-width: 5.0; stroke: rgb(107,174,214); fill: none"  />
<path d="M 1846.4,2034.0 L 1833.0,2012.9 1820.0,1991.6 1807.5,1970.3 1795.7,1949.0 1784.7,1927.9 1774.5,1907.0 1765.2,1886.4 1756.9,1866.3 1749.8,1846.7 1743.8,1827.6 1739.0,1809.2 1735.5,1791.5 1733.2,1774.6 1732.4,1758.5 1732.9,1743.3 1734.8,1729.0 1738.1,1715.7 1742.9,1703.3 1749.1,1692.0 1756.7,1681.7 1765.7,1672.4 1776.1,1664.2 1787.9,1657.1 1801.0,1651.1 1815.4,1646.1 1831.1,1642.2 1847.9,1639.4 1865.8,1637.5 1884.8,1636.7 1904.8,1636.9 1925.6,1637.9 1947.3,1639.9 1969.7,1642.7 1992.6,1646.3 2016.1,1650.7 2039.9,1655.7 2063.9,1661.4 2088.1,1667.5 2112.2,1674.2  " style="stroke-opacity: 1.000000; stroke-width: 5.0; stroke: rgb(107,174,214); fill: none"  />
<path d="M 1846.4,2034.0 L 1833.1,2013.1 1820.1,1992.1 1807.6,1971.2 1795.7,1950.5 1784.5,1930.0 1774.1,1909.9 1764.5,1890.3 1755.9,1871.2 1748.3,1852.8 1741.8,1835.1 1736.5,1818.3 1732.3,1802.3 1729.4,1787.2 1727.8,1773.1 1727.5,1760.1 1728.5,1748.2 1730.8,1737.4 1734.6,1727.7 1739.7,1719.3 1746.1,1712.0 1753.9,1705.9 1763.1,1701.1 1773.5,1697.4 1785.3,1695.0 1798.2,1693.8 1812.4,1693.7 1827.7,1694.9 1844.0,1697.1 1861.4,1700.4 1879.7,1704.8 1898.9,1710.1 1918.9,1716.4 1939.5,1723.6 1960.7,1731.5 1982.4,1740.2 2004.4,1749.6 2026.6,1759.5 2049.0,1769.9 2071.3,1780.7  " style="stroke-opacity: 1.000000; stroke-width: 5.0; stroke: rgb(107,174,214); fill: none"  />
<path d="M 1846.4,2034.0 L 1833.1,2013.3 1820.1,1992.6 1807.5,1972.0 1795.5,1951.8 1784.0,1931.9 1773.2,1912.5 1763.2,1893.7 1754.0,1875.6 1745.8,1858.3 1738.5,1841.8 1732.3,1826.4 1727.3,1812.0 1723.3,1798.6 1720.5,1786.4 1719.0,1775.4 1718.7,1765.7 1719.6,1757.2 1721.9,1750.1 1725.4,1744.2 1730.1,1739.8 1736.2,1736.6 1743.4,1734.8 1751.9,1734.4 1761.6,1735.3 1772.5,1737.5 1784.5,1741.0 1797.6,1745.8 1811.7,1751.7 1826.7,1758.8 1842.7,1767.1 1859.5,1776.3 1877.0,1786.6 1895.1,1797.7 1913.8,1809.7 1933.0,1822.3 1952.5,1835.6 1972.3,1849.4 1992.1,1863.7 2012.0,1878.2  " style="stroke-opacity: 1.000000; stroke-width: 5.0; stroke: rgb(107,174,214); fill: none"  />
<path d="M 1846.4,2034.0 L 1833.1,2013.5 1819.7,1993.2 1806.4,1973.2 1793.2,1953.8 1780.4,1935.1 1767.8,1917.1 1755.6,1900.1 1743.9,1884.0 1732.7,1869.1 1722.0,1855.4 1712.0,1842.9 1702.6,1831.8 1694.0,1822.2 1686.1,1814.1 1679.0,1807.5 1672.6,1802.4 1667.2,1799.0 1662.5,1797.2 1658.7,1797.1 1655.8,1798.7 1653.8,1801.8 1652.6,1806.7 1652.3,1813.1 1652.9,1821.2 1654.4,1830.8 1656.6,1841.9 1659.7,1854.5 1663.6,1868.5 1668.2,1883.8 1673.5,1900.3 1679.5,1918.0 1686.2,1936.7 1693.4,1956.4 1701.1,1976.9 1709.4,1998.1 1718.0,2019.9 1726.9,2042.1 1736.1,2064.6 1745.5,2087.2  " style="stroke-opacity: 1.000000; stroke-width: 5.0; stroke: rgb(107,174,214); fill: none"  />
<path d="M 1846.4,2034.0 L 1832.9,2013.4 1819.4,1993.1 1805.7,1973.2 1792.1,1953.9 1778.6,1935.3 1765.3,1917.6 1752.2,1900.7 1739.4,1885.0 1727.0,1870.4 1715.0,1857.1 1703.4,1845.2 1692.3,1834.7 1681.7,1825.6 1671.7,1818.1 1662.3,1812.2 1653.5,1808.0 1645.4,1805.4 1637.9,1804.5 1631.2,1805.3 1625.2,1807.9 1619.8,1812.1 1615.3,1818.0 1611.4,1825.6 1608.3,1834.8 1605.8,1845.7 1604.1,1858.0 1603.1,1871.9 1602.8,1887.2 1603.2,1903.9 1604.2,1921.8 1605.8,1940.9 1608.1,1961.0 1610.8,1982.1 1614.1,2004.1 1617.9,2026.8 1622.1,2050.0 1626.6,2073.7 1631.5,2097.6 1636.7,2121.6  " style="stroke-opacity: 1.000000; stroke-width: 5.0; stroke: rgb(107,174,214); fill: none"  />
<path d="M 1745.5,2087.2 L 1736.1,2064.1 1727.1,2040.8 1718.6,2017.6 1710.8,1994.6 1703.7,1971.8 1697.4,1949.4 1691.9,1927.6 1687.4,1906.3 1683.9,1885.7 1681.4,1865.9 1679.9,1846.9 1679.6,1828.9 1680.5,1811.9 1682.5,1795.9 1685.7,1781.0 1690.1,1767.3 1695.8,1754.7 1702.7,1743.4 1710.8,1733.4 1720.1,1724.6 1730.7,1717.1 1742.4,1710.9 1755.2,1706.0 1769.2,1702.4 1784.3,1700.1 1800.3,1699.1 1817.4,1699.2 1835.4,1700.6 1854.2,1703.2 1873.8,1706.9 1894.2,1711.7 1915.1,1717.5 1936.6,1724.3 1958.6,1731.9 1980.9,1740.4 2003.4,1749.6 2026.1,1759.5 2048.7,1769.9 2071.3,1780.7  " style="stroke-opacity: 1.000000; stroke-width: 5.0; stroke: rgb(107,174,214); fill: none"  />
<path d="M 1745.5,2087.2 L 1736.1,2064.3 1727.1,2041.4 1718.5,2018.6 1710.5,1996.1 1703.2,1973.9 1696.5,1952.3 1690.6,1931.2 1685.5,1910.9 1681.3,1891.5 1678.1,1872.9 1675.8,1855.4 1674.6,1838.9 1674.4,1823.6 1675.3,1809.4 1677.3,1796.6 1680.5,1785.0 1684.7,1774.8 1690.1,1766.0 1696.7,1758.5 1704.3,1752.5 1713.1,1748.0 1722.9,1744.8 1733.9,1743.1 1745.8,1742.8 1758.8,1743.9 1772.8,1746.4 1787.6,1750.2 1803.3,1755.3 1819.8,1761.7 1837.1,1769.3 1855.0,1778.0 1873.5,1787.7 1892.5,1798.4 1912.0,1810.1 1931.7,1822.5 1951.7,1835.7 1971.8,1849.4 1991.9,1863.6 2012.0,1878.2  " style="stroke-opacity: 1.000000; stroke-width: 5.0; stroke: rgb(107,174,214); fill: none"  />
<path d="M 1745.5,2087.2 L 1736.1,2064.5 1727.0,2041.8 1718.3,2019.4 1710.0,1997.2 1702.3,1975.6 1695.1,1954.6 1688.6,1934.3 1682.9,1914.9 1677.9,1896.4 1673.7,1878.9 1670.3,1862.6 1667.9,1847.5 1666.4,1833.7 1665.9,1821.2 1666.3,1810.1 1667.7,1800.5 1670.2,1792.3 1673.6,1785.7 1678.1,1780.6 1683.6,1777.0 1690.1,1775.0 1697.6,1774.5 1706.0,1775.6 1715.4,1778.2 1725.7,1782.4 1736.9,1787.9 1748.9,1794.9 1761.7,1803.3 1775.3,1813.0 1789.5,1824.0 1804.3,1836.1 1819.7,1849.3 1835.6,1863.5 1851.9,1878.6 1868.5,1894.5 1885.3,1911.0 1902.3,1928.2 1919.3,1945.7 1936.2,1963.5  " style="stroke-opacity: 1.000000; stroke-width: 5.0; stroke: rgb(107,174,214); fill: none"  />
<path d="M 1745.5,2087.2 L 1736.1,2064.6 1726.9,2042.1 1718.0,2019.9 1709.4,1998.1 1701.1,1976.9 1693.4,1956.4 1686.2,1936.7 1679.5,1918.0 1673.5,1900.3 1668.2,1883.8 1663.6,1868.5 1659.7,1854.5 1656.6,1841.9 1654.4,1830.8 1652.9,1821.2 1652.3,1813.1 1652.6,1806.7 1653.8,1801.8 1655.8,1798.7 1658.7,1797.1 1662.5,1797.2 1667.2,1799.0 1672.6,1802.4 1679.0,1807.5 1686.1,1814.1 1694.0,1822.2 1702.6,1831.8 1712.0,1842.9 1722.0,1855.4 1732.7,1869.1 1743.9,1884.0 1755.6,1900.1 1767.8,1917.1 1780.4,1935.1 1793.2,1953.8 1806.4,1973.2 1819.7,1993.2 1833.1,2013.5 1846.4,2034.0  " style="stroke-opacity: 1.000000; stroke-width: 5.0; stroke: rgb(107,174,214); fill: none"  />
<path d="M 1745.5,2087.2 L 1736.0,2064.7 1726.5,2042.3 1717.0,2020.4 1707.5,1998.9 1698.2,1978.2 1689.0,1958.3 1680.1,1939.3 1671.4,1921.4 1663.0,1904.7 1655.0,1889.3 1647.4,1875.3 1640.1,1862.7 1633.3,1851.7 1627.0,1842.2 1621.2,1834.5 1615.9,1828.4 1611.1,1824.1 1606.8,1821.5 1603.1,1820.7 1600.0,1821.7 1597.4,1824.5 1595.4,1829.0 1594.0,1835.3 1593.1,1843.3 1592.8,1853.1 1593.1,1864.4 1593.9,1877.3 1595.2,1891.8 1597.0,1907.6 1599.3,1924.9 1602.0,1943.3 1605.2,1963.0 1608.8,1983.6 1612.8,2005.2 1617.0,2027.5 1621.6,2050.5 1626.5,2073.9 1631.5,2097.7 1636.7,2121.6  " style="stroke-opacity: 1.000000; stroke-width: 5.0; stroke: rgb(107,174,214); fill: none"  />
<path d="M 1636.7,2121.6 L 1631.5,2096.5 1626.8,2071.2 1622.8,2045.9 1619.6,2020.7 1617.1,1995.6 1615.5,1970.9 1614.8,1946.6 1615.0,1922.8 1616.2,1899.6 1618.5,1877.0 1621.9,1855.2 1626.3,1834.2 1631.8,1814.0 1638.5,1794.8 1646.3,1776.6 1655.3,1759.4 1665.4,1743.3 1676.6,1728.2 1689.0,1714.4 1702.5,1701.7 1717.1,1690.1 1732.8,1679.8 1749.5,1670.7 1767.2,1662.8 1785.9,1656.1 1805.4,1650.6 1825.9,1646.3 1847.1,1643.2 1869.1,1641.2 1891.8,1640.3 1915.1,1640.5 1938.8,1641.7 1963.1,1643.8 1987.6,1647.0 2012.5,1650.9 2037.4,1655.7 2062.5,1661.3 2087.4,1667.4 2112.2,1674.2  " style="stroke-opacity: 1.000000; stroke-width: 5.0; stroke: rgb(107,174,214); fill: none"  />
<path d="M 1636.7,2121.6 L 1631.5,2096.9 1626.9,2072.0 1622.8,2047.2 1619.4,2022.6 1616.8,1998.3 1614.9,1974.4 1613.9,1951.0 1613.8,1928.3 1614.6,1906.3 1616.4,1885.1 1619.2,1864.8 1623.1,1845.4 1627.9,1827.1 1633.9,1809.9 1640.9,1793.8 1649.0,1779.0 1658.2,1765.3 1668.5,1753.0 1679.8,1741.9 1692.2,1732.2 1705.6,1723.8 1720.1,1716.8 1735.5,1711.1 1751.9,1706.8 1769.1,1703.8 1787.3,1702.1 1806.2,1701.7 1825.9,1702.6 1846.3,1704.7 1867.3,1708.0 1888.9,1712.5 1911.0,1718.0 1933.4,1724.5 1956.2,1732.0 1979.2,1740.3 2002.3,1749.5 2025.4,1759.3 2048.4,1769.8 2071.3,1780.7  " style="stroke-opacity: 1.000000; stroke-width: 5.0; stroke: rgb(107,174,214); fill: none"  />
<path d="M 1636.7,2121.6 L 1631.6,2097.4 1626.8,2073.2 1622.4,2049.3 1618.6,2025.7 1615.3,2002.6 1612.6,1980.1 1610.5,1958.3 1609.2,1937.5 1608.5,1917.6 1608.6,1898.7 1609.6,1881.0 1611.3,1864.6 1613.9,1849.5 1617.3,1835.8 1621.5,1823.5 1626.7,1812.7 1632.7,1803.4 1639.6,1795.6 1647.3,1789.5 1655.9,1785.0 1665.4,1782.0 1675.7,1780.7 1686.7,1781.0 1698.5,1782.8 1711.1,1786.2 1724.4,1791.2 1738.3,1797.6 1752.9,1805.4 1768.0,1814.6 1783.6,1825.1 1799.7,1836.9 1816.1,1849.8 1832.9,1863.7 1850.0,1878.7 1867.2,1894.4 1884.5,1910.9 1901.8,1928.0 1919.1,1945.6 1936.2,1963.5  " style="stroke-opacity: 1.000000; stroke-width: 5.0; stroke: rgb(107,174,214); fill: none"  />
<path d="M 1636.7,2121.6 L 1631.5,2097.6 1626.6,2073.7 1622.1,2050.0 1617.9,2026.8 1614.1,2004.1 1610.8,1982.1 1608.1,1961.0 1605.8,1940.9 1604.2,1921.8 1603.2,1903.9 1602.8,1887.2 1603.1,1871.9 1604.1,1858.0 1605.8,1845.7 1608.3,1834.8 1611.4,1825.6 1615.3,1818.0 1619.8,1812.1 1625.2,1807.9 1631.2,1805.3 1637.9,1804.5 1645.4,1805.4 1653.5,1808.0 1662.3,1812.2 1671.7,1818.1 1681.7,1825.6 1692.3,1834.7 1703.4,1845.2 1715.0,1857.1 1727.0,1870.4 1739.4,1885.0 1752.2,1900.7 1765.3,1917.6 1778.6,1935.3 1792.1,1953.9 1805.7,1973.2 1819.4,1993.1 1832.9,2013.4 1846.4,2034.0  " style="stroke-opacity: 1.000000; stroke-width: 5.0; stroke: rgb(107,174,214); fill: none"  />
<path d="M 1636.7,2121.6 L 1631.5,2097.7 1626.5,2073.9 1621.6,2050.5 1617.0,2027.5 1612.8,2005.2 1608.8,1983.6 1605.2,1963.0 1602.0,1943.3 1599.3,1924.9 1597.0,1907.6 1595.2,1891.8 1593.9,1877.3 1593.1,1864.4 1592.8,1853.1 1593.1,1843.3 1594.0,1835.3 1595.4,1829.0 1597.4,1824.5 1600.0,1821.7 1603.1,1820.7 1606.8,1821.5 1611.1,1824.1 1615.9,1828.4 1621.2,1834.5 1627.0,1842.2 1633.3,1851.7 1640.1,1862.7 1647.4,1875.3 1655.0,1889.3 1663.0,1904.7 1671.4,1921.4 1680.1,1939.3 1689.0,1958.3 1698.2,1978.2 1707.5,1998.9 1717.0,2020.4 1726.5,2042.3 1736.0,2064.7 1745.5,2087.2  " style="stroke-opacity: 1.000000; stroke-width: 5.0; stroke: rgb(107,174,214); fill: none"  />
<path d="M 1854.8,971.6 L 1841.0,991.9 1827.1,1012.0 1813.2,1031.7 1799.3,1050.8 1785.5,1069.2 1771.9,1086.7 1758.5,1103.3 1745.5,1118.8 1732.8,1133.2 1720.6,1146.3 1708.8,1158.1 1697.5,1168.4 1686.8,1177.3 1676.7,1184.6 1667.2,1190.4 1658.4,1194.5 1650.2,1196.9 1642.8,1197.7 1636.0,1196.8 1630.0,1194.2 1624.8,1189.9 1620.3,1183.9 1616.5,1176.2 1613.5,1166.9 1611.3,1156.1 1609.8,1143.7 1609.0,1129.8 1609.0,1114.5 1609.6,1097.8 1610.9,1079.9 1612.8,1060.9 1615.3,1040.7 1618.5,1019.7 1622.1,997.8 1626.2,975.2 1630.8,952.0 1635.7,928.4 1641.0,904.6 1646.5,880.6  " style="stroke-opacity: 1.000000; stroke-width: 5.0; stroke: rgb(107,174,214); fill: none"  />
</g>
<defs>
<pattern id="checker" width="10" height="10" patternTransform="rotate(45 0 0)" patternUnits="userSpaceOnUse"><line x1="0" y1="0" x2="10" y2="0" style="stroke:black;stroke-width:5" /><line x1="0" y1="0" x2="0" y2="10" style="stroke:black;stroke-width:4" /></pattern>
<pattern id="hline-sparse" width="10" height="10" patternTransform="rotate(0 0 0)" patternUnits="userSpaceOnUse"><line x1="0" y1="0" x2="10" y2="0" style="stroke:black;stroke-width:2" /></pattern>
<pattern id="vline-sparse" width="10" height="10" patternTransform="rotate(0 0 0)" patternUnits="userSpaceOnUse"><line x1="0" y1="0" x2="0" y2="10" style="stroke:black;stroke-width:2" /></pattern>
<pattern id="vline" width="10" height="10" patternTransform="rotate(0 0 0)" patternUnits="userSpaceOnUse"><line x1="0" y1="0" x2="0" y2="10" style="stroke:black;stroke-width:5" /></pattern>
<pattern id="hline" width="10" height="10" patternTransform="rotate(0 0 0)" patternUnits="userSpaceOnUse"><line x1="0" y1="0" x2="10" y2="0" style="stroke:black;stroke-width:5" /></pattern>
<pattern id="checker" width="10" height="10" patternTransform="rotate(45 0 0)" patternUnits="userSpaceOnUse"><line x1="0" y1="0" x2="10" y2="0" style="stroke:black;stroke-width:2" /><line x1="0" y1="0" x2="0" y2="10" style="stroke:black;stroke-width:2" /></pattern>
</defs>
</svg>
