<?xml version="1.0" encoding="utf-8" standalone="no"?>
<!DOCTYPE svg PUBLIC "-//W3C//DTD SVG 1.1//EN" "http://www.w3.org/Graphics/SVG/1.1/DTD/svg11.dtd">
<svg width="3000px" height="3000px" version="1.1" xmlns="http://www.w3.org/2000/svg" xmlns:xlink="http://www.w3.org/1999/xlink">
<g id="bg">
<rect x="0" y="0" width="3000px" height="3000px" style="fill:rgb(255,255,255);"/>
</g>
<g id="ideograms">
<path d="M1500.000,830.000 A670.000,670.000 40.000 0,1 1570.620,833.732 L1579.053,754.178 A750.000,750.000 0.000 0,0 1500.000,750.000 Z" style="stroke-width:2.0;stroke:rgb(115,115,115);stroke-linecap:round;fill:rgb(153,204,255);" />
<text x="1567.5" y="677.8" font-size="65.0px" font-family="CMUBright-Roman" style="text-anchor:start;fill:rgb(0,0,0);" transform="rotate(273.0,1567.5,677.8)" >5-FP</text>
<path d="M1500.000,830.000 A670.000,670.000 40.000 0,1 1570.620,833.732 L1579.053,754.178 A750.000,750.000 0.000 0,0 1500.000,750.000 Z" style="stroke-width:2.0;stroke:rgb(115,115,115);stroke-linecap:round;fill:none;" />
<path d="M1619.633,840.767 A670.000,670.000 40.000 0,1 1688.452,857.049 L1710.954,780.279 A750.000,750.000 0.000 0,0 1633.918,762.053 Z" style="stroke-width:2.0;stroke:rgb(115,115,115);stroke-linecap:round;fill:rgb(153,204,255);" />
<text x="1713.7" y="703.2" font-size="65.0px" font-family="CMUBright-Roman" style="text-anchor:start;fill:rgb(0,0,0);" transform="rotate(283.3,1713.7,703.2)" >8-IFG</text>
<path d="M1619.633,840.767 A670.000,670.000 40.000 0,1 1688.452,857.049 L1710.954,780.279 A750.000,750.000 0.000 0,0 1633.918,762.053 Z" style="stroke-width:2.0;stroke:rgb(115,115,115);stroke-linecap:round;fill:none;" />
<path d="M1735.421,872.723 A670.000,670.000 40.000 0,1 1800.227,901.031 L1836.075,829.512 A750.000,750.000 0.000 0,0 1763.531,797.824 Z" style="stroke-width:2.0;stroke:rgb(115,115,115);stroke-linecap:round;fill:rgb(153,204,255);" />
<text x="1852.1" y="753.9" font-size="65.0px" font-family="CMUBright-Roman" style="text-anchor:start;fill:rgb(0,0,0);" transform="rotate(293.6,1852.1,753.9)" >10-IPL</text>
<path d="M1735.421,872.723 A670.000,670.000 40.000 0,1 1800.227,901.031 L1836.075,829.512 A750.000,750.000 0.000 0,0 1763.531,797.824 Z" style="stroke-width:2.0;stroke:rgb(115,115,115);stroke-linecap:round;fill:none;" />
<path d="M1843.643,924.839 A670.000,670.000 40.000 0,1 1902.352,964.264 L1950.394,900.296 A750.000,750.000 0.000 0,0 1884.674,856.163 Z" style="stroke-width:2.0;stroke:rgb(115,115,115);stroke-linecap:round;fill:rgb(153,204,255);" />
<text x="1980.1" y="829.1" font-size="65.0px" font-family="CMUBright-Roman" style="text-anchor:start;fill:rgb(0,0,0);" transform="rotate(303.9,1980.1,829.1)" >19-MTG</text>
<path d="M1843.643,924.839 A670.000,670.000 40.000 0,1 1902.352,964.264 L1950.394,900.296 A750.000,750.000 0.000 0,0 1884.674,856.163 Z" style="stroke-width:2.0;stroke:rgb(115,115,115);stroke-linecap:round;fill:none;" />
<path d="M1940.819,995.442 A670.000,670.000 40.000 0,1 1991.546,1044.717 L2050.238,990.354 A750.000,750.000 0.000 0,0 1993.454,935.196 Z" style="stroke-width:2.0;stroke:rgb(115,115,115);stroke-linecap:round;fill:rgb(153,204,255);" />
<text x="2092.1" y="925.6" font-size="65.0px" font-family="CMUBright-Roman" style="text-anchor:start;fill:rgb(0,0,0);" transform="rotate(314.2,2092.1,925.6)" >29-RCI</text>
<path d="M1940.819,995.442 A670.000,670.000 40.000 0,1 1991.546,1044.717 L2050.238,990.354 A750.000,750.000 0.000 0,0 1993.454,935.196 Z" style="stroke-width:2.0;stroke:rgb(115,115,115);stroke-linecap:round;fill:none;" />
<path d="M2023.827,1082.262 A670.000,670.000 40.000 0,1 2064.940,1139.802 L2132.396,1096.793 A750.000,750.000 0.000 0,0 2086.374,1032.383 Z" style="stroke-width:2.0;stroke:rgb(115,115,115);stroke-linecap:round;fill:rgb(153,204,255);" />
<text x="2185.2" y="1040.5" font-size="65.0px" font-family="CMUBright-Roman" style="text-anchor:start;fill:rgb(0,0,0);" transform="rotate(324.5,2185.2,1040.5)" >35-SG</text>
<path d="M2023.827,1082.262 A670.000,670.000 40.000 0,1 2064.940,1139.802 L2132.396,1096.793 A750.000,750.000 0.000 0,0 2086.374,1032.383 Z" style="stroke-width:2.0;stroke:rgb(115,115,115);stroke-linecap:round;fill:none;" />
<path d="M2089.999,1182.508 A670.000,670.000 40.000 0,1 2120.177,1246.465 L2194.228,1216.192 A750.000,750.000 0.000 0,0 2160.447,1144.599 Z" style="stroke-width:2.0;stroke:rgb(115,115,115);stroke-linecap:round;fill:rgb(116,196,118);" />
<text x="2256.2" y="1170.3" font-size="65.0px" font-family="CMUBright-Roman" style="text-anchor:start;fill:rgb(0,0,0);" transform="rotate(334.7,2256.2,1170.3)" >2-COC</text>
<path d="M2089.999,1182.508 A670.000,670.000 40.000 0,1 2120.177,1246.465 L2194.228,1216.192 A750.000,750.000 0.000 0,0 2160.447,1144.599 Z" style="stroke-width:2.0;stroke:rgb(115,115,115);stroke-linecap:round;fill:none;" />
<path d="M2137.208,1292.959 A670.000,670.000 40.000 0,1 2155.481,1361.276 L2233.748,1344.712 A750.000,750.000 0.000 0,0 2213.292,1268.237 Z" style="stroke-width:2.0;stroke:rgb(115,115,115);stroke-linecap:round;fill:rgb(116,196,118);" />
<text x="2303.0" y="1310.6" font-size="65.0px" font-family="CMUBright-Roman" style="text-anchor:start;fill:rgb(0,0,0);" transform="rotate(345.0,2303.0,1310.6)" >3-COC</text>
<path d="M2137.208,1292.959 A670.000,670.000 40.000 0,1 2155.481,1361.276 L2233.748,1344.712 A750.000,750.000 0.000 0,0 2213.292,1268.237 Z" style="stroke-width:2.0;stroke:rgb(115,115,115);stroke-linecap:round;fill:none;" />
<path d="M2163.936,1410.064 A670.000,670.000 40.000 0,1 2169.718,1480.546 L2249.684,1478.223 A750.000,750.000 0.000 0,0 2243.212,1399.325 Z" style="stroke-width:2.0;stroke:rgb(115,115,115);stroke-linecap:round;fill:rgb(116,196,118);" />
<text x="2323.8" y="1456.0" font-size="65.0px" font-family="CMUBright-Roman" style="text-anchor:start;fill:rgb(0,0,0);" transform="rotate(355.3,2323.8,1456.0)" >14-LIX</text>
<path d="M2163.936,1410.064 A670.000,670.000 40.000 0,1 2169.718,1480.546 L2249.684,1478.223 A750.000,750.000 0.000 0,0 2243.212,1399.325 Z" style="stroke-width:2.0;stroke:rgb(115,115,115);stroke-linecap:round;fill:none;" />
<path d="M2169.325,1530.059 A670.000,670.000 40.000 0,1 2162.429,1600.441 L2241.524,1612.434 A750.000,750.000 0.000 0,0 2249.245,1533.649 Z" style="stroke-width:2.0;stroke:rgb(115,115,115);stroke-linecap:round;fill:rgb(116,196,118);" />
<text x="2318.3" y="1604.8" font-size="65.0px" font-family="CMUBright-Roman" style="text-anchor:start;fill:rgb(0,0,0);" transform="rotate(5.6,2318.3,1604.8)" >22-ParG</text>
<path d="M2169.325,1530.059 A670.000,670.000 40.000 0,1 2162.429,1600.441 L2241.524,1612.434 A750.000,750.000 0.000 0,0 2249.245,1533.649 Z" style="stroke-width:2.0;stroke:rgb(115,115,115);stroke-linecap:round;fill:none;" />
<path d="M2153.202,1649.089 A670.000,670.000 40.000 0,1 2133.849,1717.108 L2209.532,1743.032 A750.000,750.000 0.000 0,0 2231.196,1666.891 Z" style="stroke-width:2.0;stroke:rgb(115,115,115);stroke-linecap:round;fill:rgb(116,196,118);" />
<text x="2286.6" y="1748.8" font-size="65.0px" font-family="CMUBright-Roman" style="text-anchor:start;fill:rgb(0,0,0);" transform="rotate(15.9,2286.6,1748.8)" >23-PP</text>
<path d="M2153.202,1649.089 A670.000,670.000 40.000 0,1 2133.849,1717.108 L2209.532,1743.032 A750.000,750.000 0.000 0,0 2231.196,1666.891 Z" style="stroke-width:2.0;stroke:rgb(115,115,115);stroke-linecap:round;fill:none;" />
<path d="M2116.084,1763.327 A670.000,670.000 40.000 0,1 2084.896,1826.797 L2154.734,1865.818 A750.000,750.000 0.000 0,0 2189.646,1794.769 Z" style="stroke-width:2.0;stroke:rgb(115,115,115);stroke-linecap:round;fill:rgb(116,196,118);" />
<text x="2229.8" y="1884.8" font-size="65.0px" font-family="CMUBright-Roman" style="text-anchor:start;fill:rgb(0,0,0);" transform="rotate(26.2,2229.8,1884.8)" >24-PP</text>
<path d="M2116.084,1763.327 A670.000,670.000 40.000 0,1 2084.896,1826.797 L2154.734,1865.818 A750.000,750.000 0.000 0,0 2189.646,1794.769 Z" style="stroke-width:2.0;stroke:rgb(115,115,115);stroke-linecap:round;fill:none;" />
<path d="M2059.164,1869.101 A670.000,670.000 40.000 0,1 2017.145,1925.983 L2078.893,1976.846 A750.000,750.000 0.000 0,0 2125.930,1913.173 Z" style="stroke-width:2.0;stroke:rgb(115,115,115);stroke-linecap:round;fill:rgb(153,0,204);" />
<text x="2148.7" y="2009.7" font-size="65.0px" font-family="CMUBright-Roman" style="text-anchor:start;fill:rgb(0,0,0);" transform="rotate(36.5,2148.7,2009.7)" >1-AG</text>
<path d="M2059.164,1869.101 A670.000,670.000 40.000 0,1 2017.145,1925.983 L2078.893,1976.846 A750.000,750.000 0.000 0,0 2125.930,1913.173 Z" style="stroke-width:2.0;stroke:rgb(115,115,115);stroke-linecap:round;fill:none;" />
<path d="M1984.273,1963.012 A670.000,670.000 40.000 0,1 1932.772,2011.477 L1984.446,2072.549 A750.000,750.000 0.000 0,0 2042.096,2018.297 Z" style="stroke-width:2.0;stroke:rgb(115,115,115);stroke-linecap:round;fill:rgb(153,0,204);" />
<text x="2047.7" y="2117.0" font-size="65.0px" font-family="CMUBright-Roman" style="text-anchor:start;fill:rgb(0,0,0);" transform="rotate(46.7,2047.7,2117.0)" >9-IPL</text>
<path d="M1984.273,1963.012 A670.000,670.000 40.000 0,1 1932.772,2011.477 L1984.446,2072.549 A750.000,750.000 0.000 0,0 2042.096,2018.297 Z" style="stroke-width:2.0;stroke:rgb(115,115,115);stroke-linecap:round;fill:none;" />
<path d="M1893.816,2042.041 A670.000,670.000 40.000 0,1 1834.489,2080.532 L1874.428,2149.849 A750.000,750.000 0.000 0,0 1940.839,2106.763 Z" style="stroke-width:2.0;stroke:rgb(115,115,115);stroke-linecap:round;fill:rgb(153,0,204);" />
<text x="1928.3" y="2205.1" font-size="65.0px" font-family="CMUBright-Roman" style="text-anchor:start;fill:rgb(0,0,0);" transform="rotate(57.0,1928.3,2205.1)" >17-MFG</text>
<path d="M1893.816,2042.041 A670.000,670.000 40.000 0,1 1834.489,2080.532 L1874.428,2149.849 A750.000,750.000 0.000 0,0 1940.839,2106.763 Z" style="stroke-width:2.0;stroke:rgb(115,115,115);stroke-linecap:round;fill:none;" />
<path d="M1790.702,2103.649 A670.000,670.000 40.000 0,1 1725.456,2130.928 L1752.376,2206.262 A750.000,750.000 0.000 0,0 1825.413,2175.727 Z" style="stroke-width:2.0;stroke:rgb(115,115,115);stroke-linecap:round;fill:rgb(153,0,204);" />
<text x="1795.5" y="2270.3" font-size="65.0px" font-family="CMUBright-Roman" style="text-anchor:start;fill:rgb(0,0,0);" transform="rotate(67.3,1795.5,2270.3)" >25-PosG</text>
<path d="M1790.702,2103.649 A670.000,670.000 40.000 0,1 1725.456,2130.928 L1752.376,2206.262 A750.000,750.000 0.000 0,0 1825.413,2175.727 Z" style="stroke-width:2.0;stroke:rgb(115,115,115);stroke-linecap:round;fill:none;" />
<path d="M1678.245,2145.855 A670.000,670.000 40.000 0,1 1609.176,2161.045 L1622.212,2239.976 A750.000,750.000 0.000 0,0 1699.528,2222.972 Z" style="stroke-width:2.0;stroke:rgb(115,115,115);stroke-linecap:round;fill:rgb(153,0,204);" />
<text x="1653.2" y="2310.7" font-size="65.0px" font-family="CMUBright-Roman" style="text-anchor:start;fill:rgb(0,0,0);" transform="rotate(77.6,1653.2,2310.7)" >26-PC</text>
<path d="M1678.245,2145.855 A670.000,670.000 40.000 0,1 1609.176,2161.045 L1622.212,2239.976 A750.000,750.000 0.000 0,0 1699.528,2222.972 Z" style="stroke-width:2.0;stroke:rgb(115,115,115);stroke-linecap:round;fill:none;" />
<path d="M1560.058,2167.303 A670.000,670.000 40.000 0,1 1489.388,2169.916 L1488.121,2249.906 A750.000,750.000 0.000 0,0 1567.229,2246.981 Z" style="stroke-width:2.0;stroke:rgb(115,115,115);stroke-linecap:round;fill:rgb(153,0,204);" />
<text x="1506.0" y="2325.0" font-size="65.0px" font-family="CMUBright-Roman" style="text-anchor:start;fill:rgb(0,0,0);" transform="rotate(87.9,1506.0,2325.0)" >34-SG</text>
<path d="M1560.058,2167.303 A670.000,670.000 40.000 0,1 1489.388,2169.916 L1488.121,2249.906 A750.000,750.000 0.000 0,0 1567.229,2246.981 Z" style="stroke-width:2.0;stroke:rgb(115,115,115);stroke-linecap:round;fill:none;" />
<path d="M1439.942,2167.303 A670.000,670.000 40.000 0,1 1369.940,2157.255 L1354.411,2235.733 A750.000,750.000 0.000 0,0 1432.771,2246.981 Z" style="stroke-width:2.0;stroke:rgb(115,115,115);stroke-linecap:round;fill:rgb(253,208,162);" />
<text x="1407.1" y="2319.8" font-size="65.0px" font-family="CMUBright-Roman" style="text-anchor:end;fill:rgb(0,0,0);" transform="rotate(-81.8,1407.1,2319.8)" >12-LOC</text>
<path d="M1439.942,2167.303 A670.000,670.000 40.000 0,1 1369.940,2157.255 L1354.411,2235.733 A750.000,750.000 0.000 0,0 1432.771,2246.981 Z" style="stroke-width:2.0;stroke:rgb(115,115,115);stroke-linecap:round;fill:none;" />
<path d="M1321.755,2145.855 A670.000,670.000 40.000 0,1 1254.673,2123.470 L1225.380,2197.914 A750.000,750.000 0.000 0,0 1300.472,2222.972 Z" style="stroke-width:2.0;stroke:rgb(115,115,115);stroke-linecap:round;fill:rgb(253,208,162);" />
<text x="1262.2" y="2290.0" font-size="65.0px" font-family="CMUBright-Roman" style="text-anchor:end;fill:rgb(0,0,0);" transform="rotate(-71.5,1262.2,2290.0)" >13-LCI</text>
<path d="M1321.755,2145.855 A670.000,670.000 40.000 0,1 1254.673,2123.470 L1225.380,2197.914 A750.000,750.000 0.000 0,0 1300.472,2222.972 Z" style="stroke-width:2.0;stroke:rgb(115,115,115);stroke-linecap:round;fill:none;" />
<path d="M1209.298,2103.649 A670.000,670.000 40.000 0,1 1147.290,2069.645 L1105.176,2137.663 A750.000,750.000 0.000 0,0 1174.587,2175.727 Z" style="stroke-width:2.0;stroke:rgb(115,115,115);stroke-linecap:round;fill:rgb(253,208,162);" />
<text x="1125.0" y="2234.8" font-size="65.0px" font-family="CMUBright-Roman" style="text-anchor:end;fill:rgb(0,0,0);" transform="rotate(-61.3,1125.0,2234.8)" >16-LG</text>
<path d="M1209.298,2103.649 A670.000,670.000 40.000 0,1 1147.290,2069.645 L1105.176,2137.663 A750.000,750.000 0.000 0,0 1174.587,2175.727 Z" style="stroke-width:2.0;stroke:rgb(115,115,115);stroke-linecap:round;fill:none;" />
<path d="M1106.184,2042.041 A670.000,670.000 40.000 0,1 1051.245,1997.512 L997.662,2056.917 A750.000,750.000 0.000 0,0 1059.161,2106.763 Z" style="stroke-width:2.0;stroke:rgb(115,115,115);stroke-linecap:round;fill:rgb(253,208,162);" />
<text x="999.8" y="2156.1" font-size="65.0px" font-family="CMUBright-Roman" style="text-anchor:end;fill:rgb(0,0,0);" transform="rotate(-51.0,999.8,2156.1)" >20-OFG</text>
<path d="M1106.184,2042.041 A670.000,670.000 40.000 0,1 1051.245,1997.512 L997.662,2056.917 A750.000,750.000 0.000 0,0 1059.161,2106.763 Z" style="stroke-width:2.0;stroke:rgb(115,115,115);stroke-linecap:round;fill:none;" />
<path d="M1015.727,1963.012 A670.000,670.000 40.000 0,1 969.622,1909.389 L906.293,1958.271 A750.000,750.000 0.000 0,0 957.904,2018.297 Z" style="stroke-width:2.0;stroke:rgb(115,115,115);stroke-linecap:round;fill:rgb(253,208,162);" />
<text x="890.7" y="2056.2" font-size="65.0px" font-family="CMUBright-Roman" style="text-anchor:end;fill:rgb(0,0,0);" transform="rotate(-40.7,890.7,2056.2)" >21-OP</text>
<path d="M1015.727,1963.012 A670.000,670.000 40.000 0,1 969.622,1909.389 L906.293,1958.271 A750.000,750.000 0.000 0,0 957.904,2018.297 Z" style="stroke-width:2.0;stroke:rgb(115,115,115);stroke-linecap:round;fill:none;" />
<path d="M940.836,1869.101 A670.000,670.000 40.000 0,1 905.046,1808.107 L834.007,1844.896 A750.000,750.000 0.000 0,0 874.070,1913.173 Z" style="stroke-width:2.0;stroke:rgb(115,115,115);stroke-linecap:round;fill:rgb(253,208,162);" />
<text x="801.2" y="1938.5" font-size="65.0px" font-family="CMUBright-Roman" style="text-anchor:end;fill:rgb(0,0,0);" transform="rotate(-30.4,801.2,1938.5)" >27-RCI</text>
<path d="M940.836,1869.101 A670.000,670.000 40.000 0,1 905.046,1808.107 L834.007,1844.896 A750.000,750.000 0.000 0,0 874.070,1913.173 Z" style="stroke-width:2.0;stroke:rgb(115,115,115);stroke-linecap:round;fill:none;" />
<path d="M883.916,1763.327 A670.000,670.000 40.000 0,1 859.593,1696.922 L783.126,1720.436 A750.000,750.000 0.000 0,0 810.354,1794.769 Z" style="stroke-width:2.0;stroke:rgb(115,115,115);stroke-linecap:round;fill:rgb(253,208,162);" />
<text x="734.1" y="1806.6" font-size="65.0px" font-family="CMUBright-Roman" style="text-anchor:end;fill:rgb(0,0,0);" transform="rotate(-20.1,734.1,1806.6)" >28-RCI</text>
<path d="M883.916,1763.327 A670.000,670.000 40.000 0,1 859.593,1696.922 L783.126,1720.436 A750.000,750.000 0.000 0,0 810.354,1794.769 Z" style="stroke-width:2.0;stroke:rgb(115,115,115);stroke-linecap:round;fill:none;" />
<path d="M846.798,1649.089 A670.000,670.000 40.000 0,1 834.722,1579.409 L755.286,1588.890 A750.000,750.000 0.000 0,0 768.804,1666.891 Z" style="stroke-width:2.0;stroke:rgb(115,115,115);stroke-linecap:round;fill:rgb(253,141,60);" />
<text x="691.7" y="1665.0" font-size="65.0px" font-family="CMUBright-Roman" style="text-anchor:end;fill:rgb(0,0,0);" transform="rotate(-9.8,691.7,1665.0)" >11-ITG</text>
<path d="M846.798,1649.089 A670.000,670.000 40.000 0,1 834.722,1579.409 L755.286,1588.890 A750.000,750.000 0.000 0,0 768.804,1666.891 Z" style="stroke-width:2.0;stroke:rgb(115,115,115);stroke-linecap:round;fill:none;" />
<path d="M830.675,1530.059 A670.000,670.000 40.000 0,1 831.235,1459.343 L751.382,1454.488 A750.000,750.000 0.000 0,0 750.755,1533.649 Z" style="stroke-width:2.0;stroke:rgb(115,115,115);stroke-linecap:round;fill:rgb(253,141,60);" />
<text x="675.2" y="1517.5" font-size="65.0px" font-family="CMUBright-Roman" style="text-anchor:end;fill:rgb(0,0,0);" transform="rotate(0.5,675.2,1517.5)" >30-RH</text>
<path d="M830.675,1530.059 A670.000,670.000 40.000 0,1 831.235,1459.343 L751.382,1454.488 A750.000,750.000 0.000 0,0 750.755,1533.649 Z" style="stroke-width:2.0;stroke:rgb(115,115,115);stroke-linecap:round;fill:none;" />
<path d="M836.064,1410.064 A670.000,670.000 40.000 0,1 849.242,1340.583 L771.539,1321.549 A750.000,750.000 0.000 0,0 756.788,1399.325 Z" style="stroke-width:2.0;stroke:rgb(115,115,115);stroke-linecap:round;fill:rgb(253,141,60);" />
<text x="685.3" y="1369.9" font-size="65.0px" font-family="CMUBright-Roman" style="text-anchor:end;fill:rgb(0,0,0);" transform="rotate(10.7,685.3,1369.9)" >31-RLV</text>
<path d="M836.064,1410.064 A670.000,670.000 40.000 0,1 849.242,1340.583 L771.539,1321.549 A750.000,750.000 0.000 0,0 756.788,1399.325 Z" style="stroke-width:2.0;stroke:rgb(115,115,115);stroke-linecap:round;fill:none;" />
<path d="M862.792,1292.959 A670.000,670.000 40.000 0,1 888.165,1226.948 L815.110,1194.345 A750.000,750.000 0.000 0,0 786.708,1268.237 Z" style="stroke-width:2.0;stroke:rgb(115,115,115);stroke-linecap:round;fill:rgb(253,141,60);" />
<text x="721.6" y="1226.5" font-size="65.0px" font-family="CMUBright-Roman" style="text-anchor:end;fill:rgb(0,0,0);" transform="rotate(21.0,721.6,1226.5)" >32-RLV</text>
<path d="M862.792,1292.959 A670.000,670.000 40.000 0,1 888.165,1226.948 L815.110,1194.345 A750.000,750.000 0.000 0,0 786.708,1268.237 Z" style="stroke-width:2.0;stroke:rgb(115,115,115);stroke-linecap:round;fill:none;" />
<path d="M910.001,1182.508 A670.000,670.000 40.000 0,1 946.752,1122.089 L880.693,1076.965 A750.000,750.000 0.000 0,0 839.553,1144.599 Z" style="stroke-width:2.0;stroke:rgb(115,115,115);stroke-linecap:round;fill:rgb(253,141,60);" />
<text x="782.7" y="1092.4" font-size="65.0px" font-family="CMUBright-Roman" style="text-anchor:end;fill:rgb(0,0,0);" transform="rotate(31.3,782.7,1092.4)" >33-SC</text>
<path d="M910.001,1182.508 A670.000,670.000 40.000 0,1 946.752,1122.089 L880.693,1076.965 A750.000,750.000 0.000 0,0 839.553,1144.599 Z" style="stroke-width:2.0;stroke:rgb(115,115,115);stroke-linecap:round;fill:none;" />
<path d="M976.173,1082.262 A670.000,670.000 40.000 0,1 1023.122,1029.376 L966.181,973.182 A750.000,750.000 0.000 0,0 913.626,1032.383 Z" style="stroke-width:2.0;stroke:rgb(115,115,115);stroke-linecap:round;fill:rgb(66,146,198);" />
<text x="867.0" y="970.9" font-size="65.0px" font-family="CMUBright-Roman" style="text-anchor:end;fill:rgb(0,0,0);" transform="rotate(41.6,867.0,970.9)" >4-FOC</text>
<path d="M976.173,1082.262 A670.000,670.000 40.000 0,1 1023.122,1029.376 L966.181,973.182 A750.000,750.000 0.000 0,0 913.626,1032.383 Z" style="stroke-width:2.0;stroke:rgb(115,115,115);stroke-linecap:round;fill:none;" />
<path d="M1059.181,995.442 A670.000,670.000 40.000 0,1 1114.819,951.789 L1068.827,886.331 A750.000,750.000 0.000 0,0 1006.546,935.196 Z" style="stroke-width:2.0;stroke:rgb(115,115,115);stroke-linecap:round;fill:rgb(66,146,198);" />
<text x="971.7" y="866.3" font-size="65.0px" font-family="CMUBright-Roman" style="text-anchor:end;fill:rgb(0,0,0);" transform="rotate(51.9,971.7,866.3)" >6-IFG</text>
<path d="M1059.181,995.442 A670.000,670.000 40.000 0,1 1114.819,951.789 L1068.827,886.331 A750.000,750.000 0.000 0,0 1006.546,935.196 Z" style="stroke-width:2.0;stroke:rgb(115,115,115);stroke-linecap:round;fill:none;" />
<path d="M1156.357,924.839 A670.000,670.000 40.000 0,1 1218.896,891.822 L1185.331,819.204 A750.000,750.000 0.000 0,0 1115.326,856.163 Z" style="stroke-width:2.0;stroke:rgb(115,115,115);stroke-linecap:round;fill:rgb(66,146,198);" />
<text x="1093.3" y="782.2" font-size="65.0px" font-family="CMUBright-Roman" style="text-anchor:end;fill:rgb(0,0,0);" transform="rotate(62.2,1093.3,782.2)" >7-IFG</text>
<path d="M1156.357,924.839 A670.000,670.000 40.000 0,1 1218.896,891.822 L1185.331,819.204 A750.000,750.000 0.000 0,0 1115.326,856.163 Z" style="stroke-width:2.0;stroke:rgb(115,115,115);stroke-linecap:round;fill:none;" />
<path d="M1264.579,872.723 A670.000,670.000 40.000 0,1 1332.008,851.403 L1311.949,773.958 A750.000,750.000 0.000 0,0 1236.469,797.824 Z" style="stroke-width:2.0;stroke:rgb(115,115,115);stroke-linecap:round;fill:rgb(66,146,198);" />
<text x="1228.5" y="721.0" font-size="65.0px" font-family="CMUBright-Roman" style="text-anchor:end;fill:rgb(0,0,0);" transform="rotate(72.5,1228.5,721.0)" >15-LVIIIb</text>
<path d="M1264.579,872.723 A670.000,670.000 40.000 0,1 1332.008,851.403 L1311.949,773.958 A750.000,750.000 0.000 0,0 1236.469,797.824 Z" style="stroke-width:2.0;stroke:rgb(115,115,115);stroke-linecap:round;fill:none;" />
<path d="M1380.367,840.767 A670.000,670.000 40.000 0,1 1450.519,831.830 L1444.611,752.048 A750.000,750.000 0.000 0,0 1366.082,762.053 Z" style="stroke-width:2.0;stroke:rgb(115,115,115);stroke-linecap:round;fill:rgb(66,146,198);" />
<text x="1371.5" y="685.1" font-size="65.0px" font-family="CMUBright-Roman" style="text-anchor:end;fill:rgb(0,0,0);" transform="rotate(82.7,1371.5,685.1)" >18-MTG</text>
<path d="M1380.367,840.767 A670.000,670.000 40.000 0,1 1450.519,831.830 L1444.611,752.048 A750.000,750.000 0.000 0,0 1366.082,762.053 Z" style="stroke-width:2.0;stroke:rgb(115,115,115);stroke-linecap:round;fill:none;" />
</g>
<g id="track_1">
<path d="M 2012.0,1878.2 L 1986.6,1859.3 1961.2,1840.3 1935.8,1821.0 1910.5,1801.4 1885.1,1781.7 1859.9,1761.7 1834.7,1741.5 1809.5,1721.1 1784.4,1700.4 1759.5,1679.6 1734.6,1658.5 1709.8,1637.2 1685.2,1615.6 1660.6,1593.9 1636.2,1572.0 1612.0,1549.8 1587.9,1527.5 1564.0,1504.9 1540.2,1482.2 1516.6,1459.3 1493.2,1436.2 1470.0,1412.9 1447.0,1389.5 1424.1,1365.9 1401.5,1342.2 1379.0,1318.3 1356.8,1294.3 1334.8,1270.1 1313.0,1245.9 1291.4,1221.5 1270.0,1197.0 1248.9,1172.5 1228.0,1147.9 1207.3,1123.2 1186.8,1098.5 1166.5,1073.7 1146.5,1048.9 1126.7,1024.1 1107.1,999.2  " style="stroke-opacity: 1.000000; stroke-width: 5.0; stroke: rgb(251,106,74); fill: none"  />
<path d="M 2012.0,1878.2 L 1987.2,1859.7 1962.4,1840.9 1937.6,1821.7 1912.9,1802.1 1888.3,1782.2 1863.8,1762.0 1839.4,1741.4 1815.2,1720.4 1791.1,1699.1 1767.2,1677.4 1743.5,1655.4 1720.0,1633.1 1696.7,1610.4 1673.6,1587.4 1650.9,1564.1 1628.3,1540.5 1606.1,1516.6 1584.2,1492.3 1562.5,1467.8 1541.2,1443.0 1520.2,1417.9 1499.5,1392.6 1479.2,1367.0 1459.2,1341.2 1439.6,1315.2 1420.3,1289.0 1401.4,1262.6 1382.8,1236.0 1364.6,1209.2 1346.8,1182.4 1329.3,1155.3 1312.3,1128.2 1295.5,1101.0 1279.2,1073.8 1263.2,1046.4 1247.6,1019.1 1232.3,991.7 1217.4,964.4 1202.8,937.1  " style="stroke-opacity: 1.000000; stroke-width: 5.0; stroke: rgb(251,106,74); fill: none"  />
<path d="M 2012.0,1878.2 L 1989.9,1861.5 1968.0,1844.1 1946.5,1826.1 1925.3,1807.5 1904.6,1788.2 1884.5,1768.3 1864.9,1747.8 1846.1,1726.7 1828.0,1705.0 1810.7,1682.8 1794.2,1660.0 1778.7,1636.7 1764.1,1613.0 1750.5,1588.7 1737.9,1564.0 1726.4,1538.9 1715.9,1513.3 1706.6,1487.4 1698.3,1461.2 1691.2,1434.6 1685.3,1407.8 1680.4,1380.6 1676.7,1353.3 1674.2,1325.8 1672.8,1298.1 1672.4,1270.3 1673.2,1242.4 1675.1,1214.5 1677.9,1186.5 1681.8,1158.6 1686.7,1130.8 1692.5,1103.1 1699.2,1075.6 1706.7,1048.3 1715.0,1021.3 1724.0,994.5 1733.7,968.2 1744.0,942.2 1754.8,916.7  " style="stroke-opacity: 1.000000; stroke-width: 5.0; stroke: rgb(251,106,74); fill: none"  />
<path d="M 1533.6,864.4 L 1531.8,892.6 1529.4,921.1 1526.3,949.7 1522.5,978.3 1518.0,1007.1 1512.6,1035.7 1506.6,1064.3 1499.6,1092.8 1491.9,1121.0 1483.3,1149.0 1473.9,1176.8 1463.5,1204.2 1452.3,1231.2 1440.2,1257.8 1427.3,1283.9 1413.4,1309.6 1398.7,1334.8 1383.1,1359.4 1366.6,1383.4 1349.3,1406.8 1331.2,1429.6 1312.3,1451.7 1292.6,1473.2 1272.1,1494.0 1250.9,1514.1 1229.0,1533.5 1206.5,1552.1 1183.4,1570.0 1159.6,1587.2 1135.4,1603.7 1110.6,1619.4 1085.5,1634.3 1060.0,1648.5 1034.1,1662.0 1008.0,1674.8 981.7,1686.9 955.3,1698.2 928.8,1708.9 902.3,1718.9  " style="stroke-opacity: 1.000000; stroke-width: 5.0; stroke: rgb(251,106,74); fill: none"  />
<path d="M 1107.1,999.2 L 1126.7,1024.1 1146.5,1048.9 1166.5,1073.7 1186.8,1098.5 1207.3,1123.2 1228.0,1147.9 1248.9,1172.5 1270.0,1197.0 1291.4,1221.5 1313.0,1245.9 1334.8,1270.1 1356.8,1294.3 1379.0,1318.3 1401.5,1342.2 1424.1,1365.9 1447.0,1389.5 1470.0,1412.9 1493.2,1436.2 1516.6,1459.3 1540.2,1482.2 1564.0,1504.9 1587.9,1527.5 1612.0,1549.8 1636.2,1572.0 1660.6,1593.9 1685.2,1615.6 1709.8,1637.2 1734.6,1658.5 1759.5,1679.6 1784.4,1700.4 1809.5,1721.1 1834.7,1741.5 1859.9,1761.7 1885.1,1781.7 1910.5,1801.4 1935.8,1821.0 1961.2,1840.3 1986.6,1859.3 2012.0,1878.2  " style="stroke-opacity: 1.000000; stroke-width: 5.0; stroke: rgb(251,106,74); fill: none"  />
<path d="M 1107.1,999.2 L 1127.1,1024.6 1147.1,1050.0 1167.2,1075.4 1187.4,1100.8 1207.7,1126.2 1228.0,1151.6 1248.5,1176.9 1269.0,1202.3 1289.6,1227.6 1310.2,1252.9 1331.0,1278.1 1351.8,1303.4 1372.7,1328.5 1393.6,1353.7 1414.7,1378.8 1435.8,1403.9 1457.0,1428.9 1478.2,1453.9 1499.5,1478.8 1520.9,1503.6 1542.3,1528.5 1563.9,1553.2 1585.4,1577.9 1607.0,1602.5 1628.7,1627.1 1650.4,1651.6 1672.2,1676.0 1694.0,1700.4 1715.9,1724.7 1737.8,1748.9 1759.7,1773.0 1781.7,1797.1 1803.7,1821.1 1825.7,1845.0 1847.8,1868.9 1869.9,1892.7 1892.0,1916.4 1914.1,1940.0 1936.2,1963.5  " style="stroke-opacity: 1.000000; stroke-width: 5.0; stroke: rgb(251,106,74); fill: none"  />
<path d="M 1202.8,937.1 L 1217.4,964.4 1232.3,991.7 1247.6,1019.1 1263.2,1046.4 1279.2,1073.8 1295.5,1101.0 1312.3,1128.2 1329.3,1155.3 1346.8,1182.4 1364.6,1209.2 1382.8,1236.0 1401.4,1262.6 1420.3,1289.0 1439.6,1315.2 1459.2,1341.2 1479.2,1367.0 1499.5,1392.6 1520.2,1417.9 1541.2,1443.0 1562.5,1467.8 1584.2,1492.3 1606.1,1516.6 1628.3,1540.5 1650.9,1564.1 1673.6,1587.4 1696.7,1610.4 1720.0,1633.1 1743.5,1655.4 1767.2,1677.4 1791.1,1699.1 1815.2,1720.4 1839.4,1741.4 1863.8,1762.0 1888.3,1782.2 1912.9,1802.1 1937.6,1821.7 1962.4,1840.9 1987.2,1859.7 2012.0,1878.2  " style="stroke-opacity: 1.000000; stroke-width: 5.0; stroke: rgb(251,106,74); fill: none"  />
<path d="M 1202.8,937.1 L 1217.9,965.7 1232.9,994.4 1247.9,1023.1 1262.9,1051.9 1277.8,1080.7 1292.7,1109.7 1307.5,1138.6 1322.3,1167.7 1337.0,1196.8 1351.7,1226.0 1366.3,1255.2 1380.8,1284.5 1395.3,1313.9 1409.7,1343.3 1424.1,1372.7 1438.4,1402.2 1452.6,1431.7 1466.7,1461.3 1480.8,1490.9 1494.8,1520.6 1508.7,1550.3 1522.6,1580.0 1536.3,1609.7 1550.0,1639.5 1563.6,1669.3 1577.1,1699.1 1590.6,1729.0 1603.9,1758.8 1617.2,1788.7 1630.4,1818.6 1643.5,1848.5 1656.5,1878.3 1669.5,1908.2 1682.3,1938.1 1695.1,1968.0 1707.8,1997.8 1720.5,2027.6 1733.0,2057.5 1745.5,2087.2  " style="stroke-opacity: 1.000000; stroke-width: 5.0; stroke: rgb(251,106,74); fill: none"  />
<path d="M 1646.5,880.6 L 1639.4,910.0 1631.8,939.5 1623.8,969.2 1615.3,998.9 1606.3,1028.7 1596.8,1058.5 1586.8,1088.3 1576.3,1118.1 1565.3,1147.8 1553.8,1177.4 1541.7,1206.9 1529.2,1236.3 1516.0,1265.5 1502.4,1294.5 1488.2,1323.3 1473.5,1352.0 1458.3,1380.3 1442.6,1408.5 1426.3,1436.3 1409.5,1463.8 1392.3,1491.1 1374.6,1518.0 1356.4,1544.6 1337.7,1570.8 1318.6,1596.6 1299.1,1622.1 1279.2,1647.2 1258.9,1671.9 1238.3,1696.1 1217.3,1720.0 1195.9,1743.4 1174.3,1766.4 1152.5,1789.0 1130.4,1811.1 1108.0,1832.8 1085.6,1854.0 1062.9,1874.8 1040.2,1895.1 1017.4,1915.0  " style="stroke-opacity: 1.000000; stroke-width: 5.0; stroke: rgb(251,106,74); fill: none"  />
<path d="M 1936.2,1963.5 L 1914.1,1940.0 1892.0,1916.4 1869.9,1892.7 1847.8,1868.9 1825.7,1845.0 1803.7,1821.1 1781.7,1797.1 1759.7,1773.0 1737.8,1748.9 1715.9,1724.7 1694.0,1700.4 1672.2,1676.0 1650.4,1651.6 1628.7,1627.1 1607.0,1602.5 1585.4,1577.9 1563.9,1553.2 1542.3,1528.5 1520.9,1503.6 1499.5,1478.8 1478.2,1453.9 1457.0,1428.9 1435.8,1403.9 1414.7,1378.8 1393.6,1353.7 1372.7,1328.5 1351.8,1303.4 1331.0,1278.1 1310.2,1252.9 1289.6,1227.6 1269.0,1202.3 1248.5,1176.9 1228.0,1151.6 1207.7,1126.2 1187.4,1100.8 1167.2,1075.4 1147.1,1050.0 1127.1,1024.6 1107.1,999.2  " style="stroke-opacity: 1.000000; stroke-width: 5.0; stroke: rgb(251,106,74); fill: none"  />
<path d="M 1936.2,1963.5 L 1917.0,1942.7 1898.1,1921.3 1879.6,1899.3 1861.5,1876.7 1843.9,1853.6 1826.8,1830.0 1810.4,1805.8 1794.6,1781.2 1779.5,1756.1 1765.2,1730.5 1751.7,1704.5 1739.0,1678.1 1727.2,1651.3 1716.4,1624.2 1706.4,1596.7 1697.5,1569.0 1689.5,1541.0 1682.5,1512.7 1676.5,1484.2 1671.5,1455.5 1667.5,1426.7 1664.6,1397.7 1662.7,1368.6 1661.8,1339.4 1662.0,1310.2 1663.1,1281.0 1665.2,1251.9 1668.2,1222.7 1672.2,1193.7 1677.1,1164.8 1682.8,1136.1 1689.4,1107.6 1696.7,1079.3 1704.8,1051.3 1713.6,1023.6 1723.1,996.2 1733.2,969.3 1743.7,942.8 1754.8,916.7  " style="stroke-opacity: 1.000000; stroke-width: 5.0; stroke: rgb(251,106,74); fill: none"  />
<path d="M 1936.2,1963.5 L 1918.7,1945.3 1900.8,1927.4 1882.6,1910.1 1864.2,1893.4 1845.6,1877.5 1826.9,1862.5 1808.2,1848.5 1789.5,1835.6 1770.8,1823.8 1752.3,1813.4 1734.0,1804.2 1715.8,1796.5 1698.0,1790.1 1680.4,1785.3 1663.2,1782.1 1646.3,1780.4 1629.9,1780.3 1613.9,1781.8 1598.4,1784.9 1583.3,1789.7 1568.8,1796.0 1554.9,1804.0 1541.5,1813.5 1528.7,1824.6 1516.4,1837.2 1504.8,1851.2 1493.8,1866.6 1483.5,1883.4 1473.7,1901.4 1464.6,1920.7 1456.1,1941.0 1448.2,1962.3 1440.9,1984.5 1434.3,2007.5 1428.2,2031.2 1422.7,2055.5 1417.8,2080.1 1413.4,2105.0 1409.6,2130.0  " style="stroke-opacity: 1.000000; stroke-width: 5.0; stroke: rgb(251,106,74); fill: none"  />
<path d="M 1936.2,1963.5 L 1916.6,1943.1 1896.4,1923.0 1875.5,1903.1 1854.1,1883.7 1832.1,1864.7 1809.5,1846.3 1786.4,1828.4 1762.8,1811.1 1738.6,1794.5 1714.0,1778.7 1688.8,1763.6 1663.3,1749.4 1637.3,1736.0 1610.8,1723.5 1584.0,1711.9 1556.9,1701.3 1529.4,1691.6 1501.6,1682.9 1473.5,1675.2 1445.2,1668.5 1416.6,1662.8 1387.9,1658.1 1359.0,1654.4 1329.9,1651.8 1300.8,1650.1 1271.5,1649.5 1242.3,1649.8 1213.0,1651.1 1183.8,1653.3 1154.7,1656.4 1125.7,1660.4 1096.8,1665.2 1068.1,1670.8 1039.7,1677.2 1011.5,1684.3 983.6,1692.1 956.1,1700.5 929.0,1709.5 902.3,1718.9  " style="stroke-opacity: 1.000000; stroke-width: 5.0; stroke: rgb(251,106,74); fill: none"  />
<path d="M 1754.8,916.7 L 1744.0,942.2 1733.7,968.2 1724.0,994.5 1715.0,1021.3 1706.7,1048.3 1699.2,1075.6 1692.5,1103.1 1686.7,1130.8 1681.8,1158.6 1677.9,1186.5 1675.1,1214.5 1673.2,1242.4 1672.4,1270.3 1672.8,1298.1 1674.2,1325.8 1676.7,1353.3 1680.4,1380.6 1685.3,1407.8 1691.2,1434.6 1698.3,1461.2 1706.6,1487.4 1715.9,1513.3 1726.4,1538.9 1737.9,1564.0 1750.5,1588.7 1764.1,1613.0 1778.7,1636.7 1794.2,1660.0 1810.7,1682.8 1828.0,1705.0 1846.1,1726.7 1864.9,1747.8 1884.5,1768.3 1904.6,1788.2 1925.3,1807.5 1946.5,1826.1 1968.0,1844.1 1989.9,1861.5 2012.0,1878.2  " style="stroke-opacity: 1.000000; stroke-width: 5.0; stroke: rgb(251,106,74); fill: none"  />
<path d="M 1754.8,916.7 L 1743.7,942.8 1733.2,969.3 1723.1,996.2 1713.6,1023.6 1704.8,1051.3 1696.7,1079.3 1689.4,1107.6 1682.8,1136.1 1677.1,1164.8 1672.2,1193.7 1668.2,1222.7 1665.2,1251.9 1663.1,1281.0 1662.0,1310.2 1661.8,1339.4 1662.7,1368.6 1664.6,1397.7 1667.5,1426.7 1671.5,1455.5 1676.5,1484.2 1682.5,1512.7 1689.5,1541.0 1697.5,1569.0 1706.4,1596.7 1716.4,1624.2 1727.2,1651.3 1739.0,1678.1 1751.7,1704.5 1765.2,1730.5 1779.5,1756.1 1794.6,1781.2 1810.4,1805.8 1826.8,1830.0 1843.9,1853.6 1861.5,1876.7 1879.6,1899.3 1898.1,1921.3 1917.0,1942.7 1936.2,1963.5  " style="stroke-opacity: 1.000000; stroke-width: 5.0; stroke: rgb(251,106,74); fill: none"  />
<path d="M 1409.6,2130.0 L 1413.4,2105.0 1417.8,2080.1 1422.7,2055.5 1428.2,2031.2 1434.3,2007.5 1440.9,1984.5 1448.2,1962.3 1456.1,1941.0 1464.6,1920.7 1473.7,1901.4 1483.5,1883.4 1493.8,1866.6 1504.8,1851.2 1516.4,1837.2 1528.7,1824.6 1541.5,1813.5 1554.9,1804.0 1568.8,1796.0 1583.3,1789.7 1598.4,1784.9 1613.9,1781.8 1629.9,1780.3 1646.3,1780.4 1663.2,1782.1 1680.4,1785.3 1698.0,1790.1 1715.8,1796.5 1734.0,1804.2 1752.3,1813.4 1770.8,1823.8 1789.5,1835.6 1808.2,1848.5 1826.9,1862.5 1845.6,1877.5 1864.2,1893.4 1882.6,1910.1 1900.8,1927.4 1918.7,1945.3 1936.2,1963.5  " style="stroke-opacity: 1.000000; stroke-width: 5.0; stroke: rgb(251,106,74); fill: none"  />
<path d="M 1409.6,2130.0 L 1413.3,2105.3 1417.5,2080.7 1422.2,2056.5 1427.3,2032.7 1432.9,2009.5 1438.9,1987.1 1445.5,1965.5 1452.5,1944.9 1460.0,1925.4 1468.0,1907.1 1476.5,1890.1 1485.5,1874.5 1495.0,1860.3 1504.9,1847.6 1515.3,1836.5 1526.2,1827.0 1537.4,1819.1 1549.2,1812.9 1561.3,1808.5 1573.8,1805.7 1586.7,1804.7 1599.9,1805.4 1613.4,1807.8 1627.3,1811.8 1641.4,1817.6 1655.7,1824.9 1670.3,1833.8 1685.0,1844.3 1699.8,1856.1 1714.8,1869.4 1729.8,1883.9 1744.8,1899.7 1759.8,1916.5 1774.7,1934.3 1789.5,1953.0 1804.1,1972.5 1818.5,1992.6 1832.6,2013.1 1846.4,2034.0  " style="stroke-opacity: 1.000000; stroke-width: 5.0; stroke: rgb(251,106,74); fill: none"  />
<path d="M 1409.6,2130.0 L 1413.2,2105.7 1417.0,2081.6 1421.0,2057.8 1425.3,2034.6 1429.7,2012.0 1434.4,1990.3 1439.2,1969.6 1444.2,1949.9 1449.4,1931.5 1454.7,1914.4 1460.2,1898.7 1465.9,1884.4 1471.7,1871.8 1477.6,1860.8 1483.7,1851.5 1489.9,1844.0 1496.2,1838.2 1502.5,1834.3 1509.0,1832.2 1515.5,1832.0 1522.2,1833.6 1528.8,1837.0 1535.5,1842.3 1542.2,1849.4 1549.0,1858.2 1555.7,1868.7 1562.4,1880.9 1569.1,1894.6 1575.8,1909.9 1582.4,1926.6 1588.9,1944.6 1595.3,1963.8 1601.7,1984.2 1607.9,2005.5 1614.0,2027.6 1619.9,2050.5 1625.7,2073.9 1631.3,2097.7 1636.7,2121.6  " style="stroke-opacity: 1.000000; stroke-width: 5.0; stroke: rgb(251,106,74); fill: none"  />
<path d="M 1409.6,2130.0 L 1414.1,2100.1 1419.0,2070.0 1424.3,2039.8 1430.1,2009.4 1436.4,1978.9 1443.2,1948.4 1450.4,1917.8 1458.2,1887.3 1466.5,1856.7 1475.3,1826.2 1484.7,1795.7 1494.6,1765.3 1505.0,1735.0 1516.0,1704.9 1527.6,1674.9 1539.6,1645.1 1552.3,1615.4 1565.4,1586.0 1579.1,1556.8 1593.3,1527.9 1608.1,1499.2 1623.3,1470.8 1639.1,1442.7 1655.3,1415.0 1672.0,1387.5 1689.1,1360.4 1706.7,1333.6 1724.7,1307.2 1743.1,1281.2 1761.9,1255.5 1781.0,1230.3 1800.5,1205.4 1820.2,1181.0 1840.3,1157.0 1860.6,1133.4 1881.0,1110.3 1901.7,1087.5 1922.6,1065.3 1943.5,1043.4  " style="stroke-opacity: 1.000000; stroke-width: 5.0; stroke: rgb(251,106,74); fill: none"  />
<path d="M 1846.4,2034.0 L 1832.6,2013.1 1818.5,1992.6 1804.1,1972.5 1789.5,1953.0 1774.7,1934.3 1759.8,1916.5 1744.8,1899.7 1729.8,1883.9 1714.8,1869.4 1699.8,1856.1 1685.0,1844.3 1670.3,1833.8 1655.7,1824.9 1641.4,1817.6 1627.3,1811.8 1613.4,1807.8 1599.9,1805.4 1586.7,1804.7 1573.8,1805.7 1561.3,1808.5 1549.2,1812.9 1537.4,1819.1 1526.2,1827.0 1515.3,1836.5 1504.9,1847.6 1495.0,1860.3 1485.5,1874.5 1476.5,1890.1 1468.0,1907.1 1460.0,1925.4 1452.5,1944.9 1445.5,1965.5 1438.9,1987.1 1432.9,2009.5 1427.3,2032.7 1422.2,2056.5 1417.5,2080.7 1413.3,2105.3 1409.6,2130.0  " style="stroke-opacity: 1.000000; stroke-width: 5.0; stroke: rgb(251,106,74); fill: none"  />
<path d="M 1846.4,2034.0 L 1831.7,2011.8 1816.3,1990.0 1800.3,1968.5 1783.7,1947.5 1766.5,1927.1 1748.8,1907.3 1730.5,1888.4 1711.7,1870.3 1692.3,1853.2 1672.5,1837.1 1652.3,1822.0 1631.5,1808.1 1610.4,1795.4 1588.9,1784.0 1567.0,1773.8 1544.8,1764.9 1522.3,1757.4 1499.5,1751.3 1476.5,1746.6 1453.2,1743.2 1429.8,1741.3 1406.2,1740.8 1382.5,1741.6 1358.7,1743.9 1334.8,1747.5 1310.9,1752.4 1287.1,1758.7 1263.3,1766.2 1239.6,1774.9 1216.1,1784.8 1192.7,1795.8 1169.6,1807.9 1146.7,1820.9 1124.1,1834.8 1101.9,1849.6 1080.0,1865.1 1058.7,1881.2 1037.7,1897.9 1017.4,1915.0  " style="stroke-opacity: 1.000000; stroke-width: 5.0; stroke: rgb(251,106,74); fill: none"  />
<path d="M 1419.6,868.6 L 1423.6,900.6 1427.6,932.8 1431.6,964.9 1435.4,997.1 1439.3,1029.4 1443.0,1061.7 1446.7,1094.0 1450.4,1126.4 1453.9,1158.9 1457.4,1191.3 1460.8,1223.9 1464.1,1256.4 1467.4,1288.9 1470.6,1321.5 1473.7,1354.1 1476.7,1386.8 1479.6,1419.4 1482.5,1452.1 1485.2,1484.8 1487.9,1517.4 1490.5,1550.1 1493.0,1582.8 1495.4,1615.5 1497.8,1648.2 1500.0,1680.9 1502.2,1713.5 1504.3,1746.2 1506.3,1778.8 1508.3,1811.5 1510.1,1844.1 1511.9,1876.7 1513.6,1909.2 1515.2,1941.7 1516.8,1974.2 1518.3,2006.7 1519.7,2039.1 1521.0,2071.5 1522.3,2103.8 1523.5,2136.1  " style="stroke-opacity: 1.000000; stroke-width: 5.0; stroke: rgb(251,106,74); fill: none"  />
<path d="M 1017.4,1915.0 L 1040.2,1895.1 1062.9,1874.8 1085.6,1854.0 1108.0,1832.8 1130.4,1811.1 1152.5,1789.0 1174.3,1766.4 1195.9,1743.4 1217.3,1720.0 1238.3,1696.1 1258.9,1671.9 1279.2,1647.2 1299.1,1622.1 1318.6,1596.6 1337.7,1570.8 1356.4,1544.6 1374.6,1518.0 1392.3,1491.1 1409.5,1463.8 1426.3,1436.3 1442.6,1408.5 1458.3,1380.3 1473.5,1352.0 1488.2,1323.3 1502.4,1294.5 1516.0,1265.5 1529.2,1236.3 1541.7,1206.9 1553.8,1177.4 1565.3,1147.8 1576.3,1118.1 1586.8,1088.3 1596.8,1058.5 1606.3,1028.7 1615.3,998.9 1623.8,969.2 1631.8,939.5 1639.4,910.0 1646.5,880.6  " style="stroke-opacity: 1.000000; stroke-width: 5.0; stroke: rgb(251,106,74); fill: none"  />
<path d="M 1017.4,1915.0 L 1037.7,1897.9 1058.7,1881.2 1080.0,1865.1 1101.9,1849.6 1124.1,1834.8 1146.7,1820.9 1169.6,1807.9 1192.7,1795.8 1216.1,1784.8 1239.6,1774.9 1263.3,1766.2 1287.1,1758.7 1310.9,1752.4 1334.8,1747.5 1358.7,1743.9 1382.5,1741.6 1406.2,1740.8 1429.8,1741.3 1453.2,1743.2 1476.5,1746.6 1499.5,1751.3 1522.3,1757.4 1544.8,1764.9 1567.0,1773.8 1588.9,1784.0 1610.4,1795.4 1631.5,1808.1 1652.3,1822.0 1672.5,1837.1 1692.3,1853.2 1711.7,1870.3 1730.5,1888.4 1748.8,1907.3 1766.5,1927.1 1783.7,1947.5 1800.3,1968.5 1816.3,1990.0 1831.7,2011.8 1846.4,2034.0  " style="stroke-opacity: 1.000000; stroke-width: 5.0; stroke: rgb(251,106,74); fill: none"  />
<path d="M 1017.4,1915.0 L 1041.9,1893.9 1066.5,1872.9 1091.1,1851.9 1115.9,1830.9 1140.7,1809.9 1165.6,1789.0 1190.5,1768.1 1215.6,1747.2 1240.7,1726.4 1265.9,1705.6 1291.1,1684.8 1316.4,1664.1 1341.8,1643.5 1367.3,1622.9 1392.8,1602.3 1418.4,1581.8 1444.0,1561.4 1469.7,1541.0 1495.4,1520.7 1521.2,1500.5 1547.1,1480.3 1573.0,1460.2 1598.9,1440.2 1624.9,1420.2 1650.9,1400.3 1677.0,1380.5 1703.1,1360.8 1729.2,1341.1 1755.4,1321.5 1781.6,1302.0 1807.8,1282.6 1834.0,1263.2 1860.3,1243.9 1886.5,1224.8 1912.8,1205.6 1939.1,1186.6 1965.3,1167.6 1991.6,1148.8 2017.9,1130.0  " style="stroke-opacity: 1.000000; stroke-width: 5.0; stroke: rgb(251,106,74); fill: none"  />
<path d="M 1745.5,2087.2 L 1733.0,2057.5 1720.5,2027.6 1707.8,1997.8 1695.1,1968.0 1682.3,1938.1 1669.5,1908.2 1656.5,1878.3 1643.5,1848.5 1630.4,1818.6 1617.2,1788.7 1603.9,1758.8 1590.6,1729.0 1577.1,1699.1 1563.6,1669.3 1550.0,1639.5 1536.3,1609.7 1522.6,1580.0 1508.7,1550.3 1494.8,1520.6 1480.8,1490.9 1466.7,1461.3 1452.6,1431.7 1438.4,1402.2 1424.1,1372.7 1409.7,1343.3 1395.3,1313.9 1380.8,1284.5 1366.3,1255.2 1351.7,1226.0 1337.0,1196.8 1322.3,1167.7 1307.5,1138.6 1292.7,1109.7 1277.8,1080.7 1262.9,1051.9 1247.9,1023.1 1232.9,994.4 1217.9,965.7 1202.8,937.1  " style="stroke-opacity: 1.000000; stroke-width: 5.0; stroke: rgb(251,106,74); fill: none"  />
<path d="M 1745.5,2087.2 L 1734.8,2062.3 1723.3,2037.6 1711.2,2013.0 1698.3,1988.7 1684.7,1964.8 1670.4,1941.4 1655.4,1918.5 1639.6,1896.3 1623.2,1874.8 1606.0,1854.1 1588.1,1834.2 1569.6,1815.3 1550.3,1797.3 1530.4,1780.3 1509.9,1764.3 1488.7,1749.4 1466.9,1735.7 1444.5,1723.1 1421.5,1711.6 1398.1,1701.4 1374.1,1692.3 1349.6,1684.5 1324.7,1677.8 1299.4,1672.4 1273.7,1668.1 1247.7,1665.1 1221.4,1663.2 1194.9,1662.5 1168.2,1662.8 1141.3,1664.3 1114.4,1666.9 1087.4,1670.4 1060.4,1674.9 1033.5,1680.3 1006.7,1686.6 980.2,1693.7 953.9,1701.5 927.9,1709.9 902.3,1718.9  " style="stroke-opacity: 1.000000; stroke-width: 5.0; stroke: rgb(251,106,74); fill: none"  />
<path d="M 1636.7,2121.6 L 1631.3,2097.7 1625.7,2073.9 1619.9,2050.5 1614.0,2027.6 1607.9,2005.5 1601.7,1984.2 1595.3,1963.8 1588.9,1944.6 1582.4,1926.6 1575.8,1909.9 1569.1,1894.6 1562.4,1880.9 1555.7,1868.7 1549.0,1858.2 1542.2,1849.4 1535.5,1842.3 1528.8,1837.0 1522.2,1833.6 1515.5,1832.0 1509.0,1832.2 1502.5,1834.3 1496.2,1838.2 1489.9,1844.0 1483.7,1851.5 1477.6,1860.8 1471.7,1871.8 1465.9,1884.4 1460.2,1898.7 1454.7,1914.4 1449.4,1931.5 1444.2,1949.9 1439.2,1969.6 1434.4,1990.3 1429.7,2012.0 1425.3,2034.6 1421.0,2057.8 1417.0,2081.6 1413.2,2105.7 1409.6,2130.0  " style="stroke-opacity: 1.000000; stroke-width: 5.0; stroke: rgb(251,106,74); fill: none"  />
<path d="M 902.3,1718.9 L 928.8,1708.9 955.3,1698.2 981.7,1686.9 1008.0,1674.8 1034.1,1662.0 1060.0,1648.5 1085.5,1634.3 1110.6,1619.4 1135.4,1603.7 1159.6,1587.2 1183.4,1570.0 1206.5,1552.1 1229.0,1533.5 1250.9,1514.1 1272.1,1494.0 1292.6,1473.2 1312.3,1451.7 1331.2,1429.6 1349.3,1406.8 1366.6,1383.4 1383.1,1359.4 1398.7,1334.8 1413.4,1309.6 1427.3,1283.9 1440.2,1257.8 1452.3,1231.2 1463.5,1204.2 1473.9,1176.8 1483.3,1149.0 1491.9,1121.0 1499.6,1092.8 1506.6,1064.3 1512.6,1035.7 1518.0,1007.1 1522.5,978.3 1526.3,949.7 1529.4,921.1 1531.8,892.6 1533.6,864.4  " style="stroke-opacity: 1.000000; stroke-width: 5.0; stroke: rgb(251,106,74); fill: none"  />
<path d="M 902.3,1718.9 L 929.0,1709.5 956.1,1700.5 983.6,1692.1 1011.5,1684.3 1039.7,1677.2 1068.1,1670.8 1096.8,1665.2 1125.7,1660.4 1154.7,1656.4 1183.8,1653.3 1213.0,1651.1 1242.3,1649.8 1271.5,1649.5 1300.8,1650.1 1329.9,1651.8 1359.0,1654.4 1387.9,1658.1 1416.6,1662.8 1445.2,1668.5 1473.5,1675.2 1501.6,1682.9 1529.4,1691.6 1556.9,1701.3 1584.0,1711.9 1610.8,1723.5 1637.3,1736.0 1663.3,1749.4 1688.8,1763.6 1714.0,1778.7 1738.6,1794.5 1762.8,1811.1 1786.4,1828.4 1809.5,1846.3 1832.1,1864.7 1854.1,1883.7 1875.5,1903.1 1896.4,1923.0 1916.6,1943.1 1936.2,1963.5  " style="stroke-opacity: 1.000000; stroke-width: 5.0; stroke: rgb(251,106,74); fill: none"  />
<path d="M 902.3,1718.9 L 927.9,1709.9 953.9,1701.5 980.2,1693.7 1006.7,1686.6 1033.5,1680.3 1060.4,1674.9 1087.4,1670.4 1114.4,1666.9 1141.3,1664.3 1168.2,1662.8 1194.9,1662.5 1221.4,1663.2 1247.7,1665.1 1273.7,1668.1 1299.4,1672.4 1324.7,1677.8 1349.6,1684.5 1374.1,1692.3 1398.1,1701.4 1421.5,1711.6 1444.5,1723.1 1466.9,1735.7 1488.7,1749.4 1509.9,1764.3 1530.4,1780.3 1550.3,1797.3 1569.6,1815.3 1588.1,1834.2 1606.0,1854.1 1623.2,1874.8 1639.6,1896.3 1655.4,1918.5 1670.4,1941.4 1684.7,1964.8 1698.3,1988.7 1711.2,2013.0 1723.3,2037.6 1734.8,2062.3 1745.5,2087.2  " style="stroke-opacity: 1.000000; stroke-width: 5.0; stroke: rgb(251,106,74); fill: none"  />
<path d="M 1943.5,1043.4 L 1922.6,1065.3 1901.7,1087.5 1881.0,1110.3 1860.6,1133.4 1840.3,1157.0 1820.2,1181.0 1800.5,1205.4 1781.0,1230.3 1761.9,1255.5 1743.1,1281.2 1724.7,1307.2 1706.7,1333.6 1689.1,1360.4 1672.0,1387.5 1655.3,1415.0 1639.1,1442.7 1623.3,1470.8 1608.1,1499.2 1593.3,1527.9 1579.1,1556.8 1565.4,1586.0 1552.3,1615.4 1539.6,1645.1 1527.6,1674.9 1516.0,1704.9 1505.0,1735.0 1494.6,1765.3 1484.7,1795.7 1475.3,1826.2 1466.5,1856.7 1458.2,1887.3 1450.4,1917.8 1443.2,1948.4 1436.4,1978.9 1430.1,2009.4 1424.3,2039.8 1419.0,2070.0 1414.1,2100.1 1409.6,2130.0  " style="stroke-opacity: 1.000000; stroke-width: 5.0; stroke: rgb(251,106,74); fill: none"  />
<path d="M 1523.5,2136.1 L 1522.3,2103.8 1521.0,2071.5 1519.7,2039.1 1518.3,2006.7 1516.8,1974.2 1515.2,1941.7 1513.6,1909.2 1511.9,1876.7 1510.1,1844.1 1508.3,1811.5 1506.3,1778.8 1504.3,1746.2 1502.2,1713.5 1500.0,1680.9 1497.8,1648.2 1495.4,1615.5 1493.0,1582.8 1490.5,1550.1 1487.9,1517.4 1485.2,1484.8 1482.5,1452.1 1479.6,1419.4 1476.7,1386.8 1473.7,1354.1 1470.6,1321.5 1467.4,1288.9 1464.1,1256.4 1460.8,1223.9 1457.4,1191.3 1453.9,1158.9 1450.4,1126.4 1446.7,1094.0 1443.0,1061.7 1439.3,1029.4 1435.4,997.1 1431.6,964.9 1427.6,932.8 1423.6,900.6 1419.6,868.6  " style="stroke-opacity: 1.000000; stroke-width: 5.0; stroke: rgb(251,106,74); fill: none"  />
<path d="M 2017.9,1130.0 L 1991.6,1148.8 1965.3,1167.6 1939.1,1186.6 1912.8,1205.6 1886.5,1224.8 1860.3,1243.9 1834.0,1263.2 1807.8,1282.6 1781.6,1302.0 1755.4,1321.5 1729.2,1341.1 1703.1,1360.8 1677.0,1380.5 1650.9,1400.3 1624.9,1420.2 1598.9,1440.2 1573.0,1460.2 1547.1,1480.3 1521.2,1500.5 1495.4,1520.7 1469.7,1541.0 1444.0,1561.4 1418.4,1581.8 1392.8,1602.3 1367.3,1622.9 1341.8,1643.5 1316.4,1664.1 1291.1,1684.8 1265.9,1705.6 1240.7,1726.4 1215.6,1747.2 1190.5,1768.1 1165.6,1789.0 1140.7,1809.9 1115.9,1830.9 1091.1,1851.9 1066.5,1872.9 1041.9,1893.9 1017.4,1915.0  " style="stroke-opacity: 1.000000; stroke-width: 5.0; stroke: rgb(251,106,74); fill: none"  />
</g>
<g id="track_0">
<path d="M 2012.0,1878.2 L 1992.2,1863.7 1972.6,1849.4 1953.1,1835.4 1934.0,1821.9 1915.4,1808.8 1897.3,1796.4 1879.9,1784.8 1863.3,1773.8 1847.5,1763.8 1832.7,1754.7 1819.0,1746.6 1806.3,1739.5 1794.8,1733.5 1784.6,1728.6 1775.6,1725.0 1767.9,1722.5 1761.6,1721.2 1756.6,1721.2 1753.0,1722.4 1750.8,1724.9 1750.0,1728.6 1750.7,1733.5 1752.7,1739.6 1756.0,1747.0 1760.8,1755.5 1766.8,1765.1 1774.1,1775.8 1782.6,1787.5 1792.3,1800.2 1803.1,1813.8 1815.0,1828.3 1827.8,1843.5 1841.4,1859.4 1855.9,1875.8 1871.0,1892.8 1886.8,1910.2 1902.9,1927.8 1919.5,1945.7 1936.2,1963.5  " style="stroke-opacity: 1.000000; stroke-width: 5.0; stroke: rgb(107,174,214); fill: none"  />
<path d="M 2012.0,1878.2 L 1992.1,1863.7 1972.3,1849.4 1952.5,1835.6 1933.0,1822.3 1913.8,1809.7 1895.1,1797.7 1877.0,1786.6 1859.5,1776.3 1842.7,1767.1 1826.7,1758.8 1811.7,1751.7 1797.6,1745.8 1784.5,1741.0 1772.5,1737.5 1761.6,1735.3 1751.9,1734.4 1743.4,1734.8 1736.2,1736.6 1730.1,1739.8 1725.4,1744.2 1721.9,1750.1 1719.6,1757.2 1718.7,1765.7 1719.0,1775.4 1720.5,1786.4 1723.3,1798.6 1727.3,1812.0 1732.3,1826.4 1738.5,1841.8 1745.8,1858.3 1754.0,1875.6 1763.2,1893.7 1773.2,1912.5 1784.0,1931.9 1795.5,1951.8 1807.5,1972.0 1820.1,1992.6 1833.1,2013.3 1846.4,2034.0  " style="stroke-opacity: 1.000000; stroke-width: 5.0; stroke: rgb(107,174,214); fill: none"  />
<path d="M 2012.0,1878.2 L 1991.9,1863.6 1971.8,1849.4 1951.7,1835.7 1931.7,1822.5 1912.0,1810.1 1892.5,1798.4 1873.5,1787.7 1855.0,1778.0 1837.1,1769.3 1819.8,1761.7 1803.3,1755.3 1787.6,1750.2 1772.8,1746.4 1758.8,1743.9 1745.8,1742.8 1733.9,1743.1 1722.9,1744.8 1713.1,1748.0 1704.3,1752.5 1696.7,1758.5 1690.1,1766.0 1684.7,1774.8 1680.5,1785.0 1677.3,1796.6 1675.3,1809.4 1674.4,1823.6 1674.6,1838.9 1675.8,1855.4 1678.1,1872.9 1681.3,1891.5 1685.5,1910.9 1690.6,1931.2 1696.5,1952.3 1703.2,1973.9 1710.5,1996.1 1718.5,2018.6 1727.1,2041.4 1736.1,2064.3 1745.5,2087.2  " style="stroke-opacity: 1.000000; stroke-width: 5.0; stroke: rgb(107,174,214); fill: none"  />
<path d="M 2012.0,1878.2 L 1991.4,1863.4 1970.6,1849.0 1949.6,1835.2 1928.5,1822.0 1907.4,1809.7 1886.4,1798.3 1865.4,1787.9 1844.7,1778.5 1824.3,1770.3 1804.2,1763.3 1784.5,1757.5 1765.3,1753.1 1746.6,1750.1 1728.4,1748.5 1710.9,1748.4 1694.0,1749.8 1677.8,1752.6 1662.4,1756.9 1647.6,1762.8 1633.7,1770.1 1620.6,1779.0 1608.3,1789.3 1596.8,1801.1 1586.2,1814.3 1576.4,1828.8 1567.5,1844.7 1559.4,1861.8 1552.2,1880.2 1545.8,1899.7 1540.3,1920.2 1535.5,1941.7 1531.6,1964.1 1528.4,1987.3 1525.9,2011.1 1524.2,2035.5 1523.1,2060.3 1522.7,2085.5 1522.8,2110.8 1523.5,2136.1  " style="stroke-opacity: 1.000000; stroke-width: 5.0; stroke: rgb(107,174,214); fill: none"  />
<path d="M 1533.6,864.4 L 1532.4,888.9 1531.5,913.4 1530.8,937.5 1530.5,961.1 1530.5,984.0 1530.8,1006.2 1531.5,1027.5 1532.6,1047.8 1534.1,1066.9 1536.0,1084.7 1538.4,1101.2 1541.2,1116.2 1544.4,1129.8 1548.1,1141.7 1552.2,1152.0 1556.8,1160.6 1561.9,1167.5 1567.4,1172.6 1573.3,1175.9 1579.7,1177.4 1586.5,1177.1 1593.7,1175.0 1601.3,1171.1 1609.2,1165.5 1617.5,1158.1 1626.2,1149.1 1635.2,1138.5 1644.4,1126.3 1653.9,1112.6 1663.6,1097.5 1673.5,1081.1 1683.6,1063.5 1693.7,1044.8 1704.0,1025.1 1714.3,1004.6 1724.5,983.3 1734.7,961.5 1744.8,939.2 1754.8,916.7  " style="stroke-opacity: 1.000000; stroke-width: 5.0; stroke: rgb(107,174,214); fill: none"  />
<path d="M 1107.1,999.2 L 1122.3,1018.5 1137.4,1037.5 1152.4,1056.1 1167.3,1074.3 1181.8,1091.8 1195.9,1108.5 1209.6,1124.4 1222.7,1139.4 1235.2,1153.3 1247.0,1166.0 1258.1,1177.5 1268.4,1187.7 1277.9,1196.5 1286.5,1203.9 1294.2,1209.8 1300.9,1214.3 1306.7,1217.2 1311.5,1218.5 1315.3,1218.3 1318.0,1216.5 1319.8,1213.2 1320.5,1208.2 1320.2,1201.8 1318.9,1193.8 1316.6,1184.4 1313.3,1173.5 1309.1,1161.2 1304.0,1147.7 1298.1,1132.8 1291.3,1116.9 1283.7,1099.8 1275.4,1081.7 1266.5,1062.8 1256.9,1043.0 1246.8,1022.6 1236.3,1001.7 1225.4,980.4 1214.2,958.8 1202.8,937.1  " style="stroke-opacity: 1.000000; stroke-width: 5.0; stroke: rgb(107,174,214); fill: none"  />
<path d="M 1202.8,937.1 L 1214.2,958.8 1225.4,980.4 1236.3,1001.7 1246.8,1022.6 1256.9,1043.0 1266.5,1062.8 1275.4,1081.7 1283.7,1099.8 1291.3,1116.9 1298.1,1132.8 1304.0,1147.7 1309.1,1161.2 1313.3,1173.5 1316.6,1184.4 1318.9,1193.8 1320.2,1201.8 1320.5,1208.2 1319.8,1213.2 1318.0,1216.5 1315.3,1218.3 1311.5,1218.5 1306.7,1217.2 1300.9,1214.3 1294.2,1209.8 1286.5,1203.9 1277.9,1196.5 1268.4,1187.7 1258.1,1177.5 1247.0,1166.0 1235.2,1153.3 1222.7,1139.4 1209.6,1124.4 1195.9,1108.5 1181.8,1091.8 1167.3,1074.3 1152.4,1056.1 1137.4,1037.5 1122.3,1018.5 1107.1,999.2  " style="stroke-opacity: 1.000000; stroke-width: 5.0; stroke: rgb(107,174,214); fill: none"  />
<path d="M 1646.5,880.6 L 1641.0,904.4 1635.5,928.1 1630.3,951.5 1625.4,974.4 1620.7,996.7 1616.4,1018.2 1612.5,1038.8 1609.0,1058.3 1606.0,1076.8 1603.4,1093.9 1601.4,1109.8 1599.8,1124.2 1598.8,1137.1 1598.4,1148.5 1598.5,1158.2 1599.3,1166.2 1600.6,1172.5 1602.5,1177.1 1605.1,1179.9 1608.2,1181.0 1611.9,1180.3 1616.2,1177.7 1621.1,1173.5 1626.5,1167.5 1632.4,1159.8 1638.9,1150.5 1645.9,1139.6 1653.3,1127.1 1661.2,1113.2 1669.4,1097.9 1678.1,1081.4 1687.0,1063.6 1696.2,1044.8 1705.7,1025.0 1715.4,1004.4 1725.2,983.2 1735.0,961.3 1744.9,939.1 1754.8,916.7  " style="stroke-opacity: 1.000000; stroke-width: 5.0; stroke: rgb(107,174,214); fill: none"  />
<path d="M 1936.2,1963.5 L 1919.5,1945.7 1902.9,1927.8 1886.8,1910.2 1871.0,1892.8 1855.9,1875.8 1841.4,1859.4 1827.8,1843.5 1815.0,1828.3 1803.1,1813.8 1792.3,1800.2 1782.6,1787.5 1774.1,1775.8 1766.8,1765.1 1760.8,1755.5 1756.0,1747.0 1752.7,1739.6 1750.7,1733.5 1750.0,1728.6 1750.8,1724.9 1753.0,1722.4 1756.6,1721.2 1761.6,1721.2 1767.9,1722.5 1775.6,1725.0 1784.6,1728.6 1794.8,1733.5 1806.3,1739.5 1819.0,1746.6 1832.7,1754.7 1847.5,1763.8 1863.3,1773.8 1879.9,1784.8 1897.3,1796.4 1915.4,1808.8 1934.0,1821.9 1953.1,1835.4 1972.6,1849.4 1992.2,1863.7 2012.0,1878.2  " style="stroke-opacity: 1.000000; stroke-width: 5.0; stroke: rgb(107,174,214); fill: none"  />
<path d="M 1936.2,1963.5 L 1919.4,1945.7 1902.6,1928.2 1886.0,1910.9 1869.6,1894.2 1853.5,1878.1 1838.0,1862.6 1822.9,1848.0 1808.5,1834.3 1794.8,1821.6 1781.9,1810.0 1769.8,1799.6 1758.6,1790.3 1748.4,1782.4 1739.2,1775.8 1731.0,1770.6 1723.9,1766.7 1717.9,1764.4 1713.0,1763.4 1709.2,1764.0 1706.6,1766.0 1705.2,1769.5 1704.9,1774.5 1705.8,1780.9 1707.8,1788.7 1711.0,1797.9 1715.2,1808.5 1720.5,1820.3 1726.8,1833.4 1734.0,1847.6 1742.2,1862.9 1751.3,1879.2 1761.2,1896.5 1771.8,1914.5 1783.1,1933.3 1794.9,1952.8 1807.3,1972.6 1820.1,1992.9 1833.2,2013.4 1846.4,2034.0  " style="stroke-opacity: 1.000000; stroke-width: 5.0; stroke: rgb(107,174,214); fill: none"  />
<path d="M 1936.2,1963.5 L 1919.3,1945.7 1902.3,1928.2 1885.3,1911.0 1868.5,1894.5 1851.9,1878.6 1835.6,1863.5 1819.7,1849.3 1804.3,1836.1 1789.5,1824.0 1775.3,1813.0 1761.7,1803.3 1748.9,1794.9 1736.9,1787.9 1725.7,1782.4 1715.4,1778.2 1706.0,1775.6 1697.6,1774.5 1690.1,1775.0 1683.6,1777.0 1678.1,1780.6 1673.6,1785.7 1670.2,1792.3 1667.7,1800.5 1666.3,1810.1 1665.9,1821.2 1666.4,1833.7 1667.9,1847.5 1670.3,1862.6 1673.7,1878.9 1677.9,1896.4 1682.9,1914.9 1688.6,1934.3 1695.1,1954.6 1702.3,1975.6 1710.0,1997.2 1718.3,2019.4 1727.0,2041.8 1736.1,2064.5 1745.5,2087.2  " style="stroke-opacity: 1.000000; stroke-width: 5.0; stroke: rgb(107,174,214); fill: none"  />
<path d="M 1936.2,1963.5 L 1918.9,1945.5 1901.3,1927.8 1883.6,1910.6 1865.7,1894.1 1847.8,1878.3 1830.0,1863.4 1812.2,1849.5 1794.6,1836.7 1777.3,1825.1 1760.2,1814.7 1743.5,1805.7 1727.1,1798.1 1711.2,1791.9 1695.8,1787.2 1680.9,1784.1 1666.6,1782.6 1652.8,1782.6 1639.7,1784.3 1627.2,1787.6 1615.4,1792.6 1604.2,1799.1 1593.8,1807.3 1584.1,1817.0 1575.1,1828.3 1566.9,1841.1 1559.4,1855.4 1552.6,1871.0 1546.6,1888.0 1541.2,1906.3 1536.6,1925.7 1532.7,1946.2 1529.5,1967.7 1526.9,1990.1 1524.9,2013.3 1523.6,2037.1 1522.8,2061.4 1522.6,2086.1 1522.8,2111.1 1523.5,2136.1  " style="stroke-opacity: 1.000000; stroke-width: 5.0; stroke: rgb(107,174,214); fill: none"  />
<path d="M 1754.8,916.7 L 1744.8,939.2 1734.7,961.5 1724.5,983.3 1714.3,1004.6 1704.0,1025.1 1693.7,1044.8 1683.6,1063.5 1673.5,1081.1 1663.6,1097.5 1653.9,1112.6 1644.4,1126.3 1635.2,1138.5 1626.2,1149.1 1617.5,1158.1 1609.2,1165.5 1601.3,1171.1 1593.7,1175.0 1586.5,1177.1 1579.7,1177.4 1573.3,1175.9 1567.4,1172.6 1561.9,1167.5 1556.8,1160.6 1552.2,1152.0 1548.1,1141.7 1544.4,1129.8 1541.2,1116.2 1538.4,1101.2 1536.0,1084.7 1534.1,1066.9 1532.6,1047.8 1531.5,1027.5 1530.8,1006.2 1530.5,984.0 1530.5,961.1 1530.8,937.5 1531.5,913.4 1532.4,888.9 1533.6,864.4  " style="stroke-opacity: 1.000000; stroke-width: 5.0; stroke: rgb(107,174,214); fill: none"  />
<path d="M 1754.8,916.7 L 1744.9,939.1 1735.0,961.3 1725.2,983.2 1715.4,1004.4 1705.7,1025.0 1696.2,1044.8 1687.0,1063.6 1678.1,1081.4 1669.4,1097.9 1661.2,1113.2 1653.3,1127.1 1645.9,1139.6 1638.9,1150.5 1632.4,1159.8 1626.5,1167.5 1621.1,1173.5 1616.2,1177.7 1611.9,1180.3 1608.2,1181.0 1605.1,1179.9 1602.5,1177.1 1600.6,1172.5 1599.3,1166.2 1598.5,1158.2 1598.4,1148.5 1598.8,1137.1 1599.8,1124.2 1601.4,1109.8 1603.4,1093.9 1606.0,1076.8 1609.0,1058.3 1612.5,1038.8 1616.4,1018.2 1620.7,996.7 1625.4,974.4 1630.3,951.5 1635.5,928.1 1641.0,904.4 1646.5,880.6  " style="stroke-opacity: 1.000000; stroke-width: 5.0; stroke: rgb(107,174,214); fill: none"  />
<path d="M 1754.8,916.7 L 1745.0,939.2 1735.5,961.5 1726.2,983.6 1717.2,1005.2 1708.7,1026.3 1700.6,1046.7 1693.1,1066.3 1686.1,1084.9 1679.9,1102.5 1674.3,1118.9 1669.4,1134.2 1665.3,1148.1 1662.0,1160.6 1659.6,1171.7 1658.0,1181.3 1657.3,1189.3 1657.5,1195.8 1658.5,1200.6 1660.5,1203.9 1663.4,1205.4 1667.2,1205.4 1671.9,1203.7 1677.4,1200.3 1683.8,1195.4 1691.0,1188.9 1699.1,1180.9 1707.9,1171.4 1717.4,1160.5 1727.6,1148.2 1738.5,1134.6 1749.9,1119.9 1761.9,1104.0 1774.4,1087.2 1787.2,1069.4 1800.4,1050.9 1813.8,1031.7 1827.4,1012.0 1841.1,991.9 1854.8,971.6  " style="stroke-opacity: 1.000000; stroke-width: 5.0; stroke: rgb(107,174,214); fill: none"  />
<path d="M 1409.6,2130.0 L 1413.0,2105.8 1416.3,2081.7 1419.4,2058.0 1422.2,2034.7 1424.9,2012.1 1427.2,1990.3 1429.3,1969.5 1431.0,1949.7 1432.4,1931.0 1433.4,1913.7 1434.0,1897.7 1434.3,1883.2 1434.1,1870.3 1433.5,1858.9 1432.5,1849.3 1431.0,1841.3 1429.1,1835.2 1426.8,1830.8 1424.0,1828.2 1420.8,1827.4 1417.2,1828.5 1413.2,1831.4 1408.7,1836.1 1403.8,1842.5 1398.6,1850.7 1393.0,1860.6 1387.0,1872.1 1380.7,1885.1 1374.2,1899.7 1367.3,1915.6 1360.2,1932.9 1352.9,1951.4 1345.4,1971.0 1337.7,1991.5 1329.9,2012.9 1322.1,2035.0 1314.2,2057.6 1306.3,2080.6 1298.5,2103.8  " style="stroke-opacity: 1.000000; stroke-width: 5.0; stroke: rgb(107,174,214); fill: none"  />
<path d="M 1409.6,2130.0 L 1412.9,2105.7 1416.1,2081.5 1418.9,2057.5 1421.3,2034.0 1423.4,2011.1 1425.1,1989.0 1426.3,1967.7 1427.0,1947.5 1427.2,1928.3 1426.9,1910.4 1426.0,1893.7 1424.6,1878.5 1422.6,1864.8 1420.0,1852.5 1416.8,1841.9 1413.0,1832.9 1408.5,1825.6 1403.5,1820.1 1397.9,1816.3 1391.7,1814.2 1384.9,1813.9 1377.6,1815.3 1369.7,1818.5 1361.2,1823.4 1352.3,1829.9 1342.9,1838.1 1333.0,1847.9 1322.7,1859.3 1312.0,1872.0 1301.0,1886.2 1289.6,1901.6 1278.1,1918.3 1266.2,1936.0 1254.3,1954.7 1242.2,1974.2 1230.1,1994.5 1217.9,2015.3 1205.9,2036.6 1194.0,2058.1  " style="stroke-opacity: 1.000000; stroke-width: 5.0; stroke: rgb(107,174,214); fill: none"  />
<path d="M 1409.6,2130.0 L 1412.9,2105.5 1415.9,2081.0 1418.5,2056.8 1420.6,2033.0 1422.2,2009.7 1423.2,1987.1 1423.6,1965.2 1423.4,1944.3 1422.6,1924.4 1421.1,1905.7 1418.9,1888.1 1415.9,1871.8 1412.3,1857.0 1407.8,1843.5 1402.7,1831.6 1396.7,1821.2 1390.1,1812.3 1382.6,1805.1 1374.4,1799.6 1365.5,1795.7 1355.9,1793.5 1345.6,1792.9 1334.5,1794.0 1322.9,1796.7 1310.6,1801.0 1297.7,1806.9 1284.3,1814.3 1270.4,1823.2 1256.0,1833.5 1241.2,1845.2 1226.0,1858.1 1210.6,1872.2 1194.9,1887.3 1179.0,1903.5 1162.9,1920.5 1146.9,1938.2 1130.9,1956.5 1114.9,1975.3 1099.2,1994.5  " style="stroke-opacity: 1.000000; stroke-width: 5.0; stroke: rgb(107,174,214); fill: none"  />
<path d="M 1409.6,2130.0 L 1412.9,2105.3 1415.8,2080.5 1418.2,2055.9 1419.9,2031.6 1421.1,2007.8 1421.6,1984.6 1421.4,1962.0 1420.5,1940.3 1418.7,1919.5 1416.2,1899.7 1412.8,1881.0 1408.6,1863.4 1403.5,1847.2 1397.5,1832.2 1390.7,1818.6 1382.9,1806.4 1374.3,1795.7 1364.8,1786.5 1354.4,1778.8 1343.2,1772.6 1331.1,1768.0 1318.2,1764.9 1304.6,1763.4 1290.1,1763.5 1275.0,1765.0 1259.2,1768.0 1242.7,1772.5 1225.6,1778.3 1208.1,1785.5 1190.0,1794.1 1171.5,1803.8 1152.7,1814.7 1133.5,1826.6 1114.2,1839.5 1094.8,1853.3 1075.3,1867.9 1055.8,1883.1 1036.5,1898.8 1017.4,1915.0  " style="stroke-opacity: 1.000000; stroke-width: 5.0; stroke: rgb(107,174,214); fill: none"  />
<path d="M 1409.6,2130.0 L 1412.9,2104.9 1415.7,2079.8 1417.9,2054.8 1419.5,2030.0 1420.3,2005.5 1420.4,1981.6 1419.7,1958.2 1418.1,1935.5 1415.7,1913.6 1412.3,1892.6 1408.0,1872.6 1402.8,1853.6 1396.6,1835.7 1389.4,1818.9 1381.2,1803.4 1372.0,1789.2 1361.8,1776.3 1350.7,1764.7 1338.6,1754.5 1325.5,1745.8 1311.5,1738.4 1296.5,1732.4 1280.7,1727.9 1264.1,1724.8 1246.6,1723.1 1228.4,1722.8 1209.5,1723.8 1189.9,1726.1 1169.7,1729.7 1149.0,1734.6 1127.8,1740.6 1106.3,1747.7 1084.3,1755.9 1062.2,1765.1 1039.9,1775.1 1017.5,1785.9 995.2,1797.4 973.0,1809.5 951.0,1822.1  " style="stroke-opacity: 1.000000; stroke-width: 5.0; stroke: rgb(107,174,214); fill: none"  />
<path d="M 1409.6,2130.0 L 1412.9,2104.6 1415.7,2079.0 1417.8,2053.5 1419.2,2028.1 1419.8,2002.9 1419.6,1978.2 1418.5,1953.9 1416.5,1930.1 1413.6,1907.1 1409.6,1884.7 1404.7,1863.2 1398.7,1842.6 1391.7,1822.9 1383.7,1804.2 1374.5,1786.6 1364.3,1770.1 1353.0,1754.8 1340.7,1740.7 1327.3,1727.7 1312.9,1716.1 1297.5,1705.7 1281.1,1696.5 1263.8,1688.7 1245.6,1682.1 1226.5,1676.8 1206.5,1672.8 1185.8,1670.0 1164.4,1668.4 1142.3,1668.1 1119.6,1668.8 1096.5,1670.7 1072.8,1673.7 1048.8,1677.7 1024.6,1682.6 1000.1,1688.4 975.5,1695.0 951.0,1702.3 926.6,1710.4 902.3,1718.9  " style="stroke-opacity: 1.000000; stroke-width: 5.0; stroke: rgb(107,174,214); fill: none"  />
<path d="M 1298.5,2103.8 L 1306.3,2080.6 1314.2,2057.6 1322.1,2035.0 1329.9,2012.9 1337.7,1991.5 1345.4,1971.0 1352.9,1951.4 1360.2,1932.9 1367.3,1915.6 1374.2,1899.7 1380.7,1885.1 1387.0,1872.1 1393.0,1860.6 1398.6,1850.7 1403.8,1842.5 1408.7,1836.1 1413.2,1831.4 1417.2,1828.5 1420.8,1827.4 1424.0,1828.2 1426.8,1830.8 1429.1,1835.2 1431.0,1841.3 1432.5,1849.3 1433.5,1858.9 1434.1,1870.3 1434.3,1883.2 1434.0,1897.7 1433.4,1913.7 1432.4,1931.0 1431.0,1949.7 1429.3,1969.5 1427.2,1990.3 1424.9,2012.1 1422.2,2034.7 1419.4,2058.0 1416.3,2081.7 1413.0,2105.8 1409.6,2130.0  " style="stroke-opacity: 1.000000; stroke-width: 5.0; stroke: rgb(107,174,214); fill: none"  />
<path d="M 1298.5,2103.8 L 1306.2,2080.5 1313.7,2057.4 1321.0,2034.6 1328.0,2012.2 1334.6,1990.5 1340.8,1969.5 1346.6,1949.3 1351.8,1930.1 1356.5,1912.0 1360.6,1895.2 1364.1,1879.6 1366.9,1865.3 1369.0,1852.6 1370.5,1841.3 1371.2,1831.6 1371.2,1823.5 1370.4,1817.1 1368.9,1812.4 1366.7,1809.3 1363.7,1808.0 1359.9,1808.4 1355.4,1810.5 1350.2,1814.4 1344.2,1819.8 1337.6,1826.9 1330.3,1835.7 1322.4,1845.9 1313.9,1857.6 1304.8,1870.8 1295.2,1885.3 1285.1,1901.0 1274.6,1917.9 1263.7,1935.8 1252.5,1954.6 1241.1,1974.3 1229.4,1994.6 1217.6,2015.4 1205.8,2036.7 1194.0,2058.1  " style="stroke-opacity: 1.000000; stroke-width: 5.0; stroke: rgb(107,174,214); fill: none"  />
<path d="M 1298.5,2103.8 L 1306.3,2079.7 1313.5,2055.4 1320.2,2031.2 1326.1,2007.1 1331.3,1983.2 1335.7,1959.6 1339.2,1936.5 1341.7,1913.9 1343.2,1891.9 1343.6,1870.7 1343.0,1850.2 1341.2,1830.5 1338.3,1811.8 1334.2,1794.1 1328.9,1777.3 1322.4,1761.7 1314.7,1747.2 1305.8,1733.8 1295.7,1721.6 1284.4,1710.6 1271.9,1700.9 1258.3,1692.4 1243.6,1685.1 1227.7,1679.1 1210.9,1674.3 1193.0,1670.7 1174.2,1668.3 1154.5,1667.1 1134.0,1667.1 1112.8,1668.1 1090.9,1670.3 1068.3,1673.4 1045.3,1677.6 1021.9,1682.6 998.2,1688.5 974.2,1695.2 950.2,1702.5 926.2,1710.5 902.3,1718.9  " style="stroke-opacity: 1.000000; stroke-width: 5.0; stroke: rgb(107,174,214); fill: none"  />
<path d="M 1194.0,2058.1 L 1205.9,2036.6 1217.9,2015.3 1230.1,1994.5 1242.2,1974.2 1254.3,1954.7 1266.2,1936.0 1278.1,1918.3 1289.6,1901.6 1301.0,1886.2 1312.0,1872.0 1322.7,1859.3 1333.0,1847.9 1342.9,1838.1 1352.3,1829.9 1361.2,1823.4 1369.7,1818.5 1377.6,1815.3 1384.9,1813.9 1391.7,1814.2 1397.9,1816.3 1403.5,1820.1 1408.5,1825.6 1413.0,1832.9 1416.8,1841.9 1420.0,1852.5 1422.6,1864.8 1424.6,1878.5 1426.0,1893.7 1426.9,1910.4 1427.2,1928.3 1427.0,1947.5 1426.3,1967.7 1425.1,1989.0 1423.4,2011.1 1421.3,2034.0 1418.9,2057.5 1416.1,2081.5 1412.9,2105.7 1409.6,2130.0  " style="stroke-opacity: 1.000000; stroke-width: 5.0; stroke: rgb(107,174,214); fill: none"  />
<path d="M 1194.0,2058.1 L 1205.8,2036.7 1217.6,2015.4 1229.4,1994.6 1241.1,1974.3 1252.5,1954.6 1263.7,1935.8 1274.6,1917.9 1285.1,1901.0 1295.2,1885.3 1304.8,1870.8 1313.9,1857.6 1322.4,1845.9 1330.3,1835.7 1337.6,1826.9 1344.2,1819.8 1350.2,1814.4 1355.4,1810.5 1359.9,1808.4 1363.7,1808.0 1366.7,1809.3 1368.9,1812.4 1370.4,1817.1 1371.2,1823.5 1371.2,1831.6 1370.5,1841.3 1369.0,1852.6 1366.9,1865.3 1364.1,1879.6 1360.6,1895.2 1356.5,1912.0 1351.8,1930.1 1346.6,1949.3 1340.8,1969.5 1334.6,1990.5 1328.0,2012.2 1321.0,2034.6 1313.7,2057.4 1306.2,2080.5 1298.5,2103.8  " style="stroke-opacity: 1.000000; stroke-width: 5.0; stroke: rgb(107,174,214); fill: none"  />
<path d="M 1194.0,2058.1 L 1205.7,2036.6 1217.2,2015.2 1228.4,1994.1 1239.3,1973.3 1249.7,1953.1 1259.6,1933.5 1268.8,1914.7 1277.4,1896.7 1285.2,1879.8 1292.3,1863.9 1298.5,1849.2 1303.8,1835.7 1308.2,1823.5 1311.6,1812.7 1314.1,1803.3 1315.5,1795.3 1315.9,1788.9 1315.3,1784.0 1313.6,1780.6 1310.8,1778.7 1307.1,1778.5 1302.3,1779.7 1296.4,1782.5 1289.6,1786.9 1281.8,1792.7 1273.1,1800.0 1263.5,1808.6 1253.0,1818.7 1241.7,1830.0 1229.7,1842.5 1217.0,1856.2 1203.6,1870.9 1189.7,1886.6 1175.3,1903.1 1160.5,1920.4 1145.4,1938.3 1130.1,1956.7 1114.7,1975.5 1099.2,1994.5  " style="stroke-opacity: 1.000000; stroke-width: 5.0; stroke: rgb(107,174,214); fill: none"  />
<path d="M 1194.0,2058.1 L 1205.7,2036.5 1217.1,2014.9 1228.2,1993.5 1238.7,1972.3 1248.7,1951.6 1258.0,1931.5 1266.6,1912.0 1274.4,1893.3 1281.4,1875.4 1287.4,1858.5 1292.4,1842.7 1296.4,1827.9 1299.4,1814.3 1301.2,1801.9 1301.9,1790.9 1301.5,1781.1 1300.0,1772.8 1297.2,1765.8 1293.3,1760.2 1288.2,1756.1 1282.0,1753.4 1274.6,1752.2 1266.1,1752.4 1256.4,1754.0 1245.8,1757.0 1234.1,1761.4 1221.4,1767.1 1207.8,1774.1 1193.3,1782.3 1178.0,1791.6 1161.9,1802.1 1145.2,1813.6 1128.0,1826.1 1110.2,1839.4 1092.0,1853.4 1073.5,1868.1 1054.8,1883.4 1036.1,1899.0 1017.4,1915.0  " style="stroke-opacity: 1.000000; stroke-width: 5.0; stroke: rgb(107,174,214); fill: none"  />
<path d="M 1846.4,2034.0 L 1833.1,2013.3 1820.1,1992.6 1807.5,1972.0 1795.5,1951.8 1784.0,1931.9 1773.2,1912.5 1763.2,1893.7 1754.0,1875.6 1745.8,1858.3 1738.5,1841.8 1732.3,1826.4 1727.3,1812.0 1723.3,1798.6 1720.5,1786.4 1719.0,1775.4 1718.7,1765.7 1719.6,1757.2 1721.9,1750.1 1725.4,1744.2 1730.1,1739.8 1736.2,1736.6 1743.4,1734.8 1751.9,1734.4 1761.6,1735.3 1772.5,1737.5 1784.5,1741.0 1797.6,1745.8 1811.7,1751.7 1826.7,1758.8 1842.7,1767.1 1859.5,1776.3 1877.0,1786.6 1895.1,1797.7 1913.8,1809.7 1933.0,1822.3 1952.5,1835.6 1972.3,1849.4 1992.1,1863.7 2012.0,1878.2  " style="stroke-opacity: 1.000000; stroke-width: 5.0; stroke: rgb(107,174,214); fill: none"  />
<path d="M 1846.4,2034.0 L 1833.2,2013.4 1820.1,1992.9 1807.3,1972.6 1794.9,1952.8 1783.1,1933.3 1771.8,1914.5 1761.2,1896.5 1751.3,1879.2 1742.2,1862.9 1734.0,1847.6 1726.8,1833.4 1720.5,1820.3 1715.2,1808.5 1711.0,1797.9 1707.8,1788.7 1705.8,1780.9 1704.9,1774.5 1705.2,1769.5 1706.6,1766.0 1709.2,1764.0 1713.0,1763.4 1717.9,1764.4 1723.9,1766.7 1731.0,1770.6 1739.2,1775.8 1748.4,1782.4 1758.6,1790.3 1769.8,1799.6 1781.9,1810.0 1794.8,1821.6 1808.5,1834.3 1822.9,1848.0 1838.0,1862.6 1853.5,1878.1 1869.6,1894.2 1886.0,1910.9 1902.6,1928.2 1919.4,1945.7 1936.2,1963.5  " style="stroke-opacity: 1.000000; stroke-width: 5.0; stroke: rgb(107,174,214); fill: none"  />
<path d="M 1846.4,2034.0 L 1832.8,2013.3 1819.0,1992.9 1805.0,1973.0 1790.9,1953.6 1776.7,1935.1 1762.6,1917.3 1748.6,1900.6 1734.7,1885.0 1721.0,1870.5 1707.5,1857.4 1694.3,1845.6 1681.3,1835.3 1668.8,1826.5 1656.6,1819.3 1644.9,1813.7 1633.5,1809.8 1622.7,1807.5 1612.4,1807.0 1602.6,1808.2 1593.3,1811.2 1584.6,1815.8 1576.4,1822.2 1568.8,1830.2 1561.8,1840.0 1555.4,1851.3 1549.6,1864.2 1544.4,1878.6 1539.8,1894.5 1535.7,1911.7 1532.2,1930.2 1529.3,1949.9 1526.9,1970.7 1525.0,1992.5 1523.7,2015.1 1522.8,2038.4 1522.4,2062.3 1522.4,2086.7 1522.8,2111.3 1523.5,2136.1  " style="stroke-opacity: 1.000000; stroke-width: 5.0; stroke: rgb(107,174,214); fill: none"  />
<path d="M 1854.8,971.6 L 1841.1,991.9 1827.4,1012.0 1813.8,1031.7 1800.4,1050.9 1787.2,1069.4 1774.4,1087.2 1761.9,1104.0 1749.9,1119.9 1738.5,1134.6 1727.6,1148.2 1717.4,1160.5 1707.9,1171.4 1699.1,1180.9 1691.0,1188.9 1683.8,1195.4 1677.4,1200.3 1671.9,1203.7 1667.2,1205.4 1663.4,1205.4 1660.5,1203.9 1658.5,1200.6 1657.5,1195.8 1657.3,1189.3 1658.0,1181.3 1659.6,1171.7 1662.0,1160.6 1665.3,1148.1 1669.4,1134.2 1674.3,1118.9 1679.9,1102.5 1686.1,1084.9 1693.1,1066.3 1700.6,1046.7 1708.7,1026.3 1717.2,1005.2 1726.2,983.6 1735.5,961.5 1745.0,939.2 1754.8,916.7  " style="stroke-opacity: 1.000000; stroke-width: 5.0; stroke: rgb(107,174,214); fill: none"  />
<path d="M 1099.2,1994.5 L 1114.9,1975.3 1130.9,1956.5 1146.9,1938.2 1162.9,1920.5 1179.0,1903.5 1194.9,1887.3 1210.6,1872.2 1226.0,1858.1 1241.2,1845.2 1256.0,1833.5 1270.4,1823.2 1284.3,1814.3 1297.7,1806.9 1310.6,1801.0 1322.9,1796.7 1334.5,1794.0 1345.6,1792.9 1355.9,1793.5 1365.5,1795.7 1374.4,1799.6 1382.6,1805.1 1390.1,1812.3 1396.7,1821.2 1402.7,1831.6 1407.8,1843.5 1412.3,1857.0 1415.9,1871.8 1418.9,1888.1 1421.1,1905.7 1422.6,1924.4 1423.4,1944.3 1423.6,1965.2 1423.2,1987.1 1422.2,2009.7 1420.6,2033.0 1418.5,2056.8 1415.9,2081.0 1412.9,2105.5 1409.6,2130.0  " style="stroke-opacity: 1.000000; stroke-width: 5.0; stroke: rgb(107,174,214); fill: none"  />
<path d="M 1099.2,1994.5 L 1114.7,1975.5 1130.1,1956.7 1145.4,1938.3 1160.5,1920.4 1175.3,1903.1 1189.7,1886.6 1203.6,1870.9 1217.0,1856.2 1229.7,1842.5 1241.7,1830.0 1253.0,1818.7 1263.5,1808.6 1273.1,1800.0 1281.8,1792.7 1289.6,1786.9 1296.4,1782.5 1302.3,1779.7 1307.1,1778.5 1310.8,1778.7 1313.6,1780.6 1315.3,1784.0 1315.9,1788.9 1315.5,1795.3 1314.1,1803.3 1311.6,1812.7 1308.2,1823.5 1303.8,1835.7 1298.5,1849.2 1292.3,1863.9 1285.2,1879.8 1277.4,1896.7 1268.8,1914.7 1259.6,1933.5 1249.7,1953.1 1239.3,1973.3 1228.4,1994.1 1217.2,2015.2 1205.7,2036.6 1194.0,2058.1  " style="stroke-opacity: 1.000000; stroke-width: 5.0; stroke: rgb(107,174,214); fill: none"  />
<path d="M 1099.2,1994.5 L 1114.6,1975.4 1129.8,1956.4 1144.6,1937.6 1159.0,1919.1 1172.8,1901.1 1186.0,1883.6 1198.5,1866.7 1210.1,1850.6 1220.9,1835.3 1230.6,1821.0 1239.4,1807.6 1247.0,1795.3 1253.5,1784.1 1258.8,1774.0 1262.9,1765.2 1265.7,1757.6 1267.3,1751.4 1267.5,1746.4 1266.5,1742.8 1264.1,1740.5 1260.4,1739.5 1255.5,1739.9 1249.3,1741.7 1241.8,1744.7 1233.1,1749.0 1223.2,1754.6 1212.2,1761.5 1200.1,1769.4 1187.0,1778.6 1172.9,1788.7 1157.9,1799.9 1142.2,1812.0 1125.7,1825.0 1108.6,1838.7 1090.9,1853.0 1072.9,1868.0 1054.5,1883.3 1036.0,1899.0 1017.4,1915.0  " style="stroke-opacity: 1.000000; stroke-width: 5.0; stroke: rgb(107,174,214); fill: none"  />
<path d="M 1099.2,1994.5 L 1114.7,1975.1 1129.8,1955.7 1144.4,1936.2 1158.4,1916.8 1171.8,1897.6 1184.2,1878.7 1195.8,1860.2 1206.4,1842.2 1215.9,1824.7 1224.2,1807.8 1231.3,1791.6 1237.1,1776.1 1241.6,1761.4 1244.7,1747.6 1246.4,1734.7 1246.6,1722.7 1245.4,1711.7 1242.7,1701.7 1238.6,1692.8 1232.9,1684.9 1225.8,1678.0 1217.2,1672.2 1207.2,1667.5 1195.8,1663.9 1183.0,1661.3 1168.9,1659.7 1153.6,1659.2 1137.1,1659.7 1119.5,1661.2 1100.8,1663.6 1081.2,1666.9 1060.7,1671.0 1039.4,1676.0 1017.5,1681.7 995.0,1688.1 972.1,1695.0 949.0,1702.6 925.6,1710.6 902.3,1718.9  " style="stroke-opacity: 1.000000; stroke-width: 5.0; stroke: rgb(107,174,214); fill: none"  />
<path d="M 1017.4,1915.0 L 1036.5,1898.8 1055.8,1883.1 1075.3,1867.9 1094.8,1853.3 1114.2,1839.5 1133.5,1826.6 1152.7,1814.7 1171.5,1803.8 1190.0,1794.1 1208.1,1785.5 1225.6,1778.3 1242.7,1772.5 1259.2,1768.0 1275.0,1765.0 1290.1,1763.5 1304.6,1763.4 1318.2,1764.9 1331.1,1768.0 1343.2,1772.6 1354.4,1778.8 1364.8,1786.5 1374.3,1795.7 1382.9,1806.4 1390.7,1818.6 1397.5,1832.2 1403.5,1847.2 1408.6,1863.4 1412.8,1881.0 1416.2,1899.7 1418.7,1919.5 1420.5,1940.3 1421.4,1962.0 1421.6,1984.6 1421.1,2007.8 1419.9,2031.6 1418.2,2055.9 1415.8,2080.5 1412.9,2105.3 1409.6,2130.0  " style="stroke-opacity: 1.000000; stroke-width: 5.0; stroke: rgb(107,174,214); fill: none"  />
<path d="M 1017.4,1915.0 L 1036.1,1899.0 1054.8,1883.4 1073.5,1868.1 1092.0,1853.4 1110.2,1839.4 1128.0,1826.1 1145.2,1813.6 1161.9,1802.1 1178.0,1791.6 1193.3,1782.3 1207.8,1774.1 1221.4,1767.1 1234.1,1761.4 1245.8,1757.0 1256.4,1754.0 1266.1,1752.4 1274.6,1752.2 1282.0,1753.4 1288.2,1756.1 1293.3,1760.2 1297.2,1765.8 1300.0,1772.8 1301.5,1781.1 1301.9,1790.9 1301.2,1801.9 1299.4,1814.3 1296.4,1827.9 1292.4,1842.7 1287.4,1858.5 1281.4,1875.4 1274.4,1893.3 1266.6,1912.0 1258.0,1931.5 1248.7,1951.6 1238.7,1972.3 1228.2,1993.5 1217.1,2014.9 1205.7,2036.5 1194.0,2058.1  " style="stroke-opacity: 1.000000; stroke-width: 5.0; stroke: rgb(107,174,214); fill: none"  />
<path d="M 1017.4,1915.0 L 1036.0,1899.0 1054.5,1883.3 1072.9,1868.0 1090.9,1853.0 1108.6,1838.7 1125.7,1825.0 1142.2,1812.0 1157.9,1799.9 1172.9,1788.7 1187.0,1778.6 1200.1,1769.4 1212.2,1761.5 1223.2,1754.6 1233.1,1749.0 1241.8,1744.7 1249.3,1741.7 1255.5,1739.9 1260.4,1739.5 1264.1,1740.5 1266.5,1742.8 1267.5,1746.4 1267.3,1751.4 1265.7,1757.6 1262.9,1765.2 1258.8,1774.0 1253.5,1784.1 1247.0,1795.3 1239.4,1807.6 1230.6,1821.0 1220.9,1835.3 1210.1,1850.6 1198.5,1866.7 1186.0,1883.6 1172.8,1901.1 1159.0,1919.1 1144.6,1937.6 1129.8,1956.4 1114.6,1975.4 1099.2,1994.5  " style="stroke-opacity: 1.000000; stroke-width: 5.0; stroke: rgb(107,174,214); fill: none"  />
<path d="M 1745.5,2087.2 L 1736.1,2064.3 1727.1,2041.4 1718.5,2018.6 1710.5,1996.1 1703.2,1973.9 1696.5,1952.3 1690.6,1931.2 1685.5,1910.9 1681.3,1891.5 1678.1,1872.9 1675.8,1855.4 1674.6,1838.9 1674.4,1823.6 1675.3,1809.4 1677.3,1796.6 1680.5,1785.0 1684.7,1774.8 1690.1,1766.0 1696.7,1758.5 1704.3,1752.5 1713.1,1748.0 1722.9,1744.8 1733.9,1743.1 1745.8,1742.8 1758.8,1743.9 1772.8,1746.4 1787.6,1750.2 1803.3,1755.3 1819.8,1761.7 1837.1,1769.3 1855.0,1778.0 1873.5,1787.7 1892.5,1798.4 1912.0,1810.1 1931.7,1822.5 1951.7,1835.7 1971.8,1849.4 1991.9,1863.6 2012.0,1878.2  " style="stroke-opacity: 1.000000; stroke-width: 5.0; stroke: rgb(107,174,214); fill: none"  />
<path d="M 1745.5,2087.2 L 1736.1,2064.5 1727.0,2041.8 1718.3,2019.4 1710.0,1997.2 1702.3,1975.6 1695.1,1954.6 1688.6,1934.3 1682.9,1914.9 1677.9,1896.4 1673.7,1878.9 1670.3,1862.6 1667.9,1847.5 1666.4,1833.7 1665.9,1821.2 1666.3,1810.1 1667.7,1800.5 1670.2,1792.3 1673.6,1785.7 1678.1,1780.6 1683.6,1777.0 1690.1,1775.0 1697.6,1774.5 1706.0,1775.6 1715.4,1778.2 1725.7,1782.4 1736.9,1787.9 1748.9,1794.9 1761.7,1803.3 1775.3,1813.0 1789.5,1824.0 1804.3,1836.1 1819.7,1849.3 1835.6,1863.5 1851.9,1878.6 1868.5,1894.5 1885.3,1911.0 1902.3,1928.2 1919.3,1945.7 1936.2,1963.5  " style="stroke-opacity: 1.000000; stroke-width: 5.0; stroke: rgb(107,174,214); fill: none"  />
<path d="M 1745.5,2087.2 L 1735.9,2064.6 1726.2,2042.2 1716.3,2020.2 1706.4,1998.8 1696.4,1978.1 1686.5,1958.2 1676.6,1939.3 1666.8,1921.6 1657.2,1905.0 1647.7,1889.8 1638.5,1876.0 1629.4,1863.6 1620.6,1852.8 1612.1,1843.7 1603.9,1836.2 1596.0,1830.4 1588.5,1826.5 1581.4,1824.3 1574.6,1823.9 1568.2,1825.3 1562.2,1828.5 1556.6,1833.5 1551.5,1840.3 1546.7,1848.8 1542.4,1859.0 1538.5,1870.9 1535.1,1884.4 1532.1,1899.4 1529.4,1915.8 1527.2,1933.6 1525.4,1952.7 1524.0,1972.9 1523.0,1994.2 1522.3,2016.4 1521.9,2039.3 1521.9,2063.0 1522.2,2087.1 1522.7,2111.5 1523.5,2136.1  " style="stroke-opacity: 1.000000; stroke-width: 5.0; stroke: rgb(107,174,214); fill: none"  />
<path d="M 951.0,1822.1 L 973.0,1809.5 995.2,1797.4 1017.5,1785.9 1039.9,1775.1 1062.2,1765.1 1084.3,1755.9 1106.3,1747.7 1127.8,1740.6 1149.0,1734.6 1169.7,1729.7 1189.9,1726.1 1209.5,1723.8 1228.4,1722.8 1246.6,1723.1 1264.1,1724.8 1280.7,1727.9 1296.5,1732.4 1311.5,1738.4 1325.5,1745.8 1338.6,1754.5 1350.7,1764.7 1361.8,1776.3 1372.0,1789.2 1381.2,1803.4 1389.4,1818.9 1396.6,1835.7 1402.8,1853.6 1408.0,1872.6 1412.3,1892.6 1415.7,1913.6 1418.1,1935.5 1419.7,1958.2 1420.4,1981.6 1420.3,2005.5 1419.5,2030.0 1417.9,2054.8 1415.7,2079.8 1412.9,2104.9 1409.6,2130.0  " style="stroke-opacity: 1.000000; stroke-width: 5.0; stroke: rgb(107,174,214); fill: none"  />
<path d="M 951.0,1822.1 L 972.1,1809.7 993.0,1797.2 1013.5,1784.8 1033.5,1772.6 1052.8,1760.6 1071.3,1748.8 1088.9,1737.4 1105.4,1726.4 1120.8,1715.9 1135.0,1705.9 1147.9,1696.4 1159.4,1687.6 1169.4,1679.3 1177.9,1671.8 1184.8,1665.0 1190.1,1658.9 1193.8,1653.6 1195.8,1649.0 1196.1,1645.2 1194.7,1642.3 1191.6,1640.1 1186.8,1638.7 1180.3,1638.1 1172.3,1638.4 1162.6,1639.4 1151.4,1641.1 1138.7,1643.7 1124.5,1646.9 1109.1,1650.8 1092.3,1655.4 1074.4,1660.6 1055.4,1666.4 1035.4,1672.7 1014.5,1679.5 993.0,1686.8 970.8,1694.4 948.2,1702.4 925.3,1710.6 902.3,1718.9  " style="stroke-opacity: 1.000000; stroke-width: 5.0; stroke: rgb(107,174,214); fill: none"  />
<path d="M 902.3,1718.9 L 926.6,1710.4 951.0,1702.3 975.5,1695.0 1000.1,1688.4 1024.6,1682.6 1048.8,1677.7 1072.8,1673.7 1096.5,1670.7 1119.6,1668.8 1142.3,1668.1 1164.4,1668.4 1185.8,1670.0 1206.5,1672.8 1226.5,1676.8 1245.6,1682.1 1263.8,1688.7 1281.1,1696.5 1297.5,1705.7 1312.9,1716.1 1327.3,1727.7 1340.7,1740.7 1353.0,1754.8 1364.3,1770.1 1374.5,1786.6 1383.7,1804.2 1391.7,1822.9 1398.7,1842.6 1404.7,1863.2 1409.6,1884.7 1413.6,1907.1 1416.5,1930.1 1418.5,1953.9 1419.6,1978.2 1419.8,2002.9 1419.2,2028.1 1417.8,2053.5 1415.7,2079.0 1412.9,2104.6 1409.6,2130.0  " style="stroke-opacity: 1.000000; stroke-width: 5.0; stroke: rgb(107,174,214); fill: none"  />
<path d="M 902.3,1718.9 L 926.2,1710.5 950.2,1702.5 974.2,1695.2 998.2,1688.5 1021.9,1682.6 1045.3,1677.6 1068.3,1673.4 1090.9,1670.3 1112.8,1668.1 1134.0,1667.1 1154.5,1667.1 1174.2,1668.3 1193.0,1670.7 1210.9,1674.3 1227.7,1679.1 1243.6,1685.1 1258.3,1692.4 1271.9,1700.9 1284.4,1710.6 1295.7,1721.6 1305.8,1733.8 1314.7,1747.2 1322.4,1761.7 1328.9,1777.3 1334.2,1794.1 1338.3,1811.8 1341.2,1830.5 1343.0,1850.2 1343.6,1870.7 1343.2,1891.9 1341.7,1913.9 1339.2,1936.5 1335.7,1959.6 1331.3,1983.2 1326.1,2007.1 1320.2,2031.2 1313.5,2055.4 1306.3,2079.7 1298.5,2103.8  " style="stroke-opacity: 1.000000; stroke-width: 5.0; stroke: rgb(107,174,214); fill: none"  />
<path d="M 902.3,1718.9 L 925.6,1710.6 949.0,1702.6 972.1,1695.0 995.0,1688.1 1017.5,1681.7 1039.4,1676.0 1060.7,1671.0 1081.2,1666.9 1100.8,1663.6 1119.5,1661.2 1137.1,1659.7 1153.6,1659.2 1168.9,1659.7 1183.0,1661.3 1195.8,1663.9 1207.2,1667.5 1217.2,1672.2 1225.8,1678.0 1232.9,1684.9 1238.6,1692.8 1242.7,1701.7 1245.4,1711.7 1246.6,1722.7 1246.4,1734.7 1244.7,1747.6 1241.6,1761.4 1237.1,1776.1 1231.3,1791.6 1224.2,1807.8 1215.9,1824.7 1206.4,1842.2 1195.8,1860.2 1184.2,1878.7 1171.8,1897.6 1158.4,1916.8 1144.4,1936.2 1129.8,1955.7 1114.7,1975.1 1099.2,1994.5  " style="stroke-opacity: 1.000000; stroke-width: 5.0; stroke: rgb(107,174,214); fill: none"  />
<path d="M 902.3,1718.9 L 925.3,1710.6 948.2,1702.4 970.8,1694.4 993.0,1686.8 1014.5,1679.5 1035.4,1672.7 1055.4,1666.4 1074.4,1660.6 1092.3,1655.4 1109.1,1650.8 1124.5,1646.9 1138.7,1643.7 1151.4,1641.1 1162.6,1639.4 1172.3,1638.4 1180.3,1638.1 1186.8,1638.7 1191.6,1640.1 1194.7,1642.3 1196.1,1645.2 1195.8,1649.0 1193.8,1653.6 1190.1,1658.9 1184.8,1665.0 1177.9,1671.8 1169.4,1679.3 1159.4,1687.6 1147.9,1696.4 1135.0,1705.9 1120.8,1715.9 1105.4,1726.4 1088.9,1737.4 1071.3,1748.8 1052.8,1760.6 1033.5,1772.6 1013.5,1784.8 993.0,1797.2 972.1,1809.7 951.0,1822.1  " style="stroke-opacity: 1.000000; stroke-width: 5.0; stroke: rgb(107,174,214); fill: none"  />
<path d="M 1523.5,2136.1 L 1522.8,2110.8 1522.7,2085.5 1523.1,2060.3 1524.2,2035.5 1525.9,2011.1 1528.4,1987.3 1531.6,1964.1 1535.5,1941.7 1540.3,1920.2 1545.8,1899.7 1552.2,1880.2 1559.4,1861.8 1567.5,1844.7 1576.4,1828.8 1586.2,1814.3 1596.8,1801.1 1608.3,1789.3 1620.6,1779.0 1633.7,1770.1 1647.6,1762.8 1662.4,1756.9 1677.8,1752.6 1694.0,1749.8 1710.9,1748.4 1728.4,1748.5 1746.6,1750.1 1765.3,1753.1 1784.5,1757.5 1804.2,1763.3 1824.3,1770.3 1844.7,1778.5 1865.4,1787.9 1886.4,1798.3 1907.4,1809.7 1928.5,1822.0 1949.6,1835.2 1970.6,1849.0 1991.4,1863.4 2012.0,1878.2  " style="stroke-opacity: 1.000000; stroke-width: 5.0; stroke: rgb(107,174,214); fill: none"  />
<path d="M 1523.5,2136.1 L 1522.8,2111.1 1522.6,2086.1 1522.8,2061.4 1523.6,2037.1 1524.9,2013.3 1526.9,1990.1 1529.5,1967.7 1532.7,1946.2 1536.6,1925.7 1541.2,1906.3 1546.6,1888.0 1552.6,1871.0 1559.4,1855.4 1566.9,1841.1 1575.1,1828.3 1584.1,1817.0 1593.8,1807.3 1604.2,1799.1 1615.4,1792.6 1627.2,1787.6 1639.7,1784.3 1652.8,1782.6 1666.6,1782.6 1680.9,1784.1 1695.8,1787.2 1711.2,1791.9 1727.1,1798.1 1743.5,1805.7 1760.2,1814.7 1777.3,1825.1 1794.6,1836.7 1812.2,1849.5 1830.0,1863.4 1847.8,1878.3 1865.7,1894.1 1883.6,1910.6 1901.3,1927.8 1918.9,1945.5 1936.2,1963.5  " style="stroke-opacity: 1.000000; stroke-width: 5.0; stroke: rgb(107,174,214); fill: none"  />
<path d="M 1523.5,2136.1 L 1522.8,2111.3 1522.4,2086.7 1522.4,2062.3 1522.8,2038.4 1523.7,2015.1 1525.0,1992.5 1526.9,1970.7 1529.3,1949.9 1532.2,1930.2 1535.7,1911.7 1539.8,1894.5 1544.4,1878.6 1549.6,1864.2 1555.4,1851.3 1561.8,1840.0 1568.8,1830.2 1576.4,1822.2 1584.6,1815.8 1593.3,1811.2 1602.6,1808.2 1612.4,1807.0 1622.7,1807.5 1633.5,1809.8 1644.9,1813.7 1656.6,1819.3 1668.8,1826.5 1681.3,1835.3 1694.3,1845.6 1707.5,1857.4 1721.0,1870.5 1734.7,1885.0 1748.6,1900.6 1762.6,1917.3 1776.7,1935.1 1790.9,1953.6 1805.0,1973.0 1819.0,1992.9 1832.8,2013.3 1846.4,2034.0  " style="stroke-opacity: 1.000000; stroke-width: 5.0; stroke: rgb(107,174,214); fill: none"  />
<path d="M 1523.5,2136.1 L 1522.7,2111.5 1522.2,2087.1 1521.9,2063.0 1521.9,2039.3 1522.3,2016.4 1523.0,1994.2 1524.0,1972.9 1525.4,1952.7 1527.2,1933.6 1529.4,1915.8 1532.1,1899.4 1535.1,1884.4 1538.5,1870.9 1542.4,1859.0 1546.7,1848.8 1551.5,1840.3 1556.6,1833.5 1562.2,1828.5 1568.2,1825.3 1574.6,1823.9 1581.4,1824.3 1588.5,1826.5 1596.0,1830.4 1603.9,1836.2 1612.1,1843.7 1620.6,1852.8 1629.4,1863.6 1638.5,1876.0 1647.7,1889.8 1657.2,1905.0 1666.8,1921.6 1676.6,1939.3 1686.5,1958.2 1696.4,1978.1 1706.4,1998.8 1716.3,2020.2 1726.2,2042.2 1735.9,2064.6 1745.5,2087.2  " style="stroke-opacity: 1.000000; stroke-width: 5.0; stroke: rgb(107,174,214); fill: none"  />
</g>
<defs>
<pattern id="hline-sparse" width="10" height="10" patternTransform="rotate(0 0 0)" patternUnits="userSpaceOnUse"><line x1="0" y1="0" x2="10" y2="0" style="stroke:black;stroke-width:2" /></pattern>
<pattern id="checker" width="10" height="10" patternTransform="rotate(45 0 0)" patternUnits="userSpaceOnUse"><line x1="0" y1="0" x2="10" y2="0" style="stroke:black;stroke-width:5" /><line x1="0" y1="0" x2="0" y2="10" style="stroke:black;stroke-width:4" /></pattern>
<pattern id="vline-sparse" width="10" height="10" patternTransform="rotate(0 0 0)" patternUnits="userSpaceOnUse"><line x1="0" y1="0" x2="0" y2="10" style="stroke:black;stroke-width:2" /></pattern>
<pattern id="hline" width="10" height="10" patternTransform="rotate(0 0 0)" patternUnits="userSpaceOnUse"><line x1="0" y1="0" x2="10" y2="0" style="stroke:black;stroke-width:5" /></pattern>
<pattern id="vline" width="10" height="10" patternTransform="rotate(0 0 0)" patternUnits="userSpaceOnUse"><line x1="0" y1="0" x2="0" y2="10" style="stroke:black;stroke-width:5" /></pattern>
<pattern id="checker" width="10" height="10" patternTransform="rotate(45 0 0)" patternUnits="userSpaceOnUse"><line x1="0" y1="0" x2="10" y2="0" style="stroke:black;stroke-width:2" /><line x1="0" y1="0" x2="0" y2="10" style="stroke:black;stroke-width:2" /></pattern>
</defs>
</svg>
