<?xml version="1.0" encoding="utf-8" standalone="no"?>
<!DOCTYPE svg PUBLIC "-//W3C//DTD SVG 1.1//EN" "http://www.w3.org/Graphics/SVG/1.1/DTD/svg11.dtd">
<svg width="3000px" height="3000px" version="1.1" xmlns="http://www.w3.org/2000/svg" xmlns:xlink="http://www.w3.org/1999/xlink">
<g id="bg">
<rect x="0" y="0" width="3000px" height="3000px" style="fill:rgb(255,255,255);"/>
</g>
<g id="ideograms">
<path d="M1500.000,535.000 A965.000,965.000 40.000 0,1 1601.714,540.376 L1618.579,381.267 A1125.000,1125.000 0.000 0,0 1500.000,375.000 Z" style="stroke-width:2.0;stroke:rgb(115,115,115);stroke-linecap:round;fill:rgb(153,204,255);" />
<text x="1635.1" y="307.6" font-size="195.0px" font-family="CMUBright-Bold" style="text-anchor:start;fill:rgb(0,0,0);" transform="rotate(273.0,1635.1,307.6)" >5</text>
<path d="M1500.000,535.000 A965.000,965.000 40.000 0,1 1601.714,540.376 L1618.579,381.267 A1125.000,1125.000 0.000 0,0 1500.000,375.000 Z" style="stroke-width:2.0;stroke:rgb(115,115,115);stroke-linecap:round;fill:none;" />
<path d="M1672.307,550.508 A965.000,965.000 40.000 0,1 1771.427,573.959 L1816.431,420.418 A1125.000,1125.000 0.000 0,0 1700.877,393.079 Z" style="stroke-width:2.0;stroke:rgb(115,115,115);stroke-linecap:round;fill:rgb(153,204,255);" />
<text x="1847.7" y="351.5" font-size="195.0px" font-family="CMUBright-Bold" style="text-anchor:start;fill:rgb(0,0,0);" transform="rotate(283.3,1847.7,351.5)" >8</text>
<path d="M1672.307,550.508 A965.000,965.000 40.000 0,1 1771.427,573.959 L1816.431,420.418 A1125.000,1125.000 0.000 0,0 1700.877,393.079 Z" style="stroke-width:2.0;stroke:rgb(115,115,115);stroke-linecap:round;fill:none;" />
<path d="M1839.077,596.533 A965.000,965.000 40.000 0,1 1932.417,637.306 L2004.113,494.269 A1125.000,1125.000 0.000 0,0 1895.297,446.736 Z" style="stroke-width:2.0;stroke:rgb(115,115,115);stroke-linecap:round;fill:rgb(153,204,255);" />
<text x="2047.2" y="432.0" font-size="195.0px" font-family="CMUBright-Bold" style="text-anchor:start;fill:rgb(0,0,0);" transform="rotate(293.6,2047.2,432.0)" >10</text>
<path d="M1839.077,596.533 A965.000,965.000 40.000 0,1 1932.417,637.306 L2004.113,494.269 A1125.000,1125.000 0.000 0,0 1895.297,446.736 Z" style="stroke-width:2.0;stroke:rgb(115,115,115);stroke-linecap:round;fill:none;" />
<path d="M1994.948,671.597 A965.000,965.000 40.000 0,1 2079.507,728.381 L2175.592,600.444 A1125.000,1125.000 0.000 0,0 2077.012,534.245 Z" style="stroke-width:2.0;stroke:rgb(115,115,115);stroke-linecap:round;fill:rgb(153,204,255);" />
<text x="2229.1" y="546.9" font-size="195.0px" font-family="CMUBright-Bold" style="text-anchor:start;fill:rgb(0,0,0);" transform="rotate(303.9,2229.1,546.9)" >15</text>
<path d="M1994.948,671.597 A965.000,965.000 40.000 0,1 2079.507,728.381 L2175.592,600.444 A1125.000,1125.000 0.000 0,0 2077.012,534.245 Z" style="stroke-width:2.0;stroke:rgb(115,115,115);stroke-linecap:round;fill:none;" />
<path d="M2134.911,773.286 A965.000,965.000 40.000 0,1 2207.972,844.256 L2325.356,735.532 A1125.000,1125.000 0.000 0,0 2240.181,652.795 Z" style="stroke-width:2.0;stroke:rgb(115,115,115);stroke-linecap:round;fill:rgb(153,204,255);" />
<text x="2387.6" y="692.4" font-size="195.0px" font-family="CMUBright-Bold" style="text-anchor:start;fill:rgb(0,0,0);" transform="rotate(314.2,2387.6,692.4)" >19</text>
<path d="M2134.911,773.286 A965.000,965.000 40.000 0,1 2207.972,844.256 L2325.356,735.532 A1125.000,1125.000 0.000 0,0 2240.181,652.795 Z" style="stroke-width:2.0;stroke:rgb(115,115,115);stroke-linecap:round;fill:none;" />
<path d="M2254.467,898.332 A965.000,965.000 40.000 0,1 2313.683,981.207 L2448.594,895.190 A1125.000,1125.000 0.000 0,0 2379.560,798.574 Z" style="stroke-width:2.0;stroke:rgb(115,115,115);stroke-linecap:round;fill:rgb(153,204,255);" />
<text x="2517.5" y="863.9" font-size="195.0px" font-family="CMUBright-Bold" style="text-anchor:start;fill:rgb(0,0,0);" transform="rotate(324.5,2517.5,863.9)" >26</text>
<path d="M2254.467,898.332 A965.000,965.000 40.000 0,1 2313.683,981.207 L2448.594,895.190 A1125.000,1125.000 0.000 0,0 2379.560,798.574 Z" style="stroke-width:2.0;stroke:rgb(115,115,115);stroke-linecap:round;fill:none;" />
<path d="M2349.775,1042.717 A965.000,965.000 40.000 0,1 2393.240,1134.833 L2541.342,1074.288 A1125.000,1125.000 0.000 0,0 2490.670,966.898 Z" style="stroke-width:2.0;stroke:rgb(115,115,115);stroke-linecap:round;fill:rgb(153,204,255);" />
<text x="2614.7" y="1055.8" font-size="195.0px" font-family="CMUBright-Bold" style="text-anchor:start;fill:rgb(0,0,0);" transform="rotate(334.7,2614.7,1055.8)" >35</text>
<path d="M2349.775,1042.717 A965.000,965.000 40.000 0,1 2393.240,1134.833 L2541.342,1074.288 A1125.000,1125.000 0.000 0,0 2490.670,966.898 Z" style="stroke-width:2.0;stroke:rgb(115,115,115);stroke-linecap:round;fill:none;" />
<path d="M2417.770,1201.799 A965.000,965.000 40.000 0,1 2444.089,1300.196 L2600.621,1267.068 A1125.000,1125.000 0.000 0,0 2569.939,1152.356 Z" style="stroke-width:2.0;stroke:rgb(115,115,115);stroke-linecap:round;fill:rgb(116,196,118);" />
<text x="2675.8" y="1260.0" font-size="195.0px" font-family="CMUBright-Bold" style="text-anchor:start;fill:rgb(0,0,0);" transform="rotate(345.0,2675.8,1260.0)" >2</text>
<path d="M2417.770,1201.799 A965.000,965.000 40.000 0,1 2444.089,1300.196 L2600.621,1267.068 A1125.000,1125.000 0.000 0,0 2569.939,1152.356 Z" style="stroke-width:2.0;stroke:rgb(115,115,115);stroke-linecap:round;fill:none;" />
<path d="M2456.267,1370.465 A965.000,965.000 40.000 0,1 2464.593,1471.980 L2624.526,1467.335 A1125.000,1125.000 0.000 0,0 2614.818,1348.988 Z" style="stroke-width:2.0;stroke:rgb(115,115,115);stroke-linecap:round;fill:rgb(116,196,118);" />
<text x="2699.8" y="1475.8" font-size="195.0px" font-family="CMUBright-Bold" style="text-anchor:start;fill:rgb(0,0,0);" transform="rotate(355.3,2699.8,1475.8)" >3</text>
<path d="M2456.267,1370.465 A965.000,965.000 40.000 0,1 2464.593,1471.980 L2624.526,1467.335 A1125.000,1125.000 0.000 0,0 2614.818,1348.988 Z" style="stroke-width:2.0;stroke:rgb(115,115,115);stroke-linecap:round;fill:none;" />
<path d="M2464.028,1543.295 A965.000,965.000 40.000 0,1 2454.095,1644.665 L2612.287,1668.651 A1125.000,1125.000 0.000 0,0 2623.867,1550.473 Z" style="stroke-width:2.0;stroke:rgb(115,115,115);stroke-linecap:round;fill:rgb(116,196,118);" />
<text x="2685.1" y="1688.4" font-size="195.0px" font-family="CMUBright-Bold" style="text-anchor:start;fill:rgb(0,0,0);" transform="rotate(5.6,2685.1,1688.4)" >22</text>
<path d="M2464.028,1543.295 A965.000,965.000 40.000 0,1 2454.095,1644.665 L2612.287,1668.651 A1125.000,1125.000 0.000 0,0 2623.867,1550.473 Z" style="stroke-width:2.0;stroke:rgb(115,115,115);stroke-linecap:round;fill:none;" />
<path d="M2440.805,1714.733 A965.000,965.000 40.000 0,1 2412.931,1812.701 L2564.298,1864.548 A1125.000,1125.000 0.000 0,0 2596.794,1750.336 Z" style="stroke-width:2.0;stroke:rgb(115,115,115);stroke-linecap:round;fill:rgb(116,196,118);" />
<text x="2631.8" y="1898.9" font-size="195.0px" font-family="CMUBright-Bold" style="text-anchor:start;fill:rgb(0,0,0);" transform="rotate(15.9,2631.8,1898.9)" >23</text>
<path d="M2440.805,1714.733 A965.000,965.000 40.000 0,1 2412.931,1812.701 L2564.298,1864.548 A1125.000,1125.000 0.000 0,0 2596.794,1750.336 Z" style="stroke-width:2.0;stroke:rgb(115,115,115);stroke-linecap:round;fill:none;" />
<path d="M2387.344,1879.269 A965.000,965.000 40.000 0,1 2342.425,1970.686 L2482.102,2048.727 A1125.000,1125.000 0.000 0,0 2534.469,1942.153 Z" style="stroke-width:2.0;stroke:rgb(115,115,115);stroke-linecap:round;fill:rgb(116,196,118);" />
<text x="2543.3" y="2092.8" font-size="195.0px" font-family="CMUBright-Bold" style="text-anchor:start;fill:rgb(0,0,0);" transform="rotate(26.2,2543.3,2092.8)" >24</text>
<path d="M2387.344,1879.269 A965.000,965.000 40.000 0,1 2342.425,1970.686 L2482.102,2048.727 A1125.000,1125.000 0.000 0,0 2534.469,1942.153 Z" style="stroke-width:2.0;stroke:rgb(115,115,115);stroke-linecap:round;fill:none;" />
<path d="M2305.363,2031.616 A965.000,965.000 40.000 0,1 2244.843,2113.542 L2368.340,2215.270 A1125.000,1125.000 0.000 0,0 2438.895,2119.759 Z" style="stroke-width:2.0;stroke:rgb(115,115,115);stroke-linecap:round;fill:rgb(153,0,204);" />
<text x="2420.7" y="2269.6" font-size="195.0px" font-family="CMUBright-Bold" style="text-anchor:start;fill:rgb(0,0,0);" transform="rotate(36.5,2420.7,2269.6)" >1</text>
<path d="M2305.363,2031.616 A965.000,965.000 40.000 0,1 2244.843,2113.542 L2368.340,2215.270 A1125.000,1125.000 0.000 0,0 2438.895,2119.759 Z" style="stroke-width:2.0;stroke:rgb(115,115,115);stroke-linecap:round;fill:none;" />
<path d="M2197.497,2166.875 A965.000,965.000 40.000 0,1 2123.321,2236.679 L2226.669,2358.823 A1125.000,1125.000 0.000 0,0 2313.144,2277.445 Z" style="stroke-width:2.0;stroke:rgb(115,115,115);stroke-linecap:round;fill:rgb(153,0,204);" />
<text x="2267.0" y="2422.9" font-size="195.0px" font-family="CMUBright-Bold" style="text-anchor:start;fill:rgb(0,0,0);" transform="rotate(46.7,2267.0,2422.9)" >9</text>
<path d="M2197.497,2166.875 A965.000,965.000 40.000 0,1 2123.321,2236.679 L2226.669,2358.823 A1125.000,1125.000 0.000 0,0 2313.144,2277.445 Z" style="stroke-width:2.0;stroke:rgb(115,115,115);stroke-linecap:round;fill:none;" />
<path d="M2067.213,2280.701 A965.000,965.000 40.000 0,1 1981.764,2336.139 L2061.642,2474.773 A1125.000,1125.000 0.000 0,0 2161.258,2410.144 Z" style="stroke-width:2.0;stroke:rgb(115,115,115);stroke-linecap:round;fill:rgb(153,0,204);" />
<text x="2090.7" y="2544.5" font-size="195.0px" font-family="CMUBright-Bold" style="text-anchor:start;fill:rgb(0,0,0);" transform="rotate(57.0,2090.7,2544.5)" >17</text>
<path d="M2067.213,2280.701 A965.000,965.000 40.000 0,1 1981.764,2336.139 L2061.642,2474.773 A1125.000,1125.000 0.000 0,0 2161.258,2410.144 Z" style="stroke-width:2.0;stroke:rgb(115,115,115);stroke-linecap:round;fill:none;" />
<path d="M1918.698,2369.435 A965.000,965.000 40.000 0,1 1824.724,2408.724 L1878.564,2559.393 A1125.000,1125.000 0.000 0,0 1988.119,2513.590 Z" style="stroke-width:2.0;stroke:rgb(115,115,115);stroke-linecap:round;fill:rgb(153,0,204);" />
<text x="1893.8" y="2633.6" font-size="195.0px" font-family="CMUBright-Bold" style="text-anchor:start;fill:rgb(0,0,0);" transform="rotate(67.3,1893.8,2633.6)" >25</text>
<path d="M1918.698,2369.435 A965.000,965.000 40.000 0,1 1824.724,2408.724 L1878.564,2559.393 A1125.000,1125.000 0.000 0,0 1988.119,2513.590 Z" style="stroke-width:2.0;stroke:rgb(115,115,115);stroke-linecap:round;fill:none;" />
<path d="M1756.726,2430.224 A965.000,965.000 40.000 0,1 1657.246,2452.102 L1683.318,2609.964 A1125.000,1125.000 0.000 0,0 1799.291,2584.458 Z" style="stroke-width:2.0;stroke:rgb(115,115,115);stroke-linecap:round;fill:rgb(153,0,204);" />
<text x="1685.0" y="2685.6" font-size="195.0px" font-family="CMUBright-Bold" style="text-anchor:start;fill:rgb(0,0,0);" transform="rotate(77.6,1685.0,2685.6)" >34</text>
<path d="M1756.726,2430.224 A965.000,965.000 40.000 0,1 1657.246,2452.102 L1683.318,2609.964 A1125.000,1125.000 0.000 0,0 1799.291,2584.458 Z" style="stroke-width:2.0;stroke:rgb(115,115,115);stroke-linecap:round;fill:none;" />
<path d="M1586.502,2461.115 A965.000,965.000 40.000 0,1 1484.715,2464.879 L1482.181,2624.859 A1125.000,1125.000 0.000 0,0 1600.844,2620.471 Z" style="stroke-width:2.0;stroke:rgb(115,115,115);stroke-linecap:round;fill:rgb(253,208,162);" />
<text x="1472.4" y="2699.7" font-size="195.0px" font-family="CMUBright-Bold" style="text-anchor:start;fill:rgb(0,0,0);" transform="rotate(87.9,1472.4,2699.7)" >12</text>
<path d="M1586.502,2461.115 A965.000,965.000 40.000 0,1 1484.715,2464.879 L1482.181,2624.859 A1125.000,1125.000 0.000 0,0 1600.844,2620.471 Z" style="stroke-width:2.0;stroke:rgb(115,115,115);stroke-linecap:round;fill:none;" />
<path d="M1413.498,2461.115 A965.000,965.000 40.000 0,1 1312.675,2446.644 L1281.616,2603.600 A1125.000,1125.000 0.000 0,0 1399.156,2620.471 Z" style="stroke-width:2.0;stroke:rgb(115,115,115);stroke-linecap:round;fill:rgb(253,208,162);" />
<text x="1403.0" y="2696.1" font-size="195.0px" font-family="CMUBright-Bold" style="text-anchor:end;fill:rgb(0,0,0);" transform="rotate(-81.8,1403.0,2696.1)" >13</text>
<path d="M1413.498,2461.115 A965.000,965.000 40.000 0,1 1312.675,2446.644 L1281.616,2603.600 A1125.000,1125.000 0.000 0,0 1399.156,2620.471 Z" style="stroke-width:2.0;stroke:rgb(115,115,115);stroke-linecap:round;fill:none;" />
<path d="M1243.274,2430.224 A965.000,965.000 40.000 0,1 1146.656,2397.983 L1088.070,2546.871 A1125.000,1125.000 0.000 0,0 1200.709,2584.458 Z" style="stroke-width:2.0;stroke:rgb(115,115,115);stroke-linecap:round;fill:rgb(253,208,162);" />
<text x="1191.0" y="2659.5" font-size="195.0px" font-family="CMUBright-Bold" style="text-anchor:end;fill:rgb(0,0,0);" transform="rotate(-71.5,1191.0,2659.5)" >16</text>
<path d="M1243.274,2430.224 A965.000,965.000 40.000 0,1 1146.656,2397.983 L1088.070,2546.871 A1125.000,1125.000 0.000 0,0 1200.709,2584.458 Z" style="stroke-width:2.0;stroke:rgb(115,115,115);stroke-linecap:round;fill:none;" />
<path d="M1081.302,2369.435 A965.000,965.000 40.000 0,1 991.993,2320.460 L907.764,2456.494 A1125.000,1125.000 0.000 0,0 1011.881,2513.590 Z" style="stroke-width:2.0;stroke:rgb(115,115,115);stroke-linecap:round;fill:rgb(253,208,162);" />
<text x="988.9" y="2585.7" font-size="195.0px" font-family="CMUBright-Bold" style="text-anchor:end;fill:rgb(0,0,0);" transform="rotate(-61.3,988.9,2585.7)" >20</text>
<path d="M1081.302,2369.435 A965.000,965.000 40.000 0,1 991.993,2320.460 L907.764,2456.494 A1125.000,1125.000 0.000 0,0 1011.881,2513.590 Z" style="stroke-width:2.0;stroke:rgb(115,115,115);stroke-linecap:round;fill:none;" />
<path d="M932.787,2280.701 A965.000,965.000 40.000 0,1 853.658,2216.566 L746.493,2335.375 A1125.000,1125.000 0.000 0,0 838.742,2410.144 Z" style="stroke-width:2.0;stroke:rgb(115,115,115);stroke-linecap:round;fill:rgb(253,208,162);" />
<text x="801.7" y="2475.9" font-size="195.0px" font-family="CMUBright-Bold" style="text-anchor:end;fill:rgb(0,0,0);" transform="rotate(-51.0,801.7,2475.9)" >21</text>
<path d="M932.787,2280.701 A965.000,965.000 40.000 0,1 853.658,2216.566 L746.493,2335.375 A1125.000,1125.000 0.000 0,0 838.742,2410.144 Z" style="stroke-width:2.0;stroke:rgb(115,115,115);stroke-linecap:round;fill:none;" />
<path d="M802.503,2166.875 A965.000,965.000 40.000 0,1 736.097,2089.642 L609.440,2187.406 A1125.000,1125.000 0.000 0,0 686.856,2277.445 Z" style="stroke-width:2.0;stroke:rgb(115,115,115);stroke-linecap:round;fill:rgb(253,208,162);" />
<text x="639.3" y="2336.2" font-size="195.0px" font-family="CMUBright-Bold" style="text-anchor:end;fill:rgb(0,0,0);" transform="rotate(-40.7,639.3,2336.2)" >27</text>
<path d="M802.503,2166.875 A965.000,965.000 40.000 0,1 736.097,2089.642 L609.440,2187.406 A1125.000,1125.000 0.000 0,0 686.856,2277.445 Z" style="stroke-width:2.0;stroke:rgb(115,115,115);stroke-linecap:round;fill:none;" />
<path d="M694.637,2031.616 A965.000,965.000 40.000 0,1 643.089,1943.766 L501.010,2017.344 A1125.000,1125.000 0.000 0,0 561.105,2119.759 Z" style="stroke-width:2.0;stroke:rgb(115,115,115);stroke-linecap:round;fill:rgb(253,208,162);" />
<text x="504.4" y="2169.9" font-size="195.0px" font-family="CMUBright-Bold" style="text-anchor:end;fill:rgb(0,0,0);" transform="rotate(-30.4,504.4,2169.9)" >28</text>
<path d="M694.637,2031.616 A965.000,965.000 40.000 0,1 643.089,1943.766 L501.010,2017.344 A1125.000,1125.000 0.000 0,0 561.105,2119.759 Z" style="stroke-width:2.0;stroke:rgb(115,115,115);stroke-linecap:round;fill:none;" />
<path d="M612.656,1879.269 A965.000,965.000 40.000 0,1 577.622,1783.627 L424.689,1830.653 A1125.000,1125.000 0.000 0,0 465.531,1942.153 Z" style="stroke-width:2.0;stroke:rgb(115,115,115);stroke-linecap:round;fill:rgb(253,141,60);" />
<text x="400.0" y="1979.6" font-size="195.0px" font-family="CMUBright-Bold" style="text-anchor:end;fill:rgb(0,0,0);" transform="rotate(-20.1,400.0,1979.6)" >11</text>
<path d="M612.656,1879.269 A965.000,965.000 40.000 0,1 577.622,1783.627 L424.689,1830.653 A1125.000,1125.000 0.000 0,0 465.531,1942.153 Z" style="stroke-width:2.0;stroke:rgb(115,115,115);stroke-linecap:round;fill:none;" />
<path d="M559.195,1714.733 A965.000,965.000 40.000 0,1 541.802,1614.372 L382.929,1633.336 A1125.000,1125.000 0.000 0,0 403.206,1750.336 Z" style="stroke-width:2.0;stroke:rgb(115,115,115);stroke-linecap:round;fill:rgb(253,141,60);" />
<text x="332.5" y="1777.4" font-size="195.0px" font-family="CMUBright-Bold" style="text-anchor:end;fill:rgb(0,0,0);" transform="rotate(-9.8,332.5,1777.4)" >30</text>
<path d="M559.195,1714.733 A965.000,965.000 40.000 0,1 541.802,1614.372 L382.929,1633.336 A1125.000,1125.000 0.000 0,0 403.206,1750.336 Z" style="stroke-width:2.0;stroke:rgb(115,115,115);stroke-linecap:round;fill:none;" />
<path d="M535.972,1543.295 A965.000,965.000 40.000 0,1 536.778,1441.441 L377.073,1431.732 A1125.000,1125.000 0.000 0,0 376.133,1550.473 Z" style="stroke-width:2.0;stroke:rgb(115,115,115);stroke-linecap:round;fill:rgb(253,141,60);" />
<text x="301.7" y="1564.5" font-size="195.0px" font-family="CMUBright-Bold" style="text-anchor:end;fill:rgb(0,0,0);" transform="rotate(0.5,301.7,1564.5)" >31</text>
<path d="M535.972,1543.295 A965.000,965.000 40.000 0,1 536.778,1441.441 L377.073,1431.732 A1125.000,1125.000 0.000 0,0 376.133,1550.473 Z" style="stroke-width:2.0;stroke:rgb(115,115,115);stroke-linecap:round;fill:none;" />
<path d="M543.733,1370.465 A965.000,965.000 40.000 0,1 562.714,1270.393 L407.309,1232.323 A1125.000,1125.000 0.000 0,0 385.182,1348.988 Z" style="stroke-width:2.0;stroke:rgb(115,115,115);stroke-linecap:round;fill:rgb(253,141,60);" />
<text x="309.5" y="1349.5" font-size="195.0px" font-family="CMUBright-Bold" style="text-anchor:end;fill:rgb(0,0,0);" transform="rotate(10.7,309.5,1349.5)" >32</text>
<path d="M543.733,1370.465 A965.000,965.000 40.000 0,1 562.714,1270.393 L407.309,1232.323 A1125.000,1125.000 0.000 0,0 385.182,1348.988 Z" style="stroke-width:2.0;stroke:rgb(115,115,115);stroke-linecap:round;fill:none;" />
<path d="M582.230,1201.799 A965.000,965.000 40.000 0,1 618.774,1106.724 L472.664,1041.517 A1125.000,1125.000 0.000 0,0 430.061,1152.356 Z" style="stroke-width:2.0;stroke:rgb(115,115,115);stroke-linecap:round;fill:rgb(253,141,60);" />
<text x="355.5" y="1139.3" font-size="195.0px" font-family="CMUBright-Bold" style="text-anchor:end;fill:rgb(0,0,0);" transform="rotate(21.0,355.5,1139.3)" >33</text>
<path d="M582.230,1201.799 A965.000,965.000 40.000 0,1 618.774,1106.724 L472.664,1041.517 A1125.000,1125.000 0.000 0,0 430.061,1152.356 Z" style="stroke-width:2.0;stroke:rgb(115,115,115);stroke-linecap:round;fill:none;" />
<path d="M650.225,1042.717 A965.000,965.000 40.000 0,1 703.158,955.695 L571.039,865.447 A1125.000,1125.000 0.000 0,0 509.330,966.898 Z" style="stroke-width:2.0;stroke:rgb(115,115,115);stroke-linecap:round;fill:rgb(66,146,198);" />
<text x="440.2" y="937.2" font-size="195.0px" font-family="CMUBright-Bold" style="text-anchor:end;fill:rgb(0,0,0);" transform="rotate(31.3,440.2,937.2)" >4</text>
<path d="M650.225,1042.717 A965.000,965.000 40.000 0,1 703.158,955.695 L571.039,865.447 A1125.000,1125.000 0.000 0,0 509.330,966.898 Z" style="stroke-width:2.0;stroke:rgb(115,115,115);stroke-linecap:round;fill:none;" />
<path d="M745.533,898.332 A965.000,965.000 40.000 0,1 813.153,822.160 L699.272,709.772 A1125.000,1125.000 0.000 0,0 620.440,798.574 Z" style="stroke-width:2.0;stroke:rgb(115,115,115);stroke-linecap:round;fill:rgb(66,146,198);" />
<text x="555.2" y="760.2" font-size="195.0px" font-family="CMUBright-Bold" style="text-anchor:end;fill:rgb(0,0,0);" transform="rotate(41.6,555.2,760.2)" >6</text>
<path d="M745.533,898.332 A965.000,965.000 40.000 0,1 813.153,822.160 L699.272,709.772 A1125.000,1125.000 0.000 0,0 620.440,798.574 Z" style="stroke-width:2.0;stroke:rgb(115,115,115);stroke-linecap:round;fill:none;" />
<path d="M865.089,773.286 A965.000,965.000 40.000 0,1 945.224,710.412 L853.241,579.496 A1125.000,1125.000 0.000 0,0 759.819,652.795 Z" style="stroke-width:2.0;stroke:rgb(115,115,115);stroke-linecap:round;fill:rgb(66,146,198);" />
<text x="704.7" y="601.4" font-size="195.0px" font-family="CMUBright-Bold" style="text-anchor:end;fill:rgb(0,0,0);" transform="rotate(51.9,704.7,601.4)" >7</text>
<path d="M865.089,773.286 A965.000,965.000 40.000 0,1 945.224,710.412 L853.241,579.496 A1125.000,1125.000 0.000 0,0 759.819,652.795 Z" style="stroke-width:2.0;stroke:rgb(115,115,115);stroke-linecap:round;fill:none;" />
<path d="M1005.052,671.597 A965.000,965.000 40.000 0,1 1095.126,624.042 L1027.997,478.806 A1125.000,1125.000 0.000 0,0 922.988,534.245 Z" style="stroke-width:2.0;stroke:rgb(115,115,115);stroke-linecap:round;fill:rgb(66,146,198);" />
<text x="877.1" y="474.3" font-size="195.0px" font-family="CMUBright-Bold" style="text-anchor:end;fill:rgb(0,0,0);" transform="rotate(62.2,877.1,474.3)" >14</text>
<path d="M1005.052,671.597 A965.000,965.000 40.000 0,1 1095.126,624.042 L1027.997,478.806 A1125.000,1125.000 0.000 0,0 922.988,534.245 Z" style="stroke-width:2.0;stroke:rgb(115,115,115);stroke-linecap:round;fill:none;" />
<path d="M1160.923,596.533 A965.000,965.000 40.000 0,1 1258.041,565.826 L1217.923,410.937 A1125.000,1125.000 0.000 0,0 1104.703,446.736 Z" style="stroke-width:2.0;stroke:rgb(115,115,115);stroke-linecap:round;fill:rgb(66,146,198);" />
<text x="1068.4" y="380.3" font-size="195.0px" font-family="CMUBright-Bold" style="text-anchor:end;fill:rgb(0,0,0);" transform="rotate(72.5,1068.4,380.3)" >18</text>
<path d="M1160.923,596.533 A965.000,965.000 40.000 0,1 1258.041,565.826 L1217.923,410.937 A1125.000,1125.000 0.000 0,0 1104.703,446.736 Z" style="stroke-width:2.0;stroke:rgb(115,115,115);stroke-linecap:round;fill:none;" />
<path d="M1327.693,550.508 A965.000,965.000 40.000 0,1 1428.732,537.635 L1416.916,378.072 A1125.000,1125.000 0.000 0,0 1299.123,393.079 Z" style="stroke-width:2.0;stroke:rgb(115,115,115);stroke-linecap:round;fill:rgb(66,146,198);" />
<text x="1275.3" y="321.2" font-size="195.0px" font-family="CMUBright-Bold" style="text-anchor:end;fill:rgb(0,0,0);" transform="rotate(82.7,1275.3,321.2)" >29</text>
<path d="M1327.693,550.508 A965.000,965.000 40.000 0,1 1428.732,537.635 L1416.916,378.072 A1125.000,1125.000 0.000 0,0 1299.123,393.079 Z" style="stroke-width:2.0;stroke:rgb(115,115,115);stroke-linecap:round;fill:none;" />
</g>
<g id="track_1">
<path d="M 2237.4,2044.7 L 2200.0,2017.0 2162.6,1989.2 2125.2,1961.3 2087.8,1933.3 2050.4,1905.2 2013.0,1877.0 1975.6,1848.6 1938.3,1820.1 1901.0,1791.6 1863.7,1762.9 1826.5,1734.1 1789.3,1705.2 1752.2,1676.1 1715.1,1647.0 1678.0,1617.8 1641.1,1588.4 1604.2,1559.0 1567.3,1529.4 1530.6,1499.8 1493.9,1470.1 1457.3,1440.2 1420.7,1410.3 1384.3,1380.3 1347.9,1350.2 1311.7,1320.0 1275.5,1289.8 1239.4,1259.4 1203.4,1229.0 1167.5,1198.6 1131.7,1168.1 1096.0,1137.5 1060.5,1106.9 1025.0,1076.2 989.6,1045.5 954.4,1014.7 919.2,983.9 884.2,953.1 849.2,922.2 814.4,891.4  " style="stroke-opacity: 1.000000; stroke-width: 5.0; stroke: rgb(251,106,74); fill: none"  />
<path d="M 2237.4,2044.7 L 2200.8,2017.6 2164.3,1990.1 2127.7,1962.3 2091.2,1934.2 2054.7,1905.7 2018.3,1876.9 1982.0,1847.8 1945.8,1818.4 1909.7,1788.7 1873.7,1758.6 1837.9,1728.2 1802.2,1697.5 1766.7,1666.5 1731.4,1635.2 1696.2,1603.6 1661.3,1571.7 1626.6,1539.6 1592.2,1507.1 1557.9,1474.4 1524.0,1441.3 1490.2,1408.1 1456.8,1374.6 1423.6,1340.8 1390.7,1306.9 1358.1,1272.7 1325.8,1238.3 1293.8,1203.7 1262.0,1168.9 1230.6,1134.0 1199.5,1098.9 1168.8,1063.7 1138.3,1028.3 1108.2,992.8 1078.4,957.3 1048.9,921.7 1019.7,886.0 990.8,850.3 962.3,814.5 934.1,778.8  " style="stroke-opacity: 1.000000; stroke-width: 5.0; stroke: rgb(251,106,74); fill: none"  />
<path d="M 2237.4,2044.7 L 2205.6,2020.7 2174.1,1995.6 2143.0,1969.7 2112.5,1942.8 2082.7,1915.1 2053.7,1886.4 2025.6,1856.9 1998.5,1826.5 1972.4,1795.3 1947.5,1763.3 1923.8,1730.5 1901.4,1696.9 1880.4,1662.7 1860.8,1627.8 1842.7,1592.2 1826.1,1556.0 1811.0,1519.2 1797.5,1481.9 1785.7,1444.1 1775.4,1405.8 1766.8,1367.1 1759.9,1328.1 1754.6,1288.7 1750.9,1249.0 1748.8,1209.2 1748.4,1169.1 1749.5,1129.0 1752.1,1088.7 1756.3,1048.5 1761.9,1008.3 1768.9,968.3 1777.3,928.4 1786.9,888.8 1797.7,849.4 1809.7,810.5 1822.7,772.0 1836.6,734.0 1851.4,696.6 1867.0,659.9  " style="stroke-opacity: 1.000000; stroke-width: 5.0; stroke: rgb(251,106,74); fill: none"  />
<path d="M 1548.4,584.5 L 1545.8,626.1 1542.4,668.0 1538.1,710.2 1532.9,752.6 1526.7,795.0 1519.6,837.6 1511.4,880.1 1502.1,922.5 1491.8,964.8 1480.4,1006.9 1467.8,1048.8 1454.1,1090.3 1439.3,1131.5 1423.3,1172.3 1406.2,1212.7 1387.9,1252.5 1368.5,1291.8 1348.0,1330.6 1326.3,1368.7 1303.5,1406.1 1279.6,1442.9 1254.7,1479.0 1228.7,1514.3 1201.7,1548.9 1173.8,1582.6 1144.9,1615.6 1115.1,1647.7 1084.5,1678.9 1053.1,1709.3 1021.0,1738.8 988.2,1767.5 954.7,1795.2 920.8,1822.0 886.3,1847.9 851.4,1872.9 816.2,1897.0 780.7,1920.2 745.1,1942.5 709.3,1964.0  " style="stroke-opacity: 1.000000; stroke-width: 5.0; stroke: rgb(251,106,74); fill: none"  />
<path d="M 814.4,891.4 L 849.2,922.2 884.2,953.1 919.2,983.9 954.4,1014.7 989.6,1045.5 1025.0,1076.2 1060.5,1106.9 1096.0,1137.5 1131.7,1168.1 1167.5,1198.6 1203.4,1229.0 1239.4,1259.4 1275.5,1289.8 1311.7,1320.0 1347.9,1350.2 1384.3,1380.3 1420.7,1410.3 1457.3,1440.2 1493.9,1470.1 1530.6,1499.8 1567.3,1529.4 1604.2,1559.0 1641.1,1588.4 1678.0,1617.8 1715.1,1647.0 1752.2,1676.1 1789.3,1705.2 1826.5,1734.1 1863.7,1762.9 1901.0,1791.6 1938.3,1820.1 1975.6,1848.6 2013.0,1877.0 2050.4,1905.2 2087.8,1933.3 2125.2,1961.3 2162.6,1989.2 2200.0,2017.0 2237.4,2044.7  " style="stroke-opacity: 1.000000; stroke-width: 5.0; stroke: rgb(251,106,74); fill: none"  />
<path d="M 814.4,891.4 L 849.2,922.3 883.9,953.3 918.7,984.5 953.4,1015.7 988.2,1047.1 1022.9,1078.6 1057.5,1110.2 1092.2,1141.9 1126.8,1173.7 1161.3,1205.6 1195.8,1237.6 1230.3,1269.7 1264.6,1302.0 1299.0,1334.3 1333.2,1366.8 1367.4,1399.3 1401.5,1431.9 1435.6,1464.7 1469.5,1497.5 1503.4,1530.4 1537.2,1563.4 1570.9,1596.4 1604.5,1629.6 1638.0,1662.8 1671.5,1696.1 1704.8,1729.5 1738.0,1762.9 1771.1,1796.4 1804.1,1830.0 1837.0,1863.6 1869.8,1897.3 1902.5,1931.0 1935.1,1964.7 1967.6,1998.5 1999.9,2032.3 2032.2,2066.1 2064.3,2099.9 2096.4,2133.8 2128.3,2167.6  " style="stroke-opacity: 1.000000; stroke-width: 5.0; stroke: rgb(251,106,74); fill: none"  />
<path d="M 934.1,778.8 L 962.3,814.5 990.8,850.3 1019.7,886.0 1048.9,921.7 1078.4,957.3 1108.2,992.8 1138.3,1028.3 1168.8,1063.7 1199.5,1098.9 1230.6,1134.0 1262.0,1168.9 1293.8,1203.7 1325.8,1238.3 1358.1,1272.7 1390.7,1306.9 1423.6,1340.8 1456.8,1374.6 1490.2,1408.1 1524.0,1441.3 1557.9,1474.4 1592.2,1507.1 1626.6,1539.6 1661.3,1571.7 1696.2,1603.6 1731.4,1635.2 1766.7,1666.5 1802.2,1697.5 1837.9,1728.2 1873.7,1758.6 1909.7,1788.7 1945.8,1818.4 1982.0,1847.8 2018.3,1876.9 2054.7,1905.7 2091.2,1934.2 2127.7,1962.3 2164.3,1990.1 2200.8,2017.6 2237.4,2044.7  " style="stroke-opacity: 1.000000; stroke-width: 5.0; stroke: rgb(251,106,74); fill: none"  />
<path d="M 934.1,778.8 L 962.1,814.7 990.1,850.9 1017.9,887.4 1045.6,924.2 1073.2,961.3 1100.6,998.8 1127.9,1036.5 1155.0,1074.5 1181.9,1112.7 1208.6,1151.3 1235.0,1190.1 1261.3,1229.2 1287.2,1268.5 1313.0,1308.1 1338.4,1347.9 1363.6,1387.9 1388.5,1428.2 1413.0,1468.6 1437.3,1509.3 1461.3,1550.2 1485.0,1591.2 1508.3,1632.4 1531.3,1673.8 1554.0,1715.3 1576.3,1756.9 1598.3,1798.6 1620.0,1840.5 1641.3,1882.5 1662.3,1924.5 1682.9,1966.6 1703.2,2008.7 1723.2,2050.9 1742.8,2093.1 1762.1,2135.3 1781.0,2177.5 1799.6,2219.7 1818.0,2261.8 1835.9,2303.8 1853.6,2345.8  " style="stroke-opacity: 1.000000; stroke-width: 5.0; stroke: rgb(251,106,74); fill: none"  />
<path d="M 1711.1,607.9 L 1700.6,651.2 1689.7,694.7 1678.3,738.3 1666.4,782.1 1653.9,825.9 1641.0,869.9 1627.5,913.8 1613.5,957.8 1598.9,1001.8 1583.8,1045.7 1568.0,1089.6 1551.8,1133.3 1534.9,1177.0 1517.5,1220.5 1499.5,1263.9 1481.0,1307.1 1461.9,1350.1 1442.2,1392.9 1422.0,1435.4 1401.2,1477.7 1379.9,1519.7 1358.0,1561.4 1335.7,1602.8 1312.8,1643.9 1289.5,1684.6 1265.7,1725.0 1241.4,1765.0 1216.7,1804.6 1191.6,1843.9 1166.0,1882.7 1140.1,1921.1 1113.9,1959.1 1087.3,1996.6 1060.5,2033.7 1033.4,2070.4 1006.0,2106.5 978.4,2142.2 950.7,2177.5 922.8,2212.2  " style="stroke-opacity: 1.000000; stroke-width: 5.0; stroke: rgb(251,106,74); fill: none"  />
<path d="M 2128.3,2167.6 L 2096.4,2133.8 2064.3,2099.9 2032.2,2066.1 1999.9,2032.3 1967.6,1998.5 1935.1,1964.7 1902.5,1931.0 1869.8,1897.3 1837.0,1863.6 1804.1,1830.0 1771.1,1796.4 1738.0,1762.9 1704.8,1729.5 1671.5,1696.1 1638.0,1662.8 1604.5,1629.6 1570.9,1596.4 1537.2,1563.4 1503.4,1530.4 1469.5,1497.5 1435.6,1464.7 1401.5,1431.9 1367.4,1399.3 1333.2,1366.8 1299.0,1334.3 1264.6,1302.0 1230.3,1269.7 1195.8,1237.6 1161.3,1205.6 1126.8,1173.7 1092.2,1141.9 1057.5,1110.2 1022.9,1078.6 988.2,1047.1 953.4,1015.7 918.7,984.5 883.9,953.3 849.2,922.3 814.4,891.4  " style="stroke-opacity: 1.000000; stroke-width: 5.0; stroke: rgb(251,106,74); fill: none"  />
<path d="M 2128.3,2167.6 L 2100.7,2137.7 2073.4,2106.8 2046.8,2075.1 2020.7,2042.6 1995.3,2009.3 1970.7,1975.3 1947.0,1940.5 1924.3,1905.0 1902.6,1868.8 1882.0,1832.0 1862.5,1794.5 1844.3,1756.5 1827.3,1718.0 1811.6,1678.9 1797.3,1639.3 1784.4,1599.4 1772.9,1559.0 1762.8,1518.3 1754.2,1477.2 1747.0,1435.9 1741.3,1394.4 1737.1,1352.6 1734.4,1310.7 1733.1,1268.7 1733.3,1226.7 1734.9,1184.6 1737.9,1142.6 1742.3,1100.7 1748.0,1058.9 1755.0,1017.2 1763.3,975.9 1772.7,934.8 1783.4,894.0 1795.0,853.7 1807.7,813.8 1821.3,774.4 1835.8,735.6 1851.1,697.4 1867.0,659.9  " style="stroke-opacity: 1.000000; stroke-width: 5.0; stroke: rgb(251,106,74); fill: none"  />
<path d="M 2128.3,2167.6 L 2103.4,2141.6 2078.1,2116.1 2052.5,2091.4 2026.8,2067.6 2001.0,2044.9 1975.3,2023.4 1949.7,2003.4 1924.4,1985.0 1899.4,1968.2 1874.8,1953.3 1850.7,1940.3 1827.2,1929.3 1804.3,1920.4 1782.0,1913.7 1760.6,1909.2 1739.9,1907.0 1720.1,1907.1 1701.2,1909.5 1683.2,1914.3 1666.2,1921.4 1650.1,1930.8 1635.1,1942.6 1621.1,1956.6 1608.2,1972.9 1596.3,1991.3 1585.5,2011.9 1575.8,2034.4 1567.0,2058.9 1559.4,2085.2 1552.7,2113.2 1547.1,2142.7 1542.4,2173.7 1538.7,2205.9 1535.9,2239.3 1533.9,2273.6 1532.8,2308.6 1532.5,2344.2 1532.9,2380.1 1533.9,2416.1  " style="stroke-opacity: 1.000000; stroke-width: 5.0; stroke: rgb(251,106,74); fill: none"  />
<path d="M 2128.3,2167.6 L 2100.6,2138.9 2072.0,2110.6 2042.6,2082.8 2012.3,2055.7 1981.2,2029.4 1949.3,2004.0 1916.6,1979.6 1883.2,1956.3 1849.2,1934.1 1814.4,1913.1 1779.1,1893.5 1743.1,1875.2 1706.6,1858.4 1669.6,1843.1 1632.2,1829.3 1594.2,1817.1 1555.9,1806.5 1517.3,1797.6 1478.3,1790.3 1439.1,1784.7 1399.7,1780.7 1360.1,1778.4 1320.4,1777.8 1280.5,1778.9 1240.7,1781.5 1200.9,1785.8 1161.1,1791.7 1121.5,1799.1 1082.1,1808.0 1042.8,1818.3 1003.9,1830.0 965.3,1843.1 927.1,1857.3 889.3,1872.7 852.1,1889.2 815.4,1906.7 779.3,1925.0 743.9,1944.2 709.3,1964.0  " style="stroke-opacity: 1.000000; stroke-width: 5.0; stroke: rgb(251,106,74); fill: none"  />
<path d="M 1867.0,659.9 L 1851.4,696.6 1836.6,734.0 1822.7,772.0 1809.7,810.5 1797.7,849.4 1786.9,888.8 1777.3,928.4 1768.9,968.3 1761.9,1008.3 1756.3,1048.5 1752.1,1088.7 1749.5,1129.0 1748.4,1169.1 1748.8,1209.2 1750.9,1249.0 1754.6,1288.7 1759.9,1328.1 1766.8,1367.1 1775.4,1405.8 1785.7,1444.1 1797.5,1481.9 1811.0,1519.2 1826.1,1556.0 1842.7,1592.2 1860.8,1627.8 1880.4,1662.7 1901.4,1696.9 1923.8,1730.5 1947.5,1763.3 1972.4,1795.3 1998.5,1826.5 2025.6,1856.9 2053.7,1886.4 2082.7,1915.1 2112.5,1942.8 2143.0,1969.7 2174.1,1995.6 2205.6,2020.7 2237.4,2044.7  " style="stroke-opacity: 1.000000; stroke-width: 5.0; stroke: rgb(251,106,74); fill: none"  />
<path d="M 1867.0,659.9 L 1851.1,697.4 1835.8,735.6 1821.3,774.4 1807.7,813.8 1795.0,853.7 1783.4,894.0 1772.7,934.8 1763.3,975.9 1755.0,1017.2 1748.0,1058.9 1742.3,1100.7 1737.9,1142.6 1734.9,1184.6 1733.3,1226.7 1733.1,1268.7 1734.4,1310.7 1737.1,1352.6 1741.3,1394.4 1747.0,1435.9 1754.2,1477.2 1762.8,1518.3 1772.9,1559.0 1784.4,1599.4 1797.3,1639.3 1811.6,1678.9 1827.3,1718.0 1844.3,1756.5 1862.5,1794.5 1882.0,1832.0 1902.6,1868.8 1924.3,1905.0 1947.0,1940.5 1970.7,1975.3 1995.3,2009.3 2020.7,2042.6 2046.8,2075.1 2073.4,2106.8 2100.7,2137.7 2128.3,2167.6  " style="stroke-opacity: 1.000000; stroke-width: 5.0; stroke: rgb(251,106,74); fill: none"  />
<path d="M 1533.9,2416.1 L 1532.9,2380.1 1532.5,2344.2 1532.8,2308.6 1533.9,2273.6 1535.9,2239.3 1538.7,2205.9 1542.4,2173.7 1547.1,2142.7 1552.7,2113.2 1559.4,2085.2 1567.0,2058.9 1575.8,2034.4 1585.5,2011.9 1596.3,1991.3 1608.2,1972.9 1621.1,1956.6 1635.1,1942.6 1650.1,1930.8 1666.2,1921.4 1683.2,1914.3 1701.2,1909.5 1720.1,1907.1 1739.9,1907.0 1760.6,1909.2 1782.0,1913.7 1804.3,1920.4 1827.2,1929.3 1850.7,1940.3 1874.8,1953.3 1899.4,1968.2 1924.4,1985.0 1949.7,2003.4 1975.3,2023.4 2001.0,2044.9 2026.8,2067.6 2052.5,2091.4 2078.1,2116.1 2103.4,2141.6 2128.3,2167.6  " style="stroke-opacity: 1.000000; stroke-width: 5.0; stroke: rgb(251,106,74); fill: none"  />
<path d="M 1533.9,2416.1 L 1532.8,2380.5 1532.2,2345.0 1532.2,2309.9 1532.8,2275.5 1534.1,2241.8 1536.1,2209.3 1538.8,2177.9 1542.2,2148.0 1546.4,2119.7 1551.4,2093.0 1557.3,2068.2 1563.9,2045.3 1571.5,2024.6 1579.8,2006.0 1589.1,1989.7 1599.1,1975.7 1610.0,1964.0 1621.8,1954.9 1634.4,1948.2 1647.7,1943.9 1661.9,1942.2 1676.7,1943.0 1692.3,1946.2 1708.6,1951.9 1725.6,1959.9 1743.1,1970.3 1761.2,1983.0 1779.8,1997.8 1798.8,2014.8 1818.3,2033.7 1838.0,2054.5 1858.0,2077.0 1878.3,2101.1 1898.6,2126.6 1918.9,2153.4 1939.2,2181.2 1959.4,2209.9 1979.3,2239.3 1999.0,2269.1  " style="stroke-opacity: 1.000000; stroke-width: 5.0; stroke: rgb(251,106,74); fill: none"  />
<path d="M 1533.9,2416.1 L 1532.7,2374.5 1532.4,2332.4 1532.9,2290.0 1534.2,2247.4 1536.6,2204.5 1539.9,2161.5 1544.2,2118.4 1549.6,2075.3 1556.1,2032.3 1563.7,1989.3 1572.5,1946.5 1582.4,1903.9 1593.5,1861.5 1605.7,1819.5 1619.2,1777.8 1633.8,1736.4 1649.6,1695.5 1666.6,1655.1 1684.8,1615.2 1704.1,1575.9 1724.6,1537.1 1746.2,1498.9 1768.9,1461.4 1792.7,1424.6 1817.5,1388.5 1843.3,1353.1 1870.1,1318.4 1897.8,1284.6 1926.3,1251.5 1955.7,1219.2 1985.8,1187.7 2016.6,1157.1 2048.0,1127.4 2080.1,1098.5 2112.6,1070.4 2145.5,1043.3 2178.7,1017.0 2212.2,991.6 2245.9,967.0  " style="stroke-opacity: 1.000000; stroke-width: 5.0; stroke: rgb(251,106,74); fill: none"  />
<path d="M 1533.9,2416.1 L 1532.1,2369.6 1530.3,2323.1 1528.3,2276.4 1526.3,2229.8 1524.2,2183.0 1521.9,2136.2 1519.6,2089.4 1517.1,2042.5 1514.6,1995.6 1511.9,1948.6 1509.1,1901.6 1506.2,1854.6 1503.2,1807.6 1500.1,1760.5 1496.8,1713.4 1493.4,1666.4 1489.9,1619.3 1486.3,1572.2 1482.6,1525.1 1478.7,1478.1 1474.7,1431.0 1470.6,1384.0 1466.4,1336.9 1462.1,1289.9 1457.6,1243.0 1453.0,1196.0 1448.4,1149.1 1443.6,1102.3 1438.6,1055.4 1433.6,1008.7 1428.5,962.0 1423.3,915.3 1418.0,868.7 1412.5,822.2 1407.0,775.7 1401.4,729.3 1395.7,683.0 1390.0,636.8 1384.1,590.6  " style="stroke-opacity: 1.000000; stroke-width: 5.0; stroke: rgb(251,106,74); fill: none"  />
<path d="M 1999.0,2269.1 L 1979.3,2239.3 1959.4,2209.9 1939.2,2181.2 1918.9,2153.4 1898.6,2126.6 1878.3,2101.1 1858.0,2077.0 1838.0,2054.5 1818.3,2033.7 1798.8,2014.8 1779.8,1997.8 1761.2,1983.0 1743.1,1970.3 1725.6,1959.9 1708.6,1951.9 1692.3,1946.2 1676.7,1943.0 1661.9,1942.2 1647.7,1943.9 1634.4,1948.2 1621.8,1954.9 1610.0,1964.0 1599.1,1975.7 1589.1,1989.7 1579.8,2006.0 1571.5,2024.6 1563.9,2045.3 1557.3,2068.2 1551.4,2093.0 1546.4,2119.7 1542.2,2148.0 1538.8,2177.9 1536.1,2209.3 1534.1,2241.8 1532.8,2275.5 1532.2,2309.9 1532.2,2345.0 1532.8,2380.5 1533.9,2416.1  " style="stroke-opacity: 1.000000; stroke-width: 5.0; stroke: rgb(251,106,74); fill: none"  />
<path d="M 1999.0,2269.1 L 1978.1,2237.8 1956.4,2206.9 1933.9,2176.6 1910.7,2147.1 1886.7,2118.5 1862.0,2091.1 1836.7,2064.9 1810.7,2040.1 1784.1,2016.7 1757.0,1995.0 1729.4,1975.0 1701.3,1956.8 1672.8,1940.5 1643.8,1926.1 1614.6,1913.8 1585.0,1903.6 1555.2,1895.5 1525.1,1889.5 1494.9,1885.7 1464.5,1884.1 1434.0,1884.7 1403.5,1887.4 1372.9,1892.4 1342.4,1899.4 1312.0,1908.6 1281.8,1919.8 1251.7,1933.0 1221.8,1948.2 1192.3,1965.2 1163.0,1983.9 1134.1,2004.3 1105.7,2026.3 1077.7,2049.7 1050.3,2074.3 1023.4,2100.2 997.2,2127.1 971.6,2154.8 946.8,2183.3 922.8,2212.2  " style="stroke-opacity: 1.000000; stroke-width: 5.0; stroke: rgb(251,106,74); fill: none"  />
<path d="M 1223.6,625.9 L 1237.6,670.3 1251.5,714.7 1265.4,759.3 1279.2,803.9 1292.9,848.7 1306.6,893.5 1320.1,938.4 1333.6,983.4 1347.0,1028.4 1360.3,1073.5 1373.4,1118.7 1386.5,1164.0 1399.5,1209.3 1412.4,1254.7 1425.2,1300.1 1437.8,1345.5 1450.4,1391.1 1462.8,1436.6 1475.1,1482.2 1487.4,1527.8 1499.4,1573.5 1511.4,1619.2 1523.3,1664.9 1535.0,1710.6 1546.6,1756.3 1558.1,1802.0 1569.4,1847.8 1580.7,1893.5 1591.8,1939.3 1602.8,1985.0 1613.7,2030.7 1624.5,2076.4 1635.2,2122.1 1645.7,2167.7 1656.2,2213.3 1666.5,2258.9 1676.7,2304.4 1686.9,2349.9 1696.9,2395.4  " style="stroke-opacity: 1.000000; stroke-width: 5.0; stroke: rgb(251,106,74); fill: none"  />
<path d="M 922.8,2212.2 L 950.7,2177.5 978.4,2142.2 1006.0,2106.5 1033.4,2070.4 1060.5,2033.7 1087.3,1996.6 1113.9,1959.1 1140.1,1921.1 1166.0,1882.7 1191.6,1843.9 1216.7,1804.6 1241.4,1765.0 1265.7,1725.0 1289.5,1684.6 1312.8,1643.9 1335.7,1602.8 1358.0,1561.4 1379.9,1519.7 1401.2,1477.7 1422.0,1435.4 1442.2,1392.9 1461.9,1350.1 1481.0,1307.1 1499.5,1263.9 1517.5,1220.5 1534.9,1177.0 1551.8,1133.3 1568.0,1089.6 1583.8,1045.7 1598.9,1001.8 1613.5,957.8 1627.5,913.8 1641.0,869.9 1653.9,825.9 1666.4,782.1 1678.3,738.3 1689.7,694.7 1700.6,651.2 1711.1,607.9  " style="stroke-opacity: 1.000000; stroke-width: 5.0; stroke: rgb(251,106,74); fill: none"  />
<path d="M 922.8,2212.2 L 946.8,2183.3 971.6,2154.8 997.2,2127.1 1023.4,2100.2 1050.3,2074.3 1077.7,2049.7 1105.7,2026.3 1134.1,2004.3 1163.0,1983.9 1192.3,1965.2 1221.8,1948.2 1251.7,1933.0 1281.8,1919.8 1312.0,1908.6 1342.4,1899.4 1372.9,1892.4 1403.5,1887.4 1434.0,1884.7 1464.5,1884.1 1494.9,1885.7 1525.1,1889.5 1555.2,1895.5 1585.0,1903.6 1614.6,1913.8 1643.8,1926.1 1672.8,1940.5 1701.3,1956.8 1729.4,1975.0 1757.0,1995.0 1784.1,2016.7 1810.7,2040.1 1836.7,2064.9 1862.0,2091.1 1886.7,2118.5 1910.7,2147.1 1933.9,2176.6 1956.4,2206.9 1978.1,2237.8 1999.0,2269.1  " style="stroke-opacity: 1.000000; stroke-width: 5.0; stroke: rgb(251,106,74); fill: none"  />
<path d="M 922.8,2212.2 L 951.0,2177.7 979.7,2143.3 1008.9,2108.9 1038.6,2074.6 1068.8,2040.5 1099.6,2006.5 1130.8,1972.8 1162.5,1939.2 1194.7,1906.0 1227.4,1873.0 1260.6,1840.3 1294.3,1807.9 1328.4,1775.9 1363.0,1744.2 1398.0,1712.9 1433.4,1682.1 1469.3,1651.6 1505.6,1621.6 1542.3,1592.1 1579.4,1563.0 1616.8,1534.4 1654.6,1506.3 1692.7,1478.7 1731.1,1451.6 1769.8,1425.0 1808.8,1399.0 1848.0,1373.4 1887.4,1348.5 1927.1,1324.0 1966.9,1300.1 2006.9,1276.7 2047.1,1253.9 2087.3,1231.6 2127.6,1209.8 2167.9,1188.6 2208.3,1167.9 2248.6,1147.7 2288.9,1128.0 2329.1,1108.8  " style="stroke-opacity: 1.000000; stroke-width: 5.0; stroke: rgb(251,106,74); fill: none"  />
<path d="M 1853.6,2345.8 L 1835.9,2303.8 1818.0,2261.8 1799.6,2219.7 1781.0,2177.5 1762.1,2135.3 1742.8,2093.1 1723.2,2050.9 1703.2,2008.7 1682.9,1966.6 1662.3,1924.5 1641.3,1882.5 1620.0,1840.5 1598.3,1798.6 1576.3,1756.9 1554.0,1715.3 1531.3,1673.8 1508.3,1632.4 1485.0,1591.2 1461.3,1550.2 1437.3,1509.3 1413.0,1468.6 1388.5,1428.2 1363.6,1387.9 1338.4,1347.9 1313.0,1308.1 1287.2,1268.5 1261.3,1229.2 1235.0,1190.1 1208.6,1151.3 1181.9,1112.7 1155.0,1074.5 1127.9,1036.5 1100.6,998.8 1073.2,961.3 1045.6,924.2 1017.9,887.4 990.1,850.9 962.1,814.7 934.1,778.8  " style="stroke-opacity: 1.000000; stroke-width: 5.0; stroke: rgb(251,106,74); fill: none"  />
<path d="M 1853.6,2345.8 L 1838.4,2310.6 1822.3,2275.7 1805.1,2241.1 1787.0,2207.1 1767.9,2173.7 1747.8,2141.2 1726.8,2109.7 1704.7,2079.2 1681.7,2050.0 1657.8,2022.0 1633.0,1995.5 1607.2,1970.5 1580.5,1947.1 1553.0,1925.3 1524.6,1905.3 1495.4,1887.0 1465.4,1870.6 1434.7,1856.0 1403.2,1843.4 1371.1,1832.7 1338.4,1823.9 1305.1,1817.1 1271.3,1812.2 1237.0,1809.3 1202.2,1808.3 1167.2,1809.1 1131.8,1811.8 1096.1,1816.4 1060.3,1822.6 1024.4,1830.6 988.5,1840.2 952.6,1851.3 916.8,1863.9 881.2,1877.9 845.9,1893.0 811.0,1909.4 776.5,1926.7 742.6,1945.0 709.3,1964.0  " style="stroke-opacity: 1.000000; stroke-width: 5.0; stroke: rgb(251,106,74); fill: none"  />
<path d="M 2245.9,967.0 L 2212.2,991.6 2178.7,1017.0 2145.5,1043.3 2112.6,1070.4 2080.1,1098.5 2048.0,1127.4 2016.6,1157.1 1985.8,1187.7 1955.7,1219.2 1926.3,1251.5 1897.8,1284.6 1870.1,1318.4 1843.3,1353.1 1817.5,1388.5 1792.7,1424.6 1768.9,1461.4 1746.2,1498.9 1724.6,1537.1 1704.1,1575.9 1684.8,1615.2 1666.6,1655.1 1649.6,1695.5 1633.8,1736.4 1619.2,1777.8 1605.7,1819.5 1593.5,1861.5 1582.4,1903.9 1572.5,1946.5 1563.7,1989.3 1556.1,2032.3 1549.6,2075.3 1544.2,2118.4 1539.9,2161.5 1536.6,2204.5 1534.2,2247.4 1532.9,2290.0 1532.4,2332.4 1532.7,2374.5 1533.9,2416.1  " style="stroke-opacity: 1.000000; stroke-width: 5.0; stroke: rgb(251,106,74); fill: none"  />
<path d="M 709.3,1964.0 L 745.1,1942.5 780.7,1920.2 816.2,1897.0 851.4,1872.9 886.3,1847.9 920.8,1822.0 954.7,1795.2 988.2,1767.5 1021.0,1738.8 1053.1,1709.3 1084.5,1678.9 1115.1,1647.7 1144.9,1615.6 1173.8,1582.6 1201.7,1548.9 1228.7,1514.3 1254.7,1479.0 1279.6,1442.9 1303.5,1406.1 1326.3,1368.7 1348.0,1330.6 1368.5,1291.8 1387.9,1252.5 1406.2,1212.7 1423.3,1172.3 1439.3,1131.5 1454.1,1090.3 1467.8,1048.8 1480.4,1006.9 1491.8,964.8 1502.1,922.5 1511.4,880.1 1519.6,837.6 1526.7,795.0 1532.9,752.6 1538.1,710.2 1542.4,668.0 1545.8,626.1 1548.4,584.5  " style="stroke-opacity: 1.000000; stroke-width: 5.0; stroke: rgb(251,106,74); fill: none"  />
<path d="M 709.3,1964.0 L 743.9,1944.2 779.3,1925.0 815.4,1906.7 852.1,1889.2 889.3,1872.7 927.1,1857.3 965.3,1843.1 1003.9,1830.0 1042.8,1818.3 1082.1,1808.0 1121.5,1799.1 1161.1,1791.7 1200.9,1785.8 1240.7,1781.5 1280.5,1778.9 1320.4,1777.8 1360.1,1778.4 1399.7,1780.7 1439.1,1784.7 1478.3,1790.3 1517.3,1797.6 1555.9,1806.5 1594.2,1817.1 1632.2,1829.3 1669.6,1843.1 1706.6,1858.4 1743.1,1875.2 1779.1,1893.5 1814.4,1913.1 1849.2,1934.1 1883.2,1956.3 1916.6,1979.6 1949.3,2004.0 1981.2,2029.4 2012.3,2055.7 2042.6,2082.8 2072.0,2110.6 2100.6,2138.9 2128.3,2167.6  " style="stroke-opacity: 1.000000; stroke-width: 5.0; stroke: rgb(251,106,74); fill: none"  />
<path d="M 709.3,1964.0 L 742.6,1945.0 776.5,1926.7 811.0,1909.4 845.9,1893.0 881.2,1877.9 916.8,1863.9 952.6,1851.3 988.5,1840.2 1024.4,1830.6 1060.3,1822.6 1096.1,1816.4 1131.8,1811.8 1167.2,1809.1 1202.2,1808.3 1237.0,1809.3 1271.3,1812.2 1305.1,1817.1 1338.4,1823.9 1371.1,1832.7 1403.2,1843.4 1434.7,1856.0 1465.4,1870.6 1495.4,1887.0 1524.6,1905.3 1553.0,1925.3 1580.5,1947.1 1607.2,1970.5 1633.0,1995.5 1657.8,2022.0 1681.7,2050.0 1704.7,2079.2 1726.8,2109.7 1747.8,2141.2 1767.9,2173.7 1787.0,2207.1 1805.1,2241.1 1822.3,2275.7 1838.4,2310.6 1853.6,2345.8  " style="stroke-opacity: 1.000000; stroke-width: 5.0; stroke: rgb(251,106,74); fill: none"  />
<path d="M 1384.1,590.6 L 1390.0,636.8 1395.7,683.0 1401.4,729.3 1407.0,775.7 1412.5,822.2 1418.0,868.7 1423.3,915.3 1428.5,962.0 1433.6,1008.7 1438.6,1055.4 1443.6,1102.3 1448.4,1149.1 1453.0,1196.0 1457.6,1243.0 1462.1,1289.9 1466.4,1336.9 1470.6,1384.0 1474.7,1431.0 1478.7,1478.1 1482.6,1525.1 1486.3,1572.2 1489.9,1619.3 1493.4,1666.4 1496.8,1713.4 1500.1,1760.5 1503.2,1807.6 1506.2,1854.6 1509.1,1901.6 1511.9,1948.6 1514.6,1995.6 1517.1,2042.5 1519.6,2089.4 1521.9,2136.2 1524.2,2183.0 1526.3,2229.8 1528.3,2276.4 1530.3,2323.1 1532.1,2369.6 1533.9,2416.1  " style="stroke-opacity: 1.000000; stroke-width: 5.0; stroke: rgb(251,106,74); fill: none"  />
<path d="M 1696.9,2395.4 L 1686.9,2349.9 1676.7,2304.4 1666.5,2258.9 1656.2,2213.3 1645.7,2167.7 1635.2,2122.1 1624.5,2076.4 1613.7,2030.7 1602.8,1985.0 1591.8,1939.3 1580.7,1893.5 1569.4,1847.8 1558.1,1802.0 1546.6,1756.3 1535.0,1710.6 1523.3,1664.9 1511.4,1619.2 1499.4,1573.5 1487.4,1527.8 1475.1,1482.2 1462.8,1436.6 1450.4,1391.1 1437.8,1345.5 1425.2,1300.1 1412.4,1254.7 1399.5,1209.3 1386.5,1164.0 1373.4,1118.7 1360.3,1073.5 1347.0,1028.4 1333.6,983.4 1320.1,938.4 1306.6,893.5 1292.9,848.7 1279.2,803.9 1265.4,759.3 1251.5,714.7 1237.6,670.3 1223.6,625.9  " style="stroke-opacity: 1.000000; stroke-width: 5.0; stroke: rgb(251,106,74); fill: none"  />
<path d="M 2329.1,1108.8 L 2288.9,1128.0 2248.6,1147.7 2208.3,1167.9 2167.9,1188.6 2127.6,1209.8 2087.3,1231.6 2047.1,1253.9 2006.9,1276.7 1966.9,1300.1 1927.1,1324.0 1887.4,1348.5 1848.0,1373.4 1808.8,1399.0 1769.8,1425.0 1731.1,1451.6 1692.7,1478.7 1654.6,1506.3 1616.8,1534.4 1579.4,1563.0 1542.3,1592.1 1505.6,1621.6 1469.3,1651.6 1433.4,1682.1 1398.0,1712.9 1363.0,1744.2 1328.4,1775.9 1294.3,1807.9 1260.6,1840.3 1227.4,1873.0 1194.7,1906.0 1162.5,1939.2 1130.8,1972.8 1099.6,2006.5 1068.8,2040.5 1038.6,2074.6 1008.9,2108.9 979.7,2143.3 951.0,2177.7 922.8,2212.2  " style="stroke-opacity: 1.000000; stroke-width: 5.0; stroke: rgb(251,106,74); fill: none"  />
</g>
<g id="track_0">
<path d="M 2237.4,2044.7 L 2209.0,2023.8 2180.7,2003.2 2152.6,1983.1 2125.1,1963.6 2098.3,1944.8 2072.2,1927.0 2047.2,1910.1 2023.2,1894.4 2000.5,1880.0 1979.2,1866.8 1959.4,1855.1 1941.2,1844.9 1924.7,1836.3 1909.9,1829.3 1896.9,1824.0 1885.9,1820.4 1876.7,1818.6 1869.6,1818.6 1864.4,1820.3 1861.3,1823.9 1860.1,1829.2 1861.0,1836.3 1863.9,1845.2 1868.8,1855.7 1875.6,1868.0 1884.3,1881.8 1894.8,1897.2 1907.1,1914.1 1921.0,1932.4 1936.6,1952.0 1953.7,1972.8 1972.1,1994.7 1991.8,2017.6 2012.6,2041.3 2034.4,2065.8 2057.1,2090.8 2080.4,2116.2 2104.2,2141.9 2128.3,2167.6  " style="stroke-opacity: 1.000000; stroke-width: 5.0; stroke: rgb(107,174,214); fill: none"  />
<path d="M 2237.4,2044.7 L 2208.8,2023.8 2180.2,2003.3 2151.7,1983.4 2123.6,1964.2 2096.0,1946.0 2069.1,1928.8 2042.9,1912.7 2017.7,1898.0 1993.6,1884.6 1970.6,1872.8 1948.9,1862.6 1928.6,1854.0 1909.8,1847.1 1892.5,1842.1 1876.8,1838.9 1862.9,1837.6 1850.6,1838.2 1840.1,1840.8 1831.4,1845.3 1824.6,1851.8 1819.5,1860.2 1816.3,1870.5 1815.0,1882.7 1815.4,1896.7 1817.7,1912.5 1821.6,1930.1 1827.3,1949.3 1834.6,1970.1 1843.6,1992.4 1854.0,2016.0 1865.8,2040.9 1879.0,2067.0 1893.5,2094.1 1909.0,2122.0 1925.5,2150.7 1943.0,2179.9 1961.1,2209.5 1979.8,2239.3 1999.0,2269.1  " style="stroke-opacity: 1.000000; stroke-width: 5.0; stroke: rgb(107,174,214); fill: none"  />
<path d="M 2237.4,2044.7 L 2208.5,2023.7 2179.6,2003.2 2150.6,1983.4 2121.8,1964.5 2093.3,1946.6 2065.3,1929.9 2038.0,1914.4 2011.3,1900.3 1985.5,1887.8 1960.7,1876.9 1936.9,1867.8 1914.2,1860.4 1892.9,1854.9 1872.8,1851.3 1854.1,1849.7 1836.9,1850.1 1821.1,1852.6 1806.9,1857.1 1794.3,1863.7 1783.3,1872.4 1773.9,1883.1 1766.1,1895.8 1759.9,1910.5 1755.4,1927.1 1752.5,1945.7 1751.2,1966.0 1751.5,1988.1 1753.3,2011.8 1756.5,2037.1 1761.2,2063.8 1767.2,2091.9 1774.5,2121.1 1783.0,2151.4 1792.6,2182.6 1803.2,2214.5 1814.8,2246.9 1827.1,2279.8 1840.1,2312.8 1853.6,2345.8  " style="stroke-opacity: 1.000000; stroke-width: 5.0; stroke: rgb(107,174,214); fill: none"  />
<path d="M 2237.4,2044.7 L 2208.2,2023.6 2178.8,2003.0 2149.2,1983.2 2119.6,1964.4 2090.2,1946.6 2061.1,1930.1 2032.4,1915.0 2004.2,1901.4 1976.6,1889.4 1949.7,1879.1 1923.7,1870.6 1898.6,1864.0 1874.4,1859.3 1851.4,1856.7 1829.5,1856.1 1808.7,1857.6 1789.2,1861.2 1771.1,1867.0 1754.2,1874.9 1738.7,1884.9 1724.7,1897.1 1712.0,1911.4 1700.7,1927.7 1690.9,1946.0 1682.5,1966.2 1675.5,1988.4 1670.0,2012.3 1665.8,2037.9 1662.9,2065.2 1661.4,2093.9 1661.1,2124.0 1662.0,2155.3 1664.1,2187.7 1667.3,2221.0 1671.5,2255.1 1676.7,2289.8 1682.7,2324.8 1689.5,2360.1 1696.9,2395.4  " style="stroke-opacity: 1.000000; stroke-width: 5.0; stroke: rgb(107,174,214); fill: none"  />
<path d="M 1548.4,584.5 L 1546.7,619.9 1545.3,655.1 1544.4,689.8 1543.9,723.8 1543.9,756.9 1544.3,788.8 1545.4,819.5 1546.9,848.7 1549.1,876.2 1551.9,901.9 1555.3,925.6 1559.3,947.3 1564.0,966.8 1569.3,984.0 1575.2,998.8 1581.9,1011.2 1589.1,1021.0 1597.1,1028.4 1605.6,1033.1 1614.8,1035.3 1624.6,1034.9 1634.9,1031.9 1645.9,1026.3 1657.3,1018.2 1669.3,1007.6 1681.8,994.6 1694.7,979.3 1708.0,961.7 1721.6,942.0 1735.6,920.3 1749.9,896.7 1764.4,871.3 1779.0,844.4 1793.8,816.0 1808.6,786.4 1823.4,755.8 1838.1,724.3 1852.6,692.3 1867.0,659.9  " style="stroke-opacity: 1.000000; stroke-width: 5.0; stroke: rgb(107,174,214); fill: none"  />
<path d="M 814.4,891.4 L 840.8,914.7 867.2,937.8 893.3,960.3 919.0,982.2 944.0,1003.3 968.4,1023.5 991.8,1042.5 1014.2,1060.3 1035.5,1076.7 1055.6,1091.7 1074.3,1105.1 1091.5,1116.9 1107.2,1127.0 1121.3,1135.3 1133.7,1141.7 1144.4,1146.3 1153.4,1148.9 1160.5,1149.6 1165.8,1148.3 1169.2,1145.1 1170.8,1139.8 1170.6,1132.7 1168.5,1123.6 1164.6,1112.7 1158.9,1099.9 1151.5,1085.3 1142.4,1069.0 1131.7,1051.1 1119.4,1031.6 1105.7,1010.7 1090.6,988.4 1074.2,965.0 1056.6,940.4 1038.0,914.9 1018.5,888.6 998.1,861.7 977.2,834.2 955.8,806.5 934.1,778.8  " style="stroke-opacity: 1.000000; stroke-width: 5.0; stroke: rgb(107,174,214); fill: none"  />
<path d="M 934.1,778.8 L 955.8,806.5 977.2,834.2 998.1,861.7 1018.5,888.6 1038.0,914.9 1056.6,940.4 1074.2,965.0 1090.6,988.4 1105.7,1010.7 1119.4,1031.6 1131.7,1051.1 1142.4,1069.0 1151.5,1085.3 1158.9,1099.9 1164.6,1112.7 1168.5,1123.6 1170.6,1132.7 1170.8,1139.8 1169.2,1145.1 1165.8,1148.3 1160.5,1149.6 1153.4,1148.9 1144.4,1146.3 1133.7,1141.7 1121.3,1135.3 1107.2,1127.0 1091.5,1116.9 1074.3,1105.1 1055.6,1091.7 1035.5,1076.7 1014.2,1060.3 991.8,1042.5 968.4,1023.5 944.0,1003.3 919.0,982.2 893.3,960.3 867.2,937.8 840.8,914.7 814.4,891.4  " style="stroke-opacity: 1.000000; stroke-width: 5.0; stroke: rgb(107,174,214); fill: none"  />
<path d="M 1711.1,607.9 L 1703.0,642.2 1695.2,676.3 1687.7,710.0 1680.6,743.0 1673.9,775.1 1667.7,806.0 1662.1,835.7 1657.0,863.9 1652.6,890.4 1649.0,915.2 1646.0,938.0 1643.8,958.7 1642.3,977.3 1641.7,993.7 1641.9,1007.7 1643.0,1019.3 1644.9,1028.4 1647.7,1035.0 1651.3,1039.0 1655.8,1040.5 1661.2,1039.5 1667.4,1035.9 1674.4,1029.7 1682.2,1021.1 1690.7,1010.0 1700.1,996.6 1710.1,980.9 1720.8,962.9 1732.1,942.9 1744.0,920.9 1756.4,897.0 1769.3,871.5 1782.6,844.4 1796.3,815.9 1810.2,786.2 1824.3,755.6 1838.5,724.2 1852.8,692.2 1867.0,659.9  " style="stroke-opacity: 1.000000; stroke-width: 5.0; stroke: rgb(107,174,214); fill: none"  />
<path d="M 2128.3,2167.6 L 2104.2,2141.9 2080.4,2116.2 2057.1,2090.8 2034.4,2065.8 2012.6,2041.3 1991.8,2017.6 1972.1,1994.7 1953.7,1972.8 1936.6,1952.0 1921.0,1932.4 1907.1,1914.1 1894.8,1897.2 1884.3,1881.8 1875.6,1868.0 1868.8,1855.7 1863.9,1845.2 1861.0,1836.3 1860.1,1829.2 1861.3,1823.9 1864.4,1820.3 1869.6,1818.6 1876.7,1818.6 1885.9,1820.4 1896.9,1824.0 1909.9,1829.3 1924.7,1836.3 1941.2,1844.9 1959.4,1855.1 1979.2,1866.8 2000.5,1880.0 2023.2,1894.4 2047.2,1910.1 2072.2,1927.0 2098.3,1944.8 2125.1,1963.6 2152.6,1983.1 2180.7,2003.2 2209.0,2023.8 2237.4,2044.7  " style="stroke-opacity: 1.000000; stroke-width: 5.0; stroke: rgb(107,174,214); fill: none"  />
<path d="M 2128.3,2167.6 L 2104.0,2142.0 2079.9,2116.7 2055.9,2091.9 2032.3,2067.8 2009.2,2044.5 1986.8,2022.3 1965.1,2001.2 1944.4,1981.5 1924.7,1963.2 1906.0,1946.5 1888.6,1931.4 1872.5,1918.2 1857.8,1906.7 1844.5,1897.2 1832.7,1889.7 1822.4,1884.2 1813.8,1880.8 1806.7,1879.4 1801.3,1880.2 1797.6,1883.2 1795.6,1888.2 1795.2,1895.4 1796.4,1904.6 1799.3,1915.9 1803.8,1929.1 1809.9,1944.3 1817.5,1961.3 1826.6,1980.1 1837.1,2000.6 1848.9,2022.7 1861.9,2046.2 1876.2,2071.0 1891.5,2097.1 1907.7,2124.1 1924.8,2152.1 1942.6,2180.8 1961.0,2209.9 1979.8,2239.4 1999.0,2269.1  " style="stroke-opacity: 1.000000; stroke-width: 5.0; stroke: rgb(107,174,214); fill: none"  />
<path d="M 2128.3,2167.6 L 2103.9,2141.9 2079.4,2116.7 2055.0,2092.0 2030.7,2068.1 2006.8,2045.2 1983.4,2023.5 1960.5,2003.0 1938.3,1984.0 1917.0,1966.6 1896.5,1950.8 1877.0,1936.9 1858.5,1924.8 1841.2,1914.7 1825.1,1906.7 1810.3,1900.8 1796.8,1897.0 1784.6,1895.4 1773.8,1896.1 1764.5,1899.0 1756.5,1904.1 1750.1,1911.5 1745.1,1921.0 1741.6,1932.8 1739.5,1946.7 1738.9,1962.6 1739.7,1980.6 1741.8,2000.5 1745.3,2022.3 1750.1,2045.8 1756.2,2070.9 1763.4,2097.6 1771.7,2125.5 1781.1,2154.8 1791.4,2185.0 1802.5,2216.2 1814.4,2248.0 1827.0,2280.4 1840.1,2313.1 1853.6,2345.8  " style="stroke-opacity: 1.000000; stroke-width: 5.0; stroke: rgb(107,174,214); fill: none"  />
<path d="M 2128.3,2167.6 L 2103.6,2141.8 2078.8,2116.5 2053.8,2091.8 2028.9,2068.1 2004.1,2045.4 1979.5,2023.9 1955.3,2003.8 1931.6,1985.2 1908.4,1968.3 1885.9,1953.1 1864.2,1939.9 1843.2,1928.6 1823.2,1919.3 1804.1,1912.2 1786.0,1907.3 1768.9,1904.7 1753.0,1904.3 1738.2,1906.2 1724.6,1910.4 1712.2,1917.0 1701.1,1925.8 1691.1,1936.9 1682.5,1950.3 1675.1,1965.9 1668.9,1983.6 1664.0,2003.4 1660.3,2025.2 1657.8,2048.8 1656.5,2074.3 1656.3,2101.4 1657.2,2130.1 1659.2,2160.1 1662.1,2191.4 1666.0,2223.8 1670.8,2257.1 1676.3,2291.1 1682.6,2325.6 1689.5,2360.5 1696.9,2395.4  " style="stroke-opacity: 1.000000; stroke-width: 5.0; stroke: rgb(107,174,214); fill: none"  />
<path d="M 1867.0,659.9 L 1852.6,692.3 1838.1,724.3 1823.4,755.8 1808.6,786.4 1793.8,816.0 1779.0,844.4 1764.4,871.3 1749.9,896.7 1735.6,920.3 1721.6,942.0 1708.0,961.7 1694.7,979.3 1681.8,994.6 1669.3,1007.6 1657.3,1018.2 1645.9,1026.3 1634.9,1031.9 1624.6,1034.9 1614.8,1035.3 1605.6,1033.1 1597.1,1028.4 1589.1,1021.0 1581.9,1011.2 1575.2,998.8 1569.3,984.0 1564.0,966.8 1559.3,947.3 1555.3,925.6 1551.9,901.9 1549.1,876.2 1546.9,848.7 1545.4,819.5 1544.3,788.8 1543.9,756.9 1543.9,723.8 1544.4,689.8 1545.3,655.1 1546.7,619.9 1548.4,584.5  " style="stroke-opacity: 1.000000; stroke-width: 5.0; stroke: rgb(107,174,214); fill: none"  />
<path d="M 1867.0,659.9 L 1852.8,692.2 1838.5,724.2 1824.3,755.6 1810.2,786.2 1796.3,815.9 1782.6,844.4 1769.3,871.5 1756.4,897.0 1744.0,920.9 1732.1,942.9 1720.8,962.9 1710.1,980.9 1700.1,996.6 1690.7,1010.0 1682.2,1021.1 1674.4,1029.7 1667.4,1035.9 1661.2,1039.5 1655.8,1040.5 1651.3,1039.0 1647.7,1035.0 1644.9,1028.4 1643.0,1019.3 1641.9,1007.7 1641.7,993.7 1642.3,977.3 1643.8,958.7 1646.0,938.0 1649.0,915.2 1652.6,890.4 1657.0,863.9 1662.1,835.7 1667.7,806.0 1673.9,775.1 1680.6,743.0 1687.7,710.0 1695.2,676.3 1703.0,642.2 1711.1,607.9  " style="stroke-opacity: 1.000000; stroke-width: 5.0; stroke: rgb(107,174,214); fill: none"  />
<path d="M 1867.0,659.9 L 1852.9,692.4 1839.3,724.9 1826.3,757.0 1813.8,788.7 1802.2,819.7 1791.4,849.8 1781.6,878.8 1772.8,906.7 1765.2,933.2 1758.7,958.2 1753.6,981.7 1749.7,1003.4 1747.2,1023.2 1746.2,1041.2 1746.6,1057.2 1748.4,1071.1 1751.7,1082.9 1756.6,1092.6 1762.9,1100.0 1770.7,1105.3 1780.0,1108.3 1790.8,1109.1 1803.0,1107.8 1816.6,1104.2 1831.5,1098.5 1847.7,1090.7 1865.2,1080.9 1883.8,1069.1 1903.6,1055.5 1924.3,1040.1 1946.0,1023.0 1968.4,1004.3 1991.6,984.2 2015.4,962.8 2039.7,940.3 2064.3,916.9 2089.1,892.6 2114.0,867.7 2138.8,842.4  " style="stroke-opacity: 1.000000; stroke-width: 5.0; stroke: rgb(107,174,214); fill: none"  />
<path d="M 1533.9,2416.1 L 1532.5,2380.9 1530.9,2345.9 1529.2,2311.5 1527.3,2277.8 1525.2,2245.1 1523.0,2213.6 1520.5,2183.5 1517.9,2155.0 1515.0,2128.2 1512.0,2103.4 1508.8,2080.6 1505.4,2060.0 1501.8,2041.7 1498.1,2025.8 1494.2,2012.3 1490.0,2001.5 1485.8,1993.2 1481.3,1987.6 1476.8,1984.6 1472.0,1984.4 1467.2,1986.8 1462.2,1991.9 1457.0,1999.7 1451.8,2010.1 1446.5,2023.1 1441.1,2038.5 1435.6,2056.3 1430.0,2076.4 1424.5,2098.8 1418.8,2123.2 1413.2,2149.5 1407.6,2177.5 1402.0,2207.2 1396.4,2238.3 1390.9,2270.6 1385.4,2303.9 1380.1,2337.9 1374.8,2372.6 1369.8,2407.5  " style="stroke-opacity: 1.000000; stroke-width: 5.0; stroke: rgb(107,174,214); fill: none"  />
<path d="M 1533.9,2416.1 L 1532.4,2380.7 1530.6,2345.6 1528.4,2310.9 1525.9,2277.0 1522.9,2244.1 1519.6,2212.3 1515.8,2181.8 1511.6,2152.9 1507.0,2125.7 1501.9,2100.4 1496.4,2077.0 1490.5,2055.8 1484.1,2036.8 1477.3,2020.2 1470.0,2005.9 1462.3,1994.2 1454.2,1985.0 1445.6,1978.4 1436.7,1974.4 1427.3,1973.1 1417.6,1974.4 1407.6,1978.3 1397.2,1984.9 1386.5,1994.0 1375.5,2005.6 1364.3,2019.6 1352.8,2036.0 1341.1,2054.7 1329.3,2075.6 1317.3,2098.5 1305.2,2123.3 1293.0,2149.8 1280.9,2178.0 1268.7,2207.6 1256.6,2238.4 1244.6,2270.2 1232.8,2302.9 1221.2,2336.1 1209.8,2369.6  " style="stroke-opacity: 1.000000; stroke-width: 5.0; stroke: rgb(107,174,214); fill: none"  />
<path d="M 1533.9,2416.1 L 1532.3,2380.5 1530.3,2345.1 1527.7,2310.1 1524.5,2275.8 1520.8,2242.3 1516.4,2210.0 1511.4,2179.0 1505.8,2149.4 1499.5,2121.4 1492.5,2095.2 1484.8,2070.9 1476.5,2048.6 1467.5,2028.4 1457.7,2010.5 1447.3,1994.9 1436.3,1981.7 1424.5,1970.9 1412.1,1962.6 1399.1,1956.9 1385.5,1953.6 1371.2,1952.9 1356.5,1954.8 1341.1,1959.2 1325.3,1966.0 1309.0,1975.3 1292.3,1987.0 1275.2,2000.9 1257.7,2017.1 1240.0,2035.4 1222.0,2055.7 1203.8,2077.9 1185.5,2101.9 1167.2,2127.4 1148.8,2154.3 1130.5,2182.5 1112.3,2211.8 1094.3,2241.9 1076.6,2272.7 1059.2,2303.8  " style="stroke-opacity: 1.000000; stroke-width: 5.0; stroke: rgb(107,174,214); fill: none"  />
<path d="M 1533.9,2416.1 L 1532.2,2380.1 1530.0,2344.3 1527.0,2308.9 1523.3,2274.0 1518.8,2239.9 1513.5,2206.9 1507.4,2175.0 1500.5,2144.4 1492.7,2115.4 1484.0,2088.0 1474.4,2062.3 1463.9,2038.6 1452.5,2016.8 1440.2,1997.1 1427.0,1979.6 1412.9,1964.3 1397.9,1951.4 1382.1,1940.7 1365.4,1932.5 1347.9,1926.7 1329.6,1923.2 1310.6,1922.2 1290.8,1923.6 1270.4,1927.3 1249.3,1933.4 1227.6,1941.7 1205.4,1952.3 1182.8,1965.0 1159.7,1979.7 1136.3,1996.4 1112.6,2015.0 1088.7,2035.3 1064.7,2057.1 1040.6,2080.4 1016.6,2104.9 992.7,2130.6 969.0,2157.1 945.7,2184.4 922.8,2212.2  " style="stroke-opacity: 1.000000; stroke-width: 5.0; stroke: rgb(107,174,214); fill: none"  />
<path d="M 1533.9,2416.1 L 1532.2,2379.7 1529.7,2343.4 1526.4,2307.3 1522.2,2271.8 1517.1,2236.9 1511.1,2203.0 1504.0,2170.0 1496.0,2138.3 1486.9,2107.9 1476.7,2079.0 1465.5,2051.7 1453.2,2026.1 1439.8,2002.3 1425.3,1980.4 1409.7,1960.6 1393.0,1942.8 1375.3,1927.1 1356.5,1913.6 1336.7,1902.2 1315.9,1893.2 1294.1,1886.3 1271.4,1881.7 1247.9,1879.4 1223.5,1879.2 1198.3,1881.3 1172.4,1885.5 1145.9,1891.8 1118.7,1900.2 1091.1,1910.5 1062.9,1922.7 1034.5,1936.7 1005.7,1952.3 976.8,1969.6 947.7,1988.2 918.7,2008.2 889.8,2029.2 861.1,2051.3 832.8,2074.2 804.9,2097.7  " style="stroke-opacity: 1.000000; stroke-width: 5.0; stroke: rgb(107,174,214); fill: none"  />
<path d="M 1533.9,2416.1 L 1532.1,2379.2 1529.5,2342.2 1525.9,2305.5 1521.3,2269.1 1515.7,2233.4 1509.1,2198.3 1501.3,2164.2 1492.3,2131.1 1482.2,2099.1 1470.9,2068.5 1458.4,2039.2 1444.6,2011.5 1429.6,1985.4 1413.4,1961.1 1395.9,1938.5 1377.2,1917.7 1357.3,1898.9 1336.2,1882.0 1313.9,1867.2 1290.5,1854.3 1266.0,1843.5 1240.4,1834.8 1213.8,1828.1 1186.3,1823.5 1157.8,1820.9 1128.5,1820.3 1098.5,1821.7 1067.7,1825.0 1036.3,1830.1 1004.4,1837.1 972.0,1845.7 939.3,1856.0 906.3,1867.8 873.2,1881.0 840.0,1895.5 806.9,1911.2 774.0,1928.0 741.4,1945.6 709.3,1964.0  " style="stroke-opacity: 1.000000; stroke-width: 5.0; stroke: rgb(107,174,214); fill: none"  />
<path d="M 1369.8,2407.5 L 1374.8,2372.6 1380.1,2337.9 1385.4,2303.9 1390.9,2270.6 1396.4,2238.3 1402.0,2207.2 1407.6,2177.5 1413.2,2149.5 1418.8,2123.2 1424.5,2098.8 1430.0,2076.4 1435.6,2056.3 1441.1,2038.5 1446.5,2023.1 1451.8,2010.1 1457.0,1999.7 1462.2,1991.9 1467.2,1986.8 1472.0,1984.4 1476.8,1984.6 1481.3,1987.6 1485.8,1993.2 1490.0,2001.5 1494.2,2012.3 1498.1,2025.8 1501.8,2041.7 1505.4,2060.0 1508.8,2080.6 1512.0,2103.4 1515.0,2128.2 1517.9,2155.0 1520.5,2183.5 1523.0,2213.6 1525.2,2245.1 1527.3,2277.8 1529.2,2311.5 1530.9,2345.9 1532.5,2380.9 1533.9,2416.1  " style="stroke-opacity: 1.000000; stroke-width: 5.0; stroke: rgb(107,174,214); fill: none"  />
<path d="M 1369.8,2407.5 L 1374.7,2372.5 1379.4,2337.8 1383.8,2303.6 1388.0,2270.2 1391.8,2237.6 1395.2,2206.2 1398.1,2176.2 1400.6,2147.7 1402.6,2120.8 1404.1,2095.8 1405.0,2072.9 1405.3,2052.0 1405.1,2033.3 1404.2,2017.0 1402.8,2003.1 1400.7,1991.6 1397.9,1982.7 1394.6,1976.4 1390.6,1972.7 1386.0,1971.6 1380.8,1973.1 1374.9,1977.3 1368.5,1984.0 1361.5,1993.3 1354.0,2005.1 1345.9,2019.3 1337.3,2035.9 1328.2,2054.7 1318.8,2075.7 1308.9,2098.6 1298.6,2123.5 1288.1,2150.1 1277.3,2178.3 1266.2,2207.9 1255.0,2238.7 1243.7,2270.5 1232.4,2303.1 1221.1,2336.2 1209.8,2369.6  " style="stroke-opacity: 1.000000; stroke-width: 5.0; stroke: rgb(107,174,214); fill: none"  />
<path d="M 1369.8,2407.5 L 1374.6,2371.3 1378.6,2335.1 1381.8,2299.0 1384.0,2263.3 1385.2,2228.1 1385.4,2193.6 1384.3,2160.0 1382.1,2127.3 1378.5,2095.8 1373.7,2065.5 1367.5,2036.6 1360.0,2009.3 1351.0,1983.5 1340.7,1959.4 1328.9,1937.0 1315.7,1916.5 1301.0,1897.9 1284.9,1881.3 1267.5,1866.6 1248.6,1854.0 1228.5,1843.3 1207.0,1834.8 1184.2,1828.3 1160.2,1823.8 1135.1,1821.3 1108.9,1820.8 1081.6,1822.3 1053.4,1825.7 1024.3,1830.9 994.5,1837.9 964.0,1846.5 932.9,1856.8 901.3,1868.6 869.4,1881.8 837.3,1896.2 805.1,1911.8 772.9,1928.4 741.0,1945.8 709.3,1964.0  " style="stroke-opacity: 1.000000; stroke-width: 5.0; stroke: rgb(107,174,214); fill: none"  />
<path d="M 1209.8,2369.6 L 1221.2,2336.1 1232.8,2302.9 1244.6,2270.2 1256.6,2238.4 1268.7,2207.6 1280.9,2178.0 1293.0,2149.8 1305.2,2123.3 1317.3,2098.5 1329.3,2075.6 1341.1,2054.7 1352.8,2036.0 1364.3,2019.6 1375.5,2005.6 1386.5,1994.0 1397.2,1984.9 1407.6,1978.3 1417.6,1974.4 1427.3,1973.1 1436.7,1974.4 1445.6,1978.4 1454.2,1985.0 1462.3,1994.2 1470.0,2005.9 1477.3,2020.2 1484.1,2036.8 1490.5,2055.8 1496.4,2077.0 1501.9,2100.4 1507.0,2125.7 1511.6,2152.9 1515.8,2181.8 1519.6,2212.3 1522.9,2244.1 1525.9,2277.0 1528.4,2310.9 1530.6,2345.6 1532.4,2380.7 1533.9,2416.1  " style="stroke-opacity: 1.000000; stroke-width: 5.0; stroke: rgb(107,174,214); fill: none"  />
<path d="M 1209.8,2369.6 L 1221.1,2336.2 1232.4,2303.1 1243.7,2270.5 1255.0,2238.7 1266.2,2207.9 1277.3,2178.3 1288.1,2150.1 1298.6,2123.5 1308.9,2098.6 1318.8,2075.7 1328.2,2054.7 1337.3,2035.9 1345.9,2019.3 1354.0,2005.1 1361.5,1993.3 1368.5,1984.0 1374.9,1977.3 1380.8,1973.1 1386.0,1971.6 1390.6,1972.7 1394.6,1976.4 1397.9,1982.7 1400.7,1991.6 1402.8,2003.1 1404.2,2017.0 1405.1,2033.3 1405.3,2052.0 1405.0,2072.9 1404.1,2095.8 1402.6,2120.8 1400.6,2147.7 1398.1,2176.2 1395.2,2206.2 1391.8,2237.6 1388.0,2270.2 1383.8,2303.6 1379.4,2337.8 1374.7,2372.5 1369.8,2407.5  " style="stroke-opacity: 1.000000; stroke-width: 5.0; stroke: rgb(107,174,214); fill: none"  />
<path d="M 1209.8,2369.6 L 1220.9,2336.1 1231.7,2302.8 1242.2,2270.0 1252.3,2237.8 1261.8,2206.4 1270.8,2176.2 1279.0,2147.1 1286.6,2119.5 1293.3,2093.5 1299.2,2069.1 1304.2,2046.7 1308.3,2026.2 1311.4,2007.8 1313.5,1991.6 1314.5,1977.6 1314.5,1966.0 1313.4,1956.7 1311.2,1949.9 1308.0,1945.6 1303.6,1943.7 1298.2,1944.2 1291.7,1947.3 1284.2,1952.8 1275.6,1960.7 1266.1,1970.9 1255.6,1983.4 1244.2,1998.2 1232.0,2015.1 1218.9,2034.0 1205.1,2054.9 1190.5,2077.5 1175.4,2101.8 1159.7,2127.7 1143.6,2154.8 1127.1,2183.1 1110.3,2212.3 1093.3,2242.4 1076.2,2272.9 1059.2,2303.8  " style="stroke-opacity: 1.000000; stroke-width: 5.0; stroke: rgb(107,174,214); fill: none"  />
<path d="M 1209.8,2369.6 L 1220.9,2336.0 1231.5,2302.4 1241.7,2269.2 1251.2,2236.6 1260.0,2204.7 1268.1,2173.7 1275.2,2143.9 1281.5,2115.4 1286.7,2088.3 1290.9,2062.8 1293.9,2039.0 1295.8,2017.0 1296.5,1997.0 1295.9,1979.0 1294.1,1963.1 1291.0,1949.4 1286.7,1938.0 1281.0,1928.8 1274.0,1921.9 1265.7,1917.4 1256.2,1915.2 1245.4,1915.4 1233.4,1917.8 1220.2,1922.6 1205.8,1929.6 1190.3,1938.8 1173.8,1950.1 1156.3,1963.5 1137.9,1978.9 1118.6,1996.1 1098.6,2015.1 1077.9,2035.7 1056.6,2057.8 1034.8,2081.2 1012.7,2105.8 990.3,2131.4 967.7,2157.8 945.2,2184.8 922.8,2212.2  " style="stroke-opacity: 1.000000; stroke-width: 5.0; stroke: rgb(107,174,214); fill: none"  />
<path d="M 1999.0,2269.1 L 1979.8,2239.3 1961.1,2209.5 1943.0,2179.9 1925.5,2150.7 1909.0,2122.0 1893.5,2094.1 1879.0,2067.0 1865.8,2040.9 1854.0,2016.0 1843.6,1992.4 1834.6,1970.1 1827.3,1949.3 1821.6,1930.1 1817.7,1912.5 1815.4,1896.7 1815.0,1882.7 1816.3,1870.5 1819.5,1860.2 1824.6,1851.8 1831.4,1845.3 1840.1,1840.8 1850.6,1838.2 1862.9,1837.6 1876.8,1838.9 1892.5,1842.1 1909.8,1847.1 1928.6,1854.0 1948.9,1862.6 1970.6,1872.8 1993.6,1884.6 2017.7,1898.0 2042.9,1912.7 2069.1,1928.8 2096.0,1946.0 2123.6,1964.2 2151.7,1983.4 2180.2,2003.3 2208.8,2023.8 2237.4,2044.7  " style="stroke-opacity: 1.000000; stroke-width: 5.0; stroke: rgb(107,174,214); fill: none"  />
<path d="M 1999.0,2269.1 L 1979.8,2239.4 1961.0,2209.9 1942.6,2180.8 1924.8,2152.1 1907.7,2124.1 1891.5,2097.1 1876.2,2071.0 1861.9,2046.2 1848.9,2022.7 1837.1,2000.6 1826.6,1980.1 1817.5,1961.3 1809.9,1944.3 1803.8,1929.1 1799.3,1915.9 1796.4,1904.6 1795.2,1895.4 1795.6,1888.2 1797.6,1883.2 1801.3,1880.2 1806.7,1879.4 1813.8,1880.8 1822.4,1884.2 1832.7,1889.7 1844.5,1897.2 1857.8,1906.7 1872.5,1918.2 1888.6,1931.4 1906.0,1946.5 1924.7,1963.2 1944.4,1981.5 1965.1,2001.2 1986.8,2022.3 2009.2,2044.5 2032.3,2067.8 2055.9,2091.9 2079.9,2116.7 2104.0,2142.0 2128.3,2167.6  " style="stroke-opacity: 1.000000; stroke-width: 5.0; stroke: rgb(107,174,214); fill: none"  />
<path d="M 1999.0,2269.1 L 1979.5,2239.4 1960.0,2210.2 1940.3,2181.6 1920.7,2153.8 1901.3,2127.0 1882.1,2101.4 1863.3,2077.2 1844.9,2054.5 1826.9,2033.5 1809.6,2014.4 1792.9,1997.2 1776.9,1982.0 1761.7,1969.0 1747.3,1958.2 1733.7,1949.7 1721.1,1943.6 1709.4,1939.9 1698.7,1938.6 1689.0,1939.8 1680.3,1943.4 1672.6,1949.5 1666.0,1958.0 1660.4,1969.0 1655.9,1982.3 1652.4,1997.9 1650.0,2015.7 1648.6,2035.7 1648.1,2057.7 1648.6,2081.7 1650.1,2107.5 1652.4,2135.0 1655.6,2164.0 1659.6,2194.4 1664.4,2226.0 1669.8,2258.7 1675.8,2292.2 1682.4,2326.3 1689.5,2360.7 1696.9,2395.4  " style="stroke-opacity: 1.000000; stroke-width: 5.0; stroke: rgb(107,174,214); fill: none"  />
<path d="M 2138.8,842.4 L 2114.0,867.7 2089.1,892.6 2064.3,916.9 2039.7,940.3 2015.4,962.8 1991.6,984.2 1968.4,1004.3 1946.0,1023.0 1924.3,1040.1 1903.6,1055.5 1883.8,1069.1 1865.2,1080.9 1847.7,1090.7 1831.5,1098.5 1816.6,1104.2 1803.0,1107.8 1790.8,1109.1 1780.0,1108.3 1770.7,1105.3 1762.9,1100.0 1756.6,1092.6 1751.7,1082.9 1748.4,1071.1 1746.6,1057.2 1746.2,1041.2 1747.2,1023.2 1749.7,1003.4 1753.6,981.7 1758.7,958.2 1765.2,933.2 1772.8,906.7 1781.6,878.8 1791.4,849.8 1802.2,819.7 1813.8,788.7 1826.3,757.0 1839.3,724.9 1852.9,692.4 1867.0,659.9  " style="stroke-opacity: 1.000000; stroke-width: 5.0; stroke: rgb(107,174,214); fill: none"  />
<path d="M 1059.2,2303.8 L 1076.6,2272.7 1094.3,2241.9 1112.3,2211.8 1130.5,2182.5 1148.8,2154.3 1167.2,2127.4 1185.5,2101.9 1203.8,2077.9 1222.0,2055.7 1240.0,2035.4 1257.7,2017.1 1275.2,2000.9 1292.3,1987.0 1309.0,1975.3 1325.3,1966.0 1341.1,1959.2 1356.5,1954.8 1371.2,1952.9 1385.5,1953.6 1399.1,1956.9 1412.1,1962.6 1424.5,1970.9 1436.3,1981.7 1447.3,1994.9 1457.7,2010.5 1467.5,2028.4 1476.5,2048.6 1484.8,2070.9 1492.5,2095.2 1499.5,2121.4 1505.8,2149.4 1511.4,2179.0 1516.4,2210.0 1520.8,2242.3 1524.5,2275.8 1527.7,2310.1 1530.3,2345.1 1532.3,2380.5 1533.9,2416.1  " style="stroke-opacity: 1.000000; stroke-width: 5.0; stroke: rgb(107,174,214); fill: none"  />
<path d="M 1059.2,2303.8 L 1076.2,2272.9 1093.3,2242.4 1110.3,2212.3 1127.1,2183.1 1143.6,2154.8 1159.7,2127.7 1175.4,2101.8 1190.5,2077.5 1205.1,2054.9 1218.9,2034.0 1232.0,2015.1 1244.2,1998.2 1255.6,1983.4 1266.1,1970.9 1275.6,1960.7 1284.2,1952.8 1291.7,1947.3 1298.2,1944.2 1303.6,1943.7 1308.0,1945.6 1311.2,1949.9 1313.4,1956.7 1314.5,1966.0 1314.5,1977.6 1313.5,1991.6 1311.4,2007.8 1308.3,2026.2 1304.2,2046.7 1299.2,2069.1 1293.3,2093.5 1286.6,2119.5 1279.0,2147.1 1270.8,2176.2 1261.8,2206.4 1252.3,2237.8 1242.2,2270.0 1231.7,2302.8 1220.9,2336.1 1209.8,2369.6  " style="stroke-opacity: 1.000000; stroke-width: 5.0; stroke: rgb(107,174,214); fill: none"  />
<path d="M 1059.2,2303.8 L 1076.1,2272.9 1092.7,2242.0 1108.9,2211.6 1124.5,2181.7 1139.5,2152.6 1153.7,2124.4 1167.0,2097.3 1179.4,2071.4 1190.7,2047.0 1200.8,2024.1 1209.8,2002.9 1217.4,1983.5 1223.7,1966.0 1228.7,1950.4 1232.2,1936.8 1234.3,1925.4 1234.8,1916.1 1233.9,1909.0 1231.5,1904.1 1227.6,1901.5 1222.1,1901.1 1215.2,1902.9 1206.8,1906.9 1197.0,1913.2 1185.8,1921.6 1173.2,1932.0 1159.4,1944.5 1144.3,1959.0 1128.0,1975.3 1110.7,1993.3 1092.4,2013.0 1073.2,2034.2 1053.1,2056.8 1032.4,2080.6 1011.1,2105.5 989.3,2131.3 967.3,2157.8 945.0,2184.9 922.8,2212.2  " style="stroke-opacity: 1.000000; stroke-width: 5.0; stroke: rgb(107,174,214); fill: none"  />
<path d="M 1059.2,2303.8 L 1076.1,2272.4 1092.5,2241.0 1108.3,2209.6 1123.2,2178.5 1137.1,2147.9 1149.9,2117.9 1161.6,2088.7 1171.9,2060.4 1180.8,2033.2 1188.3,2007.1 1194.2,1982.3 1198.5,1958.9 1201.0,1936.9 1201.9,1916.6 1201.0,1897.8 1198.2,1880.8 1193.7,1865.5 1187.3,1852.1 1179.1,1840.4 1169.0,1830.7 1157.2,1822.8 1143.5,1816.8 1128.1,1812.7 1111.0,1810.5 1092.3,1810.1 1071.9,1811.5 1050.1,1814.7 1026.8,1819.7 1002.2,1826.3 976.3,1834.5 949.3,1844.2 921.4,1855.4 892.5,1867.9 862.9,1881.6 832.7,1896.4 802.1,1912.2 771.2,1928.8 740.2,1946.1 709.3,1964.0  " style="stroke-opacity: 1.000000; stroke-width: 5.0; stroke: rgb(107,174,214); fill: none"  />
<path d="M 922.8,2212.2 L 945.7,2184.4 969.0,2157.1 992.7,2130.6 1016.6,2104.9 1040.6,2080.4 1064.7,2057.1 1088.7,2035.3 1112.6,2015.0 1136.3,1996.4 1159.7,1979.7 1182.8,1965.0 1205.4,1952.3 1227.6,1941.7 1249.3,1933.4 1270.4,1927.3 1290.8,1923.6 1310.6,1922.2 1329.6,1923.2 1347.9,1926.7 1365.4,1932.5 1382.1,1940.7 1397.9,1951.4 1412.9,1964.3 1427.0,1979.6 1440.2,1997.1 1452.5,2016.8 1463.9,2038.6 1474.4,2062.3 1484.0,2088.0 1492.7,2115.4 1500.5,2144.4 1507.4,2175.0 1513.5,2206.9 1518.8,2239.9 1523.3,2274.0 1527.0,2308.9 1530.0,2344.3 1532.2,2380.1 1533.9,2416.1  " style="stroke-opacity: 1.000000; stroke-width: 5.0; stroke: rgb(107,174,214); fill: none"  />
<path d="M 922.8,2212.2 L 945.2,2184.8 967.7,2157.8 990.3,2131.4 1012.7,2105.8 1034.8,2081.2 1056.6,2057.8 1077.9,2035.7 1098.6,2015.1 1118.6,1996.1 1137.9,1978.9 1156.3,1963.5 1173.8,1950.1 1190.3,1938.8 1205.8,1929.6 1220.2,1922.6 1233.4,1917.8 1245.4,1915.4 1256.2,1915.2 1265.7,1917.4 1274.0,1921.9 1281.0,1928.8 1286.7,1938.0 1291.0,1949.4 1294.1,1963.1 1295.9,1979.0 1296.5,1997.0 1295.8,2017.0 1293.9,2039.0 1290.9,2062.8 1286.7,2088.3 1281.5,2115.4 1275.2,2143.9 1268.1,2173.7 1260.0,2204.7 1251.2,2236.6 1241.7,2269.2 1231.5,2302.4 1220.9,2336.0 1209.8,2369.6  " style="stroke-opacity: 1.000000; stroke-width: 5.0; stroke: rgb(107,174,214); fill: none"  />
<path d="M 922.8,2212.2 L 945.0,2184.9 967.3,2157.8 989.3,2131.3 1011.1,2105.5 1032.4,2080.6 1053.1,2056.8 1073.2,2034.2 1092.4,2013.0 1110.7,1993.3 1128.0,1975.3 1144.3,1959.0 1159.4,1944.5 1173.2,1932.0 1185.8,1921.6 1197.0,1913.2 1206.8,1906.9 1215.2,1902.9 1222.1,1901.1 1227.6,1901.5 1231.5,1904.1 1233.9,1909.0 1234.8,1916.1 1234.3,1925.4 1232.2,1936.8 1228.7,1950.4 1223.7,1966.0 1217.4,1983.5 1209.8,2002.9 1200.8,2024.1 1190.7,2047.0 1179.4,2071.4 1167.0,2097.3 1153.7,2124.4 1139.5,2152.6 1124.5,2181.7 1108.9,2211.6 1092.7,2242.0 1076.1,2272.9 1059.2,2303.8  " style="stroke-opacity: 1.000000; stroke-width: 5.0; stroke: rgb(107,174,214); fill: none"  />
<path d="M 1853.6,2345.8 L 1840.1,2312.8 1827.1,2279.8 1814.8,2246.9 1803.2,2214.5 1792.6,2182.6 1783.0,2151.4 1774.5,2121.1 1767.2,2091.9 1761.2,2063.8 1756.5,2037.1 1753.3,2011.8 1751.5,1988.1 1751.2,1966.0 1752.5,1945.7 1755.4,1927.1 1759.9,1910.5 1766.1,1895.8 1773.9,1883.1 1783.3,1872.4 1794.3,1863.7 1806.9,1857.1 1821.1,1852.6 1836.9,1850.1 1854.1,1849.7 1872.8,1851.3 1892.9,1854.9 1914.2,1860.4 1936.9,1867.8 1960.7,1876.9 1985.5,1887.8 2011.3,1900.3 2038.0,1914.4 2065.3,1929.9 2093.3,1946.6 2121.8,1964.5 2150.6,1983.4 2179.6,2003.2 2208.5,2023.7 2237.4,2044.7  " style="stroke-opacity: 1.000000; stroke-width: 5.0; stroke: rgb(107,174,214); fill: none"  />
<path d="M 1853.6,2345.8 L 1840.1,2313.1 1827.0,2280.4 1814.4,2248.0 1802.5,2216.2 1791.4,2185.0 1781.1,2154.8 1771.7,2125.5 1763.4,2097.6 1756.2,2070.9 1750.1,2045.8 1745.3,2022.3 1741.8,2000.5 1739.7,1980.6 1738.9,1962.6 1739.5,1946.7 1741.6,1932.8 1745.1,1921.0 1750.1,1911.5 1756.5,1904.1 1764.5,1899.0 1773.8,1896.1 1784.6,1895.4 1796.8,1897.0 1810.3,1900.8 1825.1,1906.7 1841.2,1914.7 1858.5,1924.8 1877.0,1936.9 1896.5,1950.8 1917.0,1966.6 1938.3,1984.0 1960.5,2003.0 1983.4,2023.5 2006.8,2045.2 2030.7,2068.1 2055.0,2092.0 2079.4,2116.7 2103.9,2141.9 2128.3,2167.6  " style="stroke-opacity: 1.000000; stroke-width: 5.0; stroke: rgb(107,174,214); fill: none"  />
<path d="M 1853.6,2345.8 L 1839.9,2313.3 1826.2,2281.1 1812.5,2249.5 1798.9,2218.6 1785.4,2188.7 1772.2,2160.0 1759.4,2132.7 1746.9,2106.9 1734.8,2082.9 1723.3,2060.7 1712.3,2040.5 1701.8,2022.4 1692.1,2006.5 1683.0,1992.9 1674.6,1981.7 1666.9,1973.0 1660.0,1966.7 1653.9,1963.0 1648.5,1961.9 1644.0,1963.3 1640.3,1967.3 1637.4,1973.9 1635.4,1982.9 1634.1,1994.5 1633.7,2008.5 1634.0,2024.9 1635.2,2043.5 1637.1,2064.3 1639.7,2087.1 1643.0,2111.9 1646.9,2138.5 1651.5,2166.8 1656.7,2196.5 1662.4,2227.6 1668.6,2259.8 1675.2,2292.9 1682.2,2326.6 1689.4,2360.9 1696.9,2395.4  " style="stroke-opacity: 1.000000; stroke-width: 5.0; stroke: rgb(107,174,214); fill: none"  />
<path d="M 804.9,2097.7 L 832.8,2074.2 861.1,2051.3 889.8,2029.2 918.7,2008.2 947.7,1988.2 976.8,1969.6 1005.7,1952.3 1034.5,1936.7 1062.9,1922.7 1091.1,1910.5 1118.7,1900.2 1145.9,1891.8 1172.4,1885.5 1198.3,1881.3 1223.5,1879.2 1247.9,1879.4 1271.4,1881.7 1294.1,1886.3 1315.9,1893.2 1336.7,1902.2 1356.5,1913.6 1375.3,1927.1 1393.0,1942.8 1409.7,1960.6 1425.3,1980.4 1439.8,2002.3 1453.2,2026.1 1465.5,2051.7 1476.7,2079.0 1486.9,2107.9 1496.0,2138.3 1504.0,2170.0 1511.1,2203.0 1517.1,2236.9 1522.2,2271.8 1526.4,2307.3 1529.7,2343.4 1532.2,2379.7 1533.9,2416.1  " style="stroke-opacity: 1.000000; stroke-width: 5.0; stroke: rgb(107,174,214); fill: none"  />
<path d="M 804.9,2097.7 L 831.6,2074.6 857.9,2051.6 883.8,2028.8 908.9,2006.3 933.2,1984.3 956.4,1962.9 978.4,1942.2 999.0,1922.3 1018.2,1903.4 1035.7,1885.6 1051.5,1868.9 1065.5,1853.4 1077.6,1839.2 1087.7,1826.3 1095.8,1814.9 1101.7,1804.9 1105.5,1796.4 1107.2,1789.4 1106.6,1784.0 1103.9,1780.1 1098.9,1777.8 1091.8,1777.1 1082.5,1778.0 1071.1,1780.4 1057.7,1784.3 1042.3,1789.7 1024.9,1796.5 1005.7,1804.7 984.8,1814.3 962.2,1825.1 938.1,1837.1 912.7,1850.2 886.0,1864.3 858.2,1879.3 829.5,1895.1 800.1,1911.6 770.1,1928.7 739.8,1946.2 709.3,1964.0  " style="stroke-opacity: 1.000000; stroke-width: 5.0; stroke: rgb(107,174,214); fill: none"  />
<path d="M 709.3,1964.0 L 741.4,1945.6 774.0,1928.0 806.9,1911.2 840.0,1895.5 873.2,1881.0 906.3,1867.8 939.3,1856.0 972.0,1845.7 1004.4,1837.1 1036.3,1830.1 1067.7,1825.0 1098.5,1821.7 1128.5,1820.3 1157.8,1820.9 1186.3,1823.5 1213.8,1828.1 1240.4,1834.8 1266.0,1843.5 1290.5,1854.3 1313.9,1867.2 1336.2,1882.0 1357.3,1898.9 1377.2,1917.7 1395.9,1938.5 1413.4,1961.1 1429.6,1985.4 1444.6,2011.5 1458.4,2039.2 1470.9,2068.5 1482.2,2099.1 1492.3,2131.1 1501.3,2164.2 1509.1,2198.3 1515.7,2233.4 1521.3,2269.1 1525.9,2305.5 1529.5,2342.2 1532.1,2379.2 1533.9,2416.1  " style="stroke-opacity: 1.000000; stroke-width: 5.0; stroke: rgb(107,174,214); fill: none"  />
<path d="M 709.3,1964.0 L 741.0,1945.8 772.9,1928.4 805.1,1911.8 837.3,1896.2 869.4,1881.8 901.3,1868.6 932.9,1856.8 964.0,1846.5 994.5,1837.9 1024.3,1830.9 1053.4,1825.7 1081.6,1822.3 1108.9,1820.8 1135.1,1821.3 1160.2,1823.8 1184.2,1828.3 1207.0,1834.8 1228.5,1843.3 1248.6,1854.0 1267.5,1866.6 1284.9,1881.3 1301.0,1897.9 1315.7,1916.5 1328.9,1937.0 1340.7,1959.4 1351.0,1983.5 1360.0,2009.3 1367.5,2036.6 1373.7,2065.5 1378.5,2095.8 1382.1,2127.3 1384.3,2160.0 1385.4,2193.6 1385.2,2228.1 1384.0,2263.3 1381.8,2299.0 1378.6,2335.1 1374.6,2371.3 1369.8,2407.5  " style="stroke-opacity: 1.000000; stroke-width: 5.0; stroke: rgb(107,174,214); fill: none"  />
<path d="M 709.3,1964.0 L 740.2,1946.1 771.2,1928.8 802.1,1912.2 832.7,1896.4 862.9,1881.6 892.5,1867.9 921.4,1855.4 949.3,1844.2 976.3,1834.5 1002.2,1826.3 1026.8,1819.7 1050.1,1814.7 1071.9,1811.5 1092.3,1810.1 1111.0,1810.5 1128.1,1812.7 1143.5,1816.8 1157.2,1822.8 1169.0,1830.7 1179.1,1840.4 1187.3,1852.1 1193.7,1865.5 1198.2,1880.8 1201.0,1897.8 1201.9,1916.6 1201.0,1936.9 1198.5,1958.9 1194.2,1982.3 1188.3,2007.1 1180.8,2033.2 1171.9,2060.4 1161.6,2088.7 1149.9,2117.9 1137.1,2147.9 1123.2,2178.5 1108.3,2209.6 1092.5,2241.0 1076.1,2272.4 1059.2,2303.8  " style="stroke-opacity: 1.000000; stroke-width: 5.0; stroke: rgb(107,174,214); fill: none"  />
<path d="M 709.3,1964.0 L 739.8,1946.2 770.1,1928.7 800.1,1911.6 829.5,1895.1 858.2,1879.3 886.0,1864.3 912.7,1850.2 938.1,1837.1 962.2,1825.1 984.8,1814.3 1005.7,1804.7 1024.9,1796.5 1042.3,1789.7 1057.7,1784.3 1071.1,1780.4 1082.5,1778.0 1091.8,1777.1 1098.9,1777.8 1103.9,1780.1 1106.6,1784.0 1107.2,1789.4 1105.5,1796.4 1101.7,1804.9 1095.8,1814.9 1087.7,1826.3 1077.6,1839.2 1065.5,1853.4 1051.5,1868.9 1035.7,1885.6 1018.2,1903.4 999.0,1922.3 978.4,1942.2 956.4,1962.9 933.2,1984.3 908.9,2006.3 883.8,2028.8 857.9,2051.6 831.6,2074.6 804.9,2097.7  " style="stroke-opacity: 1.000000; stroke-width: 5.0; stroke: rgb(107,174,214); fill: none"  />
<path d="M 1696.9,2395.4 L 1689.5,2360.1 1682.7,2324.8 1676.7,2289.8 1671.5,2255.1 1667.3,2221.0 1664.1,2187.7 1662.0,2155.3 1661.1,2124.0 1661.4,2093.9 1662.9,2065.2 1665.8,2037.9 1670.0,2012.3 1675.5,1988.4 1682.5,1966.2 1690.9,1946.0 1700.7,1927.7 1712.0,1911.4 1724.7,1897.1 1738.7,1884.9 1754.2,1874.9 1771.1,1867.0 1789.2,1861.2 1808.7,1857.6 1829.5,1856.1 1851.4,1856.7 1874.4,1859.3 1898.6,1864.0 1923.7,1870.6 1949.7,1879.1 1976.6,1889.4 2004.2,1901.4 2032.4,1915.0 2061.1,1930.1 2090.2,1946.6 2119.6,1964.4 2149.2,1983.2 2178.8,2003.0 2208.2,2023.6 2237.4,2044.7  " style="stroke-opacity: 1.000000; stroke-width: 5.0; stroke: rgb(107,174,214); fill: none"  />
<path d="M 1696.9,2395.4 L 1689.5,2360.5 1682.6,2325.6 1676.3,2291.1 1670.8,2257.1 1666.0,2223.8 1662.1,2191.4 1659.2,2160.1 1657.2,2130.1 1656.3,2101.4 1656.5,2074.3 1657.8,2048.8 1660.3,2025.2 1664.0,2003.4 1668.9,1983.6 1675.1,1965.9 1682.5,1950.3 1691.1,1936.9 1701.1,1925.8 1712.2,1917.0 1724.6,1910.4 1738.2,1906.2 1753.0,1904.3 1768.9,1904.7 1786.0,1907.3 1804.1,1912.2 1823.2,1919.3 1843.2,1928.6 1864.2,1939.9 1885.9,1953.1 1908.4,1968.3 1931.6,1985.2 1955.3,2003.8 1979.5,2023.9 2004.1,2045.4 2028.9,2068.1 2053.8,2091.8 2078.8,2116.5 2103.6,2141.8 2128.3,2167.6  " style="stroke-opacity: 1.000000; stroke-width: 5.0; stroke: rgb(107,174,214); fill: none"  />
<path d="M 1696.9,2395.4 L 1689.5,2360.7 1682.4,2326.3 1675.8,2292.2 1669.8,2258.7 1664.4,2226.0 1659.6,2194.4 1655.6,2164.0 1652.4,2135.0 1650.1,2107.5 1648.6,2081.7 1648.1,2057.7 1648.6,2035.7 1650.0,2015.7 1652.4,1997.9 1655.9,1982.3 1660.4,1969.0 1666.0,1958.0 1672.6,1949.5 1680.3,1943.4 1689.0,1939.8 1698.7,1938.6 1709.4,1939.9 1721.1,1943.6 1733.7,1949.7 1747.3,1958.2 1761.7,1969.0 1776.9,1982.0 1792.9,1997.2 1809.6,2014.4 1826.9,2033.5 1844.9,2054.5 1863.3,2077.2 1882.1,2101.4 1901.3,2127.0 1920.7,2153.8 1940.3,2181.6 1960.0,2210.2 1979.5,2239.4 1999.0,2269.1  " style="stroke-opacity: 1.000000; stroke-width: 5.0; stroke: rgb(107,174,214); fill: none"  />
<path d="M 1696.9,2395.4 L 1689.4,2360.9 1682.2,2326.6 1675.2,2292.9 1668.6,2259.8 1662.4,2227.6 1656.7,2196.5 1651.5,2166.8 1646.9,2138.5 1643.0,2111.9 1639.7,2087.1 1637.1,2064.3 1635.2,2043.5 1634.0,2024.9 1633.7,2008.5 1634.1,1994.5 1635.4,1982.9 1637.4,1973.9 1640.3,1967.3 1644.0,1963.3 1648.5,1961.9 1653.9,1963.0 1660.0,1966.7 1666.9,1973.0 1674.6,1981.7 1683.0,1992.9 1692.1,2006.5 1701.8,2022.4 1712.3,2040.5 1723.3,2060.7 1734.8,2082.9 1746.9,2106.9 1759.4,2132.7 1772.2,2160.0 1785.4,2188.7 1798.9,2218.6 1812.5,2249.5 1826.2,2281.1 1839.9,2313.3 1853.6,2345.8  " style="stroke-opacity: 1.000000; stroke-width: 5.0; stroke: rgb(107,174,214); fill: none"  />
</g>
<defs>
<pattern id="checker" width="10" height="10" patternTransform="rotate(45 0 0)" patternUnits="userSpaceOnUse"><line x1="0" y1="0" x2="10" y2="0" style="stroke:black;stroke-width:2" /><line x1="0" y1="0" x2="0" y2="10" style="stroke:black;stroke-width:2" /></pattern>
<pattern id="vline-sparse" width="10" height="10" patternTransform="rotate(0 0 0)" patternUnits="userSpaceOnUse"><line x1="0" y1="0" x2="0" y2="10" style="stroke:black;stroke-width:2" /></pattern>
<pattern id="vline" width="10" height="10" patternTransform="rotate(0 0 0)" patternUnits="userSpaceOnUse"><line x1="0" y1="0" x2="0" y2="10" style="stroke:black;stroke-width:5" /></pattern>
<pattern id="checker" width="10" height="10" patternTransform="rotate(45 0 0)" patternUnits="userSpaceOnUse"><line x1="0" y1="0" x2="10" y2="0" style="stroke:black;stroke-width:5" /><line x1="0" y1="0" x2="0" y2="10" style="stroke:black;stroke-width:4" /></pattern>
<pattern id="hline" width="10" height="10" patternTransform="rotate(0 0 0)" patternUnits="userSpaceOnUse"><line x1="0" y1="0" x2="10" y2="0" style="stroke:black;stroke-width:5" /></pattern>
<pattern id="hline-sparse" width="10" height="10" patternTransform="rotate(0 0 0)" patternUnits="userSpaceOnUse"><line x1="0" y1="0" x2="10" y2="0" style="stroke:black;stroke-width:2" /></pattern>
</defs>
</svg>
