<?xml version="1.0" encoding="utf-8" standalone="no"?>
<!DOCTYPE svg PUBLIC "-//W3C//DTD SVG 1.1//EN" "http://www.w3.org/Graphics/SVG/1.1/DTD/svg11.dtd">
<svg width="3000px" height="3000px" version="1.1" xmlns="http://www.w3.org/2000/svg" xmlns:xlink="http://www.w3.org/1999/xlink">
<g id="bg">
<rect x="0" y="0" width="3000px" height="3000px" style="fill:rgb(255,255,255);"/>
</g>
<g id="ideograms">
<path d="M1500.000,830.000 A670.000,670.000 40.000 0,1 1570.620,833.732 L1579.053,754.178 A750.000,750.000 0.000 0,0 1500.000,750.000 Z" style="stroke-width:2.0;stroke:rgb(115,115,115);stroke-linecap:round;fill:rgb(153,204,255);" />
<text x="1567.5" y="677.8" font-size="65.0px" font-family="CMUBright-Roman" style="text-anchor:start;fill:rgb(0,0,0);" transform="rotate(273.0,1567.5,677.8)" >5-FP</text>
<path d="M1500.000,830.000 A670.000,670.000 40.000 0,1 1570.620,833.732 L1579.053,754.178 A750.000,750.000 0.000 0,0 1500.000,750.000 Z" style="stroke-width:2.0;stroke:rgb(115,115,115);stroke-linecap:round;fill:none;" />
<path d="M1619.633,840.767 A670.000,670.000 40.000 0,1 1688.452,857.049 L1710.954,780.279 A750.000,750.000 0.000 0,0 1633.918,762.053 Z" style="stroke-width:2.0;stroke:rgb(115,115,115);stroke-linecap:round;fill:rgb(153,204,255);" />
<text x="1713.7" y="703.2" font-size="65.0px" font-family="CMUBright-Roman" style="text-anchor:start;fill:rgb(0,0,0);" transform="rotate(283.3,1713.7,703.2)" >8-IFG</text>
<path d="M1619.633,840.767 A670.000,670.000 40.000 0,1 1688.452,857.049 L1710.954,780.279 A750.000,750.000 0.000 0,0 1633.918,762.053 Z" style="stroke-width:2.0;stroke:rgb(115,115,115);stroke-linecap:round;fill:none;" />
<path d="M1735.421,872.723 A670.000,670.000 40.000 0,1 1800.227,901.031 L1836.075,829.512 A750.000,750.000 0.000 0,0 1763.531,797.824 Z" style="stroke-width:2.0;stroke:rgb(115,115,115);stroke-linecap:round;fill:rgb(153,204,255);" />
<text x="1852.1" y="753.9" font-size="65.0px" font-family="CMUBright-Roman" style="text-anchor:start;fill:rgb(0,0,0);" transform="rotate(293.6,1852.1,753.9)" >10-IPL</text>
<path d="M1735.421,872.723 A670.000,670.000 40.000 0,1 1800.227,901.031 L1836.075,829.512 A750.000,750.000 0.000 0,0 1763.531,797.824 Z" style="stroke-width:2.0;stroke:rgb(115,115,115);stroke-linecap:round;fill:none;" />
<path d="M1843.643,924.839 A670.000,670.000 40.000 0,1 1902.352,964.264 L1950.394,900.296 A750.000,750.000 0.000 0,0 1884.674,856.163 Z" style="stroke-width:2.0;stroke:rgb(115,115,115);stroke-linecap:round;fill:rgb(153,204,255);" />
<text x="1980.1" y="829.1" font-size="65.0px" font-family="CMUBright-Roman" style="text-anchor:start;fill:rgb(0,0,0);" transform="rotate(303.9,1980.1,829.1)" >18-MTG</text>
<path d="M1843.643,924.839 A670.000,670.000 40.000 0,1 1902.352,964.264 L1950.394,900.296 A750.000,750.000 0.000 0,0 1884.674,856.163 Z" style="stroke-width:2.0;stroke:rgb(115,115,115);stroke-linecap:round;fill:none;" />
<path d="M1940.819,995.442 A670.000,670.000 40.000 0,1 1991.546,1044.717 L2050.238,990.354 A750.000,750.000 0.000 0,0 1993.454,935.196 Z" style="stroke-width:2.0;stroke:rgb(115,115,115);stroke-linecap:round;fill:rgb(153,204,255);" />
<text x="2092.1" y="925.6" font-size="65.0px" font-family="CMUBright-Roman" style="text-anchor:start;fill:rgb(0,0,0);" transform="rotate(314.2,2092.1,925.6)" >19-MTG</text>
<path d="M1940.819,995.442 A670.000,670.000 40.000 0,1 1991.546,1044.717 L2050.238,990.354 A750.000,750.000 0.000 0,0 1993.454,935.196 Z" style="stroke-width:2.0;stroke:rgb(115,115,115);stroke-linecap:round;fill:none;" />
<path d="M2023.827,1082.262 A670.000,670.000 40.000 0,1 2064.940,1139.802 L2132.396,1096.793 A750.000,750.000 0.000 0,0 2086.374,1032.383 Z" style="stroke-width:2.0;stroke:rgb(115,115,115);stroke-linecap:round;fill:rgb(153,204,255);" />
<text x="2185.2" y="1040.5" font-size="65.0px" font-family="CMUBright-Roman" style="text-anchor:start;fill:rgb(0,0,0);" transform="rotate(324.5,2185.2,1040.5)" >35-SG</text>
<path d="M2023.827,1082.262 A670.000,670.000 40.000 0,1 2064.940,1139.802 L2132.396,1096.793 A750.000,750.000 0.000 0,0 2086.374,1032.383 Z" style="stroke-width:2.0;stroke:rgb(115,115,115);stroke-linecap:round;fill:none;" />
<path d="M2089.999,1182.508 A670.000,670.000 40.000 0,1 2120.177,1246.465 L2194.228,1216.192 A750.000,750.000 0.000 0,0 2160.447,1144.599 Z" style="stroke-width:2.0;stroke:rgb(115,115,115);stroke-linecap:round;fill:rgb(116,196,118);" />
<text x="2256.2" y="1170.3" font-size="65.0px" font-family="CMUBright-Roman" style="text-anchor:start;fill:rgb(0,0,0);" transform="rotate(334.7,2256.2,1170.3)" >2-COC</text>
<path d="M2089.999,1182.508 A670.000,670.000 40.000 0,1 2120.177,1246.465 L2194.228,1216.192 A750.000,750.000 0.000 0,0 2160.447,1144.599 Z" style="stroke-width:2.0;stroke:rgb(115,115,115);stroke-linecap:round;fill:none;" />
<path d="M2137.208,1292.959 A670.000,670.000 40.000 0,1 2155.481,1361.276 L2233.748,1344.712 A750.000,750.000 0.000 0,0 2213.292,1268.237 Z" style="stroke-width:2.0;stroke:rgb(115,115,115);stroke-linecap:round;fill:rgb(116,196,118);" />
<text x="2303.0" y="1310.6" font-size="65.0px" font-family="CMUBright-Roman" style="text-anchor:start;fill:rgb(0,0,0);" transform="rotate(345.0,2303.0,1310.6)" >3-COC</text>
<path d="M2137.208,1292.959 A670.000,670.000 40.000 0,1 2155.481,1361.276 L2233.748,1344.712 A750.000,750.000 0.000 0,0 2213.292,1268.237 Z" style="stroke-width:2.0;stroke:rgb(115,115,115);stroke-linecap:round;fill:none;" />
<path d="M2163.936,1410.064 A670.000,670.000 40.000 0,1 2169.718,1480.546 L2249.684,1478.223 A750.000,750.000 0.000 0,0 2243.212,1399.325 Z" style="stroke-width:2.0;stroke:rgb(115,115,115);stroke-linecap:round;fill:rgb(116,196,118);" />
<text x="2323.9" y="1457.0" font-size="65.0px" font-family="CMUBright-Roman" style="text-anchor:start;fill:rgb(0,0,0);" transform="rotate(355.3,2323.9,1457.0)" >11-ITG</text>
<path d="M2163.936,1410.064 A670.000,670.000 40.000 0,1 2169.718,1480.546 L2249.684,1478.223 A750.000,750.000 0.000 0,0 2243.212,1399.325 Z" style="stroke-width:2.0;stroke:rgb(115,115,115);stroke-linecap:round;fill:none;" />
<path d="M2169.325,1530.059 A670.000,670.000 40.000 0,1 2162.429,1600.441 L2241.524,1612.434 A750.000,750.000 0.000 0,0 2249.245,1533.649 Z" style="stroke-width:2.0;stroke:rgb(115,115,115);stroke-linecap:round;fill:rgb(116,196,118);" />
<text x="2318.4" y="1603.8" font-size="65.0px" font-family="CMUBright-Roman" style="text-anchor:start;fill:rgb(0,0,0);" transform="rotate(5.6,2318.4,1603.8)" >14-LIX</text>
<path d="M2169.325,1530.059 A670.000,670.000 40.000 0,1 2162.429,1600.441 L2241.524,1612.434 A750.000,750.000 0.000 0,0 2249.245,1533.649 Z" style="stroke-width:2.0;stroke:rgb(115,115,115);stroke-linecap:round;fill:none;" />
<path d="M2153.202,1649.089 A670.000,670.000 40.000 0,1 2133.849,1717.108 L2209.532,1743.032 A750.000,750.000 0.000 0,0 2231.196,1666.891 Z" style="stroke-width:2.0;stroke:rgb(115,115,115);stroke-linecap:round;fill:rgb(116,196,118);" />
<text x="2286.6" y="1748.8" font-size="65.0px" font-family="CMUBright-Roman" style="text-anchor:start;fill:rgb(0,0,0);" transform="rotate(15.9,2286.6,1748.8)" >23-PP</text>
<path d="M2153.202,1649.089 A670.000,670.000 40.000 0,1 2133.849,1717.108 L2209.532,1743.032 A750.000,750.000 0.000 0,0 2231.196,1666.891 Z" style="stroke-width:2.0;stroke:rgb(115,115,115);stroke-linecap:round;fill:none;" />
<path d="M2116.084,1763.327 A670.000,670.000 40.000 0,1 2084.896,1826.797 L2154.734,1865.818 A750.000,750.000 0.000 0,0 2189.646,1794.769 Z" style="stroke-width:2.0;stroke:rgb(115,115,115);stroke-linecap:round;fill:rgb(116,196,118);" />
<text x="2229.5" y="1885.2" font-size="65.0px" font-family="CMUBright-Roman" style="text-anchor:start;fill:rgb(0,0,0);" transform="rotate(26.2,2229.5,1885.2)" >30-RH</text>
<path d="M2116.084,1763.327 A670.000,670.000 40.000 0,1 2084.896,1826.797 L2154.734,1865.818 A750.000,750.000 0.000 0,0 2189.646,1794.769 Z" style="stroke-width:2.0;stroke:rgb(115,115,115);stroke-linecap:round;fill:none;" />
<path d="M2059.164,1869.101 A670.000,670.000 40.000 0,1 2017.145,1925.983 L2078.893,1976.846 A750.000,750.000 0.000 0,0 2125.930,1913.173 Z" style="stroke-width:2.0;stroke:rgb(115,115,115);stroke-linecap:round;fill:rgb(153,0,204);" />
<text x="2148.7" y="2009.7" font-size="65.0px" font-family="CMUBright-Roman" style="text-anchor:start;fill:rgb(0,0,0);" transform="rotate(36.5,2148.7,2009.7)" >1-AG</text>
<path d="M2059.164,1869.101 A670.000,670.000 40.000 0,1 2017.145,1925.983 L2078.893,1976.846 A750.000,750.000 0.000 0,0 2125.930,1913.173 Z" style="stroke-width:2.0;stroke:rgb(115,115,115);stroke-linecap:round;fill:none;" />
<path d="M1984.273,1963.012 A670.000,670.000 40.000 0,1 1932.772,2011.477 L1984.446,2072.549 A750.000,750.000 0.000 0,0 2042.096,2018.297 Z" style="stroke-width:2.0;stroke:rgb(115,115,115);stroke-linecap:round;fill:rgb(153,0,204);" />
<text x="2047.7" y="2117.0" font-size="65.0px" font-family="CMUBright-Roman" style="text-anchor:start;fill:rgb(0,0,0);" transform="rotate(46.7,2047.7,2117.0)" >9-IPL</text>
<path d="M1984.273,1963.012 A670.000,670.000 40.000 0,1 1932.772,2011.477 L1984.446,2072.549 A750.000,750.000 0.000 0,0 2042.096,2018.297 Z" style="stroke-width:2.0;stroke:rgb(115,115,115);stroke-linecap:round;fill:none;" />
<path d="M1893.816,2042.041 A670.000,670.000 40.000 0,1 1834.489,2080.532 L1874.428,2149.849 A750.000,750.000 0.000 0,0 1940.839,2106.763 Z" style="stroke-width:2.0;stroke:rgb(115,115,115);stroke-linecap:round;fill:rgb(153,0,204);" />
<text x="1928.3" y="2205.1" font-size="65.0px" font-family="CMUBright-Roman" style="text-anchor:start;fill:rgb(0,0,0);" transform="rotate(57.0,1928.3,2205.1)" >12-LOC</text>
<path d="M1893.816,2042.041 A670.000,670.000 40.000 0,1 1834.489,2080.532 L1874.428,2149.849 A750.000,750.000 0.000 0,0 1940.839,2106.763 Z" style="stroke-width:2.0;stroke:rgb(115,115,115);stroke-linecap:round;fill:none;" />
<path d="M1790.702,2103.649 A670.000,670.000 40.000 0,1 1725.456,2130.928 L1752.376,2206.262 A750.000,750.000 0.000 0,0 1825.413,2175.727 Z" style="stroke-width:2.0;stroke:rgb(115,115,115);stroke-linecap:round;fill:rgb(153,0,204);" />
<text x="1795.5" y="2270.3" font-size="65.0px" font-family="CMUBright-Roman" style="text-anchor:start;fill:rgb(0,0,0);" transform="rotate(67.3,1795.5,2270.3)" >13-LCI</text>
<path d="M1790.702,2103.649 A670.000,670.000 40.000 0,1 1725.456,2130.928 L1752.376,2206.262 A750.000,750.000 0.000 0,0 1825.413,2175.727 Z" style="stroke-width:2.0;stroke:rgb(115,115,115);stroke-linecap:round;fill:none;" />
<path d="M1678.245,2145.855 A670.000,670.000 40.000 0,1 1609.176,2161.045 L1622.212,2239.976 A750.000,750.000 0.000 0,0 1699.528,2222.972 Z" style="stroke-width:2.0;stroke:rgb(115,115,115);stroke-linecap:round;fill:rgb(153,0,204);" />
<text x="1653.2" y="2310.7" font-size="65.0px" font-family="CMUBright-Roman" style="text-anchor:start;fill:rgb(0,0,0);" transform="rotate(77.6,1653.2,2310.7)" >25-PosG</text>
<path d="M1678.245,2145.855 A670.000,670.000 40.000 0,1 1609.176,2161.045 L1622.212,2239.976 A750.000,750.000 0.000 0,0 1699.528,2222.972 Z" style="stroke-width:2.0;stroke:rgb(115,115,115);stroke-linecap:round;fill:none;" />
<path d="M1560.058,2167.303 A670.000,670.000 40.000 0,1 1489.388,2169.916 L1488.121,2249.906 A750.000,750.000 0.000 0,0 1567.229,2246.981 Z" style="stroke-width:2.0;stroke:rgb(115,115,115);stroke-linecap:round;fill:rgb(153,0,204);" />
<text x="1506.0" y="2325.0" font-size="65.0px" font-family="CMUBright-Roman" style="text-anchor:start;fill:rgb(0,0,0);" transform="rotate(87.9,1506.0,2325.0)" >28-RCI</text>
<path d="M1560.058,2167.303 A670.000,670.000 40.000 0,1 1489.388,2169.916 L1488.121,2249.906 A750.000,750.000 0.000 0,0 1567.229,2246.981 Z" style="stroke-width:2.0;stroke:rgb(115,115,115);stroke-linecap:round;fill:none;" />
<path d="M1439.942,2167.303 A670.000,670.000 40.000 0,1 1369.940,2157.255 L1354.411,2235.733 A750.000,750.000 0.000 0,0 1432.771,2246.981 Z" style="stroke-width:2.0;stroke:rgb(115,115,115);stroke-linecap:round;fill:rgb(253,208,162);" />
<text x="1407.1" y="2319.8" font-size="65.0px" font-family="CMUBright-Roman" style="text-anchor:end;fill:rgb(0,0,0);" transform="rotate(-81.8,1407.1,2319.8)" >16-LG</text>
<path d="M1439.942,2167.303 A670.000,670.000 40.000 0,1 1369.940,2157.255 L1354.411,2235.733 A750.000,750.000 0.000 0,0 1432.771,2246.981 Z" style="stroke-width:2.0;stroke:rgb(115,115,115);stroke-linecap:round;fill:none;" />
<path d="M1321.755,2145.855 A670.000,670.000 40.000 0,1 1254.673,2123.470 L1225.380,2197.914 A750.000,750.000 0.000 0,0 1300.472,2222.972 Z" style="stroke-width:2.0;stroke:rgb(115,115,115);stroke-linecap:round;fill:rgb(253,208,162);" />
<text x="1262.2" y="2290.0" font-size="65.0px" font-family="CMUBright-Roman" style="text-anchor:end;fill:rgb(0,0,0);" transform="rotate(-71.5,1262.2,2290.0)" >17-MFG</text>
<path d="M1321.755,2145.855 A670.000,670.000 40.000 0,1 1254.673,2123.470 L1225.380,2197.914 A750.000,750.000 0.000 0,0 1300.472,2222.972 Z" style="stroke-width:2.0;stroke:rgb(115,115,115);stroke-linecap:round;fill:none;" />
<path d="M1209.298,2103.649 A670.000,670.000 40.000 0,1 1147.290,2069.645 L1105.176,2137.663 A750.000,750.000 0.000 0,0 1174.587,2175.727 Z" style="stroke-width:2.0;stroke:rgb(115,115,115);stroke-linecap:round;fill:rgb(253,208,162);" />
<text x="1125.0" y="2234.8" font-size="65.0px" font-family="CMUBright-Roman" style="text-anchor:end;fill:rgb(0,0,0);" transform="rotate(-61.3,1125.0,2234.8)" >20-OFG</text>
<path d="M1209.298,2103.649 A670.000,670.000 40.000 0,1 1147.290,2069.645 L1105.176,2137.663 A750.000,750.000 0.000 0,0 1174.587,2175.727 Z" style="stroke-width:2.0;stroke:rgb(115,115,115);stroke-linecap:round;fill:none;" />
<path d="M1106.184,2042.041 A670.000,670.000 40.000 0,1 1051.245,1997.512 L997.662,2056.917 A750.000,750.000 0.000 0,0 1059.161,2106.763 Z" style="stroke-width:2.0;stroke:rgb(115,115,115);stroke-linecap:round;fill:rgb(253,208,162);" />
<text x="999.8" y="2156.1" font-size="65.0px" font-family="CMUBright-Roman" style="text-anchor:end;fill:rgb(0,0,0);" transform="rotate(-51.0,999.8,2156.1)" >21-OP</text>
<path d="M1106.184,2042.041 A670.000,670.000 40.000 0,1 1051.245,1997.512 L997.662,2056.917 A750.000,750.000 0.000 0,0 1059.161,2106.763 Z" style="stroke-width:2.0;stroke:rgb(115,115,115);stroke-linecap:round;fill:none;" />
<path d="M1015.727,1963.012 A670.000,670.000 40.000 0,1 969.622,1909.389 L906.293,1958.271 A750.000,750.000 0.000 0,0 957.904,2018.297 Z" style="stroke-width:2.0;stroke:rgb(115,115,115);stroke-linecap:round;fill:rgb(253,208,162);" />
<text x="890.7" y="2056.2" font-size="65.0px" font-family="CMUBright-Roman" style="text-anchor:end;fill:rgb(0,0,0);" transform="rotate(-40.7,890.7,2056.2)" >27-RCI</text>
<path d="M1015.727,1963.012 A670.000,670.000 40.000 0,1 969.622,1909.389 L906.293,1958.271 A750.000,750.000 0.000 0,0 957.904,2018.297 Z" style="stroke-width:2.0;stroke:rgb(115,115,115);stroke-linecap:round;fill:none;" />
<path d="M940.836,1869.101 A670.000,670.000 40.000 0,1 905.046,1808.107 L834.007,1844.896 A750.000,750.000 0.000 0,0 874.070,1913.173 Z" style="stroke-width:2.0;stroke:rgb(115,115,115);stroke-linecap:round;fill:rgb(253,208,162);" />
<text x="801.2" y="1938.5" font-size="65.0px" font-family="CMUBright-Roman" style="text-anchor:end;fill:rgb(0,0,0);" transform="rotate(-30.4,801.2,1938.5)" >29-RCI</text>
<path d="M940.836,1869.101 A670.000,670.000 40.000 0,1 905.046,1808.107 L834.007,1844.896 A750.000,750.000 0.000 0,0 874.070,1913.173 Z" style="stroke-width:2.0;stroke:rgb(115,115,115);stroke-linecap:round;fill:none;" />
<path d="M883.916,1763.327 A670.000,670.000 40.000 0,1 859.593,1696.922 L783.126,1720.436 A750.000,750.000 0.000 0,0 810.354,1794.769 Z" style="stroke-width:2.0;stroke:rgb(115,115,115);stroke-linecap:round;fill:rgb(253,208,162);" />
<text x="734.1" y="1806.6" font-size="65.0px" font-family="CMUBright-Roman" style="text-anchor:end;fill:rgb(0,0,0);" transform="rotate(-20.1,734.1,1806.6)" >34-SG</text>
<path d="M883.916,1763.327 A670.000,670.000 40.000 0,1 859.593,1696.922 L783.126,1720.436 A750.000,750.000 0.000 0,0 810.354,1794.769 Z" style="stroke-width:2.0;stroke:rgb(115,115,115);stroke-linecap:round;fill:none;" />
<path d="M846.798,1649.089 A670.000,670.000 40.000 0,1 834.722,1579.409 L755.286,1588.890 A750.000,750.000 0.000 0,0 768.804,1666.891 Z" style="stroke-width:2.0;stroke:rgb(115,115,115);stroke-linecap:round;fill:rgb(253,141,60);" />
<text x="691.6" y="1664.5" font-size="65.0px" font-family="CMUBright-Roman" style="text-anchor:end;fill:rgb(0,0,0);" transform="rotate(-9.8,691.6,1664.5)" >15-LVIIIb</text>
<path d="M846.798,1649.089 A670.000,670.000 40.000 0,1 834.722,1579.409 L755.286,1588.890 A750.000,750.000 0.000 0,0 768.804,1666.891 Z" style="stroke-width:2.0;stroke:rgb(115,115,115);stroke-linecap:round;fill:none;" />
<path d="M830.675,1530.059 A670.000,670.000 40.000 0,1 831.235,1459.343 L751.382,1454.488 A750.000,750.000 0.000 0,0 750.755,1533.649 Z" style="stroke-width:2.0;stroke:rgb(115,115,115);stroke-linecap:round;fill:rgb(253,141,60);" />
<text x="675.2" y="1517.5" font-size="65.0px" font-family="CMUBright-Roman" style="text-anchor:end;fill:rgb(0,0,0);" transform="rotate(0.5,675.2,1517.5)" >31-RLV</text>
<path d="M830.675,1530.059 A670.000,670.000 40.000 0,1 831.235,1459.343 L751.382,1454.488 A750.000,750.000 0.000 0,0 750.755,1533.649 Z" style="stroke-width:2.0;stroke:rgb(115,115,115);stroke-linecap:round;fill:none;" />
<path d="M836.064,1410.064 A670.000,670.000 40.000 0,1 849.242,1340.583 L771.539,1321.549 A750.000,750.000 0.000 0,0 756.788,1399.325 Z" style="stroke-width:2.0;stroke:rgb(115,115,115);stroke-linecap:round;fill:rgb(253,141,60);" />
<text x="685.3" y="1369.9" font-size="65.0px" font-family="CMUBright-Roman" style="text-anchor:end;fill:rgb(0,0,0);" transform="rotate(10.7,685.3,1369.9)" >32-RLV</text>
<path d="M836.064,1410.064 A670.000,670.000 40.000 0,1 849.242,1340.583 L771.539,1321.549 A750.000,750.000 0.000 0,0 756.788,1399.325 Z" style="stroke-width:2.0;stroke:rgb(115,115,115);stroke-linecap:round;fill:none;" />
<path d="M862.792,1292.959 A670.000,670.000 40.000 0,1 888.165,1226.948 L815.110,1194.345 A750.000,750.000 0.000 0,0 786.708,1268.237 Z" style="stroke-width:2.0;stroke:rgb(115,115,115);stroke-linecap:round;fill:rgb(253,141,60);" />
<text x="721.5" y="1227.0" font-size="65.0px" font-family="CMUBright-Roman" style="text-anchor:end;fill:rgb(0,0,0);" transform="rotate(21.0,721.5,1227.0)" >33-SC</text>
<path d="M862.792,1292.959 A670.000,670.000 40.000 0,1 888.165,1226.948 L815.110,1194.345 A750.000,750.000 0.000 0,0 786.708,1268.237 Z" style="stroke-width:2.0;stroke:rgb(115,115,115);stroke-linecap:round;fill:none;" />
<path d="M910.001,1182.508 A670.000,670.000 40.000 0,1 946.752,1122.089 L880.693,1076.965 A750.000,750.000 0.000 0,0 839.553,1144.599 Z" style="stroke-width:2.0;stroke:rgb(115,115,115);stroke-linecap:round;fill:rgb(66,146,198);" />
<text x="782.7" y="1092.4" font-size="65.0px" font-family="CMUBright-Roman" style="text-anchor:end;fill:rgb(0,0,0);" transform="rotate(31.3,782.7,1092.4)" >4-FOC</text>
<path d="M910.001,1182.508 A670.000,670.000 40.000 0,1 946.752,1122.089 L880.693,1076.965 A750.000,750.000 0.000 0,0 839.553,1144.599 Z" style="stroke-width:2.0;stroke:rgb(115,115,115);stroke-linecap:round;fill:none;" />
<path d="M976.173,1082.262 A670.000,670.000 40.000 0,1 1023.122,1029.376 L966.181,973.182 A750.000,750.000 0.000 0,0 913.626,1032.383 Z" style="stroke-width:2.0;stroke:rgb(115,115,115);stroke-linecap:round;fill:rgb(66,146,198);" />
<text x="867.0" y="970.9" font-size="65.0px" font-family="CMUBright-Roman" style="text-anchor:end;fill:rgb(0,0,0);" transform="rotate(41.6,867.0,970.9)" >6-IFG</text>
<path d="M976.173,1082.262 A670.000,670.000 40.000 0,1 1023.122,1029.376 L966.181,973.182 A750.000,750.000 0.000 0,0 913.626,1032.383 Z" style="stroke-width:2.0;stroke:rgb(115,115,115);stroke-linecap:round;fill:none;" />
<path d="M1059.181,995.442 A670.000,670.000 40.000 0,1 1114.819,951.789 L1068.827,886.331 A750.000,750.000 0.000 0,0 1006.546,935.196 Z" style="stroke-width:2.0;stroke:rgb(115,115,115);stroke-linecap:round;fill:rgb(66,146,198);" />
<text x="971.7" y="866.3" font-size="65.0px" font-family="CMUBright-Roman" style="text-anchor:end;fill:rgb(0,0,0);" transform="rotate(51.9,971.7,866.3)" >7-IFG</text>
<path d="M1059.181,995.442 A670.000,670.000 40.000 0,1 1114.819,951.789 L1068.827,886.331 A750.000,750.000 0.000 0,0 1006.546,935.196 Z" style="stroke-width:2.0;stroke:rgb(115,115,115);stroke-linecap:round;fill:none;" />
<path d="M1156.357,924.839 A670.000,670.000 40.000 0,1 1218.896,891.822 L1185.331,819.204 A750.000,750.000 0.000 0,0 1115.326,856.163 Z" style="stroke-width:2.0;stroke:rgb(115,115,115);stroke-linecap:round;fill:rgb(66,146,198);" />
<text x="1093.3" y="782.2" font-size="65.0px" font-family="CMUBright-Roman" style="text-anchor:end;fill:rgb(0,0,0);" transform="rotate(62.2,1093.3,782.2)" >22-ParG</text>
<path d="M1156.357,924.839 A670.000,670.000 40.000 0,1 1218.896,891.822 L1185.331,819.204 A750.000,750.000 0.000 0,0 1115.326,856.163 Z" style="stroke-width:2.0;stroke:rgb(115,115,115);stroke-linecap:round;fill:none;" />
<path d="M1264.579,872.723 A670.000,670.000 40.000 0,1 1332.008,851.403 L1311.949,773.958 A750.000,750.000 0.000 0,0 1236.469,797.824 Z" style="stroke-width:2.0;stroke:rgb(115,115,115);stroke-linecap:round;fill:rgb(66,146,198);" />
<text x="1229.0" y="720.8" font-size="65.0px" font-family="CMUBright-Roman" style="text-anchor:end;fill:rgb(0,0,0);" transform="rotate(72.5,1229.0,720.8)" >24-PP</text>
<path d="M1264.579,872.723 A670.000,670.000 40.000 0,1 1332.008,851.403 L1311.949,773.958 A750.000,750.000 0.000 0,0 1236.469,797.824 Z" style="stroke-width:2.0;stroke:rgb(115,115,115);stroke-linecap:round;fill:none;" />
<path d="M1380.367,840.767 A670.000,670.000 40.000 0,1 1450.519,831.830 L1444.611,752.048 A750.000,750.000 0.000 0,0 1366.082,762.053 Z" style="stroke-width:2.0;stroke:rgb(115,115,115);stroke-linecap:round;fill:rgb(66,146,198);" />
<text x="1371.5" y="685.1" font-size="65.0px" font-family="CMUBright-Roman" style="text-anchor:end;fill:rgb(0,0,0);" transform="rotate(82.7,1371.5,685.1)" >26-PC</text>
<path d="M1380.367,840.767 A670.000,670.000 40.000 0,1 1450.519,831.830 L1444.611,752.048 A750.000,750.000 0.000 0,0 1366.082,762.053 Z" style="stroke-width:2.0;stroke:rgb(115,115,115);stroke-linecap:round;fill:none;" />
</g>
<g id="track_1">
<path d="M 2012.0,1878.2 L 1986.0,1859.0 1959.9,1839.9 1933.7,1820.7 1907.5,1801.6 1881.2,1782.6 1854.8,1763.5 1828.4,1744.5 1801.9,1725.5 1775.3,1706.6 1748.7,1687.7 1722.0,1668.9 1695.2,1650.1 1668.3,1631.4 1641.4,1612.7 1614.5,1594.1 1587.5,1575.6 1560.4,1557.1 1533.3,1538.7 1506.1,1520.3 1478.9,1502.0 1451.6,1483.8 1424.3,1465.7 1396.9,1447.6 1369.6,1429.6 1342.1,1411.7 1314.7,1393.9 1287.2,1376.1 1259.7,1358.5 1232.1,1340.9 1204.6,1323.3 1177.0,1305.9 1149.4,1288.5 1121.8,1271.3 1094.2,1254.1 1066.6,1236.9 1039.0,1219.9 1011.4,1202.9 983.8,1186.0 956.2,1169.2  " style="stroke-opacity: 1.000000; stroke-width: 5.0; stroke: rgb(251,106,74); fill: none"  />
<path d="M 2012.0,1878.2 L 1989.9,1861.5 1968.0,1844.1 1946.5,1826.1 1925.3,1807.5 1904.6,1788.2 1884.5,1768.3 1864.9,1747.8 1846.1,1726.7 1828.0,1705.0 1810.7,1682.8 1794.2,1660.0 1778.7,1636.7 1764.1,1613.0 1750.5,1588.7 1737.9,1564.0 1726.4,1538.9 1715.9,1513.3 1706.6,1487.4 1698.3,1461.2 1691.2,1434.6 1685.3,1407.8 1680.4,1380.6 1676.7,1353.3 1674.2,1325.8 1672.8,1298.1 1672.4,1270.3 1673.2,1242.4 1675.1,1214.5 1677.9,1186.5 1681.8,1158.6 1686.7,1130.8 1692.5,1103.1 1699.2,1075.6 1706.7,1048.3 1715.0,1021.3 1724.0,994.5 1733.7,968.2 1744.0,942.2 1754.8,916.7  " style="stroke-opacity: 1.000000; stroke-width: 5.0; stroke: rgb(251,106,74); fill: none"  />
<path d="M 2012.0,1878.2 L 1990.8,1862.9 1969.1,1848.1 1947.1,1833.9 1924.8,1820.4 1902.3,1807.7 1879.5,1795.9 1856.6,1785.1 1833.7,1775.3 1810.7,1766.6 1787.8,1759.1 1765.0,1752.8 1742.3,1747.8 1719.8,1744.2 1697.5,1741.9 1675.4,1741.0 1653.7,1741.6 1632.3,1743.6 1611.3,1747.1 1590.7,1752.0 1570.6,1758.3 1550.9,1766.2 1531.8,1775.4 1513.1,1786.1 1495.0,1798.1 1477.5,1811.5 1460.6,1826.1 1444.2,1842.1 1428.5,1859.2 1413.4,1877.4 1399.0,1896.8 1385.2,1917.1 1372.1,1938.3 1359.6,1960.3 1347.8,1983.1 1336.6,2006.4 1326.1,2030.3 1316.3,2054.6 1307.1,2079.1 1298.5,2103.8  " style="stroke-opacity: 1.000000; stroke-width: 5.0; stroke: rgb(251,106,74); fill: none"  />
<path d="M 2012.0,1878.2 L 1987.2,1859.7 1962.4,1840.9 1937.6,1821.7 1912.9,1802.1 1888.3,1782.2 1863.8,1762.0 1839.4,1741.4 1815.2,1720.4 1791.1,1699.1 1767.2,1677.4 1743.5,1655.4 1720.0,1633.1 1696.7,1610.4 1673.6,1587.4 1650.9,1564.1 1628.3,1540.5 1606.1,1516.6 1584.2,1492.3 1562.5,1467.8 1541.2,1443.0 1520.2,1417.9 1499.5,1392.6 1479.2,1367.0 1459.2,1341.2 1439.6,1315.2 1420.3,1289.0 1401.4,1262.6 1382.8,1236.0 1364.6,1209.2 1346.8,1182.4 1329.3,1155.3 1312.3,1128.2 1295.5,1101.0 1279.2,1073.8 1263.2,1046.4 1247.6,1019.1 1232.3,991.7 1217.4,964.4 1202.8,937.1  " style="stroke-opacity: 1.000000; stroke-width: 5.0; stroke: rgb(251,106,74); fill: none"  />
<path d="M 2012.0,1878.2 L 1988.5,1861.2 1964.6,1844.6 1940.1,1828.2 1915.1,1812.3 1889.6,1796.9 1863.6,1781.9 1837.2,1767.6 1810.4,1753.8 1783.2,1740.6 1755.6,1728.2 1727.6,1716.4 1699.3,1705.4 1670.7,1695.2 1641.8,1685.7 1612.6,1677.1 1583.2,1669.3 1553.5,1662.4 1523.7,1656.3 1493.7,1651.1 1463.6,1646.7 1433.3,1643.3 1403.0,1640.7 1372.6,1639.1 1342.2,1638.3 1311.7,1638.4 1281.3,1639.3 1251.0,1641.1 1220.7,1643.7 1190.6,1647.1 1160.6,1651.3 1130.7,1656.2 1101.1,1661.9 1071.7,1668.3 1042.6,1675.3 1013.8,1683.0 985.4,1691.2 957.3,1700.0 929.6,1709.2 902.3,1718.9  " style="stroke-opacity: 1.000000; stroke-width: 5.0; stroke: rgb(251,106,74); fill: none"  />
<path d="M 956.2,1169.2 L 983.8,1186.0 1011.4,1202.9 1039.0,1219.9 1066.6,1236.9 1094.2,1254.1 1121.8,1271.3 1149.4,1288.5 1177.0,1305.9 1204.6,1323.3 1232.1,1340.9 1259.7,1358.5 1287.2,1376.1 1314.7,1393.9 1342.1,1411.7 1369.6,1429.6 1396.9,1447.6 1424.3,1465.7 1451.6,1483.8 1478.9,1502.0 1506.1,1520.3 1533.3,1538.7 1560.4,1557.1 1587.5,1575.6 1614.5,1594.1 1641.4,1612.7 1668.3,1631.4 1695.2,1650.1 1722.0,1668.9 1748.7,1687.7 1775.3,1706.6 1801.9,1725.5 1828.4,1744.5 1854.8,1763.5 1881.2,1782.6 1907.5,1801.6 1933.7,1820.7 1959.9,1839.9 1986.0,1859.0 2012.0,1878.2  " style="stroke-opacity: 1.000000; stroke-width: 5.0; stroke: rgb(251,106,74); fill: none"  />
<path d="M 956.2,1169.2 L 978.3,1182.3 1000.7,1194.9 1023.4,1206.9 1046.2,1218.2 1069.0,1228.6 1091.9,1238.1 1114.7,1246.7 1137.3,1254.2 1159.7,1260.5 1181.7,1265.7 1203.5,1269.6 1224.8,1272.3 1245.6,1273.5 1266.0,1273.5 1285.8,1272.0 1304.9,1269.1 1323.5,1264.7 1341.3,1258.9 1358.4,1251.7 1374.8,1243.1 1390.5,1233.0 1405.3,1221.5 1419.3,1208.7 1432.5,1194.5 1444.9,1179.0 1456.5,1162.2 1467.2,1144.3 1477.0,1125.2 1486.1,1105.0 1494.2,1083.9 1501.6,1061.8 1508.2,1038.9 1514.0,1015.3 1519.0,991.1 1523.3,966.3 1526.8,941.1 1529.7,915.6 1532.0,890.0 1533.6,864.4  " style="stroke-opacity: 1.000000; stroke-width: 5.0; stroke: rgb(251,106,74); fill: none"  />
<path d="M 1533.6,864.4 L 1532.0,890.0 1529.7,915.6 1526.8,941.1 1523.3,966.3 1519.0,991.1 1514.0,1015.3 1508.2,1038.9 1501.6,1061.8 1494.2,1083.9 1486.1,1105.0 1477.0,1125.2 1467.2,1144.3 1456.5,1162.2 1444.9,1179.0 1432.5,1194.5 1419.3,1208.7 1405.3,1221.5 1390.5,1233.0 1374.8,1243.1 1358.4,1251.7 1341.3,1258.9 1323.5,1264.7 1304.9,1269.1 1285.8,1272.0 1266.0,1273.5 1245.6,1273.5 1224.8,1272.3 1203.5,1269.6 1181.7,1265.7 1159.7,1260.5 1137.3,1254.2 1114.7,1246.7 1091.9,1238.1 1069.0,1228.6 1046.2,1218.2 1023.4,1206.9 1000.7,1194.9 978.3,1182.3 956.2,1169.2  " style="stroke-opacity: 1.000000; stroke-width: 5.0; stroke: rgb(251,106,74); fill: none"  />
<path d="M 1533.6,864.4 L 1532.0,889.7 1529.9,914.9 1527.2,939.8 1523.9,964.5 1520.0,988.6 1515.4,1012.1 1510.2,1034.9 1504.2,1056.9 1497.6,1077.9 1490.2,1097.8 1482.1,1116.7 1473.3,1134.3 1463.7,1150.6 1453.4,1165.7 1442.4,1179.3 1430.6,1191.5 1418.1,1202.1 1404.9,1211.3 1391.0,1219.0 1376.5,1225.0 1361.3,1229.5 1345.5,1232.5 1329.1,1233.9 1312.2,1233.7 1294.8,1232.0 1276.8,1228.8 1258.5,1224.1 1239.7,1218.0 1220.6,1210.5 1201.2,1201.7 1181.6,1191.7 1161.8,1180.5 1141.9,1168.3 1122.0,1155.0 1102.0,1140.8 1082.2,1125.9 1062.5,1110.2 1043.1,1094.1 1024.0,1077.4  " style="stroke-opacity: 1.000000; stroke-width: 5.0; stroke: rgb(251,106,74); fill: none"  />
<path d="M 1533.6,864.4 L 1532.1,895.3 1530.9,926.4 1530.0,957.7 1529.3,989.2 1529.1,1020.8 1529.1,1052.6 1529.5,1084.6 1530.3,1116.6 1531.4,1148.7 1532.9,1181.0 1534.8,1213.3 1537.1,1245.6 1539.8,1278.0 1542.9,1310.4 1546.4,1342.8 1550.3,1375.2 1554.7,1407.6 1559.4,1439.9 1564.6,1472.2 1570.2,1504.4 1576.2,1536.6 1582.6,1568.6 1589.4,1600.6 1596.6,1632.4 1604.2,1664.1 1612.2,1695.7 1620.6,1727.1 1629.3,1758.3 1638.4,1789.4 1647.8,1820.2 1657.5,1850.9 1667.6,1881.3 1678.0,1911.5 1688.6,1941.4 1699.5,1971.2 1710.7,2000.6 1722.1,2029.8 1733.7,2058.7 1745.5,2087.2  " style="stroke-opacity: 1.000000; stroke-width: 5.0; stroke: rgb(251,106,74); fill: none"  />
<path d="M 1533.6,864.4 L 1531.9,896.6 1530.3,929.0 1528.7,961.3 1527.2,993.7 1525.8,1026.2 1524.4,1058.7 1523.1,1091.2 1521.9,1123.8 1520.8,1156.4 1519.7,1189.0 1518.7,1221.7 1517.8,1254.4 1516.9,1287.1 1516.2,1319.9 1515.5,1352.6 1514.9,1385.4 1514.4,1418.1 1514.0,1450.9 1513.6,1483.7 1513.3,1516.5 1513.2,1549.3 1513.1,1582.1 1513.1,1614.9 1513.1,1647.6 1513.3,1680.4 1513.6,1713.1 1513.9,1745.8 1514.3,1778.6 1514.8,1811.2 1515.3,1843.9 1516.0,1876.5 1516.7,1909.1 1517.4,1941.6 1518.3,1974.2 1519.2,2006.6 1520.2,2039.1 1521.2,2071.5 1522.4,2103.8 1523.5,2136.1  " style="stroke-opacity: 1.000000; stroke-width: 5.0; stroke: rgb(251,106,74); fill: none"  />
<path d="M 1024.0,1077.4 L 1043.1,1094.1 1062.5,1110.2 1082.2,1125.9 1102.0,1140.8 1122.0,1155.0 1141.9,1168.3 1161.8,1180.5 1181.6,1191.7 1201.2,1201.7 1220.6,1210.5 1239.7,1218.0 1258.5,1224.1 1276.8,1228.8 1294.8,1232.0 1312.2,1233.7 1329.1,1233.9 1345.5,1232.5 1361.3,1229.5 1376.5,1225.0 1391.0,1219.0 1404.9,1211.3 1418.1,1202.1 1430.6,1191.5 1442.4,1179.3 1453.4,1165.7 1463.7,1150.6 1473.3,1134.3 1482.1,1116.7 1490.2,1097.8 1497.6,1077.9 1504.2,1056.9 1510.2,1034.9 1515.4,1012.1 1520.0,988.6 1523.9,964.5 1527.2,939.8 1529.9,914.9 1532.0,889.7 1533.6,864.4  " style="stroke-opacity: 1.000000; stroke-width: 5.0; stroke: rgb(251,106,74); fill: none"  />
<path d="M 1107.1,999.2 L 1127.0,1024.7 1146.9,1050.2 1166.8,1075.8 1186.7,1101.4 1206.5,1127.1 1226.3,1153.0 1246.1,1178.8 1265.8,1204.8 1285.5,1230.8 1305.1,1256.9 1324.7,1283.0 1344.3,1309.3 1363.8,1335.5 1383.2,1361.9 1402.6,1388.3 1421.9,1414.8 1441.2,1441.3 1460.4,1467.9 1479.5,1494.5 1498.6,1521.2 1517.6,1547.9 1536.5,1574.7 1555.3,1601.5 1574.1,1628.4 1592.8,1655.2 1611.4,1682.2 1630.0,1709.1 1648.5,1736.1 1666.8,1763.1 1685.2,1790.2 1703.4,1817.2 1721.6,1844.3 1739.6,1871.4 1757.6,1898.5 1775.5,1925.6 1793.4,1952.7 1811.1,1979.8 1828.8,2006.9 1846.4,2034.0  " style="stroke-opacity: 1.000000; stroke-width: 5.0; stroke: rgb(251,106,74); fill: none"  />
<path d="M 1936.2,1963.5 L 1917.0,1942.7 1898.1,1921.3 1879.6,1899.3 1861.5,1876.7 1843.9,1853.6 1826.8,1830.0 1810.4,1805.8 1794.6,1781.2 1779.5,1756.1 1765.2,1730.5 1751.7,1704.5 1739.0,1678.1 1727.2,1651.3 1716.4,1624.2 1706.4,1596.7 1697.5,1569.0 1689.5,1541.0 1682.5,1512.7 1676.5,1484.2 1671.5,1455.5 1667.5,1426.7 1664.6,1397.7 1662.7,1368.6 1661.8,1339.4 1662.0,1310.2 1663.1,1281.0 1665.2,1251.9 1668.2,1222.7 1672.2,1193.7 1677.1,1164.8 1682.8,1136.1 1689.4,1107.6 1696.7,1079.3 1704.8,1051.3 1713.6,1023.6 1723.1,996.2 1733.2,969.3 1743.7,942.8 1754.8,916.7  " style="stroke-opacity: 1.000000; stroke-width: 5.0; stroke: rgb(251,106,74); fill: none"  />
<path d="M 1936.2,1963.5 L 1918.4,1945.0 1900.1,1926.9 1881.5,1909.3 1862.5,1892.4 1843.2,1876.3 1823.7,1861.0 1804.1,1846.7 1784.3,1833.5 1764.4,1821.4 1744.5,1810.5 1724.6,1801.0 1704.7,1792.8 1684.9,1786.0 1665.3,1780.6 1645.9,1776.8 1626.6,1774.5 1607.6,1773.8 1588.8,1774.6 1570.4,1777.0 1552.3,1781.0 1534.6,1786.5 1517.2,1793.6 1500.3,1802.3 1483.7,1812.5 1467.7,1824.1 1452.1,1837.2 1437.0,1851.6 1422.4,1867.4 1408.4,1884.4 1394.8,1902.6 1381.9,1921.9 1369.5,1942.3 1357.6,1963.5 1346.3,1985.5 1335.6,2008.3 1325.5,2031.6 1315.9,2055.4 1306.9,2079.5 1298.5,2103.8  " style="stroke-opacity: 1.000000; stroke-width: 5.0; stroke: rgb(251,106,74); fill: none"  />
<path d="M 1936.2,1963.5 L 1917.5,1943.1 1899.0,1922.2 1881.1,1900.6 1863.6,1878.5 1846.6,1855.8 1830.4,1832.6 1814.8,1808.9 1800.0,1784.8 1786.1,1760.3 1773.1,1735.3 1760.9,1710.0 1749.8,1684.3 1739.7,1658.3 1730.6,1632.0 1722.7,1605.5 1715.8,1578.7 1710.1,1551.7 1705.5,1524.5 1702.1,1497.2 1699.8,1469.8 1698.8,1442.3 1698.8,1414.8 1700.1,1387.2 1702.5,1359.7 1706.0,1332.2 1710.7,1304.8 1716.4,1277.5 1723.2,1250.3 1731.1,1223.3 1739.9,1196.6 1749.6,1170.1 1760.3,1143.9 1771.8,1118.0 1784.0,1092.5 1797.0,1067.4 1810.7,1042.7 1824.9,1018.5 1839.7,994.7 1854.8,971.6  " style="stroke-opacity: 1.000000; stroke-width: 5.0; stroke: rgb(251,106,74); fill: none"  />
<path d="M 1936.2,1963.5 L 1916.6,1943.1 1896.4,1923.0 1875.5,1903.1 1854.1,1883.7 1832.1,1864.7 1809.5,1846.3 1786.4,1828.4 1762.8,1811.1 1738.6,1794.5 1714.0,1778.7 1688.8,1763.6 1663.3,1749.4 1637.3,1736.0 1610.8,1723.5 1584.0,1711.9 1556.9,1701.3 1529.4,1691.6 1501.6,1682.9 1473.5,1675.2 1445.2,1668.5 1416.6,1662.8 1387.9,1658.1 1359.0,1654.4 1329.9,1651.8 1300.8,1650.1 1271.5,1649.5 1242.3,1649.8 1213.0,1651.1 1183.8,1653.3 1154.7,1656.4 1125.7,1660.4 1096.8,1665.2 1068.1,1670.8 1039.7,1677.2 1011.5,1684.3 983.6,1692.1 956.1,1700.5 929.0,1709.5 902.3,1718.9  " style="stroke-opacity: 1.000000; stroke-width: 5.0; stroke: rgb(251,106,74); fill: none"  />
<path d="M 1754.8,916.7 L 1744.0,942.2 1733.7,968.2 1724.0,994.5 1715.0,1021.3 1706.7,1048.3 1699.2,1075.6 1692.5,1103.1 1686.7,1130.8 1681.8,1158.6 1677.9,1186.5 1675.1,1214.5 1673.2,1242.4 1672.4,1270.3 1672.8,1298.1 1674.2,1325.8 1676.7,1353.3 1680.4,1380.6 1685.3,1407.8 1691.2,1434.6 1698.3,1461.2 1706.6,1487.4 1715.9,1513.3 1726.4,1538.9 1737.9,1564.0 1750.5,1588.7 1764.1,1613.0 1778.7,1636.7 1794.2,1660.0 1810.7,1682.8 1828.0,1705.0 1846.1,1726.7 1864.9,1747.8 1884.5,1768.3 1904.6,1788.2 1925.3,1807.5 1946.5,1826.1 1968.0,1844.1 1989.9,1861.5 2012.0,1878.2  " style="stroke-opacity: 1.000000; stroke-width: 5.0; stroke: rgb(251,106,74); fill: none"  />
<path d="M 1754.8,916.7 L 1743.7,942.8 1733.2,969.3 1723.1,996.2 1713.6,1023.6 1704.8,1051.3 1696.7,1079.3 1689.4,1107.6 1682.8,1136.1 1677.1,1164.8 1672.2,1193.7 1668.2,1222.7 1665.2,1251.9 1663.1,1281.0 1662.0,1310.2 1661.8,1339.4 1662.7,1368.6 1664.6,1397.7 1667.5,1426.7 1671.5,1455.5 1676.5,1484.2 1682.5,1512.7 1689.5,1541.0 1697.5,1569.0 1706.4,1596.7 1716.4,1624.2 1727.2,1651.3 1739.0,1678.1 1751.7,1704.5 1765.2,1730.5 1779.5,1756.1 1794.6,1781.2 1810.4,1805.8 1826.8,1830.0 1843.9,1853.6 1861.5,1876.7 1879.6,1899.3 1898.1,1921.3 1917.0,1942.7 1936.2,1963.5  " style="stroke-opacity: 1.000000; stroke-width: 5.0; stroke: rgb(251,106,74); fill: none"  />
<path d="M 1754.8,916.7 L 1744.7,939.3 1734.4,961.7 1723.8,983.7 1713.1,1005.0 1702.1,1025.7 1691.1,1045.4 1680.0,1064.2 1668.8,1081.9 1657.6,1098.4 1646.5,1113.6 1635.3,1127.3 1624.3,1139.6 1613.3,1150.3 1602.5,1159.4 1591.8,1166.9 1581.3,1172.6 1571.0,1176.6 1560.8,1178.8 1551.0,1179.2 1541.3,1177.8 1532.0,1174.6 1522.9,1169.7 1514.1,1162.9 1505.6,1154.5 1497.4,1144.4 1489.6,1132.6 1482.1,1119.2 1474.9,1104.3 1468.1,1088.0 1461.7,1070.3 1455.6,1051.3 1449.8,1031.2 1444.5,1010.0 1439.4,988.0 1434.8,965.1 1430.5,941.6 1426.5,917.5 1422.9,893.2 1419.6,868.6  " style="stroke-opacity: 1.000000; stroke-width: 5.0; stroke: rgb(251,106,74); fill: none"  />
<path d="M 1754.8,916.7 L 1742.5,945.1 1730.5,973.8 1718.6,1002.8 1707.0,1032.1 1695.6,1061.6 1684.4,1091.4 1673.6,1121.4 1663.1,1151.7 1652.8,1182.2 1642.9,1212.9 1633.3,1243.8 1624.1,1274.9 1615.3,1306.1 1606.8,1337.6 1598.7,1369.1 1591.0,1400.8 1583.7,1432.7 1576.8,1464.6 1570.3,1496.7 1564.2,1528.8 1558.5,1561.0 1553.2,1593.3 1548.4,1625.6 1543.9,1657.9 1539.9,1690.3 1536.3,1722.6 1533.1,1755.0 1530.3,1787.3 1527.9,1819.5 1525.8,1851.7 1524.2,1883.8 1522.9,1915.9 1522.0,1947.8 1521.5,1979.6 1521.3,2011.2 1521.4,2042.7 1521.8,2074.0 1522.5,2105.2 1523.5,2136.1  " style="stroke-opacity: 1.000000; stroke-width: 5.0; stroke: rgb(251,106,74); fill: none"  />
<path d="M 1846.4,2034.0 L 1828.8,2006.9 1811.1,1979.8 1793.4,1952.7 1775.5,1925.6 1757.6,1898.5 1739.6,1871.4 1721.6,1844.3 1703.4,1817.2 1685.2,1790.2 1666.8,1763.1 1648.5,1736.1 1630.0,1709.1 1611.4,1682.2 1592.8,1655.2 1574.1,1628.4 1555.3,1601.5 1536.5,1574.7 1517.6,1547.9 1498.6,1521.2 1479.5,1494.5 1460.4,1467.9 1441.2,1441.3 1421.9,1414.8 1402.6,1388.3 1383.2,1361.9 1363.8,1335.5 1344.3,1309.3 1324.7,1283.0 1305.1,1256.9 1285.5,1230.8 1265.8,1204.8 1246.1,1178.8 1226.3,1153.0 1206.5,1127.1 1186.7,1101.4 1166.8,1075.8 1146.9,1050.2 1127.0,1024.7 1107.1,999.2  " style="stroke-opacity: 1.000000; stroke-width: 5.0; stroke: rgb(251,106,74); fill: none"  />
<path d="M 1846.4,2034.0 L 1832.2,2012.6 1817.5,1991.5 1802.3,1970.9 1786.6,1950.8 1770.5,1931.5 1754.1,1913.0 1737.3,1895.4 1720.2,1878.9 1702.7,1863.4 1685.1,1849.2 1667.2,1836.2 1649.1,1824.6 1630.9,1814.4 1612.5,1805.6 1594.1,1798.4 1575.5,1792.7 1557.0,1788.6 1538.4,1786.0 1519.8,1785.1 1501.3,1785.8 1482.8,1788.1 1464.5,1792.0 1446.3,1797.5 1428.2,1804.5 1410.3,1813.1 1392.7,1823.2 1375.2,1834.7 1358.1,1847.6 1341.2,1861.9 1324.6,1877.4 1308.4,1894.1 1292.6,1911.9 1277.1,1930.6 1262.1,1950.3 1247.5,1970.8 1233.3,1991.9 1219.7,2013.6 1206.6,2035.7 1194.0,2058.1  " style="stroke-opacity: 1.000000; stroke-width: 5.0; stroke: rgb(251,106,74); fill: none"  />
<path d="M 1846.4,2034.0 L 1832.0,2012.2 1816.9,1990.8 1801.3,1969.8 1785.1,1949.3 1768.5,1929.5 1751.3,1910.4 1733.7,1892.2 1715.7,1875.0 1697.3,1858.8 1678.4,1843.7 1659.3,1829.8 1639.7,1817.2 1619.9,1805.8 1599.9,1795.9 1579.6,1787.3 1559.0,1780.2 1538.3,1774.6 1517.4,1770.4 1496.4,1767.8 1475.3,1766.7 1454.2,1767.1 1433.0,1769.0 1411.8,1772.4 1390.6,1777.3 1369.5,1783.7 1348.5,1791.5 1327.6,1800.7 1306.9,1811.2 1286.3,1823.0 1266.0,1836.0 1246.0,1850.1 1226.2,1865.4 1206.8,1881.6 1187.7,1898.8 1169.1,1916.7 1150.9,1935.4 1133.1,1954.6 1115.9,1974.4 1099.2,1994.5  " style="stroke-opacity: 1.000000; stroke-width: 5.0; stroke: rgb(251,106,74); fill: none"  />
<path d="M 1745.5,2087.2 L 1733.7,2058.7 1722.1,2029.8 1710.7,2000.6 1699.5,1971.2 1688.6,1941.4 1678.0,1911.5 1667.6,1881.3 1657.5,1850.9 1647.8,1820.2 1638.4,1789.4 1629.3,1758.3 1620.6,1727.1 1612.2,1695.7 1604.2,1664.1 1596.6,1632.4 1589.4,1600.6 1582.6,1568.6 1576.2,1536.6 1570.2,1504.4 1564.6,1472.2 1559.4,1439.9 1554.7,1407.6 1550.3,1375.2 1546.4,1342.8 1542.9,1310.4 1539.8,1278.0 1537.1,1245.6 1534.8,1213.3 1532.9,1181.0 1531.4,1148.7 1530.3,1116.6 1529.5,1084.6 1529.1,1052.6 1529.1,1020.8 1529.3,989.2 1530.0,957.7 1530.9,926.4 1532.1,895.3 1533.6,864.4  " style="stroke-opacity: 1.000000; stroke-width: 5.0; stroke: rgb(251,106,74); fill: none"  />
<path d="M 1745.5,2087.2 L 1734.9,2061.0 1724.7,2034.3 1715.1,2007.2 1706.1,1979.7 1697.7,1951.9 1690.0,1923.8 1683.1,1895.4 1677.0,1866.8 1671.7,1837.9 1667.3,1809.0 1663.8,1779.9 1661.2,1750.7 1659.6,1721.5 1658.9,1692.3 1659.3,1663.1 1660.6,1634.0 1663.0,1604.9 1666.4,1576.0 1670.8,1547.2 1676.2,1518.6 1682.6,1490.2 1690.1,1462.0 1698.5,1434.1 1707.9,1406.5 1718.3,1379.2 1729.6,1352.3 1741.8,1325.7 1754.9,1299.5 1768.8,1273.7 1783.5,1248.4 1799.0,1223.5 1815.2,1199.1 1832.0,1175.2 1849.4,1151.9 1867.4,1129.0 1885.9,1106.7 1904.8,1085.0 1924.0,1063.9 1943.5,1043.4  " style="stroke-opacity: 1.000000; stroke-width: 5.0; stroke: rgb(251,106,74); fill: none"  />
<path d="M 1409.6,2130.0 L 1413.1,2105.8 1416.7,2081.8 1420.4,2058.1 1424.2,2035.0 1428.1,2012.6 1431.9,1991.0 1435.8,1970.4 1439.7,1950.9 1443.6,1932.7 1447.6,1915.7 1451.4,1900.2 1455.3,1886.3 1459.1,1873.9 1462.8,1863.2 1466.5,1854.2 1470.2,1847.0 1473.7,1841.6 1477.2,1838.0 1480.6,1836.3 1483.9,1836.5 1487.0,1838.5 1490.1,1842.4 1493.1,1848.2 1495.9,1855.7 1498.7,1865.1 1501.3,1876.1 1503.8,1888.8 1506.1,1903.1 1508.3,1918.9 1510.4,1936.2 1512.4,1954.8 1514.2,1974.6 1515.9,1995.4 1517.5,2017.3 1519.0,2040.0 1520.3,2063.4 1521.5,2087.3 1522.6,2111.6 1523.5,2136.1  " style="stroke-opacity: 1.000000; stroke-width: 5.0; stroke: rgb(251,106,74); fill: none"  />
<path d="M 1298.5,2103.8 L 1307.1,2079.1 1316.3,2054.6 1326.1,2030.3 1336.6,2006.4 1347.8,1983.1 1359.6,1960.3 1372.1,1938.3 1385.2,1917.1 1399.0,1896.8 1413.4,1877.4 1428.5,1859.2 1444.2,1842.1 1460.6,1826.1 1477.5,1811.5 1495.0,1798.1 1513.1,1786.1 1531.8,1775.4 1550.9,1766.2 1570.6,1758.3 1590.7,1752.0 1611.3,1747.1 1632.3,1743.6 1653.7,1741.6 1675.4,1741.0 1697.5,1741.9 1719.8,1744.2 1742.3,1747.8 1765.0,1752.8 1787.8,1759.1 1810.7,1766.6 1833.7,1775.3 1856.6,1785.1 1879.5,1795.9 1902.3,1807.7 1924.8,1820.4 1947.1,1833.9 1969.1,1848.1 1990.8,1862.9 2012.0,1878.2  " style="stroke-opacity: 1.000000; stroke-width: 5.0; stroke: rgb(251,106,74); fill: none"  />
<path d="M 1298.5,2103.8 L 1306.9,2079.5 1315.9,2055.4 1325.5,2031.6 1335.6,2008.3 1346.3,1985.5 1357.6,1963.5 1369.5,1942.3 1381.9,1921.9 1394.8,1902.6 1408.4,1884.4 1422.4,1867.4 1437.0,1851.6 1452.1,1837.2 1467.7,1824.1 1483.7,1812.5 1500.3,1802.3 1517.2,1793.6 1534.6,1786.5 1552.3,1781.0 1570.4,1777.0 1588.8,1774.6 1607.6,1773.8 1626.6,1774.5 1645.9,1776.8 1665.3,1780.6 1684.9,1786.0 1704.7,1792.8 1724.6,1801.0 1744.5,1810.5 1764.4,1821.4 1784.3,1833.5 1804.1,1846.7 1823.7,1861.0 1843.2,1876.3 1862.5,1892.4 1881.5,1909.3 1900.1,1926.9 1918.4,1945.0 1936.2,1963.5  " style="stroke-opacity: 1.000000; stroke-width: 5.0; stroke: rgb(251,106,74); fill: none"  />
<path d="M 1854.8,971.6 L 1839.7,994.7 1824.9,1018.5 1810.7,1042.7 1797.0,1067.4 1784.0,1092.5 1771.8,1118.0 1760.3,1143.9 1749.6,1170.1 1739.9,1196.6 1731.1,1223.3 1723.2,1250.3 1716.4,1277.5 1710.7,1304.8 1706.0,1332.2 1702.5,1359.7 1700.1,1387.2 1698.8,1414.8 1698.8,1442.3 1699.8,1469.8 1702.1,1497.2 1705.5,1524.5 1710.1,1551.7 1715.8,1578.7 1722.7,1605.5 1730.6,1632.0 1739.7,1658.3 1749.8,1684.3 1760.9,1710.0 1773.1,1735.3 1786.1,1760.3 1800.0,1784.8 1814.8,1808.9 1830.4,1832.6 1846.6,1855.8 1863.6,1878.5 1881.1,1900.6 1899.0,1922.2 1917.5,1943.1 1936.2,1963.5  " style="stroke-opacity: 1.000000; stroke-width: 5.0; stroke: rgb(251,106,74); fill: none"  />
<path d="M 1943.5,1043.4 L 1924.0,1063.9 1904.8,1085.0 1885.9,1106.7 1867.4,1129.0 1849.4,1151.9 1832.0,1175.2 1815.2,1199.1 1799.0,1223.5 1783.5,1248.4 1768.8,1273.7 1754.9,1299.5 1741.8,1325.7 1729.6,1352.3 1718.3,1379.2 1707.9,1406.5 1698.5,1434.1 1690.1,1462.0 1682.6,1490.2 1676.2,1518.6 1670.8,1547.2 1666.4,1576.0 1663.0,1604.9 1660.6,1634.0 1659.3,1663.1 1658.9,1692.3 1659.6,1721.5 1661.2,1750.7 1663.8,1779.9 1667.3,1809.0 1671.7,1837.9 1677.0,1866.8 1683.1,1895.4 1690.0,1923.8 1697.7,1951.9 1706.1,1979.7 1715.1,2007.2 1724.7,2034.3 1734.9,2061.0 1745.5,2087.2  " style="stroke-opacity: 1.000000; stroke-width: 5.0; stroke: rgb(251,106,74); fill: none"  />
<path d="M 1194.0,2058.1 L 1206.6,2035.7 1219.7,2013.6 1233.3,1991.9 1247.5,1970.8 1262.1,1950.3 1277.1,1930.6 1292.6,1911.9 1308.4,1894.1 1324.6,1877.4 1341.2,1861.9 1358.1,1847.6 1375.2,1834.7 1392.7,1823.2 1410.3,1813.1 1428.2,1804.5 1446.3,1797.5 1464.5,1792.0 1482.8,1788.1 1501.3,1785.8 1519.8,1785.1 1538.4,1786.0 1557.0,1788.6 1575.5,1792.7 1594.1,1798.4 1612.5,1805.6 1630.9,1814.4 1649.1,1824.6 1667.2,1836.2 1685.1,1849.2 1702.7,1863.4 1720.2,1878.9 1737.3,1895.4 1754.1,1913.0 1770.5,1931.5 1786.6,1950.8 1802.3,1970.9 1817.5,1991.5 1832.2,2012.6 1846.4,2034.0  " style="stroke-opacity: 1.000000; stroke-width: 5.0; stroke: rgb(251,106,74); fill: none"  />
<path d="M 1099.2,1994.5 L 1115.9,1974.4 1133.1,1954.6 1150.9,1935.4 1169.1,1916.7 1187.7,1898.8 1206.8,1881.6 1226.2,1865.4 1246.0,1850.1 1266.0,1836.0 1286.3,1823.0 1306.9,1811.2 1327.6,1800.7 1348.5,1791.5 1369.5,1783.7 1390.6,1777.3 1411.8,1772.4 1433.0,1769.0 1454.2,1767.1 1475.3,1766.7 1496.4,1767.8 1517.4,1770.4 1538.3,1774.6 1559.0,1780.2 1579.6,1787.3 1599.9,1795.9 1619.9,1805.8 1639.7,1817.2 1659.3,1829.8 1678.4,1843.7 1697.3,1858.8 1715.7,1875.0 1733.7,1892.2 1751.3,1910.4 1768.5,1929.5 1785.1,1949.3 1801.3,1969.8 1816.9,1990.8 1832.0,2012.2 1846.4,2034.0  " style="stroke-opacity: 1.000000; stroke-width: 5.0; stroke: rgb(251,106,74); fill: none"  />
<path d="M 1202.8,937.1 L 1217.4,964.4 1232.3,991.7 1247.6,1019.1 1263.2,1046.4 1279.2,1073.8 1295.5,1101.0 1312.3,1128.2 1329.3,1155.3 1346.8,1182.4 1364.6,1209.2 1382.8,1236.0 1401.4,1262.6 1420.3,1289.0 1439.6,1315.2 1459.2,1341.2 1479.2,1367.0 1499.5,1392.6 1520.2,1417.9 1541.2,1443.0 1562.5,1467.8 1584.2,1492.3 1606.1,1516.6 1628.3,1540.5 1650.9,1564.1 1673.6,1587.4 1696.7,1610.4 1720.0,1633.1 1743.5,1655.4 1767.2,1677.4 1791.1,1699.1 1815.2,1720.4 1839.4,1741.4 1863.8,1762.0 1888.3,1782.2 1912.9,1802.1 1937.6,1821.7 1962.4,1840.9 1987.2,1859.7 2012.0,1878.2  " style="stroke-opacity: 1.000000; stroke-width: 5.0; stroke: rgb(251,106,74); fill: none"  />
<path d="M 1419.6,868.6 L 1422.9,893.2 1426.5,917.5 1430.5,941.6 1434.8,965.1 1439.4,988.0 1444.5,1010.0 1449.8,1031.2 1455.6,1051.3 1461.7,1070.3 1468.1,1088.0 1474.9,1104.3 1482.1,1119.2 1489.6,1132.6 1497.4,1144.4 1505.6,1154.5 1514.1,1162.9 1522.9,1169.7 1532.0,1174.6 1541.3,1177.8 1551.0,1179.2 1560.8,1178.8 1571.0,1176.6 1581.3,1172.6 1591.8,1166.9 1602.5,1159.4 1613.3,1150.3 1624.3,1139.6 1635.3,1127.3 1646.5,1113.6 1657.6,1098.4 1668.8,1081.9 1680.0,1064.2 1691.1,1045.4 1702.1,1025.7 1713.1,1005.0 1723.8,983.7 1734.4,961.7 1744.7,939.3 1754.8,916.7  " style="stroke-opacity: 1.000000; stroke-width: 5.0; stroke: rgb(251,106,74); fill: none"  />
<path d="M 1523.5,2136.1 L 1522.4,2103.8 1521.2,2071.5 1520.2,2039.1 1519.2,2006.6 1518.3,1974.2 1517.4,1941.6 1516.7,1909.1 1516.0,1876.5 1515.3,1843.9 1514.8,1811.2 1514.3,1778.6 1513.9,1745.8 1513.6,1713.1 1513.3,1680.4 1513.1,1647.6 1513.1,1614.9 1513.1,1582.1 1513.2,1549.3 1513.3,1516.5 1513.6,1483.7 1514.0,1450.9 1514.4,1418.1 1514.9,1385.4 1515.5,1352.6 1516.2,1319.9 1516.9,1287.1 1517.8,1254.4 1518.7,1221.7 1519.7,1189.0 1520.8,1156.4 1521.9,1123.8 1523.1,1091.2 1524.4,1058.7 1525.8,1026.2 1527.2,993.7 1528.7,961.3 1530.3,929.0 1531.9,896.6 1533.6,864.4  " style="stroke-opacity: 1.000000; stroke-width: 5.0; stroke: rgb(251,106,74); fill: none"  />
<path d="M 1523.5,2136.1 L 1522.5,2105.2 1521.8,2074.0 1521.4,2042.7 1521.3,2011.2 1521.5,1979.6 1522.0,1947.8 1522.9,1915.9 1524.2,1883.8 1525.8,1851.7 1527.9,1819.5 1530.3,1787.3 1533.1,1755.0 1536.3,1722.6 1539.9,1690.3 1543.9,1657.9 1548.4,1625.6 1553.2,1593.3 1558.5,1561.0 1564.2,1528.8 1570.3,1496.7 1576.8,1464.6 1583.7,1432.7 1591.0,1400.8 1598.7,1369.1 1606.8,1337.6 1615.3,1306.1 1624.1,1274.9 1633.3,1243.8 1642.9,1212.9 1652.8,1182.2 1663.1,1151.7 1673.6,1121.4 1684.4,1091.4 1695.6,1061.6 1707.0,1032.1 1718.6,1002.8 1730.5,973.8 1742.5,945.1 1754.8,916.7  " style="stroke-opacity: 1.000000; stroke-width: 5.0; stroke: rgb(251,106,74); fill: none"  />
<path d="M 1523.5,2136.1 L 1522.6,2111.6 1521.5,2087.3 1520.3,2063.4 1519.0,2040.0 1517.5,2017.3 1515.9,1995.4 1514.2,1974.6 1512.4,1954.8 1510.4,1936.2 1508.3,1918.9 1506.1,1903.1 1503.8,1888.8 1501.3,1876.1 1498.7,1865.1 1495.9,1855.7 1493.1,1848.2 1490.1,1842.4 1487.0,1838.5 1483.9,1836.5 1480.6,1836.3 1477.2,1838.0 1473.7,1841.6 1470.2,1847.0 1466.5,1854.2 1462.8,1863.2 1459.1,1873.9 1455.3,1886.3 1451.4,1900.2 1447.6,1915.7 1443.6,1932.7 1439.7,1950.9 1435.8,1970.4 1431.9,1991.0 1428.1,2012.6 1424.2,2035.0 1420.4,2058.1 1416.7,2081.8 1413.1,2105.8 1409.6,2130.0  " style="stroke-opacity: 1.000000; stroke-width: 5.0; stroke: rgb(251,106,74); fill: none"  />
<path d="M 902.3,1718.9 L 929.6,1709.2 957.3,1700.0 985.4,1691.2 1013.8,1683.0 1042.6,1675.3 1071.7,1668.3 1101.1,1661.9 1130.7,1656.2 1160.6,1651.3 1190.6,1647.1 1220.7,1643.7 1251.0,1641.1 1281.3,1639.3 1311.7,1638.4 1342.2,1638.3 1372.6,1639.1 1403.0,1640.7 1433.3,1643.3 1463.6,1646.7 1493.7,1651.1 1523.7,1656.3 1553.5,1662.4 1583.2,1669.3 1612.6,1677.1 1641.8,1685.7 1670.7,1695.2 1699.3,1705.4 1727.6,1716.4 1755.6,1728.2 1783.2,1740.6 1810.4,1753.8 1837.2,1767.6 1863.6,1781.9 1889.6,1796.9 1915.1,1812.3 1940.1,1828.2 1964.6,1844.6 1988.5,1861.2 2012.0,1878.2  " style="stroke-opacity: 1.000000; stroke-width: 5.0; stroke: rgb(251,106,74); fill: none"  />
<path d="M 902.3,1718.9 L 929.0,1709.5 956.1,1700.5 983.6,1692.1 1011.5,1684.3 1039.7,1677.2 1068.1,1670.8 1096.8,1665.2 1125.7,1660.4 1154.7,1656.4 1183.8,1653.3 1213.0,1651.1 1242.3,1649.8 1271.5,1649.5 1300.8,1650.1 1329.9,1651.8 1359.0,1654.4 1387.9,1658.1 1416.6,1662.8 1445.2,1668.5 1473.5,1675.2 1501.6,1682.9 1529.4,1691.6 1556.9,1701.3 1584.0,1711.9 1610.8,1723.5 1637.3,1736.0 1663.3,1749.4 1688.8,1763.6 1714.0,1778.7 1738.6,1794.5 1762.8,1811.1 1786.4,1828.4 1809.5,1846.3 1832.1,1864.7 1854.1,1883.7 1875.5,1903.1 1896.4,1923.0 1916.6,1943.1 1936.2,1963.5  " style="stroke-opacity: 1.000000; stroke-width: 5.0; stroke: rgb(251,106,74); fill: none"  />
</g>
<g id="track_0">
<path d="M 2012.0,1878.2 L 1992.2,1863.7 1972.6,1849.4 1953.1,1835.4 1934.0,1821.9 1915.4,1808.8 1897.3,1796.4 1879.9,1784.8 1863.3,1773.8 1847.5,1763.8 1832.7,1754.7 1819.0,1746.6 1806.3,1739.5 1794.8,1733.5 1784.6,1728.6 1775.6,1725.0 1767.9,1722.5 1761.6,1721.2 1756.6,1721.2 1753.0,1722.4 1750.8,1724.9 1750.0,1728.6 1750.7,1733.5 1752.7,1739.6 1756.0,1747.0 1760.8,1755.5 1766.8,1765.1 1774.1,1775.8 1782.6,1787.5 1792.3,1800.2 1803.1,1813.8 1815.0,1828.3 1827.8,1843.5 1841.4,1859.4 1855.9,1875.8 1871.0,1892.8 1886.8,1910.2 1902.9,1927.8 1919.5,1945.7 1936.2,1963.5  " style="stroke-opacity: 1.000000; stroke-width: 5.0; stroke: rgb(107,174,214); fill: none"  />
<path d="M 956.2,1169.2 L 977.1,1181.9 998.0,1194.4 1018.6,1206.5 1038.9,1218.3 1058.6,1229.6 1077.7,1240.4 1096.1,1250.4 1113.6,1259.8 1130.2,1268.4 1145.8,1276.2 1160.2,1283.0 1173.4,1288.9 1185.4,1293.9 1196.1,1297.8 1205.4,1300.6 1213.2,1302.4 1219.7,1303.1 1224.6,1302.7 1228.1,1301.2 1230.0,1298.5 1230.5,1294.8 1229.4,1289.9 1226.9,1284.0 1222.9,1277.0 1217.4,1268.9 1210.5,1259.9 1202.3,1249.9 1192.7,1239.0 1181.9,1227.2 1170.0,1214.6 1156.9,1201.3 1142.8,1187.3 1127.7,1172.7 1111.8,1157.6 1095.2,1142.0 1078.0,1126.1 1060.3,1110.0 1042.3,1093.7 1024.0,1077.4  " style="stroke-opacity: 1.000000; stroke-width: 5.0; stroke: rgb(107,174,214); fill: none"  />
<path d="M 956.2,1169.2 L 977.3,1181.9 998.3,1194.3 1019.2,1206.3 1039.9,1217.8 1060.1,1228.7 1079.8,1238.9 1098.9,1248.4 1117.2,1257.0 1134.8,1264.7 1151.4,1271.5 1167.0,1277.2 1181.6,1281.9 1195.0,1285.5 1207.3,1287.9 1218.3,1289.1 1228.1,1289.1 1236.5,1287.9 1243.6,1285.5 1249.3,1281.8 1253.7,1276.9 1256.6,1270.8 1258.2,1263.5 1258.4,1255.0 1257.2,1245.3 1254.7,1234.5 1250.8,1222.6 1245.7,1209.7 1239.3,1195.8 1231.8,1180.9 1223.1,1165.2 1213.4,1148.7 1202.6,1131.5 1191.0,1113.7 1178.5,1095.3 1165.2,1076.6 1151.4,1057.4 1137.0,1038.1 1122.2,1018.7 1107.1,999.2  " style="stroke-opacity: 1.000000; stroke-width: 5.0; stroke: rgb(107,174,214); fill: none"  />
<path d="M 956.2,1169.2 L 977.4,1182.0 998.8,1194.3 1020.0,1206.2 1041.1,1217.5 1061.9,1228.1 1082.3,1237.9 1102.2,1246.9 1121.5,1255.0 1140.1,1262.0 1158.0,1268.0 1175.0,1272.9 1191.1,1276.6 1206.3,1279.0 1220.4,1280.3 1233.4,1280.2 1245.3,1278.8 1256.0,1276.2 1265.5,1272.1 1273.9,1266.8 1281.0,1260.1 1286.8,1252.1 1291.4,1242.9 1294.7,1232.3 1296.8,1220.5 1297.6,1207.5 1297.3,1193.4 1295.7,1178.1 1293.0,1161.8 1289.2,1144.5 1284.3,1126.4 1278.4,1107.3 1271.5,1087.6 1263.8,1067.2 1255.2,1046.2 1245.9,1024.8 1235.9,1003.1 1225.3,981.1 1214.2,959.1 1202.8,937.1  " style="stroke-opacity: 1.000000; stroke-width: 5.0; stroke: rgb(107,174,214); fill: none"  />
<path d="M 1533.6,864.4 L 1532.4,888.8 1531.3,913.1 1530.3,937.0 1529.5,960.5 1528.9,983.2 1528.5,1005.1 1528.4,1026.1 1528.4,1046.0 1528.7,1064.6 1529.2,1082.0 1530.0,1098.0 1531.1,1112.4 1532.4,1125.3 1534.0,1136.5 1535.9,1146.1 1538.1,1153.9 1540.5,1159.8 1543.2,1164.0 1546.2,1166.3 1549.5,1166.8 1553.0,1165.4 1556.8,1162.2 1560.8,1157.1 1565.1,1150.3 1569.6,1141.6 1574.3,1131.3 1579.2,1119.3 1584.2,1105.7 1589.5,1090.6 1594.9,1074.1 1600.4,1056.3 1606.1,1037.2 1611.8,1017.1 1617.6,995.9 1623.4,973.9 1629.3,951.3 1635.1,928.0 1640.9,904.4 1646.5,880.6  " style="stroke-opacity: 1.000000; stroke-width: 5.0; stroke: rgb(107,174,214); fill: none"  />
<path d="M 1533.6,864.4 L 1532.4,888.9 1531.5,913.4 1530.8,937.5 1530.5,961.1 1530.5,984.0 1530.8,1006.2 1531.5,1027.5 1532.6,1047.8 1534.1,1066.9 1536.0,1084.7 1538.4,1101.2 1541.2,1116.2 1544.4,1129.8 1548.1,1141.7 1552.2,1152.0 1556.8,1160.6 1561.9,1167.5 1567.4,1172.6 1573.3,1175.9 1579.7,1177.4 1586.5,1177.1 1593.7,1175.0 1601.3,1171.1 1609.2,1165.5 1617.5,1158.1 1626.2,1149.1 1635.2,1138.5 1644.4,1126.3 1653.9,1112.6 1663.6,1097.5 1673.5,1081.1 1683.6,1063.5 1693.7,1044.8 1704.0,1025.1 1714.3,1004.6 1724.5,983.3 1734.7,961.5 1744.8,939.2 1754.8,916.7  " style="stroke-opacity: 1.000000; stroke-width: 5.0; stroke: rgb(107,174,214); fill: none"  />
<path d="M 1533.6,864.4 L 1532.5,889.4 1531.8,914.3 1531.7,939.0 1532.1,963.3 1533.0,987.2 1534.6,1010.3 1536.9,1032.8 1539.8,1054.3 1543.4,1074.9 1547.7,1094.4 1552.7,1112.7 1558.5,1129.8 1565.0,1145.6 1572.3,1160.0 1580.3,1172.9 1589.1,1184.3 1598.7,1194.2 1609.0,1202.6 1620.0,1209.3 1631.7,1214.4 1644.2,1217.9 1657.3,1219.8 1671.0,1220.1 1685.4,1218.8 1700.3,1215.9 1715.8,1211.5 1731.8,1205.6 1748.3,1198.2 1765.2,1189.4 1782.4,1179.3 1799.9,1168.0 1817.7,1155.5 1835.7,1141.9 1853.8,1127.3 1871.9,1111.8 1890.1,1095.5 1908.1,1078.6 1925.9,1061.2 1943.5,1043.4  " style="stroke-opacity: 1.000000; stroke-width: 5.0; stroke: rgb(107,174,214); fill: none"  />
<path d="M 1024.0,1077.4 L 1042.3,1093.7 1060.3,1110.0 1078.0,1126.1 1095.2,1142.0 1111.8,1157.6 1127.7,1172.7 1142.8,1187.3 1156.9,1201.3 1170.0,1214.6 1181.9,1227.2 1192.7,1239.0 1202.3,1249.9 1210.5,1259.9 1217.4,1268.9 1222.9,1277.0 1226.9,1284.0 1229.4,1289.9 1230.5,1294.8 1230.0,1298.5 1228.1,1301.2 1224.6,1302.7 1219.7,1303.1 1213.2,1302.4 1205.4,1300.6 1196.1,1297.8 1185.4,1293.9 1173.4,1288.9 1160.2,1283.0 1145.8,1276.2 1130.2,1268.4 1113.6,1259.8 1096.1,1250.4 1077.7,1240.4 1058.6,1229.6 1038.9,1218.3 1018.6,1206.5 998.0,1194.4 977.1,1181.9 956.2,1169.2  " style="stroke-opacity: 1.000000; stroke-width: 5.0; stroke: rgb(107,174,214); fill: none"  />
<path d="M 1024.0,1077.4 L 1042.4,1093.7 1060.6,1109.7 1078.8,1125.3 1096.6,1140.5 1114.0,1155.2 1130.9,1169.1 1147.2,1182.3 1162.7,1194.7 1177.5,1206.1 1191.4,1216.5 1204.4,1225.8 1216.4,1234.0 1227.3,1241.0 1237.1,1246.8 1245.7,1251.2 1253.1,1254.4 1259.3,1256.2 1264.3,1256.7 1268.0,1255.8 1270.3,1253.6 1271.5,1249.9 1271.3,1245.0 1269.8,1238.7 1267.1,1231.1 1263.2,1222.2 1258.0,1212.1 1251.7,1200.8 1244.3,1188.3 1235.8,1174.8 1226.2,1160.3 1215.7,1144.8 1204.3,1128.5 1192.1,1111.5 1179.2,1093.8 1165.7,1075.5 1151.6,1056.8 1137.0,1037.8 1122.2,1018.5 1107.1,999.2  " style="stroke-opacity: 1.000000; stroke-width: 5.0; stroke: rgb(107,174,214); fill: none"  />
<path d="M 1107.1,999.2 L 1122.2,1018.7 1137.0,1038.1 1151.4,1057.4 1165.2,1076.6 1178.5,1095.3 1191.0,1113.7 1202.6,1131.5 1213.4,1148.7 1223.1,1165.2 1231.8,1180.9 1239.3,1195.8 1245.7,1209.7 1250.8,1222.6 1254.7,1234.5 1257.2,1245.3 1258.4,1255.0 1258.2,1263.5 1256.6,1270.8 1253.7,1276.9 1249.3,1281.8 1243.6,1285.5 1236.5,1287.9 1228.1,1289.1 1218.3,1289.1 1207.3,1287.9 1195.0,1285.5 1181.6,1281.9 1167.0,1277.2 1151.4,1271.5 1134.8,1264.7 1117.2,1257.0 1098.9,1248.4 1079.8,1238.9 1060.1,1228.7 1039.9,1217.8 1019.2,1206.3 998.3,1194.3 977.3,1181.9 956.2,1169.2  " style="stroke-opacity: 1.000000; stroke-width: 5.0; stroke: rgb(107,174,214); fill: none"  />
<path d="M 1107.1,999.2 L 1122.2,1018.5 1137.0,1037.8 1151.6,1056.8 1165.7,1075.5 1179.2,1093.8 1192.1,1111.5 1204.3,1128.5 1215.7,1144.8 1226.2,1160.3 1235.8,1174.8 1244.3,1188.3 1251.7,1200.8 1258.0,1212.1 1263.2,1222.2 1267.1,1231.1 1269.8,1238.7 1271.3,1245.0 1271.5,1249.9 1270.3,1253.6 1268.0,1255.8 1264.3,1256.7 1259.3,1256.2 1253.1,1254.4 1245.7,1251.2 1237.1,1246.8 1227.3,1241.0 1216.4,1234.0 1204.4,1225.8 1191.4,1216.5 1177.5,1206.1 1162.7,1194.7 1147.2,1182.3 1130.9,1169.1 1114.0,1155.2 1096.6,1140.5 1078.8,1125.3 1060.6,1109.7 1042.4,1093.7 1024.0,1077.4  " style="stroke-opacity: 1.000000; stroke-width: 5.0; stroke: rgb(107,174,214); fill: none"  />
<path d="M 1646.5,880.6 L 1640.9,904.4 1635.1,928.0 1629.3,951.3 1623.4,973.9 1617.6,995.9 1611.8,1017.1 1606.1,1037.2 1600.4,1056.3 1594.9,1074.1 1589.5,1090.6 1584.2,1105.7 1579.2,1119.3 1574.3,1131.3 1569.6,1141.6 1565.1,1150.3 1560.8,1157.1 1556.8,1162.2 1553.0,1165.4 1549.5,1166.8 1546.2,1166.3 1543.2,1164.0 1540.5,1159.8 1538.1,1153.9 1535.9,1146.1 1534.0,1136.5 1532.4,1125.3 1531.1,1112.4 1530.0,1098.0 1529.2,1082.0 1528.7,1064.6 1528.4,1046.0 1528.4,1026.1 1528.5,1005.1 1528.9,983.2 1529.5,960.5 1530.3,937.0 1531.3,913.1 1532.4,888.8 1533.6,864.4  " style="stroke-opacity: 1.000000; stroke-width: 5.0; stroke: rgb(107,174,214); fill: none"  />
<path d="M 1646.5,880.6 L 1641.0,904.4 1635.5,928.1 1630.3,951.5 1625.4,974.4 1620.7,996.7 1616.4,1018.2 1612.5,1038.8 1609.0,1058.3 1606.0,1076.8 1603.4,1093.9 1601.4,1109.8 1599.8,1124.2 1598.8,1137.1 1598.4,1148.5 1598.5,1158.2 1599.3,1166.2 1600.6,1172.5 1602.5,1177.1 1605.1,1179.9 1608.2,1181.0 1611.9,1180.3 1616.2,1177.7 1621.1,1173.5 1626.5,1167.5 1632.4,1159.8 1638.9,1150.5 1645.9,1139.6 1653.3,1127.1 1661.2,1113.2 1669.4,1097.9 1678.1,1081.4 1687.0,1063.6 1696.2,1044.8 1705.7,1025.0 1715.4,1004.4 1725.2,983.2 1735.0,961.3 1744.9,939.1 1754.8,916.7  " style="stroke-opacity: 1.000000; stroke-width: 5.0; stroke: rgb(107,174,214); fill: none"  />
<path d="M 1646.5,880.6 L 1641.0,904.7 1635.8,928.8 1631.1,952.7 1626.9,976.3 1623.2,999.3 1620.2,1021.8 1617.8,1043.5 1616.1,1064.3 1615.1,1084.2 1614.9,1103.0 1615.6,1120.7 1617.1,1137.2 1619.4,1152.3 1622.6,1166.1 1626.7,1178.5 1631.6,1189.4 1637.5,1198.8 1644.3,1206.6 1651.9,1212.9 1660.4,1217.5 1669.8,1220.6 1680.1,1222.1 1691.1,1222.0 1703.0,1220.4 1715.6,1217.2 1729.0,1212.4 1743.0,1206.3 1757.7,1198.6 1772.9,1189.7 1788.7,1179.4 1805.0,1167.9 1821.6,1155.3 1838.6,1141.6 1855.9,1126.9 1873.4,1111.5 1891.0,1095.2 1908.6,1078.4 1926.1,1061.1 1943.5,1043.4  " style="stroke-opacity: 1.000000; stroke-width: 5.0; stroke: rgb(107,174,214); fill: none"  />
<path d="M 1936.2,1963.5 L 1919.5,1945.7 1902.9,1927.8 1886.8,1910.2 1871.0,1892.8 1855.9,1875.8 1841.4,1859.4 1827.8,1843.5 1815.0,1828.3 1803.1,1813.8 1792.3,1800.2 1782.6,1787.5 1774.1,1775.8 1766.8,1765.1 1760.8,1755.5 1756.0,1747.0 1752.7,1739.6 1750.7,1733.5 1750.0,1728.6 1750.8,1724.9 1753.0,1722.4 1756.6,1721.2 1761.6,1721.2 1767.9,1722.5 1775.6,1725.0 1784.6,1728.6 1794.8,1733.5 1806.3,1739.5 1819.0,1746.6 1832.7,1754.7 1847.5,1763.8 1863.3,1773.8 1879.9,1784.8 1897.3,1796.4 1915.4,1808.8 1934.0,1821.9 1953.1,1835.4 1972.6,1849.4 1992.2,1863.7 2012.0,1878.2  " style="stroke-opacity: 1.000000; stroke-width: 5.0; stroke: rgb(107,174,214); fill: none"  />
<path d="M 1936.2,1963.5 L 1919.4,1945.7 1902.6,1928.2 1886.0,1910.9 1869.6,1894.2 1853.5,1878.1 1838.0,1862.6 1822.9,1848.0 1808.5,1834.3 1794.8,1821.6 1781.9,1810.0 1769.8,1799.6 1758.6,1790.3 1748.4,1782.4 1739.2,1775.8 1731.0,1770.6 1723.9,1766.7 1717.9,1764.4 1713.0,1763.4 1709.2,1764.0 1706.6,1766.0 1705.2,1769.5 1704.9,1774.5 1705.8,1780.9 1707.8,1788.7 1711.0,1797.9 1715.2,1808.5 1720.5,1820.3 1726.8,1833.4 1734.0,1847.6 1742.2,1862.9 1751.3,1879.2 1761.2,1896.5 1771.8,1914.5 1783.1,1933.3 1794.9,1952.8 1807.3,1972.6 1820.1,1992.9 1833.2,2013.4 1846.4,2034.0  " style="stroke-opacity: 1.000000; stroke-width: 5.0; stroke: rgb(107,174,214); fill: none"  />
<path d="M 1754.8,916.7 L 1744.8,939.2 1734.7,961.5 1724.5,983.3 1714.3,1004.6 1704.0,1025.1 1693.7,1044.8 1683.6,1063.5 1673.5,1081.1 1663.6,1097.5 1653.9,1112.6 1644.4,1126.3 1635.2,1138.5 1626.2,1149.1 1617.5,1158.1 1609.2,1165.5 1601.3,1171.1 1593.7,1175.0 1586.5,1177.1 1579.7,1177.4 1573.3,1175.9 1567.4,1172.6 1561.9,1167.5 1556.8,1160.6 1552.2,1152.0 1548.1,1141.7 1544.4,1129.8 1541.2,1116.2 1538.4,1101.2 1536.0,1084.7 1534.1,1066.9 1532.6,1047.8 1531.5,1027.5 1530.8,1006.2 1530.5,984.0 1530.5,961.1 1530.8,937.5 1531.5,913.4 1532.4,888.9 1533.6,864.4  " style="stroke-opacity: 1.000000; stroke-width: 5.0; stroke: rgb(107,174,214); fill: none"  />
<path d="M 1754.8,916.7 L 1744.9,939.1 1735.0,961.3 1725.2,983.2 1715.4,1004.4 1705.7,1025.0 1696.2,1044.8 1687.0,1063.6 1678.1,1081.4 1669.4,1097.9 1661.2,1113.2 1653.3,1127.1 1645.9,1139.6 1638.9,1150.5 1632.4,1159.8 1626.5,1167.5 1621.1,1173.5 1616.2,1177.7 1611.9,1180.3 1608.2,1181.0 1605.1,1179.9 1602.5,1177.1 1600.6,1172.5 1599.3,1166.2 1598.5,1158.2 1598.4,1148.5 1598.8,1137.1 1599.8,1124.2 1601.4,1109.8 1603.4,1093.9 1606.0,1076.8 1609.0,1058.3 1612.5,1038.8 1616.4,1018.2 1620.7,996.7 1625.4,974.4 1630.3,951.5 1635.5,928.1 1641.0,904.4 1646.5,880.6  " style="stroke-opacity: 1.000000; stroke-width: 5.0; stroke: rgb(107,174,214); fill: none"  />
<path d="M 1754.8,916.7 L 1745.0,939.3 1735.6,961.8 1726.5,984.2 1717.9,1006.1 1709.8,1027.6 1702.3,1048.5 1695.5,1068.7 1689.4,1088.1 1684.1,1106.5 1679.6,1123.9 1676.1,1140.1 1673.4,1155.2 1671.7,1169.0 1670.9,1181.5 1671.2,1192.6 1672.5,1202.2 1674.8,1210.4 1678.1,1217.1 1682.5,1222.3 1688.0,1225.9 1694.4,1228.1 1701.9,1228.6 1710.4,1227.7 1719.8,1225.2 1730.2,1221.2 1741.4,1215.8 1753.6,1209.0 1766.5,1200.9 1780.2,1191.4 1794.6,1180.7 1809.6,1168.8 1825.2,1155.8 1841.3,1141.9 1857.8,1127.1 1874.7,1111.4 1891.8,1095.1 1909.0,1078.3 1926.3,1061.0 1943.5,1043.4  " style="stroke-opacity: 1.000000; stroke-width: 5.0; stroke: rgb(107,174,214); fill: none"  />
<path d="M 1846.4,2034.0 L 1833.2,2013.4 1820.1,1992.9 1807.3,1972.6 1794.9,1952.8 1783.1,1933.3 1771.8,1914.5 1761.2,1896.5 1751.3,1879.2 1742.2,1862.9 1734.0,1847.6 1726.8,1833.4 1720.5,1820.3 1715.2,1808.5 1711.0,1797.9 1707.8,1788.7 1705.8,1780.9 1704.9,1774.5 1705.2,1769.5 1706.6,1766.0 1709.2,1764.0 1713.0,1763.4 1717.9,1764.4 1723.9,1766.7 1731.0,1770.6 1739.2,1775.8 1748.4,1782.4 1758.6,1790.3 1769.8,1799.6 1781.9,1810.0 1794.8,1821.6 1808.5,1834.3 1822.9,1848.0 1838.0,1862.6 1853.5,1878.1 1869.6,1894.2 1886.0,1910.9 1902.6,1928.2 1919.4,1945.7 1936.2,1963.5  " style="stroke-opacity: 1.000000; stroke-width: 5.0; stroke: rgb(107,174,214); fill: none"  />
<path d="M 1846.4,2034.0 L 1832.9,2013.4 1819.4,1993.1 1805.7,1973.2 1792.1,1953.9 1778.6,1935.3 1765.3,1917.6 1752.2,1900.7 1739.4,1885.0 1727.0,1870.4 1715.0,1857.1 1703.4,1845.2 1692.3,1834.7 1681.7,1825.6 1671.7,1818.1 1662.3,1812.2 1653.5,1808.0 1645.4,1805.4 1637.9,1804.5 1631.2,1805.3 1625.2,1807.9 1619.8,1812.1 1615.3,1818.0 1611.4,1825.6 1608.3,1834.8 1605.8,1845.7 1604.1,1858.0 1603.1,1871.9 1602.8,1887.2 1603.2,1903.9 1604.2,1921.8 1605.8,1940.9 1608.1,1961.0 1610.8,1982.1 1614.1,2004.1 1617.9,2026.8 1622.1,2050.0 1626.6,2073.7 1631.5,2097.6 1636.7,2121.6  " style="stroke-opacity: 1.000000; stroke-width: 5.0; stroke: rgb(107,174,214); fill: none"  />
<path d="M 1846.4,2034.0 L 1832.8,2013.3 1819.0,1992.9 1805.0,1973.0 1790.9,1953.6 1776.7,1935.1 1762.6,1917.3 1748.6,1900.6 1734.7,1885.0 1721.0,1870.5 1707.5,1857.4 1694.3,1845.6 1681.3,1835.3 1668.8,1826.5 1656.6,1819.3 1644.9,1813.7 1633.5,1809.8 1622.7,1807.5 1612.4,1807.0 1602.6,1808.2 1593.3,1811.2 1584.6,1815.8 1576.4,1822.2 1568.8,1830.2 1561.8,1840.0 1555.4,1851.3 1549.6,1864.2 1544.4,1878.6 1539.8,1894.5 1535.7,1911.7 1532.2,1930.2 1529.3,1949.9 1526.9,1970.7 1525.0,1992.5 1523.7,2015.1 1522.8,2038.4 1522.4,2062.3 1522.4,2086.7 1522.8,2111.3 1523.5,2136.1  " style="stroke-opacity: 1.000000; stroke-width: 5.0; stroke: rgb(107,174,214); fill: none"  />
<path d="M 1745.5,2087.2 L 1735.9,2064.6 1726.2,2042.2 1716.3,2020.2 1706.4,1998.8 1696.4,1978.1 1686.5,1958.2 1676.6,1939.3 1666.8,1921.6 1657.2,1905.0 1647.7,1889.8 1638.5,1876.0 1629.4,1863.6 1620.6,1852.8 1612.1,1843.7 1603.9,1836.2 1596.0,1830.4 1588.5,1826.5 1581.4,1824.3 1574.6,1823.9 1568.2,1825.3 1562.2,1828.5 1556.6,1833.5 1551.5,1840.3 1546.7,1848.8 1542.4,1859.0 1538.5,1870.9 1535.1,1884.4 1532.1,1899.4 1529.4,1915.8 1527.2,1933.6 1525.4,1952.7 1524.0,1972.9 1523.0,1994.2 1522.3,2016.4 1521.9,2039.3 1521.9,2063.0 1522.2,2087.1 1522.7,2111.5 1523.5,2136.1  " style="stroke-opacity: 1.000000; stroke-width: 5.0; stroke: rgb(107,174,214); fill: none"  />
<path d="M 1409.6,2130.0 L 1412.9,2105.7 1416.1,2081.5 1418.9,2057.5 1421.3,2034.0 1423.4,2011.1 1425.1,1989.0 1426.3,1967.7 1427.0,1947.5 1427.2,1928.3 1426.9,1910.4 1426.0,1893.7 1424.6,1878.5 1422.6,1864.8 1420.0,1852.5 1416.8,1841.9 1413.0,1832.9 1408.5,1825.6 1403.5,1820.1 1397.9,1816.3 1391.7,1814.2 1384.9,1813.9 1377.6,1815.3 1369.7,1818.5 1361.2,1823.4 1352.3,1829.9 1342.9,1838.1 1333.0,1847.9 1322.7,1859.3 1312.0,1872.0 1301.0,1886.2 1289.6,1901.6 1278.1,1918.3 1266.2,1936.0 1254.3,1954.7 1242.2,1974.2 1230.1,1994.5 1217.9,2015.3 1205.9,2036.6 1194.0,2058.1  " style="stroke-opacity: 1.000000; stroke-width: 5.0; stroke: rgb(107,174,214); fill: none"  />
<path d="M 1409.6,2130.0 L 1412.9,2105.5 1415.9,2081.0 1418.5,2056.8 1420.6,2033.0 1422.2,2009.7 1423.2,1987.1 1423.6,1965.2 1423.4,1944.3 1422.6,1924.4 1421.1,1905.7 1418.9,1888.1 1415.9,1871.8 1412.3,1857.0 1407.8,1843.5 1402.7,1831.6 1396.7,1821.2 1390.1,1812.3 1382.6,1805.1 1374.4,1799.6 1365.5,1795.7 1355.9,1793.5 1345.6,1792.9 1334.5,1794.0 1322.9,1796.7 1310.6,1801.0 1297.7,1806.9 1284.3,1814.3 1270.4,1823.2 1256.0,1833.5 1241.2,1845.2 1226.0,1858.1 1210.6,1872.2 1194.9,1887.3 1179.0,1903.5 1162.9,1920.5 1146.9,1938.2 1130.9,1956.5 1114.9,1975.3 1099.2,1994.5  " style="stroke-opacity: 1.000000; stroke-width: 5.0; stroke: rgb(107,174,214); fill: none"  />
<path d="M 1298.5,2103.8 L 1306.2,2080.4 1313.6,2057.1 1320.6,2034.1 1327.3,2011.4 1333.4,1989.3 1339.0,1967.8 1343.9,1947.1 1348.3,1927.3 1351.9,1908.4 1354.8,1890.7 1356.9,1874.2 1358.2,1859.0 1358.7,1845.1 1358.3,1832.6 1357.1,1821.6 1354.9,1812.0 1351.9,1804.1 1347.9,1797.7 1343.1,1792.9 1337.3,1789.8 1330.7,1788.3 1323.2,1788.4 1314.9,1790.1 1305.7,1793.4 1295.7,1798.3 1285.0,1804.7 1273.5,1812.5 1261.4,1821.8 1248.6,1832.5 1235.2,1844.5 1221.3,1857.6 1206.9,1871.9 1192.2,1887.3 1177.0,1903.5 1161.7,1920.6 1146.1,1938.4 1130.5,1956.7 1114.8,1975.4 1099.2,1994.5  " style="stroke-opacity: 1.000000; stroke-width: 5.0; stroke: rgb(107,174,214); fill: none"  />
<path d="M 1298.5,2103.8 L 1306.3,2079.7 1313.5,2055.4 1320.2,2031.2 1326.1,2007.1 1331.3,1983.2 1335.7,1959.6 1339.2,1936.5 1341.7,1913.9 1343.2,1891.9 1343.6,1870.7 1343.0,1850.2 1341.2,1830.5 1338.3,1811.8 1334.2,1794.1 1328.9,1777.3 1322.4,1761.7 1314.7,1747.2 1305.8,1733.8 1295.7,1721.6 1284.4,1710.6 1271.9,1700.9 1258.3,1692.4 1243.6,1685.1 1227.7,1679.1 1210.9,1674.3 1193.0,1670.7 1174.2,1668.3 1154.5,1667.1 1134.0,1667.1 1112.8,1668.1 1090.9,1670.3 1068.3,1673.4 1045.3,1677.6 1021.9,1682.6 998.2,1688.5 974.2,1695.2 950.2,1702.5 926.2,1710.5 902.3,1718.9  " style="stroke-opacity: 1.000000; stroke-width: 5.0; stroke: rgb(107,174,214); fill: none"  />
<path d="M 1943.5,1043.4 L 1925.9,1061.2 1908.1,1078.6 1890.1,1095.5 1871.9,1111.8 1853.8,1127.3 1835.7,1141.9 1817.7,1155.5 1799.9,1168.0 1782.4,1179.3 1765.2,1189.4 1748.3,1198.2 1731.8,1205.6 1715.8,1211.5 1700.3,1215.9 1685.4,1218.8 1671.0,1220.1 1657.3,1219.8 1644.2,1217.9 1631.7,1214.4 1620.0,1209.3 1609.0,1202.6 1598.7,1194.2 1589.1,1184.3 1580.3,1172.9 1572.3,1160.0 1565.0,1145.6 1558.5,1129.8 1552.7,1112.7 1547.7,1094.4 1543.4,1074.9 1539.8,1054.3 1536.9,1032.8 1534.6,1010.3 1533.0,987.2 1532.1,963.3 1531.7,939.0 1531.8,914.3 1532.5,889.4 1533.6,864.4  " style="stroke-opacity: 1.000000; stroke-width: 5.0; stroke: rgb(107,174,214); fill: none"  />
<path d="M 1943.5,1043.4 L 1926.1,1061.1 1908.6,1078.4 1891.0,1095.2 1873.4,1111.5 1855.9,1126.9 1838.6,1141.6 1821.6,1155.3 1805.0,1167.9 1788.7,1179.4 1772.9,1189.7 1757.7,1198.6 1743.0,1206.3 1729.0,1212.4 1715.6,1217.2 1703.0,1220.4 1691.1,1222.0 1680.1,1222.1 1669.8,1220.6 1660.4,1217.5 1651.9,1212.9 1644.3,1206.6 1637.5,1198.8 1631.6,1189.4 1626.7,1178.5 1622.6,1166.1 1619.4,1152.3 1617.1,1137.2 1615.6,1120.7 1614.9,1103.0 1615.1,1084.2 1616.1,1064.3 1617.8,1043.5 1620.2,1021.8 1623.2,999.3 1626.9,976.3 1631.1,952.7 1635.8,928.8 1641.0,904.7 1646.5,880.6  " style="stroke-opacity: 1.000000; stroke-width: 5.0; stroke: rgb(107,174,214); fill: none"  />
<path d="M 1943.5,1043.4 L 1926.3,1061.0 1909.0,1078.3 1891.8,1095.1 1874.7,1111.4 1857.8,1127.1 1841.3,1141.9 1825.2,1155.8 1809.6,1168.8 1794.6,1180.7 1780.2,1191.4 1766.5,1200.9 1753.6,1209.0 1741.4,1215.8 1730.2,1221.2 1719.8,1225.2 1710.4,1227.7 1701.9,1228.6 1694.4,1228.1 1688.0,1225.9 1682.5,1222.3 1678.1,1217.1 1674.8,1210.4 1672.5,1202.2 1671.2,1192.6 1670.9,1181.5 1671.7,1169.0 1673.4,1155.2 1676.1,1140.1 1679.6,1123.9 1684.1,1106.5 1689.4,1088.1 1695.5,1068.7 1702.3,1048.5 1709.8,1027.6 1717.9,1006.1 1726.5,984.2 1735.6,961.8 1745.0,939.3 1754.8,916.7  " style="stroke-opacity: 1.000000; stroke-width: 5.0; stroke: rgb(107,174,214); fill: none"  />
<path d="M 1194.0,2058.1 L 1205.9,2036.6 1217.9,2015.3 1230.1,1994.5 1242.2,1974.2 1254.3,1954.7 1266.2,1936.0 1278.1,1918.3 1289.6,1901.6 1301.0,1886.2 1312.0,1872.0 1322.7,1859.3 1333.0,1847.9 1342.9,1838.1 1352.3,1829.9 1361.2,1823.4 1369.7,1818.5 1377.6,1815.3 1384.9,1813.9 1391.7,1814.2 1397.9,1816.3 1403.5,1820.1 1408.5,1825.6 1413.0,1832.9 1416.8,1841.9 1420.0,1852.5 1422.6,1864.8 1424.6,1878.5 1426.0,1893.7 1426.9,1910.4 1427.2,1928.3 1427.0,1947.5 1426.3,1967.7 1425.1,1989.0 1423.4,2011.1 1421.3,2034.0 1418.9,2057.5 1416.1,2081.5 1412.9,2105.7 1409.6,2130.0  " style="stroke-opacity: 1.000000; stroke-width: 5.0; stroke: rgb(107,174,214); fill: none"  />
<path d="M 1194.0,2058.1 L 1205.7,2036.6 1217.2,2015.2 1228.4,1994.1 1239.3,1973.3 1249.7,1953.1 1259.6,1933.5 1268.8,1914.7 1277.4,1896.7 1285.2,1879.8 1292.3,1863.9 1298.5,1849.2 1303.8,1835.7 1308.2,1823.5 1311.6,1812.7 1314.1,1803.3 1315.5,1795.3 1315.9,1788.9 1315.3,1784.0 1313.6,1780.6 1310.8,1778.7 1307.1,1778.5 1302.3,1779.7 1296.4,1782.5 1289.6,1786.9 1281.8,1792.7 1273.1,1800.0 1263.5,1808.6 1253.0,1818.7 1241.7,1830.0 1229.7,1842.5 1217.0,1856.2 1203.6,1870.9 1189.7,1886.6 1175.3,1903.1 1160.5,1920.4 1145.4,1938.3 1130.1,1956.7 1114.7,1975.5 1099.2,1994.5  " style="stroke-opacity: 1.000000; stroke-width: 5.0; stroke: rgb(107,174,214); fill: none"  />
<path d="M 1099.2,1994.5 L 1114.9,1975.3 1130.9,1956.5 1146.9,1938.2 1162.9,1920.5 1179.0,1903.5 1194.9,1887.3 1210.6,1872.2 1226.0,1858.1 1241.2,1845.2 1256.0,1833.5 1270.4,1823.2 1284.3,1814.3 1297.7,1806.9 1310.6,1801.0 1322.9,1796.7 1334.5,1794.0 1345.6,1792.9 1355.9,1793.5 1365.5,1795.7 1374.4,1799.6 1382.6,1805.1 1390.1,1812.3 1396.7,1821.2 1402.7,1831.6 1407.8,1843.5 1412.3,1857.0 1415.9,1871.8 1418.9,1888.1 1421.1,1905.7 1422.6,1924.4 1423.4,1944.3 1423.6,1965.2 1423.2,1987.1 1422.2,2009.7 1420.6,2033.0 1418.5,2056.8 1415.9,2081.0 1412.9,2105.5 1409.6,2130.0  " style="stroke-opacity: 1.000000; stroke-width: 5.0; stroke: rgb(107,174,214); fill: none"  />
<path d="M 1099.2,1994.5 L 1114.8,1975.4 1130.5,1956.7 1146.1,1938.4 1161.7,1920.6 1177.0,1903.5 1192.2,1887.3 1206.9,1871.9 1221.3,1857.6 1235.2,1844.5 1248.6,1832.5 1261.4,1821.8 1273.5,1812.5 1285.0,1804.7 1295.7,1798.3 1305.7,1793.4 1314.9,1790.1 1323.2,1788.4 1330.7,1788.3 1337.3,1789.8 1343.1,1792.9 1347.9,1797.7 1351.9,1804.1 1354.9,1812.0 1357.1,1821.6 1358.3,1832.6 1358.7,1845.1 1358.2,1859.0 1356.9,1874.2 1354.8,1890.7 1351.9,1908.4 1348.3,1927.3 1343.9,1947.1 1339.0,1967.8 1333.4,1989.3 1327.3,2011.4 1320.6,2034.1 1313.6,2057.1 1306.2,2080.4 1298.5,2103.8  " style="stroke-opacity: 1.000000; stroke-width: 5.0; stroke: rgb(107,174,214); fill: none"  />
<path d="M 1099.2,1994.5 L 1114.7,1975.5 1130.1,1956.7 1145.4,1938.3 1160.5,1920.4 1175.3,1903.1 1189.7,1886.6 1203.6,1870.9 1217.0,1856.2 1229.7,1842.5 1241.7,1830.0 1253.0,1818.7 1263.5,1808.6 1273.1,1800.0 1281.8,1792.7 1289.6,1786.9 1296.4,1782.5 1302.3,1779.7 1307.1,1778.5 1310.8,1778.7 1313.6,1780.6 1315.3,1784.0 1315.9,1788.9 1315.5,1795.3 1314.1,1803.3 1311.6,1812.7 1308.2,1823.5 1303.8,1835.7 1298.5,1849.2 1292.3,1863.9 1285.2,1879.8 1277.4,1896.7 1268.8,1914.7 1259.6,1933.5 1249.7,1953.1 1239.3,1973.3 1228.4,1994.1 1217.2,2015.2 1205.7,2036.6 1194.0,2058.1  " style="stroke-opacity: 1.000000; stroke-width: 5.0; stroke: rgb(107,174,214); fill: none"  />
<path d="M 1099.2,1994.5 L 1114.7,1975.1 1129.8,1955.7 1144.4,1936.2 1158.4,1916.8 1171.8,1897.6 1184.2,1878.7 1195.8,1860.2 1206.4,1842.2 1215.9,1824.7 1224.2,1807.8 1231.3,1791.6 1237.1,1776.1 1241.6,1761.4 1244.7,1747.6 1246.4,1734.7 1246.6,1722.7 1245.4,1711.7 1242.7,1701.7 1238.6,1692.8 1232.9,1684.9 1225.8,1678.0 1217.2,1672.2 1207.2,1667.5 1195.8,1663.9 1183.0,1661.3 1168.9,1659.7 1153.6,1659.2 1137.1,1659.7 1119.5,1661.2 1100.8,1663.6 1081.2,1666.9 1060.7,1671.0 1039.4,1676.0 1017.5,1681.7 995.0,1688.1 972.1,1695.0 949.0,1702.6 925.6,1710.6 902.3,1718.9  " style="stroke-opacity: 1.000000; stroke-width: 5.0; stroke: rgb(107,174,214); fill: none"  />
<path d="M 1202.8,937.1 L 1214.2,959.1 1225.3,981.1 1235.9,1003.1 1245.9,1024.8 1255.2,1046.2 1263.8,1067.2 1271.5,1087.6 1278.4,1107.3 1284.3,1126.4 1289.2,1144.5 1293.0,1161.8 1295.7,1178.1 1297.3,1193.4 1297.6,1207.5 1296.8,1220.5 1294.7,1232.3 1291.4,1242.9 1286.8,1252.1 1281.0,1260.1 1273.9,1266.8 1265.5,1272.1 1256.0,1276.2 1245.3,1278.8 1233.4,1280.2 1220.4,1280.3 1206.3,1279.0 1191.1,1276.6 1175.0,1272.9 1158.0,1268.0 1140.1,1262.0 1121.5,1255.0 1102.2,1246.9 1082.3,1237.9 1061.9,1228.1 1041.1,1217.5 1020.0,1206.2 998.8,1194.3 977.4,1182.0 956.2,1169.2  " style="stroke-opacity: 1.000000; stroke-width: 5.0; stroke: rgb(107,174,214); fill: none"  />
<path d="M 1636.7,2121.6 L 1631.5,2097.6 1626.6,2073.7 1622.1,2050.0 1617.9,2026.8 1614.1,2004.1 1610.8,1982.1 1608.1,1961.0 1605.8,1940.9 1604.2,1921.8 1603.2,1903.9 1602.8,1887.2 1603.1,1871.9 1604.1,1858.0 1605.8,1845.7 1608.3,1834.8 1611.4,1825.6 1615.3,1818.0 1619.8,1812.1 1625.2,1807.9 1631.2,1805.3 1637.9,1804.5 1645.4,1805.4 1653.5,1808.0 1662.3,1812.2 1671.7,1818.1 1681.7,1825.6 1692.3,1834.7 1703.4,1845.2 1715.0,1857.1 1727.0,1870.4 1739.4,1885.0 1752.2,1900.7 1765.3,1917.6 1778.6,1935.3 1792.1,1953.9 1805.7,1973.2 1819.4,1993.1 1832.9,2013.4 1846.4,2034.0  " style="stroke-opacity: 1.000000; stroke-width: 5.0; stroke: rgb(107,174,214); fill: none"  />
<path d="M 1636.7,2121.6 L 1631.4,2097.7 1626.0,2074.0 1620.6,2050.7 1615.1,2027.9 1609.6,2005.9 1604.1,1984.6 1598.7,1964.4 1593.4,1945.2 1588.1,1927.3 1583.0,1910.7 1578.0,1895.5 1573.1,1881.9 1568.4,1869.8 1563.9,1859.4 1559.5,1850.7 1555.4,1843.8 1551.4,1838.7 1547.7,1835.4 1544.2,1833.9 1540.9,1834.4 1537.9,1836.6 1535.1,1840.8 1532.6,1846.7 1530.3,1854.5 1528.3,1864.0 1526.5,1875.2 1525.0,1888.0 1523.7,1902.5 1522.6,1918.4 1521.8,1935.8 1521.2,1954.4 1520.9,1974.3 1520.7,1995.3 1520.7,2017.2 1521.0,2039.9 1521.4,2063.4 1522.0,2087.3 1522.7,2111.6 1523.5,2136.1  " style="stroke-opacity: 1.000000; stroke-width: 5.0; stroke: rgb(107,174,214); fill: none"  />
<path d="M 1523.5,2136.1 L 1522.8,2111.3 1522.4,2086.7 1522.4,2062.3 1522.8,2038.4 1523.7,2015.1 1525.0,1992.5 1526.9,1970.7 1529.3,1949.9 1532.2,1930.2 1535.7,1911.7 1539.8,1894.5 1544.4,1878.6 1549.6,1864.2 1555.4,1851.3 1561.8,1840.0 1568.8,1830.2 1576.4,1822.2 1584.6,1815.8 1593.3,1811.2 1602.6,1808.2 1612.4,1807.0 1622.7,1807.5 1633.5,1809.8 1644.9,1813.7 1656.6,1819.3 1668.8,1826.5 1681.3,1835.3 1694.3,1845.6 1707.5,1857.4 1721.0,1870.5 1734.7,1885.0 1748.6,1900.6 1762.6,1917.3 1776.7,1935.1 1790.9,1953.6 1805.0,1973.0 1819.0,1992.9 1832.8,2013.3 1846.4,2034.0  " style="stroke-opacity: 1.000000; stroke-width: 5.0; stroke: rgb(107,174,214); fill: none"  />
<path d="M 1523.5,2136.1 L 1522.7,2111.5 1522.2,2087.1 1521.9,2063.0 1521.9,2039.3 1522.3,2016.4 1523.0,1994.2 1524.0,1972.9 1525.4,1952.7 1527.2,1933.6 1529.4,1915.8 1532.1,1899.4 1535.1,1884.4 1538.5,1870.9 1542.4,1859.0 1546.7,1848.8 1551.5,1840.3 1556.6,1833.5 1562.2,1828.5 1568.2,1825.3 1574.6,1823.9 1581.4,1824.3 1588.5,1826.5 1596.0,1830.4 1603.9,1836.2 1612.1,1843.7 1620.6,1852.8 1629.4,1863.6 1638.5,1876.0 1647.7,1889.8 1657.2,1905.0 1666.8,1921.6 1676.6,1939.3 1686.5,1958.2 1696.4,1978.1 1706.4,1998.8 1716.3,2020.2 1726.2,2042.2 1735.9,2064.6 1745.5,2087.2  " style="stroke-opacity: 1.000000; stroke-width: 5.0; stroke: rgb(107,174,214); fill: none"  />
<path d="M 1523.5,2136.1 L 1522.7,2111.6 1522.0,2087.3 1521.4,2063.4 1521.0,2039.9 1520.7,2017.2 1520.7,1995.3 1520.9,1974.3 1521.2,1954.4 1521.8,1935.8 1522.6,1918.4 1523.7,1902.5 1525.0,1888.0 1526.5,1875.2 1528.3,1864.0 1530.3,1854.5 1532.6,1846.7 1535.1,1840.8 1537.9,1836.6 1540.9,1834.4 1544.2,1833.9 1547.7,1835.4 1551.4,1838.7 1555.4,1843.8 1559.5,1850.7 1563.9,1859.4 1568.4,1869.8 1573.1,1881.9 1578.0,1895.5 1583.0,1910.7 1588.1,1927.3 1593.4,1945.2 1598.7,1964.4 1604.1,1984.6 1609.6,2005.9 1615.1,2027.9 1620.6,2050.7 1626.0,2074.0 1631.4,2097.7 1636.7,2121.6  " style="stroke-opacity: 1.000000; stroke-width: 5.0; stroke: rgb(107,174,214); fill: none"  />
<path d="M 951.0,1822.1 L 972.1,1809.7 993.0,1797.2 1013.5,1784.8 1033.5,1772.6 1052.8,1760.6 1071.3,1748.8 1088.9,1737.4 1105.4,1726.4 1120.8,1715.9 1135.0,1705.9 1147.9,1696.4 1159.4,1687.6 1169.4,1679.3 1177.9,1671.8 1184.8,1665.0 1190.1,1658.9 1193.8,1653.6 1195.8,1649.0 1196.1,1645.2 1194.7,1642.3 1191.6,1640.1 1186.8,1638.7 1180.3,1638.1 1172.3,1638.4 1162.6,1639.4 1151.4,1641.1 1138.7,1643.7 1124.5,1646.9 1109.1,1650.8 1092.3,1655.4 1074.4,1660.6 1055.4,1666.4 1035.4,1672.7 1014.5,1679.5 993.0,1686.8 970.8,1694.4 948.2,1702.4 925.3,1710.6 902.3,1718.9  " style="stroke-opacity: 1.000000; stroke-width: 5.0; stroke: rgb(107,174,214); fill: none"  />
<path d="M 902.3,1718.9 L 926.2,1710.5 950.2,1702.5 974.2,1695.2 998.2,1688.5 1021.9,1682.6 1045.3,1677.6 1068.3,1673.4 1090.9,1670.3 1112.8,1668.1 1134.0,1667.1 1154.5,1667.1 1174.2,1668.3 1193.0,1670.7 1210.9,1674.3 1227.7,1679.1 1243.6,1685.1 1258.3,1692.4 1271.9,1700.9 1284.4,1710.6 1295.7,1721.6 1305.8,1733.8 1314.7,1747.2 1322.4,1761.7 1328.9,1777.3 1334.2,1794.1 1338.3,1811.8 1341.2,1830.5 1343.0,1850.2 1343.6,1870.7 1343.2,1891.9 1341.7,1913.9 1339.2,1936.5 1335.7,1959.6 1331.3,1983.2 1326.1,2007.1 1320.2,2031.2 1313.5,2055.4 1306.3,2079.7 1298.5,2103.8  " style="stroke-opacity: 1.000000; stroke-width: 5.0; stroke: rgb(107,174,214); fill: none"  />
<path d="M 902.3,1718.9 L 925.6,1710.6 949.0,1702.6 972.1,1695.0 995.0,1688.1 1017.5,1681.7 1039.4,1676.0 1060.7,1671.0 1081.2,1666.9 1100.8,1663.6 1119.5,1661.2 1137.1,1659.7 1153.6,1659.2 1168.9,1659.7 1183.0,1661.3 1195.8,1663.9 1207.2,1667.5 1217.2,1672.2 1225.8,1678.0 1232.9,1684.9 1238.6,1692.8 1242.7,1701.7 1245.4,1711.7 1246.6,1722.7 1246.4,1734.7 1244.7,1747.6 1241.6,1761.4 1237.1,1776.1 1231.3,1791.6 1224.2,1807.8 1215.9,1824.7 1206.4,1842.2 1195.8,1860.2 1184.2,1878.7 1171.8,1897.6 1158.4,1916.8 1144.4,1936.2 1129.8,1955.7 1114.7,1975.1 1099.2,1994.5  " style="stroke-opacity: 1.000000; stroke-width: 5.0; stroke: rgb(107,174,214); fill: none"  />
<path d="M 902.3,1718.9 L 925.3,1710.6 948.2,1702.4 970.8,1694.4 993.0,1686.8 1014.5,1679.5 1035.4,1672.7 1055.4,1666.4 1074.4,1660.6 1092.3,1655.4 1109.1,1650.8 1124.5,1646.9 1138.7,1643.7 1151.4,1641.1 1162.6,1639.4 1172.3,1638.4 1180.3,1638.1 1186.8,1638.7 1191.6,1640.1 1194.7,1642.3 1196.1,1645.2 1195.8,1649.0 1193.8,1653.6 1190.1,1658.9 1184.8,1665.0 1177.9,1671.8 1169.4,1679.3 1159.4,1687.6 1147.9,1696.4 1135.0,1705.9 1120.8,1715.9 1105.4,1726.4 1088.9,1737.4 1071.3,1748.8 1052.8,1760.6 1033.5,1772.6 1013.5,1784.8 993.0,1797.2 972.1,1809.7 951.0,1822.1  " style="stroke-opacity: 1.000000; stroke-width: 5.0; stroke: rgb(107,174,214); fill: none"  />
</g>
<defs>
<pattern id="hline-sparse" width="10" height="10" patternTransform="rotate(0 0 0)" patternUnits="userSpaceOnUse"><line x1="0" y1="0" x2="10" y2="0" style="stroke:black;stroke-width:2" /></pattern>
<pattern id="vline" width="10" height="10" patternTransform="rotate(0 0 0)" patternUnits="userSpaceOnUse"><line x1="0" y1="0" x2="0" y2="10" style="stroke:black;stroke-width:5" /></pattern>
<pattern id="hline" width="10" height="10" patternTransform="rotate(0 0 0)" patternUnits="userSpaceOnUse"><line x1="0" y1="0" x2="10" y2="0" style="stroke:black;stroke-width:5" /></pattern>
<pattern id="vline-sparse" width="10" height="10" patternTransform="rotate(0 0 0)" patternUnits="userSpaceOnUse"><line x1="0" y1="0" x2="0" y2="10" style="stroke:black;stroke-width:2" /></pattern>
<pattern id="checker" width="10" height="10" patternTransform="rotate(45 0 0)" patternUnits="userSpaceOnUse"><line x1="0" y1="0" x2="10" y2="0" style="stroke:black;stroke-width:5" /><line x1="0" y1="0" x2="0" y2="10" style="stroke:black;stroke-width:4" /></pattern>
<pattern id="checker" width="10" height="10" patternTransform="rotate(45 0 0)" patternUnits="userSpaceOnUse"><line x1="0" y1="0" x2="10" y2="0" style="stroke:black;stroke-width:2" /><line x1="0" y1="0" x2="0" y2="10" style="stroke:black;stroke-width:2" /></pattern>
</defs>
</svg>
