<?xml version="1.0" encoding="utf-8" standalone="no"?>
<!DOCTYPE svg PUBLIC "-//W3C//DTD SVG 1.1//EN" "http://www.w3.org/Graphics/SVG/1.1/DTD/svg11.dtd">
<svg width="3000px" height="3000px" version="1.1" xmlns="http://www.w3.org/2000/svg" xmlns:xlink="http://www.w3.org/1999/xlink">
<g id="bg">
<rect x="0" y="0" width="3000px" height="3000px" style="fill:rgb(255,255,255);"/>
</g>
<g id="ideograms">
<path d="M1500.000,535.000 A965.000,965.000 40.000 0,1 1601.714,540.376 L1618.579,381.267 A1125.000,1125.000 0.000 0,0 1500.000,375.000 Z" style="stroke-width:2.0;stroke:rgb(115,115,115);stroke-linecap:round;fill:rgb(153,204,255);" />
<text x="1635.1" y="307.6" font-size="195.0px" font-family="CMUBright-Bold" style="text-anchor:start;fill:rgb(0,0,0);" transform="rotate(273.0,1635.1,307.6)" >5</text>
<path d="M1500.000,535.000 A965.000,965.000 40.000 0,1 1601.714,540.376 L1618.579,381.267 A1125.000,1125.000 0.000 0,0 1500.000,375.000 Z" style="stroke-width:2.0;stroke:rgb(115,115,115);stroke-linecap:round;fill:none;" />
<path d="M1672.307,550.508 A965.000,965.000 40.000 0,1 1771.427,573.959 L1816.431,420.418 A1125.000,1125.000 0.000 0,0 1700.877,393.079 Z" style="stroke-width:2.0;stroke:rgb(115,115,115);stroke-linecap:round;fill:rgb(153,204,255);" />
<text x="1847.7" y="351.5" font-size="195.0px" font-family="CMUBright-Bold" style="text-anchor:start;fill:rgb(0,0,0);" transform="rotate(283.3,1847.7,351.5)" >8</text>
<path d="M1672.307,550.508 A965.000,965.000 40.000 0,1 1771.427,573.959 L1816.431,420.418 A1125.000,1125.000 0.000 0,0 1700.877,393.079 Z" style="stroke-width:2.0;stroke:rgb(115,115,115);stroke-linecap:round;fill:none;" />
<path d="M1839.077,596.533 A965.000,965.000 40.000 0,1 1932.417,637.306 L2004.113,494.269 A1125.000,1125.000 0.000 0,0 1895.297,446.736 Z" style="stroke-width:2.0;stroke:rgb(115,115,115);stroke-linecap:round;fill:rgb(153,204,255);" />
<text x="2047.2" y="432.0" font-size="195.0px" font-family="CMUBright-Bold" style="text-anchor:start;fill:rgb(0,0,0);" transform="rotate(293.6,2047.2,432.0)" >10</text>
<path d="M1839.077,596.533 A965.000,965.000 40.000 0,1 1932.417,637.306 L2004.113,494.269 A1125.000,1125.000 0.000 0,0 1895.297,446.736 Z" style="stroke-width:2.0;stroke:rgb(115,115,115);stroke-linecap:round;fill:none;" />
<path d="M1994.948,671.597 A965.000,965.000 40.000 0,1 2079.507,728.381 L2175.592,600.444 A1125.000,1125.000 0.000 0,0 2077.012,534.245 Z" style="stroke-width:2.0;stroke:rgb(115,115,115);stroke-linecap:round;fill:rgb(153,204,255);" />
<text x="2229.1" y="546.9" font-size="195.0px" font-family="CMUBright-Bold" style="text-anchor:start;fill:rgb(0,0,0);" transform="rotate(303.9,2229.1,546.9)" >18</text>
<path d="M1994.948,671.597 A965.000,965.000 40.000 0,1 2079.507,728.381 L2175.592,600.444 A1125.000,1125.000 0.000 0,0 2077.012,534.245 Z" style="stroke-width:2.0;stroke:rgb(115,115,115);stroke-linecap:round;fill:none;" />
<path d="M2134.911,773.286 A965.000,965.000 40.000 0,1 2207.972,844.256 L2325.356,735.532 A1125.000,1125.000 0.000 0,0 2240.181,652.795 Z" style="stroke-width:2.0;stroke:rgb(115,115,115);stroke-linecap:round;fill:rgb(153,204,255);" />
<text x="2387.6" y="692.4" font-size="195.0px" font-family="CMUBright-Bold" style="text-anchor:start;fill:rgb(0,0,0);" transform="rotate(314.2,2387.6,692.4)" >19</text>
<path d="M2134.911,773.286 A965.000,965.000 40.000 0,1 2207.972,844.256 L2325.356,735.532 A1125.000,1125.000 0.000 0,0 2240.181,652.795 Z" style="stroke-width:2.0;stroke:rgb(115,115,115);stroke-linecap:round;fill:none;" />
<path d="M2254.467,898.332 A965.000,965.000 40.000 0,1 2313.683,981.207 L2448.594,895.190 A1125.000,1125.000 0.000 0,0 2379.560,798.574 Z" style="stroke-width:2.0;stroke:rgb(115,115,115);stroke-linecap:round;fill:rgb(153,204,255);" />
<text x="2517.5" y="863.9" font-size="195.0px" font-family="CMUBright-Bold" style="text-anchor:start;fill:rgb(0,0,0);" transform="rotate(324.5,2517.5,863.9)" >35</text>
<path d="M2254.467,898.332 A965.000,965.000 40.000 0,1 2313.683,981.207 L2448.594,895.190 A1125.000,1125.000 0.000 0,0 2379.560,798.574 Z" style="stroke-width:2.0;stroke:rgb(115,115,115);stroke-linecap:round;fill:none;" />
<path d="M2349.775,1042.717 A965.000,965.000 40.000 0,1 2393.240,1134.833 L2541.342,1074.288 A1125.000,1125.000 0.000 0,0 2490.670,966.898 Z" style="stroke-width:2.0;stroke:rgb(115,115,115);stroke-linecap:round;fill:rgb(116,196,118);" />
<text x="2614.0" y="1053.9" font-size="195.0px" font-family="CMUBright-Bold" style="text-anchor:start;fill:rgb(0,0,0);" transform="rotate(334.7,2614.0,1053.9)" >2</text>
<path d="M2349.775,1042.717 A965.000,965.000 40.000 0,1 2393.240,1134.833 L2541.342,1074.288 A1125.000,1125.000 0.000 0,0 2490.670,966.898 Z" style="stroke-width:2.0;stroke:rgb(115,115,115);stroke-linecap:round;fill:none;" />
<path d="M2417.770,1201.799 A965.000,965.000 40.000 0,1 2444.089,1300.196 L2600.621,1267.068 A1125.000,1125.000 0.000 0,0 2569.939,1152.356 Z" style="stroke-width:2.0;stroke:rgb(115,115,115);stroke-linecap:round;fill:rgb(116,196,118);" />
<text x="2676.2" y="1262.0" font-size="195.0px" font-family="CMUBright-Bold" style="text-anchor:start;fill:rgb(0,0,0);" transform="rotate(345.0,2676.2,1262.0)" >3</text>
<path d="M2417.770,1201.799 A965.000,965.000 40.000 0,1 2444.089,1300.196 L2600.621,1267.068 A1125.000,1125.000 0.000 0,0 2569.939,1152.356 Z" style="stroke-width:2.0;stroke:rgb(115,115,115);stroke-linecap:round;fill:none;" />
<path d="M2456.267,1370.465 A965.000,965.000 40.000 0,1 2464.593,1471.980 L2624.526,1467.335 A1125.000,1125.000 0.000 0,0 2614.818,1348.988 Z" style="stroke-width:2.0;stroke:rgb(115,115,115);stroke-linecap:round;fill:rgb(116,196,118);" />
<text x="2699.7" y="1473.8" font-size="195.0px" font-family="CMUBright-Bold" style="text-anchor:start;fill:rgb(0,0,0);" transform="rotate(355.3,2699.7,1473.8)" >11</text>
<path d="M2456.267,1370.465 A965.000,965.000 40.000 0,1 2464.593,1471.980 L2624.526,1467.335 A1125.000,1125.000 0.000 0,0 2614.818,1348.988 Z" style="stroke-width:2.0;stroke:rgb(115,115,115);stroke-linecap:round;fill:none;" />
<path d="M2464.028,1543.295 A965.000,965.000 40.000 0,1 2454.095,1644.665 L2612.287,1668.651 A1125.000,1125.000 0.000 0,0 2623.867,1550.473 Z" style="stroke-width:2.0;stroke:rgb(115,115,115);stroke-linecap:round;fill:rgb(116,196,118);" />
<text x="2685.1" y="1688.4" font-size="195.0px" font-family="CMUBright-Bold" style="text-anchor:start;fill:rgb(0,0,0);" transform="rotate(5.6,2685.1,1688.4)" >14</text>
<path d="M2464.028,1543.295 A965.000,965.000 40.000 0,1 2454.095,1644.665 L2612.287,1668.651 A1125.000,1125.000 0.000 0,0 2623.867,1550.473 Z" style="stroke-width:2.0;stroke:rgb(115,115,115);stroke-linecap:round;fill:none;" />
<path d="M2440.805,1714.733 A965.000,965.000 40.000 0,1 2412.931,1812.701 L2564.298,1864.548 A1125.000,1125.000 0.000 0,0 2596.794,1750.336 Z" style="stroke-width:2.0;stroke:rgb(115,115,115);stroke-linecap:round;fill:rgb(116,196,118);" />
<text x="2631.8" y="1898.9" font-size="195.0px" font-family="CMUBright-Bold" style="text-anchor:start;fill:rgb(0,0,0);" transform="rotate(15.9,2631.8,1898.9)" >23</text>
<path d="M2440.805,1714.733 A965.000,965.000 40.000 0,1 2412.931,1812.701 L2564.298,1864.548 A1125.000,1125.000 0.000 0,0 2596.794,1750.336 Z" style="stroke-width:2.0;stroke:rgb(115,115,115);stroke-linecap:round;fill:none;" />
<path d="M2387.344,1879.269 A965.000,965.000 40.000 0,1 2342.425,1970.686 L2482.102,2048.727 A1125.000,1125.000 0.000 0,0 2534.469,1942.153 Z" style="stroke-width:2.0;stroke:rgb(115,115,115);stroke-linecap:round;fill:rgb(116,196,118);" />
<text x="2542.3" y="2094.6" font-size="195.0px" font-family="CMUBright-Bold" style="text-anchor:start;fill:rgb(0,0,0);" transform="rotate(26.2,2542.3,2094.6)" >30</text>
<path d="M2387.344,1879.269 A965.000,965.000 40.000 0,1 2342.425,1970.686 L2482.102,2048.727 A1125.000,1125.000 0.000 0,0 2534.469,1942.153 Z" style="stroke-width:2.0;stroke:rgb(115,115,115);stroke-linecap:round;fill:none;" />
<path d="M2305.363,2031.616 A965.000,965.000 40.000 0,1 2244.843,2113.542 L2368.340,2215.270 A1125.000,1125.000 0.000 0,0 2438.895,2119.759 Z" style="stroke-width:2.0;stroke:rgb(115,115,115);stroke-linecap:round;fill:rgb(153,0,204);" />
<text x="2420.7" y="2269.6" font-size="195.0px" font-family="CMUBright-Bold" style="text-anchor:start;fill:rgb(0,0,0);" transform="rotate(36.5,2420.7,2269.6)" >1</text>
<path d="M2305.363,2031.616 A965.000,965.000 40.000 0,1 2244.843,2113.542 L2368.340,2215.270 A1125.000,1125.000 0.000 0,0 2438.895,2119.759 Z" style="stroke-width:2.0;stroke:rgb(115,115,115);stroke-linecap:round;fill:none;" />
<path d="M2197.497,2166.875 A965.000,965.000 40.000 0,1 2123.321,2236.679 L2226.669,2358.823 A1125.000,1125.000 0.000 0,0 2313.144,2277.445 Z" style="stroke-width:2.0;stroke:rgb(115,115,115);stroke-linecap:round;fill:rgb(153,0,204);" />
<text x="2267.0" y="2422.9" font-size="195.0px" font-family="CMUBright-Bold" style="text-anchor:start;fill:rgb(0,0,0);" transform="rotate(46.7,2267.0,2422.9)" >9</text>
<path d="M2197.497,2166.875 A965.000,965.000 40.000 0,1 2123.321,2236.679 L2226.669,2358.823 A1125.000,1125.000 0.000 0,0 2313.144,2277.445 Z" style="stroke-width:2.0;stroke:rgb(115,115,115);stroke-linecap:round;fill:none;" />
<path d="M2067.213,2280.701 A965.000,965.000 40.000 0,1 1981.764,2336.139 L2061.642,2474.773 A1125.000,1125.000 0.000 0,0 2161.258,2410.144 Z" style="stroke-width:2.0;stroke:rgb(115,115,115);stroke-linecap:round;fill:rgb(153,0,204);" />
<text x="2091.6" y="2544.0" font-size="195.0px" font-family="CMUBright-Bold" style="text-anchor:start;fill:rgb(0,0,0);" transform="rotate(57.0,2091.6,2544.0)" >12</text>
<path d="M2067.213,2280.701 A965.000,965.000 40.000 0,1 1981.764,2336.139 L2061.642,2474.773 A1125.000,1125.000 0.000 0,0 2161.258,2410.144 Z" style="stroke-width:2.0;stroke:rgb(115,115,115);stroke-linecap:round;fill:none;" />
<path d="M1918.698,2369.435 A965.000,965.000 40.000 0,1 1824.724,2408.724 L1878.564,2559.393 A1125.000,1125.000 0.000 0,0 1988.119,2513.590 Z" style="stroke-width:2.0;stroke:rgb(115,115,115);stroke-linecap:round;fill:rgb(153,0,204);" />
<text x="1893.8" y="2633.6" font-size="195.0px" font-family="CMUBright-Bold" style="text-anchor:start;fill:rgb(0,0,0);" transform="rotate(67.3,1893.8,2633.6)" >13</text>
<path d="M1918.698,2369.435 A965.000,965.000 40.000 0,1 1824.724,2408.724 L1878.564,2559.393 A1125.000,1125.000 0.000 0,0 1988.119,2513.590 Z" style="stroke-width:2.0;stroke:rgb(115,115,115);stroke-linecap:round;fill:none;" />
<path d="M1756.726,2430.224 A965.000,965.000 40.000 0,1 1657.246,2452.102 L1683.318,2609.964 A1125.000,1125.000 0.000 0,0 1799.291,2584.458 Z" style="stroke-width:2.0;stroke:rgb(115,115,115);stroke-linecap:round;fill:rgb(153,0,204);" />
<text x="1685.0" y="2685.6" font-size="195.0px" font-family="CMUBright-Bold" style="text-anchor:start;fill:rgb(0,0,0);" transform="rotate(77.6,1685.0,2685.6)" >25</text>
<path d="M1756.726,2430.224 A965.000,965.000 40.000 0,1 1657.246,2452.102 L1683.318,2609.964 A1125.000,1125.000 0.000 0,0 1799.291,2584.458 Z" style="stroke-width:2.0;stroke:rgb(115,115,115);stroke-linecap:round;fill:none;" />
<path d="M1586.502,2461.115 A965.000,965.000 40.000 0,1 1484.715,2464.879 L1482.181,2624.859 A1125.000,1125.000 0.000 0,0 1600.844,2620.471 Z" style="stroke-width:2.0;stroke:rgb(115,115,115);stroke-linecap:round;fill:rgb(153,0,204);" />
<text x="1470.4" y="2699.6" font-size="195.0px" font-family="CMUBright-Bold" style="text-anchor:start;fill:rgb(0,0,0);" transform="rotate(87.9,1470.4,2699.6)" >28</text>
<path d="M1586.502,2461.115 A965.000,965.000 40.000 0,1 1484.715,2464.879 L1482.181,2624.859 A1125.000,1125.000 0.000 0,0 1600.844,2620.471 Z" style="stroke-width:2.0;stroke:rgb(115,115,115);stroke-linecap:round;fill:none;" />
<path d="M1413.498,2461.115 A965.000,965.000 40.000 0,1 1312.675,2446.644 L1281.616,2603.600 A1125.000,1125.000 0.000 0,0 1399.156,2620.471 Z" style="stroke-width:2.0;stroke:rgb(115,115,115);stroke-linecap:round;fill:rgb(253,208,162);" />
<text x="1403.0" y="2696.1" font-size="195.0px" font-family="CMUBright-Bold" style="text-anchor:end;fill:rgb(0,0,0);" transform="rotate(-81.8,1403.0,2696.1)" >16</text>
<path d="M1413.498,2461.115 A965.000,965.000 40.000 0,1 1312.675,2446.644 L1281.616,2603.600 A1125.000,1125.000 0.000 0,0 1399.156,2620.471 Z" style="stroke-width:2.0;stroke:rgb(115,115,115);stroke-linecap:round;fill:none;" />
<path d="M1243.274,2430.224 A965.000,965.000 40.000 0,1 1146.656,2397.983 L1088.070,2546.871 A1125.000,1125.000 0.000 0,0 1200.709,2584.458 Z" style="stroke-width:2.0;stroke:rgb(115,115,115);stroke-linecap:round;fill:rgb(253,208,162);" />
<text x="1190.1" y="2659.3" font-size="195.0px" font-family="CMUBright-Bold" style="text-anchor:end;fill:rgb(0,0,0);" transform="rotate(-71.5,1190.1,2659.3)" >17</text>
<path d="M1243.274,2430.224 A965.000,965.000 40.000 0,1 1146.656,2397.983 L1088.070,2546.871 A1125.000,1125.000 0.000 0,0 1200.709,2584.458 Z" style="stroke-width:2.0;stroke:rgb(115,115,115);stroke-linecap:round;fill:none;" />
<path d="M1081.302,2369.435 A965.000,965.000 40.000 0,1 991.993,2320.460 L907.764,2456.494 A1125.000,1125.000 0.000 0,0 1011.881,2513.590 Z" style="stroke-width:2.0;stroke:rgb(115,115,115);stroke-linecap:round;fill:rgb(253,208,162);" />
<text x="988.9" y="2585.7" font-size="195.0px" font-family="CMUBright-Bold" style="text-anchor:end;fill:rgb(0,0,0);" transform="rotate(-61.3,988.9,2585.7)" >20</text>
<path d="M1081.302,2369.435 A965.000,965.000 40.000 0,1 991.993,2320.460 L907.764,2456.494 A1125.000,1125.000 0.000 0,0 1011.881,2513.590 Z" style="stroke-width:2.0;stroke:rgb(115,115,115);stroke-linecap:round;fill:none;" />
<path d="M932.787,2280.701 A965.000,965.000 40.000 0,1 853.658,2216.566 L746.493,2335.375 A1125.000,1125.000 0.000 0,0 838.742,2410.144 Z" style="stroke-width:2.0;stroke:rgb(115,115,115);stroke-linecap:round;fill:rgb(253,208,162);" />
<text x="801.7" y="2475.9" font-size="195.0px" font-family="CMUBright-Bold" style="text-anchor:end;fill:rgb(0,0,0);" transform="rotate(-51.0,801.7,2475.9)" >21</text>
<path d="M932.787,2280.701 A965.000,965.000 40.000 0,1 853.658,2216.566 L746.493,2335.375 A1125.000,1125.000 0.000 0,0 838.742,2410.144 Z" style="stroke-width:2.0;stroke:rgb(115,115,115);stroke-linecap:round;fill:none;" />
<path d="M802.503,2166.875 A965.000,965.000 40.000 0,1 736.097,2089.642 L609.440,2187.406 A1125.000,1125.000 0.000 0,0 686.856,2277.445 Z" style="stroke-width:2.0;stroke:rgb(115,115,115);stroke-linecap:round;fill:rgb(253,208,162);" />
<text x="639.3" y="2336.2" font-size="195.0px" font-family="CMUBright-Bold" style="text-anchor:end;fill:rgb(0,0,0);" transform="rotate(-40.7,639.3,2336.2)" >27</text>
<path d="M802.503,2166.875 A965.000,965.000 40.000 0,1 736.097,2089.642 L609.440,2187.406 A1125.000,1125.000 0.000 0,0 686.856,2277.445 Z" style="stroke-width:2.0;stroke:rgb(115,115,115);stroke-linecap:round;fill:none;" />
<path d="M694.637,2031.616 A965.000,965.000 40.000 0,1 643.089,1943.766 L501.010,2017.344 A1125.000,1125.000 0.000 0,0 561.105,2119.759 Z" style="stroke-width:2.0;stroke:rgb(115,115,115);stroke-linecap:round;fill:rgb(253,208,162);" />
<text x="504.4" y="2169.9" font-size="195.0px" font-family="CMUBright-Bold" style="text-anchor:end;fill:rgb(0,0,0);" transform="rotate(-30.4,504.4,2169.9)" >29</text>
<path d="M694.637,2031.616 A965.000,965.000 40.000 0,1 643.089,1943.766 L501.010,2017.344 A1125.000,1125.000 0.000 0,0 561.105,2119.759 Z" style="stroke-width:2.0;stroke:rgb(115,115,115);stroke-linecap:round;fill:none;" />
<path d="M612.656,1879.269 A965.000,965.000 40.000 0,1 577.622,1783.627 L424.689,1830.653 A1125.000,1125.000 0.000 0,0 465.531,1942.153 Z" style="stroke-width:2.0;stroke:rgb(115,115,115);stroke-linecap:round;fill:rgb(253,208,162);" />
<text x="400.8" y="1981.4" font-size="195.0px" font-family="CMUBright-Bold" style="text-anchor:end;fill:rgb(0,0,0);" transform="rotate(-20.1,400.8,1981.4)" >34</text>
<path d="M612.656,1879.269 A965.000,965.000 40.000 0,1 577.622,1783.627 L424.689,1830.653 A1125.000,1125.000 0.000 0,0 465.531,1942.153 Z" style="stroke-width:2.0;stroke:rgb(115,115,115);stroke-linecap:round;fill:none;" />
<path d="M559.195,1714.733 A965.000,965.000 40.000 0,1 541.802,1614.372 L382.929,1633.336 A1125.000,1125.000 0.000 0,0 403.206,1750.336 Z" style="stroke-width:2.0;stroke:rgb(115,115,115);stroke-linecap:round;fill:rgb(253,141,60);" />
<text x="332.5" y="1777.4" font-size="195.0px" font-family="CMUBright-Bold" style="text-anchor:end;fill:rgb(0,0,0);" transform="rotate(-9.8,332.5,1777.4)" >15</text>
<path d="M559.195,1714.733 A965.000,965.000 40.000 0,1 541.802,1614.372 L382.929,1633.336 A1125.000,1125.000 0.000 0,0 403.206,1750.336 Z" style="stroke-width:2.0;stroke:rgb(115,115,115);stroke-linecap:round;fill:none;" />
<path d="M535.972,1543.295 A965.000,965.000 40.000 0,1 536.778,1441.441 L377.073,1431.732 A1125.000,1125.000 0.000 0,0 376.133,1550.473 Z" style="stroke-width:2.0;stroke:rgb(115,115,115);stroke-linecap:round;fill:rgb(253,141,60);" />
<text x="301.7" y="1564.5" font-size="195.0px" font-family="CMUBright-Bold" style="text-anchor:end;fill:rgb(0,0,0);" transform="rotate(0.5,301.7,1564.5)" >31</text>
<path d="M535.972,1543.295 A965.000,965.000 40.000 0,1 536.778,1441.441 L377.073,1431.732 A1125.000,1125.000 0.000 0,0 376.133,1550.473 Z" style="stroke-width:2.0;stroke:rgb(115,115,115);stroke-linecap:round;fill:none;" />
<path d="M543.733,1370.465 A965.000,965.000 40.000 0,1 562.714,1270.393 L407.309,1232.323 A1125.000,1125.000 0.000 0,0 385.182,1348.988 Z" style="stroke-width:2.0;stroke:rgb(115,115,115);stroke-linecap:round;fill:rgb(253,141,60);" />
<text x="309.5" y="1349.5" font-size="195.0px" font-family="CMUBright-Bold" style="text-anchor:end;fill:rgb(0,0,0);" transform="rotate(10.7,309.5,1349.5)" >32</text>
<path d="M543.733,1370.465 A965.000,965.000 40.000 0,1 562.714,1270.393 L407.309,1232.323 A1125.000,1125.000 0.000 0,0 385.182,1348.988 Z" style="stroke-width:2.0;stroke:rgb(115,115,115);stroke-linecap:round;fill:none;" />
<path d="M582.230,1201.799 A965.000,965.000 40.000 0,1 618.774,1106.724 L472.664,1041.517 A1125.000,1125.000 0.000 0,0 430.061,1152.356 Z" style="stroke-width:2.0;stroke:rgb(115,115,115);stroke-linecap:round;fill:rgb(253,141,60);" />
<text x="355.5" y="1139.3" font-size="195.0px" font-family="CMUBright-Bold" style="text-anchor:end;fill:rgb(0,0,0);" transform="rotate(21.0,355.5,1139.3)" >33</text>
<path d="M582.230,1201.799 A965.000,965.000 40.000 0,1 618.774,1106.724 L472.664,1041.517 A1125.000,1125.000 0.000 0,0 430.061,1152.356 Z" style="stroke-width:2.0;stroke:rgb(115,115,115);stroke-linecap:round;fill:none;" />
<path d="M650.225,1042.717 A965.000,965.000 40.000 0,1 703.158,955.695 L571.039,865.447 A1125.000,1125.000 0.000 0,0 509.330,966.898 Z" style="stroke-width:2.0;stroke:rgb(115,115,115);stroke-linecap:round;fill:rgb(66,146,198);" />
<text x="440.2" y="937.2" font-size="195.0px" font-family="CMUBright-Bold" style="text-anchor:end;fill:rgb(0,0,0);" transform="rotate(31.3,440.2,937.2)" >4</text>
<path d="M650.225,1042.717 A965.000,965.000 40.000 0,1 703.158,955.695 L571.039,865.447 A1125.000,1125.000 0.000 0,0 509.330,966.898 Z" style="stroke-width:2.0;stroke:rgb(115,115,115);stroke-linecap:round;fill:none;" />
<path d="M745.533,898.332 A965.000,965.000 40.000 0,1 813.153,822.160 L699.272,709.772 A1125.000,1125.000 0.000 0,0 620.440,798.574 Z" style="stroke-width:2.0;stroke:rgb(115,115,115);stroke-linecap:round;fill:rgb(66,146,198);" />
<text x="555.2" y="760.2" font-size="195.0px" font-family="CMUBright-Bold" style="text-anchor:end;fill:rgb(0,0,0);" transform="rotate(41.6,555.2,760.2)" >6</text>
<path d="M745.533,898.332 A965.000,965.000 40.000 0,1 813.153,822.160 L699.272,709.772 A1125.000,1125.000 0.000 0,0 620.440,798.574 Z" style="stroke-width:2.0;stroke:rgb(115,115,115);stroke-linecap:round;fill:none;" />
<path d="M865.089,773.286 A965.000,965.000 40.000 0,1 945.224,710.412 L853.241,579.496 A1125.000,1125.000 0.000 0,0 759.819,652.795 Z" style="stroke-width:2.0;stroke:rgb(115,115,115);stroke-linecap:round;fill:rgb(66,146,198);" />
<text x="704.7" y="601.4" font-size="195.0px" font-family="CMUBright-Bold" style="text-anchor:end;fill:rgb(0,0,0);" transform="rotate(51.9,704.7,601.4)" >7</text>
<path d="M865.089,773.286 A965.000,965.000 40.000 0,1 945.224,710.412 L853.241,579.496 A1125.000,1125.000 0.000 0,0 759.819,652.795 Z" style="stroke-width:2.0;stroke:rgb(115,115,115);stroke-linecap:round;fill:none;" />
<path d="M1005.052,671.597 A965.000,965.000 40.000 0,1 1095.126,624.042 L1027.997,478.806 A1125.000,1125.000 0.000 0,0 922.988,534.245 Z" style="stroke-width:2.0;stroke:rgb(115,115,115);stroke-linecap:round;fill:rgb(66,146,198);" />
<text x="877.1" y="474.3" font-size="195.0px" font-family="CMUBright-Bold" style="text-anchor:end;fill:rgb(0,0,0);" transform="rotate(62.2,877.1,474.3)" >22</text>
<path d="M1005.052,671.597 A965.000,965.000 40.000 0,1 1095.126,624.042 L1027.997,478.806 A1125.000,1125.000 0.000 0,0 922.988,534.245 Z" style="stroke-width:2.0;stroke:rgb(115,115,115);stroke-linecap:round;fill:none;" />
<path d="M1160.923,596.533 A965.000,965.000 40.000 0,1 1258.041,565.826 L1217.923,410.937 A1125.000,1125.000 0.000 0,0 1104.703,446.736 Z" style="stroke-width:2.0;stroke:rgb(115,115,115);stroke-linecap:round;fill:rgb(66,146,198);" />
<text x="1070.3" y="379.6" font-size="195.0px" font-family="CMUBright-Bold" style="text-anchor:end;fill:rgb(0,0,0);" transform="rotate(72.5,1070.3,379.6)" >24</text>
<path d="M1160.923,596.533 A965.000,965.000 40.000 0,1 1258.041,565.826 L1217.923,410.937 A1125.000,1125.000 0.000 0,0 1104.703,446.736 Z" style="stroke-width:2.0;stroke:rgb(115,115,115);stroke-linecap:round;fill:none;" />
<path d="M1327.693,550.508 A965.000,965.000 40.000 0,1 1428.732,537.635 L1416.916,378.072 A1125.000,1125.000 0.000 0,0 1299.123,393.079 Z" style="stroke-width:2.0;stroke:rgb(115,115,115);stroke-linecap:round;fill:rgb(66,146,198);" />
<text x="1275.3" y="321.2" font-size="195.0px" font-family="CMUBright-Bold" style="text-anchor:end;fill:rgb(0,0,0);" transform="rotate(82.7,1275.3,321.2)" >26</text>
<path d="M1327.693,550.508 A965.000,965.000 40.000 0,1 1428.732,537.635 L1416.916,378.072 A1125.000,1125.000 0.000 0,0 1299.123,393.079 Z" style="stroke-width:2.0;stroke:rgb(115,115,115);stroke-linecap:round;fill:none;" />
</g>
<g id="track_1">
<path d="M 2237.4,2044.7 L 2199.9,2017.1 2162.4,1989.5 2124.7,1962.0 2086.9,1934.4 2049.1,1907.0 2011.1,1879.5 1973.0,1852.2 1934.8,1824.8 1896.5,1797.6 1858.2,1770.4 1819.7,1743.3 1781.1,1716.2 1742.5,1689.3 1703.7,1662.4 1664.9,1635.6 1626.0,1608.9 1587.0,1582.2 1547.9,1555.7 1508.8,1529.3 1469.6,1502.9 1430.3,1476.7 1391.0,1450.6 1351.6,1424.6 1312.1,1398.7 1272.6,1372.9 1233.1,1347.2 1193.5,1321.6 1153.8,1296.1 1114.2,1270.8 1074.5,1245.6 1034.8,1220.4 995.0,1195.4 955.3,1170.5 915.5,1145.8 875.8,1121.1 836.0,1096.6 796.2,1072.1 756.5,1047.8 716.8,1023.6  " style="stroke-opacity: 1.000000; stroke-width: 5.0; stroke: rgb(251,106,74); fill: none"  />
<path d="M 2237.4,2044.7 L 2205.6,2020.7 2174.1,1995.6 2143.0,1969.7 2112.5,1942.8 2082.7,1915.1 2053.7,1886.4 2025.6,1856.9 1998.5,1826.5 1972.4,1795.3 1947.5,1763.3 1923.8,1730.5 1901.4,1696.9 1880.4,1662.7 1860.8,1627.8 1842.7,1592.2 1826.1,1556.0 1811.0,1519.2 1797.5,1481.9 1785.7,1444.1 1775.4,1405.8 1766.8,1367.1 1759.9,1328.1 1754.6,1288.7 1750.9,1249.0 1748.8,1209.2 1748.4,1169.1 1749.5,1129.0 1752.1,1088.7 1756.3,1048.5 1761.9,1008.3 1768.9,968.3 1777.3,928.4 1786.9,888.8 1797.7,849.4 1809.7,810.5 1822.7,772.0 1836.6,734.0 1851.4,696.6 1867.0,659.9  " style="stroke-opacity: 1.000000; stroke-width: 5.0; stroke: rgb(251,106,74); fill: none"  />
<path d="M 2237.4,2044.7 L 2206.9,2022.7 2175.7,2001.4 2144.0,1981.0 2111.9,1961.5 2079.4,1943.2 2046.6,1926.2 2013.7,1910.6 1980.6,1896.5 1947.6,1884.0 1914.5,1873.1 1881.7,1864.1 1849.0,1856.9 1816.5,1851.7 1784.4,1848.4 1752.7,1847.2 1721.4,1848.0 1690.6,1850.9 1660.4,1855.8 1630.7,1862.9 1601.7,1872.1 1573.4,1883.3 1545.8,1896.7 1518.9,1912.0 1492.8,1929.3 1467.6,1948.6 1443.2,1969.7 1419.7,1992.7 1397.1,2017.3 1375.3,2043.6 1354.5,2071.5 1334.7,2100.7 1315.7,2131.3 1297.8,2163.0 1280.7,2195.7 1264.7,2229.4 1249.6,2263.8 1235.4,2298.7 1222.1,2334.1 1209.8,2369.6  " style="stroke-opacity: 1.000000; stroke-width: 5.0; stroke: rgb(251,106,74); fill: none"  />
<path d="M 2237.4,2044.7 L 2201.7,2018.1 2166.0,1990.9 2130.3,1963.3 2094.8,1935.1 2059.3,1906.5 2024.0,1877.3 1988.9,1847.6 1953.9,1817.4 1919.3,1786.7 1884.8,1755.6 1850.7,1723.9 1816.8,1691.7 1783.3,1659.1 1750.1,1625.9 1717.3,1592.4 1684.9,1558.3 1652.8,1523.8 1621.2,1488.9 1590.1,1453.6 1559.4,1417.9 1529.1,1381.8 1499.3,1345.3 1470.1,1308.5 1441.3,1271.3 1413.0,1233.9 1385.2,1196.1 1358.0,1158.0 1331.2,1119.7 1305.0,1081.2 1279.3,1042.5 1254.2,1003.6 1229.6,964.5 1205.5,925.4 1182.0,886.1 1158.9,846.7 1136.4,807.4 1114.4,768.0 1093.0,728.6 1072.0,689.3  " style="stroke-opacity: 1.000000; stroke-width: 5.0; stroke: rgb(251,106,74); fill: none"  />
<path d="M 2237.4,2044.7 L 2203.6,2020.3 2169.1,1996.3 2133.8,1972.8 2097.8,1949.8 2061.1,1927.6 2023.7,1906.1 1985.7,1885.4 1947.1,1865.5 1907.9,1846.6 1868.1,1828.6 1827.8,1811.7 1787.0,1795.9 1745.8,1781.1 1704.2,1767.5 1662.2,1755.1 1619.8,1743.8 1577.1,1733.8 1534.1,1725.1 1490.9,1717.6 1447.5,1711.3 1403.9,1706.4 1360.3,1702.7 1316.5,1700.3 1272.7,1699.2 1228.8,1699.3 1185.0,1700.6 1141.3,1703.2 1097.7,1706.9 1054.3,1711.8 1011.1,1717.9 968.2,1725.0 925.5,1733.2 883.2,1742.4 841.3,1752.5 799.8,1763.5 758.8,1775.4 718.3,1788.0 678.4,1801.4 639.2,1815.3  " style="stroke-opacity: 1.000000; stroke-width: 5.0; stroke: rgb(251,106,74); fill: none"  />
<path d="M 716.8,1023.6 L 756.5,1047.8 796.2,1072.1 836.0,1096.6 875.8,1121.1 915.5,1145.8 955.3,1170.5 995.0,1195.4 1034.8,1220.4 1074.5,1245.6 1114.2,1270.8 1153.8,1296.1 1193.5,1321.6 1233.1,1347.2 1272.6,1372.9 1312.1,1398.7 1351.6,1424.6 1391.0,1450.6 1430.3,1476.7 1469.6,1502.9 1508.8,1529.3 1547.9,1555.7 1587.0,1582.2 1626.0,1608.9 1664.9,1635.6 1703.7,1662.4 1742.5,1689.3 1781.1,1716.2 1819.7,1743.3 1858.2,1770.4 1896.5,1797.6 1934.8,1824.8 1973.0,1852.2 2011.1,1879.5 2049.1,1907.0 2086.9,1934.4 2124.7,1962.0 2162.4,1989.5 2199.9,2017.1 2237.4,2044.7  " style="stroke-opacity: 1.000000; stroke-width: 5.0; stroke: rgb(251,106,74); fill: none"  />
<path d="M 716.8,1023.6 L 748.6,1042.5 780.9,1060.6 813.5,1077.9 846.4,1094.1 879.3,1109.1 912.2,1122.9 945.0,1135.2 977.6,1146.0 1009.8,1155.1 1041.6,1162.6 1072.9,1168.2 1103.6,1172.0 1133.7,1173.8 1162.9,1173.7 1191.4,1171.6 1219.0,1167.4 1245.7,1161.1 1271.4,1152.8 1296.1,1142.4 1319.7,1129.9 1342.2,1115.4 1363.6,1098.9 1383.8,1080.4 1402.8,1059.9 1420.7,1037.6 1437.3,1013.5 1452.7,987.7 1466.9,960.2 1479.9,931.2 1491.7,900.7 1502.3,868.9 1511.8,835.9 1520.1,801.9 1527.3,767.0 1533.5,731.3 1538.6,695.0 1542.8,658.4 1546.0,621.5 1548.4,584.5  " style="stroke-opacity: 1.000000; stroke-width: 5.0; stroke: rgb(251,106,74); fill: none"  />
<path d="M 1548.4,584.5 L 1546.0,621.5 1542.8,658.4 1538.6,695.0 1533.5,731.3 1527.3,767.0 1520.1,801.9 1511.8,835.9 1502.3,868.9 1491.7,900.7 1479.9,931.2 1466.9,960.2 1452.7,987.7 1437.3,1013.5 1420.7,1037.6 1402.8,1059.9 1383.8,1080.4 1363.6,1098.9 1342.2,1115.4 1319.7,1129.9 1296.1,1142.4 1271.4,1152.8 1245.7,1161.1 1219.0,1167.4 1191.4,1171.6 1162.9,1173.7 1133.7,1173.8 1103.6,1172.0 1072.9,1168.2 1041.6,1162.6 1009.8,1155.1 977.6,1146.0 945.0,1135.2 912.2,1122.9 879.3,1109.1 846.4,1094.1 813.5,1077.9 780.9,1060.6 748.6,1042.5 716.8,1023.6  " style="stroke-opacity: 1.000000; stroke-width: 5.0; stroke: rgb(251,106,74); fill: none"  />
<path d="M 1548.4,584.5 L 1546.1,620.9 1543.0,657.2 1539.2,693.2 1534.4,728.7 1528.8,763.4 1522.2,797.3 1514.6,830.1 1506.1,861.7 1496.5,892.0 1485.9,920.7 1474.2,947.9 1461.5,973.3 1447.7,996.8 1432.9,1018.4 1417.0,1038.1 1400.0,1055.6 1382.0,1071.0 1363.0,1084.2 1343.1,1095.2 1322.1,1104.0 1300.3,1110.5 1277.5,1114.7 1253.9,1116.7 1229.5,1116.4 1204.4,1114.0 1178.6,1109.3 1152.1,1102.6 1125.1,1093.8 1097.6,1083.1 1069.7,1070.4 1041.4,1056.0 1012.9,1039.9 984.3,1022.2 955.5,1003.1 926.8,982.7 898.3,961.2 869.9,938.6 841.9,915.3 814.4,891.4  " style="stroke-opacity: 1.000000; stroke-width: 5.0; stroke: rgb(251,106,74); fill: none"  />
<path d="M 1548.4,584.5 L 1546.2,629.0 1544.5,673.8 1543.2,718.9 1542.3,764.3 1541.9,809.9 1541.9,855.7 1542.5,901.6 1543.6,947.8 1545.2,994.1 1547.4,1040.5 1550.1,1087.0 1553.5,1133.6 1557.3,1180.2 1561.8,1226.9 1566.9,1273.6 1572.5,1320.2 1578.8,1366.9 1585.6,1413.5 1593.1,1460.0 1601.1,1506.4 1609.7,1552.7 1619.0,1598.9 1628.8,1644.9 1639.2,1690.7 1650.1,1736.4 1661.6,1781.8 1673.6,1827.1 1686.2,1872.0 1699.3,1916.8 1712.8,1961.2 1726.9,2005.3 1741.4,2049.2 1756.3,2092.7 1771.7,2135.8 1787.4,2178.6 1803.5,2221.0 1819.9,2263.0 1836.6,2304.6 1853.6,2345.8  " style="stroke-opacity: 1.000000; stroke-width: 5.0; stroke: rgb(251,106,74); fill: none"  />
<path d="M 1548.4,584.5 L 1546.0,631.0 1543.6,677.5 1541.4,724.1 1539.2,770.8 1537.2,817.6 1535.2,864.4 1533.3,911.2 1531.6,958.2 1529.9,1005.1 1528.4,1052.1 1526.9,1099.2 1525.6,1146.3 1524.4,1193.4 1523.3,1240.5 1522.3,1287.7 1521.4,1334.9 1520.7,1382.1 1520.1,1429.3 1519.6,1476.5 1519.2,1523.8 1519.0,1571.0 1518.8,1618.2 1518.8,1665.4 1518.9,1712.6 1519.2,1759.8 1519.5,1807.0 1520.0,1854.1 1520.6,1901.2 1521.3,1948.3 1522.1,1995.3 1523.0,2042.3 1524.0,2089.2 1525.1,2136.1 1526.4,2182.9 1527.7,2229.7 1529.1,2276.4 1530.6,2323.1 1532.2,2369.6 1533.9,2416.1  " style="stroke-opacity: 1.000000; stroke-width: 5.0; stroke: rgb(251,106,74); fill: none"  />
<path d="M 814.4,891.4 L 841.9,915.3 869.9,938.6 898.3,961.2 926.8,982.7 955.5,1003.1 984.3,1022.2 1012.9,1039.9 1041.4,1056.0 1069.7,1070.4 1097.6,1083.1 1125.1,1093.8 1152.1,1102.6 1178.6,1109.3 1204.4,1114.0 1229.5,1116.4 1253.9,1116.7 1277.5,1114.7 1300.3,1110.5 1322.1,1104.0 1343.1,1095.2 1363.0,1084.2 1382.0,1071.0 1400.0,1055.6 1417.0,1038.1 1432.9,1018.4 1447.7,996.8 1461.5,973.3 1474.2,947.9 1485.9,920.7 1496.5,892.0 1506.1,861.7 1514.6,830.1 1522.2,797.3 1528.8,763.4 1534.4,728.7 1539.2,693.2 1543.0,657.2 1546.1,620.9 1548.4,584.5  " style="stroke-opacity: 1.000000; stroke-width: 5.0; stroke: rgb(251,106,74); fill: none"  />
<path d="M 934.1,778.8 L 962.8,815.4 991.5,852.1 1020.1,889.0 1048.7,925.9 1077.3,963.0 1105.8,1000.1 1134.3,1037.4 1162.7,1074.8 1191.0,1112.3 1219.3,1149.8 1247.5,1187.5 1275.7,1225.3 1303.8,1263.1 1331.8,1301.1 1359.7,1339.1 1387.5,1377.2 1415.3,1415.4 1442.9,1453.7 1470.5,1492.1 1497.9,1530.5 1525.3,1569.0 1552.5,1607.6 1579.7,1646.2 1606.7,1684.9 1633.7,1723.6 1660.5,1762.4 1687.2,1801.2 1713.8,1840.1 1740.3,1879.0 1766.7,1917.9 1793.0,1956.9 1819.1,1995.9 1845.1,2034.9 1871.1,2073.9 1896.9,2113.0 1922.6,2152.0 1948.1,2191.0 1973.6,2230.1 1999.0,2269.1  " style="stroke-opacity: 1.000000; stroke-width: 5.0; stroke: rgb(251,106,74); fill: none"  />
<path d="M 2128.3,2167.6 L 2100.7,2137.7 2073.4,2106.8 2046.8,2075.1 2020.7,2042.6 1995.3,2009.3 1970.7,1975.3 1947.0,1940.5 1924.3,1905.0 1902.6,1868.8 1882.0,1832.0 1862.5,1794.5 1844.3,1756.5 1827.3,1718.0 1811.6,1678.9 1797.3,1639.3 1784.4,1599.4 1772.9,1559.0 1762.8,1518.3 1754.2,1477.2 1747.0,1435.9 1741.3,1394.4 1737.1,1352.6 1734.4,1310.7 1733.1,1268.7 1733.3,1226.7 1734.9,1184.6 1737.9,1142.6 1742.3,1100.7 1748.0,1058.9 1755.0,1017.2 1763.3,975.9 1772.7,934.8 1783.4,894.0 1795.0,853.7 1807.7,813.8 1821.3,774.4 1835.8,735.6 1851.1,697.4 1867.0,659.9  " style="stroke-opacity: 1.000000; stroke-width: 5.0; stroke: rgb(251,106,74); fill: none"  />
<path d="M 2128.3,2167.6 L 2102.6,2141.0 2076.3,2114.9 2049.4,2089.6 2022.1,2065.2 1994.4,2041.9 1966.3,2019.9 1937.9,1999.3 1909.4,1980.3 1880.8,1962.9 1852.1,1947.2 1823.4,1933.5 1794.8,1921.7 1766.4,1911.9 1738.1,1904.2 1710.1,1898.7 1682.3,1895.4 1655.0,1894.3 1628.0,1895.5 1601.4,1898.9 1575.3,1904.7 1549.8,1912.7 1524.8,1922.9 1500.4,1935.4 1476.6,1950.0 1453.5,1966.8 1431.0,1985.6 1409.3,2006.5 1388.3,2029.2 1368.0,2053.7 1348.6,2079.9 1329.9,2107.7 1312.0,2137.0 1294.9,2167.6 1278.6,2199.3 1263.2,2232.1 1248.6,2265.7 1234.8,2299.9 1221.9,2334.6 1209.8,2369.6  " style="stroke-opacity: 1.000000; stroke-width: 5.0; stroke: rgb(251,106,74); fill: none"  />
<path d="M 2128.3,2167.6 L 2101.3,2138.3 2074.7,2108.0 2048.8,2077.0 2023.6,2045.1 1999.3,2012.4 1975.8,1979.0 1953.4,1945.0 1932.2,1910.2 1912.1,1874.9 1893.3,1838.9 1875.8,1802.4 1859.8,1765.5 1845.2,1728.0 1832.2,1690.1 1820.7,1651.9 1810.8,1613.3 1802.6,1574.4 1796.0,1535.3 1791.1,1496.0 1787.8,1456.5 1786.3,1416.9 1786.4,1377.2 1788.2,1337.5 1791.7,1297.9 1796.8,1258.3 1803.5,1218.8 1811.7,1179.5 1821.5,1140.4 1832.8,1101.5 1845.5,1063.0 1859.5,1024.8 1874.9,987.1 1891.4,949.8 1909.1,913.1 1927.8,876.9 1947.5,841.3 1968.0,806.4 1989.2,772.3 2011.1,738.9  " style="stroke-opacity: 1.000000; stroke-width: 5.0; stroke: rgb(251,106,74); fill: none"  />
<path d="M 2128.3,2167.6 L 2100.0,2138.2 2070.9,2109.2 2040.9,2080.6 2010.0,2052.6 1978.3,2025.3 1945.8,1998.7 1912.5,1972.9 1878.5,1948.1 1843.7,1924.2 1808.2,1901.4 1772.0,1879.7 1735.1,1859.2 1697.7,1839.9 1659.6,1821.9 1621.0,1805.2 1581.9,1789.9 1542.3,1775.9 1502.3,1763.4 1461.9,1752.3 1421.0,1742.7 1379.9,1734.5 1338.5,1727.7 1296.9,1722.4 1255.0,1718.6 1213.0,1716.3 1170.9,1715.3 1128.8,1715.8 1086.7,1717.6 1044.6,1720.8 1002.7,1725.2 960.9,1731.0 919.3,1737.9 878.0,1746.1 837.0,1755.3 796.4,1765.5 756.3,1776.7 716.6,1788.8 677.6,1801.7 639.2,1815.3  " style="stroke-opacity: 1.000000; stroke-width: 5.0; stroke: rgb(251,106,74); fill: none"  />
<path d="M 1867.0,659.9 L 1851.4,696.6 1836.6,734.0 1822.7,772.0 1809.7,810.5 1797.7,849.4 1786.9,888.8 1777.3,928.4 1768.9,968.3 1761.9,1008.3 1756.3,1048.5 1752.1,1088.7 1749.5,1129.0 1748.4,1169.1 1748.8,1209.2 1750.9,1249.0 1754.6,1288.7 1759.9,1328.1 1766.8,1367.1 1775.4,1405.8 1785.7,1444.1 1797.5,1481.9 1811.0,1519.2 1826.1,1556.0 1842.7,1592.2 1860.8,1627.8 1880.4,1662.7 1901.4,1696.9 1923.8,1730.5 1947.5,1763.3 1972.4,1795.3 1998.5,1826.5 2025.6,1856.9 2053.7,1886.4 2082.7,1915.1 2112.5,1942.8 2143.0,1969.7 2174.1,1995.6 2205.6,2020.7 2237.4,2044.7  " style="stroke-opacity: 1.000000; stroke-width: 5.0; stroke: rgb(251,106,74); fill: none"  />
<path d="M 1867.0,659.9 L 1851.1,697.4 1835.8,735.6 1821.3,774.4 1807.7,813.8 1795.0,853.7 1783.4,894.0 1772.7,934.8 1763.3,975.9 1755.0,1017.2 1748.0,1058.9 1742.3,1100.7 1737.9,1142.6 1734.9,1184.6 1733.3,1226.7 1733.1,1268.7 1734.4,1310.7 1737.1,1352.6 1741.3,1394.4 1747.0,1435.9 1754.2,1477.2 1762.8,1518.3 1772.9,1559.0 1784.4,1599.4 1797.3,1639.3 1811.6,1678.9 1827.3,1718.0 1844.3,1756.5 1862.5,1794.5 1882.0,1832.0 1902.6,1868.8 1924.3,1905.0 1947.0,1940.5 1970.7,1975.3 1995.3,2009.3 2020.7,2042.6 2046.8,2075.1 2073.4,2106.8 2100.7,2137.7 2128.3,2167.6  " style="stroke-opacity: 1.000000; stroke-width: 5.0; stroke: rgb(251,106,74); fill: none"  />
<path d="M 1867.0,659.9 L 1852.5,692.5 1837.6,724.7 1822.4,756.3 1806.9,787.1 1791.1,816.8 1775.2,845.3 1759.2,872.4 1743.2,897.9 1727.0,921.6 1711.0,943.4 1694.9,963.2 1679.0,980.9 1663.2,996.4 1647.6,1009.5 1632.2,1020.2 1617.1,1028.4 1602.2,1034.2 1587.6,1037.3 1573.4,1037.9 1559.5,1035.9 1546.0,1031.4 1533.0,1024.2 1520.3,1014.5 1508.1,1002.4 1496.3,987.8 1485.0,970.8 1474.2,951.5 1463.9,930.1 1454.1,906.6 1444.8,881.1 1436.0,853.8 1427.8,824.8 1420.0,794.3 1412.8,762.5 1406.0,729.6 1399.8,695.7 1394.1,661.1 1388.9,626.0 1384.1,590.6  " style="stroke-opacity: 1.000000; stroke-width: 5.0; stroke: rgb(251,106,74); fill: none"  />
<path d="M 1867.0,659.9 L 1849.3,700.8 1831.9,742.1 1814.9,783.9 1798.1,826.0 1781.7,868.6 1765.7,911.5 1750.0,954.7 1734.9,998.3 1720.1,1042.2 1705.8,1086.5 1692.1,1131.0 1678.8,1175.7 1666.0,1220.8 1653.8,1266.0 1642.2,1311.5 1631.1,1357.2 1620.5,1403.0 1610.6,1449.1 1601.2,1495.2 1592.4,1541.5 1584.2,1587.9 1576.6,1634.4 1569.7,1680.9 1563.3,1727.5 1557.5,1774.1 1552.3,1820.6 1547.6,1867.2 1543.6,1913.7 1540.1,1960.2 1537.2,2006.6 1534.8,2052.8 1533.0,2099.0 1531.7,2144.9 1530.9,2190.7 1530.6,2236.3 1530.8,2281.7 1531.4,2326.8 1532.4,2371.6 1533.9,2416.1  " style="stroke-opacity: 1.000000; stroke-width: 5.0; stroke: rgb(251,106,74); fill: none"  />
<path d="M 1999.0,2269.1 L 1973.6,2230.1 1948.1,2191.0 1922.6,2152.0 1896.9,2113.0 1871.1,2073.9 1845.1,2034.9 1819.1,1995.9 1793.0,1956.9 1766.7,1917.9 1740.3,1879.0 1713.8,1840.1 1687.2,1801.2 1660.5,1762.4 1633.7,1723.6 1606.7,1684.9 1579.7,1646.2 1552.5,1607.6 1525.3,1569.0 1497.9,1530.5 1470.5,1492.1 1442.9,1453.7 1415.3,1415.4 1387.5,1377.2 1359.7,1339.1 1331.8,1301.1 1303.8,1263.1 1275.7,1225.3 1247.5,1187.5 1219.3,1149.8 1191.0,1112.3 1162.7,1074.8 1134.3,1037.4 1105.8,1000.1 1077.3,963.0 1048.7,925.9 1020.1,889.0 991.5,852.1 962.8,815.4 934.1,778.8  " style="stroke-opacity: 1.000000; stroke-width: 5.0; stroke: rgb(251,106,74); fill: none"  />
<path d="M 1999.0,2269.1 L 1978.5,2238.3 1957.3,2207.9 1935.3,2178.2 1912.8,2149.3 1889.6,2121.5 1865.9,2094.8 1841.7,2069.5 1817.1,2045.7 1792.0,2023.4 1766.6,2002.9 1740.8,1984.3 1714.8,1967.5 1688.5,1952.8 1662.1,1940.2 1635.5,1929.8 1608.8,1921.6 1582.1,1915.6 1555.3,1912.0 1528.5,1910.6 1501.9,1911.6 1475.3,1914.9 1448.9,1920.6 1422.6,1928.5 1396.6,1938.6 1370.9,1951.0 1345.4,1965.5 1320.3,1982.1 1295.6,2000.7 1271.3,2021.2 1247.4,2043.6 1224.1,2067.6 1201.3,2093.2 1179.0,2120.2 1157.3,2148.6 1136.3,2178.0 1115.9,2208.5 1096.3,2239.7 1077.4,2271.6 1059.2,2303.8  " style="stroke-opacity: 1.000000; stroke-width: 5.0; stroke: rgb(251,106,74); fill: none"  />
<path d="M 1999.0,2269.1 L 1978.1,2237.8 1956.4,2206.9 1933.9,2176.6 1910.7,2147.1 1886.7,2118.5 1862.0,2091.1 1836.7,2064.9 1810.7,2040.1 1784.1,2016.7 1757.0,1995.0 1729.4,1975.0 1701.3,1956.8 1672.8,1940.5 1643.8,1926.1 1614.6,1913.8 1585.0,1903.6 1555.2,1895.5 1525.1,1889.5 1494.9,1885.7 1464.5,1884.1 1434.0,1884.7 1403.5,1887.4 1372.9,1892.4 1342.4,1899.4 1312.0,1908.6 1281.8,1919.8 1251.7,1933.0 1221.8,1948.2 1192.3,1965.2 1163.0,1983.9 1134.1,2004.3 1105.7,2026.3 1077.7,2049.7 1050.3,2074.3 1023.4,2100.2 997.2,2127.1 971.6,2154.8 946.8,2183.3 922.8,2212.2  " style="stroke-opacity: 1.000000; stroke-width: 5.0; stroke: rgb(251,106,74); fill: none"  />
<path d="M 1853.6,2345.8 L 1836.6,2304.6 1819.9,2263.0 1803.5,2221.0 1787.4,2178.6 1771.7,2135.8 1756.3,2092.7 1741.4,2049.2 1726.9,2005.3 1712.8,1961.2 1699.3,1916.8 1686.2,1872.0 1673.6,1827.1 1661.6,1781.8 1650.1,1736.4 1639.2,1690.7 1628.8,1644.9 1619.0,1598.9 1609.7,1552.7 1601.1,1506.4 1593.1,1460.0 1585.6,1413.5 1578.8,1366.9 1572.5,1320.2 1566.9,1273.6 1561.8,1226.9 1557.3,1180.2 1553.5,1133.6 1550.1,1087.0 1547.4,1040.5 1545.2,994.1 1543.6,947.8 1542.5,901.6 1541.9,855.7 1541.9,809.9 1542.3,764.3 1543.2,718.9 1544.5,673.8 1546.2,629.0 1548.4,584.5  " style="stroke-opacity: 1.000000; stroke-width: 5.0; stroke: rgb(251,106,74); fill: none"  />
<path d="M 1853.6,2345.8 L 1838.3,2308.0 1823.7,2269.6 1809.8,2230.6 1796.8,2191.0 1784.8,2150.9 1773.7,2110.4 1763.8,2069.5 1754.9,2028.2 1747.3,1986.7 1741.0,1945.0 1735.9,1903.1 1732.2,1861.1 1729.8,1819.1 1728.9,1777.0 1729.4,1734.9 1731.3,1693.0 1734.7,1651.1 1739.6,1609.4 1745.9,1568.0 1753.8,1526.8 1763.0,1485.9 1773.8,1445.3 1785.9,1405.1 1799.5,1365.4 1814.4,1326.1 1830.7,1287.3 1848.3,1249.0 1867.1,1211.3 1887.2,1174.1 1908.4,1137.6 1930.7,1101.8 1954.0,1066.7 1978.2,1032.2 2003.3,998.6 2029.2,965.7 2055.8,933.6 2083.0,902.3 2110.7,871.9 2138.8,842.4  " style="stroke-opacity: 1.000000; stroke-width: 5.0; stroke: rgb(251,106,74); fill: none"  />
<path d="M 1369.8,2407.5 L 1374.8,2372.6 1380.1,2337.9 1385.4,2303.9 1390.9,2270.6 1396.4,2238.3 1402.0,2207.2 1407.6,2177.5 1413.2,2149.5 1418.8,2123.2 1424.5,2098.8 1430.0,2076.4 1435.6,2056.3 1441.1,2038.5 1446.5,2023.1 1451.8,2010.1 1457.0,1999.7 1462.2,1991.9 1467.2,1986.8 1472.0,1984.4 1476.8,1984.6 1481.3,1987.6 1485.8,1993.2 1490.0,2001.5 1494.2,2012.3 1498.1,2025.8 1501.8,2041.7 1505.4,2060.0 1508.8,2080.6 1512.0,2103.4 1515.0,2128.2 1517.9,2155.0 1520.5,2183.5 1523.0,2213.6 1525.2,2245.1 1527.3,2277.8 1529.2,2311.5 1530.9,2345.9 1532.5,2380.9 1533.9,2416.1  " style="stroke-opacity: 1.000000; stroke-width: 5.0; stroke: rgb(251,106,74); fill: none"  />
<path d="M 1209.8,2369.6 L 1222.1,2334.1 1235.4,2298.7 1249.6,2263.8 1264.7,2229.4 1280.7,2195.7 1297.8,2163.0 1315.7,2131.3 1334.7,2100.7 1354.5,2071.5 1375.3,2043.6 1397.1,2017.3 1419.7,1992.7 1443.2,1969.7 1467.6,1948.6 1492.8,1929.3 1518.9,1912.0 1545.8,1896.7 1573.4,1883.3 1601.7,1872.1 1630.7,1862.9 1660.4,1855.8 1690.6,1850.9 1721.4,1848.0 1752.7,1847.2 1784.4,1848.4 1816.5,1851.7 1849.0,1856.9 1881.7,1864.1 1914.5,1873.1 1947.6,1884.0 1980.6,1896.5 2013.7,1910.6 2046.6,1926.2 2079.4,1943.2 2111.9,1961.5 2144.0,1981.0 2175.7,2001.4 2206.9,2022.7 2237.4,2044.7  " style="stroke-opacity: 1.000000; stroke-width: 5.0; stroke: rgb(251,106,74); fill: none"  />
<path d="M 1209.8,2369.6 L 1221.9,2334.6 1234.8,2299.9 1248.6,2265.7 1263.2,2232.1 1278.6,2199.3 1294.9,2167.6 1312.0,2137.0 1329.9,2107.7 1348.6,2079.9 1368.0,2053.7 1388.3,2029.2 1409.3,2006.5 1431.0,1985.6 1453.5,1966.8 1476.6,1950.0 1500.4,1935.4 1524.8,1922.9 1549.8,1912.7 1575.3,1904.7 1601.4,1898.9 1628.0,1895.5 1655.0,1894.3 1682.3,1895.4 1710.1,1898.7 1738.1,1904.2 1766.4,1911.9 1794.8,1921.7 1823.4,1933.5 1852.1,1947.2 1880.8,1962.9 1909.4,1980.3 1937.9,1999.3 1966.3,2019.9 1994.4,2041.9 2022.1,2065.2 2049.4,2089.6 2076.3,2114.9 2102.6,2141.0 2128.3,2167.6  " style="stroke-opacity: 1.000000; stroke-width: 5.0; stroke: rgb(251,106,74); fill: none"  />
<path d="M 2011.1,738.9 L 1989.2,772.3 1968.0,806.4 1947.5,841.3 1927.8,876.9 1909.1,913.1 1891.4,949.8 1874.9,987.1 1859.5,1024.8 1845.5,1063.0 1832.8,1101.5 1821.5,1140.4 1811.7,1179.5 1803.5,1218.8 1796.8,1258.3 1791.7,1297.9 1788.2,1337.5 1786.4,1377.2 1786.3,1416.9 1787.8,1456.5 1791.1,1496.0 1796.0,1535.3 1802.6,1574.4 1810.8,1613.3 1820.7,1651.9 1832.2,1690.1 1845.2,1728.0 1859.8,1765.5 1875.8,1802.4 1893.3,1838.9 1912.1,1874.9 1932.2,1910.2 1953.4,1945.0 1975.8,1979.0 1999.3,2012.4 2023.6,2045.1 2048.8,2077.0 2074.7,2108.0 2101.3,2138.3 2128.3,2167.6  " style="stroke-opacity: 1.000000; stroke-width: 5.0; stroke: rgb(251,106,74); fill: none"  />
<path d="M 2138.8,842.4 L 2110.7,871.9 2083.0,902.3 2055.8,933.6 2029.2,965.7 2003.3,998.6 1978.2,1032.2 1954.0,1066.7 1930.7,1101.8 1908.4,1137.6 1887.2,1174.1 1867.1,1211.3 1848.3,1249.0 1830.7,1287.3 1814.4,1326.1 1799.5,1365.4 1785.9,1405.1 1773.8,1445.3 1763.0,1485.9 1753.8,1526.8 1745.9,1568.0 1739.6,1609.4 1734.7,1651.1 1731.3,1693.0 1729.4,1734.9 1728.9,1777.0 1729.8,1819.1 1732.2,1861.1 1735.9,1903.1 1741.0,1945.0 1747.3,1986.7 1754.9,2028.2 1763.8,2069.5 1773.7,2110.4 1784.8,2150.9 1796.8,2191.0 1809.8,2230.6 1823.7,2269.6 1838.3,2308.0 1853.6,2345.8  " style="stroke-opacity: 1.000000; stroke-width: 5.0; stroke: rgb(251,106,74); fill: none"  />
<path d="M 1059.2,2303.8 L 1077.4,2271.6 1096.3,2239.7 1115.9,2208.5 1136.3,2178.0 1157.3,2148.6 1179.0,2120.2 1201.3,2093.2 1224.1,2067.6 1247.4,2043.6 1271.3,2021.2 1295.6,2000.7 1320.3,1982.1 1345.4,1965.5 1370.9,1951.0 1396.6,1938.6 1422.6,1928.5 1448.9,1920.6 1475.3,1914.9 1501.9,1911.6 1528.5,1910.6 1555.3,1912.0 1582.1,1915.6 1608.8,1921.6 1635.5,1929.8 1662.1,1940.2 1688.5,1952.8 1714.8,1967.5 1740.8,1984.3 1766.6,2002.9 1792.0,2023.4 1817.1,2045.7 1841.7,2069.5 1865.9,2094.8 1889.6,2121.5 1912.8,2149.3 1935.3,2178.2 1957.3,2207.9 1978.5,2238.3 1999.0,2269.1  " style="stroke-opacity: 1.000000; stroke-width: 5.0; stroke: rgb(251,106,74); fill: none"  />
<path d="M 922.8,2212.2 L 946.8,2183.3 971.6,2154.8 997.2,2127.1 1023.4,2100.2 1050.3,2074.3 1077.7,2049.7 1105.7,2026.3 1134.1,2004.3 1163.0,1983.9 1192.3,1965.2 1221.8,1948.2 1251.7,1933.0 1281.8,1919.8 1312.0,1908.6 1342.4,1899.4 1372.9,1892.4 1403.5,1887.4 1434.0,1884.7 1464.5,1884.1 1494.9,1885.7 1525.1,1889.5 1555.2,1895.5 1585.0,1903.6 1614.6,1913.8 1643.8,1926.1 1672.8,1940.5 1701.3,1956.8 1729.4,1975.0 1757.0,1995.0 1784.1,2016.7 1810.7,2040.1 1836.7,2064.9 1862.0,2091.1 1886.7,2118.5 1910.7,2147.1 1933.9,2176.6 1956.4,2206.9 1978.1,2237.8 1999.0,2269.1  " style="stroke-opacity: 1.000000; stroke-width: 5.0; stroke: rgb(251,106,74); fill: none"  />
<path d="M 1072.0,689.3 L 1093.0,728.6 1114.4,768.0 1136.4,807.4 1158.9,846.7 1182.0,886.1 1205.5,925.4 1229.6,964.5 1254.2,1003.6 1279.3,1042.5 1305.0,1081.2 1331.2,1119.7 1358.0,1158.0 1385.2,1196.1 1413.0,1233.9 1441.3,1271.3 1470.1,1308.5 1499.3,1345.3 1529.1,1381.8 1559.4,1417.9 1590.1,1453.6 1621.2,1488.9 1652.8,1523.8 1684.9,1558.3 1717.3,1592.4 1750.1,1625.9 1783.3,1659.1 1816.8,1691.7 1850.7,1723.9 1884.8,1755.6 1919.3,1786.7 1953.9,1817.4 1988.9,1847.6 2024.0,1877.3 2059.3,1906.5 2094.8,1935.1 2130.3,1963.3 2166.0,1990.9 2201.7,2018.1 2237.4,2044.7  " style="stroke-opacity: 1.000000; stroke-width: 5.0; stroke: rgb(251,106,74); fill: none"  />
<path d="M 1384.1,590.6 L 1388.9,626.0 1394.1,661.1 1399.8,695.7 1406.0,729.6 1412.8,762.5 1420.0,794.3 1427.8,824.8 1436.0,853.8 1444.8,881.1 1454.1,906.6 1463.9,930.1 1474.2,951.5 1485.0,970.8 1496.3,987.8 1508.1,1002.4 1520.3,1014.5 1533.0,1024.2 1546.0,1031.4 1559.5,1035.9 1573.4,1037.9 1587.6,1037.3 1602.2,1034.2 1617.1,1028.4 1632.2,1020.2 1647.6,1009.5 1663.2,996.4 1679.0,980.9 1694.9,963.2 1711.0,943.4 1727.0,921.6 1743.2,897.9 1759.2,872.4 1775.2,845.3 1791.1,816.8 1806.9,787.1 1822.4,756.3 1837.6,724.7 1852.5,692.5 1867.0,659.9  " style="stroke-opacity: 1.000000; stroke-width: 5.0; stroke: rgb(251,106,74); fill: none"  />
<path d="M 1533.9,2416.1 L 1532.2,2369.6 1530.6,2323.1 1529.1,2276.4 1527.7,2229.7 1526.4,2182.9 1525.1,2136.1 1524.0,2089.2 1523.0,2042.3 1522.1,1995.3 1521.3,1948.3 1520.6,1901.2 1520.0,1854.1 1519.5,1807.0 1519.2,1759.8 1518.9,1712.6 1518.8,1665.4 1518.8,1618.2 1519.0,1571.0 1519.2,1523.8 1519.6,1476.5 1520.1,1429.3 1520.7,1382.1 1521.4,1334.9 1522.3,1287.7 1523.3,1240.5 1524.4,1193.4 1525.6,1146.3 1526.9,1099.2 1528.4,1052.1 1529.9,1005.1 1531.6,958.2 1533.3,911.2 1535.2,864.4 1537.2,817.6 1539.2,770.8 1541.4,724.1 1543.6,677.5 1546.0,631.0 1548.4,584.5  " style="stroke-opacity: 1.000000; stroke-width: 5.0; stroke: rgb(251,106,74); fill: none"  />
<path d="M 1533.9,2416.1 L 1532.4,2371.6 1531.4,2326.8 1530.8,2281.7 1530.6,2236.3 1530.9,2190.7 1531.7,2144.9 1533.0,2099.0 1534.8,2052.8 1537.2,2006.6 1540.1,1960.2 1543.6,1913.7 1547.6,1867.2 1552.3,1820.6 1557.5,1774.1 1563.3,1727.5 1569.7,1680.9 1576.6,1634.4 1584.2,1587.9 1592.4,1541.5 1601.2,1495.2 1610.6,1449.1 1620.5,1403.0 1631.1,1357.2 1642.2,1311.5 1653.8,1266.0 1666.0,1220.8 1678.8,1175.7 1692.1,1131.0 1705.8,1086.5 1720.1,1042.2 1734.9,998.3 1750.0,954.7 1765.7,911.5 1781.7,868.6 1798.1,826.0 1814.9,783.9 1831.9,742.1 1849.3,700.8 1867.0,659.9  " style="stroke-opacity: 1.000000; stroke-width: 5.0; stroke: rgb(251,106,74); fill: none"  />
<path d="M 1533.9,2416.1 L 1532.5,2380.9 1530.9,2345.9 1529.2,2311.5 1527.3,2277.8 1525.2,2245.1 1523.0,2213.6 1520.5,2183.5 1517.9,2155.0 1515.0,2128.2 1512.0,2103.4 1508.8,2080.6 1505.4,2060.0 1501.8,2041.7 1498.1,2025.8 1494.2,2012.3 1490.0,2001.5 1485.8,1993.2 1481.3,1987.6 1476.8,1984.6 1472.0,1984.4 1467.2,1986.8 1462.2,1991.9 1457.0,1999.7 1451.8,2010.1 1446.5,2023.1 1441.1,2038.5 1435.6,2056.3 1430.0,2076.4 1424.5,2098.8 1418.8,2123.2 1413.2,2149.5 1407.6,2177.5 1402.0,2207.2 1396.4,2238.3 1390.9,2270.6 1385.4,2303.9 1380.1,2337.9 1374.8,2372.6 1369.8,2407.5  " style="stroke-opacity: 1.000000; stroke-width: 5.0; stroke: rgb(251,106,74); fill: none"  />
<path d="M 639.2,1815.3 L 678.4,1801.4 718.3,1788.0 758.8,1775.4 799.8,1763.5 841.3,1752.5 883.2,1742.4 925.5,1733.2 968.2,1725.0 1011.1,1717.9 1054.3,1711.8 1097.7,1706.9 1141.3,1703.2 1185.0,1700.6 1228.8,1699.3 1272.7,1699.2 1316.5,1700.3 1360.3,1702.7 1403.9,1706.4 1447.5,1711.3 1490.9,1717.6 1534.1,1725.1 1577.1,1733.8 1619.8,1743.8 1662.2,1755.1 1704.2,1767.5 1745.8,1781.1 1787.0,1795.9 1827.8,1811.7 1868.1,1828.6 1907.9,1846.6 1947.1,1865.5 1985.7,1885.4 2023.7,1906.1 2061.1,1927.6 2097.8,1949.8 2133.8,1972.8 2169.1,1996.3 2203.6,2020.3 2237.4,2044.7  " style="stroke-opacity: 1.000000; stroke-width: 5.0; stroke: rgb(251,106,74); fill: none"  />
<path d="M 639.2,1815.3 L 677.6,1801.7 716.6,1788.8 756.3,1776.7 796.4,1765.5 837.0,1755.3 878.0,1746.1 919.3,1737.9 960.9,1731.0 1002.7,1725.2 1044.6,1720.8 1086.7,1717.6 1128.8,1715.8 1170.9,1715.3 1213.0,1716.3 1255.0,1718.6 1296.9,1722.4 1338.5,1727.7 1379.9,1734.5 1421.0,1742.7 1461.9,1752.3 1502.3,1763.4 1542.3,1775.9 1581.9,1789.9 1621.0,1805.2 1659.6,1821.9 1697.7,1839.9 1735.1,1859.2 1772.0,1879.7 1808.2,1901.4 1843.7,1924.2 1878.5,1948.1 1912.5,1972.9 1945.8,1998.7 1978.3,2025.3 2010.0,2052.6 2040.9,2080.6 2070.9,2109.2 2100.0,2138.2 2128.3,2167.6  " style="stroke-opacity: 1.000000; stroke-width: 5.0; stroke: rgb(251,106,74); fill: none"  />
</g>
<g id="track_0">
<path d="M 2237.4,2044.7 L 2209.0,2023.8 2180.7,2003.2 2152.6,1983.1 2125.1,1963.6 2098.3,1944.8 2072.2,1927.0 2047.2,1910.1 2023.2,1894.4 2000.5,1880.0 1979.2,1866.8 1959.4,1855.1 1941.2,1844.9 1924.7,1836.3 1909.9,1829.3 1896.9,1824.0 1885.9,1820.4 1876.7,1818.6 1869.6,1818.6 1864.4,1820.3 1861.3,1823.9 1860.1,1829.2 1861.0,1836.3 1863.9,1845.2 1868.8,1855.7 1875.6,1868.0 1884.3,1881.8 1894.8,1897.2 1907.1,1914.1 1921.0,1932.4 1936.6,1952.0 1953.7,1972.8 1972.1,1994.7 1991.8,2017.6 2012.6,2041.3 2034.4,2065.8 2057.1,2090.8 2080.4,2116.2 2104.2,2141.9 2128.3,2167.6  " style="stroke-opacity: 1.000000; stroke-width: 5.0; stroke: rgb(107,174,214); fill: none"  />
<path d="M 716.8,1023.6 L 746.9,1041.8 777.0,1059.8 806.7,1077.3 835.8,1094.3 864.3,1110.6 891.8,1126.0 918.3,1140.6 943.5,1154.1 967.4,1166.4 989.8,1177.6 1010.6,1187.5 1029.7,1196.0 1046.9,1203.1 1062.3,1208.7 1075.6,1212.9 1087.0,1215.4 1096.2,1216.4 1103.4,1215.8 1108.4,1213.6 1111.2,1209.8 1111.8,1204.4 1110.3,1197.4 1106.6,1188.9 1100.8,1178.8 1093.0,1167.2 1083.1,1154.2 1071.2,1139.8 1057.4,1124.1 1041.9,1107.1 1024.6,1089.0 1005.8,1069.8 985.5,1049.6 963.8,1028.6 940.9,1006.8 917.0,984.4 892.2,961.5 866.7,938.3 840.7,914.9 814.4,891.4  " style="stroke-opacity: 1.000000; stroke-width: 5.0; stroke: rgb(107,174,214); fill: none"  />
<path d="M 716.8,1023.6 L 747.1,1041.8 777.4,1059.7 807.6,1077.0 837.3,1093.5 866.4,1109.2 894.8,1124.0 922.3,1137.6 948.7,1150.0 973.9,1161.1 997.9,1170.9 1020.4,1179.1 1041.4,1185.9 1060.7,1191.0 1078.4,1194.5 1094.3,1196.2 1108.3,1196.3 1120.5,1194.5 1130.7,1191.0 1138.9,1185.8 1145.2,1178.7 1149.5,1169.9 1151.7,1159.4 1152.0,1147.1 1150.3,1133.2 1146.6,1117.6 1141.1,1100.5 1133.7,1081.8 1124.6,1061.8 1113.7,1040.4 1101.2,1017.8 1087.1,994.1 1071.7,969.3 1054.9,943.6 1036.9,917.2 1017.8,890.1 997.9,862.6 977.2,834.7 955.8,806.7 934.1,778.8  " style="stroke-opacity: 1.000000; stroke-width: 5.0; stroke: rgb(107,174,214); fill: none"  />
<path d="M 716.8,1023.6 L 747.4,1041.9 778.1,1059.7 808.7,1076.8 839.1,1093.1 869.0,1108.4 898.4,1122.6 927.1,1135.5 954.9,1147.1 981.7,1157.2 1007.4,1165.9 1031.9,1172.9 1055.1,1178.2 1076.9,1181.7 1097.2,1183.5 1116.0,1183.4 1133.1,1181.5 1148.6,1177.6 1162.3,1171.8 1174.3,1164.1 1184.5,1154.5 1192.9,1143.0 1199.5,1129.7 1204.3,1114.5 1207.3,1097.5 1208.5,1078.8 1208.0,1058.4 1205.8,1036.4 1201.9,1012.9 1196.4,988.0 1189.3,961.8 1180.8,934.5 1170.9,906.0 1159.8,876.6 1147.4,846.4 1134.0,815.6 1119.6,784.3 1104.3,752.7 1088.4,721.0 1072.0,689.3  " style="stroke-opacity: 1.000000; stroke-width: 5.0; stroke: rgb(107,174,214); fill: none"  />
<path d="M 1548.4,584.5 L 1546.6,619.7 1545.0,654.7 1543.6,689.2 1542.5,722.9 1541.7,755.7 1541.1,787.2 1540.9,817.4 1540.9,846.0 1541.3,872.9 1542.1,898.0 1543.3,920.9 1544.8,941.8 1546.7,960.3 1549.0,976.5 1551.8,990.2 1554.9,1001.4 1558.4,1010.1 1562.3,1016.1 1566.6,1019.4 1571.3,1020.1 1576.3,1018.1 1581.8,1013.4 1587.6,1006.1 1593.7,996.3 1600.2,983.8 1607.0,969.0 1614.0,951.7 1621.3,932.1 1628.9,910.4 1636.7,886.6 1644.7,860.9 1652.8,833.5 1661.0,804.4 1669.4,774.0 1677.8,742.3 1686.2,709.6 1694.6,676.2 1702.9,642.2 1711.1,607.9  " style="stroke-opacity: 1.000000; stroke-width: 5.0; stroke: rgb(107,174,214); fill: none"  />
<path d="M 1548.4,584.5 L 1546.7,619.9 1545.3,655.1 1544.4,689.8 1543.9,723.8 1543.9,756.9 1544.3,788.8 1545.4,819.5 1546.9,848.7 1549.1,876.2 1551.9,901.9 1555.3,925.6 1559.3,947.3 1564.0,966.8 1569.3,984.0 1575.2,998.8 1581.9,1011.2 1589.1,1021.0 1597.1,1028.4 1605.6,1033.1 1614.8,1035.3 1624.6,1034.9 1634.9,1031.9 1645.9,1026.3 1657.3,1018.2 1669.3,1007.6 1681.8,994.6 1694.7,979.3 1708.0,961.7 1721.6,942.0 1735.6,920.3 1749.9,896.7 1764.4,871.3 1779.0,844.4 1793.8,816.0 1808.6,786.4 1823.4,755.8 1838.1,724.3 1852.6,692.3 1867.0,659.9  " style="stroke-opacity: 1.000000; stroke-width: 5.0; stroke: rgb(107,174,214); fill: none"  />
<path d="M 1548.4,584.5 L 1546.8,620.5 1545.9,656.4 1545.6,692.0 1546.2,727.0 1547.6,761.4 1549.9,794.8 1553.1,827.1 1557.3,858.1 1562.4,887.7 1568.6,915.8 1575.9,942.2 1584.2,966.9 1593.6,989.6 1604.1,1010.3 1615.7,1028.9 1628.4,1045.3 1642.1,1059.6 1656.9,1071.6 1672.8,1081.3 1689.7,1088.7 1707.6,1093.7 1726.5,1096.5 1746.3,1096.9 1767.0,1095.0 1788.6,1090.8 1810.9,1084.5 1833.9,1075.9 1857.6,1065.3 1881.9,1052.7 1906.7,1038.2 1932.0,1021.8 1957.6,1003.8 1983.5,984.2 2009.6,963.1 2035.7,940.9 2061.8,917.5 2087.7,893.1 2113.4,868.0 2138.8,842.4  " style="stroke-opacity: 1.000000; stroke-width: 5.0; stroke: rgb(107,174,214); fill: none"  />
<path d="M 814.4,891.4 L 840.7,914.9 866.7,938.3 892.2,961.5 917.0,984.4 940.9,1006.8 963.8,1028.6 985.5,1049.6 1005.8,1069.8 1024.6,1089.0 1041.9,1107.1 1057.4,1124.1 1071.2,1139.8 1083.1,1154.2 1093.0,1167.2 1100.8,1178.8 1106.6,1188.9 1110.3,1197.4 1111.8,1204.4 1111.2,1209.8 1108.4,1213.6 1103.4,1215.8 1096.2,1216.4 1087.0,1215.4 1075.6,1212.9 1062.3,1208.7 1046.9,1203.1 1029.7,1196.0 1010.6,1187.5 989.8,1177.6 967.4,1166.4 943.5,1154.1 918.3,1140.6 891.8,1126.0 864.3,1110.6 835.8,1094.3 806.7,1077.3 777.0,1059.8 746.9,1041.8 716.8,1023.6  " style="stroke-opacity: 1.000000; stroke-width: 5.0; stroke: rgb(107,174,214); fill: none"  />
<path d="M 814.4,891.4 L 840.8,914.7 867.2,937.8 893.3,960.3 919.0,982.2 944.0,1003.3 968.4,1023.5 991.8,1042.5 1014.2,1060.3 1035.5,1076.7 1055.6,1091.7 1074.3,1105.1 1091.5,1116.9 1107.2,1127.0 1121.3,1135.3 1133.7,1141.7 1144.4,1146.3 1153.4,1148.9 1160.5,1149.6 1165.8,1148.3 1169.2,1145.1 1170.8,1139.8 1170.6,1132.7 1168.5,1123.6 1164.6,1112.7 1158.9,1099.9 1151.5,1085.3 1142.4,1069.0 1131.7,1051.1 1119.4,1031.6 1105.7,1010.7 1090.6,988.4 1074.2,965.0 1056.6,940.4 1038.0,914.9 1018.5,888.6 998.1,861.7 977.2,834.2 955.8,806.5 934.1,778.8  " style="stroke-opacity: 1.000000; stroke-width: 5.0; stroke: rgb(107,174,214); fill: none"  />
<path d="M 934.1,778.8 L 955.8,806.7 977.2,834.7 997.9,862.6 1017.8,890.1 1036.9,917.2 1054.9,943.6 1071.7,969.3 1087.1,994.1 1101.2,1017.8 1113.7,1040.4 1124.6,1061.8 1133.7,1081.8 1141.1,1100.5 1146.6,1117.6 1150.3,1133.2 1152.0,1147.1 1151.7,1159.4 1149.5,1169.9 1145.2,1178.7 1138.9,1185.8 1130.7,1191.0 1120.5,1194.5 1108.3,1196.3 1094.3,1196.2 1078.4,1194.5 1060.7,1191.0 1041.4,1185.9 1020.4,1179.1 997.9,1170.9 973.9,1161.1 948.7,1150.0 922.3,1137.6 894.8,1124.0 866.4,1109.2 837.3,1093.5 807.6,1077.0 777.4,1059.7 747.1,1041.8 716.8,1023.6  " style="stroke-opacity: 1.000000; stroke-width: 5.0; stroke: rgb(107,174,214); fill: none"  />
<path d="M 934.1,778.8 L 955.8,806.5 977.2,834.2 998.1,861.7 1018.5,888.6 1038.0,914.9 1056.6,940.4 1074.2,965.0 1090.6,988.4 1105.7,1010.7 1119.4,1031.6 1131.7,1051.1 1142.4,1069.0 1151.5,1085.3 1158.9,1099.9 1164.6,1112.7 1168.5,1123.6 1170.6,1132.7 1170.8,1139.8 1169.2,1145.1 1165.8,1148.3 1160.5,1149.6 1153.4,1148.9 1144.4,1146.3 1133.7,1141.7 1121.3,1135.3 1107.2,1127.0 1091.5,1116.9 1074.3,1105.1 1055.6,1091.7 1035.5,1076.7 1014.2,1060.3 991.8,1042.5 968.4,1023.5 944.0,1003.3 919.0,982.2 893.3,960.3 867.2,937.8 840.8,914.7 814.4,891.4  " style="stroke-opacity: 1.000000; stroke-width: 5.0; stroke: rgb(107,174,214); fill: none"  />
<path d="M 1711.1,607.9 L 1702.9,642.2 1694.6,676.2 1686.2,709.6 1677.8,742.3 1669.4,774.0 1661.0,804.4 1652.8,833.5 1644.7,860.9 1636.7,886.6 1628.9,910.4 1621.3,932.1 1614.0,951.7 1607.0,969.0 1600.2,983.8 1593.7,996.3 1587.6,1006.1 1581.8,1013.4 1576.3,1018.1 1571.3,1020.1 1566.6,1019.4 1562.3,1016.1 1558.4,1010.1 1554.9,1001.4 1551.8,990.2 1549.0,976.5 1546.7,960.3 1544.8,941.8 1543.3,920.9 1542.1,898.0 1541.3,872.9 1540.9,846.0 1540.9,817.4 1541.1,787.2 1541.7,755.7 1542.5,722.9 1543.6,689.2 1545.0,654.7 1546.6,619.7 1548.4,584.5  " style="stroke-opacity: 1.000000; stroke-width: 5.0; stroke: rgb(107,174,214); fill: none"  />
<path d="M 1711.1,607.9 L 1703.0,642.2 1695.2,676.3 1687.7,710.0 1680.6,743.0 1673.9,775.1 1667.7,806.0 1662.1,835.7 1657.0,863.9 1652.6,890.4 1649.0,915.2 1646.0,938.0 1643.8,958.7 1642.3,977.3 1641.7,993.7 1641.9,1007.7 1643.0,1019.3 1644.9,1028.4 1647.7,1035.0 1651.3,1039.0 1655.8,1040.5 1661.2,1039.5 1667.4,1035.9 1674.4,1029.7 1682.2,1021.1 1690.7,1010.0 1700.1,996.6 1710.1,980.9 1720.8,962.9 1732.1,942.9 1744.0,920.9 1756.4,897.0 1769.3,871.5 1782.6,844.4 1796.3,815.9 1810.2,786.2 1824.3,755.6 1838.5,724.2 1852.8,692.2 1867.0,659.9  " style="stroke-opacity: 1.000000; stroke-width: 5.0; stroke: rgb(107,174,214); fill: none"  />
<path d="M 1711.1,607.9 L 1703.1,642.6 1695.6,677.3 1688.8,711.8 1682.8,745.7 1677.5,778.9 1673.1,811.2 1669.6,842.5 1667.2,872.5 1665.8,901.1 1665.6,928.3 1666.5,953.7 1668.6,977.4 1671.9,999.3 1676.5,1019.1 1682.4,1036.9 1689.6,1052.6 1698.0,1066.1 1707.8,1077.4 1718.8,1086.4 1731.1,1093.2 1744.6,1097.6 1759.4,1099.8 1775.3,1099.6 1792.4,1097.2 1810.6,1092.6 1829.8,1085.8 1850.0,1076.9 1871.1,1066.0 1893.1,1053.0 1915.8,1038.2 1939.2,1021.7 1963.2,1003.5 1987.7,983.8 2012.6,962.7 2037.8,940.4 2063.1,917.0 2088.5,892.8 2113.7,867.8 2138.8,842.4  " style="stroke-opacity: 1.000000; stroke-width: 5.0; stroke: rgb(107,174,214); fill: none"  />
<path d="M 2128.3,2167.6 L 2104.2,2141.9 2080.4,2116.2 2057.1,2090.8 2034.4,2065.8 2012.6,2041.3 1991.8,2017.6 1972.1,1994.7 1953.7,1972.8 1936.6,1952.0 1921.0,1932.4 1907.1,1914.1 1894.8,1897.2 1884.3,1881.8 1875.6,1868.0 1868.8,1855.7 1863.9,1845.2 1861.0,1836.3 1860.1,1829.2 1861.3,1823.9 1864.4,1820.3 1869.6,1818.6 1876.7,1818.6 1885.9,1820.4 1896.9,1824.0 1909.9,1829.3 1924.7,1836.3 1941.2,1844.9 1959.4,1855.1 1979.2,1866.8 2000.5,1880.0 2023.2,1894.4 2047.2,1910.1 2072.2,1927.0 2098.3,1944.8 2125.1,1963.6 2152.6,1983.1 2180.7,2003.2 2209.0,2023.8 2237.4,2044.7  " style="stroke-opacity: 1.000000; stroke-width: 5.0; stroke: rgb(107,174,214); fill: none"  />
<path d="M 2128.3,2167.6 L 2104.0,2142.0 2079.9,2116.7 2055.9,2091.9 2032.3,2067.8 2009.2,2044.5 1986.8,2022.3 1965.1,2001.2 1944.4,1981.5 1924.7,1963.2 1906.0,1946.5 1888.6,1931.4 1872.5,1918.2 1857.8,1906.7 1844.5,1897.2 1832.7,1889.7 1822.4,1884.2 1813.8,1880.8 1806.7,1879.4 1801.3,1880.2 1797.6,1883.2 1795.6,1888.2 1795.2,1895.4 1796.4,1904.6 1799.3,1915.9 1803.8,1929.1 1809.9,1944.3 1817.5,1961.3 1826.6,1980.1 1837.1,2000.6 1848.9,2022.7 1861.9,2046.2 1876.2,2071.0 1891.5,2097.1 1907.7,2124.1 1924.8,2152.1 1942.6,2180.8 1961.0,2209.9 1979.8,2239.4 1999.0,2269.1  " style="stroke-opacity: 1.000000; stroke-width: 5.0; stroke: rgb(107,174,214); fill: none"  />
<path d="M 1867.0,659.9 L 1852.6,692.3 1838.1,724.3 1823.4,755.8 1808.6,786.4 1793.8,816.0 1779.0,844.4 1764.4,871.3 1749.9,896.7 1735.6,920.3 1721.6,942.0 1708.0,961.7 1694.7,979.3 1681.8,994.6 1669.3,1007.6 1657.3,1018.2 1645.9,1026.3 1634.9,1031.9 1624.6,1034.9 1614.8,1035.3 1605.6,1033.1 1597.1,1028.4 1589.1,1021.0 1581.9,1011.2 1575.2,998.8 1569.3,984.0 1564.0,966.8 1559.3,947.3 1555.3,925.6 1551.9,901.9 1549.1,876.2 1546.9,848.7 1545.4,819.5 1544.3,788.8 1543.9,756.9 1543.9,723.8 1544.4,689.8 1545.3,655.1 1546.7,619.9 1548.4,584.5  " style="stroke-opacity: 1.000000; stroke-width: 5.0; stroke: rgb(107,174,214); fill: none"  />
<path d="M 1867.0,659.9 L 1852.8,692.2 1838.5,724.2 1824.3,755.6 1810.2,786.2 1796.3,815.9 1782.6,844.4 1769.3,871.5 1756.4,897.0 1744.0,920.9 1732.1,942.9 1720.8,962.9 1710.1,980.9 1700.1,996.6 1690.7,1010.0 1682.2,1021.1 1674.4,1029.7 1667.4,1035.9 1661.2,1039.5 1655.8,1040.5 1651.3,1039.0 1647.7,1035.0 1644.9,1028.4 1643.0,1019.3 1641.9,1007.7 1641.7,993.7 1642.3,977.3 1643.8,958.7 1646.0,938.0 1649.0,915.2 1652.6,890.4 1657.0,863.9 1662.1,835.7 1667.7,806.0 1673.9,775.1 1680.6,743.0 1687.7,710.0 1695.2,676.3 1703.0,642.2 1711.1,607.9  " style="stroke-opacity: 1.000000; stroke-width: 5.0; stroke: rgb(107,174,214); fill: none"  />
<path d="M 1867.0,659.9 L 1852.9,692.4 1839.3,724.9 1826.3,757.0 1813.8,788.7 1802.2,819.7 1791.4,849.8 1781.6,878.8 1772.8,906.7 1765.2,933.2 1758.7,958.2 1753.6,981.7 1749.7,1003.4 1747.2,1023.2 1746.2,1041.2 1746.6,1057.2 1748.4,1071.1 1751.7,1082.9 1756.6,1092.6 1762.9,1100.0 1770.7,1105.3 1780.0,1108.3 1790.8,1109.1 1803.0,1107.8 1816.6,1104.2 1831.5,1098.5 1847.7,1090.7 1865.2,1080.9 1883.8,1069.1 1903.6,1055.5 1924.3,1040.1 1946.0,1023.0 1968.4,1004.3 1991.6,984.2 2015.4,962.8 2039.7,940.3 2064.3,916.9 2089.1,892.6 2114.0,867.7 2138.8,842.4  " style="stroke-opacity: 1.000000; stroke-width: 5.0; stroke: rgb(107,174,214); fill: none"  />
<path d="M 1999.0,2269.1 L 1979.8,2239.4 1961.0,2209.9 1942.6,2180.8 1924.8,2152.1 1907.7,2124.1 1891.5,2097.1 1876.2,2071.0 1861.9,2046.2 1848.9,2022.7 1837.1,2000.6 1826.6,1980.1 1817.5,1961.3 1809.9,1944.3 1803.8,1929.1 1799.3,1915.9 1796.4,1904.6 1795.2,1895.4 1795.6,1888.2 1797.6,1883.2 1801.3,1880.2 1806.7,1879.4 1813.8,1880.8 1822.4,1884.2 1832.7,1889.7 1844.5,1897.2 1857.8,1906.7 1872.5,1918.2 1888.6,1931.4 1906.0,1946.5 1924.7,1963.2 1944.4,1981.5 1965.1,2001.2 1986.8,2022.3 2009.2,2044.5 2032.3,2067.8 2055.9,2091.9 2079.9,2116.7 2104.0,2142.0 2128.3,2167.6  " style="stroke-opacity: 1.000000; stroke-width: 5.0; stroke: rgb(107,174,214); fill: none"  />
<path d="M 1999.0,2269.1 L 1979.5,2239.4 1960.0,2210.2 1940.3,2181.6 1920.7,2153.8 1901.3,2127.0 1882.1,2101.4 1863.3,2077.2 1844.9,2054.5 1826.9,2033.5 1809.6,2014.4 1792.9,1997.2 1776.9,1982.0 1761.7,1969.0 1747.3,1958.2 1733.7,1949.7 1721.1,1943.6 1709.4,1939.9 1698.7,1938.6 1689.0,1939.8 1680.3,1943.4 1672.6,1949.5 1666.0,1958.0 1660.4,1969.0 1655.9,1982.3 1652.4,1997.9 1650.0,2015.7 1648.6,2035.7 1648.1,2057.7 1648.6,2081.7 1650.1,2107.5 1652.4,2135.0 1655.6,2164.0 1659.6,2194.4 1664.4,2226.0 1669.8,2258.7 1675.8,2292.2 1682.4,2326.3 1689.5,2360.7 1696.9,2395.4  " style="stroke-opacity: 1.000000; stroke-width: 5.0; stroke: rgb(107,174,214); fill: none"  />
<path d="M 1999.0,2269.1 L 1979.3,2239.3 1959.4,2209.9 1939.2,2181.2 1918.9,2153.4 1898.6,2126.6 1878.3,2101.1 1858.0,2077.0 1838.0,2054.5 1818.3,2033.7 1798.8,2014.8 1779.8,1997.8 1761.2,1983.0 1743.1,1970.3 1725.6,1959.9 1708.6,1951.9 1692.3,1946.2 1676.7,1943.0 1661.9,1942.2 1647.7,1943.9 1634.4,1948.2 1621.8,1954.9 1610.0,1964.0 1599.1,1975.7 1589.1,1989.7 1579.8,2006.0 1571.5,2024.6 1563.9,2045.3 1557.3,2068.2 1551.4,2093.0 1546.4,2119.7 1542.2,2148.0 1538.8,2177.9 1536.1,2209.3 1534.1,2241.8 1532.8,2275.5 1532.2,2309.9 1532.2,2345.0 1532.8,2380.5 1533.9,2416.1  " style="stroke-opacity: 1.000000; stroke-width: 5.0; stroke: rgb(107,174,214); fill: none"  />
<path d="M 1853.6,2345.8 L 1839.8,2313.2 1825.8,2280.9 1811.6,2249.2 1797.2,2218.4 1782.9,2188.6 1768.6,2160.0 1754.4,2132.8 1740.3,2107.2 1726.4,2083.4 1712.8,2061.4 1699.4,2041.5 1686.4,2023.7 1673.7,2008.2 1661.5,1995.0 1649.7,1984.2 1638.3,1975.9 1627.5,1970.2 1617.2,1967.0 1607.4,1966.4 1598.2,1968.5 1589.6,1973.1 1581.5,1980.3 1574.1,1990.1 1567.3,2002.3 1561.1,2017.1 1555.5,2034.2 1550.5,2053.6 1546.2,2075.2 1542.4,2098.9 1539.2,2124.5 1536.6,2152.0 1534.6,2181.1 1533.1,2211.8 1532.1,2243.7 1531.6,2276.8 1531.5,2310.8 1531.9,2345.5 1532.7,2380.7 1533.9,2416.1  " style="stroke-opacity: 1.000000; stroke-width: 5.0; stroke: rgb(107,174,214); fill: none"  />
<path d="M 1369.8,2407.5 L 1374.6,2372.4 1379.1,2337.5 1383.2,2303.0 1386.7,2269.2 1389.7,2236.2 1392.1,2204.3 1393.8,2173.7 1394.9,2144.5 1395.2,2116.9 1394.7,2091.1 1393.5,2067.1 1391.4,2045.2 1388.5,2025.4 1384.7,2007.8 1380.1,1992.5 1374.6,1979.5 1368.3,1969.0 1361.1,1961.0 1353.0,1955.5 1344.0,1952.5 1334.2,1952.1 1323.7,1954.1 1312.3,1958.7 1300.1,1965.8 1287.2,1975.2 1273.7,1987.0 1259.4,2001.1 1244.6,2017.4 1229.2,2035.8 1213.4,2056.2 1197.0,2078.5 1180.3,2102.4 1163.3,2128.0 1146.1,2154.9 1128.7,2183.1 1111.2,2212.2 1093.7,2242.2 1076.4,2272.8 1059.2,2303.8  " style="stroke-opacity: 1.000000; stroke-width: 5.0; stroke: rgb(107,174,214); fill: none"  />
<path d="M 1369.8,2407.5 L 1374.6,2372.1 1378.9,2336.9 1382.6,2302.0 1385.6,2267.7 1387.9,2234.1 1389.4,2201.5 1390.0,2170.1 1389.7,2140.0 1388.5,2111.3 1386.4,2084.3 1383.2,2059.0 1378.9,2035.6 1373.6,2014.1 1367.3,1994.8 1359.8,1977.5 1351.3,1962.6 1341.7,1949.9 1330.9,1939.5 1319.2,1931.5 1306.3,1925.9 1292.4,1922.7 1277.6,1921.9 1261.7,1923.4 1244.9,1927.3 1227.2,1933.6 1208.7,1942.1 1189.4,1952.8 1169.3,1965.6 1148.6,1980.4 1127.3,1997.2 1105.4,2015.8 1083.1,2036.0 1060.5,2057.9 1037.6,2081.1 1014.5,2105.6 991.4,2131.1 968.3,2157.5 945.4,2184.6 922.8,2212.2  " style="stroke-opacity: 1.000000; stroke-width: 5.0; stroke: rgb(107,174,214); fill: none"  />
<path d="M 1209.8,2369.6 L 1220.9,2336.0 1231.5,2302.4 1241.7,2269.2 1251.2,2236.6 1260.0,2204.7 1268.1,2173.7 1275.2,2143.9 1281.5,2115.4 1286.7,2088.3 1290.9,2062.8 1293.9,2039.0 1295.8,2017.0 1296.5,1997.0 1295.9,1979.0 1294.1,1963.1 1291.0,1949.4 1286.7,1938.0 1281.0,1928.8 1274.0,1921.9 1265.7,1917.4 1256.2,1915.2 1245.4,1915.4 1233.4,1917.8 1220.2,1922.6 1205.8,1929.6 1190.3,1938.8 1173.8,1950.1 1156.3,1963.5 1137.9,1978.9 1118.6,1996.1 1098.6,2015.1 1077.9,2035.7 1056.6,2057.8 1034.8,2081.2 1012.7,2105.8 990.3,2131.4 967.7,2157.8 945.2,2184.8 922.8,2212.2  " style="stroke-opacity: 1.000000; stroke-width: 5.0; stroke: rgb(107,174,214); fill: none"  />
<path d="M 1209.8,2369.6 L 1221.0,2334.9 1231.5,2300.0 1241.0,2265.1 1249.6,2230.4 1257.1,2195.9 1263.4,2162.0 1268.3,2128.7 1272.0,2096.2 1274.1,2064.5 1274.8,2033.9 1273.8,2004.4 1271.3,1976.1 1267.1,1949.1 1261.2,1923.5 1253.6,1899.5 1244.2,1876.9 1233.1,1856.0 1220.3,1836.8 1205.8,1819.2 1189.5,1803.4 1171.5,1789.3 1151.9,1777.1 1130.7,1766.6 1107.9,1757.9 1083.6,1751.0 1057.9,1745.8 1030.8,1742.4 1002.4,1740.7 972.9,1740.6 942.3,1742.2 910.7,1745.3 878.3,1749.8 845.1,1755.8 811.4,1763.0 777.2,1771.5 742.7,1781.1 708.1,1791.7 673.5,1803.1 639.2,1815.3  " style="stroke-opacity: 1.000000; stroke-width: 5.0; stroke: rgb(107,174,214); fill: none"  />
<path d="M 2138.8,842.4 L 2113.4,868.0 2087.7,893.1 2061.8,917.5 2035.7,940.9 2009.6,963.1 1983.5,984.2 1957.6,1003.8 1932.0,1021.8 1906.7,1038.2 1881.9,1052.7 1857.6,1065.3 1833.9,1075.9 1810.9,1084.5 1788.6,1090.8 1767.0,1095.0 1746.3,1096.9 1726.5,1096.5 1707.6,1093.7 1689.7,1088.7 1672.8,1081.3 1656.9,1071.6 1642.1,1059.6 1628.4,1045.3 1615.7,1028.9 1604.1,1010.3 1593.6,989.6 1584.2,966.9 1575.9,942.2 1568.6,915.8 1562.4,887.7 1557.3,858.1 1553.1,827.1 1549.9,794.8 1547.6,761.4 1546.2,727.0 1545.6,692.0 1545.9,656.4 1546.8,620.5 1548.4,584.5  " style="stroke-opacity: 1.000000; stroke-width: 5.0; stroke: rgb(107,174,214); fill: none"  />
<path d="M 2138.8,842.4 L 2113.7,867.8 2088.5,892.8 2063.1,917.0 2037.8,940.4 2012.6,962.7 1987.7,983.8 1963.2,1003.5 1939.2,1021.7 1915.8,1038.2 1893.1,1053.0 1871.1,1066.0 1850.0,1076.9 1829.8,1085.8 1810.6,1092.6 1792.4,1097.2 1775.3,1099.6 1759.4,1099.8 1744.6,1097.6 1731.1,1093.2 1718.8,1086.4 1707.8,1077.4 1698.0,1066.1 1689.6,1052.6 1682.4,1036.9 1676.5,1019.1 1671.9,999.3 1668.6,977.4 1666.5,953.7 1665.6,928.3 1665.8,901.1 1667.2,872.5 1669.6,842.5 1673.1,811.2 1677.5,778.9 1682.8,745.7 1688.8,711.8 1695.6,677.3 1703.1,642.6 1711.1,607.9  " style="stroke-opacity: 1.000000; stroke-width: 5.0; stroke: rgb(107,174,214); fill: none"  />
<path d="M 2138.8,842.4 L 2114.0,867.7 2089.1,892.6 2064.3,916.9 2039.7,940.3 2015.4,962.8 1991.6,984.2 1968.4,1004.3 1946.0,1023.0 1924.3,1040.1 1903.6,1055.5 1883.8,1069.1 1865.2,1080.9 1847.7,1090.7 1831.5,1098.5 1816.6,1104.2 1803.0,1107.8 1790.8,1109.1 1780.0,1108.3 1770.7,1105.3 1762.9,1100.0 1756.6,1092.6 1751.7,1082.9 1748.4,1071.1 1746.6,1057.2 1746.2,1041.2 1747.2,1023.2 1749.7,1003.4 1753.6,981.7 1758.7,958.2 1765.2,933.2 1772.8,906.7 1781.6,878.8 1791.4,849.8 1802.2,819.7 1813.8,788.7 1826.3,757.0 1839.3,724.9 1852.9,692.4 1867.0,659.9  " style="stroke-opacity: 1.000000; stroke-width: 5.0; stroke: rgb(107,174,214); fill: none"  />
<path d="M 1059.2,2303.8 L 1076.4,2272.8 1093.7,2242.2 1111.2,2212.2 1128.7,2183.1 1146.1,2154.9 1163.3,2128.0 1180.3,2102.4 1197.0,2078.5 1213.4,2056.2 1229.2,2035.8 1244.6,2017.4 1259.4,2001.1 1273.7,1987.0 1287.2,1975.2 1300.1,1965.8 1312.3,1958.7 1323.7,1954.1 1334.2,1952.1 1344.0,1952.5 1353.0,1955.5 1361.1,1961.0 1368.3,1969.0 1374.6,1979.5 1380.1,1992.5 1384.7,2007.8 1388.5,2025.4 1391.4,2045.2 1393.5,2067.1 1394.7,2091.1 1395.2,2116.9 1394.9,2144.5 1393.8,2173.7 1392.1,2204.3 1389.7,2236.2 1386.7,2269.2 1383.2,2303.0 1379.1,2337.5 1374.6,2372.4 1369.8,2407.5  " style="stroke-opacity: 1.000000; stroke-width: 5.0; stroke: rgb(107,174,214); fill: none"  />
<path d="M 1059.2,2303.8 L 1076.1,2272.9 1092.7,2242.0 1108.9,2211.6 1124.5,2181.7 1139.5,2152.6 1153.7,2124.4 1167.0,2097.3 1179.4,2071.4 1190.7,2047.0 1200.8,2024.1 1209.8,2002.9 1217.4,1983.5 1223.7,1966.0 1228.7,1950.4 1232.2,1936.8 1234.3,1925.4 1234.8,1916.1 1233.9,1909.0 1231.5,1904.1 1227.6,1901.5 1222.1,1901.1 1215.2,1902.9 1206.8,1906.9 1197.0,1913.2 1185.8,1921.6 1173.2,1932.0 1159.4,1944.5 1144.3,1959.0 1128.0,1975.3 1110.7,1993.3 1092.4,2013.0 1073.2,2034.2 1053.1,2056.8 1032.4,2080.6 1011.1,2105.5 989.3,2131.3 967.3,2157.8 945.0,2184.9 922.8,2212.2  " style="stroke-opacity: 1.000000; stroke-width: 5.0; stroke: rgb(107,174,214); fill: none"  />
<path d="M 922.8,2212.2 L 945.4,2184.6 968.3,2157.5 991.4,2131.1 1014.5,2105.6 1037.6,2081.1 1060.5,2057.9 1083.1,2036.0 1105.4,2015.8 1127.3,1997.2 1148.6,1980.4 1169.3,1965.6 1189.4,1952.8 1208.7,1942.1 1227.2,1933.6 1244.9,1927.3 1261.7,1923.4 1277.6,1921.9 1292.4,1922.7 1306.3,1925.9 1319.2,1931.5 1330.9,1939.5 1341.7,1949.9 1351.3,1962.6 1359.8,1977.5 1367.3,1994.8 1373.6,2014.1 1378.9,2035.6 1383.2,2059.0 1386.4,2084.3 1388.5,2111.3 1389.7,2140.0 1390.0,2170.1 1389.4,2201.5 1387.9,2234.1 1385.6,2267.7 1382.6,2302.0 1378.9,2336.9 1374.6,2372.1 1369.8,2407.5  " style="stroke-opacity: 1.000000; stroke-width: 5.0; stroke: rgb(107,174,214); fill: none"  />
<path d="M 922.8,2212.2 L 945.2,2184.8 967.7,2157.8 990.3,2131.4 1012.7,2105.8 1034.8,2081.2 1056.6,2057.8 1077.9,2035.7 1098.6,2015.1 1118.6,1996.1 1137.9,1978.9 1156.3,1963.5 1173.8,1950.1 1190.3,1938.8 1205.8,1929.6 1220.2,1922.6 1233.4,1917.8 1245.4,1915.4 1256.2,1915.2 1265.7,1917.4 1274.0,1921.9 1281.0,1928.8 1286.7,1938.0 1291.0,1949.4 1294.1,1963.1 1295.9,1979.0 1296.5,1997.0 1295.8,2017.0 1293.9,2039.0 1290.9,2062.8 1286.7,2088.3 1281.5,2115.4 1275.2,2143.9 1268.1,2173.7 1260.0,2204.7 1251.2,2236.6 1241.7,2269.2 1231.5,2302.4 1220.9,2336.0 1209.8,2369.6  " style="stroke-opacity: 1.000000; stroke-width: 5.0; stroke: rgb(107,174,214); fill: none"  />
<path d="M 922.8,2212.2 L 945.0,2184.9 967.3,2157.8 989.3,2131.3 1011.1,2105.5 1032.4,2080.6 1053.1,2056.8 1073.2,2034.2 1092.4,2013.0 1110.7,1993.3 1128.0,1975.3 1144.3,1959.0 1159.4,1944.5 1173.2,1932.0 1185.8,1921.6 1197.0,1913.2 1206.8,1906.9 1215.2,1902.9 1222.1,1901.1 1227.6,1901.5 1231.5,1904.1 1233.9,1909.0 1234.8,1916.1 1234.3,1925.4 1232.2,1936.8 1228.7,1950.4 1223.7,1966.0 1217.4,1983.5 1209.8,2002.9 1200.8,2024.1 1190.7,2047.0 1179.4,2071.4 1167.0,2097.3 1153.7,2124.4 1139.5,2152.6 1124.5,2181.7 1108.9,2211.6 1092.7,2242.0 1076.1,2272.9 1059.2,2303.8  " style="stroke-opacity: 1.000000; stroke-width: 5.0; stroke: rgb(107,174,214); fill: none"  />
<path d="M 922.8,2212.2 L 945.0,2184.3 966.8,2156.3 987.9,2128.2 1008.1,2100.3 1027.2,2072.7 1045.2,2045.5 1061.9,2018.8 1077.1,1992.8 1090.8,1967.6 1102.8,1943.3 1113.0,1919.9 1121.4,1897.7 1127.8,1876.5 1132.3,1856.6 1134.7,1838.0 1135.1,1820.8 1133.3,1805.0 1129.5,1790.6 1123.4,1777.7 1115.3,1766.3 1105.0,1756.4 1092.7,1748.1 1078.3,1741.3 1061.8,1736.0 1043.4,1732.3 1023.2,1730.1 1001.1,1729.3 977.3,1730.0 951.9,1732.2 925.0,1735.6 896.7,1740.4 867.2,1746.4 836.6,1753.5 805.0,1761.7 772.7,1770.9 739.7,1780.9 706.3,1791.8 672.8,1803.3 639.2,1815.3  " style="stroke-opacity: 1.000000; stroke-width: 5.0; stroke: rgb(107,174,214); fill: none"  />
<path d="M 1072.0,689.3 L 1088.4,721.0 1104.3,752.7 1119.6,784.3 1134.0,815.6 1147.4,846.4 1159.8,876.6 1170.9,906.0 1180.8,934.5 1189.3,961.8 1196.4,988.0 1201.9,1012.9 1205.8,1036.4 1208.0,1058.4 1208.5,1078.8 1207.3,1097.5 1204.3,1114.5 1199.5,1129.7 1192.9,1143.0 1184.5,1154.5 1174.3,1164.1 1162.3,1171.8 1148.6,1177.6 1133.1,1181.5 1116.0,1183.4 1097.2,1183.5 1076.9,1181.7 1055.1,1178.2 1031.9,1172.9 1007.4,1165.9 981.7,1157.2 954.9,1147.1 927.1,1135.5 898.4,1122.6 869.0,1108.4 839.1,1093.1 808.7,1076.8 778.1,1059.7 747.4,1041.9 716.8,1023.6  " style="stroke-opacity: 1.000000; stroke-width: 5.0; stroke: rgb(107,174,214); fill: none"  />
<path d="M 1696.9,2395.4 L 1689.5,2360.7 1682.4,2326.3 1675.8,2292.2 1669.8,2258.7 1664.4,2226.0 1659.6,2194.4 1655.6,2164.0 1652.4,2135.0 1650.1,2107.5 1648.6,2081.7 1648.1,2057.7 1648.6,2035.7 1650.0,2015.7 1652.4,1997.9 1655.9,1982.3 1660.4,1969.0 1666.0,1958.0 1672.6,1949.5 1680.3,1943.4 1689.0,1939.8 1698.7,1938.6 1709.4,1939.9 1721.1,1943.6 1733.7,1949.7 1747.3,1958.2 1761.7,1969.0 1776.9,1982.0 1792.9,1997.2 1809.6,2014.4 1826.9,2033.5 1844.9,2054.5 1863.3,2077.2 1882.1,2101.4 1901.3,2127.0 1920.7,2153.8 1940.3,2181.6 1960.0,2210.2 1979.5,2239.4 1999.0,2269.1  " style="stroke-opacity: 1.000000; stroke-width: 5.0; stroke: rgb(107,174,214); fill: none"  />
<path d="M 1696.9,2395.4 L 1689.3,2360.9 1681.5,2326.8 1673.6,2293.2 1665.7,2260.4 1657.9,2228.6 1650.0,2198.0 1642.2,2168.9 1634.5,2141.3 1627.0,2115.5 1619.6,2091.6 1612.3,2069.7 1605.3,2050.0 1598.5,2032.7 1592.0,2017.7 1585.7,2005.2 1579.7,1995.2 1574.1,1987.8 1568.7,1983.1 1563.7,1981.0 1559.0,1981.6 1554.6,1984.9 1550.6,1990.8 1547.0,1999.4 1543.7,2010.5 1540.7,2024.2 1538.2,2040.4 1536.0,2058.9 1534.1,2079.7 1532.6,2102.6 1531.4,2127.6 1530.6,2154.5 1530.0,2183.1 1529.8,2213.3 1529.9,2244.9 1530.2,2277.7 1530.8,2311.4 1531.6,2345.9 1532.7,2380.9 1533.9,2416.1  " style="stroke-opacity: 1.000000; stroke-width: 5.0; stroke: rgb(107,174,214); fill: none"  />
<path d="M 1533.9,2416.1 L 1532.8,2380.5 1532.2,2345.0 1532.2,2309.9 1532.8,2275.5 1534.1,2241.8 1536.1,2209.3 1538.8,2177.9 1542.2,2148.0 1546.4,2119.7 1551.4,2093.0 1557.3,2068.2 1563.9,2045.3 1571.5,2024.6 1579.8,2006.0 1589.1,1989.7 1599.1,1975.7 1610.0,1964.0 1621.8,1954.9 1634.4,1948.2 1647.7,1943.9 1661.9,1942.2 1676.7,1943.0 1692.3,1946.2 1708.6,1951.9 1725.6,1959.9 1743.1,1970.3 1761.2,1983.0 1779.8,1997.8 1798.8,2014.8 1818.3,2033.7 1838.0,2054.5 1858.0,2077.0 1878.3,2101.1 1898.6,2126.6 1918.9,2153.4 1939.2,2181.2 1959.4,2209.9 1979.3,2239.3 1999.0,2269.1  " style="stroke-opacity: 1.000000; stroke-width: 5.0; stroke: rgb(107,174,214); fill: none"  />
<path d="M 1533.9,2416.1 L 1532.7,2380.7 1531.9,2345.5 1531.5,2310.8 1531.6,2276.8 1532.1,2243.7 1533.1,2211.8 1534.6,2181.1 1536.6,2152.0 1539.2,2124.5 1542.4,2098.9 1546.2,2075.2 1550.5,2053.6 1555.5,2034.2 1561.1,2017.1 1567.3,2002.3 1574.1,1990.1 1581.5,1980.3 1589.6,1973.1 1598.2,1968.5 1607.4,1966.4 1617.2,1967.0 1627.5,1970.2 1638.3,1975.9 1649.7,1984.2 1661.5,1995.0 1673.7,2008.2 1686.4,2023.7 1699.4,2041.5 1712.8,2061.4 1726.4,2083.4 1740.3,2107.2 1754.4,2132.8 1768.6,2160.0 1782.9,2188.6 1797.2,2218.4 1811.6,2249.2 1825.8,2280.9 1839.8,2313.2 1853.6,2345.8  " style="stroke-opacity: 1.000000; stroke-width: 5.0; stroke: rgb(107,174,214); fill: none"  />
<path d="M 1533.9,2416.1 L 1532.7,2380.9 1531.6,2345.9 1530.8,2311.4 1530.2,2277.7 1529.9,2244.9 1529.8,2213.3 1530.0,2183.1 1530.6,2154.5 1531.4,2127.6 1532.6,2102.6 1534.1,2079.7 1536.0,2058.9 1538.2,2040.4 1540.7,2024.2 1543.7,2010.5 1547.0,1999.4 1550.6,1990.8 1554.6,1984.9 1559.0,1981.6 1563.7,1981.0 1568.7,1983.1 1574.1,1987.8 1579.7,1995.2 1585.7,2005.2 1592.0,2017.7 1598.5,2032.7 1605.3,2050.0 1612.3,2069.7 1619.6,2091.6 1627.0,2115.5 1634.5,2141.3 1642.2,2168.9 1650.0,2198.0 1657.9,2228.6 1665.7,2260.4 1673.6,2293.2 1681.5,2326.8 1689.3,2360.9 1696.9,2395.4  " style="stroke-opacity: 1.000000; stroke-width: 5.0; stroke: rgb(107,174,214); fill: none"  />
<path d="M 709.3,1964.0 L 739.7,1946.0 769.8,1928.1 799.3,1910.2 828.0,1892.6 855.8,1875.3 882.5,1858.4 907.8,1841.9 931.7,1826.1 953.9,1810.9 974.3,1796.5 992.9,1782.9 1009.4,1770.1 1023.9,1758.3 1036.1,1747.5 1046.1,1737.6 1053.7,1728.9 1059.0,1721.2 1061.8,1714.6 1062.2,1709.2 1060.2,1704.9 1055.8,1701.8 1048.9,1699.8 1039.6,1699.0 1028.0,1699.3 1014.0,1700.7 997.9,1703.3 979.6,1706.9 959.2,1711.6 936.9,1717.2 912.8,1723.8 887.0,1731.3 859.6,1739.7 830.8,1748.8 800.8,1758.6 769.7,1769.0 737.8,1780.0 705.3,1791.5 672.3,1803.3 639.2,1815.3  " style="stroke-opacity: 1.000000; stroke-width: 5.0; stroke: rgb(107,174,214); fill: none"  />
<path d="M 639.2,1815.3 L 673.5,1803.1 708.1,1791.7 742.7,1781.1 777.2,1771.5 811.4,1763.0 845.1,1755.8 878.3,1749.8 910.7,1745.3 942.3,1742.2 972.9,1740.6 1002.4,1740.7 1030.8,1742.4 1057.9,1745.8 1083.6,1751.0 1107.9,1757.9 1130.7,1766.6 1151.9,1777.1 1171.5,1789.3 1189.5,1803.4 1205.8,1819.2 1220.3,1836.8 1233.1,1856.0 1244.2,1876.9 1253.6,1899.5 1261.2,1923.5 1267.1,1949.1 1271.3,1976.1 1273.8,2004.4 1274.8,2033.9 1274.1,2064.5 1272.0,2096.2 1268.3,2128.7 1263.4,2162.0 1257.1,2195.9 1249.6,2230.4 1241.0,2265.1 1231.5,2300.0 1221.0,2334.9 1209.8,2369.6  " style="stroke-opacity: 1.000000; stroke-width: 5.0; stroke: rgb(107,174,214); fill: none"  />
<path d="M 639.2,1815.3 L 672.8,1803.3 706.3,1791.8 739.7,1780.9 772.7,1770.9 805.0,1761.7 836.6,1753.5 867.2,1746.4 896.7,1740.4 925.0,1735.6 951.9,1732.2 977.3,1730.0 1001.1,1729.3 1023.2,1730.1 1043.4,1732.3 1061.8,1736.0 1078.3,1741.3 1092.7,1748.1 1105.0,1756.4 1115.3,1766.3 1123.4,1777.7 1129.5,1790.6 1133.3,1805.0 1135.1,1820.8 1134.7,1838.0 1132.3,1856.6 1127.8,1876.5 1121.4,1897.7 1113.0,1919.9 1102.8,1943.3 1090.8,1967.6 1077.1,1992.8 1061.9,2018.8 1045.2,2045.5 1027.2,2072.7 1008.1,2100.3 987.9,2128.2 966.8,2156.3 945.0,2184.3 922.8,2212.2  " style="stroke-opacity: 1.000000; stroke-width: 5.0; stroke: rgb(107,174,214); fill: none"  />
<path d="M 639.2,1815.3 L 672.3,1803.3 705.3,1791.5 737.8,1780.0 769.7,1769.0 800.8,1758.6 830.8,1748.8 859.6,1739.7 887.0,1731.3 912.8,1723.8 936.9,1717.2 959.2,1711.6 979.6,1706.9 997.9,1703.3 1014.0,1700.7 1028.0,1699.3 1039.6,1699.0 1048.9,1699.8 1055.8,1701.8 1060.2,1704.9 1062.2,1709.2 1061.8,1714.6 1059.0,1721.2 1053.7,1728.9 1046.1,1737.6 1036.1,1747.5 1023.9,1758.3 1009.4,1770.1 992.9,1782.9 974.3,1796.5 953.9,1810.9 931.7,1826.1 907.8,1841.9 882.5,1858.4 855.8,1875.3 828.0,1892.6 799.3,1910.2 769.8,1928.1 739.7,1946.0 709.3,1964.0  " style="stroke-opacity: 1.000000; stroke-width: 5.0; stroke: rgb(107,174,214); fill: none"  />
</g>
<defs>
<pattern id="hline-sparse" width="10" height="10" patternTransform="rotate(0 0 0)" patternUnits="userSpaceOnUse"><line x1="0" y1="0" x2="10" y2="0" style="stroke:black;stroke-width:2" /></pattern>
<pattern id="hline" width="10" height="10" patternTransform="rotate(0 0 0)" patternUnits="userSpaceOnUse"><line x1="0" y1="0" x2="10" y2="0" style="stroke:black;stroke-width:5" /></pattern>
<pattern id="vline-sparse" width="10" height="10" patternTransform="rotate(0 0 0)" patternUnits="userSpaceOnUse"><line x1="0" y1="0" x2="0" y2="10" style="stroke:black;stroke-width:2" /></pattern>
<pattern id="checker" width="10" height="10" patternTransform="rotate(45 0 0)" patternUnits="userSpaceOnUse"><line x1="0" y1="0" x2="10" y2="0" style="stroke:black;stroke-width:5" /><line x1="0" y1="0" x2="0" y2="10" style="stroke:black;stroke-width:4" /></pattern>
<pattern id="checker" width="10" height="10" patternTransform="rotate(45 0 0)" patternUnits="userSpaceOnUse"><line x1="0" y1="0" x2="10" y2="0" style="stroke:black;stroke-width:2" /><line x1="0" y1="0" x2="0" y2="10" style="stroke:black;stroke-width:2" /></pattern>
<pattern id="vline" width="10" height="10" patternTransform="rotate(0 0 0)" patternUnits="userSpaceOnUse"><line x1="0" y1="0" x2="0" y2="10" style="stroke:black;stroke-width:5" /></pattern>
</defs>
</svg>
