<?xml version="1.0" encoding="utf-8" standalone="no"?>
<!DOCTYPE svg PUBLIC "-//W3C//DTD SVG 1.1//EN" "http://www.w3.org/Graphics/SVG/1.1/DTD/svg11.dtd">
<svg width="3000px" height="3000px" version="1.1" xmlns="http://www.w3.org/2000/svg" xmlns:xlink="http://www.w3.org/1999/xlink">
<g id="bg">
<rect x="0" y="0" width="3000px" height="3000px" style="fill:rgb(255,255,255);"/>
</g>
<g id="ideograms">
<path d="M1500.000,535.000 A965.000,965.000 40.000 0,1 1601.714,540.376 L1618.579,381.267 A1125.000,1125.000 0.000 0,0 1500.000,375.000 Z" style="stroke-width:2.0;stroke:rgb(115,115,115);stroke-linecap:round;fill:rgb(153,204,255);" />
<text x="1635.1" y="307.6" font-size="195.0px" font-family="CMUBright-Bold" style="text-anchor:start;fill:rgb(0,0,0);" transform="rotate(273.0,1635.1,307.6)" >5</text>
<path d="M1500.000,535.000 A965.000,965.000 40.000 0,1 1601.714,540.376 L1618.579,381.267 A1125.000,1125.000 0.000 0,0 1500.000,375.000 Z" style="stroke-width:2.0;stroke:rgb(115,115,115);stroke-linecap:round;fill:none;" />
<path d="M1672.307,550.508 A965.000,965.000 40.000 0,1 1771.427,573.959 L1816.431,420.418 A1125.000,1125.000 0.000 0,0 1700.877,393.079 Z" style="stroke-width:2.0;stroke:rgb(115,115,115);stroke-linecap:round;fill:rgb(153,204,255);" />
<text x="1847.7" y="351.5" font-size="195.0px" font-family="CMUBright-Bold" style="text-anchor:start;fill:rgb(0,0,0);" transform="rotate(283.3,1847.7,351.5)" >8</text>
<path d="M1672.307,550.508 A965.000,965.000 40.000 0,1 1771.427,573.959 L1816.431,420.418 A1125.000,1125.000 0.000 0,0 1700.877,393.079 Z" style="stroke-width:2.0;stroke:rgb(115,115,115);stroke-linecap:round;fill:none;" />
<path d="M1839.077,596.533 A965.000,965.000 40.000 0,1 1932.417,637.306 L2004.113,494.269 A1125.000,1125.000 0.000 0,0 1895.297,446.736 Z" style="stroke-width:2.0;stroke:rgb(115,115,115);stroke-linecap:round;fill:rgb(153,204,255);" />
<text x="2047.2" y="432.0" font-size="195.0px" font-family="CMUBright-Bold" style="text-anchor:start;fill:rgb(0,0,0);" transform="rotate(293.6,2047.2,432.0)" >10</text>
<path d="M1839.077,596.533 A965.000,965.000 40.000 0,1 1932.417,637.306 L2004.113,494.269 A1125.000,1125.000 0.000 0,0 1895.297,446.736 Z" style="stroke-width:2.0;stroke:rgb(115,115,115);stroke-linecap:round;fill:none;" />
<path d="M1994.948,671.597 A965.000,965.000 40.000 0,1 2079.507,728.381 L2175.592,600.444 A1125.000,1125.000 0.000 0,0 2077.012,534.245 Z" style="stroke-width:2.0;stroke:rgb(115,115,115);stroke-linecap:round;fill:rgb(153,204,255);" />
<text x="2229.1" y="546.9" font-size="195.0px" font-family="CMUBright-Bold" style="text-anchor:start;fill:rgb(0,0,0);" transform="rotate(303.9,2229.1,546.9)" >19</text>
<path d="M1994.948,671.597 A965.000,965.000 40.000 0,1 2079.507,728.381 L2175.592,600.444 A1125.000,1125.000 0.000 0,0 2077.012,534.245 Z" style="stroke-width:2.0;stroke:rgb(115,115,115);stroke-linecap:round;fill:none;" />
<path d="M2134.911,773.286 A965.000,965.000 40.000 0,1 2207.972,844.256 L2325.356,735.532 A1125.000,1125.000 0.000 0,0 2240.181,652.795 Z" style="stroke-width:2.0;stroke:rgb(115,115,115);stroke-linecap:round;fill:rgb(153,204,255);" />
<text x="2386.2" y="690.9" font-size="195.0px" font-family="CMUBright-Bold" style="text-anchor:start;fill:rgb(0,0,0);" transform="rotate(314.2,2386.2,690.9)" >21</text>
<path d="M2134.911,773.286 A965.000,965.000 40.000 0,1 2207.972,844.256 L2325.356,735.532 A1125.000,1125.000 0.000 0,0 2240.181,652.795 Z" style="stroke-width:2.0;stroke:rgb(115,115,115);stroke-linecap:round;fill:none;" />
<path d="M2254.467,898.332 A965.000,965.000 40.000 0,1 2313.683,981.207 L2448.594,895.190 A1125.000,1125.000 0.000 0,0 2379.560,798.574 Z" style="stroke-width:2.0;stroke:rgb(115,115,115);stroke-linecap:round;fill:rgb(153,204,255);" />
<text x="2517.5" y="863.9" font-size="195.0px" font-family="CMUBright-Bold" style="text-anchor:start;fill:rgb(0,0,0);" transform="rotate(324.5,2517.5,863.9)" >26</text>
<path d="M2254.467,898.332 A965.000,965.000 40.000 0,1 2313.683,981.207 L2448.594,895.190 A1125.000,1125.000 0.000 0,0 2379.560,798.574 Z" style="stroke-width:2.0;stroke:rgb(115,115,115);stroke-linecap:round;fill:none;" />
<path d="M2349.775,1042.717 A965.000,965.000 40.000 0,1 2393.240,1134.833 L2541.342,1074.288 A1125.000,1125.000 0.000 0,0 2490.670,966.898 Z" style="stroke-width:2.0;stroke:rgb(115,115,115);stroke-linecap:round;fill:rgb(153,204,255);" />
<text x="2614.7" y="1055.8" font-size="195.0px" font-family="CMUBright-Bold" style="text-anchor:start;fill:rgb(0,0,0);" transform="rotate(334.7,2614.7,1055.8)" >35</text>
<path d="M2349.775,1042.717 A965.000,965.000 40.000 0,1 2393.240,1134.833 L2541.342,1074.288 A1125.000,1125.000 0.000 0,0 2490.670,966.898 Z" style="stroke-width:2.0;stroke:rgb(115,115,115);stroke-linecap:round;fill:none;" />
<path d="M2417.770,1201.799 A965.000,965.000 40.000 0,1 2444.089,1300.196 L2600.621,1267.068 A1125.000,1125.000 0.000 0,0 2569.939,1152.356 Z" style="stroke-width:2.0;stroke:rgb(115,115,115);stroke-linecap:round;fill:rgb(116,196,118);" />
<text x="2676.2" y="1262.0" font-size="195.0px" font-family="CMUBright-Bold" style="text-anchor:start;fill:rgb(0,0,0);" transform="rotate(345.0,2676.2,1262.0)" >3</text>
<path d="M2417.770,1201.799 A965.000,965.000 40.000 0,1 2444.089,1300.196 L2600.621,1267.068 A1125.000,1125.000 0.000 0,0 2569.939,1152.356 Z" style="stroke-width:2.0;stroke:rgb(115,115,115);stroke-linecap:round;fill:none;" />
<path d="M2456.267,1370.465 A965.000,965.000 40.000 0,1 2464.593,1471.980 L2624.526,1467.335 A1125.000,1125.000 0.000 0,0 2614.818,1348.988 Z" style="stroke-width:2.0;stroke:rgb(115,115,115);stroke-linecap:round;fill:rgb(116,196,118);" />
<text x="2699.7" y="1473.8" font-size="195.0px" font-family="CMUBright-Bold" style="text-anchor:start;fill:rgb(0,0,0);" transform="rotate(355.3,2699.7,1473.8)" >22</text>
<path d="M2456.267,1370.465 A965.000,965.000 40.000 0,1 2464.593,1471.980 L2624.526,1467.335 A1125.000,1125.000 0.000 0,0 2614.818,1348.988 Z" style="stroke-width:2.0;stroke:rgb(115,115,115);stroke-linecap:round;fill:none;" />
<path d="M2464.028,1543.295 A965.000,965.000 40.000 0,1 2454.095,1644.665 L2612.287,1668.651 A1125.000,1125.000 0.000 0,0 2623.867,1550.473 Z" style="stroke-width:2.0;stroke:rgb(115,115,115);stroke-linecap:round;fill:rgb(116,196,118);" />
<text x="2685.1" y="1688.4" font-size="195.0px" font-family="CMUBright-Bold" style="text-anchor:start;fill:rgb(0,0,0);" transform="rotate(5.6,2685.1,1688.4)" >24</text>
<path d="M2464.028,1543.295 A965.000,965.000 40.000 0,1 2454.095,1644.665 L2612.287,1668.651 A1125.000,1125.000 0.000 0,0 2623.867,1550.473 Z" style="stroke-width:2.0;stroke:rgb(115,115,115);stroke-linecap:round;fill:none;" />
<path d="M2440.805,1714.733 A965.000,965.000 40.000 0,1 2412.931,1812.701 L2564.298,1864.548 A1125.000,1125.000 0.000 0,0 2596.794,1750.336 Z" style="stroke-width:2.0;stroke:rgb(115,115,115);stroke-linecap:round;fill:rgb(116,196,118);" />
<text x="2631.8" y="1898.9" font-size="195.0px" font-family="CMUBright-Bold" style="text-anchor:start;fill:rgb(0,0,0);" transform="rotate(15.9,2631.8,1898.9)" >30</text>
<path d="M2440.805,1714.733 A965.000,965.000 40.000 0,1 2412.931,1812.701 L2564.298,1864.548 A1125.000,1125.000 0.000 0,0 2596.794,1750.336 Z" style="stroke-width:2.0;stroke:rgb(115,115,115);stroke-linecap:round;fill:none;" />
<path d="M2387.344,1879.269 A965.000,965.000 40.000 0,1 2342.425,1970.686 L2482.102,2048.727 A1125.000,1125.000 0.000 0,0 2534.469,1942.153 Z" style="stroke-width:2.0;stroke:rgb(115,115,115);stroke-linecap:round;fill:rgb(116,196,118);" />
<text x="2542.3" y="2094.6" font-size="195.0px" font-family="CMUBright-Bold" style="text-anchor:start;fill:rgb(0,0,0);" transform="rotate(26.2,2542.3,2094.6)" >33</text>
<path d="M2387.344,1879.269 A965.000,965.000 40.000 0,1 2342.425,1970.686 L2482.102,2048.727 A1125.000,1125.000 0.000 0,0 2534.469,1942.153 Z" style="stroke-width:2.0;stroke:rgb(115,115,115);stroke-linecap:round;fill:none;" />
<path d="M2305.363,2031.616 A965.000,965.000 40.000 0,1 2244.843,2113.542 L2368.340,2215.270 A1125.000,1125.000 0.000 0,0 2438.895,2119.759 Z" style="stroke-width:2.0;stroke:rgb(115,115,115);stroke-linecap:round;fill:rgb(153,0,204);" />
<text x="2420.7" y="2269.6" font-size="195.0px" font-family="CMUBright-Bold" style="text-anchor:start;fill:rgb(0,0,0);" transform="rotate(36.5,2420.7,2269.6)" >1</text>
<path d="M2305.363,2031.616 A965.000,965.000 40.000 0,1 2244.843,2113.542 L2368.340,2215.270 A1125.000,1125.000 0.000 0,0 2438.895,2119.759 Z" style="stroke-width:2.0;stroke:rgb(115,115,115);stroke-linecap:round;fill:none;" />
<path d="M2197.497,2166.875 A965.000,965.000 40.000 0,1 2123.321,2236.679 L2226.669,2358.823 A1125.000,1125.000 0.000 0,0 2313.144,2277.445 Z" style="stroke-width:2.0;stroke:rgb(115,115,115);stroke-linecap:round;fill:rgb(153,0,204);" />
<text x="2267.0" y="2422.9" font-size="195.0px" font-family="CMUBright-Bold" style="text-anchor:start;fill:rgb(0,0,0);" transform="rotate(46.7,2267.0,2422.9)" >9</text>
<path d="M2197.497,2166.875 A965.000,965.000 40.000 0,1 2123.321,2236.679 L2226.669,2358.823 A1125.000,1125.000 0.000 0,0 2313.144,2277.445 Z" style="stroke-width:2.0;stroke:rgb(115,115,115);stroke-linecap:round;fill:none;" />
<path d="M2067.213,2280.701 A965.000,965.000 40.000 0,1 1981.764,2336.139 L2061.642,2474.773 A1125.000,1125.000 0.000 0,0 2161.258,2410.144 Z" style="stroke-width:2.0;stroke:rgb(115,115,115);stroke-linecap:round;fill:rgb(153,0,204);" />
<text x="2089.8" y="2545.0" font-size="195.0px" font-family="CMUBright-Bold" style="text-anchor:start;fill:rgb(0,0,0);" transform="rotate(57.0,2089.8,2545.0)" >13</text>
<path d="M2067.213,2280.701 A965.000,965.000 40.000 0,1 1981.764,2336.139 L2061.642,2474.773 A1125.000,1125.000 0.000 0,0 2161.258,2410.144 Z" style="stroke-width:2.0;stroke:rgb(115,115,115);stroke-linecap:round;fill:none;" />
<path d="M1918.698,2369.435 A965.000,965.000 40.000 0,1 1824.724,2408.724 L1878.564,2559.393 A1125.000,1125.000 0.000 0,0 1988.119,2513.590 Z" style="stroke-width:2.0;stroke:rgb(115,115,115);stroke-linecap:round;fill:rgb(153,0,204);" />
<text x="1894.7" y="2633.2" font-size="195.0px" font-family="CMUBright-Bold" style="text-anchor:start;fill:rgb(0,0,0);" transform="rotate(67.3,1894.7,2633.2)" >17</text>
<path d="M1918.698,2369.435 A965.000,965.000 40.000 0,1 1824.724,2408.724 L1878.564,2559.393 A1125.000,1125.000 0.000 0,0 1988.119,2513.590 Z" style="stroke-width:2.0;stroke:rgb(115,115,115);stroke-linecap:round;fill:none;" />
<path d="M1756.726,2430.224 A965.000,965.000 40.000 0,1 1657.246,2452.102 L1683.318,2609.964 A1125.000,1125.000 0.000 0,0 1799.291,2584.458 Z" style="stroke-width:2.0;stroke:rgb(115,115,115);stroke-linecap:round;fill:rgb(153,0,204);" />
<text x="1685.0" y="2685.6" font-size="195.0px" font-family="CMUBright-Bold" style="text-anchor:start;fill:rgb(0,0,0);" transform="rotate(77.6,1685.0,2685.6)" >18</text>
<path d="M1756.726,2430.224 A965.000,965.000 40.000 0,1 1657.246,2452.102 L1683.318,2609.964 A1125.000,1125.000 0.000 0,0 1799.291,2584.458 Z" style="stroke-width:2.0;stroke:rgb(115,115,115);stroke-linecap:round;fill:none;" />
<path d="M1586.502,2461.115 A965.000,965.000 40.000 0,1 1484.715,2464.879 L1482.181,2624.859 A1125.000,1125.000 0.000 0,0 1600.844,2620.471 Z" style="stroke-width:2.0;stroke:rgb(115,115,115);stroke-linecap:round;fill:rgb(153,0,204);" />
<text x="1470.4" y="2699.6" font-size="195.0px" font-family="CMUBright-Bold" style="text-anchor:start;fill:rgb(0,0,0);" transform="rotate(87.9,1470.4,2699.6)" >28</text>
<path d="M1586.502,2461.115 A965.000,965.000 40.000 0,1 1484.715,2464.879 L1482.181,2624.859 A1125.000,1125.000 0.000 0,0 1600.844,2620.471 Z" style="stroke-width:2.0;stroke:rgb(115,115,115);stroke-linecap:round;fill:none;" />
<path d="M1413.498,2461.115 A965.000,965.000 40.000 0,1 1312.675,2446.644 L1281.616,2603.600 A1125.000,1125.000 0.000 0,0 1399.156,2620.471 Z" style="stroke-width:2.0;stroke:rgb(115,115,115);stroke-linecap:round;fill:rgb(153,0,204);" />
<text x="1403.0" y="2696.1" font-size="195.0px" font-family="CMUBright-Bold" style="text-anchor:end;fill:rgb(0,0,0);" transform="rotate(-81.8,1403.0,2696.1)" >34</text>
<path d="M1413.498,2461.115 A965.000,965.000 40.000 0,1 1312.675,2446.644 L1281.616,2603.600 A1125.000,1125.000 0.000 0,0 1399.156,2620.471 Z" style="stroke-width:2.0;stroke:rgb(115,115,115);stroke-linecap:round;fill:none;" />
<path d="M1243.274,2430.224 A965.000,965.000 40.000 0,1 1146.656,2397.983 L1088.070,2546.871 A1125.000,1125.000 0.000 0,0 1200.709,2584.458 Z" style="stroke-width:2.0;stroke:rgb(115,115,115);stroke-linecap:round;fill:rgb(253,208,162);" />
<text x="1189.1" y="2659.0" font-size="195.0px" font-family="CMUBright-Bold" style="text-anchor:end;fill:rgb(0,0,0);" transform="rotate(-71.5,1189.1,2659.0)" >12</text>
<path d="M1243.274,2430.224 A965.000,965.000 40.000 0,1 1146.656,2397.983 L1088.070,2546.871 A1125.000,1125.000 0.000 0,0 1200.709,2584.458 Z" style="stroke-width:2.0;stroke:rgb(115,115,115);stroke-linecap:round;fill:none;" />
<path d="M1081.302,2369.435 A965.000,965.000 40.000 0,1 991.993,2320.460 L907.764,2456.494 A1125.000,1125.000 0.000 0,0 1011.881,2513.590 Z" style="stroke-width:2.0;stroke:rgb(115,115,115);stroke-linecap:round;fill:rgb(253,208,162);" />
<text x="988.9" y="2585.7" font-size="195.0px" font-family="CMUBright-Bold" style="text-anchor:end;fill:rgb(0,0,0);" transform="rotate(-61.3,988.9,2585.7)" >16</text>
<path d="M1081.302,2369.435 A965.000,965.000 40.000 0,1 991.993,2320.460 L907.764,2456.494 A1125.000,1125.000 0.000 0,0 1011.881,2513.590 Z" style="stroke-width:2.0;stroke:rgb(115,115,115);stroke-linecap:round;fill:none;" />
<path d="M932.787,2280.701 A965.000,965.000 40.000 0,1 853.658,2216.566 L746.493,2335.375 A1125.000,1125.000 0.000 0,0 838.742,2410.144 Z" style="stroke-width:2.0;stroke:rgb(115,115,115);stroke-linecap:round;fill:rgb(253,208,162);" />
<text x="803.3" y="2477.0" font-size="195.0px" font-family="CMUBright-Bold" style="text-anchor:end;fill:rgb(0,0,0);" transform="rotate(-51.0,803.3,2477.0)" >20</text>
<path d="M932.787,2280.701 A965.000,965.000 40.000 0,1 853.658,2216.566 L746.493,2335.375 A1125.000,1125.000 0.000 0,0 838.742,2410.144 Z" style="stroke-width:2.0;stroke:rgb(115,115,115);stroke-linecap:round;fill:none;" />
<path d="M802.503,2166.875 A965.000,965.000 40.000 0,1 736.097,2089.642 L609.440,2187.406 A1125.000,1125.000 0.000 0,0 686.856,2277.445 Z" style="stroke-width:2.0;stroke:rgb(115,115,115);stroke-linecap:round;fill:rgb(253,208,162);" />
<text x="640.0" y="2336.9" font-size="195.0px" font-family="CMUBright-Bold" style="text-anchor:end;fill:rgb(0,0,0);" transform="rotate(-40.7,640.0,2336.9)" >25</text>
<path d="M802.503,2166.875 A965.000,965.000 40.000 0,1 736.097,2089.642 L609.440,2187.406 A1125.000,1125.000 0.000 0,0 686.856,2277.445 Z" style="stroke-width:2.0;stroke:rgb(115,115,115);stroke-linecap:round;fill:none;" />
<path d="M694.637,2031.616 A965.000,965.000 40.000 0,1 643.089,1943.766 L501.010,2017.344 A1125.000,1125.000 0.000 0,0 561.105,2119.759 Z" style="stroke-width:2.0;stroke:rgb(115,115,115);stroke-linecap:round;fill:rgb(253,208,162);" />
<text x="503.9" y="2169.1" font-size="195.0px" font-family="CMUBright-Bold" style="text-anchor:end;fill:rgb(0,0,0);" transform="rotate(-30.4,503.9,2169.1)" >27</text>
<path d="M694.637,2031.616 A965.000,965.000 40.000 0,1 643.089,1943.766 L501.010,2017.344 A1125.000,1125.000 0.000 0,0 561.105,2119.759 Z" style="stroke-width:2.0;stroke:rgb(115,115,115);stroke-linecap:round;fill:none;" />
<path d="M612.656,1879.269 A965.000,965.000 40.000 0,1 577.622,1783.627 L424.689,1830.653 A1125.000,1125.000 0.000 0,0 465.531,1942.153 Z" style="stroke-width:2.0;stroke:rgb(115,115,115);stroke-linecap:round;fill:rgb(253,208,162);" />
<text x="400.8" y="1981.4" font-size="195.0px" font-family="CMUBright-Bold" style="text-anchor:end;fill:rgb(0,0,0);" transform="rotate(-20.1,400.8,1981.4)" >29</text>
<path d="M612.656,1879.269 A965.000,965.000 40.000 0,1 577.622,1783.627 L424.689,1830.653 A1125.000,1125.000 0.000 0,0 465.531,1942.153 Z" style="stroke-width:2.0;stroke:rgb(115,115,115);stroke-linecap:round;fill:none;" />
<path d="M559.195,1714.733 A965.000,965.000 40.000 0,1 541.802,1614.372 L382.929,1633.336 A1125.000,1125.000 0.000 0,0 403.206,1750.336 Z" style="stroke-width:2.0;stroke:rgb(115,115,115);stroke-linecap:round;fill:rgb(253,141,60);" />
<text x="332.0" y="1775.4" font-size="195.0px" font-family="CMUBright-Bold" style="text-anchor:end;fill:rgb(0,0,0);" transform="rotate(-9.8,332.0,1775.4)" >2</text>
<path d="M559.195,1714.733 A965.000,965.000 40.000 0,1 541.802,1614.372 L382.929,1633.336 A1125.000,1125.000 0.000 0,0 403.206,1750.336 Z" style="stroke-width:2.0;stroke:rgb(115,115,115);stroke-linecap:round;fill:none;" />
<path d="M535.972,1543.295 A965.000,965.000 40.000 0,1 536.778,1441.441 L377.073,1431.732 A1125.000,1125.000 0.000 0,0 376.133,1550.473 Z" style="stroke-width:2.0;stroke:rgb(115,115,115);stroke-linecap:round;fill:rgb(253,141,60);" />
<text x="301.6" y="1562.5" font-size="195.0px" font-family="CMUBright-Bold" style="text-anchor:end;fill:rgb(0,0,0);" transform="rotate(0.5,301.6,1562.5)" >11</text>
<path d="M535.972,1543.295 A965.000,965.000 40.000 0,1 536.778,1441.441 L377.073,1431.732 A1125.000,1125.000 0.000 0,0 376.133,1550.473 Z" style="stroke-width:2.0;stroke:rgb(115,115,115);stroke-linecap:round;fill:none;" />
<path d="M543.733,1370.465 A965.000,965.000 40.000 0,1 562.714,1270.393 L407.309,1232.323 A1125.000,1125.000 0.000 0,0 385.182,1348.988 Z" style="stroke-width:2.0;stroke:rgb(115,115,115);stroke-linecap:round;fill:rgb(253,141,60);" />
<text x="309.7" y="1347.5" font-size="195.0px" font-family="CMUBright-Bold" style="text-anchor:end;fill:rgb(0,0,0);" transform="rotate(10.7,309.7,1347.5)" >14</text>
<path d="M543.733,1370.465 A965.000,965.000 40.000 0,1 562.714,1270.393 L407.309,1232.323 A1125.000,1125.000 0.000 0,0 385.182,1348.988 Z" style="stroke-width:2.0;stroke:rgb(115,115,115);stroke-linecap:round;fill:none;" />
<path d="M582.230,1201.799 A965.000,965.000 40.000 0,1 618.774,1106.724 L472.664,1041.517 A1125.000,1125.000 0.000 0,0 430.061,1152.356 Z" style="stroke-width:2.0;stroke:rgb(115,115,115);stroke-linecap:round;fill:rgb(253,141,60);" />
<text x="355.5" y="1139.3" font-size="195.0px" font-family="CMUBright-Bold" style="text-anchor:end;fill:rgb(0,0,0);" transform="rotate(21.0,355.5,1139.3)" >31</text>
<path d="M582.230,1201.799 A965.000,965.000 40.000 0,1 618.774,1106.724 L472.664,1041.517 A1125.000,1125.000 0.000 0,0 430.061,1152.356 Z" style="stroke-width:2.0;stroke:rgb(115,115,115);stroke-linecap:round;fill:none;" />
<path d="M650.225,1042.717 A965.000,965.000 40.000 0,1 703.158,955.695 L571.039,865.447 A1125.000,1125.000 0.000 0,0 509.330,966.898 Z" style="stroke-width:2.0;stroke:rgb(115,115,115);stroke-linecap:round;fill:rgb(253,141,60);" />
<text x="438.3" y="940.7" font-size="195.0px" font-family="CMUBright-Bold" style="text-anchor:end;fill:rgb(0,0,0);" transform="rotate(31.3,438.3,940.7)" >32</text>
<path d="M650.225,1042.717 A965.000,965.000 40.000 0,1 703.158,955.695 L571.039,865.447 A1125.000,1125.000 0.000 0,0 509.330,966.898 Z" style="stroke-width:2.0;stroke:rgb(115,115,115);stroke-linecap:round;fill:none;" />
<path d="M745.533,898.332 A965.000,965.000 40.000 0,1 813.153,822.160 L699.272,709.772 A1125.000,1125.000 0.000 0,0 620.440,798.574 Z" style="stroke-width:2.0;stroke:rgb(115,115,115);stroke-linecap:round;fill:rgb(66,146,198);" />
<text x="557.7" y="757.0" font-size="195.0px" font-family="CMUBright-Bold" style="text-anchor:end;fill:rgb(0,0,0);" transform="rotate(41.6,557.7,757.0)" >4</text>
<path d="M745.533,898.332 A965.000,965.000 40.000 0,1 813.153,822.160 L699.272,709.772 A1125.000,1125.000 0.000 0,0 620.440,798.574 Z" style="stroke-width:2.0;stroke:rgb(115,115,115);stroke-linecap:round;fill:none;" />
<path d="M865.089,773.286 A965.000,965.000 40.000 0,1 945.224,710.412 L853.241,579.496 A1125.000,1125.000 0.000 0,0 759.819,652.795 Z" style="stroke-width:2.0;stroke:rgb(115,115,115);stroke-linecap:round;fill:rgb(66,146,198);" />
<text x="702.5" y="603.4" font-size="195.0px" font-family="CMUBright-Bold" style="text-anchor:end;fill:rgb(0,0,0);" transform="rotate(51.9,702.5,603.4)" >6</text>
<path d="M865.089,773.286 A965.000,965.000 40.000 0,1 945.224,710.412 L853.241,579.496 A1125.000,1125.000 0.000 0,0 759.819,652.795 Z" style="stroke-width:2.0;stroke:rgb(115,115,115);stroke-linecap:round;fill:none;" />
<path d="M1005.052,671.597 A965.000,965.000 40.000 0,1 1095.126,624.042 L1027.997,478.806 A1125.000,1125.000 0.000 0,0 922.988,534.245 Z" style="stroke-width:2.0;stroke:rgb(115,115,115);stroke-linecap:round;fill:rgb(66,146,198);" />
<text x="878.0" y="473.8" font-size="195.0px" font-family="CMUBright-Bold" style="text-anchor:end;fill:rgb(0,0,0);" transform="rotate(62.2,878.0,473.8)" >7</text>
<path d="M1005.052,671.597 A965.000,965.000 40.000 0,1 1095.126,624.042 L1027.997,478.806 A1125.000,1125.000 0.000 0,0 922.988,534.245 Z" style="stroke-width:2.0;stroke:rgb(115,115,115);stroke-linecap:round;fill:none;" />
<path d="M1160.923,596.533 A965.000,965.000 40.000 0,1 1258.041,565.826 L1217.923,410.937 A1125.000,1125.000 0.000 0,0 1104.703,446.736 Z" style="stroke-width:2.0;stroke:rgb(115,115,115);stroke-linecap:round;fill:rgb(66,146,198);" />
<text x="1068.4" y="380.3" font-size="195.0px" font-family="CMUBright-Bold" style="text-anchor:end;fill:rgb(0,0,0);" transform="rotate(72.5,1068.4,380.3)" >15</text>
<path d="M1160.923,596.533 A965.000,965.000 40.000 0,1 1258.041,565.826 L1217.923,410.937 A1125.000,1125.000 0.000 0,0 1104.703,446.736 Z" style="stroke-width:2.0;stroke:rgb(115,115,115);stroke-linecap:round;fill:none;" />
<path d="M1327.693,550.508 A965.000,965.000 40.000 0,1 1428.732,537.635 L1416.916,378.072 A1125.000,1125.000 0.000 0,0 1299.123,393.079 Z" style="stroke-width:2.0;stroke:rgb(115,115,115);stroke-linecap:round;fill:rgb(66,146,198);" />
<text x="1275.3" y="321.2" font-size="195.0px" font-family="CMUBright-Bold" style="text-anchor:end;fill:rgb(0,0,0);" transform="rotate(82.7,1275.3,321.2)" >23</text>
<path d="M1327.693,550.508 A965.000,965.000 40.000 0,1 1428.732,537.635 L1416.916,378.072 A1125.000,1125.000 0.000 0,0 1299.123,393.079 Z" style="stroke-width:2.0;stroke:rgb(115,115,115);stroke-linecap:round;fill:none;" />
</g>
<g id="track_1">
<path d="M 2237.4,2044.7 L 2205.6,2020.7 2174.1,1995.6 2143.0,1969.7 2112.5,1942.8 2082.7,1915.1 2053.7,1886.4 2025.6,1856.9 1998.5,1826.5 1972.4,1795.3 1947.5,1763.3 1923.8,1730.5 1901.4,1696.9 1880.4,1662.7 1860.8,1627.8 1842.7,1592.2 1826.1,1556.0 1811.0,1519.2 1797.5,1481.9 1785.7,1444.1 1775.4,1405.8 1766.8,1367.1 1759.9,1328.1 1754.6,1288.7 1750.9,1249.0 1748.8,1209.2 1748.4,1169.1 1749.5,1129.0 1752.1,1088.7 1756.3,1048.5 1761.9,1008.3 1768.9,968.3 1777.3,928.4 1786.9,888.8 1797.7,849.4 1809.7,810.5 1822.7,772.0 1836.6,734.0 1851.4,696.6 1867.0,659.9  " style="stroke-opacity: 1.000000; stroke-width: 5.0; stroke: rgb(251,106,74); fill: none"  />
<path d="M 1072.0,689.3 L 1091.6,727.1 1110.7,765.6 1129.4,804.7 1147.5,844.4 1164.9,884.7 1181.7,925.6 1197.8,966.9 1213.1,1008.7 1227.6,1051.0 1241.2,1093.7 1254.0,1136.8 1265.8,1180.3 1276.7,1224.1 1286.6,1268.2 1295.5,1312.5 1303.4,1357.1 1310.3,1401.9 1316.1,1446.8 1320.9,1491.9 1324.6,1537.1 1327.2,1582.4 1328.8,1627.7 1329.3,1673.0 1328.8,1718.3 1327.2,1763.5 1324.6,1808.6 1321.0,1853.6 1316.4,1898.4 1310.9,1943.0 1304.4,1987.4 1297.0,2031.4 1288.7,2075.2 1279.6,2118.6 1269.7,2161.6 1259.0,2204.2 1247.6,2246.4 1235.6,2288.0 1223.0,2329.1 1209.8,2369.6  " style="stroke-opacity: 1.000000; stroke-width: 5.0; stroke: rgb(251,106,74); fill: none"  />
<path d="M 1711.1,607.9 L 1700.3,653.1 1689.5,698.5 1678.5,743.8 1667.5,789.2 1656.3,834.7 1645.0,880.1 1633.6,925.6 1622.1,971.2 1610.5,1016.7 1598.8,1062.2 1586.9,1107.8 1574.9,1153.4 1562.8,1198.9 1550.6,1244.5 1538.3,1290.0 1525.9,1335.5 1513.3,1381.0 1500.6,1426.5 1487.8,1472.0 1474.9,1517.4 1461.8,1562.8 1448.7,1608.1 1435.4,1653.5 1422.0,1698.7 1408.5,1743.9 1394.9,1789.1 1381.2,1834.2 1367.4,1879.2 1353.5,1924.2 1339.5,1969.1 1325.4,2013.9 1311.2,2058.7 1297.0,2103.4 1282.6,2148.0 1268.2,2192.5 1253.7,2236.9 1239.1,2281.2 1224.5,2325.5 1209.8,2369.6  " style="stroke-opacity: 1.000000; stroke-width: 5.0; stroke: rgb(251,106,74); fill: none"  />
<path d="M 1711.1,607.9 L 1700.5,652.2 1689.6,696.6 1678.4,741.1 1666.9,785.7 1655.0,830.5 1642.9,875.2 1630.4,920.1 1617.6,965.0 1604.4,1009.8 1590.9,1054.7 1577.1,1099.6 1562.9,1144.5 1548.3,1189.3 1533.4,1234.1 1518.2,1278.8 1502.6,1323.5 1486.6,1368.0 1470.3,1412.5 1453.6,1456.8 1436.7,1501.0 1419.3,1545.1 1401.7,1589.0 1383.7,1632.8 1365.4,1676.4 1346.7,1719.8 1327.8,1763.1 1308.6,1806.1 1289.1,1848.9 1269.3,1891.5 1249.2,1933.9 1229.0,1976.1 1208.4,2018.0 1187.7,2059.6 1166.7,2101.0 1145.5,2142.1 1124.2,2183.0 1102.6,2223.6 1081.0,2263.8 1059.2,2303.8  " style="stroke-opacity: 1.000000; stroke-width: 5.0; stroke: rgb(251,106,74); fill: none"  />
<path d="M 1711.1,607.9 L 1701.3,650.3 1692.0,693.3 1683.2,736.6 1675.0,780.4 1667.3,824.5 1660.3,869.0 1653.9,913.8 1648.2,958.9 1643.2,1004.3 1638.9,1049.9 1635.4,1095.6 1632.7,1141.6 1630.7,1187.7 1629.5,1233.9 1629.2,1280.1 1629.6,1326.5 1630.9,1372.8 1633.0,1419.2 1636.0,1465.5 1639.8,1511.8 1644.4,1558.0 1649.9,1604.1 1656.2,1650.1 1663.3,1695.9 1671.2,1741.5 1679.8,1786.9 1689.3,1832.0 1699.5,1876.9 1710.4,1921.5 1722.1,1965.8 1734.4,2009.7 1747.4,2053.2 1761.0,2096.4 1775.2,2139.2 1789.9,2181.5 1805.2,2223.3 1820.9,2264.7 1837.1,2305.5 1853.6,2345.8  " style="stroke-opacity: 1.000000; stroke-width: 5.0; stroke: rgb(251,106,74); fill: none"  />
<path d="M 1711.1,607.9 L 1700.4,653.2 1689.8,698.5 1679.3,744.0 1668.8,789.5 1658.4,835.2 1648.1,880.9 1637.9,926.7 1627.8,972.5 1617.8,1018.4 1607.9,1064.4 1598.1,1110.4 1588.3,1156.5 1578.7,1202.7 1569.2,1248.9 1559.9,1295.1 1550.6,1341.4 1541.4,1387.7 1532.4,1434.0 1523.5,1480.4 1514.7,1526.8 1506.0,1573.2 1497.4,1619.7 1489.0,1666.1 1480.7,1712.6 1472.5,1759.1 1464.4,1805.5 1456.4,1852.0 1448.6,1898.4 1440.9,1944.9 1433.3,1991.3 1425.8,2037.7 1418.4,2084.0 1411.1,2130.4 1404.0,2176.7 1396.9,2222.9 1390.0,2269.1 1383.1,2315.3 1376.4,2361.4 1369.8,2407.5  " style="stroke-opacity: 1.000000; stroke-width: 5.0; stroke: rgb(251,106,74); fill: none"  />
<path d="M 2128.3,2167.6 L 2100.7,2137.7 2073.4,2106.8 2046.8,2075.1 2020.7,2042.6 1995.3,2009.3 1970.7,1975.3 1947.0,1940.5 1924.3,1905.0 1902.6,1868.8 1882.0,1832.0 1862.5,1794.5 1844.3,1756.5 1827.3,1718.0 1811.6,1678.9 1797.3,1639.3 1784.4,1599.4 1772.9,1559.0 1762.8,1518.3 1754.2,1477.2 1747.0,1435.9 1741.3,1394.4 1737.1,1352.6 1734.4,1310.7 1733.1,1268.7 1733.3,1226.7 1734.9,1184.6 1737.9,1142.6 1742.3,1100.7 1748.0,1058.9 1755.0,1017.2 1763.3,975.9 1772.7,934.8 1783.4,894.0 1795.0,853.7 1807.7,813.8 1821.3,774.4 1835.8,735.6 1851.1,697.4 1867.0,659.9  " style="stroke-opacity: 1.000000; stroke-width: 5.0; stroke: rgb(251,106,74); fill: none"  />
<path d="M 2128.3,2167.6 L 2102.6,2141.0 2076.3,2114.9 2049.4,2089.6 2022.1,2065.2 1994.4,2041.9 1966.3,2019.9 1937.9,1999.3 1909.4,1980.3 1880.8,1962.9 1852.1,1947.2 1823.4,1933.5 1794.8,1921.7 1766.4,1911.9 1738.1,1904.2 1710.1,1898.7 1682.3,1895.4 1655.0,1894.3 1628.0,1895.5 1601.4,1898.9 1575.3,1904.7 1549.8,1912.7 1524.8,1922.9 1500.4,1935.4 1476.6,1950.0 1453.5,1966.8 1431.0,1985.6 1409.3,2006.5 1388.3,2029.2 1368.0,2053.7 1348.6,2079.9 1329.9,2107.7 1312.0,2137.0 1294.9,2167.6 1278.6,2199.3 1263.2,2232.1 1248.6,2265.7 1234.8,2299.9 1221.9,2334.6 1209.8,2369.6  " style="stroke-opacity: 1.000000; stroke-width: 5.0; stroke: rgb(251,106,74); fill: none"  />
<path d="M 2128.3,2167.6 L 2102.2,2140.5 2075.3,2114.0 2047.8,2088.2 2019.6,2063.4 1990.9,2039.6 1961.7,2017.0 1932.1,1995.7 1902.1,1975.9 1871.8,1957.7 1841.3,1941.2 1810.5,1926.4 1779.6,1913.5 1748.6,1902.6 1717.6,1893.6 1686.6,1886.7 1655.7,1881.9 1624.9,1879.3 1594.2,1878.8 1563.8,1880.4 1533.6,1884.3 1503.7,1890.3 1474.2,1898.5 1445.0,1908.8 1416.3,1921.2 1388.0,1935.6 1360.2,1952.0 1333.0,1970.4 1306.3,1990.6 1280.3,2012.6 1254.8,2036.3 1230.1,2061.5 1206.0,2088.2 1182.6,2116.2 1160.0,2145.4 1138.2,2175.7 1117.2,2206.8 1097.0,2238.6 1077.7,2271.1 1059.2,2303.8  " style="stroke-opacity: 1.000000; stroke-width: 5.0; stroke: rgb(251,106,74); fill: none"  />
<path d="M 2128.3,2167.6 L 2101.7,2140.0 2074.3,2113.0 2046.1,2086.7 2017.1,2061.2 1987.5,2036.7 1957.3,2013.3 1926.5,1991.1 1895.2,1970.3 1863.4,1951.0 1831.2,1933.3 1798.6,1917.2 1765.7,1902.8 1732.5,1890.3 1699.0,1879.6 1665.4,1870.8 1631.7,1863.9 1597.8,1859.1 1563.9,1856.3 1530.1,1855.5 1496.3,1856.7 1462.5,1860.0 1429.0,1865.4 1395.6,1872.7 1362.4,1882.0 1329.5,1893.2 1297.0,1906.4 1264.8,1921.4 1233.0,1938.1 1201.7,1956.6 1170.9,1976.6 1140.6,1998.3 1110.9,2021.3 1081.8,2045.6 1053.4,2071.2 1025.7,2097.8 998.8,2125.4 972.6,2153.7 947.2,2182.7 922.8,2212.2  " style="stroke-opacity: 1.000000; stroke-width: 5.0; stroke: rgb(251,106,74); fill: none"  />
<path d="M 2128.3,2167.6 L 2100.6,2138.9 2072.0,2110.6 2042.6,2082.8 2012.3,2055.7 1981.2,2029.4 1949.3,2004.0 1916.6,1979.6 1883.2,1956.3 1849.2,1934.1 1814.4,1913.1 1779.1,1893.5 1743.1,1875.2 1706.6,1858.4 1669.6,1843.1 1632.2,1829.3 1594.2,1817.1 1555.9,1806.5 1517.3,1797.6 1478.3,1790.3 1439.1,1784.7 1399.7,1780.7 1360.1,1778.4 1320.4,1777.8 1280.5,1778.9 1240.7,1781.5 1200.9,1785.8 1161.1,1791.7 1121.5,1799.1 1082.1,1808.0 1042.8,1818.3 1003.9,1830.0 965.3,1843.1 927.1,1857.3 889.3,1872.7 852.1,1889.2 815.4,1906.7 779.3,1925.0 743.9,1944.2 709.3,1964.0  " style="stroke-opacity: 1.000000; stroke-width: 5.0; stroke: rgb(251,106,74); fill: none"  />
<path d="M 1867.0,659.9 L 1851.4,696.6 1836.6,734.0 1822.7,772.0 1809.7,810.5 1797.7,849.4 1786.9,888.8 1777.3,928.4 1768.9,968.3 1761.9,1008.3 1756.3,1048.5 1752.1,1088.7 1749.5,1129.0 1748.4,1169.1 1748.8,1209.2 1750.9,1249.0 1754.6,1288.7 1759.9,1328.1 1766.8,1367.1 1775.4,1405.8 1785.7,1444.1 1797.5,1481.9 1811.0,1519.2 1826.1,1556.0 1842.7,1592.2 1860.8,1627.8 1880.4,1662.7 1901.4,1696.9 1923.8,1730.5 1947.5,1763.3 1972.4,1795.3 1998.5,1826.5 2025.6,1856.9 2053.7,1886.4 2082.7,1915.1 2112.5,1942.8 2143.0,1969.7 2174.1,1995.6 2205.6,2020.7 2237.4,2044.7  " style="stroke-opacity: 1.000000; stroke-width: 5.0; stroke: rgb(251,106,74); fill: none"  />
<path d="M 1867.0,659.9 L 1851.1,697.4 1835.8,735.6 1821.3,774.4 1807.7,813.8 1795.0,853.7 1783.4,894.0 1772.7,934.8 1763.3,975.9 1755.0,1017.2 1748.0,1058.9 1742.3,1100.7 1737.9,1142.6 1734.9,1184.6 1733.3,1226.7 1733.1,1268.7 1734.4,1310.7 1737.1,1352.6 1741.3,1394.4 1747.0,1435.9 1754.2,1477.2 1762.8,1518.3 1772.9,1559.0 1784.4,1599.4 1797.3,1639.3 1811.6,1678.9 1827.3,1718.0 1844.3,1756.5 1862.5,1794.5 1882.0,1832.0 1902.6,1868.8 1924.3,1905.0 1947.0,1940.5 1970.7,1975.3 1995.3,2009.3 2020.7,2042.6 2046.8,2075.1 2073.4,2106.8 2100.7,2137.7 2128.3,2167.6  " style="stroke-opacity: 1.000000; stroke-width: 5.0; stroke: rgb(251,106,74); fill: none"  />
<path d="M 1867.0,659.9 L 1850.7,698.2 1834.9,737.2 1819.9,776.9 1805.5,817.1 1792.0,857.8 1779.4,899.0 1767.6,940.7 1756.9,982.8 1747.1,1025.2 1738.5,1068.0 1731.0,1111.0 1724.6,1154.3 1719.4,1197.8 1715.4,1241.4 1712.6,1285.2 1711.1,1329.0 1710.8,1372.8 1711.8,1416.6 1714.1,1460.4 1717.7,1504.1 1722.6,1547.7 1728.7,1591.1 1736.1,1634.4 1744.8,1677.3 1754.6,1720.0 1765.7,1762.4 1777.9,1804.5 1791.2,1846.1 1805.7,1887.4 1821.2,1928.2 1837.7,1968.4 1855.2,2008.2 1873.5,2047.4 1892.8,2086.0 1912.7,2124.0 1933.4,2161.4 1954.7,2198.0 1976.6,2233.9 1999.0,2269.1  " style="stroke-opacity: 1.000000; stroke-width: 5.0; stroke: rgb(251,106,74); fill: none"  />
<path d="M 1209.8,2369.6 L 1223.0,2329.1 1235.6,2288.0 1247.6,2246.4 1259.0,2204.2 1269.7,2161.6 1279.6,2118.6 1288.7,2075.2 1297.0,2031.4 1304.4,1987.4 1310.9,1943.0 1316.4,1898.4 1321.0,1853.6 1324.6,1808.6 1327.2,1763.5 1328.8,1718.3 1329.3,1673.0 1328.8,1627.7 1327.2,1582.4 1324.6,1537.1 1320.9,1491.9 1316.1,1446.8 1310.3,1401.9 1303.4,1357.1 1295.5,1312.5 1286.6,1268.2 1276.7,1224.1 1265.8,1180.3 1254.0,1136.8 1241.2,1093.7 1227.6,1051.0 1213.1,1008.7 1197.8,966.9 1181.7,925.6 1164.9,884.7 1147.5,844.4 1129.4,804.7 1110.7,765.6 1091.6,727.1 1072.0,689.3  " style="stroke-opacity: 1.000000; stroke-width: 5.0; stroke: rgb(251,106,74); fill: none"  />
<path d="M 1209.8,2369.6 L 1224.5,2325.5 1239.1,2281.2 1253.7,2236.9 1268.2,2192.5 1282.6,2148.0 1297.0,2103.4 1311.2,2058.7 1325.4,2013.9 1339.5,1969.1 1353.5,1924.2 1367.4,1879.2 1381.2,1834.2 1394.9,1789.1 1408.5,1743.9 1422.0,1698.7 1435.4,1653.5 1448.7,1608.1 1461.8,1562.8 1474.9,1517.4 1487.8,1472.0 1500.6,1426.5 1513.3,1381.0 1525.9,1335.5 1538.3,1290.0 1550.6,1244.5 1562.8,1198.9 1574.9,1153.4 1586.9,1107.8 1598.8,1062.2 1610.5,1016.7 1622.1,971.2 1633.6,925.6 1645.0,880.1 1656.3,834.7 1667.5,789.2 1678.5,743.8 1689.5,698.5 1700.3,653.1 1711.1,607.9  " style="stroke-opacity: 1.000000; stroke-width: 5.0; stroke: rgb(251,106,74); fill: none"  />
<path d="M 1209.8,2369.6 L 1221.9,2334.6 1234.8,2299.9 1248.6,2265.7 1263.2,2232.1 1278.6,2199.3 1294.9,2167.6 1312.0,2137.0 1329.9,2107.7 1348.6,2079.9 1368.0,2053.7 1388.3,2029.2 1409.3,2006.5 1431.0,1985.6 1453.5,1966.8 1476.6,1950.0 1500.4,1935.4 1524.8,1922.9 1549.8,1912.7 1575.3,1904.7 1601.4,1898.9 1628.0,1895.5 1655.0,1894.3 1682.3,1895.4 1710.1,1898.7 1738.1,1904.2 1766.4,1911.9 1794.8,1921.7 1823.4,1933.5 1852.1,1947.2 1880.8,1962.9 1909.4,1980.3 1937.9,1999.3 1966.3,2019.9 1994.4,2041.9 2022.1,2065.2 2049.4,2089.6 2076.3,2114.9 2102.6,2141.0 2128.3,2167.6  " style="stroke-opacity: 1.000000; stroke-width: 5.0; stroke: rgb(251,106,74); fill: none"  />
<path d="M 1209.8,2369.6 L 1221.5,2335.5 1233.8,2301.8 1246.6,2268.6 1260.0,2236.2 1273.8,2204.8 1288.2,2174.5 1303.0,2145.6 1318.3,2118.3 1333.9,2092.6 1350.0,2068.7 1366.4,2046.8 1383.1,2027.0 1400.2,2009.3 1417.6,1993.9 1435.1,1980.8 1453.0,1970.1 1471.0,1961.8 1489.2,1956.1 1507.5,1952.9 1526.0,1952.2 1544.5,1954.1 1563.0,1958.4 1581.6,1965.3 1600.2,1974.7 1618.7,1986.4 1637.1,2000.5 1655.5,2016.9 1673.6,2035.4 1691.6,2056.1 1709.4,2078.7 1726.9,2103.2 1744.1,2129.3 1761.1,2157.0 1777.6,2186.2 1793.8,2216.5 1809.5,2247.8 1824.7,2279.9 1839.4,2312.7 1853.6,2345.8  " style="stroke-opacity: 1.000000; stroke-width: 5.0; stroke: rgb(251,106,74); fill: none"  />
<path d="M 1209.8,2369.6 L 1221.2,2336.1 1232.8,2302.9 1244.6,2270.2 1256.6,2238.4 1268.7,2207.6 1280.9,2178.0 1293.0,2149.8 1305.2,2123.3 1317.3,2098.5 1329.3,2075.6 1341.1,2054.7 1352.8,2036.0 1364.3,2019.6 1375.5,2005.6 1386.5,1994.0 1397.2,1984.9 1407.6,1978.3 1417.6,1974.4 1427.3,1973.1 1436.7,1974.4 1445.6,1978.4 1454.2,1985.0 1462.3,1994.2 1470.0,2005.9 1477.3,2020.2 1484.1,2036.8 1490.5,2055.8 1496.4,2077.0 1501.9,2100.4 1507.0,2125.7 1511.6,2152.9 1515.8,2181.8 1519.6,2212.3 1522.9,2244.1 1525.9,2277.0 1528.4,2310.9 1530.6,2345.6 1532.4,2380.7 1533.9,2416.1  " style="stroke-opacity: 1.000000; stroke-width: 5.0; stroke: rgb(251,106,74); fill: none"  />
<path d="M 1209.8,2369.6 L 1221.1,2336.2 1232.4,2303.1 1243.7,2270.5 1255.0,2238.7 1266.2,2207.9 1277.3,2178.3 1288.1,2150.1 1298.6,2123.5 1308.9,2098.6 1318.8,2075.7 1328.2,2054.7 1337.3,2035.9 1345.9,2019.3 1354.0,2005.1 1361.5,1993.3 1368.5,1984.0 1374.9,1977.3 1380.8,1973.1 1386.0,1971.6 1390.6,1972.7 1394.6,1976.4 1397.9,1982.7 1400.7,1991.6 1402.8,2003.1 1404.2,2017.0 1405.1,2033.3 1405.3,2052.0 1405.0,2072.9 1404.1,2095.8 1402.6,2120.8 1400.6,2147.7 1398.1,2176.2 1395.2,2206.2 1391.8,2237.6 1388.0,2270.2 1383.8,2303.6 1379.4,2337.8 1374.7,2372.5 1369.8,2407.5  " style="stroke-opacity: 1.000000; stroke-width: 5.0; stroke: rgb(251,106,74); fill: none"  />
<path d="M 1999.0,2269.1 L 1976.6,2233.9 1954.7,2198.0 1933.4,2161.4 1912.7,2124.0 1892.8,2086.0 1873.5,2047.4 1855.2,2008.2 1837.7,1968.4 1821.2,1928.2 1805.7,1887.4 1791.2,1846.1 1777.9,1804.5 1765.7,1762.4 1754.6,1720.0 1744.8,1677.3 1736.1,1634.4 1728.7,1591.1 1722.6,1547.7 1717.7,1504.1 1714.1,1460.4 1711.8,1416.6 1710.8,1372.8 1711.1,1329.0 1712.6,1285.2 1715.4,1241.4 1719.4,1197.8 1724.6,1154.3 1731.0,1111.0 1738.5,1068.0 1747.1,1025.2 1756.9,982.8 1767.6,940.7 1779.4,899.0 1792.0,857.8 1805.5,817.1 1819.9,776.9 1834.9,737.2 1850.7,698.2 1867.0,659.9  " style="stroke-opacity: 1.000000; stroke-width: 5.0; stroke: rgb(251,106,74); fill: none"  />
<path d="M 1059.2,2303.8 L 1081.0,2263.8 1102.6,2223.6 1124.2,2183.0 1145.5,2142.1 1166.7,2101.0 1187.7,2059.6 1208.4,2018.0 1229.0,1976.1 1249.2,1933.9 1269.3,1891.5 1289.1,1848.9 1308.6,1806.1 1327.8,1763.1 1346.7,1719.8 1365.4,1676.4 1383.7,1632.8 1401.7,1589.0 1419.3,1545.1 1436.7,1501.0 1453.6,1456.8 1470.3,1412.5 1486.6,1368.0 1502.6,1323.5 1518.2,1278.8 1533.4,1234.1 1548.3,1189.3 1562.9,1144.5 1577.1,1099.6 1590.9,1054.7 1604.4,1009.8 1617.6,965.0 1630.4,920.1 1642.9,875.2 1655.0,830.5 1666.9,785.7 1678.4,741.1 1689.6,696.6 1700.5,652.2 1711.1,607.9  " style="stroke-opacity: 1.000000; stroke-width: 5.0; stroke: rgb(251,106,74); fill: none"  />
<path d="M 1059.2,2303.8 L 1077.7,2271.1 1097.0,2238.6 1117.2,2206.8 1138.2,2175.7 1160.0,2145.4 1182.6,2116.2 1206.0,2088.2 1230.1,2061.5 1254.8,2036.3 1280.3,2012.6 1306.3,1990.6 1333.0,1970.4 1360.2,1952.0 1388.0,1935.6 1416.3,1921.2 1445.0,1908.8 1474.2,1898.5 1503.7,1890.3 1533.6,1884.3 1563.8,1880.4 1594.2,1878.8 1624.9,1879.3 1655.7,1881.9 1686.6,1886.7 1717.6,1893.6 1748.6,1902.6 1779.6,1913.5 1810.5,1926.4 1841.3,1941.2 1871.8,1957.7 1902.1,1975.9 1932.1,1995.7 1961.7,2017.0 1990.9,2039.6 2019.6,2063.4 2047.8,2088.2 2075.3,2114.0 2102.2,2140.5 2128.3,2167.6  " style="stroke-opacity: 1.000000; stroke-width: 5.0; stroke: rgb(251,106,74); fill: none"  />
<path d="M 1059.2,2303.8 L 1077.1,2272.0 1095.6,2240.6 1114.7,2209.9 1134.3,2180.0 1154.5,2151.1 1175.1,2123.5 1196.2,2097.2 1217.6,2072.4 1239.3,2049.3 1261.4,2028.0 1283.7,2008.6 1306.1,1991.3 1328.8,1976.0 1351.5,1963.0 1374.4,1952.2 1397.3,1943.8 1420.1,1937.7 1443.0,1934.0 1465.8,1932.8 1488.4,1934.0 1510.9,1937.6 1533.3,1943.7 1555.4,1952.1 1577.3,1962.9 1598.8,1976.1 1620.1,1991.4 1641.0,2009.0 1661.5,2028.6 1681.6,2050.2 1701.3,2073.7 1720.5,2099.0 1739.2,2125.9 1757.4,2154.2 1775.0,2183.9 1792.0,2214.8 1808.4,2246.6 1824.1,2279.1 1839.2,2312.3 1853.6,2345.8  " style="stroke-opacity: 1.000000; stroke-width: 5.0; stroke: rgb(251,106,74); fill: none"  />
<path d="M 1059.2,2303.8 L 1076.4,2272.8 1093.7,2242.2 1111.2,2212.2 1128.7,2183.1 1146.1,2154.9 1163.3,2128.0 1180.3,2102.4 1197.0,2078.5 1213.4,2056.2 1229.2,2035.8 1244.6,2017.4 1259.4,2001.1 1273.7,1987.0 1287.2,1975.2 1300.1,1965.8 1312.3,1958.7 1323.7,1954.1 1334.2,1952.1 1344.0,1952.5 1353.0,1955.5 1361.1,1961.0 1368.3,1969.0 1374.6,1979.5 1380.1,1992.5 1384.7,2007.8 1388.5,2025.4 1391.4,2045.2 1393.5,2067.1 1394.7,2091.1 1395.2,2116.9 1394.9,2144.5 1393.8,2173.7 1392.1,2204.3 1389.7,2236.2 1386.7,2269.2 1383.2,2303.0 1379.1,2337.5 1374.6,2372.4 1369.8,2407.5  " style="stroke-opacity: 1.000000; stroke-width: 5.0; stroke: rgb(251,106,74); fill: none"  />
<path d="M 1853.6,2345.8 L 1837.1,2305.5 1820.9,2264.7 1805.2,2223.3 1789.9,2181.5 1775.2,2139.2 1761.0,2096.4 1747.4,2053.2 1734.4,2009.7 1722.1,1965.8 1710.4,1921.5 1699.5,1876.9 1689.3,1832.0 1679.8,1786.9 1671.2,1741.5 1663.3,1695.9 1656.2,1650.1 1649.9,1604.1 1644.4,1558.0 1639.8,1511.8 1636.0,1465.5 1633.0,1419.2 1630.9,1372.8 1629.6,1326.5 1629.2,1280.1 1629.5,1233.9 1630.7,1187.7 1632.7,1141.6 1635.4,1095.6 1638.9,1049.9 1643.2,1004.3 1648.2,958.9 1653.9,913.8 1660.3,869.0 1667.3,824.5 1675.0,780.4 1683.2,736.6 1692.0,693.3 1701.3,650.3 1711.1,607.9  " style="stroke-opacity: 1.000000; stroke-width: 5.0; stroke: rgb(251,106,74); fill: none"  />
<path d="M 1853.6,2345.8 L 1839.4,2312.7 1824.7,2279.9 1809.5,2247.8 1793.8,2216.5 1777.6,2186.2 1761.1,2157.0 1744.1,2129.3 1726.9,2103.2 1709.4,2078.7 1691.6,2056.1 1673.6,2035.4 1655.5,2016.9 1637.1,2000.5 1618.7,1986.4 1600.2,1974.7 1581.6,1965.3 1563.0,1958.4 1544.5,1954.1 1526.0,1952.2 1507.5,1952.9 1489.2,1956.1 1471.0,1961.8 1453.0,1970.1 1435.1,1980.8 1417.6,1993.9 1400.2,2009.3 1383.1,2027.0 1366.4,2046.8 1350.0,2068.7 1333.9,2092.6 1318.3,2118.3 1303.0,2145.6 1288.2,2174.5 1273.8,2204.8 1260.0,2236.2 1246.6,2268.6 1233.8,2301.8 1221.5,2335.5 1209.8,2369.6  " style="stroke-opacity: 1.000000; stroke-width: 5.0; stroke: rgb(251,106,74); fill: none"  />
<path d="M 1853.6,2345.8 L 1839.2,2312.3 1824.1,2279.1 1808.4,2246.6 1792.0,2214.8 1775.0,2183.9 1757.4,2154.2 1739.2,2125.9 1720.5,2099.0 1701.3,2073.7 1681.6,2050.2 1661.5,2028.6 1641.0,2009.0 1620.1,1991.4 1598.8,1976.1 1577.3,1962.9 1555.4,1952.1 1533.3,1943.7 1510.9,1937.6 1488.4,1934.0 1465.8,1932.8 1443.0,1934.0 1420.1,1937.7 1397.3,1943.8 1374.4,1952.2 1351.5,1963.0 1328.8,1976.0 1306.1,1991.3 1283.7,2008.6 1261.4,2028.0 1239.3,2049.3 1217.6,2072.4 1196.2,2097.2 1175.1,2123.5 1154.5,2151.1 1134.3,2180.0 1114.7,2209.9 1095.6,2240.6 1077.1,2272.0 1059.2,2303.8  " style="stroke-opacity: 1.000000; stroke-width: 5.0; stroke: rgb(251,106,74); fill: none"  />
<path d="M 1853.6,2345.8 L 1839.0,2311.8 1823.5,2278.2 1807.3,2245.0 1790.2,2212.6 1772.4,2181.1 1753.9,2150.6 1734.6,2121.4 1714.6,2093.5 1693.9,2067.2 1672.5,2042.4 1650.5,2019.5 1627.9,1998.4 1604.7,1979.2 1580.9,1962.1 1556.6,1947.1 1531.8,1934.2 1506.5,1923.6 1480.8,1915.2 1454.8,1909.1 1428.3,1905.3 1401.6,1903.9 1374.6,1904.7 1347.4,1907.8 1319.9,1913.1 1292.4,1920.7 1264.8,1930.4 1237.1,1942.3 1209.5,1956.2 1181.9,1972.0 1154.4,1989.7 1127.2,2009.2 1100.1,2030.3 1073.4,2052.9 1047.0,2077.0 1021.1,2102.2 995.6,2128.5 970.7,2155.8 946.4,2183.7 922.8,2212.2  " style="stroke-opacity: 1.000000; stroke-width: 5.0; stroke: rgb(251,106,74); fill: none"  />
<path d="M 1696.9,2395.4 L 1688.4,2358.7 1679.0,2322.2 1668.5,2285.9 1657.1,2250.1 1644.7,2215.0 1631.2,2180.6 1616.7,2147.2 1601.1,2114.8 1584.4,2083.6 1566.7,2053.7 1547.8,2025.3 1527.9,1998.4 1507.0,1973.1 1484.9,1949.5 1461.9,1927.7 1437.8,1907.7 1412.7,1889.6 1386.6,1873.5 1359.7,1859.3 1331.8,1847.1 1303.0,1837.0 1273.5,1828.8 1243.2,1822.7 1212.1,1818.6 1180.5,1816.5 1148.2,1816.4 1115.4,1818.2 1082.1,1821.9 1048.4,1827.4 1014.5,1834.6 980.3,1843.6 945.9,1854.2 911.5,1866.2 877.1,1879.7 842.9,1894.5 808.9,1910.4 775.2,1927.4 742.0,1945.3 709.3,1964.0  " style="stroke-opacity: 1.000000; stroke-width: 5.0; stroke: rgb(251,106,74); fill: none"  />
<path d="M 922.8,2212.2 L 947.2,2182.7 972.6,2153.7 998.8,2125.4 1025.7,2097.8 1053.4,2071.2 1081.8,2045.6 1110.9,2021.3 1140.6,1998.3 1170.9,1976.6 1201.7,1956.6 1233.0,1938.1 1264.8,1921.4 1297.0,1906.4 1329.5,1893.2 1362.4,1882.0 1395.6,1872.7 1429.0,1865.4 1462.5,1860.0 1496.3,1856.7 1530.1,1855.5 1563.9,1856.3 1597.8,1859.1 1631.7,1863.9 1665.4,1870.8 1699.0,1879.6 1732.5,1890.3 1765.7,1902.8 1798.6,1917.2 1831.2,1933.3 1863.4,1951.0 1895.2,1970.3 1926.5,1991.1 1957.3,2013.3 1987.5,2036.7 2017.1,2061.2 2046.1,2086.7 2074.3,2113.0 2101.7,2140.0 2128.3,2167.6  " style="stroke-opacity: 1.000000; stroke-width: 5.0; stroke: rgb(251,106,74); fill: none"  />
<path d="M 922.8,2212.2 L 946.4,2183.7 970.7,2155.8 995.6,2128.5 1021.1,2102.2 1047.0,2077.0 1073.4,2052.9 1100.1,2030.3 1127.2,2009.2 1154.4,1989.7 1181.9,1972.0 1209.5,1956.2 1237.1,1942.3 1264.8,1930.4 1292.4,1920.7 1319.9,1913.1 1347.4,1907.8 1374.6,1904.7 1401.6,1903.9 1428.3,1905.3 1454.8,1909.1 1480.8,1915.2 1506.5,1923.6 1531.8,1934.2 1556.6,1947.1 1580.9,1962.1 1604.7,1979.2 1627.9,1998.4 1650.5,2019.5 1672.5,2042.4 1693.9,2067.2 1714.6,2093.5 1734.6,2121.4 1753.9,2150.6 1772.4,2181.1 1790.2,2212.6 1807.3,2245.0 1823.5,2278.2 1839.0,2311.8 1853.6,2345.8  " style="stroke-opacity: 1.000000; stroke-width: 5.0; stroke: rgb(251,106,74); fill: none"  />
<path d="M 2138.8,842.4 L 2108.6,873.9 2078.6,905.9 2048.8,938.7 2019.3,972.0 1990.1,1006.0 1961.2,1040.6 1932.8,1075.8 1904.8,1111.5 1877.2,1147.9 1850.2,1184.8 1823.7,1222.3 1797.7,1260.4 1772.4,1298.9 1747.7,1338.0 1723.6,1377.5 1700.3,1417.5 1677.6,1458.0 1655.7,1498.9 1634.4,1540.2 1613.9,1581.9 1594.2,1623.9 1575.3,1666.3 1557.1,1708.9 1539.7,1751.9 1523.1,1795.1 1507.3,1838.5 1492.2,1882.1 1478.0,1925.9 1464.5,1969.8 1451.8,2013.7 1439.8,2057.8 1428.6,2101.8 1418.1,2145.8 1408.4,2189.8 1399.3,2233.7 1391.0,2277.4 1383.3,2321.0 1376.2,2364.4 1369.8,2407.5  " style="stroke-opacity: 1.000000; stroke-width: 5.0; stroke: rgb(251,106,74); fill: none"  />
<path d="M 709.3,1964.0 L 743.9,1944.2 779.3,1925.0 815.4,1906.7 852.1,1889.2 889.3,1872.7 927.1,1857.3 965.3,1843.1 1003.9,1830.0 1042.8,1818.3 1082.1,1808.0 1121.5,1799.1 1161.1,1791.7 1200.9,1785.8 1240.7,1781.5 1280.5,1778.9 1320.4,1777.8 1360.1,1778.4 1399.7,1780.7 1439.1,1784.7 1478.3,1790.3 1517.3,1797.6 1555.9,1806.5 1594.2,1817.1 1632.2,1829.3 1669.6,1843.1 1706.6,1858.4 1743.1,1875.2 1779.1,1893.5 1814.4,1913.1 1849.2,1934.1 1883.2,1956.3 1916.6,1979.6 1949.3,2004.0 1981.2,2029.4 2012.3,2055.7 2042.6,2082.8 2072.0,2110.6 2100.6,2138.9 2128.3,2167.6  " style="stroke-opacity: 1.000000; stroke-width: 5.0; stroke: rgb(251,106,74); fill: none"  />
<path d="M 709.3,1964.0 L 742.0,1945.3 775.2,1927.4 808.9,1910.4 842.9,1894.5 877.1,1879.7 911.5,1866.2 945.9,1854.2 980.3,1843.6 1014.5,1834.6 1048.4,1827.4 1082.1,1821.9 1115.4,1818.2 1148.2,1816.4 1180.5,1816.5 1212.1,1818.6 1243.2,1822.7 1273.5,1828.8 1303.0,1837.0 1331.8,1847.1 1359.7,1859.3 1386.6,1873.5 1412.7,1889.6 1437.8,1907.7 1461.9,1927.7 1484.9,1949.5 1507.0,1973.1 1527.9,1998.4 1547.8,2025.3 1566.7,2053.7 1584.4,2083.6 1601.1,2114.8 1616.7,2147.2 1631.2,2180.6 1644.7,2215.0 1657.1,2250.1 1668.5,2285.9 1679.0,2322.2 1688.4,2358.7 1696.9,2395.4  " style="stroke-opacity: 1.000000; stroke-width: 5.0; stroke: rgb(251,106,74); fill: none"  />
<path d="M 1533.9,2416.1 L 1532.4,2380.7 1530.6,2345.6 1528.4,2310.9 1525.9,2277.0 1522.9,2244.1 1519.6,2212.3 1515.8,2181.8 1511.6,2152.9 1507.0,2125.7 1501.9,2100.4 1496.4,2077.0 1490.5,2055.8 1484.1,2036.8 1477.3,2020.2 1470.0,2005.9 1462.3,1994.2 1454.2,1985.0 1445.6,1978.4 1436.7,1974.4 1427.3,1973.1 1417.6,1974.4 1407.6,1978.3 1397.2,1984.9 1386.5,1994.0 1375.5,2005.6 1364.3,2019.6 1352.8,2036.0 1341.1,2054.7 1329.3,2075.6 1317.3,2098.5 1305.2,2123.3 1293.0,2149.8 1280.9,2178.0 1268.7,2207.6 1256.6,2238.4 1244.6,2270.2 1232.8,2302.9 1221.2,2336.1 1209.8,2369.6  " style="stroke-opacity: 1.000000; stroke-width: 5.0; stroke: rgb(251,106,74); fill: none"  />
<path d="M 639.2,1815.3 L 674.1,1803.0 709.3,1791.4 744.6,1780.9 780.0,1771.3 815.2,1763.0 850.2,1755.9 884.7,1750.2 918.8,1745.9 952.2,1743.2 984.8,1742.0 1016.6,1742.6 1047.5,1744.8 1077.3,1748.9 1106.0,1754.7 1133.5,1762.3 1159.8,1771.8 1184.8,1783.1 1208.4,1796.2 1230.6,1811.2 1251.3,1828.0 1270.6,1846.6 1288.3,1867.0 1304.6,1889.1 1319.3,1912.8 1332.4,1938.2 1344.1,1965.1 1354.2,1993.4 1362.8,2023.1 1369.9,2054.1 1375.5,2086.3 1379.8,2119.5 1382.7,2153.7 1384.2,2188.7 1384.5,2224.4 1383.6,2260.6 1381.6,2297.2 1378.6,2333.9 1374.6,2370.8 1369.8,2407.5  " style="stroke-opacity: 1.000000; stroke-width: 5.0; stroke: rgb(251,106,74); fill: none"  />
<path d="M 1369.8,2407.5 L 1376.4,2361.4 1383.1,2315.3 1390.0,2269.1 1396.9,2222.9 1404.0,2176.7 1411.1,2130.4 1418.4,2084.0 1425.8,2037.7 1433.3,1991.3 1440.9,1944.9 1448.6,1898.4 1456.4,1852.0 1464.4,1805.5 1472.5,1759.1 1480.7,1712.6 1489.0,1666.1 1497.4,1619.7 1506.0,1573.2 1514.7,1526.8 1523.5,1480.4 1532.4,1434.0 1541.4,1387.7 1550.6,1341.4 1559.9,1295.1 1569.2,1248.9 1578.7,1202.7 1588.3,1156.5 1598.1,1110.4 1607.9,1064.4 1617.8,1018.4 1627.8,972.5 1637.9,926.7 1648.1,880.9 1658.4,835.2 1668.8,789.5 1679.3,744.0 1689.8,698.5 1700.4,653.2 1711.1,607.9  " style="stroke-opacity: 1.000000; stroke-width: 5.0; stroke: rgb(251,106,74); fill: none"  />
<path d="M 1369.8,2407.5 L 1374.7,2372.5 1379.4,2337.8 1383.8,2303.6 1388.0,2270.2 1391.8,2237.6 1395.2,2206.2 1398.1,2176.2 1400.6,2147.7 1402.6,2120.8 1404.1,2095.8 1405.0,2072.9 1405.3,2052.0 1405.1,2033.3 1404.2,2017.0 1402.8,2003.1 1400.7,1991.6 1397.9,1982.7 1394.6,1976.4 1390.6,1972.7 1386.0,1971.6 1380.8,1973.1 1374.9,1977.3 1368.5,1984.0 1361.5,1993.3 1354.0,2005.1 1345.9,2019.3 1337.3,2035.9 1328.2,2054.7 1318.8,2075.7 1308.9,2098.6 1298.6,2123.5 1288.1,2150.1 1277.3,2178.3 1266.2,2207.9 1255.0,2238.7 1243.7,2270.5 1232.4,2303.1 1221.1,2336.2 1209.8,2369.6  " style="stroke-opacity: 1.000000; stroke-width: 5.0; stroke: rgb(251,106,74); fill: none"  />
<path d="M 1369.8,2407.5 L 1374.6,2372.4 1379.1,2337.5 1383.2,2303.0 1386.7,2269.2 1389.7,2236.2 1392.1,2204.3 1393.8,2173.7 1394.9,2144.5 1395.2,2116.9 1394.7,2091.1 1393.5,2067.1 1391.4,2045.2 1388.5,2025.4 1384.7,2007.8 1380.1,1992.5 1374.6,1979.5 1368.3,1969.0 1361.1,1961.0 1353.0,1955.5 1344.0,1952.5 1334.2,1952.1 1323.7,1954.1 1312.3,1958.7 1300.1,1965.8 1287.2,1975.2 1273.7,1987.0 1259.4,2001.1 1244.6,2017.4 1229.2,2035.8 1213.4,2056.2 1197.0,2078.5 1180.3,2102.4 1163.3,2128.0 1146.1,2154.9 1128.7,2183.1 1111.2,2212.2 1093.7,2242.2 1076.4,2272.8 1059.2,2303.8  " style="stroke-opacity: 1.000000; stroke-width: 5.0; stroke: rgb(251,106,74); fill: none"  />
<path d="M 1369.8,2407.5 L 1376.2,2364.4 1383.3,2321.0 1391.0,2277.4 1399.3,2233.7 1408.4,2189.8 1418.1,2145.8 1428.6,2101.8 1439.8,2057.8 1451.8,2013.7 1464.5,1969.8 1478.0,1925.9 1492.2,1882.1 1507.3,1838.5 1523.1,1795.1 1539.7,1751.9 1557.1,1708.9 1575.3,1666.3 1594.2,1623.9 1613.9,1581.9 1634.4,1540.2 1655.7,1498.9 1677.6,1458.0 1700.3,1417.5 1723.6,1377.5 1747.7,1338.0 1772.4,1298.9 1797.7,1260.4 1823.7,1222.3 1850.2,1184.8 1877.2,1147.9 1904.8,1111.5 1932.8,1075.8 1961.2,1040.6 1990.1,1006.0 2019.3,972.0 2048.8,938.7 2078.6,905.9 2108.6,873.9 2138.8,842.4  " style="stroke-opacity: 1.000000; stroke-width: 5.0; stroke: rgb(251,106,74); fill: none"  />
<path d="M 1369.8,2407.5 L 1374.6,2370.8 1378.6,2333.9 1381.6,2297.2 1383.6,2260.6 1384.5,2224.4 1384.2,2188.7 1382.7,2153.7 1379.8,2119.5 1375.5,2086.3 1369.9,2054.1 1362.8,2023.1 1354.2,1993.4 1344.1,1965.1 1332.4,1938.2 1319.3,1912.8 1304.6,1889.1 1288.3,1867.0 1270.6,1846.6 1251.3,1828.0 1230.6,1811.2 1208.4,1796.2 1184.8,1783.1 1159.8,1771.8 1133.5,1762.3 1106.0,1754.7 1077.3,1748.9 1047.5,1744.8 1016.6,1742.6 984.8,1742.0 952.2,1743.2 918.8,1745.9 884.7,1750.2 850.2,1755.9 815.2,1763.0 780.0,1771.3 744.6,1780.9 709.3,1791.4 674.1,1803.0 639.2,1815.3  " style="stroke-opacity: 1.000000; stroke-width: 5.0; stroke: rgb(251,106,74); fill: none"  />
</g>
<g id="track_0">
<path d="M 2237.4,2044.7 L 2209.0,2023.8 2180.7,2003.2 2152.6,1983.1 2125.1,1963.6 2098.3,1944.8 2072.2,1927.0 2047.2,1910.1 2023.2,1894.4 2000.5,1880.0 1979.2,1866.8 1959.4,1855.1 1941.2,1844.9 1924.7,1836.3 1909.9,1829.3 1896.9,1824.0 1885.9,1820.4 1876.7,1818.6 1869.6,1818.6 1864.4,1820.3 1861.3,1823.9 1860.1,1829.2 1861.0,1836.3 1863.9,1845.2 1868.8,1855.7 1875.6,1868.0 1884.3,1881.8 1894.8,1897.2 1907.1,1914.1 1921.0,1932.4 1936.6,1952.0 1953.7,1972.8 1972.1,1994.7 1991.8,2017.6 2012.6,2041.3 2034.4,2065.8 2057.1,2090.8 2080.4,2116.2 2104.2,2141.9 2128.3,2167.6  " style="stroke-opacity: 1.000000; stroke-width: 5.0; stroke: rgb(107,174,214); fill: none"  />
<path d="M 2237.4,2044.7 L 2208.5,2023.7 2179.6,2003.2 2150.6,1983.4 2121.8,1964.5 2093.3,1946.6 2065.3,1929.9 2038.0,1914.4 2011.3,1900.3 1985.5,1887.8 1960.7,1876.9 1936.9,1867.8 1914.2,1860.4 1892.9,1854.9 1872.8,1851.3 1854.1,1849.7 1836.9,1850.1 1821.1,1852.6 1806.9,1857.1 1794.3,1863.7 1783.3,1872.4 1773.9,1883.1 1766.1,1895.8 1759.9,1910.5 1755.4,1927.1 1752.5,1945.7 1751.2,1966.0 1751.5,1988.1 1753.3,2011.8 1756.5,2037.1 1761.2,2063.8 1767.2,2091.9 1774.5,2121.1 1783.0,2151.4 1792.6,2182.6 1803.2,2214.5 1814.8,2246.9 1827.1,2279.8 1840.1,2312.8 1853.6,2345.8  " style="stroke-opacity: 1.000000; stroke-width: 5.0; stroke: rgb(107,174,214); fill: none"  />
<path d="M 2237.4,2044.7 L 2207.4,2023.1 2176.8,2002.1 2145.9,1982.0 2114.6,1962.9 2083.2,1944.9 2051.6,1928.3 2020.1,1913.1 1988.6,1899.4 1957.3,1887.4 1926.3,1877.2 1895.6,1868.8 1865.4,1862.2 1835.6,1857.7 1806.4,1855.2 1777.9,1854.8 1750.0,1856.5 1722.9,1860.3 1696.5,1866.3 1671.0,1874.4 1646.4,1884.7 1622.7,1897.2 1599.9,1911.7 1578.1,1928.3 1557.3,1947.0 1537.6,1967.6 1518.8,1990.1 1501.2,2014.5 1484.6,2040.6 1469.0,2068.4 1454.5,2097.6 1441.1,2128.3 1428.7,2160.3 1417.4,2193.5 1407.1,2227.6 1397.7,2262.6 1389.4,2298.3 1381.9,2334.4 1375.4,2370.9 1369.8,2407.5  " style="stroke-opacity: 1.000000; stroke-width: 5.0; stroke: rgb(107,174,214); fill: none"  />
<path d="M 1548.4,584.5 L 1546.7,619.9 1545.3,655.1 1544.4,689.8 1543.9,723.8 1543.9,756.9 1544.3,788.8 1545.4,819.5 1546.9,848.7 1549.1,876.2 1551.9,901.9 1555.3,925.6 1559.3,947.3 1564.0,966.8 1569.3,984.0 1575.2,998.8 1581.9,1011.2 1589.1,1021.0 1597.1,1028.4 1605.6,1033.1 1614.8,1035.3 1624.6,1034.9 1634.9,1031.9 1645.9,1026.3 1657.3,1018.2 1669.3,1007.6 1681.8,994.6 1694.7,979.3 1708.0,961.7 1721.6,942.0 1735.6,920.3 1749.9,896.7 1764.4,871.3 1779.0,844.4 1793.8,816.0 1808.6,786.4 1823.4,755.8 1838.1,724.3 1852.6,692.3 1867.0,659.9  " style="stroke-opacity: 1.000000; stroke-width: 5.0; stroke: rgb(107,174,214); fill: none"  />
<path d="M 1711.1,607.9 L 1703.0,642.2 1695.2,676.3 1687.7,710.0 1680.6,743.0 1673.9,775.1 1667.7,806.0 1662.1,835.7 1657.0,863.9 1652.6,890.4 1649.0,915.2 1646.0,938.0 1643.8,958.7 1642.3,977.3 1641.7,993.7 1641.9,1007.7 1643.0,1019.3 1644.9,1028.4 1647.7,1035.0 1651.3,1039.0 1655.8,1040.5 1661.2,1039.5 1667.4,1035.9 1674.4,1029.7 1682.2,1021.1 1690.7,1010.0 1700.1,996.6 1710.1,980.9 1720.8,962.9 1732.1,942.9 1744.0,920.9 1756.4,897.0 1769.3,871.5 1782.6,844.4 1796.3,815.9 1810.2,786.2 1824.3,755.6 1838.5,724.2 1852.8,692.2 1867.0,659.9  " style="stroke-opacity: 1.000000; stroke-width: 5.0; stroke: rgb(107,174,214); fill: none"  />
<path d="M 1711.1,607.9 L 1703.1,642.4 1695.5,676.7 1688.3,710.7 1681.8,744.1 1675.8,776.6 1670.6,808.2 1666.1,838.5 1662.5,867.5 1659.7,895.0 1657.8,920.7 1656.9,944.7 1657.0,966.8 1658.1,986.8 1660.3,1004.6 1663.5,1020.3 1667.8,1033.6 1673.2,1044.7 1679.7,1053.3 1687.3,1059.5 1695.9,1063.3 1705.6,1064.6 1716.3,1063.5 1728.1,1060.0 1740.8,1054.0 1754.5,1045.8 1769.1,1035.2 1784.5,1022.4 1800.7,1007.5 1817.7,990.6 1835.4,971.7 1853.6,951.0 1872.4,928.6 1891.6,904.7 1911.2,879.5 1931.0,853.0 1951.1,825.5 1971.2,797.2 1991.2,768.2 2011.1,738.9  " style="stroke-opacity: 1.000000; stroke-width: 5.0; stroke: rgb(107,174,214); fill: none"  />
<path d="M 2128.3,2167.6 L 2104.2,2141.9 2080.4,2116.2 2057.1,2090.8 2034.4,2065.8 2012.6,2041.3 1991.8,2017.6 1972.1,1994.7 1953.7,1972.8 1936.6,1952.0 1921.0,1932.4 1907.1,1914.1 1894.8,1897.2 1884.3,1881.8 1875.6,1868.0 1868.8,1855.7 1863.9,1845.2 1861.0,1836.3 1860.1,1829.2 1861.3,1823.9 1864.4,1820.3 1869.6,1818.6 1876.7,1818.6 1885.9,1820.4 1896.9,1824.0 1909.9,1829.3 1924.7,1836.3 1941.2,1844.9 1959.4,1855.1 1979.2,1866.8 2000.5,1880.0 2023.2,1894.4 2047.2,1910.1 2072.2,1927.0 2098.3,1944.8 2125.1,1963.6 2152.6,1983.1 2180.7,2003.2 2209.0,2023.8 2237.4,2044.7  " style="stroke-opacity: 1.000000; stroke-width: 5.0; stroke: rgb(107,174,214); fill: none"  />
<path d="M 2128.3,2167.6 L 2103.9,2141.9 2079.4,2116.7 2055.0,2092.0 2030.7,2068.1 2006.8,2045.2 1983.4,2023.5 1960.5,2003.0 1938.3,1984.0 1917.0,1966.6 1896.5,1950.8 1877.0,1936.9 1858.5,1924.8 1841.2,1914.7 1825.1,1906.7 1810.3,1900.8 1796.8,1897.0 1784.6,1895.4 1773.8,1896.1 1764.5,1899.0 1756.5,1904.1 1750.1,1911.5 1745.1,1921.0 1741.6,1932.8 1739.5,1946.7 1738.9,1962.6 1739.7,1980.6 1741.8,2000.5 1745.3,2022.3 1750.1,2045.8 1756.2,2070.9 1763.4,2097.6 1771.7,2125.5 1781.1,2154.8 1791.4,2185.0 1802.5,2216.2 1814.4,2248.0 1827.0,2280.4 1840.1,2313.1 1853.6,2345.8  " style="stroke-opacity: 1.000000; stroke-width: 5.0; stroke: rgb(107,174,214); fill: none"  />
<path d="M 2128.3,2167.6 L 2103.6,2141.8 2078.8,2116.5 2053.8,2091.8 2028.9,2068.1 2004.1,2045.4 1979.5,2023.9 1955.3,2003.8 1931.6,1985.2 1908.4,1968.3 1885.9,1953.1 1864.2,1939.9 1843.2,1928.6 1823.2,1919.3 1804.1,1912.2 1786.0,1907.3 1768.9,1904.7 1753.0,1904.3 1738.2,1906.2 1724.6,1910.4 1712.2,1917.0 1701.1,1925.8 1691.1,1936.9 1682.5,1950.3 1675.1,1965.9 1668.9,1983.6 1664.0,2003.4 1660.3,2025.2 1657.8,2048.8 1656.5,2074.3 1656.3,2101.4 1657.2,2130.1 1659.2,2160.1 1662.1,2191.4 1666.0,2223.8 1670.8,2257.1 1676.3,2291.1 1682.6,2325.6 1689.5,2360.5 1696.9,2395.4  " style="stroke-opacity: 1.000000; stroke-width: 5.0; stroke: rgb(107,174,214); fill: none"  />
<path d="M 2128.3,2167.6 L 2103.0,2141.3 2077.2,2115.6 2051.0,2090.6 2024.5,2066.6 1997.7,2043.7 1970.8,2022.1 1943.9,2001.9 1916.9,1983.3 1890.1,1966.4 1863.4,1951.3 1837.0,1938.1 1810.9,1927.0 1785.1,1917.9 1759.8,1911.0 1735.0,1906.3 1710.7,1903.8 1687.0,1903.7 1664.0,1905.9 1641.7,1910.4 1620.0,1917.2 1599.1,1926.4 1579.0,1937.8 1559.7,1951.6 1541.3,1967.5 1523.7,1985.6 1507.0,2005.8 1491.1,2028.1 1476.2,2052.2 1462.1,2078.2 1449.0,2105.9 1436.7,2135.1 1425.4,2165.9 1414.9,2197.9 1405.3,2231.0 1396.6,2265.1 1388.7,2300.0 1381.6,2335.5 1375.3,2371.4 1369.8,2407.5  " style="stroke-opacity: 1.000000; stroke-width: 5.0; stroke: rgb(107,174,214); fill: none"  />
<path d="M 1867.0,659.9 L 1852.6,692.3 1838.1,724.3 1823.4,755.8 1808.6,786.4 1793.8,816.0 1779.0,844.4 1764.4,871.3 1749.9,896.7 1735.6,920.3 1721.6,942.0 1708.0,961.7 1694.7,979.3 1681.8,994.6 1669.3,1007.6 1657.3,1018.2 1645.9,1026.3 1634.9,1031.9 1624.6,1034.9 1614.8,1035.3 1605.6,1033.1 1597.1,1028.4 1589.1,1021.0 1581.9,1011.2 1575.2,998.8 1569.3,984.0 1564.0,966.8 1559.3,947.3 1555.3,925.6 1551.9,901.9 1549.1,876.2 1546.9,848.7 1545.4,819.5 1544.3,788.8 1543.9,756.9 1543.9,723.8 1544.4,689.8 1545.3,655.1 1546.7,619.9 1548.4,584.5  " style="stroke-opacity: 1.000000; stroke-width: 5.0; stroke: rgb(107,174,214); fill: none"  />
<path d="M 1867.0,659.9 L 1852.8,692.2 1838.5,724.2 1824.3,755.6 1810.2,786.2 1796.3,815.9 1782.6,844.4 1769.3,871.5 1756.4,897.0 1744.0,920.9 1732.1,942.9 1720.8,962.9 1710.1,980.9 1700.1,996.6 1690.7,1010.0 1682.2,1021.1 1674.4,1029.7 1667.4,1035.9 1661.2,1039.5 1655.8,1040.5 1651.3,1039.0 1647.7,1035.0 1644.9,1028.4 1643.0,1019.3 1641.9,1007.7 1641.7,993.7 1642.3,977.3 1643.8,958.7 1646.0,938.0 1649.0,915.2 1652.6,890.4 1657.0,863.9 1662.1,835.7 1667.7,806.0 1673.9,775.1 1680.6,743.0 1687.7,710.0 1695.2,676.3 1703.0,642.2 1711.1,607.9  " style="stroke-opacity: 1.000000; stroke-width: 5.0; stroke: rgb(107,174,214); fill: none"  />
<path d="M 1867.0,659.9 L 1852.9,692.3 1839.2,724.4 1825.8,756.2 1812.9,787.4 1800.6,817.8 1788.9,847.1 1778.1,875.3 1768.1,902.1 1759.0,927.5 1751.0,951.1 1744.0,973.1 1738.1,993.1 1733.4,1011.2 1729.9,1027.1 1727.6,1040.9 1726.5,1052.5 1726.8,1061.8 1728.4,1068.8 1731.2,1073.5 1735.4,1075.7 1740.8,1075.6 1747.5,1073.2 1755.5,1068.4 1764.7,1061.3 1775.2,1052.0 1786.7,1040.4 1799.4,1026.7 1813.1,1011.0 1827.9,993.3 1843.5,973.8 1860.0,952.5 1877.2,929.7 1895.2,905.4 1913.7,879.8 1932.7,853.1 1952.0,825.5 1971.6,797.1 1991.3,768.2 2011.1,738.9  " style="stroke-opacity: 1.000000; stroke-width: 5.0; stroke: rgb(107,174,214); fill: none"  />
<path d="M 1867.0,659.9 L 1852.9,692.7 1839.4,725.5 1826.5,758.1 1814.5,790.4 1803.4,822.2 1793.3,853.2 1784.3,883.3 1776.5,912.4 1770.1,940.4 1765.0,967.0 1761.3,992.2 1759.2,1015.9 1758.6,1038.0 1759.6,1058.4 1762.2,1077.0 1766.4,1093.7 1772.3,1108.5 1779.9,1121.3 1789.1,1132.2 1800.0,1141.0 1812.5,1147.8 1826.7,1152.5 1842.4,1155.2 1859.6,1155.9 1878.3,1154.6 1898.4,1151.4 1919.9,1146.2 1942.6,1139.2 1966.6,1130.4 1991.6,1119.9 2017.6,1107.8 2044.5,1094.2 2072.1,1079.2 2100.3,1062.9 2129.1,1045.4 2158.2,1026.9 2187.4,1007.6 2216.7,987.6 2245.9,967.0  " style="stroke-opacity: 1.000000; stroke-width: 5.0; stroke: rgb(107,174,214); fill: none"  />
<path d="M 1209.8,2369.6 L 1220.9,2336.1 1231.7,2302.8 1242.2,2270.0 1252.3,2237.8 1261.8,2206.4 1270.8,2176.2 1279.0,2147.1 1286.6,2119.5 1293.3,2093.5 1299.2,2069.1 1304.2,2046.7 1308.3,2026.2 1311.4,2007.8 1313.5,1991.6 1314.5,1977.6 1314.5,1966.0 1313.4,1956.7 1311.2,1949.9 1308.0,1945.6 1303.6,1943.7 1298.2,1944.2 1291.7,1947.3 1284.2,1952.8 1275.6,1960.7 1266.1,1970.9 1255.6,1983.4 1244.2,1998.2 1232.0,2015.1 1218.9,2034.0 1205.1,2054.9 1190.5,2077.5 1175.4,2101.8 1159.7,2127.7 1143.6,2154.8 1127.1,2183.1 1110.3,2212.3 1093.3,2242.4 1076.2,2272.9 1059.2,2303.8  " style="stroke-opacity: 1.000000; stroke-width: 5.0; stroke: rgb(107,174,214); fill: none"  />
<path d="M 1209.8,2369.6 L 1220.9,2336.0 1231.5,2302.4 1241.7,2269.2 1251.2,2236.6 1260.0,2204.7 1268.1,2173.7 1275.2,2143.9 1281.5,2115.4 1286.7,2088.3 1290.9,2062.8 1293.9,2039.0 1295.8,2017.0 1296.5,1997.0 1295.9,1979.0 1294.1,1963.1 1291.0,1949.4 1286.7,1938.0 1281.0,1928.8 1274.0,1921.9 1265.7,1917.4 1256.2,1915.2 1245.4,1915.4 1233.4,1917.8 1220.2,1922.6 1205.8,1929.6 1190.3,1938.8 1173.8,1950.1 1156.3,1963.5 1137.9,1978.9 1118.6,1996.1 1098.6,2015.1 1077.9,2035.7 1056.6,2057.8 1034.8,2081.2 1012.7,2105.8 990.3,2131.4 967.7,2157.8 945.2,2184.8 922.8,2212.2  " style="stroke-opacity: 1.000000; stroke-width: 5.0; stroke: rgb(107,174,214); fill: none"  />
<path d="M 1209.8,2369.6 L 1220.9,2335.7 1231.4,2301.8 1241.3,2268.1 1250.4,2234.9 1258.6,2202.3 1265.9,2170.5 1272.1,2139.7 1277.2,2110.0 1281.2,2081.6 1283.9,2054.6 1285.2,2029.1 1285.2,2005.3 1283.9,1983.3 1281.1,1963.1 1276.8,1944.8 1271.1,1928.6 1263.9,1914.4 1255.2,1902.2 1245.0,1892.3 1233.4,1884.5 1220.3,1878.8 1205.8,1875.4 1189.9,1874.1 1172.7,1874.9 1154.2,1877.9 1134.4,1882.9 1113.5,1890.0 1091.5,1899.0 1068.4,1909.9 1044.5,1922.6 1019.7,1937.0 994.1,1953.0 967.9,1970.4 941.3,1989.2 914.2,2009.2 886.9,2030.2 859.5,2052.0 832.1,2074.6 804.9,2097.7  " style="stroke-opacity: 1.000000; stroke-width: 5.0; stroke: rgb(107,174,214); fill: none"  />
<path d="M 1209.8,2369.6 L 1220.9,2335.3 1231.4,2301.0 1241.0,2266.8 1249.8,2232.8 1257.6,2199.4 1264.3,2166.6 1269.8,2134.6 1274.0,2103.5 1276.9,2073.6 1278.4,2044.9 1278.5,2017.5 1277.0,1991.5 1274.0,1967.1 1269.4,1944.4 1263.1,1923.4 1255.3,1904.1 1245.8,1886.7 1234.7,1871.2 1222.0,1857.6 1207.7,1846.0 1191.8,1836.4 1174.3,1828.7 1155.3,1823.1 1134.8,1819.4 1113.0,1817.7 1089.8,1817.9 1065.3,1820.0 1039.6,1823.9 1012.8,1829.6 985.0,1837.0 956.3,1846.0 926.8,1856.6 896.7,1868.6 866.0,1881.9 834.9,1896.5 803.5,1912.1 772.0,1928.6 740.5,1946.0 709.3,1964.0  " style="stroke-opacity: 1.000000; stroke-width: 5.0; stroke: rgb(107,174,214); fill: none"  />
<path d="M 1999.0,2269.1 L 1979.3,2239.3 1959.4,2209.9 1939.2,2181.2 1918.9,2153.4 1898.6,2126.6 1878.3,2101.1 1858.0,2077.0 1838.0,2054.5 1818.3,2033.7 1798.8,2014.8 1779.8,1997.8 1761.2,1983.0 1743.1,1970.3 1725.6,1959.9 1708.6,1951.9 1692.3,1946.2 1676.7,1943.0 1661.9,1942.2 1647.7,1943.9 1634.4,1948.2 1621.8,1954.9 1610.0,1964.0 1599.1,1975.7 1589.1,1989.7 1579.8,2006.0 1571.5,2024.6 1563.9,2045.3 1557.3,2068.2 1551.4,2093.0 1546.4,2119.7 1542.2,2148.0 1538.8,2177.9 1536.1,2209.3 1534.1,2241.8 1532.8,2275.5 1532.2,2309.9 1532.2,2345.0 1532.8,2380.5 1533.9,2416.1  " style="stroke-opacity: 1.000000; stroke-width: 5.0; stroke: rgb(107,174,214); fill: none"  />
<path d="M 1059.2,2303.8 L 1076.2,2272.9 1093.3,2242.4 1110.3,2212.3 1127.1,2183.1 1143.6,2154.8 1159.7,2127.7 1175.4,2101.8 1190.5,2077.5 1205.1,2054.9 1218.9,2034.0 1232.0,2015.1 1244.2,1998.2 1255.6,1983.4 1266.1,1970.9 1275.6,1960.7 1284.2,1952.8 1291.7,1947.3 1298.2,1944.2 1303.6,1943.7 1308.0,1945.6 1311.2,1949.9 1313.4,1956.7 1314.5,1966.0 1314.5,1977.6 1313.5,1991.6 1311.4,2007.8 1308.3,2026.2 1304.2,2046.7 1299.2,2069.1 1293.3,2093.5 1286.6,2119.5 1279.0,2147.1 1270.8,2176.2 1261.8,2206.4 1252.3,2237.8 1242.2,2270.0 1231.7,2302.8 1220.9,2336.1 1209.8,2369.6  " style="stroke-opacity: 1.000000; stroke-width: 5.0; stroke: rgb(107,174,214); fill: none"  />
<path d="M 1059.2,2303.8 L 1076.1,2272.9 1092.7,2242.0 1108.9,2211.6 1124.5,2181.7 1139.5,2152.6 1153.7,2124.4 1167.0,2097.3 1179.4,2071.4 1190.7,2047.0 1200.8,2024.1 1209.8,2002.9 1217.4,1983.5 1223.7,1966.0 1228.7,1950.4 1232.2,1936.8 1234.3,1925.4 1234.8,1916.1 1233.9,1909.0 1231.5,1904.1 1227.6,1901.5 1222.1,1901.1 1215.2,1902.9 1206.8,1906.9 1197.0,1913.2 1185.8,1921.6 1173.2,1932.0 1159.4,1944.5 1144.3,1959.0 1128.0,1975.3 1110.7,1993.3 1092.4,2013.0 1073.2,2034.2 1053.1,2056.8 1032.4,2080.6 1011.1,2105.5 989.3,2131.3 967.3,2157.8 945.0,2184.9 922.8,2212.2  " style="stroke-opacity: 1.000000; stroke-width: 5.0; stroke: rgb(107,174,214); fill: none"  />
<path d="M 1059.2,2303.8 L 1076.1,2272.7 1092.6,2241.6 1108.5,2210.7 1123.7,2180.3 1138.1,2150.5 1151.5,2121.5 1163.9,2093.4 1175.1,2066.5 1185.1,2040.7 1193.7,2016.4 1201.0,1993.5 1206.8,1972.3 1211.0,1952.7 1213.7,1934.9 1214.7,1918.9 1214.1,1904.9 1211.9,1892.8 1207.9,1882.8 1202.3,1874.8 1195.0,1868.9 1186.0,1865.0 1175.3,1863.2 1163.1,1863.5 1149.2,1865.8 1133.8,1870.2 1117.0,1876.5 1098.7,1884.7 1079.1,1894.7 1058.2,1906.5 1036.2,1920.0 1013.1,1935.1 989.0,1951.7 964.1,1969.6 938.5,1988.8 912.4,2009.0 885.7,2030.2 858.8,2052.2 831.8,2074.7 804.9,2097.7  " style="stroke-opacity: 1.000000; stroke-width: 5.0; stroke: rgb(107,174,214); fill: none"  />
<path d="M 1059.2,2303.8 L 1076.3,2272.1 1092.7,2240.2 1108.3,2208.2 1123.0,2176.4 1136.6,2144.8 1149.1,2113.8 1160.2,2083.3 1169.9,2053.5 1178.1,2024.5 1184.7,1996.5 1189.6,1969.6 1192.8,1943.8 1194.2,1919.3 1193.7,1896.1 1191.4,1874.3 1187.1,1853.9 1180.9,1835.1 1172.7,1817.9 1162.6,1802.2 1150.6,1788.3 1136.7,1775.9 1120.8,1765.3 1103.2,1756.3 1083.7,1749.0 1062.5,1743.4 1039.6,1739.5 1015.1,1737.2 989.2,1736.5 961.8,1737.3 933.1,1739.6 903.3,1743.4 872.4,1748.5 840.6,1755.0 808.0,1762.6 774.8,1771.3 741.1,1781.1 707.1,1791.8 673.1,1803.2 639.2,1815.3  " style="stroke-opacity: 1.000000; stroke-width: 5.0; stroke: rgb(107,174,214); fill: none"  />
<path d="M 1853.6,2345.8 L 1840.1,2312.8 1827.1,2279.8 1814.8,2246.9 1803.2,2214.5 1792.6,2182.6 1783.0,2151.4 1774.5,2121.1 1767.2,2091.9 1761.2,2063.8 1756.5,2037.1 1753.3,2011.8 1751.5,1988.1 1751.2,1966.0 1752.5,1945.7 1755.4,1927.1 1759.9,1910.5 1766.1,1895.8 1773.9,1883.1 1783.3,1872.4 1794.3,1863.7 1806.9,1857.1 1821.1,1852.6 1836.9,1850.1 1854.1,1849.7 1872.8,1851.3 1892.9,1854.9 1914.2,1860.4 1936.9,1867.8 1960.7,1876.9 1985.5,1887.8 2011.3,1900.3 2038.0,1914.4 2065.3,1929.9 2093.3,1946.6 2121.8,1964.5 2150.6,1983.4 2179.6,2003.2 2208.5,2023.7 2237.4,2044.7  " style="stroke-opacity: 1.000000; stroke-width: 5.0; stroke: rgb(107,174,214); fill: none"  />
<path d="M 1853.6,2345.8 L 1840.1,2313.1 1827.0,2280.4 1814.4,2248.0 1802.5,2216.2 1791.4,2185.0 1781.1,2154.8 1771.7,2125.5 1763.4,2097.6 1756.2,2070.9 1750.1,2045.8 1745.3,2022.3 1741.8,2000.5 1739.7,1980.6 1738.9,1962.6 1739.5,1946.7 1741.6,1932.8 1745.1,1921.0 1750.1,1911.5 1756.5,1904.1 1764.5,1899.0 1773.8,1896.1 1784.6,1895.4 1796.8,1897.0 1810.3,1900.8 1825.1,1906.7 1841.2,1914.7 1858.5,1924.8 1877.0,1936.9 1896.5,1950.8 1917.0,1966.6 1938.3,1984.0 1960.5,2003.0 1983.4,2023.5 2006.8,2045.2 2030.7,2068.1 2055.0,2092.0 2079.4,2116.7 2103.9,2141.9 2128.3,2167.6  " style="stroke-opacity: 1.000000; stroke-width: 5.0; stroke: rgb(107,174,214); fill: none"  />
<path d="M 1853.6,2345.8 L 1839.6,2313.0 1825.3,2280.5 1810.5,2248.7 1795.5,2217.7 1780.3,2187.7 1764.8,2159.0 1749.3,2131.7 1733.6,2105.9 1717.9,2081.9 1702.1,2059.9 1686.4,2039.8 1670.8,2021.9 1655.2,2006.2 1639.8,1992.8 1624.6,1981.8 1609.6,1973.4 1594.8,1967.4 1580.3,1964.0 1566.1,1963.2 1552.2,1964.9 1538.6,1969.3 1525.4,1976.2 1512.6,1985.7 1500.2,1997.7 1488.2,2012.1 1476.7,2028.9 1465.5,2048.0 1454.9,2069.3 1444.7,2092.6 1435.0,2118.0 1425.8,2145.1 1417.1,2174.0 1408.8,2204.3 1401.1,2236.0 1393.9,2268.9 1387.1,2302.6 1380.8,2337.2 1375.1,2372.2 1369.8,2407.5  " style="stroke-opacity: 1.000000; stroke-width: 5.0; stroke: rgb(107,174,214); fill: none"  />
<path d="M 1696.9,2395.4 L 1689.5,2360.5 1682.6,2325.6 1676.3,2291.1 1670.8,2257.1 1666.0,2223.8 1662.1,2191.4 1659.2,2160.1 1657.2,2130.1 1656.3,2101.4 1656.5,2074.3 1657.8,2048.8 1660.3,2025.2 1664.0,2003.4 1668.9,1983.6 1675.1,1965.9 1682.5,1950.3 1691.1,1936.9 1701.1,1925.8 1712.2,1917.0 1724.6,1910.4 1738.2,1906.2 1753.0,1904.3 1768.9,1904.7 1786.0,1907.3 1804.1,1912.2 1823.2,1919.3 1843.2,1928.6 1864.2,1939.9 1885.9,1953.1 1908.4,1968.3 1931.6,1985.2 1955.3,2003.8 1979.5,2023.9 2004.1,2045.4 2028.9,2068.1 2053.8,2091.8 2078.8,2116.5 2103.6,2141.8 2128.3,2167.6  " style="stroke-opacity: 1.000000; stroke-width: 5.0; stroke: rgb(107,174,214); fill: none"  />
<path d="M 1696.9,2395.4 L 1689.1,2360.8 1681.1,2326.5 1672.8,2292.8 1664.2,2259.9 1655.4,2228.0 1646.5,2197.3 1637.3,2168.0 1628.0,2140.3 1618.6,2114.4 1609.1,2090.4 1599.5,2068.4 1589.9,2048.6 1580.2,2031.0 1570.5,2015.9 1560.8,2003.2 1551.1,1993.0 1541.5,1985.4 1531.9,1980.4 1522.4,1978.1 1513.0,1978.5 1503.7,1981.5 1494.5,1987.1 1485.4,1995.4 1476.5,2006.3 1467.8,2019.7 1459.2,2035.5 1450.9,2053.7 1442.7,2074.2 1434.8,2096.8 1427.1,2121.5 1419.6,2148.1 1412.4,2176.4 1405.4,2206.2 1398.8,2237.5 1392.4,2270.0 1386.3,2303.4 1380.5,2337.7 1374.9,2372.4 1369.8,2407.5  " style="stroke-opacity: 1.000000; stroke-width: 5.0; stroke: rgb(107,174,214); fill: none"  />
<path d="M 2011.1,738.9 L 1991.2,768.2 1971.2,797.2 1951.1,825.5 1931.0,853.0 1911.2,879.5 1891.6,904.7 1872.4,928.6 1853.6,951.0 1835.4,971.7 1817.7,990.6 1800.7,1007.5 1784.5,1022.4 1769.1,1035.2 1754.5,1045.8 1740.8,1054.0 1728.1,1060.0 1716.3,1063.5 1705.6,1064.6 1695.9,1063.3 1687.3,1059.5 1679.7,1053.3 1673.2,1044.7 1667.8,1033.6 1663.5,1020.3 1660.3,1004.6 1658.1,986.8 1657.0,966.8 1656.9,944.7 1657.8,920.7 1659.7,895.0 1662.5,867.5 1666.1,838.5 1670.6,808.2 1675.8,776.6 1681.8,744.1 1688.3,710.7 1695.5,676.7 1703.1,642.4 1711.1,607.9  " style="stroke-opacity: 1.000000; stroke-width: 5.0; stroke: rgb(107,174,214); fill: none"  />
<path d="M 2011.1,738.9 L 1991.3,768.2 1971.6,797.1 1952.0,825.5 1932.7,853.1 1913.7,879.8 1895.2,905.4 1877.2,929.7 1860.0,952.5 1843.5,973.8 1827.9,993.3 1813.1,1011.0 1799.4,1026.7 1786.7,1040.4 1775.2,1052.0 1764.7,1061.3 1755.5,1068.4 1747.5,1073.2 1740.8,1075.6 1735.4,1075.7 1731.2,1073.5 1728.4,1068.8 1726.8,1061.8 1726.5,1052.5 1727.6,1040.9 1729.9,1027.1 1733.4,1011.2 1738.1,993.1 1744.0,973.1 1751.0,951.1 1759.0,927.5 1768.1,902.1 1778.1,875.3 1788.9,847.1 1800.6,817.8 1812.9,787.4 1825.8,756.2 1839.2,724.4 1852.9,692.3 1867.0,659.9  " style="stroke-opacity: 1.000000; stroke-width: 5.0; stroke: rgb(107,174,214); fill: none"  />
<path d="M 922.8,2212.2 L 945.2,2184.8 967.7,2157.8 990.3,2131.4 1012.7,2105.8 1034.8,2081.2 1056.6,2057.8 1077.9,2035.7 1098.6,2015.1 1118.6,1996.1 1137.9,1978.9 1156.3,1963.5 1173.8,1950.1 1190.3,1938.8 1205.8,1929.6 1220.2,1922.6 1233.4,1917.8 1245.4,1915.4 1256.2,1915.2 1265.7,1917.4 1274.0,1921.9 1281.0,1928.8 1286.7,1938.0 1291.0,1949.4 1294.1,1963.1 1295.9,1979.0 1296.5,1997.0 1295.8,2017.0 1293.9,2039.0 1290.9,2062.8 1286.7,2088.3 1281.5,2115.4 1275.2,2143.9 1268.1,2173.7 1260.0,2204.7 1251.2,2236.6 1241.7,2269.2 1231.5,2302.4 1220.9,2336.0 1209.8,2369.6  " style="stroke-opacity: 1.000000; stroke-width: 5.0; stroke: rgb(107,174,214); fill: none"  />
<path d="M 922.8,2212.2 L 945.0,2184.9 967.3,2157.8 989.3,2131.3 1011.1,2105.5 1032.4,2080.6 1053.1,2056.8 1073.2,2034.2 1092.4,2013.0 1110.7,1993.3 1128.0,1975.3 1144.3,1959.0 1159.4,1944.5 1173.2,1932.0 1185.8,1921.6 1197.0,1913.2 1206.8,1906.9 1215.2,1902.9 1222.1,1901.1 1227.6,1901.5 1231.5,1904.1 1233.9,1909.0 1234.8,1916.1 1234.3,1925.4 1232.2,1936.8 1228.7,1950.4 1223.7,1966.0 1217.4,1983.5 1209.8,2002.9 1200.8,2024.1 1190.7,2047.0 1179.4,2071.4 1167.0,2097.3 1153.7,2124.4 1139.5,2152.6 1124.5,2181.7 1108.9,2211.6 1092.7,2242.0 1076.1,2272.9 1059.2,2303.8  " style="stroke-opacity: 1.000000; stroke-width: 5.0; stroke: rgb(107,174,214); fill: none"  />
<path d="M 2138.8,842.4 L 2114.2,867.9 2090.1,893.5 2066.5,919.0 2043.8,944.3 2022.0,969.2 2001.3,993.6 1981.9,1017.4 1963.9,1040.4 1947.4,1062.5 1932.6,1083.7 1919.5,1103.8 1908.3,1122.8 1899.0,1140.5 1891.7,1157.0 1886.4,1172.1 1883.3,1185.7 1882.3,1198.0 1883.4,1208.7 1886.7,1217.9 1892.2,1225.6 1899.8,1231.7 1909.6,1236.2 1921.5,1239.2 1935.5,1240.7 1951.5,1240.6 1969.4,1239.0 1989.2,1236.0 2010.8,1231.5 2034.0,1225.6 2058.9,1218.5 2085.1,1210.1 2112.7,1200.5 2141.5,1189.8 2171.3,1178.2 2201.9,1165.6 2233.2,1152.3 2264.9,1138.3 2297.0,1123.8 2329.1,1108.8  " style="stroke-opacity: 1.000000; stroke-width: 5.0; stroke: rgb(107,174,214); fill: none"  />
<path d="M 804.9,2097.7 L 832.1,2074.6 859.5,2052.0 886.9,2030.2 914.2,2009.2 941.3,1989.2 967.9,1970.4 994.1,1953.0 1019.7,1937.0 1044.5,1922.6 1068.4,1909.9 1091.5,1899.0 1113.5,1890.0 1134.4,1882.9 1154.2,1877.9 1172.7,1874.9 1189.9,1874.1 1205.8,1875.4 1220.3,1878.8 1233.4,1884.5 1245.0,1892.3 1255.2,1902.2 1263.9,1914.4 1271.1,1928.6 1276.8,1944.8 1281.1,1963.1 1283.9,1983.3 1285.2,2005.3 1285.2,2029.1 1283.9,2054.6 1281.2,2081.6 1277.2,2110.0 1272.1,2139.7 1265.9,2170.5 1258.6,2202.3 1250.4,2234.9 1241.3,2268.1 1231.4,2301.8 1220.9,2335.7 1209.8,2369.6  " style="stroke-opacity: 1.000000; stroke-width: 5.0; stroke: rgb(107,174,214); fill: none"  />
<path d="M 804.9,2097.7 L 831.8,2074.7 858.8,2052.2 885.7,2030.2 912.4,2009.0 938.5,1988.8 964.1,1969.6 989.0,1951.7 1013.1,1935.1 1036.2,1920.0 1058.2,1906.5 1079.1,1894.7 1098.7,1884.7 1117.0,1876.5 1133.8,1870.2 1149.2,1865.8 1163.1,1863.5 1175.3,1863.2 1186.0,1865.0 1195.0,1868.9 1202.3,1874.8 1207.9,1882.8 1211.9,1892.8 1214.1,1904.9 1214.7,1918.9 1213.7,1934.9 1211.0,1952.7 1206.8,1972.3 1201.0,1993.5 1193.7,2016.4 1185.1,2040.7 1175.1,2066.5 1163.9,2093.4 1151.5,2121.5 1138.1,2150.5 1123.7,2180.3 1108.5,2210.7 1092.6,2241.6 1076.1,2272.7 1059.2,2303.8  " style="stroke-opacity: 1.000000; stroke-width: 5.0; stroke: rgb(107,174,214); fill: none"  />
<path d="M 2245.9,967.0 L 2216.7,987.6 2187.4,1007.6 2158.2,1026.9 2129.1,1045.4 2100.3,1062.9 2072.1,1079.2 2044.5,1094.2 2017.6,1107.8 1991.6,1119.9 1966.6,1130.4 1942.6,1139.2 1919.9,1146.2 1898.4,1151.4 1878.3,1154.6 1859.6,1155.9 1842.4,1155.2 1826.7,1152.5 1812.5,1147.8 1800.0,1141.0 1789.1,1132.2 1779.9,1121.3 1772.3,1108.5 1766.4,1093.7 1762.2,1077.0 1759.6,1058.4 1758.6,1038.0 1759.2,1015.9 1761.3,992.2 1765.0,967.0 1770.1,940.4 1776.5,912.4 1784.3,883.3 1793.3,853.2 1803.4,822.2 1814.5,790.4 1826.5,758.1 1839.4,725.5 1852.9,692.7 1867.0,659.9  " style="stroke-opacity: 1.000000; stroke-width: 5.0; stroke: rgb(107,174,214); fill: none"  />
<path d="M 709.3,1964.0 L 740.5,1946.0 772.0,1928.6 803.5,1912.1 834.9,1896.5 866.0,1881.9 896.7,1868.6 926.8,1856.6 956.3,1846.0 985.0,1837.0 1012.8,1829.6 1039.6,1823.9 1065.3,1820.0 1089.8,1817.9 1113.0,1817.7 1134.8,1819.4 1155.3,1823.1 1174.3,1828.7 1191.8,1836.4 1207.7,1846.0 1222.0,1857.6 1234.7,1871.2 1245.8,1886.7 1255.3,1904.1 1263.1,1923.4 1269.4,1944.4 1274.0,1967.1 1277.0,1991.5 1278.5,2017.5 1278.4,2044.9 1276.9,2073.6 1274.0,2103.5 1269.8,2134.6 1264.3,2166.6 1257.6,2199.4 1249.8,2232.8 1241.0,2266.8 1231.4,2301.0 1220.9,2335.3 1209.8,2369.6  " style="stroke-opacity: 1.000000; stroke-width: 5.0; stroke: rgb(107,174,214); fill: none"  />
<path d="M 1533.9,2416.1 L 1532.8,2380.5 1532.2,2345.0 1532.2,2309.9 1532.8,2275.5 1534.1,2241.8 1536.1,2209.3 1538.8,2177.9 1542.2,2148.0 1546.4,2119.7 1551.4,2093.0 1557.3,2068.2 1563.9,2045.3 1571.5,2024.6 1579.8,2006.0 1589.1,1989.7 1599.1,1975.7 1610.0,1964.0 1621.8,1954.9 1634.4,1948.2 1647.7,1943.9 1661.9,1942.2 1676.7,1943.0 1692.3,1946.2 1708.6,1951.9 1725.6,1959.9 1743.1,1970.3 1761.2,1983.0 1779.8,1997.8 1798.8,2014.8 1818.3,2033.7 1838.0,2054.5 1858.0,2077.0 1878.3,2101.1 1898.6,2126.6 1918.9,2153.4 1939.2,2181.2 1959.4,2209.9 1979.3,2239.3 1999.0,2269.1  " style="stroke-opacity: 1.000000; stroke-width: 5.0; stroke: rgb(107,174,214); fill: none"  />
<path d="M 639.2,1815.3 L 673.1,1803.2 707.1,1791.8 741.1,1781.1 774.8,1771.3 808.0,1762.6 840.6,1755.0 872.4,1748.5 903.3,1743.4 933.1,1739.6 961.8,1737.3 989.2,1736.5 1015.1,1737.2 1039.6,1739.5 1062.5,1743.4 1083.7,1749.0 1103.2,1756.3 1120.8,1765.3 1136.7,1775.9 1150.6,1788.3 1162.6,1802.2 1172.7,1817.9 1180.9,1835.1 1187.1,1853.9 1191.4,1874.3 1193.7,1896.1 1194.2,1919.3 1192.8,1943.8 1189.6,1969.6 1184.7,1996.5 1178.1,2024.5 1169.9,2053.5 1160.2,2083.3 1149.1,2113.8 1136.6,2144.8 1123.0,2176.4 1108.3,2208.2 1092.7,2240.2 1076.3,2272.1 1059.2,2303.8  " style="stroke-opacity: 1.000000; stroke-width: 5.0; stroke: rgb(107,174,214); fill: none"  />
<path d="M 1369.8,2407.5 L 1375.4,2370.9 1381.9,2334.4 1389.4,2298.3 1397.7,2262.6 1407.1,2227.6 1417.4,2193.5 1428.7,2160.3 1441.1,2128.3 1454.5,2097.6 1469.0,2068.4 1484.6,2040.6 1501.2,2014.5 1518.8,1990.1 1537.6,1967.6 1557.3,1947.0 1578.1,1928.3 1599.9,1911.7 1622.7,1897.2 1646.4,1884.7 1671.0,1874.4 1696.5,1866.3 1722.9,1860.3 1750.0,1856.5 1777.9,1854.8 1806.4,1855.2 1835.6,1857.7 1865.4,1862.2 1895.6,1868.8 1926.3,1877.2 1957.3,1887.4 1988.6,1899.4 2020.1,1913.1 2051.6,1928.3 2083.2,1944.9 2114.6,1962.9 2145.9,1982.0 2176.8,2002.1 2207.4,2023.1 2237.4,2044.7  " style="stroke-opacity: 1.000000; stroke-width: 5.0; stroke: rgb(107,174,214); fill: none"  />
<path d="M 1369.8,2407.5 L 1375.3,2371.4 1381.6,2335.5 1388.7,2300.0 1396.6,2265.1 1405.3,2231.0 1414.9,2197.9 1425.4,2165.9 1436.7,2135.1 1449.0,2105.9 1462.1,2078.2 1476.2,2052.2 1491.1,2028.1 1507.0,2005.8 1523.7,1985.6 1541.3,1967.5 1559.7,1951.6 1579.0,1937.8 1599.1,1926.4 1620.0,1917.2 1641.7,1910.4 1664.0,1905.9 1687.0,1903.7 1710.7,1903.8 1735.0,1906.3 1759.8,1911.0 1785.1,1917.9 1810.9,1927.0 1837.0,1938.1 1863.4,1951.3 1890.1,1966.4 1916.9,1983.3 1943.9,2001.9 1970.8,2022.1 1997.7,2043.7 2024.5,2066.6 2051.0,2090.6 2077.2,2115.6 2103.0,2141.3 2128.3,2167.6  " style="stroke-opacity: 1.000000; stroke-width: 5.0; stroke: rgb(107,174,214); fill: none"  />
<path d="M 1369.8,2407.5 L 1375.1,2372.2 1380.8,2337.2 1387.1,2302.6 1393.9,2268.9 1401.1,2236.0 1408.8,2204.3 1417.1,2174.0 1425.8,2145.1 1435.0,2118.0 1444.7,2092.6 1454.9,2069.3 1465.5,2048.0 1476.7,2028.9 1488.2,2012.1 1500.2,1997.7 1512.6,1985.7 1525.4,1976.2 1538.6,1969.3 1552.2,1964.9 1566.1,1963.2 1580.3,1964.0 1594.8,1967.4 1609.6,1973.4 1624.6,1981.8 1639.8,1992.8 1655.2,2006.2 1670.8,2021.9 1686.4,2039.8 1702.1,2059.9 1717.9,2081.9 1733.6,2105.9 1749.3,2131.7 1764.8,2159.0 1780.3,2187.7 1795.5,2217.7 1810.5,2248.7 1825.3,2280.5 1839.6,2313.0 1853.6,2345.8  " style="stroke-opacity: 1.000000; stroke-width: 5.0; stroke: rgb(107,174,214); fill: none"  />
<path d="M 1369.8,2407.5 L 1374.9,2372.4 1380.5,2337.7 1386.3,2303.4 1392.4,2270.0 1398.8,2237.5 1405.4,2206.2 1412.4,2176.4 1419.6,2148.1 1427.1,2121.5 1434.8,2096.8 1442.7,2074.2 1450.9,2053.7 1459.2,2035.5 1467.8,2019.7 1476.5,2006.3 1485.4,1995.4 1494.5,1987.1 1503.7,1981.5 1513.0,1978.5 1522.4,1978.1 1531.9,1980.4 1541.5,1985.4 1551.1,1993.0 1560.8,2003.2 1570.5,2015.9 1580.2,2031.0 1589.9,2048.6 1599.5,2068.4 1609.1,2090.4 1618.6,2114.4 1628.0,2140.3 1637.3,2168.0 1646.5,2197.3 1655.4,2228.0 1664.2,2259.9 1672.8,2292.8 1681.1,2326.5 1689.1,2360.8 1696.9,2395.4  " style="stroke-opacity: 1.000000; stroke-width: 5.0; stroke: rgb(107,174,214); fill: none"  />
<path d="M 2329.1,1108.8 L 2297.0,1123.8 2264.9,1138.3 2233.2,1152.3 2201.9,1165.6 2171.3,1178.2 2141.5,1189.8 2112.7,1200.5 2085.1,1210.1 2058.9,1218.5 2034.0,1225.6 2010.8,1231.5 1989.2,1236.0 1969.4,1239.0 1951.5,1240.6 1935.5,1240.7 1921.5,1239.2 1909.6,1236.2 1899.8,1231.7 1892.2,1225.6 1886.7,1217.9 1883.4,1208.7 1882.3,1198.0 1883.3,1185.7 1886.4,1172.1 1891.7,1157.0 1899.0,1140.5 1908.3,1122.8 1919.5,1103.8 1932.6,1083.7 1947.4,1062.5 1963.9,1040.4 1981.9,1017.4 2001.3,993.6 2022.0,969.2 2043.8,944.3 2066.5,919.0 2090.1,893.5 2114.2,867.9 2138.8,842.4  " style="stroke-opacity: 1.000000; stroke-width: 5.0; stroke: rgb(107,174,214); fill: none"  />
</g>
<defs>
<pattern id="hline" width="10" height="10" patternTransform="rotate(0 0 0)" patternUnits="userSpaceOnUse"><line x1="0" y1="0" x2="10" y2="0" style="stroke:black;stroke-width:5" /></pattern>
<pattern id="vline-sparse" width="10" height="10" patternTransform="rotate(0 0 0)" patternUnits="userSpaceOnUse"><line x1="0" y1="0" x2="0" y2="10" style="stroke:black;stroke-width:2" /></pattern>
<pattern id="vline" width="10" height="10" patternTransform="rotate(0 0 0)" patternUnits="userSpaceOnUse"><line x1="0" y1="0" x2="0" y2="10" style="stroke:black;stroke-width:5" /></pattern>
<pattern id="checker" width="10" height="10" patternTransform="rotate(45 0 0)" patternUnits="userSpaceOnUse"><line x1="0" y1="0" x2="10" y2="0" style="stroke:black;stroke-width:2" /><line x1="0" y1="0" x2="0" y2="10" style="stroke:black;stroke-width:2" /></pattern>
<pattern id="checker" width="10" height="10" patternTransform="rotate(45 0 0)" patternUnits="userSpaceOnUse"><line x1="0" y1="0" x2="10" y2="0" style="stroke:black;stroke-width:5" /><line x1="0" y1="0" x2="0" y2="10" style="stroke:black;stroke-width:4" /></pattern>
<pattern id="hline-sparse" width="10" height="10" patternTransform="rotate(0 0 0)" patternUnits="userSpaceOnUse"><line x1="0" y1="0" x2="10" y2="0" style="stroke:black;stroke-width:2" /></pattern>
</defs>
</svg>
