<?xml version="1.0" encoding="utf-8" standalone="no"?>
<!DOCTYPE svg PUBLIC "-//W3C//DTD SVG 1.1//EN" "http://www.w3.org/Graphics/SVG/1.1/DTD/svg11.dtd">
<svg width="3000px" height="3000px" version="1.1" xmlns="http://www.w3.org/2000/svg" xmlns:xlink="http://www.w3.org/1999/xlink">
<g id="bg">
<rect x="0" y="0" width="3000px" height="3000px" style="fill:rgb(255,255,255);"/>
</g>
<g id="ideograms">
<path d="M1500.000,535.000 A965.000,965.000 40.000 0,1 1601.714,540.376 L1618.579,381.267 A1125.000,1125.000 0.000 0,0 1500.000,375.000 Z" style="stroke-width:2.0;stroke:rgb(115,115,115);stroke-linecap:round;fill:rgb(153,204,255);" />
<text x="1635.1" y="307.6" font-size="195.0px" font-family="CMUBright-Bold" style="text-anchor:start;fill:rgb(0,0,0);" transform="rotate(273.0,1635.1,307.6)" >5</text>
<path d="M1500.000,535.000 A965.000,965.000 40.000 0,1 1601.714,540.376 L1618.579,381.267 A1125.000,1125.000 0.000 0,0 1500.000,375.000 Z" style="stroke-width:2.0;stroke:rgb(115,115,115);stroke-linecap:round;fill:none;" />
<path d="M1672.307,550.508 A965.000,965.000 40.000 0,1 1771.427,573.959 L1816.431,420.418 A1125.000,1125.000 0.000 0,0 1700.877,393.079 Z" style="stroke-width:2.0;stroke:rgb(115,115,115);stroke-linecap:round;fill:rgb(153,204,255);" />
<text x="1844.9" y="350.6" font-size="195.0px" font-family="CMUBright-Bold" style="text-anchor:start;fill:rgb(0,0,0);" transform="rotate(283.3,1844.9,350.6)" >7</text>
<path d="M1672.307,550.508 A965.000,965.000 40.000 0,1 1771.427,573.959 L1816.431,420.418 A1125.000,1125.000 0.000 0,0 1700.877,393.079 Z" style="stroke-width:2.0;stroke:rgb(115,115,115);stroke-linecap:round;fill:none;" />
<path d="M1839.077,596.533 A965.000,965.000 40.000 0,1 1932.417,637.306 L2004.113,494.269 A1125.000,1125.000 0.000 0,0 1895.297,446.736 Z" style="stroke-width:2.0;stroke:rgb(115,115,115);stroke-linecap:round;fill:rgb(153,204,255);" />
<text x="2047.2" y="432.0" font-size="195.0px" font-family="CMUBright-Bold" style="text-anchor:start;fill:rgb(0,0,0);" transform="rotate(293.6,2047.2,432.0)" >10</text>
<path d="M1839.077,596.533 A965.000,965.000 40.000 0,1 1932.417,637.306 L2004.113,494.269 A1125.000,1125.000 0.000 0,0 1895.297,446.736 Z" style="stroke-width:2.0;stroke:rgb(115,115,115);stroke-linecap:round;fill:none;" />
<path d="M1994.948,671.597 A965.000,965.000 40.000 0,1 2079.507,728.381 L2175.592,600.444 A1125.000,1125.000 0.000 0,0 2077.012,534.245 Z" style="stroke-width:2.0;stroke:rgb(115,115,115);stroke-linecap:round;fill:rgb(153,204,255);" />
<text x="2229.1" y="546.9" font-size="195.0px" font-family="CMUBright-Bold" style="text-anchor:start;fill:rgb(0,0,0);" transform="rotate(303.9,2229.1,546.9)" >13</text>
<path d="M1994.948,671.597 A965.000,965.000 40.000 0,1 2079.507,728.381 L2175.592,600.444 A1125.000,1125.000 0.000 0,0 2077.012,534.245 Z" style="stroke-width:2.0;stroke:rgb(115,115,115);stroke-linecap:round;fill:none;" />
<path d="M2134.911,773.286 A965.000,965.000 40.000 0,1 2207.972,844.256 L2325.356,735.532 A1125.000,1125.000 0.000 0,0 2240.181,652.795 Z" style="stroke-width:2.0;stroke:rgb(115,115,115);stroke-linecap:round;fill:rgb(153,204,255);" />
<text x="2387.6" y="692.4" font-size="195.0px" font-family="CMUBright-Bold" style="text-anchor:start;fill:rgb(0,0,0);" transform="rotate(314.2,2387.6,692.4)" >26</text>
<path d="M2134.911,773.286 A965.000,965.000 40.000 0,1 2207.972,844.256 L2325.356,735.532 A1125.000,1125.000 0.000 0,0 2240.181,652.795 Z" style="stroke-width:2.0;stroke:rgb(115,115,115);stroke-linecap:round;fill:none;" />
<path d="M2254.467,898.332 A965.000,965.000 40.000 0,1 2313.683,981.207 L2448.594,895.190 A1125.000,1125.000 0.000 0,0 2379.560,798.574 Z" style="stroke-width:2.0;stroke:rgb(115,115,115);stroke-linecap:round;fill:rgb(153,204,255);" />
<text x="2517.5" y="863.9" font-size="195.0px" font-family="CMUBright-Bold" style="text-anchor:start;fill:rgb(0,0,0);" transform="rotate(324.5,2517.5,863.9)" >28</text>
<path d="M2254.467,898.332 A965.000,965.000 40.000 0,1 2313.683,981.207 L2448.594,895.190 A1125.000,1125.000 0.000 0,0 2379.560,798.574 Z" style="stroke-width:2.0;stroke:rgb(115,115,115);stroke-linecap:round;fill:none;" />
<path d="M2349.775,1042.717 A965.000,965.000 40.000 0,1 2393.240,1134.833 L2541.342,1074.288 A1125.000,1125.000 0.000 0,0 2490.670,966.898 Z" style="stroke-width:2.0;stroke:rgb(115,115,115);stroke-linecap:round;fill:rgb(116,196,118);" />
<text x="2614.0" y="1053.9" font-size="195.0px" font-family="CMUBright-Bold" style="text-anchor:start;fill:rgb(0,0,0);" transform="rotate(334.7,2614.0,1053.9)" >2</text>
<path d="M2349.775,1042.717 A965.000,965.000 40.000 0,1 2393.240,1134.833 L2541.342,1074.288 A1125.000,1125.000 0.000 0,0 2490.670,966.898 Z" style="stroke-width:2.0;stroke:rgb(115,115,115);stroke-linecap:round;fill:none;" />
<path d="M2417.770,1201.799 A965.000,965.000 40.000 0,1 2444.089,1300.196 L2600.621,1267.068 A1125.000,1125.000 0.000 0,0 2569.939,1152.356 Z" style="stroke-width:2.0;stroke:rgb(115,115,115);stroke-linecap:round;fill:rgb(116,196,118);" />
<text x="2676.2" y="1262.0" font-size="195.0px" font-family="CMUBright-Bold" style="text-anchor:start;fill:rgb(0,0,0);" transform="rotate(345.0,2676.2,1262.0)" >3</text>
<path d="M2417.770,1201.799 A965.000,965.000 40.000 0,1 2444.089,1300.196 L2600.621,1267.068 A1125.000,1125.000 0.000 0,0 2569.939,1152.356 Z" style="stroke-width:2.0;stroke:rgb(115,115,115);stroke-linecap:round;fill:none;" />
<path d="M2456.267,1370.465 A965.000,965.000 40.000 0,1 2464.593,1471.980 L2624.526,1467.335 A1125.000,1125.000 0.000 0,0 2614.818,1348.988 Z" style="stroke-width:2.0;stroke:rgb(115,115,115);stroke-linecap:round;fill:rgb(116,196,118);" />
<text x="2699.7" y="1471.8" font-size="195.0px" font-family="CMUBright-Bold" style="text-anchor:start;fill:rgb(0,0,0);" transform="rotate(355.3,2699.7,1471.8)" >4</text>
<path d="M2456.267,1370.465 A965.000,965.000 40.000 0,1 2464.593,1471.980 L2624.526,1467.335 A1125.000,1125.000 0.000 0,0 2614.818,1348.988 Z" style="stroke-width:2.0;stroke:rgb(115,115,115);stroke-linecap:round;fill:none;" />
<path d="M2464.028,1543.295 A965.000,965.000 40.000 0,1 2454.095,1644.665 L2612.287,1668.651 A1125.000,1125.000 0.000 0,0 2623.867,1550.473 Z" style="stroke-width:2.0;stroke:rgb(115,115,115);stroke-linecap:round;fill:rgb(116,196,118);" />
<text x="2685.1" y="1688.4" font-size="195.0px" font-family="CMUBright-Bold" style="text-anchor:start;fill:rgb(0,0,0);" transform="rotate(5.6,2685.1,1688.4)" >14</text>
<path d="M2464.028,1543.295 A965.000,965.000 40.000 0,1 2454.095,1644.665 L2612.287,1668.651 A1125.000,1125.000 0.000 0,0 2623.867,1550.473 Z" style="stroke-width:2.0;stroke:rgb(115,115,115);stroke-linecap:round;fill:none;" />
<path d="M2440.805,1714.733 A965.000,965.000 40.000 0,1 2412.931,1812.701 L2564.298,1864.548 A1125.000,1125.000 0.000 0,0 2596.794,1750.336 Z" style="stroke-width:2.0;stroke:rgb(115,115,115);stroke-linecap:round;fill:rgb(116,196,118);" />
<text x="2631.8" y="1898.9" font-size="195.0px" font-family="CMUBright-Bold" style="text-anchor:start;fill:rgb(0,0,0);" transform="rotate(15.9,2631.8,1898.9)" >15</text>
<path d="M2440.805,1714.733 A965.000,965.000 40.000 0,1 2412.931,1812.701 L2564.298,1864.548 A1125.000,1125.000 0.000 0,0 2596.794,1750.336 Z" style="stroke-width:2.0;stroke:rgb(115,115,115);stroke-linecap:round;fill:none;" />
<path d="M2387.344,1879.269 A965.000,965.000 40.000 0,1 2342.425,1970.686 L2482.102,2048.727 A1125.000,1125.000 0.000 0,0 2534.469,1942.153 Z" style="stroke-width:2.0;stroke:rgb(115,115,115);stroke-linecap:round;fill:rgb(116,196,118);" />
<text x="2542.3" y="2094.6" font-size="195.0px" font-family="CMUBright-Bold" style="text-anchor:start;fill:rgb(0,0,0);" transform="rotate(26.2,2542.3,2094.6)" >23</text>
<path d="M2387.344,1879.269 A965.000,965.000 40.000 0,1 2342.425,1970.686 L2482.102,2048.727 A1125.000,1125.000 0.000 0,0 2534.469,1942.153 Z" style="stroke-width:2.0;stroke:rgb(115,115,115);stroke-linecap:round;fill:none;" />
<path d="M2305.363,2031.616 A965.000,965.000 40.000 0,1 2244.843,2113.542 L2368.340,2215.270 A1125.000,1125.000 0.000 0,0 2438.895,2119.759 Z" style="stroke-width:2.0;stroke:rgb(115,115,115);stroke-linecap:round;fill:rgb(116,196,118);" />
<text x="2420.7" y="2269.6" font-size="195.0px" font-family="CMUBright-Bold" style="text-anchor:start;fill:rgb(0,0,0);" transform="rotate(36.5,2420.7,2269.6)" >24</text>
<path d="M2305.363,2031.616 A965.000,965.000 40.000 0,1 2244.843,2113.542 L2368.340,2215.270 A1125.000,1125.000 0.000 0,0 2438.895,2119.759 Z" style="stroke-width:2.0;stroke:rgb(115,115,115);stroke-linecap:round;fill:none;" />
<path d="M2197.497,2166.875 A965.000,965.000 40.000 0,1 2123.321,2236.679 L2226.669,2358.823 A1125.000,1125.000 0.000 0,0 2313.144,2277.445 Z" style="stroke-width:2.0;stroke:rgb(115,115,115);stroke-linecap:round;fill:rgb(153,0,204);" />
<text x="2267.0" y="2422.9" font-size="195.0px" font-family="CMUBright-Bold" style="text-anchor:start;fill:rgb(0,0,0);" transform="rotate(46.7,2267.0,2422.9)" >9</text>
<path d="M2197.497,2166.875 A965.000,965.000 40.000 0,1 2123.321,2236.679 L2226.669,2358.823 A1125.000,1125.000 0.000 0,0 2313.144,2277.445 Z" style="stroke-width:2.0;stroke:rgb(115,115,115);stroke-linecap:round;fill:none;" />
<path d="M2067.213,2280.701 A965.000,965.000 40.000 0,1 1981.764,2336.139 L2061.642,2474.773 A1125.000,1125.000 0.000 0,0 2161.258,2410.144 Z" style="stroke-width:2.0;stroke:rgb(115,115,115);stroke-linecap:round;fill:rgb(153,0,204);" />
<text x="2091.6" y="2544.0" font-size="195.0px" font-family="CMUBright-Bold" style="text-anchor:start;fill:rgb(0,0,0);" transform="rotate(57.0,2091.6,2544.0)" >12</text>
<path d="M2067.213,2280.701 A965.000,965.000 40.000 0,1 1981.764,2336.139 L2061.642,2474.773 A1125.000,1125.000 0.000 0,0 2161.258,2410.144 Z" style="stroke-width:2.0;stroke:rgb(115,115,115);stroke-linecap:round;fill:none;" />
<path d="M1918.698,2369.435 A965.000,965.000 40.000 0,1 1824.724,2408.724 L1878.564,2559.393 A1125.000,1125.000 0.000 0,0 1988.119,2513.590 Z" style="stroke-width:2.0;stroke:rgb(115,115,115);stroke-linecap:round;fill:rgb(153,0,204);" />
<text x="1894.7" y="2633.2" font-size="195.0px" font-family="CMUBright-Bold" style="text-anchor:start;fill:rgb(0,0,0);" transform="rotate(67.3,1894.7,2633.2)" >17</text>
<path d="M1918.698,2369.435 A965.000,965.000 40.000 0,1 1824.724,2408.724 L1878.564,2559.393 A1125.000,1125.000 0.000 0,0 1988.119,2513.590 Z" style="stroke-width:2.0;stroke:rgb(115,115,115);stroke-linecap:round;fill:none;" />
<path d="M1756.726,2430.224 A965.000,965.000 40.000 0,1 1657.246,2452.102 L1683.318,2609.964 A1125.000,1125.000 0.000 0,0 1799.291,2584.458 Z" style="stroke-width:2.0;stroke:rgb(115,115,115);stroke-linecap:round;fill:rgb(153,0,204);" />
<text x="1685.0" y="2685.6" font-size="195.0px" font-family="CMUBright-Bold" style="text-anchor:start;fill:rgb(0,0,0);" transform="rotate(77.6,1685.0,2685.6)" >34</text>
<path d="M1756.726,2430.224 A965.000,965.000 40.000 0,1 1657.246,2452.102 L1683.318,2609.964 A1125.000,1125.000 0.000 0,0 1799.291,2584.458 Z" style="stroke-width:2.0;stroke:rgb(115,115,115);stroke-linecap:round;fill:none;" />
<path d="M1586.502,2461.115 A965.000,965.000 40.000 0,1 1484.715,2464.879 L1482.181,2624.859 A1125.000,1125.000 0.000 0,0 1600.844,2620.471 Z" style="stroke-width:2.0;stroke:rgb(115,115,115);stroke-linecap:round;fill:rgb(253,208,162);" />
<text x="1470.4" y="2699.6" font-size="195.0px" font-family="CMUBright-Bold" style="text-anchor:start;fill:rgb(0,0,0);" transform="rotate(87.9,1470.4,2699.6)" >6</text>
<path d="M1586.502,2461.115 A965.000,965.000 40.000 0,1 1484.715,2464.879 L1482.181,2624.859 A1125.000,1125.000 0.000 0,0 1600.844,2620.471 Z" style="stroke-width:2.0;stroke:rgb(115,115,115);stroke-linecap:round;fill:none;" />
<path d="M1413.498,2461.115 A965.000,965.000 40.000 0,1 1312.675,2446.644 L1281.616,2603.600 A1125.000,1125.000 0.000 0,0 1399.156,2620.471 Z" style="stroke-width:2.0;stroke:rgb(115,115,115);stroke-linecap:round;fill:rgb(253,208,162);" />
<text x="1403.0" y="2696.1" font-size="195.0px" font-family="CMUBright-Bold" style="text-anchor:end;fill:rgb(0,0,0);" transform="rotate(-81.8,1403.0,2696.1)" >8</text>
<path d="M1413.498,2461.115 A965.000,965.000 40.000 0,1 1312.675,2446.644 L1281.616,2603.600 A1125.000,1125.000 0.000 0,0 1399.156,2620.471 Z" style="stroke-width:2.0;stroke:rgb(115,115,115);stroke-linecap:round;fill:none;" />
<path d="M1243.274,2430.224 A965.000,965.000 40.000 0,1 1146.656,2397.983 L1088.070,2546.871 A1125.000,1125.000 0.000 0,0 1200.709,2584.458 Z" style="stroke-width:2.0;stroke:rgb(115,115,115);stroke-linecap:round;fill:rgb(253,208,162);" />
<text x="1191.0" y="2659.5" font-size="195.0px" font-family="CMUBright-Bold" style="text-anchor:end;fill:rgb(0,0,0);" transform="rotate(-71.5,1191.0,2659.5)" >16</text>
<path d="M1243.274,2430.224 A965.000,965.000 40.000 0,1 1146.656,2397.983 L1088.070,2546.871 A1125.000,1125.000 0.000 0,0 1200.709,2584.458 Z" style="stroke-width:2.0;stroke:rgb(115,115,115);stroke-linecap:round;fill:none;" />
<path d="M1081.302,2369.435 A965.000,965.000 40.000 0,1 991.993,2320.460 L907.764,2456.494 A1125.000,1125.000 0.000 0,0 1011.881,2513.590 Z" style="stroke-width:2.0;stroke:rgb(115,115,115);stroke-linecap:round;fill:rgb(253,208,162);" />
<text x="988.9" y="2585.7" font-size="195.0px" font-family="CMUBright-Bold" style="text-anchor:end;fill:rgb(0,0,0);" transform="rotate(-61.3,988.9,2585.7)" >20</text>
<path d="M1081.302,2369.435 A965.000,965.000 40.000 0,1 991.993,2320.460 L907.764,2456.494 A1125.000,1125.000 0.000 0,0 1011.881,2513.590 Z" style="stroke-width:2.0;stroke:rgb(115,115,115);stroke-linecap:round;fill:none;" />
<path d="M932.787,2280.701 A965.000,965.000 40.000 0,1 853.658,2216.566 L746.493,2335.375 A1125.000,1125.000 0.000 0,0 838.742,2410.144 Z" style="stroke-width:2.0;stroke:rgb(115,115,115);stroke-linecap:round;fill:rgb(253,208,162);" />
<text x="803.3" y="2477.0" font-size="195.0px" font-family="CMUBright-Bold" style="text-anchor:end;fill:rgb(0,0,0);" transform="rotate(-51.0,803.3,2477.0)" >25</text>
<path d="M932.787,2280.701 A965.000,965.000 40.000 0,1 853.658,2216.566 L746.493,2335.375 A1125.000,1125.000 0.000 0,0 838.742,2410.144 Z" style="stroke-width:2.0;stroke:rgb(115,115,115);stroke-linecap:round;fill:none;" />
<path d="M802.503,2166.875 A965.000,965.000 40.000 0,1 736.097,2089.642 L609.440,2187.406 A1125.000,1125.000 0.000 0,0 686.856,2277.445 Z" style="stroke-width:2.0;stroke:rgb(115,115,115);stroke-linecap:round;fill:rgb(253,208,162);" />
<text x="640.0" y="2336.9" font-size="195.0px" font-family="CMUBright-Bold" style="text-anchor:end;fill:rgb(0,0,0);" transform="rotate(-40.7,640.0,2336.9)" >29</text>
<path d="M802.503,2166.875 A965.000,965.000 40.000 0,1 736.097,2089.642 L609.440,2187.406 A1125.000,1125.000 0.000 0,0 686.856,2277.445 Z" style="stroke-width:2.0;stroke:rgb(115,115,115);stroke-linecap:round;fill:none;" />
<path d="M694.637,2031.616 A965.000,965.000 40.000 0,1 643.089,1943.766 L501.010,2017.344 A1125.000,1125.000 0.000 0,0 561.105,2119.759 Z" style="stroke-width:2.0;stroke:rgb(115,115,115);stroke-linecap:round;fill:rgb(253,141,60);" />
<text x="503.3" y="2168.3" font-size="195.0px" font-family="CMUBright-Bold" style="text-anchor:end;fill:rgb(0,0,0);" transform="rotate(-30.4,503.3,2168.3)" >11</text>
<path d="M694.637,2031.616 A965.000,965.000 40.000 0,1 643.089,1943.766 L501.010,2017.344 A1125.000,1125.000 0.000 0,0 561.105,2119.759 Z" style="stroke-width:2.0;stroke:rgb(115,115,115);stroke-linecap:round;fill:none;" />
<path d="M612.656,1879.269 A965.000,965.000 40.000 0,1 577.622,1783.627 L424.689,1830.653 A1125.000,1125.000 0.000 0,0 465.531,1942.153 Z" style="stroke-width:2.0;stroke:rgb(115,115,115);stroke-linecap:round;fill:rgb(253,141,60);" />
<text x="400.0" y="1979.6" font-size="195.0px" font-family="CMUBright-Bold" style="text-anchor:end;fill:rgb(0,0,0);" transform="rotate(-20.1,400.0,1979.6)" >22</text>
<path d="M612.656,1879.269 A965.000,965.000 40.000 0,1 577.622,1783.627 L424.689,1830.653 A1125.000,1125.000 0.000 0,0 465.531,1942.153 Z" style="stroke-width:2.0;stroke:rgb(115,115,115);stroke-linecap:round;fill:none;" />
<path d="M559.195,1714.733 A965.000,965.000 40.000 0,1 541.802,1614.372 L382.929,1633.336 A1125.000,1125.000 0.000 0,0 403.206,1750.336 Z" style="stroke-width:2.0;stroke:rgb(115,115,115);stroke-linecap:round;fill:rgb(253,141,60);" />
<text x="332.5" y="1777.4" font-size="195.0px" font-family="CMUBright-Bold" style="text-anchor:end;fill:rgb(0,0,0);" transform="rotate(-9.8,332.5,1777.4)" >30</text>
<path d="M559.195,1714.733 A965.000,965.000 40.000 0,1 541.802,1614.372 L382.929,1633.336 A1125.000,1125.000 0.000 0,0 403.206,1750.336 Z" style="stroke-width:2.0;stroke:rgb(115,115,115);stroke-linecap:round;fill:none;" />
<path d="M535.972,1543.295 A965.000,965.000 40.000 0,1 536.778,1441.441 L377.073,1431.732 A1125.000,1125.000 0.000 0,0 376.133,1550.473 Z" style="stroke-width:2.0;stroke:rgb(115,115,115);stroke-linecap:round;fill:rgb(253,141,60);" />
<text x="301.7" y="1564.5" font-size="195.0px" font-family="CMUBright-Bold" style="text-anchor:end;fill:rgb(0,0,0);" transform="rotate(0.5,301.7,1564.5)" >31</text>
<path d="M535.972,1543.295 A965.000,965.000 40.000 0,1 536.778,1441.441 L377.073,1431.732 A1125.000,1125.000 0.000 0,0 376.133,1550.473 Z" style="stroke-width:2.0;stroke:rgb(115,115,115);stroke-linecap:round;fill:none;" />
<path d="M543.733,1370.465 A965.000,965.000 40.000 0,1 562.714,1270.393 L407.309,1232.323 A1125.000,1125.000 0.000 0,0 385.182,1348.988 Z" style="stroke-width:2.0;stroke:rgb(115,115,115);stroke-linecap:round;fill:rgb(253,141,60);" />
<text x="309.5" y="1349.5" font-size="195.0px" font-family="CMUBright-Bold" style="text-anchor:end;fill:rgb(0,0,0);" transform="rotate(10.7,309.5,1349.5)" >32</text>
<path d="M543.733,1370.465 A965.000,965.000 40.000 0,1 562.714,1270.393 L407.309,1232.323 A1125.000,1125.000 0.000 0,0 385.182,1348.988 Z" style="stroke-width:2.0;stroke:rgb(115,115,115);stroke-linecap:round;fill:none;" />
<path d="M582.230,1201.799 A965.000,965.000 40.000 0,1 618.774,1106.724 L472.664,1041.517 A1125.000,1125.000 0.000 0,0 430.061,1152.356 Z" style="stroke-width:2.0;stroke:rgb(115,115,115);stroke-linecap:round;fill:rgb(253,141,60);" />
<text x="355.5" y="1139.3" font-size="195.0px" font-family="CMUBright-Bold" style="text-anchor:end;fill:rgb(0,0,0);" transform="rotate(21.0,355.5,1139.3)" >33</text>
<path d="M582.230,1201.799 A965.000,965.000 40.000 0,1 618.774,1106.724 L472.664,1041.517 A1125.000,1125.000 0.000 0,0 430.061,1152.356 Z" style="stroke-width:2.0;stroke:rgb(115,115,115);stroke-linecap:round;fill:none;" />
<path d="M650.225,1042.717 A965.000,965.000 40.000 0,1 703.158,955.695 L571.039,865.447 A1125.000,1125.000 0.000 0,0 509.330,966.898 Z" style="stroke-width:2.0;stroke:rgb(115,115,115);stroke-linecap:round;fill:rgb(66,146,198);" />
<text x="439.2" y="939.0" font-size="195.0px" font-family="CMUBright-Bold" style="text-anchor:end;fill:rgb(0,0,0);" transform="rotate(31.3,439.2,939.0)" >1</text>
<path d="M650.225,1042.717 A965.000,965.000 40.000 0,1 703.158,955.695 L571.039,865.447 A1125.000,1125.000 0.000 0,0 509.330,966.898 Z" style="stroke-width:2.0;stroke:rgb(115,115,115);stroke-linecap:round;fill:none;" />
<path d="M745.533,898.332 A965.000,965.000 40.000 0,1 813.153,822.160 L699.272,709.772 A1125.000,1125.000 0.000 0,0 620.440,798.574 Z" style="stroke-width:2.0;stroke:rgb(115,115,115);stroke-linecap:round;fill:rgb(66,146,198);" />
<text x="555.2" y="760.2" font-size="195.0px" font-family="CMUBright-Bold" style="text-anchor:end;fill:rgb(0,0,0);" transform="rotate(41.6,555.2,760.2)" >18</text>
<path d="M745.533,898.332 A965.000,965.000 40.000 0,1 813.153,822.160 L699.272,709.772 A1125.000,1125.000 0.000 0,0 620.440,798.574 Z" style="stroke-width:2.0;stroke:rgb(115,115,115);stroke-linecap:round;fill:none;" />
<path d="M865.089,773.286 A965.000,965.000 40.000 0,1 945.224,710.412 L853.241,579.496 A1125.000,1125.000 0.000 0,0 759.819,652.795 Z" style="stroke-width:2.0;stroke:rgb(115,115,115);stroke-linecap:round;fill:rgb(66,146,198);" />
<text x="702.5" y="603.4" font-size="195.0px" font-family="CMUBright-Bold" style="text-anchor:end;fill:rgb(0,0,0);" transform="rotate(51.9,702.5,603.4)" >19</text>
<path d="M865.089,773.286 A965.000,965.000 40.000 0,1 945.224,710.412 L853.241,579.496 A1125.000,1125.000 0.000 0,0 759.819,652.795 Z" style="stroke-width:2.0;stroke:rgb(115,115,115);stroke-linecap:round;fill:none;" />
<path d="M1005.052,671.597 A965.000,965.000 40.000 0,1 1095.126,624.042 L1027.997,478.806 A1125.000,1125.000 0.000 0,0 922.988,534.245 Z" style="stroke-width:2.0;stroke:rgb(115,115,115);stroke-linecap:round;fill:rgb(66,146,198);" />
<text x="877.1" y="474.3" font-size="195.0px" font-family="CMUBright-Bold" style="text-anchor:end;fill:rgb(0,0,0);" transform="rotate(62.2,877.1,474.3)" >21</text>
<path d="M1005.052,671.597 A965.000,965.000 40.000 0,1 1095.126,624.042 L1027.997,478.806 A1125.000,1125.000 0.000 0,0 922.988,534.245 Z" style="stroke-width:2.0;stroke:rgb(115,115,115);stroke-linecap:round;fill:none;" />
<path d="M1160.923,596.533 A965.000,965.000 40.000 0,1 1258.041,565.826 L1217.923,410.937 A1125.000,1125.000 0.000 0,0 1104.703,446.736 Z" style="stroke-width:2.0;stroke:rgb(115,115,115);stroke-linecap:round;fill:rgb(66,146,198);" />
<text x="1069.3" y="379.9" font-size="195.0px" font-family="CMUBright-Bold" style="text-anchor:end;fill:rgb(0,0,0);" transform="rotate(72.5,1069.3,379.9)" >27</text>
<path d="M1160.923,596.533 A965.000,965.000 40.000 0,1 1258.041,565.826 L1217.923,410.937 A1125.000,1125.000 0.000 0,0 1104.703,446.736 Z" style="stroke-width:2.0;stroke:rgb(115,115,115);stroke-linecap:round;fill:none;" />
<path d="M1327.693,550.508 A965.000,965.000 40.000 0,1 1428.732,537.635 L1416.916,378.072 A1125.000,1125.000 0.000 0,0 1299.123,393.079 Z" style="stroke-width:2.0;stroke:rgb(115,115,115);stroke-linecap:round;fill:rgb(66,146,198);" />
<text x="1275.3" y="321.2" font-size="195.0px" font-family="CMUBright-Bold" style="text-anchor:end;fill:rgb(0,0,0);" transform="rotate(82.7,1275.3,321.2)" >35</text>
<path d="M1327.693,550.508 A965.000,965.000 40.000 0,1 1428.732,537.635 L1416.916,378.072 A1125.000,1125.000 0.000 0,0 1299.123,393.079 Z" style="stroke-width:2.0;stroke:rgb(115,115,115);stroke-linecap:round;fill:none;" />
</g>
<g id="track_1">
<path d="M 716.8,1023.6 L 755.6,1047.4 794.5,1071.4 833.4,1095.9 872.3,1120.6 911.1,1145.7 950.0,1171.0 988.8,1196.8 1027.5,1222.8 1066.1,1249.2 1104.6,1275.9 1143.0,1303.0 1181.3,1330.3 1219.5,1358.0 1257.4,1386.0 1295.3,1414.4 1332.9,1443.0 1370.3,1472.0 1407.6,1501.2 1444.6,1530.7 1481.4,1560.6 1518.0,1590.7 1554.3,1621.0 1590.4,1651.7 1626.2,1682.6 1661.7,1713.7 1697.0,1745.1 1732.0,1776.6 1766.7,1808.4 1801.1,1840.4 1835.2,1872.6 1869.0,1904.9 1902.5,1937.4 1935.7,1970.0 1968.6,2002.7 2001.2,2035.6 2033.4,2068.5 2065.4,2101.5 2097.0,2134.5 2128.3,2167.6  " style="stroke-opacity: 1.000000; stroke-width: 5.0; stroke: rgb(251,106,74); fill: none"  />
<path d="M 716.8,1023.6 L 749.7,1043.1 783.4,1061.9 817.5,1079.8 852.2,1096.6 887.3,1112.4 922.6,1126.9 958.2,1140.0 993.9,1151.7 1029.7,1161.9 1065.5,1170.4 1101.2,1177.3 1136.7,1182.4 1172.1,1185.6 1207.2,1187.1 1241.9,1186.6 1276.3,1184.2 1310.2,1179.9 1343.6,1173.6 1376.4,1165.3 1408.7,1155.1 1440.3,1143.0 1471.3,1128.9 1501.5,1113.0 1531.0,1095.2 1559.7,1075.6 1587.6,1054.3 1614.6,1031.3 1640.8,1006.7 1666.1,980.5 1690.4,953.0 1713.9,924.1 1736.4,894.0 1757.9,862.8 1778.5,830.6 1798.2,797.5 1816.8,763.8 1834.5,729.5 1851.2,694.8 1867.0,659.9  " style="stroke-opacity: 1.000000; stroke-width: 5.0; stroke: rgb(251,106,74); fill: none"  />
<path d="M 716.8,1023.6 L 753.8,1046.5 790.9,1070.0 828.0,1094.2 864.9,1119.1 901.7,1144.6 938.3,1170.9 974.7,1197.8 1010.8,1225.4 1046.6,1253.7 1082.0,1282.7 1117.1,1312.4 1151.7,1342.7 1185.9,1373.6 1219.6,1405.3 1252.8,1437.5 1285.4,1470.4 1317.5,1503.9 1349.0,1537.9 1379.9,1572.6 1410.2,1607.8 1439.8,1643.6 1468.8,1679.8 1497.1,1716.6 1524.7,1753.8 1551.6,1791.4 1577.8,1829.5 1603.3,1867.9 1628.1,1906.7 1652.2,1945.8 1675.5,1985.2 1698.1,2024.9 1720.0,2064.7 1741.2,2104.7 1761.6,2144.8 1781.4,2185.0 1800.5,2225.3 1818.9,2265.5 1836.6,2305.7 1853.6,2345.8  " style="stroke-opacity: 1.000000; stroke-width: 5.0; stroke: rgb(251,106,74); fill: none"  />
<path d="M 716.8,1023.6 L 753.0,1046.0 789.2,1069.2 825.2,1093.2 861.1,1118.1 896.8,1143.7 932.1,1170.1 967.1,1197.4 1001.7,1225.4 1035.9,1254.3 1069.5,1284.0 1102.5,1314.4 1135.0,1345.7 1166.8,1377.7 1197.9,1410.4 1228.3,1443.9 1257.9,1478.2 1286.8,1513.1 1314.9,1548.7 1342.1,1585.0 1368.5,1621.9 1393.9,1659.4 1418.5,1697.4 1442.2,1736.1 1465.0,1775.2 1486.8,1814.8 1507.7,1854.9 1527.7,1895.4 1546.8,1936.2 1564.9,1977.3 1582.0,2018.7 1598.3,2060.4 1613.6,2102.2 1628.1,2144.1 1641.6,2186.1 1654.3,2228.2 1666.2,2270.2 1677.2,2312.1 1687.4,2353.8 1696.9,2395.4  " style="stroke-opacity: 1.000000; stroke-width: 5.0; stroke: rgb(251,106,74); fill: none"  />
<path d="M 1711.1,607.9 L 1701.6,649.4 1692.7,691.5 1684.5,734.0 1676.9,777.0 1670.1,820.4 1664.1,864.1 1658.9,908.2 1654.6,952.5 1651.2,997.1 1648.7,1041.8 1647.1,1086.7 1646.6,1131.8 1647.0,1176.9 1648.5,1222.1 1650.9,1267.2 1654.5,1312.4 1659.1,1357.4 1664.7,1402.4 1671.4,1447.3 1679.1,1492.0 1687.9,1536.5 1697.8,1580.7 1708.6,1624.7 1720.5,1668.4 1733.3,1711.8 1747.2,1754.8 1761.9,1797.4 1777.6,1839.7 1794.2,1881.4 1811.6,1922.7 1829.8,1963.6 1848.8,2003.9 1868.5,2043.6 1888.9,2082.8 1909.9,2121.3 1931.5,2159.2 1953.5,2196.5 1976.1,2233.2 1999.0,2269.1  " style="stroke-opacity: 1.000000; stroke-width: 5.0; stroke: rgb(251,106,74); fill: none"  />
<path d="M 1369.8,2407.5 L 1376.3,2362.4 1383.2,2317.2 1390.4,2271.8 1397.8,2226.3 1405.6,2180.7 1413.7,2135.0 1422.1,2089.3 1430.8,2043.4 1439.9,1997.5 1449.3,1951.6 1459.1,1905.7 1469.2,1859.7 1479.7,1813.8 1490.5,1767.8 1501.7,1721.9 1513.3,1676.1 1525.2,1630.3 1537.4,1584.5 1550.0,1538.9 1563.0,1493.3 1576.3,1447.8 1590.0,1402.5 1604.0,1357.3 1618.3,1312.2 1632.9,1267.3 1647.9,1222.6 1663.2,1178.0 1678.8,1133.6 1694.7,1089.4 1710.8,1045.3 1727.3,1001.6 1744.0,958.0 1760.9,914.6 1778.1,871.5 1795.5,828.7 1813.1,786.1 1830.9,743.7 1848.9,701.7 1867.0,659.9  " style="stroke-opacity: 1.000000; stroke-width: 5.0; stroke: rgb(251,106,74); fill: none"  />
<path d="M 1369.8,2407.5 L 1375.2,2371.8 1381.2,2336.4 1387.9,2301.5 1395.3,2267.2 1403.3,2233.8 1412.0,2201.5 1421.4,2170.4 1431.6,2140.8 1442.4,2112.7 1453.9,2086.4 1466.2,2061.9 1479.1,2039.4 1492.7,2018.9 1507.1,2000.6 1522.0,1984.6 1537.7,1970.9 1553.9,1959.6 1570.8,1950.7 1588.3,1944.3 1606.3,1940.3 1624.8,1938.8 1643.9,1939.8 1663.4,1943.3 1683.3,1949.1 1703.6,1957.4 1724.3,1968.0 1745.2,1980.8 1766.4,1995.8 1787.8,2012.9 1809.4,2032.0 1831.0,2053.0 1852.6,2075.6 1874.2,2099.9 1895.7,2125.6 1917.0,2152.5 1938.0,2180.5 1958.8,2209.4 1979.1,2239.0 1999.0,2269.1  " style="stroke-opacity: 1.000000; stroke-width: 5.0; stroke: rgb(251,106,74); fill: none"  />
<path d="M 1369.8,2407.5 L 1375.1,2372.2 1380.8,2337.2 1387.1,2302.6 1393.9,2268.9 1401.1,2236.0 1408.8,2204.3 1417.1,2174.0 1425.8,2145.1 1435.0,2118.0 1444.7,2092.6 1454.9,2069.3 1465.5,2048.0 1476.7,2028.9 1488.2,2012.1 1500.2,1997.7 1512.6,1985.7 1525.4,1976.2 1538.6,1969.3 1552.2,1964.9 1566.1,1963.2 1580.3,1964.0 1594.8,1967.4 1609.6,1973.4 1624.6,1981.8 1639.8,1992.8 1655.2,2006.2 1670.8,2021.9 1686.4,2039.8 1702.1,2059.9 1717.9,2081.9 1733.6,2105.9 1749.3,2131.7 1764.8,2159.0 1780.3,2187.7 1795.5,2217.7 1810.5,2248.7 1825.3,2280.5 1839.6,2313.0 1853.6,2345.8  " style="stroke-opacity: 1.000000; stroke-width: 5.0; stroke: rgb(251,106,74); fill: none"  />
<path d="M 1369.8,2407.5 L 1375.5,2365.2 1380.6,2322.5 1385.0,2279.4 1388.6,2236.0 1391.5,2192.1 1393.6,2148.0 1394.8,2103.7 1395.1,2059.2 1394.5,2014.5 1393.0,1969.7 1390.5,1924.8 1387.0,1879.9 1382.6,1835.0 1377.1,1790.1 1370.5,1745.4 1363.0,1700.7 1354.4,1656.2 1344.7,1611.9 1334.0,1567.9 1322.3,1524.1 1309.6,1480.5 1295.8,1437.3 1281.1,1394.5 1265.3,1352.0 1248.6,1310.0 1231.0,1268.4 1212.5,1227.2 1193.1,1186.6 1172.8,1146.5 1151.8,1106.9 1130.0,1067.9 1107.5,1029.4 1084.3,991.6 1060.4,954.5 1036.1,917.9 1011.2,882.1 985.9,846.9 960.1,812.5 934.1,778.8  " style="stroke-opacity: 1.000000; stroke-width: 5.0; stroke: rgb(251,106,74); fill: none"  />
<path d="M 1369.8,2407.5 L 1374.9,2372.4 1380.5,2337.7 1386.3,2303.4 1392.4,2270.0 1398.8,2237.5 1405.4,2206.2 1412.4,2176.4 1419.6,2148.1 1427.1,2121.5 1434.8,2096.8 1442.7,2074.2 1450.9,2053.7 1459.2,2035.5 1467.8,2019.7 1476.5,2006.3 1485.4,1995.4 1494.5,1987.1 1503.7,1981.5 1513.0,1978.5 1522.4,1978.1 1531.9,1980.4 1541.5,1985.4 1551.1,1993.0 1560.8,2003.2 1570.5,2015.9 1580.2,2031.0 1589.9,2048.6 1599.5,2068.4 1609.1,2090.4 1618.6,2114.4 1628.0,2140.3 1637.3,2168.0 1646.5,2197.3 1655.4,2228.0 1664.2,2259.9 1672.8,2292.8 1681.1,2326.5 1689.1,2360.8 1696.9,2395.4  " style="stroke-opacity: 1.000000; stroke-width: 5.0; stroke: rgb(251,106,74); fill: none"  />
<path d="M 2128.3,2167.6 L 2097.0,2134.5 2065.4,2101.5 2033.4,2068.5 2001.2,2035.6 1968.6,2002.7 1935.7,1970.0 1902.5,1937.4 1869.0,1904.9 1835.2,1872.6 1801.1,1840.4 1766.7,1808.4 1732.0,1776.6 1697.0,1745.1 1661.7,1713.7 1626.2,1682.6 1590.4,1651.7 1554.3,1621.0 1518.0,1590.7 1481.4,1560.6 1444.6,1530.7 1407.6,1501.2 1370.3,1472.0 1332.9,1443.0 1295.3,1414.4 1257.4,1386.0 1219.5,1358.0 1181.3,1330.3 1143.0,1303.0 1104.6,1275.9 1066.1,1249.2 1027.5,1222.8 988.8,1196.8 950.0,1171.0 911.1,1145.7 872.3,1120.6 833.4,1095.9 794.5,1071.4 755.6,1047.4 716.8,1023.6  " style="stroke-opacity: 1.000000; stroke-width: 5.0; stroke: rgb(251,106,74); fill: none"  />
<path d="M 2128.3,2167.6 L 2100.7,2137.7 2073.4,2106.8 2046.8,2075.1 2020.7,2042.6 1995.3,2009.3 1970.7,1975.3 1947.0,1940.5 1924.3,1905.0 1902.6,1868.8 1882.0,1832.0 1862.5,1794.5 1844.3,1756.5 1827.3,1718.0 1811.6,1678.9 1797.3,1639.3 1784.4,1599.4 1772.9,1559.0 1762.8,1518.3 1754.2,1477.2 1747.0,1435.9 1741.3,1394.4 1737.1,1352.6 1734.4,1310.7 1733.1,1268.7 1733.3,1226.7 1734.9,1184.6 1737.9,1142.6 1742.3,1100.7 1748.0,1058.9 1755.0,1017.2 1763.3,975.9 1772.7,934.8 1783.4,894.0 1795.0,853.7 1807.7,813.8 1821.3,774.4 1835.8,735.6 1851.1,697.4 1867.0,659.9  " style="stroke-opacity: 1.000000; stroke-width: 5.0; stroke: rgb(251,106,74); fill: none"  />
<path d="M 2128.3,2167.6 L 2102.6,2141.0 2076.3,2114.9 2049.4,2089.6 2022.1,2065.2 1994.4,2041.9 1966.3,2019.9 1937.9,1999.3 1909.4,1980.3 1880.8,1962.9 1852.1,1947.2 1823.4,1933.5 1794.8,1921.7 1766.4,1911.9 1738.1,1904.2 1710.1,1898.7 1682.3,1895.4 1655.0,1894.3 1628.0,1895.5 1601.4,1898.9 1575.3,1904.7 1549.8,1912.7 1524.8,1922.9 1500.4,1935.4 1476.6,1950.0 1453.5,1966.8 1431.0,1985.6 1409.3,2006.5 1388.3,2029.2 1368.0,2053.7 1348.6,2079.9 1329.9,2107.7 1312.0,2137.0 1294.9,2167.6 1278.6,2199.3 1263.2,2232.1 1248.6,2265.7 1234.8,2299.9 1221.9,2334.6 1209.8,2369.6  " style="stroke-opacity: 1.000000; stroke-width: 5.0; stroke: rgb(251,106,74); fill: none"  />
<path d="M 2128.3,2167.6 L 2096.4,2133.8 2064.3,2099.9 2032.2,2066.1 1999.9,2032.3 1967.6,1998.5 1935.1,1964.7 1902.5,1931.0 1869.8,1897.3 1837.0,1863.6 1804.1,1830.0 1771.1,1796.4 1738.0,1762.9 1704.8,1729.5 1671.5,1696.1 1638.0,1662.8 1604.5,1629.6 1570.9,1596.4 1537.2,1563.4 1503.4,1530.4 1469.5,1497.5 1435.6,1464.7 1401.5,1431.9 1367.4,1399.3 1333.2,1366.8 1299.0,1334.3 1264.6,1302.0 1230.3,1269.7 1195.8,1237.6 1161.3,1205.6 1126.8,1173.7 1092.2,1141.9 1057.5,1110.2 1022.9,1078.6 988.2,1047.1 953.4,1015.7 918.7,984.5 883.9,953.3 849.2,922.3 814.4,891.4  " style="stroke-opacity: 1.000000; stroke-width: 5.0; stroke: rgb(251,106,74); fill: none"  />
<path d="M 2128.3,2167.6 L 2102.2,2140.5 2075.3,2114.0 2047.8,2088.2 2019.6,2063.4 1990.9,2039.6 1961.7,2017.0 1932.1,1995.7 1902.1,1975.9 1871.8,1957.7 1841.3,1941.2 1810.5,1926.4 1779.6,1913.5 1748.6,1902.6 1717.6,1893.6 1686.6,1886.7 1655.7,1881.9 1624.9,1879.3 1594.2,1878.8 1563.8,1880.4 1533.6,1884.3 1503.7,1890.3 1474.2,1898.5 1445.0,1908.8 1416.3,1921.2 1388.0,1935.6 1360.2,1952.0 1333.0,1970.4 1306.3,1990.6 1280.3,2012.6 1254.8,2036.3 1230.1,2061.5 1206.0,2088.2 1182.6,2116.2 1160.0,2145.4 1138.2,2175.7 1117.2,2206.8 1097.0,2238.6 1077.7,2271.1 1059.2,2303.8  " style="stroke-opacity: 1.000000; stroke-width: 5.0; stroke: rgb(251,106,74); fill: none"  />
<path d="M 2128.3,2167.6 L 2097.9,2135.0 2067.6,2102.0 2037.5,2068.4 2007.5,2034.3 1977.7,1999.8 1948.2,1964.8 1918.9,1929.3 1890.0,1893.4 1861.3,1857.0 1833.0,1820.2 1805.0,1782.9 1777.5,1745.2 1750.3,1707.1 1723.6,1668.6 1697.3,1629.7 1671.5,1590.4 1646.1,1550.7 1621.3,1510.8 1596.9,1470.4 1573.1,1429.8 1549.7,1388.9 1527.0,1347.7 1504.7,1306.2 1483.0,1264.5 1461.9,1222.6 1441.3,1180.5 1421.3,1138.2 1401.8,1095.7 1382.9,1053.1 1364.6,1010.4 1346.8,967.7 1329.5,924.9 1312.8,882.0 1296.7,839.2 1281.1,796.3 1265.9,753.6 1251.3,710.9 1237.2,668.3 1223.6,625.9  " style="stroke-opacity: 1.000000; stroke-width: 5.0; stroke: rgb(251,106,74); fill: none"  />
<path d="M 1867.0,659.9 L 1851.2,694.8 1834.5,729.5 1816.8,763.8 1798.2,797.5 1778.5,830.6 1757.9,862.8 1736.4,894.0 1713.9,924.1 1690.4,953.0 1666.1,980.5 1640.8,1006.7 1614.6,1031.3 1587.6,1054.3 1559.7,1075.6 1531.0,1095.2 1501.5,1113.0 1471.3,1128.9 1440.3,1143.0 1408.7,1155.1 1376.4,1165.3 1343.6,1173.6 1310.2,1179.9 1276.3,1184.2 1241.9,1186.6 1207.2,1187.1 1172.1,1185.6 1136.7,1182.4 1101.2,1177.3 1065.5,1170.4 1029.7,1161.9 993.9,1151.7 958.2,1140.0 922.6,1126.9 887.3,1112.4 852.2,1096.6 817.5,1079.8 783.4,1061.9 749.7,1043.1 716.8,1023.6  " style="stroke-opacity: 1.000000; stroke-width: 5.0; stroke: rgb(251,106,74); fill: none"  />
<path d="M 1867.0,659.9 L 1848.9,701.7 1830.9,743.7 1813.1,786.1 1795.5,828.7 1778.1,871.5 1760.9,914.6 1744.0,958.0 1727.3,1001.6 1710.8,1045.3 1694.7,1089.4 1678.8,1133.6 1663.2,1178.0 1647.9,1222.6 1632.9,1267.3 1618.3,1312.2 1604.0,1357.3 1590.0,1402.5 1576.3,1447.8 1563.0,1493.3 1550.0,1538.9 1537.4,1584.5 1525.2,1630.3 1513.3,1676.1 1501.7,1721.9 1490.5,1767.8 1479.7,1813.8 1469.2,1859.7 1459.1,1905.7 1449.3,1951.6 1439.9,1997.5 1430.8,2043.4 1422.1,2089.3 1413.7,2135.0 1405.6,2180.7 1397.8,2226.3 1390.4,2271.8 1383.2,2317.2 1376.3,2362.4 1369.8,2407.5  " style="stroke-opacity: 1.000000; stroke-width: 5.0; stroke: rgb(251,106,74); fill: none"  />
<path d="M 1867.0,659.9 L 1851.1,697.4 1835.8,735.6 1821.3,774.4 1807.7,813.8 1795.0,853.7 1783.4,894.0 1772.7,934.8 1763.3,975.9 1755.0,1017.2 1748.0,1058.9 1742.3,1100.7 1737.9,1142.6 1734.9,1184.6 1733.3,1226.7 1733.1,1268.7 1734.4,1310.7 1737.1,1352.6 1741.3,1394.4 1747.0,1435.9 1754.2,1477.2 1762.8,1518.3 1772.9,1559.0 1784.4,1599.4 1797.3,1639.3 1811.6,1678.9 1827.3,1718.0 1844.3,1756.5 1862.5,1794.5 1882.0,1832.0 1902.6,1868.8 1924.3,1905.0 1947.0,1940.5 1970.7,1975.3 1995.3,2009.3 2020.7,2042.6 2046.8,2075.1 2073.4,2106.8 2100.7,2137.7 2128.3,2167.6  " style="stroke-opacity: 1.000000; stroke-width: 5.0; stroke: rgb(251,106,74); fill: none"  />
<path d="M 1867.0,659.9 L 1851.8,693.6 1835.8,727.1 1819.0,759.9 1801.5,792.1 1783.2,823.3 1764.1,853.5 1744.4,882.4 1723.9,910.0 1702.8,936.0 1681.1,960.4 1658.7,983.0 1635.7,1003.7 1612.2,1022.5 1588.2,1039.2 1563.7,1053.9 1538.7,1066.3 1513.2,1076.6 1487.4,1084.5 1461.2,1090.2 1434.8,1093.6 1408.0,1094.6 1381.0,1093.4 1353.8,1089.9 1326.5,1084.1 1299.1,1076.1 1271.6,1065.9 1244.2,1053.6 1216.7,1039.3 1189.4,1023.0 1162.2,1004.9 1135.3,985.0 1108.6,963.4 1082.2,940.4 1056.2,915.9 1030.7,890.3 1005.6,863.6 981.1,835.9 957.3,807.6 934.1,778.8  " style="stroke-opacity: 1.000000; stroke-width: 5.0; stroke: rgb(251,106,74); fill: none"  />
<path d="M 1999.0,2269.1 L 1976.1,2233.2 1953.5,2196.5 1931.5,2159.2 1909.9,2121.3 1888.9,2082.8 1868.5,2043.6 1848.8,2003.9 1829.8,1963.6 1811.6,1922.7 1794.2,1881.4 1777.6,1839.7 1761.9,1797.4 1747.2,1754.8 1733.3,1711.8 1720.5,1668.4 1708.6,1624.7 1697.8,1580.7 1687.9,1536.5 1679.1,1492.0 1671.4,1447.3 1664.7,1402.4 1659.1,1357.4 1654.5,1312.4 1650.9,1267.2 1648.5,1222.1 1647.0,1176.9 1646.6,1131.8 1647.1,1086.7 1648.7,1041.8 1651.2,997.1 1654.6,952.5 1658.9,908.2 1664.1,864.1 1670.1,820.4 1676.9,777.0 1684.5,734.0 1692.7,691.5 1701.6,649.4 1711.1,607.9  " style="stroke-opacity: 1.000000; stroke-width: 5.0; stroke: rgb(251,106,74); fill: none"  />
<path d="M 1999.0,2269.1 L 1979.1,2239.0 1958.8,2209.4 1938.0,2180.5 1917.0,2152.5 1895.7,2125.6 1874.2,2099.9 1852.6,2075.6 1831.0,2053.0 1809.4,2032.0 1787.8,2012.9 1766.4,1995.8 1745.2,1980.8 1724.3,1968.0 1703.6,1957.4 1683.3,1949.1 1663.4,1943.3 1643.9,1939.8 1624.8,1938.8 1606.3,1940.3 1588.3,1944.3 1570.8,1950.7 1553.9,1959.6 1537.7,1970.9 1522.0,1984.6 1507.1,2000.6 1492.7,2018.9 1479.1,2039.4 1466.2,2061.9 1453.9,2086.4 1442.4,2112.7 1431.6,2140.8 1421.4,2170.4 1412.0,2201.5 1403.3,2233.8 1395.3,2267.2 1387.9,2301.5 1381.2,2336.4 1375.2,2371.8 1369.8,2407.5  " style="stroke-opacity: 1.000000; stroke-width: 5.0; stroke: rgb(251,106,74); fill: none"  />
<path d="M 1999.0,2269.1 L 1978.8,2238.7 1958.0,2208.8 1936.7,2179.5 1914.9,2151.1 1892.7,2123.8 1870.0,2097.8 1847.1,2073.1 1823.9,2050.0 1800.5,2028.6 1777.0,2009.0 1753.3,1991.3 1729.6,1975.6 1705.9,1962.1 1682.2,1950.8 1658.7,1941.7 1635.2,1935.0 1612.0,1930.6 1588.9,1928.6 1566.1,1929.1 1543.6,1931.9 1521.4,1937.2 1499.6,1944.9 1478.2,1955.0 1457.1,1967.4 1436.6,1982.1 1416.5,1999.0 1397.0,2018.0 1378.0,2039.1 1359.5,2062.1 1341.6,2087.0 1324.3,2113.6 1307.7,2141.8 1291.7,2171.5 1276.3,2202.4 1261.6,2234.4 1247.6,2267.3 1234.3,2301.0 1221.7,2335.1 1209.8,2369.6  " style="stroke-opacity: 1.000000; stroke-width: 5.0; stroke: rgb(251,106,74); fill: none"  />
<path d="M 1999.0,2269.1 L 1978.5,2238.3 1957.3,2207.9 1935.3,2178.2 1912.8,2149.3 1889.6,2121.5 1865.9,2094.8 1841.7,2069.5 1817.1,2045.7 1792.0,2023.4 1766.6,2002.9 1740.8,1984.3 1714.8,1967.5 1688.5,1952.8 1662.1,1940.2 1635.5,1929.8 1608.8,1921.6 1582.1,1915.6 1555.3,1912.0 1528.5,1910.6 1501.9,1911.6 1475.3,1914.9 1448.9,1920.6 1422.6,1928.5 1396.6,1938.6 1370.9,1951.0 1345.4,1965.5 1320.3,1982.1 1295.6,2000.7 1271.3,2021.2 1247.4,2043.6 1224.1,2067.6 1201.3,2093.2 1179.0,2120.2 1157.3,2148.6 1136.3,2178.0 1115.9,2208.5 1096.3,2239.7 1077.4,2271.6 1059.2,2303.8  " style="stroke-opacity: 1.000000; stroke-width: 5.0; stroke: rgb(251,106,74); fill: none"  />
<path d="M 1999.0,2269.1 L 1978.1,2237.8 1956.4,2206.9 1933.9,2176.6 1910.7,2147.1 1886.7,2118.5 1862.0,2091.1 1836.7,2064.9 1810.7,2040.1 1784.1,2016.7 1757.0,1995.0 1729.4,1975.0 1701.3,1956.8 1672.8,1940.5 1643.8,1926.1 1614.6,1913.8 1585.0,1903.6 1555.2,1895.5 1525.1,1889.5 1494.9,1885.7 1464.5,1884.1 1434.0,1884.7 1403.5,1887.4 1372.9,1892.4 1342.4,1899.4 1312.0,1908.6 1281.8,1919.8 1251.7,1933.0 1221.8,1948.2 1192.3,1965.2 1163.0,1983.9 1134.1,2004.3 1105.7,2026.3 1077.7,2049.7 1050.3,2074.3 1023.4,2100.2 997.2,2127.1 971.6,2154.8 946.8,2183.3 922.8,2212.2  " style="stroke-opacity: 1.000000; stroke-width: 5.0; stroke: rgb(251,106,74); fill: none"  />
<path d="M 1999.0,2269.1 L 1974.3,2230.8 1949.7,2192.2 1925.3,2153.4 1900.9,2114.2 1876.8,2074.8 1852.8,2035.0 1829.0,1995.0 1805.5,1954.7 1782.1,1914.2 1759.0,1873.4 1736.1,1832.4 1713.5,1791.1 1691.2,1749.6 1669.1,1707.9 1647.3,1666.0 1625.8,1623.9 1604.7,1581.5 1583.8,1539.0 1563.2,1496.3 1543.0,1453.5 1523.2,1410.5 1503.6,1367.4 1484.4,1324.1 1465.5,1280.8 1447.0,1237.3 1428.9,1193.7 1411.0,1150.1 1393.6,1106.4 1376.4,1062.7 1359.6,1018.9 1343.2,975.1 1327.1,931.3 1311.4,887.5 1295.9,843.7 1280.8,800.0 1266.1,756.4 1251.6,712.8 1237.5,669.3 1223.6,625.9  " style="stroke-opacity: 1.000000; stroke-width: 5.0; stroke: rgb(251,106,74); fill: none"  />
<path d="M 1999.0,2269.1 L 1978.1,2236.0 1957.9,2202.3 1938.5,2167.9 1920.1,2132.8 1902.7,2097.3 1886.5,2061.2 1871.5,2024.8 1857.9,1988.0 1845.7,1951.0 1835.0,1913.8 1825.9,1876.4 1818.4,1838.9 1812.7,1801.4 1808.6,1763.9 1806.3,1726.5 1805.9,1689.2 1807.2,1652.1 1810.4,1615.2 1815.4,1578.6 1822.3,1542.3 1831.0,1506.5 1841.6,1471.0 1853.9,1435.9 1868.0,1401.4 1883.8,1367.4 1901.3,1334.0 1920.4,1301.2 1941.1,1269.1 1963.3,1237.6 1986.8,1206.9 2011.7,1176.9 2037.9,1147.7 2065.1,1119.3 2093.4,1091.7 2122.6,1065.0 2152.6,1039.1 2183.3,1014.2 2214.4,990.1 2245.9,967.0  " style="stroke-opacity: 1.000000; stroke-width: 5.0; stroke: rgb(251,106,74); fill: none"  />
<path d="M 1209.8,2369.6 L 1221.9,2334.6 1234.8,2299.9 1248.6,2265.7 1263.2,2232.1 1278.6,2199.3 1294.9,2167.6 1312.0,2137.0 1329.9,2107.7 1348.6,2079.9 1368.0,2053.7 1388.3,2029.2 1409.3,2006.5 1431.0,1985.6 1453.5,1966.8 1476.6,1950.0 1500.4,1935.4 1524.8,1922.9 1549.8,1912.7 1575.3,1904.7 1601.4,1898.9 1628.0,1895.5 1655.0,1894.3 1682.3,1895.4 1710.1,1898.7 1738.1,1904.2 1766.4,1911.9 1794.8,1921.7 1823.4,1933.5 1852.1,1947.2 1880.8,1962.9 1909.4,1980.3 1937.9,1999.3 1966.3,2019.9 1994.4,2041.9 2022.1,2065.2 2049.4,2089.6 2076.3,2114.9 2102.6,2141.0 2128.3,2167.6  " style="stroke-opacity: 1.000000; stroke-width: 5.0; stroke: rgb(251,106,74); fill: none"  />
<path d="M 1209.8,2369.6 L 1221.7,2335.1 1234.3,2301.0 1247.6,2267.3 1261.6,2234.4 1276.3,2202.4 1291.7,2171.5 1307.7,2141.8 1324.3,2113.6 1341.6,2087.0 1359.5,2062.1 1378.0,2039.1 1397.0,2018.0 1416.5,1999.0 1436.6,1982.1 1457.1,1967.4 1478.2,1955.0 1499.6,1944.9 1521.4,1937.2 1543.6,1931.9 1566.1,1929.1 1588.9,1928.6 1612.0,1930.6 1635.2,1935.0 1658.7,1941.7 1682.2,1950.8 1705.9,1962.1 1729.6,1975.6 1753.3,1991.3 1777.0,2009.0 1800.5,2028.6 1823.9,2050.0 1847.1,2073.1 1870.0,2097.8 1892.7,2123.8 1914.9,2151.1 1936.7,2179.5 1958.0,2208.8 1978.8,2238.7 1999.0,2269.1  " style="stroke-opacity: 1.000000; stroke-width: 5.0; stroke: rgb(251,106,74); fill: none"  />
<path d="M 1209.8,2369.6 L 1221.5,2335.5 1233.8,2301.8 1246.6,2268.6 1260.0,2236.2 1273.8,2204.8 1288.2,2174.5 1303.0,2145.6 1318.3,2118.3 1333.9,2092.6 1350.0,2068.7 1366.4,2046.8 1383.1,2027.0 1400.2,2009.3 1417.6,1993.9 1435.1,1980.8 1453.0,1970.1 1471.0,1961.8 1489.2,1956.1 1507.5,1952.9 1526.0,1952.2 1544.5,1954.1 1563.0,1958.4 1581.6,1965.3 1600.2,1974.7 1618.7,1986.4 1637.1,2000.5 1655.5,2016.9 1673.6,2035.4 1691.6,2056.1 1709.4,2078.7 1726.9,2103.2 1744.1,2129.3 1761.1,2157.0 1777.6,2186.2 1793.8,2216.5 1809.5,2247.8 1824.7,2279.9 1839.4,2312.7 1853.6,2345.8  " style="stroke-opacity: 1.000000; stroke-width: 5.0; stroke: rgb(251,106,74); fill: none"  />
<path d="M 1209.8,2369.6 L 1221.3,2335.8 1233.3,2302.4 1245.6,2269.6 1258.3,2237.5 1271.3,2206.5 1284.5,2176.7 1298.1,2148.3 1311.8,2121.5 1325.7,2096.4 1339.8,2073.3 1354.0,2052.1 1368.3,2033.0 1382.6,2016.2 1397.0,2001.8 1411.3,1989.7 1425.7,1980.2 1440.0,1973.1 1454.2,1968.7 1468.3,1966.8 1482.3,1967.5 1496.2,1970.9 1509.8,1976.8 1523.3,1985.3 1536.6,1996.3 1549.6,2009.8 1562.3,2025.7 1574.8,2044.0 1587.0,2064.4 1598.9,2086.9 1610.4,2111.5 1621.6,2137.9 1632.5,2166.0 1642.9,2195.7 1653.0,2226.7 1662.6,2258.9 1671.9,2292.1 1680.7,2326.1 1689.0,2360.6 1696.9,2395.4  " style="stroke-opacity: 1.000000; stroke-width: 5.0; stroke: rgb(251,106,74); fill: none"  />
<path d="M 1853.6,2345.8 L 1836.6,2305.7 1818.9,2265.5 1800.5,2225.3 1781.4,2185.0 1761.6,2144.8 1741.2,2104.7 1720.0,2064.7 1698.1,2024.9 1675.5,1985.2 1652.2,1945.8 1628.1,1906.7 1603.3,1867.9 1577.8,1829.5 1551.6,1791.4 1524.7,1753.8 1497.1,1716.6 1468.8,1679.8 1439.8,1643.6 1410.2,1607.8 1379.9,1572.6 1349.0,1537.9 1317.5,1503.9 1285.4,1470.4 1252.8,1437.5 1219.6,1405.3 1185.9,1373.6 1151.7,1342.7 1117.1,1312.4 1082.0,1282.7 1046.6,1253.7 1010.8,1225.4 974.7,1197.8 938.3,1170.9 901.7,1144.6 864.9,1119.1 828.0,1094.2 790.9,1070.0 753.8,1046.5 716.8,1023.6  " style="stroke-opacity: 1.000000; stroke-width: 5.0; stroke: rgb(251,106,74); fill: none"  />
<path d="M 1853.6,2345.8 L 1839.6,2313.0 1825.3,2280.5 1810.5,2248.7 1795.5,2217.7 1780.3,2187.7 1764.8,2159.0 1749.3,2131.7 1733.6,2105.9 1717.9,2081.9 1702.1,2059.9 1686.4,2039.8 1670.8,2021.9 1655.2,2006.2 1639.8,1992.8 1624.6,1981.8 1609.6,1973.4 1594.8,1967.4 1580.3,1964.0 1566.1,1963.2 1552.2,1964.9 1538.6,1969.3 1525.4,1976.2 1512.6,1985.7 1500.2,1997.7 1488.2,2012.1 1476.7,2028.9 1465.5,2048.0 1454.9,2069.3 1444.7,2092.6 1435.0,2118.0 1425.8,2145.1 1417.1,2174.0 1408.8,2204.3 1401.1,2236.0 1393.9,2268.9 1387.1,2302.6 1380.8,2337.2 1375.1,2372.2 1369.8,2407.5  " style="stroke-opacity: 1.000000; stroke-width: 5.0; stroke: rgb(251,106,74); fill: none"  />
<path d="M 1853.6,2345.8 L 1839.4,2312.7 1824.7,2279.9 1809.5,2247.8 1793.8,2216.5 1777.6,2186.2 1761.1,2157.0 1744.1,2129.3 1726.9,2103.2 1709.4,2078.7 1691.6,2056.1 1673.6,2035.4 1655.5,2016.9 1637.1,2000.5 1618.7,1986.4 1600.2,1974.7 1581.6,1965.3 1563.0,1958.4 1544.5,1954.1 1526.0,1952.2 1507.5,1952.9 1489.2,1956.1 1471.0,1961.8 1453.0,1970.1 1435.1,1980.8 1417.6,1993.9 1400.2,2009.3 1383.1,2027.0 1366.4,2046.8 1350.0,2068.7 1333.9,2092.6 1318.3,2118.3 1303.0,2145.6 1288.2,2174.5 1273.8,2204.8 1260.0,2236.2 1246.6,2268.6 1233.8,2301.8 1221.5,2335.5 1209.8,2369.6  " style="stroke-opacity: 1.000000; stroke-width: 5.0; stroke: rgb(251,106,74); fill: none"  />
<path d="M 1853.6,2345.8 L 1839.2,2312.3 1824.1,2279.1 1808.4,2246.6 1792.0,2214.8 1775.0,2183.9 1757.4,2154.2 1739.2,2125.9 1720.5,2099.0 1701.3,2073.7 1681.6,2050.2 1661.5,2028.6 1641.0,2009.0 1620.1,1991.4 1598.8,1976.1 1577.3,1962.9 1555.4,1952.1 1533.3,1943.7 1510.9,1937.6 1488.4,1934.0 1465.8,1932.8 1443.0,1934.0 1420.1,1937.7 1397.3,1943.8 1374.4,1952.2 1351.5,1963.0 1328.8,1976.0 1306.1,1991.3 1283.7,2008.6 1261.4,2028.0 1239.3,2049.3 1217.6,2072.4 1196.2,2097.2 1175.1,2123.5 1154.5,2151.1 1134.3,2180.0 1114.7,2209.9 1095.6,2240.6 1077.1,2272.0 1059.2,2303.8  " style="stroke-opacity: 1.000000; stroke-width: 5.0; stroke: rgb(251,106,74); fill: none"  />
<path d="M 814.4,891.4 L 849.2,922.3 883.9,953.3 918.7,984.5 953.4,1015.7 988.2,1047.1 1022.9,1078.6 1057.5,1110.2 1092.2,1141.9 1126.8,1173.7 1161.3,1205.6 1195.8,1237.6 1230.3,1269.7 1264.6,1302.0 1299.0,1334.3 1333.2,1366.8 1367.4,1399.3 1401.5,1431.9 1435.6,1464.7 1469.5,1497.5 1503.4,1530.4 1537.2,1563.4 1570.9,1596.4 1604.5,1629.6 1638.0,1662.8 1671.5,1696.1 1704.8,1729.5 1738.0,1762.9 1771.1,1796.4 1804.1,1830.0 1837.0,1863.6 1869.8,1897.3 1902.5,1931.0 1935.1,1964.7 1967.6,1998.5 1999.9,2032.3 2032.2,2066.1 2064.3,2099.9 2096.4,2133.8 2128.3,2167.6  " style="stroke-opacity: 1.000000; stroke-width: 5.0; stroke: rgb(251,106,74); fill: none"  />
<path d="M 814.4,891.4 L 846.8,920.5 879.1,950.3 911.2,980.7 943.1,1011.8 974.8,1043.5 1006.1,1075.9 1037.1,1108.9 1067.7,1142.5 1097.8,1176.7 1127.5,1211.6 1156.7,1247.0 1185.4,1283.0 1213.5,1319.6 1241.0,1356.7 1267.9,1394.4 1294.2,1432.5 1319.8,1471.2 1344.7,1510.4 1368.9,1550.0 1392.4,1590.1 1415.2,1630.5 1437.2,1671.4 1458.5,1712.6 1479.0,1754.1 1498.8,1796.0 1517.8,1838.1 1536.0,1880.5 1553.4,1923.1 1570.1,1965.8 1586.0,2008.8 1601.2,2051.8 1615.6,2094.9 1629.3,2138.0 1642.3,2181.2 1654.6,2224.3 1666.1,2267.3 1677.0,2310.2 1687.3,2352.9 1696.9,2395.4  " style="stroke-opacity: 1.000000; stroke-width: 5.0; stroke: rgb(251,106,74); fill: none"  />
<path d="M 934.1,778.8 L 960.1,812.5 985.9,846.9 1011.2,882.1 1036.1,917.9 1060.4,954.5 1084.3,991.6 1107.5,1029.4 1130.0,1067.9 1151.8,1106.9 1172.8,1146.5 1193.1,1186.6 1212.5,1227.2 1231.0,1268.4 1248.6,1310.0 1265.3,1352.0 1281.1,1394.5 1295.8,1437.3 1309.6,1480.5 1322.3,1524.1 1334.0,1567.9 1344.7,1611.9 1354.4,1656.2 1363.0,1700.7 1370.5,1745.4 1377.1,1790.1 1382.6,1835.0 1387.0,1879.9 1390.5,1924.8 1393.0,1969.7 1394.5,2014.5 1395.1,2059.2 1394.8,2103.7 1393.6,2148.0 1391.5,2192.1 1388.6,2236.0 1385.0,2279.4 1380.6,2322.5 1375.5,2365.2 1369.8,2407.5  " style="stroke-opacity: 1.000000; stroke-width: 5.0; stroke: rgb(251,106,74); fill: none"  />
<path d="M 934.1,778.8 L 957.3,807.6 981.1,835.9 1005.6,863.6 1030.7,890.3 1056.2,915.9 1082.2,940.4 1108.6,963.4 1135.3,985.0 1162.2,1004.9 1189.4,1023.0 1216.7,1039.3 1244.2,1053.6 1271.6,1065.9 1299.1,1076.1 1326.5,1084.1 1353.8,1089.9 1381.0,1093.4 1408.0,1094.6 1434.8,1093.6 1461.2,1090.2 1487.4,1084.5 1513.2,1076.6 1538.7,1066.3 1563.7,1053.9 1588.2,1039.2 1612.2,1022.5 1635.7,1003.7 1658.7,983.0 1681.1,960.4 1702.8,936.0 1723.9,910.0 1744.4,882.4 1764.1,853.5 1783.2,823.3 1801.5,792.1 1819.0,759.9 1835.8,727.1 1851.8,693.6 1867.0,659.9  " style="stroke-opacity: 1.000000; stroke-width: 5.0; stroke: rgb(251,106,74); fill: none"  />
<path d="M 1059.2,2303.8 L 1077.7,2271.1 1097.0,2238.6 1117.2,2206.8 1138.2,2175.7 1160.0,2145.4 1182.6,2116.2 1206.0,2088.2 1230.1,2061.5 1254.8,2036.3 1280.3,2012.6 1306.3,1990.6 1333.0,1970.4 1360.2,1952.0 1388.0,1935.6 1416.3,1921.2 1445.0,1908.8 1474.2,1898.5 1503.7,1890.3 1533.6,1884.3 1563.8,1880.4 1594.2,1878.8 1624.9,1879.3 1655.7,1881.9 1686.6,1886.7 1717.6,1893.6 1748.6,1902.6 1779.6,1913.5 1810.5,1926.4 1841.3,1941.2 1871.8,1957.7 1902.1,1975.9 1932.1,1995.7 1961.7,2017.0 1990.9,2039.6 2019.6,2063.4 2047.8,2088.2 2075.3,2114.0 2102.2,2140.5 2128.3,2167.6  " style="stroke-opacity: 1.000000; stroke-width: 5.0; stroke: rgb(251,106,74); fill: none"  />
<path d="M 1059.2,2303.8 L 1077.4,2271.6 1096.3,2239.7 1115.9,2208.5 1136.3,2178.0 1157.3,2148.6 1179.0,2120.2 1201.3,2093.2 1224.1,2067.6 1247.4,2043.6 1271.3,2021.2 1295.6,2000.7 1320.3,1982.1 1345.4,1965.5 1370.9,1951.0 1396.6,1938.6 1422.6,1928.5 1448.9,1920.6 1475.3,1914.9 1501.9,1911.6 1528.5,1910.6 1555.3,1912.0 1582.1,1915.6 1608.8,1921.6 1635.5,1929.8 1662.1,1940.2 1688.5,1952.8 1714.8,1967.5 1740.8,1984.3 1766.6,2002.9 1792.0,2023.4 1817.1,2045.7 1841.7,2069.5 1865.9,2094.8 1889.6,2121.5 1912.8,2149.3 1935.3,2178.2 1957.3,2207.9 1978.5,2238.3 1999.0,2269.1  " style="stroke-opacity: 1.000000; stroke-width: 5.0; stroke: rgb(251,106,74); fill: none"  />
<path d="M 1059.2,2303.8 L 1077.1,2272.0 1095.6,2240.6 1114.7,2209.9 1134.3,2180.0 1154.5,2151.1 1175.1,2123.5 1196.2,2097.2 1217.6,2072.4 1239.3,2049.3 1261.4,2028.0 1283.7,2008.6 1306.1,1991.3 1328.8,1976.0 1351.5,1963.0 1374.4,1952.2 1397.3,1943.8 1420.1,1937.7 1443.0,1934.0 1465.8,1932.8 1488.4,1934.0 1510.9,1937.6 1533.3,1943.7 1555.4,1952.1 1577.3,1962.9 1598.8,1976.1 1620.1,1991.4 1641.0,2009.0 1661.5,2028.6 1681.6,2050.2 1701.3,2073.7 1720.5,2099.0 1739.2,2125.9 1757.4,2154.2 1775.0,2183.9 1792.0,2214.8 1808.4,2246.6 1824.1,2279.1 1839.2,2312.3 1853.6,2345.8  " style="stroke-opacity: 1.000000; stroke-width: 5.0; stroke: rgb(251,106,74); fill: none"  />
<path d="M 1072.0,689.3 L 1093.1,729.6 1114.2,770.2 1135.0,811.1 1155.7,852.3 1176.2,893.8 1196.6,935.5 1216.7,977.5 1236.5,1019.7 1256.2,1062.2 1275.5,1104.9 1294.6,1147.8 1313.5,1190.9 1332.0,1234.2 1350.2,1277.8 1368.2,1321.5 1385.8,1365.4 1403.1,1409.4 1420.0,1453.6 1436.7,1498.0 1453.0,1542.5 1468.9,1587.0 1484.5,1631.8 1499.8,1676.6 1514.7,1721.4 1529.2,1766.4 1543.4,1811.4 1557.2,1856.5 1570.7,1901.5 1583.9,1946.6 1596.7,1991.8 1609.1,2036.8 1621.2,2081.9 1633.0,2126.9 1644.4,2171.9 1655.5,2216.8 1666.3,2261.6 1676.8,2306.3 1687.0,2350.9 1696.9,2395.4  " style="stroke-opacity: 1.000000; stroke-width: 5.0; stroke: rgb(251,106,74); fill: none"  />
<path d="M 922.8,2212.2 L 946.8,2183.3 971.6,2154.8 997.2,2127.1 1023.4,2100.2 1050.3,2074.3 1077.7,2049.7 1105.7,2026.3 1134.1,2004.3 1163.0,1983.9 1192.3,1965.2 1221.8,1948.2 1251.7,1933.0 1281.8,1919.8 1312.0,1908.6 1342.4,1899.4 1372.9,1892.4 1403.5,1887.4 1434.0,1884.7 1464.5,1884.1 1494.9,1885.7 1525.1,1889.5 1555.2,1895.5 1585.0,1903.6 1614.6,1913.8 1643.8,1926.1 1672.8,1940.5 1701.3,1956.8 1729.4,1975.0 1757.0,1995.0 1784.1,2016.7 1810.7,2040.1 1836.7,2064.9 1862.0,2091.1 1886.7,2118.5 1910.7,2147.1 1933.9,2176.6 1956.4,2206.9 1978.1,2237.8 1999.0,2269.1  " style="stroke-opacity: 1.000000; stroke-width: 5.0; stroke: rgb(251,106,74); fill: none"  />
<path d="M 1223.6,625.9 L 1237.2,668.3 1251.3,710.9 1265.9,753.6 1281.1,796.3 1296.7,839.2 1312.8,882.0 1329.5,924.9 1346.8,967.7 1364.6,1010.4 1382.9,1053.1 1401.8,1095.7 1421.3,1138.2 1441.3,1180.5 1461.9,1222.6 1483.0,1264.5 1504.7,1306.2 1527.0,1347.7 1549.7,1388.9 1573.1,1429.8 1596.9,1470.4 1621.3,1510.8 1646.1,1550.7 1671.5,1590.4 1697.3,1629.7 1723.6,1668.6 1750.3,1707.1 1777.5,1745.2 1805.0,1782.9 1833.0,1820.2 1861.3,1857.0 1890.0,1893.4 1918.9,1929.3 1948.2,1964.8 1977.7,1999.8 2007.5,2034.3 2037.5,2068.4 2067.6,2102.0 2097.9,2135.0 2128.3,2167.6  " style="stroke-opacity: 1.000000; stroke-width: 5.0; stroke: rgb(251,106,74); fill: none"  />
<path d="M 1223.6,625.9 L 1237.5,669.3 1251.6,712.8 1266.1,756.4 1280.8,800.0 1295.9,843.7 1311.4,887.5 1327.1,931.3 1343.2,975.1 1359.6,1018.9 1376.4,1062.7 1393.6,1106.4 1411.0,1150.1 1428.9,1193.7 1447.0,1237.3 1465.5,1280.8 1484.4,1324.1 1503.6,1367.4 1523.2,1410.5 1543.0,1453.5 1563.2,1496.3 1583.8,1539.0 1604.7,1581.5 1625.8,1623.9 1647.3,1666.0 1669.1,1707.9 1691.2,1749.6 1713.5,1791.1 1736.1,1832.4 1759.0,1873.4 1782.1,1914.2 1805.5,1954.7 1829.0,1995.0 1852.8,2035.0 1876.8,2074.8 1900.9,2114.2 1925.3,2153.4 1949.7,2192.2 1974.3,2230.8 1999.0,2269.1  " style="stroke-opacity: 1.000000; stroke-width: 5.0; stroke: rgb(251,106,74); fill: none"  />
<path d="M 2245.9,967.0 L 2214.4,990.1 2183.3,1014.2 2152.6,1039.1 2122.6,1065.0 2093.4,1091.7 2065.1,1119.3 2037.9,1147.7 2011.7,1176.9 1986.8,1206.9 1963.3,1237.6 1941.1,1269.1 1920.4,1301.2 1901.3,1334.0 1883.8,1367.4 1868.0,1401.4 1853.9,1435.9 1841.6,1471.0 1831.0,1506.5 1822.3,1542.3 1815.4,1578.6 1810.4,1615.2 1807.2,1652.1 1805.9,1689.2 1806.3,1726.5 1808.6,1763.9 1812.7,1801.4 1818.4,1838.9 1825.9,1876.4 1835.0,1913.8 1845.7,1951.0 1857.9,1988.0 1871.5,2024.8 1886.5,2061.2 1902.7,2097.3 1920.1,2132.8 1938.5,2167.9 1957.9,2202.3 1978.1,2236.0 1999.0,2269.1  " style="stroke-opacity: 1.000000; stroke-width: 5.0; stroke: rgb(251,106,74); fill: none"  />
<path d="M 804.9,2097.7 L 833.2,2073.9 862.1,2050.7 891.5,2028.4 921.2,2007.0 951.3,1986.8 981.5,1967.9 1011.9,1950.4 1042.2,1934.4 1072.5,1920.2 1102.7,1907.6 1132.7,1897.0 1162.4,1888.2 1191.7,1881.5 1220.6,1876.9 1249.1,1874.3 1277.0,1874.0 1304.3,1875.8 1331.1,1879.8 1357.1,1886.0 1382.4,1894.5 1407.0,1905.1 1430.8,1918.0 1453.7,1932.9 1475.8,1950.0 1497.1,1969.1 1517.4,1990.2 1536.8,2013.2 1555.3,2038.0 1572.9,2064.5 1589.5,2092.7 1605.1,2122.3 1619.8,2153.3 1633.6,2185.5 1646.4,2218.8 1658.3,2253.0 1669.3,2287.9 1679.4,2323.4 1688.6,2359.3 1696.9,2395.4  " style="stroke-opacity: 1.000000; stroke-width: 5.0; stroke: rgb(251,106,74); fill: none"  />
<path d="M 1696.9,2395.4 L 1687.4,2353.8 1677.2,2312.1 1666.2,2270.2 1654.3,2228.2 1641.6,2186.1 1628.1,2144.1 1613.6,2102.2 1598.3,2060.4 1582.0,2018.7 1564.9,1977.3 1546.8,1936.2 1527.7,1895.4 1507.7,1854.9 1486.8,1814.8 1465.0,1775.2 1442.2,1736.1 1418.5,1697.4 1393.9,1659.4 1368.5,1621.9 1342.1,1585.0 1314.9,1548.7 1286.8,1513.1 1257.9,1478.2 1228.3,1443.9 1197.9,1410.4 1166.8,1377.7 1135.0,1345.7 1102.5,1314.4 1069.5,1284.0 1035.9,1254.3 1001.7,1225.4 967.1,1197.4 932.1,1170.1 896.8,1143.7 861.1,1118.1 825.2,1093.2 789.2,1069.2 753.0,1046.0 716.8,1023.6  " style="stroke-opacity: 1.000000; stroke-width: 5.0; stroke: rgb(251,106,74); fill: none"  />
<path d="M 1696.9,2395.4 L 1689.1,2360.8 1681.1,2326.5 1672.8,2292.8 1664.2,2259.9 1655.4,2228.0 1646.5,2197.3 1637.3,2168.0 1628.0,2140.3 1618.6,2114.4 1609.1,2090.4 1599.5,2068.4 1589.9,2048.6 1580.2,2031.0 1570.5,2015.9 1560.8,2003.2 1551.1,1993.0 1541.5,1985.4 1531.9,1980.4 1522.4,1978.1 1513.0,1978.5 1503.7,1981.5 1494.5,1987.1 1485.4,1995.4 1476.5,2006.3 1467.8,2019.7 1459.2,2035.5 1450.9,2053.7 1442.7,2074.2 1434.8,2096.8 1427.1,2121.5 1419.6,2148.1 1412.4,2176.4 1405.4,2206.2 1398.8,2237.5 1392.4,2270.0 1386.3,2303.4 1380.5,2337.7 1374.9,2372.4 1369.8,2407.5  " style="stroke-opacity: 1.000000; stroke-width: 5.0; stroke: rgb(251,106,74); fill: none"  />
<path d="M 1696.9,2395.4 L 1689.0,2360.6 1680.7,2326.1 1671.9,2292.1 1662.6,2258.9 1653.0,2226.7 1642.9,2195.7 1632.5,2166.0 1621.6,2137.9 1610.4,2111.5 1598.9,2086.9 1587.0,2064.4 1574.8,2044.0 1562.3,2025.7 1549.6,2009.8 1536.6,1996.3 1523.3,1985.3 1509.8,1976.8 1496.2,1970.9 1482.3,1967.5 1468.3,1966.8 1454.2,1968.7 1440.0,1973.1 1425.7,1980.2 1411.3,1989.7 1397.0,2001.8 1382.6,2016.2 1368.3,2033.0 1354.0,2052.1 1339.8,2073.3 1325.7,2096.4 1311.8,2121.5 1298.1,2148.3 1284.5,2176.7 1271.3,2206.5 1258.3,2237.5 1245.6,2269.6 1233.3,2302.4 1221.3,2335.8 1209.8,2369.6  " style="stroke-opacity: 1.000000; stroke-width: 5.0; stroke: rgb(251,106,74); fill: none"  />
<path d="M 1696.9,2395.4 L 1687.3,2352.9 1677.0,2310.2 1666.1,2267.3 1654.6,2224.3 1642.3,2181.2 1629.3,2138.0 1615.6,2094.9 1601.2,2051.8 1586.0,2008.8 1570.1,1965.8 1553.4,1923.1 1536.0,1880.5 1517.8,1838.1 1498.8,1796.0 1479.0,1754.1 1458.5,1712.6 1437.2,1671.4 1415.2,1630.5 1392.4,1590.1 1368.9,1550.0 1344.7,1510.4 1319.8,1471.2 1294.2,1432.5 1267.9,1394.4 1241.0,1356.7 1213.5,1319.6 1185.4,1283.0 1156.7,1247.0 1127.5,1211.6 1097.8,1176.7 1067.7,1142.5 1037.1,1108.9 1006.1,1075.9 974.8,1043.5 943.1,1011.8 911.2,980.7 879.1,950.3 846.8,920.5 814.4,891.4  " style="stroke-opacity: 1.000000; stroke-width: 5.0; stroke: rgb(251,106,74); fill: none"  />
<path d="M 1696.9,2395.4 L 1687.0,2350.9 1676.8,2306.3 1666.3,2261.6 1655.5,2216.8 1644.4,2171.9 1633.0,2126.9 1621.2,2081.9 1609.1,2036.8 1596.7,1991.8 1583.9,1946.6 1570.7,1901.5 1557.2,1856.5 1543.4,1811.4 1529.2,1766.4 1514.7,1721.4 1499.8,1676.6 1484.5,1631.8 1468.9,1587.0 1453.0,1542.5 1436.7,1498.0 1420.0,1453.6 1403.1,1409.4 1385.8,1365.4 1368.2,1321.5 1350.2,1277.8 1332.0,1234.2 1313.5,1190.9 1294.6,1147.8 1275.5,1104.9 1256.2,1062.2 1236.5,1019.7 1216.7,977.5 1196.6,935.5 1176.2,893.8 1155.7,852.3 1135.0,811.1 1114.2,770.2 1093.1,729.6 1072.0,689.3  " style="stroke-opacity: 1.000000; stroke-width: 5.0; stroke: rgb(251,106,74); fill: none"  />
<path d="M 1696.9,2395.4 L 1688.6,2359.3 1679.4,2323.4 1669.3,2287.9 1658.3,2253.0 1646.4,2218.8 1633.6,2185.5 1619.8,2153.3 1605.1,2122.3 1589.5,2092.7 1572.9,2064.5 1555.3,2038.0 1536.8,2013.2 1517.4,1990.2 1497.1,1969.1 1475.8,1950.0 1453.7,1932.9 1430.8,1918.0 1407.0,1905.1 1382.4,1894.5 1357.1,1886.0 1331.1,1879.8 1304.3,1875.8 1277.0,1874.0 1249.1,1874.3 1220.6,1876.9 1191.7,1881.5 1162.4,1888.2 1132.7,1897.0 1102.7,1907.6 1072.5,1920.2 1042.2,1934.4 1011.9,1950.4 981.5,1967.9 951.3,1986.8 921.2,2007.0 891.5,2028.4 862.1,2050.7 833.2,2073.9 804.9,2097.7  " style="stroke-opacity: 1.000000; stroke-width: 5.0; stroke: rgb(251,106,74); fill: none"  />
</g>
<g id="track_0">
<path d="M 1548.4,584.5 L 1546.7,619.9 1545.3,655.1 1544.4,689.8 1543.9,723.8 1543.9,756.9 1544.3,788.8 1545.4,819.5 1546.9,848.7 1549.1,876.2 1551.9,901.9 1555.3,925.6 1559.3,947.3 1564.0,966.8 1569.3,984.0 1575.2,998.8 1581.9,1011.2 1589.1,1021.0 1597.1,1028.4 1605.6,1033.1 1614.8,1035.3 1624.6,1034.9 1634.9,1031.9 1645.9,1026.3 1657.3,1018.2 1669.3,1007.6 1681.8,994.6 1694.7,979.3 1708.0,961.7 1721.6,942.0 1735.6,920.3 1749.9,896.7 1764.4,871.3 1779.0,844.4 1793.8,816.0 1808.6,786.4 1823.4,755.8 1838.1,724.3 1852.6,692.3 1867.0,659.9  " style="stroke-opacity: 1.000000; stroke-width: 5.0; stroke: rgb(107,174,214); fill: none"  />
<path d="M 1369.8,2407.5 L 1374.7,2372.5 1379.4,2337.8 1383.8,2303.6 1388.0,2270.2 1391.8,2237.6 1395.2,2206.2 1398.1,2176.2 1400.6,2147.7 1402.6,2120.8 1404.1,2095.8 1405.0,2072.9 1405.3,2052.0 1405.1,2033.3 1404.2,2017.0 1402.8,2003.1 1400.7,1991.6 1397.9,1982.7 1394.6,1976.4 1390.6,1972.7 1386.0,1971.6 1380.8,1973.1 1374.9,1977.3 1368.5,1984.0 1361.5,1993.3 1354.0,2005.1 1345.9,2019.3 1337.3,2035.9 1328.2,2054.7 1318.8,2075.7 1308.9,2098.6 1298.6,2123.5 1288.1,2150.1 1277.3,2178.3 1266.2,2207.9 1255.0,2238.7 1243.7,2270.5 1232.4,2303.1 1221.1,2336.2 1209.8,2369.6  " style="stroke-opacity: 1.000000; stroke-width: 5.0; stroke: rgb(107,174,214); fill: none"  />
<path d="M 2128.3,2167.6 L 2104.0,2142.0 2079.9,2116.7 2055.9,2091.9 2032.3,2067.8 2009.2,2044.5 1986.8,2022.3 1965.1,2001.2 1944.4,1981.5 1924.7,1963.2 1906.0,1946.5 1888.6,1931.4 1872.5,1918.2 1857.8,1906.7 1844.5,1897.2 1832.7,1889.7 1822.4,1884.2 1813.8,1880.8 1806.7,1879.4 1801.3,1880.2 1797.6,1883.2 1795.6,1888.2 1795.2,1895.4 1796.4,1904.6 1799.3,1915.9 1803.8,1929.1 1809.9,1944.3 1817.5,1961.3 1826.6,1980.1 1837.1,2000.6 1848.9,2022.7 1861.9,2046.2 1876.2,2071.0 1891.5,2097.1 1907.7,2124.1 1924.8,2152.1 1942.6,2180.8 1961.0,2209.9 1979.8,2239.4 1999.0,2269.1  " style="stroke-opacity: 1.000000; stroke-width: 5.0; stroke: rgb(107,174,214); fill: none"  />
<path d="M 2128.3,2167.6 L 2103.9,2141.9 2079.4,2116.7 2055.0,2092.0 2030.7,2068.1 2006.8,2045.2 1983.4,2023.5 1960.5,2003.0 1938.3,1984.0 1917.0,1966.6 1896.5,1950.8 1877.0,1936.9 1858.5,1924.8 1841.2,1914.7 1825.1,1906.7 1810.3,1900.8 1796.8,1897.0 1784.6,1895.4 1773.8,1896.1 1764.5,1899.0 1756.5,1904.1 1750.1,1911.5 1745.1,1921.0 1741.6,1932.8 1739.5,1946.7 1738.9,1962.6 1739.7,1980.6 1741.8,2000.5 1745.3,2022.3 1750.1,2045.8 1756.2,2070.9 1763.4,2097.6 1771.7,2125.5 1781.1,2154.8 1791.4,2185.0 1802.5,2216.2 1814.4,2248.0 1827.0,2280.4 1840.1,2313.1 1853.6,2345.8  " style="stroke-opacity: 1.000000; stroke-width: 5.0; stroke: rgb(107,174,214); fill: none"  />
<path d="M 2128.3,2167.6 L 2103.6,2141.8 2078.8,2116.5 2053.8,2091.8 2028.9,2068.1 2004.1,2045.4 1979.5,2023.9 1955.3,2003.8 1931.6,1985.2 1908.4,1968.3 1885.9,1953.1 1864.2,1939.9 1843.2,1928.6 1823.2,1919.3 1804.1,1912.2 1786.0,1907.3 1768.9,1904.7 1753.0,1904.3 1738.2,1906.2 1724.6,1910.4 1712.2,1917.0 1701.1,1925.8 1691.1,1936.9 1682.5,1950.3 1675.1,1965.9 1668.9,1983.6 1664.0,2003.4 1660.3,2025.2 1657.8,2048.8 1656.5,2074.3 1656.3,2101.4 1657.2,2130.1 1659.2,2160.1 1662.1,2191.4 1666.0,2223.8 1670.8,2257.1 1676.3,2291.1 1682.6,2325.6 1689.5,2360.5 1696.9,2395.4  " style="stroke-opacity: 1.000000; stroke-width: 5.0; stroke: rgb(107,174,214); fill: none"  />
<path d="M 1867.0,659.9 L 1852.6,692.3 1838.1,724.3 1823.4,755.8 1808.6,786.4 1793.8,816.0 1779.0,844.4 1764.4,871.3 1749.9,896.7 1735.6,920.3 1721.6,942.0 1708.0,961.7 1694.7,979.3 1681.8,994.6 1669.3,1007.6 1657.3,1018.2 1645.9,1026.3 1634.9,1031.9 1624.6,1034.9 1614.8,1035.3 1605.6,1033.1 1597.1,1028.4 1589.1,1021.0 1581.9,1011.2 1575.2,998.8 1569.3,984.0 1564.0,966.8 1559.3,947.3 1555.3,925.6 1551.9,901.9 1549.1,876.2 1546.9,848.7 1545.4,819.5 1544.3,788.8 1543.9,756.9 1543.9,723.8 1544.4,689.8 1545.3,655.1 1546.7,619.9 1548.4,584.5  " style="stroke-opacity: 1.000000; stroke-width: 5.0; stroke: rgb(107,174,214); fill: none"  />
<path d="M 1867.0,659.9 L 1852.9,692.3 1839.2,724.4 1825.8,756.2 1812.9,787.4 1800.6,817.8 1788.9,847.1 1778.1,875.3 1768.1,902.1 1759.0,927.5 1751.0,951.1 1744.0,973.1 1738.1,993.1 1733.4,1011.2 1729.9,1027.1 1727.6,1040.9 1726.5,1052.5 1726.8,1061.8 1728.4,1068.8 1731.2,1073.5 1735.4,1075.7 1740.8,1075.6 1747.5,1073.2 1755.5,1068.4 1764.7,1061.3 1775.2,1052.0 1786.7,1040.4 1799.4,1026.7 1813.1,1011.0 1827.9,993.3 1843.5,973.8 1860.0,952.5 1877.2,929.7 1895.2,905.4 1913.7,879.8 1932.7,853.1 1952.0,825.5 1971.6,797.1 1991.3,768.2 2011.1,738.9  " style="stroke-opacity: 1.000000; stroke-width: 5.0; stroke: rgb(107,174,214); fill: none"  />
<path d="M 1867.0,659.9 L 1852.9,692.4 1839.3,724.9 1826.3,757.0 1813.8,788.7 1802.2,819.7 1791.4,849.8 1781.6,878.8 1772.8,906.7 1765.2,933.2 1758.7,958.2 1753.6,981.7 1749.7,1003.4 1747.2,1023.2 1746.2,1041.2 1746.6,1057.2 1748.4,1071.1 1751.7,1082.9 1756.6,1092.6 1762.9,1100.0 1770.7,1105.3 1780.0,1108.3 1790.8,1109.1 1803.0,1107.8 1816.6,1104.2 1831.5,1098.5 1847.7,1090.7 1865.2,1080.9 1883.8,1069.1 1903.6,1055.5 1924.3,1040.1 1946.0,1023.0 1968.4,1004.3 1991.6,984.2 2015.4,962.8 2039.7,940.3 2064.3,916.9 2089.1,892.6 2114.0,867.7 2138.8,842.4  " style="stroke-opacity: 1.000000; stroke-width: 5.0; stroke: rgb(107,174,214); fill: none"  />
<path d="M 1999.0,2269.1 L 1979.8,2239.4 1961.0,2209.9 1942.6,2180.8 1924.8,2152.1 1907.7,2124.1 1891.5,2097.1 1876.2,2071.0 1861.9,2046.2 1848.9,2022.7 1837.1,2000.6 1826.6,1980.1 1817.5,1961.3 1809.9,1944.3 1803.8,1929.1 1799.3,1915.9 1796.4,1904.6 1795.2,1895.4 1795.6,1888.2 1797.6,1883.2 1801.3,1880.2 1806.7,1879.4 1813.8,1880.8 1822.4,1884.2 1832.7,1889.7 1844.5,1897.2 1857.8,1906.7 1872.5,1918.2 1888.6,1931.4 1906.0,1946.5 1924.7,1963.2 1944.4,1981.5 1965.1,2001.2 1986.8,2022.3 2009.2,2044.5 2032.3,2067.8 2055.9,2091.9 2079.9,2116.7 2104.0,2142.0 2128.3,2167.6  " style="stroke-opacity: 1.000000; stroke-width: 5.0; stroke: rgb(107,174,214); fill: none"  />
<path d="M 1999.0,2269.1 L 1979.7,2239.5 1960.4,2210.3 1941.3,2181.6 1922.4,2153.7 1903.8,2126.7 1885.7,2100.8 1868.2,2076.2 1851.3,2053.1 1835.1,2031.6 1819.8,2011.8 1805.4,1993.9 1791.9,1978.0 1779.4,1964.1 1768.0,1952.3 1757.8,1942.8 1748.7,1935.6 1740.7,1930.7 1734.1,1928.1 1728.6,1927.9 1724.4,1930.2 1721.5,1934.7 1719.8,1941.7 1719.4,1951.0 1720.3,1962.6 1722.3,1976.5 1725.6,1992.5 1730.0,2010.6 1735.6,2030.7 1742.3,2052.8 1749.9,2076.6 1758.6,2102.0 1768.2,2129.0 1778.6,2157.4 1789.7,2186.9 1801.5,2217.5 1813.9,2248.8 1826.8,2280.8 1840.1,2313.2 1853.6,2345.8  " style="stroke-opacity: 1.000000; stroke-width: 5.0; stroke: rgb(107,174,214); fill: none"  />
<path d="M 1999.0,2269.1 L 1979.5,2239.4 1960.0,2210.2 1940.3,2181.6 1920.7,2153.8 1901.3,2127.0 1882.1,2101.4 1863.3,2077.2 1844.9,2054.5 1826.9,2033.5 1809.6,2014.4 1792.9,1997.2 1776.9,1982.0 1761.7,1969.0 1747.3,1958.2 1733.7,1949.7 1721.1,1943.6 1709.4,1939.9 1698.7,1938.6 1689.0,1939.8 1680.3,1943.4 1672.6,1949.5 1666.0,1958.0 1660.4,1969.0 1655.9,1982.3 1652.4,1997.9 1650.0,2015.7 1648.6,2035.7 1648.1,2057.7 1648.6,2081.7 1650.1,2107.5 1652.4,2135.0 1655.6,2164.0 1659.6,2194.4 1664.4,2226.0 1669.8,2258.7 1675.8,2292.2 1682.4,2326.3 1689.5,2360.7 1696.9,2395.4  " style="stroke-opacity: 1.000000; stroke-width: 5.0; stroke: rgb(107,174,214); fill: none"  />
<path d="M 2011.1,738.9 L 1991.3,768.2 1971.6,797.1 1952.0,825.5 1932.7,853.1 1913.7,879.8 1895.2,905.4 1877.2,929.7 1860.0,952.5 1843.5,973.8 1827.9,993.3 1813.1,1011.0 1799.4,1026.7 1786.7,1040.4 1775.2,1052.0 1764.7,1061.3 1755.5,1068.4 1747.5,1073.2 1740.8,1075.6 1735.4,1075.7 1731.2,1073.5 1728.4,1068.8 1726.8,1061.8 1726.5,1052.5 1727.6,1040.9 1729.9,1027.1 1733.4,1011.2 1738.1,993.1 1744.0,973.1 1751.0,951.1 1759.0,927.5 1768.1,902.1 1778.1,875.3 1788.9,847.1 1800.6,817.8 1812.9,787.4 1825.8,756.2 1839.2,724.4 1852.9,692.3 1867.0,659.9  " style="stroke-opacity: 1.000000; stroke-width: 5.0; stroke: rgb(107,174,214); fill: none"  />
<path d="M 2011.1,738.9 L 1991.5,768.4 1972.3,797.9 1953.7,827.2 1935.8,856.2 1918.8,884.6 1902.8,912.3 1888.0,939.1 1874.4,964.9 1862.1,989.7 1851.3,1013.1 1842.0,1035.3 1834.4,1055.9 1828.4,1075.1 1824.1,1092.5 1821.7,1108.3 1821.0,1122.4 1822.2,1134.6 1825.2,1144.9 1830.1,1153.4 1836.9,1160.0 1845.5,1164.6 1855.9,1167.3 1868.2,1168.2 1882.2,1167.1 1897.9,1164.2 1915.2,1159.4 1934.2,1152.9 1954.6,1144.6 1976.4,1134.7 1999.6,1123.2 2024.0,1110.3 2049.4,1095.9 2075.8,1080.3 2103.0,1063.5 2130.9,1045.7 2159.3,1027.0 2188.1,1007.5 2217.0,987.5 2245.9,967.0  " style="stroke-opacity: 1.000000; stroke-width: 5.0; stroke: rgb(107,174,214); fill: none"  />
<path d="M 1209.8,2369.6 L 1221.1,2336.2 1232.4,2303.1 1243.7,2270.5 1255.0,2238.7 1266.2,2207.9 1277.3,2178.3 1288.1,2150.1 1298.6,2123.5 1308.9,2098.6 1318.8,2075.7 1328.2,2054.7 1337.3,2035.9 1345.9,2019.3 1354.0,2005.1 1361.5,1993.3 1368.5,1984.0 1374.9,1977.3 1380.8,1973.1 1386.0,1971.6 1390.6,1972.7 1394.6,1976.4 1397.9,1982.7 1400.7,1991.6 1402.8,2003.1 1404.2,2017.0 1405.1,2033.3 1405.3,2052.0 1405.0,2072.9 1404.1,2095.8 1402.6,2120.8 1400.6,2147.7 1398.1,2176.2 1395.2,2206.2 1391.8,2237.6 1388.0,2270.2 1383.8,2303.6 1379.4,2337.8 1374.7,2372.5 1369.8,2407.5  " style="stroke-opacity: 1.000000; stroke-width: 5.0; stroke: rgb(107,174,214); fill: none"  />
<path d="M 1209.8,2369.6 L 1220.9,2336.1 1231.7,2302.8 1242.2,2270.0 1252.3,2237.8 1261.8,2206.4 1270.8,2176.2 1279.0,2147.1 1286.6,2119.5 1293.3,2093.5 1299.2,2069.1 1304.2,2046.7 1308.3,2026.2 1311.4,2007.8 1313.5,1991.6 1314.5,1977.6 1314.5,1966.0 1313.4,1956.7 1311.2,1949.9 1308.0,1945.6 1303.6,1943.7 1298.2,1944.2 1291.7,1947.3 1284.2,1952.8 1275.6,1960.7 1266.1,1970.9 1255.6,1983.4 1244.2,1998.2 1232.0,2015.1 1218.9,2034.0 1205.1,2054.9 1190.5,2077.5 1175.4,2101.8 1159.7,2127.7 1143.6,2154.8 1127.1,2183.1 1110.3,2212.3 1093.3,2242.4 1076.2,2272.9 1059.2,2303.8  " style="stroke-opacity: 1.000000; stroke-width: 5.0; stroke: rgb(107,174,214); fill: none"  />
<path d="M 1209.8,2369.6 L 1220.9,2336.0 1231.5,2302.4 1241.7,2269.2 1251.2,2236.6 1260.0,2204.7 1268.1,2173.7 1275.2,2143.9 1281.5,2115.4 1286.7,2088.3 1290.9,2062.8 1293.9,2039.0 1295.8,2017.0 1296.5,1997.0 1295.9,1979.0 1294.1,1963.1 1291.0,1949.4 1286.7,1938.0 1281.0,1928.8 1274.0,1921.9 1265.7,1917.4 1256.2,1915.2 1245.4,1915.4 1233.4,1917.8 1220.2,1922.6 1205.8,1929.6 1190.3,1938.8 1173.8,1950.1 1156.3,1963.5 1137.9,1978.9 1118.6,1996.1 1098.6,2015.1 1077.9,2035.7 1056.6,2057.8 1034.8,2081.2 1012.7,2105.8 990.3,2131.4 967.7,2157.8 945.2,2184.8 922.8,2212.2  " style="stroke-opacity: 1.000000; stroke-width: 5.0; stroke: rgb(107,174,214); fill: none"  />
<path d="M 1209.8,2369.6 L 1220.9,2335.7 1231.4,2301.8 1241.3,2268.1 1250.4,2234.9 1258.6,2202.3 1265.9,2170.5 1272.1,2139.7 1277.2,2110.0 1281.2,2081.6 1283.9,2054.6 1285.2,2029.1 1285.2,2005.3 1283.9,1983.3 1281.1,1963.1 1276.8,1944.8 1271.1,1928.6 1263.9,1914.4 1255.2,1902.2 1245.0,1892.3 1233.4,1884.5 1220.3,1878.8 1205.8,1875.4 1189.9,1874.1 1172.7,1874.9 1154.2,1877.9 1134.4,1882.9 1113.5,1890.0 1091.5,1899.0 1068.4,1909.9 1044.5,1922.6 1019.7,1937.0 994.1,1953.0 967.9,1970.4 941.3,1989.2 914.2,2009.2 886.9,2030.2 859.5,2052.0 832.1,2074.6 804.9,2097.7  " style="stroke-opacity: 1.000000; stroke-width: 5.0; stroke: rgb(107,174,214); fill: none"  />
<path d="M 1853.6,2345.8 L 1840.1,2313.1 1827.0,2280.4 1814.4,2248.0 1802.5,2216.2 1791.4,2185.0 1781.1,2154.8 1771.7,2125.5 1763.4,2097.6 1756.2,2070.9 1750.1,2045.8 1745.3,2022.3 1741.8,2000.5 1739.7,1980.6 1738.9,1962.6 1739.5,1946.7 1741.6,1932.8 1745.1,1921.0 1750.1,1911.5 1756.5,1904.1 1764.5,1899.0 1773.8,1896.1 1784.6,1895.4 1796.8,1897.0 1810.3,1900.8 1825.1,1906.7 1841.2,1914.7 1858.5,1924.8 1877.0,1936.9 1896.5,1950.8 1917.0,1966.6 1938.3,1984.0 1960.5,2003.0 1983.4,2023.5 2006.8,2045.2 2030.7,2068.1 2055.0,2092.0 2079.4,2116.7 2103.9,2141.9 2128.3,2167.6  " style="stroke-opacity: 1.000000; stroke-width: 5.0; stroke: rgb(107,174,214); fill: none"  />
<path d="M 1853.6,2345.8 L 1840.1,2313.2 1826.8,2280.8 1813.9,2248.8 1801.5,2217.5 1789.7,2186.9 1778.6,2157.4 1768.2,2129.0 1758.6,2102.0 1749.9,2076.6 1742.3,2052.8 1735.6,2030.7 1730.0,2010.6 1725.6,1992.5 1722.3,1976.5 1720.3,1962.6 1719.4,1951.0 1719.8,1941.7 1721.5,1934.7 1724.4,1930.2 1728.6,1927.9 1734.1,1928.1 1740.7,1930.7 1748.7,1935.6 1757.8,1942.8 1768.0,1952.3 1779.4,1964.1 1791.9,1978.0 1805.4,1993.9 1819.8,2011.8 1835.1,2031.6 1851.3,2053.1 1868.2,2076.2 1885.7,2100.8 1903.8,2126.7 1922.4,2153.7 1941.3,2181.6 1960.4,2210.3 1979.7,2239.5 1999.0,2269.1  " style="stroke-opacity: 1.000000; stroke-width: 5.0; stroke: rgb(107,174,214); fill: none"  />
<path d="M 1853.6,2345.8 L 1839.9,2313.3 1826.2,2281.1 1812.5,2249.5 1798.9,2218.6 1785.4,2188.7 1772.2,2160.0 1759.4,2132.7 1746.9,2106.9 1734.8,2082.9 1723.3,2060.7 1712.3,2040.5 1701.8,2022.4 1692.1,2006.5 1683.0,1992.9 1674.6,1981.7 1666.9,1973.0 1660.0,1966.7 1653.9,1963.0 1648.5,1961.9 1644.0,1963.3 1640.3,1967.3 1637.4,1973.9 1635.4,1982.9 1634.1,1994.5 1633.7,2008.5 1634.0,2024.9 1635.2,2043.5 1637.1,2064.3 1639.7,2087.1 1643.0,2111.9 1646.9,2138.5 1651.5,2166.8 1656.7,2196.5 1662.4,2227.6 1668.6,2259.8 1675.2,2292.9 1682.2,2326.6 1689.4,2360.9 1696.9,2395.4  " style="stroke-opacity: 1.000000; stroke-width: 5.0; stroke: rgb(107,174,214); fill: none"  />
<path d="M 814.4,891.4 L 841.3,914.9 868.3,937.9 895.4,960.2 922.3,981.6 949.1,1002.0 975.5,1021.2 1001.4,1039.1 1026.6,1055.4 1051.2,1070.2 1075.0,1083.3 1097.9,1094.5 1119.7,1103.9 1140.5,1111.3 1160.2,1116.7 1178.7,1119.9 1195.9,1121.1 1211.8,1120.0 1226.3,1116.8 1239.5,1111.4 1251.3,1103.7 1261.6,1093.9 1270.5,1082.0 1277.9,1067.9 1283.9,1051.7 1288.4,1033.5 1291.6,1013.3 1293.3,991.3 1293.6,967.5 1292.7,942.1 1290.4,915.0 1286.9,886.6 1282.3,856.8 1276.5,825.9 1269.8,794.0 1262.0,761.2 1253.5,727.9 1244.1,694.0 1234.1,660.0 1223.6,625.9  " style="stroke-opacity: 1.000000; stroke-width: 5.0; stroke: rgb(107,174,214); fill: none"  />
<path d="M 1059.2,2303.8 L 1076.2,2272.9 1093.3,2242.4 1110.3,2212.3 1127.1,2183.1 1143.6,2154.8 1159.7,2127.7 1175.4,2101.8 1190.5,2077.5 1205.1,2054.9 1218.9,2034.0 1232.0,2015.1 1244.2,1998.2 1255.6,1983.4 1266.1,1970.9 1275.6,1960.7 1284.2,1952.8 1291.7,1947.3 1298.2,1944.2 1303.6,1943.7 1308.0,1945.6 1311.2,1949.9 1313.4,1956.7 1314.5,1966.0 1314.5,1977.6 1313.5,1991.6 1311.4,2007.8 1308.3,2026.2 1304.2,2046.7 1299.2,2069.1 1293.3,2093.5 1286.6,2119.5 1279.0,2147.1 1270.8,2176.2 1261.8,2206.4 1252.3,2237.8 1242.2,2270.0 1231.7,2302.8 1220.9,2336.1 1209.8,2369.6  " style="stroke-opacity: 1.000000; stroke-width: 5.0; stroke: rgb(107,174,214); fill: none"  />
<path d="M 1072.0,689.3 L 1088.7,720.5 1105.6,751.4 1122.5,781.7 1139.6,811.1 1156.5,839.6 1173.3,866.8 1189.9,892.6 1206.2,916.8 1222.2,939.3 1237.8,959.9 1252.8,978.6 1267.4,995.1 1281.4,1009.4 1294.8,1021.5 1307.5,1031.1 1319.6,1038.4 1330.9,1043.1 1341.4,1045.4 1351.2,1045.1 1360.2,1042.2 1368.4,1036.8 1375.7,1028.9 1382.3,1018.5 1387.9,1005.7 1392.8,990.5 1396.8,972.9 1400.1,953.2 1402.5,931.3 1404.1,907.3 1405.0,881.5 1405.1,853.9 1404.5,824.7 1403.3,794.1 1401.4,762.1 1398.9,729.1 1395.9,695.3 1392.4,660.7 1388.5,625.8 1384.1,590.6  " style="stroke-opacity: 1.000000; stroke-width: 5.0; stroke: rgb(107,174,214); fill: none"  />
<path d="M 922.8,2212.2 L 945.2,2184.8 967.7,2157.8 990.3,2131.4 1012.7,2105.8 1034.8,2081.2 1056.6,2057.8 1077.9,2035.7 1098.6,2015.1 1118.6,1996.1 1137.9,1978.9 1156.3,1963.5 1173.8,1950.1 1190.3,1938.8 1205.8,1929.6 1220.2,1922.6 1233.4,1917.8 1245.4,1915.4 1256.2,1915.2 1265.7,1917.4 1274.0,1921.9 1281.0,1928.8 1286.7,1938.0 1291.0,1949.4 1294.1,1963.1 1295.9,1979.0 1296.5,1997.0 1295.8,2017.0 1293.9,2039.0 1290.9,2062.8 1286.7,2088.3 1281.5,2115.4 1275.2,2143.9 1268.1,2173.7 1260.0,2204.7 1251.2,2236.6 1241.7,2269.2 1231.5,2302.4 1220.9,2336.0 1209.8,2369.6  " style="stroke-opacity: 1.000000; stroke-width: 5.0; stroke: rgb(107,174,214); fill: none"  />
<path d="M 2138.8,842.4 L 2114.0,867.7 2089.1,892.6 2064.3,916.9 2039.7,940.3 2015.4,962.8 1991.6,984.2 1968.4,1004.3 1946.0,1023.0 1924.3,1040.1 1903.6,1055.5 1883.8,1069.1 1865.2,1080.9 1847.7,1090.7 1831.5,1098.5 1816.6,1104.2 1803.0,1107.8 1790.8,1109.1 1780.0,1108.3 1770.7,1105.3 1762.9,1100.0 1756.6,1092.6 1751.7,1082.9 1748.4,1071.1 1746.6,1057.2 1746.2,1041.2 1747.2,1023.2 1749.7,1003.4 1753.6,981.7 1758.7,958.2 1765.2,933.2 1772.8,906.7 1781.6,878.8 1791.4,849.8 1802.2,819.7 1813.8,788.7 1826.3,757.0 1839.3,724.9 1852.9,692.4 1867.0,659.9  " style="stroke-opacity: 1.000000; stroke-width: 5.0; stroke: rgb(107,174,214); fill: none"  />
<path d="M 1223.6,625.9 L 1234.1,660.0 1244.1,694.0 1253.5,727.9 1262.0,761.2 1269.8,794.0 1276.5,825.9 1282.3,856.8 1286.9,886.6 1290.4,915.0 1292.7,942.1 1293.6,967.5 1293.3,991.3 1291.6,1013.3 1288.4,1033.5 1283.9,1051.7 1277.9,1067.9 1270.5,1082.0 1261.6,1093.9 1251.3,1103.7 1239.5,1111.4 1226.3,1116.8 1211.8,1120.0 1195.9,1121.1 1178.7,1119.9 1160.2,1116.7 1140.5,1111.3 1119.7,1103.9 1097.9,1094.5 1075.0,1083.3 1051.2,1070.2 1026.6,1055.4 1001.4,1039.1 975.5,1021.2 949.1,1002.0 922.3,981.6 895.4,960.2 868.3,937.9 841.3,914.9 814.4,891.4  " style="stroke-opacity: 1.000000; stroke-width: 5.0; stroke: rgb(107,174,214); fill: none"  />
<path d="M 2245.9,967.0 L 2217.0,987.5 2188.1,1007.5 2159.3,1027.0 2130.9,1045.7 2103.0,1063.5 2075.8,1080.3 2049.4,1095.9 2024.0,1110.3 1999.6,1123.2 1976.4,1134.7 1954.6,1144.6 1934.2,1152.9 1915.2,1159.4 1897.9,1164.2 1882.2,1167.1 1868.2,1168.2 1855.9,1167.3 1845.5,1164.6 1836.9,1160.0 1830.1,1153.4 1825.2,1144.9 1822.2,1134.6 1821.0,1122.4 1821.7,1108.3 1824.1,1092.5 1828.4,1075.1 1834.4,1055.9 1842.0,1035.3 1851.3,1013.1 1862.1,989.7 1874.4,964.9 1888.0,939.1 1902.8,912.3 1918.8,884.6 1935.8,856.2 1953.7,827.2 1972.3,797.9 1991.5,768.4 2011.1,738.9  " style="stroke-opacity: 1.000000; stroke-width: 5.0; stroke: rgb(107,174,214); fill: none"  />
<path d="M 804.9,2097.7 L 832.1,2074.6 859.5,2052.0 886.9,2030.2 914.2,2009.2 941.3,1989.2 967.9,1970.4 994.1,1953.0 1019.7,1937.0 1044.5,1922.6 1068.4,1909.9 1091.5,1899.0 1113.5,1890.0 1134.4,1882.9 1154.2,1877.9 1172.7,1874.9 1189.9,1874.1 1205.8,1875.4 1220.3,1878.8 1233.4,1884.5 1245.0,1892.3 1255.2,1902.2 1263.9,1914.4 1271.1,1928.6 1276.8,1944.8 1281.1,1963.1 1283.9,1983.3 1285.2,2005.3 1285.2,2029.1 1283.9,2054.6 1281.2,2081.6 1277.2,2110.0 1272.1,2139.7 1265.9,2170.5 1258.6,2202.3 1250.4,2234.9 1241.3,2268.1 1231.4,2301.8 1220.9,2335.7 1209.8,2369.6  " style="stroke-opacity: 1.000000; stroke-width: 5.0; stroke: rgb(107,174,214); fill: none"  />
<path d="M 1696.9,2395.4 L 1689.5,2360.5 1682.6,2325.6 1676.3,2291.1 1670.8,2257.1 1666.0,2223.8 1662.1,2191.4 1659.2,2160.1 1657.2,2130.1 1656.3,2101.4 1656.5,2074.3 1657.8,2048.8 1660.3,2025.2 1664.0,2003.4 1668.9,1983.6 1675.1,1965.9 1682.5,1950.3 1691.1,1936.9 1701.1,1925.8 1712.2,1917.0 1724.6,1910.4 1738.2,1906.2 1753.0,1904.3 1768.9,1904.7 1786.0,1907.3 1804.1,1912.2 1823.2,1919.3 1843.2,1928.6 1864.2,1939.9 1885.9,1953.1 1908.4,1968.3 1931.6,1985.2 1955.3,2003.8 1979.5,2023.9 2004.1,2045.4 2028.9,2068.1 2053.8,2091.8 2078.8,2116.5 2103.6,2141.8 2128.3,2167.6  " style="stroke-opacity: 1.000000; stroke-width: 5.0; stroke: rgb(107,174,214); fill: none"  />
<path d="M 1696.9,2395.4 L 1689.5,2360.7 1682.4,2326.3 1675.8,2292.2 1669.8,2258.7 1664.4,2226.0 1659.6,2194.4 1655.6,2164.0 1652.4,2135.0 1650.1,2107.5 1648.6,2081.7 1648.1,2057.7 1648.6,2035.7 1650.0,2015.7 1652.4,1997.9 1655.9,1982.3 1660.4,1969.0 1666.0,1958.0 1672.6,1949.5 1680.3,1943.4 1689.0,1939.8 1698.7,1938.6 1709.4,1939.9 1721.1,1943.6 1733.7,1949.7 1747.3,1958.2 1761.7,1969.0 1776.9,1982.0 1792.9,1997.2 1809.6,2014.4 1826.9,2033.5 1844.9,2054.5 1863.3,2077.2 1882.1,2101.4 1901.3,2127.0 1920.7,2153.8 1940.3,2181.6 1960.0,2210.2 1979.5,2239.4 1999.0,2269.1  " style="stroke-opacity: 1.000000; stroke-width: 5.0; stroke: rgb(107,174,214); fill: none"  />
<path d="M 1696.9,2395.4 L 1689.4,2360.9 1682.2,2326.6 1675.2,2292.9 1668.6,2259.8 1662.4,2227.6 1656.7,2196.5 1651.5,2166.8 1646.9,2138.5 1643.0,2111.9 1639.7,2087.1 1637.1,2064.3 1635.2,2043.5 1634.0,2024.9 1633.7,2008.5 1634.1,1994.5 1635.4,1982.9 1637.4,1973.9 1640.3,1967.3 1644.0,1963.3 1648.5,1961.9 1653.9,1963.0 1660.0,1966.7 1666.9,1973.0 1674.6,1981.7 1683.0,1992.9 1692.1,2006.5 1701.8,2022.4 1712.3,2040.5 1723.3,2060.7 1734.8,2082.9 1746.9,2106.9 1759.4,2132.7 1772.2,2160.0 1785.4,2188.7 1798.9,2218.6 1812.5,2249.5 1826.2,2281.1 1839.9,2313.3 1853.6,2345.8  " style="stroke-opacity: 1.000000; stroke-width: 5.0; stroke: rgb(107,174,214); fill: none"  />
<path d="M 1384.1,590.6 L 1388.5,625.8 1392.4,660.7 1395.9,695.3 1398.9,729.1 1401.4,762.1 1403.3,794.1 1404.5,824.7 1405.1,853.9 1405.0,881.5 1404.1,907.3 1402.5,931.3 1400.1,953.2 1396.8,972.9 1392.8,990.5 1387.9,1005.7 1382.3,1018.5 1375.7,1028.9 1368.4,1036.8 1360.2,1042.2 1351.2,1045.1 1341.4,1045.4 1330.9,1043.1 1319.6,1038.4 1307.5,1031.1 1294.8,1021.5 1281.4,1009.4 1267.4,995.1 1252.8,978.6 1237.8,959.9 1222.2,939.3 1206.2,916.8 1189.9,892.6 1173.3,866.8 1156.5,839.6 1139.6,811.1 1122.5,781.7 1105.6,751.4 1088.7,720.5 1072.0,689.3  " style="stroke-opacity: 1.000000; stroke-width: 5.0; stroke: rgb(107,174,214); fill: none"  />
</g>
<defs>
<pattern id="checker" width="10" height="10" patternTransform="rotate(45 0 0)" patternUnits="userSpaceOnUse"><line x1="0" y1="0" x2="10" y2="0" style="stroke:black;stroke-width:2" /><line x1="0" y1="0" x2="0" y2="10" style="stroke:black;stroke-width:2" /></pattern>
<pattern id="hline-sparse" width="10" height="10" patternTransform="rotate(0 0 0)" patternUnits="userSpaceOnUse"><line x1="0" y1="0" x2="10" y2="0" style="stroke:black;stroke-width:2" /></pattern>
<pattern id="vline" width="10" height="10" patternTransform="rotate(0 0 0)" patternUnits="userSpaceOnUse"><line x1="0" y1="0" x2="0" y2="10" style="stroke:black;stroke-width:5" /></pattern>
<pattern id="vline-sparse" width="10" height="10" patternTransform="rotate(0 0 0)" patternUnits="userSpaceOnUse"><line x1="0" y1="0" x2="0" y2="10" style="stroke:black;stroke-width:2" /></pattern>
<pattern id="checker" width="10" height="10" patternTransform="rotate(45 0 0)" patternUnits="userSpaceOnUse"><line x1="0" y1="0" x2="10" y2="0" style="stroke:black;stroke-width:5" /><line x1="0" y1="0" x2="0" y2="10" style="stroke:black;stroke-width:4" /></pattern>
<pattern id="hline" width="10" height="10" patternTransform="rotate(0 0 0)" patternUnits="userSpaceOnUse"><line x1="0" y1="0" x2="10" y2="0" style="stroke:black;stroke-width:5" /></pattern>
</defs>
</svg>
