<?xml version="1.0" encoding="utf-8" standalone="no"?>
<!DOCTYPE svg PUBLIC "-//W3C//DTD SVG 1.1//EN" "http://www.w3.org/Graphics/SVG/1.1/DTD/svg11.dtd">
<svg width="3000px" height="3000px" version="1.1" xmlns="http://www.w3.org/2000/svg" xmlns:xlink="http://www.w3.org/1999/xlink">
<g id="bg">
<rect x="0" y="0" width="3000px" height="3000px" style="fill:rgb(255,255,255);"/>
</g>
<g id="ideograms">
<path d="M1500.000,830.000 A670.000,670.000 40.000 0,1 1570.620,833.732 L1579.053,754.178 A750.000,750.000 0.000 0,0 1500.000,750.000 Z" style="stroke-width:2.0;stroke:rgb(115,115,115);stroke-linecap:round;fill:rgb(153,204,255);" />
<text x="1567.5" y="677.8" font-size="65.0px" font-family="CMUBright-Roman" style="text-anchor:start;fill:rgb(0,0,0);" transform="rotate(273.0,1567.5,677.8)" >5-FP</text>
<path d="M1500.000,830.000 A670.000,670.000 40.000 0,1 1570.620,833.732 L1579.053,754.178 A750.000,750.000 0.000 0,0 1500.000,750.000 Z" style="stroke-width:2.0;stroke:rgb(115,115,115);stroke-linecap:round;fill:none;" />
<path d="M1619.633,840.767 A670.000,670.000 40.000 0,1 1688.452,857.049 L1710.954,780.279 A750.000,750.000 0.000 0,0 1633.918,762.053 Z" style="stroke-width:2.0;stroke:rgb(115,115,115);stroke-linecap:round;fill:rgb(153,204,255);" />
<text x="1713.7" y="703.2" font-size="65.0px" font-family="CMUBright-Roman" style="text-anchor:start;fill:rgb(0,0,0);" transform="rotate(283.3,1713.7,703.2)" >8-IFG</text>
<path d="M1619.633,840.767 A670.000,670.000 40.000 0,1 1688.452,857.049 L1710.954,780.279 A750.000,750.000 0.000 0,0 1633.918,762.053 Z" style="stroke-width:2.0;stroke:rgb(115,115,115);stroke-linecap:round;fill:none;" />
<path d="M1735.421,872.723 A670.000,670.000 40.000 0,1 1800.227,901.031 L1836.075,829.512 A750.000,750.000 0.000 0,0 1763.531,797.824 Z" style="stroke-width:2.0;stroke:rgb(115,115,115);stroke-linecap:round;fill:rgb(153,204,255);" />
<text x="1852.1" y="753.9" font-size="65.0px" font-family="CMUBright-Roman" style="text-anchor:start;fill:rgb(0,0,0);" transform="rotate(293.6,1852.1,753.9)" >10-IPL</text>
<path d="M1735.421,872.723 A670.000,670.000 40.000 0,1 1800.227,901.031 L1836.075,829.512 A750.000,750.000 0.000 0,0 1763.531,797.824 Z" style="stroke-width:2.0;stroke:rgb(115,115,115);stroke-linecap:round;fill:none;" />
<path d="M1843.643,924.839 A670.000,670.000 40.000 0,1 1902.352,964.264 L1950.394,900.296 A750.000,750.000 0.000 0,0 1884.674,856.163 Z" style="stroke-width:2.0;stroke:rgb(115,115,115);stroke-linecap:round;fill:rgb(153,204,255);" />
<text x="1980.1" y="829.1" font-size="65.0px" font-family="CMUBright-Roman" style="text-anchor:start;fill:rgb(0,0,0);" transform="rotate(303.9,1980.1,829.1)" >13-LCI</text>
<path d="M1843.643,924.839 A670.000,670.000 40.000 0,1 1902.352,964.264 L1950.394,900.296 A750.000,750.000 0.000 0,0 1884.674,856.163 Z" style="stroke-width:2.0;stroke:rgb(115,115,115);stroke-linecap:round;fill:none;" />
<path d="M1940.819,995.442 A670.000,670.000 40.000 0,1 1991.546,1044.717 L2050.238,990.354 A750.000,750.000 0.000 0,0 1993.454,935.196 Z" style="stroke-width:2.0;stroke:rgb(115,115,115);stroke-linecap:round;fill:rgb(153,204,255);" />
<text x="2092.1" y="925.6" font-size="65.0px" font-family="CMUBright-Roman" style="text-anchor:start;fill:rgb(0,0,0);" transform="rotate(314.2,2092.1,925.6)" >19-MTG</text>
<path d="M1940.819,995.442 A670.000,670.000 40.000 0,1 1991.546,1044.717 L2050.238,990.354 A750.000,750.000 0.000 0,0 1993.454,935.196 Z" style="stroke-width:2.0;stroke:rgb(115,115,115);stroke-linecap:round;fill:none;" />
<path d="M2023.827,1082.262 A670.000,670.000 40.000 0,1 2064.940,1139.802 L2132.396,1096.793 A750.000,750.000 0.000 0,0 2086.374,1032.383 Z" style="stroke-width:2.0;stroke:rgb(115,115,115);stroke-linecap:round;fill:rgb(153,204,255);" />
<text x="2185.2" y="1040.5" font-size="65.0px" font-family="CMUBright-Roman" style="text-anchor:start;fill:rgb(0,0,0);" transform="rotate(324.5,2185.2,1040.5)" >26-PC</text>
<path d="M2023.827,1082.262 A670.000,670.000 40.000 0,1 2064.940,1139.802 L2132.396,1096.793 A750.000,750.000 0.000 0,0 2086.374,1032.383 Z" style="stroke-width:2.0;stroke:rgb(115,115,115);stroke-linecap:round;fill:none;" />
<path d="M2089.999,1182.508 A670.000,670.000 40.000 0,1 2120.177,1246.465 L2194.228,1216.192 A750.000,750.000 0.000 0,0 2160.447,1144.599 Z" style="stroke-width:2.0;stroke:rgb(115,115,115);stroke-linecap:round;fill:rgb(153,204,255);" />
<text x="2256.2" y="1170.3" font-size="65.0px" font-family="CMUBright-Roman" style="text-anchor:start;fill:rgb(0,0,0);" transform="rotate(334.7,2256.2,1170.3)" >27-RCI</text>
<path d="M2089.999,1182.508 A670.000,670.000 40.000 0,1 2120.177,1246.465 L2194.228,1216.192 A750.000,750.000 0.000 0,0 2160.447,1144.599 Z" style="stroke-width:2.0;stroke:rgb(115,115,115);stroke-linecap:round;fill:none;" />
<path d="M2137.208,1292.959 A670.000,670.000 40.000 0,1 2155.481,1361.276 L2233.748,1344.712 A750.000,750.000 0.000 0,0 2213.292,1268.237 Z" style="stroke-width:2.0;stroke:rgb(115,115,115);stroke-linecap:round;fill:rgb(153,204,255);" />
<text x="2303.0" y="1310.6" font-size="65.0px" font-family="CMUBright-Roman" style="text-anchor:start;fill:rgb(0,0,0);" transform="rotate(345.0,2303.0,1310.6)" >28-RCI</text>
<path d="M2137.208,1292.959 A670.000,670.000 40.000 0,1 2155.481,1361.276 L2233.748,1344.712 A750.000,750.000 0.000 0,0 2213.292,1268.237 Z" style="stroke-width:2.0;stroke:rgb(115,115,115);stroke-linecap:round;fill:none;" />
<path d="M2163.936,1410.064 A670.000,670.000 40.000 0,1 2169.718,1480.546 L2249.684,1478.223 A750.000,750.000 0.000 0,0 2243.212,1399.325 Z" style="stroke-width:2.0;stroke:rgb(115,115,115);stroke-linecap:round;fill:rgb(116,196,118);" />
<text x="2323.9" y="1457.0" font-size="65.0px" font-family="CMUBright-Roman" style="text-anchor:start;fill:rgb(0,0,0);" transform="rotate(355.3,2323.9,1457.0)" >2-COC</text>
<path d="M2163.936,1410.064 A670.000,670.000 40.000 0,1 2169.718,1480.546 L2249.684,1478.223 A750.000,750.000 0.000 0,0 2243.212,1399.325 Z" style="stroke-width:2.0;stroke:rgb(115,115,115);stroke-linecap:round;fill:none;" />
<path d="M2169.325,1530.059 A670.000,670.000 40.000 0,1 2162.429,1600.441 L2241.524,1612.434 A750.000,750.000 0.000 0,0 2249.245,1533.649 Z" style="stroke-width:2.0;stroke:rgb(115,115,115);stroke-linecap:round;fill:rgb(116,196,118);" />
<text x="2318.3" y="1604.8" font-size="65.0px" font-family="CMUBright-Roman" style="text-anchor:start;fill:rgb(0,0,0);" transform="rotate(5.6,2318.3,1604.8)" >3-COC</text>
<path d="M2169.325,1530.059 A670.000,670.000 40.000 0,1 2162.429,1600.441 L2241.524,1612.434 A750.000,750.000 0.000 0,0 2249.245,1533.649 Z" style="stroke-width:2.0;stroke:rgb(115,115,115);stroke-linecap:round;fill:none;" />
<path d="M2153.202,1649.089 A670.000,670.000 40.000 0,1 2133.849,1717.108 L2209.532,1743.032 A750.000,750.000 0.000 0,0 2231.196,1666.891 Z" style="stroke-width:2.0;stroke:rgb(115,115,115);stroke-linecap:round;fill:rgb(116,196,118);" />
<text x="2286.5" y="1749.2" font-size="65.0px" font-family="CMUBright-Roman" style="text-anchor:start;fill:rgb(0,0,0);" transform="rotate(15.9,2286.5,1749.2)" >11-ITG</text>
<path d="M2153.202,1649.089 A670.000,670.000 40.000 0,1 2133.849,1717.108 L2209.532,1743.032 A750.000,750.000 0.000 0,0 2231.196,1666.891 Z" style="stroke-width:2.0;stroke:rgb(115,115,115);stroke-linecap:round;fill:none;" />
<path d="M2116.084,1763.327 A670.000,670.000 40.000 0,1 2084.896,1826.797 L2154.734,1865.818 A750.000,750.000 0.000 0,0 2189.646,1794.769 Z" style="stroke-width:2.0;stroke:rgb(115,115,115);stroke-linecap:round;fill:rgb(116,196,118);" />
<text x="2229.8" y="1884.8" font-size="65.0px" font-family="CMUBright-Roman" style="text-anchor:start;fill:rgb(0,0,0);" transform="rotate(26.2,2229.8,1884.8)" >14-LIX</text>
<path d="M2116.084,1763.327 A670.000,670.000 40.000 0,1 2084.896,1826.797 L2154.734,1865.818 A750.000,750.000 0.000 0,0 2189.646,1794.769 Z" style="stroke-width:2.0;stroke:rgb(115,115,115);stroke-linecap:round;fill:none;" />
<path d="M2059.164,1869.101 A670.000,670.000 40.000 0,1 2017.145,1925.983 L2078.893,1976.846 A750.000,750.000 0.000 0,0 2125.930,1913.173 Z" style="stroke-width:2.0;stroke:rgb(115,115,115);stroke-linecap:round;fill:rgb(116,196,118);" />
<text x="2149.0" y="2009.3" font-size="65.0px" font-family="CMUBright-Roman" style="text-anchor:start;fill:rgb(0,0,0);" transform="rotate(36.5,2149.0,2009.3)" >23-PP</text>
<path d="M2059.164,1869.101 A670.000,670.000 40.000 0,1 2017.145,1925.983 L2078.893,1976.846 A750.000,750.000 0.000 0,0 2125.930,1913.173 Z" style="stroke-width:2.0;stroke:rgb(115,115,115);stroke-linecap:round;fill:none;" />
<path d="M1984.273,1963.012 A670.000,670.000 40.000 0,1 1932.772,2011.477 L1984.446,2072.549 A750.000,750.000 0.000 0,0 2042.096,2018.297 Z" style="stroke-width:2.0;stroke:rgb(115,115,115);stroke-linecap:round;fill:rgb(116,196,118);" />
<text x="2048.0" y="2116.7" font-size="65.0px" font-family="CMUBright-Roman" style="text-anchor:start;fill:rgb(0,0,0);" transform="rotate(46.7,2048.0,2116.7)" >24-PP</text>
<path d="M1984.273,1963.012 A670.000,670.000 40.000 0,1 1932.772,2011.477 L1984.446,2072.549 A750.000,750.000 0.000 0,0 2042.096,2018.297 Z" style="stroke-width:2.0;stroke:rgb(115,115,115);stroke-linecap:round;fill:none;" />
<path d="M1893.816,2042.041 A670.000,670.000 40.000 0,1 1834.489,2080.532 L1874.428,2149.849 A750.000,750.000 0.000 0,0 1940.839,2106.763 Z" style="stroke-width:2.0;stroke:rgb(115,115,115);stroke-linecap:round;fill:rgb(153,0,204);" />
<text x="1928.3" y="2205.1" font-size="65.0px" font-family="CMUBright-Roman" style="text-anchor:start;fill:rgb(0,0,0);" transform="rotate(57.0,1928.3,2205.1)" >1-AG</text>
<path d="M1893.816,2042.041 A670.000,670.000 40.000 0,1 1834.489,2080.532 L1874.428,2149.849 A750.000,750.000 0.000 0,0 1940.839,2106.763 Z" style="stroke-width:2.0;stroke:rgb(115,115,115);stroke-linecap:round;fill:none;" />
<path d="M1790.702,2103.649 A670.000,670.000 40.000 0,1 1725.456,2130.928 L1752.376,2206.262 A750.000,750.000 0.000 0,0 1825.413,2175.727 Z" style="stroke-width:2.0;stroke:rgb(115,115,115);stroke-linecap:round;fill:rgb(153,0,204);" />
<text x="1795.5" y="2270.3" font-size="65.0px" font-family="CMUBright-Roman" style="text-anchor:start;fill:rgb(0,0,0);" transform="rotate(67.3,1795.5,2270.3)" >7-IFG</text>
<path d="M1790.702,2103.649 A670.000,670.000 40.000 0,1 1725.456,2130.928 L1752.376,2206.262 A750.000,750.000 0.000 0,0 1825.413,2175.727 Z" style="stroke-width:2.0;stroke:rgb(115,115,115);stroke-linecap:round;fill:none;" />
<path d="M1678.245,2145.855 A670.000,670.000 40.000 0,1 1609.176,2161.045 L1622.212,2239.976 A750.000,750.000 0.000 0,0 1699.528,2222.972 Z" style="stroke-width:2.0;stroke:rgb(115,115,115);stroke-linecap:round;fill:rgb(153,0,204);" />
<text x="1653.7" y="2310.6" font-size="65.0px" font-family="CMUBright-Roman" style="text-anchor:start;fill:rgb(0,0,0);" transform="rotate(77.6,1653.7,2310.6)" >9-IPL</text>
<path d="M1678.245,2145.855 A670.000,670.000 40.000 0,1 1609.176,2161.045 L1622.212,2239.976 A750.000,750.000 0.000 0,0 1699.528,2222.972 Z" style="stroke-width:2.0;stroke:rgb(115,115,115);stroke-linecap:round;fill:none;" />
<path d="M1560.058,2167.303 A670.000,670.000 40.000 0,1 1489.388,2169.916 L1488.121,2249.906 A750.000,750.000 0.000 0,0 1567.229,2246.981 Z" style="stroke-width:2.0;stroke:rgb(115,115,115);stroke-linecap:round;fill:rgb(153,0,204);" />
<text x="1506.0" y="2325.0" font-size="65.0px" font-family="CMUBright-Roman" style="text-anchor:start;fill:rgb(0,0,0);" transform="rotate(87.9,1506.0,2325.0)" >17-MFG</text>
<path d="M1560.058,2167.303 A670.000,670.000 40.000 0,1 1489.388,2169.916 L1488.121,2249.906 A750.000,750.000 0.000 0,0 1567.229,2246.981 Z" style="stroke-width:2.0;stroke:rgb(115,115,115);stroke-linecap:round;fill:none;" />
<path d="M1439.942,2167.303 A670.000,670.000 40.000 0,1 1369.940,2157.255 L1354.411,2235.733 A750.000,750.000 0.000 0,0 1432.771,2246.981 Z" style="stroke-width:2.0;stroke:rgb(115,115,115);stroke-linecap:round;fill:rgb(153,0,204);" />
<text x="1407.1" y="2319.8" font-size="65.0px" font-family="CMUBright-Roman" style="text-anchor:end;fill:rgb(0,0,0);" transform="rotate(-81.8,1407.1,2319.8)" >25-PosG</text>
<path d="M1439.942,2167.303 A670.000,670.000 40.000 0,1 1369.940,2157.255 L1354.411,2235.733 A750.000,750.000 0.000 0,0 1432.771,2246.981 Z" style="stroke-width:2.0;stroke:rgb(115,115,115);stroke-linecap:round;fill:none;" />
<path d="M1321.755,2145.855 A670.000,670.000 40.000 0,1 1254.673,2123.470 L1225.380,2197.914 A750.000,750.000 0.000 0,0 1300.472,2222.972 Z" style="stroke-width:2.0;stroke:rgb(115,115,115);stroke-linecap:round;fill:rgb(153,0,204);" />
<text x="1262.2" y="2290.0" font-size="65.0px" font-family="CMUBright-Roman" style="text-anchor:end;fill:rgb(0,0,0);" transform="rotate(-71.5,1262.2,2290.0)" >34-SG</text>
<path d="M1321.755,2145.855 A670.000,670.000 40.000 0,1 1254.673,2123.470 L1225.380,2197.914 A750.000,750.000 0.000 0,0 1300.472,2222.972 Z" style="stroke-width:2.0;stroke:rgb(115,115,115);stroke-linecap:round;fill:none;" />
<path d="M1209.298,2103.649 A670.000,670.000 40.000 0,1 1147.290,2069.645 L1105.176,2137.663 A750.000,750.000 0.000 0,0 1174.587,2175.727 Z" style="stroke-width:2.0;stroke:rgb(115,115,115);stroke-linecap:round;fill:rgb(253,208,162);" />
<text x="1125.0" y="2234.8" font-size="65.0px" font-family="CMUBright-Roman" style="text-anchor:end;fill:rgb(0,0,0);" transform="rotate(-61.3,1125.0,2234.8)" >12-LOC</text>
<path d="M1209.298,2103.649 A670.000,670.000 40.000 0,1 1147.290,2069.645 L1105.176,2137.663 A750.000,750.000 0.000 0,0 1174.587,2175.727 Z" style="stroke-width:2.0;stroke:rgb(115,115,115);stroke-linecap:round;fill:none;" />
<path d="M1106.184,2042.041 A670.000,670.000 40.000 0,1 1051.245,1997.512 L997.662,2056.917 A750.000,750.000 0.000 0,0 1059.161,2106.763 Z" style="stroke-width:2.0;stroke:rgb(115,115,115);stroke-linecap:round;fill:rgb(253,208,162);" />
<text x="999.8" y="2156.1" font-size="65.0px" font-family="CMUBright-Roman" style="text-anchor:end;fill:rgb(0,0,0);" transform="rotate(-51.0,999.8,2156.1)" >16-LG</text>
<path d="M1106.184,2042.041 A670.000,670.000 40.000 0,1 1051.245,1997.512 L997.662,2056.917 A750.000,750.000 0.000 0,0 1059.161,2106.763 Z" style="stroke-width:2.0;stroke:rgb(115,115,115);stroke-linecap:round;fill:none;" />
<path d="M1015.727,1963.012 A670.000,670.000 40.000 0,1 969.622,1909.389 L906.293,1958.271 A750.000,750.000 0.000 0,0 957.904,2018.297 Z" style="stroke-width:2.0;stroke:rgb(115,115,115);stroke-linecap:round;fill:rgb(253,208,162);" />
<text x="890.7" y="2056.2" font-size="65.0px" font-family="CMUBright-Roman" style="text-anchor:end;fill:rgb(0,0,0);" transform="rotate(-40.7,890.7,2056.2)" >20-OFG</text>
<path d="M1015.727,1963.012 A670.000,670.000 40.000 0,1 969.622,1909.389 L906.293,1958.271 A750.000,750.000 0.000 0,0 957.904,2018.297 Z" style="stroke-width:2.0;stroke:rgb(115,115,115);stroke-linecap:round;fill:none;" />
<path d="M940.836,1869.101 A670.000,670.000 40.000 0,1 905.046,1808.107 L834.007,1844.896 A750.000,750.000 0.000 0,0 874.070,1913.173 Z" style="stroke-width:2.0;stroke:rgb(115,115,115);stroke-linecap:round;fill:rgb(253,208,162);" />
<text x="801.2" y="1938.5" font-size="65.0px" font-family="CMUBright-Roman" style="text-anchor:end;fill:rgb(0,0,0);" transform="rotate(-30.4,801.2,1938.5)" >21-OP</text>
<path d="M940.836,1869.101 A670.000,670.000 40.000 0,1 905.046,1808.107 L834.007,1844.896 A750.000,750.000 0.000 0,0 874.070,1913.173 Z" style="stroke-width:2.0;stroke:rgb(115,115,115);stroke-linecap:round;fill:none;" />
<path d="M883.916,1763.327 A670.000,670.000 40.000 0,1 859.593,1696.922 L783.126,1720.436 A750.000,750.000 0.000 0,0 810.354,1794.769 Z" style="stroke-width:2.0;stroke:rgb(115,115,115);stroke-linecap:round;fill:rgb(253,208,162);" />
<text x="734.1" y="1806.6" font-size="65.0px" font-family="CMUBright-Roman" style="text-anchor:end;fill:rgb(0,0,0);" transform="rotate(-20.1,734.1,1806.6)" >29-RCI</text>
<path d="M883.916,1763.327 A670.000,670.000 40.000 0,1 859.593,1696.922 L783.126,1720.436 A750.000,750.000 0.000 0,0 810.354,1794.769 Z" style="stroke-width:2.0;stroke:rgb(115,115,115);stroke-linecap:round;fill:none;" />
<path d="M846.798,1649.089 A670.000,670.000 40.000 0,1 834.722,1579.409 L755.286,1588.890 A750.000,750.000 0.000 0,0 768.804,1666.891 Z" style="stroke-width:2.0;stroke:rgb(115,115,115);stroke-linecap:round;fill:rgb(253,208,162);" />
<text x="691.7" y="1665.0" font-size="65.0px" font-family="CMUBright-Roman" style="text-anchor:end;fill:rgb(0,0,0);" transform="rotate(-9.8,691.7,1665.0)" >35-SG</text>
<path d="M846.798,1649.089 A670.000,670.000 40.000 0,1 834.722,1579.409 L755.286,1588.890 A750.000,750.000 0.000 0,0 768.804,1666.891 Z" style="stroke-width:2.0;stroke:rgb(115,115,115);stroke-linecap:round;fill:none;" />
<path d="M830.675,1530.059 A670.000,670.000 40.000 0,1 831.235,1459.343 L751.382,1454.488 A750.000,750.000 0.000 0,0 750.755,1533.649 Z" style="stroke-width:2.0;stroke:rgb(115,115,115);stroke-linecap:round;fill:rgb(253,141,60);" />
<text x="675.2" y="1517.5" font-size="65.0px" font-family="CMUBright-Roman" style="text-anchor:end;fill:rgb(0,0,0);" transform="rotate(0.5,675.2,1517.5)" >15-LVIIIb</text>
<path d="M830.675,1530.059 A670.000,670.000 40.000 0,1 831.235,1459.343 L751.382,1454.488 A750.000,750.000 0.000 0,0 750.755,1533.649 Z" style="stroke-width:2.0;stroke:rgb(115,115,115);stroke-linecap:round;fill:none;" />
<path d="M836.064,1410.064 A670.000,670.000 40.000 0,1 849.242,1340.583 L771.539,1321.549 A750.000,750.000 0.000 0,0 756.788,1399.325 Z" style="stroke-width:2.0;stroke:rgb(115,115,115);stroke-linecap:round;fill:rgb(253,141,60);" />
<text x="685.3" y="1369.9" font-size="65.0px" font-family="CMUBright-Roman" style="text-anchor:end;fill:rgb(0,0,0);" transform="rotate(10.7,685.3,1369.9)" >30-RH</text>
<path d="M836.064,1410.064 A670.000,670.000 40.000 0,1 849.242,1340.583 L771.539,1321.549 A750.000,750.000 0.000 0,0 756.788,1399.325 Z" style="stroke-width:2.0;stroke:rgb(115,115,115);stroke-linecap:round;fill:none;" />
<path d="M862.792,1292.959 A670.000,670.000 40.000 0,1 888.165,1226.948 L815.110,1194.345 A750.000,750.000 0.000 0,0 786.708,1268.237 Z" style="stroke-width:2.0;stroke:rgb(115,115,115);stroke-linecap:round;fill:rgb(253,141,60);" />
<text x="721.6" y="1226.5" font-size="65.0px" font-family="CMUBright-Roman" style="text-anchor:end;fill:rgb(0,0,0);" transform="rotate(21.0,721.6,1226.5)" >31-RLV</text>
<path d="M862.792,1292.959 A670.000,670.000 40.000 0,1 888.165,1226.948 L815.110,1194.345 A750.000,750.000 0.000 0,0 786.708,1268.237 Z" style="stroke-width:2.0;stroke:rgb(115,115,115);stroke-linecap:round;fill:none;" />
<path d="M910.001,1182.508 A670.000,670.000 40.000 0,1 946.752,1122.089 L880.693,1076.965 A750.000,750.000 0.000 0,0 839.553,1144.599 Z" style="stroke-width:2.0;stroke:rgb(115,115,115);stroke-linecap:round;fill:rgb(253,141,60);" />
<text x="783.0" y="1091.9" font-size="65.0px" font-family="CMUBright-Roman" style="text-anchor:end;fill:rgb(0,0,0);" transform="rotate(31.3,783.0,1091.9)" >32-RLV</text>
<path d="M910.001,1182.508 A670.000,670.000 40.000 0,1 946.752,1122.089 L880.693,1076.965 A750.000,750.000 0.000 0,0 839.553,1144.599 Z" style="stroke-width:2.0;stroke:rgb(115,115,115);stroke-linecap:round;fill:none;" />
<path d="M976.173,1082.262 A670.000,670.000 40.000 0,1 1023.122,1029.376 L966.181,973.182 A750.000,750.000 0.000 0,0 913.626,1032.383 Z" style="stroke-width:2.0;stroke:rgb(115,115,115);stroke-linecap:round;fill:rgb(253,141,60);" />
<text x="867.0" y="970.9" font-size="65.0px" font-family="CMUBright-Roman" style="text-anchor:end;fill:rgb(0,0,0);" transform="rotate(41.6,867.0,970.9)" >33-SC</text>
<path d="M976.173,1082.262 A670.000,670.000 40.000 0,1 1023.122,1029.376 L966.181,973.182 A750.000,750.000 0.000 0,0 913.626,1032.383 Z" style="stroke-width:2.0;stroke:rgb(115,115,115);stroke-linecap:round;fill:none;" />
<path d="M1059.181,995.442 A670.000,670.000 40.000 0,1 1114.819,951.789 L1068.827,886.331 A750.000,750.000 0.000 0,0 1006.546,935.196 Z" style="stroke-width:2.0;stroke:rgb(115,115,115);stroke-linecap:round;fill:rgb(66,146,198);" />
<text x="971.7" y="866.3" font-size="65.0px" font-family="CMUBright-Roman" style="text-anchor:end;fill:rgb(0,0,0);" transform="rotate(51.9,971.7,866.3)" >4-FOC</text>
<path d="M1059.181,995.442 A670.000,670.000 40.000 0,1 1114.819,951.789 L1068.827,886.331 A750.000,750.000 0.000 0,0 1006.546,935.196 Z" style="stroke-width:2.0;stroke:rgb(115,115,115);stroke-linecap:round;fill:none;" />
<path d="M1156.357,924.839 A670.000,670.000 40.000 0,1 1218.896,891.822 L1185.331,819.204 A750.000,750.000 0.000 0,0 1115.326,856.163 Z" style="stroke-width:2.0;stroke:rgb(115,115,115);stroke-linecap:round;fill:rgb(66,146,198);" />
<text x="1093.3" y="782.2" font-size="65.0px" font-family="CMUBright-Roman" style="text-anchor:end;fill:rgb(0,0,0);" transform="rotate(62.2,1093.3,782.2)" >6-IFG</text>
<path d="M1156.357,924.839 A670.000,670.000 40.000 0,1 1218.896,891.822 L1185.331,819.204 A750.000,750.000 0.000 0,0 1115.326,856.163 Z" style="stroke-width:2.0;stroke:rgb(115,115,115);stroke-linecap:round;fill:none;" />
<path d="M1264.579,872.723 A670.000,670.000 40.000 0,1 1332.008,851.403 L1311.949,773.958 A750.000,750.000 0.000 0,0 1236.469,797.824 Z" style="stroke-width:2.0;stroke:rgb(115,115,115);stroke-linecap:round;fill:rgb(66,146,198);" />
<text x="1228.0" y="721.1" font-size="65.0px" font-family="CMUBright-Roman" style="text-anchor:end;fill:rgb(0,0,0);" transform="rotate(72.5,1228.0,721.1)" >18-MTG</text>
<path d="M1264.579,872.723 A670.000,670.000 40.000 0,1 1332.008,851.403 L1311.949,773.958 A750.000,750.000 0.000 0,0 1236.469,797.824 Z" style="stroke-width:2.0;stroke:rgb(115,115,115);stroke-linecap:round;fill:none;" />
<path d="M1380.367,840.767 A670.000,670.000 40.000 0,1 1450.519,831.830 L1444.611,752.048 A750.000,750.000 0.000 0,0 1366.082,762.053 Z" style="stroke-width:2.0;stroke:rgb(115,115,115);stroke-linecap:round;fill:rgb(66,146,198);" />
<text x="1371.5" y="685.1" font-size="65.0px" font-family="CMUBright-Roman" style="text-anchor:end;fill:rgb(0,0,0);" transform="rotate(82.7,1371.5,685.1)" >22-ParG</text>
<path d="M1380.367,840.767 A670.000,670.000 40.000 0,1 1450.519,831.830 L1444.611,752.048 A750.000,750.000 0.000 0,0 1366.082,762.053 Z" style="stroke-width:2.0;stroke:rgb(115,115,115);stroke-linecap:round;fill:none;" />
</g>
<g id="track_1">
<path d="M 1846.4,2034.0 L 1830.9,2009.6 1815.7,1984.6 1800.9,1959.2 1786.6,1933.3 1772.7,1906.9 1759.4,1880.1 1746.6,1852.9 1734.5,1825.2 1723.0,1797.3 1712.2,1768.9 1702.2,1740.3 1692.9,1711.4 1684.5,1682.2 1676.8,1652.8 1669.9,1623.1 1663.9,1593.3 1658.8,1563.3 1654.5,1533.1 1651.2,1502.9 1648.7,1472.5 1647.1,1442.1 1646.4,1411.7 1646.5,1381.3 1647.6,1350.8 1649.5,1320.5 1652.3,1290.2 1655.9,1260.0 1660.3,1229.9 1665.6,1200.1 1671.6,1170.4 1678.3,1140.9 1685.8,1111.7 1694.0,1082.7 1702.7,1054.1 1712.1,1025.8 1722.1,997.9 1732.5,970.4 1743.5,943.3 1754.8,916.7  " style="stroke-opacity: 1.000000; stroke-width: 5.0; stroke: rgb(251,106,74); fill: none"  />
<path d="M 1846.4,2034.0 L 1832.2,2012.6 1817.5,1991.5 1802.3,1970.9 1786.6,1950.8 1770.5,1931.5 1754.1,1913.0 1737.3,1895.4 1720.2,1878.9 1702.7,1863.4 1685.1,1849.2 1667.2,1836.2 1649.1,1824.6 1630.9,1814.4 1612.5,1805.6 1594.1,1798.4 1575.5,1792.7 1557.0,1788.6 1538.4,1786.0 1519.8,1785.1 1501.3,1785.8 1482.8,1788.1 1464.5,1792.0 1446.3,1797.5 1428.2,1804.5 1410.3,1813.1 1392.7,1823.2 1375.2,1834.7 1358.1,1847.6 1341.2,1861.9 1324.6,1877.4 1308.4,1894.1 1292.6,1911.9 1277.1,1930.6 1262.1,1950.3 1247.5,1970.8 1233.3,1991.9 1219.7,2013.6 1206.6,2035.7 1194.0,2058.1  " style="stroke-opacity: 1.000000; stroke-width: 5.0; stroke: rgb(251,106,74); fill: none"  />
<path d="M 1846.4,2034.0 L 1832.5,2011.9 1819.0,1989.4 1806.2,1966.6 1794.1,1943.5 1782.8,1920.2 1772.3,1896.8 1762.9,1873.3 1754.5,1849.8 1747.2,1826.3 1741.1,1803.0 1736.3,1779.8 1732.7,1756.9 1730.4,1734.2 1729.5,1711.8 1730.0,1689.7 1731.8,1668.1 1735.1,1646.9 1739.8,1626.1 1746.0,1605.9 1753.6,1586.2 1762.6,1567.0 1773.0,1548.4 1784.7,1530.5 1797.8,1513.1 1812.3,1496.4 1827.9,1480.4 1844.8,1465.1 1862.9,1450.5 1882.0,1436.5 1902.2,1423.3 1923.3,1410.7 1945.2,1398.9 1968.0,1387.8 1991.4,1377.4 2015.4,1367.7 2039.9,1358.6 2064.7,1350.3 2089.7,1342.6 2114.9,1335.5  " style="stroke-opacity: 1.000000; stroke-width: 5.0; stroke: rgb(251,106,74); fill: none"  />
<path d="M 1846.4,2034.0 L 1830.8,2010.4 1814.5,1987.0 1797.5,1963.7 1779.9,1940.8 1761.7,1918.2 1742.7,1896.0 1723.2,1874.2 1703.0,1853.0 1682.2,1832.4 1660.8,1812.4 1638.7,1793.1 1616.1,1774.5 1592.9,1756.7 1569.2,1739.7 1544.9,1723.5 1520.0,1708.2 1494.7,1693.8 1468.9,1680.2 1442.7,1667.6 1416.0,1656.0 1388.9,1645.3 1361.4,1635.5 1333.6,1626.8 1305.5,1619.0 1277.1,1612.2 1248.5,1606.3 1219.7,1601.4 1190.7,1597.4 1161.5,1594.4 1132.3,1592.2 1103.1,1591.0 1073.8,1590.6 1044.6,1591.0 1015.4,1592.2 986.4,1594.2 957.6,1596.8 929.0,1600.2 900.8,1604.1 872.8,1608.7  " style="stroke-opacity: 1.000000; stroke-width: 5.0; stroke: rgb(251,106,74); fill: none"  />
<path d="M 1202.8,937.1 L 1217.9,965.7 1232.9,994.4 1247.9,1023.1 1262.9,1051.9 1277.8,1080.7 1292.7,1109.7 1307.5,1138.6 1322.3,1167.7 1337.0,1196.8 1351.7,1226.0 1366.3,1255.2 1380.8,1284.5 1395.3,1313.9 1409.7,1343.3 1424.1,1372.7 1438.4,1402.2 1452.6,1431.7 1466.7,1461.3 1480.8,1490.9 1494.8,1520.6 1508.7,1550.3 1522.6,1580.0 1536.3,1609.7 1550.0,1639.5 1563.6,1669.3 1577.1,1699.1 1590.6,1729.0 1603.9,1758.8 1617.2,1788.7 1630.4,1818.6 1643.5,1848.5 1656.5,1878.3 1669.5,1908.2 1682.3,1938.1 1695.1,1968.0 1707.8,1997.8 1720.5,2027.6 1733.0,2057.5 1745.5,2087.2  " style="stroke-opacity: 1.000000; stroke-width: 5.0; stroke: rgb(251,106,74); fill: none"  />
<path d="M 1745.5,2087.2 L 1733.0,2057.5 1720.5,2027.6 1707.8,1997.8 1695.1,1968.0 1682.3,1938.1 1669.5,1908.2 1656.5,1878.3 1643.5,1848.5 1630.4,1818.6 1617.2,1788.7 1603.9,1758.8 1590.6,1729.0 1577.1,1699.1 1563.6,1669.3 1550.0,1639.5 1536.3,1609.7 1522.6,1580.0 1508.7,1550.3 1494.8,1520.6 1480.8,1490.9 1466.7,1461.3 1452.6,1431.7 1438.4,1402.2 1424.1,1372.7 1409.7,1343.3 1395.3,1313.9 1380.8,1284.5 1366.3,1255.2 1351.7,1226.0 1337.0,1196.8 1322.3,1167.7 1307.5,1138.6 1292.7,1109.7 1277.8,1080.7 1262.9,1051.9 1247.9,1023.1 1232.9,994.4 1217.9,965.7 1202.8,937.1  " style="stroke-opacity: 1.000000; stroke-width: 5.0; stroke: rgb(251,106,74); fill: none"  />
<path d="M 1745.5,2087.2 L 1735.5,2064.0 1725.0,2041.0 1714.1,2018.3 1702.7,1996.3 1690.9,1974.8 1678.7,1954.2 1666.1,1934.5 1653.1,1915.9 1639.8,1898.3 1626.1,1882.0 1612.1,1867.0 1597.9,1853.4 1583.4,1841.2 1568.6,1830.5 1553.6,1821.4 1538.5,1813.9 1523.1,1808.0 1507.6,1803.8 1492.0,1801.3 1476.2,1800.5 1460.4,1801.3 1444.6,1803.9 1428.7,1808.1 1412.8,1814.0 1396.9,1821.5 1381.1,1830.5 1365.4,1841.1 1349.8,1853.1 1334.3,1866.6 1319.0,1881.4 1303.9,1897.4 1289.0,1914.6 1274.4,1932.9 1260.1,1952.1 1246.1,1972.1 1232.5,1992.9 1219.2,2014.2 1206.3,2036.0 1194.0,2058.1  " style="stroke-opacity: 1.000000; stroke-width: 5.0; stroke: rgb(251,106,74); fill: none"  />
<path d="M 1646.5,880.6 L 1639.7,908.1 1632.3,935.6 1624.1,963.2 1615.3,990.7 1605.7,1018.2 1595.3,1045.5 1584.2,1072.5 1572.4,1099.2 1559.7,1125.7 1546.3,1151.7 1532.0,1177.3 1517.0,1202.4 1501.1,1227.0 1484.5,1251.0 1467.0,1274.4 1448.8,1297.2 1429.8,1319.3 1410.1,1340.7 1389.6,1361.4 1368.4,1381.4 1346.5,1400.6 1323.9,1419.0 1300.7,1436.6 1276.8,1453.4 1252.4,1469.4 1227.4,1484.5 1201.9,1498.9 1175.9,1512.4 1149.5,1525.0 1122.7,1536.9 1095.6,1547.9 1068.2,1558.1 1040.5,1567.6 1012.7,1576.2 984.7,1584.2 956.7,1591.3 928.6,1597.8 900.7,1603.6 872.8,1608.7  " style="stroke-opacity: 1.000000; stroke-width: 5.0; stroke: rgb(251,106,74); fill: none"  />
<path d="M 1636.7,2121.6 L 1631.1,2097.3 1625.1,2073.1 1618.7,2049.2 1611.9,2025.9 1604.6,2003.2 1596.9,1981.2 1588.8,1960.2 1580.2,1940.2 1571.3,1921.3 1562.0,1903.6 1552.2,1887.3 1542.1,1872.4 1531.6,1858.9 1520.8,1847.0 1509.6,1836.7 1498.1,1828.0 1486.2,1821.0 1474.1,1815.7 1461.7,1812.1 1449.0,1810.3 1436.1,1810.2 1422.9,1811.9 1409.6,1815.3 1396.1,1820.4 1382.5,1827.1 1368.7,1835.5 1354.8,1845.5 1340.9,1857.0 1327.0,1869.9 1313.1,1884.2 1299.2,1899.8 1285.4,1916.6 1271.7,1934.5 1258.1,1953.4 1244.8,1973.2 1231.6,1993.7 1218.7,2014.7 1206.2,2036.3 1194.0,2058.1  " style="stroke-opacity: 1.000000; stroke-width: 5.0; stroke: rgb(251,106,74); fill: none"  />
<path d="M 1754.8,916.7 L 1743.5,943.3 1732.5,970.4 1722.1,997.9 1712.1,1025.8 1702.7,1054.1 1694.0,1082.7 1685.8,1111.7 1678.3,1140.9 1671.6,1170.4 1665.6,1200.1 1660.3,1229.9 1655.9,1260.0 1652.3,1290.2 1649.5,1320.5 1647.6,1350.8 1646.5,1381.3 1646.4,1411.7 1647.1,1442.1 1648.7,1472.5 1651.2,1502.9 1654.5,1533.1 1658.8,1563.3 1663.9,1593.3 1669.9,1623.1 1676.8,1652.8 1684.5,1682.2 1692.9,1711.4 1702.2,1740.3 1712.2,1768.9 1723.0,1797.3 1734.5,1825.2 1746.6,1852.9 1759.4,1880.1 1772.7,1906.9 1786.6,1933.3 1800.9,1959.2 1815.7,1984.6 1830.9,2009.6 1846.4,2034.0  " style="stroke-opacity: 1.000000; stroke-width: 5.0; stroke: rgb(251,106,74); fill: none"  />
<path d="M 1194.0,2058.1 L 1206.6,2035.7 1219.7,2013.6 1233.3,1991.9 1247.5,1970.8 1262.1,1950.3 1277.1,1930.6 1292.6,1911.9 1308.4,1894.1 1324.6,1877.4 1341.2,1861.9 1358.1,1847.6 1375.2,1834.7 1392.7,1823.2 1410.3,1813.1 1428.2,1804.5 1446.3,1797.5 1464.5,1792.0 1482.8,1788.1 1501.3,1785.8 1519.8,1785.1 1538.4,1786.0 1557.0,1788.6 1575.5,1792.7 1594.1,1798.4 1612.5,1805.6 1630.9,1814.4 1649.1,1824.6 1667.2,1836.2 1685.1,1849.2 1702.7,1863.4 1720.2,1878.9 1737.3,1895.4 1754.1,1913.0 1770.5,1931.5 1786.6,1950.8 1802.3,1970.9 1817.5,1991.5 1832.2,2012.6 1846.4,2034.0  " style="stroke-opacity: 1.000000; stroke-width: 5.0; stroke: rgb(251,106,74); fill: none"  />
<path d="M 1194.0,2058.1 L 1206.3,2036.0 1219.2,2014.2 1232.5,1992.9 1246.1,1972.1 1260.1,1952.1 1274.4,1932.9 1289.0,1914.6 1303.9,1897.4 1319.0,1881.4 1334.3,1866.6 1349.8,1853.1 1365.4,1841.1 1381.1,1830.5 1396.9,1821.5 1412.8,1814.0 1428.7,1808.1 1444.6,1803.9 1460.4,1801.3 1476.2,1800.5 1492.0,1801.3 1507.6,1803.8 1523.1,1808.0 1538.5,1813.9 1553.6,1821.4 1568.6,1830.5 1583.4,1841.2 1597.9,1853.4 1612.1,1867.0 1626.1,1882.0 1639.8,1898.3 1653.1,1915.9 1666.1,1934.5 1678.7,1954.2 1690.9,1974.8 1702.7,1996.3 1714.1,2018.3 1725.0,2041.0 1735.5,2064.0 1745.5,2087.2  " style="stroke-opacity: 1.000000; stroke-width: 5.0; stroke: rgb(251,106,74); fill: none"  />
<path d="M 1194.0,2058.1 L 1206.2,2036.3 1218.7,2014.7 1231.6,1993.7 1244.8,1973.2 1258.1,1953.4 1271.7,1934.5 1285.4,1916.6 1299.2,1899.8 1313.1,1884.2 1327.0,1869.9 1340.9,1857.0 1354.8,1845.5 1368.7,1835.5 1382.5,1827.1 1396.1,1820.4 1409.6,1815.3 1422.9,1811.9 1436.1,1810.2 1449.0,1810.3 1461.7,1812.1 1474.1,1815.7 1486.2,1821.0 1498.1,1828.0 1509.6,1836.7 1520.8,1847.0 1531.6,1858.9 1542.1,1872.4 1552.2,1887.3 1562.0,1903.6 1571.3,1921.3 1580.2,1940.2 1588.8,1960.2 1596.9,1981.2 1604.6,2003.2 1611.9,2025.9 1618.7,2049.2 1625.1,2073.1 1631.1,2097.3 1636.7,2121.6  " style="stroke-opacity: 1.000000; stroke-width: 5.0; stroke: rgb(251,106,74); fill: none"  />
<path d="M 1194.0,2058.1 L 1205.9,2036.6 1217.9,2015.3 1230.1,1994.5 1242.2,1974.2 1254.3,1954.7 1266.2,1936.0 1278.1,1918.3 1289.6,1901.6 1301.0,1886.2 1312.0,1872.0 1322.7,1859.3 1333.0,1847.9 1342.9,1838.1 1352.3,1829.9 1361.2,1823.4 1369.7,1818.5 1377.6,1815.3 1384.9,1813.9 1391.7,1814.2 1397.9,1816.3 1403.5,1820.1 1408.5,1825.6 1413.0,1832.9 1416.8,1841.9 1420.0,1852.5 1422.6,1864.8 1424.6,1878.5 1426.0,1893.7 1426.9,1910.4 1427.2,1928.3 1427.0,1947.5 1426.3,1967.7 1425.1,1989.0 1423.4,2011.1 1421.3,2034.0 1418.9,2057.5 1416.1,2081.5 1412.9,2105.7 1409.6,2130.0  " style="stroke-opacity: 1.000000; stroke-width: 5.0; stroke: rgb(251,106,74); fill: none"  />
<path d="M 1194.0,2058.1 L 1208.4,2032.3 1223.4,2006.5 1238.9,1980.7 1255.0,1955.0 1271.7,1929.5 1288.9,1904.1 1306.7,1879.0 1325.1,1854.2 1344.0,1829.6 1363.6,1805.4 1383.7,1781.5 1404.3,1758.0 1425.5,1734.9 1447.3,1712.3 1469.6,1690.2 1492.4,1668.6 1515.7,1647.5 1539.5,1626.9 1563.8,1606.9 1588.6,1587.4 1613.8,1568.6 1639.5,1550.4 1665.5,1532.7 1692.0,1515.7 1718.8,1499.3 1745.9,1483.6 1773.4,1468.5 1801.1,1454.0 1829.0,1440.1 1857.2,1426.9 1885.6,1414.4 1914.1,1402.4 1942.8,1391.1 1971.5,1380.4 2000.2,1370.3 2029.0,1360.8 2057.7,1351.8 2086.4,1343.4 2114.9,1335.5  " style="stroke-opacity: 1.000000; stroke-width: 5.0; stroke: rgb(251,106,74); fill: none"  />
<path d="M 1194.0,2058.1 L 1205.8,2036.7 1217.6,2015.4 1229.4,1994.6 1241.1,1974.3 1252.5,1954.6 1263.7,1935.8 1274.6,1917.9 1285.1,1901.0 1295.2,1885.3 1304.8,1870.8 1313.9,1857.6 1322.4,1845.9 1330.3,1835.7 1337.6,1826.9 1344.2,1819.8 1350.2,1814.4 1355.4,1810.5 1359.9,1808.4 1363.7,1808.0 1366.7,1809.3 1368.9,1812.4 1370.4,1817.1 1371.2,1823.5 1371.2,1831.6 1370.5,1841.3 1369.0,1852.6 1366.9,1865.3 1364.1,1879.6 1360.6,1895.2 1356.5,1912.0 1351.8,1930.1 1346.6,1949.3 1340.8,1969.5 1334.6,1990.5 1328.0,2012.2 1321.0,2034.6 1313.7,2057.4 1306.2,2080.5 1298.5,2103.8  " style="stroke-opacity: 1.000000; stroke-width: 5.0; stroke: rgb(251,106,74); fill: none"  />
<path d="M 1854.8,971.6 L 1837.5,997.2 1819.8,1022.8 1801.7,1048.4 1783.3,1073.9 1764.5,1099.4 1745.4,1124.8 1725.9,1150.1 1706.0,1175.3 1685.8,1200.3 1665.3,1225.1 1644.4,1249.8 1623.1,1274.3 1601.5,1298.6 1579.6,1322.6 1557.3,1346.4 1534.7,1370.0 1511.8,1393.3 1488.6,1416.3 1465.0,1439.0 1441.2,1461.4 1417.1,1483.5 1392.7,1505.3 1368.1,1526.7 1343.2,1547.9 1318.1,1568.6 1292.8,1589.1 1267.2,1609.2 1241.5,1628.9 1215.6,1648.3 1189.5,1667.3 1163.3,1685.9 1137.0,1704.2 1110.6,1722.2 1084.1,1739.7 1057.5,1756.9 1030.9,1773.7 1004.3,1790.2 977.6,1806.3 951.0,1822.1  " style="stroke-opacity: 1.000000; stroke-width: 5.0; stroke: rgb(251,106,74); fill: none"  />
<path d="M 1523.5,2136.1 L 1522.3,2110.4 1520.4,2084.8 1518.0,2059.2 1514.8,2034.0 1510.9,2009.2 1506.3,1984.8 1500.9,1961.1 1494.7,1938.1 1487.7,1916.0 1479.8,1894.7 1471.1,1874.4 1461.5,1855.1 1451.1,1837.0 1439.8,1820.1 1427.7,1804.4 1414.7,1790.0 1400.9,1776.9 1386.2,1765.2 1370.8,1754.9 1354.5,1746.0 1337.5,1738.5 1319.8,1732.5 1301.3,1727.8 1282.2,1724.6 1262.4,1722.8 1242.1,1722.4 1221.2,1723.4 1199.9,1725.6 1178.1,1729.2 1155.9,1734.0 1133.4,1740.0 1110.7,1747.2 1087.8,1755.4 1064.8,1764.5 1041.8,1774.6 1018.8,1785.5 995.9,1797.1 973.3,1809.4 951.0,1822.1  " style="stroke-opacity: 1.000000; stroke-width: 5.0; stroke: rgb(251,106,74); fill: none"  />
<path d="M 1308.1,893.1 L 1317.1,922.0 1325.7,951.3 1334.0,980.8 1341.9,1010.7 1349.5,1040.9 1356.7,1071.3 1363.4,1102.0 1369.6,1133.0 1375.4,1164.1 1380.7,1195.4 1385.5,1227.0 1389.8,1258.6 1393.5,1290.4 1396.7,1322.4 1399.3,1354.4 1401.3,1386.5 1402.8,1418.7 1403.7,1450.9 1404.1,1483.1 1403.8,1515.4 1403.0,1547.6 1401.6,1579.8 1399.6,1611.9 1397.0,1644.0 1393.9,1676.0 1390.2,1707.8 1386.0,1739.6 1381.2,1771.2 1375.9,1802.6 1370.1,1833.9 1363.8,1864.9 1357.1,1895.8 1349.9,1926.3 1342.2,1956.7 1334.2,1986.7 1325.8,2016.5 1317.0,2045.9 1307.9,2075.0 1298.5,2103.8  " style="stroke-opacity: 1.000000; stroke-width: 5.0; stroke: rgb(251,106,74); fill: none"  />
<path d="M 1017.4,1915.0 L 1036.5,1898.8 1055.8,1883.1 1075.3,1867.9 1094.8,1853.3 1114.2,1839.5 1133.5,1826.6 1152.7,1814.7 1171.5,1803.8 1190.0,1794.1 1208.1,1785.5 1225.6,1778.3 1242.7,1772.5 1259.2,1768.0 1275.0,1765.0 1290.1,1763.5 1304.6,1763.4 1318.2,1764.9 1331.1,1768.0 1343.2,1772.6 1354.4,1778.8 1364.8,1786.5 1374.3,1795.7 1382.9,1806.4 1390.7,1818.6 1397.5,1832.2 1403.5,1847.2 1408.6,1863.4 1412.8,1881.0 1416.2,1899.7 1418.7,1919.5 1420.5,1940.3 1421.4,1962.0 1421.6,1984.6 1421.1,2007.8 1419.9,2031.6 1418.2,2055.9 1415.8,2080.5 1412.9,2105.3 1409.6,2130.0  " style="stroke-opacity: 1.000000; stroke-width: 5.0; stroke: rgb(251,106,74); fill: none"  />
<path d="M 951.0,1822.1 L 977.6,1806.3 1004.3,1790.2 1030.9,1773.7 1057.5,1756.9 1084.1,1739.7 1110.6,1722.2 1137.0,1704.2 1163.3,1685.9 1189.5,1667.3 1215.6,1648.3 1241.5,1628.9 1267.2,1609.2 1292.8,1589.1 1318.1,1568.6 1343.2,1547.9 1368.1,1526.7 1392.7,1505.3 1417.1,1483.5 1441.2,1461.4 1465.0,1439.0 1488.6,1416.3 1511.8,1393.3 1534.7,1370.0 1557.3,1346.4 1579.6,1322.6 1601.5,1298.6 1623.1,1274.3 1644.4,1249.8 1665.3,1225.1 1685.8,1200.3 1706.0,1175.3 1725.9,1150.1 1745.4,1124.8 1764.5,1099.4 1783.3,1073.9 1801.7,1048.4 1819.8,1022.8 1837.5,997.2 1854.8,971.6  " style="stroke-opacity: 1.000000; stroke-width: 5.0; stroke: rgb(251,106,74); fill: none"  />
<path d="M 951.0,1822.1 L 973.3,1809.4 995.9,1797.1 1018.8,1785.5 1041.8,1774.6 1064.8,1764.5 1087.8,1755.4 1110.7,1747.2 1133.4,1740.0 1155.9,1734.0 1178.1,1729.2 1199.9,1725.6 1221.2,1723.4 1242.1,1722.4 1262.4,1722.8 1282.2,1724.6 1301.3,1727.8 1319.8,1732.5 1337.5,1738.5 1354.5,1746.0 1370.8,1754.9 1386.2,1765.2 1400.9,1776.9 1414.7,1790.0 1427.7,1804.4 1439.8,1820.1 1451.1,1837.0 1461.5,1855.1 1471.1,1874.4 1479.8,1894.7 1487.7,1916.0 1494.7,1938.1 1500.9,1961.1 1506.3,1984.8 1510.9,2009.2 1514.8,2034.0 1518.0,2059.2 1520.4,2084.8 1522.3,2110.4 1523.5,2136.1  " style="stroke-opacity: 1.000000; stroke-width: 5.0; stroke: rgb(251,106,74); fill: none"  />
<path d="M 951.0,1822.1 L 972.7,1809.6 994.5,1797.6 1016.4,1786.1 1038.2,1775.3 1059.8,1765.2 1081.1,1755.9 1102.1,1747.6 1122.5,1740.2 1142.5,1734.0 1161.8,1728.8 1180.4,1724.9 1198.2,1722.1 1215.2,1720.7 1231.3,1720.6 1246.5,1721.7 1260.7,1724.3 1273.9,1728.2 1286.0,1733.5 1297.0,1740.2 1307.0,1748.3 1315.8,1757.7 1323.5,1768.5 1330.1,1780.6 1335.6,1793.9 1339.9,1808.5 1343.1,1824.3 1345.2,1841.3 1346.2,1859.3 1346.2,1878.3 1345.1,1898.2 1343.1,1919.0 1340.2,1940.6 1336.4,1962.8 1331.7,1985.6 1326.3,2008.8 1320.2,2032.4 1313.5,2056.1 1306.2,2080.0 1298.5,2103.8  " style="stroke-opacity: 1.000000; stroke-width: 5.0; stroke: rgb(251,106,74); fill: none"  />
<path d="M 1409.6,2130.0 L 1412.9,2105.7 1416.1,2081.5 1418.9,2057.5 1421.3,2034.0 1423.4,2011.1 1425.1,1989.0 1426.3,1967.7 1427.0,1947.5 1427.2,1928.3 1426.9,1910.4 1426.0,1893.7 1424.6,1878.5 1422.6,1864.8 1420.0,1852.5 1416.8,1841.9 1413.0,1832.9 1408.5,1825.6 1403.5,1820.1 1397.9,1816.3 1391.7,1814.2 1384.9,1813.9 1377.6,1815.3 1369.7,1818.5 1361.2,1823.4 1352.3,1829.9 1342.9,1838.1 1333.0,1847.9 1322.7,1859.3 1312.0,1872.0 1301.0,1886.2 1289.6,1901.6 1278.1,1918.3 1266.2,1936.0 1254.3,1954.7 1242.2,1974.2 1230.1,1994.5 1217.9,2015.3 1205.9,2036.6 1194.0,2058.1  " style="stroke-opacity: 1.000000; stroke-width: 5.0; stroke: rgb(251,106,74); fill: none"  />
<path d="M 1409.6,2130.0 L 1412.9,2105.3 1415.8,2080.5 1418.2,2055.9 1419.9,2031.6 1421.1,2007.8 1421.6,1984.6 1421.4,1962.0 1420.5,1940.3 1418.7,1919.5 1416.2,1899.7 1412.8,1881.0 1408.6,1863.4 1403.5,1847.2 1397.5,1832.2 1390.7,1818.6 1382.9,1806.4 1374.3,1795.7 1364.8,1786.5 1354.4,1778.8 1343.2,1772.6 1331.1,1768.0 1318.2,1764.9 1304.6,1763.4 1290.1,1763.5 1275.0,1765.0 1259.2,1768.0 1242.7,1772.5 1225.6,1778.3 1208.1,1785.5 1190.0,1794.1 1171.5,1803.8 1152.7,1814.7 1133.5,1826.6 1114.2,1839.5 1094.8,1853.3 1075.3,1867.9 1055.8,1883.1 1036.5,1898.8 1017.4,1915.0  " style="stroke-opacity: 1.000000; stroke-width: 5.0; stroke: rgb(251,106,74); fill: none"  />
<path d="M 1409.6,2130.0 L 1413.9,2102.1 1418.8,2074.0 1424.5,2045.8 1430.8,2017.5 1437.9,1989.4 1445.8,1961.3 1454.4,1933.3 1463.8,1905.6 1474.1,1878.2 1485.2,1851.1 1497.1,1824.3 1509.8,1797.9 1523.4,1772.0 1537.8,1746.6 1553.1,1721.7 1569.2,1697.4 1586.1,1673.7 1603.8,1650.6 1622.4,1628.1 1641.7,1606.3 1661.8,1585.3 1682.6,1564.9 1704.2,1545.3 1726.4,1526.4 1749.3,1508.3 1772.9,1491.0 1797.0,1474.4 1821.6,1458.6 1846.8,1443.7 1872.4,1429.4 1898.5,1416.0 1924.9,1403.4 1951.6,1391.5 1978.5,1380.4 2005.7,1370.0 2033.0,1360.3 2060.3,1351.4 2087.6,1343.1 2114.9,1335.5  " style="stroke-opacity: 1.000000; stroke-width: 5.0; stroke: rgb(251,106,74); fill: none"  />
<path d="M 2114.9,1335.5 L 2089.7,1342.6 2064.7,1350.3 2039.9,1358.6 2015.4,1367.7 1991.4,1377.4 1968.0,1387.8 1945.2,1398.9 1923.3,1410.7 1902.2,1423.3 1882.0,1436.5 1862.9,1450.5 1844.8,1465.1 1827.9,1480.4 1812.3,1496.4 1797.8,1513.1 1784.7,1530.5 1773.0,1548.4 1762.6,1567.0 1753.6,1586.2 1746.0,1605.9 1739.8,1626.1 1735.1,1646.9 1731.8,1668.1 1730.0,1689.7 1729.5,1711.8 1730.4,1734.2 1732.7,1756.9 1736.3,1779.8 1741.1,1803.0 1747.2,1826.3 1754.5,1849.8 1762.9,1873.3 1772.3,1896.8 1782.8,1920.2 1794.1,1943.5 1806.2,1966.6 1819.0,1989.4 1832.5,2011.9 1846.4,2034.0  " style="stroke-opacity: 1.000000; stroke-width: 5.0; stroke: rgb(251,106,74); fill: none"  />
<path d="M 2114.9,1335.5 L 2086.4,1343.4 2057.7,1351.8 2029.0,1360.8 2000.2,1370.3 1971.5,1380.4 1942.8,1391.1 1914.1,1402.4 1885.6,1414.4 1857.2,1426.9 1829.0,1440.1 1801.1,1454.0 1773.4,1468.5 1745.9,1483.6 1718.8,1499.3 1692.0,1515.7 1665.5,1532.7 1639.5,1550.4 1613.8,1568.6 1588.6,1587.4 1563.8,1606.9 1539.5,1626.9 1515.7,1647.5 1492.4,1668.6 1469.6,1690.2 1447.3,1712.3 1425.5,1734.9 1404.3,1758.0 1383.7,1781.5 1363.6,1805.4 1344.0,1829.6 1325.1,1854.2 1306.7,1879.0 1288.9,1904.1 1271.7,1929.5 1255.0,1955.0 1238.9,1980.7 1223.4,2006.5 1208.4,2032.3 1194.0,2058.1  " style="stroke-opacity: 1.000000; stroke-width: 5.0; stroke: rgb(251,106,74); fill: none"  />
<path d="M 2114.9,1335.5 L 2087.6,1343.1 2060.3,1351.4 2033.0,1360.3 2005.7,1370.0 1978.5,1380.4 1951.6,1391.5 1924.9,1403.4 1898.5,1416.0 1872.4,1429.4 1846.8,1443.7 1821.6,1458.6 1797.0,1474.4 1772.9,1491.0 1749.3,1508.3 1726.4,1526.4 1704.2,1545.3 1682.6,1564.9 1661.8,1585.3 1641.7,1606.3 1622.4,1628.1 1603.8,1650.6 1586.1,1673.7 1569.2,1697.4 1553.1,1721.7 1537.8,1746.6 1523.4,1772.0 1509.8,1797.9 1497.1,1824.3 1485.2,1851.1 1474.1,1878.2 1463.8,1905.6 1454.4,1933.3 1445.8,1961.3 1437.9,1989.4 1430.8,2017.5 1424.5,2045.8 1418.8,2074.0 1413.9,2102.1 1409.6,2130.0  " style="stroke-opacity: 1.000000; stroke-width: 5.0; stroke: rgb(251,106,74); fill: none"  />
<path d="M 1298.5,2103.8 L 1306.2,2080.5 1313.7,2057.4 1321.0,2034.6 1328.0,2012.2 1334.6,1990.5 1340.8,1969.5 1346.6,1949.3 1351.8,1930.1 1356.5,1912.0 1360.6,1895.2 1364.1,1879.6 1366.9,1865.3 1369.0,1852.6 1370.5,1841.3 1371.2,1831.6 1371.2,1823.5 1370.4,1817.1 1368.9,1812.4 1366.7,1809.3 1363.7,1808.0 1359.9,1808.4 1355.4,1810.5 1350.2,1814.4 1344.2,1819.8 1337.6,1826.9 1330.3,1835.7 1322.4,1845.9 1313.9,1857.6 1304.8,1870.8 1295.2,1885.3 1285.1,1901.0 1274.6,1917.9 1263.7,1935.8 1252.5,1954.6 1241.1,1974.3 1229.4,1994.6 1217.6,2015.4 1205.8,2036.7 1194.0,2058.1  " style="stroke-opacity: 1.000000; stroke-width: 5.0; stroke: rgb(251,106,74); fill: none"  />
<path d="M 1298.5,2103.8 L 1307.9,2075.0 1317.0,2045.9 1325.8,2016.5 1334.2,1986.7 1342.2,1956.7 1349.9,1926.3 1357.1,1895.8 1363.8,1864.9 1370.1,1833.9 1375.9,1802.6 1381.2,1771.2 1386.0,1739.6 1390.2,1707.8 1393.9,1676.0 1397.0,1644.0 1399.6,1611.9 1401.6,1579.8 1403.0,1547.6 1403.8,1515.4 1404.1,1483.1 1403.7,1450.9 1402.8,1418.7 1401.3,1386.5 1399.3,1354.4 1396.7,1322.4 1393.5,1290.4 1389.8,1258.6 1385.5,1227.0 1380.7,1195.4 1375.4,1164.1 1369.6,1133.0 1363.4,1102.0 1356.7,1071.3 1349.5,1040.9 1341.9,1010.7 1334.0,980.8 1325.7,951.3 1317.1,922.0 1308.1,893.1  " style="stroke-opacity: 1.000000; stroke-width: 5.0; stroke: rgb(251,106,74); fill: none"  />
<path d="M 1298.5,2103.8 L 1306.2,2080.0 1313.5,2056.1 1320.2,2032.4 1326.3,2008.8 1331.7,1985.6 1336.4,1962.8 1340.2,1940.6 1343.1,1919.0 1345.1,1898.2 1346.2,1878.3 1346.2,1859.3 1345.2,1841.3 1343.1,1824.3 1339.9,1808.5 1335.6,1793.9 1330.1,1780.6 1323.5,1768.5 1315.8,1757.7 1307.0,1748.3 1297.0,1740.2 1286.0,1733.5 1273.9,1728.2 1260.7,1724.3 1246.5,1721.7 1231.3,1720.6 1215.2,1720.7 1198.2,1722.1 1180.4,1724.9 1161.8,1728.8 1142.5,1734.0 1122.5,1740.2 1102.1,1747.6 1081.1,1755.9 1059.8,1765.2 1038.2,1775.3 1016.4,1786.1 994.5,1797.6 972.7,1809.6 951.0,1822.1  " style="stroke-opacity: 1.000000; stroke-width: 5.0; stroke: rgb(251,106,74); fill: none"  />
<path d="M 872.8,1608.7 L 900.8,1604.1 929.0,1600.2 957.6,1596.8 986.4,1594.2 1015.4,1592.2 1044.6,1591.0 1073.8,1590.6 1103.1,1591.0 1132.3,1592.2 1161.5,1594.4 1190.7,1597.4 1219.7,1601.4 1248.5,1606.3 1277.1,1612.2 1305.5,1619.0 1333.6,1626.8 1361.4,1635.5 1388.9,1645.3 1416.0,1656.0 1442.7,1667.6 1468.9,1680.2 1494.7,1693.8 1520.0,1708.2 1544.9,1723.5 1569.2,1739.7 1592.9,1756.7 1616.1,1774.5 1638.7,1793.1 1660.8,1812.4 1682.2,1832.4 1703.0,1853.0 1723.2,1874.2 1742.7,1896.0 1761.7,1918.2 1779.9,1940.8 1797.5,1963.7 1814.5,1987.0 1830.8,2010.4 1846.4,2034.0  " style="stroke-opacity: 1.000000; stroke-width: 5.0; stroke: rgb(251,106,74); fill: none"  />
<path d="M 872.8,1608.7 L 900.7,1603.6 928.6,1597.8 956.7,1591.3 984.7,1584.2 1012.7,1576.2 1040.5,1567.6 1068.2,1558.1 1095.6,1547.9 1122.7,1536.9 1149.5,1525.0 1175.9,1512.4 1201.9,1498.9 1227.4,1484.5 1252.4,1469.4 1276.8,1453.4 1300.7,1436.6 1323.9,1419.0 1346.5,1400.6 1368.4,1381.4 1389.6,1361.4 1410.1,1340.7 1429.8,1319.3 1448.8,1297.2 1467.0,1274.4 1484.5,1251.0 1501.1,1227.0 1517.0,1202.4 1532.0,1177.3 1546.3,1151.7 1559.7,1125.7 1572.4,1099.2 1584.2,1072.5 1595.3,1045.5 1605.7,1018.2 1615.3,990.7 1624.1,963.2 1632.3,935.6 1639.7,908.1 1646.5,880.6  " style="stroke-opacity: 1.000000; stroke-width: 5.0; stroke: rgb(251,106,74); fill: none"  />
</g>
<g id="track_0">
<path d="M 1846.4,2034.0 L 1832.9,2013.4 1819.4,1993.1 1805.7,1973.2 1792.1,1953.9 1778.6,1935.3 1765.3,1917.6 1752.2,1900.7 1739.4,1885.0 1727.0,1870.4 1715.0,1857.1 1703.4,1845.2 1692.3,1834.7 1681.7,1825.6 1671.7,1818.1 1662.3,1812.2 1653.5,1808.0 1645.4,1805.4 1637.9,1804.5 1631.2,1805.3 1625.2,1807.9 1619.8,1812.1 1615.3,1818.0 1611.4,1825.6 1608.3,1834.8 1605.8,1845.7 1604.1,1858.0 1603.1,1871.9 1602.8,1887.2 1603.2,1903.9 1604.2,1921.8 1605.8,1940.9 1608.1,1961.0 1610.8,1982.1 1614.1,2004.1 1617.9,2026.8 1622.1,2050.0 1626.6,2073.7 1631.5,2097.6 1636.7,2121.6  " style="stroke-opacity: 1.000000; stroke-width: 5.0; stroke: rgb(107,174,214); fill: none"  />
<path d="M 1846.4,2034.0 L 1832.6,2013.1 1818.5,1992.6 1804.1,1972.5 1789.5,1953.0 1774.7,1934.3 1759.8,1916.5 1744.8,1899.7 1729.8,1883.9 1714.8,1869.4 1699.8,1856.1 1685.0,1844.3 1670.3,1833.8 1655.7,1824.9 1641.4,1817.6 1627.3,1811.8 1613.4,1807.8 1599.9,1805.4 1586.7,1804.7 1573.8,1805.7 1561.3,1808.5 1549.2,1812.9 1537.4,1819.1 1526.2,1827.0 1515.3,1836.5 1504.9,1847.6 1495.0,1860.3 1485.5,1874.5 1476.5,1890.1 1468.0,1907.1 1460.0,1925.4 1452.5,1944.9 1445.5,1965.5 1438.9,1987.1 1432.9,2009.5 1427.3,2032.7 1422.2,2056.5 1417.5,2080.7 1413.3,2105.3 1409.6,2130.0  " style="stroke-opacity: 1.000000; stroke-width: 5.0; stroke: rgb(107,174,214); fill: none"  />
<path d="M 1846.4,2034.0 L 1832.4,2012.9 1818.0,1992.1 1803.2,1971.8 1788.1,1952.1 1772.6,1933.1 1756.9,1915.0 1741.0,1897.9 1724.9,1881.9 1708.6,1867.0 1692.3,1853.4 1675.9,1841.1 1659.4,1830.2 1643.0,1820.8 1626.5,1813.0 1610.2,1806.7 1593.9,1802.0 1577.7,1799.0 1561.7,1797.6 1545.9,1797.9 1530.3,1799.9 1514.9,1803.6 1499.7,1808.9 1484.8,1815.9 1470.2,1824.5 1456.0,1834.7 1442.0,1846.4 1428.5,1859.6 1415.3,1874.3 1402.4,1890.3 1390.0,1907.6 1378.0,1926.1 1366.5,1945.6 1355.4,1966.2 1344.7,1987.7 1334.5,2009.9 1324.8,2032.7 1315.5,2056.1 1306.8,2079.8 1298.5,2103.8  " style="stroke-opacity: 1.000000; stroke-width: 5.0; stroke: rgb(107,174,214); fill: none"  />
<path d="M 1107.1,999.2 L 1122.5,1018.6 1138.1,1037.7 1153.9,1056.3 1169.6,1074.3 1185.4,1091.5 1201.0,1107.9 1216.5,1123.3 1231.7,1137.6 1246.7,1150.8 1261.3,1162.6 1275.5,1173.2 1289.3,1182.3 1302.6,1189.9 1315.4,1196.0 1327.6,1200.5 1339.2,1203.4 1350.2,1204.7 1360.6,1204.3 1370.2,1202.2 1379.2,1198.5 1387.5,1193.0 1395.0,1186.0 1401.8,1177.3 1407.9,1166.9 1413.3,1155.1 1417.9,1141.7 1421.8,1126.9 1425.0,1110.7 1427.5,1093.1 1429.3,1074.4 1430.5,1054.5 1431.0,1033.6 1430.9,1011.8 1430.2,989.1 1429.0,965.8 1427.3,942.0 1425.1,917.7 1422.5,893.2 1419.6,868.6  " style="stroke-opacity: 1.000000; stroke-width: 5.0; stroke: rgb(107,174,214); fill: none"  />
<path d="M 1533.6,864.4 L 1532.4,888.9 1531.5,913.4 1530.8,937.5 1530.5,961.1 1530.5,984.0 1530.8,1006.2 1531.5,1027.5 1532.6,1047.8 1534.1,1066.9 1536.0,1084.7 1538.4,1101.2 1541.2,1116.2 1544.4,1129.8 1548.1,1141.7 1552.2,1152.0 1556.8,1160.6 1561.9,1167.5 1567.4,1172.6 1573.3,1175.9 1579.7,1177.4 1586.5,1177.1 1593.7,1175.0 1601.3,1171.1 1609.2,1165.5 1617.5,1158.1 1626.2,1149.1 1635.2,1138.5 1644.4,1126.3 1653.9,1112.6 1663.6,1097.5 1673.5,1081.1 1683.6,1063.5 1693.7,1044.8 1704.0,1025.1 1714.3,1004.6 1724.5,983.3 1734.7,961.5 1744.8,939.2 1754.8,916.7  " style="stroke-opacity: 1.000000; stroke-width: 5.0; stroke: rgb(107,174,214); fill: none"  />
<path d="M 1533.6,864.4 L 1532.5,889.1 1531.7,913.8 1531.3,938.1 1531.3,962.0 1531.8,985.4 1532.8,1008.0 1534.4,1029.8 1536.4,1050.6 1539.0,1070.3 1542.2,1088.9 1546.0,1106.2 1550.4,1122.1 1555.4,1136.6 1561.0,1149.6 1567.2,1161.1 1574.0,1170.9 1581.5,1179.1 1589.6,1185.6 1598.2,1190.4 1607.4,1193.4 1617.2,1194.8 1627.6,1194.4 1638.4,1192.4 1649.8,1188.6 1661.6,1183.2 1673.9,1176.2 1686.6,1167.6 1699.7,1157.5 1713.1,1145.9 1726.8,1133.0 1740.8,1118.8 1754.9,1103.4 1769.2,1086.9 1783.6,1069.4 1798.0,1051.0 1812.4,1031.9 1826.7,1012.2 1840.9,992.1 1854.8,971.6  " style="stroke-opacity: 1.000000; stroke-width: 5.0; stroke: rgb(107,174,214); fill: none"  />
<path d="M 1533.6,864.4 L 1532.5,889.4 1531.8,914.3 1531.7,939.0 1532.1,963.3 1533.0,987.2 1534.6,1010.3 1536.9,1032.8 1539.8,1054.3 1543.4,1074.9 1547.7,1094.4 1552.7,1112.7 1558.5,1129.8 1565.0,1145.6 1572.3,1160.0 1580.3,1172.9 1589.1,1184.3 1598.7,1194.2 1609.0,1202.6 1620.0,1209.3 1631.7,1214.4 1644.2,1217.9 1657.3,1219.8 1671.0,1220.1 1685.4,1218.8 1700.3,1215.9 1715.8,1211.5 1731.8,1205.6 1748.3,1198.2 1765.2,1189.4 1782.4,1179.3 1799.9,1168.0 1817.7,1155.5 1835.7,1141.9 1853.8,1127.3 1871.9,1111.8 1890.1,1095.5 1908.1,1078.6 1925.9,1061.2 1943.5,1043.4  " style="stroke-opacity: 1.000000; stroke-width: 5.0; stroke: rgb(107,174,214); fill: none"  />
<path d="M 1533.6,864.4 L 1532.5,890.5 1532.1,916.7 1532.4,942.9 1533.4,968.9 1535.2,994.7 1537.9,1020.2 1541.4,1045.3 1545.9,1069.9 1551.3,1093.8 1557.7,1117.1 1565.0,1139.6 1573.4,1161.3 1582.7,1182.1 1593.1,1201.9 1604.5,1220.8 1617.0,1238.6 1630.4,1255.4 1644.9,1271.0 1660.3,1285.5 1676.7,1298.8 1694.1,1310.9 1712.3,1321.8 1731.5,1331.5 1751.5,1339.9 1772.3,1347.2 1793.9,1353.2 1816.2,1358.1 1839.1,1361.8 1862.7,1364.3 1886.8,1365.7 1911.3,1366.0 1936.3,1365.3 1961.5,1363.6 1987.0,1360.9 2012.7,1357.4 2038.4,1353.0 2064.0,1347.8 2089.6,1342.0 2114.9,1335.5  " style="stroke-opacity: 1.000000; stroke-width: 5.0; stroke: rgb(107,174,214); fill: none"  />
<path d="M 1745.5,2087.2 L 1735.9,2064.6 1726.2,2042.2 1716.3,2020.2 1706.4,1998.8 1696.4,1978.1 1686.5,1958.2 1676.6,1939.3 1666.8,1921.6 1657.2,1905.0 1647.7,1889.8 1638.5,1876.0 1629.4,1863.6 1620.6,1852.8 1612.1,1843.7 1603.9,1836.2 1596.0,1830.4 1588.5,1826.5 1581.4,1824.3 1574.6,1823.9 1568.2,1825.3 1562.2,1828.5 1556.6,1833.5 1551.5,1840.3 1546.7,1848.8 1542.4,1859.0 1538.5,1870.9 1535.1,1884.4 1532.1,1899.4 1529.4,1915.8 1527.2,1933.6 1525.4,1952.7 1524.0,1972.9 1523.0,1994.2 1522.3,2016.4 1521.9,2039.3 1521.9,2063.0 1522.2,2087.1 1522.7,2111.5 1523.5,2136.1  " style="stroke-opacity: 1.000000; stroke-width: 5.0; stroke: rgb(107,174,214); fill: none"  />
<path d="M 1745.5,2087.2 L 1735.7,2064.2 1725.4,2041.5 1714.9,2019.2 1704.0,1997.4 1692.7,1976.4 1681.3,1956.2 1669.5,1936.9 1657.5,1918.8 1645.4,1901.8 1633.0,1886.1 1620.5,1871.8 1607.9,1858.9 1595.2,1847.5 1582.4,1837.7 1569.6,1829.6 1556.7,1823.1 1543.8,1818.3 1530.9,1815.3 1518.0,1814.0 1505.2,1814.4 1492.5,1816.7 1479.9,1820.7 1467.3,1826.4 1455.0,1833.8 1442.8,1842.9 1430.7,1853.6 1418.9,1865.9 1407.2,1879.7 1395.8,1894.9 1384.7,1911.4 1373.8,1929.3 1363.2,1948.3 1352.9,1968.3 1343.0,1989.3 1333.3,2011.1 1324.1,2033.6 1315.2,2056.7 1306.6,2080.1 1298.5,2103.8  " style="stroke-opacity: 1.000000; stroke-width: 5.0; stroke: rgb(107,174,214); fill: none"  />
<path d="M 1646.5,880.6 L 1641.0,904.4 1635.5,928.1 1630.3,951.5 1625.4,974.4 1620.7,996.7 1616.4,1018.2 1612.5,1038.8 1609.0,1058.3 1606.0,1076.8 1603.4,1093.9 1601.4,1109.8 1599.8,1124.2 1598.8,1137.1 1598.4,1148.5 1598.5,1158.2 1599.3,1166.2 1600.6,1172.5 1602.5,1177.1 1605.1,1179.9 1608.2,1181.0 1611.9,1180.3 1616.2,1177.7 1621.1,1173.5 1626.5,1167.5 1632.4,1159.8 1638.9,1150.5 1645.9,1139.6 1653.3,1127.1 1661.2,1113.2 1669.4,1097.9 1678.1,1081.4 1687.0,1063.6 1696.2,1044.8 1705.7,1025.0 1715.4,1004.4 1725.2,983.2 1735.0,961.3 1744.9,939.1 1754.8,916.7  " style="stroke-opacity: 1.000000; stroke-width: 5.0; stroke: rgb(107,174,214); fill: none"  />
<path d="M 1636.7,2121.6 L 1631.5,2097.6 1626.6,2073.7 1622.1,2050.0 1617.9,2026.8 1614.1,2004.1 1610.8,1982.1 1608.1,1961.0 1605.8,1940.9 1604.2,1921.8 1603.2,1903.9 1602.8,1887.2 1603.1,1871.9 1604.1,1858.0 1605.8,1845.7 1608.3,1834.8 1611.4,1825.6 1615.3,1818.0 1619.8,1812.1 1625.2,1807.9 1631.2,1805.3 1637.9,1804.5 1645.4,1805.4 1653.5,1808.0 1662.3,1812.2 1671.7,1818.1 1681.7,1825.6 1692.3,1834.7 1703.4,1845.2 1715.0,1857.1 1727.0,1870.4 1739.4,1885.0 1752.2,1900.7 1765.3,1917.6 1778.6,1935.3 1792.1,1953.9 1805.7,1973.2 1819.4,1993.1 1832.9,2013.4 1846.4,2034.0  " style="stroke-opacity: 1.000000; stroke-width: 5.0; stroke: rgb(107,174,214); fill: none"  />
<path d="M 1636.7,2121.6 L 1631.4,2097.7 1626.0,2074.0 1620.6,2050.7 1615.1,2027.9 1609.6,2005.9 1604.1,1984.6 1598.7,1964.4 1593.4,1945.2 1588.1,1927.3 1583.0,1910.7 1578.0,1895.5 1573.1,1881.9 1568.4,1869.8 1563.9,1859.4 1559.5,1850.7 1555.4,1843.8 1551.4,1838.7 1547.7,1835.4 1544.2,1833.9 1540.9,1834.4 1537.9,1836.6 1535.1,1840.8 1532.6,1846.7 1530.3,1854.5 1528.3,1864.0 1526.5,1875.2 1525.0,1888.0 1523.7,1902.5 1522.6,1918.4 1521.8,1935.8 1521.2,1954.4 1520.9,1974.3 1520.7,1995.3 1520.7,2017.2 1521.0,2039.9 1521.4,2063.4 1522.0,2087.3 1522.7,2111.6 1523.5,2136.1  " style="stroke-opacity: 1.000000; stroke-width: 5.0; stroke: rgb(107,174,214); fill: none"  />
<path d="M 1636.7,2121.6 L 1631.3,2097.7 1625.7,2073.9 1619.9,2050.5 1614.0,2027.6 1607.9,2005.5 1601.7,1984.2 1595.3,1963.8 1588.9,1944.6 1582.4,1926.6 1575.8,1909.9 1569.1,1894.6 1562.4,1880.9 1555.7,1868.7 1549.0,1858.2 1542.2,1849.4 1535.5,1842.3 1528.8,1837.0 1522.2,1833.6 1515.5,1832.0 1509.0,1832.2 1502.5,1834.3 1496.2,1838.2 1489.9,1844.0 1483.7,1851.5 1477.6,1860.8 1471.7,1871.8 1465.9,1884.4 1460.2,1898.7 1454.7,1914.4 1449.4,1931.5 1444.2,1949.9 1439.2,1969.6 1434.4,1990.3 1429.7,2012.0 1425.3,2034.6 1421.0,2057.8 1417.0,2081.6 1413.2,2105.7 1409.6,2130.0  " style="stroke-opacity: 1.000000; stroke-width: 5.0; stroke: rgb(107,174,214); fill: none"  />
<path d="M 1754.8,916.7 L 1744.8,939.2 1734.7,961.5 1724.5,983.3 1714.3,1004.6 1704.0,1025.1 1693.7,1044.8 1683.6,1063.5 1673.5,1081.1 1663.6,1097.5 1653.9,1112.6 1644.4,1126.3 1635.2,1138.5 1626.2,1149.1 1617.5,1158.1 1609.2,1165.5 1601.3,1171.1 1593.7,1175.0 1586.5,1177.1 1579.7,1177.4 1573.3,1175.9 1567.4,1172.6 1561.9,1167.5 1556.8,1160.6 1552.2,1152.0 1548.1,1141.7 1544.4,1129.8 1541.2,1116.2 1538.4,1101.2 1536.0,1084.7 1534.1,1066.9 1532.6,1047.8 1531.5,1027.5 1530.8,1006.2 1530.5,984.0 1530.5,961.1 1530.8,937.5 1531.5,913.4 1532.4,888.9 1533.6,864.4  " style="stroke-opacity: 1.000000; stroke-width: 5.0; stroke: rgb(107,174,214); fill: none"  />
<path d="M 1754.8,916.7 L 1744.9,939.1 1735.0,961.3 1725.2,983.2 1715.4,1004.4 1705.7,1025.0 1696.2,1044.8 1687.0,1063.6 1678.1,1081.4 1669.4,1097.9 1661.2,1113.2 1653.3,1127.1 1645.9,1139.6 1638.9,1150.5 1632.4,1159.8 1626.5,1167.5 1621.1,1173.5 1616.2,1177.7 1611.9,1180.3 1608.2,1181.0 1605.1,1179.9 1602.5,1177.1 1600.6,1172.5 1599.3,1166.2 1598.5,1158.2 1598.4,1148.5 1598.8,1137.1 1599.8,1124.2 1601.4,1109.8 1603.4,1093.9 1606.0,1076.8 1609.0,1058.3 1612.5,1038.8 1616.4,1018.2 1620.7,996.7 1625.4,974.4 1630.3,951.5 1635.5,928.1 1641.0,904.4 1646.5,880.6  " style="stroke-opacity: 1.000000; stroke-width: 5.0; stroke: rgb(107,174,214); fill: none"  />
<path d="M 1754.8,916.7 L 1745.0,939.3 1735.6,961.8 1726.5,984.2 1717.9,1006.1 1709.8,1027.6 1702.3,1048.5 1695.5,1068.7 1689.4,1088.1 1684.1,1106.5 1679.6,1123.9 1676.1,1140.1 1673.4,1155.2 1671.7,1169.0 1670.9,1181.5 1671.2,1192.6 1672.5,1202.2 1674.8,1210.4 1678.1,1217.1 1682.5,1222.3 1688.0,1225.9 1694.4,1228.1 1701.9,1228.6 1710.4,1227.7 1719.8,1225.2 1730.2,1221.2 1741.4,1215.8 1753.6,1209.0 1766.5,1200.9 1780.2,1191.4 1794.6,1180.7 1809.6,1168.8 1825.2,1155.8 1841.3,1141.9 1857.8,1127.1 1874.7,1111.4 1891.8,1095.1 1909.0,1078.3 1926.3,1061.0 1943.5,1043.4  " style="stroke-opacity: 1.000000; stroke-width: 5.0; stroke: rgb(107,174,214); fill: none"  />
<path d="M 1754.8,916.7 L 1745.0,939.5 1735.6,962.3 1726.7,984.9 1718.4,1007.3 1710.6,1029.4 1703.6,1050.9 1697.4,1071.8 1692.0,1092.1 1687.5,1111.5 1684.0,1130.0 1681.4,1147.5 1680.0,1163.9 1679.5,1179.2 1680.2,1193.4 1682.0,1206.3 1685.0,1217.9 1689.1,1228.2 1694.3,1237.1 1700.7,1244.6 1708.3,1250.7 1717.0,1255.4 1726.8,1258.7 1737.7,1260.6 1749.7,1261.1 1762.7,1260.2 1776.6,1257.9 1791.5,1254.4 1807.3,1249.5 1823.9,1243.4 1841.3,1236.1 1859.4,1227.7 1878.0,1218.2 1897.2,1207.8 1916.8,1196.5 1936.8,1184.4 1957.0,1171.5 1977.3,1158.1 1997.6,1144.2 2017.9,1130.0  " style="stroke-opacity: 1.000000; stroke-width: 5.0; stroke: rgb(107,174,214); fill: none"  />
<path d="M 1194.0,2058.1 L 1205.7,2036.6 1217.2,2015.2 1228.4,1994.1 1239.3,1973.3 1249.7,1953.1 1259.6,1933.5 1268.8,1914.7 1277.4,1896.7 1285.2,1879.8 1292.3,1863.9 1298.5,1849.2 1303.8,1835.7 1308.2,1823.5 1311.6,1812.7 1314.1,1803.3 1315.5,1795.3 1315.9,1788.9 1315.3,1784.0 1313.6,1780.6 1310.8,1778.7 1307.1,1778.5 1302.3,1779.7 1296.4,1782.5 1289.6,1786.9 1281.8,1792.7 1273.1,1800.0 1263.5,1808.6 1253.0,1818.7 1241.7,1830.0 1229.7,1842.5 1217.0,1856.2 1203.6,1870.9 1189.7,1886.6 1175.3,1903.1 1160.5,1920.4 1145.4,1938.3 1130.1,1956.7 1114.7,1975.5 1099.2,1994.5  " style="stroke-opacity: 1.000000; stroke-width: 5.0; stroke: rgb(107,174,214); fill: none"  />
<path d="M 1194.0,2058.1 L 1205.7,2036.5 1217.1,2014.9 1228.2,1993.5 1238.7,1972.3 1248.7,1951.6 1258.0,1931.5 1266.6,1912.0 1274.4,1893.3 1281.4,1875.4 1287.4,1858.5 1292.4,1842.7 1296.4,1827.9 1299.4,1814.3 1301.2,1801.9 1301.9,1790.9 1301.5,1781.1 1300.0,1772.8 1297.2,1765.8 1293.3,1760.2 1288.2,1756.1 1282.0,1753.4 1274.6,1752.2 1266.1,1752.4 1256.4,1754.0 1245.8,1757.0 1234.1,1761.4 1221.4,1767.1 1207.8,1774.1 1193.3,1782.3 1178.0,1791.6 1161.9,1802.1 1145.2,1813.6 1128.0,1826.1 1110.2,1839.4 1092.0,1853.4 1073.5,1868.1 1054.8,1883.4 1036.1,1899.0 1017.4,1915.0  " style="stroke-opacity: 1.000000; stroke-width: 5.0; stroke: rgb(107,174,214); fill: none"  />
<path d="M 1194.0,2058.1 L 1205.7,2036.3 1217.1,2014.4 1228.0,1992.7 1238.4,1971.1 1248.0,1949.8 1256.9,1929.0 1265.0,1908.7 1272.2,1889.1 1278.4,1870.2 1283.6,1852.1 1287.7,1834.8 1290.6,1818.6 1292.4,1803.4 1293.0,1789.2 1292.4,1776.2 1290.5,1764.4 1287.3,1753.8 1282.9,1744.4 1277.2,1736.4 1270.2,1729.6 1262.0,1724.1 1252.5,1720.0 1241.8,1717.1 1229.9,1715.6 1216.9,1715.3 1202.8,1716.3 1187.6,1718.5 1171.5,1722.0 1154.4,1726.5 1136.4,1732.2 1117.7,1739.0 1098.3,1746.7 1078.2,1755.4 1057.7,1764.9 1036.7,1775.2 1015.4,1786.2 994.0,1797.7 972.5,1809.7 951.0,1822.1  " style="stroke-opacity: 1.000000; stroke-width: 5.0; stroke: rgb(107,174,214); fill: none"  />
<path d="M 1854.8,971.6 L 1840.9,992.1 1826.7,1012.2 1812.4,1031.9 1798.0,1051.0 1783.6,1069.4 1769.2,1086.9 1754.9,1103.4 1740.8,1118.8 1726.8,1133.0 1713.1,1145.9 1699.7,1157.5 1686.6,1167.6 1673.9,1176.2 1661.6,1183.2 1649.8,1188.6 1638.4,1192.4 1627.6,1194.4 1617.2,1194.8 1607.4,1193.4 1598.2,1190.4 1589.6,1185.6 1581.5,1179.1 1574.0,1170.9 1567.2,1161.1 1561.0,1149.6 1555.4,1136.6 1550.4,1122.1 1546.0,1106.2 1542.2,1088.9 1539.0,1070.3 1536.4,1050.6 1534.4,1029.8 1532.8,1008.0 1531.8,985.4 1531.3,962.0 1531.3,938.1 1531.7,913.8 1532.5,889.1 1533.6,864.4  " style="stroke-opacity: 1.000000; stroke-width: 5.0; stroke: rgb(107,174,214); fill: none"  />
<path d="M 1854.8,971.6 L 1841.1,992.5 1827.7,1013.5 1814.9,1034.7 1802.8,1055.7 1791.4,1076.7 1780.9,1097.4 1771.3,1117.8 1762.7,1137.8 1755.2,1157.3 1748.9,1176.3 1743.9,1194.6 1740.0,1212.2 1737.6,1229.1 1736.4,1245.2 1736.7,1260.4 1738.4,1274.7 1741.5,1288.1 1746.1,1300.6 1752.1,1312.0 1759.6,1322.4 1768.4,1331.8 1778.7,1340.2 1790.4,1347.4 1803.4,1353.7 1817.7,1358.9 1833.3,1363.0 1850.0,1366.2 1867.9,1368.3 1886.9,1369.4 1906.9,1369.6 1927.8,1368.8 1949.5,1367.2 1971.9,1364.7 1994.9,1361.5 2018.4,1357.5 2042.3,1352.8 2066.4,1347.6 2090.7,1341.8 2114.9,1335.5  " style="stroke-opacity: 1.000000; stroke-width: 5.0; stroke: rgb(107,174,214); fill: none"  />
<path d="M 1099.2,1994.5 L 1114.7,1975.5 1130.1,1956.7 1145.4,1938.3 1160.5,1920.4 1175.3,1903.1 1189.7,1886.6 1203.6,1870.9 1217.0,1856.2 1229.7,1842.5 1241.7,1830.0 1253.0,1818.7 1263.5,1808.6 1273.1,1800.0 1281.8,1792.7 1289.6,1786.9 1296.4,1782.5 1302.3,1779.7 1307.1,1778.5 1310.8,1778.7 1313.6,1780.6 1315.3,1784.0 1315.9,1788.9 1315.5,1795.3 1314.1,1803.3 1311.6,1812.7 1308.2,1823.5 1303.8,1835.7 1298.5,1849.2 1292.3,1863.9 1285.2,1879.8 1277.4,1896.7 1268.8,1914.7 1259.6,1933.5 1249.7,1953.1 1239.3,1973.3 1228.4,1994.1 1217.2,2015.2 1205.7,2036.6 1194.0,2058.1  " style="stroke-opacity: 1.000000; stroke-width: 5.0; stroke: rgb(107,174,214); fill: none"  />
<path d="M 1099.2,1994.5 L 1114.6,1975.4 1129.8,1956.4 1144.6,1937.6 1159.0,1919.1 1172.8,1901.1 1186.0,1883.6 1198.5,1866.7 1210.1,1850.6 1220.9,1835.3 1230.6,1821.0 1239.4,1807.6 1247.0,1795.3 1253.5,1784.1 1258.8,1774.0 1262.9,1765.2 1265.7,1757.6 1267.3,1751.4 1267.5,1746.4 1266.5,1742.8 1264.1,1740.5 1260.4,1739.5 1255.5,1739.9 1249.3,1741.7 1241.8,1744.7 1233.1,1749.0 1223.2,1754.6 1212.2,1761.5 1200.1,1769.4 1187.0,1778.6 1172.9,1788.7 1157.9,1799.9 1142.2,1812.0 1125.7,1825.0 1108.6,1838.7 1090.9,1853.0 1072.9,1868.0 1054.5,1883.3 1036.0,1899.0 1017.4,1915.0  " style="stroke-opacity: 1.000000; stroke-width: 5.0; stroke: rgb(107,174,214); fill: none"  />
<path d="M 1099.2,1994.5 L 1114.6,1975.3 1129.7,1956.1 1144.4,1937.0 1158.6,1918.1 1172.1,1899.5 1184.9,1881.4 1196.8,1863.7 1207.8,1846.7 1217.8,1830.4 1226.8,1814.8 1234.6,1800.1 1241.1,1786.3 1246.5,1773.4 1250.5,1761.6 1253.2,1750.8 1254.5,1741.2 1254.5,1732.6 1253.0,1725.3 1250.2,1719.1 1245.9,1714.2 1240.2,1710.4 1233.2,1707.9 1224.8,1706.6 1215.0,1706.4 1204.0,1707.5 1191.7,1709.7 1178.2,1713.0 1163.5,1717.5 1147.8,1723.0 1131.1,1729.5 1113.4,1736.9 1094.9,1745.2 1075.7,1754.4 1055.8,1764.3 1035.4,1774.9 1014.6,1786.1 993.5,1797.7 972.3,1809.8 951.0,1822.1  " style="stroke-opacity: 1.000000; stroke-width: 5.0; stroke: rgb(107,174,214); fill: none"  />
<path d="M 1523.5,2136.1 L 1522.7,2111.5 1522.2,2087.1 1521.9,2063.0 1521.9,2039.3 1522.3,2016.4 1523.0,1994.2 1524.0,1972.9 1525.4,1952.7 1527.2,1933.6 1529.4,1915.8 1532.1,1899.4 1535.1,1884.4 1538.5,1870.9 1542.4,1859.0 1546.7,1848.8 1551.5,1840.3 1556.6,1833.5 1562.2,1828.5 1568.2,1825.3 1574.6,1823.9 1581.4,1824.3 1588.5,1826.5 1596.0,1830.4 1603.9,1836.2 1612.1,1843.7 1620.6,1852.8 1629.4,1863.6 1638.5,1876.0 1647.7,1889.8 1657.2,1905.0 1666.8,1921.6 1676.6,1939.3 1686.5,1958.2 1696.4,1978.1 1706.4,1998.8 1716.3,2020.2 1726.2,2042.2 1735.9,2064.6 1745.5,2087.2  " style="stroke-opacity: 1.000000; stroke-width: 5.0; stroke: rgb(107,174,214); fill: none"  />
<path d="M 1523.5,2136.1 L 1522.7,2111.6 1522.0,2087.3 1521.4,2063.4 1521.0,2039.9 1520.7,2017.2 1520.7,1995.3 1520.9,1974.3 1521.2,1954.4 1521.8,1935.8 1522.6,1918.4 1523.7,1902.5 1525.0,1888.0 1526.5,1875.2 1528.3,1864.0 1530.3,1854.5 1532.6,1846.7 1535.1,1840.8 1537.9,1836.6 1540.9,1834.4 1544.2,1833.9 1547.7,1835.4 1551.4,1838.7 1555.4,1843.8 1559.5,1850.7 1563.9,1859.4 1568.4,1869.8 1573.1,1881.9 1578.0,1895.5 1583.0,1910.7 1588.1,1927.3 1593.4,1945.2 1598.7,1964.4 1604.1,1984.6 1609.6,2005.9 1615.1,2027.9 1620.6,2050.7 1626.0,2074.0 1631.4,2097.7 1636.7,2121.6  " style="stroke-opacity: 1.000000; stroke-width: 5.0; stroke: rgb(107,174,214); fill: none"  />
<path d="M 1523.5,2136.1 L 1522.6,2111.6 1521.5,2087.3 1520.3,2063.4 1519.0,2040.0 1517.5,2017.3 1515.9,1995.4 1514.2,1974.6 1512.4,1954.8 1510.4,1936.2 1508.3,1918.9 1506.1,1903.1 1503.8,1888.8 1501.3,1876.1 1498.7,1865.1 1495.9,1855.7 1493.1,1848.2 1490.1,1842.4 1487.0,1838.5 1483.9,1836.5 1480.6,1836.3 1477.2,1838.0 1473.7,1841.6 1470.2,1847.0 1466.5,1854.2 1462.8,1863.2 1459.1,1873.9 1455.3,1886.3 1451.4,1900.2 1447.6,1915.7 1443.6,1932.7 1439.7,1950.9 1435.8,1970.4 1431.9,1991.0 1428.1,2012.6 1424.2,2035.0 1420.4,2058.1 1416.7,2081.8 1413.1,2105.8 1409.6,2130.0  " style="stroke-opacity: 1.000000; stroke-width: 5.0; stroke: rgb(107,174,214); fill: none"  />
<path d="M 1523.5,2136.1 L 1522.5,2111.5 1521.2,2087.1 1519.7,2063.0 1518.0,2039.5 1515.9,2016.6 1513.6,1994.5 1511.0,1973.4 1508.1,1953.3 1504.9,1934.4 1501.4,1916.8 1497.5,1900.6 1493.4,1885.9 1489.0,1872.7 1484.2,1861.2 1479.2,1851.3 1473.8,1843.1 1468.2,1836.7 1462.2,1832.2 1456.0,1829.4 1449.5,1828.5 1442.8,1829.4 1435.8,1832.1 1428.6,1836.6 1421.2,1843.0 1413.6,1851.0 1405.8,1860.8 1397.8,1872.2 1389.7,1885.1 1381.5,1899.6 1373.1,1915.5 1364.7,1932.7 1356.3,1951.2 1347.9,1970.7 1339.4,1991.3 1331.0,2012.7 1322.7,2034.8 1314.5,2057.4 1306.4,2080.5 1298.5,2103.8  " style="stroke-opacity: 1.000000; stroke-width: 5.0; stroke: rgb(107,174,214); fill: none"  />
<path d="M 1943.5,1043.4 L 1925.9,1061.2 1908.1,1078.6 1890.1,1095.5 1871.9,1111.8 1853.8,1127.3 1835.7,1141.9 1817.7,1155.5 1799.9,1168.0 1782.4,1179.3 1765.2,1189.4 1748.3,1198.2 1731.8,1205.6 1715.8,1211.5 1700.3,1215.9 1685.4,1218.8 1671.0,1220.1 1657.3,1219.8 1644.2,1217.9 1631.7,1214.4 1620.0,1209.3 1609.0,1202.6 1598.7,1194.2 1589.1,1184.3 1580.3,1172.9 1572.3,1160.0 1565.0,1145.6 1558.5,1129.8 1552.7,1112.7 1547.7,1094.4 1543.4,1074.9 1539.8,1054.3 1536.9,1032.8 1534.6,1010.3 1533.0,987.2 1532.1,963.3 1531.7,939.0 1531.8,914.3 1532.5,889.4 1533.6,864.4  " style="stroke-opacity: 1.000000; stroke-width: 5.0; stroke: rgb(107,174,214); fill: none"  />
<path d="M 1943.5,1043.4 L 1926.3,1061.0 1909.0,1078.3 1891.8,1095.1 1874.7,1111.4 1857.8,1127.1 1841.3,1141.9 1825.2,1155.8 1809.6,1168.8 1794.6,1180.7 1780.2,1191.4 1766.5,1200.9 1753.6,1209.0 1741.4,1215.8 1730.2,1221.2 1719.8,1225.2 1710.4,1227.7 1701.9,1228.6 1694.4,1228.1 1688.0,1225.9 1682.5,1222.3 1678.1,1217.1 1674.8,1210.4 1672.5,1202.2 1671.2,1192.6 1670.9,1181.5 1671.7,1169.0 1673.4,1155.2 1676.1,1140.1 1679.6,1123.9 1684.1,1106.5 1689.4,1088.1 1695.5,1068.7 1702.3,1048.5 1709.8,1027.6 1717.9,1006.1 1726.5,984.2 1735.6,961.8 1745.0,939.3 1754.8,916.7  " style="stroke-opacity: 1.000000; stroke-width: 5.0; stroke: rgb(107,174,214); fill: none"  />
<path d="M 1017.4,1915.0 L 1036.1,1899.0 1054.8,1883.4 1073.5,1868.1 1092.0,1853.4 1110.2,1839.4 1128.0,1826.1 1145.2,1813.6 1161.9,1802.1 1178.0,1791.6 1193.3,1782.3 1207.8,1774.1 1221.4,1767.1 1234.1,1761.4 1245.8,1757.0 1256.4,1754.0 1266.1,1752.4 1274.6,1752.2 1282.0,1753.4 1288.2,1756.1 1293.3,1760.2 1297.2,1765.8 1300.0,1772.8 1301.5,1781.1 1301.9,1790.9 1301.2,1801.9 1299.4,1814.3 1296.4,1827.9 1292.4,1842.7 1287.4,1858.5 1281.4,1875.4 1274.4,1893.3 1266.6,1912.0 1258.0,1931.5 1248.7,1951.6 1238.7,1972.3 1228.2,1993.5 1217.1,2014.9 1205.7,2036.5 1194.0,2058.1  " style="stroke-opacity: 1.000000; stroke-width: 5.0; stroke: rgb(107,174,214); fill: none"  />
<path d="M 1017.4,1915.0 L 1036.0,1899.0 1054.5,1883.3 1072.9,1868.0 1090.9,1853.0 1108.6,1838.7 1125.7,1825.0 1142.2,1812.0 1157.9,1799.9 1172.9,1788.7 1187.0,1778.6 1200.1,1769.4 1212.2,1761.5 1223.2,1754.6 1233.1,1749.0 1241.8,1744.7 1249.3,1741.7 1255.5,1739.9 1260.4,1739.5 1264.1,1740.5 1266.5,1742.8 1267.5,1746.4 1267.3,1751.4 1265.7,1757.6 1262.9,1765.2 1258.8,1774.0 1253.5,1784.1 1247.0,1795.3 1239.4,1807.6 1230.6,1821.0 1220.9,1835.3 1210.1,1850.6 1198.5,1866.7 1186.0,1883.6 1172.8,1901.1 1159.0,1919.1 1144.6,1937.6 1129.8,1956.4 1114.6,1975.4 1099.2,1994.5  " style="stroke-opacity: 1.000000; stroke-width: 5.0; stroke: rgb(107,174,214); fill: none"  />
<path d="M 1017.4,1915.0 L 1035.9,1899.0 1054.2,1883.0 1072.2,1867.1 1089.6,1851.5 1106.5,1836.2 1122.6,1821.4 1137.9,1807.0 1152.2,1793.2 1165.5,1780.1 1177.7,1767.7 1188.6,1756.1 1198.4,1745.4 1206.7,1735.5 1213.8,1726.6 1219.4,1718.6 1223.5,1711.7 1226.1,1705.8 1227.3,1700.9 1226.9,1697.2 1225.0,1694.5 1221.5,1692.9 1216.6,1692.4 1210.1,1693.0 1202.2,1694.7 1192.9,1697.4 1182.2,1701.1 1170.1,1705.9 1156.8,1711.6 1142.3,1718.2 1126.6,1725.7 1109.9,1734.0 1092.2,1743.1 1073.7,1752.9 1054.4,1763.3 1034.5,1774.3 1014.0,1785.8 993.2,1797.6 972.2,1809.8 951.0,1822.1  " style="stroke-opacity: 1.000000; stroke-width: 5.0; stroke: rgb(107,174,214); fill: none"  />
<path d="M 951.0,1822.1 L 972.5,1809.7 994.0,1797.7 1015.4,1786.2 1036.7,1775.2 1057.7,1764.9 1078.2,1755.4 1098.3,1746.7 1117.7,1739.0 1136.4,1732.2 1154.4,1726.5 1171.5,1722.0 1187.6,1718.5 1202.8,1716.3 1216.9,1715.3 1229.9,1715.6 1241.8,1717.1 1252.5,1720.0 1262.0,1724.1 1270.2,1729.6 1277.2,1736.4 1282.9,1744.4 1287.3,1753.8 1290.5,1764.4 1292.4,1776.2 1293.0,1789.2 1292.4,1803.4 1290.6,1818.6 1287.7,1834.8 1283.6,1852.1 1278.4,1870.2 1272.2,1889.1 1265.0,1908.7 1256.9,1929.0 1248.0,1949.8 1238.4,1971.1 1228.0,1992.7 1217.1,2014.4 1205.7,2036.3 1194.0,2058.1  " style="stroke-opacity: 1.000000; stroke-width: 5.0; stroke: rgb(107,174,214); fill: none"  />
<path d="M 951.0,1822.1 L 972.3,1809.8 993.5,1797.7 1014.6,1786.1 1035.4,1774.9 1055.8,1764.3 1075.7,1754.4 1094.9,1745.2 1113.4,1736.9 1131.1,1729.5 1147.8,1723.0 1163.5,1717.5 1178.2,1713.0 1191.7,1709.7 1204.0,1707.5 1215.0,1706.4 1224.8,1706.6 1233.2,1707.9 1240.2,1710.4 1245.9,1714.2 1250.2,1719.1 1253.0,1725.3 1254.5,1732.6 1254.5,1741.2 1253.2,1750.8 1250.5,1761.6 1246.5,1773.4 1241.1,1786.3 1234.6,1800.1 1226.8,1814.8 1217.8,1830.4 1207.8,1846.7 1196.8,1863.7 1184.9,1881.4 1172.1,1899.5 1158.6,1918.1 1144.4,1937.0 1129.7,1956.1 1114.6,1975.3 1099.2,1994.5  " style="stroke-opacity: 1.000000; stroke-width: 5.0; stroke: rgb(107,174,214); fill: none"  />
<path d="M 951.0,1822.1 L 972.2,1809.8 993.2,1797.6 1014.0,1785.8 1034.5,1774.3 1054.4,1763.3 1073.7,1752.9 1092.2,1743.1 1109.9,1734.0 1126.6,1725.7 1142.3,1718.2 1156.8,1711.6 1170.1,1705.9 1182.2,1701.1 1192.9,1697.4 1202.2,1694.7 1210.1,1693.0 1216.6,1692.4 1221.5,1692.9 1225.0,1694.5 1226.9,1697.2 1227.3,1700.9 1226.1,1705.8 1223.5,1711.7 1219.4,1718.6 1213.8,1726.6 1206.7,1735.5 1198.4,1745.4 1188.6,1756.1 1177.7,1767.7 1165.5,1780.1 1152.2,1793.2 1137.9,1807.0 1122.6,1821.4 1106.5,1836.2 1089.6,1851.5 1072.2,1867.1 1054.2,1883.0 1035.9,1899.0 1017.4,1915.0  " style="stroke-opacity: 1.000000; stroke-width: 5.0; stroke: rgb(107,174,214); fill: none"  />
<path d="M 951.0,1822.1 L 972.2,1809.6 993.1,1796.9 1013.5,1784.2 1033.4,1771.5 1052.6,1758.8 1071.0,1746.3 1088.3,1734.0 1104.6,1721.9 1119.7,1710.2 1133.6,1698.7 1146.0,1687.7 1157.1,1677.1 1166.6,1666.9 1174.5,1657.2 1180.8,1648.1 1185.4,1639.5 1188.4,1631.5 1189.6,1624.1 1189.1,1617.4 1186.8,1611.2 1182.9,1605.7 1177.1,1600.9 1169.7,1596.7 1160.7,1593.1 1149.9,1590.2 1137.6,1588.0 1123.8,1586.4 1108.6,1585.4 1091.9,1585.0 1074.0,1585.2 1054.8,1586.0 1034.6,1587.3 1013.4,1589.1 991.3,1591.4 968.5,1594.1 945.1,1597.3 921.2,1600.8 897.1,1604.6 872.8,1608.7  " style="stroke-opacity: 1.000000; stroke-width: 5.0; stroke: rgb(107,174,214); fill: none"  />
<path d="M 1419.6,868.6 L 1422.5,893.2 1425.1,917.7 1427.3,942.0 1429.0,965.8 1430.2,989.1 1430.9,1011.8 1431.0,1033.6 1430.5,1054.5 1429.3,1074.4 1427.5,1093.1 1425.0,1110.7 1421.8,1126.9 1417.9,1141.7 1413.3,1155.1 1407.9,1166.9 1401.8,1177.3 1395.0,1186.0 1387.5,1193.0 1379.2,1198.5 1370.2,1202.2 1360.6,1204.3 1350.2,1204.7 1339.2,1203.4 1327.6,1200.5 1315.4,1196.0 1302.6,1189.9 1289.3,1182.3 1275.5,1173.2 1261.3,1162.6 1246.7,1150.8 1231.7,1137.6 1216.5,1123.3 1201.0,1107.9 1185.4,1091.5 1169.6,1074.3 1153.9,1056.3 1138.1,1037.7 1122.5,1018.6 1107.1,999.2  " style="stroke-opacity: 1.000000; stroke-width: 5.0; stroke: rgb(107,174,214); fill: none"  />
<path d="M 1409.6,2130.0 L 1413.3,2105.3 1417.5,2080.7 1422.2,2056.5 1427.3,2032.7 1432.9,2009.5 1438.9,1987.1 1445.5,1965.5 1452.5,1944.9 1460.0,1925.4 1468.0,1907.1 1476.5,1890.1 1485.5,1874.5 1495.0,1860.3 1504.9,1847.6 1515.3,1836.5 1526.2,1827.0 1537.4,1819.1 1549.2,1812.9 1561.3,1808.5 1573.8,1805.7 1586.7,1804.7 1599.9,1805.4 1613.4,1807.8 1627.3,1811.8 1641.4,1817.6 1655.7,1824.9 1670.3,1833.8 1685.0,1844.3 1699.8,1856.1 1714.8,1869.4 1729.8,1883.9 1744.8,1899.7 1759.8,1916.5 1774.7,1934.3 1789.5,1953.0 1804.1,1972.5 1818.5,1992.6 1832.6,2013.1 1846.4,2034.0  " style="stroke-opacity: 1.000000; stroke-width: 5.0; stroke: rgb(107,174,214); fill: none"  />
<path d="M 1409.6,2130.0 L 1413.2,2105.7 1417.0,2081.6 1421.0,2057.8 1425.3,2034.6 1429.7,2012.0 1434.4,1990.3 1439.2,1969.6 1444.2,1949.9 1449.4,1931.5 1454.7,1914.4 1460.2,1898.7 1465.9,1884.4 1471.7,1871.8 1477.6,1860.8 1483.7,1851.5 1489.9,1844.0 1496.2,1838.2 1502.5,1834.3 1509.0,1832.2 1515.5,1832.0 1522.2,1833.6 1528.8,1837.0 1535.5,1842.3 1542.2,1849.4 1549.0,1858.2 1555.7,1868.7 1562.4,1880.9 1569.1,1894.6 1575.8,1909.9 1582.4,1926.6 1588.9,1944.6 1595.3,1963.8 1601.7,1984.2 1607.9,2005.5 1614.0,2027.6 1619.9,2050.5 1625.7,2073.9 1631.3,2097.7 1636.7,2121.6  " style="stroke-opacity: 1.000000; stroke-width: 5.0; stroke: rgb(107,174,214); fill: none"  />
<path d="M 1409.6,2130.0 L 1413.1,2105.8 1416.7,2081.8 1420.4,2058.1 1424.2,2035.0 1428.1,2012.6 1431.9,1991.0 1435.8,1970.4 1439.7,1950.9 1443.6,1932.7 1447.6,1915.7 1451.4,1900.2 1455.3,1886.3 1459.1,1873.9 1462.8,1863.2 1466.5,1854.2 1470.2,1847.0 1473.7,1841.6 1477.2,1838.0 1480.6,1836.3 1483.9,1836.5 1487.0,1838.5 1490.1,1842.4 1493.1,1848.2 1495.9,1855.7 1498.7,1865.1 1501.3,1876.1 1503.8,1888.8 1506.1,1903.1 1508.3,1918.9 1510.4,1936.2 1512.4,1954.8 1514.2,1974.6 1515.9,1995.4 1517.5,2017.3 1519.0,2040.0 1520.3,2063.4 1521.5,2087.3 1522.6,2111.6 1523.5,2136.1  " style="stroke-opacity: 1.000000; stroke-width: 5.0; stroke: rgb(107,174,214); fill: none"  />
<path d="M 1409.6,2130.0 L 1413.0,2105.8 1416.3,2081.7 1419.4,2058.0 1422.2,2034.7 1424.9,2012.1 1427.2,1990.3 1429.3,1969.5 1431.0,1949.7 1432.4,1931.0 1433.4,1913.7 1434.0,1897.7 1434.3,1883.2 1434.1,1870.3 1433.5,1858.9 1432.5,1849.3 1431.0,1841.3 1429.1,1835.2 1426.8,1830.8 1424.0,1828.2 1420.8,1827.4 1417.2,1828.5 1413.2,1831.4 1408.7,1836.1 1403.8,1842.5 1398.6,1850.7 1393.0,1860.6 1387.0,1872.1 1380.7,1885.1 1374.2,1899.7 1367.3,1915.6 1360.2,1932.9 1352.9,1951.4 1345.4,1971.0 1337.7,1991.5 1329.9,2012.9 1322.1,2035.0 1314.2,2057.6 1306.3,2080.6 1298.5,2103.8  " style="stroke-opacity: 1.000000; stroke-width: 5.0; stroke: rgb(107,174,214); fill: none"  />
<path d="M 2017.9,1130.0 L 1997.6,1144.2 1977.3,1158.1 1957.0,1171.5 1936.8,1184.4 1916.8,1196.5 1897.2,1207.8 1878.0,1218.2 1859.4,1227.7 1841.3,1236.1 1823.9,1243.4 1807.3,1249.5 1791.5,1254.4 1776.6,1257.9 1762.7,1260.2 1749.7,1261.1 1737.7,1260.6 1726.8,1258.7 1717.0,1255.4 1708.3,1250.7 1700.7,1244.6 1694.3,1237.1 1689.1,1228.2 1685.0,1217.9 1682.0,1206.3 1680.2,1193.4 1679.5,1179.2 1680.0,1163.9 1681.4,1147.5 1684.0,1130.0 1687.5,1111.5 1692.0,1092.1 1697.4,1071.8 1703.6,1050.9 1710.6,1029.4 1718.4,1007.3 1726.7,984.9 1735.6,962.3 1745.0,939.5 1754.8,916.7  " style="stroke-opacity: 1.000000; stroke-width: 5.0; stroke: rgb(107,174,214); fill: none"  />
<path d="M 2075.6,1228.4 L 2053.5,1238.9 2031.6,1249.4 2010.1,1259.9 1989.1,1270.3 1968.8,1280.6 1949.3,1290.6 1930.8,1300.4 1913.3,1309.9 1897.0,1319.0 1881.9,1327.7 1868.3,1335.9 1856.0,1343.7 1845.3,1351.0 1836.2,1357.7 1828.7,1363.9 1822.9,1369.5 1818.7,1374.5 1816.4,1378.9 1815.7,1382.6 1816.9,1385.7 1819.8,1388.1 1824.4,1389.9 1830.8,1391.1 1838.8,1391.6 1848.5,1391.4 1859.9,1390.7 1872.7,1389.3 1887.1,1387.4 1902.9,1384.8 1920.0,1381.8 1938.3,1378.2 1957.8,1374.1 1978.2,1369.6 1999.6,1364.7 2021.7,1359.4 2044.5,1353.8 2067.7,1347.9 2091.2,1341.8 2114.9,1335.5  " style="stroke-opacity: 1.000000; stroke-width: 5.0; stroke: rgb(107,174,214); fill: none"  />
<path d="M 2114.9,1335.5 L 2089.6,1342.0 2064.0,1347.8 2038.4,1353.0 2012.7,1357.4 1987.0,1360.9 1961.5,1363.6 1936.3,1365.3 1911.3,1366.0 1886.8,1365.7 1862.7,1364.3 1839.1,1361.8 1816.2,1358.1 1793.9,1353.2 1772.3,1347.2 1751.5,1339.9 1731.5,1331.5 1712.3,1321.8 1694.1,1310.9 1676.7,1298.8 1660.3,1285.5 1644.9,1271.0 1630.4,1255.4 1617.0,1238.6 1604.5,1220.8 1593.1,1201.9 1582.7,1182.1 1573.4,1161.3 1565.0,1139.6 1557.7,1117.1 1551.3,1093.8 1545.9,1069.9 1541.4,1045.3 1537.9,1020.2 1535.2,994.7 1533.4,968.9 1532.4,942.9 1532.1,916.7 1532.5,890.5 1533.6,864.4  " style="stroke-opacity: 1.000000; stroke-width: 5.0; stroke: rgb(107,174,214); fill: none"  />
<path d="M 2114.9,1335.5 L 2090.7,1341.8 2066.4,1347.6 2042.3,1352.8 2018.4,1357.5 1994.9,1361.5 1971.9,1364.7 1949.5,1367.2 1927.8,1368.8 1906.9,1369.6 1886.9,1369.4 1867.9,1368.3 1850.0,1366.2 1833.3,1363.0 1817.7,1358.9 1803.4,1353.7 1790.4,1347.4 1778.7,1340.2 1768.4,1331.8 1759.6,1322.4 1752.1,1312.0 1746.1,1300.6 1741.5,1288.1 1738.4,1274.7 1736.7,1260.4 1736.4,1245.2 1737.6,1229.1 1740.0,1212.2 1743.9,1194.6 1748.9,1176.3 1755.2,1157.3 1762.7,1137.8 1771.3,1117.8 1780.9,1097.4 1791.4,1076.7 1802.8,1055.7 1814.9,1034.7 1827.7,1013.5 1841.1,992.5 1854.8,971.6  " style="stroke-opacity: 1.000000; stroke-width: 5.0; stroke: rgb(107,174,214); fill: none"  />
<path d="M 2114.9,1335.5 L 2091.2,1341.8 2067.7,1347.9 2044.5,1353.8 2021.7,1359.4 1999.6,1364.7 1978.2,1369.6 1957.8,1374.1 1938.3,1378.2 1920.0,1381.8 1902.9,1384.8 1887.1,1387.4 1872.7,1389.3 1859.9,1390.7 1848.5,1391.4 1838.8,1391.6 1830.8,1391.1 1824.4,1389.9 1819.8,1388.1 1816.9,1385.7 1815.7,1382.6 1816.4,1378.9 1818.7,1374.5 1822.9,1369.5 1828.7,1363.9 1836.2,1357.7 1845.3,1351.0 1856.0,1343.7 1868.3,1335.9 1881.9,1327.7 1897.0,1319.0 1913.3,1309.9 1930.8,1300.4 1949.3,1290.6 1968.8,1280.6 1989.1,1270.3 2010.1,1259.9 2031.6,1249.4 2053.5,1238.9 2075.6,1228.4  " style="stroke-opacity: 1.000000; stroke-width: 5.0; stroke: rgb(107,174,214); fill: none"  />
<path d="M 1298.5,2103.8 L 1306.8,2079.8 1315.5,2056.1 1324.8,2032.7 1334.5,2009.9 1344.7,1987.7 1355.4,1966.2 1366.5,1945.6 1378.0,1926.1 1390.0,1907.6 1402.4,1890.3 1415.3,1874.3 1428.5,1859.6 1442.0,1846.4 1456.0,1834.7 1470.2,1824.5 1484.8,1815.9 1499.7,1808.9 1514.9,1803.6 1530.3,1799.9 1545.9,1797.9 1561.7,1797.6 1577.7,1799.0 1593.9,1802.0 1610.2,1806.7 1626.5,1813.0 1643.0,1820.8 1659.4,1830.2 1675.9,1841.1 1692.3,1853.4 1708.6,1867.0 1724.9,1881.9 1741.0,1897.9 1756.9,1915.0 1772.6,1933.1 1788.1,1952.1 1803.2,1971.8 1818.0,1992.1 1832.4,2012.9 1846.4,2034.0  " style="stroke-opacity: 1.000000; stroke-width: 5.0; stroke: rgb(107,174,214); fill: none"  />
<path d="M 1298.5,2103.8 L 1306.6,2080.1 1315.2,2056.7 1324.1,2033.6 1333.3,2011.1 1343.0,1989.3 1352.9,1968.3 1363.2,1948.3 1373.8,1929.3 1384.7,1911.4 1395.8,1894.9 1407.2,1879.7 1418.9,1865.9 1430.7,1853.6 1442.8,1842.9 1455.0,1833.8 1467.3,1826.4 1479.9,1820.7 1492.5,1816.7 1505.2,1814.4 1518.0,1814.0 1530.9,1815.3 1543.8,1818.3 1556.7,1823.1 1569.6,1829.6 1582.4,1837.7 1595.2,1847.5 1607.9,1858.9 1620.5,1871.8 1633.0,1886.1 1645.4,1901.8 1657.5,1918.8 1669.5,1936.9 1681.3,1956.2 1692.7,1976.4 1704.0,1997.4 1714.9,2019.2 1725.4,2041.5 1735.7,2064.2 1745.5,2087.2  " style="stroke-opacity: 1.000000; stroke-width: 5.0; stroke: rgb(107,174,214); fill: none"  />
<path d="M 1298.5,2103.8 L 1306.4,2080.5 1314.5,2057.4 1322.7,2034.8 1331.0,2012.7 1339.4,1991.3 1347.9,1970.7 1356.3,1951.2 1364.7,1932.7 1373.1,1915.5 1381.5,1899.6 1389.7,1885.1 1397.8,1872.2 1405.8,1860.8 1413.6,1851.0 1421.2,1843.0 1428.6,1836.6 1435.8,1832.1 1442.8,1829.4 1449.5,1828.5 1456.0,1829.4 1462.2,1832.2 1468.2,1836.7 1473.8,1843.1 1479.2,1851.3 1484.2,1861.2 1489.0,1872.7 1493.4,1885.9 1497.5,1900.6 1501.4,1916.8 1504.9,1934.4 1508.1,1953.3 1511.0,1973.4 1513.6,1994.5 1515.9,2016.6 1518.0,2039.5 1519.7,2063.0 1521.2,2087.1 1522.5,2111.5 1523.5,2136.1  " style="stroke-opacity: 1.000000; stroke-width: 5.0; stroke: rgb(107,174,214); fill: none"  />
<path d="M 1298.5,2103.8 L 1306.3,2080.6 1314.2,2057.6 1322.1,2035.0 1329.9,2012.9 1337.7,1991.5 1345.4,1971.0 1352.9,1951.4 1360.2,1932.9 1367.3,1915.6 1374.2,1899.7 1380.7,1885.1 1387.0,1872.1 1393.0,1860.6 1398.6,1850.7 1403.8,1842.5 1408.7,1836.1 1413.2,1831.4 1417.2,1828.5 1420.8,1827.4 1424.0,1828.2 1426.8,1830.8 1429.1,1835.2 1431.0,1841.3 1432.5,1849.3 1433.5,1858.9 1434.1,1870.3 1434.3,1883.2 1434.0,1897.7 1433.4,1913.7 1432.4,1931.0 1431.0,1949.7 1429.3,1969.5 1427.2,1990.3 1424.9,2012.1 1422.2,2034.7 1419.4,2058.0 1416.3,2081.7 1413.0,2105.8 1409.6,2130.0  " style="stroke-opacity: 1.000000; stroke-width: 5.0; stroke: rgb(107,174,214); fill: none"  />
<path d="M 872.8,1608.7 L 897.1,1604.6 921.2,1600.8 945.1,1597.3 968.5,1594.1 991.3,1591.4 1013.4,1589.1 1034.6,1587.3 1054.8,1586.0 1074.0,1585.2 1091.9,1585.0 1108.6,1585.4 1123.8,1586.4 1137.6,1588.0 1149.9,1590.2 1160.7,1593.1 1169.7,1596.7 1177.1,1600.9 1182.9,1605.7 1186.8,1611.2 1189.1,1617.4 1189.6,1624.1 1188.4,1631.5 1185.4,1639.5 1180.8,1648.1 1174.5,1657.2 1166.6,1666.9 1157.1,1677.1 1146.0,1687.7 1133.6,1698.7 1119.7,1710.2 1104.6,1721.9 1088.3,1734.0 1071.0,1746.3 1052.6,1758.8 1033.4,1771.5 1013.5,1784.2 993.1,1796.9 972.2,1809.6 951.0,1822.1  " style="stroke-opacity: 1.000000; stroke-width: 5.0; stroke: rgb(107,174,214); fill: none"  />
</g>
<defs>
<pattern id="hline-sparse" width="10" height="10" patternTransform="rotate(0 0 0)" patternUnits="userSpaceOnUse"><line x1="0" y1="0" x2="10" y2="0" style="stroke:black;stroke-width:2" /></pattern>
<pattern id="vline" width="10" height="10" patternTransform="rotate(0 0 0)" patternUnits="userSpaceOnUse"><line x1="0" y1="0" x2="0" y2="10" style="stroke:black;stroke-width:5" /></pattern>
<pattern id="vline-sparse" width="10" height="10" patternTransform="rotate(0 0 0)" patternUnits="userSpaceOnUse"><line x1="0" y1="0" x2="0" y2="10" style="stroke:black;stroke-width:2" /></pattern>
<pattern id="checker" width="10" height="10" patternTransform="rotate(45 0 0)" patternUnits="userSpaceOnUse"><line x1="0" y1="0" x2="10" y2="0" style="stroke:black;stroke-width:2" /><line x1="0" y1="0" x2="0" y2="10" style="stroke:black;stroke-width:2" /></pattern>
<pattern id="hline" width="10" height="10" patternTransform="rotate(0 0 0)" patternUnits="userSpaceOnUse"><line x1="0" y1="0" x2="10" y2="0" style="stroke:black;stroke-width:5" /></pattern>
<pattern id="checker" width="10" height="10" patternTransform="rotate(45 0 0)" patternUnits="userSpaceOnUse"><line x1="0" y1="0" x2="10" y2="0" style="stroke:black;stroke-width:5" /><line x1="0" y1="0" x2="0" y2="10" style="stroke:black;stroke-width:4" /></pattern>
</defs>
</svg>
