<?xml version="1.0" encoding="utf-8" standalone="no"?>
<!DOCTYPE svg PUBLIC "-//W3C//DTD SVG 1.1//EN" "http://www.w3.org/Graphics/SVG/1.1/DTD/svg11.dtd">
<svg width="3000px" height="3000px" version="1.1" xmlns="http://www.w3.org/2000/svg" xmlns:xlink="http://www.w3.org/1999/xlink">
<g id="bg">
<rect x="0" y="0" width="3000px" height="3000px" style="fill:rgb(255,255,255);"/>
</g>
<g id="ideograms">
<path d="M1500.000,535.000 A965.000,965.000 40.000 0,1 1601.714,540.376 L1618.579,381.267 A1125.000,1125.000 0.000 0,0 1500.000,375.000 Z" style="stroke-width:2.0;stroke:rgb(115,115,115);stroke-linecap:round;fill:rgb(153,204,255);" />
<text x="1633.1" y="307.4" font-size="195.0px" font-family="CMUBright-Bold" style="text-anchor:start;fill:rgb(0,0,0);" transform="rotate(273.0,1633.1,307.4)" >4</text>
<path d="M1500.000,535.000 A965.000,965.000 40.000 0,1 1601.714,540.376 L1618.579,381.267 A1125.000,1125.000 0.000 0,0 1500.000,375.000 Z" style="stroke-width:2.0;stroke:rgb(115,115,115);stroke-linecap:round;fill:none;" />
<path d="M1672.307,550.508 A965.000,965.000 40.000 0,1 1771.427,573.959 L1816.431,420.418 A1125.000,1125.000 0.000 0,0 1700.877,393.079 Z" style="stroke-width:2.0;stroke:rgb(115,115,115);stroke-linecap:round;fill:rgb(153,204,255);" />
<text x="1847.7" y="351.5" font-size="195.0px" font-family="CMUBright-Bold" style="text-anchor:start;fill:rgb(0,0,0);" transform="rotate(283.3,1847.7,351.5)" >6</text>
<path d="M1672.307,550.508 A965.000,965.000 40.000 0,1 1771.427,573.959 L1816.431,420.418 A1125.000,1125.000 0.000 0,0 1700.877,393.079 Z" style="stroke-width:2.0;stroke:rgb(115,115,115);stroke-linecap:round;fill:none;" />
<path d="M1839.077,596.533 A965.000,965.000 40.000 0,1 1932.417,637.306 L2004.113,494.269 A1125.000,1125.000 0.000 0,0 1895.297,446.736 Z" style="stroke-width:2.0;stroke:rgb(115,115,115);stroke-linecap:round;fill:rgb(153,204,255);" />
<text x="2047.2" y="432.0" font-size="195.0px" font-family="CMUBright-Bold" style="text-anchor:start;fill:rgb(0,0,0);" transform="rotate(293.6,2047.2,432.0)" >8</text>
<path d="M1839.077,596.533 A965.000,965.000 40.000 0,1 1932.417,637.306 L2004.113,494.269 A1125.000,1125.000 0.000 0,0 1895.297,446.736 Z" style="stroke-width:2.0;stroke:rgb(115,115,115);stroke-linecap:round;fill:none;" />
<path d="M1994.948,671.597 A965.000,965.000 40.000 0,1 2079.507,728.381 L2175.592,600.444 A1125.000,1125.000 0.000 0,0 2077.012,534.245 Z" style="stroke-width:2.0;stroke:rgb(115,115,115);stroke-linecap:round;fill:rgb(153,204,255);" />
<text x="2227.5" y="545.7" font-size="195.0px" font-family="CMUBright-Bold" style="text-anchor:start;fill:rgb(0,0,0);" transform="rotate(303.9,2227.5,545.7)" >14</text>
<path d="M1994.948,671.597 A965.000,965.000 40.000 0,1 2079.507,728.381 L2175.592,600.444 A1125.000,1125.000 0.000 0,0 2077.012,534.245 Z" style="stroke-width:2.0;stroke:rgb(115,115,115);stroke-linecap:round;fill:none;" />
<path d="M2134.911,773.286 A965.000,965.000 40.000 0,1 2207.972,844.256 L2325.356,735.532 A1125.000,1125.000 0.000 0,0 2240.181,652.795 Z" style="stroke-width:2.0;stroke:rgb(115,115,115);stroke-linecap:round;fill:rgb(153,204,255);" />
<text x="2387.6" y="692.4" font-size="195.0px" font-family="CMUBright-Bold" style="text-anchor:start;fill:rgb(0,0,0);" transform="rotate(314.2,2387.6,692.4)" >19</text>
<path d="M2134.911,773.286 A965.000,965.000 40.000 0,1 2207.972,844.256 L2325.356,735.532 A1125.000,1125.000 0.000 0,0 2240.181,652.795 Z" style="stroke-width:2.0;stroke:rgb(115,115,115);stroke-linecap:round;fill:none;" />
<path d="M2254.467,898.332 A965.000,965.000 40.000 0,1 2313.683,981.207 L2448.594,895.190 A1125.000,1125.000 0.000 0,0 2379.560,798.574 Z" style="stroke-width:2.0;stroke:rgb(115,115,115);stroke-linecap:round;fill:rgb(153,204,255);" />
<text x="2517.5" y="863.9" font-size="195.0px" font-family="CMUBright-Bold" style="text-anchor:start;fill:rgb(0,0,0);" transform="rotate(324.5,2517.5,863.9)" >35</text>
<path d="M2254.467,898.332 A965.000,965.000 40.000 0,1 2313.683,981.207 L2448.594,895.190 A1125.000,1125.000 0.000 0,0 2379.560,798.574 Z" style="stroke-width:2.0;stroke:rgb(115,115,115);stroke-linecap:round;fill:none;" />
<path d="M2349.775,1042.717 A965.000,965.000 40.000 0,1 2393.240,1134.833 L2541.342,1074.288 A1125.000,1125.000 0.000 0,0 2490.670,966.898 Z" style="stroke-width:2.0;stroke:rgb(115,115,115);stroke-linecap:round;fill:rgb(116,196,118);" />
<text x="2614.7" y="1055.8" font-size="195.0px" font-family="CMUBright-Bold" style="text-anchor:start;fill:rgb(0,0,0);" transform="rotate(334.7,2614.7,1055.8)" >13</text>
<path d="M2349.775,1042.717 A965.000,965.000 40.000 0,1 2393.240,1134.833 L2541.342,1074.288 A1125.000,1125.000 0.000 0,0 2490.670,966.898 Z" style="stroke-width:2.0;stroke:rgb(115,115,115);stroke-linecap:round;fill:none;" />
<path d="M2417.770,1201.799 A965.000,965.000 40.000 0,1 2444.089,1300.196 L2600.621,1267.068 A1125.000,1125.000 0.000 0,0 2569.939,1152.356 Z" style="stroke-width:2.0;stroke:rgb(115,115,115);stroke-linecap:round;fill:rgb(116,196,118);" />
<text x="2676.2" y="1262.0" font-size="195.0px" font-family="CMUBright-Bold" style="text-anchor:start;fill:rgb(0,0,0);" transform="rotate(345.0,2676.2,1262.0)" >18</text>
<path d="M2417.770,1201.799 A965.000,965.000 40.000 0,1 2444.089,1300.196 L2600.621,1267.068 A1125.000,1125.000 0.000 0,0 2569.939,1152.356 Z" style="stroke-width:2.0;stroke:rgb(115,115,115);stroke-linecap:round;fill:none;" />
<path d="M2456.267,1370.465 A965.000,965.000 40.000 0,1 2464.593,1471.980 L2624.526,1467.335 A1125.000,1125.000 0.000 0,0 2614.818,1348.988 Z" style="stroke-width:2.0;stroke:rgb(115,115,115);stroke-linecap:round;fill:rgb(116,196,118);" />
<text x="2699.7" y="1474.8" font-size="195.0px" font-family="CMUBright-Bold" style="text-anchor:start;fill:rgb(0,0,0);" transform="rotate(355.3,2699.7,1474.8)" >27</text>
<path d="M2456.267,1370.465 A965.000,965.000 40.000 0,1 2464.593,1471.980 L2624.526,1467.335 A1125.000,1125.000 0.000 0,0 2614.818,1348.988 Z" style="stroke-width:2.0;stroke:rgb(115,115,115);stroke-linecap:round;fill:none;" />
<path d="M2464.028,1543.295 A965.000,965.000 40.000 0,1 2454.095,1644.665 L2612.287,1668.651 A1125.000,1125.000 0.000 0,0 2623.867,1550.473 Z" style="stroke-width:2.0;stroke:rgb(115,115,115);stroke-linecap:round;fill:rgb(116,196,118);" />
<text x="2684.8" y="1690.4" font-size="195.0px" font-family="CMUBright-Bold" style="text-anchor:start;fill:rgb(0,0,0);" transform="rotate(5.6,2684.8,1690.4)" >28</text>
<path d="M2464.028,1543.295 A965.000,965.000 40.000 0,1 2454.095,1644.665 L2612.287,1668.651 A1125.000,1125.000 0.000 0,0 2623.867,1550.473 Z" style="stroke-width:2.0;stroke:rgb(115,115,115);stroke-linecap:round;fill:none;" />
<path d="M2440.805,1714.733 A965.000,965.000 40.000 0,1 2412.931,1812.701 L2564.298,1864.548 A1125.000,1125.000 0.000 0,0 2596.794,1750.336 Z" style="stroke-width:2.0;stroke:rgb(115,115,115);stroke-linecap:round;fill:rgb(116,196,118);" />
<text x="2631.8" y="1898.9" font-size="195.0px" font-family="CMUBright-Bold" style="text-anchor:start;fill:rgb(0,0,0);" transform="rotate(15.9,2631.8,1898.9)" >29</text>
<path d="M2440.805,1714.733 A965.000,965.000 40.000 0,1 2412.931,1812.701 L2564.298,1864.548 A1125.000,1125.000 0.000 0,0 2596.794,1750.336 Z" style="stroke-width:2.0;stroke:rgb(115,115,115);stroke-linecap:round;fill:none;" />
<path d="M2387.344,1879.269 A965.000,965.000 40.000 0,1 2342.425,1970.686 L2482.102,2048.727 A1125.000,1125.000 0.000 0,0 2534.469,1942.153 Z" style="stroke-width:2.0;stroke:rgb(115,115,115);stroke-linecap:round;fill:rgb(153,0,204);" />
<text x="2543.3" y="2092.8" font-size="195.0px" font-family="CMUBright-Bold" style="text-anchor:start;fill:rgb(0,0,0);" transform="rotate(26.2,2543.3,2092.8)" >1</text>
<path d="M2387.344,1879.269 A965.000,965.000 40.000 0,1 2342.425,1970.686 L2482.102,2048.727 A1125.000,1125.000 0.000 0,0 2534.469,1942.153 Z" style="stroke-width:2.0;stroke:rgb(115,115,115);stroke-linecap:round;fill:none;" />
<path d="M2305.363,2031.616 A965.000,965.000 40.000 0,1 2244.843,2113.542 L2368.340,2215.270 A1125.000,1125.000 0.000 0,0 2438.895,2119.759 Z" style="stroke-width:2.0;stroke:rgb(115,115,115);stroke-linecap:round;fill:rgb(153,0,204);" />
<text x="2420.7" y="2269.6" font-size="195.0px" font-family="CMUBright-Bold" style="text-anchor:start;fill:rgb(0,0,0);" transform="rotate(36.5,2420.7,2269.6)" >5</text>
<path d="M2305.363,2031.616 A965.000,965.000 40.000 0,1 2244.843,2113.542 L2368.340,2215.270 A1125.000,1125.000 0.000 0,0 2438.895,2119.759 Z" style="stroke-width:2.0;stroke:rgb(115,115,115);stroke-linecap:round;fill:none;" />
<path d="M2197.497,2166.875 A965.000,965.000 40.000 0,1 2123.321,2236.679 L2226.669,2358.823 A1125.000,1125.000 0.000 0,0 2313.144,2277.445 Z" style="stroke-width:2.0;stroke:rgb(115,115,115);stroke-linecap:round;fill:rgb(153,0,204);" />
<text x="2269.3" y="2421.0" font-size="195.0px" font-family="CMUBright-Bold" style="text-anchor:start;fill:rgb(0,0,0);" transform="rotate(46.7,2269.3,2421.0)" >7</text>
<path d="M2197.497,2166.875 A965.000,965.000 40.000 0,1 2123.321,2236.679 L2226.669,2358.823 A1125.000,1125.000 0.000 0,0 2313.144,2277.445 Z" style="stroke-width:2.0;stroke:rgb(115,115,115);stroke-linecap:round;fill:none;" />
<path d="M2067.213,2280.701 A965.000,965.000 40.000 0,1 1981.764,2336.139 L2061.642,2474.773 A1125.000,1125.000 0.000 0,0 2161.258,2410.144 Z" style="stroke-width:2.0;stroke:rgb(115,115,115);stroke-linecap:round;fill:rgb(153,0,204);" />
<text x="2089.8" y="2545.0" font-size="195.0px" font-family="CMUBright-Bold" style="text-anchor:start;fill:rgb(0,0,0);" transform="rotate(57.0,2089.8,2545.0)" >10</text>
<path d="M2067.213,2280.701 A965.000,965.000 40.000 0,1 1981.764,2336.139 L2061.642,2474.773 A1125.000,1125.000 0.000 0,0 2161.258,2410.144 Z" style="stroke-width:2.0;stroke:rgb(115,115,115);stroke-linecap:round;fill:none;" />
<path d="M1918.698,2369.435 A965.000,965.000 40.000 0,1 1824.724,2408.724 L1878.564,2559.393 A1125.000,1125.000 0.000 0,0 1988.119,2513.590 Z" style="stroke-width:2.0;stroke:rgb(115,115,115);stroke-linecap:round;fill:rgb(253,208,162);" />
<text x="1893.8" y="2633.6" font-size="195.0px" font-family="CMUBright-Bold" style="text-anchor:start;fill:rgb(0,0,0);" transform="rotate(67.3,1893.8,2633.6)" >9</text>
<path d="M1918.698,2369.435 A965.000,965.000 40.000 0,1 1824.724,2408.724 L1878.564,2559.393 A1125.000,1125.000 0.000 0,0 1988.119,2513.590 Z" style="stroke-width:2.0;stroke:rgb(115,115,115);stroke-linecap:round;fill:none;" />
<path d="M1756.726,2430.224 A965.000,965.000 40.000 0,1 1657.246,2452.102 L1683.318,2609.964 A1125.000,1125.000 0.000 0,0 1799.291,2584.458 Z" style="stroke-width:2.0;stroke:rgb(115,115,115);stroke-linecap:round;fill:rgb(253,208,162);" />
<text x="1687.0" y="2685.3" font-size="195.0px" font-family="CMUBright-Bold" style="text-anchor:start;fill:rgb(0,0,0);" transform="rotate(77.6,1687.0,2685.3)" >12</text>
<path d="M1756.726,2430.224 A965.000,965.000 40.000 0,1 1657.246,2452.102 L1683.318,2609.964 A1125.000,1125.000 0.000 0,0 1799.291,2584.458 Z" style="stroke-width:2.0;stroke:rgb(115,115,115);stroke-linecap:round;fill:none;" />
<path d="M1586.502,2461.115 A965.000,965.000 40.000 0,1 1484.715,2464.879 L1482.181,2624.859 A1125.000,1125.000 0.000 0,0 1600.844,2620.471 Z" style="stroke-width:2.0;stroke:rgb(115,115,115);stroke-linecap:round;fill:rgb(253,208,162);" />
<text x="1470.4" y="2699.6" font-size="195.0px" font-family="CMUBright-Bold" style="text-anchor:start;fill:rgb(0,0,0);" transform="rotate(87.9,1470.4,2699.6)" >16</text>
<path d="M1586.502,2461.115 A965.000,965.000 40.000 0,1 1484.715,2464.879 L1482.181,2624.859 A1125.000,1125.000 0.000 0,0 1600.844,2620.471 Z" style="stroke-width:2.0;stroke:rgb(115,115,115);stroke-linecap:round;fill:none;" />
<path d="M1413.498,2461.115 A965.000,965.000 40.000 0,1 1312.675,2446.644 L1281.616,2603.600 A1125.000,1125.000 0.000 0,0 1399.156,2620.471 Z" style="stroke-width:2.0;stroke:rgb(115,115,115);stroke-linecap:round;fill:rgb(253,208,162);" />
<text x="1402.0" y="2696.0" font-size="195.0px" font-family="CMUBright-Bold" style="text-anchor:end;fill:rgb(0,0,0);" transform="rotate(-81.8,1402.0,2696.0)" >17</text>
<path d="M1413.498,2461.115 A965.000,965.000 40.000 0,1 1312.675,2446.644 L1281.616,2603.600 A1125.000,1125.000 0.000 0,0 1399.156,2620.471 Z" style="stroke-width:2.0;stroke:rgb(115,115,115);stroke-linecap:round;fill:none;" />
<path d="M1243.274,2430.224 A965.000,965.000 40.000 0,1 1146.656,2397.983 L1088.070,2546.871 A1125.000,1125.000 0.000 0,0 1200.709,2584.458 Z" style="stroke-width:2.0;stroke:rgb(115,115,115);stroke-linecap:round;fill:rgb(253,208,162);" />
<text x="1191.0" y="2659.5" font-size="195.0px" font-family="CMUBright-Bold" style="text-anchor:end;fill:rgb(0,0,0);" transform="rotate(-71.5,1191.0,2659.5)" >20</text>
<path d="M1243.274,2430.224 A965.000,965.000 40.000 0,1 1146.656,2397.983 L1088.070,2546.871 A1125.000,1125.000 0.000 0,0 1200.709,2584.458 Z" style="stroke-width:2.0;stroke:rgb(115,115,115);stroke-linecap:round;fill:none;" />
<path d="M1081.302,2369.435 A965.000,965.000 40.000 0,1 991.993,2320.460 L907.764,2456.494 A1125.000,1125.000 0.000 0,0 1011.881,2513.590 Z" style="stroke-width:2.0;stroke:rgb(115,115,115);stroke-linecap:round;fill:rgb(253,208,162);" />
<text x="987.1" y="2584.9" font-size="195.0px" font-family="CMUBright-Bold" style="text-anchor:end;fill:rgb(0,0,0);" transform="rotate(-61.3,987.1,2584.9)" >21</text>
<path d="M1081.302,2369.435 A965.000,965.000 40.000 0,1 991.993,2320.460 L907.764,2456.494 A1125.000,1125.000 0.000 0,0 1011.881,2513.590 Z" style="stroke-width:2.0;stroke:rgb(115,115,115);stroke-linecap:round;fill:none;" />
<path d="M932.787,2280.701 A965.000,965.000 40.000 0,1 853.658,2216.566 L746.493,2335.375 A1125.000,1125.000 0.000 0,0 838.742,2410.144 Z" style="stroke-width:2.0;stroke:rgb(115,115,115);stroke-linecap:round;fill:rgb(253,208,162);" />
<text x="803.3" y="2477.0" font-size="195.0px" font-family="CMUBright-Bold" style="text-anchor:end;fill:rgb(0,0,0);" transform="rotate(-51.0,803.3,2477.0)" >34</text>
<path d="M932.787,2280.701 A965.000,965.000 40.000 0,1 853.658,2216.566 L746.493,2335.375 A1125.000,1125.000 0.000 0,0 838.742,2410.144 Z" style="stroke-width:2.0;stroke:rgb(115,115,115);stroke-linecap:round;fill:none;" />
<path d="M802.503,2166.875 A965.000,965.000 40.000 0,1 736.097,2089.642 L609.440,2187.406 A1125.000,1125.000 0.000 0,0 686.856,2277.445 Z" style="stroke-width:2.0;stroke:rgb(115,115,115);stroke-linecap:round;fill:rgb(253,141,60);" />
<text x="638.6" y="2335.5" font-size="195.0px" font-family="CMUBright-Bold" style="text-anchor:end;fill:rgb(0,0,0);" transform="rotate(-40.7,638.6,2335.5)" >2</text>
<path d="M802.503,2166.875 A965.000,965.000 40.000 0,1 736.097,2089.642 L609.440,2187.406 A1125.000,1125.000 0.000 0,0 686.856,2277.445 Z" style="stroke-width:2.0;stroke:rgb(115,115,115);stroke-linecap:round;fill:none;" />
<path d="M694.637,2031.616 A965.000,965.000 40.000 0,1 643.089,1943.766 L501.010,2017.344 A1125.000,1125.000 0.000 0,0 561.105,2119.759 Z" style="stroke-width:2.0;stroke:rgb(115,115,115);stroke-linecap:round;fill:rgb(253,141,60);" />
<text x="504.4" y="2169.9" font-size="195.0px" font-family="CMUBright-Bold" style="text-anchor:end;fill:rgb(0,0,0);" transform="rotate(-30.4,504.4,2169.9)" >3</text>
<path d="M694.637,2031.616 A965.000,965.000 40.000 0,1 643.089,1943.766 L501.010,2017.344 A1125.000,1125.000 0.000 0,0 561.105,2119.759 Z" style="stroke-width:2.0;stroke:rgb(115,115,115);stroke-linecap:round;fill:none;" />
<path d="M612.656,1879.269 A965.000,965.000 40.000 0,1 577.622,1783.627 L424.689,1830.653 A1125.000,1125.000 0.000 0,0 465.531,1942.153 Z" style="stroke-width:2.0;stroke:rgb(115,115,115);stroke-linecap:round;fill:rgb(253,141,60);" />
<text x="400.8" y="1981.4" font-size="195.0px" font-family="CMUBright-Bold" style="text-anchor:end;fill:rgb(0,0,0);" transform="rotate(-20.1,400.8,1981.4)" >23</text>
<path d="M612.656,1879.269 A965.000,965.000 40.000 0,1 577.622,1783.627 L424.689,1830.653 A1125.000,1125.000 0.000 0,0 465.531,1942.153 Z" style="stroke-width:2.0;stroke:rgb(115,115,115);stroke-linecap:round;fill:none;" />
<path d="M559.195,1714.733 A965.000,965.000 40.000 0,1 541.802,1614.372 L382.929,1633.336 A1125.000,1125.000 0.000 0,0 403.206,1750.336 Z" style="stroke-width:2.0;stroke:rgb(115,115,115);stroke-linecap:round;fill:rgb(253,141,60);" />
<text x="332.5" y="1777.4" font-size="195.0px" font-family="CMUBright-Bold" style="text-anchor:end;fill:rgb(0,0,0);" transform="rotate(-9.8,332.5,1777.4)" >30</text>
<path d="M559.195,1714.733 A965.000,965.000 40.000 0,1 541.802,1614.372 L382.929,1633.336 A1125.000,1125.000 0.000 0,0 403.206,1750.336 Z" style="stroke-width:2.0;stroke:rgb(115,115,115);stroke-linecap:round;fill:none;" />
<path d="M535.972,1543.295 A965.000,965.000 40.000 0,1 536.778,1441.441 L377.073,1431.732 A1125.000,1125.000 0.000 0,0 376.133,1550.473 Z" style="stroke-width:2.0;stroke:rgb(115,115,115);stroke-linecap:round;fill:rgb(253,141,60);" />
<text x="301.7" y="1564.5" font-size="195.0px" font-family="CMUBright-Bold" style="text-anchor:end;fill:rgb(0,0,0);" transform="rotate(0.5,301.7,1564.5)" >31</text>
<path d="M535.972,1543.295 A965.000,965.000 40.000 0,1 536.778,1441.441 L377.073,1431.732 A1125.000,1125.000 0.000 0,0 376.133,1550.473 Z" style="stroke-width:2.0;stroke:rgb(115,115,115);stroke-linecap:round;fill:none;" />
<path d="M543.733,1370.465 A965.000,965.000 40.000 0,1 562.714,1270.393 L407.309,1232.323 A1125.000,1125.000 0.000 0,0 385.182,1348.988 Z" style="stroke-width:2.0;stroke:rgb(115,115,115);stroke-linecap:round;fill:rgb(253,141,60);" />
<text x="309.5" y="1349.5" font-size="195.0px" font-family="CMUBright-Bold" style="text-anchor:end;fill:rgb(0,0,0);" transform="rotate(10.7,309.5,1349.5)" >32</text>
<path d="M543.733,1370.465 A965.000,965.000 40.000 0,1 562.714,1270.393 L407.309,1232.323 A1125.000,1125.000 0.000 0,0 385.182,1348.988 Z" style="stroke-width:2.0;stroke:rgb(115,115,115);stroke-linecap:round;fill:none;" />
<path d="M582.230,1201.799 A965.000,965.000 40.000 0,1 618.774,1106.724 L472.664,1041.517 A1125.000,1125.000 0.000 0,0 430.061,1152.356 Z" style="stroke-width:2.0;stroke:rgb(115,115,115);stroke-linecap:round;fill:rgb(253,141,60);" />
<text x="355.5" y="1139.3" font-size="195.0px" font-family="CMUBright-Bold" style="text-anchor:end;fill:rgb(0,0,0);" transform="rotate(21.0,355.5,1139.3)" >33</text>
<path d="M582.230,1201.799 A965.000,965.000 40.000 0,1 618.774,1106.724 L472.664,1041.517 A1125.000,1125.000 0.000 0,0 430.061,1152.356 Z" style="stroke-width:2.0;stroke:rgb(115,115,115);stroke-linecap:round;fill:none;" />
<path d="M650.225,1042.717 A965.000,965.000 40.000 0,1 703.158,955.695 L571.039,865.447 A1125.000,1125.000 0.000 0,0 509.330,966.898 Z" style="stroke-width:2.0;stroke:rgb(115,115,115);stroke-linecap:round;fill:rgb(66,146,198);" />
<text x="439.2" y="939.0" font-size="195.0px" font-family="CMUBright-Bold" style="text-anchor:end;fill:rgb(0,0,0);" transform="rotate(31.3,439.2,939.0)" >11</text>
<path d="M650.225,1042.717 A965.000,965.000 40.000 0,1 703.158,955.695 L571.039,865.447 A1125.000,1125.000 0.000 0,0 509.330,966.898 Z" style="stroke-width:2.0;stroke:rgb(115,115,115);stroke-linecap:round;fill:none;" />
<path d="M745.533,898.332 A965.000,965.000 40.000 0,1 813.153,822.160 L699.272,709.772 A1125.000,1125.000 0.000 0,0 620.440,798.574 Z" style="stroke-width:2.0;stroke:rgb(115,115,115);stroke-linecap:round;fill:rgb(66,146,198);" />
<text x="555.2" y="760.2" font-size="195.0px" font-family="CMUBright-Bold" style="text-anchor:end;fill:rgb(0,0,0);" transform="rotate(41.6,555.2,760.2)" >15</text>
<path d="M745.533,898.332 A965.000,965.000 40.000 0,1 813.153,822.160 L699.272,709.772 A1125.000,1125.000 0.000 0,0 620.440,798.574 Z" style="stroke-width:2.0;stroke:rgb(115,115,115);stroke-linecap:round;fill:none;" />
<path d="M865.089,773.286 A965.000,965.000 40.000 0,1 945.224,710.412 L853.241,579.496 A1125.000,1125.000 0.000 0,0 759.819,652.795 Z" style="stroke-width:2.0;stroke:rgb(115,115,115);stroke-linecap:round;fill:rgb(66,146,198);" />
<text x="704.0" y="602.0" font-size="195.0px" font-family="CMUBright-Bold" style="text-anchor:end;fill:rgb(0,0,0);" transform="rotate(51.9,704.0,602.0)" >22</text>
<path d="M865.089,773.286 A965.000,965.000 40.000 0,1 945.224,710.412 L853.241,579.496 A1125.000,1125.000 0.000 0,0 759.819,652.795 Z" style="stroke-width:2.0;stroke:rgb(115,115,115);stroke-linecap:round;fill:none;" />
<path d="M1005.052,671.597 A965.000,965.000 40.000 0,1 1095.126,624.042 L1027.997,478.806 A1125.000,1125.000 0.000 0,0 922.988,534.245 Z" style="stroke-width:2.0;stroke:rgb(115,115,115);stroke-linecap:round;fill:rgb(66,146,198);" />
<text x="877.1" y="474.3" font-size="195.0px" font-family="CMUBright-Bold" style="text-anchor:end;fill:rgb(0,0,0);" transform="rotate(62.2,877.1,474.3)" >24</text>
<path d="M1005.052,671.597 A965.000,965.000 40.000 0,1 1095.126,624.042 L1027.997,478.806 A1125.000,1125.000 0.000 0,0 922.988,534.245 Z" style="stroke-width:2.0;stroke:rgb(115,115,115);stroke-linecap:round;fill:none;" />
<path d="M1160.923,596.533 A965.000,965.000 40.000 0,1 1258.041,565.826 L1217.923,410.937 A1125.000,1125.000 0.000 0,0 1104.703,446.736 Z" style="stroke-width:2.0;stroke:rgb(115,115,115);stroke-linecap:round;fill:rgb(66,146,198);" />
<text x="1068.4" y="380.3" font-size="195.0px" font-family="CMUBright-Bold" style="text-anchor:end;fill:rgb(0,0,0);" transform="rotate(72.5,1068.4,380.3)" >25</text>
<path d="M1160.923,596.533 A965.000,965.000 40.000 0,1 1258.041,565.826 L1217.923,410.937 A1125.000,1125.000 0.000 0,0 1104.703,446.736 Z" style="stroke-width:2.0;stroke:rgb(115,115,115);stroke-linecap:round;fill:none;" />
<path d="M1327.693,550.508 A965.000,965.000 40.000 0,1 1428.732,537.635 L1416.916,378.072 A1125.000,1125.000 0.000 0,0 1299.123,393.079 Z" style="stroke-width:2.0;stroke:rgb(115,115,115);stroke-linecap:round;fill:rgb(66,146,198);" />
<text x="1275.3" y="321.2" font-size="195.0px" font-family="CMUBright-Bold" style="text-anchor:end;fill:rgb(0,0,0);" transform="rotate(82.7,1275.3,321.2)" >26</text>
<path d="M1327.693,550.508 A965.000,965.000 40.000 0,1 1428.732,537.635 L1416.916,378.072 A1125.000,1125.000 0.000 0,0 1299.123,393.079 Z" style="stroke-width:2.0;stroke:rgb(115,115,115);stroke-linecap:round;fill:none;" />
</g>
<g id="track_1">
<path d="M 2322.8,1904.3 L 2290.3,1888.7 2257.7,1873.7 2225.1,1859.5 2192.6,1846.3 2160.5,1834.1 2128.9,1823.0 2097.9,1813.3 2067.7,1804.9 2038.4,1798.0 2010.2,1792.7 1983.0,1789.0 1957.1,1787.0 1932.6,1786.7 1909.4,1788.2 1887.7,1791.5 1867.6,1796.7 1849.1,1803.8 1832.2,1812.7 1817.1,1823.5 1803.6,1836.1 1792.0,1850.6 1782.0,1866.9 1773.9,1884.9 1767.5,1904.7 1762.8,1926.2 1759.9,1949.2 1758.7,1973.7 1759.2,1999.7 1761.2,2027.0 1764.8,2055.5 1769.9,2085.2 1776.4,2115.8 1784.3,2147.3 1793.4,2179.6 1803.6,2212.3 1814.9,2245.5 1827.0,2279.0 1840.0,2312.5 1853.6,2345.8  " style="stroke-opacity: 1.000000; stroke-width: 5.0; stroke: rgb(251,106,74); fill: none"  />
<path d="M 2322.8,1904.3 L 2288.8,1888.1 2254.4,1872.7 2219.5,1858.3 2184.5,1844.9 2149.2,1832.7 2113.9,1821.8 2078.7,1812.3 2043.7,1804.3 2008.9,1797.9 1974.5,1793.1 1940.5,1790.1 1907.1,1788.9 1874.2,1789.5 1842.1,1792.0 1810.6,1796.5 1780.0,1802.9 1750.2,1811.2 1721.3,1821.5 1693.4,1833.7 1666.5,1847.9 1640.6,1864.1 1615.8,1882.1 1592.2,1902.0 1569.6,1923.7 1548.2,1947.2 1528.0,1972.3 1508.9,1999.1 1491.1,2027.4 1474.4,2057.2 1458.9,2088.3 1444.6,2120.6 1431.4,2154.0 1419.4,2188.4 1408.5,2223.7 1398.7,2259.7 1390.0,2296.2 1382.3,2333.1 1375.5,2370.3 1369.8,2407.5  " style="stroke-opacity: 1.000000; stroke-width: 5.0; stroke: rgb(251,106,74); fill: none"  />
<path d="M 2322.8,1904.3 L 2286.8,1887.1 2250.1,1870.6 2212.8,1855.0 2174.9,1840.3 2136.5,1826.6 2097.7,1814.0 2058.6,1802.6 2019.1,1792.5 1979.4,1783.7 1939.5,1776.3 1899.5,1770.3 1859.5,1765.9 1819.4,1763.0 1779.4,1761.6 1739.4,1761.9 1699.7,1763.8 1660.1,1767.3 1620.8,1772.5 1581.7,1779.4 1543.0,1787.9 1504.7,1798.0 1466.8,1809.8 1429.4,1823.2 1392.5,1838.2 1356.2,1854.7 1320.4,1872.7 1285.2,1892.2 1250.7,1913.0 1216.9,1935.2 1183.8,1958.7 1151.5,1983.3 1119.9,2009.1 1089.2,2035.8 1059.2,2063.5 1030.1,2092.1 1001.9,2121.3 974.6,2151.2 948.2,2181.5 922.8,2212.2  " style="stroke-opacity: 1.000000; stroke-width: 5.0; stroke: rgb(251,106,74); fill: none"  />
<path d="M 2237.4,2044.7 L 2207.9,2022.4 2178.8,1999.4 2150.5,1975.7 2123.1,1951.4 2096.7,1926.6 2071.5,1901.4 2047.7,1875.7 2025.4,1849.6 2004.7,1823.2 1985.8,1796.6 1968.7,1769.8 1953.6,1742.8 1940.6,1715.7 1929.6,1688.5 1920.8,1661.3 1914.2,1634.2 1909.9,1607.1 1907.9,1580.2 1908.2,1553.4 1910.8,1526.8 1915.7,1500.5 1922.9,1474.5 1932.4,1448.8 1944.1,1423.4 1958.0,1398.5 1974.0,1373.9 1992.1,1349.9 2012.2,1326.4 2034.2,1303.3 2057.9,1280.9 2083.3,1259.0 2110.2,1237.8 2138.6,1217.2 2168.2,1197.3 2198.9,1178.1 2230.5,1159.6 2262.9,1141.9 2295.8,1125.0 2329.1,1108.8  " style="stroke-opacity: 1.000000; stroke-width: 5.0; stroke: rgb(251,106,74); fill: none"  />
<path d="M 1711.1,607.9 L 1701.9,648.5 1693.3,689.7 1685.6,731.4 1678.7,773.5 1672.6,816.0 1667.6,858.8 1663.5,901.9 1660.4,945.2 1658.4,988.7 1657.5,1032.4 1657.8,1076.1 1659.2,1119.8 1661.9,1163.5 1665.7,1207.1 1670.8,1250.7 1677.1,1294.0 1684.7,1337.2 1693.6,1380.2 1703.6,1422.8 1715.0,1465.2 1727.5,1507.2 1741.3,1548.8 1756.3,1590.0 1772.5,1630.8 1789.8,1671.0 1808.3,1710.8 1827.8,1750.0 1848.4,1788.6 1870.0,1826.6 1892.5,1863.9 1915.9,1900.6 1940.2,1936.6 1965.3,1971.9 1991.1,2006.5 2017.5,2040.3 2044.5,2073.3 2072.1,2105.6 2100.0,2137.0 2128.3,2167.6  " style="stroke-opacity: 1.000000; stroke-width: 5.0; stroke: rgb(251,106,74); fill: none"  />
<path d="M 2128.3,2167.6 L 2100.0,2137.0 2072.1,2105.6 2044.5,2073.3 2017.5,2040.3 1991.1,2006.5 1965.3,1971.9 1940.2,1936.6 1915.9,1900.6 1892.5,1863.9 1870.0,1826.6 1848.4,1788.6 1827.8,1750.0 1808.3,1710.8 1789.8,1671.0 1772.5,1630.8 1756.3,1590.0 1741.3,1548.8 1727.5,1507.2 1715.0,1465.2 1703.6,1422.8 1693.6,1380.2 1684.7,1337.2 1677.1,1294.0 1670.8,1250.7 1665.7,1207.1 1661.9,1163.5 1659.2,1119.8 1657.8,1076.1 1657.5,1032.4 1658.4,988.7 1660.4,945.2 1663.5,901.9 1667.6,858.8 1672.6,816.0 1678.7,773.5 1685.6,731.4 1693.3,689.7 1701.9,648.5 1711.1,607.9  " style="stroke-opacity: 1.000000; stroke-width: 5.0; stroke: rgb(251,106,74); fill: none"  />
<path d="M 2128.3,2167.6 L 2103.9,2141.9 2079.4,2116.7 2055.0,2092.0 2030.7,2068.1 2006.8,2045.2 1983.4,2023.5 1960.5,2003.0 1938.3,1984.0 1917.0,1966.6 1896.5,1950.8 1877.0,1936.9 1858.5,1924.8 1841.2,1914.7 1825.1,1906.7 1810.3,1900.8 1796.8,1897.0 1784.6,1895.4 1773.8,1896.1 1764.5,1899.0 1756.5,1904.1 1750.1,1911.5 1745.1,1921.0 1741.6,1932.8 1739.5,1946.7 1738.9,1962.6 1739.7,1980.6 1741.8,2000.5 1745.3,2022.3 1750.1,2045.8 1756.2,2070.9 1763.4,2097.6 1771.7,2125.5 1781.1,2154.8 1791.4,2185.0 1802.5,2216.2 1814.4,2248.0 1827.0,2280.4 1840.1,2313.1 1853.6,2345.8  " style="stroke-opacity: 1.000000; stroke-width: 5.0; stroke: rgb(251,106,74); fill: none"  />
<path d="M 2128.3,2167.6 L 2103.6,2141.8 2078.8,2116.5 2053.8,2091.8 2028.9,2068.1 2004.1,2045.4 1979.5,2023.9 1955.3,2003.8 1931.6,1985.2 1908.4,1968.3 1885.9,1953.1 1864.2,1939.9 1843.2,1928.6 1823.2,1919.3 1804.1,1912.2 1786.0,1907.3 1768.9,1904.7 1753.0,1904.3 1738.2,1906.2 1724.6,1910.4 1712.2,1917.0 1701.1,1925.8 1691.1,1936.9 1682.5,1950.3 1675.1,1965.9 1668.9,1983.6 1664.0,2003.4 1660.3,2025.2 1657.8,2048.8 1656.5,2074.3 1656.3,2101.4 1657.2,2130.1 1659.2,2160.1 1662.1,2191.4 1666.0,2223.8 1670.8,2257.1 1676.3,2291.1 1682.6,2325.6 1689.5,2360.5 1696.9,2395.4  " style="stroke-opacity: 1.000000; stroke-width: 5.0; stroke: rgb(251,106,74); fill: none"  />
<path d="M 2128.3,2167.6 L 2103.0,2141.3 2077.2,2115.6 2051.0,2090.6 2024.5,2066.6 1997.7,2043.7 1970.8,2022.1 1943.9,2001.9 1916.9,1983.3 1890.1,1966.4 1863.4,1951.3 1837.0,1938.1 1810.9,1927.0 1785.1,1917.9 1759.8,1911.0 1735.0,1906.3 1710.7,1903.8 1687.0,1903.7 1664.0,1905.9 1641.7,1910.4 1620.0,1917.2 1599.1,1926.4 1579.0,1937.8 1559.7,1951.6 1541.3,1967.5 1523.7,1985.6 1507.0,2005.8 1491.1,2028.1 1476.2,2052.2 1462.1,2078.2 1449.0,2105.9 1436.7,2135.1 1425.4,2165.9 1414.9,2197.9 1405.3,2231.0 1396.6,2265.1 1388.7,2300.0 1381.6,2335.5 1375.3,2371.4 1369.8,2407.5  " style="stroke-opacity: 1.000000; stroke-width: 5.0; stroke: rgb(251,106,74); fill: none"  />
<path d="M 2128.3,2167.6 L 2101.7,2140.0 2074.3,2113.0 2046.1,2086.7 2017.1,2061.2 1987.5,2036.7 1957.3,2013.3 1926.5,1991.1 1895.2,1970.3 1863.4,1951.0 1831.2,1933.3 1798.6,1917.2 1765.7,1902.8 1732.5,1890.3 1699.0,1879.6 1665.4,1870.8 1631.7,1863.9 1597.8,1859.1 1563.9,1856.3 1530.1,1855.5 1496.3,1856.7 1462.5,1860.0 1429.0,1865.4 1395.6,1872.7 1362.4,1882.0 1329.5,1893.2 1297.0,1906.4 1264.8,1921.4 1233.0,1938.1 1201.7,1956.6 1170.9,1976.6 1140.6,1998.3 1110.9,2021.3 1081.8,2045.6 1053.4,2071.2 1025.7,2097.8 998.8,2125.4 972.6,2153.7 947.2,2182.7 922.8,2212.2  " style="stroke-opacity: 1.000000; stroke-width: 5.0; stroke: rgb(251,106,74); fill: none"  />
<path d="M 1853.6,2345.8 L 1840.0,2312.5 1827.0,2279.0 1814.9,2245.5 1803.6,2212.3 1793.4,2179.6 1784.3,2147.3 1776.4,2115.8 1769.9,2085.2 1764.8,2055.5 1761.2,2027.0 1759.2,1999.7 1758.7,1973.7 1759.9,1949.2 1762.8,1926.2 1767.5,1904.7 1773.9,1884.9 1782.0,1866.9 1792.0,1850.6 1803.6,1836.1 1817.1,1823.5 1832.2,1812.7 1849.1,1803.8 1867.6,1796.7 1887.7,1791.5 1909.4,1788.2 1932.6,1786.7 1957.1,1787.0 1983.0,1789.0 2010.2,1792.7 2038.4,1798.0 2067.7,1804.9 2097.9,1813.3 2128.9,1823.0 2160.5,1834.1 2192.6,1846.3 2225.1,1859.5 2257.7,1873.7 2290.3,1888.7 2322.8,1904.3  " style="stroke-opacity: 1.000000; stroke-width: 5.0; stroke: rgb(251,106,74); fill: none"  />
<path d="M 1853.6,2345.8 L 1840.1,2313.1 1827.0,2280.4 1814.4,2248.0 1802.5,2216.2 1791.4,2185.0 1781.1,2154.8 1771.7,2125.5 1763.4,2097.6 1756.2,2070.9 1750.1,2045.8 1745.3,2022.3 1741.8,2000.5 1739.7,1980.6 1738.9,1962.6 1739.5,1946.7 1741.6,1932.8 1745.1,1921.0 1750.1,1911.5 1756.5,1904.1 1764.5,1899.0 1773.8,1896.1 1784.6,1895.4 1796.8,1897.0 1810.3,1900.8 1825.1,1906.7 1841.2,1914.7 1858.5,1924.8 1877.0,1936.9 1896.5,1950.8 1917.0,1966.6 1938.3,1984.0 1960.5,2003.0 1983.4,2023.5 2006.8,2045.2 2030.7,2068.1 2055.0,2092.0 2079.4,2116.7 2103.9,2141.9 2128.3,2167.6  " style="stroke-opacity: 1.000000; stroke-width: 5.0; stroke: rgb(251,106,74); fill: none"  />
<path d="M 1853.6,2345.8 L 1839.3,2310.3 1825.7,2274.2 1813.2,2237.7 1801.7,2200.9 1791.4,2163.9 1782.3,2126.8 1774.7,2089.7 1768.5,2052.6 1763.8,2015.7 1760.7,1979.0 1759.3,1942.7 1759.6,1906.8 1761.7,1871.3 1765.5,1836.4 1771.2,1802.2 1778.7,1768.6 1788.1,1735.7 1799.3,1703.6 1812.4,1672.3 1827.3,1642.0 1844.0,1612.5 1862.6,1584.0 1882.9,1556.5 1904.9,1530.0 1928.6,1504.6 1953.8,1480.2 1980.6,1456.9 2008.9,1434.8 2038.5,1413.7 2069.4,1393.7 2101.5,1374.9 2134.6,1357.1 2168.7,1340.5 2203.6,1325.0 2239.2,1310.5 2275.4,1297.1 2311.9,1284.8 2348.7,1273.5 2385.6,1263.1  " style="stroke-opacity: 1.000000; stroke-width: 5.0; stroke: rgb(251,106,74); fill: none"  />
<path d="M 1999.0,2269.1 L 1978.5,2236.7 1958.8,2203.6 1939.9,2170.0 1922.0,2135.8 1905.2,2101.2 1889.7,2066.3 1875.5,2031.1 1862.8,1995.8 1851.6,1960.3 1842.0,1924.8 1834.2,1889.3 1828.1,1853.9 1823.7,1818.6 1821.3,1783.6 1820.8,1748.9 1822.2,1714.5 1825.5,1680.5 1830.8,1646.9 1838.1,1613.8 1847.4,1581.2 1858.6,1549.3 1871.8,1517.9 1886.8,1487.2 1903.7,1457.3 1922.5,1428.0 1943.0,1399.5 1965.2,1371.8 1989.0,1344.9 2014.4,1318.9 2041.3,1293.8 2069.5,1269.5 2098.9,1246.1 2129.5,1223.7 2161.0,1202.2 2193.5,1181.6 2226.7,1161.9 2260.5,1143.3 2294.6,1125.6 2329.1,1108.8  " style="stroke-opacity: 1.000000; stroke-width: 5.0; stroke: rgb(251,106,74); fill: none"  />
<path d="M 1999.0,2269.1 L 1977.6,2235.4 1956.9,2200.9 1937.0,2165.7 1917.9,2129.8 1899.7,2093.3 1882.7,2056.3 1866.7,2018.8 1852.0,1980.8 1838.5,1942.4 1826.4,1903.7 1815.8,1864.7 1806.6,1825.4 1799.0,1786.0 1792.9,1746.4 1788.4,1706.7 1785.6,1667.0 1784.4,1627.3 1784.9,1587.6 1787.1,1548.0 1791.0,1508.6 1796.5,1469.4 1803.7,1430.4 1812.6,1391.6 1823.1,1353.2 1835.2,1315.1 1848.8,1277.5 1864.0,1240.3 1880.6,1203.6 1898.6,1167.3 1918.0,1131.7 1938.6,1096.7 1960.4,1062.3 1983.4,1028.5 2007.3,995.5 2032.2,963.3 2057.9,931.8 2084.3,901.1 2111.3,871.3 2138.8,842.4  " style="stroke-opacity: 1.000000; stroke-width: 5.0; stroke: rgb(251,106,74); fill: none"  />
<path d="M 1696.9,2395.4 L 1689.5,2360.5 1682.6,2325.6 1676.3,2291.1 1670.8,2257.1 1666.0,2223.8 1662.1,2191.4 1659.2,2160.1 1657.2,2130.1 1656.3,2101.4 1656.5,2074.3 1657.8,2048.8 1660.3,2025.2 1664.0,2003.4 1668.9,1983.6 1675.1,1965.9 1682.5,1950.3 1691.1,1936.9 1701.1,1925.8 1712.2,1917.0 1724.6,1910.4 1738.2,1906.2 1753.0,1904.3 1768.9,1904.7 1786.0,1907.3 1804.1,1912.2 1823.2,1919.3 1843.2,1928.6 1864.2,1939.9 1885.9,1953.1 1908.4,1968.3 1931.6,1985.2 1955.3,2003.8 1979.5,2023.9 2004.1,2045.4 2028.9,2068.1 2053.8,2091.8 2078.8,2116.5 2103.6,2141.8 2128.3,2167.6  " style="stroke-opacity: 1.000000; stroke-width: 5.0; stroke: rgb(251,106,74); fill: none"  />
<path d="M 1696.9,2395.4 L 1688.8,2356.3 1681.5,2316.8 1675.2,2276.8 1669.9,2236.5 1665.8,2196.0 1662.8,2155.3 1661.0,2114.5 1660.6,2073.8 1661.5,2033.2 1663.8,1992.7 1667.5,1952.4 1672.7,1912.4 1679.4,1872.8 1687.6,1833.6 1697.4,1794.9 1708.7,1756.7 1721.6,1719.1 1736.0,1682.1 1751.9,1645.9 1769.4,1610.3 1788.4,1575.5 1808.8,1541.5 1830.7,1508.4 1854.0,1476.1 1878.7,1444.7 1904.7,1414.2 1932.0,1384.7 1960.5,1356.2 1990.1,1328.6 2020.7,1302.1 2052.3,1276.5 2084.9,1252.0 2118.2,1228.5 2152.2,1206.0 2186.9,1184.5 2222.0,1164.1 2257.5,1144.6 2293.2,1126.2 2329.1,1108.8  " style="stroke-opacity: 1.000000; stroke-width: 5.0; stroke: rgb(251,106,74); fill: none"  />
<path d="M 1696.9,2395.4 L 1689.1,2357.8 1682.3,2320.0 1676.4,2281.8 1671.7,2243.5 1668.1,2205.3 1665.9,2167.1 1665.0,2129.2 1665.5,2091.6 1667.5,2054.5 1671.0,2017.9 1676.1,1981.9 1682.8,1946.6 1691.1,1912.1 1701.2,1878.4 1712.9,1845.7 1726.3,1814.0 1741.4,1783.3 1758.1,1753.8 1776.6,1725.4 1796.7,1698.1 1818.4,1672.1 1841.8,1647.4 1866.6,1624.0 1893.0,1601.9 1920.8,1581.1 1950.1,1561.6 1980.6,1543.5 2012.3,1526.7 2045.2,1511.2 2079.2,1497.1 2114.1,1484.3 2149.9,1472.7 2186.4,1462.5 2223.6,1453.4 2261.2,1445.6 2299.1,1438.8 2337.3,1433.2 2375.5,1428.6 2413.7,1425.1  " style="stroke-opacity: 1.000000; stroke-width: 5.0; stroke: rgb(251,106,74); fill: none"  />
<path d="M 1696.9,2395.4 L 1689.3,2358.5 1682.5,2321.4 1676.8,2284.1 1672.1,2246.8 1668.6,2209.7 1666.4,2172.9 1665.6,2136.4 1666.2,2100.5 1668.2,2065.2 1671.8,2030.6 1677.0,1996.9 1683.7,1964.1 1692.2,1932.4 1702.3,1901.7 1714.1,1872.2 1727.5,1844.0 1742.7,1817.0 1759.6,1791.5 1778.1,1767.3 1798.3,1744.5 1820.2,1723.2 1843.6,1703.4 1868.5,1685.2 1895.0,1668.4 1922.9,1653.2 1952.1,1639.6 1982.6,1627.4 2014.4,1616.8 2047.2,1607.7 2081.1,1600.0 2115.9,1593.8 2151.6,1589.0 2187.8,1585.5 2224.7,1583.3 2262.0,1582.4 2299.5,1582.6 2337.2,1583.9 2374.9,1586.2 2412.4,1589.4  " style="stroke-opacity: 1.000000; stroke-width: 5.0; stroke: rgb(251,106,74); fill: none"  />
<path d="M 2329.1,1108.8 L 2295.8,1125.0 2262.9,1141.9 2230.5,1159.6 2198.9,1178.1 2168.2,1197.3 2138.6,1217.2 2110.2,1237.8 2083.3,1259.0 2057.9,1280.9 2034.2,1303.3 2012.2,1326.4 1992.1,1349.9 1974.0,1373.9 1958.0,1398.5 1944.1,1423.4 1932.4,1448.8 1922.9,1474.5 1915.7,1500.5 1910.8,1526.8 1908.2,1553.4 1907.9,1580.2 1909.9,1607.1 1914.2,1634.2 1920.8,1661.3 1929.6,1688.5 1940.6,1715.7 1953.6,1742.8 1968.7,1769.8 1985.8,1796.6 2004.7,1823.2 2025.4,1849.6 2047.7,1875.7 2071.5,1901.4 2096.7,1926.6 2123.1,1951.4 2150.5,1975.7 2178.8,1999.4 2207.9,2022.4 2237.4,2044.7  " style="stroke-opacity: 1.000000; stroke-width: 5.0; stroke: rgb(251,106,74); fill: none"  />
<path d="M 2329.1,1108.8 L 2294.6,1125.6 2260.5,1143.3 2226.7,1161.9 2193.5,1181.6 2161.0,1202.2 2129.5,1223.7 2098.9,1246.1 2069.5,1269.5 2041.3,1293.8 2014.4,1318.9 1989.0,1344.9 1965.2,1371.8 1943.0,1399.5 1922.5,1428.0 1903.7,1457.3 1886.8,1487.2 1871.8,1517.9 1858.6,1549.3 1847.4,1581.2 1838.1,1613.8 1830.8,1646.9 1825.5,1680.5 1822.2,1714.5 1820.8,1748.9 1821.3,1783.6 1823.7,1818.6 1828.1,1853.9 1834.2,1889.3 1842.0,1924.8 1851.6,1960.3 1862.8,1995.8 1875.5,2031.1 1889.7,2066.3 1905.2,2101.2 1922.0,2135.8 1939.9,2170.0 1958.8,2203.6 1978.5,2236.7 1999.0,2269.1  " style="stroke-opacity: 1.000000; stroke-width: 5.0; stroke: rgb(251,106,74); fill: none"  />
<path d="M 2329.1,1108.8 L 2293.2,1126.2 2257.5,1144.6 2222.0,1164.1 2186.9,1184.5 2152.2,1206.0 2118.2,1228.5 2084.9,1252.0 2052.3,1276.5 2020.7,1302.1 1990.1,1328.6 1960.5,1356.2 1932.0,1384.7 1904.7,1414.2 1878.7,1444.7 1854.0,1476.1 1830.7,1508.4 1808.8,1541.5 1788.4,1575.5 1769.4,1610.3 1751.9,1645.9 1736.0,1682.1 1721.6,1719.1 1708.7,1756.7 1697.4,1794.9 1687.6,1833.6 1679.4,1872.8 1672.7,1912.4 1667.5,1952.4 1663.8,1992.7 1661.5,2033.2 1660.6,2073.8 1661.0,2114.5 1662.8,2155.3 1665.8,2196.0 1669.9,2236.5 1675.2,2276.8 1681.5,2316.8 1688.8,2356.3 1696.9,2395.4  " style="stroke-opacity: 1.000000; stroke-width: 5.0; stroke: rgb(251,106,74); fill: none"  />
<path d="M 2329.1,1108.8 L 2292.4,1126.6 2255.8,1145.3 2219.4,1165.0 2183.2,1185.7 2147.4,1207.4 2112.1,1230.1 2077.3,1253.8 2043.1,1278.5 2009.7,1304.2 1977.0,1331.0 1945.2,1358.7 1914.3,1387.4 1884.4,1417.0 1855.5,1447.6 1827.7,1479.2 1801.0,1511.7 1775.5,1545.0 1751.2,1579.2 1728.2,1614.2 1706.4,1650.1 1685.9,1686.7 1666.7,1724.0 1648.8,1761.9 1632.2,1800.6 1617.0,1839.8 1603.1,1879.5 1590.5,1919.7 1579.2,1960.3 1569.2,2001.3 1560.5,2042.6 1553.1,2084.1 1546.8,2125.8 1541.8,2167.6 1537.9,2209.4 1535.1,2251.2 1533.3,2292.8 1532.6,2334.3 1532.8,2375.4 1533.9,2416.1  " style="stroke-opacity: 1.000000; stroke-width: 5.0; stroke: rgb(251,106,74); fill: none"  />
<path d="M 2329.1,1108.8 L 2289.8,1127.6 2250.4,1147.1 2211.1,1167.3 2171.7,1188.1 2132.4,1209.7 2093.3,1231.9 2054.2,1254.9 2015.4,1278.5 1976.9,1302.9 1938.6,1328.0 1900.6,1353.8 1862.9,1380.3 1825.7,1407.4 1788.8,1435.3 1752.4,1463.9 1716.5,1493.2 1681.0,1523.1 1646.1,1553.6 1611.7,1584.9 1577.9,1616.7 1544.7,1649.1 1512.1,1682.1 1480.0,1715.7 1448.7,1749.8 1417.9,1784.4 1387.9,1819.5 1358.4,1855.0 1329.7,1891.0 1301.7,1927.3 1274.3,1964.0 1247.7,2001.0 1221.7,2038.4 1196.4,2075.9 1171.8,2113.6 1148.0,2151.5 1124.8,2189.6 1102.2,2227.6 1080.4,2265.8 1059.2,2303.8  " style="stroke-opacity: 1.000000; stroke-width: 5.0; stroke: rgb(251,106,74); fill: none"  />
<path d="M 1533.9,2416.1 L 1532.8,2375.4 1532.6,2334.3 1533.3,2292.8 1535.1,2251.2 1537.9,2209.4 1541.8,2167.6 1546.8,2125.8 1553.1,2084.1 1560.5,2042.6 1569.2,2001.3 1579.2,1960.3 1590.5,1919.7 1603.1,1879.5 1617.0,1839.8 1632.2,1800.6 1648.8,1761.9 1666.7,1724.0 1685.9,1686.7 1706.4,1650.1 1728.2,1614.2 1751.2,1579.2 1775.5,1545.0 1801.0,1511.7 1827.7,1479.2 1855.5,1447.6 1884.4,1417.0 1914.3,1387.4 1945.2,1358.7 1977.0,1331.0 2009.7,1304.2 2043.1,1278.5 2077.3,1253.8 2112.1,1230.1 2147.4,1207.4 2183.2,1185.7 2219.4,1165.0 2255.8,1145.3 2292.4,1126.6 2329.1,1108.8  " style="stroke-opacity: 1.000000; stroke-width: 5.0; stroke: rgb(251,106,74); fill: none"  />
<path d="M 1369.8,2407.5 L 1375.5,2370.3 1382.3,2333.1 1390.0,2296.2 1398.7,2259.7 1408.5,2223.7 1419.4,2188.4 1431.4,2154.0 1444.6,2120.6 1458.9,2088.3 1474.4,2057.2 1491.1,2027.4 1508.9,1999.1 1528.0,1972.3 1548.2,1947.2 1569.6,1923.7 1592.2,1902.0 1615.8,1882.1 1640.6,1864.1 1666.5,1847.9 1693.4,1833.7 1721.3,1821.5 1750.2,1811.2 1780.0,1802.9 1810.6,1796.5 1842.1,1792.0 1874.2,1789.5 1907.1,1788.9 1940.5,1790.1 1974.5,1793.1 2008.9,1797.9 2043.7,1804.3 2078.7,1812.3 2113.9,1821.8 2149.2,1832.7 2184.5,1844.9 2219.5,1858.3 2254.4,1872.7 2288.8,1888.1 2322.8,1904.3  " style="stroke-opacity: 1.000000; stroke-width: 5.0; stroke: rgb(251,106,74); fill: none"  />
<path d="M 1369.8,2407.5 L 1375.3,2371.4 1381.6,2335.5 1388.7,2300.0 1396.6,2265.1 1405.3,2231.0 1414.9,2197.9 1425.4,2165.9 1436.7,2135.1 1449.0,2105.9 1462.1,2078.2 1476.2,2052.2 1491.1,2028.1 1507.0,2005.8 1523.7,1985.6 1541.3,1967.5 1559.7,1951.6 1579.0,1937.8 1599.1,1926.4 1620.0,1917.2 1641.7,1910.4 1664.0,1905.9 1687.0,1903.7 1710.7,1903.8 1735.0,1906.3 1759.8,1911.0 1785.1,1917.9 1810.9,1927.0 1837.0,1938.1 1863.4,1951.3 1890.1,1966.4 1916.9,1983.3 1943.9,2001.9 1970.8,2022.1 1997.7,2043.7 2024.5,2066.6 2051.0,2090.6 2077.2,2115.6 2103.0,2141.3 2128.3,2167.6  " style="stroke-opacity: 1.000000; stroke-width: 5.0; stroke: rgb(251,106,74); fill: none"  />
<path d="M 2385.6,1263.1 L 2348.7,1273.5 2311.9,1284.8 2275.4,1297.1 2239.2,1310.5 2203.6,1325.0 2168.7,1340.5 2134.6,1357.1 2101.5,1374.9 2069.4,1393.7 2038.5,1413.7 2008.9,1434.8 1980.6,1456.9 1953.8,1480.2 1928.6,1504.6 1904.9,1530.0 1882.9,1556.5 1862.6,1584.0 1844.0,1612.5 1827.3,1642.0 1812.4,1672.3 1799.3,1703.6 1788.1,1735.7 1778.7,1768.6 1771.2,1802.2 1765.5,1836.4 1761.7,1871.3 1759.6,1906.8 1759.3,1942.7 1760.7,1979.0 1763.8,2015.7 1768.5,2052.6 1774.7,2089.7 1782.3,2126.8 1791.4,2163.9 1801.7,2200.9 1813.2,2237.7 1825.7,2274.2 1839.3,2310.3 1853.6,2345.8  " style="stroke-opacity: 1.000000; stroke-width: 5.0; stroke: rgb(251,106,74); fill: none"  />
<path d="M 2385.6,1263.1 L 2343.6,1274.6 2301.4,1286.8 2259.0,1299.6 2216.6,1313.1 2174.1,1327.3 2131.6,1342.2 2089.1,1357.8 2046.7,1374.1 2004.4,1391.2 1962.2,1409.0 1920.3,1427.6 1878.5,1447.0 1837.0,1467.1 1795.7,1487.9 1754.8,1509.6 1714.2,1531.9 1674.0,1555.0 1634.2,1578.9 1594.8,1603.4 1555.8,1628.7 1517.3,1654.7 1479.3,1681.3 1441.8,1708.6 1404.9,1736.6 1368.5,1765.2 1332.6,1794.3 1297.3,1824.0 1262.6,1854.3 1228.6,1885.0 1195.1,1916.3 1162.3,1947.9 1130.0,1980.0 1098.5,2012.4 1067.5,2045.2 1037.3,2078.2 1007.7,2111.5 978.7,2144.9 950.4,2178.5 922.8,2212.2  " style="stroke-opacity: 1.000000; stroke-width: 5.0; stroke: rgb(251,106,74); fill: none"  />
<path d="M 2138.8,842.4 L 2111.3,871.3 2084.3,901.1 2057.9,931.8 2032.2,963.3 2007.3,995.5 1983.4,1028.5 1960.4,1062.3 1938.6,1096.7 1918.0,1131.7 1898.6,1167.3 1880.6,1203.6 1864.0,1240.3 1848.8,1277.5 1835.2,1315.1 1823.1,1353.2 1812.6,1391.6 1803.7,1430.4 1796.5,1469.4 1791.0,1508.6 1787.1,1548.0 1784.9,1587.6 1784.4,1627.3 1785.6,1667.0 1788.4,1706.7 1792.9,1746.4 1799.0,1786.0 1806.6,1825.4 1815.8,1864.7 1826.4,1903.7 1838.5,1942.4 1852.0,1980.8 1866.7,2018.8 1882.7,2056.3 1899.7,2093.3 1917.9,2129.8 1937.0,2165.7 1956.9,2200.9 1977.6,2235.4 1999.0,2269.1  " style="stroke-opacity: 1.000000; stroke-width: 5.0; stroke: rgb(251,106,74); fill: none"  />
<path d="M 1059.2,2303.8 L 1080.4,2265.8 1102.2,2227.6 1124.8,2189.6 1148.0,2151.5 1171.8,2113.6 1196.4,2075.9 1221.7,2038.4 1247.7,2001.0 1274.3,1964.0 1301.7,1927.3 1329.7,1891.0 1358.4,1855.0 1387.9,1819.5 1417.9,1784.4 1448.7,1749.8 1480.0,1715.7 1512.1,1682.1 1544.7,1649.1 1577.9,1616.7 1611.7,1584.9 1646.1,1553.6 1681.0,1523.1 1716.5,1493.2 1752.4,1463.9 1788.8,1435.3 1825.7,1407.4 1862.9,1380.3 1900.6,1353.8 1938.6,1328.0 1976.9,1302.9 2015.4,1278.5 2054.2,1254.9 2093.3,1231.9 2132.4,1209.7 2171.7,1188.1 2211.1,1167.3 2250.4,1147.1 2289.8,1127.6 2329.1,1108.8  " style="stroke-opacity: 1.000000; stroke-width: 5.0; stroke: rgb(251,106,74); fill: none"  />
<path d="M 2413.7,1425.1 L 2375.5,1428.6 2337.3,1433.2 2299.1,1438.8 2261.2,1445.6 2223.6,1453.4 2186.4,1462.5 2149.9,1472.7 2114.1,1484.3 2079.2,1497.1 2045.2,1511.2 2012.3,1526.7 1980.6,1543.5 1950.1,1561.6 1920.8,1581.1 1893.0,1601.9 1866.6,1624.0 1841.8,1647.4 1818.4,1672.1 1796.7,1698.1 1776.6,1725.4 1758.1,1753.8 1741.4,1783.3 1726.3,1814.0 1712.9,1845.7 1701.2,1878.4 1691.1,1912.1 1682.8,1946.6 1676.1,1981.9 1671.0,2017.9 1667.5,2054.5 1665.5,2091.6 1665.0,2129.2 1665.9,2167.1 1668.1,2205.3 1671.7,2243.5 1676.4,2281.8 1682.3,2320.0 1689.1,2357.8 1696.9,2395.4  " style="stroke-opacity: 1.000000; stroke-width: 5.0; stroke: rgb(251,106,74); fill: none"  />
<path d="M 2413.7,1425.1 L 2371.3,1428.9 2328.5,1433.4 2285.5,1438.7 2242.3,1444.8 2198.9,1451.8 2155.5,1459.6 2112.0,1468.2 2068.5,1477.8 2025.0,1488.3 1981.7,1499.8 1938.5,1512.2 1895.5,1525.6 1852.7,1540.0 1810.2,1555.3 1768.0,1571.6 1726.2,1588.9 1684.7,1607.2 1643.7,1626.5 1603.1,1646.7 1563.0,1667.9 1523.4,1690.0 1484.3,1713.0 1445.9,1736.9 1408.0,1761.7 1370.7,1787.4 1334.0,1813.8 1298.1,1841.0 1262.7,1869.0 1228.1,1897.6 1194.2,1927.0 1161.0,1956.9 1128.6,1987.4 1096.9,2018.4 1065.9,2049.9 1035.8,2081.8 1006.3,2114.1 977.7,2146.6 949.8,2179.3 922.8,2212.2  " style="stroke-opacity: 1.000000; stroke-width: 5.0; stroke: rgb(251,106,74); fill: none"  />
<path d="M 2412.4,1589.4 L 2374.9,1586.2 2337.2,1583.9 2299.5,1582.6 2262.0,1582.4 2224.7,1583.3 2187.8,1585.5 2151.6,1589.0 2115.9,1593.8 2081.1,1600.0 2047.2,1607.7 2014.4,1616.8 1982.6,1627.4 1952.1,1639.6 1922.9,1653.2 1895.0,1668.4 1868.5,1685.2 1843.6,1703.4 1820.2,1723.2 1798.3,1744.5 1778.1,1767.3 1759.6,1791.5 1742.7,1817.0 1727.5,1844.0 1714.1,1872.2 1702.3,1901.7 1692.2,1932.4 1683.7,1964.1 1677.0,1996.9 1671.8,2030.6 1668.2,2065.2 1666.2,2100.5 1665.6,2136.4 1666.4,2172.9 1668.6,2209.7 1672.1,2246.8 1676.8,2284.1 1682.5,2321.4 1689.3,2358.5 1696.9,2395.4  " style="stroke-opacity: 1.000000; stroke-width: 5.0; stroke: rgb(251,106,74); fill: none"  />
<path d="M 2381.8,1750.9 L 2342.4,1740.1 2302.6,1730.2 2262.1,1721.0 2221.3,1712.8 2180.1,1705.6 2138.5,1699.4 2096.7,1694.4 2054.7,1690.5 2012.6,1687.9 1970.4,1686.5 1928.2,1686.5 1886.1,1687.8 1844.1,1690.4 1802.2,1694.5 1760.5,1699.9 1719.0,1706.8 1677.9,1715.2 1637.1,1724.9 1596.7,1736.2 1556.7,1748.8 1517.2,1762.9 1478.2,1778.3 1439.7,1795.2 1401.8,1813.3 1364.6,1832.8 1328.0,1853.6 1292.0,1875.6 1256.8,1898.8 1222.3,1923.1 1188.6,1948.4 1155.7,1974.8 1123.5,2002.1 1092.2,2030.3 1061.8,2059.2 1032.2,2088.8 1003.5,2119.0 975.7,2149.7 948.7,2180.8 922.8,2212.2  " style="stroke-opacity: 1.000000; stroke-width: 5.0; stroke: rgb(251,106,74); fill: none"  />
<path d="M 922.8,2212.2 L 948.2,2181.5 974.6,2151.2 1001.9,2121.3 1030.1,2092.1 1059.2,2063.5 1089.2,2035.8 1119.9,2009.1 1151.5,1983.3 1183.8,1958.7 1216.9,1935.2 1250.7,1913.0 1285.2,1892.2 1320.4,1872.7 1356.2,1854.7 1392.5,1838.2 1429.4,1823.2 1466.8,1809.8 1504.7,1798.0 1543.0,1787.9 1581.7,1779.4 1620.8,1772.5 1660.1,1767.3 1699.7,1763.8 1739.4,1761.9 1779.4,1761.6 1819.4,1763.0 1859.5,1765.9 1899.5,1770.3 1939.5,1776.3 1979.4,1783.7 2019.1,1792.5 2058.6,1802.6 2097.7,1814.0 2136.5,1826.6 2174.9,1840.3 2212.8,1855.0 2250.1,1870.6 2286.8,1887.1 2322.8,1904.3  " style="stroke-opacity: 1.000000; stroke-width: 5.0; stroke: rgb(251,106,74); fill: none"  />
<path d="M 922.8,2212.2 L 947.2,2182.7 972.6,2153.7 998.8,2125.4 1025.7,2097.8 1053.4,2071.2 1081.8,2045.6 1110.9,2021.3 1140.6,1998.3 1170.9,1976.6 1201.7,1956.6 1233.0,1938.1 1264.8,1921.4 1297.0,1906.4 1329.5,1893.2 1362.4,1882.0 1395.6,1872.7 1429.0,1865.4 1462.5,1860.0 1496.3,1856.7 1530.1,1855.5 1563.9,1856.3 1597.8,1859.1 1631.7,1863.9 1665.4,1870.8 1699.0,1879.6 1732.5,1890.3 1765.7,1902.8 1798.6,1917.2 1831.2,1933.3 1863.4,1951.0 1895.2,1970.3 1926.5,1991.1 1957.3,2013.3 1987.5,2036.7 2017.1,2061.2 2046.1,2086.7 2074.3,2113.0 2101.7,2140.0 2128.3,2167.6  " style="stroke-opacity: 1.000000; stroke-width: 5.0; stroke: rgb(251,106,74); fill: none"  />
<path d="M 922.8,2212.2 L 950.4,2178.5 978.7,2144.9 1007.7,2111.5 1037.3,2078.2 1067.5,2045.2 1098.5,2012.4 1130.0,1980.0 1162.3,1947.9 1195.1,1916.3 1228.6,1885.0 1262.6,1854.3 1297.3,1824.0 1332.6,1794.3 1368.5,1765.2 1404.9,1736.6 1441.8,1708.6 1479.3,1681.3 1517.3,1654.7 1555.8,1628.7 1594.8,1603.4 1634.2,1578.9 1674.0,1555.0 1714.2,1531.9 1754.8,1509.6 1795.7,1487.9 1837.0,1467.1 1878.5,1447.0 1920.3,1427.6 1962.2,1409.0 2004.4,1391.2 2046.7,1374.1 2089.1,1357.8 2131.6,1342.2 2174.1,1327.3 2216.6,1313.1 2259.0,1299.6 2301.4,1286.8 2343.6,1274.6 2385.6,1263.1  " style="stroke-opacity: 1.000000; stroke-width: 5.0; stroke: rgb(251,106,74); fill: none"  />
<path d="M 922.8,2212.2 L 949.8,2179.3 977.7,2146.6 1006.3,2114.1 1035.8,2081.8 1065.9,2049.9 1096.9,2018.4 1128.6,1987.4 1161.0,1956.9 1194.2,1927.0 1228.1,1897.6 1262.7,1869.0 1298.1,1841.0 1334.0,1813.8 1370.7,1787.4 1408.0,1761.7 1445.9,1736.9 1484.3,1713.0 1523.4,1690.0 1563.0,1667.9 1603.1,1646.7 1643.7,1626.5 1684.7,1607.2 1726.2,1588.9 1768.0,1571.6 1810.2,1555.3 1852.7,1540.0 1895.5,1525.6 1938.5,1512.2 1981.7,1499.8 2025.0,1488.3 2068.5,1477.8 2112.0,1468.2 2155.5,1459.6 2198.9,1451.8 2242.3,1444.8 2285.5,1438.7 2328.5,1433.4 2371.3,1428.9 2413.7,1425.1  " style="stroke-opacity: 1.000000; stroke-width: 5.0; stroke: rgb(251,106,74); fill: none"  />
<path d="M 922.8,2212.2 L 948.7,2180.8 975.7,2149.7 1003.5,2119.0 1032.2,2088.8 1061.8,2059.2 1092.2,2030.3 1123.5,2002.1 1155.7,1974.8 1188.6,1948.4 1222.3,1923.1 1256.8,1898.8 1292.0,1875.6 1328.0,1853.6 1364.6,1832.8 1401.8,1813.3 1439.7,1795.2 1478.2,1778.3 1517.2,1762.9 1556.7,1748.8 1596.7,1736.2 1637.1,1724.9 1677.9,1715.2 1719.0,1706.8 1760.5,1699.9 1802.2,1694.5 1844.1,1690.4 1886.1,1687.8 1928.2,1686.5 1970.4,1686.5 2012.6,1687.9 2054.7,1690.5 2096.7,1694.4 2138.5,1699.4 2180.1,1705.6 2221.3,1712.8 2262.1,1721.0 2302.6,1730.2 2342.4,1740.1 2381.8,1750.9  " style="stroke-opacity: 1.000000; stroke-width: 5.0; stroke: rgb(251,106,74); fill: none"  />
</g>
<g id="track_0">
<path d="M 2237.4,2044.7 L 2208.8,2023.8 2180.2,2003.3 2151.7,1983.4 2123.6,1964.2 2096.0,1946.0 2069.1,1928.8 2042.9,1912.7 2017.7,1898.0 1993.6,1884.6 1970.6,1872.8 1948.9,1862.6 1928.6,1854.0 1909.8,1847.1 1892.5,1842.1 1876.8,1838.9 1862.9,1837.6 1850.6,1838.2 1840.1,1840.8 1831.4,1845.3 1824.6,1851.8 1819.5,1860.2 1816.3,1870.5 1815.0,1882.7 1815.4,1896.7 1817.7,1912.5 1821.6,1930.1 1827.3,1949.3 1834.6,1970.1 1843.6,1992.4 1854.0,2016.0 1865.8,2040.9 1879.0,2067.0 1893.5,2094.1 1909.0,2122.0 1925.5,2150.7 1943.0,2179.9 1961.1,2209.5 1979.8,2239.3 1999.0,2269.1  " style="stroke-opacity: 1.000000; stroke-width: 5.0; stroke: rgb(107,174,214); fill: none"  />
<path d="M 1867.0,659.9 L 1852.9,692.4 1839.3,724.9 1826.3,757.0 1813.8,788.7 1802.2,819.7 1791.4,849.8 1781.6,878.8 1772.8,906.7 1765.2,933.2 1758.7,958.2 1753.6,981.7 1749.7,1003.4 1747.2,1023.2 1746.2,1041.2 1746.6,1057.2 1748.4,1071.1 1751.7,1082.9 1756.6,1092.6 1762.9,1100.0 1770.7,1105.3 1780.0,1108.3 1790.8,1109.1 1803.0,1107.8 1816.6,1104.2 1831.5,1098.5 1847.7,1090.7 1865.2,1080.9 1883.8,1069.1 1903.6,1055.5 1924.3,1040.1 1946.0,1023.0 1968.4,1004.3 1991.6,984.2 2015.4,962.8 2039.7,940.3 2064.3,916.9 2089.1,892.6 2114.0,867.7 2138.8,842.4  " style="stroke-opacity: 1.000000; stroke-width: 5.0; stroke: rgb(107,174,214); fill: none"  />
<path d="M 1867.0,659.9 L 1852.9,692.7 1839.4,725.5 1826.5,758.1 1814.5,790.4 1803.4,822.2 1793.3,853.2 1784.3,883.3 1776.5,912.4 1770.1,940.4 1765.0,967.0 1761.3,992.2 1759.2,1015.9 1758.6,1038.0 1759.6,1058.4 1762.2,1077.0 1766.4,1093.7 1772.3,1108.5 1779.9,1121.3 1789.1,1132.2 1800.0,1141.0 1812.5,1147.8 1826.7,1152.5 1842.4,1155.2 1859.6,1155.9 1878.3,1154.6 1898.4,1151.4 1919.9,1146.2 1942.6,1139.2 1966.6,1130.4 1991.6,1119.9 2017.6,1107.8 2044.5,1094.2 2072.1,1079.2 2100.3,1062.9 2129.1,1045.4 2158.2,1026.9 2187.4,1007.6 2216.7,987.6 2245.9,967.0  " style="stroke-opacity: 1.000000; stroke-width: 5.0; stroke: rgb(107,174,214); fill: none"  />
<path d="M 1853.6,2345.8 L 1839.9,2313.3 1826.2,2281.1 1812.5,2249.5 1798.9,2218.6 1785.4,2188.7 1772.2,2160.0 1759.4,2132.7 1746.9,2106.9 1734.8,2082.9 1723.3,2060.7 1712.3,2040.5 1701.8,2022.4 1692.1,2006.5 1683.0,1992.9 1674.6,1981.7 1666.9,1973.0 1660.0,1966.7 1653.9,1963.0 1648.5,1961.9 1644.0,1963.3 1640.3,1967.3 1637.4,1973.9 1635.4,1982.9 1634.1,1994.5 1633.7,2008.5 1634.0,2024.9 1635.2,2043.5 1637.1,2064.3 1639.7,2087.1 1643.0,2111.9 1646.9,2138.5 1651.5,2166.8 1656.7,2196.5 1662.4,2227.6 1668.6,2259.8 1675.2,2292.9 1682.2,2326.6 1689.4,2360.9 1696.9,2395.4  " style="stroke-opacity: 1.000000; stroke-width: 5.0; stroke: rgb(107,174,214); fill: none"  />
<path d="M 1853.6,2345.8 L 1839.6,2313.0 1825.3,2280.5 1810.5,2248.7 1795.5,2217.7 1780.3,2187.7 1764.8,2159.0 1749.3,2131.7 1733.6,2105.9 1717.9,2081.9 1702.1,2059.9 1686.4,2039.8 1670.8,2021.9 1655.2,2006.2 1639.8,1992.8 1624.6,1981.8 1609.6,1973.4 1594.8,1967.4 1580.3,1964.0 1566.1,1963.2 1552.2,1964.9 1538.6,1969.3 1525.4,1976.2 1512.6,1985.7 1500.2,1997.7 1488.2,2012.1 1476.7,2028.9 1465.5,2048.0 1454.9,2069.3 1444.7,2092.6 1435.0,2118.0 1425.8,2145.1 1417.1,2174.0 1408.8,2204.3 1401.1,2236.0 1393.9,2268.9 1387.1,2302.6 1380.8,2337.2 1375.1,2372.2 1369.8,2407.5  " style="stroke-opacity: 1.000000; stroke-width: 5.0; stroke: rgb(107,174,214); fill: none"  />
<path d="M 1853.6,2345.8 L 1839.0,2311.8 1823.5,2278.2 1807.3,2245.0 1790.2,2212.6 1772.4,2181.1 1753.9,2150.6 1734.6,2121.4 1714.6,2093.5 1693.9,2067.2 1672.5,2042.4 1650.5,2019.5 1627.9,1998.4 1604.7,1979.2 1580.9,1962.1 1556.6,1947.1 1531.8,1934.2 1506.5,1923.6 1480.8,1915.2 1454.8,1909.1 1428.3,1905.3 1401.6,1903.9 1374.6,1904.7 1347.4,1907.8 1319.9,1913.1 1292.4,1920.7 1264.8,1930.4 1237.1,1942.3 1209.5,1956.2 1181.9,1972.0 1154.4,1989.7 1127.2,2009.2 1100.1,2030.3 1073.4,2052.9 1047.0,2077.0 1021.1,2102.2 995.6,2128.5 970.7,2155.8 946.4,2183.7 922.8,2212.2  " style="stroke-opacity: 1.000000; stroke-width: 5.0; stroke: rgb(107,174,214); fill: none"  />
<path d="M 1999.0,2269.1 L 1979.8,2239.3 1961.1,2209.5 1943.0,2179.9 1925.5,2150.7 1909.0,2122.0 1893.5,2094.1 1879.0,2067.0 1865.8,2040.9 1854.0,2016.0 1843.6,1992.4 1834.6,1970.1 1827.3,1949.3 1821.6,1930.1 1817.7,1912.5 1815.4,1896.7 1815.0,1882.7 1816.3,1870.5 1819.5,1860.2 1824.6,1851.8 1831.4,1845.3 1840.1,1840.8 1850.6,1838.2 1862.9,1837.6 1876.8,1838.9 1892.5,1842.1 1909.8,1847.1 1928.6,1854.0 1948.9,1862.6 1970.6,1872.8 1993.6,1884.6 2017.7,1898.0 2042.9,1912.7 2069.1,1928.8 2096.0,1946.0 2123.6,1964.2 2151.7,1983.4 2180.2,2003.3 2208.8,2023.8 2237.4,2044.7  " style="stroke-opacity: 1.000000; stroke-width: 5.0; stroke: rgb(107,174,214); fill: none"  />
<path d="M 1696.9,2395.4 L 1689.4,2360.9 1682.2,2326.6 1675.2,2292.9 1668.6,2259.8 1662.4,2227.6 1656.7,2196.5 1651.5,2166.8 1646.9,2138.5 1643.0,2111.9 1639.7,2087.1 1637.1,2064.3 1635.2,2043.5 1634.0,2024.9 1633.7,2008.5 1634.1,1994.5 1635.4,1982.9 1637.4,1973.9 1640.3,1967.3 1644.0,1963.3 1648.5,1961.9 1653.9,1963.0 1660.0,1966.7 1666.9,1973.0 1674.6,1981.7 1683.0,1992.9 1692.1,2006.5 1701.8,2022.4 1712.3,2040.5 1723.3,2060.7 1734.8,2082.9 1746.9,2106.9 1759.4,2132.7 1772.2,2160.0 1785.4,2188.7 1798.9,2218.6 1812.5,2249.5 1826.2,2281.1 1839.9,2313.3 1853.6,2345.8  " style="stroke-opacity: 1.000000; stroke-width: 5.0; stroke: rgb(107,174,214); fill: none"  />
<path d="M 1696.9,2395.4 L 1689.3,2360.9 1681.5,2326.8 1673.6,2293.2 1665.7,2260.4 1657.9,2228.6 1650.0,2198.0 1642.2,2168.9 1634.5,2141.3 1627.0,2115.5 1619.6,2091.6 1612.3,2069.7 1605.3,2050.0 1598.5,2032.7 1592.0,2017.7 1585.7,2005.2 1579.7,1995.2 1574.1,1987.8 1568.7,1983.1 1563.7,1981.0 1559.0,1981.6 1554.6,1984.9 1550.6,1990.8 1547.0,1999.4 1543.7,2010.5 1540.7,2024.2 1538.2,2040.4 1536.0,2058.9 1534.1,2079.7 1532.6,2102.6 1531.4,2127.6 1530.6,2154.5 1530.0,2183.1 1529.8,2213.3 1529.9,2244.9 1530.2,2277.7 1530.8,2311.4 1531.6,2345.9 1532.7,2380.9 1533.9,2416.1  " style="stroke-opacity: 1.000000; stroke-width: 5.0; stroke: rgb(107,174,214); fill: none"  />
<path d="M 1696.9,2395.4 L 1689.1,2360.8 1681.1,2326.5 1672.8,2292.8 1664.2,2259.9 1655.4,2228.0 1646.5,2197.3 1637.3,2168.0 1628.0,2140.3 1618.6,2114.4 1609.1,2090.4 1599.5,2068.4 1589.9,2048.6 1580.2,2031.0 1570.5,2015.9 1560.8,2003.2 1551.1,1993.0 1541.5,1985.4 1531.9,1980.4 1522.4,1978.1 1513.0,1978.5 1503.7,1981.5 1494.5,1987.1 1485.4,1995.4 1476.5,2006.3 1467.8,2019.7 1459.2,2035.5 1450.9,2053.7 1442.7,2074.2 1434.8,2096.8 1427.1,2121.5 1419.6,2148.1 1412.4,2176.4 1405.4,2206.2 1398.8,2237.5 1392.4,2270.0 1386.3,2303.4 1380.5,2337.7 1374.9,2372.4 1369.8,2407.5  " style="stroke-opacity: 1.000000; stroke-width: 5.0; stroke: rgb(107,174,214); fill: none"  />
<path d="M 1696.9,2395.4 L 1689.0,2360.6 1680.7,2326.1 1671.9,2292.1 1662.6,2258.9 1653.0,2226.7 1642.9,2195.7 1632.5,2166.0 1621.6,2137.9 1610.4,2111.5 1598.9,2086.9 1587.0,2064.4 1574.8,2044.0 1562.3,2025.7 1549.6,2009.8 1536.6,1996.3 1523.3,1985.3 1509.8,1976.8 1496.2,1970.9 1482.3,1967.5 1468.3,1966.8 1454.2,1968.7 1440.0,1973.1 1425.7,1980.2 1411.3,1989.7 1397.0,2001.8 1382.6,2016.2 1368.3,2033.0 1354.0,2052.1 1339.8,2073.3 1325.7,2096.4 1311.8,2121.5 1298.1,2148.3 1284.5,2176.7 1271.3,2206.5 1258.3,2237.5 1245.6,2269.6 1233.3,2302.4 1221.3,2335.8 1209.8,2369.6  " style="stroke-opacity: 1.000000; stroke-width: 5.0; stroke: rgb(107,174,214); fill: none"  />
<path d="M 1696.9,2395.4 L 1688.9,2360.2 1680.2,2325.4 1671.0,2291.0 1661.1,2257.4 1650.6,2224.7 1639.5,2193.1 1627.9,2162.8 1615.6,2134.0 1602.7,2106.8 1589.2,2081.4 1575.2,2057.8 1560.7,2036.3 1545.6,2017.0 1529.9,1999.8 1513.8,1984.9 1497.2,1972.4 1480.2,1962.3 1462.7,1954.7 1444.8,1949.6 1426.5,1947.0 1407.9,1946.9 1389.0,1949.2 1369.8,1954.1 1350.3,1961.5 1330.7,1971.2 1310.9,1983.3 1290.9,1997.6 1270.9,2014.2 1250.8,2032.8 1230.8,2053.4 1210.8,2075.9 1190.9,2100.1 1171.1,2125.9 1151.6,2153.1 1132.4,2181.5 1113.4,2211.0 1094.9,2241.4 1076.8,2272.4 1059.2,2303.8  " style="stroke-opacity: 1.000000; stroke-width: 5.0; stroke: rgb(107,174,214); fill: none"  />
<path d="M 1696.9,2395.4 L 1688.7,2359.8 1679.8,2324.5 1670.1,2289.6 1659.6,2255.4 1648.4,2222.0 1636.4,2189.7 1623.6,2158.5 1610.0,2128.7 1595.6,2100.5 1580.5,2073.8 1564.5,2049.0 1547.9,2026.0 1530.4,2005.0 1512.2,1986.1 1493.4,1969.3 1473.8,1954.8 1453.5,1942.5 1432.6,1932.5 1411.1,1924.9 1389.0,1919.7 1366.4,1916.9 1343.3,1916.4 1319.7,1918.3 1295.7,1922.5 1271.3,1929.0 1246.5,1937.8 1221.5,1948.8 1196.3,1961.8 1170.9,1976.9 1145.4,1993.9 1119.9,2012.8 1094.4,2033.3 1069.0,2055.4 1043.8,2079.0 1018.8,2103.8 994.1,2129.7 969.8,2156.5 946.0,2184.1 922.8,2212.2  " style="stroke-opacity: 1.000000; stroke-width: 5.0; stroke: rgb(107,174,214); fill: none"  />
<path d="M 2329.1,1108.8 L 2296.9,1124.2 2265.2,1140.0 2234.0,1156.2 2203.7,1172.6 2174.4,1189.1 2146.4,1205.9 2119.8,1222.6 2094.8,1239.5 2071.6,1256.3 2050.2,1273.0 2030.9,1289.6 2013.7,1306.0 1998.7,1322.2 1986.0,1338.2 1975.8,1353.9 1968.0,1369.3 1962.7,1384.3 1959.9,1399.0 1959.7,1413.2 1962.1,1427.0 1967.1,1440.4 1974.6,1453.2 1984.7,1465.6 1997.2,1477.5 2012.1,1488.8 2029.4,1499.6 2049.0,1509.8 2070.7,1519.5 2094.5,1528.6 2120.3,1537.2 2147.8,1545.2 2177.0,1552.6 2207.7,1559.5 2239.7,1565.8 2272.8,1571.5 2306.9,1576.8 2341.7,1581.5 2376.9,1585.7 2412.4,1589.4  " style="stroke-opacity: 1.000000; stroke-width: 5.0; stroke: rgb(107,174,214); fill: none"  />
<path d="M 1533.9,2416.1 L 1532.7,2380.9 1531.6,2345.9 1530.8,2311.4 1530.2,2277.7 1529.9,2244.9 1529.8,2213.3 1530.0,2183.1 1530.6,2154.5 1531.4,2127.6 1532.6,2102.6 1534.1,2079.7 1536.0,2058.9 1538.2,2040.4 1540.7,2024.2 1543.7,2010.5 1547.0,1999.4 1550.6,1990.8 1554.6,1984.9 1559.0,1981.6 1563.7,1981.0 1568.7,1983.1 1574.1,1987.8 1579.7,1995.2 1585.7,2005.2 1592.0,2017.7 1598.5,2032.7 1605.3,2050.0 1612.3,2069.7 1619.6,2091.6 1627.0,2115.5 1634.5,2141.3 1642.2,2168.9 1650.0,2198.0 1657.9,2228.6 1665.7,2260.4 1673.6,2293.2 1681.5,2326.8 1689.3,2360.9 1696.9,2395.4  " style="stroke-opacity: 1.000000; stroke-width: 5.0; stroke: rgb(107,174,214); fill: none"  />
<path d="M 1533.9,2416.1 L 1532.5,2380.9 1530.9,2345.9 1529.2,2311.5 1527.3,2277.8 1525.2,2245.1 1523.0,2213.6 1520.5,2183.5 1517.9,2155.0 1515.0,2128.2 1512.0,2103.4 1508.8,2080.6 1505.4,2060.0 1501.8,2041.7 1498.1,2025.8 1494.2,2012.3 1490.0,2001.5 1485.8,1993.2 1481.3,1987.6 1476.8,1984.6 1472.0,1984.4 1467.2,1986.8 1462.2,1991.9 1457.0,1999.7 1451.8,2010.1 1446.5,2023.1 1441.1,2038.5 1435.6,2056.3 1430.0,2076.4 1424.5,2098.8 1418.8,2123.2 1413.2,2149.5 1407.6,2177.5 1402.0,2207.2 1396.4,2238.3 1390.9,2270.6 1385.4,2303.9 1380.1,2337.9 1374.8,2372.6 1369.8,2407.5  " style="stroke-opacity: 1.000000; stroke-width: 5.0; stroke: rgb(107,174,214); fill: none"  />
<path d="M 1533.9,2416.1 L 1532.4,2380.7 1530.6,2345.6 1528.4,2310.9 1525.9,2277.0 1522.9,2244.1 1519.6,2212.3 1515.8,2181.8 1511.6,2152.9 1507.0,2125.7 1501.9,2100.4 1496.4,2077.0 1490.5,2055.8 1484.1,2036.8 1477.3,2020.2 1470.0,2005.9 1462.3,1994.2 1454.2,1985.0 1445.6,1978.4 1436.7,1974.4 1427.3,1973.1 1417.6,1974.4 1407.6,1978.3 1397.2,1984.9 1386.5,1994.0 1375.5,2005.6 1364.3,2019.6 1352.8,2036.0 1341.1,2054.7 1329.3,2075.6 1317.3,2098.5 1305.2,2123.3 1293.0,2149.8 1280.9,2178.0 1268.7,2207.6 1256.6,2238.4 1244.6,2270.2 1232.8,2302.9 1221.2,2336.1 1209.8,2369.6  " style="stroke-opacity: 1.000000; stroke-width: 5.0; stroke: rgb(107,174,214); fill: none"  />
<path d="M 1533.9,2416.1 L 1532.3,2380.5 1530.3,2345.1 1527.7,2310.1 1524.5,2275.8 1520.8,2242.3 1516.4,2210.0 1511.4,2179.0 1505.8,2149.4 1499.5,2121.4 1492.5,2095.2 1484.8,2070.9 1476.5,2048.6 1467.5,2028.4 1457.7,2010.5 1447.3,1994.9 1436.3,1981.7 1424.5,1970.9 1412.1,1962.6 1399.1,1956.9 1385.5,1953.6 1371.2,1952.9 1356.5,1954.8 1341.1,1959.2 1325.3,1966.0 1309.0,1975.3 1292.3,1987.0 1275.2,2000.9 1257.7,2017.1 1240.0,2035.4 1222.0,2055.7 1203.8,2077.9 1185.5,2101.9 1167.2,2127.4 1148.8,2154.3 1130.5,2182.5 1112.3,2211.8 1094.3,2241.9 1076.6,2272.7 1059.2,2303.8  " style="stroke-opacity: 1.000000; stroke-width: 5.0; stroke: rgb(107,174,214); fill: none"  />
<path d="M 1533.9,2416.1 L 1532.2,2380.1 1530.0,2344.3 1527.0,2308.9 1523.3,2274.0 1518.8,2239.9 1513.5,2206.9 1507.4,2175.0 1500.5,2144.4 1492.7,2115.4 1484.0,2088.0 1474.4,2062.3 1463.9,2038.6 1452.5,2016.8 1440.2,1997.1 1427.0,1979.6 1412.9,1964.3 1397.9,1951.4 1382.1,1940.7 1365.4,1932.5 1347.9,1926.7 1329.6,1923.2 1310.6,1922.2 1290.8,1923.6 1270.4,1927.3 1249.3,1933.4 1227.6,1941.7 1205.4,1952.3 1182.8,1965.0 1159.7,1979.7 1136.3,1996.4 1112.6,2015.0 1088.7,2035.3 1064.7,2057.1 1040.6,2080.4 1016.6,2104.9 992.7,2130.6 969.0,2157.1 945.7,2184.4 922.8,2212.2  " style="stroke-opacity: 1.000000; stroke-width: 5.0; stroke: rgb(107,174,214); fill: none"  />
<path d="M 1369.8,2407.5 L 1375.1,2372.2 1380.8,2337.2 1387.1,2302.6 1393.9,2268.9 1401.1,2236.0 1408.8,2204.3 1417.1,2174.0 1425.8,2145.1 1435.0,2118.0 1444.7,2092.6 1454.9,2069.3 1465.5,2048.0 1476.7,2028.9 1488.2,2012.1 1500.2,1997.7 1512.6,1985.7 1525.4,1976.2 1538.6,1969.3 1552.2,1964.9 1566.1,1963.2 1580.3,1964.0 1594.8,1967.4 1609.6,1973.4 1624.6,1981.8 1639.8,1992.8 1655.2,2006.2 1670.8,2021.9 1686.4,2039.8 1702.1,2059.9 1717.9,2081.9 1733.6,2105.9 1749.3,2131.7 1764.8,2159.0 1780.3,2187.7 1795.5,2217.7 1810.5,2248.7 1825.3,2280.5 1839.6,2313.0 1853.6,2345.8  " style="stroke-opacity: 1.000000; stroke-width: 5.0; stroke: rgb(107,174,214); fill: none"  />
<path d="M 1369.8,2407.5 L 1374.9,2372.4 1380.5,2337.7 1386.3,2303.4 1392.4,2270.0 1398.8,2237.5 1405.4,2206.2 1412.4,2176.4 1419.6,2148.1 1427.1,2121.5 1434.8,2096.8 1442.7,2074.2 1450.9,2053.7 1459.2,2035.5 1467.8,2019.7 1476.5,2006.3 1485.4,1995.4 1494.5,1987.1 1503.7,1981.5 1513.0,1978.5 1522.4,1978.1 1531.9,1980.4 1541.5,1985.4 1551.1,1993.0 1560.8,2003.2 1570.5,2015.9 1580.2,2031.0 1589.9,2048.6 1599.5,2068.4 1609.1,2090.4 1618.6,2114.4 1628.0,2140.3 1637.3,2168.0 1646.5,2197.3 1655.4,2228.0 1664.2,2259.9 1672.8,2292.8 1681.1,2326.5 1689.1,2360.8 1696.9,2395.4  " style="stroke-opacity: 1.000000; stroke-width: 5.0; stroke: rgb(107,174,214); fill: none"  />
<path d="M 1369.8,2407.5 L 1374.8,2372.6 1380.1,2337.9 1385.4,2303.9 1390.9,2270.6 1396.4,2238.3 1402.0,2207.2 1407.6,2177.5 1413.2,2149.5 1418.8,2123.2 1424.5,2098.8 1430.0,2076.4 1435.6,2056.3 1441.1,2038.5 1446.5,2023.1 1451.8,2010.1 1457.0,1999.7 1462.2,1991.9 1467.2,1986.8 1472.0,1984.4 1476.8,1984.6 1481.3,1987.6 1485.8,1993.2 1490.0,2001.5 1494.2,2012.3 1498.1,2025.8 1501.8,2041.7 1505.4,2060.0 1508.8,2080.6 1512.0,2103.4 1515.0,2128.2 1517.9,2155.0 1520.5,2183.5 1523.0,2213.6 1525.2,2245.1 1527.3,2277.8 1529.2,2311.5 1530.9,2345.9 1532.5,2380.9 1533.9,2416.1  " style="stroke-opacity: 1.000000; stroke-width: 5.0; stroke: rgb(107,174,214); fill: none"  />
<path d="M 1369.8,2407.5 L 1374.7,2372.5 1379.4,2337.8 1383.8,2303.6 1388.0,2270.2 1391.8,2237.6 1395.2,2206.2 1398.1,2176.2 1400.6,2147.7 1402.6,2120.8 1404.1,2095.8 1405.0,2072.9 1405.3,2052.0 1405.1,2033.3 1404.2,2017.0 1402.8,2003.1 1400.7,1991.6 1397.9,1982.7 1394.6,1976.4 1390.6,1972.7 1386.0,1971.6 1380.8,1973.1 1374.9,1977.3 1368.5,1984.0 1361.5,1993.3 1354.0,2005.1 1345.9,2019.3 1337.3,2035.9 1328.2,2054.7 1318.8,2075.7 1308.9,2098.6 1298.6,2123.5 1288.1,2150.1 1277.3,2178.3 1266.2,2207.9 1255.0,2238.7 1243.7,2270.5 1232.4,2303.1 1221.1,2336.2 1209.8,2369.6  " style="stroke-opacity: 1.000000; stroke-width: 5.0; stroke: rgb(107,174,214); fill: none"  />
<path d="M 1369.8,2407.5 L 1374.6,2372.4 1379.1,2337.5 1383.2,2303.0 1386.7,2269.2 1389.7,2236.2 1392.1,2204.3 1393.8,2173.7 1394.9,2144.5 1395.2,2116.9 1394.7,2091.1 1393.5,2067.1 1391.4,2045.2 1388.5,2025.4 1384.7,2007.8 1380.1,1992.5 1374.6,1979.5 1368.3,1969.0 1361.1,1961.0 1353.0,1955.5 1344.0,1952.5 1334.2,1952.1 1323.7,1954.1 1312.3,1958.7 1300.1,1965.8 1287.2,1975.2 1273.7,1987.0 1259.4,2001.1 1244.6,2017.4 1229.2,2035.8 1213.4,2056.2 1197.0,2078.5 1180.3,2102.4 1163.3,2128.0 1146.1,2154.9 1128.7,2183.1 1111.2,2212.2 1093.7,2242.2 1076.4,2272.8 1059.2,2303.8  " style="stroke-opacity: 1.000000; stroke-width: 5.0; stroke: rgb(107,174,214); fill: none"  />
<path d="M 1369.8,2407.5 L 1374.6,2372.1 1378.9,2336.9 1382.6,2302.0 1385.6,2267.7 1387.9,2234.1 1389.4,2201.5 1390.0,2170.1 1389.7,2140.0 1388.5,2111.3 1386.4,2084.3 1383.2,2059.0 1378.9,2035.6 1373.6,2014.1 1367.3,1994.8 1359.8,1977.5 1351.3,1962.6 1341.7,1949.9 1330.9,1939.5 1319.2,1931.5 1306.3,1925.9 1292.4,1922.7 1277.6,1921.9 1261.7,1923.4 1244.9,1927.3 1227.2,1933.6 1208.7,1942.1 1189.4,1952.8 1169.3,1965.6 1148.6,1980.4 1127.3,1997.2 1105.4,2015.8 1083.1,2036.0 1060.5,2057.9 1037.6,2081.1 1014.5,2105.6 991.4,2131.1 968.3,2157.5 945.4,2184.6 922.8,2212.2  " style="stroke-opacity: 1.000000; stroke-width: 5.0; stroke: rgb(107,174,214); fill: none"  />
<path d="M 2138.8,842.4 L 2114.0,867.7 2089.1,892.6 2064.3,916.9 2039.7,940.3 2015.4,962.8 1991.6,984.2 1968.4,1004.3 1946.0,1023.0 1924.3,1040.1 1903.6,1055.5 1883.8,1069.1 1865.2,1080.9 1847.7,1090.7 1831.5,1098.5 1816.6,1104.2 1803.0,1107.8 1790.8,1109.1 1780.0,1108.3 1770.7,1105.3 1762.9,1100.0 1756.6,1092.6 1751.7,1082.9 1748.4,1071.1 1746.6,1057.2 1746.2,1041.2 1747.2,1023.2 1749.7,1003.4 1753.6,981.7 1758.7,958.2 1765.2,933.2 1772.8,906.7 1781.6,878.8 1791.4,849.8 1802.2,819.7 1813.8,788.7 1826.3,757.0 1839.3,724.9 1852.9,692.4 1867.0,659.9  " style="stroke-opacity: 1.000000; stroke-width: 5.0; stroke: rgb(107,174,214); fill: none"  />
<path d="M 1209.8,2369.6 L 1221.3,2335.8 1233.3,2302.4 1245.6,2269.6 1258.3,2237.5 1271.3,2206.5 1284.5,2176.7 1298.1,2148.3 1311.8,2121.5 1325.7,2096.4 1339.8,2073.3 1354.0,2052.1 1368.3,2033.0 1382.6,2016.2 1397.0,2001.8 1411.3,1989.7 1425.7,1980.2 1440.0,1973.1 1454.2,1968.7 1468.3,1966.8 1482.3,1967.5 1496.2,1970.9 1509.8,1976.8 1523.3,1985.3 1536.6,1996.3 1549.6,2009.8 1562.3,2025.7 1574.8,2044.0 1587.0,2064.4 1598.9,2086.9 1610.4,2111.5 1621.6,2137.9 1632.5,2166.0 1642.9,2195.7 1653.0,2226.7 1662.6,2258.9 1671.9,2292.1 1680.7,2326.1 1689.0,2360.6 1696.9,2395.4  " style="stroke-opacity: 1.000000; stroke-width: 5.0; stroke: rgb(107,174,214); fill: none"  />
<path d="M 1209.8,2369.6 L 1221.2,2336.1 1232.8,2302.9 1244.6,2270.2 1256.6,2238.4 1268.7,2207.6 1280.9,2178.0 1293.0,2149.8 1305.2,2123.3 1317.3,2098.5 1329.3,2075.6 1341.1,2054.7 1352.8,2036.0 1364.3,2019.6 1375.5,2005.6 1386.5,1994.0 1397.2,1984.9 1407.6,1978.3 1417.6,1974.4 1427.3,1973.1 1436.7,1974.4 1445.6,1978.4 1454.2,1985.0 1462.3,1994.2 1470.0,2005.9 1477.3,2020.2 1484.1,2036.8 1490.5,2055.8 1496.4,2077.0 1501.9,2100.4 1507.0,2125.7 1511.6,2152.9 1515.8,2181.8 1519.6,2212.3 1522.9,2244.1 1525.9,2277.0 1528.4,2310.9 1530.6,2345.6 1532.4,2380.7 1533.9,2416.1  " style="stroke-opacity: 1.000000; stroke-width: 5.0; stroke: rgb(107,174,214); fill: none"  />
<path d="M 1209.8,2369.6 L 1221.1,2336.2 1232.4,2303.1 1243.7,2270.5 1255.0,2238.7 1266.2,2207.9 1277.3,2178.3 1288.1,2150.1 1298.6,2123.5 1308.9,2098.6 1318.8,2075.7 1328.2,2054.7 1337.3,2035.9 1345.9,2019.3 1354.0,2005.1 1361.5,1993.3 1368.5,1984.0 1374.9,1977.3 1380.8,1973.1 1386.0,1971.6 1390.6,1972.7 1394.6,1976.4 1397.9,1982.7 1400.7,1991.6 1402.8,2003.1 1404.2,2017.0 1405.1,2033.3 1405.3,2052.0 1405.0,2072.9 1404.1,2095.8 1402.6,2120.8 1400.6,2147.7 1398.1,2176.2 1395.2,2206.2 1391.8,2237.6 1388.0,2270.2 1383.8,2303.6 1379.4,2337.8 1374.7,2372.5 1369.8,2407.5  " style="stroke-opacity: 1.000000; stroke-width: 5.0; stroke: rgb(107,174,214); fill: none"  />
<path d="M 1209.8,2369.6 L 1220.9,2336.1 1231.7,2302.8 1242.2,2270.0 1252.3,2237.8 1261.8,2206.4 1270.8,2176.2 1279.0,2147.1 1286.6,2119.5 1293.3,2093.5 1299.2,2069.1 1304.2,2046.7 1308.3,2026.2 1311.4,2007.8 1313.5,1991.6 1314.5,1977.6 1314.5,1966.0 1313.4,1956.7 1311.2,1949.9 1308.0,1945.6 1303.6,1943.7 1298.2,1944.2 1291.7,1947.3 1284.2,1952.8 1275.6,1960.7 1266.1,1970.9 1255.6,1983.4 1244.2,1998.2 1232.0,2015.1 1218.9,2034.0 1205.1,2054.9 1190.5,2077.5 1175.4,2101.8 1159.7,2127.7 1143.6,2154.8 1127.1,2183.1 1110.3,2212.3 1093.3,2242.4 1076.2,2272.9 1059.2,2303.8  " style="stroke-opacity: 1.000000; stroke-width: 5.0; stroke: rgb(107,174,214); fill: none"  />
<path d="M 1209.8,2369.6 L 1220.9,2336.0 1231.5,2302.4 1241.7,2269.2 1251.2,2236.6 1260.0,2204.7 1268.1,2173.7 1275.2,2143.9 1281.5,2115.4 1286.7,2088.3 1290.9,2062.8 1293.9,2039.0 1295.8,2017.0 1296.5,1997.0 1295.9,1979.0 1294.1,1963.1 1291.0,1949.4 1286.7,1938.0 1281.0,1928.8 1274.0,1921.9 1265.7,1917.4 1256.2,1915.2 1245.4,1915.4 1233.4,1917.8 1220.2,1922.6 1205.8,1929.6 1190.3,1938.8 1173.8,1950.1 1156.3,1963.5 1137.9,1978.9 1118.6,1996.1 1098.6,2015.1 1077.9,2035.7 1056.6,2057.8 1034.8,2081.2 1012.7,2105.8 990.3,2131.4 967.7,2157.8 945.2,2184.8 922.8,2212.2  " style="stroke-opacity: 1.000000; stroke-width: 5.0; stroke: rgb(107,174,214); fill: none"  />
<path d="M 1059.2,2303.8 L 1076.8,2272.4 1094.9,2241.4 1113.4,2211.0 1132.4,2181.5 1151.6,2153.1 1171.1,2125.9 1190.9,2100.1 1210.8,2075.9 1230.8,2053.4 1250.8,2032.8 1270.9,2014.2 1290.9,1997.6 1310.9,1983.3 1330.7,1971.2 1350.3,1961.5 1369.8,1954.1 1389.0,1949.2 1407.9,1946.9 1426.5,1947.0 1444.8,1949.6 1462.7,1954.7 1480.2,1962.3 1497.2,1972.4 1513.8,1984.9 1529.9,1999.8 1545.6,2017.0 1560.7,2036.3 1575.2,2057.8 1589.2,2081.4 1602.7,2106.8 1615.6,2134.0 1627.9,2162.8 1639.5,2193.1 1650.6,2224.7 1661.1,2257.4 1671.0,2291.0 1680.2,2325.4 1688.9,2360.2 1696.9,2395.4  " style="stroke-opacity: 1.000000; stroke-width: 5.0; stroke: rgb(107,174,214); fill: none"  />
<path d="M 1059.2,2303.8 L 1076.6,2272.7 1094.3,2241.9 1112.3,2211.8 1130.5,2182.5 1148.8,2154.3 1167.2,2127.4 1185.5,2101.9 1203.8,2077.9 1222.0,2055.7 1240.0,2035.4 1257.7,2017.1 1275.2,2000.9 1292.3,1987.0 1309.0,1975.3 1325.3,1966.0 1341.1,1959.2 1356.5,1954.8 1371.2,1952.9 1385.5,1953.6 1399.1,1956.9 1412.1,1962.6 1424.5,1970.9 1436.3,1981.7 1447.3,1994.9 1457.7,2010.5 1467.5,2028.4 1476.5,2048.6 1484.8,2070.9 1492.5,2095.2 1499.5,2121.4 1505.8,2149.4 1511.4,2179.0 1516.4,2210.0 1520.8,2242.3 1524.5,2275.8 1527.7,2310.1 1530.3,2345.1 1532.3,2380.5 1533.9,2416.1  " style="stroke-opacity: 1.000000; stroke-width: 5.0; stroke: rgb(107,174,214); fill: none"  />
<path d="M 1059.2,2303.8 L 1076.4,2272.8 1093.7,2242.2 1111.2,2212.2 1128.7,2183.1 1146.1,2154.9 1163.3,2128.0 1180.3,2102.4 1197.0,2078.5 1213.4,2056.2 1229.2,2035.8 1244.6,2017.4 1259.4,2001.1 1273.7,1987.0 1287.2,1975.2 1300.1,1965.8 1312.3,1958.7 1323.7,1954.1 1334.2,1952.1 1344.0,1952.5 1353.0,1955.5 1361.1,1961.0 1368.3,1969.0 1374.6,1979.5 1380.1,1992.5 1384.7,2007.8 1388.5,2025.4 1391.4,2045.2 1393.5,2067.1 1394.7,2091.1 1395.2,2116.9 1394.9,2144.5 1393.8,2173.7 1392.1,2204.3 1389.7,2236.2 1386.7,2269.2 1383.2,2303.0 1379.1,2337.5 1374.6,2372.4 1369.8,2407.5  " style="stroke-opacity: 1.000000; stroke-width: 5.0; stroke: rgb(107,174,214); fill: none"  />
<path d="M 1059.2,2303.8 L 1076.2,2272.9 1093.3,2242.4 1110.3,2212.3 1127.1,2183.1 1143.6,2154.8 1159.7,2127.7 1175.4,2101.8 1190.5,2077.5 1205.1,2054.9 1218.9,2034.0 1232.0,2015.1 1244.2,1998.2 1255.6,1983.4 1266.1,1970.9 1275.6,1960.7 1284.2,1952.8 1291.7,1947.3 1298.2,1944.2 1303.6,1943.7 1308.0,1945.6 1311.2,1949.9 1313.4,1956.7 1314.5,1966.0 1314.5,1977.6 1313.5,1991.6 1311.4,2007.8 1308.3,2026.2 1304.2,2046.7 1299.2,2069.1 1293.3,2093.5 1286.6,2119.5 1279.0,2147.1 1270.8,2176.2 1261.8,2206.4 1252.3,2237.8 1242.2,2270.0 1231.7,2302.8 1220.9,2336.1 1209.8,2369.6  " style="stroke-opacity: 1.000000; stroke-width: 5.0; stroke: rgb(107,174,214); fill: none"  />
<path d="M 1059.2,2303.8 L 1076.1,2272.9 1092.7,2242.0 1108.9,2211.6 1124.5,2181.7 1139.5,2152.6 1153.7,2124.4 1167.0,2097.3 1179.4,2071.4 1190.7,2047.0 1200.8,2024.1 1209.8,2002.9 1217.4,1983.5 1223.7,1966.0 1228.7,1950.4 1232.2,1936.8 1234.3,1925.4 1234.8,1916.1 1233.9,1909.0 1231.5,1904.1 1227.6,1901.5 1222.1,1901.1 1215.2,1902.9 1206.8,1906.9 1197.0,1913.2 1185.8,1921.6 1173.2,1932.0 1159.4,1944.5 1144.3,1959.0 1128.0,1975.3 1110.7,1993.3 1092.4,2013.0 1073.2,2034.2 1053.1,2056.8 1032.4,2080.6 1011.1,2105.5 989.3,2131.3 967.3,2157.8 945.0,2184.9 922.8,2212.2  " style="stroke-opacity: 1.000000; stroke-width: 5.0; stroke: rgb(107,174,214); fill: none"  />
<path d="M 2413.7,1425.1 L 2378.5,1428.0 2343.7,1431.1 2309.3,1434.4 2275.8,1437.8 2243.2,1441.4 2211.8,1445.1 2181.9,1448.9 2153.5,1452.8 2126.9,1456.8 2102.3,1460.9 2079.6,1465.2 2059.2,1469.5 2041.1,1473.9 2025.3,1478.3 2012.1,1482.9 2001.4,1487.4 1993.3,1492.1 1987.9,1496.8 1985.2,1501.5 1985.1,1506.2 1987.8,1511.0 1993.1,1515.7 2001.1,1520.5 2011.8,1525.3 2024.9,1530.0 2040.6,1534.7 2058.6,1539.4 2079.0,1544.0 2101.6,1548.6 2126.2,1553.1 2152.7,1557.6 2181.0,1561.9 2210.9,1566.2 2242.2,1570.4 2274.7,1574.5 2308.2,1578.4 2342.5,1582.2 2377.3,1585.9 2412.4,1589.4  " style="stroke-opacity: 1.000000; stroke-width: 5.0; stroke: rgb(107,174,214); fill: none"  />
<path d="M 2412.4,1589.4 L 2376.9,1585.7 2341.7,1581.5 2306.9,1576.8 2272.8,1571.5 2239.7,1565.8 2207.7,1559.5 2177.0,1552.6 2147.8,1545.2 2120.3,1537.2 2094.5,1528.6 2070.7,1519.5 2049.0,1509.8 2029.4,1499.6 2012.1,1488.8 1997.2,1477.5 1984.7,1465.6 1974.6,1453.2 1967.1,1440.4 1962.1,1427.0 1959.7,1413.2 1959.9,1399.0 1962.7,1384.3 1968.0,1369.3 1975.8,1353.9 1986.0,1338.2 1998.7,1322.2 2013.7,1306.0 2030.9,1289.6 2050.2,1273.0 2071.6,1256.3 2094.8,1239.5 2119.8,1222.6 2146.4,1205.9 2174.4,1189.1 2203.7,1172.6 2234.0,1156.2 2265.2,1140.0 2296.9,1124.2 2329.1,1108.8  " style="stroke-opacity: 1.000000; stroke-width: 5.0; stroke: rgb(107,174,214); fill: none"  />
<path d="M 2412.4,1589.4 L 2377.3,1585.9 2342.5,1582.2 2308.2,1578.4 2274.7,1574.5 2242.2,1570.4 2210.9,1566.2 2181.0,1561.9 2152.7,1557.6 2126.2,1553.1 2101.6,1548.6 2079.0,1544.0 2058.6,1539.4 2040.6,1534.7 2024.9,1530.0 2011.8,1525.3 2001.1,1520.5 1993.1,1515.7 1987.8,1511.0 1985.1,1506.2 1985.2,1501.5 1987.9,1496.8 1993.3,1492.1 2001.4,1487.4 2012.1,1482.9 2025.3,1478.3 2041.1,1473.9 2059.2,1469.5 2079.6,1465.2 2102.3,1460.9 2126.9,1456.8 2153.5,1452.8 2181.9,1448.9 2211.8,1445.1 2243.2,1441.4 2275.8,1437.8 2309.3,1434.4 2343.7,1431.1 2378.5,1428.0 2413.7,1425.1  " style="stroke-opacity: 1.000000; stroke-width: 5.0; stroke: rgb(107,174,214); fill: none"  />
<path d="M 922.8,2212.2 L 946.4,2183.7 970.7,2155.8 995.6,2128.5 1021.1,2102.2 1047.0,2077.0 1073.4,2052.9 1100.1,2030.3 1127.2,2009.2 1154.4,1989.7 1181.9,1972.0 1209.5,1956.2 1237.1,1942.3 1264.8,1930.4 1292.4,1920.7 1319.9,1913.1 1347.4,1907.8 1374.6,1904.7 1401.6,1903.9 1428.3,1905.3 1454.8,1909.1 1480.8,1915.2 1506.5,1923.6 1531.8,1934.2 1556.6,1947.1 1580.9,1962.1 1604.7,1979.2 1627.9,1998.4 1650.5,2019.5 1672.5,2042.4 1693.9,2067.2 1714.6,2093.5 1734.6,2121.4 1753.9,2150.6 1772.4,2181.1 1790.2,2212.6 1807.3,2245.0 1823.5,2278.2 1839.0,2311.8 1853.6,2345.8  " style="stroke-opacity: 1.000000; stroke-width: 5.0; stroke: rgb(107,174,214); fill: none"  />
<path d="M 922.8,2212.2 L 946.0,2184.1 969.8,2156.5 994.1,2129.7 1018.8,2103.8 1043.8,2079.0 1069.0,2055.4 1094.4,2033.3 1119.9,2012.8 1145.4,1993.9 1170.9,1976.9 1196.3,1961.8 1221.5,1948.8 1246.5,1937.8 1271.3,1929.0 1295.7,1922.5 1319.7,1918.3 1343.3,1916.4 1366.4,1916.9 1389.0,1919.7 1411.1,1924.9 1432.6,1932.5 1453.5,1942.5 1473.8,1954.8 1493.4,1969.3 1512.2,1986.1 1530.4,2005.0 1547.9,2026.0 1564.5,2049.0 1580.5,2073.8 1595.6,2100.5 1610.0,2128.7 1623.6,2158.5 1636.4,2189.7 1648.4,2222.0 1659.6,2255.4 1670.1,2289.6 1679.8,2324.5 1688.7,2359.8 1696.9,2395.4  " style="stroke-opacity: 1.000000; stroke-width: 5.0; stroke: rgb(107,174,214); fill: none"  />
<path d="M 922.8,2212.2 L 945.7,2184.4 969.0,2157.1 992.7,2130.6 1016.6,2104.9 1040.6,2080.4 1064.7,2057.1 1088.7,2035.3 1112.6,2015.0 1136.3,1996.4 1159.7,1979.7 1182.8,1965.0 1205.4,1952.3 1227.6,1941.7 1249.3,1933.4 1270.4,1927.3 1290.8,1923.6 1310.6,1922.2 1329.6,1923.2 1347.9,1926.7 1365.4,1932.5 1382.1,1940.7 1397.9,1951.4 1412.9,1964.3 1427.0,1979.6 1440.2,1997.1 1452.5,2016.8 1463.9,2038.6 1474.4,2062.3 1484.0,2088.0 1492.7,2115.4 1500.5,2144.4 1507.4,2175.0 1513.5,2206.9 1518.8,2239.9 1523.3,2274.0 1527.0,2308.9 1530.0,2344.3 1532.2,2380.1 1533.9,2416.1  " style="stroke-opacity: 1.000000; stroke-width: 5.0; stroke: rgb(107,174,214); fill: none"  />
<path d="M 922.8,2212.2 L 945.4,2184.6 968.3,2157.5 991.4,2131.1 1014.5,2105.6 1037.6,2081.1 1060.5,2057.9 1083.1,2036.0 1105.4,2015.8 1127.3,1997.2 1148.6,1980.4 1169.3,1965.6 1189.4,1952.8 1208.7,1942.1 1227.2,1933.6 1244.9,1927.3 1261.7,1923.4 1277.6,1921.9 1292.4,1922.7 1306.3,1925.9 1319.2,1931.5 1330.9,1939.5 1341.7,1949.9 1351.3,1962.6 1359.8,1977.5 1367.3,1994.8 1373.6,2014.1 1378.9,2035.6 1383.2,2059.0 1386.4,2084.3 1388.5,2111.3 1389.7,2140.0 1390.0,2170.1 1389.4,2201.5 1387.9,2234.1 1385.6,2267.7 1382.6,2302.0 1378.9,2336.9 1374.6,2372.1 1369.8,2407.5  " style="stroke-opacity: 1.000000; stroke-width: 5.0; stroke: rgb(107,174,214); fill: none"  />
<path d="M 922.8,2212.2 L 945.2,2184.8 967.7,2157.8 990.3,2131.4 1012.7,2105.8 1034.8,2081.2 1056.6,2057.8 1077.9,2035.7 1098.6,2015.1 1118.6,1996.1 1137.9,1978.9 1156.3,1963.5 1173.8,1950.1 1190.3,1938.8 1205.8,1929.6 1220.2,1922.6 1233.4,1917.8 1245.4,1915.4 1256.2,1915.2 1265.7,1917.4 1274.0,1921.9 1281.0,1928.8 1286.7,1938.0 1291.0,1949.4 1294.1,1963.1 1295.9,1979.0 1296.5,1997.0 1295.8,2017.0 1293.9,2039.0 1290.9,2062.8 1286.7,2088.3 1281.5,2115.4 1275.2,2143.9 1268.1,2173.7 1260.0,2204.7 1251.2,2236.6 1241.7,2269.2 1231.5,2302.4 1220.9,2336.0 1209.8,2369.6  " style="stroke-opacity: 1.000000; stroke-width: 5.0; stroke: rgb(107,174,214); fill: none"  />
<path d="M 922.8,2212.2 L 945.0,2184.9 967.3,2157.8 989.3,2131.3 1011.1,2105.5 1032.4,2080.6 1053.1,2056.8 1073.2,2034.2 1092.4,2013.0 1110.7,1993.3 1128.0,1975.3 1144.3,1959.0 1159.4,1944.5 1173.2,1932.0 1185.8,1921.6 1197.0,1913.2 1206.8,1906.9 1215.2,1902.9 1222.1,1901.1 1227.6,1901.5 1231.5,1904.1 1233.9,1909.0 1234.8,1916.1 1234.3,1925.4 1232.2,1936.8 1228.7,1950.4 1223.7,1966.0 1217.4,1983.5 1209.8,2002.9 1200.8,2024.1 1190.7,2047.0 1179.4,2071.4 1167.0,2097.3 1153.7,2124.4 1139.5,2152.6 1124.5,2181.7 1108.9,2211.6 1092.7,2242.0 1076.1,2272.9 1059.2,2303.8  " style="stroke-opacity: 1.000000; stroke-width: 5.0; stroke: rgb(107,174,214); fill: none"  />
<path d="M 2245.9,967.0 L 2216.7,987.6 2187.4,1007.6 2158.2,1026.9 2129.1,1045.4 2100.3,1062.9 2072.1,1079.2 2044.5,1094.2 2017.6,1107.8 1991.6,1119.9 1966.6,1130.4 1942.6,1139.2 1919.9,1146.2 1898.4,1151.4 1878.3,1154.6 1859.6,1155.9 1842.4,1155.2 1826.7,1152.5 1812.5,1147.8 1800.0,1141.0 1789.1,1132.2 1779.9,1121.3 1772.3,1108.5 1766.4,1093.7 1762.2,1077.0 1759.6,1058.4 1758.6,1038.0 1759.2,1015.9 1761.3,992.2 1765.0,967.0 1770.1,940.4 1776.5,912.4 1784.3,883.3 1793.3,853.2 1803.4,822.2 1814.5,790.4 1826.5,758.1 1839.4,725.5 1852.9,692.7 1867.0,659.9  " style="stroke-opacity: 1.000000; stroke-width: 5.0; stroke: rgb(107,174,214); fill: none"  />
</g>
<defs>
<pattern id="vline" width="10" height="10" patternTransform="rotate(0 0 0)" patternUnits="userSpaceOnUse"><line x1="0" y1="0" x2="0" y2="10" style="stroke:black;stroke-width:5" /></pattern>
<pattern id="vline-sparse" width="10" height="10" patternTransform="rotate(0 0 0)" patternUnits="userSpaceOnUse"><line x1="0" y1="0" x2="0" y2="10" style="stroke:black;stroke-width:2" /></pattern>
<pattern id="hline-sparse" width="10" height="10" patternTransform="rotate(0 0 0)" patternUnits="userSpaceOnUse"><line x1="0" y1="0" x2="10" y2="0" style="stroke:black;stroke-width:2" /></pattern>
<pattern id="hline" width="10" height="10" patternTransform="rotate(0 0 0)" patternUnits="userSpaceOnUse"><line x1="0" y1="0" x2="10" y2="0" style="stroke:black;stroke-width:5" /></pattern>
<pattern id="checker" width="10" height="10" patternTransform="rotate(45 0 0)" patternUnits="userSpaceOnUse"><line x1="0" y1="0" x2="10" y2="0" style="stroke:black;stroke-width:2" /><line x1="0" y1="0" x2="0" y2="10" style="stroke:black;stroke-width:2" /></pattern>
<pattern id="checker" width="10" height="10" patternTransform="rotate(45 0 0)" patternUnits="userSpaceOnUse"><line x1="0" y1="0" x2="10" y2="0" style="stroke:black;stroke-width:5" /><line x1="0" y1="0" x2="0" y2="10" style="stroke:black;stroke-width:4" /></pattern>
</defs>
</svg>
