<?xml version="1.0" encoding="utf-8" standalone="no"?>
<!DOCTYPE svg PUBLIC "-//W3C//DTD SVG 1.1//EN" "http://www.w3.org/Graphics/SVG/1.1/DTD/svg11.dtd">
<svg width="3000px" height="3000px" version="1.1" xmlns="http://www.w3.org/2000/svg" xmlns:xlink="http://www.w3.org/1999/xlink">
<g id="bg">
<rect x="0" y="0" width="3000px" height="3000px" style="fill:rgb(255,255,255);"/>
</g>
<g id="ideograms">
<path d="M1500.000,830.000 A670.000,670.000 40.000 0,1 1570.620,833.732 L1579.053,754.178 A750.000,750.000 0.000 0,0 1500.000,750.000 Z" style="stroke-width:2.0;stroke:rgb(115,115,115);stroke-linecap:round;fill:rgb(153,204,255);" />
<text x="1568.0" y="677.8" font-size="65.0px" font-family="CMUBright-Roman" style="text-anchor:start;fill:rgb(0,0,0);" transform="rotate(273.0,1568.0,677.8)" >4-FOC</text>
<path d="M1500.000,830.000 A670.000,670.000 40.000 0,1 1570.620,833.732 L1579.053,754.178 A750.000,750.000 0.000 0,0 1500.000,750.000 Z" style="stroke-width:2.0;stroke:rgb(115,115,115);stroke-linecap:round;fill:none;" />
<path d="M1619.633,840.767 A670.000,670.000 40.000 0,1 1688.452,857.049 L1710.954,780.279 A750.000,750.000 0.000 0,0 1633.918,762.053 Z" style="stroke-width:2.0;stroke:rgb(115,115,115);stroke-linecap:round;fill:rgb(153,204,255);" />
<text x="1713.7" y="703.2" font-size="65.0px" font-family="CMUBright-Roman" style="text-anchor:start;fill:rgb(0,0,0);" transform="rotate(283.3,1713.7,703.2)" >6-IFG</text>
<path d="M1619.633,840.767 A670.000,670.000 40.000 0,1 1688.452,857.049 L1710.954,780.279 A750.000,750.000 0.000 0,0 1633.918,762.053 Z" style="stroke-width:2.0;stroke:rgb(115,115,115);stroke-linecap:round;fill:none;" />
<path d="M1735.421,872.723 A670.000,670.000 40.000 0,1 1800.227,901.031 L1836.075,829.512 A750.000,750.000 0.000 0,0 1763.531,797.824 Z" style="stroke-width:2.0;stroke:rgb(115,115,115);stroke-linecap:round;fill:rgb(153,204,255);" />
<text x="1852.5" y="754.1" font-size="65.0px" font-family="CMUBright-Roman" style="text-anchor:start;fill:rgb(0,0,0);" transform="rotate(293.6,1852.5,754.1)" >8-IFG</text>
<path d="M1735.421,872.723 A670.000,670.000 40.000 0,1 1800.227,901.031 L1836.075,829.512 A750.000,750.000 0.000 0,0 1763.531,797.824 Z" style="stroke-width:2.0;stroke:rgb(115,115,115);stroke-linecap:round;fill:none;" />
<path d="M1843.643,924.839 A670.000,670.000 40.000 0,1 1902.352,964.264 L1950.394,900.296 A750.000,750.000 0.000 0,0 1884.674,856.163 Z" style="stroke-width:2.0;stroke:rgb(115,115,115);stroke-linecap:round;fill:rgb(153,204,255);" />
<text x="1979.2" y="828.5" font-size="65.0px" font-family="CMUBright-Roman" style="text-anchor:start;fill:rgb(0,0,0);" transform="rotate(303.9,1979.2,828.5)" >14-LIX</text>
<path d="M1843.643,924.839 A670.000,670.000 40.000 0,1 1902.352,964.264 L1950.394,900.296 A750.000,750.000 0.000 0,0 1884.674,856.163 Z" style="stroke-width:2.0;stroke:rgb(115,115,115);stroke-linecap:round;fill:none;" />
<path d="M1940.819,995.442 A670.000,670.000 40.000 0,1 1991.546,1044.717 L2050.238,990.354 A750.000,750.000 0.000 0,0 1993.454,935.196 Z" style="stroke-width:2.0;stroke:rgb(115,115,115);stroke-linecap:round;fill:rgb(153,204,255);" />
<text x="2092.1" y="925.6" font-size="65.0px" font-family="CMUBright-Roman" style="text-anchor:start;fill:rgb(0,0,0);" transform="rotate(314.2,2092.1,925.6)" >19-MTG</text>
<path d="M1940.819,995.442 A670.000,670.000 40.000 0,1 1991.546,1044.717 L2050.238,990.354 A750.000,750.000 0.000 0,0 1993.454,935.196 Z" style="stroke-width:2.0;stroke:rgb(115,115,115);stroke-linecap:round;fill:none;" />
<path d="M2023.827,1082.262 A670.000,670.000 40.000 0,1 2064.940,1139.802 L2132.396,1096.793 A750.000,750.000 0.000 0,0 2086.374,1032.383 Z" style="stroke-width:2.0;stroke:rgb(115,115,115);stroke-linecap:round;fill:rgb(153,204,255);" />
<text x="2185.2" y="1040.5" font-size="65.0px" font-family="CMUBright-Roman" style="text-anchor:start;fill:rgb(0,0,0);" transform="rotate(324.5,2185.2,1040.5)" >35-SG</text>
<path d="M2023.827,1082.262 A670.000,670.000 40.000 0,1 2064.940,1139.802 L2132.396,1096.793 A750.000,750.000 0.000 0,0 2086.374,1032.383 Z" style="stroke-width:2.0;stroke:rgb(115,115,115);stroke-linecap:round;fill:none;" />
<path d="M2089.999,1182.508 A670.000,670.000 40.000 0,1 2120.177,1246.465 L2194.228,1216.192 A750.000,750.000 0.000 0,0 2160.447,1144.599 Z" style="stroke-width:2.0;stroke:rgb(115,115,115);stroke-linecap:round;fill:rgb(116,196,118);" />
<text x="2256.2" y="1170.3" font-size="65.0px" font-family="CMUBright-Roman" style="text-anchor:start;fill:rgb(0,0,0);" transform="rotate(334.7,2256.2,1170.3)" >13-LCI</text>
<path d="M2089.999,1182.508 A670.000,670.000 40.000 0,1 2120.177,1246.465 L2194.228,1216.192 A750.000,750.000 0.000 0,0 2160.447,1144.599 Z" style="stroke-width:2.0;stroke:rgb(115,115,115);stroke-linecap:round;fill:none;" />
<path d="M2137.208,1292.959 A670.000,670.000 40.000 0,1 2155.481,1361.276 L2233.748,1344.712 A750.000,750.000 0.000 0,0 2213.292,1268.237 Z" style="stroke-width:2.0;stroke:rgb(115,115,115);stroke-linecap:round;fill:rgb(116,196,118);" />
<text x="2303.0" y="1310.6" font-size="65.0px" font-family="CMUBright-Roman" style="text-anchor:start;fill:rgb(0,0,0);" transform="rotate(345.0,2303.0,1310.6)" >18-MTG</text>
<path d="M2137.208,1292.959 A670.000,670.000 40.000 0,1 2155.481,1361.276 L2233.748,1344.712 A750.000,750.000 0.000 0,0 2213.292,1268.237 Z" style="stroke-width:2.0;stroke:rgb(115,115,115);stroke-linecap:round;fill:none;" />
<path d="M2163.936,1410.064 A670.000,670.000 40.000 0,1 2169.718,1480.546 L2249.684,1478.223 A750.000,750.000 0.000 0,0 2243.212,1399.325 Z" style="stroke-width:2.0;stroke:rgb(115,115,115);stroke-linecap:round;fill:rgb(116,196,118);" />
<text x="2323.9" y="1457.0" font-size="65.0px" font-family="CMUBright-Roman" style="text-anchor:start;fill:rgb(0,0,0);" transform="rotate(355.3,2323.9,1457.0)" >27-RCI</text>
<path d="M2163.936,1410.064 A670.000,670.000 40.000 0,1 2169.718,1480.546 L2249.684,1478.223 A750.000,750.000 0.000 0,0 2243.212,1399.325 Z" style="stroke-width:2.0;stroke:rgb(115,115,115);stroke-linecap:round;fill:none;" />
<path d="M2169.325,1530.059 A670.000,670.000 40.000 0,1 2162.429,1600.441 L2241.524,1612.434 A750.000,750.000 0.000 0,0 2249.245,1533.649 Z" style="stroke-width:2.0;stroke:rgb(115,115,115);stroke-linecap:round;fill:rgb(116,196,118);" />
<text x="2318.3" y="1604.8" font-size="65.0px" font-family="CMUBright-Roman" style="text-anchor:start;fill:rgb(0,0,0);" transform="rotate(5.6,2318.3,1604.8)" >28-RCI</text>
<path d="M2169.325,1530.059 A670.000,670.000 40.000 0,1 2162.429,1600.441 L2241.524,1612.434 A750.000,750.000 0.000 0,0 2249.245,1533.649 Z" style="stroke-width:2.0;stroke:rgb(115,115,115);stroke-linecap:round;fill:none;" />
<path d="M2153.202,1649.089 A670.000,670.000 40.000 0,1 2133.849,1717.108 L2209.532,1743.032 A750.000,750.000 0.000 0,0 2231.196,1666.891 Z" style="stroke-width:2.0;stroke:rgb(115,115,115);stroke-linecap:round;fill:rgb(116,196,118);" />
<text x="2286.5" y="1749.2" font-size="65.0px" font-family="CMUBright-Roman" style="text-anchor:start;fill:rgb(0,0,0);" transform="rotate(15.9,2286.5,1749.2)" >29-RCI</text>
<path d="M2153.202,1649.089 A670.000,670.000 40.000 0,1 2133.849,1717.108 L2209.532,1743.032 A750.000,750.000 0.000 0,0 2231.196,1666.891 Z" style="stroke-width:2.0;stroke:rgb(115,115,115);stroke-linecap:round;fill:none;" />
<path d="M2116.084,1763.327 A670.000,670.000 40.000 0,1 2084.896,1826.797 L2154.734,1865.818 A750.000,750.000 0.000 0,0 2189.646,1794.769 Z" style="stroke-width:2.0;stroke:rgb(115,115,115);stroke-linecap:round;fill:rgb(153,0,204);" />
<text x="2229.3" y="1885.7" font-size="65.0px" font-family="CMUBright-Roman" style="text-anchor:start;fill:rgb(0,0,0);" transform="rotate(26.2,2229.3,1885.7)" >1-AG</text>
<path d="M2116.084,1763.327 A670.000,670.000 40.000 0,1 2084.896,1826.797 L2154.734,1865.818 A750.000,750.000 0.000 0,0 2189.646,1794.769 Z" style="stroke-width:2.0;stroke:rgb(115,115,115);stroke-linecap:round;fill:none;" />
<path d="M2059.164,1869.101 A670.000,670.000 40.000 0,1 2017.145,1925.983 L2078.893,1976.846 A750.000,750.000 0.000 0,0 2125.930,1913.173 Z" style="stroke-width:2.0;stroke:rgb(115,115,115);stroke-linecap:round;fill:rgb(153,0,204);" />
<text x="2149.0" y="2009.3" font-size="65.0px" font-family="CMUBright-Roman" style="text-anchor:start;fill:rgb(0,0,0);" transform="rotate(36.5,2149.0,2009.3)" >5-FP</text>
<path d="M2059.164,1869.101 A670.000,670.000 40.000 0,1 2017.145,1925.983 L2078.893,1976.846 A750.000,750.000 0.000 0,0 2125.930,1913.173 Z" style="stroke-width:2.0;stroke:rgb(115,115,115);stroke-linecap:round;fill:none;" />
<path d="M1984.273,1963.012 A670.000,670.000 40.000 0,1 1932.772,2011.477 L1984.446,2072.549 A750.000,750.000 0.000 0,0 2042.096,2018.297 Z" style="stroke-width:2.0;stroke:rgb(115,115,115);stroke-linecap:round;fill:rgb(153,0,204);" />
<text x="2047.3" y="2117.3" font-size="65.0px" font-family="CMUBright-Roman" style="text-anchor:start;fill:rgb(0,0,0);" transform="rotate(46.7,2047.3,2117.3)" >7-IFG</text>
<path d="M1984.273,1963.012 A670.000,670.000 40.000 0,1 1932.772,2011.477 L1984.446,2072.549 A750.000,750.000 0.000 0,0 2042.096,2018.297 Z" style="stroke-width:2.0;stroke:rgb(115,115,115);stroke-linecap:round;fill:none;" />
<path d="M1893.816,2042.041 A670.000,670.000 40.000 0,1 1834.489,2080.532 L1874.428,2149.849 A750.000,750.000 0.000 0,0 1940.839,2106.763 Z" style="stroke-width:2.0;stroke:rgb(115,115,115);stroke-linecap:round;fill:rgb(153,0,204);" />
<text x="1928.7" y="2204.9" font-size="65.0px" font-family="CMUBright-Roman" style="text-anchor:start;fill:rgb(0,0,0);" transform="rotate(57.0,1928.7,2204.9)" >10-IPL</text>
<path d="M1893.816,2042.041 A670.000,670.000 40.000 0,1 1834.489,2080.532 L1874.428,2149.849 A750.000,750.000 0.000 0,0 1940.839,2106.763 Z" style="stroke-width:2.0;stroke:rgb(115,115,115);stroke-linecap:round;fill:none;" />
<path d="M1790.702,2103.649 A670.000,670.000 40.000 0,1 1725.456,2130.928 L1752.376,2206.262 A750.000,750.000 0.000 0,0 1825.413,2175.727 Z" style="stroke-width:2.0;stroke:rgb(115,115,115);stroke-linecap:round;fill:rgb(253,208,162);" />
<text x="1796.0" y="2270.1" font-size="65.0px" font-family="CMUBright-Roman" style="text-anchor:start;fill:rgb(0,0,0);" transform="rotate(67.3,1796.0,2270.1)" >9-IPL</text>
<path d="M1790.702,2103.649 A670.000,670.000 40.000 0,1 1725.456,2130.928 L1752.376,2206.262 A750.000,750.000 0.000 0,0 1825.413,2175.727 Z" style="stroke-width:2.0;stroke:rgb(115,115,115);stroke-linecap:round;fill:none;" />
<path d="M1678.245,2145.855 A670.000,670.000 40.000 0,1 1609.176,2161.045 L1622.212,2239.976 A750.000,750.000 0.000 0,0 1699.528,2222.972 Z" style="stroke-width:2.0;stroke:rgb(115,115,115);stroke-linecap:round;fill:rgb(253,208,162);" />
<text x="1653.2" y="2310.7" font-size="65.0px" font-family="CMUBright-Roman" style="text-anchor:start;fill:rgb(0,0,0);" transform="rotate(77.6,1653.2,2310.7)" >12-LOC</text>
<path d="M1678.245,2145.855 A670.000,670.000 40.000 0,1 1609.176,2161.045 L1622.212,2239.976 A750.000,750.000 0.000 0,0 1699.528,2222.972 Z" style="stroke-width:2.0;stroke:rgb(115,115,115);stroke-linecap:round;fill:none;" />
<path d="M1560.058,2167.303 A670.000,670.000 40.000 0,1 1489.388,2169.916 L1488.121,2249.906 A750.000,750.000 0.000 0,0 1567.229,2246.981 Z" style="stroke-width:2.0;stroke:rgb(115,115,115);stroke-linecap:round;fill:rgb(253,208,162);" />
<text x="1506.0" y="2325.0" font-size="65.0px" font-family="CMUBright-Roman" style="text-anchor:start;fill:rgb(0,0,0);" transform="rotate(87.9,1506.0,2325.0)" >16-LG</text>
<path d="M1560.058,2167.303 A670.000,670.000 40.000 0,1 1489.388,2169.916 L1488.121,2249.906 A750.000,750.000 0.000 0,0 1567.229,2246.981 Z" style="stroke-width:2.0;stroke:rgb(115,115,115);stroke-linecap:round;fill:none;" />
<path d="M1439.942,2167.303 A670.000,670.000 40.000 0,1 1369.940,2157.255 L1354.411,2235.733 A750.000,750.000 0.000 0,0 1432.771,2246.981 Z" style="stroke-width:2.0;stroke:rgb(115,115,115);stroke-linecap:round;fill:rgb(253,208,162);" />
<text x="1407.1" y="2319.8" font-size="65.0px" font-family="CMUBright-Roman" style="text-anchor:end;fill:rgb(0,0,0);" transform="rotate(-81.8,1407.1,2319.8)" >17-MFG</text>
<path d="M1439.942,2167.303 A670.000,670.000 40.000 0,1 1369.940,2157.255 L1354.411,2235.733 A750.000,750.000 0.000 0,0 1432.771,2246.981 Z" style="stroke-width:2.0;stroke:rgb(115,115,115);stroke-linecap:round;fill:none;" />
<path d="M1321.755,2145.855 A670.000,670.000 40.000 0,1 1254.673,2123.470 L1225.380,2197.914 A750.000,750.000 0.000 0,0 1300.472,2222.972 Z" style="stroke-width:2.0;stroke:rgb(115,115,115);stroke-linecap:round;fill:rgb(253,208,162);" />
<text x="1262.2" y="2290.0" font-size="65.0px" font-family="CMUBright-Roman" style="text-anchor:end;fill:rgb(0,0,0);" transform="rotate(-71.5,1262.2,2290.0)" >20-OFG</text>
<path d="M1321.755,2145.855 A670.000,670.000 40.000 0,1 1254.673,2123.470 L1225.380,2197.914 A750.000,750.000 0.000 0,0 1300.472,2222.972 Z" style="stroke-width:2.0;stroke:rgb(115,115,115);stroke-linecap:round;fill:none;" />
<path d="M1209.298,2103.649 A670.000,670.000 40.000 0,1 1147.290,2069.645 L1105.176,2137.663 A750.000,750.000 0.000 0,0 1174.587,2175.727 Z" style="stroke-width:2.0;stroke:rgb(115,115,115);stroke-linecap:round;fill:rgb(253,208,162);" />
<text x="1125.0" y="2234.8" font-size="65.0px" font-family="CMUBright-Roman" style="text-anchor:end;fill:rgb(0,0,0);" transform="rotate(-61.3,1125.0,2234.8)" >21-OP</text>
<path d="M1209.298,2103.649 A670.000,670.000 40.000 0,1 1147.290,2069.645 L1105.176,2137.663 A750.000,750.000 0.000 0,0 1174.587,2175.727 Z" style="stroke-width:2.0;stroke:rgb(115,115,115);stroke-linecap:round;fill:none;" />
<path d="M1106.184,2042.041 A670.000,670.000 40.000 0,1 1051.245,1997.512 L997.662,2056.917 A750.000,750.000 0.000 0,0 1059.161,2106.763 Z" style="stroke-width:2.0;stroke:rgb(115,115,115);stroke-linecap:round;fill:rgb(253,208,162);" />
<text x="999.8" y="2156.1" font-size="65.0px" font-family="CMUBright-Roman" style="text-anchor:end;fill:rgb(0,0,0);" transform="rotate(-51.0,999.8,2156.1)" >34-SG</text>
<path d="M1106.184,2042.041 A670.000,670.000 40.000 0,1 1051.245,1997.512 L997.662,2056.917 A750.000,750.000 0.000 0,0 1059.161,2106.763 Z" style="stroke-width:2.0;stroke:rgb(115,115,115);stroke-linecap:round;fill:none;" />
<path d="M1015.727,1963.012 A670.000,670.000 40.000 0,1 969.622,1909.389 L906.293,1958.271 A750.000,750.000 0.000 0,0 957.904,2018.297 Z" style="stroke-width:2.0;stroke:rgb(115,115,115);stroke-linecap:round;fill:rgb(253,141,60);" />
<text x="890.7" y="2056.2" font-size="65.0px" font-family="CMUBright-Roman" style="text-anchor:end;fill:rgb(0,0,0);" transform="rotate(-40.7,890.7,2056.2)" >2-COC</text>
<path d="M1015.727,1963.012 A670.000,670.000 40.000 0,1 969.622,1909.389 L906.293,1958.271 A750.000,750.000 0.000 0,0 957.904,2018.297 Z" style="stroke-width:2.0;stroke:rgb(115,115,115);stroke-linecap:round;fill:none;" />
<path d="M940.836,1869.101 A670.000,670.000 40.000 0,1 905.046,1808.107 L834.007,1844.896 A750.000,750.000 0.000 0,0 874.070,1913.173 Z" style="stroke-width:2.0;stroke:rgb(115,115,115);stroke-linecap:round;fill:rgb(253,141,60);" />
<text x="801.2" y="1938.5" font-size="65.0px" font-family="CMUBright-Roman" style="text-anchor:end;fill:rgb(0,0,0);" transform="rotate(-30.4,801.2,1938.5)" >3-COC</text>
<path d="M940.836,1869.101 A670.000,670.000 40.000 0,1 905.046,1808.107 L834.007,1844.896 A750.000,750.000 0.000 0,0 874.070,1913.173 Z" style="stroke-width:2.0;stroke:rgb(115,115,115);stroke-linecap:round;fill:none;" />
<path d="M883.916,1763.327 A670.000,670.000 40.000 0,1 859.593,1696.922 L783.126,1720.436 A750.000,750.000 0.000 0,0 810.354,1794.769 Z" style="stroke-width:2.0;stroke:rgb(115,115,115);stroke-linecap:round;fill:rgb(253,141,60);" />
<text x="733.9" y="1806.2" font-size="65.0px" font-family="CMUBright-Roman" style="text-anchor:end;fill:rgb(0,0,0);" transform="rotate(-20.1,733.9,1806.2)" >23-PP</text>
<path d="M883.916,1763.327 A670.000,670.000 40.000 0,1 859.593,1696.922 L783.126,1720.436 A750.000,750.000 0.000 0,0 810.354,1794.769 Z" style="stroke-width:2.0;stroke:rgb(115,115,115);stroke-linecap:round;fill:none;" />
<path d="M846.798,1649.089 A670.000,670.000 40.000 0,1 834.722,1579.409 L755.286,1588.890 A750.000,750.000 0.000 0,0 768.804,1666.891 Z" style="stroke-width:2.0;stroke:rgb(115,115,115);stroke-linecap:round;fill:rgb(253,141,60);" />
<text x="691.6" y="1664.5" font-size="65.0px" font-family="CMUBright-Roman" style="text-anchor:end;fill:rgb(0,0,0);" transform="rotate(-9.8,691.6,1664.5)" >30-RH</text>
<path d="M846.798,1649.089 A670.000,670.000 40.000 0,1 834.722,1579.409 L755.286,1588.890 A750.000,750.000 0.000 0,0 768.804,1666.891 Z" style="stroke-width:2.0;stroke:rgb(115,115,115);stroke-linecap:round;fill:none;" />
<path d="M830.675,1530.059 A670.000,670.000 40.000 0,1 831.235,1459.343 L751.382,1454.488 A750.000,750.000 0.000 0,0 750.755,1533.649 Z" style="stroke-width:2.0;stroke:rgb(115,115,115);stroke-linecap:round;fill:rgb(253,141,60);" />
<text x="675.2" y="1517.5" font-size="65.0px" font-family="CMUBright-Roman" style="text-anchor:end;fill:rgb(0,0,0);" transform="rotate(0.5,675.2,1517.5)" >31-RLV</text>
<path d="M830.675,1530.059 A670.000,670.000 40.000 0,1 831.235,1459.343 L751.382,1454.488 A750.000,750.000 0.000 0,0 750.755,1533.649 Z" style="stroke-width:2.0;stroke:rgb(115,115,115);stroke-linecap:round;fill:none;" />
<path d="M836.064,1410.064 A670.000,670.000 40.000 0,1 849.242,1340.583 L771.539,1321.549 A750.000,750.000 0.000 0,0 756.788,1399.325 Z" style="stroke-width:2.0;stroke:rgb(115,115,115);stroke-linecap:round;fill:rgb(253,141,60);" />
<text x="685.3" y="1369.9" font-size="65.0px" font-family="CMUBright-Roman" style="text-anchor:end;fill:rgb(0,0,0);" transform="rotate(10.7,685.3,1369.9)" >32-RLV</text>
<path d="M836.064,1410.064 A670.000,670.000 40.000 0,1 849.242,1340.583 L771.539,1321.549 A750.000,750.000 0.000 0,0 756.788,1399.325 Z" style="stroke-width:2.0;stroke:rgb(115,115,115);stroke-linecap:round;fill:none;" />
<path d="M862.792,1292.959 A670.000,670.000 40.000 0,1 888.165,1226.948 L815.110,1194.345 A750.000,750.000 0.000 0,0 786.708,1268.237 Z" style="stroke-width:2.0;stroke:rgb(115,115,115);stroke-linecap:round;fill:rgb(253,141,60);" />
<text x="721.5" y="1227.0" font-size="65.0px" font-family="CMUBright-Roman" style="text-anchor:end;fill:rgb(0,0,0);" transform="rotate(21.0,721.5,1227.0)" >33-SC</text>
<path d="M862.792,1292.959 A670.000,670.000 40.000 0,1 888.165,1226.948 L815.110,1194.345 A750.000,750.000 0.000 0,0 786.708,1268.237 Z" style="stroke-width:2.0;stroke:rgb(115,115,115);stroke-linecap:round;fill:none;" />
<path d="M910.001,1182.508 A670.000,670.000 40.000 0,1 946.752,1122.089 L880.693,1076.965 A750.000,750.000 0.000 0,0 839.553,1144.599 Z" style="stroke-width:2.0;stroke:rgb(115,115,115);stroke-linecap:round;fill:rgb(66,146,198);" />
<text x="782.7" y="1092.4" font-size="65.0px" font-family="CMUBright-Roman" style="text-anchor:end;fill:rgb(0,0,0);" transform="rotate(31.3,782.7,1092.4)" >11-ITG</text>
<path d="M910.001,1182.508 A670.000,670.000 40.000 0,1 946.752,1122.089 L880.693,1076.965 A750.000,750.000 0.000 0,0 839.553,1144.599 Z" style="stroke-width:2.0;stroke:rgb(115,115,115);stroke-linecap:round;fill:none;" />
<path d="M976.173,1082.262 A670.000,670.000 40.000 0,1 1023.122,1029.376 L966.181,973.182 A750.000,750.000 0.000 0,0 913.626,1032.383 Z" style="stroke-width:2.0;stroke:rgb(115,115,115);stroke-linecap:round;fill:rgb(66,146,198);" />
<text x="867.4" y="970.5" font-size="65.0px" font-family="CMUBright-Roman" style="text-anchor:end;fill:rgb(0,0,0);" transform="rotate(41.6,867.4,970.5)" >15-LVIIIb</text>
<path d="M976.173,1082.262 A670.000,670.000 40.000 0,1 1023.122,1029.376 L966.181,973.182 A750.000,750.000 0.000 0,0 913.626,1032.383 Z" style="stroke-width:2.0;stroke:rgb(115,115,115);stroke-linecap:round;fill:none;" />
<path d="M1059.181,995.442 A670.000,670.000 40.000 0,1 1114.819,951.789 L1068.827,886.331 A750.000,750.000 0.000 0,0 1006.546,935.196 Z" style="stroke-width:2.0;stroke:rgb(115,115,115);stroke-linecap:round;fill:rgb(66,146,198);" />
<text x="971.7" y="866.3" font-size="65.0px" font-family="CMUBright-Roman" style="text-anchor:end;fill:rgb(0,0,0);" transform="rotate(51.9,971.7,866.3)" >22-ParG</text>
<path d="M1059.181,995.442 A670.000,670.000 40.000 0,1 1114.819,951.789 L1068.827,886.331 A750.000,750.000 0.000 0,0 1006.546,935.196 Z" style="stroke-width:2.0;stroke:rgb(115,115,115);stroke-linecap:round;fill:none;" />
<path d="M1156.357,924.839 A670.000,670.000 40.000 0,1 1218.896,891.822 L1185.331,819.204 A750.000,750.000 0.000 0,0 1115.326,856.163 Z" style="stroke-width:2.0;stroke:rgb(115,115,115);stroke-linecap:round;fill:rgb(66,146,198);" />
<text x="1094.2" y="781.7" font-size="65.0px" font-family="CMUBright-Roman" style="text-anchor:end;fill:rgb(0,0,0);" transform="rotate(62.2,1094.2,781.7)" >24-PP</text>
<path d="M1156.357,924.839 A670.000,670.000 40.000 0,1 1218.896,891.822 L1185.331,819.204 A750.000,750.000 0.000 0,0 1115.326,856.163 Z" style="stroke-width:2.0;stroke:rgb(115,115,115);stroke-linecap:round;fill:none;" />
<path d="M1264.579,872.723 A670.000,670.000 40.000 0,1 1332.008,851.403 L1311.949,773.958 A750.000,750.000 0.000 0,0 1236.469,797.824 Z" style="stroke-width:2.0;stroke:rgb(115,115,115);stroke-linecap:round;fill:rgb(66,146,198);" />
<text x="1228.0" y="721.1" font-size="65.0px" font-family="CMUBright-Roman" style="text-anchor:end;fill:rgb(0,0,0);" transform="rotate(72.5,1228.0,721.1)" >25-PosG</text>
<path d="M1264.579,872.723 A670.000,670.000 40.000 0,1 1332.008,851.403 L1311.949,773.958 A750.000,750.000 0.000 0,0 1236.469,797.824 Z" style="stroke-width:2.0;stroke:rgb(115,115,115);stroke-linecap:round;fill:none;" />
<path d="M1380.367,840.767 A670.000,670.000 40.000 0,1 1450.519,831.830 L1444.611,752.048 A750.000,750.000 0.000 0,0 1366.082,762.053 Z" style="stroke-width:2.0;stroke:rgb(115,115,115);stroke-linecap:round;fill:rgb(66,146,198);" />
<text x="1371.5" y="685.1" font-size="65.0px" font-family="CMUBright-Roman" style="text-anchor:end;fill:rgb(0,0,0);" transform="rotate(82.7,1371.5,685.1)" >26-PC</text>
<path d="M1380.367,840.767 A670.000,670.000 40.000 0,1 1450.519,831.830 L1444.611,752.048 A750.000,750.000 0.000 0,0 1366.082,762.053 Z" style="stroke-width:2.0;stroke:rgb(115,115,115);stroke-linecap:round;fill:none;" />
</g>
<g id="track_1">
<path d="M 2071.3,1780.7 L 2048.7,1769.9 2026.1,1759.5 2003.4,1749.6 1980.9,1740.4 1958.6,1731.9 1936.6,1724.3 1915.1,1717.5 1894.2,1711.7 1873.8,1706.9 1854.2,1703.2 1835.4,1700.6 1817.4,1699.2 1800.3,1699.1 1784.3,1700.1 1769.2,1702.4 1755.2,1706.0 1742.4,1710.9 1730.7,1717.1 1720.1,1724.6 1710.8,1733.4 1702.7,1743.4 1695.8,1754.7 1690.1,1767.3 1685.7,1781.0 1682.5,1795.9 1680.5,1811.9 1679.6,1828.9 1679.9,1846.9 1681.4,1865.9 1683.9,1885.7 1687.4,1906.3 1691.9,1927.6 1697.4,1949.4 1703.7,1971.8 1710.8,1994.6 1718.6,2017.6 1727.1,2040.8 1736.1,2064.1 1745.5,2087.2  " style="stroke-opacity: 1.000000; stroke-width: 5.0; stroke: rgb(251,106,74); fill: none"  />
<path d="M 2071.3,1780.7 L 2047.7,1769.5 2023.8,1758.8 1999.6,1748.7 1975.2,1739.4 1950.7,1731.0 1926.3,1723.4 1901.8,1716.8 1877.5,1711.3 1853.3,1706.8 1829.5,1703.5 1805.9,1701.4 1782.6,1700.6 1759.8,1701.0 1737.5,1702.8 1715.7,1705.8 1694.4,1710.3 1673.7,1716.1 1653.7,1723.2 1634.3,1731.7 1615.6,1741.6 1597.6,1752.8 1580.4,1765.3 1564.0,1779.1 1548.3,1794.2 1533.5,1810.5 1519.4,1827.9 1506.2,1846.5 1493.8,1866.2 1482.2,1886.8 1471.5,1908.4 1461.5,1930.9 1452.4,1954.1 1444.0,1978.0 1436.5,2002.5 1429.7,2027.5 1423.6,2052.8 1418.3,2078.5 1413.6,2104.2 1409.6,2130.0  " style="stroke-opacity: 1.000000; stroke-width: 5.0; stroke: rgb(251,106,74); fill: none"  />
<path d="M 2071.3,1780.7 L 2046.3,1768.8 2020.8,1757.3 1994.9,1746.5 1968.6,1736.3 1942.0,1726.8 1915.0,1718.0 1887.8,1710.1 1860.4,1703.1 1832.9,1697.0 1805.2,1691.8 1777.4,1687.7 1749.6,1684.6 1721.8,1682.6 1694.0,1681.6 1666.2,1681.8 1638.6,1683.1 1611.2,1685.6 1583.8,1689.2 1556.7,1694.0 1529.9,1699.9 1503.3,1706.9 1477.0,1715.1 1451.0,1724.4 1425.4,1734.8 1400.1,1746.3 1375.3,1758.8 1350.9,1772.3 1326.9,1786.8 1303.5,1802.2 1280.5,1818.5 1258.0,1835.6 1236.1,1853.4 1214.8,1872.0 1194.0,1891.3 1173.8,1911.1 1154.2,1931.4 1135.2,1952.1 1116.9,1973.2 1099.2,1994.5  " style="stroke-opacity: 1.000000; stroke-width: 5.0; stroke: rgb(251,106,74); fill: none"  />
<path d="M 2012.0,1878.2 L 1991.5,1862.7 1971.3,1846.7 1951.7,1830.3 1932.6,1813.4 1914.3,1796.2 1896.8,1778.7 1880.3,1760.8 1864.8,1742.7 1850.4,1724.4 1837.3,1705.9 1825.5,1687.3 1815.0,1668.6 1805.9,1649.7 1798.3,1630.9 1792.1,1612.0 1787.6,1593.2 1784.6,1574.4 1783.2,1555.7 1783.4,1537.1 1785.2,1518.6 1788.6,1500.4 1793.6,1482.3 1800.2,1464.4 1808.3,1446.8 1818.0,1429.5 1829.1,1412.5 1841.7,1395.8 1855.6,1379.4 1870.9,1363.5 1887.3,1347.9 1905.0,1332.7 1923.7,1318.0 1943.4,1303.7 1963.9,1289.8 1985.2,1276.5 2007.2,1263.7 2029.7,1251.4 2052.5,1239.6 2075.6,1228.4  " style="stroke-opacity: 1.000000; stroke-width: 5.0; stroke: rgb(251,106,74); fill: none"  />
<path d="M 1646.5,880.6 L 1640.1,908.8 1634.2,937.4 1628.9,966.3 1624.1,995.6 1619.9,1025.1 1616.3,1054.8 1613.5,1084.7 1611.4,1114.8 1610.0,1145.0 1609.4,1175.3 1609.6,1205.7 1610.6,1236.0 1612.4,1266.4 1615.1,1296.7 1618.6,1326.9 1623.0,1357.0 1628.3,1387.0 1634.4,1416.8 1641.4,1446.4 1649.3,1475.8 1658.0,1505.0 1667.6,1533.9 1678.0,1562.5 1689.2,1590.8 1701.2,1618.7 1714.0,1646.3 1727.6,1673.5 1741.9,1700.3 1756.9,1726.7 1772.5,1752.7 1788.8,1778.1 1805.6,1803.1 1823.1,1827.7 1841.0,1851.7 1859.3,1875.1 1878.1,1898.1 1897.2,1920.5 1916.6,1942.3 1936.2,1963.5  " style="stroke-opacity: 1.000000; stroke-width: 5.0; stroke: rgb(251,106,74); fill: none"  />
<path d="M 1936.2,1963.5 L 1916.6,1942.3 1897.2,1920.5 1878.1,1898.1 1859.3,1875.1 1841.0,1851.7 1823.1,1827.7 1805.6,1803.1 1788.8,1778.1 1772.5,1752.7 1756.9,1726.7 1741.9,1700.3 1727.6,1673.5 1714.0,1646.3 1701.2,1618.7 1689.2,1590.8 1678.0,1562.5 1667.6,1533.9 1658.0,1505.0 1649.3,1475.8 1641.4,1446.4 1634.4,1416.8 1628.3,1387.0 1623.0,1357.0 1618.6,1326.9 1615.1,1296.7 1612.4,1266.4 1610.6,1236.0 1609.6,1205.7 1609.4,1175.3 1610.0,1145.0 1611.4,1114.8 1613.5,1084.7 1616.3,1054.8 1619.9,1025.1 1624.1,995.6 1628.9,966.3 1634.2,937.4 1640.1,908.8 1646.5,880.6  " style="stroke-opacity: 1.000000; stroke-width: 5.0; stroke: rgb(251,106,74); fill: none"  />
<path d="M 1936.2,1963.5 L 1919.3,1945.7 1902.3,1928.2 1885.3,1911.0 1868.5,1894.5 1851.9,1878.6 1835.6,1863.5 1819.7,1849.3 1804.3,1836.1 1789.5,1824.0 1775.3,1813.0 1761.7,1803.3 1748.9,1794.9 1736.9,1787.9 1725.7,1782.4 1715.4,1778.2 1706.0,1775.6 1697.6,1774.5 1690.1,1775.0 1683.6,1777.0 1678.1,1780.6 1673.6,1785.7 1670.2,1792.3 1667.7,1800.5 1666.3,1810.1 1665.9,1821.2 1666.4,1833.7 1667.9,1847.5 1670.3,1862.6 1673.7,1878.9 1677.9,1896.4 1682.9,1914.9 1688.6,1934.3 1695.1,1954.6 1702.3,1975.6 1710.0,1997.2 1718.3,2019.4 1727.0,2041.8 1736.1,2064.5 1745.5,2087.2  " style="stroke-opacity: 1.000000; stroke-width: 5.0; stroke: rgb(251,106,74); fill: none"  />
<path d="M 1936.2,1963.5 L 1919.1,1945.6 1901.8,1928.0 1884.5,1910.9 1867.2,1894.4 1850.0,1878.7 1832.9,1863.7 1816.1,1849.8 1799.7,1836.9 1783.6,1825.1 1768.0,1814.6 1752.9,1805.4 1738.3,1797.6 1724.4,1791.2 1711.1,1786.2 1698.5,1782.8 1686.7,1781.0 1675.7,1780.7 1665.4,1782.0 1655.9,1785.0 1647.3,1789.5 1639.6,1795.6 1632.7,1803.4 1626.7,1812.7 1621.5,1823.5 1617.3,1835.8 1613.9,1849.5 1611.3,1864.6 1609.6,1881.0 1608.6,1898.7 1608.5,1917.6 1609.2,1937.5 1610.5,1958.3 1612.6,1980.1 1615.3,2002.6 1618.6,2025.7 1622.4,2049.3 1626.8,2073.2 1631.6,2097.4 1636.7,2121.6  " style="stroke-opacity: 1.000000; stroke-width: 5.0; stroke: rgb(251,106,74); fill: none"  />
<path d="M 1936.2,1963.5 L 1918.7,1945.3 1900.8,1927.4 1882.6,1910.1 1864.2,1893.4 1845.6,1877.5 1826.9,1862.5 1808.2,1848.5 1789.5,1835.6 1770.8,1823.8 1752.3,1813.4 1734.0,1804.2 1715.8,1796.5 1698.0,1790.1 1680.4,1785.3 1663.2,1782.1 1646.3,1780.4 1629.9,1780.3 1613.9,1781.8 1598.4,1784.9 1583.3,1789.7 1568.8,1796.0 1554.9,1804.0 1541.5,1813.5 1528.7,1824.6 1516.4,1837.2 1504.8,1851.2 1493.8,1866.6 1483.5,1883.4 1473.7,1901.4 1464.6,1920.7 1456.1,1941.0 1448.2,1962.3 1440.9,1984.5 1434.3,2007.5 1428.2,2031.2 1422.7,2055.5 1417.8,2080.1 1413.4,2105.0 1409.6,2130.0  " style="stroke-opacity: 1.000000; stroke-width: 5.0; stroke: rgb(251,106,74); fill: none"  />
<path d="M 1936.2,1963.5 L 1917.7,1944.4 1898.7,1925.6 1879.1,1907.3 1859.1,1889.6 1838.5,1872.6 1817.5,1856.4 1796.1,1841.0 1774.4,1826.6 1752.3,1813.2 1729.9,1800.8 1707.3,1789.7 1684.4,1779.7 1661.4,1771.0 1638.2,1763.5 1614.8,1757.4 1591.4,1752.7 1567.9,1749.3 1544.4,1747.4 1520.9,1746.8 1497.4,1747.7 1474.0,1750.0 1450.7,1753.7 1427.5,1758.7 1404.5,1765.2 1381.7,1773.0 1359.1,1782.1 1336.7,1792.5 1314.7,1804.2 1292.9,1817.0 1271.5,1830.9 1250.5,1845.9 1229.9,1861.9 1209.7,1878.8 1189.9,1896.6 1170.7,1915.1 1152.0,1934.2 1133.8,1953.9 1116.2,1974.0 1099.2,1994.5  " style="stroke-opacity: 1.000000; stroke-width: 5.0; stroke: rgb(251,106,74); fill: none"  />
<path d="M 1745.5,2087.2 L 1736.1,2064.1 1727.1,2040.8 1718.6,2017.6 1710.8,1994.6 1703.7,1971.8 1697.4,1949.4 1691.9,1927.6 1687.4,1906.3 1683.9,1885.7 1681.4,1865.9 1679.9,1846.9 1679.6,1828.9 1680.5,1811.9 1682.5,1795.9 1685.7,1781.0 1690.1,1767.3 1695.8,1754.7 1702.7,1743.4 1710.8,1733.4 1720.1,1724.6 1730.7,1717.1 1742.4,1710.9 1755.2,1706.0 1769.2,1702.4 1784.3,1700.1 1800.3,1699.1 1817.4,1699.2 1835.4,1700.6 1854.2,1703.2 1873.8,1706.9 1894.2,1711.7 1915.1,1717.5 1936.6,1724.3 1958.6,1731.9 1980.9,1740.4 2003.4,1749.6 2026.1,1759.5 2048.7,1769.9 2071.3,1780.7  " style="stroke-opacity: 1.000000; stroke-width: 5.0; stroke: rgb(251,106,74); fill: none"  />
<path d="M 1745.5,2087.2 L 1736.1,2064.5 1727.0,2041.8 1718.3,2019.4 1710.0,1997.2 1702.3,1975.6 1695.1,1954.6 1688.6,1934.3 1682.9,1914.9 1677.9,1896.4 1673.7,1878.9 1670.3,1862.6 1667.9,1847.5 1666.4,1833.7 1665.9,1821.2 1666.3,1810.1 1667.7,1800.5 1670.2,1792.3 1673.6,1785.7 1678.1,1780.6 1683.6,1777.0 1690.1,1775.0 1697.6,1774.5 1706.0,1775.6 1715.4,1778.2 1725.7,1782.4 1736.9,1787.9 1748.9,1794.9 1761.7,1803.3 1775.3,1813.0 1789.5,1824.0 1804.3,1836.1 1819.7,1849.3 1835.6,1863.5 1851.9,1878.6 1868.5,1894.5 1885.3,1911.0 1902.3,1928.2 1919.3,1945.7 1936.2,1963.5  " style="stroke-opacity: 1.000000; stroke-width: 5.0; stroke: rgb(251,106,74); fill: none"  />
<path d="M 1745.5,2087.2 L 1735.6,2062.6 1726.2,2037.5 1717.4,2012.2 1709.5,1986.7 1702.3,1961.0 1696.0,1935.2 1690.7,1909.4 1686.4,1883.7 1683.1,1858.0 1681.0,1832.6 1680.0,1807.4 1680.2,1782.4 1681.7,1757.8 1684.3,1733.6 1688.3,1709.8 1693.5,1686.5 1700.0,1663.6 1707.8,1641.4 1716.9,1619.7 1727.2,1598.6 1738.9,1578.1 1751.7,1558.3 1765.8,1539.2 1781.1,1520.9 1797.5,1503.2 1815.1,1486.3 1833.7,1470.1 1853.3,1454.7 1873.9,1440.1 1895.3,1426.2 1917.6,1413.1 1940.6,1400.8 1964.3,1389.3 1988.5,1378.5 2013.2,1368.4 2038.3,1359.1 2063.7,1350.6 2089.3,1342.7 2114.9,1335.5  " style="stroke-opacity: 1.000000; stroke-width: 5.0; stroke: rgb(251,106,74); fill: none"  />
<path d="M 1846.4,2034.0 L 1832.2,2011.5 1818.5,1988.5 1805.4,1965.2 1793.0,1941.4 1781.4,1917.4 1770.6,1893.2 1760.7,1868.8 1751.9,1844.2 1744.1,1819.6 1737.5,1794.9 1732.0,1770.3 1727.8,1745.7 1724.8,1721.2 1723.1,1696.9 1722.7,1672.8 1723.7,1648.9 1726.0,1625.3 1729.7,1602.0 1734.8,1579.0 1741.2,1556.4 1749.0,1534.2 1758.1,1512.5 1768.6,1491.1 1780.3,1470.3 1793.3,1450.0 1807.6,1430.2 1823.0,1411.0 1839.5,1392.3 1857.2,1374.3 1875.8,1356.8 1895.4,1340.0 1915.8,1323.7 1937.0,1308.1 1959.0,1293.2 1981.5,1278.9 2004.5,1265.3 2028.0,1252.3 2051.7,1240.0 2075.6,1228.4  " style="stroke-opacity: 1.000000; stroke-width: 5.0; stroke: rgb(251,106,74); fill: none"  />
<path d="M 1846.4,2034.0 L 1831.6,2010.6 1817.3,1986.6 1803.4,1962.2 1790.1,1937.3 1777.5,1912.0 1765.7,1886.2 1754.6,1860.2 1744.4,1833.8 1735.0,1807.2 1726.6,1780.3 1719.2,1753.2 1712.9,1725.9 1707.6,1698.6 1703.4,1671.1 1700.3,1643.5 1698.3,1615.9 1697.5,1588.4 1697.8,1560.8 1699.3,1533.4 1702.0,1506.0 1705.9,1478.7 1710.9,1451.6 1717.0,1424.8 1724.3,1398.1 1732.7,1371.7 1742.2,1345.5 1752.7,1319.7 1764.2,1294.2 1776.7,1269.0 1790.2,1244.3 1804.5,1220.0 1819.7,1196.1 1835.6,1172.7 1852.2,1149.8 1869.5,1127.4 1887.4,1105.5 1905.7,1084.2 1924.4,1063.5 1943.5,1043.4  " style="stroke-opacity: 1.000000; stroke-width: 5.0; stroke: rgb(251,106,74); fill: none"  />
<path d="M 1636.7,2121.6 L 1631.6,2097.4 1626.8,2073.2 1622.4,2049.3 1618.6,2025.7 1615.3,2002.6 1612.6,1980.1 1610.5,1958.3 1609.2,1937.5 1608.5,1917.6 1608.6,1898.7 1609.6,1881.0 1611.3,1864.6 1613.9,1849.5 1617.3,1835.8 1621.5,1823.5 1626.7,1812.7 1632.7,1803.4 1639.6,1795.6 1647.3,1789.5 1655.9,1785.0 1665.4,1782.0 1675.7,1780.7 1686.7,1781.0 1698.5,1782.8 1711.1,1786.2 1724.4,1791.2 1738.3,1797.6 1752.9,1805.4 1768.0,1814.6 1783.6,1825.1 1799.7,1836.9 1816.1,1849.8 1832.9,1863.7 1850.0,1878.7 1867.2,1894.4 1884.5,1910.9 1901.8,1928.0 1919.1,1945.6 1936.2,1963.5  " style="stroke-opacity: 1.000000; stroke-width: 5.0; stroke: rgb(251,106,74); fill: none"  />
<path d="M 1636.7,2121.6 L 1631.1,2094.5 1626.0,2067.1 1621.7,2039.3 1618.0,2011.4 1615.1,1983.2 1613.0,1955.0 1611.8,1926.7 1611.5,1898.4 1612.1,1870.2 1613.7,1842.1 1616.3,1814.1 1619.9,1786.3 1624.6,1758.8 1630.3,1731.6 1637.1,1704.7 1644.9,1678.2 1653.8,1652.1 1663.8,1626.5 1674.9,1601.3 1687.0,1576.6 1700.2,1552.4 1714.4,1528.8 1729.6,1505.8 1745.8,1483.4 1763.0,1461.6 1781.0,1440.5 1799.9,1420.0 1819.7,1400.1 1840.3,1381.0 1861.5,1362.6 1883.5,1344.8 1906.1,1327.8 1929.2,1311.5 1952.8,1295.9 1976.9,1281.0 2001.3,1266.8 2025.9,1253.3 2050.7,1240.5 2075.6,1228.4  " style="stroke-opacity: 1.000000; stroke-width: 5.0; stroke: rgb(251,106,74); fill: none"  />
<path d="M 1636.7,2121.6 L 1631.3,2095.6 1626.5,2069.3 1622.5,2042.8 1619.2,2016.2 1616.7,1989.7 1615.2,1963.2 1614.5,1936.9 1614.9,1910.8 1616.3,1885.0 1618.7,1859.6 1622.3,1834.6 1626.9,1810.1 1632.7,1786.1 1639.7,1762.7 1647.8,1740.0 1657.1,1718.0 1667.6,1696.7 1679.2,1676.2 1692.0,1656.5 1706.0,1637.6 1721.1,1619.5 1737.3,1602.4 1754.6,1586.1 1772.9,1570.7 1792.2,1556.3 1812.5,1542.8 1833.7,1530.2 1855.7,1518.5 1878.6,1507.8 1902.1,1498.0 1926.4,1489.1 1951.2,1481.1 1976.6,1473.9 2002.4,1467.7 2028.5,1462.2 2054.8,1457.5 2081.3,1453.6 2107.9,1450.5 2134.4,1448.0  " style="stroke-opacity: 1.000000; stroke-width: 5.0; stroke: rgb(251,106,74); fill: none"  />
<path d="M 1636.7,2121.6 L 1631.4,2096.1 1626.7,2070.3 1622.7,2044.4 1619.5,2018.5 1617.1,1992.8 1615.6,1967.2 1615.0,1941.9 1615.4,1916.9 1616.8,1892.4 1619.3,1868.4 1622.9,1845.0 1627.6,1822.2 1633.4,1800.2 1640.4,1778.9 1648.6,1758.4 1658.0,1738.8 1668.5,1720.1 1680.2,1702.4 1693.1,1685.6 1707.1,1669.8 1722.3,1655.0 1738.5,1641.2 1755.9,1628.6 1774.2,1616.9 1793.6,1606.4 1813.9,1596.9 1835.1,1588.5 1857.1,1581.1 1880.0,1574.8 1903.5,1569.5 1927.6,1565.1 1952.4,1561.8 1977.6,1559.4 2003.2,1557.9 2029.0,1557.2 2055.1,1557.3 2081.3,1558.2 2107.4,1559.8 2133.5,1562.1  " style="stroke-opacity: 1.000000; stroke-width: 5.0; stroke: rgb(251,106,74); fill: none"  />
<path d="M 2075.6,1228.4 L 2052.5,1239.6 2029.7,1251.4 2007.2,1263.7 1985.2,1276.5 1963.9,1289.8 1943.4,1303.7 1923.7,1318.0 1905.0,1332.7 1887.3,1347.9 1870.9,1363.5 1855.6,1379.4 1841.7,1395.8 1829.1,1412.5 1818.0,1429.5 1808.3,1446.8 1800.2,1464.4 1793.6,1482.3 1788.6,1500.4 1785.2,1518.6 1783.4,1537.1 1783.2,1555.7 1784.6,1574.4 1787.6,1593.2 1792.1,1612.0 1798.3,1630.9 1805.9,1649.7 1815.0,1668.6 1825.5,1687.3 1837.3,1705.9 1850.4,1724.4 1864.8,1742.7 1880.3,1760.8 1896.8,1778.7 1914.3,1796.2 1932.6,1813.4 1951.7,1830.3 1971.3,1846.7 1991.5,1862.7 2012.0,1878.2  " style="stroke-opacity: 1.000000; stroke-width: 5.0; stroke: rgb(251,106,74); fill: none"  />
<path d="M 2075.6,1228.4 L 2051.7,1240.0 2028.0,1252.3 2004.5,1265.3 1981.5,1278.9 1959.0,1293.2 1937.0,1308.1 1915.8,1323.7 1895.4,1340.0 1875.8,1356.8 1857.2,1374.3 1839.5,1392.3 1823.0,1411.0 1807.6,1430.2 1793.3,1450.0 1780.3,1470.3 1768.6,1491.1 1758.1,1512.5 1749.0,1534.2 1741.2,1556.4 1734.8,1579.0 1729.7,1602.0 1726.0,1625.3 1723.7,1648.9 1722.7,1672.8 1723.1,1696.9 1724.8,1721.2 1727.8,1745.7 1732.0,1770.3 1737.5,1794.9 1744.1,1819.6 1751.9,1844.2 1760.7,1868.8 1770.6,1893.2 1781.4,1917.4 1793.0,1941.4 1805.4,1965.2 1818.5,1988.5 1832.2,2011.5 1846.4,2034.0  " style="stroke-opacity: 1.000000; stroke-width: 5.0; stroke: rgb(251,106,74); fill: none"  />
<path d="M 2075.6,1228.4 L 2050.7,1240.5 2025.9,1253.3 2001.3,1266.8 1976.9,1281.0 1952.8,1295.9 1929.2,1311.5 1906.1,1327.8 1883.5,1344.8 1861.5,1362.6 1840.3,1381.0 1819.7,1400.1 1799.9,1420.0 1781.0,1440.5 1763.0,1461.6 1745.8,1483.4 1729.6,1505.8 1714.4,1528.8 1700.2,1552.4 1687.0,1576.6 1674.9,1601.3 1663.8,1626.5 1653.8,1652.1 1644.9,1678.2 1637.1,1704.7 1630.3,1731.6 1624.6,1758.8 1619.9,1786.3 1616.3,1814.1 1613.7,1842.1 1612.1,1870.2 1611.5,1898.4 1611.8,1926.7 1613.0,1955.0 1615.1,1983.2 1618.0,2011.4 1621.7,2039.3 1626.0,2067.1 1631.1,2094.5 1636.7,2121.6  " style="stroke-opacity: 1.000000; stroke-width: 5.0; stroke: rgb(251,106,74); fill: none"  />
<path d="M 2075.6,1228.4 L 2050.2,1240.7 2024.8,1253.7 1999.5,1267.4 1974.4,1281.8 1949.5,1296.8 1925.0,1312.6 1900.8,1329.1 1877.1,1346.2 1853.9,1364.1 1831.2,1382.6 1809.1,1401.9 1787.6,1421.8 1766.9,1442.4 1746.8,1463.7 1727.5,1485.6 1709.0,1508.1 1691.3,1531.2 1674.4,1555.0 1658.4,1579.3 1643.3,1604.2 1629.0,1629.6 1615.7,1655.5 1603.3,1681.9 1591.8,1708.7 1581.2,1735.9 1571.6,1763.5 1562.8,1791.4 1555.0,1819.6 1548.1,1848.1 1542.0,1876.7 1536.9,1905.6 1532.5,1934.5 1529.0,1963.5 1526.3,1992.6 1524.4,2021.6 1523.1,2050.5 1522.6,2079.2 1522.8,2107.8 1523.5,2136.1  " style="stroke-opacity: 1.000000; stroke-width: 5.0; stroke: rgb(251,106,74); fill: none"  />
<path d="M 2075.6,1228.4 L 2048.4,1241.5 2021.0,1255.0 1993.7,1269.0 1966.4,1283.5 1939.1,1298.4 1911.9,1313.9 1884.8,1329.8 1857.9,1346.2 1831.1,1363.2 1804.5,1380.6 1778.1,1398.5 1752.0,1416.9 1726.1,1435.7 1700.5,1455.1 1675.3,1474.9 1650.3,1495.3 1625.7,1516.0 1601.4,1537.2 1577.6,1558.9 1554.1,1581.0 1531.0,1603.5 1508.4,1626.4 1486.1,1649.7 1464.4,1673.4 1443.0,1697.4 1422.1,1721.8 1401.7,1746.5 1381.8,1771.4 1362.3,1796.7 1343.3,1822.2 1324.8,1847.9 1306.8,1873.8 1289.2,1899.8 1272.2,1926.1 1255.6,1952.4 1239.5,1978.8 1223.8,2005.2 1208.7,2031.7 1194.0,2058.1  " style="stroke-opacity: 1.000000; stroke-width: 5.0; stroke: rgb(251,106,74); fill: none"  />
<path d="M 1523.5,2136.1 L 1522.8,2107.8 1522.6,2079.2 1523.1,2050.5 1524.4,2021.6 1526.3,1992.6 1529.0,1963.5 1532.5,1934.5 1536.9,1905.6 1542.0,1876.7 1548.1,1848.1 1555.0,1819.6 1562.8,1791.4 1571.6,1763.5 1581.2,1735.9 1591.8,1708.7 1603.3,1681.9 1615.7,1655.5 1629.0,1629.6 1643.3,1604.2 1658.4,1579.3 1674.4,1555.0 1691.3,1531.2 1709.0,1508.1 1727.5,1485.6 1746.8,1463.7 1766.9,1442.4 1787.6,1421.8 1809.1,1401.9 1831.2,1382.6 1853.9,1364.1 1877.1,1346.2 1900.8,1329.1 1925.0,1312.6 1949.5,1296.8 1974.4,1281.8 1999.5,1267.4 2024.8,1253.7 2050.2,1240.7 2075.6,1228.4  " style="stroke-opacity: 1.000000; stroke-width: 5.0; stroke: rgb(251,106,74); fill: none"  />
<path d="M 1409.6,2130.0 L 1413.6,2104.2 1418.3,2078.5 1423.6,2052.8 1429.7,2027.5 1436.5,2002.5 1444.0,1978.0 1452.4,1954.1 1461.5,1930.9 1471.5,1908.4 1482.2,1886.8 1493.8,1866.2 1506.2,1846.5 1519.4,1827.9 1533.5,1810.5 1548.3,1794.2 1564.0,1779.1 1580.4,1765.3 1597.6,1752.8 1615.6,1741.6 1634.3,1731.7 1653.7,1723.2 1673.7,1716.1 1694.4,1710.3 1715.7,1705.8 1737.5,1702.8 1759.8,1701.0 1782.6,1700.6 1805.9,1701.4 1829.5,1703.5 1853.3,1706.8 1877.5,1711.3 1901.8,1716.8 1926.3,1723.4 1950.7,1731.0 1975.2,1739.4 1999.6,1748.7 2023.8,1758.8 2047.7,1769.5 2071.3,1780.7  " style="stroke-opacity: 1.000000; stroke-width: 5.0; stroke: rgb(251,106,74); fill: none"  />
<path d="M 1409.6,2130.0 L 1413.4,2105.0 1417.8,2080.1 1422.7,2055.5 1428.2,2031.2 1434.3,2007.5 1440.9,1984.5 1448.2,1962.3 1456.1,1941.0 1464.6,1920.7 1473.7,1901.4 1483.5,1883.4 1493.8,1866.6 1504.8,1851.2 1516.4,1837.2 1528.7,1824.6 1541.5,1813.5 1554.9,1804.0 1568.8,1796.0 1583.3,1789.7 1598.4,1784.9 1613.9,1781.8 1629.9,1780.3 1646.3,1780.4 1663.2,1782.1 1680.4,1785.3 1698.0,1790.1 1715.8,1796.5 1734.0,1804.2 1752.3,1813.4 1770.8,1823.8 1789.5,1835.6 1808.2,1848.5 1826.9,1862.5 1845.6,1877.5 1864.2,1893.4 1882.6,1910.1 1900.8,1927.4 1918.7,1945.3 1936.2,1963.5  " style="stroke-opacity: 1.000000; stroke-width: 5.0; stroke: rgb(251,106,74); fill: none"  />
<path d="M 2114.9,1335.5 L 2089.3,1342.7 2063.7,1350.6 2038.3,1359.1 2013.2,1368.4 1988.5,1378.5 1964.3,1389.3 1940.6,1400.8 1917.6,1413.1 1895.3,1426.2 1873.9,1440.1 1853.3,1454.7 1833.7,1470.1 1815.1,1486.3 1797.5,1503.2 1781.1,1520.9 1765.8,1539.2 1751.7,1558.3 1738.9,1578.1 1727.2,1598.6 1716.9,1619.7 1707.8,1641.4 1700.0,1663.6 1693.5,1686.5 1688.3,1709.8 1684.3,1733.6 1681.7,1757.8 1680.2,1782.4 1680.0,1807.4 1681.0,1832.6 1683.1,1858.0 1686.4,1883.7 1690.7,1909.4 1696.0,1935.2 1702.3,1961.0 1709.5,1986.7 1717.4,2012.2 1726.2,2037.5 1735.6,2062.6 1745.5,2087.2  " style="stroke-opacity: 1.000000; stroke-width: 5.0; stroke: rgb(251,106,74); fill: none"  />
<path d="M 2114.9,1335.5 L 2085.7,1343.5 2056.4,1352.0 2027.0,1360.9 1997.5,1370.2 1968.0,1380.1 1938.5,1390.4 1909.0,1401.3 1879.6,1412.6 1850.2,1424.5 1820.9,1436.9 1791.8,1449.8 1762.8,1463.2 1734.0,1477.1 1705.3,1491.6 1676.9,1506.6 1648.7,1522.2 1620.8,1538.2 1593.2,1554.8 1565.8,1571.8 1538.8,1589.4 1512.0,1607.4 1485.7,1625.9 1459.6,1644.9 1434.0,1664.3 1408.7,1684.1 1383.8,1704.3 1359.3,1725.0 1335.2,1746.0 1311.5,1767.3 1288.3,1789.0 1265.5,1811.0 1243.1,1833.3 1221.2,1855.8 1199.7,1878.5 1178.7,1901.5 1158.2,1924.6 1138.1,1947.8 1118.4,1971.1 1099.2,1994.5  " style="stroke-opacity: 1.000000; stroke-width: 5.0; stroke: rgb(251,106,74); fill: none"  />
<path d="M 1943.5,1043.4 L 1924.4,1063.5 1905.7,1084.2 1887.4,1105.5 1869.5,1127.4 1852.2,1149.8 1835.6,1172.7 1819.7,1196.1 1804.5,1220.0 1790.2,1244.3 1776.7,1269.0 1764.2,1294.2 1752.7,1319.7 1742.2,1345.5 1732.7,1371.7 1724.3,1398.1 1717.0,1424.8 1710.9,1451.6 1705.9,1478.7 1702.0,1506.0 1699.3,1533.4 1697.8,1560.8 1697.5,1588.4 1698.3,1615.9 1700.3,1643.5 1703.4,1671.1 1707.6,1698.6 1712.9,1725.9 1719.2,1753.2 1726.6,1780.3 1735.0,1807.2 1744.4,1833.8 1754.6,1860.2 1765.7,1886.2 1777.5,1912.0 1790.1,1937.3 1803.4,1962.2 1817.3,1986.6 1831.6,2010.6 1846.4,2034.0  " style="stroke-opacity: 1.000000; stroke-width: 5.0; stroke: rgb(251,106,74); fill: none"  />
<path d="M 1194.0,2058.1 L 1208.7,2031.7 1223.8,2005.2 1239.5,1978.8 1255.6,1952.4 1272.2,1926.1 1289.2,1899.8 1306.8,1873.8 1324.8,1847.9 1343.3,1822.2 1362.3,1796.7 1381.8,1771.4 1401.7,1746.5 1422.1,1721.8 1443.0,1697.4 1464.4,1673.4 1486.1,1649.7 1508.4,1626.4 1531.0,1603.5 1554.1,1581.0 1577.6,1558.9 1601.4,1537.2 1625.7,1516.0 1650.3,1495.3 1675.3,1474.9 1700.5,1455.1 1726.1,1435.7 1752.0,1416.9 1778.1,1398.5 1804.5,1380.6 1831.1,1363.2 1857.9,1346.2 1884.8,1329.8 1911.9,1313.9 1939.1,1298.4 1966.4,1283.5 1993.7,1269.0 2021.0,1255.0 2048.4,1241.5 2075.6,1228.4  " style="stroke-opacity: 1.000000; stroke-width: 5.0; stroke: rgb(251,106,74); fill: none"  />
<path d="M 2134.4,1448.0 L 2107.9,1450.5 2081.3,1453.6 2054.8,1457.5 2028.5,1462.2 2002.4,1467.7 1976.6,1473.9 1951.2,1481.1 1926.4,1489.1 1902.1,1498.0 1878.6,1507.8 1855.7,1518.5 1833.7,1530.2 1812.5,1542.8 1792.2,1556.3 1772.9,1570.7 1754.6,1586.1 1737.3,1602.4 1721.1,1619.5 1706.0,1637.6 1692.0,1656.5 1679.2,1676.2 1667.6,1696.7 1657.1,1718.0 1647.8,1740.0 1639.7,1762.7 1632.7,1786.1 1626.9,1810.1 1622.3,1834.6 1618.7,1859.6 1616.3,1885.0 1614.9,1910.8 1614.5,1936.9 1615.2,1963.2 1616.7,1989.7 1619.2,2016.2 1622.5,2042.8 1626.5,2069.3 1631.3,2095.6 1636.7,2121.6  " style="stroke-opacity: 1.000000; stroke-width: 5.0; stroke: rgb(251,106,74); fill: none"  />
<path d="M 2134.4,1448.0 L 2104.9,1450.6 2075.2,1453.8 2045.4,1457.5 2015.4,1461.7 1985.3,1466.5 1955.1,1471.9 1924.9,1477.9 1894.7,1484.6 1864.5,1491.9 1834.4,1499.9 1804.5,1508.5 1774.6,1517.8 1744.9,1527.7 1715.4,1538.4 1686.1,1549.7 1657.0,1561.8 1628.3,1574.4 1599.8,1587.8 1571.6,1601.9 1543.7,1616.6 1516.2,1631.9 1489.1,1647.9 1462.4,1664.5 1436.1,1681.7 1410.2,1699.5 1384.8,1717.9 1359.8,1736.8 1335.3,1756.2 1311.2,1776.1 1287.7,1796.4 1264.7,1817.2 1242.1,1838.4 1220.1,1860.0 1198.6,1881.8 1177.7,1904.0 1157.3,1926.3 1137.4,1948.9 1118.0,1971.6 1099.2,1994.5  " style="stroke-opacity: 1.000000; stroke-width: 5.0; stroke: rgb(251,106,74); fill: none"  />
<path d="M 2133.5,1562.1 L 2107.4,1559.8 2081.3,1558.2 2055.1,1557.3 2029.0,1557.2 2003.2,1557.9 1977.6,1559.4 1952.4,1561.8 1927.6,1565.1 1903.5,1569.5 1880.0,1574.8 1857.1,1581.1 1835.1,1588.5 1813.9,1596.9 1793.6,1606.4 1774.2,1616.9 1755.9,1628.6 1738.5,1641.2 1722.3,1655.0 1707.1,1669.8 1693.1,1685.6 1680.2,1702.4 1668.5,1720.1 1658.0,1738.8 1648.6,1758.4 1640.4,1778.9 1633.4,1800.2 1627.6,1822.2 1622.9,1845.0 1619.3,1868.4 1616.8,1892.4 1615.4,1916.9 1615.0,1941.9 1615.6,1967.2 1617.1,1992.8 1619.5,2018.5 1622.7,2044.4 1626.7,2070.3 1631.4,2096.1 1636.7,2121.6  " style="stroke-opacity: 1.000000; stroke-width: 5.0; stroke: rgb(251,106,74); fill: none"  />
<path d="M 2112.2,1674.2 L 2084.9,1666.7 2057.2,1659.8 2029.2,1653.5 2000.8,1647.8 1972.2,1642.8 1943.3,1638.5 1914.3,1635.0 1885.1,1632.3 1855.9,1630.5 1826.6,1629.5 1797.3,1629.5 1768.1,1630.4 1738.9,1632.2 1709.8,1635.0 1680.8,1638.8 1652.1,1643.6 1623.5,1649.4 1595.2,1656.2 1567.1,1664.0 1539.4,1672.7 1511.9,1682.5 1484.8,1693.2 1458.1,1704.9 1431.8,1717.5 1406.0,1731.1 1380.5,1745.5 1355.6,1760.8 1331.1,1776.9 1307.2,1793.7 1283.8,1811.4 1260.9,1829.7 1238.6,1848.6 1216.9,1868.2 1195.7,1888.2 1175.2,1908.8 1155.3,1929.8 1135.9,1951.1 1117.3,1972.7 1099.2,1994.5  " style="stroke-opacity: 1.000000; stroke-width: 5.0; stroke: rgb(251,106,74); fill: none"  />
<path d="M 1099.2,1994.5 L 1116.9,1973.2 1135.2,1952.1 1154.2,1931.4 1173.8,1911.1 1194.0,1891.3 1214.8,1872.0 1236.1,1853.4 1258.0,1835.6 1280.5,1818.5 1303.5,1802.2 1326.9,1786.8 1350.9,1772.3 1375.3,1758.8 1400.1,1746.3 1425.4,1734.8 1451.0,1724.4 1477.0,1715.1 1503.3,1706.9 1529.9,1699.9 1556.7,1694.0 1583.8,1689.2 1611.2,1685.6 1638.6,1683.1 1666.2,1681.8 1694.0,1681.6 1721.8,1682.6 1749.6,1684.6 1777.4,1687.7 1805.2,1691.8 1832.9,1697.0 1860.4,1703.1 1887.8,1710.1 1915.0,1718.0 1942.0,1726.8 1968.6,1736.3 1994.9,1746.5 2020.8,1757.3 2046.3,1768.8 2071.3,1780.7  " style="stroke-opacity: 1.000000; stroke-width: 5.0; stroke: rgb(251,106,74); fill: none"  />
<path d="M 1099.2,1994.5 L 1116.2,1974.0 1133.8,1953.9 1152.0,1934.2 1170.7,1915.1 1189.9,1896.6 1209.7,1878.8 1229.9,1861.9 1250.5,1845.9 1271.5,1830.9 1292.9,1817.0 1314.7,1804.2 1336.7,1792.5 1359.1,1782.1 1381.7,1773.0 1404.5,1765.2 1427.5,1758.7 1450.7,1753.7 1474.0,1750.0 1497.4,1747.7 1520.9,1746.8 1544.4,1747.4 1567.9,1749.3 1591.4,1752.7 1614.8,1757.4 1638.2,1763.5 1661.4,1771.0 1684.4,1779.7 1707.3,1789.7 1729.9,1800.8 1752.3,1813.2 1774.4,1826.6 1796.1,1841.0 1817.5,1856.4 1838.5,1872.6 1859.1,1889.6 1879.1,1907.3 1898.7,1925.6 1917.7,1944.4 1936.2,1963.5  " style="stroke-opacity: 1.000000; stroke-width: 5.0; stroke: rgb(251,106,74); fill: none"  />
<path d="M 1099.2,1994.5 L 1118.4,1971.1 1138.1,1947.8 1158.2,1924.6 1178.7,1901.5 1199.7,1878.5 1221.2,1855.8 1243.1,1833.3 1265.5,1811.0 1288.3,1789.0 1311.5,1767.3 1335.2,1746.0 1359.3,1725.0 1383.8,1704.3 1408.7,1684.1 1434.0,1664.3 1459.6,1644.9 1485.7,1625.9 1512.0,1607.4 1538.8,1589.4 1565.8,1571.8 1593.2,1554.8 1620.8,1538.2 1648.7,1522.2 1676.9,1506.6 1705.3,1491.6 1734.0,1477.1 1762.8,1463.2 1791.8,1449.8 1820.9,1436.9 1850.2,1424.5 1879.6,1412.6 1909.0,1401.3 1938.5,1390.4 1968.0,1380.1 1997.5,1370.2 2027.0,1360.9 2056.4,1352.0 2085.7,1343.5 2114.9,1335.5  " style="stroke-opacity: 1.000000; stroke-width: 5.0; stroke: rgb(251,106,74); fill: none"  />
<path d="M 1099.2,1994.5 L 1118.0,1971.6 1137.4,1948.9 1157.3,1926.3 1177.7,1904.0 1198.6,1881.8 1220.1,1860.0 1242.1,1838.4 1264.7,1817.2 1287.7,1796.4 1311.2,1776.1 1335.3,1756.2 1359.8,1736.8 1384.8,1717.9 1410.2,1699.5 1436.1,1681.7 1462.4,1664.5 1489.1,1647.9 1516.2,1631.9 1543.7,1616.6 1571.6,1601.9 1599.8,1587.8 1628.3,1574.4 1657.0,1561.8 1686.1,1549.7 1715.4,1538.4 1744.9,1527.7 1774.6,1517.8 1804.5,1508.5 1834.4,1499.9 1864.5,1491.9 1894.7,1484.6 1924.9,1477.9 1955.1,1471.9 1985.3,1466.5 2015.4,1461.7 2045.4,1457.5 2075.2,1453.8 2104.9,1450.6 2134.4,1448.0  " style="stroke-opacity: 1.000000; stroke-width: 5.0; stroke: rgb(251,106,74); fill: none"  />
<path d="M 1099.2,1994.5 L 1117.3,1972.7 1135.9,1951.1 1155.3,1929.8 1175.2,1908.8 1195.7,1888.2 1216.9,1868.2 1238.6,1848.6 1260.9,1829.7 1283.8,1811.4 1307.2,1793.7 1331.1,1776.9 1355.6,1760.8 1380.5,1745.5 1406.0,1731.1 1431.8,1717.5 1458.1,1704.9 1484.8,1693.2 1511.9,1682.5 1539.4,1672.7 1567.1,1664.0 1595.2,1656.2 1623.5,1649.4 1652.1,1643.6 1680.8,1638.8 1709.8,1635.0 1738.9,1632.2 1768.1,1630.4 1797.3,1629.5 1826.6,1629.5 1855.9,1630.5 1885.1,1632.3 1914.3,1635.0 1943.3,1638.5 1972.2,1642.8 2000.8,1647.8 2029.2,1653.5 2057.2,1659.8 2084.9,1666.7 2112.2,1674.2  " style="stroke-opacity: 1.000000; stroke-width: 5.0; stroke: rgb(251,106,74); fill: none"  />
</g>
<g id="track_0">
<path d="M 2012.0,1878.2 L 1992.1,1863.7 1972.3,1849.4 1952.5,1835.6 1933.0,1822.3 1913.8,1809.7 1895.1,1797.7 1877.0,1786.6 1859.5,1776.3 1842.7,1767.1 1826.7,1758.8 1811.7,1751.7 1797.6,1745.8 1784.5,1741.0 1772.5,1737.5 1761.6,1735.3 1751.9,1734.4 1743.4,1734.8 1736.2,1736.6 1730.1,1739.8 1725.4,1744.2 1721.9,1750.1 1719.6,1757.2 1718.7,1765.7 1719.0,1775.4 1720.5,1786.4 1723.3,1798.6 1727.3,1812.0 1732.3,1826.4 1738.5,1841.8 1745.8,1858.3 1754.0,1875.6 1763.2,1893.7 1773.2,1912.5 1784.0,1931.9 1795.5,1951.8 1807.5,1972.0 1820.1,1992.6 1833.1,2013.3 1846.4,2034.0  " style="stroke-opacity: 1.000000; stroke-width: 5.0; stroke: rgb(107,174,214); fill: none"  />
<path d="M 1754.8,916.7 L 1745.0,939.3 1735.6,961.8 1726.5,984.2 1717.9,1006.1 1709.8,1027.6 1702.3,1048.5 1695.5,1068.7 1689.4,1088.1 1684.1,1106.5 1679.6,1123.9 1676.1,1140.1 1673.4,1155.2 1671.7,1169.0 1670.9,1181.5 1671.2,1192.6 1672.5,1202.2 1674.8,1210.4 1678.1,1217.1 1682.5,1222.3 1688.0,1225.9 1694.4,1228.1 1701.9,1228.6 1710.4,1227.7 1719.8,1225.2 1730.2,1221.2 1741.4,1215.8 1753.6,1209.0 1766.5,1200.9 1780.2,1191.4 1794.6,1180.7 1809.6,1168.8 1825.2,1155.8 1841.3,1141.9 1857.8,1127.1 1874.7,1111.4 1891.8,1095.1 1909.0,1078.3 1926.3,1061.0 1943.5,1043.4  " style="stroke-opacity: 1.000000; stroke-width: 5.0; stroke: rgb(107,174,214); fill: none"  />
<path d="M 1754.8,916.7 L 1745.0,939.5 1735.6,962.3 1726.7,984.9 1718.4,1007.3 1710.6,1029.4 1703.6,1050.9 1697.4,1071.8 1692.0,1092.1 1687.5,1111.5 1684.0,1130.0 1681.4,1147.5 1680.0,1163.9 1679.5,1179.2 1680.2,1193.4 1682.0,1206.3 1685.0,1217.9 1689.1,1228.2 1694.3,1237.1 1700.7,1244.6 1708.3,1250.7 1717.0,1255.4 1726.8,1258.7 1737.7,1260.6 1749.7,1261.1 1762.7,1260.2 1776.6,1257.9 1791.5,1254.4 1807.3,1249.5 1823.9,1243.4 1841.3,1236.1 1859.4,1227.7 1878.0,1218.2 1897.2,1207.8 1916.8,1196.5 1936.8,1184.4 1957.0,1171.5 1977.3,1158.1 1997.6,1144.2 2017.9,1130.0  " style="stroke-opacity: 1.000000; stroke-width: 5.0; stroke: rgb(107,174,214); fill: none"  />
<path d="M 1745.5,2087.2 L 1736.0,2064.7 1726.5,2042.3 1717.0,2020.4 1707.5,1998.9 1698.2,1978.2 1689.0,1958.3 1680.1,1939.3 1671.4,1921.4 1663.0,1904.7 1655.0,1889.3 1647.4,1875.3 1640.1,1862.7 1633.3,1851.7 1627.0,1842.2 1621.2,1834.5 1615.9,1828.4 1611.1,1824.1 1606.8,1821.5 1603.1,1820.7 1600.0,1821.7 1597.4,1824.5 1595.4,1829.0 1594.0,1835.3 1593.1,1843.3 1592.8,1853.1 1593.1,1864.4 1593.9,1877.3 1595.2,1891.8 1597.0,1907.6 1599.3,1924.9 1602.0,1943.3 1605.2,1963.0 1608.8,1983.6 1612.8,2005.2 1617.0,2027.5 1621.6,2050.5 1626.5,2073.9 1631.5,2097.7 1636.7,2121.6  " style="stroke-opacity: 1.000000; stroke-width: 5.0; stroke: rgb(107,174,214); fill: none"  />
<path d="M 1745.5,2087.2 L 1735.8,2064.5 1725.8,2041.9 1715.6,2019.8 1705.2,1998.3 1694.6,1977.5 1683.9,1957.5 1673.1,1938.6 1662.2,1920.7 1651.3,1904.0 1640.3,1888.7 1629.4,1874.8 1618.6,1862.3 1607.8,1851.4 1597.1,1842.1 1586.5,1834.5 1576.1,1828.7 1565.8,1824.5 1555.7,1822.2 1545.9,1821.6 1536.2,1822.8 1526.8,1825.8 1517.6,1830.7 1508.8,1837.2 1500.1,1845.5 1491.8,1855.6 1483.8,1867.2 1476.1,1880.5 1468.7,1895.2 1461.6,1911.5 1454.9,1929.1 1448.5,1947.9 1442.4,1967.9 1436.7,1989.0 1431.3,2011.0 1426.3,2033.8 1421.6,2057.3 1417.3,2081.2 1413.3,2105.6 1409.6,2130.0  " style="stroke-opacity: 1.000000; stroke-width: 5.0; stroke: rgb(107,174,214); fill: none"  />
<path d="M 1745.5,2087.2 L 1735.3,2063.7 1724.6,2040.3 1713.3,2017.3 1701.5,1994.8 1689.1,1972.9 1676.2,1951.7 1662.9,1931.4 1649.0,1912.1 1634.6,1893.8 1619.8,1876.6 1604.5,1860.7 1588.8,1846.0 1572.7,1832.7 1556.2,1820.8 1539.3,1810.4 1522.1,1801.5 1504.5,1794.1 1486.7,1788.3 1468.6,1784.1 1450.2,1781.4 1431.7,1780.4 1412.9,1781.0 1394.0,1783.1 1375.0,1786.8 1355.9,1792.1 1336.7,1798.8 1317.5,1807.1 1298.3,1816.7 1279.1,1827.7 1260.1,1840.0 1241.1,1853.5 1222.4,1868.2 1203.8,1883.9 1185.5,1900.6 1167.5,1918.1 1149.8,1936.4 1132.5,1955.3 1115.6,1974.7 1099.2,1994.5  " style="stroke-opacity: 1.000000; stroke-width: 5.0; stroke: rgb(107,174,214); fill: none"  />
<path d="M 1846.4,2034.0 L 1833.1,2013.3 1820.1,1992.6 1807.5,1972.0 1795.5,1951.8 1784.0,1931.9 1773.2,1912.5 1763.2,1893.7 1754.0,1875.6 1745.8,1858.3 1738.5,1841.8 1732.3,1826.4 1727.3,1812.0 1723.3,1798.6 1720.5,1786.4 1719.0,1775.4 1718.7,1765.7 1719.6,1757.2 1721.9,1750.1 1725.4,1744.2 1730.1,1739.8 1736.2,1736.6 1743.4,1734.8 1751.9,1734.4 1761.6,1735.3 1772.5,1737.5 1784.5,1741.0 1797.6,1745.8 1811.7,1751.7 1826.7,1758.8 1842.7,1767.1 1859.5,1776.3 1877.0,1786.6 1895.1,1797.7 1913.8,1809.7 1933.0,1822.3 1952.5,1835.6 1972.3,1849.4 1992.1,1863.7 2012.0,1878.2  " style="stroke-opacity: 1.000000; stroke-width: 5.0; stroke: rgb(107,174,214); fill: none"  />
<path d="M 1636.7,2121.6 L 1631.5,2097.7 1626.5,2073.9 1621.6,2050.5 1617.0,2027.5 1612.8,2005.2 1608.8,1983.6 1605.2,1963.0 1602.0,1943.3 1599.3,1924.9 1597.0,1907.6 1595.2,1891.8 1593.9,1877.3 1593.1,1864.4 1592.8,1853.1 1593.1,1843.3 1594.0,1835.3 1595.4,1829.0 1597.4,1824.5 1600.0,1821.7 1603.1,1820.7 1606.8,1821.5 1611.1,1824.1 1615.9,1828.4 1621.2,1834.5 1627.0,1842.2 1633.3,1851.7 1640.1,1862.7 1647.4,1875.3 1655.0,1889.3 1663.0,1904.7 1671.4,1921.4 1680.1,1939.3 1689.0,1958.3 1698.2,1978.2 1707.5,1998.9 1717.0,2020.4 1726.5,2042.3 1736.0,2064.7 1745.5,2087.2  " style="stroke-opacity: 1.000000; stroke-width: 5.0; stroke: rgb(107,174,214); fill: none"  />
<path d="M 1636.7,2121.6 L 1631.4,2097.7 1626.0,2074.0 1620.6,2050.7 1615.1,2027.9 1609.6,2005.9 1604.1,1984.6 1598.7,1964.4 1593.4,1945.2 1588.1,1927.3 1583.0,1910.7 1578.0,1895.5 1573.1,1881.9 1568.4,1869.8 1563.9,1859.4 1559.5,1850.7 1555.4,1843.8 1551.4,1838.7 1547.7,1835.4 1544.2,1833.9 1540.9,1834.4 1537.9,1836.6 1535.1,1840.8 1532.6,1846.7 1530.3,1854.5 1528.3,1864.0 1526.5,1875.2 1525.0,1888.0 1523.7,1902.5 1522.6,1918.4 1521.8,1935.8 1521.2,1954.4 1520.9,1974.3 1520.7,1995.3 1520.7,2017.2 1521.0,2039.9 1521.4,2063.4 1522.0,2087.3 1522.7,2111.6 1523.5,2136.1  " style="stroke-opacity: 1.000000; stroke-width: 5.0; stroke: rgb(107,174,214); fill: none"  />
<path d="M 1636.7,2121.6 L 1631.3,2097.7 1625.7,2073.9 1619.9,2050.5 1614.0,2027.6 1607.9,2005.5 1601.7,1984.2 1595.3,1963.8 1588.9,1944.6 1582.4,1926.6 1575.8,1909.9 1569.1,1894.6 1562.4,1880.9 1555.7,1868.7 1549.0,1858.2 1542.2,1849.4 1535.5,1842.3 1528.8,1837.0 1522.2,1833.6 1515.5,1832.0 1509.0,1832.2 1502.5,1834.3 1496.2,1838.2 1489.9,1844.0 1483.7,1851.5 1477.6,1860.8 1471.7,1871.8 1465.9,1884.4 1460.2,1898.7 1454.7,1914.4 1449.4,1931.5 1444.2,1949.9 1439.2,1969.6 1434.4,1990.3 1429.7,2012.0 1425.3,2034.6 1421.0,2057.8 1417.0,2081.6 1413.2,2105.7 1409.6,2130.0  " style="stroke-opacity: 1.000000; stroke-width: 5.0; stroke: rgb(107,174,214); fill: none"  />
<path d="M 1636.7,2121.6 L 1631.2,2097.5 1625.4,2073.5 1619.3,2050.0 1612.9,2026.9 1606.2,2004.5 1599.2,1983.0 1592.0,1962.4 1584.5,1942.9 1576.7,1924.6 1568.7,1907.5 1560.4,1891.9 1552.0,1877.7 1543.3,1865.0 1534.4,1854.0 1525.4,1844.6 1516.2,1837.0 1506.8,1831.1 1497.3,1826.9 1487.7,1824.6 1478.0,1824.1 1468.2,1825.4 1458.3,1828.5 1448.4,1833.4 1438.4,1840.0 1428.5,1848.4 1418.5,1858.4 1408.5,1870.1 1398.6,1883.3 1388.8,1898.0 1379.0,1914.1 1369.3,1931.5 1359.8,1950.1 1350.4,1969.9 1341.2,1990.5 1332.2,2012.1 1323.4,2034.3 1314.8,2057.1 1306.5,2080.3 1298.5,2103.8  " style="stroke-opacity: 1.000000; stroke-width: 5.0; stroke: rgb(107,174,214); fill: none"  />
<path d="M 1636.7,2121.6 L 1631.1,2097.3 1625.1,2073.1 1618.7,2049.2 1611.9,2025.9 1604.6,2003.2 1596.9,1981.2 1588.8,1960.2 1580.2,1940.2 1571.3,1921.3 1562.0,1903.6 1552.2,1887.3 1542.1,1872.4 1531.6,1858.9 1520.8,1847.0 1509.6,1836.7 1498.1,1828.0 1486.2,1821.0 1474.1,1815.7 1461.7,1812.1 1449.0,1810.3 1436.1,1810.2 1422.9,1811.9 1409.6,1815.3 1396.1,1820.4 1382.5,1827.1 1368.7,1835.5 1354.8,1845.5 1340.9,1857.0 1327.0,1869.9 1313.1,1884.2 1299.2,1899.8 1285.4,1916.6 1271.7,1934.5 1258.1,1953.4 1244.8,1973.2 1231.6,1993.7 1218.7,2014.7 1206.2,2036.3 1194.0,2058.1  " style="stroke-opacity: 1.000000; stroke-width: 5.0; stroke: rgb(107,174,214); fill: none"  />
<path d="M 1636.7,2121.6 L 1631.0,2097.0 1624.8,2072.5 1618.1,2048.2 1610.8,2024.5 1603.0,2001.3 1594.7,1978.8 1585.8,1957.2 1576.4,1936.5 1566.4,1916.9 1555.9,1898.4 1544.8,1881.1 1533.2,1865.2 1521.1,1850.6 1508.5,1837.5 1495.4,1825.8 1481.8,1815.7 1467.7,1807.2 1453.2,1800.3 1438.3,1795.0 1423.0,1791.4 1407.2,1789.4 1391.2,1789.1 1374.8,1790.4 1358.1,1793.4 1341.2,1797.9 1324.0,1804.0 1306.7,1811.6 1289.1,1820.7 1271.5,1831.1 1253.8,1842.9 1236.1,1856.0 1218.4,1870.3 1200.8,1885.6 1183.2,1902.0 1165.9,1919.2 1148.8,1937.2 1131.9,1955.8 1115.4,1975.0 1099.2,1994.5  " style="stroke-opacity: 1.000000; stroke-width: 5.0; stroke: rgb(107,174,214); fill: none"  />
<path d="M 2075.6,1228.4 L 2053.3,1239.1 2031.2,1250.1 2009.6,1261.3 1988.6,1272.7 1968.3,1284.2 1948.8,1295.8 1930.4,1307.4 1913.0,1319.1 1896.9,1330.8 1882.0,1342.4 1868.6,1353.9 1856.6,1365.3 1846.2,1376.6 1837.4,1387.7 1830.3,1398.6 1824.9,1409.2 1821.2,1419.7 1819.3,1429.9 1819.2,1439.7 1820.9,1449.3 1824.3,1458.6 1829.5,1467.5 1836.5,1476.1 1845.2,1484.4 1855.6,1492.2 1867.6,1499.7 1881.2,1506.8 1896.3,1513.6 1912.8,1519.9 1930.7,1525.8 1949.8,1531.4 1970.1,1536.5 1991.4,1541.3 2013.6,1545.7 2036.6,1549.7 2060.2,1553.3 2084.4,1556.6 2108.8,1559.5 2133.5,1562.1  " style="stroke-opacity: 1.000000; stroke-width: 5.0; stroke: rgb(107,174,214); fill: none"  />
<path d="M 1523.5,2136.1 L 1522.7,2111.6 1522.0,2087.3 1521.4,2063.4 1521.0,2039.9 1520.7,2017.2 1520.7,1995.3 1520.9,1974.3 1521.2,1954.4 1521.8,1935.8 1522.6,1918.4 1523.7,1902.5 1525.0,1888.0 1526.5,1875.2 1528.3,1864.0 1530.3,1854.5 1532.6,1846.7 1535.1,1840.8 1537.9,1836.6 1540.9,1834.4 1544.2,1833.9 1547.7,1835.4 1551.4,1838.7 1555.4,1843.8 1559.5,1850.7 1563.9,1859.4 1568.4,1869.8 1573.1,1881.9 1578.0,1895.5 1583.0,1910.7 1588.1,1927.3 1593.4,1945.2 1598.7,1964.4 1604.1,1984.6 1609.6,2005.9 1615.1,2027.9 1620.6,2050.7 1626.0,2074.0 1631.4,2097.7 1636.7,2121.6  " style="stroke-opacity: 1.000000; stroke-width: 5.0; stroke: rgb(107,174,214); fill: none"  />
<path d="M 1523.5,2136.1 L 1522.6,2111.6 1521.5,2087.3 1520.3,2063.4 1519.0,2040.0 1517.5,2017.3 1515.9,1995.4 1514.2,1974.6 1512.4,1954.8 1510.4,1936.2 1508.3,1918.9 1506.1,1903.1 1503.8,1888.8 1501.3,1876.1 1498.7,1865.1 1495.9,1855.7 1493.1,1848.2 1490.1,1842.4 1487.0,1838.5 1483.9,1836.5 1480.6,1836.3 1477.2,1838.0 1473.7,1841.6 1470.2,1847.0 1466.5,1854.2 1462.8,1863.2 1459.1,1873.9 1455.3,1886.3 1451.4,1900.2 1447.6,1915.7 1443.6,1932.7 1439.7,1950.9 1435.8,1970.4 1431.9,1991.0 1428.1,2012.6 1424.2,2035.0 1420.4,2058.1 1416.7,2081.8 1413.1,2105.8 1409.6,2130.0  " style="stroke-opacity: 1.000000; stroke-width: 5.0; stroke: rgb(107,174,214); fill: none"  />
<path d="M 1523.5,2136.1 L 1522.5,2111.5 1521.2,2087.1 1519.7,2063.0 1518.0,2039.5 1515.9,2016.6 1513.6,1994.5 1511.0,1973.4 1508.1,1953.3 1504.9,1934.4 1501.4,1916.8 1497.5,1900.6 1493.4,1885.9 1489.0,1872.7 1484.2,1861.2 1479.2,1851.3 1473.8,1843.1 1468.2,1836.7 1462.2,1832.2 1456.0,1829.4 1449.5,1828.5 1442.8,1829.4 1435.8,1832.1 1428.6,1836.6 1421.2,1843.0 1413.6,1851.0 1405.8,1860.8 1397.8,1872.2 1389.7,1885.1 1381.5,1899.6 1373.1,1915.5 1364.7,1932.7 1356.3,1951.2 1347.9,1970.7 1339.4,1991.3 1331.0,2012.7 1322.7,2034.8 1314.5,2057.4 1306.4,2080.5 1298.5,2103.8  " style="stroke-opacity: 1.000000; stroke-width: 5.0; stroke: rgb(107,174,214); fill: none"  />
<path d="M 1523.5,2136.1 L 1522.4,2111.3 1521.0,2086.7 1519.2,2062.4 1517.0,2038.6 1514.4,2015.4 1511.4,1993.0 1507.9,1971.4 1504.0,1950.9 1499.6,1931.4 1494.8,1913.2 1489.5,1896.3 1483.7,1880.9 1477.4,1866.9 1470.7,1854.4 1463.4,1843.6 1455.8,1834.4 1447.6,1826.9 1439.0,1821.2 1430.0,1817.2 1420.5,1815.0 1410.6,1814.5 1400.3,1815.8 1389.7,1818.8 1378.7,1823.6 1367.4,1830.0 1355.8,1838.1 1343.9,1847.8 1331.8,1859.0 1319.5,1871.8 1307.0,1885.9 1294.4,1901.3 1281.7,1917.9 1268.9,1935.6 1256.2,1954.3 1243.4,1973.9 1230.8,1994.2 1218.3,2015.1 1206.0,2036.5 1194.0,2058.1  " style="stroke-opacity: 1.000000; stroke-width: 5.0; stroke: rgb(107,174,214); fill: none"  />
<path d="M 1523.5,2136.1 L 1522.4,2111.1 1520.8,2086.2 1518.7,2061.6 1516.2,2037.4 1513.1,2013.7 1509.4,1990.8 1505.2,1968.6 1500.4,1947.4 1494.9,1927.3 1488.9,1908.2 1482.2,1890.4 1474.9,1873.9 1467.0,1858.8 1458.5,1845.1 1449.3,1833.0 1439.5,1822.4 1429.1,1813.4 1418.1,1806.0 1406.5,1800.3 1394.4,1796.2 1381.7,1793.8 1368.5,1793.1 1354.8,1794.1 1340.6,1796.7 1325.9,1800.9 1310.9,1806.7 1295.5,1814.0 1279.8,1822.8 1263.7,1833.1 1247.5,1844.7 1231.0,1857.6 1214.4,1871.6 1197.8,1886.8 1181.0,1902.9 1164.4,1920.0 1147.8,1937.8 1131.3,1956.2 1115.1,1975.2 1099.2,1994.5  " style="stroke-opacity: 1.000000; stroke-width: 5.0; stroke: rgb(107,174,214); fill: none"  />
<path d="M 1409.6,2130.0 L 1413.3,2105.6 1417.3,2081.2 1421.6,2057.3 1426.3,2033.8 1431.3,2011.0 1436.7,1989.0 1442.4,1967.9 1448.5,1947.9 1454.9,1929.1 1461.6,1911.5 1468.7,1895.2 1476.1,1880.5 1483.8,1867.2 1491.8,1855.6 1500.1,1845.5 1508.8,1837.2 1517.6,1830.7 1526.8,1825.8 1536.2,1822.8 1545.9,1821.6 1555.7,1822.2 1565.8,1824.5 1576.1,1828.7 1586.5,1834.5 1597.1,1842.1 1607.8,1851.4 1618.6,1862.3 1629.4,1874.8 1640.3,1888.7 1651.3,1904.0 1662.2,1920.7 1673.1,1938.6 1683.9,1957.5 1694.6,1977.5 1705.2,1998.3 1715.6,2019.8 1725.8,2041.9 1735.8,2064.5 1745.5,2087.2  " style="stroke-opacity: 1.000000; stroke-width: 5.0; stroke: rgb(107,174,214); fill: none"  />
<path d="M 1409.6,2130.0 L 1413.2,2105.7 1417.0,2081.6 1421.0,2057.8 1425.3,2034.6 1429.7,2012.0 1434.4,1990.3 1439.2,1969.6 1444.2,1949.9 1449.4,1931.5 1454.7,1914.4 1460.2,1898.7 1465.9,1884.4 1471.7,1871.8 1477.6,1860.8 1483.7,1851.5 1489.9,1844.0 1496.2,1838.2 1502.5,1834.3 1509.0,1832.2 1515.5,1832.0 1522.2,1833.6 1528.8,1837.0 1535.5,1842.3 1542.2,1849.4 1549.0,1858.2 1555.7,1868.7 1562.4,1880.9 1569.1,1894.6 1575.8,1909.9 1582.4,1926.6 1588.9,1944.6 1595.3,1963.8 1601.7,1984.2 1607.9,2005.5 1614.0,2027.6 1619.9,2050.5 1625.7,2073.9 1631.3,2097.7 1636.7,2121.6  " style="stroke-opacity: 1.000000; stroke-width: 5.0; stroke: rgb(107,174,214); fill: none"  />
<path d="M 1409.6,2130.0 L 1413.1,2105.8 1416.7,2081.8 1420.4,2058.1 1424.2,2035.0 1428.1,2012.6 1431.9,1991.0 1435.8,1970.4 1439.7,1950.9 1443.6,1932.7 1447.6,1915.7 1451.4,1900.2 1455.3,1886.3 1459.1,1873.9 1462.8,1863.2 1466.5,1854.2 1470.2,1847.0 1473.7,1841.6 1477.2,1838.0 1480.6,1836.3 1483.9,1836.5 1487.0,1838.5 1490.1,1842.4 1493.1,1848.2 1495.9,1855.7 1498.7,1865.1 1501.3,1876.1 1503.8,1888.8 1506.1,1903.1 1508.3,1918.9 1510.4,1936.2 1512.4,1954.8 1514.2,1974.6 1515.9,1995.4 1517.5,2017.3 1519.0,2040.0 1520.3,2063.4 1521.5,2087.3 1522.6,2111.6 1523.5,2136.1  " style="stroke-opacity: 1.000000; stroke-width: 5.0; stroke: rgb(107,174,214); fill: none"  />
<path d="M 1409.6,2130.0 L 1413.0,2105.8 1416.3,2081.7 1419.4,2058.0 1422.2,2034.7 1424.9,2012.1 1427.2,1990.3 1429.3,1969.5 1431.0,1949.7 1432.4,1931.0 1433.4,1913.7 1434.0,1897.7 1434.3,1883.2 1434.1,1870.3 1433.5,1858.9 1432.5,1849.3 1431.0,1841.3 1429.1,1835.2 1426.8,1830.8 1424.0,1828.2 1420.8,1827.4 1417.2,1828.5 1413.2,1831.4 1408.7,1836.1 1403.8,1842.5 1398.6,1850.7 1393.0,1860.6 1387.0,1872.1 1380.7,1885.1 1374.2,1899.7 1367.3,1915.6 1360.2,1932.9 1352.9,1951.4 1345.4,1971.0 1337.7,1991.5 1329.9,2012.9 1322.1,2035.0 1314.2,2057.6 1306.3,2080.6 1298.5,2103.8  " style="stroke-opacity: 1.000000; stroke-width: 5.0; stroke: rgb(107,174,214); fill: none"  />
<path d="M 1409.6,2130.0 L 1412.9,2105.7 1416.1,2081.5 1418.9,2057.5 1421.3,2034.0 1423.4,2011.1 1425.1,1989.0 1426.3,1967.7 1427.0,1947.5 1427.2,1928.3 1426.9,1910.4 1426.0,1893.7 1424.6,1878.5 1422.6,1864.8 1420.0,1852.5 1416.8,1841.9 1413.0,1832.9 1408.5,1825.6 1403.5,1820.1 1397.9,1816.3 1391.7,1814.2 1384.9,1813.9 1377.6,1815.3 1369.7,1818.5 1361.2,1823.4 1352.3,1829.9 1342.9,1838.1 1333.0,1847.9 1322.7,1859.3 1312.0,1872.0 1301.0,1886.2 1289.6,1901.6 1278.1,1918.3 1266.2,1936.0 1254.3,1954.7 1242.2,1974.2 1230.1,1994.5 1217.9,2015.3 1205.9,2036.6 1194.0,2058.1  " style="stroke-opacity: 1.000000; stroke-width: 5.0; stroke: rgb(107,174,214); fill: none"  />
<path d="M 1409.6,2130.0 L 1412.9,2105.5 1415.9,2081.0 1418.5,2056.8 1420.6,2033.0 1422.2,2009.7 1423.2,1987.1 1423.6,1965.2 1423.4,1944.3 1422.6,1924.4 1421.1,1905.7 1418.9,1888.1 1415.9,1871.8 1412.3,1857.0 1407.8,1843.5 1402.7,1831.6 1396.7,1821.2 1390.1,1812.3 1382.6,1805.1 1374.4,1799.6 1365.5,1795.7 1355.9,1793.5 1345.6,1792.9 1334.5,1794.0 1322.9,1796.7 1310.6,1801.0 1297.7,1806.9 1284.3,1814.3 1270.4,1823.2 1256.0,1833.5 1241.2,1845.2 1226.0,1858.1 1210.6,1872.2 1194.9,1887.3 1179.0,1903.5 1162.9,1920.5 1146.9,1938.2 1130.9,1956.5 1114.9,1975.3 1099.2,1994.5  " style="stroke-opacity: 1.000000; stroke-width: 5.0; stroke: rgb(107,174,214); fill: none"  />
<path d="M 1943.5,1043.4 L 1926.3,1061.0 1909.0,1078.3 1891.8,1095.1 1874.7,1111.4 1857.8,1127.1 1841.3,1141.9 1825.2,1155.8 1809.6,1168.8 1794.6,1180.7 1780.2,1191.4 1766.5,1200.9 1753.6,1209.0 1741.4,1215.8 1730.2,1221.2 1719.8,1225.2 1710.4,1227.7 1701.9,1228.6 1694.4,1228.1 1688.0,1225.9 1682.5,1222.3 1678.1,1217.1 1674.8,1210.4 1672.5,1202.2 1671.2,1192.6 1670.9,1181.5 1671.7,1169.0 1673.4,1155.2 1676.1,1140.1 1679.6,1123.9 1684.1,1106.5 1689.4,1088.1 1695.5,1068.7 1702.3,1048.5 1709.8,1027.6 1717.9,1006.1 1726.5,984.2 1735.6,961.8 1745.0,939.3 1754.8,916.7  " style="stroke-opacity: 1.000000; stroke-width: 5.0; stroke: rgb(107,174,214); fill: none"  />
<path d="M 1298.5,2103.8 L 1306.5,2080.3 1314.8,2057.1 1323.4,2034.3 1332.2,2012.1 1341.2,1990.5 1350.4,1969.9 1359.8,1950.1 1369.3,1931.5 1379.0,1914.1 1388.8,1898.0 1398.6,1883.3 1408.5,1870.1 1418.5,1858.4 1428.5,1848.4 1438.4,1840.0 1448.4,1833.4 1458.3,1828.5 1468.2,1825.4 1478.0,1824.1 1487.7,1824.6 1497.3,1826.9 1506.8,1831.1 1516.2,1837.0 1525.4,1844.6 1534.4,1854.0 1543.3,1865.0 1552.0,1877.7 1560.4,1891.9 1568.7,1907.5 1576.7,1924.6 1584.5,1942.9 1592.0,1962.4 1599.2,1983.0 1606.2,2004.5 1612.9,2026.9 1619.3,2050.0 1625.4,2073.5 1631.2,2097.5 1636.7,2121.6  " style="stroke-opacity: 1.000000; stroke-width: 5.0; stroke: rgb(107,174,214); fill: none"  />
<path d="M 1298.5,2103.8 L 1306.4,2080.5 1314.5,2057.4 1322.7,2034.8 1331.0,2012.7 1339.4,1991.3 1347.9,1970.7 1356.3,1951.2 1364.7,1932.7 1373.1,1915.5 1381.5,1899.6 1389.7,1885.1 1397.8,1872.2 1405.8,1860.8 1413.6,1851.0 1421.2,1843.0 1428.6,1836.6 1435.8,1832.1 1442.8,1829.4 1449.5,1828.5 1456.0,1829.4 1462.2,1832.2 1468.2,1836.7 1473.8,1843.1 1479.2,1851.3 1484.2,1861.2 1489.0,1872.7 1493.4,1885.9 1497.5,1900.6 1501.4,1916.8 1504.9,1934.4 1508.1,1953.3 1511.0,1973.4 1513.6,1994.5 1515.9,2016.6 1518.0,2039.5 1519.7,2063.0 1521.2,2087.1 1522.5,2111.5 1523.5,2136.1  " style="stroke-opacity: 1.000000; stroke-width: 5.0; stroke: rgb(107,174,214); fill: none"  />
<path d="M 1298.5,2103.8 L 1306.3,2080.6 1314.2,2057.6 1322.1,2035.0 1329.9,2012.9 1337.7,1991.5 1345.4,1971.0 1352.9,1951.4 1360.2,1932.9 1367.3,1915.6 1374.2,1899.7 1380.7,1885.1 1387.0,1872.1 1393.0,1860.6 1398.6,1850.7 1403.8,1842.5 1408.7,1836.1 1413.2,1831.4 1417.2,1828.5 1420.8,1827.4 1424.0,1828.2 1426.8,1830.8 1429.1,1835.2 1431.0,1841.3 1432.5,1849.3 1433.5,1858.9 1434.1,1870.3 1434.3,1883.2 1434.0,1897.7 1433.4,1913.7 1432.4,1931.0 1431.0,1949.7 1429.3,1969.5 1427.2,1990.3 1424.9,2012.1 1422.2,2034.7 1419.4,2058.0 1416.3,2081.7 1413.0,2105.8 1409.6,2130.0  " style="stroke-opacity: 1.000000; stroke-width: 5.0; stroke: rgb(107,174,214); fill: none"  />
<path d="M 1298.5,2103.8 L 1306.2,2080.5 1313.7,2057.4 1321.0,2034.6 1328.0,2012.2 1334.6,1990.5 1340.8,1969.5 1346.6,1949.3 1351.8,1930.1 1356.5,1912.0 1360.6,1895.2 1364.1,1879.6 1366.9,1865.3 1369.0,1852.6 1370.5,1841.3 1371.2,1831.6 1371.2,1823.5 1370.4,1817.1 1368.9,1812.4 1366.7,1809.3 1363.7,1808.0 1359.9,1808.4 1355.4,1810.5 1350.2,1814.4 1344.2,1819.8 1337.6,1826.9 1330.3,1835.7 1322.4,1845.9 1313.9,1857.6 1304.8,1870.8 1295.2,1885.3 1285.1,1901.0 1274.6,1917.9 1263.7,1935.8 1252.5,1954.6 1241.1,1974.3 1229.4,1994.6 1217.6,2015.4 1205.8,2036.7 1194.0,2058.1  " style="stroke-opacity: 1.000000; stroke-width: 5.0; stroke: rgb(107,174,214); fill: none"  />
<path d="M 1298.5,2103.8 L 1306.2,2080.4 1313.6,2057.1 1320.6,2034.1 1327.3,2011.4 1333.4,1989.3 1339.0,1967.8 1343.9,1947.1 1348.3,1927.3 1351.9,1908.4 1354.8,1890.7 1356.9,1874.2 1358.2,1859.0 1358.7,1845.1 1358.3,1832.6 1357.1,1821.6 1354.9,1812.0 1351.9,1804.1 1347.9,1797.7 1343.1,1792.9 1337.3,1789.8 1330.7,1788.3 1323.2,1788.4 1314.9,1790.1 1305.7,1793.4 1295.7,1798.3 1285.0,1804.7 1273.5,1812.5 1261.4,1821.8 1248.6,1832.5 1235.2,1844.5 1221.3,1857.6 1206.9,1871.9 1192.2,1887.3 1177.0,1903.5 1161.7,1920.6 1146.1,1938.4 1130.5,1956.7 1114.8,1975.4 1099.2,1994.5  " style="stroke-opacity: 1.000000; stroke-width: 5.0; stroke: rgb(107,174,214); fill: none"  />
<path d="M 1194.0,2058.1 L 1206.2,2036.3 1218.7,2014.7 1231.6,1993.7 1244.8,1973.2 1258.1,1953.4 1271.7,1934.5 1285.4,1916.6 1299.2,1899.8 1313.1,1884.2 1327.0,1869.9 1340.9,1857.0 1354.8,1845.5 1368.7,1835.5 1382.5,1827.1 1396.1,1820.4 1409.6,1815.3 1422.9,1811.9 1436.1,1810.2 1449.0,1810.3 1461.7,1812.1 1474.1,1815.7 1486.2,1821.0 1498.1,1828.0 1509.6,1836.7 1520.8,1847.0 1531.6,1858.9 1542.1,1872.4 1552.2,1887.3 1562.0,1903.6 1571.3,1921.3 1580.2,1940.2 1588.8,1960.2 1596.9,1981.2 1604.6,2003.2 1611.9,2025.9 1618.7,2049.2 1625.1,2073.1 1631.1,2097.3 1636.7,2121.6  " style="stroke-opacity: 1.000000; stroke-width: 5.0; stroke: rgb(107,174,214); fill: none"  />
<path d="M 1194.0,2058.1 L 1206.0,2036.5 1218.3,2015.1 1230.8,1994.2 1243.4,1973.9 1256.2,1954.3 1268.9,1935.6 1281.7,1917.9 1294.4,1901.3 1307.0,1885.9 1319.5,1871.8 1331.8,1859.0 1343.9,1847.8 1355.8,1838.1 1367.4,1830.0 1378.7,1823.6 1389.7,1818.8 1400.3,1815.8 1410.6,1814.5 1420.5,1815.0 1430.0,1817.2 1439.0,1821.2 1447.6,1826.9 1455.8,1834.4 1463.4,1843.6 1470.7,1854.4 1477.4,1866.9 1483.7,1880.9 1489.5,1896.3 1494.8,1913.2 1499.6,1931.4 1504.0,1950.9 1507.9,1971.4 1511.4,1993.0 1514.4,2015.4 1517.0,2038.6 1519.2,2062.4 1521.0,2086.7 1522.4,2111.3 1523.5,2136.1  " style="stroke-opacity: 1.000000; stroke-width: 5.0; stroke: rgb(107,174,214); fill: none"  />
<path d="M 1194.0,2058.1 L 1205.9,2036.6 1217.9,2015.3 1230.1,1994.5 1242.2,1974.2 1254.3,1954.7 1266.2,1936.0 1278.1,1918.3 1289.6,1901.6 1301.0,1886.2 1312.0,1872.0 1322.7,1859.3 1333.0,1847.9 1342.9,1838.1 1352.3,1829.9 1361.2,1823.4 1369.7,1818.5 1377.6,1815.3 1384.9,1813.9 1391.7,1814.2 1397.9,1816.3 1403.5,1820.1 1408.5,1825.6 1413.0,1832.9 1416.8,1841.9 1420.0,1852.5 1422.6,1864.8 1424.6,1878.5 1426.0,1893.7 1426.9,1910.4 1427.2,1928.3 1427.0,1947.5 1426.3,1967.7 1425.1,1989.0 1423.4,2011.1 1421.3,2034.0 1418.9,2057.5 1416.1,2081.5 1412.9,2105.7 1409.6,2130.0  " style="stroke-opacity: 1.000000; stroke-width: 5.0; stroke: rgb(107,174,214); fill: none"  />
<path d="M 1194.0,2058.1 L 1205.8,2036.7 1217.6,2015.4 1229.4,1994.6 1241.1,1974.3 1252.5,1954.6 1263.7,1935.8 1274.6,1917.9 1285.1,1901.0 1295.2,1885.3 1304.8,1870.8 1313.9,1857.6 1322.4,1845.9 1330.3,1835.7 1337.6,1826.9 1344.2,1819.8 1350.2,1814.4 1355.4,1810.5 1359.9,1808.4 1363.7,1808.0 1366.7,1809.3 1368.9,1812.4 1370.4,1817.1 1371.2,1823.5 1371.2,1831.6 1370.5,1841.3 1369.0,1852.6 1366.9,1865.3 1364.1,1879.6 1360.6,1895.2 1356.5,1912.0 1351.8,1930.1 1346.6,1949.3 1340.8,1969.5 1334.6,1990.5 1328.0,2012.2 1321.0,2034.6 1313.7,2057.4 1306.2,2080.5 1298.5,2103.8  " style="stroke-opacity: 1.000000; stroke-width: 5.0; stroke: rgb(107,174,214); fill: none"  />
<path d="M 1194.0,2058.1 L 1205.7,2036.6 1217.2,2015.2 1228.4,1994.1 1239.3,1973.3 1249.7,1953.1 1259.6,1933.5 1268.8,1914.7 1277.4,1896.7 1285.2,1879.8 1292.3,1863.9 1298.5,1849.2 1303.8,1835.7 1308.2,1823.5 1311.6,1812.7 1314.1,1803.3 1315.5,1795.3 1315.9,1788.9 1315.3,1784.0 1313.6,1780.6 1310.8,1778.7 1307.1,1778.5 1302.3,1779.7 1296.4,1782.5 1289.6,1786.9 1281.8,1792.7 1273.1,1800.0 1263.5,1808.6 1253.0,1818.7 1241.7,1830.0 1229.7,1842.5 1217.0,1856.2 1203.6,1870.9 1189.7,1886.6 1175.3,1903.1 1160.5,1920.4 1145.4,1938.3 1130.1,1956.7 1114.7,1975.5 1099.2,1994.5  " style="stroke-opacity: 1.000000; stroke-width: 5.0; stroke: rgb(107,174,214); fill: none"  />
<path d="M 2134.4,1448.0 L 2110.0,1450.0 2085.8,1452.2 2061.9,1454.5 2038.6,1456.8 2016.0,1459.3 1994.2,1461.9 1973.4,1464.5 1953.7,1467.2 1935.3,1470.0 1918.1,1472.9 1902.4,1475.8 1888.3,1478.8 1875.7,1481.9 1864.7,1485.0 1855.5,1488.1 1848.1,1491.3 1842.5,1494.5 1838.8,1497.8 1836.9,1501.0 1836.8,1504.3 1838.7,1507.6 1842.4,1510.9 1847.9,1514.2 1855.3,1517.5 1864.5,1520.8 1875.3,1524.1 1887.9,1527.3 1902.0,1530.6 1917.7,1533.7 1934.7,1536.9 1953.2,1540.0 1972.8,1543.0 1993.6,1546.0 2015.3,1548.9 2037.9,1551.7 2061.1,1554.4 2084.9,1557.1 2109.1,1559.6 2133.5,1562.1  " style="stroke-opacity: 1.000000; stroke-width: 5.0; stroke: rgb(107,174,214); fill: none"  />
<path d="M 2133.5,1562.1 L 2108.8,1559.5 2084.4,1556.6 2060.2,1553.3 2036.6,1549.7 2013.6,1545.7 1991.4,1541.3 1970.1,1536.5 1949.8,1531.4 1930.7,1525.8 1912.8,1519.9 1896.3,1513.6 1881.2,1506.8 1867.6,1499.7 1855.6,1492.2 1845.2,1484.4 1836.5,1476.1 1829.5,1467.5 1824.3,1458.6 1820.9,1449.3 1819.2,1439.7 1819.3,1429.9 1821.2,1419.7 1824.9,1409.2 1830.3,1398.6 1837.4,1387.7 1846.2,1376.6 1856.6,1365.3 1868.6,1353.9 1882.0,1342.4 1896.9,1330.8 1913.0,1319.1 1930.4,1307.4 1948.8,1295.8 1968.3,1284.2 1988.6,1272.7 2009.6,1261.3 2031.2,1250.1 2053.3,1239.1 2075.6,1228.4  " style="stroke-opacity: 1.000000; stroke-width: 5.0; stroke: rgb(107,174,214); fill: none"  />
<path d="M 2133.5,1562.1 L 2109.1,1559.6 2084.9,1557.1 2061.1,1554.4 2037.9,1551.7 2015.3,1548.9 1993.6,1546.0 1972.8,1543.0 1953.2,1540.0 1934.7,1536.9 1917.7,1533.7 1902.0,1530.6 1887.9,1527.3 1875.3,1524.1 1864.5,1520.8 1855.3,1517.5 1847.9,1514.2 1842.4,1510.9 1838.7,1507.6 1836.8,1504.3 1836.9,1501.0 1838.8,1497.8 1842.5,1494.5 1848.1,1491.3 1855.5,1488.1 1864.7,1485.0 1875.7,1481.9 1888.3,1478.8 1902.4,1475.8 1918.1,1472.9 1935.3,1470.0 1953.7,1467.2 1973.4,1464.5 1994.2,1461.9 2016.0,1459.3 2038.6,1456.8 2061.9,1454.5 2085.8,1452.2 2110.0,1450.0 2134.4,1448.0  " style="stroke-opacity: 1.000000; stroke-width: 5.0; stroke: rgb(107,174,214); fill: none"  />
<path d="M 1099.2,1994.5 L 1115.6,1974.7 1132.5,1955.3 1149.8,1936.4 1167.5,1918.1 1185.5,1900.6 1203.8,1883.9 1222.4,1868.2 1241.1,1853.5 1260.1,1840.0 1279.1,1827.7 1298.3,1816.7 1317.5,1807.1 1336.7,1798.8 1355.9,1792.1 1375.0,1786.8 1394.0,1783.1 1412.9,1781.0 1431.7,1780.4 1450.2,1781.4 1468.6,1784.1 1486.7,1788.3 1504.5,1794.1 1522.1,1801.5 1539.3,1810.4 1556.2,1820.8 1572.7,1832.7 1588.8,1846.0 1604.5,1860.7 1619.8,1876.6 1634.6,1893.8 1649.0,1912.1 1662.9,1931.4 1676.2,1951.7 1689.1,1972.9 1701.5,1994.8 1713.3,2017.3 1724.6,2040.3 1735.3,2063.7 1745.5,2087.2  " style="stroke-opacity: 1.000000; stroke-width: 5.0; stroke: rgb(107,174,214); fill: none"  />
<path d="M 1099.2,1994.5 L 1115.4,1975.0 1131.9,1955.8 1148.8,1937.2 1165.9,1919.2 1183.2,1902.0 1200.8,1885.6 1218.4,1870.3 1236.1,1856.0 1253.8,1842.9 1271.5,1831.1 1289.1,1820.7 1306.7,1811.6 1324.0,1804.0 1341.2,1797.9 1358.1,1793.4 1374.8,1790.4 1391.2,1789.1 1407.2,1789.4 1423.0,1791.4 1438.3,1795.0 1453.2,1800.3 1467.7,1807.2 1481.8,1815.7 1495.4,1825.8 1508.5,1837.5 1521.1,1850.6 1533.2,1865.2 1544.8,1881.1 1555.9,1898.4 1566.4,1916.9 1576.4,1936.5 1585.8,1957.2 1594.7,1978.8 1603.0,2001.3 1610.8,2024.5 1618.1,2048.2 1624.8,2072.5 1631.0,2097.0 1636.7,2121.6  " style="stroke-opacity: 1.000000; stroke-width: 5.0; stroke: rgb(107,174,214); fill: none"  />
<path d="M 1099.2,1994.5 L 1115.1,1975.2 1131.3,1956.2 1147.8,1937.8 1164.4,1920.0 1181.0,1902.9 1197.8,1886.8 1214.4,1871.6 1231.0,1857.6 1247.5,1844.7 1263.7,1833.1 1279.8,1822.8 1295.5,1814.0 1310.9,1806.7 1325.9,1800.9 1340.6,1796.7 1354.8,1794.1 1368.5,1793.1 1381.7,1793.8 1394.4,1796.2 1406.5,1800.3 1418.1,1806.0 1429.1,1813.4 1439.5,1822.4 1449.3,1833.0 1458.5,1845.1 1467.0,1858.8 1474.9,1873.9 1482.2,1890.4 1488.9,1908.2 1494.9,1927.3 1500.4,1947.4 1505.2,1968.6 1509.4,1990.8 1513.1,2013.7 1516.2,2037.4 1518.7,2061.6 1520.8,2086.2 1522.4,2111.1 1523.5,2136.1  " style="stroke-opacity: 1.000000; stroke-width: 5.0; stroke: rgb(107,174,214); fill: none"  />
<path d="M 1099.2,1994.5 L 1114.9,1975.3 1130.9,1956.5 1146.9,1938.2 1162.9,1920.5 1179.0,1903.5 1194.9,1887.3 1210.6,1872.2 1226.0,1858.1 1241.2,1845.2 1256.0,1833.5 1270.4,1823.2 1284.3,1814.3 1297.7,1806.9 1310.6,1801.0 1322.9,1796.7 1334.5,1794.0 1345.6,1792.9 1355.9,1793.5 1365.5,1795.7 1374.4,1799.6 1382.6,1805.1 1390.1,1812.3 1396.7,1821.2 1402.7,1831.6 1407.8,1843.5 1412.3,1857.0 1415.9,1871.8 1418.9,1888.1 1421.1,1905.7 1422.6,1924.4 1423.4,1944.3 1423.6,1965.2 1423.2,1987.1 1422.2,2009.7 1420.6,2033.0 1418.5,2056.8 1415.9,2081.0 1412.9,2105.5 1409.6,2130.0  " style="stroke-opacity: 1.000000; stroke-width: 5.0; stroke: rgb(107,174,214); fill: none"  />
<path d="M 1099.2,1994.5 L 1114.8,1975.4 1130.5,1956.7 1146.1,1938.4 1161.7,1920.6 1177.0,1903.5 1192.2,1887.3 1206.9,1871.9 1221.3,1857.6 1235.2,1844.5 1248.6,1832.5 1261.4,1821.8 1273.5,1812.5 1285.0,1804.7 1295.7,1798.3 1305.7,1793.4 1314.9,1790.1 1323.2,1788.4 1330.7,1788.3 1337.3,1789.8 1343.1,1792.9 1347.9,1797.7 1351.9,1804.1 1354.9,1812.0 1357.1,1821.6 1358.3,1832.6 1358.7,1845.1 1358.2,1859.0 1356.9,1874.2 1354.8,1890.7 1351.9,1908.4 1348.3,1927.3 1343.9,1947.1 1339.0,1967.8 1333.4,1989.3 1327.3,2011.4 1320.6,2034.1 1313.6,2057.1 1306.2,2080.4 1298.5,2103.8  " style="stroke-opacity: 1.000000; stroke-width: 5.0; stroke: rgb(107,174,214); fill: none"  />
<path d="M 1099.2,1994.5 L 1114.7,1975.5 1130.1,1956.7 1145.4,1938.3 1160.5,1920.4 1175.3,1903.1 1189.7,1886.6 1203.6,1870.9 1217.0,1856.2 1229.7,1842.5 1241.7,1830.0 1253.0,1818.7 1263.5,1808.6 1273.1,1800.0 1281.8,1792.7 1289.6,1786.9 1296.4,1782.5 1302.3,1779.7 1307.1,1778.5 1310.8,1778.7 1313.6,1780.6 1315.3,1784.0 1315.9,1788.9 1315.5,1795.3 1314.1,1803.3 1311.6,1812.7 1308.2,1823.5 1303.8,1835.7 1298.5,1849.2 1292.3,1863.9 1285.2,1879.8 1277.4,1896.7 1268.8,1914.7 1259.6,1933.5 1249.7,1953.1 1239.3,1973.3 1228.4,1994.1 1217.2,2015.2 1205.7,2036.6 1194.0,2058.1  " style="stroke-opacity: 1.000000; stroke-width: 5.0; stroke: rgb(107,174,214); fill: none"  />
<path d="M 2017.9,1130.0 L 1997.6,1144.2 1977.3,1158.1 1957.0,1171.5 1936.8,1184.4 1916.8,1196.5 1897.2,1207.8 1878.0,1218.2 1859.4,1227.7 1841.3,1236.1 1823.9,1243.4 1807.3,1249.5 1791.5,1254.4 1776.6,1257.9 1762.7,1260.2 1749.7,1261.1 1737.7,1260.6 1726.8,1258.7 1717.0,1255.4 1708.3,1250.7 1700.7,1244.6 1694.3,1237.1 1689.1,1228.2 1685.0,1217.9 1682.0,1206.3 1680.2,1193.4 1679.5,1179.2 1680.0,1163.9 1681.4,1147.5 1684.0,1130.0 1687.5,1111.5 1692.0,1092.1 1697.4,1071.8 1703.6,1050.9 1710.6,1029.4 1718.4,1007.3 1726.7,984.9 1735.6,962.3 1745.0,939.5 1754.8,916.7  " style="stroke-opacity: 1.000000; stroke-width: 5.0; stroke: rgb(107,174,214); fill: none"  />
</g>
<defs>
<pattern id="hline" width="10" height="10" patternTransform="rotate(0 0 0)" patternUnits="userSpaceOnUse"><line x1="0" y1="0" x2="10" y2="0" style="stroke:black;stroke-width:5" /></pattern>
<pattern id="checker" width="10" height="10" patternTransform="rotate(45 0 0)" patternUnits="userSpaceOnUse"><line x1="0" y1="0" x2="10" y2="0" style="stroke:black;stroke-width:5" /><line x1="0" y1="0" x2="0" y2="10" style="stroke:black;stroke-width:4" /></pattern>
<pattern id="vline-sparse" width="10" height="10" patternTransform="rotate(0 0 0)" patternUnits="userSpaceOnUse"><line x1="0" y1="0" x2="0" y2="10" style="stroke:black;stroke-width:2" /></pattern>
<pattern id="vline" width="10" height="10" patternTransform="rotate(0 0 0)" patternUnits="userSpaceOnUse"><line x1="0" y1="0" x2="0" y2="10" style="stroke:black;stroke-width:5" /></pattern>
<pattern id="hline-sparse" width="10" height="10" patternTransform="rotate(0 0 0)" patternUnits="userSpaceOnUse"><line x1="0" y1="0" x2="10" y2="0" style="stroke:black;stroke-width:2" /></pattern>
<pattern id="checker" width="10" height="10" patternTransform="rotate(45 0 0)" patternUnits="userSpaceOnUse"><line x1="0" y1="0" x2="10" y2="0" style="stroke:black;stroke-width:2" /><line x1="0" y1="0" x2="0" y2="10" style="stroke:black;stroke-width:2" /></pattern>
</defs>
</svg>
