<?xml version="1.0" encoding="utf-8" standalone="no"?>
<!DOCTYPE svg PUBLIC "-//W3C//DTD SVG 1.1//EN" "http://www.w3.org/Graphics/SVG/1.1/DTD/svg11.dtd">
<svg width="3000px" height="3000px" version="1.1" xmlns="http://www.w3.org/2000/svg" xmlns:xlink="http://www.w3.org/1999/xlink">
<g id="bg">
<rect x="0" y="0" width="3000px" height="3000px" style="fill:rgb(255,255,255);"/>
</g>
<g id="ideograms">
<path d="M1500.000,535.000 A965.000,965.000 40.000 0,1 1601.714,540.376 L1618.579,381.267 A1125.000,1125.000 0.000 0,0 1500.000,375.000 Z" style="stroke-width:2.0;stroke:rgb(115,115,115);stroke-linecap:round;fill:rgb(153,204,255);" />
<text x="1635.1" y="307.6" font-size="195.0px" font-family="CMUBright-Bold" style="text-anchor:start;fill:rgb(0,0,0);" transform="rotate(273.0,1635.1,307.6)" >5</text>
<path d="M1500.000,535.000 A965.000,965.000 40.000 0,1 1601.714,540.376 L1618.579,381.267 A1125.000,1125.000 0.000 0,0 1500.000,375.000 Z" style="stroke-width:2.0;stroke:rgb(115,115,115);stroke-linecap:round;fill:none;" />
<path d="M1672.307,550.508 A965.000,965.000 40.000 0,1 1771.427,573.959 L1816.431,420.418 A1125.000,1125.000 0.000 0,0 1700.877,393.079 Z" style="stroke-width:2.0;stroke:rgb(115,115,115);stroke-linecap:round;fill:rgb(153,204,255);" />
<text x="1847.7" y="351.5" font-size="195.0px" font-family="CMUBright-Bold" style="text-anchor:start;fill:rgb(0,0,0);" transform="rotate(283.3,1847.7,351.5)" >8</text>
<path d="M1672.307,550.508 A965.000,965.000 40.000 0,1 1771.427,573.959 L1816.431,420.418 A1125.000,1125.000 0.000 0,0 1700.877,393.079 Z" style="stroke-width:2.0;stroke:rgb(115,115,115);stroke-linecap:round;fill:none;" />
<path d="M1839.077,596.533 A965.000,965.000 40.000 0,1 1932.417,637.306 L2004.113,494.269 A1125.000,1125.000 0.000 0,0 1895.297,446.736 Z" style="stroke-width:2.0;stroke:rgb(115,115,115);stroke-linecap:round;fill:rgb(153,204,255);" />
<text x="2047.2" y="432.0" font-size="195.0px" font-family="CMUBright-Bold" style="text-anchor:start;fill:rgb(0,0,0);" transform="rotate(293.6,2047.2,432.0)" >10</text>
<path d="M1839.077,596.533 A965.000,965.000 40.000 0,1 1932.417,637.306 L2004.113,494.269 A1125.000,1125.000 0.000 0,0 1895.297,446.736 Z" style="stroke-width:2.0;stroke:rgb(115,115,115);stroke-linecap:round;fill:none;" />
<path d="M1994.948,671.597 A965.000,965.000 40.000 0,1 2079.507,728.381 L2175.592,600.444 A1125.000,1125.000 0.000 0,0 2077.012,534.245 Z" style="stroke-width:2.0;stroke:rgb(115,115,115);stroke-linecap:round;fill:rgb(153,204,255);" />
<text x="2229.1" y="546.9" font-size="195.0px" font-family="CMUBright-Bold" style="text-anchor:start;fill:rgb(0,0,0);" transform="rotate(303.9,2229.1,546.9)" >13</text>
<path d="M1994.948,671.597 A965.000,965.000 40.000 0,1 2079.507,728.381 L2175.592,600.444 A1125.000,1125.000 0.000 0,0 2077.012,534.245 Z" style="stroke-width:2.0;stroke:rgb(115,115,115);stroke-linecap:round;fill:none;" />
<path d="M2134.911,773.286 A965.000,965.000 40.000 0,1 2207.972,844.256 L2325.356,735.532 A1125.000,1125.000 0.000 0,0 2240.181,652.795 Z" style="stroke-width:2.0;stroke:rgb(115,115,115);stroke-linecap:round;fill:rgb(153,204,255);" />
<text x="2387.6" y="692.4" font-size="195.0px" font-family="CMUBright-Bold" style="text-anchor:start;fill:rgb(0,0,0);" transform="rotate(314.2,2387.6,692.4)" >28</text>
<path d="M2134.911,773.286 A965.000,965.000 40.000 0,1 2207.972,844.256 L2325.356,735.532 A1125.000,1125.000 0.000 0,0 2240.181,652.795 Z" style="stroke-width:2.0;stroke:rgb(115,115,115);stroke-linecap:round;fill:none;" />
<path d="M2254.467,898.332 A965.000,965.000 40.000 0,1 2313.683,981.207 L2448.594,895.190 A1125.000,1125.000 0.000 0,0 2379.560,798.574 Z" style="stroke-width:2.0;stroke:rgb(115,115,115);stroke-linecap:round;fill:rgb(116,196,118);" />
<text x="2516.5" y="862.2" font-size="195.0px" font-family="CMUBright-Bold" style="text-anchor:start;fill:rgb(0,0,0);" transform="rotate(324.5,2516.5,862.2)" >14</text>
<path d="M2254.467,898.332 A965.000,965.000 40.000 0,1 2313.683,981.207 L2448.594,895.190 A1125.000,1125.000 0.000 0,0 2379.560,798.574 Z" style="stroke-width:2.0;stroke:rgb(115,115,115);stroke-linecap:round;fill:none;" />
<path d="M2349.775,1042.717 A965.000,965.000 40.000 0,1 2393.240,1134.833 L2541.342,1074.288 A1125.000,1125.000 0.000 0,0 2490.670,966.898 Z" style="stroke-width:2.0;stroke:rgb(115,115,115);stroke-linecap:round;fill:rgb(116,196,118);" />
<text x="2614.7" y="1055.8" font-size="195.0px" font-family="CMUBright-Bold" style="text-anchor:start;fill:rgb(0,0,0);" transform="rotate(334.7,2614.7,1055.8)" >15</text>
<path d="M2349.775,1042.717 A965.000,965.000 40.000 0,1 2393.240,1134.833 L2541.342,1074.288 A1125.000,1125.000 0.000 0,0 2490.670,966.898 Z" style="stroke-width:2.0;stroke:rgb(115,115,115);stroke-linecap:round;fill:none;" />
<path d="M2417.770,1201.799 A965.000,965.000 40.000 0,1 2444.089,1300.196 L2600.621,1267.068 A1125.000,1125.000 0.000 0,0 2569.939,1152.356 Z" style="stroke-width:2.0;stroke:rgb(115,115,115);stroke-linecap:round;fill:rgb(116,196,118);" />
<text x="2676.2" y="1262.0" font-size="195.0px" font-family="CMUBright-Bold" style="text-anchor:start;fill:rgb(0,0,0);" transform="rotate(345.0,2676.2,1262.0)" >23</text>
<path d="M2417.770,1201.799 A965.000,965.000 40.000 0,1 2444.089,1300.196 L2600.621,1267.068 A1125.000,1125.000 0.000 0,0 2569.939,1152.356 Z" style="stroke-width:2.0;stroke:rgb(115,115,115);stroke-linecap:round;fill:none;" />
<path d="M2456.267,1370.465 A965.000,965.000 40.000 0,1 2464.593,1471.980 L2624.526,1467.335 A1125.000,1125.000 0.000 0,0 2614.818,1348.988 Z" style="stroke-width:2.0;stroke:rgb(115,115,115);stroke-linecap:round;fill:rgb(116,196,118);" />
<text x="2699.7" y="1473.8" font-size="195.0px" font-family="CMUBright-Bold" style="text-anchor:start;fill:rgb(0,0,0);" transform="rotate(355.3,2699.7,1473.8)" >24</text>
<path d="M2456.267,1370.465 A965.000,965.000 40.000 0,1 2464.593,1471.980 L2624.526,1467.335 A1125.000,1125.000 0.000 0,0 2614.818,1348.988 Z" style="stroke-width:2.0;stroke:rgb(115,115,115);stroke-linecap:round;fill:none;" />
<path d="M2464.028,1543.295 A965.000,965.000 40.000 0,1 2454.095,1644.665 L2612.287,1668.651 A1125.000,1125.000 0.000 0,0 2623.867,1550.473 Z" style="stroke-width:2.0;stroke:rgb(115,115,115);stroke-linecap:round;fill:rgb(116,196,118);" />
<text x="2684.8" y="1690.4" font-size="195.0px" font-family="CMUBright-Bold" style="text-anchor:start;fill:rgb(0,0,0);" transform="rotate(5.6,2684.8,1690.4)" >25</text>
<path d="M2464.028,1543.295 A965.000,965.000 40.000 0,1 2454.095,1644.665 L2612.287,1668.651 A1125.000,1125.000 0.000 0,0 2623.867,1550.473 Z" style="stroke-width:2.0;stroke:rgb(115,115,115);stroke-linecap:round;fill:none;" />
<path d="M2440.805,1714.733 A965.000,965.000 40.000 0,1 2412.931,1812.701 L2564.298,1864.548 A1125.000,1125.000 0.000 0,0 2596.794,1750.336 Z" style="stroke-width:2.0;stroke:rgb(115,115,115);stroke-linecap:round;fill:rgb(116,196,118);" />
<text x="2631.8" y="1898.9" font-size="195.0px" font-family="CMUBright-Bold" style="text-anchor:start;fill:rgb(0,0,0);" transform="rotate(15.9,2631.8,1898.9)" >26</text>
<path d="M2440.805,1714.733 A965.000,965.000 40.000 0,1 2412.931,1812.701 L2564.298,1864.548 A1125.000,1125.000 0.000 0,0 2596.794,1750.336 Z" style="stroke-width:2.0;stroke:rgb(115,115,115);stroke-linecap:round;fill:none;" />
<path d="M2387.344,1879.269 A965.000,965.000 40.000 0,1 2342.425,1970.686 L2482.102,2048.727 A1125.000,1125.000 0.000 0,0 2534.469,1942.153 Z" style="stroke-width:2.0;stroke:rgb(115,115,115);stroke-linecap:round;fill:rgb(153,0,204);" />
<text x="2543.3" y="2092.8" font-size="195.0px" font-family="CMUBright-Bold" style="text-anchor:start;fill:rgb(0,0,0);" transform="rotate(26.2,2543.3,2092.8)" >1</text>
<path d="M2387.344,1879.269 A965.000,965.000 40.000 0,1 2342.425,1970.686 L2482.102,2048.727 A1125.000,1125.000 0.000 0,0 2534.469,1942.153 Z" style="stroke-width:2.0;stroke:rgb(115,115,115);stroke-linecap:round;fill:none;" />
<path d="M2305.363,2031.616 A965.000,965.000 40.000 0,1 2244.843,2113.542 L2368.340,2215.270 A1125.000,1125.000 0.000 0,0 2438.895,2119.759 Z" style="stroke-width:2.0;stroke:rgb(115,115,115);stroke-linecap:round;fill:rgb(153,0,204);" />
<text x="2421.4" y="2268.8" font-size="195.0px" font-family="CMUBright-Bold" style="text-anchor:start;fill:rgb(0,0,0);" transform="rotate(36.5,2421.4,2268.8)" >7</text>
<path d="M2305.363,2031.616 A965.000,965.000 40.000 0,1 2244.843,2113.542 L2368.340,2215.270 A1125.000,1125.000 0.000 0,0 2438.895,2119.759 Z" style="stroke-width:2.0;stroke:rgb(115,115,115);stroke-linecap:round;fill:none;" />
<path d="M2197.497,2166.875 A965.000,965.000 40.000 0,1 2123.321,2236.679 L2226.669,2358.823 A1125.000,1125.000 0.000 0,0 2313.144,2277.445 Z" style="stroke-width:2.0;stroke:rgb(115,115,115);stroke-linecap:round;fill:rgb(153,0,204);" />
<text x="2267.0" y="2422.9" font-size="195.0px" font-family="CMUBright-Bold" style="text-anchor:start;fill:rgb(0,0,0);" transform="rotate(46.7,2267.0,2422.9)" >9</text>
<path d="M2197.497,2166.875 A965.000,965.000 40.000 0,1 2123.321,2236.679 L2226.669,2358.823 A1125.000,1125.000 0.000 0,0 2313.144,2277.445 Z" style="stroke-width:2.0;stroke:rgb(115,115,115);stroke-linecap:round;fill:none;" />
<path d="M2067.213,2280.701 A965.000,965.000 40.000 0,1 1981.764,2336.139 L2061.642,2474.773 A1125.000,1125.000 0.000 0,0 2161.258,2410.144 Z" style="stroke-width:2.0;stroke:rgb(115,115,115);stroke-linecap:round;fill:rgb(153,0,204);" />
<text x="2090.7" y="2544.5" font-size="195.0px" font-family="CMUBright-Bold" style="text-anchor:start;fill:rgb(0,0,0);" transform="rotate(57.0,2090.7,2544.5)" >17</text>
<path d="M2067.213,2280.701 A965.000,965.000 40.000 0,1 1981.764,2336.139 L2061.642,2474.773 A1125.000,1125.000 0.000 0,0 2161.258,2410.144 Z" style="stroke-width:2.0;stroke:rgb(115,115,115);stroke-linecap:round;fill:none;" />
<path d="M1918.698,2369.435 A965.000,965.000 40.000 0,1 1824.724,2408.724 L1878.564,2559.393 A1125.000,1125.000 0.000 0,0 1988.119,2513.590 Z" style="stroke-width:2.0;stroke:rgb(115,115,115);stroke-linecap:round;fill:rgb(153,0,204);" />
<text x="1893.8" y="2633.6" font-size="195.0px" font-family="CMUBright-Bold" style="text-anchor:start;fill:rgb(0,0,0);" transform="rotate(67.3,1893.8,2633.6)" >18</text>
<path d="M1918.698,2369.435 A965.000,965.000 40.000 0,1 1824.724,2408.724 L1878.564,2559.393 A1125.000,1125.000 0.000 0,0 1988.119,2513.590 Z" style="stroke-width:2.0;stroke:rgb(115,115,115);stroke-linecap:round;fill:none;" />
<path d="M1756.726,2430.224 A965.000,965.000 40.000 0,1 1657.246,2452.102 L1683.318,2609.964 A1125.000,1125.000 0.000 0,0 1799.291,2584.458 Z" style="stroke-width:2.0;stroke:rgb(115,115,115);stroke-linecap:round;fill:rgb(153,0,204);" />
<text x="1685.0" y="2685.6" font-size="195.0px" font-family="CMUBright-Bold" style="text-anchor:start;fill:rgb(0,0,0);" transform="rotate(77.6,1685.0,2685.6)" >34</text>
<path d="M1756.726,2430.224 A965.000,965.000 40.000 0,1 1657.246,2452.102 L1683.318,2609.964 A1125.000,1125.000 0.000 0,0 1799.291,2584.458 Z" style="stroke-width:2.0;stroke:rgb(115,115,115);stroke-linecap:round;fill:none;" />
<path d="M1586.502,2461.115 A965.000,965.000 40.000 0,1 1484.715,2464.879 L1482.181,2624.859 A1125.000,1125.000 0.000 0,0 1600.844,2620.471 Z" style="stroke-width:2.0;stroke:rgb(115,115,115);stroke-linecap:round;fill:rgb(253,208,162);" />
<text x="1472.4" y="2699.7" font-size="195.0px" font-family="CMUBright-Bold" style="text-anchor:start;fill:rgb(0,0,0);" transform="rotate(87.9,1472.4,2699.7)" >12</text>
<path d="M1586.502,2461.115 A965.000,965.000 40.000 0,1 1484.715,2464.879 L1482.181,2624.859 A1125.000,1125.000 0.000 0,0 1600.844,2620.471 Z" style="stroke-width:2.0;stroke:rgb(115,115,115);stroke-linecap:round;fill:none;" />
<path d="M1413.498,2461.115 A965.000,965.000 40.000 0,1 1312.675,2446.644 L1281.616,2603.600 A1125.000,1125.000 0.000 0,0 1399.156,2620.471 Z" style="stroke-width:2.0;stroke:rgb(115,115,115);stroke-linecap:round;fill:rgb(253,208,162);" />
<text x="1403.0" y="2696.1" font-size="195.0px" font-family="CMUBright-Bold" style="text-anchor:end;fill:rgb(0,0,0);" transform="rotate(-81.8,1403.0,2696.1)" >16</text>
<path d="M1413.498,2461.115 A965.000,965.000 40.000 0,1 1312.675,2446.644 L1281.616,2603.600 A1125.000,1125.000 0.000 0,0 1399.156,2620.471 Z" style="stroke-width:2.0;stroke:rgb(115,115,115);stroke-linecap:round;fill:none;" />
<path d="M1243.274,2430.224 A965.000,965.000 40.000 0,1 1146.656,2397.983 L1088.070,2546.871 A1125.000,1125.000 0.000 0,0 1200.709,2584.458 Z" style="stroke-width:2.0;stroke:rgb(115,115,115);stroke-linecap:round;fill:rgb(253,208,162);" />
<text x="1191.0" y="2659.5" font-size="195.0px" font-family="CMUBright-Bold" style="text-anchor:end;fill:rgb(0,0,0);" transform="rotate(-71.5,1191.0,2659.5)" >20</text>
<path d="M1243.274,2430.224 A965.000,965.000 40.000 0,1 1146.656,2397.983 L1088.070,2546.871 A1125.000,1125.000 0.000 0,0 1200.709,2584.458 Z" style="stroke-width:2.0;stroke:rgb(115,115,115);stroke-linecap:round;fill:none;" />
<path d="M1081.302,2369.435 A965.000,965.000 40.000 0,1 991.993,2320.460 L907.764,2456.494 A1125.000,1125.000 0.000 0,0 1011.881,2513.590 Z" style="stroke-width:2.0;stroke:rgb(115,115,115);stroke-linecap:round;fill:rgb(253,208,162);" />
<text x="987.1" y="2584.9" font-size="195.0px" font-family="CMUBright-Bold" style="text-anchor:end;fill:rgb(0,0,0);" transform="rotate(-61.3,987.1,2584.9)" >21</text>
<path d="M1081.302,2369.435 A965.000,965.000 40.000 0,1 991.993,2320.460 L907.764,2456.494 A1125.000,1125.000 0.000 0,0 1011.881,2513.590 Z" style="stroke-width:2.0;stroke:rgb(115,115,115);stroke-linecap:round;fill:none;" />
<path d="M932.787,2280.701 A965.000,965.000 40.000 0,1 853.658,2216.566 L746.493,2335.375 A1125.000,1125.000 0.000 0,0 838.742,2410.144 Z" style="stroke-width:2.0;stroke:rgb(115,115,115);stroke-linecap:round;fill:rgb(253,208,162);" />
<text x="802.5" y="2476.5" font-size="195.0px" font-family="CMUBright-Bold" style="text-anchor:end;fill:rgb(0,0,0);" transform="rotate(-51.0,802.5,2476.5)" >27</text>
<path d="M932.787,2280.701 A965.000,965.000 40.000 0,1 853.658,2216.566 L746.493,2335.375 A1125.000,1125.000 0.000 0,0 838.742,2410.144 Z" style="stroke-width:2.0;stroke:rgb(115,115,115);stroke-linecap:round;fill:none;" />
<path d="M802.503,2166.875 A965.000,965.000 40.000 0,1 736.097,2089.642 L609.440,2187.406 A1125.000,1125.000 0.000 0,0 686.856,2277.445 Z" style="stroke-width:2.0;stroke:rgb(115,115,115);stroke-linecap:round;fill:rgb(253,208,162);" />
<text x="640.0" y="2336.9" font-size="195.0px" font-family="CMUBright-Bold" style="text-anchor:end;fill:rgb(0,0,0);" transform="rotate(-40.7,640.0,2336.9)" >29</text>
<path d="M802.503,2166.875 A965.000,965.000 40.000 0,1 736.097,2089.642 L609.440,2187.406 A1125.000,1125.000 0.000 0,0 686.856,2277.445 Z" style="stroke-width:2.0;stroke:rgb(115,115,115);stroke-linecap:round;fill:none;" />
<path d="M694.637,2031.616 A965.000,965.000 40.000 0,1 643.089,1943.766 L501.010,2017.344 A1125.000,1125.000 0.000 0,0 561.105,2119.759 Z" style="stroke-width:2.0;stroke:rgb(115,115,115);stroke-linecap:round;fill:rgb(253,208,162);" />
<text x="504.4" y="2169.9" font-size="195.0px" font-family="CMUBright-Bold" style="text-anchor:end;fill:rgb(0,0,0);" transform="rotate(-30.4,504.4,2169.9)" >35</text>
<path d="M694.637,2031.616 A965.000,965.000 40.000 0,1 643.089,1943.766 L501.010,2017.344 A1125.000,1125.000 0.000 0,0 561.105,2119.759 Z" style="stroke-width:2.0;stroke:rgb(115,115,115);stroke-linecap:round;fill:none;" />
<path d="M612.656,1879.269 A965.000,965.000 40.000 0,1 577.622,1783.627 L424.689,1830.653 A1125.000,1125.000 0.000 0,0 465.531,1942.153 Z" style="stroke-width:2.0;stroke:rgb(115,115,115);stroke-linecap:round;fill:rgb(253,141,60);" />
<text x="400.0" y="1979.6" font-size="195.0px" font-family="CMUBright-Bold" style="text-anchor:end;fill:rgb(0,0,0);" transform="rotate(-20.1,400.0,1979.6)" >2</text>
<path d="M612.656,1879.269 A965.000,965.000 40.000 0,1 577.622,1783.627 L424.689,1830.653 A1125.000,1125.000 0.000 0,0 465.531,1942.153 Z" style="stroke-width:2.0;stroke:rgb(115,115,115);stroke-linecap:round;fill:none;" />
<path d="M559.195,1714.733 A965.000,965.000 40.000 0,1 541.802,1614.372 L382.929,1633.336 A1125.000,1125.000 0.000 0,0 403.206,1750.336 Z" style="stroke-width:2.0;stroke:rgb(115,115,115);stroke-linecap:round;fill:rgb(253,141,60);" />
<text x="332.5" y="1777.4" font-size="195.0px" font-family="CMUBright-Bold" style="text-anchor:end;fill:rgb(0,0,0);" transform="rotate(-9.8,332.5,1777.4)" >3</text>
<path d="M559.195,1714.733 A965.000,965.000 40.000 0,1 541.802,1614.372 L382.929,1633.336 A1125.000,1125.000 0.000 0,0 403.206,1750.336 Z" style="stroke-width:2.0;stroke:rgb(115,115,115);stroke-linecap:round;fill:none;" />
<path d="M535.972,1543.295 A965.000,965.000 40.000 0,1 536.778,1441.441 L377.073,1431.732 A1125.000,1125.000 0.000 0,0 376.133,1550.473 Z" style="stroke-width:2.0;stroke:rgb(115,115,115);stroke-linecap:round;fill:rgb(253,141,60);" />
<text x="301.6" y="1562.5" font-size="195.0px" font-family="CMUBright-Bold" style="text-anchor:end;fill:rgb(0,0,0);" transform="rotate(0.5,301.6,1562.5)" >11</text>
<path d="M535.972,1543.295 A965.000,965.000 40.000 0,1 536.778,1441.441 L377.073,1431.732 A1125.000,1125.000 0.000 0,0 376.133,1550.473 Z" style="stroke-width:2.0;stroke:rgb(115,115,115);stroke-linecap:round;fill:none;" />
<path d="M543.733,1370.465 A965.000,965.000 40.000 0,1 562.714,1270.393 L407.309,1232.323 A1125.000,1125.000 0.000 0,0 385.182,1348.988 Z" style="stroke-width:2.0;stroke:rgb(115,115,115);stroke-linecap:round;fill:rgb(253,141,60);" />
<text x="309.5" y="1349.5" font-size="195.0px" font-family="CMUBright-Bold" style="text-anchor:end;fill:rgb(0,0,0);" transform="rotate(10.7,309.5,1349.5)" >30</text>
<path d="M543.733,1370.465 A965.000,965.000 40.000 0,1 562.714,1270.393 L407.309,1232.323 A1125.000,1125.000 0.000 0,0 385.182,1348.988 Z" style="stroke-width:2.0;stroke:rgb(115,115,115);stroke-linecap:round;fill:none;" />
<path d="M582.230,1201.799 A965.000,965.000 40.000 0,1 618.774,1106.724 L472.664,1041.517 A1125.000,1125.000 0.000 0,0 430.061,1152.356 Z" style="stroke-width:2.0;stroke:rgb(115,115,115);stroke-linecap:round;fill:rgb(253,141,60);" />
<text x="355.5" y="1139.3" font-size="195.0px" font-family="CMUBright-Bold" style="text-anchor:end;fill:rgb(0,0,0);" transform="rotate(21.0,355.5,1139.3)" >31</text>
<path d="M582.230,1201.799 A965.000,965.000 40.000 0,1 618.774,1106.724 L472.664,1041.517 A1125.000,1125.000 0.000 0,0 430.061,1152.356 Z" style="stroke-width:2.0;stroke:rgb(115,115,115);stroke-linecap:round;fill:none;" />
<path d="M650.225,1042.717 A965.000,965.000 40.000 0,1 703.158,955.695 L571.039,865.447 A1125.000,1125.000 0.000 0,0 509.330,966.898 Z" style="stroke-width:2.0;stroke:rgb(115,115,115);stroke-linecap:round;fill:rgb(253,141,60);" />
<text x="438.3" y="940.7" font-size="195.0px" font-family="CMUBright-Bold" style="text-anchor:end;fill:rgb(0,0,0);" transform="rotate(31.3,438.3,940.7)" >32</text>
<path d="M650.225,1042.717 A965.000,965.000 40.000 0,1 703.158,955.695 L571.039,865.447 A1125.000,1125.000 0.000 0,0 509.330,966.898 Z" style="stroke-width:2.0;stroke:rgb(115,115,115);stroke-linecap:round;fill:none;" />
<path d="M745.533,898.332 A965.000,965.000 40.000 0,1 813.153,822.160 L699.272,709.772 A1125.000,1125.000 0.000 0,0 620.440,798.574 Z" style="stroke-width:2.0;stroke:rgb(115,115,115);stroke-linecap:round;fill:rgb(66,146,198);" />
<text x="557.7" y="757.0" font-size="195.0px" font-family="CMUBright-Bold" style="text-anchor:end;fill:rgb(0,0,0);" transform="rotate(41.6,557.7,757.0)" >4</text>
<path d="M745.533,898.332 A965.000,965.000 40.000 0,1 813.153,822.160 L699.272,709.772 A1125.000,1125.000 0.000 0,0 620.440,798.574 Z" style="stroke-width:2.0;stroke:rgb(115,115,115);stroke-linecap:round;fill:none;" />
<path d="M865.089,773.286 A965.000,965.000 40.000 0,1 945.224,710.412 L853.241,579.496 A1125.000,1125.000 0.000 0,0 759.819,652.795 Z" style="stroke-width:2.0;stroke:rgb(115,115,115);stroke-linecap:round;fill:rgb(66,146,198);" />
<text x="702.5" y="603.4" font-size="195.0px" font-family="CMUBright-Bold" style="text-anchor:end;fill:rgb(0,0,0);" transform="rotate(51.9,702.5,603.4)" >6</text>
<path d="M865.089,773.286 A965.000,965.000 40.000 0,1 945.224,710.412 L853.241,579.496 A1125.000,1125.000 0.000 0,0 759.819,652.795 Z" style="stroke-width:2.0;stroke:rgb(115,115,115);stroke-linecap:round;fill:none;" />
<path d="M1005.052,671.597 A965.000,965.000 40.000 0,1 1095.126,624.042 L1027.997,478.806 A1125.000,1125.000 0.000 0,0 922.988,534.245 Z" style="stroke-width:2.0;stroke:rgb(115,115,115);stroke-linecap:round;fill:rgb(66,146,198);" />
<text x="875.4" y="475.4" font-size="195.0px" font-family="CMUBright-Bold" style="text-anchor:end;fill:rgb(0,0,0);" transform="rotate(62.2,875.4,475.4)" >19</text>
<path d="M1005.052,671.597 A965.000,965.000 40.000 0,1 1095.126,624.042 L1027.997,478.806 A1125.000,1125.000 0.000 0,0 922.988,534.245 Z" style="stroke-width:2.0;stroke:rgb(115,115,115);stroke-linecap:round;fill:none;" />
<path d="M1160.923,596.533 A965.000,965.000 40.000 0,1 1258.041,565.826 L1217.923,410.937 A1125.000,1125.000 0.000 0,0 1104.703,446.736 Z" style="stroke-width:2.0;stroke:rgb(115,115,115);stroke-linecap:round;fill:rgb(66,146,198);" />
<text x="1070.3" y="379.6" font-size="195.0px" font-family="CMUBright-Bold" style="text-anchor:end;fill:rgb(0,0,0);" transform="rotate(72.5,1070.3,379.6)" >22</text>
<path d="M1160.923,596.533 A965.000,965.000 40.000 0,1 1258.041,565.826 L1217.923,410.937 A1125.000,1125.000 0.000 0,0 1104.703,446.736 Z" style="stroke-width:2.0;stroke:rgb(115,115,115);stroke-linecap:round;fill:none;" />
<path d="M1327.693,550.508 A965.000,965.000 40.000 0,1 1428.732,537.635 L1416.916,378.072 A1125.000,1125.000 0.000 0,0 1299.123,393.079 Z" style="stroke-width:2.0;stroke:rgb(115,115,115);stroke-linecap:round;fill:rgb(66,146,198);" />
<text x="1275.3" y="321.2" font-size="195.0px" font-family="CMUBright-Bold" style="text-anchor:end;fill:rgb(0,0,0);" transform="rotate(82.7,1275.3,321.2)" >33</text>
<path d="M1327.693,550.508 A965.000,965.000 40.000 0,1 1428.732,537.635 L1416.916,378.072 A1125.000,1125.000 0.000 0,0 1299.123,393.079 Z" style="stroke-width:2.0;stroke:rgb(115,115,115);stroke-linecap:round;fill:none;" />
</g>
<g id="track_1">
<path d="M 2322.8,1904.3 L 2287.9,1886.6 2253.3,1868.0 2219.0,1848.4 2185.2,1827.8 2152.0,1806.2 2119.6,1783.6 2088.1,1760.0 2057.5,1735.4 2028.1,1709.8 1999.8,1683.4 1972.8,1655.9 1947.2,1627.6 1923.0,1598.4 1900.3,1568.2 1879.1,1537.3 1859.6,1505.5 1841.7,1473.0 1825.6,1439.7 1811.1,1405.7 1798.4,1371.0 1787.5,1335.8 1778.3,1299.9 1771.0,1263.5 1765.3,1226.6 1761.5,1189.4 1759.4,1151.7 1759.0,1113.8 1760.2,1075.6 1763.1,1037.2 1767.6,998.7 1773.6,960.2 1781.0,921.7 1789.9,883.3 1800.0,845.1 1811.4,807.2 1823.8,769.6 1837.3,732.5 1851.8,695.9 1867.0,659.9  " style="stroke-opacity: 1.000000; stroke-width: 5.0; stroke: rgb(251,106,74); fill: none"  />
<path d="M 2322.8,1904.3 L 2291.1,1888.5 2259.7,1872.5 2229.0,1856.4 2199.0,1840.3 2170.1,1824.2 2142.5,1808.2 2116.2,1792.3 2091.5,1776.7 2068.5,1761.4 2047.5,1746.5 2028.4,1731.9 2011.4,1717.8 1996.7,1704.3 1984.3,1691.2 1974.3,1678.8 1966.7,1667.0 1961.6,1655.8 1959.1,1645.3 1959.1,1635.5 1961.6,1626.4 1966.8,1618.1 1974.5,1610.5 1984.7,1603.7 1997.3,1597.7 2012.4,1592.4 2029.8,1587.8 2049.5,1584.0 2071.3,1581.0 2095.2,1578.7 2121.0,1577.0 2148.6,1576.1 2177.8,1575.8 2208.4,1576.2 2240.4,1577.2 2273.5,1578.7 2307.4,1580.7 2342.0,1583.2 2377.1,1586.1 2412.4,1589.4  " style="stroke-opacity: 1.000000; stroke-width: 5.0; stroke: rgb(251,106,74); fill: none"  />
<path d="M 1548.4,584.5 L 1546.2,620.5 1543.3,656.3 1539.8,691.7 1535.5,726.5 1530.5,760.4 1524.7,793.4 1518.1,825.2 1510.7,855.7 1502.4,884.6 1493.3,911.9 1483.3,937.4 1472.5,960.9 1460.7,982.5 1448.1,1002.0 1434.6,1019.3 1420.3,1034.3 1405.1,1047.1 1389.1,1057.4 1372.3,1065.4 1354.7,1071.0 1336.3,1074.1 1317.3,1074.8 1297.5,1073.2 1277.2,1069.1 1256.2,1062.7 1234.7,1054.0 1212.6,1043.1 1190.2,1030.0 1167.3,1014.9 1144.2,997.9 1120.8,978.9 1097.2,958.3 1073.6,936.1 1049.9,912.4 1026.2,887.5 1002.7,861.5 979.5,834.6 956.6,806.9 934.1,778.8  " style="stroke-opacity: 1.000000; stroke-width: 5.0; stroke: rgb(251,106,74); fill: none"  />
<path d="M 1548.4,584.5 L 1546.8,623.6 1546.2,662.9 1546.6,702.4 1548.1,742.0 1550.8,781.5 1554.7,820.8 1559.9,859.8 1566.5,898.5 1574.4,936.6 1583.7,974.2 1594.5,1011.2 1606.7,1047.4 1620.5,1082.8 1635.7,1117.3 1652.4,1150.8 1670.6,1183.4 1690.3,1214.9 1711.4,1245.2 1734.1,1274.4 1758.1,1302.4 1783.6,1329.1 1810.4,1354.6 1838.6,1378.8 1868.1,1401.7 1898.7,1423.2 1930.6,1443.5 1963.5,1462.3 1997.5,1479.9 2032.4,1496.0 2068.1,1510.9 2104.7,1524.5 2141.9,1536.7 2179.8,1547.7 2218.0,1557.5 2256.7,1566.1 2295.6,1573.5 2334.6,1579.9 2373.6,1585.1 2412.4,1589.4  " style="stroke-opacity: 1.000000; stroke-width: 5.0; stroke: rgb(251,106,74); fill: none"  />
<path d="M 934.1,778.8 L 956.6,806.9 979.5,834.6 1002.7,861.5 1026.2,887.5 1049.9,912.4 1073.6,936.1 1097.2,958.3 1120.8,978.9 1144.2,997.9 1167.3,1014.9 1190.2,1030.0 1212.6,1043.1 1234.7,1054.0 1256.2,1062.7 1277.2,1069.1 1297.5,1073.2 1317.3,1074.8 1336.3,1074.1 1354.7,1071.0 1372.3,1065.4 1389.1,1057.4 1405.1,1047.1 1420.3,1034.3 1434.6,1019.3 1448.1,1002.0 1460.7,982.5 1472.5,960.9 1483.3,937.4 1493.3,911.9 1502.4,884.6 1510.7,855.7 1518.1,825.2 1524.7,793.4 1530.5,760.4 1535.5,726.5 1539.8,691.7 1543.3,656.3 1546.2,620.5 1548.4,584.5  " style="stroke-opacity: 1.000000; stroke-width: 5.0; stroke: rgb(251,106,74); fill: none"  />
<path d="M 934.1,778.8 L 962.3,814.5 990.8,850.3 1019.7,886.0 1048.9,921.7 1078.4,957.3 1108.2,992.8 1138.3,1028.3 1168.8,1063.7 1199.5,1098.9 1230.6,1134.0 1262.0,1168.9 1293.8,1203.7 1325.8,1238.3 1358.1,1272.7 1390.7,1306.9 1423.6,1340.8 1456.8,1374.6 1490.2,1408.1 1524.0,1441.3 1557.9,1474.4 1592.2,1507.1 1626.6,1539.6 1661.3,1571.7 1696.2,1603.6 1731.4,1635.2 1766.7,1666.5 1802.2,1697.5 1837.9,1728.2 1873.7,1758.6 1909.7,1788.7 1945.8,1818.4 1982.0,1847.8 2018.3,1876.9 2054.7,1905.7 2091.2,1934.2 2127.7,1962.3 2164.3,1990.1 2200.8,2017.6 2237.4,2044.7  " style="stroke-opacity: 1.000000; stroke-width: 5.0; stroke: rgb(251,106,74); fill: none"  />
<path d="M 2237.4,2044.7 L 2200.8,2017.6 2164.3,1990.1 2127.7,1962.3 2091.2,1934.2 2054.7,1905.7 2018.3,1876.9 1982.0,1847.8 1945.8,1818.4 1909.7,1788.7 1873.7,1758.6 1837.9,1728.2 1802.2,1697.5 1766.7,1666.5 1731.4,1635.2 1696.2,1603.6 1661.3,1571.7 1626.6,1539.6 1592.2,1507.1 1557.9,1474.4 1524.0,1441.3 1490.2,1408.1 1456.8,1374.6 1423.6,1340.8 1390.7,1306.9 1358.1,1272.7 1325.8,1238.3 1293.8,1203.7 1262.0,1168.9 1230.6,1134.0 1199.5,1098.9 1168.8,1063.7 1138.3,1028.3 1108.2,992.8 1078.4,957.3 1048.9,921.7 1019.7,886.0 990.8,850.3 962.3,814.5 934.1,778.8  " style="stroke-opacity: 1.000000; stroke-width: 5.0; stroke: rgb(251,106,74); fill: none"  />
<path d="M 2237.4,2044.7 L 2207.8,2023.3 2177.9,2002.6 2147.6,1982.7 2117.2,1963.8 2086.8,1946.1 2056.5,1929.6 2026.3,1914.6 1996.5,1901.1 1967.1,1889.3 1938.1,1879.2 1909.8,1870.9 1882.1,1864.6 1855.1,1860.3 1829.0,1858.0 1803.8,1857.8 1779.4,1859.7 1756.1,1863.8 1733.8,1870.1 1712.7,1878.5 1692.6,1889.1 1673.7,1901.8 1655.9,1916.7 1639.4,1933.6 1624.1,1952.6 1610.0,1973.6 1597.2,1996.5 1585.6,2021.2 1575.2,2047.6 1566.0,2075.7 1558.0,2105.3 1551.2,2136.2 1545.5,2168.5 1540.9,2201.8 1537.4,2236.2 1534.9,2271.3 1533.3,2307.1 1532.7,2343.2 1532.9,2379.7 1533.9,2416.1  " style="stroke-opacity: 1.000000; stroke-width: 5.0; stroke: rgb(251,106,74); fill: none"  />
<path d="M 2128.3,2167.6 L 2100.7,2137.7 2073.4,2106.8 2046.8,2075.1 2020.7,2042.6 1995.3,2009.3 1970.7,1975.3 1947.0,1940.5 1924.3,1905.0 1902.6,1868.8 1882.0,1832.0 1862.5,1794.5 1844.3,1756.5 1827.3,1718.0 1811.6,1678.9 1797.3,1639.3 1784.4,1599.4 1772.9,1559.0 1762.8,1518.3 1754.2,1477.2 1747.0,1435.9 1741.3,1394.4 1737.1,1352.6 1734.4,1310.7 1733.1,1268.7 1733.3,1226.7 1734.9,1184.6 1737.9,1142.6 1742.3,1100.7 1748.0,1058.9 1755.0,1017.2 1763.3,975.9 1772.7,934.8 1783.4,894.0 1795.0,853.7 1807.7,813.8 1821.3,774.4 1835.8,735.6 1851.1,697.4 1867.0,659.9  " style="stroke-opacity: 1.000000; stroke-width: 5.0; stroke: rgb(251,106,74); fill: none"  />
<path d="M 2128.3,2167.6 L 2101.8,2138.9 2075.9,2109.2 2050.7,2078.8 2026.3,2047.6 2002.9,2015.7 1980.5,1983.2 1959.3,1950.0 1939.3,1916.3 1920.7,1882.0 1903.5,1847.3 1887.9,1812.1 1873.8,1776.6 1861.4,1740.7 1850.8,1704.5 1841.9,1668.1 1834.7,1631.5 1829.4,1594.8 1826.0,1557.9 1824.4,1521.0 1824.7,1484.1 1826.9,1447.2 1830.9,1410.4 1836.8,1373.8 1844.5,1337.3 1854.0,1301.0 1865.2,1265.1 1878.2,1229.4 1892.8,1194.1 1909.0,1159.1 1926.7,1124.7 1945.8,1090.7 1966.3,1057.3 1988.1,1024.5 2011.0,992.3 2034.9,960.8 2059.8,930.0 2085.5,900.0 2111.9,870.8 2138.8,842.4  " style="stroke-opacity: 1.000000; stroke-width: 5.0; stroke: rgb(251,106,74); fill: none"  />
<path d="M 1867.0,659.9 L 1851.8,695.9 1837.3,732.5 1823.8,769.6 1811.4,807.2 1800.0,845.1 1789.9,883.3 1781.0,921.7 1773.6,960.2 1767.6,998.7 1763.1,1037.2 1760.2,1075.6 1759.0,1113.8 1759.4,1151.7 1761.5,1189.4 1765.3,1226.6 1771.0,1263.5 1778.3,1299.9 1787.5,1335.8 1798.4,1371.0 1811.1,1405.7 1825.6,1439.7 1841.7,1473.0 1859.6,1505.5 1879.1,1537.3 1900.3,1568.2 1923.0,1598.4 1947.2,1627.6 1972.8,1655.9 1999.8,1683.4 2028.1,1709.8 2057.5,1735.4 2088.1,1760.0 2119.6,1783.6 2152.0,1806.2 2185.2,1827.8 2219.0,1848.4 2253.3,1868.0 2287.9,1886.6 2322.8,1904.3  " style="stroke-opacity: 1.000000; stroke-width: 5.0; stroke: rgb(251,106,74); fill: none"  />
<path d="M 1867.0,659.9 L 1851.1,697.4 1835.8,735.6 1821.3,774.4 1807.7,813.8 1795.0,853.7 1783.4,894.0 1772.7,934.8 1763.3,975.9 1755.0,1017.2 1748.0,1058.9 1742.3,1100.7 1737.9,1142.6 1734.9,1184.6 1733.3,1226.7 1733.1,1268.7 1734.4,1310.7 1737.1,1352.6 1741.3,1394.4 1747.0,1435.9 1754.2,1477.2 1762.8,1518.3 1772.9,1559.0 1784.4,1599.4 1797.3,1639.3 1811.6,1678.9 1827.3,1718.0 1844.3,1756.5 1862.5,1794.5 1882.0,1832.0 1902.6,1868.8 1924.3,1905.0 1947.0,1940.5 1970.7,1975.3 1995.3,2009.3 2020.7,2042.6 2046.8,2075.1 2073.4,2106.8 2100.7,2137.7 2128.3,2167.6  " style="stroke-opacity: 1.000000; stroke-width: 5.0; stroke: rgb(251,106,74); fill: none"  />
<path d="M 1867.0,659.9 L 1852.0,693.2 1836.4,726.1 1820.2,758.4 1803.3,790.0 1785.8,820.5 1767.7,849.9 1749.1,878.0 1730.0,904.6 1710.4,929.5 1690.3,952.7 1669.9,974.0 1649.0,993.3 1627.9,1010.5 1606.4,1025.6 1584.6,1038.3 1562.5,1048.8 1540.3,1056.9 1517.9,1062.6 1495.3,1065.9 1472.6,1066.7 1449.9,1065.1 1427.1,1061.1 1404.3,1054.7 1381.6,1045.8 1358.9,1034.7 1336.3,1021.3 1313.9,1005.7 1291.7,988.0 1269.8,968.3 1248.1,946.6 1226.7,923.2 1205.7,898.1 1185.0,871.5 1164.8,843.5 1145.1,814.3 1126.0,784.1 1107.3,753.0 1089.3,721.4 1072.0,689.3  " style="stroke-opacity: 1.000000; stroke-width: 5.0; stroke: rgb(251,106,74); fill: none"  />
<path d="M 1867.0,659.9 L 1852.1,695.2 1838.0,731.0 1824.8,767.3 1812.8,803.9 1801.8,840.8 1792.2,877.8 1784.0,914.8 1777.2,951.7 1771.9,988.6 1768.3,1025.2 1766.3,1061.5 1766.0,1097.4 1767.5,1132.9 1770.8,1167.8 1775.9,1202.2 1782.9,1235.9 1791.8,1268.9 1802.5,1301.2 1815.1,1332.6 1829.5,1363.2 1845.8,1392.9 1863.9,1421.7 1883.7,1449.5 1905.3,1476.4 1928.6,1502.2 1953.5,1527.0 1979.9,1550.7 2007.8,1573.3 2037.1,1594.8 2067.6,1615.3 2099.4,1634.6 2132.3,1652.9 2166.1,1670.1 2200.7,1686.2 2236.1,1701.2 2272.1,1715.1 2308.4,1728.0 2345.0,1740.0 2381.8,1750.9  " style="stroke-opacity: 1.000000; stroke-width: 5.0; stroke: rgb(251,106,74); fill: none"  />
<path d="M 1533.9,2416.1 L 1532.9,2379.7 1532.7,2343.2 1533.3,2307.1 1534.9,2271.3 1537.4,2236.2 1540.9,2201.8 1545.5,2168.5 1551.2,2136.2 1558.0,2105.3 1566.0,2075.7 1575.2,2047.6 1585.6,2021.2 1597.2,1996.5 1610.0,1973.6 1624.1,1952.6 1639.4,1933.6 1655.9,1916.7 1673.7,1901.8 1692.6,1889.1 1712.7,1878.5 1733.8,1870.1 1756.1,1863.8 1779.4,1859.7 1803.8,1857.8 1829.0,1858.0 1855.1,1860.3 1882.1,1864.6 1909.8,1870.9 1938.1,1879.2 1967.1,1889.3 1996.5,1901.1 2026.3,1914.6 2056.5,1929.6 2086.8,1946.1 2117.2,1963.8 2147.6,1982.7 2177.9,2002.6 2207.8,2023.3 2237.4,2044.7  " style="stroke-opacity: 1.000000; stroke-width: 5.0; stroke: rgb(251,106,74); fill: none"  />
<path d="M 1533.9,2416.1 L 1532.8,2380.5 1532.2,2345.0 1532.2,2309.9 1532.8,2275.5 1534.1,2241.8 1536.1,2209.3 1538.8,2177.9 1542.2,2148.0 1546.4,2119.7 1551.4,2093.0 1557.3,2068.2 1563.9,2045.3 1571.5,2024.6 1579.8,2006.0 1589.1,1989.7 1599.1,1975.7 1610.0,1964.0 1621.8,1954.9 1634.4,1948.2 1647.7,1943.9 1661.9,1942.2 1676.7,1943.0 1692.3,1946.2 1708.6,1951.9 1725.6,1959.9 1743.1,1970.3 1761.2,1983.0 1779.8,1997.8 1798.8,2014.8 1818.3,2033.7 1838.0,2054.5 1858.0,2077.0 1878.3,2101.1 1898.6,2126.6 1918.9,2153.4 1939.2,2181.2 1959.4,2209.9 1979.3,2239.3 1999.0,2269.1  " style="stroke-opacity: 1.000000; stroke-width: 5.0; stroke: rgb(251,106,74); fill: none"  />
<path d="M 1533.9,2416.1 L 1532.7,2380.9 1531.6,2345.9 1530.8,2311.4 1530.2,2277.7 1529.9,2244.9 1529.8,2213.3 1530.0,2183.1 1530.6,2154.5 1531.4,2127.6 1532.6,2102.6 1534.1,2079.7 1536.0,2058.9 1538.2,2040.4 1540.7,2024.2 1543.7,2010.5 1547.0,1999.4 1550.6,1990.8 1554.6,1984.9 1559.0,1981.6 1563.7,1981.0 1568.7,1983.1 1574.1,1987.8 1579.7,1995.2 1585.7,2005.2 1592.0,2017.7 1598.5,2032.7 1605.3,2050.0 1612.3,2069.7 1619.6,2091.6 1627.0,2115.5 1634.5,2141.3 1642.2,2168.9 1650.0,2198.0 1657.9,2228.6 1665.7,2260.4 1673.6,2293.2 1681.5,2326.8 1689.3,2360.9 1696.9,2395.4  " style="stroke-opacity: 1.000000; stroke-width: 5.0; stroke: rgb(251,106,74); fill: none"  />
<path d="M 1999.0,2269.1 L 1979.3,2239.3 1959.4,2209.9 1939.2,2181.2 1918.9,2153.4 1898.6,2126.6 1878.3,2101.1 1858.0,2077.0 1838.0,2054.5 1818.3,2033.7 1798.8,2014.8 1779.8,1997.8 1761.2,1983.0 1743.1,1970.3 1725.6,1959.9 1708.6,1951.9 1692.3,1946.2 1676.7,1943.0 1661.9,1942.2 1647.7,1943.9 1634.4,1948.2 1621.8,1954.9 1610.0,1964.0 1599.1,1975.7 1589.1,1989.7 1579.8,2006.0 1571.5,2024.6 1563.9,2045.3 1557.3,2068.2 1551.4,2093.0 1546.4,2119.7 1542.2,2148.0 1538.8,2177.9 1536.1,2209.3 1534.1,2241.8 1532.8,2275.5 1532.2,2309.9 1532.2,2345.0 1532.8,2380.5 1533.9,2416.1  " style="stroke-opacity: 1.000000; stroke-width: 5.0; stroke: rgb(251,106,74); fill: none"  />
<path d="M 1072.0,689.3 L 1089.3,721.4 1107.3,753.0 1126.0,784.1 1145.1,814.3 1164.8,843.5 1185.0,871.5 1205.7,898.1 1226.7,923.2 1248.1,946.6 1269.8,968.3 1291.7,988.0 1313.9,1005.7 1336.3,1021.3 1358.9,1034.7 1381.6,1045.8 1404.3,1054.7 1427.1,1061.1 1449.9,1065.1 1472.6,1066.7 1495.3,1065.9 1517.9,1062.6 1540.3,1056.9 1562.5,1048.8 1584.6,1038.3 1606.4,1025.6 1627.9,1010.5 1649.0,993.3 1669.9,974.0 1690.3,952.7 1710.4,929.5 1730.0,904.6 1749.1,878.0 1767.7,849.9 1785.8,820.5 1803.3,790.0 1820.2,758.4 1836.4,726.1 1852.0,693.2 1867.0,659.9  " style="stroke-opacity: 1.000000; stroke-width: 5.0; stroke: rgb(251,106,74); fill: none"  />
<path d="M 2412.4,1589.4 L 2377.1,1586.1 2342.0,1583.2 2307.4,1580.7 2273.5,1578.7 2240.4,1577.2 2208.4,1576.2 2177.8,1575.8 2148.6,1576.1 2121.0,1577.0 2095.2,1578.7 2071.3,1581.0 2049.5,1584.0 2029.8,1587.8 2012.4,1592.4 1997.3,1597.7 1984.7,1603.7 1974.5,1610.5 1966.8,1618.1 1961.6,1626.4 1959.1,1635.5 1959.1,1645.3 1961.6,1655.8 1966.7,1667.0 1974.3,1678.8 1984.3,1691.2 1996.7,1704.3 2011.4,1717.8 2028.4,1731.9 2047.5,1746.5 2068.5,1761.4 2091.5,1776.7 2116.2,1792.3 2142.5,1808.2 2170.1,1824.2 2199.0,1840.3 2229.0,1856.4 2259.7,1872.5 2291.1,1888.5 2322.8,1904.3  " style="stroke-opacity: 1.000000; stroke-width: 5.0; stroke: rgb(251,106,74); fill: none"  />
<path d="M 2412.4,1589.4 L 2373.6,1585.1 2334.6,1579.9 2295.6,1573.5 2256.7,1566.1 2218.0,1557.5 2179.8,1547.7 2141.9,1536.7 2104.7,1524.5 2068.1,1510.9 2032.4,1496.0 1997.5,1479.9 1963.5,1462.3 1930.6,1443.5 1898.7,1423.2 1868.1,1401.7 1838.6,1378.8 1810.4,1354.6 1783.6,1329.1 1758.1,1302.4 1734.1,1274.4 1711.4,1245.2 1690.3,1214.9 1670.6,1183.4 1652.4,1150.8 1635.7,1117.3 1620.5,1082.8 1606.7,1047.4 1594.5,1011.2 1583.7,974.2 1574.4,936.6 1566.5,898.5 1559.9,859.8 1554.7,820.8 1550.8,781.5 1548.1,742.0 1546.6,702.4 1546.2,662.9 1546.8,623.6 1548.4,584.5  " style="stroke-opacity: 1.000000; stroke-width: 5.0; stroke: rgb(251,106,74); fill: none"  />
<path d="M 2381.8,1750.9 L 2345.0,1740.0 2308.4,1728.0 2272.1,1715.1 2236.1,1701.2 2200.7,1686.2 2166.1,1670.1 2132.3,1652.9 2099.4,1634.6 2067.6,1615.3 2037.1,1594.8 2007.8,1573.3 1979.9,1550.7 1953.5,1527.0 1928.6,1502.2 1905.3,1476.4 1883.7,1449.5 1863.9,1421.7 1845.8,1392.9 1829.5,1363.2 1815.1,1332.6 1802.5,1301.2 1791.8,1268.9 1782.9,1235.9 1775.9,1202.2 1770.8,1167.8 1767.5,1132.9 1766.0,1097.4 1766.3,1061.5 1768.3,1025.2 1771.9,988.6 1777.2,951.7 1784.0,914.8 1792.2,877.8 1801.8,840.8 1812.8,803.9 1824.8,767.3 1838.0,731.0 1852.1,695.2 1867.0,659.9  " style="stroke-opacity: 1.000000; stroke-width: 5.0; stroke: rgb(251,106,74); fill: none"  />
<path d="M 922.8,2212.2 L 952.1,2176.1 981.5,2140.0 1011.1,2103.8 1040.7,2067.7 1070.5,2031.6 1100.4,1995.6 1130.4,1959.5 1160.5,1923.5 1190.7,1887.5 1221.1,1851.6 1251.5,1815.7 1282.1,1779.8 1312.7,1744.0 1343.5,1708.3 1374.4,1672.6 1405.3,1637.0 1436.4,1601.4 1467.6,1565.9 1498.8,1530.5 1530.2,1495.2 1561.6,1460.0 1593.2,1424.8 1624.8,1389.8 1656.5,1354.8 1688.2,1319.9 1720.1,1285.1 1752.0,1250.4 1784.0,1215.9 1816.0,1181.4 1848.1,1147.0 1880.3,1112.7 1912.5,1078.5 1944.7,1044.5 1977.0,1010.5 2009.3,976.7 2041.6,943.0 2074.0,909.3 2106.4,875.8 2138.8,842.4  " style="stroke-opacity: 1.000000; stroke-width: 5.0; stroke: rgb(251,106,74); fill: none"  />
<path d="M 2138.8,842.4 L 2111.9,870.8 2085.5,900.0 2059.8,930.0 2034.9,960.8 2011.0,992.3 1988.1,1024.5 1966.3,1057.3 1945.8,1090.7 1926.7,1124.7 1909.0,1159.1 1892.8,1194.1 1878.2,1229.4 1865.2,1265.1 1854.0,1301.0 1844.5,1337.3 1836.8,1373.8 1830.9,1410.4 1826.9,1447.2 1824.7,1484.1 1824.4,1521.0 1826.0,1557.9 1829.4,1594.8 1834.7,1631.5 1841.9,1668.1 1850.8,1704.5 1861.4,1740.7 1873.8,1776.6 1887.9,1812.1 1903.5,1847.3 1920.7,1882.0 1939.3,1916.3 1959.3,1950.0 1980.5,1983.2 2002.9,2015.7 2026.3,2047.6 2050.7,2078.8 2075.9,2109.2 2101.8,2138.9 2128.3,2167.6  " style="stroke-opacity: 1.000000; stroke-width: 5.0; stroke: rgb(251,106,74); fill: none"  />
<path d="M 2138.8,842.4 L 2106.4,875.8 2074.0,909.3 2041.6,943.0 2009.3,976.7 1977.0,1010.5 1944.7,1044.5 1912.5,1078.5 1880.3,1112.7 1848.1,1147.0 1816.0,1181.4 1784.0,1215.9 1752.0,1250.4 1720.1,1285.1 1688.2,1319.9 1656.5,1354.8 1624.8,1389.8 1593.2,1424.8 1561.6,1460.0 1530.2,1495.2 1498.8,1530.5 1467.6,1565.9 1436.4,1601.4 1405.3,1637.0 1374.4,1672.6 1343.5,1708.3 1312.7,1744.0 1282.1,1779.8 1251.5,1815.7 1221.1,1851.6 1190.7,1887.5 1160.5,1923.5 1130.4,1959.5 1100.4,1995.6 1070.5,2031.6 1040.7,2067.7 1011.1,2103.8 981.5,2140.0 952.1,2176.1 922.8,2212.2  " style="stroke-opacity: 1.000000; stroke-width: 5.0; stroke: rgb(251,106,74); fill: none"  />
<path d="M 804.9,2097.7 L 833.2,2073.9 862.1,2050.7 891.5,2028.4 921.2,2007.0 951.3,1986.8 981.5,1967.9 1011.9,1950.4 1042.2,1934.4 1072.5,1920.2 1102.7,1907.6 1132.7,1897.0 1162.4,1888.2 1191.7,1881.5 1220.6,1876.9 1249.1,1874.3 1277.0,1874.0 1304.3,1875.8 1331.1,1879.8 1357.1,1886.0 1382.4,1894.5 1407.0,1905.1 1430.8,1918.0 1453.7,1932.9 1475.8,1950.0 1497.1,1969.1 1517.4,1990.2 1536.8,2013.2 1555.3,2038.0 1572.9,2064.5 1589.5,2092.7 1605.1,2122.3 1619.8,2153.3 1633.6,2185.5 1646.4,2218.8 1658.3,2253.0 1669.3,2287.9 1679.4,2323.4 1688.6,2359.3 1696.9,2395.4  " style="stroke-opacity: 1.000000; stroke-width: 5.0; stroke: rgb(251,106,74); fill: none"  />
<path d="M 1696.9,2395.4 L 1689.3,2360.9 1681.5,2326.8 1673.6,2293.2 1665.7,2260.4 1657.9,2228.6 1650.0,2198.0 1642.2,2168.9 1634.5,2141.3 1627.0,2115.5 1619.6,2091.6 1612.3,2069.7 1605.3,2050.0 1598.5,2032.7 1592.0,2017.7 1585.7,2005.2 1579.7,1995.2 1574.1,1987.8 1568.7,1983.1 1563.7,1981.0 1559.0,1981.6 1554.6,1984.9 1550.6,1990.8 1547.0,1999.4 1543.7,2010.5 1540.7,2024.2 1538.2,2040.4 1536.0,2058.9 1534.1,2079.7 1532.6,2102.6 1531.4,2127.6 1530.6,2154.5 1530.0,2183.1 1529.8,2213.3 1529.9,2244.9 1530.2,2277.7 1530.8,2311.4 1531.6,2345.9 1532.7,2380.9 1533.9,2416.1  " style="stroke-opacity: 1.000000; stroke-width: 5.0; stroke: rgb(251,106,74); fill: none"  />
<path d="M 1696.9,2395.4 L 1688.6,2359.3 1679.4,2323.4 1669.3,2287.9 1658.3,2253.0 1646.4,2218.8 1633.6,2185.5 1619.8,2153.3 1605.1,2122.3 1589.5,2092.7 1572.9,2064.5 1555.3,2038.0 1536.8,2013.2 1517.4,1990.2 1497.1,1969.1 1475.8,1950.0 1453.7,1932.9 1430.8,1918.0 1407.0,1905.1 1382.4,1894.5 1357.1,1886.0 1331.1,1879.8 1304.3,1875.8 1277.0,1874.0 1249.1,1874.3 1220.6,1876.9 1191.7,1881.5 1162.4,1888.2 1132.7,1897.0 1102.7,1907.6 1072.5,1920.2 1042.2,1934.4 1011.9,1950.4 981.5,1967.9 951.3,1986.8 921.2,2007.0 891.5,2028.4 862.1,2050.7 833.2,2073.9 804.9,2097.7  " style="stroke-opacity: 1.000000; stroke-width: 5.0; stroke: rgb(251,106,74); fill: none"  />
</g>
<g id="track_0">
<path d="M 2322.8,1904.3 L 2291.1,1888.8 2259.6,1873.6 2228.4,1858.8 2197.8,1844.5 2168.1,1830.9 2139.3,1817.9 2111.6,1805.8 2085.2,1794.7 2060.3,1784.5 2037.0,1775.4 2015.5,1767.4 1995.7,1760.6 1977.9,1755.1 1962.1,1750.8 1948.4,1747.9 1936.9,1746.4 1927.6,1746.2 1920.5,1747.5 1915.7,1750.1 1913.3,1754.2 1913.1,1759.6 1915.3,1766.4 1919.7,1774.6 1926.4,1784.2 1935.2,1795.0 1946.3,1807.1 1959.4,1820.3 1974.5,1834.8 1991.5,1850.3 2010.3,1866.8 2030.8,1884.2 2052.8,1902.4 2076.3,1921.5 2101.0,1941.1 2126.8,1961.3 2153.6,1981.8 2181.1,2002.7 2209.1,2023.7 2237.4,2044.7  " style="stroke-opacity: 1.000000; stroke-width: 5.0; stroke: rgb(107,174,214); fill: none"  />
<path d="M 2322.8,1904.3 L 2290.9,1888.8 2259.1,1873.8 2227.6,1859.3 2196.5,1845.4 2166.1,1832.4 2136.5,1820.3 2107.9,1809.2 2080.5,1799.2 2054.3,1790.3 2029.6,1782.8 2006.4,1776.6 1984.9,1771.8 1965.2,1768.4 1947.3,1766.5 1931.3,1766.2 1917.3,1767.4 1905.4,1770.2 1895.5,1774.6 1887.8,1780.6 1882.2,1788.2 1878.7,1797.3 1877.4,1808.1 1878.2,1820.3 1881.2,1834.0 1886.2,1849.2 1893.3,1865.8 1902.3,1883.6 1913.2,1902.8 1925.9,1923.1 1940.4,1944.5 1956.5,1966.9 1974.2,1990.2 1993.2,2014.3 2013.5,2039.0 2034.9,2064.2 2057.2,2089.9 2080.4,2115.7 2104.1,2141.7 2128.3,2167.6  " style="stroke-opacity: 1.000000; stroke-width: 5.0; stroke: rgb(107,174,214); fill: none"  />
<path d="M 2322.8,1904.3 L 2290.7,1888.8 2258.5,1873.8 2226.5,1859.5 2194.7,1846.0 2163.5,1833.5 2133.0,1822.0 2103.3,1811.7 2074.6,1802.6 2046.9,1794.9 2020.6,1788.6 1995.5,1783.9 1971.9,1780.6 1949.9,1779.0 1929.5,1779.1 1910.9,1780.9 1894.0,1784.4 1878.9,1789.6 1865.7,1796.6 1854.5,1805.3 1845.2,1815.8 1837.9,1828.0 1832.5,1841.9 1829.1,1857.5 1827.6,1874.7 1828.1,1893.4 1830.4,1913.7 1834.6,1935.3 1840.6,1958.4 1848.3,1982.7 1857.7,2008.1 1868.6,2034.7 1881.0,2062.1 1894.8,2090.4 1909.8,2119.3 1925.9,2148.8 1943.1,2178.7 1961.1,2208.8 1979.7,2239.0 1999.0,2269.1  " style="stroke-opacity: 1.000000; stroke-width: 5.0; stroke: rgb(107,174,214); fill: none"  />
<path d="M 2322.8,1904.3 L 2290.3,1888.7 2257.7,1873.7 2225.1,1859.5 2192.6,1846.3 2160.5,1834.1 2128.9,1823.0 2097.9,1813.3 2067.7,1804.9 2038.4,1798.0 2010.2,1792.7 1983.0,1789.0 1957.1,1787.0 1932.6,1786.7 1909.4,1788.2 1887.7,1791.5 1867.6,1796.7 1849.1,1803.8 1832.2,1812.7 1817.1,1823.5 1803.6,1836.1 1792.0,1850.6 1782.0,1866.9 1773.9,1884.9 1767.5,1904.7 1762.8,1926.2 1759.9,1949.2 1758.7,1973.7 1759.2,1999.7 1761.2,2027.0 1764.8,2055.5 1769.9,2085.2 1776.4,2115.8 1784.3,2147.3 1793.4,2179.6 1803.6,2212.3 1814.9,2245.5 1827.0,2279.0 1840.0,2312.5 1853.6,2345.8  " style="stroke-opacity: 1.000000; stroke-width: 5.0; stroke: rgb(107,174,214); fill: none"  />
<path d="M 2322.8,1904.3 L 2289.9,1888.5 2256.7,1873.5 2223.4,1859.3 2190.1,1846.2 2157.0,1834.1 2124.3,1823.4 2091.9,1814.0 2060.2,1806.0 2029.1,1799.6 1998.8,1794.9 1969.4,1791.8 1941.1,1790.5 1913.8,1791.1 1887.6,1793.5 1862.8,1797.8 1839.2,1804.0 1817.0,1812.2 1796.2,1822.4 1776.8,1834.4 1759.0,1848.4 1742.6,1864.4 1727.8,1882.2 1714.6,1901.8 1702.9,1923.2 1692.8,1946.3 1684.3,1971.1 1677.2,1997.5 1671.7,2025.4 1667.7,2054.6 1665.1,2085.2 1663.9,2116.9 1664.1,2149.6 1665.5,2183.3 1668.2,2217.7 1672.0,2252.7 1676.9,2288.1 1682.7,2323.9 1689.4,2359.7 1696.9,2395.4  " style="stroke-opacity: 1.000000; stroke-width: 5.0; stroke: rgb(107,174,214); fill: none"  />
<path d="M 1548.4,584.5 L 1546.6,619.7 1545.0,654.7 1543.6,689.2 1542.5,722.9 1541.7,755.7 1541.1,787.2 1540.9,817.4 1540.9,846.0 1541.3,872.9 1542.1,898.0 1543.3,920.9 1544.8,941.8 1546.7,960.3 1549.0,976.5 1551.8,990.2 1554.9,1001.4 1558.4,1010.1 1562.3,1016.1 1566.6,1019.4 1571.3,1020.1 1576.3,1018.1 1581.8,1013.4 1587.6,1006.1 1593.7,996.3 1600.2,983.8 1607.0,969.0 1614.0,951.7 1621.3,932.1 1628.9,910.4 1636.7,886.6 1644.7,860.9 1652.8,833.5 1661.0,804.4 1669.4,774.0 1677.8,742.3 1686.2,709.6 1694.6,676.2 1702.9,642.2 1711.1,607.9  " style="stroke-opacity: 1.000000; stroke-width: 5.0; stroke: rgb(107,174,214); fill: none"  />
<path d="M 1548.4,584.5 L 1546.7,619.9 1545.3,655.1 1544.4,689.8 1543.9,723.8 1543.9,756.9 1544.3,788.8 1545.4,819.5 1546.9,848.7 1549.1,876.2 1551.9,901.9 1555.3,925.6 1559.3,947.3 1564.0,966.8 1569.3,984.0 1575.2,998.8 1581.9,1011.2 1589.1,1021.0 1597.1,1028.4 1605.6,1033.1 1614.8,1035.3 1624.6,1034.9 1634.9,1031.9 1645.9,1026.3 1657.3,1018.2 1669.3,1007.6 1681.8,994.6 1694.7,979.3 1708.0,961.7 1721.6,942.0 1735.6,920.3 1749.9,896.7 1764.4,871.3 1779.0,844.4 1793.8,816.0 1808.6,786.4 1823.4,755.8 1838.1,724.3 1852.6,692.3 1867.0,659.9  " style="stroke-opacity: 1.000000; stroke-width: 5.0; stroke: rgb(107,174,214); fill: none"  />
<path d="M 1548.4,584.5 L 1546.8,620.5 1545.9,656.4 1545.6,692.0 1546.2,727.0 1547.6,761.4 1549.9,794.8 1553.1,827.1 1557.3,858.1 1562.4,887.7 1568.6,915.8 1575.9,942.2 1584.2,966.9 1593.6,989.6 1604.1,1010.3 1615.7,1028.9 1628.4,1045.3 1642.1,1059.6 1656.9,1071.6 1672.8,1081.3 1689.7,1088.7 1707.6,1093.7 1726.5,1096.5 1746.3,1096.9 1767.0,1095.0 1788.6,1090.8 1810.9,1084.5 1833.9,1075.9 1857.6,1065.3 1881.9,1052.7 1906.7,1038.2 1932.0,1021.8 1957.6,1003.8 1983.5,984.2 2009.6,963.1 2035.7,940.9 2061.8,917.5 2087.7,893.1 2113.4,868.0 2138.8,842.4  " style="stroke-opacity: 1.000000; stroke-width: 5.0; stroke: rgb(107,174,214); fill: none"  />
<path d="M 2237.4,2044.7 L 2209.1,2023.7 2181.1,2002.7 2153.6,1981.8 2126.8,1961.3 2101.0,1941.1 2076.3,1921.5 2052.8,1902.4 2030.8,1884.2 2010.3,1866.8 1991.5,1850.3 1974.5,1834.8 1959.4,1820.3 1946.3,1807.1 1935.2,1795.0 1926.4,1784.2 1919.7,1774.6 1915.3,1766.4 1913.1,1759.6 1913.3,1754.2 1915.7,1750.1 1920.5,1747.5 1927.6,1746.2 1936.9,1746.4 1948.4,1747.9 1962.1,1750.8 1977.9,1755.1 1995.7,1760.6 2015.5,1767.4 2037.0,1775.4 2060.3,1784.5 2085.2,1794.7 2111.6,1805.8 2139.3,1817.9 2168.1,1830.9 2197.8,1844.5 2228.4,1858.8 2259.6,1873.6 2291.1,1888.8 2322.8,1904.3  " style="stroke-opacity: 1.000000; stroke-width: 5.0; stroke: rgb(107,174,214); fill: none"  />
<path d="M 2237.4,2044.7 L 2209.0,2023.8 2180.7,2003.2 2152.6,1983.1 2125.1,1963.6 2098.3,1944.8 2072.2,1927.0 2047.2,1910.1 2023.2,1894.4 2000.5,1880.0 1979.2,1866.8 1959.4,1855.1 1941.2,1844.9 1924.7,1836.3 1909.9,1829.3 1896.9,1824.0 1885.9,1820.4 1876.7,1818.6 1869.6,1818.6 1864.4,1820.3 1861.3,1823.9 1860.1,1829.2 1861.0,1836.3 1863.9,1845.2 1868.8,1855.7 1875.6,1868.0 1884.3,1881.8 1894.8,1897.2 1907.1,1914.1 1921.0,1932.4 1936.6,1952.0 1953.7,1972.8 1972.1,1994.7 1991.8,2017.6 2012.6,2041.3 2034.4,2065.8 2057.1,2090.8 2080.4,2116.2 2104.2,2141.9 2128.3,2167.6  " style="stroke-opacity: 1.000000; stroke-width: 5.0; stroke: rgb(107,174,214); fill: none"  />
<path d="M 2237.4,2044.7 L 2208.2,2023.6 2178.8,2003.0 2149.2,1983.2 2119.6,1964.4 2090.2,1946.6 2061.1,1930.1 2032.4,1915.0 2004.2,1901.4 1976.6,1889.4 1949.7,1879.1 1923.7,1870.6 1898.6,1864.0 1874.4,1859.3 1851.4,1856.7 1829.5,1856.1 1808.7,1857.6 1789.2,1861.2 1771.1,1867.0 1754.2,1874.9 1738.7,1884.9 1724.7,1897.1 1712.0,1911.4 1700.7,1927.7 1690.9,1946.0 1682.5,1966.2 1675.5,1988.4 1670.0,2012.3 1665.8,2037.9 1662.9,2065.2 1661.4,2093.9 1661.1,2124.0 1662.0,2155.3 1664.1,2187.7 1667.3,2221.0 1671.5,2255.1 1676.7,2289.8 1682.7,2324.8 1689.5,2360.1 1696.9,2395.4  " style="stroke-opacity: 1.000000; stroke-width: 5.0; stroke: rgb(107,174,214); fill: none"  />
<path d="M 1711.1,607.9 L 1702.9,642.2 1694.6,676.2 1686.2,709.6 1677.8,742.3 1669.4,774.0 1661.0,804.4 1652.8,833.5 1644.7,860.9 1636.7,886.6 1628.9,910.4 1621.3,932.1 1614.0,951.7 1607.0,969.0 1600.2,983.8 1593.7,996.3 1587.6,1006.1 1581.8,1013.4 1576.3,1018.1 1571.3,1020.1 1566.6,1019.4 1562.3,1016.1 1558.4,1010.1 1554.9,1001.4 1551.8,990.2 1549.0,976.5 1546.7,960.3 1544.8,941.8 1543.3,920.9 1542.1,898.0 1541.3,872.9 1540.9,846.0 1540.9,817.4 1541.1,787.2 1541.7,755.7 1542.5,722.9 1543.6,689.2 1545.0,654.7 1546.6,619.7 1548.4,584.5  " style="stroke-opacity: 1.000000; stroke-width: 5.0; stroke: rgb(107,174,214); fill: none"  />
<path d="M 1711.1,607.9 L 1703.0,642.2 1695.2,676.3 1687.7,710.0 1680.6,743.0 1673.9,775.1 1667.7,806.0 1662.1,835.7 1657.0,863.9 1652.6,890.4 1649.0,915.2 1646.0,938.0 1643.8,958.7 1642.3,977.3 1641.7,993.7 1641.9,1007.7 1643.0,1019.3 1644.9,1028.4 1647.7,1035.0 1651.3,1039.0 1655.8,1040.5 1661.2,1039.5 1667.4,1035.9 1674.4,1029.7 1682.2,1021.1 1690.7,1010.0 1700.1,996.6 1710.1,980.9 1720.8,962.9 1732.1,942.9 1744.0,920.9 1756.4,897.0 1769.3,871.5 1782.6,844.4 1796.3,815.9 1810.2,786.2 1824.3,755.6 1838.5,724.2 1852.8,692.2 1867.0,659.9  " style="stroke-opacity: 1.000000; stroke-width: 5.0; stroke: rgb(107,174,214); fill: none"  />
<path d="M 2128.3,2167.6 L 2104.1,2141.7 2080.4,2115.7 2057.2,2089.9 2034.9,2064.2 2013.5,2039.0 1993.2,2014.3 1974.2,1990.2 1956.5,1966.9 1940.4,1944.5 1925.9,1923.1 1913.2,1902.8 1902.3,1883.6 1893.3,1865.8 1886.2,1849.2 1881.2,1834.0 1878.2,1820.3 1877.4,1808.1 1878.7,1797.3 1882.2,1788.2 1887.8,1780.6 1895.5,1774.6 1905.4,1770.2 1917.3,1767.4 1931.3,1766.2 1947.3,1766.5 1965.2,1768.4 1984.9,1771.8 2006.4,1776.6 2029.6,1782.8 2054.3,1790.3 2080.5,1799.2 2107.9,1809.2 2136.5,1820.3 2166.1,1832.4 2196.5,1845.4 2227.6,1859.3 2259.1,1873.8 2290.9,1888.8 2322.8,1904.3  " style="stroke-opacity: 1.000000; stroke-width: 5.0; stroke: rgb(107,174,214); fill: none"  />
<path d="M 2128.3,2167.6 L 2104.2,2141.9 2080.4,2116.2 2057.1,2090.8 2034.4,2065.8 2012.6,2041.3 1991.8,2017.6 1972.1,1994.7 1953.7,1972.8 1936.6,1952.0 1921.0,1932.4 1907.1,1914.1 1894.8,1897.2 1884.3,1881.8 1875.6,1868.0 1868.8,1855.7 1863.9,1845.2 1861.0,1836.3 1860.1,1829.2 1861.3,1823.9 1864.4,1820.3 1869.6,1818.6 1876.7,1818.6 1885.9,1820.4 1896.9,1824.0 1909.9,1829.3 1924.7,1836.3 1941.2,1844.9 1959.4,1855.1 1979.2,1866.8 2000.5,1880.0 2023.2,1894.4 2047.2,1910.1 2072.2,1927.0 2098.3,1944.8 2125.1,1963.6 2152.6,1983.1 2180.7,2003.2 2209.0,2023.8 2237.4,2044.7  " style="stroke-opacity: 1.000000; stroke-width: 5.0; stroke: rgb(107,174,214); fill: none"  />
<path d="M 2128.3,2167.6 L 2104.0,2142.0 2079.9,2116.7 2055.9,2091.9 2032.3,2067.8 2009.2,2044.5 1986.8,2022.3 1965.1,2001.2 1944.4,1981.5 1924.7,1963.2 1906.0,1946.5 1888.6,1931.4 1872.5,1918.2 1857.8,1906.7 1844.5,1897.2 1832.7,1889.7 1822.4,1884.2 1813.8,1880.8 1806.7,1879.4 1801.3,1880.2 1797.6,1883.2 1795.6,1888.2 1795.2,1895.4 1796.4,1904.6 1799.3,1915.9 1803.8,1929.1 1809.9,1944.3 1817.5,1961.3 1826.6,1980.1 1837.1,2000.6 1848.9,2022.7 1861.9,2046.2 1876.2,2071.0 1891.5,2097.1 1907.7,2124.1 1924.8,2152.1 1942.6,2180.8 1961.0,2209.9 1979.8,2239.4 1999.0,2269.1  " style="stroke-opacity: 1.000000; stroke-width: 5.0; stroke: rgb(107,174,214); fill: none"  />
<path d="M 2128.3,2167.6 L 2103.9,2141.9 2079.4,2116.7 2055.0,2092.0 2030.7,2068.1 2006.8,2045.2 1983.4,2023.5 1960.5,2003.0 1938.3,1984.0 1917.0,1966.6 1896.5,1950.8 1877.0,1936.9 1858.5,1924.8 1841.2,1914.7 1825.1,1906.7 1810.3,1900.8 1796.8,1897.0 1784.6,1895.4 1773.8,1896.1 1764.5,1899.0 1756.5,1904.1 1750.1,1911.5 1745.1,1921.0 1741.6,1932.8 1739.5,1946.7 1738.9,1962.6 1739.7,1980.6 1741.8,2000.5 1745.3,2022.3 1750.1,2045.8 1756.2,2070.9 1763.4,2097.6 1771.7,2125.5 1781.1,2154.8 1791.4,2185.0 1802.5,2216.2 1814.4,2248.0 1827.0,2280.4 1840.1,2313.1 1853.6,2345.8  " style="stroke-opacity: 1.000000; stroke-width: 5.0; stroke: rgb(107,174,214); fill: none"  />
<path d="M 2128.3,2167.6 L 2103.6,2141.8 2078.8,2116.5 2053.8,2091.8 2028.9,2068.1 2004.1,2045.4 1979.5,2023.9 1955.3,2003.8 1931.6,1985.2 1908.4,1968.3 1885.9,1953.1 1864.2,1939.9 1843.2,1928.6 1823.2,1919.3 1804.1,1912.2 1786.0,1907.3 1768.9,1904.7 1753.0,1904.3 1738.2,1906.2 1724.6,1910.4 1712.2,1917.0 1701.1,1925.8 1691.1,1936.9 1682.5,1950.3 1675.1,1965.9 1668.9,1983.6 1664.0,2003.4 1660.3,2025.2 1657.8,2048.8 1656.5,2074.3 1656.3,2101.4 1657.2,2130.1 1659.2,2160.1 1662.1,2191.4 1666.0,2223.8 1670.8,2257.1 1676.3,2291.1 1682.6,2325.6 1689.5,2360.5 1696.9,2395.4  " style="stroke-opacity: 1.000000; stroke-width: 5.0; stroke: rgb(107,174,214); fill: none"  />
<path d="M 1867.0,659.9 L 1852.6,692.3 1838.1,724.3 1823.4,755.8 1808.6,786.4 1793.8,816.0 1779.0,844.4 1764.4,871.3 1749.9,896.7 1735.6,920.3 1721.6,942.0 1708.0,961.7 1694.7,979.3 1681.8,994.6 1669.3,1007.6 1657.3,1018.2 1645.9,1026.3 1634.9,1031.9 1624.6,1034.9 1614.8,1035.3 1605.6,1033.1 1597.1,1028.4 1589.1,1021.0 1581.9,1011.2 1575.2,998.8 1569.3,984.0 1564.0,966.8 1559.3,947.3 1555.3,925.6 1551.9,901.9 1549.1,876.2 1546.9,848.7 1545.4,819.5 1544.3,788.8 1543.9,756.9 1543.9,723.8 1544.4,689.8 1545.3,655.1 1546.7,619.9 1548.4,584.5  " style="stroke-opacity: 1.000000; stroke-width: 5.0; stroke: rgb(107,174,214); fill: none"  />
<path d="M 1867.0,659.9 L 1852.8,692.2 1838.5,724.2 1824.3,755.6 1810.2,786.2 1796.3,815.9 1782.6,844.4 1769.3,871.5 1756.4,897.0 1744.0,920.9 1732.1,942.9 1720.8,962.9 1710.1,980.9 1700.1,996.6 1690.7,1010.0 1682.2,1021.1 1674.4,1029.7 1667.4,1035.9 1661.2,1039.5 1655.8,1040.5 1651.3,1039.0 1647.7,1035.0 1644.9,1028.4 1643.0,1019.3 1641.9,1007.7 1641.7,993.7 1642.3,977.3 1643.8,958.7 1646.0,938.0 1649.0,915.2 1652.6,890.4 1657.0,863.9 1662.1,835.7 1667.7,806.0 1673.9,775.1 1680.6,743.0 1687.7,710.0 1695.2,676.3 1703.0,642.2 1711.1,607.9  " style="stroke-opacity: 1.000000; stroke-width: 5.0; stroke: rgb(107,174,214); fill: none"  />
<path d="M 1867.0,659.9 L 1852.9,692.3 1839.2,724.4 1825.8,756.2 1812.9,787.4 1800.6,817.8 1788.9,847.1 1778.1,875.3 1768.1,902.1 1759.0,927.5 1751.0,951.1 1744.0,973.1 1738.1,993.1 1733.4,1011.2 1729.9,1027.1 1727.6,1040.9 1726.5,1052.5 1726.8,1061.8 1728.4,1068.8 1731.2,1073.5 1735.4,1075.7 1740.8,1075.6 1747.5,1073.2 1755.5,1068.4 1764.7,1061.3 1775.2,1052.0 1786.7,1040.4 1799.4,1026.7 1813.1,1011.0 1827.9,993.3 1843.5,973.8 1860.0,952.5 1877.2,929.7 1895.2,905.4 1913.7,879.8 1932.7,853.1 1952.0,825.5 1971.6,797.1 1991.3,768.2 2011.1,738.9  " style="stroke-opacity: 1.000000; stroke-width: 5.0; stroke: rgb(107,174,214); fill: none"  />
<path d="M 1867.0,659.9 L 1852.9,692.4 1839.3,724.9 1826.3,757.0 1813.8,788.7 1802.2,819.7 1791.4,849.8 1781.6,878.8 1772.8,906.7 1765.2,933.2 1758.7,958.2 1753.6,981.7 1749.7,1003.4 1747.2,1023.2 1746.2,1041.2 1746.6,1057.2 1748.4,1071.1 1751.7,1082.9 1756.6,1092.6 1762.9,1100.0 1770.7,1105.3 1780.0,1108.3 1790.8,1109.1 1803.0,1107.8 1816.6,1104.2 1831.5,1098.5 1847.7,1090.7 1865.2,1080.9 1883.8,1069.1 1903.6,1055.5 1924.3,1040.1 1946.0,1023.0 1968.4,1004.3 1991.6,984.2 2015.4,962.8 2039.7,940.3 2064.3,916.9 2089.1,892.6 2114.0,867.7 2138.8,842.4  " style="stroke-opacity: 1.000000; stroke-width: 5.0; stroke: rgb(107,174,214); fill: none"  />
<path d="M 1533.9,2416.1 L 1532.5,2380.9 1530.9,2345.9 1529.2,2311.5 1527.3,2277.8 1525.2,2245.1 1523.0,2213.6 1520.5,2183.5 1517.9,2155.0 1515.0,2128.2 1512.0,2103.4 1508.8,2080.6 1505.4,2060.0 1501.8,2041.7 1498.1,2025.8 1494.2,2012.3 1490.0,2001.5 1485.8,1993.2 1481.3,1987.6 1476.8,1984.6 1472.0,1984.4 1467.2,1986.8 1462.2,1991.9 1457.0,1999.7 1451.8,2010.1 1446.5,2023.1 1441.1,2038.5 1435.6,2056.3 1430.0,2076.4 1424.5,2098.8 1418.8,2123.2 1413.2,2149.5 1407.6,2177.5 1402.0,2207.2 1396.4,2238.3 1390.9,2270.6 1385.4,2303.9 1380.1,2337.9 1374.8,2372.6 1369.8,2407.5  " style="stroke-opacity: 1.000000; stroke-width: 5.0; stroke: rgb(107,174,214); fill: none"  />
<path d="M 1533.9,2416.1 L 1532.4,2380.7 1530.6,2345.6 1528.4,2310.9 1525.9,2277.0 1522.9,2244.1 1519.6,2212.3 1515.8,2181.8 1511.6,2152.9 1507.0,2125.7 1501.9,2100.4 1496.4,2077.0 1490.5,2055.8 1484.1,2036.8 1477.3,2020.2 1470.0,2005.9 1462.3,1994.2 1454.2,1985.0 1445.6,1978.4 1436.7,1974.4 1427.3,1973.1 1417.6,1974.4 1407.6,1978.3 1397.2,1984.9 1386.5,1994.0 1375.5,2005.6 1364.3,2019.6 1352.8,2036.0 1341.1,2054.7 1329.3,2075.6 1317.3,2098.5 1305.2,2123.3 1293.0,2149.8 1280.9,2178.0 1268.7,2207.6 1256.6,2238.4 1244.6,2270.2 1232.8,2302.9 1221.2,2336.1 1209.8,2369.6  " style="stroke-opacity: 1.000000; stroke-width: 5.0; stroke: rgb(107,174,214); fill: none"  />
<path d="M 1533.9,2416.1 L 1532.3,2380.5 1530.3,2345.1 1527.7,2310.1 1524.5,2275.8 1520.8,2242.3 1516.4,2210.0 1511.4,2179.0 1505.8,2149.4 1499.5,2121.4 1492.5,2095.2 1484.8,2070.9 1476.5,2048.6 1467.5,2028.4 1457.7,2010.5 1447.3,1994.9 1436.3,1981.7 1424.5,1970.9 1412.1,1962.6 1399.1,1956.9 1385.5,1953.6 1371.2,1952.9 1356.5,1954.8 1341.1,1959.2 1325.3,1966.0 1309.0,1975.3 1292.3,1987.0 1275.2,2000.9 1257.7,2017.1 1240.0,2035.4 1222.0,2055.7 1203.8,2077.9 1185.5,2101.9 1167.2,2127.4 1148.8,2154.3 1130.5,2182.5 1112.3,2211.8 1094.3,2241.9 1076.6,2272.7 1059.2,2303.8  " style="stroke-opacity: 1.000000; stroke-width: 5.0; stroke: rgb(107,174,214); fill: none"  />
<path d="M 1533.9,2416.1 L 1532.1,2379.2 1529.5,2342.2 1525.9,2305.5 1521.3,2269.1 1515.7,2233.4 1509.1,2198.3 1501.3,2164.2 1492.3,2131.1 1482.2,2099.1 1470.9,2068.5 1458.4,2039.2 1444.6,2011.5 1429.6,1985.4 1413.4,1961.1 1395.9,1938.5 1377.2,1917.7 1357.3,1898.9 1336.2,1882.0 1313.9,1867.2 1290.5,1854.3 1266.0,1843.5 1240.4,1834.8 1213.8,1828.1 1186.3,1823.5 1157.8,1820.9 1128.5,1820.3 1098.5,1821.7 1067.7,1825.0 1036.3,1830.1 1004.4,1837.1 972.0,1845.7 939.3,1856.0 906.3,1867.8 873.2,1881.0 840.0,1895.5 806.9,1911.2 774.0,1928.0 741.4,1945.6 709.3,1964.0  " style="stroke-opacity: 1.000000; stroke-width: 5.0; stroke: rgb(107,174,214); fill: none"  />
<path d="M 2011.1,738.9 L 1991.3,768.2 1971.6,797.1 1952.0,825.5 1932.7,853.1 1913.7,879.8 1895.2,905.4 1877.2,929.7 1860.0,952.5 1843.5,973.8 1827.9,993.3 1813.1,1011.0 1799.4,1026.7 1786.7,1040.4 1775.2,1052.0 1764.7,1061.3 1755.5,1068.4 1747.5,1073.2 1740.8,1075.6 1735.4,1075.7 1731.2,1073.5 1728.4,1068.8 1726.8,1061.8 1726.5,1052.5 1727.6,1040.9 1729.9,1027.1 1733.4,1011.2 1738.1,993.1 1744.0,973.1 1751.0,951.1 1759.0,927.5 1768.1,902.1 1778.1,875.3 1788.9,847.1 1800.6,817.8 1812.9,787.4 1825.8,756.2 1839.2,724.4 1852.9,692.3 1867.0,659.9  " style="stroke-opacity: 1.000000; stroke-width: 5.0; stroke: rgb(107,174,214); fill: none"  />
<path d="M 2011.1,738.9 L 1991.5,768.3 1972.2,797.5 1953.3,826.3 1935.1,854.7 1917.5,882.4 1900.9,909.2 1885.2,935.0 1870.5,959.6 1857.1,982.9 1845.0,1004.8 1834.2,1025.1 1824.8,1043.8 1816.9,1060.7 1810.6,1075.8 1805.9,1088.9 1802.8,1100.2 1801.4,1109.4 1801.7,1116.5 1803.7,1121.6 1807.3,1124.6 1812.7,1125.5 1819.8,1124.3 1828.5,1121.0 1838.8,1115.6 1850.7,1108.3 1864.2,1099.0 1879.1,1087.8 1895.4,1074.8 1913.1,1060.0 1931.9,1043.6 1952.0,1025.6 1973.0,1006.2 1995.0,985.5 2017.8,963.6 2041.2,940.7 2065.2,917.0 2089.6,892.6 2114.1,867.7 2138.8,842.4  " style="stroke-opacity: 1.000000; stroke-width: 5.0; stroke: rgb(107,174,214); fill: none"  />
<path d="M 1369.8,2407.5 L 1374.8,2372.6 1380.1,2337.9 1385.4,2303.9 1390.9,2270.6 1396.4,2238.3 1402.0,2207.2 1407.6,2177.5 1413.2,2149.5 1418.8,2123.2 1424.5,2098.8 1430.0,2076.4 1435.6,2056.3 1441.1,2038.5 1446.5,2023.1 1451.8,2010.1 1457.0,1999.7 1462.2,1991.9 1467.2,1986.8 1472.0,1984.4 1476.8,1984.6 1481.3,1987.6 1485.8,1993.2 1490.0,2001.5 1494.2,2012.3 1498.1,2025.8 1501.8,2041.7 1505.4,2060.0 1508.8,2080.6 1512.0,2103.4 1515.0,2128.2 1517.9,2155.0 1520.5,2183.5 1523.0,2213.6 1525.2,2245.1 1527.3,2277.8 1529.2,2311.5 1530.9,2345.9 1532.5,2380.9 1533.9,2416.1  " style="stroke-opacity: 1.000000; stroke-width: 5.0; stroke: rgb(107,174,214); fill: none"  />
<path d="M 1369.8,2407.5 L 1374.7,2372.5 1379.4,2337.8 1383.8,2303.6 1388.0,2270.2 1391.8,2237.6 1395.2,2206.2 1398.1,2176.2 1400.6,2147.7 1402.6,2120.8 1404.1,2095.8 1405.0,2072.9 1405.3,2052.0 1405.1,2033.3 1404.2,2017.0 1402.8,2003.1 1400.7,1991.6 1397.9,1982.7 1394.6,1976.4 1390.6,1972.7 1386.0,1971.6 1380.8,1973.1 1374.9,1977.3 1368.5,1984.0 1361.5,1993.3 1354.0,2005.1 1345.9,2019.3 1337.3,2035.9 1328.2,2054.7 1318.8,2075.7 1308.9,2098.6 1298.6,2123.5 1288.1,2150.1 1277.3,2178.3 1266.2,2207.9 1255.0,2238.7 1243.7,2270.5 1232.4,2303.1 1221.1,2336.2 1209.8,2369.6  " style="stroke-opacity: 1.000000; stroke-width: 5.0; stroke: rgb(107,174,214); fill: none"  />
<path d="M 1369.8,2407.5 L 1374.6,2372.4 1379.1,2337.5 1383.2,2303.0 1386.7,2269.2 1389.7,2236.2 1392.1,2204.3 1393.8,2173.7 1394.9,2144.5 1395.2,2116.9 1394.7,2091.1 1393.5,2067.1 1391.4,2045.2 1388.5,2025.4 1384.7,2007.8 1380.1,1992.5 1374.6,1979.5 1368.3,1969.0 1361.1,1961.0 1353.0,1955.5 1344.0,1952.5 1334.2,1952.1 1323.7,1954.1 1312.3,1958.7 1300.1,1965.8 1287.2,1975.2 1273.7,1987.0 1259.4,2001.1 1244.6,2017.4 1229.2,2035.8 1213.4,2056.2 1197.0,2078.5 1180.3,2102.4 1163.3,2128.0 1146.1,2154.9 1128.7,2183.1 1111.2,2212.2 1093.7,2242.2 1076.4,2272.8 1059.2,2303.8  " style="stroke-opacity: 1.000000; stroke-width: 5.0; stroke: rgb(107,174,214); fill: none"  />
<path d="M 1999.0,2269.1 L 1979.7,2239.0 1961.1,2208.8 1943.1,2178.7 1925.9,2148.8 1909.8,2119.3 1894.8,2090.4 1881.0,2062.1 1868.6,2034.7 1857.7,2008.1 1848.3,1982.7 1840.6,1958.4 1834.6,1935.3 1830.4,1913.7 1828.1,1893.4 1827.6,1874.7 1829.1,1857.5 1832.5,1841.9 1837.9,1828.0 1845.2,1815.8 1854.5,1805.3 1865.7,1796.6 1878.9,1789.6 1894.0,1784.4 1910.9,1780.9 1929.5,1779.1 1949.9,1779.0 1971.9,1780.6 1995.5,1783.9 2020.6,1788.6 2046.9,1794.9 2074.6,1802.6 2103.3,1811.7 2133.0,1822.0 2163.5,1833.5 2194.7,1846.0 2226.5,1859.5 2258.5,1873.8 2290.7,1888.8 2322.8,1904.3  " style="stroke-opacity: 1.000000; stroke-width: 5.0; stroke: rgb(107,174,214); fill: none"  />
<path d="M 1999.0,2269.1 L 1979.8,2239.4 1961.0,2209.9 1942.6,2180.8 1924.8,2152.1 1907.7,2124.1 1891.5,2097.1 1876.2,2071.0 1861.9,2046.2 1848.9,2022.7 1837.1,2000.6 1826.6,1980.1 1817.5,1961.3 1809.9,1944.3 1803.8,1929.1 1799.3,1915.9 1796.4,1904.6 1795.2,1895.4 1795.6,1888.2 1797.6,1883.2 1801.3,1880.2 1806.7,1879.4 1813.8,1880.8 1822.4,1884.2 1832.7,1889.7 1844.5,1897.2 1857.8,1906.7 1872.5,1918.2 1888.6,1931.4 1906.0,1946.5 1924.7,1963.2 1944.4,1981.5 1965.1,2001.2 1986.8,2022.3 2009.2,2044.5 2032.3,2067.8 2055.9,2091.9 2079.9,2116.7 2104.0,2142.0 2128.3,2167.6  " style="stroke-opacity: 1.000000; stroke-width: 5.0; stroke: rgb(107,174,214); fill: none"  />
<path d="M 1999.0,2269.1 L 1979.7,2239.5 1960.4,2210.3 1941.3,2181.6 1922.4,2153.7 1903.8,2126.7 1885.7,2100.8 1868.2,2076.2 1851.3,2053.1 1835.1,2031.6 1819.8,2011.8 1805.4,1993.9 1791.9,1978.0 1779.4,1964.1 1768.0,1952.3 1757.8,1942.8 1748.7,1935.6 1740.7,1930.7 1734.1,1928.1 1728.6,1927.9 1724.4,1930.2 1721.5,1934.7 1719.8,1941.7 1719.4,1951.0 1720.3,1962.6 1722.3,1976.5 1725.6,1992.5 1730.0,2010.6 1735.6,2030.7 1742.3,2052.8 1749.9,2076.6 1758.6,2102.0 1768.2,2129.0 1778.6,2157.4 1789.7,2186.9 1801.5,2217.5 1813.9,2248.8 1826.8,2280.8 1840.1,2313.2 1853.6,2345.8  " style="stroke-opacity: 1.000000; stroke-width: 5.0; stroke: rgb(107,174,214); fill: none"  />
<path d="M 1999.0,2269.1 L 1979.5,2239.4 1960.0,2210.2 1940.3,2181.6 1920.7,2153.8 1901.3,2127.0 1882.1,2101.4 1863.3,2077.2 1844.9,2054.5 1826.9,2033.5 1809.6,2014.4 1792.9,1997.2 1776.9,1982.0 1761.7,1969.0 1747.3,1958.2 1733.7,1949.7 1721.1,1943.6 1709.4,1939.9 1698.7,1938.6 1689.0,1939.8 1680.3,1943.4 1672.6,1949.5 1666.0,1958.0 1660.4,1969.0 1655.9,1982.3 1652.4,1997.9 1650.0,2015.7 1648.6,2035.7 1648.1,2057.7 1648.6,2081.7 1650.1,2107.5 1652.4,2135.0 1655.6,2164.0 1659.6,2194.4 1664.4,2226.0 1669.8,2258.7 1675.8,2292.2 1682.4,2326.3 1689.5,2360.7 1696.9,2395.4  " style="stroke-opacity: 1.000000; stroke-width: 5.0; stroke: rgb(107,174,214); fill: none"  />
<path d="M 1853.6,2345.8 L 1840.0,2312.5 1827.0,2279.0 1814.9,2245.5 1803.6,2212.3 1793.4,2179.6 1784.3,2147.3 1776.4,2115.8 1769.9,2085.2 1764.8,2055.5 1761.2,2027.0 1759.2,1999.7 1758.7,1973.7 1759.9,1949.2 1762.8,1926.2 1767.5,1904.7 1773.9,1884.9 1782.0,1866.9 1792.0,1850.6 1803.6,1836.1 1817.1,1823.5 1832.2,1812.7 1849.1,1803.8 1867.6,1796.7 1887.7,1791.5 1909.4,1788.2 1932.6,1786.7 1957.1,1787.0 1983.0,1789.0 2010.2,1792.7 2038.4,1798.0 2067.7,1804.9 2097.9,1813.3 2128.9,1823.0 2160.5,1834.1 2192.6,1846.3 2225.1,1859.5 2257.7,1873.7 2290.3,1888.7 2322.8,1904.3  " style="stroke-opacity: 1.000000; stroke-width: 5.0; stroke: rgb(107,174,214); fill: none"  />
<path d="M 1853.6,2345.8 L 1840.1,2313.1 1827.0,2280.4 1814.4,2248.0 1802.5,2216.2 1791.4,2185.0 1781.1,2154.8 1771.7,2125.5 1763.4,2097.6 1756.2,2070.9 1750.1,2045.8 1745.3,2022.3 1741.8,2000.5 1739.7,1980.6 1738.9,1962.6 1739.5,1946.7 1741.6,1932.8 1745.1,1921.0 1750.1,1911.5 1756.5,1904.1 1764.5,1899.0 1773.8,1896.1 1784.6,1895.4 1796.8,1897.0 1810.3,1900.8 1825.1,1906.7 1841.2,1914.7 1858.5,1924.8 1877.0,1936.9 1896.5,1950.8 1917.0,1966.6 1938.3,1984.0 1960.5,2003.0 1983.4,2023.5 2006.8,2045.2 2030.7,2068.1 2055.0,2092.0 2079.4,2116.7 2103.9,2141.9 2128.3,2167.6  " style="stroke-opacity: 1.000000; stroke-width: 5.0; stroke: rgb(107,174,214); fill: none"  />
<path d="M 1853.6,2345.8 L 1840.1,2313.2 1826.8,2280.8 1813.9,2248.8 1801.5,2217.5 1789.7,2186.9 1778.6,2157.4 1768.2,2129.0 1758.6,2102.0 1749.9,2076.6 1742.3,2052.8 1735.6,2030.7 1730.0,2010.6 1725.6,1992.5 1722.3,1976.5 1720.3,1962.6 1719.4,1951.0 1719.8,1941.7 1721.5,1934.7 1724.4,1930.2 1728.6,1927.9 1734.1,1928.1 1740.7,1930.7 1748.7,1935.6 1757.8,1942.8 1768.0,1952.3 1779.4,1964.1 1791.9,1978.0 1805.4,1993.9 1819.8,2011.8 1835.1,2031.6 1851.3,2053.1 1868.2,2076.2 1885.7,2100.8 1903.8,2126.7 1922.4,2153.7 1941.3,2181.6 1960.4,2210.3 1979.7,2239.5 1999.0,2269.1  " style="stroke-opacity: 1.000000; stroke-width: 5.0; stroke: rgb(107,174,214); fill: none"  />
<path d="M 1853.6,2345.8 L 1839.9,2313.3 1826.2,2281.1 1812.5,2249.5 1798.9,2218.6 1785.4,2188.7 1772.2,2160.0 1759.4,2132.7 1746.9,2106.9 1734.8,2082.9 1723.3,2060.7 1712.3,2040.5 1701.8,2022.4 1692.1,2006.5 1683.0,1992.9 1674.6,1981.7 1666.9,1973.0 1660.0,1966.7 1653.9,1963.0 1648.5,1961.9 1644.0,1963.3 1640.3,1967.3 1637.4,1973.9 1635.4,1982.9 1634.1,1994.5 1633.7,2008.5 1634.0,2024.9 1635.2,2043.5 1637.1,2064.3 1639.7,2087.1 1643.0,2111.9 1646.9,2138.5 1651.5,2166.8 1656.7,2196.5 1662.4,2227.6 1668.6,2259.8 1675.2,2292.9 1682.2,2326.6 1689.4,2360.9 1696.9,2395.4  " style="stroke-opacity: 1.000000; stroke-width: 5.0; stroke: rgb(107,174,214); fill: none"  />
<path d="M 1209.8,2369.6 L 1221.2,2336.1 1232.8,2302.9 1244.6,2270.2 1256.6,2238.4 1268.7,2207.6 1280.9,2178.0 1293.0,2149.8 1305.2,2123.3 1317.3,2098.5 1329.3,2075.6 1341.1,2054.7 1352.8,2036.0 1364.3,2019.6 1375.5,2005.6 1386.5,1994.0 1397.2,1984.9 1407.6,1978.3 1417.6,1974.4 1427.3,1973.1 1436.7,1974.4 1445.6,1978.4 1454.2,1985.0 1462.3,1994.2 1470.0,2005.9 1477.3,2020.2 1484.1,2036.8 1490.5,2055.8 1496.4,2077.0 1501.9,2100.4 1507.0,2125.7 1511.6,2152.9 1515.8,2181.8 1519.6,2212.3 1522.9,2244.1 1525.9,2277.0 1528.4,2310.9 1530.6,2345.6 1532.4,2380.7 1533.9,2416.1  " style="stroke-opacity: 1.000000; stroke-width: 5.0; stroke: rgb(107,174,214); fill: none"  />
<path d="M 1209.8,2369.6 L 1221.1,2336.2 1232.4,2303.1 1243.7,2270.5 1255.0,2238.7 1266.2,2207.9 1277.3,2178.3 1288.1,2150.1 1298.6,2123.5 1308.9,2098.6 1318.8,2075.7 1328.2,2054.7 1337.3,2035.9 1345.9,2019.3 1354.0,2005.1 1361.5,1993.3 1368.5,1984.0 1374.9,1977.3 1380.8,1973.1 1386.0,1971.6 1390.6,1972.7 1394.6,1976.4 1397.9,1982.7 1400.7,1991.6 1402.8,2003.1 1404.2,2017.0 1405.1,2033.3 1405.3,2052.0 1405.0,2072.9 1404.1,2095.8 1402.6,2120.8 1400.6,2147.7 1398.1,2176.2 1395.2,2206.2 1391.8,2237.6 1388.0,2270.2 1383.8,2303.6 1379.4,2337.8 1374.7,2372.5 1369.8,2407.5  " style="stroke-opacity: 1.000000; stroke-width: 5.0; stroke: rgb(107,174,214); fill: none"  />
<path d="M 1209.8,2369.6 L 1220.9,2336.1 1231.7,2302.8 1242.2,2270.0 1252.3,2237.8 1261.8,2206.4 1270.8,2176.2 1279.0,2147.1 1286.6,2119.5 1293.3,2093.5 1299.2,2069.1 1304.2,2046.7 1308.3,2026.2 1311.4,2007.8 1313.5,1991.6 1314.5,1977.6 1314.5,1966.0 1313.4,1956.7 1311.2,1949.9 1308.0,1945.6 1303.6,1943.7 1298.2,1944.2 1291.7,1947.3 1284.2,1952.8 1275.6,1960.7 1266.1,1970.9 1255.6,1983.4 1244.2,1998.2 1232.0,2015.1 1218.9,2034.0 1205.1,2054.9 1190.5,2077.5 1175.4,2101.8 1159.7,2127.7 1143.6,2154.8 1127.1,2183.1 1110.3,2212.3 1093.3,2242.4 1076.2,2272.9 1059.2,2303.8  " style="stroke-opacity: 1.000000; stroke-width: 5.0; stroke: rgb(107,174,214); fill: none"  />
<path d="M 1059.2,2303.8 L 1076.6,2272.7 1094.3,2241.9 1112.3,2211.8 1130.5,2182.5 1148.8,2154.3 1167.2,2127.4 1185.5,2101.9 1203.8,2077.9 1222.0,2055.7 1240.0,2035.4 1257.7,2017.1 1275.2,2000.9 1292.3,1987.0 1309.0,1975.3 1325.3,1966.0 1341.1,1959.2 1356.5,1954.8 1371.2,1952.9 1385.5,1953.6 1399.1,1956.9 1412.1,1962.6 1424.5,1970.9 1436.3,1981.7 1447.3,1994.9 1457.7,2010.5 1467.5,2028.4 1476.5,2048.6 1484.8,2070.9 1492.5,2095.2 1499.5,2121.4 1505.8,2149.4 1511.4,2179.0 1516.4,2210.0 1520.8,2242.3 1524.5,2275.8 1527.7,2310.1 1530.3,2345.1 1532.3,2380.5 1533.9,2416.1  " style="stroke-opacity: 1.000000; stroke-width: 5.0; stroke: rgb(107,174,214); fill: none"  />
<path d="M 1059.2,2303.8 L 1076.4,2272.8 1093.7,2242.2 1111.2,2212.2 1128.7,2183.1 1146.1,2154.9 1163.3,2128.0 1180.3,2102.4 1197.0,2078.5 1213.4,2056.2 1229.2,2035.8 1244.6,2017.4 1259.4,2001.1 1273.7,1987.0 1287.2,1975.2 1300.1,1965.8 1312.3,1958.7 1323.7,1954.1 1334.2,1952.1 1344.0,1952.5 1353.0,1955.5 1361.1,1961.0 1368.3,1969.0 1374.6,1979.5 1380.1,1992.5 1384.7,2007.8 1388.5,2025.4 1391.4,2045.2 1393.5,2067.1 1394.7,2091.1 1395.2,2116.9 1394.9,2144.5 1393.8,2173.7 1392.1,2204.3 1389.7,2236.2 1386.7,2269.2 1383.2,2303.0 1379.1,2337.5 1374.6,2372.4 1369.8,2407.5  " style="stroke-opacity: 1.000000; stroke-width: 5.0; stroke: rgb(107,174,214); fill: none"  />
<path d="M 1059.2,2303.8 L 1076.2,2272.9 1093.3,2242.4 1110.3,2212.3 1127.1,2183.1 1143.6,2154.8 1159.7,2127.7 1175.4,2101.8 1190.5,2077.5 1205.1,2054.9 1218.9,2034.0 1232.0,2015.1 1244.2,1998.2 1255.6,1983.4 1266.1,1970.9 1275.6,1960.7 1284.2,1952.8 1291.7,1947.3 1298.2,1944.2 1303.6,1943.7 1308.0,1945.6 1311.2,1949.9 1313.4,1956.7 1314.5,1966.0 1314.5,1977.6 1313.5,1991.6 1311.4,2007.8 1308.3,2026.2 1304.2,2046.7 1299.2,2069.1 1293.3,2093.5 1286.6,2119.5 1279.0,2147.1 1270.8,2176.2 1261.8,2206.4 1252.3,2237.8 1242.2,2270.0 1231.7,2302.8 1220.9,2336.1 1209.8,2369.6  " style="stroke-opacity: 1.000000; stroke-width: 5.0; stroke: rgb(107,174,214); fill: none"  />
<path d="M 1059.2,2303.8 L 1076.1,2272.4 1092.5,2241.0 1108.3,2209.6 1123.2,2178.5 1137.1,2147.9 1149.9,2117.9 1161.6,2088.7 1171.9,2060.4 1180.8,2033.2 1188.3,2007.1 1194.2,1982.3 1198.5,1958.9 1201.0,1936.9 1201.9,1916.6 1201.0,1897.8 1198.2,1880.8 1193.7,1865.5 1187.3,1852.1 1179.1,1840.4 1169.0,1830.7 1157.2,1822.8 1143.5,1816.8 1128.1,1812.7 1111.0,1810.5 1092.3,1810.1 1071.9,1811.5 1050.1,1814.7 1026.8,1819.7 1002.2,1826.3 976.3,1834.5 949.3,1844.2 921.4,1855.4 892.5,1867.9 862.9,1881.6 832.7,1896.4 802.1,1912.2 771.2,1928.8 740.2,1946.1 709.3,1964.0  " style="stroke-opacity: 1.000000; stroke-width: 5.0; stroke: rgb(107,174,214); fill: none"  />
<path d="M 2385.6,1263.1 L 2351.4,1272.4 2317.6,1282.0 2284.3,1291.8 2251.8,1301.9 2220.3,1312.1 2190.0,1322.4 2161.2,1332.9 2134.0,1343.4 2108.5,1353.9 2084.9,1364.5 2063.3,1375.1 2044.0,1385.6 2026.9,1396.0 2012.2,1406.4 1999.9,1416.7 1990.2,1426.8 1983.1,1436.8 1978.5,1446.6 1976.6,1456.2 1977.4,1465.6 1980.8,1474.7 1986.9,1483.7 1995.6,1492.3 2006.8,1500.7 2020.6,1508.9 2036.8,1516.7 2055.4,1524.2 2076.2,1531.5 2099.1,1538.4 2124.1,1545.0 2151.0,1551.2 2179.6,1557.2 2209.8,1562.8 2241.3,1568.0 2274.0,1573.0 2307.7,1577.6 2342.2,1581.8 2377.1,1585.8 2412.4,1589.4  " style="stroke-opacity: 1.000000; stroke-width: 5.0; stroke: rgb(107,174,214); fill: none"  />
<path d="M 2412.4,1589.4 L 2377.1,1585.8 2342.2,1581.8 2307.7,1577.6 2274.0,1573.0 2241.3,1568.0 2209.8,1562.8 2179.6,1557.2 2151.0,1551.2 2124.1,1545.0 2099.1,1538.4 2076.2,1531.5 2055.4,1524.2 2036.8,1516.7 2020.6,1508.9 2006.8,1500.7 1995.6,1492.3 1986.9,1483.7 1980.8,1474.7 1977.4,1465.6 1976.6,1456.2 1978.5,1446.6 1983.1,1436.8 1990.2,1426.8 1999.9,1416.7 2012.2,1406.4 2026.9,1396.0 2044.0,1385.6 2063.3,1375.1 2084.9,1364.5 2108.5,1353.9 2134.0,1343.4 2161.2,1332.9 2190.0,1322.4 2220.3,1312.1 2251.8,1301.9 2284.3,1291.8 2317.6,1282.0 2351.4,1272.4 2385.6,1263.1  " style="stroke-opacity: 1.000000; stroke-width: 5.0; stroke: rgb(107,174,214); fill: none"  />
<path d="M 2412.4,1589.4 L 2377.3,1586.0 2342.4,1582.9 2308.0,1580.0 2274.4,1577.3 2241.7,1575.0 2210.2,1573.0 2180.1,1571.4 2151.5,1570.2 2124.6,1569.4 2099.5,1569.1 2076.5,1569.2 2055.7,1569.8 2037.0,1570.9 2020.8,1572.5 2006.9,1574.6 1995.6,1577.2 1986.8,1580.3 1980.6,1583.9 1977.1,1588.1 1976.2,1592.7 1978.0,1597.9 1982.4,1603.5 1989.4,1609.6 1999.0,1616.2 2011.1,1623.2 2025.7,1630.7 2042.6,1638.5 2061.8,1646.7 2083.2,1655.2 2106.6,1664.1 2131.9,1673.2 2159.0,1682.5 2187.6,1692.1 2217.7,1701.8 2248.9,1711.6 2281.2,1721.4 2314.3,1731.3 2347.9,1741.1 2381.8,1750.9  " style="stroke-opacity: 1.000000; stroke-width: 5.0; stroke: rgb(107,174,214); fill: none"  />
<path d="M 2381.8,1750.9 L 2347.9,1741.1 2314.3,1731.3 2281.2,1721.4 2248.9,1711.6 2217.7,1701.8 2187.6,1692.1 2159.0,1682.5 2131.9,1673.2 2106.6,1664.1 2083.2,1655.2 2061.8,1646.7 2042.6,1638.5 2025.7,1630.7 2011.1,1623.2 1999.0,1616.2 1989.4,1609.6 1982.4,1603.5 1978.0,1597.9 1976.2,1592.7 1977.1,1588.1 1980.6,1583.9 1986.8,1580.3 1995.6,1577.2 2006.9,1574.6 2020.8,1572.5 2037.0,1570.9 2055.7,1569.8 2076.5,1569.2 2099.5,1569.1 2124.6,1569.4 2151.5,1570.2 2180.1,1571.4 2210.2,1573.0 2241.7,1575.0 2274.4,1577.3 2308.0,1580.0 2342.4,1582.9 2377.3,1586.0 2412.4,1589.4  " style="stroke-opacity: 1.000000; stroke-width: 5.0; stroke: rgb(107,174,214); fill: none"  />
<path d="M 2138.8,842.4 L 2113.4,868.0 2087.7,893.1 2061.8,917.5 2035.7,940.9 2009.6,963.1 1983.5,984.2 1957.6,1003.8 1932.0,1021.8 1906.7,1038.2 1881.9,1052.7 1857.6,1065.3 1833.9,1075.9 1810.9,1084.5 1788.6,1090.8 1767.0,1095.0 1746.3,1096.9 1726.5,1096.5 1707.6,1093.7 1689.7,1088.7 1672.8,1081.3 1656.9,1071.6 1642.1,1059.6 1628.4,1045.3 1615.7,1028.9 1604.1,1010.3 1593.6,989.6 1584.2,966.9 1575.9,942.2 1568.6,915.8 1562.4,887.7 1557.3,858.1 1553.1,827.1 1549.9,794.8 1547.6,761.4 1546.2,727.0 1545.6,692.0 1545.9,656.4 1546.8,620.5 1548.4,584.5  " style="stroke-opacity: 1.000000; stroke-width: 5.0; stroke: rgb(107,174,214); fill: none"  />
<path d="M 2138.8,842.4 L 2114.0,867.7 2089.1,892.6 2064.3,916.9 2039.7,940.3 2015.4,962.8 1991.6,984.2 1968.4,1004.3 1946.0,1023.0 1924.3,1040.1 1903.6,1055.5 1883.8,1069.1 1865.2,1080.9 1847.7,1090.7 1831.5,1098.5 1816.6,1104.2 1803.0,1107.8 1790.8,1109.1 1780.0,1108.3 1770.7,1105.3 1762.9,1100.0 1756.6,1092.6 1751.7,1082.9 1748.4,1071.1 1746.6,1057.2 1746.2,1041.2 1747.2,1023.2 1749.7,1003.4 1753.6,981.7 1758.7,958.2 1765.2,933.2 1772.8,906.7 1781.6,878.8 1791.4,849.8 1802.2,819.7 1813.8,788.7 1826.3,757.0 1839.3,724.9 1852.9,692.4 1867.0,659.9  " style="stroke-opacity: 1.000000; stroke-width: 5.0; stroke: rgb(107,174,214); fill: none"  />
<path d="M 2138.8,842.4 L 2114.1,867.7 2089.6,892.6 2065.2,917.0 2041.2,940.7 2017.8,963.6 1995.0,985.5 1973.0,1006.2 1952.0,1025.6 1931.9,1043.6 1913.1,1060.0 1895.4,1074.8 1879.1,1087.8 1864.2,1099.0 1850.7,1108.3 1838.8,1115.6 1828.5,1121.0 1819.8,1124.3 1812.7,1125.5 1807.3,1124.6 1803.7,1121.6 1801.7,1116.5 1801.4,1109.4 1802.8,1100.2 1805.9,1088.9 1810.6,1075.8 1816.9,1060.7 1824.8,1043.8 1834.2,1025.1 1845.0,1004.8 1857.1,982.9 1870.5,959.6 1885.2,935.0 1900.9,909.2 1917.5,882.4 1935.1,854.7 1953.3,826.3 1972.2,797.5 1991.5,768.3 2011.1,738.9  " style="stroke-opacity: 1.000000; stroke-width: 5.0; stroke: rgb(107,174,214); fill: none"  />
<path d="M 1696.9,2395.4 L 1689.4,2359.7 1682.7,2323.9 1676.9,2288.1 1672.0,2252.7 1668.2,2217.7 1665.5,2183.3 1664.1,2149.6 1663.9,2116.9 1665.1,2085.2 1667.7,2054.6 1671.7,2025.4 1677.2,1997.5 1684.3,1971.1 1692.8,1946.3 1702.9,1923.2 1714.6,1901.8 1727.8,1882.2 1742.6,1864.4 1759.0,1848.4 1776.8,1834.4 1796.2,1822.4 1817.0,1812.2 1839.2,1804.0 1862.8,1797.8 1887.6,1793.5 1913.8,1791.1 1941.1,1790.5 1969.4,1791.8 1998.8,1794.9 2029.1,1799.6 2060.2,1806.0 2091.9,1814.0 2124.3,1823.4 2157.0,1834.1 2190.1,1846.2 2223.4,1859.3 2256.7,1873.5 2289.9,1888.5 2322.8,1904.3  " style="stroke-opacity: 1.000000; stroke-width: 5.0; stroke: rgb(107,174,214); fill: none"  />
<path d="M 1696.9,2395.4 L 1689.5,2360.1 1682.7,2324.8 1676.7,2289.8 1671.5,2255.1 1667.3,2221.0 1664.1,2187.7 1662.0,2155.3 1661.1,2124.0 1661.4,2093.9 1662.9,2065.2 1665.8,2037.9 1670.0,2012.3 1675.5,1988.4 1682.5,1966.2 1690.9,1946.0 1700.7,1927.7 1712.0,1911.4 1724.7,1897.1 1738.7,1884.9 1754.2,1874.9 1771.1,1867.0 1789.2,1861.2 1808.7,1857.6 1829.5,1856.1 1851.4,1856.7 1874.4,1859.3 1898.6,1864.0 1923.7,1870.6 1949.7,1879.1 1976.6,1889.4 2004.2,1901.4 2032.4,1915.0 2061.1,1930.1 2090.2,1946.6 2119.6,1964.4 2149.2,1983.2 2178.8,2003.0 2208.2,2023.6 2237.4,2044.7  " style="stroke-opacity: 1.000000; stroke-width: 5.0; stroke: rgb(107,174,214); fill: none"  />
<path d="M 1696.9,2395.4 L 1689.5,2360.5 1682.6,2325.6 1676.3,2291.1 1670.8,2257.1 1666.0,2223.8 1662.1,2191.4 1659.2,2160.1 1657.2,2130.1 1656.3,2101.4 1656.5,2074.3 1657.8,2048.8 1660.3,2025.2 1664.0,2003.4 1668.9,1983.6 1675.1,1965.9 1682.5,1950.3 1691.1,1936.9 1701.1,1925.8 1712.2,1917.0 1724.6,1910.4 1738.2,1906.2 1753.0,1904.3 1768.9,1904.7 1786.0,1907.3 1804.1,1912.2 1823.2,1919.3 1843.2,1928.6 1864.2,1939.9 1885.9,1953.1 1908.4,1968.3 1931.6,1985.2 1955.3,2003.8 1979.5,2023.9 2004.1,2045.4 2028.9,2068.1 2053.8,2091.8 2078.8,2116.5 2103.6,2141.8 2128.3,2167.6  " style="stroke-opacity: 1.000000; stroke-width: 5.0; stroke: rgb(107,174,214); fill: none"  />
<path d="M 1696.9,2395.4 L 1689.5,2360.7 1682.4,2326.3 1675.8,2292.2 1669.8,2258.7 1664.4,2226.0 1659.6,2194.4 1655.6,2164.0 1652.4,2135.0 1650.1,2107.5 1648.6,2081.7 1648.1,2057.7 1648.6,2035.7 1650.0,2015.7 1652.4,1997.9 1655.9,1982.3 1660.4,1969.0 1666.0,1958.0 1672.6,1949.5 1680.3,1943.4 1689.0,1939.8 1698.7,1938.6 1709.4,1939.9 1721.1,1943.6 1733.7,1949.7 1747.3,1958.2 1761.7,1969.0 1776.9,1982.0 1792.9,1997.2 1809.6,2014.4 1826.9,2033.5 1844.9,2054.5 1863.3,2077.2 1882.1,2101.4 1901.3,2127.0 1920.7,2153.8 1940.3,2181.6 1960.0,2210.2 1979.5,2239.4 1999.0,2269.1  " style="stroke-opacity: 1.000000; stroke-width: 5.0; stroke: rgb(107,174,214); fill: none"  />
<path d="M 1696.9,2395.4 L 1689.4,2360.9 1682.2,2326.6 1675.2,2292.9 1668.6,2259.8 1662.4,2227.6 1656.7,2196.5 1651.5,2166.8 1646.9,2138.5 1643.0,2111.9 1639.7,2087.1 1637.1,2064.3 1635.2,2043.5 1634.0,2024.9 1633.7,2008.5 1634.1,1994.5 1635.4,1982.9 1637.4,1973.9 1640.3,1967.3 1644.0,1963.3 1648.5,1961.9 1653.9,1963.0 1660.0,1966.7 1666.9,1973.0 1674.6,1981.7 1683.0,1992.9 1692.1,2006.5 1701.8,2022.4 1712.3,2040.5 1723.3,2060.7 1734.8,2082.9 1746.9,2106.9 1759.4,2132.7 1772.2,2160.0 1785.4,2188.7 1798.9,2218.6 1812.5,2249.5 1826.2,2281.1 1839.9,2313.3 1853.6,2345.8  " style="stroke-opacity: 1.000000; stroke-width: 5.0; stroke: rgb(107,174,214); fill: none"  />
<path d="M 709.3,1964.0 L 741.4,1945.6 774.0,1928.0 806.9,1911.2 840.0,1895.5 873.2,1881.0 906.3,1867.8 939.3,1856.0 972.0,1845.7 1004.4,1837.1 1036.3,1830.1 1067.7,1825.0 1098.5,1821.7 1128.5,1820.3 1157.8,1820.9 1186.3,1823.5 1213.8,1828.1 1240.4,1834.8 1266.0,1843.5 1290.5,1854.3 1313.9,1867.2 1336.2,1882.0 1357.3,1898.9 1377.2,1917.7 1395.9,1938.5 1413.4,1961.1 1429.6,1985.4 1444.6,2011.5 1458.4,2039.2 1470.9,2068.5 1482.2,2099.1 1492.3,2131.1 1501.3,2164.2 1509.1,2198.3 1515.7,2233.4 1521.3,2269.1 1525.9,2305.5 1529.5,2342.2 1532.1,2379.2 1533.9,2416.1  " style="stroke-opacity: 1.000000; stroke-width: 5.0; stroke: rgb(107,174,214); fill: none"  />
<path d="M 709.3,1964.0 L 740.2,1946.1 771.2,1928.8 802.1,1912.2 832.7,1896.4 862.9,1881.6 892.5,1867.9 921.4,1855.4 949.3,1844.2 976.3,1834.5 1002.2,1826.3 1026.8,1819.7 1050.1,1814.7 1071.9,1811.5 1092.3,1810.1 1111.0,1810.5 1128.1,1812.7 1143.5,1816.8 1157.2,1822.8 1169.0,1830.7 1179.1,1840.4 1187.3,1852.1 1193.7,1865.5 1198.2,1880.8 1201.0,1897.8 1201.9,1916.6 1201.0,1936.9 1198.5,1958.9 1194.2,1982.3 1188.3,2007.1 1180.8,2033.2 1171.9,2060.4 1161.6,2088.7 1149.9,2117.9 1137.1,2147.9 1123.2,2178.5 1108.3,2209.6 1092.5,2241.0 1076.1,2272.4 1059.2,2303.8  " style="stroke-opacity: 1.000000; stroke-width: 5.0; stroke: rgb(107,174,214); fill: none"  />
</g>
<defs>
<pattern id="hline-sparse" width="10" height="10" patternTransform="rotate(0 0 0)" patternUnits="userSpaceOnUse"><line x1="0" y1="0" x2="10" y2="0" style="stroke:black;stroke-width:2" /></pattern>
<pattern id="hline" width="10" height="10" patternTransform="rotate(0 0 0)" patternUnits="userSpaceOnUse"><line x1="0" y1="0" x2="10" y2="0" style="stroke:black;stroke-width:5" /></pattern>
<pattern id="checker" width="10" height="10" patternTransform="rotate(45 0 0)" patternUnits="userSpaceOnUse"><line x1="0" y1="0" x2="10" y2="0" style="stroke:black;stroke-width:2" /><line x1="0" y1="0" x2="0" y2="10" style="stroke:black;stroke-width:2" /></pattern>
<pattern id="vline" width="10" height="10" patternTransform="rotate(0 0 0)" patternUnits="userSpaceOnUse"><line x1="0" y1="0" x2="0" y2="10" style="stroke:black;stroke-width:5" /></pattern>
<pattern id="checker" width="10" height="10" patternTransform="rotate(45 0 0)" patternUnits="userSpaceOnUse"><line x1="0" y1="0" x2="10" y2="0" style="stroke:black;stroke-width:5" /><line x1="0" y1="0" x2="0" y2="10" style="stroke:black;stroke-width:4" /></pattern>
<pattern id="vline-sparse" width="10" height="10" patternTransform="rotate(0 0 0)" patternUnits="userSpaceOnUse"><line x1="0" y1="0" x2="0" y2="10" style="stroke:black;stroke-width:2" /></pattern>
</defs>
</svg>
