<?xml version="1.0" encoding="utf-8" standalone="no"?>
<!DOCTYPE svg PUBLIC "-//W3C//DTD SVG 1.1//EN" "http://www.w3.org/Graphics/SVG/1.1/DTD/svg11.dtd">
<svg width="3000px" height="3000px" version="1.1" xmlns="http://www.w3.org/2000/svg" xmlns:xlink="http://www.w3.org/1999/xlink">
<g id="bg">
<rect x="0" y="0" width="3000px" height="3000px" style="fill:rgb(255,255,255);"/>
</g>
<g id="ideograms">
<path d="M1500.000,830.000 A670.000,670.000 40.000 0,1 1570.620,833.732 L1579.053,754.178 A750.000,750.000 0.000 0,0 1500.000,750.000 Z" style="stroke-width:2.0;stroke:rgb(115,115,115);stroke-linecap:round;fill:rgb(153,204,255);" />
<text x="1567.5" y="677.8" font-size="65.0px" font-family="CMUBright-Roman" style="text-anchor:start;fill:rgb(0,0,0);" transform="rotate(273.0,1567.5,677.8)" >5-FP</text>
<path d="M1500.000,830.000 A670.000,670.000 40.000 0,1 1570.620,833.732 L1579.053,754.178 A750.000,750.000 0.000 0,0 1500.000,750.000 Z" style="stroke-width:2.0;stroke:rgb(115,115,115);stroke-linecap:round;fill:none;" />
<path d="M1619.633,840.767 A670.000,670.000 40.000 0,1 1688.452,857.049 L1710.954,780.279 A750.000,750.000 0.000 0,0 1633.918,762.053 Z" style="stroke-width:2.0;stroke:rgb(115,115,115);stroke-linecap:round;fill:rgb(153,204,255);" />
<text x="1713.7" y="703.2" font-size="65.0px" font-family="CMUBright-Roman" style="text-anchor:start;fill:rgb(0,0,0);" transform="rotate(283.3,1713.7,703.2)" >8-IFG</text>
<path d="M1619.633,840.767 A670.000,670.000 40.000 0,1 1688.452,857.049 L1710.954,780.279 A750.000,750.000 0.000 0,0 1633.918,762.053 Z" style="stroke-width:2.0;stroke:rgb(115,115,115);stroke-linecap:round;fill:none;" />
<path d="M1735.421,872.723 A670.000,670.000 40.000 0,1 1800.227,901.031 L1836.075,829.512 A750.000,750.000 0.000 0,0 1763.531,797.824 Z" style="stroke-width:2.0;stroke:rgb(115,115,115);stroke-linecap:round;fill:rgb(153,204,255);" />
<text x="1852.1" y="753.9" font-size="65.0px" font-family="CMUBright-Roman" style="text-anchor:start;fill:rgb(0,0,0);" transform="rotate(293.6,1852.1,753.9)" >10-IPL</text>
<path d="M1735.421,872.723 A670.000,670.000 40.000 0,1 1800.227,901.031 L1836.075,829.512 A750.000,750.000 0.000 0,0 1763.531,797.824 Z" style="stroke-width:2.0;stroke:rgb(115,115,115);stroke-linecap:round;fill:none;" />
<path d="M1843.643,924.839 A670.000,670.000 40.000 0,1 1902.352,964.264 L1950.394,900.296 A750.000,750.000 0.000 0,0 1884.674,856.163 Z" style="stroke-width:2.0;stroke:rgb(115,115,115);stroke-linecap:round;fill:rgb(153,204,255);" />
<text x="1980.1" y="829.1" font-size="65.0px" font-family="CMUBright-Roman" style="text-anchor:start;fill:rgb(0,0,0);" transform="rotate(303.9,1980.1,829.1)" >13-LCI</text>
<path d="M1843.643,924.839 A670.000,670.000 40.000 0,1 1902.352,964.264 L1950.394,900.296 A750.000,750.000 0.000 0,0 1884.674,856.163 Z" style="stroke-width:2.0;stroke:rgb(115,115,115);stroke-linecap:round;fill:none;" />
<path d="M1940.819,995.442 A670.000,670.000 40.000 0,1 1991.546,1044.717 L2050.238,990.354 A750.000,750.000 0.000 0,0 1993.454,935.196 Z" style="stroke-width:2.0;stroke:rgb(115,115,115);stroke-linecap:round;fill:rgb(153,204,255);" />
<text x="2092.1" y="925.6" font-size="65.0px" font-family="CMUBright-Roman" style="text-anchor:start;fill:rgb(0,0,0);" transform="rotate(314.2,2092.1,925.6)" >28-RCI</text>
<path d="M1940.819,995.442 A670.000,670.000 40.000 0,1 1991.546,1044.717 L2050.238,990.354 A750.000,750.000 0.000 0,0 1993.454,935.196 Z" style="stroke-width:2.0;stroke:rgb(115,115,115);stroke-linecap:round;fill:none;" />
<path d="M2023.827,1082.262 A670.000,670.000 40.000 0,1 2064.940,1139.802 L2132.396,1096.793 A750.000,750.000 0.000 0,0 2086.374,1032.383 Z" style="stroke-width:2.0;stroke:rgb(115,115,115);stroke-linecap:round;fill:rgb(116,196,118);" />
<text x="2184.6" y="1039.7" font-size="65.0px" font-family="CMUBright-Roman" style="text-anchor:start;fill:rgb(0,0,0);" transform="rotate(324.5,2184.6,1039.7)" >14-LIX</text>
<path d="M2023.827,1082.262 A670.000,670.000 40.000 0,1 2064.940,1139.802 L2132.396,1096.793 A750.000,750.000 0.000 0,0 2086.374,1032.383 Z" style="stroke-width:2.0;stroke:rgb(115,115,115);stroke-linecap:round;fill:none;" />
<path d="M2089.999,1182.508 A670.000,670.000 40.000 0,1 2120.177,1246.465 L2194.228,1216.192 A750.000,750.000 0.000 0,0 2160.447,1144.599 Z" style="stroke-width:2.0;stroke:rgb(115,115,115);stroke-linecap:round;fill:rgb(116,196,118);" />
<text x="2256.0" y="1169.8" font-size="65.0px" font-family="CMUBright-Roman" style="text-anchor:start;fill:rgb(0,0,0);" transform="rotate(334.7,2256.0,1169.8)" >15-LVIIIb</text>
<path d="M2089.999,1182.508 A670.000,670.000 40.000 0,1 2120.177,1246.465 L2194.228,1216.192 A750.000,750.000 0.000 0,0 2160.447,1144.599 Z" style="stroke-width:2.0;stroke:rgb(115,115,115);stroke-linecap:round;fill:none;" />
<path d="M2137.208,1292.959 A670.000,670.000 40.000 0,1 2155.481,1361.276 L2233.748,1344.712 A750.000,750.000 0.000 0,0 2213.292,1268.237 Z" style="stroke-width:2.0;stroke:rgb(115,115,115);stroke-linecap:round;fill:rgb(116,196,118);" />
<text x="2302.8" y="1310.1" font-size="65.0px" font-family="CMUBright-Roman" style="text-anchor:start;fill:rgb(0,0,0);" transform="rotate(345.0,2302.8,1310.1)" >23-PP</text>
<path d="M2137.208,1292.959 A670.000,670.000 40.000 0,1 2155.481,1361.276 L2233.748,1344.712 A750.000,750.000 0.000 0,0 2213.292,1268.237 Z" style="stroke-width:2.0;stroke:rgb(115,115,115);stroke-linecap:round;fill:none;" />
<path d="M2163.936,1410.064 A670.000,670.000 40.000 0,1 2169.718,1480.546 L2249.684,1478.223 A750.000,750.000 0.000 0,0 2243.212,1399.325 Z" style="stroke-width:2.0;stroke:rgb(115,115,115);stroke-linecap:round;fill:rgb(116,196,118);" />
<text x="2323.8" y="1456.0" font-size="65.0px" font-family="CMUBright-Roman" style="text-anchor:start;fill:rgb(0,0,0);" transform="rotate(355.3,2323.8,1456.0)" >24-PP</text>
<path d="M2163.936,1410.064 A670.000,670.000 40.000 0,1 2169.718,1480.546 L2249.684,1478.223 A750.000,750.000 0.000 0,0 2243.212,1399.325 Z" style="stroke-width:2.0;stroke:rgb(115,115,115);stroke-linecap:round;fill:none;" />
<path d="M2169.325,1530.059 A670.000,670.000 40.000 0,1 2162.429,1600.441 L2241.524,1612.434 A750.000,750.000 0.000 0,0 2249.245,1533.649 Z" style="stroke-width:2.0;stroke:rgb(115,115,115);stroke-linecap:round;fill:rgb(116,196,118);" />
<text x="2318.3" y="1604.8" font-size="65.0px" font-family="CMUBright-Roman" style="text-anchor:start;fill:rgb(0,0,0);" transform="rotate(5.6,2318.3,1604.8)" >25-PosG</text>
<path d="M2169.325,1530.059 A670.000,670.000 40.000 0,1 2162.429,1600.441 L2241.524,1612.434 A750.000,750.000 0.000 0,0 2249.245,1533.649 Z" style="stroke-width:2.0;stroke:rgb(115,115,115);stroke-linecap:round;fill:none;" />
<path d="M2153.202,1649.089 A670.000,670.000 40.000 0,1 2133.849,1717.108 L2209.532,1743.032 A750.000,750.000 0.000 0,0 2231.196,1666.891 Z" style="stroke-width:2.0;stroke:rgb(115,115,115);stroke-linecap:round;fill:rgb(116,196,118);" />
<text x="2286.5" y="1749.2" font-size="65.0px" font-family="CMUBright-Roman" style="text-anchor:start;fill:rgb(0,0,0);" transform="rotate(15.9,2286.5,1749.2)" >26-PC</text>
<path d="M2153.202,1649.089 A670.000,670.000 40.000 0,1 2133.849,1717.108 L2209.532,1743.032 A750.000,750.000 0.000 0,0 2231.196,1666.891 Z" style="stroke-width:2.0;stroke:rgb(115,115,115);stroke-linecap:round;fill:none;" />
<path d="M2116.084,1763.327 A670.000,670.000 40.000 0,1 2084.896,1826.797 L2154.734,1865.818 A750.000,750.000 0.000 0,0 2189.646,1794.769 Z" style="stroke-width:2.0;stroke:rgb(115,115,115);stroke-linecap:round;fill:rgb(153,0,204);" />
<text x="2229.3" y="1885.7" font-size="65.0px" font-family="CMUBright-Roman" style="text-anchor:start;fill:rgb(0,0,0);" transform="rotate(26.2,2229.3,1885.7)" >1-AG</text>
<path d="M2116.084,1763.327 A670.000,670.000 40.000 0,1 2084.896,1826.797 L2154.734,1865.818 A750.000,750.000 0.000 0,0 2189.646,1794.769 Z" style="stroke-width:2.0;stroke:rgb(115,115,115);stroke-linecap:round;fill:none;" />
<path d="M2059.164,1869.101 A670.000,670.000 40.000 0,1 2017.145,1925.983 L2078.893,1976.846 A750.000,750.000 0.000 0,0 2125.930,1913.173 Z" style="stroke-width:2.0;stroke:rgb(115,115,115);stroke-linecap:round;fill:rgb(153,0,204);" />
<text x="2148.7" y="2009.7" font-size="65.0px" font-family="CMUBright-Roman" style="text-anchor:start;fill:rgb(0,0,0);" transform="rotate(36.5,2148.7,2009.7)" >7-IFG</text>
<path d="M2059.164,1869.101 A670.000,670.000 40.000 0,1 2017.145,1925.983 L2078.893,1976.846 A750.000,750.000 0.000 0,0 2125.930,1913.173 Z" style="stroke-width:2.0;stroke:rgb(115,115,115);stroke-linecap:round;fill:none;" />
<path d="M1984.273,1963.012 A670.000,670.000 40.000 0,1 1932.772,2011.477 L1984.446,2072.549 A750.000,750.000 0.000 0,0 2042.096,2018.297 Z" style="stroke-width:2.0;stroke:rgb(115,115,115);stroke-linecap:round;fill:rgb(153,0,204);" />
<text x="2047.7" y="2117.0" font-size="65.0px" font-family="CMUBright-Roman" style="text-anchor:start;fill:rgb(0,0,0);" transform="rotate(46.7,2047.7,2117.0)" >9-IPL</text>
<path d="M1984.273,1963.012 A670.000,670.000 40.000 0,1 1932.772,2011.477 L1984.446,2072.549 A750.000,750.000 0.000 0,0 2042.096,2018.297 Z" style="stroke-width:2.0;stroke:rgb(115,115,115);stroke-linecap:round;fill:none;" />
<path d="M1893.816,2042.041 A670.000,670.000 40.000 0,1 1834.489,2080.532 L1874.428,2149.849 A750.000,750.000 0.000 0,0 1940.839,2106.763 Z" style="stroke-width:2.0;stroke:rgb(115,115,115);stroke-linecap:round;fill:rgb(153,0,204);" />
<text x="1928.3" y="2205.1" font-size="65.0px" font-family="CMUBright-Roman" style="text-anchor:start;fill:rgb(0,0,0);" transform="rotate(57.0,1928.3,2205.1)" >17-MFG</text>
<path d="M1893.816,2042.041 A670.000,670.000 40.000 0,1 1834.489,2080.532 L1874.428,2149.849 A750.000,750.000 0.000 0,0 1940.839,2106.763 Z" style="stroke-width:2.0;stroke:rgb(115,115,115);stroke-linecap:round;fill:none;" />
<path d="M1790.702,2103.649 A670.000,670.000 40.000 0,1 1725.456,2130.928 L1752.376,2206.262 A750.000,750.000 0.000 0,0 1825.413,2175.727 Z" style="stroke-width:2.0;stroke:rgb(115,115,115);stroke-linecap:round;fill:rgb(153,0,204);" />
<text x="1795.5" y="2270.3" font-size="65.0px" font-family="CMUBright-Roman" style="text-anchor:start;fill:rgb(0,0,0);" transform="rotate(67.3,1795.5,2270.3)" >18-MTG</text>
<path d="M1790.702,2103.649 A670.000,670.000 40.000 0,1 1725.456,2130.928 L1752.376,2206.262 A750.000,750.000 0.000 0,0 1825.413,2175.727 Z" style="stroke-width:2.0;stroke:rgb(115,115,115);stroke-linecap:round;fill:none;" />
<path d="M1678.245,2145.855 A670.000,670.000 40.000 0,1 1609.176,2161.045 L1622.212,2239.976 A750.000,750.000 0.000 0,0 1699.528,2222.972 Z" style="stroke-width:2.0;stroke:rgb(115,115,115);stroke-linecap:round;fill:rgb(153,0,204);" />
<text x="1653.2" y="2310.7" font-size="65.0px" font-family="CMUBright-Roman" style="text-anchor:start;fill:rgb(0,0,0);" transform="rotate(77.6,1653.2,2310.7)" >34-SG</text>
<path d="M1678.245,2145.855 A670.000,670.000 40.000 0,1 1609.176,2161.045 L1622.212,2239.976 A750.000,750.000 0.000 0,0 1699.528,2222.972 Z" style="stroke-width:2.0;stroke:rgb(115,115,115);stroke-linecap:round;fill:none;" />
<path d="M1560.058,2167.303 A670.000,670.000 40.000 0,1 1489.388,2169.916 L1488.121,2249.906 A750.000,750.000 0.000 0,0 1567.229,2246.981 Z" style="stroke-width:2.0;stroke:rgb(115,115,115);stroke-linecap:round;fill:rgb(253,208,162);" />
<text x="1506.0" y="2325.0" font-size="65.0px" font-family="CMUBright-Roman" style="text-anchor:start;fill:rgb(0,0,0);" transform="rotate(87.9,1506.0,2325.0)" >12-LOC</text>
<path d="M1560.058,2167.303 A670.000,670.000 40.000 0,1 1489.388,2169.916 L1488.121,2249.906 A750.000,750.000 0.000 0,0 1567.229,2246.981 Z" style="stroke-width:2.0;stroke:rgb(115,115,115);stroke-linecap:round;fill:none;" />
<path d="M1439.942,2167.303 A670.000,670.000 40.000 0,1 1369.940,2157.255 L1354.411,2235.733 A750.000,750.000 0.000 0,0 1432.771,2246.981 Z" style="stroke-width:2.0;stroke:rgb(115,115,115);stroke-linecap:round;fill:rgb(253,208,162);" />
<text x="1407.1" y="2319.8" font-size="65.0px" font-family="CMUBright-Roman" style="text-anchor:end;fill:rgb(0,0,0);" transform="rotate(-81.8,1407.1,2319.8)" >16-LG</text>
<path d="M1439.942,2167.303 A670.000,670.000 40.000 0,1 1369.940,2157.255 L1354.411,2235.733 A750.000,750.000 0.000 0,0 1432.771,2246.981 Z" style="stroke-width:2.0;stroke:rgb(115,115,115);stroke-linecap:round;fill:none;" />
<path d="M1321.755,2145.855 A670.000,670.000 40.000 0,1 1254.673,2123.470 L1225.380,2197.914 A750.000,750.000 0.000 0,0 1300.472,2222.972 Z" style="stroke-width:2.0;stroke:rgb(115,115,115);stroke-linecap:round;fill:rgb(253,208,162);" />
<text x="1262.2" y="2290.0" font-size="65.0px" font-family="CMUBright-Roman" style="text-anchor:end;fill:rgb(0,0,0);" transform="rotate(-71.5,1262.2,2290.0)" >20-OFG</text>
<path d="M1321.755,2145.855 A670.000,670.000 40.000 0,1 1254.673,2123.470 L1225.380,2197.914 A750.000,750.000 0.000 0,0 1300.472,2222.972 Z" style="stroke-width:2.0;stroke:rgb(115,115,115);stroke-linecap:round;fill:none;" />
<path d="M1209.298,2103.649 A670.000,670.000 40.000 0,1 1147.290,2069.645 L1105.176,2137.663 A750.000,750.000 0.000 0,0 1174.587,2175.727 Z" style="stroke-width:2.0;stroke:rgb(115,115,115);stroke-linecap:round;fill:rgb(253,208,162);" />
<text x="1125.0" y="2234.8" font-size="65.0px" font-family="CMUBright-Roman" style="text-anchor:end;fill:rgb(0,0,0);" transform="rotate(-61.3,1125.0,2234.8)" >21-OP</text>
<path d="M1209.298,2103.649 A670.000,670.000 40.000 0,1 1147.290,2069.645 L1105.176,2137.663 A750.000,750.000 0.000 0,0 1174.587,2175.727 Z" style="stroke-width:2.0;stroke:rgb(115,115,115);stroke-linecap:round;fill:none;" />
<path d="M1106.184,2042.041 A670.000,670.000 40.000 0,1 1051.245,1997.512 L997.662,2056.917 A750.000,750.000 0.000 0,0 1059.161,2106.763 Z" style="stroke-width:2.0;stroke:rgb(115,115,115);stroke-linecap:round;fill:rgb(253,208,162);" />
<text x="999.8" y="2156.1" font-size="65.0px" font-family="CMUBright-Roman" style="text-anchor:end;fill:rgb(0,0,0);" transform="rotate(-51.0,999.8,2156.1)" >27-RCI</text>
<path d="M1106.184,2042.041 A670.000,670.000 40.000 0,1 1051.245,1997.512 L997.662,2056.917 A750.000,750.000 0.000 0,0 1059.161,2106.763 Z" style="stroke-width:2.0;stroke:rgb(115,115,115);stroke-linecap:round;fill:none;" />
<path d="M1015.727,1963.012 A670.000,670.000 40.000 0,1 969.622,1909.389 L906.293,1958.271 A750.000,750.000 0.000 0,0 957.904,2018.297 Z" style="stroke-width:2.0;stroke:rgb(115,115,115);stroke-linecap:round;fill:rgb(253,208,162);" />
<text x="890.7" y="2056.2" font-size="65.0px" font-family="CMUBright-Roman" style="text-anchor:end;fill:rgb(0,0,0);" transform="rotate(-40.7,890.7,2056.2)" >29-RCI</text>
<path d="M1015.727,1963.012 A670.000,670.000 40.000 0,1 969.622,1909.389 L906.293,1958.271 A750.000,750.000 0.000 0,0 957.904,2018.297 Z" style="stroke-width:2.0;stroke:rgb(115,115,115);stroke-linecap:round;fill:none;" />
<path d="M940.836,1869.101 A670.000,670.000 40.000 0,1 905.046,1808.107 L834.007,1844.896 A750.000,750.000 0.000 0,0 874.070,1913.173 Z" style="stroke-width:2.0;stroke:rgb(115,115,115);stroke-linecap:round;fill:rgb(253,208,162);" />
<text x="801.2" y="1938.5" font-size="65.0px" font-family="CMUBright-Roman" style="text-anchor:end;fill:rgb(0,0,0);" transform="rotate(-30.4,801.2,1938.5)" >35-SG</text>
<path d="M940.836,1869.101 A670.000,670.000 40.000 0,1 905.046,1808.107 L834.007,1844.896 A750.000,750.000 0.000 0,0 874.070,1913.173 Z" style="stroke-width:2.0;stroke:rgb(115,115,115);stroke-linecap:round;fill:none;" />
<path d="M883.916,1763.327 A670.000,670.000 40.000 0,1 859.593,1696.922 L783.126,1720.436 A750.000,750.000 0.000 0,0 810.354,1794.769 Z" style="stroke-width:2.0;stroke:rgb(115,115,115);stroke-linecap:round;fill:rgb(253,141,60);" />
<text x="734.1" y="1806.6" font-size="65.0px" font-family="CMUBright-Roman" style="text-anchor:end;fill:rgb(0,0,0);" transform="rotate(-20.1,734.1,1806.6)" >2-COC</text>
<path d="M883.916,1763.327 A670.000,670.000 40.000 0,1 859.593,1696.922 L783.126,1720.436 A750.000,750.000 0.000 0,0 810.354,1794.769 Z" style="stroke-width:2.0;stroke:rgb(115,115,115);stroke-linecap:round;fill:none;" />
<path d="M846.798,1649.089 A670.000,670.000 40.000 0,1 834.722,1579.409 L755.286,1588.890 A750.000,750.000 0.000 0,0 768.804,1666.891 Z" style="stroke-width:2.0;stroke:rgb(115,115,115);stroke-linecap:round;fill:rgb(253,141,60);" />
<text x="691.7" y="1665.0" font-size="65.0px" font-family="CMUBright-Roman" style="text-anchor:end;fill:rgb(0,0,0);" transform="rotate(-9.8,691.7,1665.0)" >3-COC</text>
<path d="M846.798,1649.089 A670.000,670.000 40.000 0,1 834.722,1579.409 L755.286,1588.890 A750.000,750.000 0.000 0,0 768.804,1666.891 Z" style="stroke-width:2.0;stroke:rgb(115,115,115);stroke-linecap:round;fill:none;" />
<path d="M830.675,1530.059 A670.000,670.000 40.000 0,1 831.235,1459.343 L751.382,1454.488 A750.000,750.000 0.000 0,0 750.755,1533.649 Z" style="stroke-width:2.0;stroke:rgb(115,115,115);stroke-linecap:round;fill:rgb(253,141,60);" />
<text x="675.2" y="1518.0" font-size="65.0px" font-family="CMUBright-Roman" style="text-anchor:end;fill:rgb(0,0,0);" transform="rotate(0.5,675.2,1518.0)" >11-ITG</text>
<path d="M830.675,1530.059 A670.000,670.000 40.000 0,1 831.235,1459.343 L751.382,1454.488 A750.000,750.000 0.000 0,0 750.755,1533.649 Z" style="stroke-width:2.0;stroke:rgb(115,115,115);stroke-linecap:round;fill:none;" />
<path d="M836.064,1410.064 A670.000,670.000 40.000 0,1 849.242,1340.583 L771.539,1321.549 A750.000,750.000 0.000 0,0 756.788,1399.325 Z" style="stroke-width:2.0;stroke:rgb(115,115,115);stroke-linecap:round;fill:rgb(253,141,60);" />
<text x="685.3" y="1369.9" font-size="65.0px" font-family="CMUBright-Roman" style="text-anchor:end;fill:rgb(0,0,0);" transform="rotate(10.7,685.3,1369.9)" >30-RH</text>
<path d="M836.064,1410.064 A670.000,670.000 40.000 0,1 849.242,1340.583 L771.539,1321.549 A750.000,750.000 0.000 0,0 756.788,1399.325 Z" style="stroke-width:2.0;stroke:rgb(115,115,115);stroke-linecap:round;fill:none;" />
<path d="M862.792,1292.959 A670.000,670.000 40.000 0,1 888.165,1226.948 L815.110,1194.345 A750.000,750.000 0.000 0,0 786.708,1268.237 Z" style="stroke-width:2.0;stroke:rgb(115,115,115);stroke-linecap:round;fill:rgb(253,141,60);" />
<text x="721.6" y="1226.5" font-size="65.0px" font-family="CMUBright-Roman" style="text-anchor:end;fill:rgb(0,0,0);" transform="rotate(21.0,721.6,1226.5)" >31-RLV</text>
<path d="M862.792,1292.959 A670.000,670.000 40.000 0,1 888.165,1226.948 L815.110,1194.345 A750.000,750.000 0.000 0,0 786.708,1268.237 Z" style="stroke-width:2.0;stroke:rgb(115,115,115);stroke-linecap:round;fill:none;" />
<path d="M910.001,1182.508 A670.000,670.000 40.000 0,1 946.752,1122.089 L880.693,1076.965 A750.000,750.000 0.000 0,0 839.553,1144.599 Z" style="stroke-width:2.0;stroke:rgb(115,115,115);stroke-linecap:round;fill:rgb(253,141,60);" />
<text x="783.0" y="1091.9" font-size="65.0px" font-family="CMUBright-Roman" style="text-anchor:end;fill:rgb(0,0,0);" transform="rotate(31.3,783.0,1091.9)" >32-RLV</text>
<path d="M910.001,1182.508 A670.000,670.000 40.000 0,1 946.752,1122.089 L880.693,1076.965 A750.000,750.000 0.000 0,0 839.553,1144.599 Z" style="stroke-width:2.0;stroke:rgb(115,115,115);stroke-linecap:round;fill:none;" />
<path d="M976.173,1082.262 A670.000,670.000 40.000 0,1 1023.122,1029.376 L966.181,973.182 A750.000,750.000 0.000 0,0 913.626,1032.383 Z" style="stroke-width:2.0;stroke:rgb(115,115,115);stroke-linecap:round;fill:rgb(66,146,198);" />
<text x="867.0" y="970.9" font-size="65.0px" font-family="CMUBright-Roman" style="text-anchor:end;fill:rgb(0,0,0);" transform="rotate(41.6,867.0,970.9)" >4-FOC</text>
<path d="M976.173,1082.262 A670.000,670.000 40.000 0,1 1023.122,1029.376 L966.181,973.182 A750.000,750.000 0.000 0,0 913.626,1032.383 Z" style="stroke-width:2.0;stroke:rgb(115,115,115);stroke-linecap:round;fill:none;" />
<path d="M1059.181,995.442 A670.000,670.000 40.000 0,1 1114.819,951.789 L1068.827,886.331 A750.000,750.000 0.000 0,0 1006.546,935.196 Z" style="stroke-width:2.0;stroke:rgb(115,115,115);stroke-linecap:round;fill:rgb(66,146,198);" />
<text x="971.7" y="866.3" font-size="65.0px" font-family="CMUBright-Roman" style="text-anchor:end;fill:rgb(0,0,0);" transform="rotate(51.9,971.7,866.3)" >6-IFG</text>
<path d="M1059.181,995.442 A670.000,670.000 40.000 0,1 1114.819,951.789 L1068.827,886.331 A750.000,750.000 0.000 0,0 1006.546,935.196 Z" style="stroke-width:2.0;stroke:rgb(115,115,115);stroke-linecap:round;fill:none;" />
<path d="M1156.357,924.839 A670.000,670.000 40.000 0,1 1218.896,891.822 L1185.331,819.204 A750.000,750.000 0.000 0,0 1115.326,856.163 Z" style="stroke-width:2.0;stroke:rgb(115,115,115);stroke-linecap:round;fill:rgb(66,146,198);" />
<text x="1093.3" y="782.2" font-size="65.0px" font-family="CMUBright-Roman" style="text-anchor:end;fill:rgb(0,0,0);" transform="rotate(62.2,1093.3,782.2)" >19-MTG</text>
<path d="M1156.357,924.839 A670.000,670.000 40.000 0,1 1218.896,891.822 L1185.331,819.204 A750.000,750.000 0.000 0,0 1115.326,856.163 Z" style="stroke-width:2.0;stroke:rgb(115,115,115);stroke-linecap:round;fill:none;" />
<path d="M1264.579,872.723 A670.000,670.000 40.000 0,1 1332.008,851.403 L1311.949,773.958 A750.000,750.000 0.000 0,0 1236.469,797.824 Z" style="stroke-width:2.0;stroke:rgb(115,115,115);stroke-linecap:round;fill:rgb(66,146,198);" />
<text x="1228.0" y="721.1" font-size="65.0px" font-family="CMUBright-Roman" style="text-anchor:end;fill:rgb(0,0,0);" transform="rotate(72.5,1228.0,721.1)" >22-ParG</text>
<path d="M1264.579,872.723 A670.000,670.000 40.000 0,1 1332.008,851.403 L1311.949,773.958 A750.000,750.000 0.000 0,0 1236.469,797.824 Z" style="stroke-width:2.0;stroke:rgb(115,115,115);stroke-linecap:round;fill:none;" />
<path d="M1380.367,840.767 A670.000,670.000 40.000 0,1 1450.519,831.830 L1444.611,752.048 A750.000,750.000 0.000 0,0 1366.082,762.053 Z" style="stroke-width:2.0;stroke:rgb(115,115,115);stroke-linecap:round;fill:rgb(66,146,198);" />
<text x="1371.5" y="685.1" font-size="65.0px" font-family="CMUBright-Roman" style="text-anchor:end;fill:rgb(0,0,0);" transform="rotate(82.7,1371.5,685.1)" >33-SC</text>
<path d="M1380.367,840.767 A670.000,670.000 40.000 0,1 1450.519,831.830 L1444.611,752.048 A750.000,750.000 0.000 0,0 1366.082,762.053 Z" style="stroke-width:2.0;stroke:rgb(115,115,115);stroke-linecap:round;fill:none;" />
</g>
<g id="track_1">
<path d="M 2071.3,1780.7 L 2047.1,1768.5 2023.0,1755.5 1999.2,1741.9 1975.7,1727.6 1952.7,1712.6 1930.2,1696.9 1908.3,1680.5 1887.1,1663.4 1866.7,1645.7 1847.0,1627.3 1828.3,1608.3 1810.5,1588.6 1793.7,1568.3 1777.9,1547.4 1763.2,1525.9 1749.7,1503.8 1737.3,1481.2 1726.0,1458.1 1716.0,1434.5 1707.2,1410.5 1699.6,1386.0 1693.2,1361.1 1688.1,1335.8 1684.2,1310.2 1681.6,1284.3 1680.1,1258.2 1679.8,1231.8 1680.7,1205.3 1682.7,1178.7 1685.8,1151.9 1690.0,1125.2 1695.1,1098.5 1701.3,1071.8 1708.3,1045.3 1716.2,1019.0 1724.8,992.9 1734.2,967.1 1744.2,941.7 1754.8,916.7  " style="stroke-opacity: 1.000000; stroke-width: 5.0; stroke: rgb(251,106,74); fill: none"  />
<path d="M 2071.3,1780.7 L 2049.2,1769.8 2027.5,1758.7 2006.1,1747.5 1985.3,1736.3 1965.3,1725.1 1946.1,1714.0 1927.8,1703.0 1910.7,1692.1 1894.7,1681.5 1880.1,1671.1 1866.9,1661.0 1855.1,1651.2 1844.9,1641.8 1836.2,1632.8 1829.3,1624.1 1824.0,1615.9 1820.5,1608.2 1818.7,1600.9 1818.7,1594.1 1820.5,1587.8 1824.1,1582.0 1829.4,1576.7 1836.5,1572.0 1845.3,1567.8 1855.8,1564.1 1867.9,1561.0 1881.5,1558.3 1896.7,1556.2 1913.2,1554.6 1931.2,1553.5 1950.3,1552.8 1970.6,1552.7 1991.9,1552.9 2014.1,1553.6 2037.0,1554.6 2060.6,1556.0 2084.6,1557.8 2109.0,1559.8 2133.5,1562.1  " style="stroke-opacity: 1.000000; stroke-width: 5.0; stroke: rgb(251,106,74); fill: none"  />
<path d="M 1533.6,864.4 L 1532.1,889.4 1530.1,914.2 1527.6,938.8 1524.7,962.9 1521.2,986.5 1517.2,1009.4 1512.6,1031.5 1507.4,1052.6 1501.7,1072.7 1495.4,1091.7 1488.4,1109.4 1480.9,1125.7 1472.7,1140.7 1464.0,1154.2 1454.6,1166.3 1444.6,1176.7 1434.1,1185.5 1423.0,1192.7 1411.3,1198.3 1399.1,1202.1 1386.4,1204.3 1373.1,1204.8 1359.4,1203.6 1345.3,1200.8 1330.7,1196.4 1315.8,1190.3 1300.5,1182.8 1284.9,1173.7 1269.0,1163.2 1253.0,1151.4 1236.7,1138.2 1220.4,1123.9 1203.9,1108.5 1187.5,1092.0 1171.1,1074.7 1154.8,1056.7 1138.6,1038.0 1122.7,1018.8 1107.1,999.2  " style="stroke-opacity: 1.000000; stroke-width: 5.0; stroke: rgb(251,106,74); fill: none"  />
<path d="M 1533.6,864.4 L 1532.5,891.5 1532.0,918.8 1532.3,946.2 1533.4,973.7 1535.2,1001.1 1538.0,1028.4 1541.6,1055.5 1546.1,1082.4 1551.6,1108.9 1558.1,1135.0 1565.6,1160.6 1574.1,1185.7 1583.6,1210.3 1594.2,1234.3 1605.8,1257.6 1618.4,1280.2 1632.1,1302.0 1646.8,1323.1 1662.5,1343.4 1679.2,1362.8 1696.9,1381.4 1715.5,1399.1 1735.1,1415.9 1755.5,1431.7 1776.8,1446.7 1798.9,1460.7 1821.8,1473.8 1845.4,1486.0 1869.6,1497.3 1894.5,1507.6 1919.8,1517.0 1945.7,1525.5 1972.0,1533.2 1998.5,1539.9 2025.4,1545.9 2052.4,1551.1 2079.4,1555.4 2106.5,1559.1 2133.5,1562.1  " style="stroke-opacity: 1.000000; stroke-width: 5.0; stroke: rgb(251,106,74); fill: none"  />
<path d="M 1107.1,999.2 L 1122.7,1018.8 1138.6,1038.0 1154.8,1056.7 1171.1,1074.7 1187.5,1092.0 1203.9,1108.5 1220.4,1123.9 1236.7,1138.2 1253.0,1151.4 1269.0,1163.2 1284.9,1173.7 1300.5,1182.8 1315.8,1190.3 1330.7,1196.4 1345.3,1200.8 1359.4,1203.6 1373.1,1204.8 1386.4,1204.3 1399.1,1202.1 1411.3,1198.3 1423.0,1192.7 1434.1,1185.5 1444.6,1176.7 1454.6,1166.3 1464.0,1154.2 1472.7,1140.7 1480.9,1125.7 1488.4,1109.4 1495.4,1091.7 1501.7,1072.7 1507.4,1052.6 1512.6,1031.5 1517.2,1009.4 1521.2,986.5 1524.7,962.9 1527.6,938.8 1530.1,914.2 1532.1,889.4 1533.6,864.4  " style="stroke-opacity: 1.000000; stroke-width: 5.0; stroke: rgb(251,106,74); fill: none"  />
<path d="M 1107.1,999.2 L 1126.7,1024.1 1146.5,1048.9 1166.5,1073.7 1186.8,1098.5 1207.3,1123.2 1228.0,1147.9 1248.9,1172.5 1270.0,1197.0 1291.4,1221.5 1313.0,1245.9 1334.8,1270.1 1356.8,1294.3 1379.0,1318.3 1401.5,1342.2 1424.1,1365.9 1447.0,1389.5 1470.0,1412.9 1493.2,1436.2 1516.6,1459.3 1540.2,1482.2 1564.0,1504.9 1587.9,1527.5 1612.0,1549.8 1636.2,1572.0 1660.6,1593.9 1685.2,1615.6 1709.8,1637.2 1734.6,1658.5 1759.5,1679.6 1784.4,1700.4 1809.5,1721.1 1834.7,1741.5 1859.9,1761.7 1885.1,1781.7 1910.5,1801.4 1935.8,1821.0 1961.2,1840.3 1986.6,1859.3 2012.0,1878.2  " style="stroke-opacity: 1.000000; stroke-width: 5.0; stroke: rgb(251,106,74); fill: none"  />
<path d="M 2012.0,1878.2 L 1986.6,1859.3 1961.2,1840.3 1935.8,1821.0 1910.5,1801.4 1885.1,1781.7 1859.9,1761.7 1834.7,1741.5 1809.5,1721.1 1784.4,1700.4 1759.5,1679.6 1734.6,1658.5 1709.8,1637.2 1685.2,1615.6 1660.6,1593.9 1636.2,1572.0 1612.0,1549.8 1587.9,1527.5 1564.0,1504.9 1540.2,1482.2 1516.6,1459.3 1493.2,1436.2 1470.0,1412.9 1447.0,1389.5 1424.1,1365.9 1401.5,1342.2 1379.0,1318.3 1356.8,1294.3 1334.8,1270.1 1313.0,1245.9 1291.4,1221.5 1270.0,1197.0 1248.9,1172.5 1228.0,1147.9 1207.3,1123.2 1186.8,1098.5 1166.5,1073.7 1146.5,1048.9 1126.7,1024.1 1107.1,999.2  " style="stroke-opacity: 1.000000; stroke-width: 5.0; stroke: rgb(251,106,74); fill: none"  />
<path d="M 2012.0,1878.2 L 1991.4,1863.4 1970.6,1849.0 1949.6,1835.2 1928.5,1822.0 1907.4,1809.7 1886.4,1798.3 1865.4,1787.9 1844.7,1778.5 1824.3,1770.3 1804.2,1763.3 1784.5,1757.5 1765.3,1753.1 1746.6,1750.1 1728.4,1748.5 1710.9,1748.4 1694.0,1749.8 1677.8,1752.6 1662.4,1756.9 1647.6,1762.8 1633.7,1770.1 1620.6,1779.0 1608.3,1789.3 1596.8,1801.1 1586.2,1814.3 1576.4,1828.8 1567.5,1844.7 1559.4,1861.8 1552.2,1880.2 1545.8,1899.7 1540.3,1920.2 1535.5,1941.7 1531.6,1964.1 1528.4,1987.3 1525.9,2011.1 1524.2,2035.5 1523.1,2060.3 1522.7,2085.5 1522.8,2110.8 1523.5,2136.1  " style="stroke-opacity: 1.000000; stroke-width: 5.0; stroke: rgb(251,106,74); fill: none"  />
<path d="M 1936.2,1963.5 L 1917.0,1942.7 1898.1,1921.3 1879.6,1899.3 1861.5,1876.7 1843.9,1853.6 1826.8,1830.0 1810.4,1805.8 1794.6,1781.2 1779.5,1756.1 1765.2,1730.5 1751.7,1704.5 1739.0,1678.1 1727.2,1651.3 1716.4,1624.2 1706.4,1596.7 1697.5,1569.0 1689.5,1541.0 1682.5,1512.7 1676.5,1484.2 1671.5,1455.5 1667.5,1426.7 1664.6,1397.7 1662.7,1368.6 1661.8,1339.4 1662.0,1310.2 1663.1,1281.0 1665.2,1251.9 1668.2,1222.7 1672.2,1193.7 1677.1,1164.8 1682.8,1136.1 1689.4,1107.6 1696.7,1079.3 1704.8,1051.3 1713.6,1023.6 1723.1,996.2 1733.2,969.3 1743.7,942.8 1754.8,916.7  " style="stroke-opacity: 1.000000; stroke-width: 5.0; stroke: rgb(251,106,74); fill: none"  />
<path d="M 1936.2,1963.5 L 1917.9,1943.6 1899.9,1923.0 1882.4,1901.9 1865.4,1880.2 1849.2,1858.1 1833.6,1835.5 1818.9,1812.5 1805.0,1789.0 1792.1,1765.2 1780.2,1741.1 1769.3,1716.7 1759.6,1692.0 1751.0,1667.1 1743.5,1642.0 1737.3,1616.7 1732.4,1591.3 1728.7,1565.8 1726.3,1540.2 1725.2,1514.6 1725.4,1489.0 1726.9,1463.4 1729.7,1437.8 1733.8,1412.4 1739.2,1387.0 1745.8,1361.9 1753.6,1336.9 1762.6,1312.1 1772.7,1287.6 1783.9,1263.3 1796.2,1239.4 1809.5,1215.8 1823.8,1192.6 1838.9,1169.8 1854.8,1147.5 1871.4,1125.6 1888.7,1104.2 1906.5,1083.4 1924.8,1063.1 1943.5,1043.4  " style="stroke-opacity: 1.000000; stroke-width: 5.0; stroke: rgb(251,106,74); fill: none"  />
<path d="M 1754.8,916.7 L 1744.2,941.7 1734.2,967.1 1724.8,992.9 1716.2,1019.0 1708.3,1045.3 1701.3,1071.8 1695.1,1098.5 1690.0,1125.2 1685.8,1151.9 1682.7,1178.7 1680.7,1205.3 1679.8,1231.8 1680.1,1258.2 1681.6,1284.3 1684.2,1310.2 1688.1,1335.8 1693.2,1361.1 1699.6,1386.0 1707.2,1410.5 1716.0,1434.5 1726.0,1458.1 1737.3,1481.2 1749.7,1503.8 1763.2,1525.9 1777.9,1547.4 1793.7,1568.3 1810.5,1588.6 1828.3,1608.3 1847.0,1627.3 1866.7,1645.7 1887.1,1663.4 1908.3,1680.5 1930.2,1696.9 1952.7,1712.6 1975.7,1727.6 1999.2,1741.9 2023.0,1755.5 2047.1,1768.5 2071.3,1780.7  " style="stroke-opacity: 1.000000; stroke-width: 5.0; stroke: rgb(251,106,74); fill: none"  />
<path d="M 1754.8,916.7 L 1743.7,942.8 1733.2,969.3 1723.1,996.2 1713.6,1023.6 1704.8,1051.3 1696.7,1079.3 1689.4,1107.6 1682.8,1136.1 1677.1,1164.8 1672.2,1193.7 1668.2,1222.7 1665.2,1251.9 1663.1,1281.0 1662.0,1310.2 1661.8,1339.4 1662.7,1368.6 1664.6,1397.7 1667.5,1426.7 1671.5,1455.5 1676.5,1484.2 1682.5,1512.7 1689.5,1541.0 1697.5,1569.0 1706.4,1596.7 1716.4,1624.2 1727.2,1651.3 1739.0,1678.1 1751.7,1704.5 1765.2,1730.5 1779.5,1756.1 1794.6,1781.2 1810.4,1805.8 1826.8,1830.0 1843.9,1853.6 1861.5,1876.7 1879.6,1899.3 1898.1,1921.3 1917.0,1942.7 1936.2,1963.5  " style="stroke-opacity: 1.000000; stroke-width: 5.0; stroke: rgb(251,106,74); fill: none"  />
<path d="M 1754.8,916.7 L 1744.4,939.8 1733.6,962.7 1722.3,985.1 1710.5,1007.0 1698.4,1028.2 1685.9,1048.6 1672.9,1068.1 1659.7,1086.6 1646.1,1103.9 1632.1,1120.0 1617.9,1134.8 1603.5,1148.2 1588.8,1160.2 1573.8,1170.6 1558.7,1179.5 1543.4,1186.7 1528.0,1192.4 1512.4,1196.3 1496.7,1198.6 1481.0,1199.2 1465.2,1198.1 1449.4,1195.3 1433.6,1190.8 1417.8,1184.7 1402.0,1177.0 1386.4,1167.6 1370.8,1156.8 1355.4,1144.5 1340.2,1130.8 1325.1,1115.8 1310.2,1099.5 1295.6,1082.1 1281.3,1063.6 1267.3,1044.2 1253.6,1023.9 1240.3,1002.9 1227.4,981.4 1214.9,959.4 1202.8,937.1  " style="stroke-opacity: 1.000000; stroke-width: 5.0; stroke: rgb(251,106,74); fill: none"  />
<path d="M 1754.8,916.7 L 1744.4,941.2 1734.7,966.1 1725.5,991.3 1717.1,1016.7 1709.6,1042.3 1702.9,1068.0 1697.2,1093.7 1692.4,1119.3 1688.8,1144.9 1686.3,1170.3 1684.9,1195.5 1684.7,1220.5 1685.7,1245.1 1688.0,1269.4 1691.6,1293.2 1696.4,1316.6 1702.6,1339.6 1710.0,1362.0 1718.8,1383.8 1728.8,1405.0 1740.1,1425.7 1752.6,1445.7 1766.4,1465.0 1781.4,1483.6 1797.6,1501.5 1814.8,1518.7 1833.2,1535.2 1852.5,1550.9 1872.9,1565.8 1894.1,1580.0 1916.2,1593.5 1939.0,1606.2 1962.5,1618.1 1986.5,1629.2 2011.1,1639.7 2036.0,1649.4 2061.3,1658.3 2086.7,1666.6 2112.2,1674.2  " style="stroke-opacity: 1.000000; stroke-width: 5.0; stroke: rgb(251,106,74); fill: none"  />
<path d="M 1523.5,2136.1 L 1522.8,2110.8 1522.7,2085.5 1523.1,2060.3 1524.2,2035.5 1525.9,2011.1 1528.4,1987.3 1531.6,1964.1 1535.5,1941.7 1540.3,1920.2 1545.8,1899.7 1552.2,1880.2 1559.4,1861.8 1567.5,1844.7 1576.4,1828.8 1586.2,1814.3 1596.8,1801.1 1608.3,1789.3 1620.6,1779.0 1633.7,1770.1 1647.6,1762.8 1662.4,1756.9 1677.8,1752.6 1694.0,1749.8 1710.9,1748.4 1728.4,1748.5 1746.6,1750.1 1765.3,1753.1 1784.5,1757.5 1804.2,1763.3 1824.3,1770.3 1844.7,1778.5 1865.4,1787.9 1886.4,1798.3 1907.4,1809.7 1928.5,1822.0 1949.6,1835.2 1970.6,1849.0 1991.4,1863.4 2012.0,1878.2  " style="stroke-opacity: 1.000000; stroke-width: 5.0; stroke: rgb(251,106,74); fill: none"  />
<path d="M 1523.5,2136.1 L 1522.8,2111.3 1522.4,2086.7 1522.4,2062.3 1522.8,2038.4 1523.7,2015.1 1525.0,1992.5 1526.9,1970.7 1529.3,1949.9 1532.2,1930.2 1535.7,1911.7 1539.8,1894.5 1544.4,1878.6 1549.6,1864.2 1555.4,1851.3 1561.8,1840.0 1568.8,1830.2 1576.4,1822.2 1584.6,1815.8 1593.3,1811.2 1602.6,1808.2 1612.4,1807.0 1622.7,1807.5 1633.5,1809.8 1644.9,1813.7 1656.6,1819.3 1668.8,1826.5 1681.3,1835.3 1694.3,1845.6 1707.5,1857.4 1721.0,1870.5 1734.7,1885.0 1748.6,1900.6 1762.6,1917.3 1776.7,1935.1 1790.9,1953.6 1805.0,1973.0 1819.0,1992.9 1832.8,2013.3 1846.4,2034.0  " style="stroke-opacity: 1.000000; stroke-width: 5.0; stroke: rgb(251,106,74); fill: none"  />
<path d="M 1523.5,2136.1 L 1522.7,2111.6 1522.0,2087.3 1521.4,2063.4 1521.0,2039.9 1520.7,2017.2 1520.7,1995.3 1520.9,1974.3 1521.2,1954.4 1521.8,1935.8 1522.6,1918.4 1523.7,1902.5 1525.0,1888.0 1526.5,1875.2 1528.3,1864.0 1530.3,1854.5 1532.6,1846.7 1535.1,1840.8 1537.9,1836.6 1540.9,1834.4 1544.2,1833.9 1547.7,1835.4 1551.4,1838.7 1555.4,1843.8 1559.5,1850.7 1563.9,1859.4 1568.4,1869.8 1573.1,1881.9 1578.0,1895.5 1583.0,1910.7 1588.1,1927.3 1593.4,1945.2 1598.7,1964.4 1604.1,1984.6 1609.6,2005.9 1615.1,2027.9 1620.6,2050.7 1626.0,2074.0 1631.4,2097.7 1636.7,2121.6  " style="stroke-opacity: 1.000000; stroke-width: 5.0; stroke: rgb(251,106,74); fill: none"  />
<path d="M 1846.4,2034.0 L 1832.8,2013.3 1819.0,1992.9 1805.0,1973.0 1790.9,1953.6 1776.7,1935.1 1762.6,1917.3 1748.6,1900.6 1734.7,1885.0 1721.0,1870.5 1707.5,1857.4 1694.3,1845.6 1681.3,1835.3 1668.8,1826.5 1656.6,1819.3 1644.9,1813.7 1633.5,1809.8 1622.7,1807.5 1612.4,1807.0 1602.6,1808.2 1593.3,1811.2 1584.6,1815.8 1576.4,1822.2 1568.8,1830.2 1561.8,1840.0 1555.4,1851.3 1549.6,1864.2 1544.4,1878.6 1539.8,1894.5 1535.7,1911.7 1532.2,1930.2 1529.3,1949.9 1526.9,1970.7 1525.0,1992.5 1523.7,2015.1 1522.8,2038.4 1522.4,2062.3 1522.4,2086.7 1522.8,2111.3 1523.5,2136.1  " style="stroke-opacity: 1.000000; stroke-width: 5.0; stroke: rgb(251,106,74); fill: none"  />
<path d="M 1202.8,937.1 L 1214.9,959.4 1227.4,981.4 1240.3,1002.9 1253.6,1023.9 1267.3,1044.2 1281.3,1063.6 1295.6,1082.1 1310.2,1099.5 1325.1,1115.8 1340.2,1130.8 1355.4,1144.5 1370.8,1156.8 1386.4,1167.6 1402.0,1177.0 1417.8,1184.7 1433.6,1190.8 1449.4,1195.3 1465.2,1198.1 1481.0,1199.2 1496.7,1198.6 1512.4,1196.3 1528.0,1192.4 1543.4,1186.7 1558.7,1179.5 1573.8,1170.6 1588.8,1160.2 1603.5,1148.2 1617.9,1134.8 1632.1,1120.0 1646.1,1103.9 1659.7,1086.6 1672.9,1068.1 1685.9,1048.6 1698.4,1028.2 1710.5,1007.0 1722.3,985.1 1733.6,962.7 1744.4,939.8 1754.8,916.7  " style="stroke-opacity: 1.000000; stroke-width: 5.0; stroke: rgb(251,106,74); fill: none"  />
<path d="M 2133.5,1562.1 L 2109.0,1559.8 2084.6,1557.8 2060.6,1556.0 2037.0,1554.6 2014.1,1553.6 1991.9,1552.9 1970.6,1552.7 1950.3,1552.8 1931.2,1553.5 1913.2,1554.6 1896.7,1556.2 1881.5,1558.3 1867.9,1561.0 1855.8,1564.1 1845.3,1567.8 1836.5,1572.0 1829.4,1576.7 1824.1,1582.0 1820.5,1587.8 1818.7,1594.1 1818.7,1600.9 1820.5,1608.2 1824.0,1615.9 1829.3,1624.1 1836.2,1632.8 1844.9,1641.8 1855.1,1651.2 1866.9,1661.0 1880.1,1671.1 1894.7,1681.5 1910.7,1692.1 1927.8,1703.0 1946.1,1714.0 1965.3,1725.1 1985.3,1736.3 2006.1,1747.5 2027.5,1758.7 2049.2,1769.8 2071.3,1780.7  " style="stroke-opacity: 1.000000; stroke-width: 5.0; stroke: rgb(251,106,74); fill: none"  />
<path d="M 2133.5,1562.1 L 2106.5,1559.1 2079.4,1555.4 2052.4,1551.1 2025.4,1545.9 1998.5,1539.9 1972.0,1533.2 1945.7,1525.5 1919.8,1517.0 1894.5,1507.6 1869.6,1497.3 1845.4,1486.0 1821.8,1473.8 1798.9,1460.7 1776.8,1446.7 1755.5,1431.7 1735.1,1415.9 1715.5,1399.1 1696.9,1381.4 1679.2,1362.8 1662.5,1343.4 1646.8,1323.1 1632.1,1302.0 1618.4,1280.2 1605.8,1257.6 1594.2,1234.3 1583.6,1210.3 1574.1,1185.7 1565.6,1160.6 1558.1,1135.0 1551.6,1108.9 1546.1,1082.4 1541.6,1055.5 1538.0,1028.4 1535.2,1001.1 1533.4,973.7 1532.3,946.2 1532.0,918.8 1532.5,891.5 1533.6,864.4  " style="stroke-opacity: 1.000000; stroke-width: 5.0; stroke: rgb(251,106,74); fill: none"  />
<path d="M 2112.2,1674.2 L 2086.7,1666.6 2061.3,1658.3 2036.0,1649.4 2011.1,1639.7 1986.5,1629.2 1962.5,1618.1 1939.0,1606.2 1916.2,1593.5 1894.1,1580.0 1872.9,1565.8 1852.5,1550.9 1833.2,1535.2 1814.8,1518.7 1797.6,1501.5 1781.4,1483.6 1766.4,1465.0 1752.6,1445.7 1740.1,1425.7 1728.8,1405.0 1718.8,1383.8 1710.0,1362.0 1702.6,1339.6 1696.4,1316.6 1691.6,1293.2 1688.0,1269.4 1685.7,1245.1 1684.7,1220.5 1684.9,1195.5 1686.3,1170.3 1688.8,1144.9 1692.4,1119.3 1697.2,1093.7 1702.9,1068.0 1709.6,1042.3 1717.1,1016.7 1725.5,991.3 1734.7,966.1 1744.4,941.2 1754.8,916.7  " style="stroke-opacity: 1.000000; stroke-width: 5.0; stroke: rgb(251,106,74); fill: none"  />
<path d="M 1099.2,1994.5 L 1119.6,1969.4 1140.0,1944.3 1160.5,1919.2 1181.1,1894.2 1201.8,1869.1 1222.6,1844.1 1243.4,1819.0 1264.3,1794.0 1285.3,1769.0 1306.3,1744.1 1327.5,1719.2 1348.7,1694.3 1370.0,1669.4 1391.3,1644.6 1412.8,1619.8 1434.3,1595.1 1455.8,1570.4 1477.5,1545.8 1499.2,1521.2 1521.0,1496.7 1542.8,1472.2 1564.7,1447.8 1586.6,1423.5 1608.6,1399.2 1630.7,1375.0 1652.8,1350.8 1675.0,1326.7 1697.2,1302.7 1719.4,1278.8 1741.7,1254.9 1764.0,1231.1 1786.4,1207.4 1808.8,1183.7 1831.2,1160.2 1853.6,1136.7 1876.1,1113.2 1898.5,1089.9 1921.0,1066.6 1943.5,1043.4  " style="stroke-opacity: 1.000000; stroke-width: 5.0; stroke: rgb(251,106,74); fill: none"  />
<path d="M 1943.5,1043.4 L 1924.8,1063.1 1906.5,1083.4 1888.7,1104.2 1871.4,1125.6 1854.8,1147.5 1838.9,1169.8 1823.8,1192.6 1809.5,1215.8 1796.2,1239.4 1783.9,1263.3 1772.7,1287.6 1762.6,1312.1 1753.6,1336.9 1745.8,1361.9 1739.2,1387.0 1733.8,1412.4 1729.7,1437.8 1726.9,1463.4 1725.4,1489.0 1725.2,1514.6 1726.3,1540.2 1728.7,1565.8 1732.4,1591.3 1737.3,1616.7 1743.5,1642.0 1751.0,1667.1 1759.6,1692.0 1769.3,1716.7 1780.2,1741.1 1792.1,1765.2 1805.0,1789.0 1818.9,1812.5 1833.6,1835.5 1849.2,1858.1 1865.4,1880.2 1882.4,1901.9 1899.9,1923.0 1917.9,1943.6 1936.2,1963.5  " style="stroke-opacity: 1.000000; stroke-width: 5.0; stroke: rgb(251,106,74); fill: none"  />
<path d="M 1943.5,1043.4 L 1921.0,1066.6 1898.5,1089.9 1876.1,1113.2 1853.6,1136.7 1831.2,1160.2 1808.8,1183.7 1786.4,1207.4 1764.0,1231.1 1741.7,1254.9 1719.4,1278.8 1697.2,1302.7 1675.0,1326.7 1652.8,1350.8 1630.7,1375.0 1608.6,1399.2 1586.6,1423.5 1564.7,1447.8 1542.8,1472.2 1521.0,1496.7 1499.2,1521.2 1477.5,1545.8 1455.8,1570.4 1434.3,1595.1 1412.8,1619.8 1391.3,1644.6 1370.0,1669.4 1348.7,1694.3 1327.5,1719.2 1306.3,1744.1 1285.3,1769.0 1264.3,1794.0 1243.4,1819.0 1222.6,1844.1 1201.8,1869.1 1181.1,1894.2 1160.5,1919.2 1140.0,1944.3 1119.6,1969.4 1099.2,1994.5  " style="stroke-opacity: 1.000000; stroke-width: 5.0; stroke: rgb(251,106,74); fill: none"  />
<path d="M 1017.4,1915.0 L 1037.0,1898.4 1057.1,1882.4 1077.5,1866.8 1098.2,1852.0 1119.0,1838.0 1140.0,1824.9 1161.1,1812.7 1182.2,1801.6 1203.2,1791.7 1224.2,1783.0 1245.0,1775.6 1265.6,1769.6 1285.9,1764.9 1306.0,1761.7 1325.8,1759.9 1345.2,1759.6 1364.2,1760.9 1382.7,1763.7 1400.8,1768.0 1418.4,1773.9 1435.4,1781.3 1451.9,1790.2 1467.9,1800.6 1483.2,1812.4 1498.0,1825.7 1512.1,1840.3 1525.6,1856.3 1538.4,1873.5 1550.6,1891.9 1562.1,1911.5 1573.0,1932.0 1583.2,1953.6 1592.8,1975.9 1601.7,1999.0 1609.9,2022.8 1617.5,2047.1 1624.5,2071.7 1630.9,2096.6 1636.7,2121.6  " style="stroke-opacity: 1.000000; stroke-width: 5.0; stroke: rgb(251,106,74); fill: none"  />
<path d="M 1636.7,2121.6 L 1631.4,2097.7 1626.0,2074.0 1620.6,2050.7 1615.1,2027.9 1609.6,2005.9 1604.1,1984.6 1598.7,1964.4 1593.4,1945.2 1588.1,1927.3 1583.0,1910.7 1578.0,1895.5 1573.1,1881.9 1568.4,1869.8 1563.9,1859.4 1559.5,1850.7 1555.4,1843.8 1551.4,1838.7 1547.7,1835.4 1544.2,1833.9 1540.9,1834.4 1537.9,1836.6 1535.1,1840.8 1532.6,1846.7 1530.3,1854.5 1528.3,1864.0 1526.5,1875.2 1525.0,1888.0 1523.7,1902.5 1522.6,1918.4 1521.8,1935.8 1521.2,1954.4 1520.9,1974.3 1520.7,1995.3 1520.7,2017.2 1521.0,2039.9 1521.4,2063.4 1522.0,2087.3 1522.7,2111.6 1523.5,2136.1  " style="stroke-opacity: 1.000000; stroke-width: 5.0; stroke: rgb(251,106,74); fill: none"  />
<path d="M 1636.7,2121.6 L 1630.9,2096.6 1624.5,2071.7 1617.5,2047.1 1609.9,2022.8 1601.7,1999.0 1592.8,1975.9 1583.2,1953.6 1573.0,1932.0 1562.1,1911.5 1550.6,1891.9 1538.4,1873.5 1525.6,1856.3 1512.1,1840.3 1498.0,1825.7 1483.2,1812.4 1467.9,1800.6 1451.9,1790.2 1435.4,1781.3 1418.4,1773.9 1400.8,1768.0 1382.7,1763.7 1364.2,1760.9 1345.2,1759.6 1325.8,1759.9 1306.0,1761.7 1285.9,1764.9 1265.6,1769.6 1245.0,1775.6 1224.2,1783.0 1203.2,1791.7 1182.2,1801.6 1161.1,1812.7 1140.0,1824.9 1119.0,1838.0 1098.2,1852.0 1077.5,1866.8 1057.1,1882.4 1037.0,1898.4 1017.4,1915.0  " style="stroke-opacity: 1.000000; stroke-width: 5.0; stroke: rgb(251,106,74); fill: none"  />
</g>
<g id="track_0">
<path d="M 2071.3,1780.7 L 2049.3,1770.0 2027.4,1759.4 2005.7,1749.1 1984.5,1739.2 1963.8,1729.7 1943.8,1720.7 1924.6,1712.3 1906.3,1704.6 1889.0,1697.5 1872.9,1691.2 1857.9,1685.6 1844.2,1680.9 1831.8,1677.1 1820.8,1674.2 1811.3,1672.1 1803.3,1671.1 1796.9,1671.0 1792.0,1671.8 1788.6,1673.7 1786.9,1676.5 1786.8,1680.2 1788.3,1685.0 1791.4,1690.7 1796.0,1697.3 1802.2,1704.8 1809.8,1713.2 1818.9,1722.4 1829.4,1732.4 1841.2,1743.2 1854.3,1754.6 1868.5,1766.7 1883.8,1779.4 1900.1,1792.6 1917.3,1806.2 1935.2,1820.2 1953.8,1834.5 1972.9,1849.0 1992.3,1863.6 2012.0,1878.2  " style="stroke-opacity: 1.000000; stroke-width: 5.0; stroke: rgb(107,174,214); fill: none"  />
<path d="M 2071.3,1780.7 L 2049.1,1770.0 2027.1,1759.5 2005.2,1749.4 1983.6,1739.8 1962.5,1730.8 1941.9,1722.4 1922.1,1714.7 1903.0,1707.7 1884.9,1701.6 1867.7,1696.3 1851.6,1692.0 1836.7,1688.7 1823.0,1686.3 1810.6,1685.0 1799.5,1684.8 1789.7,1685.7 1781.5,1687.6 1774.6,1690.7 1769.2,1694.8 1765.3,1700.1 1762.9,1706.4 1762.0,1713.9 1762.6,1722.4 1764.7,1731.9 1768.1,1742.4 1773.0,1753.9 1779.3,1766.4 1786.9,1779.7 1795.7,1793.8 1805.8,1808.6 1817.0,1824.2 1829.2,1840.3 1842.4,1857.0 1856.5,1874.2 1871.4,1891.7 1886.9,1909.5 1903.0,1927.5 1919.4,1945.5 1936.2,1963.5  " style="stroke-opacity: 1.000000; stroke-width: 5.0; stroke: rgb(107,174,214); fill: none"  />
<path d="M 2071.3,1780.7 L 2049.0,1769.9 2026.6,1759.5 2004.4,1749.6 1982.4,1740.2 1960.7,1731.5 1939.5,1723.6 1918.9,1716.4 1898.9,1710.1 1879.7,1704.8 1861.4,1700.4 1844.0,1697.1 1827.7,1694.9 1812.4,1693.7 1798.2,1693.8 1785.3,1695.0 1773.5,1697.4 1763.1,1701.1 1753.9,1705.9 1746.1,1712.0 1739.7,1719.3 1734.6,1727.7 1730.8,1737.4 1728.5,1748.2 1727.5,1760.1 1727.8,1773.1 1729.4,1787.2 1732.3,1802.3 1736.5,1818.3 1741.8,1835.1 1748.3,1852.8 1755.9,1871.2 1764.5,1890.3 1774.1,1909.9 1784.5,1930.0 1795.7,1950.5 1807.6,1971.2 1820.1,1992.1 1833.1,2013.1 1846.4,2034.0  " style="stroke-opacity: 1.000000; stroke-width: 5.0; stroke: rgb(107,174,214); fill: none"  />
<path d="M 2071.3,1780.7 L 2048.7,1769.9 2026.1,1759.5 2003.4,1749.6 1980.9,1740.4 1958.6,1731.9 1936.6,1724.3 1915.1,1717.5 1894.2,1711.7 1873.8,1706.9 1854.2,1703.2 1835.4,1700.6 1817.4,1699.2 1800.3,1699.1 1784.3,1700.1 1769.2,1702.4 1755.2,1706.0 1742.4,1710.9 1730.7,1717.1 1720.1,1724.6 1710.8,1733.4 1702.7,1743.4 1695.8,1754.7 1690.1,1767.3 1685.7,1781.0 1682.5,1795.9 1680.5,1811.9 1679.6,1828.9 1679.9,1846.9 1681.4,1865.9 1683.9,1885.7 1687.4,1906.3 1691.9,1927.6 1697.4,1949.4 1703.7,1971.8 1710.8,1994.6 1718.6,2017.6 1727.1,2040.8 1736.1,2064.1 1745.5,2087.2  " style="stroke-opacity: 1.000000; stroke-width: 5.0; stroke: rgb(107,174,214); fill: none"  />
<path d="M 2071.3,1780.7 L 2048.4,1769.8 2025.4,1759.3 2002.3,1749.5 1979.2,1740.3 1956.2,1732.0 1933.4,1724.5 1911.0,1718.0 1888.9,1712.5 1867.3,1708.0 1846.3,1704.7 1825.9,1702.6 1806.2,1701.7 1787.3,1702.1 1769.1,1703.8 1751.9,1706.8 1735.5,1711.1 1720.1,1716.8 1705.6,1723.8 1692.2,1732.2 1679.8,1741.9 1668.5,1753.0 1658.2,1765.3 1649.0,1779.0 1640.9,1793.8 1633.9,1809.9 1627.9,1827.1 1623.1,1845.4 1619.2,1864.8 1616.4,1885.1 1614.6,1906.3 1613.8,1928.3 1613.9,1951.0 1614.9,1974.4 1616.8,1998.3 1619.4,2022.6 1622.8,2047.2 1626.9,2072.0 1631.5,2096.9 1636.7,2121.6  " style="stroke-opacity: 1.000000; stroke-width: 5.0; stroke: rgb(107,174,214); fill: none"  />
<path d="M 1533.6,864.4 L 1532.4,888.8 1531.3,913.1 1530.3,937.0 1529.5,960.5 1528.9,983.2 1528.5,1005.1 1528.4,1026.1 1528.4,1046.0 1528.7,1064.6 1529.2,1082.0 1530.0,1098.0 1531.1,1112.4 1532.4,1125.3 1534.0,1136.5 1535.9,1146.1 1538.1,1153.9 1540.5,1159.8 1543.2,1164.0 1546.2,1166.3 1549.5,1166.8 1553.0,1165.4 1556.8,1162.2 1560.8,1157.1 1565.1,1150.3 1569.6,1141.6 1574.3,1131.3 1579.2,1119.3 1584.2,1105.7 1589.5,1090.6 1594.9,1074.1 1600.4,1056.3 1606.1,1037.2 1611.8,1017.1 1617.6,995.9 1623.4,973.9 1629.3,951.3 1635.1,928.0 1640.9,904.4 1646.5,880.6  " style="stroke-opacity: 1.000000; stroke-width: 5.0; stroke: rgb(107,174,214); fill: none"  />
<path d="M 1533.6,864.4 L 1532.4,888.9 1531.5,913.4 1530.8,937.5 1530.5,961.1 1530.5,984.0 1530.8,1006.2 1531.5,1027.5 1532.6,1047.8 1534.1,1066.9 1536.0,1084.7 1538.4,1101.2 1541.2,1116.2 1544.4,1129.8 1548.1,1141.7 1552.2,1152.0 1556.8,1160.6 1561.9,1167.5 1567.4,1172.6 1573.3,1175.9 1579.7,1177.4 1586.5,1177.1 1593.7,1175.0 1601.3,1171.1 1609.2,1165.5 1617.5,1158.1 1626.2,1149.1 1635.2,1138.5 1644.4,1126.3 1653.9,1112.6 1663.6,1097.5 1673.5,1081.1 1683.6,1063.5 1693.7,1044.8 1704.0,1025.1 1714.3,1004.6 1724.5,983.3 1734.7,961.5 1744.8,939.2 1754.8,916.7  " style="stroke-opacity: 1.000000; stroke-width: 5.0; stroke: rgb(107,174,214); fill: none"  />
<path d="M 1533.6,864.4 L 1532.5,889.4 1531.8,914.3 1531.7,939.0 1532.1,963.3 1533.0,987.2 1534.6,1010.3 1536.9,1032.8 1539.8,1054.3 1543.4,1074.9 1547.7,1094.4 1552.7,1112.7 1558.5,1129.8 1565.0,1145.6 1572.3,1160.0 1580.3,1172.9 1589.1,1184.3 1598.7,1194.2 1609.0,1202.6 1620.0,1209.3 1631.7,1214.4 1644.2,1217.9 1657.3,1219.8 1671.0,1220.1 1685.4,1218.8 1700.3,1215.9 1715.8,1211.5 1731.8,1205.6 1748.3,1198.2 1765.2,1189.4 1782.4,1179.3 1799.9,1168.0 1817.7,1155.5 1835.7,1141.9 1853.8,1127.3 1871.9,1111.8 1890.1,1095.5 1908.1,1078.6 1925.9,1061.2 1943.5,1043.4  " style="stroke-opacity: 1.000000; stroke-width: 5.0; stroke: rgb(107,174,214); fill: none"  />
<path d="M 2012.0,1878.2 L 1992.3,1863.6 1972.9,1849.0 1953.8,1834.5 1935.2,1820.2 1917.3,1806.2 1900.1,1792.6 1883.8,1779.4 1868.5,1766.7 1854.3,1754.6 1841.2,1743.2 1829.4,1732.4 1818.9,1722.4 1809.8,1713.2 1802.2,1704.8 1796.0,1697.3 1791.4,1690.7 1788.3,1685.0 1786.8,1680.2 1786.9,1676.5 1788.6,1673.7 1792.0,1671.8 1796.9,1671.0 1803.3,1671.1 1811.3,1672.1 1820.8,1674.2 1831.8,1677.1 1844.2,1680.9 1857.9,1685.6 1872.9,1691.2 1889.0,1697.5 1906.3,1704.6 1924.6,1712.3 1943.8,1720.7 1963.8,1729.7 1984.5,1739.2 2005.7,1749.1 2027.4,1759.4 2049.3,1770.0 2071.3,1780.7  " style="stroke-opacity: 1.000000; stroke-width: 5.0; stroke: rgb(107,174,214); fill: none"  />
<path d="M 2012.0,1878.2 L 1992.2,1863.7 1972.6,1849.4 1953.1,1835.4 1934.0,1821.9 1915.4,1808.8 1897.3,1796.4 1879.9,1784.8 1863.3,1773.8 1847.5,1763.8 1832.7,1754.7 1819.0,1746.6 1806.3,1739.5 1794.8,1733.5 1784.6,1728.6 1775.6,1725.0 1767.9,1722.5 1761.6,1721.2 1756.6,1721.2 1753.0,1722.4 1750.8,1724.9 1750.0,1728.6 1750.7,1733.5 1752.7,1739.6 1756.0,1747.0 1760.8,1755.5 1766.8,1765.1 1774.1,1775.8 1782.6,1787.5 1792.3,1800.2 1803.1,1813.8 1815.0,1828.3 1827.8,1843.5 1841.4,1859.4 1855.9,1875.8 1871.0,1892.8 1886.8,1910.2 1902.9,1927.8 1919.5,1945.7 1936.2,1963.5  " style="stroke-opacity: 1.000000; stroke-width: 5.0; stroke: rgb(107,174,214); fill: none"  />
<path d="M 2012.0,1878.2 L 1991.7,1863.5 1971.3,1849.2 1950.7,1835.5 1930.2,1822.4 1909.8,1810.1 1889.6,1798.7 1869.6,1788.2 1850.0,1778.7 1830.9,1770.4 1812.2,1763.2 1794.2,1757.3 1776.7,1752.7 1760.0,1749.5 1744.0,1747.6 1728.7,1747.2 1714.3,1748.3 1700.8,1750.8 1688.2,1754.8 1676.5,1760.3 1665.8,1767.3 1656.0,1775.7 1647.2,1785.6 1639.4,1796.9 1632.6,1809.6 1626.7,1823.7 1621.9,1839.1 1618.0,1855.7 1615.1,1873.5 1613.1,1892.4 1612.0,1912.3 1611.8,1933.2 1612.5,1955.0 1614.0,1977.5 1616.2,2000.6 1619.1,2024.3 1622.7,2048.3 1626.8,2072.7 1631.6,2097.2 1636.7,2121.6  " style="stroke-opacity: 1.000000; stroke-width: 5.0; stroke: rgb(107,174,214); fill: none"  />
<path d="M 1646.5,880.6 L 1640.9,904.4 1635.1,928.0 1629.3,951.3 1623.4,973.9 1617.6,995.9 1611.8,1017.1 1606.1,1037.2 1600.4,1056.3 1594.9,1074.1 1589.5,1090.6 1584.2,1105.7 1579.2,1119.3 1574.3,1131.3 1569.6,1141.6 1565.1,1150.3 1560.8,1157.1 1556.8,1162.2 1553.0,1165.4 1549.5,1166.8 1546.2,1166.3 1543.2,1164.0 1540.5,1159.8 1538.1,1153.9 1535.9,1146.1 1534.0,1136.5 1532.4,1125.3 1531.1,1112.4 1530.0,1098.0 1529.2,1082.0 1528.7,1064.6 1528.4,1046.0 1528.4,1026.1 1528.5,1005.1 1528.9,983.2 1529.5,960.5 1530.3,937.0 1531.3,913.1 1532.4,888.8 1533.6,864.4  " style="stroke-opacity: 1.000000; stroke-width: 5.0; stroke: rgb(107,174,214); fill: none"  />
<path d="M 1646.5,880.6 L 1641.0,904.4 1635.5,928.1 1630.3,951.5 1625.4,974.4 1620.7,996.7 1616.4,1018.2 1612.5,1038.8 1609.0,1058.3 1606.0,1076.8 1603.4,1093.9 1601.4,1109.8 1599.8,1124.2 1598.8,1137.1 1598.4,1148.5 1598.5,1158.2 1599.3,1166.2 1600.6,1172.5 1602.5,1177.1 1605.1,1179.9 1608.2,1181.0 1611.9,1180.3 1616.2,1177.7 1621.1,1173.5 1626.5,1167.5 1632.4,1159.8 1638.9,1150.5 1645.9,1139.6 1653.3,1127.1 1661.2,1113.2 1669.4,1097.9 1678.1,1081.4 1687.0,1063.6 1696.2,1044.8 1705.7,1025.0 1715.4,1004.4 1725.2,983.2 1735.0,961.3 1744.9,939.1 1754.8,916.7  " style="stroke-opacity: 1.000000; stroke-width: 5.0; stroke: rgb(107,174,214); fill: none"  />
<path d="M 1936.2,1963.5 L 1919.4,1945.5 1903.0,1927.5 1886.9,1909.5 1871.4,1891.7 1856.5,1874.2 1842.4,1857.0 1829.2,1840.3 1817.0,1824.2 1805.8,1808.6 1795.7,1793.8 1786.9,1779.7 1779.3,1766.4 1773.0,1753.9 1768.1,1742.4 1764.7,1731.9 1762.6,1722.4 1762.0,1713.9 1762.9,1706.4 1765.3,1700.1 1769.2,1694.8 1774.6,1690.7 1781.5,1687.6 1789.7,1685.7 1799.5,1684.8 1810.6,1685.0 1823.0,1686.3 1836.7,1688.7 1851.6,1692.0 1867.7,1696.3 1884.9,1701.6 1903.0,1707.7 1922.1,1714.7 1941.9,1722.4 1962.5,1730.8 1983.6,1739.8 2005.2,1749.4 2027.1,1759.5 2049.1,1770.0 2071.3,1780.7  " style="stroke-opacity: 1.000000; stroke-width: 5.0; stroke: rgb(107,174,214); fill: none"  />
<path d="M 1936.2,1963.5 L 1919.5,1945.7 1902.9,1927.8 1886.8,1910.2 1871.0,1892.8 1855.9,1875.8 1841.4,1859.4 1827.8,1843.5 1815.0,1828.3 1803.1,1813.8 1792.3,1800.2 1782.6,1787.5 1774.1,1775.8 1766.8,1765.1 1760.8,1755.5 1756.0,1747.0 1752.7,1739.6 1750.7,1733.5 1750.0,1728.6 1750.8,1724.9 1753.0,1722.4 1756.6,1721.2 1761.6,1721.2 1767.9,1722.5 1775.6,1725.0 1784.6,1728.6 1794.8,1733.5 1806.3,1739.5 1819.0,1746.6 1832.7,1754.7 1847.5,1763.8 1863.3,1773.8 1879.9,1784.8 1897.3,1796.4 1915.4,1808.8 1934.0,1821.9 1953.1,1835.4 1972.6,1849.4 1992.2,1863.7 2012.0,1878.2  " style="stroke-opacity: 1.000000; stroke-width: 5.0; stroke: rgb(107,174,214); fill: none"  />
<path d="M 1936.2,1963.5 L 1919.4,1945.7 1902.6,1928.2 1886.0,1910.9 1869.6,1894.2 1853.5,1878.1 1838.0,1862.6 1822.9,1848.0 1808.5,1834.3 1794.8,1821.6 1781.9,1810.0 1769.8,1799.6 1758.6,1790.3 1748.4,1782.4 1739.2,1775.8 1731.0,1770.6 1723.9,1766.7 1717.9,1764.4 1713.0,1763.4 1709.2,1764.0 1706.6,1766.0 1705.2,1769.5 1704.9,1774.5 1705.8,1780.9 1707.8,1788.7 1711.0,1797.9 1715.2,1808.5 1720.5,1820.3 1726.8,1833.4 1734.0,1847.6 1742.2,1862.9 1751.3,1879.2 1761.2,1896.5 1771.8,1914.5 1783.1,1933.3 1794.9,1952.8 1807.3,1972.6 1820.1,1992.9 1833.2,2013.4 1846.4,2034.0  " style="stroke-opacity: 1.000000; stroke-width: 5.0; stroke: rgb(107,174,214); fill: none"  />
<path d="M 1936.2,1963.5 L 1919.3,1945.7 1902.3,1928.2 1885.3,1911.0 1868.5,1894.5 1851.9,1878.6 1835.6,1863.5 1819.7,1849.3 1804.3,1836.1 1789.5,1824.0 1775.3,1813.0 1761.7,1803.3 1748.9,1794.9 1736.9,1787.9 1725.7,1782.4 1715.4,1778.2 1706.0,1775.6 1697.6,1774.5 1690.1,1775.0 1683.6,1777.0 1678.1,1780.6 1673.6,1785.7 1670.2,1792.3 1667.7,1800.5 1666.3,1810.1 1665.9,1821.2 1666.4,1833.7 1667.9,1847.5 1670.3,1862.6 1673.7,1878.9 1677.9,1896.4 1682.9,1914.9 1688.6,1934.3 1695.1,1954.6 1702.3,1975.6 1710.0,1997.2 1718.3,2019.4 1727.0,2041.8 1736.1,2064.5 1745.5,2087.2  " style="stroke-opacity: 1.000000; stroke-width: 5.0; stroke: rgb(107,174,214); fill: none"  />
<path d="M 1936.2,1963.5 L 1919.1,1945.6 1901.8,1928.0 1884.5,1910.9 1867.2,1894.4 1850.0,1878.7 1832.9,1863.7 1816.1,1849.8 1799.7,1836.9 1783.6,1825.1 1768.0,1814.6 1752.9,1805.4 1738.3,1797.6 1724.4,1791.2 1711.1,1786.2 1698.5,1782.8 1686.7,1781.0 1675.7,1780.7 1665.4,1782.0 1655.9,1785.0 1647.3,1789.5 1639.6,1795.6 1632.7,1803.4 1626.7,1812.7 1621.5,1823.5 1617.3,1835.8 1613.9,1849.5 1611.3,1864.6 1609.6,1881.0 1608.6,1898.7 1608.5,1917.6 1609.2,1937.5 1610.5,1958.3 1612.6,1980.1 1615.3,2002.6 1618.6,2025.7 1622.4,2049.3 1626.8,2073.2 1631.6,2097.4 1636.7,2121.6  " style="stroke-opacity: 1.000000; stroke-width: 5.0; stroke: rgb(107,174,214); fill: none"  />
<path d="M 1754.8,916.7 L 1744.8,939.2 1734.7,961.5 1724.5,983.3 1714.3,1004.6 1704.0,1025.1 1693.7,1044.8 1683.6,1063.5 1673.5,1081.1 1663.6,1097.5 1653.9,1112.6 1644.4,1126.3 1635.2,1138.5 1626.2,1149.1 1617.5,1158.1 1609.2,1165.5 1601.3,1171.1 1593.7,1175.0 1586.5,1177.1 1579.7,1177.4 1573.3,1175.9 1567.4,1172.6 1561.9,1167.5 1556.8,1160.6 1552.2,1152.0 1548.1,1141.7 1544.4,1129.8 1541.2,1116.2 1538.4,1101.2 1536.0,1084.7 1534.1,1066.9 1532.6,1047.8 1531.5,1027.5 1530.8,1006.2 1530.5,984.0 1530.5,961.1 1530.8,937.5 1531.5,913.4 1532.4,888.9 1533.6,864.4  " style="stroke-opacity: 1.000000; stroke-width: 5.0; stroke: rgb(107,174,214); fill: none"  />
<path d="M 1754.8,916.7 L 1744.9,939.1 1735.0,961.3 1725.2,983.2 1715.4,1004.4 1705.7,1025.0 1696.2,1044.8 1687.0,1063.6 1678.1,1081.4 1669.4,1097.9 1661.2,1113.2 1653.3,1127.1 1645.9,1139.6 1638.9,1150.5 1632.4,1159.8 1626.5,1167.5 1621.1,1173.5 1616.2,1177.7 1611.9,1180.3 1608.2,1181.0 1605.1,1179.9 1602.5,1177.1 1600.6,1172.5 1599.3,1166.2 1598.5,1158.2 1598.4,1148.5 1598.8,1137.1 1599.8,1124.2 1601.4,1109.8 1603.4,1093.9 1606.0,1076.8 1609.0,1058.3 1612.5,1038.8 1616.4,1018.2 1620.7,996.7 1625.4,974.4 1630.3,951.5 1635.5,928.1 1641.0,904.4 1646.5,880.6  " style="stroke-opacity: 1.000000; stroke-width: 5.0; stroke: rgb(107,174,214); fill: none"  />
<path d="M 1754.8,916.7 L 1745.0,939.2 1735.5,961.5 1726.2,983.6 1717.2,1005.2 1708.7,1026.3 1700.6,1046.7 1693.1,1066.3 1686.1,1084.9 1679.9,1102.5 1674.3,1118.9 1669.4,1134.2 1665.3,1148.1 1662.0,1160.6 1659.6,1171.7 1658.0,1181.3 1657.3,1189.3 1657.5,1195.8 1658.5,1200.6 1660.5,1203.9 1663.4,1205.4 1667.2,1205.4 1671.9,1203.7 1677.4,1200.3 1683.8,1195.4 1691.0,1188.9 1699.1,1180.9 1707.9,1171.4 1717.4,1160.5 1727.6,1148.2 1738.5,1134.6 1749.9,1119.9 1761.9,1104.0 1774.4,1087.2 1787.2,1069.4 1800.4,1050.9 1813.8,1031.7 1827.4,1012.0 1841.1,991.9 1854.8,971.6  " style="stroke-opacity: 1.000000; stroke-width: 5.0; stroke: rgb(107,174,214); fill: none"  />
<path d="M 1754.8,916.7 L 1745.0,939.3 1735.6,961.8 1726.5,984.2 1717.9,1006.1 1709.8,1027.6 1702.3,1048.5 1695.5,1068.7 1689.4,1088.1 1684.1,1106.5 1679.6,1123.9 1676.1,1140.1 1673.4,1155.2 1671.7,1169.0 1670.9,1181.5 1671.2,1192.6 1672.5,1202.2 1674.8,1210.4 1678.1,1217.1 1682.5,1222.3 1688.0,1225.9 1694.4,1228.1 1701.9,1228.6 1710.4,1227.7 1719.8,1225.2 1730.2,1221.2 1741.4,1215.8 1753.6,1209.0 1766.5,1200.9 1780.2,1191.4 1794.6,1180.7 1809.6,1168.8 1825.2,1155.8 1841.3,1141.9 1857.8,1127.1 1874.7,1111.4 1891.8,1095.1 1909.0,1078.3 1926.3,1061.0 1943.5,1043.4  " style="stroke-opacity: 1.000000; stroke-width: 5.0; stroke: rgb(107,174,214); fill: none"  />
<path d="M 1523.5,2136.1 L 1522.6,2111.6 1521.5,2087.3 1520.3,2063.4 1519.0,2040.0 1517.5,2017.3 1515.9,1995.4 1514.2,1974.6 1512.4,1954.8 1510.4,1936.2 1508.3,1918.9 1506.1,1903.1 1503.8,1888.8 1501.3,1876.1 1498.7,1865.1 1495.9,1855.7 1493.1,1848.2 1490.1,1842.4 1487.0,1838.5 1483.9,1836.5 1480.6,1836.3 1477.2,1838.0 1473.7,1841.6 1470.2,1847.0 1466.5,1854.2 1462.8,1863.2 1459.1,1873.9 1455.3,1886.3 1451.4,1900.2 1447.6,1915.7 1443.6,1932.7 1439.7,1950.9 1435.8,1970.4 1431.9,1991.0 1428.1,2012.6 1424.2,2035.0 1420.4,2058.1 1416.7,2081.8 1413.1,2105.8 1409.6,2130.0  " style="stroke-opacity: 1.000000; stroke-width: 5.0; stroke: rgb(107,174,214); fill: none"  />
<path d="M 1523.5,2136.1 L 1522.5,2111.5 1521.2,2087.1 1519.7,2063.0 1518.0,2039.5 1515.9,2016.6 1513.6,1994.5 1511.0,1973.4 1508.1,1953.3 1504.9,1934.4 1501.4,1916.8 1497.5,1900.6 1493.4,1885.9 1489.0,1872.7 1484.2,1861.2 1479.2,1851.3 1473.8,1843.1 1468.2,1836.7 1462.2,1832.2 1456.0,1829.4 1449.5,1828.5 1442.8,1829.4 1435.8,1832.1 1428.6,1836.6 1421.2,1843.0 1413.6,1851.0 1405.8,1860.8 1397.8,1872.2 1389.7,1885.1 1381.5,1899.6 1373.1,1915.5 1364.7,1932.7 1356.3,1951.2 1347.9,1970.7 1339.4,1991.3 1331.0,2012.7 1322.7,2034.8 1314.5,2057.4 1306.4,2080.5 1298.5,2103.8  " style="stroke-opacity: 1.000000; stroke-width: 5.0; stroke: rgb(107,174,214); fill: none"  />
<path d="M 1523.5,2136.1 L 1522.4,2111.3 1521.0,2086.7 1519.2,2062.4 1517.0,2038.6 1514.4,2015.4 1511.4,1993.0 1507.9,1971.4 1504.0,1950.9 1499.6,1931.4 1494.8,1913.2 1489.5,1896.3 1483.7,1880.9 1477.4,1866.9 1470.7,1854.4 1463.4,1843.6 1455.8,1834.4 1447.6,1826.9 1439.0,1821.2 1430.0,1817.2 1420.5,1815.0 1410.6,1814.5 1400.3,1815.8 1389.7,1818.8 1378.7,1823.6 1367.4,1830.0 1355.8,1838.1 1343.9,1847.8 1331.8,1859.0 1319.5,1871.8 1307.0,1885.9 1294.4,1901.3 1281.7,1917.9 1268.9,1935.6 1256.2,1954.3 1243.4,1973.9 1230.8,1994.2 1218.3,2015.1 1206.0,2036.5 1194.0,2058.1  " style="stroke-opacity: 1.000000; stroke-width: 5.0; stroke: rgb(107,174,214); fill: none"  />
<path d="M 1523.5,2136.1 L 1522.3,2110.4 1520.4,2084.8 1518.0,2059.2 1514.8,2034.0 1510.9,2009.2 1506.3,1984.8 1500.9,1961.1 1494.7,1938.1 1487.7,1916.0 1479.8,1894.7 1471.1,1874.4 1461.5,1855.1 1451.1,1837.0 1439.8,1820.1 1427.7,1804.4 1414.7,1790.0 1400.9,1776.9 1386.2,1765.2 1370.8,1754.9 1354.5,1746.0 1337.5,1738.5 1319.8,1732.5 1301.3,1727.8 1282.2,1724.6 1262.4,1722.8 1242.1,1722.4 1221.2,1723.4 1199.9,1725.6 1178.1,1729.2 1155.9,1734.0 1133.4,1740.0 1110.7,1747.2 1087.8,1755.4 1064.8,1764.5 1041.8,1774.6 1018.8,1785.5 995.9,1797.1 973.3,1809.4 951.0,1822.1  " style="stroke-opacity: 1.000000; stroke-width: 5.0; stroke: rgb(107,174,214); fill: none"  />
<path d="M 1854.8,971.6 L 1841.1,991.9 1827.4,1012.0 1813.8,1031.7 1800.4,1050.9 1787.2,1069.4 1774.4,1087.2 1761.9,1104.0 1749.9,1119.9 1738.5,1134.6 1727.6,1148.2 1717.4,1160.5 1707.9,1171.4 1699.1,1180.9 1691.0,1188.9 1683.8,1195.4 1677.4,1200.3 1671.9,1203.7 1667.2,1205.4 1663.4,1205.4 1660.5,1203.9 1658.5,1200.6 1657.5,1195.8 1657.3,1189.3 1658.0,1181.3 1659.6,1171.7 1662.0,1160.6 1665.3,1148.1 1669.4,1134.2 1674.3,1118.9 1679.9,1102.5 1686.1,1084.9 1693.1,1066.3 1700.6,1046.7 1708.7,1026.3 1717.2,1005.2 1726.2,983.6 1735.5,961.5 1745.0,939.2 1754.8,916.7  " style="stroke-opacity: 1.000000; stroke-width: 5.0; stroke: rgb(107,174,214); fill: none"  />
<path d="M 1854.8,971.6 L 1841.2,991.9 1827.8,1012.2 1814.8,1032.3 1802.1,1052.0 1789.9,1071.2 1778.3,1089.8 1767.4,1107.7 1757.3,1124.8 1747.9,1141.0 1739.5,1156.2 1732.0,1170.3 1725.5,1183.2 1720.0,1195.0 1715.6,1205.4 1712.4,1214.6 1710.2,1222.4 1709.3,1228.8 1709.5,1233.7 1710.8,1237.3 1713.4,1239.3 1717.1,1240.0 1722.0,1239.1 1728.1,1236.8 1735.2,1233.1 1743.5,1228.0 1752.9,1221.6 1763.2,1213.8 1774.5,1204.8 1786.8,1194.5 1799.9,1183.1 1813.8,1170.6 1828.4,1157.2 1843.7,1142.8 1859.5,1127.6 1875.8,1111.7 1892.4,1095.2 1909.3,1078.3 1926.4,1061.0 1943.5,1043.4  " style="stroke-opacity: 1.000000; stroke-width: 5.0; stroke: rgb(107,174,214); fill: none"  />
<path d="M 1409.6,2130.0 L 1413.1,2105.8 1416.7,2081.8 1420.4,2058.1 1424.2,2035.0 1428.1,2012.6 1431.9,1991.0 1435.8,1970.4 1439.7,1950.9 1443.6,1932.7 1447.6,1915.7 1451.4,1900.2 1455.3,1886.3 1459.1,1873.9 1462.8,1863.2 1466.5,1854.2 1470.2,1847.0 1473.7,1841.6 1477.2,1838.0 1480.6,1836.3 1483.9,1836.5 1487.0,1838.5 1490.1,1842.4 1493.1,1848.2 1495.9,1855.7 1498.7,1865.1 1501.3,1876.1 1503.8,1888.8 1506.1,1903.1 1508.3,1918.9 1510.4,1936.2 1512.4,1954.8 1514.2,1974.6 1515.9,1995.4 1517.5,2017.3 1519.0,2040.0 1520.3,2063.4 1521.5,2087.3 1522.6,2111.6 1523.5,2136.1  " style="stroke-opacity: 1.000000; stroke-width: 5.0; stroke: rgb(107,174,214); fill: none"  />
<path d="M 1409.6,2130.0 L 1413.0,2105.8 1416.3,2081.7 1419.4,2058.0 1422.2,2034.7 1424.9,2012.1 1427.2,1990.3 1429.3,1969.5 1431.0,1949.7 1432.4,1931.0 1433.4,1913.7 1434.0,1897.7 1434.3,1883.2 1434.1,1870.3 1433.5,1858.9 1432.5,1849.3 1431.0,1841.3 1429.1,1835.2 1426.8,1830.8 1424.0,1828.2 1420.8,1827.4 1417.2,1828.5 1413.2,1831.4 1408.7,1836.1 1403.8,1842.5 1398.6,1850.7 1393.0,1860.6 1387.0,1872.1 1380.7,1885.1 1374.2,1899.7 1367.3,1915.6 1360.2,1932.9 1352.9,1951.4 1345.4,1971.0 1337.7,1991.5 1329.9,2012.9 1322.1,2035.0 1314.2,2057.6 1306.3,2080.6 1298.5,2103.8  " style="stroke-opacity: 1.000000; stroke-width: 5.0; stroke: rgb(107,174,214); fill: none"  />
<path d="M 1409.6,2130.0 L 1412.9,2105.7 1416.1,2081.5 1418.9,2057.5 1421.3,2034.0 1423.4,2011.1 1425.1,1989.0 1426.3,1967.7 1427.0,1947.5 1427.2,1928.3 1426.9,1910.4 1426.0,1893.7 1424.6,1878.5 1422.6,1864.8 1420.0,1852.5 1416.8,1841.9 1413.0,1832.9 1408.5,1825.6 1403.5,1820.1 1397.9,1816.3 1391.7,1814.2 1384.9,1813.9 1377.6,1815.3 1369.7,1818.5 1361.2,1823.4 1352.3,1829.9 1342.9,1838.1 1333.0,1847.9 1322.7,1859.3 1312.0,1872.0 1301.0,1886.2 1289.6,1901.6 1278.1,1918.3 1266.2,1936.0 1254.3,1954.7 1242.2,1974.2 1230.1,1994.5 1217.9,2015.3 1205.9,2036.6 1194.0,2058.1  " style="stroke-opacity: 1.000000; stroke-width: 5.0; stroke: rgb(107,174,214); fill: none"  />
<path d="M 1846.4,2034.0 L 1833.1,2013.1 1820.1,1992.1 1807.6,1971.2 1795.7,1950.5 1784.5,1930.0 1774.1,1909.9 1764.5,1890.3 1755.9,1871.2 1748.3,1852.8 1741.8,1835.1 1736.5,1818.3 1732.3,1802.3 1729.4,1787.2 1727.8,1773.1 1727.5,1760.1 1728.5,1748.2 1730.8,1737.4 1734.6,1727.7 1739.7,1719.3 1746.1,1712.0 1753.9,1705.9 1763.1,1701.1 1773.5,1697.4 1785.3,1695.0 1798.2,1693.8 1812.4,1693.7 1827.7,1694.9 1844.0,1697.1 1861.4,1700.4 1879.7,1704.8 1898.9,1710.1 1918.9,1716.4 1939.5,1723.6 1960.7,1731.5 1982.4,1740.2 2004.4,1749.6 2026.6,1759.5 2049.0,1769.9 2071.3,1780.7  " style="stroke-opacity: 1.000000; stroke-width: 5.0; stroke: rgb(107,174,214); fill: none"  />
<path d="M 1846.4,2034.0 L 1833.2,2013.4 1820.1,1992.9 1807.3,1972.6 1794.9,1952.8 1783.1,1933.3 1771.8,1914.5 1761.2,1896.5 1751.3,1879.2 1742.2,1862.9 1734.0,1847.6 1726.8,1833.4 1720.5,1820.3 1715.2,1808.5 1711.0,1797.9 1707.8,1788.7 1705.8,1780.9 1704.9,1774.5 1705.2,1769.5 1706.6,1766.0 1709.2,1764.0 1713.0,1763.4 1717.9,1764.4 1723.9,1766.7 1731.0,1770.6 1739.2,1775.8 1748.4,1782.4 1758.6,1790.3 1769.8,1799.6 1781.9,1810.0 1794.8,1821.6 1808.5,1834.3 1822.9,1848.0 1838.0,1862.6 1853.5,1878.1 1869.6,1894.2 1886.0,1910.9 1902.6,1928.2 1919.4,1945.7 1936.2,1963.5  " style="stroke-opacity: 1.000000; stroke-width: 5.0; stroke: rgb(107,174,214); fill: none"  />
<path d="M 1846.4,2034.0 L 1833.1,2013.5 1819.7,1993.2 1806.4,1973.2 1793.2,1953.8 1780.4,1935.1 1767.8,1917.1 1755.6,1900.1 1743.9,1884.0 1732.7,1869.1 1722.0,1855.4 1712.0,1842.9 1702.6,1831.8 1694.0,1822.2 1686.1,1814.1 1679.0,1807.5 1672.6,1802.4 1667.2,1799.0 1662.5,1797.2 1658.7,1797.1 1655.8,1798.7 1653.8,1801.8 1652.6,1806.7 1652.3,1813.1 1652.9,1821.2 1654.4,1830.8 1656.6,1841.9 1659.7,1854.5 1663.6,1868.5 1668.2,1883.8 1673.5,1900.3 1679.5,1918.0 1686.2,1936.7 1693.4,1956.4 1701.1,1976.9 1709.4,1998.1 1718.0,2019.9 1726.9,2042.1 1736.1,2064.6 1745.5,2087.2  " style="stroke-opacity: 1.000000; stroke-width: 5.0; stroke: rgb(107,174,214); fill: none"  />
<path d="M 1846.4,2034.0 L 1832.9,2013.4 1819.4,1993.1 1805.7,1973.2 1792.1,1953.9 1778.6,1935.3 1765.3,1917.6 1752.2,1900.7 1739.4,1885.0 1727.0,1870.4 1715.0,1857.1 1703.4,1845.2 1692.3,1834.7 1681.7,1825.6 1671.7,1818.1 1662.3,1812.2 1653.5,1808.0 1645.4,1805.4 1637.9,1804.5 1631.2,1805.3 1625.2,1807.9 1619.8,1812.1 1615.3,1818.0 1611.4,1825.6 1608.3,1834.8 1605.8,1845.7 1604.1,1858.0 1603.1,1871.9 1602.8,1887.2 1603.2,1903.9 1604.2,1921.8 1605.8,1940.9 1608.1,1961.0 1610.8,1982.1 1614.1,2004.1 1617.9,2026.8 1622.1,2050.0 1626.6,2073.7 1631.5,2097.6 1636.7,2121.6  " style="stroke-opacity: 1.000000; stroke-width: 5.0; stroke: rgb(107,174,214); fill: none"  />
<path d="M 1745.5,2087.2 L 1736.1,2064.1 1727.1,2040.8 1718.6,2017.6 1710.8,1994.6 1703.7,1971.8 1697.4,1949.4 1691.9,1927.6 1687.4,1906.3 1683.9,1885.7 1681.4,1865.9 1679.9,1846.9 1679.6,1828.9 1680.5,1811.9 1682.5,1795.9 1685.7,1781.0 1690.1,1767.3 1695.8,1754.7 1702.7,1743.4 1710.8,1733.4 1720.1,1724.6 1730.7,1717.1 1742.4,1710.9 1755.2,1706.0 1769.2,1702.4 1784.3,1700.1 1800.3,1699.1 1817.4,1699.2 1835.4,1700.6 1854.2,1703.2 1873.8,1706.9 1894.2,1711.7 1915.1,1717.5 1936.6,1724.3 1958.6,1731.9 1980.9,1740.4 2003.4,1749.6 2026.1,1759.5 2048.7,1769.9 2071.3,1780.7  " style="stroke-opacity: 1.000000; stroke-width: 5.0; stroke: rgb(107,174,214); fill: none"  />
<path d="M 1745.5,2087.2 L 1736.1,2064.5 1727.0,2041.8 1718.3,2019.4 1710.0,1997.2 1702.3,1975.6 1695.1,1954.6 1688.6,1934.3 1682.9,1914.9 1677.9,1896.4 1673.7,1878.9 1670.3,1862.6 1667.9,1847.5 1666.4,1833.7 1665.9,1821.2 1666.3,1810.1 1667.7,1800.5 1670.2,1792.3 1673.6,1785.7 1678.1,1780.6 1683.6,1777.0 1690.1,1775.0 1697.6,1774.5 1706.0,1775.6 1715.4,1778.2 1725.7,1782.4 1736.9,1787.9 1748.9,1794.9 1761.7,1803.3 1775.3,1813.0 1789.5,1824.0 1804.3,1836.1 1819.7,1849.3 1835.6,1863.5 1851.9,1878.6 1868.5,1894.5 1885.3,1911.0 1902.3,1928.2 1919.3,1945.7 1936.2,1963.5  " style="stroke-opacity: 1.000000; stroke-width: 5.0; stroke: rgb(107,174,214); fill: none"  />
<path d="M 1745.5,2087.2 L 1736.1,2064.6 1726.9,2042.1 1718.0,2019.9 1709.4,1998.1 1701.1,1976.9 1693.4,1956.4 1686.2,1936.7 1679.5,1918.0 1673.5,1900.3 1668.2,1883.8 1663.6,1868.5 1659.7,1854.5 1656.6,1841.9 1654.4,1830.8 1652.9,1821.2 1652.3,1813.1 1652.6,1806.7 1653.8,1801.8 1655.8,1798.7 1658.7,1797.1 1662.5,1797.2 1667.2,1799.0 1672.6,1802.4 1679.0,1807.5 1686.1,1814.1 1694.0,1822.2 1702.6,1831.8 1712.0,1842.9 1722.0,1855.4 1732.7,1869.1 1743.9,1884.0 1755.6,1900.1 1767.8,1917.1 1780.4,1935.1 1793.2,1953.8 1806.4,1973.2 1819.7,1993.2 1833.1,2013.5 1846.4,2034.0  " style="stroke-opacity: 1.000000; stroke-width: 5.0; stroke: rgb(107,174,214); fill: none"  />
<path d="M 1745.5,2087.2 L 1736.0,2064.7 1726.5,2042.3 1717.0,2020.4 1707.5,1998.9 1698.2,1978.2 1689.0,1958.3 1680.1,1939.3 1671.4,1921.4 1663.0,1904.7 1655.0,1889.3 1647.4,1875.3 1640.1,1862.7 1633.3,1851.7 1627.0,1842.2 1621.2,1834.5 1615.9,1828.4 1611.1,1824.1 1606.8,1821.5 1603.1,1820.7 1600.0,1821.7 1597.4,1824.5 1595.4,1829.0 1594.0,1835.3 1593.1,1843.3 1592.8,1853.1 1593.1,1864.4 1593.9,1877.3 1595.2,1891.8 1597.0,1907.6 1599.3,1924.9 1602.0,1943.3 1605.2,1963.0 1608.8,1983.6 1612.8,2005.2 1617.0,2027.5 1621.6,2050.5 1626.5,2073.9 1631.5,2097.7 1636.7,2121.6  " style="stroke-opacity: 1.000000; stroke-width: 5.0; stroke: rgb(107,174,214); fill: none"  />
<path d="M 1298.5,2103.8 L 1306.4,2080.5 1314.5,2057.4 1322.7,2034.8 1331.0,2012.7 1339.4,1991.3 1347.9,1970.7 1356.3,1951.2 1364.7,1932.7 1373.1,1915.5 1381.5,1899.6 1389.7,1885.1 1397.8,1872.2 1405.8,1860.8 1413.6,1851.0 1421.2,1843.0 1428.6,1836.6 1435.8,1832.1 1442.8,1829.4 1449.5,1828.5 1456.0,1829.4 1462.2,1832.2 1468.2,1836.7 1473.8,1843.1 1479.2,1851.3 1484.2,1861.2 1489.0,1872.7 1493.4,1885.9 1497.5,1900.6 1501.4,1916.8 1504.9,1934.4 1508.1,1953.3 1511.0,1973.4 1513.6,1994.5 1515.9,2016.6 1518.0,2039.5 1519.7,2063.0 1521.2,2087.1 1522.5,2111.5 1523.5,2136.1  " style="stroke-opacity: 1.000000; stroke-width: 5.0; stroke: rgb(107,174,214); fill: none"  />
<path d="M 1298.5,2103.8 L 1306.3,2080.6 1314.2,2057.6 1322.1,2035.0 1329.9,2012.9 1337.7,1991.5 1345.4,1971.0 1352.9,1951.4 1360.2,1932.9 1367.3,1915.6 1374.2,1899.7 1380.7,1885.1 1387.0,1872.1 1393.0,1860.6 1398.6,1850.7 1403.8,1842.5 1408.7,1836.1 1413.2,1831.4 1417.2,1828.5 1420.8,1827.4 1424.0,1828.2 1426.8,1830.8 1429.1,1835.2 1431.0,1841.3 1432.5,1849.3 1433.5,1858.9 1434.1,1870.3 1434.3,1883.2 1434.0,1897.7 1433.4,1913.7 1432.4,1931.0 1431.0,1949.7 1429.3,1969.5 1427.2,1990.3 1424.9,2012.1 1422.2,2034.7 1419.4,2058.0 1416.3,2081.7 1413.0,2105.8 1409.6,2130.0  " style="stroke-opacity: 1.000000; stroke-width: 5.0; stroke: rgb(107,174,214); fill: none"  />
<path d="M 1298.5,2103.8 L 1306.2,2080.5 1313.7,2057.4 1321.0,2034.6 1328.0,2012.2 1334.6,1990.5 1340.8,1969.5 1346.6,1949.3 1351.8,1930.1 1356.5,1912.0 1360.6,1895.2 1364.1,1879.6 1366.9,1865.3 1369.0,1852.6 1370.5,1841.3 1371.2,1831.6 1371.2,1823.5 1370.4,1817.1 1368.9,1812.4 1366.7,1809.3 1363.7,1808.0 1359.9,1808.4 1355.4,1810.5 1350.2,1814.4 1344.2,1819.8 1337.6,1826.9 1330.3,1835.7 1322.4,1845.9 1313.9,1857.6 1304.8,1870.8 1295.2,1885.3 1285.1,1901.0 1274.6,1917.9 1263.7,1935.8 1252.5,1954.6 1241.1,1974.3 1229.4,1994.6 1217.6,2015.4 1205.8,2036.7 1194.0,2058.1  " style="stroke-opacity: 1.000000; stroke-width: 5.0; stroke: rgb(107,174,214); fill: none"  />
<path d="M 1194.0,2058.1 L 1206.0,2036.5 1218.3,2015.1 1230.8,1994.2 1243.4,1973.9 1256.2,1954.3 1268.9,1935.6 1281.7,1917.9 1294.4,1901.3 1307.0,1885.9 1319.5,1871.8 1331.8,1859.0 1343.9,1847.8 1355.8,1838.1 1367.4,1830.0 1378.7,1823.6 1389.7,1818.8 1400.3,1815.8 1410.6,1814.5 1420.5,1815.0 1430.0,1817.2 1439.0,1821.2 1447.6,1826.9 1455.8,1834.4 1463.4,1843.6 1470.7,1854.4 1477.4,1866.9 1483.7,1880.9 1489.5,1896.3 1494.8,1913.2 1499.6,1931.4 1504.0,1950.9 1507.9,1971.4 1511.4,1993.0 1514.4,2015.4 1517.0,2038.6 1519.2,2062.4 1521.0,2086.7 1522.4,2111.3 1523.5,2136.1  " style="stroke-opacity: 1.000000; stroke-width: 5.0; stroke: rgb(107,174,214); fill: none"  />
<path d="M 1194.0,2058.1 L 1205.9,2036.6 1217.9,2015.3 1230.1,1994.5 1242.2,1974.2 1254.3,1954.7 1266.2,1936.0 1278.1,1918.3 1289.6,1901.6 1301.0,1886.2 1312.0,1872.0 1322.7,1859.3 1333.0,1847.9 1342.9,1838.1 1352.3,1829.9 1361.2,1823.4 1369.7,1818.5 1377.6,1815.3 1384.9,1813.9 1391.7,1814.2 1397.9,1816.3 1403.5,1820.1 1408.5,1825.6 1413.0,1832.9 1416.8,1841.9 1420.0,1852.5 1422.6,1864.8 1424.6,1878.5 1426.0,1893.7 1426.9,1910.4 1427.2,1928.3 1427.0,1947.5 1426.3,1967.7 1425.1,1989.0 1423.4,2011.1 1421.3,2034.0 1418.9,2057.5 1416.1,2081.5 1412.9,2105.7 1409.6,2130.0  " style="stroke-opacity: 1.000000; stroke-width: 5.0; stroke: rgb(107,174,214); fill: none"  />
<path d="M 1194.0,2058.1 L 1205.8,2036.7 1217.6,2015.4 1229.4,1994.6 1241.1,1974.3 1252.5,1954.6 1263.7,1935.8 1274.6,1917.9 1285.1,1901.0 1295.2,1885.3 1304.8,1870.8 1313.9,1857.6 1322.4,1845.9 1330.3,1835.7 1337.6,1826.9 1344.2,1819.8 1350.2,1814.4 1355.4,1810.5 1359.9,1808.4 1363.7,1808.0 1366.7,1809.3 1368.9,1812.4 1370.4,1817.1 1371.2,1823.5 1371.2,1831.6 1370.5,1841.3 1369.0,1852.6 1366.9,1865.3 1364.1,1879.6 1360.6,1895.2 1356.5,1912.0 1351.8,1930.1 1346.6,1949.3 1340.8,1969.5 1334.6,1990.5 1328.0,2012.2 1321.0,2034.6 1313.7,2057.4 1306.2,2080.5 1298.5,2103.8  " style="stroke-opacity: 1.000000; stroke-width: 5.0; stroke: rgb(107,174,214); fill: none"  />
<path d="M 1194.0,2058.1 L 1205.7,2036.3 1217.1,2014.4 1228.0,1992.7 1238.4,1971.1 1248.0,1949.8 1256.9,1929.0 1265.0,1908.7 1272.2,1889.1 1278.4,1870.2 1283.6,1852.1 1287.7,1834.8 1290.6,1818.6 1292.4,1803.4 1293.0,1789.2 1292.4,1776.2 1290.5,1764.4 1287.3,1753.8 1282.9,1744.4 1277.2,1736.4 1270.2,1729.6 1262.0,1724.1 1252.5,1720.0 1241.8,1717.1 1229.9,1715.6 1216.9,1715.3 1202.8,1716.3 1187.6,1718.5 1171.5,1722.0 1154.4,1726.5 1136.4,1732.2 1117.7,1739.0 1098.3,1746.7 1078.2,1755.4 1057.7,1764.9 1036.7,1775.2 1015.4,1786.2 994.0,1797.7 972.5,1809.7 951.0,1822.1  " style="stroke-opacity: 1.000000; stroke-width: 5.0; stroke: rgb(107,174,214); fill: none"  />
<path d="M 2114.9,1335.5 L 2091.2,1342.0 2067.6,1348.7 2044.5,1355.5 2022.0,1362.4 2000.1,1369.5 1979.1,1376.7 1959.1,1384.0 1940.2,1391.3 1922.5,1398.6 1906.1,1405.9 1891.1,1413.3 1877.7,1420.6 1865.8,1427.8 1855.6,1435.0 1847.1,1442.1 1840.4,1449.2 1835.4,1456.1 1832.2,1462.9 1830.9,1469.6 1831.5,1476.1 1833.8,1482.5 1838.1,1488.7 1844.1,1494.7 1851.9,1500.5 1861.4,1506.2 1872.7,1511.6 1885.6,1516.8 1900.0,1521.8 1916.0,1526.6 1933.3,1531.2 1952.0,1535.6 1971.8,1539.7 1992.8,1543.6 2014.7,1547.2 2037.4,1550.7 2060.8,1553.9 2084.7,1556.8 2109.0,1559.6 2133.5,1562.1  " style="stroke-opacity: 1.000000; stroke-width: 5.0; stroke: rgb(107,174,214); fill: none"  />
<path d="M 2133.5,1562.1 L 2109.0,1559.6 2084.7,1556.8 2060.8,1553.9 2037.4,1550.7 2014.7,1547.2 1992.8,1543.6 1971.8,1539.7 1952.0,1535.6 1933.3,1531.2 1916.0,1526.6 1900.0,1521.8 1885.6,1516.8 1872.7,1511.6 1861.4,1506.2 1851.9,1500.5 1844.1,1494.7 1838.1,1488.7 1833.8,1482.5 1831.5,1476.1 1830.9,1469.6 1832.2,1462.9 1835.4,1456.1 1840.4,1449.2 1847.1,1442.1 1855.6,1435.0 1865.8,1427.8 1877.7,1420.6 1891.1,1413.3 1906.1,1405.9 1922.5,1398.6 1940.2,1391.3 1959.1,1384.0 1979.1,1376.7 2000.1,1369.5 2022.0,1362.4 2044.5,1355.5 2067.6,1348.7 2091.2,1342.0 2114.9,1335.5  " style="stroke-opacity: 1.000000; stroke-width: 5.0; stroke: rgb(107,174,214); fill: none"  />
<path d="M 2133.5,1562.1 L 2109.1,1559.7 2084.9,1557.6 2061.0,1555.5 2037.7,1553.7 2015.0,1552.1 1993.1,1550.7 1972.2,1549.6 1952.3,1548.8 1933.6,1548.2 1916.3,1548.0 1900.3,1548.1 1885.8,1548.5 1872.9,1549.2 1861.6,1550.3 1852.0,1551.8 1844.1,1553.6 1838.0,1555.7 1833.7,1558.3 1831.3,1561.2 1830.6,1564.4 1831.9,1568.0 1834.9,1571.9 1839.8,1576.1 1846.5,1580.7 1854.9,1585.6 1865.0,1590.7 1876.8,1596.2 1890.1,1601.9 1904.9,1607.8 1921.2,1613.9 1938.7,1620.2 1957.5,1626.7 1977.4,1633.4 1998.3,1640.1 2020.0,1646.9 2042.4,1653.7 2065.3,1660.6 2088.7,1667.4 2112.2,1674.2  " style="stroke-opacity: 1.000000; stroke-width: 5.0; stroke: rgb(107,174,214); fill: none"  />
<path d="M 2112.2,1674.2 L 2088.7,1667.4 2065.3,1660.6 2042.4,1653.7 2020.0,1646.9 1998.3,1640.1 1977.4,1633.4 1957.5,1626.7 1938.7,1620.2 1921.2,1613.9 1904.9,1607.8 1890.1,1601.9 1876.8,1596.2 1865.0,1590.7 1854.9,1585.6 1846.5,1580.7 1839.8,1576.1 1834.9,1571.9 1831.9,1568.0 1830.6,1564.4 1831.3,1561.2 1833.7,1558.3 1838.0,1555.7 1844.1,1553.6 1852.0,1551.8 1861.6,1550.3 1872.9,1549.2 1885.8,1548.5 1900.3,1548.1 1916.3,1548.0 1933.6,1548.2 1952.3,1548.8 1972.2,1549.6 1993.1,1550.7 2015.0,1552.1 2037.7,1553.7 2061.0,1555.5 2084.9,1557.6 2109.1,1559.7 2133.5,1562.1  " style="stroke-opacity: 1.000000; stroke-width: 5.0; stroke: rgb(107,174,214); fill: none"  />
<path d="M 1943.5,1043.4 L 1925.9,1061.2 1908.1,1078.6 1890.1,1095.5 1871.9,1111.8 1853.8,1127.3 1835.7,1141.9 1817.7,1155.5 1799.9,1168.0 1782.4,1179.3 1765.2,1189.4 1748.3,1198.2 1731.8,1205.6 1715.8,1211.5 1700.3,1215.9 1685.4,1218.8 1671.0,1220.1 1657.3,1219.8 1644.2,1217.9 1631.7,1214.4 1620.0,1209.3 1609.0,1202.6 1598.7,1194.2 1589.1,1184.3 1580.3,1172.9 1572.3,1160.0 1565.0,1145.6 1558.5,1129.8 1552.7,1112.7 1547.7,1094.4 1543.4,1074.9 1539.8,1054.3 1536.9,1032.8 1534.6,1010.3 1533.0,987.2 1532.1,963.3 1531.7,939.0 1531.8,914.3 1532.5,889.4 1533.6,864.4  " style="stroke-opacity: 1.000000; stroke-width: 5.0; stroke: rgb(107,174,214); fill: none"  />
<path d="M 1943.5,1043.4 L 1926.3,1061.0 1909.0,1078.3 1891.8,1095.1 1874.7,1111.4 1857.8,1127.1 1841.3,1141.9 1825.2,1155.8 1809.6,1168.8 1794.6,1180.7 1780.2,1191.4 1766.5,1200.9 1753.6,1209.0 1741.4,1215.8 1730.2,1221.2 1719.8,1225.2 1710.4,1227.7 1701.9,1228.6 1694.4,1228.1 1688.0,1225.9 1682.5,1222.3 1678.1,1217.1 1674.8,1210.4 1672.5,1202.2 1671.2,1192.6 1670.9,1181.5 1671.7,1169.0 1673.4,1155.2 1676.1,1140.1 1679.6,1123.9 1684.1,1106.5 1689.4,1088.1 1695.5,1068.7 1702.3,1048.5 1709.8,1027.6 1717.9,1006.1 1726.5,984.2 1735.6,961.8 1745.0,939.3 1754.8,916.7  " style="stroke-opacity: 1.000000; stroke-width: 5.0; stroke: rgb(107,174,214); fill: none"  />
<path d="M 1943.5,1043.4 L 1926.4,1061.0 1909.3,1078.3 1892.4,1095.2 1875.8,1111.7 1859.5,1127.6 1843.7,1142.8 1828.4,1157.2 1813.8,1170.6 1799.9,1183.1 1786.8,1194.5 1774.5,1204.8 1763.2,1213.8 1752.9,1221.6 1743.5,1228.0 1735.2,1233.1 1728.1,1236.8 1722.0,1239.1 1717.1,1240.0 1713.4,1239.3 1710.8,1237.3 1709.5,1233.7 1709.3,1228.8 1710.2,1222.4 1712.4,1214.6 1715.6,1205.4 1720.0,1195.0 1725.5,1183.2 1732.0,1170.3 1739.5,1156.2 1747.9,1141.0 1757.3,1124.8 1767.4,1107.7 1778.3,1089.8 1789.9,1071.2 1802.1,1052.0 1814.8,1032.3 1827.8,1012.2 1841.2,991.9 1854.8,971.6  " style="stroke-opacity: 1.000000; stroke-width: 5.0; stroke: rgb(107,174,214); fill: none"  />
<path d="M 1636.7,2121.6 L 1631.5,2096.9 1626.9,2072.0 1622.8,2047.2 1619.4,2022.6 1616.8,1998.3 1614.9,1974.4 1613.9,1951.0 1613.8,1928.3 1614.6,1906.3 1616.4,1885.1 1619.2,1864.8 1623.1,1845.4 1627.9,1827.1 1633.9,1809.9 1640.9,1793.8 1649.0,1779.0 1658.2,1765.3 1668.5,1753.0 1679.8,1741.9 1692.2,1732.2 1705.6,1723.8 1720.1,1716.8 1735.5,1711.1 1751.9,1706.8 1769.1,1703.8 1787.3,1702.1 1806.2,1701.7 1825.9,1702.6 1846.3,1704.7 1867.3,1708.0 1888.9,1712.5 1911.0,1718.0 1933.4,1724.5 1956.2,1732.0 1979.2,1740.3 2002.3,1749.5 2025.4,1759.3 2048.4,1769.8 2071.3,1780.7  " style="stroke-opacity: 1.000000; stroke-width: 5.0; stroke: rgb(107,174,214); fill: none"  />
<path d="M 1636.7,2121.6 L 1631.6,2097.2 1626.8,2072.7 1622.7,2048.3 1619.1,2024.3 1616.2,2000.6 1614.0,1977.5 1612.5,1955.0 1611.8,1933.2 1612.0,1912.3 1613.1,1892.4 1615.1,1873.5 1618.0,1855.7 1621.9,1839.1 1626.7,1823.7 1632.6,1809.6 1639.4,1796.9 1647.2,1785.6 1656.0,1775.7 1665.8,1767.3 1676.5,1760.3 1688.2,1754.8 1700.8,1750.8 1714.3,1748.3 1728.7,1747.2 1744.0,1747.6 1760.0,1749.5 1776.7,1752.7 1794.2,1757.3 1812.2,1763.2 1830.9,1770.4 1850.0,1778.7 1869.6,1788.2 1889.6,1798.7 1909.8,1810.1 1930.2,1822.4 1950.7,1835.5 1971.3,1849.2 1991.7,1863.5 2012.0,1878.2  " style="stroke-opacity: 1.000000; stroke-width: 5.0; stroke: rgb(107,174,214); fill: none"  />
<path d="M 1636.7,2121.6 L 1631.6,2097.4 1626.8,2073.2 1622.4,2049.3 1618.6,2025.7 1615.3,2002.6 1612.6,1980.1 1610.5,1958.3 1609.2,1937.5 1608.5,1917.6 1608.6,1898.7 1609.6,1881.0 1611.3,1864.6 1613.9,1849.5 1617.3,1835.8 1621.5,1823.5 1626.7,1812.7 1632.7,1803.4 1639.6,1795.6 1647.3,1789.5 1655.9,1785.0 1665.4,1782.0 1675.7,1780.7 1686.7,1781.0 1698.5,1782.8 1711.1,1786.2 1724.4,1791.2 1738.3,1797.6 1752.9,1805.4 1768.0,1814.6 1783.6,1825.1 1799.7,1836.9 1816.1,1849.8 1832.9,1863.7 1850.0,1878.7 1867.2,1894.4 1884.5,1910.9 1901.8,1928.0 1919.1,1945.6 1936.2,1963.5  " style="stroke-opacity: 1.000000; stroke-width: 5.0; stroke: rgb(107,174,214); fill: none"  />
<path d="M 1636.7,2121.6 L 1631.5,2097.6 1626.6,2073.7 1622.1,2050.0 1617.9,2026.8 1614.1,2004.1 1610.8,1982.1 1608.1,1961.0 1605.8,1940.9 1604.2,1921.8 1603.2,1903.9 1602.8,1887.2 1603.1,1871.9 1604.1,1858.0 1605.8,1845.7 1608.3,1834.8 1611.4,1825.6 1615.3,1818.0 1619.8,1812.1 1625.2,1807.9 1631.2,1805.3 1637.9,1804.5 1645.4,1805.4 1653.5,1808.0 1662.3,1812.2 1671.7,1818.1 1681.7,1825.6 1692.3,1834.7 1703.4,1845.2 1715.0,1857.1 1727.0,1870.4 1739.4,1885.0 1752.2,1900.7 1765.3,1917.6 1778.6,1935.3 1792.1,1953.9 1805.7,1973.2 1819.4,1993.1 1832.9,2013.4 1846.4,2034.0  " style="stroke-opacity: 1.000000; stroke-width: 5.0; stroke: rgb(107,174,214); fill: none"  />
<path d="M 1636.7,2121.6 L 1631.5,2097.7 1626.5,2073.9 1621.6,2050.5 1617.0,2027.5 1612.8,2005.2 1608.8,1983.6 1605.2,1963.0 1602.0,1943.3 1599.3,1924.9 1597.0,1907.6 1595.2,1891.8 1593.9,1877.3 1593.1,1864.4 1592.8,1853.1 1593.1,1843.3 1594.0,1835.3 1595.4,1829.0 1597.4,1824.5 1600.0,1821.7 1603.1,1820.7 1606.8,1821.5 1611.1,1824.1 1615.9,1828.4 1621.2,1834.5 1627.0,1842.2 1633.3,1851.7 1640.1,1862.7 1647.4,1875.3 1655.0,1889.3 1663.0,1904.7 1671.4,1921.4 1680.1,1939.3 1689.0,1958.3 1698.2,1978.2 1707.5,1998.9 1717.0,2020.4 1726.5,2042.3 1736.0,2064.7 1745.5,2087.2  " style="stroke-opacity: 1.000000; stroke-width: 5.0; stroke: rgb(107,174,214); fill: none"  />
<path d="M 951.0,1822.1 L 973.3,1809.4 995.9,1797.1 1018.8,1785.5 1041.8,1774.6 1064.8,1764.5 1087.8,1755.4 1110.7,1747.2 1133.4,1740.0 1155.9,1734.0 1178.1,1729.2 1199.9,1725.6 1221.2,1723.4 1242.1,1722.4 1262.4,1722.8 1282.2,1724.6 1301.3,1727.8 1319.8,1732.5 1337.5,1738.5 1354.5,1746.0 1370.8,1754.9 1386.2,1765.2 1400.9,1776.9 1414.7,1790.0 1427.7,1804.4 1439.8,1820.1 1451.1,1837.0 1461.5,1855.1 1471.1,1874.4 1479.8,1894.7 1487.7,1916.0 1494.7,1938.1 1500.9,1961.1 1506.3,1984.8 1510.9,2009.2 1514.8,2034.0 1518.0,2059.2 1520.4,2084.8 1522.3,2110.4 1523.5,2136.1  " style="stroke-opacity: 1.000000; stroke-width: 5.0; stroke: rgb(107,174,214); fill: none"  />
<path d="M 951.0,1822.1 L 972.5,1809.7 994.0,1797.7 1015.4,1786.2 1036.7,1775.2 1057.7,1764.9 1078.2,1755.4 1098.3,1746.7 1117.7,1739.0 1136.4,1732.2 1154.4,1726.5 1171.5,1722.0 1187.6,1718.5 1202.8,1716.3 1216.9,1715.3 1229.9,1715.6 1241.8,1717.1 1252.5,1720.0 1262.0,1724.1 1270.2,1729.6 1277.2,1736.4 1282.9,1744.4 1287.3,1753.8 1290.5,1764.4 1292.4,1776.2 1293.0,1789.2 1292.4,1803.4 1290.6,1818.6 1287.7,1834.8 1283.6,1852.1 1278.4,1870.2 1272.2,1889.1 1265.0,1908.7 1256.9,1929.0 1248.0,1949.8 1238.4,1971.1 1228.0,1992.7 1217.1,2014.4 1205.7,2036.3 1194.0,2058.1  " style="stroke-opacity: 1.000000; stroke-width: 5.0; stroke: rgb(107,174,214); fill: none"  />
</g>
<defs>
<pattern id="vline" width="10" height="10" patternTransform="rotate(0 0 0)" patternUnits="userSpaceOnUse"><line x1="0" y1="0" x2="0" y2="10" style="stroke:black;stroke-width:5" /></pattern>
<pattern id="vline-sparse" width="10" height="10" patternTransform="rotate(0 0 0)" patternUnits="userSpaceOnUse"><line x1="0" y1="0" x2="0" y2="10" style="stroke:black;stroke-width:2" /></pattern>
<pattern id="checker" width="10" height="10" patternTransform="rotate(45 0 0)" patternUnits="userSpaceOnUse"><line x1="0" y1="0" x2="10" y2="0" style="stroke:black;stroke-width:5" /><line x1="0" y1="0" x2="0" y2="10" style="stroke:black;stroke-width:4" /></pattern>
<pattern id="hline-sparse" width="10" height="10" patternTransform="rotate(0 0 0)" patternUnits="userSpaceOnUse"><line x1="0" y1="0" x2="10" y2="0" style="stroke:black;stroke-width:2" /></pattern>
<pattern id="hline" width="10" height="10" patternTransform="rotate(0 0 0)" patternUnits="userSpaceOnUse"><line x1="0" y1="0" x2="10" y2="0" style="stroke:black;stroke-width:5" /></pattern>
<pattern id="checker" width="10" height="10" patternTransform="rotate(45 0 0)" patternUnits="userSpaceOnUse"><line x1="0" y1="0" x2="10" y2="0" style="stroke:black;stroke-width:2" /><line x1="0" y1="0" x2="0" y2="10" style="stroke:black;stroke-width:2" /></pattern>
</defs>
</svg>
