<?xml version="1.0" encoding="utf-8" standalone="no"?>
<!DOCTYPE svg PUBLIC "-//W3C//DTD SVG 1.1//EN" "http://www.w3.org/Graphics/SVG/1.1/DTD/svg11.dtd">
<svg width="3000px" height="3000px" version="1.1" xmlns="http://www.w3.org/2000/svg" xmlns:xlink="http://www.w3.org/1999/xlink">
<g id="bg">
<rect x="0" y="0" width="3000px" height="3000px" style="fill:rgb(255,255,255);"/>
</g>
<g id="ideograms">
<path d="M1500.000,830.000 A670.000,670.000 40.000 0,1 1570.620,833.732 L1579.053,754.178 A750.000,750.000 0.000 0,0 1500.000,750.000 Z" style="stroke-width:2.0;stroke:rgb(115,115,115);stroke-linecap:round;fill:rgb(153,204,255);" />
<text x="1568.0" y="677.8" font-size="65.0px" font-family="CMUBright-Roman" style="text-anchor:start;fill:rgb(0,0,0);" transform="rotate(273.0,1568.0,677.8)" >3-COC</text>
<path d="M1500.000,830.000 A670.000,670.000 40.000 0,1 1570.620,833.732 L1579.053,754.178 A750.000,750.000 0.000 0,0 1500.000,750.000 Z" style="stroke-width:2.0;stroke:rgb(115,115,115);stroke-linecap:round;fill:none;" />
<path d="M1619.633,840.767 A670.000,670.000 40.000 0,1 1688.452,857.049 L1710.954,780.279 A750.000,750.000 0.000 0,0 1633.918,762.053 Z" style="stroke-width:2.0;stroke:rgb(115,115,115);stroke-linecap:round;fill:rgb(153,204,255);" />
<text x="1713.2" y="703.0" font-size="65.0px" font-family="CMUBright-Roman" style="text-anchor:start;fill:rgb(0,0,0);" transform="rotate(283.3,1713.2,703.0)" >15-LVIIIb</text>
<path d="M1619.633,840.767 A670.000,670.000 40.000 0,1 1688.452,857.049 L1710.954,780.279 A750.000,750.000 0.000 0,0 1633.918,762.053 Z" style="stroke-width:2.0;stroke:rgb(115,115,115);stroke-linecap:round;fill:none;" />
<path d="M1735.421,872.723 A670.000,670.000 40.000 0,1 1800.227,901.031 L1836.075,829.512 A750.000,750.000 0.000 0,0 1763.531,797.824 Z" style="stroke-width:2.0;stroke:rgb(115,115,115);stroke-linecap:round;fill:rgb(153,204,255);" />
<text x="1852.5" y="754.1" font-size="65.0px" font-family="CMUBright-Roman" style="text-anchor:start;fill:rgb(0,0,0);" transform="rotate(293.6,1852.5,754.1)" >19-MTG</text>
<path d="M1735.421,872.723 A670.000,670.000 40.000 0,1 1800.227,901.031 L1836.075,829.512 A750.000,750.000 0.000 0,0 1763.531,797.824 Z" style="stroke-width:2.0;stroke:rgb(115,115,115);stroke-linecap:round;fill:none;" />
<path d="M1843.643,924.839 A670.000,670.000 40.000 0,1 1902.352,964.264 L1950.394,900.296 A750.000,750.000 0.000 0,0 1884.674,856.163 Z" style="stroke-width:2.0;stroke:rgb(115,115,115);stroke-linecap:round;fill:rgb(153,204,255);" />
<text x="1980.1" y="829.1" font-size="65.0px" font-family="CMUBright-Roman" style="text-anchor:start;fill:rgb(0,0,0);" transform="rotate(303.9,1980.1,829.1)" >22-ParG</text>
<path d="M1843.643,924.839 A670.000,670.000 40.000 0,1 1902.352,964.264 L1950.394,900.296 A750.000,750.000 0.000 0,0 1884.674,856.163 Z" style="stroke-width:2.0;stroke:rgb(115,115,115);stroke-linecap:round;fill:none;" />
<path d="M1940.819,995.442 A670.000,670.000 40.000 0,1 1991.546,1044.717 L2050.238,990.354 A750.000,750.000 0.000 0,0 1993.454,935.196 Z" style="stroke-width:2.0;stroke:rgb(115,115,115);stroke-linecap:round;fill:rgb(153,204,255);" />
<text x="2092.1" y="925.6" font-size="65.0px" font-family="CMUBright-Roman" style="text-anchor:start;fill:rgb(0,0,0);" transform="rotate(314.2,2092.1,925.6)" >33-SC</text>
<path d="M1940.819,995.442 A670.000,670.000 40.000 0,1 1991.546,1044.717 L2050.238,990.354 A750.000,750.000 0.000 0,0 1993.454,935.196 Z" style="stroke-width:2.0;stroke:rgb(115,115,115);stroke-linecap:round;fill:none;" />
<path d="M2023.827,1082.262 A670.000,670.000 40.000 0,1 2064.940,1139.802 L2132.396,1096.793 A750.000,750.000 0.000 0,0 2086.374,1032.383 Z" style="stroke-width:2.0;stroke:rgb(115,115,115);stroke-linecap:round;fill:rgb(153,204,255);" />
<text x="2185.2" y="1040.5" font-size="65.0px" font-family="CMUBright-Roman" style="text-anchor:start;fill:rgb(0,0,0);" transform="rotate(324.5,2185.2,1040.5)" >35-SG</text>
<path d="M2023.827,1082.262 A670.000,670.000 40.000 0,1 2064.940,1139.802 L2132.396,1096.793 A750.000,750.000 0.000 0,0 2086.374,1032.383 Z" style="stroke-width:2.0;stroke:rgb(115,115,115);stroke-linecap:round;fill:none;" />
<path d="M2089.999,1182.508 A670.000,670.000 40.000 0,1 2120.177,1246.465 L2194.228,1216.192 A750.000,750.000 0.000 0,0 2160.447,1144.599 Z" style="stroke-width:2.0;stroke:rgb(115,115,115);stroke-linecap:round;fill:rgb(116,196,118);" />
<text x="2256.2" y="1170.3" font-size="65.0px" font-family="CMUBright-Roman" style="text-anchor:start;fill:rgb(0,0,0);" transform="rotate(334.7,2256.2,1170.3)" >2-COC</text>
<path d="M2089.999,1182.508 A670.000,670.000 40.000 0,1 2120.177,1246.465 L2194.228,1216.192 A750.000,750.000 0.000 0,0 2160.447,1144.599 Z" style="stroke-width:2.0;stroke:rgb(115,115,115);stroke-linecap:round;fill:none;" />
<path d="M2137.208,1292.959 A670.000,670.000 40.000 0,1 2155.481,1361.276 L2233.748,1344.712 A750.000,750.000 0.000 0,0 2213.292,1268.237 Z" style="stroke-width:2.0;stroke:rgb(115,115,115);stroke-linecap:round;fill:rgb(116,196,118);" />
<text x="2303.0" y="1310.6" font-size="65.0px" font-family="CMUBright-Roman" style="text-anchor:start;fill:rgb(0,0,0);" transform="rotate(345.0,2303.0,1310.6)" >4-FOC</text>
<path d="M2137.208,1292.959 A670.000,670.000 40.000 0,1 2155.481,1361.276 L2233.748,1344.712 A750.000,750.000 0.000 0,0 2213.292,1268.237 Z" style="stroke-width:2.0;stroke:rgb(115,115,115);stroke-linecap:round;fill:none;" />
<path d="M2163.936,1410.064 A670.000,670.000 40.000 0,1 2169.718,1480.546 L2249.684,1478.223 A750.000,750.000 0.000 0,0 2243.212,1399.325 Z" style="stroke-width:2.0;stroke:rgb(115,115,115);stroke-linecap:round;fill:rgb(116,196,118);" />
<text x="2323.9" y="1457.0" font-size="65.0px" font-family="CMUBright-Roman" style="text-anchor:start;fill:rgb(0,0,0);" transform="rotate(355.3,2323.9,1457.0)" >6-IFG</text>
<path d="M2163.936,1410.064 A670.000,670.000 40.000 0,1 2169.718,1480.546 L2249.684,1478.223 A750.000,750.000 0.000 0,0 2243.212,1399.325 Z" style="stroke-width:2.0;stroke:rgb(115,115,115);stroke-linecap:round;fill:none;" />
<path d="M2169.325,1530.059 A670.000,670.000 40.000 0,1 2162.429,1600.441 L2241.524,1612.434 A750.000,750.000 0.000 0,0 2249.245,1533.649 Z" style="stroke-width:2.0;stroke:rgb(115,115,115);stroke-linecap:round;fill:rgb(116,196,118);" />
<text x="2318.4" y="1603.8" font-size="65.0px" font-family="CMUBright-Roman" style="text-anchor:start;fill:rgb(0,0,0);" transform="rotate(5.6,2318.4,1603.8)" >14-LIX</text>
<path d="M2169.325,1530.059 A670.000,670.000 40.000 0,1 2162.429,1600.441 L2241.524,1612.434 A750.000,750.000 0.000 0,0 2249.245,1533.649 Z" style="stroke-width:2.0;stroke:rgb(115,115,115);stroke-linecap:round;fill:none;" />
<path d="M2153.202,1649.089 A670.000,670.000 40.000 0,1 2133.849,1717.108 L2209.532,1743.032 A750.000,750.000 0.000 0,0 2231.196,1666.891 Z" style="stroke-width:2.0;stroke:rgb(115,115,115);stroke-linecap:round;fill:rgb(116,196,118);" />
<text x="2286.6" y="1748.8" font-size="65.0px" font-family="CMUBright-Roman" style="text-anchor:start;fill:rgb(0,0,0);" transform="rotate(15.9,2286.6,1748.8)" >23-PP</text>
<path d="M2153.202,1649.089 A670.000,670.000 40.000 0,1 2133.849,1717.108 L2209.532,1743.032 A750.000,750.000 0.000 0,0 2231.196,1666.891 Z" style="stroke-width:2.0;stroke:rgb(115,115,115);stroke-linecap:round;fill:none;" />
<path d="M2116.084,1763.327 A670.000,670.000 40.000 0,1 2084.896,1826.797 L2154.734,1865.818 A750.000,750.000 0.000 0,0 2189.646,1794.769 Z" style="stroke-width:2.0;stroke:rgb(115,115,115);stroke-linecap:round;fill:rgb(116,196,118);" />
<text x="2229.8" y="1884.8" font-size="65.0px" font-family="CMUBright-Roman" style="text-anchor:start;fill:rgb(0,0,0);" transform="rotate(26.2,2229.8,1884.8)" >24-PP</text>
<path d="M2116.084,1763.327 A670.000,670.000 40.000 0,1 2084.896,1826.797 L2154.734,1865.818 A750.000,750.000 0.000 0,0 2189.646,1794.769 Z" style="stroke-width:2.0;stroke:rgb(115,115,115);stroke-linecap:round;fill:none;" />
<path d="M2059.164,1869.101 A670.000,670.000 40.000 0,1 2017.145,1925.983 L2078.893,1976.846 A750.000,750.000 0.000 0,0 2125.930,1913.173 Z" style="stroke-width:2.0;stroke:rgb(115,115,115);stroke-linecap:round;fill:rgb(116,196,118);" />
<text x="2148.7" y="2009.7" font-size="65.0px" font-family="CMUBright-Roman" style="text-anchor:start;fill:rgb(0,0,0);" transform="rotate(36.5,2148.7,2009.7)" >26-PC</text>
<path d="M2059.164,1869.101 A670.000,670.000 40.000 0,1 2017.145,1925.983 L2078.893,1976.846 A750.000,750.000 0.000 0,0 2125.930,1913.173 Z" style="stroke-width:2.0;stroke:rgb(115,115,115);stroke-linecap:round;fill:none;" />
<path d="M1984.273,1963.012 A670.000,670.000 40.000 0,1 1932.772,2011.477 L1984.446,2072.549 A750.000,750.000 0.000 0,0 2042.096,2018.297 Z" style="stroke-width:2.0;stroke:rgb(115,115,115);stroke-linecap:round;fill:rgb(153,0,204);" />
<text x="2047.3" y="2117.3" font-size="65.0px" font-family="CMUBright-Roman" style="text-anchor:start;fill:rgb(0,0,0);" transform="rotate(46.7,2047.3,2117.3)" >1-AG</text>
<path d="M1984.273,1963.012 A670.000,670.000 40.000 0,1 1932.772,2011.477 L1984.446,2072.549 A750.000,750.000 0.000 0,0 2042.096,2018.297 Z" style="stroke-width:2.0;stroke:rgb(115,115,115);stroke-linecap:round;fill:none;" />
<path d="M1893.816,2042.041 A670.000,670.000 40.000 0,1 1834.489,2080.532 L1874.428,2149.849 A750.000,750.000 0.000 0,0 1940.839,2106.763 Z" style="stroke-width:2.0;stroke:rgb(115,115,115);stroke-linecap:round;fill:rgb(153,0,204);" />
<text x="1928.3" y="2205.1" font-size="65.0px" font-family="CMUBright-Roman" style="text-anchor:start;fill:rgb(0,0,0);" transform="rotate(57.0,1928.3,2205.1)" >7-IFG</text>
<path d="M1893.816,2042.041 A670.000,670.000 40.000 0,1 1834.489,2080.532 L1874.428,2149.849 A750.000,750.000 0.000 0,0 1940.839,2106.763 Z" style="stroke-width:2.0;stroke:rgb(115,115,115);stroke-linecap:round;fill:none;" />
<path d="M1790.702,2103.649 A670.000,670.000 40.000 0,1 1725.456,2130.928 L1752.376,2206.262 A750.000,750.000 0.000 0,0 1825.413,2175.727 Z" style="stroke-width:2.0;stroke:rgb(115,115,115);stroke-linecap:round;fill:rgb(153,0,204);" />
<text x="1796.0" y="2270.1" font-size="65.0px" font-family="CMUBright-Roman" style="text-anchor:start;fill:rgb(0,0,0);" transform="rotate(67.3,1796.0,2270.1)" >9-IPL</text>
<path d="M1790.702,2103.649 A670.000,670.000 40.000 0,1 1725.456,2130.928 L1752.376,2206.262 A750.000,750.000 0.000 0,0 1825.413,2175.727 Z" style="stroke-width:2.0;stroke:rgb(115,115,115);stroke-linecap:round;fill:none;" />
<path d="M1678.245,2145.855 A670.000,670.000 40.000 0,1 1609.176,2161.045 L1622.212,2239.976 A750.000,750.000 0.000 0,0 1699.528,2222.972 Z" style="stroke-width:2.0;stroke:rgb(115,115,115);stroke-linecap:round;fill:rgb(153,0,204);" />
<text x="1653.2" y="2310.7" font-size="65.0px" font-family="CMUBright-Roman" style="text-anchor:start;fill:rgb(0,0,0);" transform="rotate(77.6,1653.2,2310.7)" >12-LOC</text>
<path d="M1678.245,2145.855 A670.000,670.000 40.000 0,1 1609.176,2161.045 L1622.212,2239.976 A750.000,750.000 0.000 0,0 1699.528,2222.972 Z" style="stroke-width:2.0;stroke:rgb(115,115,115);stroke-linecap:round;fill:none;" />
<path d="M1560.058,2167.303 A670.000,670.000 40.000 0,1 1489.388,2169.916 L1488.121,2249.906 A750.000,750.000 0.000 0,0 1567.229,2246.981 Z" style="stroke-width:2.0;stroke:rgb(115,115,115);stroke-linecap:round;fill:rgb(153,0,204);" />
<text x="1506.0" y="2325.0" font-size="65.0px" font-family="CMUBright-Roman" style="text-anchor:start;fill:rgb(0,0,0);" transform="rotate(87.9,1506.0,2325.0)" >16-LG</text>
<path d="M1560.058,2167.303 A670.000,670.000 40.000 0,1 1489.388,2169.916 L1488.121,2249.906 A750.000,750.000 0.000 0,0 1567.229,2246.981 Z" style="stroke-width:2.0;stroke:rgb(115,115,115);stroke-linecap:round;fill:none;" />
<path d="M1439.942,2167.303 A670.000,670.000 40.000 0,1 1369.940,2157.255 L1354.411,2235.733 A750.000,750.000 0.000 0,0 1432.771,2246.981 Z" style="stroke-width:2.0;stroke:rgb(115,115,115);stroke-linecap:round;fill:rgb(153,0,204);" />
<text x="1407.1" y="2319.8" font-size="65.0px" font-family="CMUBright-Roman" style="text-anchor:end;fill:rgb(0,0,0);" transform="rotate(-81.8,1407.1,2319.8)" >17-MFG</text>
<path d="M1439.942,2167.303 A670.000,670.000 40.000 0,1 1369.940,2157.255 L1354.411,2235.733 A750.000,750.000 0.000 0,0 1432.771,2246.981 Z" style="stroke-width:2.0;stroke:rgb(115,115,115);stroke-linecap:round;fill:none;" />
<path d="M1321.755,2145.855 A670.000,670.000 40.000 0,1 1254.673,2123.470 L1225.380,2197.914 A750.000,750.000 0.000 0,0 1300.472,2222.972 Z" style="stroke-width:2.0;stroke:rgb(115,115,115);stroke-linecap:round;fill:rgb(153,0,204);" />
<text x="1262.2" y="2290.0" font-size="65.0px" font-family="CMUBright-Roman" style="text-anchor:end;fill:rgb(0,0,0);" transform="rotate(-71.5,1262.2,2290.0)" >20-OFG</text>
<path d="M1321.755,2145.855 A670.000,670.000 40.000 0,1 1254.673,2123.470 L1225.380,2197.914 A750.000,750.000 0.000 0,0 1300.472,2222.972 Z" style="stroke-width:2.0;stroke:rgb(115,115,115);stroke-linecap:round;fill:none;" />
<path d="M1209.298,2103.649 A670.000,670.000 40.000 0,1 1147.290,2069.645 L1105.176,2137.663 A750.000,750.000 0.000 0,0 1174.587,2175.727 Z" style="stroke-width:2.0;stroke:rgb(115,115,115);stroke-linecap:round;fill:rgb(153,0,204);" />
<text x="1125.0" y="2234.8" font-size="65.0px" font-family="CMUBright-Roman" style="text-anchor:end;fill:rgb(0,0,0);" transform="rotate(-61.3,1125.0,2234.8)" >25-PosG</text>
<path d="M1209.298,2103.649 A670.000,670.000 40.000 0,1 1147.290,2069.645 L1105.176,2137.663 A750.000,750.000 0.000 0,0 1174.587,2175.727 Z" style="stroke-width:2.0;stroke:rgb(115,115,115);stroke-linecap:round;fill:none;" />
<path d="M1106.184,2042.041 A670.000,670.000 40.000 0,1 1051.245,1997.512 L997.662,2056.917 A750.000,750.000 0.000 0,0 1059.161,2106.763 Z" style="stroke-width:2.0;stroke:rgb(115,115,115);stroke-linecap:round;fill:rgb(153,0,204);" />
<text x="999.8" y="2156.1" font-size="65.0px" font-family="CMUBright-Roman" style="text-anchor:end;fill:rgb(0,0,0);" transform="rotate(-51.0,999.8,2156.1)" >34-SG</text>
<path d="M1106.184,2042.041 A670.000,670.000 40.000 0,1 1051.245,1997.512 L997.662,2056.917 A750.000,750.000 0.000 0,0 1059.161,2106.763 Z" style="stroke-width:2.0;stroke:rgb(115,115,115);stroke-linecap:round;fill:none;" />
<path d="M1015.727,1963.012 A670.000,670.000 40.000 0,1 969.622,1909.389 L906.293,1958.271 A750.000,750.000 0.000 0,0 957.904,2018.297 Z" style="stroke-width:2.0;stroke:rgb(115,115,115);stroke-linecap:round;fill:rgb(253,208,162);" />
<text x="890.3" y="2055.8" font-size="65.0px" font-family="CMUBright-Roman" style="text-anchor:end;fill:rgb(0,0,0);" transform="rotate(-40.7,890.3,2055.8)" >5-FP</text>
<path d="M1015.727,1963.012 A670.000,670.000 40.000 0,1 969.622,1909.389 L906.293,1958.271 A750.000,750.000 0.000 0,0 957.904,2018.297 Z" style="stroke-width:2.0;stroke:rgb(115,115,115);stroke-linecap:round;fill:none;" />
<path d="M940.836,1869.101 A670.000,670.000 40.000 0,1 905.046,1808.107 L834.007,1844.896 A750.000,750.000 0.000 0,0 874.070,1913.173 Z" style="stroke-width:2.0;stroke:rgb(115,115,115);stroke-linecap:round;fill:rgb(253,208,162);" />
<text x="801.2" y="1938.5" font-size="65.0px" font-family="CMUBright-Roman" style="text-anchor:end;fill:rgb(0,0,0);" transform="rotate(-30.4,801.2,1938.5)" >8-IFG</text>
<path d="M940.836,1869.101 A670.000,670.000 40.000 0,1 905.046,1808.107 L834.007,1844.896 A750.000,750.000 0.000 0,0 874.070,1913.173 Z" style="stroke-width:2.0;stroke:rgb(115,115,115);stroke-linecap:round;fill:none;" />
<path d="M883.916,1763.327 A670.000,670.000 40.000 0,1 859.593,1696.922 L783.126,1720.436 A750.000,750.000 0.000 0,0 810.354,1794.769 Z" style="stroke-width:2.0;stroke:rgb(115,115,115);stroke-linecap:round;fill:rgb(253,208,162);" />
<text x="733.9" y="1806.2" font-size="65.0px" font-family="CMUBright-Roman" style="text-anchor:end;fill:rgb(0,0,0);" transform="rotate(-20.1,733.9,1806.2)" >10-IPL</text>
<path d="M883.916,1763.327 A670.000,670.000 40.000 0,1 859.593,1696.922 L783.126,1720.436 A750.000,750.000 0.000 0,0 810.354,1794.769 Z" style="stroke-width:2.0;stroke:rgb(115,115,115);stroke-linecap:round;fill:none;" />
<path d="M846.798,1649.089 A670.000,670.000 40.000 0,1 834.722,1579.409 L755.286,1588.890 A750.000,750.000 0.000 0,0 768.804,1666.891 Z" style="stroke-width:2.0;stroke:rgb(115,115,115);stroke-linecap:round;fill:rgb(253,208,162);" />
<text x="691.7" y="1665.0" font-size="65.0px" font-family="CMUBright-Roman" style="text-anchor:end;fill:rgb(0,0,0);" transform="rotate(-9.8,691.7,1665.0)" >21-OP</text>
<path d="M846.798,1649.089 A670.000,670.000 40.000 0,1 834.722,1579.409 L755.286,1588.890 A750.000,750.000 0.000 0,0 768.804,1666.891 Z" style="stroke-width:2.0;stroke:rgb(115,115,115);stroke-linecap:round;fill:none;" />
<path d="M830.675,1530.059 A670.000,670.000 40.000 0,1 831.235,1459.343 L751.382,1454.488 A750.000,750.000 0.000 0,0 750.755,1533.649 Z" style="stroke-width:2.0;stroke:rgb(115,115,115);stroke-linecap:round;fill:rgb(253,141,60);" />
<text x="675.2" y="1518.0" font-size="65.0px" font-family="CMUBright-Roman" style="text-anchor:end;fill:rgb(0,0,0);" transform="rotate(0.5,675.2,1518.0)" >11-ITG</text>
<path d="M830.675,1530.059 A670.000,670.000 40.000 0,1 831.235,1459.343 L751.382,1454.488 A750.000,750.000 0.000 0,0 750.755,1533.649 Z" style="stroke-width:2.0;stroke:rgb(115,115,115);stroke-linecap:round;fill:none;" />
<path d="M836.064,1410.064 A670.000,670.000 40.000 0,1 849.242,1340.583 L771.539,1321.549 A750.000,750.000 0.000 0,0 756.788,1399.325 Z" style="stroke-width:2.0;stroke:rgb(115,115,115);stroke-linecap:round;fill:rgb(253,141,60);" />
<text x="685.3" y="1369.9" font-size="65.0px" font-family="CMUBright-Roman" style="text-anchor:end;fill:rgb(0,0,0);" transform="rotate(10.7,685.3,1369.9)" >30-RH</text>
<path d="M836.064,1410.064 A670.000,670.000 40.000 0,1 849.242,1340.583 L771.539,1321.549 A750.000,750.000 0.000 0,0 756.788,1399.325 Z" style="stroke-width:2.0;stroke:rgb(115,115,115);stroke-linecap:round;fill:none;" />
<path d="M862.792,1292.959 A670.000,670.000 40.000 0,1 888.165,1226.948 L815.110,1194.345 A750.000,750.000 0.000 0,0 786.708,1268.237 Z" style="stroke-width:2.0;stroke:rgb(115,115,115);stroke-linecap:round;fill:rgb(253,141,60);" />
<text x="721.6" y="1226.5" font-size="65.0px" font-family="CMUBright-Roman" style="text-anchor:end;fill:rgb(0,0,0);" transform="rotate(21.0,721.6,1226.5)" >31-RLV</text>
<path d="M862.792,1292.959 A670.000,670.000 40.000 0,1 888.165,1226.948 L815.110,1194.345 A750.000,750.000 0.000 0,0 786.708,1268.237 Z" style="stroke-width:2.0;stroke:rgb(115,115,115);stroke-linecap:round;fill:none;" />
<path d="M910.001,1182.508 A670.000,670.000 40.000 0,1 946.752,1122.089 L880.693,1076.965 A750.000,750.000 0.000 0,0 839.553,1144.599 Z" style="stroke-width:2.0;stroke:rgb(115,115,115);stroke-linecap:round;fill:rgb(253,141,60);" />
<text x="783.0" y="1091.9" font-size="65.0px" font-family="CMUBright-Roman" style="text-anchor:end;fill:rgb(0,0,0);" transform="rotate(31.3,783.0,1091.9)" >32-RLV</text>
<path d="M910.001,1182.508 A670.000,670.000 40.000 0,1 946.752,1122.089 L880.693,1076.965 A750.000,750.000 0.000 0,0 839.553,1144.599 Z" style="stroke-width:2.0;stroke:rgb(115,115,115);stroke-linecap:round;fill:none;" />
<path d="M976.173,1082.262 A670.000,670.000 40.000 0,1 1023.122,1029.376 L966.181,973.182 A750.000,750.000 0.000 0,0 913.626,1032.383 Z" style="stroke-width:2.0;stroke:rgb(115,115,115);stroke-linecap:round;fill:rgb(66,146,198);" />
<text x="867.0" y="970.9" font-size="65.0px" font-family="CMUBright-Roman" style="text-anchor:end;fill:rgb(0,0,0);" transform="rotate(41.6,867.0,970.9)" >13-LCI</text>
<path d="M976.173,1082.262 A670.000,670.000 40.000 0,1 1023.122,1029.376 L966.181,973.182 A750.000,750.000 0.000 0,0 913.626,1032.383 Z" style="stroke-width:2.0;stroke:rgb(115,115,115);stroke-linecap:round;fill:none;" />
<path d="M1059.181,995.442 A670.000,670.000 40.000 0,1 1114.819,951.789 L1068.827,886.331 A750.000,750.000 0.000 0,0 1006.546,935.196 Z" style="stroke-width:2.0;stroke:rgb(115,115,115);stroke-linecap:round;fill:rgb(66,146,198);" />
<text x="971.7" y="866.3" font-size="65.0px" font-family="CMUBright-Roman" style="text-anchor:end;fill:rgb(0,0,0);" transform="rotate(51.9,971.7,866.3)" >18-MTG</text>
<path d="M1059.181,995.442 A670.000,670.000 40.000 0,1 1114.819,951.789 L1068.827,886.331 A750.000,750.000 0.000 0,0 1006.546,935.196 Z" style="stroke-width:2.0;stroke:rgb(115,115,115);stroke-linecap:round;fill:none;" />
<path d="M1156.357,924.839 A670.000,670.000 40.000 0,1 1218.896,891.822 L1185.331,819.204 A750.000,750.000 0.000 0,0 1115.326,856.163 Z" style="stroke-width:2.0;stroke:rgb(115,115,115);stroke-linecap:round;fill:rgb(66,146,198);" />
<text x="1093.3" y="782.2" font-size="65.0px" font-family="CMUBright-Roman" style="text-anchor:end;fill:rgb(0,0,0);" transform="rotate(62.2,1093.3,782.2)" >27-RCI</text>
<path d="M1156.357,924.839 A670.000,670.000 40.000 0,1 1218.896,891.822 L1185.331,819.204 A750.000,750.000 0.000 0,0 1115.326,856.163 Z" style="stroke-width:2.0;stroke:rgb(115,115,115);stroke-linecap:round;fill:none;" />
<path d="M1264.579,872.723 A670.000,670.000 40.000 0,1 1332.008,851.403 L1311.949,773.958 A750.000,750.000 0.000 0,0 1236.469,797.824 Z" style="stroke-width:2.0;stroke:rgb(115,115,115);stroke-linecap:round;fill:rgb(66,146,198);" />
<text x="1228.0" y="721.1" font-size="65.0px" font-family="CMUBright-Roman" style="text-anchor:end;fill:rgb(0,0,0);" transform="rotate(72.5,1228.0,721.1)" >28-RCI</text>
<path d="M1264.579,872.723 A670.000,670.000 40.000 0,1 1332.008,851.403 L1311.949,773.958 A750.000,750.000 0.000 0,0 1236.469,797.824 Z" style="stroke-width:2.0;stroke:rgb(115,115,115);stroke-linecap:round;fill:none;" />
<path d="M1380.367,840.767 A670.000,670.000 40.000 0,1 1450.519,831.830 L1444.611,752.048 A750.000,750.000 0.000 0,0 1366.082,762.053 Z" style="stroke-width:2.0;stroke:rgb(115,115,115);stroke-linecap:round;fill:rgb(66,146,198);" />
<text x="1371.5" y="685.1" font-size="65.0px" font-family="CMUBright-Roman" style="text-anchor:end;fill:rgb(0,0,0);" transform="rotate(82.7,1371.5,685.1)" >29-RCI</text>
<path d="M1380.367,840.767 A670.000,670.000 40.000 0,1 1450.519,831.830 L1444.611,752.048 A750.000,750.000 0.000 0,0 1366.082,762.053 Z" style="stroke-width:2.0;stroke:rgb(115,115,115);stroke-linecap:round;fill:none;" />
</g>
<g id="track_1">
<path d="M 951.0,1822.1 L 978.9,1805.8 1006.7,1789.3 1034.6,1772.8 1062.5,1756.2 1090.4,1739.5 1118.2,1722.7 1146.1,1705.9 1174.0,1689.0 1201.8,1672.0 1229.6,1654.9 1257.5,1637.7 1285.2,1620.5 1313.0,1603.2 1340.7,1585.8 1368.5,1568.3 1396.1,1550.7 1423.8,1533.1 1451.4,1515.4 1478.9,1497.6 1506.4,1479.8 1533.9,1461.9 1561.3,1443.9 1588.7,1425.8 1616.0,1407.7 1643.2,1389.5 1670.4,1371.3 1697.5,1353.0 1724.6,1334.6 1751.6,1316.2 1778.6,1297.8 1805.4,1279.3 1832.2,1260.7 1859.0,1242.1 1885.6,1223.5 1912.2,1204.9 1938.8,1186.2 1965.2,1167.5 1991.6,1148.7 2017.9,1130.0  " style="stroke-opacity: 1.000000; stroke-width: 5.0; stroke: rgb(251,106,74); fill: none"  />
<path d="M 1745.5,2087.2 L 1734.8,2062.3 1723.3,2037.6 1711.2,2013.0 1698.3,1988.7 1684.7,1964.8 1670.4,1941.4 1655.4,1918.5 1639.6,1896.3 1623.2,1874.8 1606.0,1854.1 1588.1,1834.2 1569.6,1815.3 1550.3,1797.3 1530.4,1780.3 1509.9,1764.3 1488.7,1749.4 1466.9,1735.7 1444.5,1723.1 1421.5,1711.6 1398.1,1701.4 1374.1,1692.3 1349.6,1684.5 1324.7,1677.8 1299.4,1672.4 1273.7,1668.1 1247.7,1665.1 1221.4,1663.2 1194.9,1662.5 1168.2,1662.8 1141.3,1664.3 1114.4,1666.9 1087.4,1670.4 1060.4,1674.9 1033.5,1680.3 1006.7,1686.6 980.2,1693.7 953.9,1701.5 927.9,1709.9 902.3,1718.9  " style="stroke-opacity: 1.000000; stroke-width: 5.0; stroke: rgb(251,106,74); fill: none"  />
<path d="M 1745.5,2087.2 L 1733.2,2058.1 1720.8,2028.9 1708.0,1999.7 1695.1,1970.4 1682.0,1941.1 1668.6,1911.8 1654.9,1882.5 1641.1,1853.2 1627.0,1824.0 1612.7,1794.7 1598.1,1765.5 1583.3,1736.4 1568.3,1707.4 1553.0,1678.4 1537.5,1649.5 1521.7,1620.6 1505.8,1591.9 1489.6,1563.3 1473.1,1534.8 1456.5,1506.5 1439.6,1478.2 1422.6,1450.1 1405.3,1422.2 1387.8,1394.4 1370.1,1366.7 1352.3,1339.3 1334.2,1312.0 1316.0,1284.8 1297.7,1257.9 1279.1,1231.1 1260.5,1204.6 1241.7,1178.2 1222.7,1152.0 1203.7,1126.0 1184.5,1100.2 1165.3,1074.7 1145.9,1049.3 1126.6,1024.2 1107.1,999.2  " style="stroke-opacity: 1.000000; stroke-width: 5.0; stroke: rgb(251,106,74); fill: none"  />
<path d="M 1745.5,2087.2 L 1733.0,2057.5 1720.5,2027.6 1707.8,1997.8 1695.1,1968.0 1682.3,1938.1 1669.5,1908.2 1656.5,1878.3 1643.5,1848.5 1630.4,1818.6 1617.2,1788.7 1603.9,1758.8 1590.6,1729.0 1577.1,1699.1 1563.6,1669.3 1550.0,1639.5 1536.3,1609.7 1522.6,1580.0 1508.7,1550.3 1494.8,1520.6 1480.8,1490.9 1466.7,1461.3 1452.6,1431.7 1438.4,1402.2 1424.1,1372.7 1409.7,1343.3 1395.3,1313.9 1380.8,1284.5 1366.3,1255.2 1351.7,1226.0 1337.0,1196.8 1322.3,1167.7 1307.5,1138.6 1292.7,1109.7 1277.8,1080.7 1262.9,1051.9 1247.9,1023.1 1232.9,994.4 1217.9,965.7 1202.8,937.1  " style="stroke-opacity: 1.000000; stroke-width: 5.0; stroke: rgb(251,106,74); fill: none"  />
<path d="M 1745.5,2087.2 L 1733.1,2057.4 1720.7,2027.5 1708.3,1997.6 1696.0,1967.6 1683.7,1937.5 1671.5,1907.4 1659.3,1877.2 1647.2,1846.9 1635.2,1816.6 1623.2,1786.2 1611.2,1755.8 1599.4,1725.3 1587.6,1694.8 1575.8,1664.2 1564.2,1633.6 1552.6,1602.9 1541.1,1572.2 1529.7,1541.5 1518.3,1510.8 1507.0,1480.0 1495.8,1449.2 1484.7,1418.3 1473.7,1387.4 1462.7,1356.6 1451.8,1325.7 1441.0,1294.7 1430.3,1263.8 1419.7,1232.9 1409.2,1202.0 1398.7,1171.0 1388.3,1140.1 1378.0,1109.2 1367.8,1078.2 1357.7,1047.3 1347.6,1016.4 1337.6,985.6 1327.7,954.7 1317.9,923.9 1308.1,893.1  " style="stroke-opacity: 1.000000; stroke-width: 5.0; stroke: rgb(251,106,74); fill: none"  />
<path d="M 902.3,1718.9 L 927.9,1709.9 953.9,1701.5 980.2,1693.7 1006.7,1686.6 1033.5,1680.3 1060.4,1674.9 1087.4,1670.4 1114.4,1666.9 1141.3,1664.3 1168.2,1662.8 1194.9,1662.5 1221.4,1663.2 1247.7,1665.1 1273.7,1668.1 1299.4,1672.4 1324.7,1677.8 1349.6,1684.5 1374.1,1692.3 1398.1,1701.4 1421.5,1711.6 1444.5,1723.1 1466.9,1735.7 1488.7,1749.4 1509.9,1764.3 1530.4,1780.3 1550.3,1797.3 1569.6,1815.3 1588.1,1834.2 1606.0,1854.1 1623.2,1874.8 1639.6,1896.3 1655.4,1918.5 1670.4,1941.4 1684.7,1964.8 1698.3,1988.7 1711.2,2013.0 1723.3,2037.6 1734.8,2062.3 1745.5,2087.2  " style="stroke-opacity: 1.000000; stroke-width: 5.0; stroke: rgb(251,106,74); fill: none"  />
<path d="M 902.3,1718.9 L 930.0,1708.5 957.8,1697.6 985.6,1686.1 1013.4,1674.0 1041.1,1661.4 1068.8,1648.1 1096.3,1634.3 1123.6,1619.8 1150.8,1604.8 1177.6,1589.1 1204.3,1572.8 1230.6,1555.9 1256.5,1538.4 1282.2,1520.3 1307.4,1501.6 1332.2,1482.3 1356.6,1462.4 1380.5,1441.9 1403.9,1420.9 1426.8,1399.3 1449.2,1377.2 1471.1,1354.5 1492.5,1331.4 1513.3,1307.8 1533.5,1283.8 1553.1,1259.3 1572.2,1234.5 1590.6,1209.2 1608.5,1183.6 1625.8,1157.8 1642.5,1131.6 1658.5,1105.2 1674.0,1078.6 1688.9,1051.8 1703.2,1024.9 1717.0,997.8 1730.1,970.8 1742.7,943.7 1754.8,916.7  " style="stroke-opacity: 1.000000; stroke-width: 5.0; stroke: rgb(251,106,74); fill: none"  />
<path d="M 902.3,1718.9 L 929.6,1709.2 957.3,1700.0 985.4,1691.2 1013.8,1683.0 1042.6,1675.3 1071.7,1668.3 1101.1,1661.9 1130.7,1656.2 1160.6,1651.3 1190.6,1647.1 1220.7,1643.7 1251.0,1641.1 1281.3,1639.3 1311.7,1638.4 1342.2,1638.3 1372.6,1639.1 1403.0,1640.7 1433.3,1643.3 1463.6,1646.7 1493.7,1651.1 1523.7,1656.3 1553.5,1662.4 1583.2,1669.3 1612.6,1677.1 1641.8,1685.7 1670.7,1695.2 1699.3,1705.4 1727.6,1716.4 1755.6,1728.2 1783.2,1740.6 1810.4,1753.8 1837.2,1767.6 1863.6,1781.9 1889.6,1796.9 1915.1,1812.3 1940.1,1828.2 1964.6,1844.6 1988.5,1861.2 2012.0,1878.2  " style="stroke-opacity: 1.000000; stroke-width: 5.0; stroke: rgb(251,106,74); fill: none"  />
<path d="M 1636.7,2121.6 L 1630.6,2095.2 1623.7,2068.8 1616.2,2042.4 1607.8,2016.2 1598.7,1990.3 1588.9,1964.7 1578.2,1939.5 1566.6,1914.9 1554.3,1890.8 1541.1,1867.3 1527.0,1844.6 1512.2,1822.6 1496.4,1801.5 1479.9,1781.2 1462.5,1761.8 1444.3,1743.4 1425.3,1726.0 1405.5,1709.6 1385.0,1694.2 1363.7,1679.9 1341.7,1666.7 1319.1,1654.6 1295.8,1643.6 1271.8,1633.8 1247.3,1625.0 1222.3,1617.4 1196.7,1610.8 1170.8,1605.4 1144.4,1601.0 1117.7,1597.6 1090.8,1595.3 1063.6,1594.0 1036.2,1593.6 1008.8,1594.1 981.4,1595.5 954.0,1597.7 926.7,1600.7 899.6,1604.4 872.8,1608.7  " style="stroke-opacity: 1.000000; stroke-width: 5.0; stroke: rgb(251,106,74); fill: none"  />
<path d="M 1636.7,2121.6 L 1629.8,2090.8 1622.8,2059.8 1615.5,2028.8 1608.0,1997.7 1600.3,1966.5 1592.3,1935.3 1584.2,1904.0 1575.8,1872.7 1567.1,1841.4 1558.2,1810.1 1549.1,1778.8 1539.7,1747.5 1530.1,1716.2 1520.3,1685.0 1510.2,1653.7 1499.8,1622.6 1489.3,1591.5 1478.4,1560.4 1467.3,1529.5 1456.0,1498.6 1444.5,1467.8 1432.7,1437.1 1420.7,1406.5 1408.5,1376.1 1396.0,1345.7 1383.4,1315.5 1370.5,1285.4 1357.4,1255.4 1344.1,1225.7 1330.7,1196.0 1317.1,1166.5 1303.3,1137.2 1289.3,1108.1 1275.2,1079.1 1261.0,1050.3 1246.6,1021.7 1232.1,993.3 1217.5,965.1 1202.8,937.1  " style="stroke-opacity: 1.000000; stroke-width: 5.0; stroke: rgb(251,106,74); fill: none"  />
<path d="M 1636.7,2121.6 L 1629.7,2090.1 1622.7,2058.5 1615.6,2026.9 1608.4,1995.3 1601.2,1963.6 1593.8,1931.9 1586.4,1900.2 1579.0,1868.5 1571.4,1836.7 1563.7,1805.0 1556.0,1773.2 1548.2,1741.5 1540.3,1709.7 1532.3,1678.0 1524.3,1646.2 1516.1,1614.5 1507.9,1582.7 1499.6,1551.0 1491.2,1519.3 1482.7,1487.6 1474.2,1456.0 1465.6,1424.4 1456.8,1392.8 1448.1,1361.2 1439.2,1329.7 1430.2,1298.2 1421.2,1266.7 1412.1,1235.3 1403.0,1203.9 1393.7,1172.6 1384.5,1141.3 1375.1,1110.1 1365.7,1078.9 1356.2,1047.8 1346.7,1016.7 1337.1,985.7 1327.5,954.8 1317.8,923.9 1308.1,893.1  " style="stroke-opacity: 1.000000; stroke-width: 5.0; stroke: rgb(251,106,74); fill: none"  />
<path d="M 1523.5,2136.1 L 1522.2,2109.5 1520.2,2082.8 1517.5,2056.2 1514.1,2029.6 1509.8,2003.3 1504.7,1977.3 1498.7,1951.6 1491.8,1926.5 1484.0,1901.8 1475.2,1877.8 1465.5,1854.5 1454.9,1832.0 1443.3,1810.2 1430.7,1789.4 1417.1,1769.4 1402.6,1750.4 1387.1,1732.4 1370.7,1715.5 1353.3,1699.6 1335.1,1684.8 1315.9,1671.1 1296.0,1658.6 1275.2,1647.2 1253.6,1636.9 1231.2,1627.7 1208.2,1619.7 1184.6,1612.9 1160.3,1607.1 1135.5,1602.5 1110.2,1598.9 1084.5,1596.3 1058.4,1594.8 1032.1,1594.3 1005.6,1594.7 978.9,1595.9 952.2,1598.0 925.6,1600.9 899.1,1604.5 872.8,1608.7  " style="stroke-opacity: 1.000000; stroke-width: 5.0; stroke: rgb(251,106,74); fill: none"  />
<path d="M 1409.6,2130.0 L 1413.5,2100.7 1417.1,2071.1 1420.1,2041.2 1422.7,2011.0 1424.7,1980.6 1426.1,1949.9 1427.0,1919.1 1427.2,1888.2 1426.8,1857.2 1425.7,1826.1 1424.0,1794.9 1421.6,1763.8 1418.5,1732.6 1414.6,1701.4 1410.1,1670.4 1404.9,1639.4 1398.9,1608.5 1392.2,1577.7 1384.8,1547.1 1376.6,1516.7 1367.8,1486.5 1358.2,1456.5 1348.0,1426.7 1337.1,1397.3 1325.5,1368.1 1313.2,1339.2 1300.4,1310.6 1286.9,1282.4 1272.8,1254.5 1258.2,1227.1 1243.1,1200.0 1227.5,1173.3 1211.4,1147.0 1194.8,1121.2 1177.9,1095.9 1160.6,1071.0 1143.0,1046.6 1125.2,1022.6 1107.1,999.2  " style="stroke-opacity: 1.000000; stroke-width: 5.0; stroke: rgb(251,106,74); fill: none"  />
<path d="M 1409.6,2130.0 L 1413.0,2104.1 1415.7,2078.1 1417.8,2052.0 1419.1,2025.9 1419.6,2000.1 1419.3,1974.4 1418.0,1949.1 1415.7,1924.3 1412.5,1900.0 1408.2,1876.2 1402.9,1853.1 1396.6,1830.8 1389.1,1809.2 1380.5,1788.5 1370.9,1768.7 1360.1,1749.8 1348.2,1732.0 1335.2,1715.1 1321.1,1699.3 1306.0,1684.6 1289.8,1671.0 1272.5,1658.5 1254.3,1647.1 1235.2,1636.9 1215.1,1627.8 1194.1,1619.8 1172.4,1613.0 1149.8,1607.3 1126.6,1602.6 1102.7,1599.1 1078.3,1596.5 1053.4,1595.0 1028.1,1594.5 1002.5,1594.9 976.6,1596.1 950.6,1598.2 924.6,1601.0 898.6,1604.5 872.8,1608.7  " style="stroke-opacity: 1.000000; stroke-width: 5.0; stroke: rgb(251,106,74); fill: none"  />
<path d="M 1107.1,999.2 L 1126.6,1024.2 1145.9,1049.3 1165.3,1074.7 1184.5,1100.2 1203.7,1126.0 1222.7,1152.0 1241.7,1178.2 1260.5,1204.6 1279.1,1231.1 1297.7,1257.9 1316.0,1284.8 1334.2,1312.0 1352.3,1339.3 1370.1,1366.7 1387.8,1394.4 1405.3,1422.2 1422.6,1450.1 1439.6,1478.2 1456.5,1506.5 1473.1,1534.8 1489.6,1563.3 1505.8,1591.9 1521.7,1620.6 1537.5,1649.5 1553.0,1678.4 1568.3,1707.4 1583.3,1736.4 1598.1,1765.5 1612.7,1794.7 1627.0,1824.0 1641.1,1853.2 1654.9,1882.5 1668.6,1911.8 1682.0,1941.1 1695.1,1970.4 1708.0,1999.7 1720.8,2028.9 1733.2,2058.1 1745.5,2087.2  " style="stroke-opacity: 1.000000; stroke-width: 5.0; stroke: rgb(251,106,74); fill: none"  />
<path d="M 1107.1,999.2 L 1125.2,1022.6 1143.0,1046.6 1160.6,1071.0 1177.9,1095.9 1194.8,1121.2 1211.4,1147.0 1227.5,1173.3 1243.1,1200.0 1258.2,1227.1 1272.8,1254.5 1286.9,1282.4 1300.4,1310.6 1313.2,1339.2 1325.5,1368.1 1337.1,1397.3 1348.0,1426.7 1358.2,1456.5 1367.8,1486.5 1376.6,1516.7 1384.8,1547.1 1392.2,1577.7 1398.9,1608.5 1404.9,1639.4 1410.1,1670.4 1414.6,1701.4 1418.5,1732.6 1421.6,1763.8 1424.0,1794.9 1425.7,1826.1 1426.8,1857.2 1427.2,1888.2 1427.0,1919.1 1426.1,1949.9 1424.7,1980.6 1422.7,2011.0 1420.1,2041.2 1417.1,2071.1 1413.5,2100.7 1409.6,2130.0  " style="stroke-opacity: 1.000000; stroke-width: 5.0; stroke: rgb(251,106,74); fill: none"  />
<path d="M 1107.1,999.2 L 1123.9,1021.2 1140.4,1043.8 1156.4,1066.9 1171.8,1090.5 1186.6,1114.6 1200.8,1139.1 1214.1,1164.1 1226.7,1189.4 1238.4,1215.1 1249.1,1241.2 1258.9,1267.5 1267.7,1294.0 1275.5,1320.8 1282.1,1347.8 1287.7,1375.0 1292.1,1402.3 1295.4,1429.7 1297.5,1457.1 1298.5,1484.6 1298.3,1512.2 1296.9,1539.6 1294.3,1567.1 1290.6,1594.4 1285.7,1621.6 1279.7,1648.7 1272.7,1675.6 1264.5,1702.2 1255.3,1728.7 1245.1,1754.8 1233.9,1780.7 1221.8,1806.2 1208.9,1831.3 1195.1,1856.1 1180.6,1880.4 1165.4,1904.3 1149.6,1927.6 1133.2,1950.5 1116.4,1972.8 1099.2,1994.5  " style="stroke-opacity: 1.000000; stroke-width: 5.0; stroke: rgb(251,106,74); fill: none"  />
<path d="M 1754.8,916.7 L 1742.7,943.7 1730.1,970.8 1717.0,997.8 1703.2,1024.9 1688.9,1051.8 1674.0,1078.6 1658.5,1105.2 1642.5,1131.6 1625.8,1157.8 1608.5,1183.6 1590.6,1209.2 1572.2,1234.5 1553.1,1259.3 1533.5,1283.8 1513.3,1307.8 1492.5,1331.4 1471.1,1354.5 1449.2,1377.2 1426.8,1399.3 1403.9,1420.9 1380.5,1441.9 1356.6,1462.4 1332.2,1482.3 1307.4,1501.6 1282.2,1520.3 1256.5,1538.4 1230.6,1555.9 1204.3,1572.8 1177.6,1589.1 1150.8,1604.8 1123.6,1619.8 1096.3,1634.3 1068.8,1648.1 1041.1,1661.4 1013.4,1674.0 985.6,1686.1 957.8,1697.6 930.0,1708.5 902.3,1718.9  " style="stroke-opacity: 1.000000; stroke-width: 5.0; stroke: rgb(251,106,74); fill: none"  />
<path d="M 872.8,1608.7 L 899.6,1604.4 926.7,1600.7 954.0,1597.7 981.4,1595.5 1008.8,1594.1 1036.2,1593.6 1063.6,1594.0 1090.8,1595.3 1117.7,1597.6 1144.4,1601.0 1170.8,1605.4 1196.7,1610.8 1222.3,1617.4 1247.3,1625.0 1271.8,1633.8 1295.8,1643.6 1319.1,1654.6 1341.7,1666.7 1363.7,1679.9 1385.0,1694.2 1405.5,1709.6 1425.3,1726.0 1444.3,1743.4 1462.5,1761.8 1479.9,1781.2 1496.4,1801.5 1512.2,1822.6 1527.0,1844.6 1541.1,1867.3 1554.3,1890.8 1566.6,1914.9 1578.2,1939.5 1588.9,1964.7 1598.7,1990.3 1607.8,2016.2 1616.2,2042.4 1623.7,2068.8 1630.6,2095.2 1636.7,2121.6  " style="stroke-opacity: 1.000000; stroke-width: 5.0; stroke: rgb(251,106,74); fill: none"  />
<path d="M 872.8,1608.7 L 899.1,1604.5 925.6,1600.9 952.2,1598.0 978.9,1595.9 1005.6,1594.7 1032.1,1594.3 1058.4,1594.8 1084.5,1596.3 1110.2,1598.9 1135.5,1602.5 1160.3,1607.1 1184.6,1612.9 1208.2,1619.7 1231.2,1627.7 1253.6,1636.9 1275.2,1647.2 1296.0,1658.6 1315.9,1671.1 1335.1,1684.8 1353.3,1699.6 1370.7,1715.5 1387.1,1732.4 1402.6,1750.4 1417.1,1769.4 1430.7,1789.4 1443.3,1810.2 1454.9,1832.0 1465.5,1854.5 1475.2,1877.8 1484.0,1901.8 1491.8,1926.5 1498.7,1951.6 1504.7,1977.3 1509.8,2003.3 1514.1,2029.6 1517.5,2056.2 1520.2,2082.8 1522.2,2109.5 1523.5,2136.1  " style="stroke-opacity: 1.000000; stroke-width: 5.0; stroke: rgb(251,106,74); fill: none"  />
<path d="M 872.8,1608.7 L 898.6,1604.5 924.6,1601.0 950.6,1598.2 976.6,1596.1 1002.5,1594.9 1028.1,1594.5 1053.4,1595.0 1078.3,1596.5 1102.7,1599.1 1126.6,1602.6 1149.8,1607.3 1172.4,1613.0 1194.1,1619.8 1215.1,1627.8 1235.2,1636.9 1254.3,1647.1 1272.5,1658.5 1289.8,1671.0 1306.0,1684.6 1321.1,1699.3 1335.2,1715.1 1348.2,1732.0 1360.1,1749.8 1370.9,1768.7 1380.5,1788.5 1389.1,1809.2 1396.6,1830.8 1402.9,1853.1 1408.2,1876.2 1412.5,1900.0 1415.7,1924.3 1418.0,1949.1 1419.3,1974.4 1419.6,2000.1 1419.1,2025.9 1417.8,2052.0 1415.7,2078.1 1413.0,2104.1 1409.6,2130.0  " style="stroke-opacity: 1.000000; stroke-width: 5.0; stroke: rgb(251,106,74); fill: none"  />
<path d="M 1194.0,2058.1 L 1208.0,2032.0 1221.7,2005.5 1235.1,1978.6 1248.1,1951.2 1260.6,1923.4 1272.7,1895.3 1284.3,1866.8 1295.4,1837.9 1305.9,1808.7 1315.9,1779.2 1325.2,1749.4 1333.9,1719.4 1341.9,1689.1 1349.3,1658.6 1356.0,1627.9 1362.0,1597.0 1367.2,1566.0 1371.7,1534.9 1375.6,1503.6 1378.6,1472.3 1381.0,1440.9 1382.6,1409.5 1383.4,1378.0 1383.5,1346.6 1383.0,1315.2 1381.6,1283.8 1379.6,1252.6 1376.9,1221.4 1373.6,1190.4 1369.6,1159.5 1364.9,1128.8 1359.6,1098.4 1353.8,1068.1 1347.4,1038.1 1340.4,1008.5 1333.0,979.1 1325.1,950.1 1316.8,921.4 1308.1,893.1  " style="stroke-opacity: 1.000000; stroke-width: 5.0; stroke: rgb(251,106,74); fill: none"  />
<path d="M 2012.0,1878.2 L 1988.5,1861.2 1964.6,1844.6 1940.1,1828.2 1915.1,1812.3 1889.6,1796.9 1863.6,1781.9 1837.2,1767.6 1810.4,1753.8 1783.2,1740.6 1755.6,1728.2 1727.6,1716.4 1699.3,1705.4 1670.7,1695.2 1641.8,1685.7 1612.6,1677.1 1583.2,1669.3 1553.5,1662.4 1523.7,1656.3 1493.7,1651.1 1463.6,1646.7 1433.3,1643.3 1403.0,1640.7 1372.6,1639.1 1342.2,1638.3 1311.7,1638.4 1281.3,1639.3 1251.0,1641.1 1220.7,1643.7 1190.6,1647.1 1160.6,1651.3 1130.7,1656.2 1101.1,1661.9 1071.7,1668.3 1042.6,1675.3 1013.8,1683.0 985.4,1691.2 957.3,1700.0 929.6,1709.2 902.3,1718.9  " style="stroke-opacity: 1.000000; stroke-width: 5.0; stroke: rgb(251,106,74); fill: none"  />
<path d="M 1202.8,937.1 L 1217.9,965.7 1232.9,994.4 1247.9,1023.1 1262.9,1051.9 1277.8,1080.7 1292.7,1109.7 1307.5,1138.6 1322.3,1167.7 1337.0,1196.8 1351.7,1226.0 1366.3,1255.2 1380.8,1284.5 1395.3,1313.9 1409.7,1343.3 1424.1,1372.7 1438.4,1402.2 1452.6,1431.7 1466.7,1461.3 1480.8,1490.9 1494.8,1520.6 1508.7,1550.3 1522.6,1580.0 1536.3,1609.7 1550.0,1639.5 1563.6,1669.3 1577.1,1699.1 1590.6,1729.0 1603.9,1758.8 1617.2,1788.7 1630.4,1818.6 1643.5,1848.5 1656.5,1878.3 1669.5,1908.2 1682.3,1938.1 1695.1,1968.0 1707.8,1997.8 1720.5,2027.6 1733.0,2057.5 1745.5,2087.2  " style="stroke-opacity: 1.000000; stroke-width: 5.0; stroke: rgb(251,106,74); fill: none"  />
<path d="M 1202.8,937.1 L 1217.5,965.1 1232.1,993.3 1246.6,1021.7 1261.0,1050.3 1275.2,1079.1 1289.3,1108.1 1303.3,1137.2 1317.1,1166.5 1330.7,1196.0 1344.1,1225.7 1357.4,1255.4 1370.5,1285.4 1383.4,1315.5 1396.0,1345.7 1408.5,1376.1 1420.7,1406.5 1432.7,1437.1 1444.5,1467.8 1456.0,1498.6 1467.3,1529.5 1478.4,1560.4 1489.3,1591.5 1499.8,1622.6 1510.2,1653.7 1520.3,1685.0 1530.1,1716.2 1539.7,1747.5 1549.1,1778.8 1558.2,1810.1 1567.1,1841.4 1575.8,1872.7 1584.2,1904.0 1592.3,1935.3 1600.3,1966.5 1608.0,1997.7 1615.5,2028.8 1622.8,2059.8 1629.8,2090.8 1636.7,2121.6  " style="stroke-opacity: 1.000000; stroke-width: 5.0; stroke: rgb(251,106,74); fill: none"  />
<path d="M 1308.1,893.1 L 1317.9,923.9 1327.7,954.7 1337.6,985.6 1347.6,1016.4 1357.7,1047.3 1367.8,1078.2 1378.0,1109.2 1388.3,1140.1 1398.7,1171.0 1409.2,1202.0 1419.7,1232.9 1430.3,1263.8 1441.0,1294.7 1451.8,1325.7 1462.7,1356.6 1473.7,1387.4 1484.7,1418.3 1495.8,1449.2 1507.0,1480.0 1518.3,1510.8 1529.7,1541.5 1541.1,1572.2 1552.6,1602.9 1564.2,1633.6 1575.8,1664.2 1587.6,1694.8 1599.4,1725.3 1611.2,1755.8 1623.2,1786.2 1635.2,1816.6 1647.2,1846.9 1659.3,1877.2 1671.5,1907.4 1683.7,1937.5 1696.0,1967.6 1708.3,1997.6 1720.7,2027.5 1733.1,2057.4 1745.5,2087.2  " style="stroke-opacity: 1.000000; stroke-width: 5.0; stroke: rgb(251,106,74); fill: none"  />
<path d="M 1308.1,893.1 L 1317.8,923.9 1327.5,954.8 1337.1,985.7 1346.7,1016.7 1356.2,1047.8 1365.7,1078.9 1375.1,1110.1 1384.5,1141.3 1393.7,1172.6 1403.0,1203.9 1412.1,1235.3 1421.2,1266.7 1430.2,1298.2 1439.2,1329.7 1448.1,1361.2 1456.8,1392.8 1465.6,1424.4 1474.2,1456.0 1482.7,1487.6 1491.2,1519.3 1499.6,1551.0 1507.9,1582.7 1516.1,1614.5 1524.3,1646.2 1532.3,1678.0 1540.3,1709.7 1548.2,1741.5 1556.0,1773.2 1563.7,1805.0 1571.4,1836.7 1579.0,1868.5 1586.4,1900.2 1593.8,1931.9 1601.2,1963.6 1608.4,1995.3 1615.6,2026.9 1622.7,2058.5 1629.7,2090.1 1636.7,2121.6  " style="stroke-opacity: 1.000000; stroke-width: 5.0; stroke: rgb(251,106,74); fill: none"  />
<path d="M 1308.1,893.1 L 1316.8,921.4 1325.1,950.1 1333.0,979.1 1340.4,1008.5 1347.4,1038.1 1353.8,1068.1 1359.6,1098.4 1364.9,1128.8 1369.6,1159.5 1373.6,1190.4 1376.9,1221.4 1379.6,1252.6 1381.6,1283.8 1383.0,1315.2 1383.5,1346.6 1383.4,1378.0 1382.6,1409.5 1381.0,1440.9 1378.6,1472.3 1375.6,1503.6 1371.7,1534.9 1367.2,1566.0 1362.0,1597.0 1356.0,1627.9 1349.3,1658.6 1341.9,1689.1 1333.9,1719.4 1325.2,1749.4 1315.9,1779.2 1305.9,1808.7 1295.4,1837.9 1284.3,1866.8 1272.7,1895.3 1260.6,1923.4 1248.1,1951.2 1235.1,1978.6 1221.7,2005.5 1208.0,2032.0 1194.0,2058.1  " style="stroke-opacity: 1.000000; stroke-width: 5.0; stroke: rgb(251,106,74); fill: none"  />
<path d="M 1308.1,893.1 L 1316.6,920.8 1324.6,948.8 1332.1,977.3 1339.0,1006.1 1345.4,1035.2 1351.1,1064.6 1356.2,1094.3 1360.5,1124.1 1364.1,1154.1 1367.0,1184.3 1369.0,1214.5 1370.3,1244.9 1370.7,1275.3 1370.2,1305.7 1368.9,1336.1 1366.8,1366.5 1363.8,1396.8 1359.8,1426.9 1355.0,1457.0 1349.4,1486.9 1342.8,1516.7 1335.4,1546.2 1327.1,1575.5 1318.0,1604.5 1308.1,1633.3 1297.4,1661.7 1285.9,1689.9 1273.6,1717.7 1260.6,1745.1 1246.9,1772.1 1232.5,1798.7 1217.6,1824.9 1202.0,1850.6 1185.9,1875.9 1169.4,1900.6 1152.4,1924.9 1135.0,1948.6 1117.2,1971.8 1099.2,1994.5  " style="stroke-opacity: 1.000000; stroke-width: 5.0; stroke: rgb(251,106,74); fill: none"  />
<path d="M 1099.2,1994.5 L 1116.4,1972.8 1133.2,1950.5 1149.6,1927.6 1165.4,1904.3 1180.6,1880.4 1195.1,1856.1 1208.9,1831.3 1221.8,1806.2 1233.9,1780.7 1245.1,1754.8 1255.3,1728.7 1264.5,1702.2 1272.7,1675.6 1279.7,1648.7 1285.7,1621.6 1290.6,1594.4 1294.3,1567.1 1296.9,1539.6 1298.3,1512.2 1298.5,1484.6 1297.5,1457.1 1295.4,1429.7 1292.1,1402.3 1287.7,1375.0 1282.1,1347.8 1275.5,1320.8 1267.7,1294.0 1258.9,1267.5 1249.1,1241.2 1238.4,1215.1 1226.7,1189.4 1214.1,1164.1 1200.8,1139.1 1186.6,1114.6 1171.8,1090.5 1156.4,1066.9 1140.4,1043.8 1123.9,1021.2 1107.1,999.2  " style="stroke-opacity: 1.000000; stroke-width: 5.0; stroke: rgb(251,106,74); fill: none"  />
<path d="M 1099.2,1994.5 L 1117.2,1971.8 1135.0,1948.6 1152.4,1924.9 1169.4,1900.6 1185.9,1875.9 1202.0,1850.6 1217.6,1824.9 1232.5,1798.7 1246.9,1772.1 1260.6,1745.1 1273.6,1717.7 1285.9,1689.9 1297.4,1661.7 1308.1,1633.3 1318.0,1604.5 1327.1,1575.5 1335.4,1546.2 1342.8,1516.7 1349.4,1486.9 1355.0,1457.0 1359.8,1426.9 1363.8,1396.8 1366.8,1366.5 1368.9,1336.1 1370.2,1305.7 1370.7,1275.3 1370.3,1244.9 1369.0,1214.5 1367.0,1184.3 1364.1,1154.1 1360.5,1124.1 1356.2,1094.3 1351.1,1064.6 1345.4,1035.2 1339.0,1006.1 1332.1,977.3 1324.6,948.8 1316.6,920.8 1308.1,893.1  " style="stroke-opacity: 1.000000; stroke-width: 5.0; stroke: rgb(251,106,74); fill: none"  />
<path d="M 2017.9,1130.0 L 1991.6,1148.7 1965.2,1167.5 1938.8,1186.2 1912.2,1204.9 1885.6,1223.5 1859.0,1242.1 1832.2,1260.7 1805.4,1279.3 1778.6,1297.8 1751.6,1316.2 1724.6,1334.6 1697.5,1353.0 1670.4,1371.3 1643.2,1389.5 1616.0,1407.7 1588.7,1425.8 1561.3,1443.9 1533.9,1461.9 1506.4,1479.8 1478.9,1497.6 1451.4,1515.4 1423.8,1533.1 1396.1,1550.7 1368.5,1568.3 1340.7,1585.8 1313.0,1603.2 1285.2,1620.5 1257.5,1637.7 1229.6,1654.9 1201.8,1672.0 1174.0,1689.0 1146.1,1705.9 1118.2,1722.7 1090.4,1739.5 1062.5,1756.2 1034.6,1772.8 1006.7,1789.3 978.9,1805.8 951.0,1822.1  " style="stroke-opacity: 1.000000; stroke-width: 5.0; stroke: rgb(251,106,74); fill: none"  />
</g>
<g id="track_0">
<path d="M 1936.2,1963.5 L 1919.4,1945.7 1902.6,1928.2 1886.0,1910.9 1869.6,1894.2 1853.5,1878.1 1838.0,1862.6 1822.9,1848.0 1808.5,1834.3 1794.8,1821.6 1781.9,1810.0 1769.8,1799.6 1758.6,1790.3 1748.4,1782.4 1739.2,1775.8 1731.0,1770.6 1723.9,1766.7 1717.9,1764.4 1713.0,1763.4 1709.2,1764.0 1706.6,1766.0 1705.2,1769.5 1704.9,1774.5 1705.8,1780.9 1707.8,1788.7 1711.0,1797.9 1715.2,1808.5 1720.5,1820.3 1726.8,1833.4 1734.0,1847.6 1742.2,1862.9 1751.3,1879.2 1761.2,1896.5 1771.8,1914.5 1783.1,1933.3 1794.9,1952.8 1807.3,1972.6 1820.1,1992.9 1833.2,2013.4 1846.4,2034.0  " style="stroke-opacity: 1.000000; stroke-width: 5.0; stroke: rgb(107,174,214); fill: none"  />
<path d="M 1936.2,1963.5 L 1919.3,1945.7 1902.3,1928.2 1885.3,1911.0 1868.5,1894.5 1851.9,1878.6 1835.6,1863.5 1819.7,1849.3 1804.3,1836.1 1789.5,1824.0 1775.3,1813.0 1761.7,1803.3 1748.9,1794.9 1736.9,1787.9 1725.7,1782.4 1715.4,1778.2 1706.0,1775.6 1697.6,1774.5 1690.1,1775.0 1683.6,1777.0 1678.1,1780.6 1673.6,1785.7 1670.2,1792.3 1667.7,1800.5 1666.3,1810.1 1665.9,1821.2 1666.4,1833.7 1667.9,1847.5 1670.3,1862.6 1673.7,1878.9 1677.9,1896.4 1682.9,1914.9 1688.6,1934.3 1695.1,1954.6 1702.3,1975.6 1710.0,1997.2 1718.3,2019.4 1727.0,2041.8 1736.1,2064.5 1745.5,2087.2  " style="stroke-opacity: 1.000000; stroke-width: 5.0; stroke: rgb(107,174,214); fill: none"  />
<path d="M 1936.2,1963.5 L 1919.1,1945.6 1901.8,1928.0 1884.5,1910.9 1867.2,1894.4 1850.0,1878.7 1832.9,1863.7 1816.1,1849.8 1799.7,1836.9 1783.6,1825.1 1768.0,1814.6 1752.9,1805.4 1738.3,1797.6 1724.4,1791.2 1711.1,1786.2 1698.5,1782.8 1686.7,1781.0 1675.7,1780.7 1665.4,1782.0 1655.9,1785.0 1647.3,1789.5 1639.6,1795.6 1632.7,1803.4 1626.7,1812.7 1621.5,1823.5 1617.3,1835.8 1613.9,1849.5 1611.3,1864.6 1609.6,1881.0 1608.6,1898.7 1608.5,1917.6 1609.2,1937.5 1610.5,1958.3 1612.6,1980.1 1615.3,2002.6 1618.6,2025.7 1622.4,2049.3 1626.8,2073.2 1631.6,2097.4 1636.7,2121.6  " style="stroke-opacity: 1.000000; stroke-width: 5.0; stroke: rgb(107,174,214); fill: none"  />
<path d="M 1936.2,1963.5 L 1918.1,1944.7 1899.4,1926.3 1880.3,1908.4 1860.8,1891.1 1840.9,1874.6 1820.6,1858.9 1800.0,1844.2 1779.2,1830.4 1758.1,1817.8 1736.9,1806.3 1715.6,1796.1 1694.1,1787.1 1672.6,1779.5 1651.1,1773.3 1629.6,1768.5 1608.1,1765.2 1586.7,1763.3 1565.4,1763.0 1544.3,1764.1 1523.3,1766.8 1502.6,1771.0 1482.1,1776.6 1461.8,1783.8 1441.9,1792.4 1422.3,1802.4 1403.0,1813.9 1384.1,1826.6 1365.5,1840.7 1347.4,1855.9 1329.8,1872.4 1312.6,1889.9 1295.9,1908.4 1279.7,1927.8 1264.0,1948.1 1248.8,1969.1 1234.2,1990.7 1220.2,2012.8 1206.8,2035.3 1194.0,2058.1  " style="stroke-opacity: 1.000000; stroke-width: 5.0; stroke: rgb(107,174,214); fill: none"  />
<path d="M 1936.2,1963.5 L 1917.7,1944.4 1898.7,1925.6 1879.1,1907.3 1859.1,1889.6 1838.5,1872.6 1817.5,1856.4 1796.1,1841.0 1774.4,1826.6 1752.3,1813.2 1729.9,1800.8 1707.3,1789.7 1684.4,1779.7 1661.4,1771.0 1638.2,1763.5 1614.8,1757.4 1591.4,1752.7 1567.9,1749.3 1544.4,1747.4 1520.9,1746.8 1497.4,1747.7 1474.0,1750.0 1450.7,1753.7 1427.5,1758.7 1404.5,1765.2 1381.7,1773.0 1359.1,1782.1 1336.7,1792.5 1314.7,1804.2 1292.9,1817.0 1271.5,1830.9 1250.5,1845.9 1229.9,1861.9 1209.7,1878.8 1189.9,1896.6 1170.7,1915.1 1152.0,1934.2 1133.8,1953.9 1116.2,1974.0 1099.2,1994.5  " style="stroke-opacity: 1.000000; stroke-width: 5.0; stroke: rgb(107,174,214); fill: none"  />
<path d="M 1017.4,1915.0 L 1035.9,1898.8 1054.2,1882.7 1072.1,1866.5 1089.4,1850.4 1106.0,1834.5 1121.8,1819.0 1136.7,1803.7 1150.6,1789.0 1163.4,1774.7 1174.9,1761.0 1185.2,1747.9 1194.2,1735.4 1201.7,1723.8 1207.8,1712.8 1212.4,1702.7 1215.4,1693.5 1216.9,1685.1 1216.8,1677.6 1215.0,1671.0 1211.7,1665.4 1206.8,1660.7 1200.3,1656.9 1192.3,1654.1 1182.7,1652.2 1171.7,1651.3 1159.2,1651.3 1145.3,1652.1 1130.1,1653.9 1113.6,1656.5 1096.0,1659.9 1077.3,1664.1 1057.7,1669.0 1037.1,1674.5 1015.8,1680.8 993.8,1687.5 971.4,1694.8 948.5,1702.5 925.5,1710.6 902.3,1718.9  " style="stroke-opacity: 1.000000; stroke-width: 5.0; stroke: rgb(107,174,214); fill: none"  />
<path d="M 1846.4,2034.0 L 1833.2,2013.4 1820.1,1992.9 1807.3,1972.6 1794.9,1952.8 1783.1,1933.3 1771.8,1914.5 1761.2,1896.5 1751.3,1879.2 1742.2,1862.9 1734.0,1847.6 1726.8,1833.4 1720.5,1820.3 1715.2,1808.5 1711.0,1797.9 1707.8,1788.7 1705.8,1780.9 1704.9,1774.5 1705.2,1769.5 1706.6,1766.0 1709.2,1764.0 1713.0,1763.4 1717.9,1764.4 1723.9,1766.7 1731.0,1770.6 1739.2,1775.8 1748.4,1782.4 1758.6,1790.3 1769.8,1799.6 1781.9,1810.0 1794.8,1821.6 1808.5,1834.3 1822.9,1848.0 1838.0,1862.6 1853.5,1878.1 1869.6,1894.2 1886.0,1910.9 1902.6,1928.2 1919.4,1945.7 1936.2,1963.5  " style="stroke-opacity: 1.000000; stroke-width: 5.0; stroke: rgb(107,174,214); fill: none"  />
<path d="M 1846.4,2034.0 L 1833.1,2013.5 1819.7,1993.2 1806.4,1973.2 1793.2,1953.8 1780.4,1935.1 1767.8,1917.1 1755.6,1900.1 1743.9,1884.0 1732.7,1869.1 1722.0,1855.4 1712.0,1842.9 1702.6,1831.8 1694.0,1822.2 1686.1,1814.1 1679.0,1807.5 1672.6,1802.4 1667.2,1799.0 1662.5,1797.2 1658.7,1797.1 1655.8,1798.7 1653.8,1801.8 1652.6,1806.7 1652.3,1813.1 1652.9,1821.2 1654.4,1830.8 1656.6,1841.9 1659.7,1854.5 1663.6,1868.5 1668.2,1883.8 1673.5,1900.3 1679.5,1918.0 1686.2,1936.7 1693.4,1956.4 1701.1,1976.9 1709.4,1998.1 1718.0,2019.9 1726.9,2042.1 1736.1,2064.6 1745.5,2087.2  " style="stroke-opacity: 1.000000; stroke-width: 5.0; stroke: rgb(107,174,214); fill: none"  />
<path d="M 1846.4,2034.0 L 1832.9,2013.4 1819.4,1993.1 1805.7,1973.2 1792.1,1953.9 1778.6,1935.3 1765.3,1917.6 1752.2,1900.7 1739.4,1885.0 1727.0,1870.4 1715.0,1857.1 1703.4,1845.2 1692.3,1834.7 1681.7,1825.6 1671.7,1818.1 1662.3,1812.2 1653.5,1808.0 1645.4,1805.4 1637.9,1804.5 1631.2,1805.3 1625.2,1807.9 1619.8,1812.1 1615.3,1818.0 1611.4,1825.6 1608.3,1834.8 1605.8,1845.7 1604.1,1858.0 1603.1,1871.9 1602.8,1887.2 1603.2,1903.9 1604.2,1921.8 1605.8,1940.9 1608.1,1961.0 1610.8,1982.1 1614.1,2004.1 1617.9,2026.8 1622.1,2050.0 1626.6,2073.7 1631.5,2097.6 1636.7,2121.6  " style="stroke-opacity: 1.000000; stroke-width: 5.0; stroke: rgb(107,174,214); fill: none"  />
<path d="M 1846.4,2034.0 L 1832.2,2012.6 1817.5,1991.5 1802.3,1970.9 1786.6,1950.8 1770.5,1931.5 1754.1,1913.0 1737.3,1895.4 1720.2,1878.9 1702.7,1863.4 1685.1,1849.2 1667.2,1836.2 1649.1,1824.6 1630.9,1814.4 1612.5,1805.6 1594.1,1798.4 1575.5,1792.7 1557.0,1788.6 1538.4,1786.0 1519.8,1785.1 1501.3,1785.8 1482.8,1788.1 1464.5,1792.0 1446.3,1797.5 1428.2,1804.5 1410.3,1813.1 1392.7,1823.2 1375.2,1834.7 1358.1,1847.6 1341.2,1861.9 1324.6,1877.4 1308.4,1894.1 1292.6,1911.9 1277.1,1930.6 1262.1,1950.3 1247.5,1970.8 1233.3,1991.9 1219.7,2013.6 1206.6,2035.7 1194.0,2058.1  " style="stroke-opacity: 1.000000; stroke-width: 5.0; stroke: rgb(107,174,214); fill: none"  />
<path d="M 1846.4,2034.0 L 1832.0,2012.2 1816.9,1990.8 1801.3,1969.8 1785.1,1949.3 1768.5,1929.5 1751.3,1910.4 1733.7,1892.2 1715.7,1875.0 1697.3,1858.8 1678.4,1843.7 1659.3,1829.8 1639.7,1817.2 1619.9,1805.8 1599.9,1795.9 1579.6,1787.3 1559.0,1780.2 1538.3,1774.6 1517.4,1770.4 1496.4,1767.8 1475.3,1766.7 1454.2,1767.1 1433.0,1769.0 1411.8,1772.4 1390.6,1777.3 1369.5,1783.7 1348.5,1791.5 1327.6,1800.7 1306.9,1811.2 1286.3,1823.0 1266.0,1836.0 1246.0,1850.1 1226.2,1865.4 1206.8,1881.6 1187.7,1898.8 1169.1,1916.7 1150.9,1935.4 1133.1,1954.6 1115.9,1974.4 1099.2,1994.5  " style="stroke-opacity: 1.000000; stroke-width: 5.0; stroke: rgb(107,174,214); fill: none"  />
<path d="M 1745.5,2087.2 L 1736.1,2064.5 1727.0,2041.8 1718.3,2019.4 1710.0,1997.2 1702.3,1975.6 1695.1,1954.6 1688.6,1934.3 1682.9,1914.9 1677.9,1896.4 1673.7,1878.9 1670.3,1862.6 1667.9,1847.5 1666.4,1833.7 1665.9,1821.2 1666.3,1810.1 1667.7,1800.5 1670.2,1792.3 1673.6,1785.7 1678.1,1780.6 1683.6,1777.0 1690.1,1775.0 1697.6,1774.5 1706.0,1775.6 1715.4,1778.2 1725.7,1782.4 1736.9,1787.9 1748.9,1794.9 1761.7,1803.3 1775.3,1813.0 1789.5,1824.0 1804.3,1836.1 1819.7,1849.3 1835.6,1863.5 1851.9,1878.6 1868.5,1894.5 1885.3,1911.0 1902.3,1928.2 1919.3,1945.7 1936.2,1963.5  " style="stroke-opacity: 1.000000; stroke-width: 5.0; stroke: rgb(107,174,214); fill: none"  />
<path d="M 1745.5,2087.2 L 1736.1,2064.6 1726.9,2042.1 1718.0,2019.9 1709.4,1998.1 1701.1,1976.9 1693.4,1956.4 1686.2,1936.7 1679.5,1918.0 1673.5,1900.3 1668.2,1883.8 1663.6,1868.5 1659.7,1854.5 1656.6,1841.9 1654.4,1830.8 1652.9,1821.2 1652.3,1813.1 1652.6,1806.7 1653.8,1801.8 1655.8,1798.7 1658.7,1797.1 1662.5,1797.2 1667.2,1799.0 1672.6,1802.4 1679.0,1807.5 1686.1,1814.1 1694.0,1822.2 1702.6,1831.8 1712.0,1842.9 1722.0,1855.4 1732.7,1869.1 1743.9,1884.0 1755.6,1900.1 1767.8,1917.1 1780.4,1935.1 1793.2,1953.8 1806.4,1973.2 1819.7,1993.2 1833.1,2013.5 1846.4,2034.0  " style="stroke-opacity: 1.000000; stroke-width: 5.0; stroke: rgb(107,174,214); fill: none"  />
<path d="M 1745.5,2087.2 L 1736.0,2064.7 1726.5,2042.3 1717.0,2020.4 1707.5,1998.9 1698.2,1978.2 1689.0,1958.3 1680.1,1939.3 1671.4,1921.4 1663.0,1904.7 1655.0,1889.3 1647.4,1875.3 1640.1,1862.7 1633.3,1851.7 1627.0,1842.2 1621.2,1834.5 1615.9,1828.4 1611.1,1824.1 1606.8,1821.5 1603.1,1820.7 1600.0,1821.7 1597.4,1824.5 1595.4,1829.0 1594.0,1835.3 1593.1,1843.3 1592.8,1853.1 1593.1,1864.4 1593.9,1877.3 1595.2,1891.8 1597.0,1907.6 1599.3,1924.9 1602.0,1943.3 1605.2,1963.0 1608.8,1983.6 1612.8,2005.2 1617.0,2027.5 1621.6,2050.5 1626.5,2073.9 1631.5,2097.7 1636.7,2121.6  " style="stroke-opacity: 1.000000; stroke-width: 5.0; stroke: rgb(107,174,214); fill: none"  />
<path d="M 1745.5,2087.2 L 1735.8,2064.5 1725.8,2041.9 1715.6,2019.8 1705.2,1998.3 1694.6,1977.5 1683.9,1957.5 1673.1,1938.6 1662.2,1920.7 1651.3,1904.0 1640.3,1888.7 1629.4,1874.8 1618.6,1862.3 1607.8,1851.4 1597.1,1842.1 1586.5,1834.5 1576.1,1828.7 1565.8,1824.5 1555.7,1822.2 1545.9,1821.6 1536.2,1822.8 1526.8,1825.8 1517.6,1830.7 1508.8,1837.2 1500.1,1845.5 1491.8,1855.6 1483.8,1867.2 1476.1,1880.5 1468.7,1895.2 1461.6,1911.5 1454.9,1929.1 1448.5,1947.9 1442.4,1967.9 1436.7,1989.0 1431.3,2011.0 1426.3,2033.8 1421.6,2057.3 1417.3,2081.2 1413.3,2105.6 1409.6,2130.0  " style="stroke-opacity: 1.000000; stroke-width: 5.0; stroke: rgb(107,174,214); fill: none"  />
<path d="M 1745.5,2087.2 L 1735.7,2064.2 1725.4,2041.5 1714.9,2019.2 1704.0,1997.4 1692.7,1976.4 1681.3,1956.2 1669.5,1936.9 1657.5,1918.8 1645.4,1901.8 1633.0,1886.1 1620.5,1871.8 1607.9,1858.9 1595.2,1847.5 1582.4,1837.7 1569.6,1829.6 1556.7,1823.1 1543.8,1818.3 1530.9,1815.3 1518.0,1814.0 1505.2,1814.4 1492.5,1816.7 1479.9,1820.7 1467.3,1826.4 1455.0,1833.8 1442.8,1842.9 1430.7,1853.6 1418.9,1865.9 1407.2,1879.7 1395.8,1894.9 1384.7,1911.4 1373.8,1929.3 1363.2,1948.3 1352.9,1968.3 1343.0,1989.3 1333.3,2011.1 1324.1,2033.6 1315.2,2056.7 1306.6,2080.1 1298.5,2103.8  " style="stroke-opacity: 1.000000; stroke-width: 5.0; stroke: rgb(107,174,214); fill: none"  />
<path d="M 1745.5,2087.2 L 1735.5,2064.0 1725.0,2041.0 1714.1,2018.3 1702.7,1996.3 1690.9,1974.8 1678.7,1954.2 1666.1,1934.5 1653.1,1915.9 1639.8,1898.3 1626.1,1882.0 1612.1,1867.0 1597.9,1853.4 1583.4,1841.2 1568.6,1830.5 1553.6,1821.4 1538.5,1813.9 1523.1,1808.0 1507.6,1803.8 1492.0,1801.3 1476.2,1800.5 1460.4,1801.3 1444.6,1803.9 1428.7,1808.1 1412.8,1814.0 1396.9,1821.5 1381.1,1830.5 1365.4,1841.1 1349.8,1853.1 1334.3,1866.6 1319.0,1881.4 1303.9,1897.4 1289.0,1914.6 1274.4,1932.9 1260.1,1952.1 1246.1,1972.1 1232.5,1992.9 1219.2,2014.2 1206.3,2036.0 1194.0,2058.1  " style="stroke-opacity: 1.000000; stroke-width: 5.0; stroke: rgb(107,174,214); fill: none"  />
<path d="M 1745.5,2087.2 L 1735.3,2063.7 1724.6,2040.3 1713.3,2017.3 1701.5,1994.8 1689.1,1972.9 1676.2,1951.7 1662.9,1931.4 1649.0,1912.1 1634.6,1893.8 1619.8,1876.6 1604.5,1860.7 1588.8,1846.0 1572.7,1832.7 1556.2,1820.8 1539.3,1810.4 1522.1,1801.5 1504.5,1794.1 1486.7,1788.3 1468.6,1784.1 1450.2,1781.4 1431.7,1780.4 1412.9,1781.0 1394.0,1783.1 1375.0,1786.8 1355.9,1792.1 1336.7,1798.8 1317.5,1807.1 1298.3,1816.7 1279.1,1827.7 1260.1,1840.0 1241.1,1853.5 1222.4,1868.2 1203.8,1883.9 1185.5,1900.6 1167.5,1918.1 1149.8,1936.4 1132.5,1955.3 1115.6,1974.7 1099.2,1994.5  " style="stroke-opacity: 1.000000; stroke-width: 5.0; stroke: rgb(107,174,214); fill: none"  />
<path d="M 902.3,1718.9 L 925.5,1710.6 948.5,1702.5 971.4,1694.8 993.8,1687.5 1015.8,1680.8 1037.1,1674.5 1057.7,1669.0 1077.3,1664.1 1096.0,1659.9 1113.6,1656.5 1130.1,1653.9 1145.3,1652.1 1159.2,1651.3 1171.7,1651.3 1182.7,1652.2 1192.3,1654.1 1200.3,1656.9 1206.8,1660.7 1211.7,1665.4 1215.0,1671.0 1216.8,1677.6 1216.9,1685.1 1215.4,1693.5 1212.4,1702.7 1207.8,1712.8 1201.7,1723.8 1194.2,1735.4 1185.2,1747.9 1174.9,1761.0 1163.4,1774.7 1150.6,1789.0 1136.7,1803.7 1121.8,1819.0 1106.0,1834.5 1089.4,1850.4 1072.1,1866.5 1054.2,1882.7 1035.9,1898.8 1017.4,1915.0  " style="stroke-opacity: 1.000000; stroke-width: 5.0; stroke: rgb(107,174,214); fill: none"  />
<path d="M 902.3,1718.9 L 925.3,1710.4 948.1,1701.9 970.4,1693.4 992.3,1684.9 1013.4,1676.5 1033.7,1668.3 1053.1,1660.2 1071.3,1652.3 1088.4,1644.7 1104.1,1637.4 1118.5,1630.4 1131.4,1623.7 1142.7,1617.4 1152.4,1611.5 1160.4,1606.1 1166.7,1601.0 1171.3,1596.4 1174.0,1592.3 1175.0,1588.6 1174.2,1585.5 1171.5,1582.8 1167.0,1580.6 1160.8,1578.8 1152.8,1577.6 1143.1,1576.9 1131.8,1576.6 1118.8,1576.8 1104.4,1577.5 1088.4,1578.6 1071.1,1580.1 1052.5,1582.0 1032.8,1584.3 1012.0,1587.0 990.3,1590.0 967.8,1593.3 944.6,1596.8 921.0,1600.6 897.0,1604.6 872.8,1608.7  " style="stroke-opacity: 1.000000; stroke-width: 5.0; stroke: rgb(107,174,214); fill: none"  />
<path d="M 1636.7,2121.6 L 1631.6,2097.4 1626.8,2073.2 1622.4,2049.3 1618.6,2025.7 1615.3,2002.6 1612.6,1980.1 1610.5,1958.3 1609.2,1937.5 1608.5,1917.6 1608.6,1898.7 1609.6,1881.0 1611.3,1864.6 1613.9,1849.5 1617.3,1835.8 1621.5,1823.5 1626.7,1812.7 1632.7,1803.4 1639.6,1795.6 1647.3,1789.5 1655.9,1785.0 1665.4,1782.0 1675.7,1780.7 1686.7,1781.0 1698.5,1782.8 1711.1,1786.2 1724.4,1791.2 1738.3,1797.6 1752.9,1805.4 1768.0,1814.6 1783.6,1825.1 1799.7,1836.9 1816.1,1849.8 1832.9,1863.7 1850.0,1878.7 1867.2,1894.4 1884.5,1910.9 1901.8,1928.0 1919.1,1945.6 1936.2,1963.5  " style="stroke-opacity: 1.000000; stroke-width: 5.0; stroke: rgb(107,174,214); fill: none"  />
<path d="M 1636.7,2121.6 L 1631.5,2097.6 1626.6,2073.7 1622.1,2050.0 1617.9,2026.8 1614.1,2004.1 1610.8,1982.1 1608.1,1961.0 1605.8,1940.9 1604.2,1921.8 1603.2,1903.9 1602.8,1887.2 1603.1,1871.9 1604.1,1858.0 1605.8,1845.7 1608.3,1834.8 1611.4,1825.6 1615.3,1818.0 1619.8,1812.1 1625.2,1807.9 1631.2,1805.3 1637.9,1804.5 1645.4,1805.4 1653.5,1808.0 1662.3,1812.2 1671.7,1818.1 1681.7,1825.6 1692.3,1834.7 1703.4,1845.2 1715.0,1857.1 1727.0,1870.4 1739.4,1885.0 1752.2,1900.7 1765.3,1917.6 1778.6,1935.3 1792.1,1953.9 1805.7,1973.2 1819.4,1993.1 1832.9,2013.4 1846.4,2034.0  " style="stroke-opacity: 1.000000; stroke-width: 5.0; stroke: rgb(107,174,214); fill: none"  />
<path d="M 1636.7,2121.6 L 1631.5,2097.7 1626.5,2073.9 1621.6,2050.5 1617.0,2027.5 1612.8,2005.2 1608.8,1983.6 1605.2,1963.0 1602.0,1943.3 1599.3,1924.9 1597.0,1907.6 1595.2,1891.8 1593.9,1877.3 1593.1,1864.4 1592.8,1853.1 1593.1,1843.3 1594.0,1835.3 1595.4,1829.0 1597.4,1824.5 1600.0,1821.7 1603.1,1820.7 1606.8,1821.5 1611.1,1824.1 1615.9,1828.4 1621.2,1834.5 1627.0,1842.2 1633.3,1851.7 1640.1,1862.7 1647.4,1875.3 1655.0,1889.3 1663.0,1904.7 1671.4,1921.4 1680.1,1939.3 1689.0,1958.3 1698.2,1978.2 1707.5,1998.9 1717.0,2020.4 1726.5,2042.3 1736.0,2064.7 1745.5,2087.2  " style="stroke-opacity: 1.000000; stroke-width: 5.0; stroke: rgb(107,174,214); fill: none"  />
<path d="M 1636.7,2121.6 L 1631.4,2097.7 1626.0,2074.0 1620.6,2050.7 1615.1,2027.9 1609.6,2005.9 1604.1,1984.6 1598.7,1964.4 1593.4,1945.2 1588.1,1927.3 1583.0,1910.7 1578.0,1895.5 1573.1,1881.9 1568.4,1869.8 1563.9,1859.4 1559.5,1850.7 1555.4,1843.8 1551.4,1838.7 1547.7,1835.4 1544.2,1833.9 1540.9,1834.4 1537.9,1836.6 1535.1,1840.8 1532.6,1846.7 1530.3,1854.5 1528.3,1864.0 1526.5,1875.2 1525.0,1888.0 1523.7,1902.5 1522.6,1918.4 1521.8,1935.8 1521.2,1954.4 1520.9,1974.3 1520.7,1995.3 1520.7,2017.2 1521.0,2039.9 1521.4,2063.4 1522.0,2087.3 1522.7,2111.6 1523.5,2136.1  " style="stroke-opacity: 1.000000; stroke-width: 5.0; stroke: rgb(107,174,214); fill: none"  />
<path d="M 1636.7,2121.6 L 1631.3,2097.7 1625.7,2073.9 1619.9,2050.5 1614.0,2027.6 1607.9,2005.5 1601.7,1984.2 1595.3,1963.8 1588.9,1944.6 1582.4,1926.6 1575.8,1909.9 1569.1,1894.6 1562.4,1880.9 1555.7,1868.7 1549.0,1858.2 1542.2,1849.4 1535.5,1842.3 1528.8,1837.0 1522.2,1833.6 1515.5,1832.0 1509.0,1832.2 1502.5,1834.3 1496.2,1838.2 1489.9,1844.0 1483.7,1851.5 1477.6,1860.8 1471.7,1871.8 1465.9,1884.4 1460.2,1898.7 1454.7,1914.4 1449.4,1931.5 1444.2,1949.9 1439.2,1969.6 1434.4,1990.3 1429.7,2012.0 1425.3,2034.6 1421.0,2057.8 1417.0,2081.6 1413.2,2105.7 1409.6,2130.0  " style="stroke-opacity: 1.000000; stroke-width: 5.0; stroke: rgb(107,174,214); fill: none"  />
<path d="M 1636.7,2121.6 L 1631.2,2097.5 1625.4,2073.5 1619.3,2050.0 1612.9,2026.9 1606.2,2004.5 1599.2,1983.0 1592.0,1962.4 1584.5,1942.9 1576.7,1924.6 1568.7,1907.5 1560.4,1891.9 1552.0,1877.7 1543.3,1865.0 1534.4,1854.0 1525.4,1844.6 1516.2,1837.0 1506.8,1831.1 1497.3,1826.9 1487.7,1824.6 1478.0,1824.1 1468.2,1825.4 1458.3,1828.5 1448.4,1833.4 1438.4,1840.0 1428.5,1848.4 1418.5,1858.4 1408.5,1870.1 1398.6,1883.3 1388.8,1898.0 1379.0,1914.1 1369.3,1931.5 1359.8,1950.1 1350.4,1969.9 1341.2,1990.5 1332.2,2012.1 1323.4,2034.3 1314.8,2057.1 1306.5,2080.3 1298.5,2103.8  " style="stroke-opacity: 1.000000; stroke-width: 5.0; stroke: rgb(107,174,214); fill: none"  />
<path d="M 1636.7,2121.6 L 1631.1,2097.3 1625.1,2073.1 1618.7,2049.2 1611.9,2025.9 1604.6,2003.2 1596.9,1981.2 1588.8,1960.2 1580.2,1940.2 1571.3,1921.3 1562.0,1903.6 1552.2,1887.3 1542.1,1872.4 1531.6,1858.9 1520.8,1847.0 1509.6,1836.7 1498.1,1828.0 1486.2,1821.0 1474.1,1815.7 1461.7,1812.1 1449.0,1810.3 1436.1,1810.2 1422.9,1811.9 1409.6,1815.3 1396.1,1820.4 1382.5,1827.1 1368.7,1835.5 1354.8,1845.5 1340.9,1857.0 1327.0,1869.9 1313.1,1884.2 1299.2,1899.8 1285.4,1916.6 1271.7,1934.5 1258.1,1953.4 1244.8,1973.2 1231.6,1993.7 1218.7,2014.7 1206.2,2036.3 1194.0,2058.1  " style="stroke-opacity: 1.000000; stroke-width: 5.0; stroke: rgb(107,174,214); fill: none"  />
<path d="M 1636.7,2121.6 L 1631.0,2097.0 1624.8,2072.5 1618.1,2048.2 1610.8,2024.5 1603.0,2001.3 1594.7,1978.8 1585.8,1957.2 1576.4,1936.5 1566.4,1916.9 1555.9,1898.4 1544.8,1881.1 1533.2,1865.2 1521.1,1850.6 1508.5,1837.5 1495.4,1825.8 1481.8,1815.7 1467.7,1807.2 1453.2,1800.3 1438.3,1795.0 1423.0,1791.4 1407.2,1789.4 1391.2,1789.1 1374.8,1790.4 1358.1,1793.4 1341.2,1797.9 1324.0,1804.0 1306.7,1811.6 1289.1,1820.7 1271.5,1831.1 1253.8,1842.9 1236.1,1856.0 1218.4,1870.3 1200.8,1885.6 1183.2,1902.0 1165.9,1919.2 1148.8,1937.2 1131.9,1955.8 1115.4,1975.0 1099.2,1994.5  " style="stroke-opacity: 1.000000; stroke-width: 5.0; stroke: rgb(107,174,214); fill: none"  />
<path d="M 1024.0,1077.4 L 1042.6,1093.8 1061.4,1109.7 1080.2,1125.2 1098.9,1140.1 1117.5,1154.2 1135.8,1167.6 1153.8,1180.0 1171.3,1191.3 1188.4,1201.6 1204.9,1210.7 1220.8,1218.5 1236.0,1225.0 1250.4,1230.1 1264.1,1233.9 1276.9,1236.1 1288.9,1236.9 1299.9,1236.2 1310.0,1233.9 1319.1,1230.2 1327.3,1224.9 1334.5,1218.1 1340.6,1209.8 1345.8,1200.0 1349.9,1188.7 1353.1,1176.1 1355.3,1162.1 1356.5,1146.8 1356.7,1130.3 1356.0,1112.6 1354.5,1093.9 1352.1,1074.1 1348.8,1053.4 1344.8,1032.0 1340.1,1009.8 1334.8,987.1 1328.8,963.9 1322.4,940.4 1315.4,916.8 1308.1,893.1  " style="stroke-opacity: 1.000000; stroke-width: 5.0; stroke: rgb(107,174,214); fill: none"  />
<path d="M 1523.5,2136.1 L 1522.7,2111.6 1522.0,2087.3 1521.4,2063.4 1521.0,2039.9 1520.7,2017.2 1520.7,1995.3 1520.9,1974.3 1521.2,1954.4 1521.8,1935.8 1522.6,1918.4 1523.7,1902.5 1525.0,1888.0 1526.5,1875.2 1528.3,1864.0 1530.3,1854.5 1532.6,1846.7 1535.1,1840.8 1537.9,1836.6 1540.9,1834.4 1544.2,1833.9 1547.7,1835.4 1551.4,1838.7 1555.4,1843.8 1559.5,1850.7 1563.9,1859.4 1568.4,1869.8 1573.1,1881.9 1578.0,1895.5 1583.0,1910.7 1588.1,1927.3 1593.4,1945.2 1598.7,1964.4 1604.1,1984.6 1609.6,2005.9 1615.1,2027.9 1620.6,2050.7 1626.0,2074.0 1631.4,2097.7 1636.7,2121.6  " style="stroke-opacity: 1.000000; stroke-width: 5.0; stroke: rgb(107,174,214); fill: none"  />
<path d="M 1523.5,2136.1 L 1522.5,2111.5 1521.2,2087.1 1519.7,2063.0 1518.0,2039.5 1515.9,2016.6 1513.6,1994.5 1511.0,1973.4 1508.1,1953.3 1504.9,1934.4 1501.4,1916.8 1497.5,1900.6 1493.4,1885.9 1489.0,1872.7 1484.2,1861.2 1479.2,1851.3 1473.8,1843.1 1468.2,1836.7 1462.2,1832.2 1456.0,1829.4 1449.5,1828.5 1442.8,1829.4 1435.8,1832.1 1428.6,1836.6 1421.2,1843.0 1413.6,1851.0 1405.8,1860.8 1397.8,1872.2 1389.7,1885.1 1381.5,1899.6 1373.1,1915.5 1364.7,1932.7 1356.3,1951.2 1347.9,1970.7 1339.4,1991.3 1331.0,2012.7 1322.7,2034.8 1314.5,2057.4 1306.4,2080.5 1298.5,2103.8  " style="stroke-opacity: 1.000000; stroke-width: 5.0; stroke: rgb(107,174,214); fill: none"  />
<path d="M 1409.6,2130.0 L 1413.3,2105.6 1417.3,2081.2 1421.6,2057.3 1426.3,2033.8 1431.3,2011.0 1436.7,1989.0 1442.4,1967.9 1448.5,1947.9 1454.9,1929.1 1461.6,1911.5 1468.7,1895.2 1476.1,1880.5 1483.8,1867.2 1491.8,1855.6 1500.1,1845.5 1508.8,1837.2 1517.6,1830.7 1526.8,1825.8 1536.2,1822.8 1545.9,1821.6 1555.7,1822.2 1565.8,1824.5 1576.1,1828.7 1586.5,1834.5 1597.1,1842.1 1607.8,1851.4 1618.6,1862.3 1629.4,1874.8 1640.3,1888.7 1651.3,1904.0 1662.2,1920.7 1673.1,1938.6 1683.9,1957.5 1694.6,1977.5 1705.2,1998.3 1715.6,2019.8 1725.8,2041.9 1735.8,2064.5 1745.5,2087.2  " style="stroke-opacity: 1.000000; stroke-width: 5.0; stroke: rgb(107,174,214); fill: none"  />
<path d="M 1409.6,2130.0 L 1413.2,2105.7 1417.0,2081.6 1421.0,2057.8 1425.3,2034.6 1429.7,2012.0 1434.4,1990.3 1439.2,1969.6 1444.2,1949.9 1449.4,1931.5 1454.7,1914.4 1460.2,1898.7 1465.9,1884.4 1471.7,1871.8 1477.6,1860.8 1483.7,1851.5 1489.9,1844.0 1496.2,1838.2 1502.5,1834.3 1509.0,1832.2 1515.5,1832.0 1522.2,1833.6 1528.8,1837.0 1535.5,1842.3 1542.2,1849.4 1549.0,1858.2 1555.7,1868.7 1562.4,1880.9 1569.1,1894.6 1575.8,1909.9 1582.4,1926.6 1588.9,1944.6 1595.3,1963.8 1601.7,1984.2 1607.9,2005.5 1614.0,2027.6 1619.9,2050.5 1625.7,2073.9 1631.3,2097.7 1636.7,2121.6  " style="stroke-opacity: 1.000000; stroke-width: 5.0; stroke: rgb(107,174,214); fill: none"  />
<path d="M 1409.6,2130.0 L 1412.9,2105.5 1415.9,2081.0 1418.5,2056.8 1420.6,2033.0 1422.2,2009.7 1423.2,1987.1 1423.6,1965.2 1423.4,1944.3 1422.6,1924.4 1421.1,1905.7 1418.9,1888.1 1415.9,1871.8 1412.3,1857.0 1407.8,1843.5 1402.7,1831.6 1396.7,1821.2 1390.1,1812.3 1382.6,1805.1 1374.4,1799.6 1365.5,1795.7 1355.9,1793.5 1345.6,1792.9 1334.5,1794.0 1322.9,1796.7 1310.6,1801.0 1297.7,1806.9 1284.3,1814.3 1270.4,1823.2 1256.0,1833.5 1241.2,1845.2 1226.0,1858.1 1210.6,1872.2 1194.9,1887.3 1179.0,1903.5 1162.9,1920.5 1146.9,1938.2 1130.9,1956.5 1114.9,1975.3 1099.2,1994.5  " style="stroke-opacity: 1.000000; stroke-width: 5.0; stroke: rgb(107,174,214); fill: none"  />
<path d="M 1107.1,999.2 L 1122.4,1018.5 1137.7,1037.5 1153.1,1056.1 1168.4,1074.1 1183.5,1091.4 1198.3,1107.9 1212.9,1123.5 1227.0,1138.0 1240.7,1151.4 1253.9,1163.6 1266.5,1174.4 1278.5,1183.9 1289.9,1192.0 1300.5,1198.5 1310.4,1203.6 1319.5,1207.0 1327.8,1208.9 1335.3,1209.1 1342.0,1207.7 1347.7,1204.6 1352.7,1199.9 1356.7,1193.6 1359.9,1185.7 1362.2,1176.2 1363.6,1165.2 1364.2,1152.7 1363.9,1138.8 1362.9,1123.6 1361.0,1107.0 1358.4,1089.3 1355.1,1070.4 1351.0,1050.5 1346.4,1029.7 1341.2,1008.2 1335.4,985.9 1329.1,963.2 1322.4,940.0 1315.4,916.6 1308.1,893.1  " style="stroke-opacity: 1.000000; stroke-width: 5.0; stroke: rgb(107,174,214); fill: none"  />
<path d="M 1298.5,2103.8 L 1306.6,2080.1 1315.2,2056.7 1324.1,2033.6 1333.3,2011.1 1343.0,1989.3 1352.9,1968.3 1363.2,1948.3 1373.8,1929.3 1384.7,1911.4 1395.8,1894.9 1407.2,1879.7 1418.9,1865.9 1430.7,1853.6 1442.8,1842.9 1455.0,1833.8 1467.3,1826.4 1479.9,1820.7 1492.5,1816.7 1505.2,1814.4 1518.0,1814.0 1530.9,1815.3 1543.8,1818.3 1556.7,1823.1 1569.6,1829.6 1582.4,1837.7 1595.2,1847.5 1607.9,1858.9 1620.5,1871.8 1633.0,1886.1 1645.4,1901.8 1657.5,1918.8 1669.5,1936.9 1681.3,1956.2 1692.7,1976.4 1704.0,1997.4 1714.9,2019.2 1725.4,2041.5 1735.7,2064.2 1745.5,2087.2  " style="stroke-opacity: 1.000000; stroke-width: 5.0; stroke: rgb(107,174,214); fill: none"  />
<path d="M 1298.5,2103.8 L 1306.5,2080.3 1314.8,2057.1 1323.4,2034.3 1332.2,2012.1 1341.2,1990.5 1350.4,1969.9 1359.8,1950.1 1369.3,1931.5 1379.0,1914.1 1388.8,1898.0 1398.6,1883.3 1408.5,1870.1 1418.5,1858.4 1428.5,1848.4 1438.4,1840.0 1448.4,1833.4 1458.3,1828.5 1468.2,1825.4 1478.0,1824.1 1487.7,1824.6 1497.3,1826.9 1506.8,1831.1 1516.2,1837.0 1525.4,1844.6 1534.4,1854.0 1543.3,1865.0 1552.0,1877.7 1560.4,1891.9 1568.7,1907.5 1576.7,1924.6 1584.5,1942.9 1592.0,1962.4 1599.2,1983.0 1606.2,2004.5 1612.9,2026.9 1619.3,2050.0 1625.4,2073.5 1631.2,2097.5 1636.7,2121.6  " style="stroke-opacity: 1.000000; stroke-width: 5.0; stroke: rgb(107,174,214); fill: none"  />
<path d="M 1298.5,2103.8 L 1306.4,2080.5 1314.5,2057.4 1322.7,2034.8 1331.0,2012.7 1339.4,1991.3 1347.9,1970.7 1356.3,1951.2 1364.7,1932.7 1373.1,1915.5 1381.5,1899.6 1389.7,1885.1 1397.8,1872.2 1405.8,1860.8 1413.6,1851.0 1421.2,1843.0 1428.6,1836.6 1435.8,1832.1 1442.8,1829.4 1449.5,1828.5 1456.0,1829.4 1462.2,1832.2 1468.2,1836.7 1473.8,1843.1 1479.2,1851.3 1484.2,1861.2 1489.0,1872.7 1493.4,1885.9 1497.5,1900.6 1501.4,1916.8 1504.9,1934.4 1508.1,1953.3 1511.0,1973.4 1513.6,1994.5 1515.9,2016.6 1518.0,2039.5 1519.7,2063.0 1521.2,2087.1 1522.5,2111.5 1523.5,2136.1  " style="stroke-opacity: 1.000000; stroke-width: 5.0; stroke: rgb(107,174,214); fill: none"  />
<path d="M 1298.5,2103.8 L 1306.2,2080.5 1313.7,2057.4 1321.0,2034.6 1328.0,2012.2 1334.6,1990.5 1340.8,1969.5 1346.6,1949.3 1351.8,1930.1 1356.5,1912.0 1360.6,1895.2 1364.1,1879.6 1366.9,1865.3 1369.0,1852.6 1370.5,1841.3 1371.2,1831.6 1371.2,1823.5 1370.4,1817.1 1368.9,1812.4 1366.7,1809.3 1363.7,1808.0 1359.9,1808.4 1355.4,1810.5 1350.2,1814.4 1344.2,1819.8 1337.6,1826.9 1330.3,1835.7 1322.4,1845.9 1313.9,1857.6 1304.8,1870.8 1295.2,1885.3 1285.1,1901.0 1274.6,1917.9 1263.7,1935.8 1252.5,1954.6 1241.1,1974.3 1229.4,1994.6 1217.6,2015.4 1205.8,2036.7 1194.0,2058.1  " style="stroke-opacity: 1.000000; stroke-width: 5.0; stroke: rgb(107,174,214); fill: none"  />
<path d="M 872.8,1608.7 L 897.0,1604.6 921.0,1600.6 944.6,1596.8 967.8,1593.3 990.3,1590.0 1012.0,1587.0 1032.8,1584.3 1052.5,1582.0 1071.1,1580.1 1088.4,1578.6 1104.4,1577.5 1118.8,1576.8 1131.8,1576.6 1143.1,1576.9 1152.8,1577.6 1160.8,1578.8 1167.0,1580.6 1171.5,1582.8 1174.2,1585.5 1175.0,1588.6 1174.0,1592.3 1171.3,1596.4 1166.7,1601.0 1160.4,1606.1 1152.4,1611.5 1142.7,1617.4 1131.4,1623.7 1118.5,1630.4 1104.1,1637.4 1088.4,1644.7 1071.3,1652.3 1053.1,1660.2 1033.7,1668.3 1013.4,1676.5 992.3,1684.9 970.4,1693.4 948.1,1701.9 925.3,1710.4 902.3,1718.9  " style="stroke-opacity: 1.000000; stroke-width: 5.0; stroke: rgb(107,174,214); fill: none"  />
<path d="M 1194.0,2058.1 L 1206.8,2035.3 1220.2,2012.8 1234.2,1990.7 1248.8,1969.1 1264.0,1948.1 1279.7,1927.8 1295.9,1908.4 1312.6,1889.9 1329.8,1872.4 1347.4,1855.9 1365.5,1840.7 1384.1,1826.6 1403.0,1813.9 1422.3,1802.4 1441.9,1792.4 1461.8,1783.8 1482.1,1776.6 1502.6,1771.0 1523.3,1766.8 1544.3,1764.1 1565.4,1763.0 1586.7,1763.3 1608.1,1765.2 1629.6,1768.5 1651.1,1773.3 1672.6,1779.5 1694.1,1787.1 1715.6,1796.1 1736.9,1806.3 1758.1,1817.8 1779.2,1830.4 1800.0,1844.2 1820.6,1858.9 1840.9,1874.6 1860.8,1891.1 1880.3,1908.4 1899.4,1926.3 1918.1,1944.7 1936.2,1963.5  " style="stroke-opacity: 1.000000; stroke-width: 5.0; stroke: rgb(107,174,214); fill: none"  />
<path d="M 1194.0,2058.1 L 1206.6,2035.7 1219.7,2013.6 1233.3,1991.9 1247.5,1970.8 1262.1,1950.3 1277.1,1930.6 1292.6,1911.9 1308.4,1894.1 1324.6,1877.4 1341.2,1861.9 1358.1,1847.6 1375.2,1834.7 1392.7,1823.2 1410.3,1813.1 1428.2,1804.5 1446.3,1797.5 1464.5,1792.0 1482.8,1788.1 1501.3,1785.8 1519.8,1785.1 1538.4,1786.0 1557.0,1788.6 1575.5,1792.7 1594.1,1798.4 1612.5,1805.6 1630.9,1814.4 1649.1,1824.6 1667.2,1836.2 1685.1,1849.2 1702.7,1863.4 1720.2,1878.9 1737.3,1895.4 1754.1,1913.0 1770.5,1931.5 1786.6,1950.8 1802.3,1970.9 1817.5,1991.5 1832.2,2012.6 1846.4,2034.0  " style="stroke-opacity: 1.000000; stroke-width: 5.0; stroke: rgb(107,174,214); fill: none"  />
<path d="M 1194.0,2058.1 L 1206.3,2036.0 1219.2,2014.2 1232.5,1992.9 1246.1,1972.1 1260.1,1952.1 1274.4,1932.9 1289.0,1914.6 1303.9,1897.4 1319.0,1881.4 1334.3,1866.6 1349.8,1853.1 1365.4,1841.1 1381.1,1830.5 1396.9,1821.5 1412.8,1814.0 1428.7,1808.1 1444.6,1803.9 1460.4,1801.3 1476.2,1800.5 1492.0,1801.3 1507.6,1803.8 1523.1,1808.0 1538.5,1813.9 1553.6,1821.4 1568.6,1830.5 1583.4,1841.2 1597.9,1853.4 1612.1,1867.0 1626.1,1882.0 1639.8,1898.3 1653.1,1915.9 1666.1,1934.5 1678.7,1954.2 1690.9,1974.8 1702.7,1996.3 1714.1,2018.3 1725.0,2041.0 1735.5,2064.0 1745.5,2087.2  " style="stroke-opacity: 1.000000; stroke-width: 5.0; stroke: rgb(107,174,214); fill: none"  />
<path d="M 1194.0,2058.1 L 1206.2,2036.3 1218.7,2014.7 1231.6,1993.7 1244.8,1973.2 1258.1,1953.4 1271.7,1934.5 1285.4,1916.6 1299.2,1899.8 1313.1,1884.2 1327.0,1869.9 1340.9,1857.0 1354.8,1845.5 1368.7,1835.5 1382.5,1827.1 1396.1,1820.4 1409.6,1815.3 1422.9,1811.9 1436.1,1810.2 1449.0,1810.3 1461.7,1812.1 1474.1,1815.7 1486.2,1821.0 1498.1,1828.0 1509.6,1836.7 1520.8,1847.0 1531.6,1858.9 1542.1,1872.4 1552.2,1887.3 1562.0,1903.6 1571.3,1921.3 1580.2,1940.2 1588.8,1960.2 1596.9,1981.2 1604.6,2003.2 1611.9,2025.9 1618.7,2049.2 1625.1,2073.1 1631.1,2097.3 1636.7,2121.6  " style="stroke-opacity: 1.000000; stroke-width: 5.0; stroke: rgb(107,174,214); fill: none"  />
<path d="M 1194.0,2058.1 L 1205.8,2036.7 1217.6,2015.4 1229.4,1994.6 1241.1,1974.3 1252.5,1954.6 1263.7,1935.8 1274.6,1917.9 1285.1,1901.0 1295.2,1885.3 1304.8,1870.8 1313.9,1857.6 1322.4,1845.9 1330.3,1835.7 1337.6,1826.9 1344.2,1819.8 1350.2,1814.4 1355.4,1810.5 1359.9,1808.4 1363.7,1808.0 1366.7,1809.3 1368.9,1812.4 1370.4,1817.1 1371.2,1823.5 1371.2,1831.6 1370.5,1841.3 1369.0,1852.6 1366.9,1865.3 1364.1,1879.6 1360.6,1895.2 1356.5,1912.0 1351.8,1930.1 1346.6,1949.3 1340.8,1969.5 1334.6,1990.5 1328.0,2012.2 1321.0,2034.6 1313.7,2057.4 1306.2,2080.5 1298.5,2103.8  " style="stroke-opacity: 1.000000; stroke-width: 5.0; stroke: rgb(107,174,214); fill: none"  />
<path d="M 1194.0,2058.1 L 1205.7,2036.6 1217.2,2015.2 1228.4,1994.1 1239.3,1973.3 1249.7,1953.1 1259.6,1933.5 1268.8,1914.7 1277.4,1896.7 1285.2,1879.8 1292.3,1863.9 1298.5,1849.2 1303.8,1835.7 1308.2,1823.5 1311.6,1812.7 1314.1,1803.3 1315.5,1795.3 1315.9,1788.9 1315.3,1784.0 1313.6,1780.6 1310.8,1778.7 1307.1,1778.5 1302.3,1779.7 1296.4,1782.5 1289.6,1786.9 1281.8,1792.7 1273.1,1800.0 1263.5,1808.6 1253.0,1818.7 1241.7,1830.0 1229.7,1842.5 1217.0,1856.2 1203.6,1870.9 1189.7,1886.6 1175.3,1903.1 1160.5,1920.4 1145.4,1938.3 1130.1,1956.7 1114.7,1975.5 1099.2,1994.5  " style="stroke-opacity: 1.000000; stroke-width: 5.0; stroke: rgb(107,174,214); fill: none"  />
<path d="M 1202.8,937.1 L 1214.3,958.8 1225.8,980.2 1237.3,1001.2 1248.6,1021.7 1259.8,1041.5 1270.7,1060.5 1281.3,1078.6 1291.5,1095.7 1301.3,1111.5 1310.7,1126.2 1319.6,1139.5 1327.9,1151.3 1335.7,1161.7 1342.8,1170.5 1349.3,1177.7 1355.2,1183.3 1360.3,1187.2 1364.8,1189.4 1368.5,1189.8 1371.6,1188.6 1373.9,1185.6 1375.5,1180.9 1376.3,1174.5 1376.5,1166.4 1375.9,1156.7 1374.6,1145.4 1372.7,1132.6 1370.1,1118.3 1366.9,1102.7 1363.0,1085.7 1358.6,1067.6 1353.7,1048.3 1348.3,1028.1 1342.4,1007.0 1336.1,985.1 1329.5,962.6 1322.6,939.7 1315.4,916.5 1308.1,893.1  " style="stroke-opacity: 1.000000; stroke-width: 5.0; stroke: rgb(107,174,214); fill: none"  />
<path d="M 1308.1,893.1 L 1315.4,916.8 1322.4,940.4 1328.8,963.9 1334.8,987.1 1340.1,1009.8 1344.8,1032.0 1348.8,1053.4 1352.1,1074.1 1354.5,1093.9 1356.0,1112.6 1356.7,1130.3 1356.5,1146.8 1355.3,1162.1 1353.1,1176.1 1349.9,1188.7 1345.8,1200.0 1340.6,1209.8 1334.5,1218.1 1327.3,1224.9 1319.1,1230.2 1310.0,1233.9 1299.9,1236.2 1288.9,1236.9 1276.9,1236.1 1264.1,1233.9 1250.4,1230.1 1236.0,1225.0 1220.8,1218.5 1204.9,1210.7 1188.4,1201.6 1171.3,1191.3 1153.8,1180.0 1135.8,1167.6 1117.5,1154.2 1098.9,1140.1 1080.2,1125.2 1061.4,1109.7 1042.6,1093.8 1024.0,1077.4  " style="stroke-opacity: 1.000000; stroke-width: 5.0; stroke: rgb(107,174,214); fill: none"  />
<path d="M 1308.1,893.1 L 1315.4,916.6 1322.4,940.0 1329.1,963.2 1335.4,985.9 1341.2,1008.2 1346.4,1029.7 1351.0,1050.5 1355.1,1070.4 1358.4,1089.3 1361.0,1107.0 1362.9,1123.6 1363.9,1138.8 1364.2,1152.7 1363.6,1165.2 1362.2,1176.2 1359.9,1185.7 1356.7,1193.6 1352.7,1199.9 1347.7,1204.6 1342.0,1207.7 1335.3,1209.1 1327.8,1208.9 1319.5,1207.0 1310.4,1203.6 1300.5,1198.5 1289.9,1192.0 1278.5,1183.9 1266.5,1174.4 1253.9,1163.6 1240.7,1151.4 1227.0,1138.0 1212.9,1123.5 1198.3,1107.9 1183.5,1091.4 1168.4,1074.1 1153.1,1056.1 1137.7,1037.5 1122.4,1018.5 1107.1,999.2  " style="stroke-opacity: 1.000000; stroke-width: 5.0; stroke: rgb(107,174,214); fill: none"  />
<path d="M 1308.1,893.1 L 1315.4,916.5 1322.6,939.7 1329.5,962.6 1336.1,985.1 1342.4,1007.0 1348.3,1028.1 1353.7,1048.3 1358.6,1067.6 1363.0,1085.7 1366.9,1102.7 1370.1,1118.3 1372.7,1132.6 1374.6,1145.4 1375.9,1156.7 1376.5,1166.4 1376.3,1174.5 1375.5,1180.9 1373.9,1185.6 1371.6,1188.6 1368.5,1189.8 1364.8,1189.4 1360.3,1187.2 1355.2,1183.3 1349.3,1177.7 1342.8,1170.5 1335.7,1161.7 1327.9,1151.3 1319.6,1139.5 1310.7,1126.2 1301.3,1111.5 1291.5,1095.7 1281.3,1078.6 1270.7,1060.5 1259.8,1041.5 1248.6,1021.7 1237.3,1001.2 1225.8,980.2 1214.3,958.8 1202.8,937.1  " style="stroke-opacity: 1.000000; stroke-width: 5.0; stroke: rgb(107,174,214); fill: none"  />
<path d="M 1099.2,1994.5 L 1116.2,1974.0 1133.8,1953.9 1152.0,1934.2 1170.7,1915.1 1189.9,1896.6 1209.7,1878.8 1229.9,1861.9 1250.5,1845.9 1271.5,1830.9 1292.9,1817.0 1314.7,1804.2 1336.7,1792.5 1359.1,1782.1 1381.7,1773.0 1404.5,1765.2 1427.5,1758.7 1450.7,1753.7 1474.0,1750.0 1497.4,1747.7 1520.9,1746.8 1544.4,1747.4 1567.9,1749.3 1591.4,1752.7 1614.8,1757.4 1638.2,1763.5 1661.4,1771.0 1684.4,1779.7 1707.3,1789.7 1729.9,1800.8 1752.3,1813.2 1774.4,1826.6 1796.1,1841.0 1817.5,1856.4 1838.5,1872.6 1859.1,1889.6 1879.1,1907.3 1898.7,1925.6 1917.7,1944.4 1936.2,1963.5  " style="stroke-opacity: 1.000000; stroke-width: 5.0; stroke: rgb(107,174,214); fill: none"  />
<path d="M 1099.2,1994.5 L 1115.9,1974.4 1133.1,1954.6 1150.9,1935.4 1169.1,1916.7 1187.7,1898.8 1206.8,1881.6 1226.2,1865.4 1246.0,1850.1 1266.0,1836.0 1286.3,1823.0 1306.9,1811.2 1327.6,1800.7 1348.5,1791.5 1369.5,1783.7 1390.6,1777.3 1411.8,1772.4 1433.0,1769.0 1454.2,1767.1 1475.3,1766.7 1496.4,1767.8 1517.4,1770.4 1538.3,1774.6 1559.0,1780.2 1579.6,1787.3 1599.9,1795.9 1619.9,1805.8 1639.7,1817.2 1659.3,1829.8 1678.4,1843.7 1697.3,1858.8 1715.7,1875.0 1733.7,1892.2 1751.3,1910.4 1768.5,1929.5 1785.1,1949.3 1801.3,1969.8 1816.9,1990.8 1832.0,2012.2 1846.4,2034.0  " style="stroke-opacity: 1.000000; stroke-width: 5.0; stroke: rgb(107,174,214); fill: none"  />
<path d="M 1099.2,1994.5 L 1115.6,1974.7 1132.5,1955.3 1149.8,1936.4 1167.5,1918.1 1185.5,1900.6 1203.8,1883.9 1222.4,1868.2 1241.1,1853.5 1260.1,1840.0 1279.1,1827.7 1298.3,1816.7 1317.5,1807.1 1336.7,1798.8 1355.9,1792.1 1375.0,1786.8 1394.0,1783.1 1412.9,1781.0 1431.7,1780.4 1450.2,1781.4 1468.6,1784.1 1486.7,1788.3 1504.5,1794.1 1522.1,1801.5 1539.3,1810.4 1556.2,1820.8 1572.7,1832.7 1588.8,1846.0 1604.5,1860.7 1619.8,1876.6 1634.6,1893.8 1649.0,1912.1 1662.9,1931.4 1676.2,1951.7 1689.1,1972.9 1701.5,1994.8 1713.3,2017.3 1724.6,2040.3 1735.3,2063.7 1745.5,2087.2  " style="stroke-opacity: 1.000000; stroke-width: 5.0; stroke: rgb(107,174,214); fill: none"  />
<path d="M 1099.2,1994.5 L 1115.4,1975.0 1131.9,1955.8 1148.8,1937.2 1165.9,1919.2 1183.2,1902.0 1200.8,1885.6 1218.4,1870.3 1236.1,1856.0 1253.8,1842.9 1271.5,1831.1 1289.1,1820.7 1306.7,1811.6 1324.0,1804.0 1341.2,1797.9 1358.1,1793.4 1374.8,1790.4 1391.2,1789.1 1407.2,1789.4 1423.0,1791.4 1438.3,1795.0 1453.2,1800.3 1467.7,1807.2 1481.8,1815.7 1495.4,1825.8 1508.5,1837.5 1521.1,1850.6 1533.2,1865.2 1544.8,1881.1 1555.9,1898.4 1566.4,1916.9 1576.4,1936.5 1585.8,1957.2 1594.7,1978.8 1603.0,2001.3 1610.8,2024.5 1618.1,2048.2 1624.8,2072.5 1631.0,2097.0 1636.7,2121.6  " style="stroke-opacity: 1.000000; stroke-width: 5.0; stroke: rgb(107,174,214); fill: none"  />
<path d="M 1099.2,1994.5 L 1114.9,1975.3 1130.9,1956.5 1146.9,1938.2 1162.9,1920.5 1179.0,1903.5 1194.9,1887.3 1210.6,1872.2 1226.0,1858.1 1241.2,1845.2 1256.0,1833.5 1270.4,1823.2 1284.3,1814.3 1297.7,1806.9 1310.6,1801.0 1322.9,1796.7 1334.5,1794.0 1345.6,1792.9 1355.9,1793.5 1365.5,1795.7 1374.4,1799.6 1382.6,1805.1 1390.1,1812.3 1396.7,1821.2 1402.7,1831.6 1407.8,1843.5 1412.3,1857.0 1415.9,1871.8 1418.9,1888.1 1421.1,1905.7 1422.6,1924.4 1423.4,1944.3 1423.6,1965.2 1423.2,1987.1 1422.2,2009.7 1420.6,2033.0 1418.5,2056.8 1415.9,2081.0 1412.9,2105.5 1409.6,2130.0  " style="stroke-opacity: 1.000000; stroke-width: 5.0; stroke: rgb(107,174,214); fill: none"  />
<path d="M 1099.2,1994.5 L 1114.7,1975.5 1130.1,1956.7 1145.4,1938.3 1160.5,1920.4 1175.3,1903.1 1189.7,1886.6 1203.6,1870.9 1217.0,1856.2 1229.7,1842.5 1241.7,1830.0 1253.0,1818.7 1263.5,1808.6 1273.1,1800.0 1281.8,1792.7 1289.6,1786.9 1296.4,1782.5 1302.3,1779.7 1307.1,1778.5 1310.8,1778.7 1313.6,1780.6 1315.3,1784.0 1315.9,1788.9 1315.5,1795.3 1314.1,1803.3 1311.6,1812.7 1308.2,1823.5 1303.8,1835.7 1298.5,1849.2 1292.3,1863.9 1285.2,1879.8 1277.4,1896.7 1268.8,1914.7 1259.6,1933.5 1249.7,1953.1 1239.3,1973.3 1228.4,1994.1 1217.2,2015.2 1205.7,2036.6 1194.0,2058.1  " style="stroke-opacity: 1.000000; stroke-width: 5.0; stroke: rgb(107,174,214); fill: none"  />
</g>
<defs>
<pattern id="hline" width="10" height="10" patternTransform="rotate(0 0 0)" patternUnits="userSpaceOnUse"><line x1="0" y1="0" x2="10" y2="0" style="stroke:black;stroke-width:5" /></pattern>
<pattern id="checker" width="10" height="10" patternTransform="rotate(45 0 0)" patternUnits="userSpaceOnUse"><line x1="0" y1="0" x2="10" y2="0" style="stroke:black;stroke-width:5" /><line x1="0" y1="0" x2="0" y2="10" style="stroke:black;stroke-width:4" /></pattern>
<pattern id="checker" width="10" height="10" patternTransform="rotate(45 0 0)" patternUnits="userSpaceOnUse"><line x1="0" y1="0" x2="10" y2="0" style="stroke:black;stroke-width:2" /><line x1="0" y1="0" x2="0" y2="10" style="stroke:black;stroke-width:2" /></pattern>
<pattern id="hline-sparse" width="10" height="10" patternTransform="rotate(0 0 0)" patternUnits="userSpaceOnUse"><line x1="0" y1="0" x2="10" y2="0" style="stroke:black;stroke-width:2" /></pattern>
<pattern id="vline-sparse" width="10" height="10" patternTransform="rotate(0 0 0)" patternUnits="userSpaceOnUse"><line x1="0" y1="0" x2="0" y2="10" style="stroke:black;stroke-width:2" /></pattern>
<pattern id="vline" width="10" height="10" patternTransform="rotate(0 0 0)" patternUnits="userSpaceOnUse"><line x1="0" y1="0" x2="0" y2="10" style="stroke:black;stroke-width:5" /></pattern>
</defs>
</svg>
