<?xml version="1.0" encoding="utf-8" standalone="no"?>
<!DOCTYPE svg PUBLIC "-//W3C//DTD SVG 1.1//EN" "http://www.w3.org/Graphics/SVG/1.1/DTD/svg11.dtd">
<svg width="3000px" height="3000px" version="1.1" xmlns="http://www.w3.org/2000/svg" xmlns:xlink="http://www.w3.org/1999/xlink">
<g id="bg">
<rect x="0" y="0" width="3000px" height="3000px" style="fill:rgb(255,255,255);"/>
</g>
<g id="ideograms">
<path d="M1500.000,535.000 A965.000,965.000 40.000 0,1 1601.714,540.376 L1618.579,381.267 A1125.000,1125.000 0.000 0,0 1500.000,375.000 Z" style="stroke-width:2.0;stroke:rgb(115,115,115);stroke-linecap:round;fill:rgb(153,204,255);" />
<text x="1637.1" y="307.9" font-size="195.0px" font-family="CMUBright-Bold" style="text-anchor:start;fill:rgb(0,0,0);" transform="rotate(273.0,1637.1,307.9)" >3</text>
<path d="M1500.000,535.000 A965.000,965.000 40.000 0,1 1601.714,540.376 L1618.579,381.267 A1125.000,1125.000 0.000 0,0 1500.000,375.000 Z" style="stroke-width:2.0;stroke:rgb(115,115,115);stroke-linecap:round;fill:none;" />
<path d="M1672.307,550.508 A965.000,965.000 40.000 0,1 1771.427,573.959 L1816.431,420.418 A1125.000,1125.000 0.000 0,0 1700.877,393.079 Z" style="stroke-width:2.0;stroke:rgb(115,115,115);stroke-linecap:round;fill:rgb(153,204,255);" />
<text x="1847.7" y="351.5" font-size="195.0px" font-family="CMUBright-Bold" style="text-anchor:start;fill:rgb(0,0,0);" transform="rotate(283.3,1847.7,351.5)" >15</text>
<path d="M1672.307,550.508 A965.000,965.000 40.000 0,1 1771.427,573.959 L1816.431,420.418 A1125.000,1125.000 0.000 0,0 1700.877,393.079 Z" style="stroke-width:2.0;stroke:rgb(115,115,115);stroke-linecap:round;fill:none;" />
<path d="M1839.077,596.533 A965.000,965.000 40.000 0,1 1932.417,637.306 L2004.113,494.269 A1125.000,1125.000 0.000 0,0 1895.297,446.736 Z" style="stroke-width:2.0;stroke:rgb(115,115,115);stroke-linecap:round;fill:rgb(153,204,255);" />
<text x="2047.2" y="432.0" font-size="195.0px" font-family="CMUBright-Bold" style="text-anchor:start;fill:rgb(0,0,0);" transform="rotate(293.6,2047.2,432.0)" >19</text>
<path d="M1839.077,596.533 A965.000,965.000 40.000 0,1 1932.417,637.306 L2004.113,494.269 A1125.000,1125.000 0.000 0,0 1895.297,446.736 Z" style="stroke-width:2.0;stroke:rgb(115,115,115);stroke-linecap:round;fill:none;" />
<path d="M1994.948,671.597 A965.000,965.000 40.000 0,1 2079.507,728.381 L2175.592,600.444 A1125.000,1125.000 0.000 0,0 2077.012,534.245 Z" style="stroke-width:2.0;stroke:rgb(115,115,115);stroke-linecap:round;fill:rgb(153,204,255);" />
<text x="2227.5" y="545.7" font-size="195.0px" font-family="CMUBright-Bold" style="text-anchor:start;fill:rgb(0,0,0);" transform="rotate(303.9,2227.5,545.7)" >22</text>
<path d="M1994.948,671.597 A965.000,965.000 40.000 0,1 2079.507,728.381 L2175.592,600.444 A1125.000,1125.000 0.000 0,0 2077.012,534.245 Z" style="stroke-width:2.0;stroke:rgb(115,115,115);stroke-linecap:round;fill:none;" />
<path d="M2134.911,773.286 A965.000,965.000 40.000 0,1 2207.972,844.256 L2325.356,735.532 A1125.000,1125.000 0.000 0,0 2240.181,652.795 Z" style="stroke-width:2.0;stroke:rgb(115,115,115);stroke-linecap:round;fill:rgb(153,204,255);" />
<text x="2387.6" y="692.4" font-size="195.0px" font-family="CMUBright-Bold" style="text-anchor:start;fill:rgb(0,0,0);" transform="rotate(314.2,2387.6,692.4)" >33</text>
<path d="M2134.911,773.286 A965.000,965.000 40.000 0,1 2207.972,844.256 L2325.356,735.532 A1125.000,1125.000 0.000 0,0 2240.181,652.795 Z" style="stroke-width:2.0;stroke:rgb(115,115,115);stroke-linecap:round;fill:none;" />
<path d="M2254.467,898.332 A965.000,965.000 40.000 0,1 2313.683,981.207 L2448.594,895.190 A1125.000,1125.000 0.000 0,0 2379.560,798.574 Z" style="stroke-width:2.0;stroke:rgb(115,115,115);stroke-linecap:round;fill:rgb(153,204,255);" />
<text x="2517.5" y="863.9" font-size="195.0px" font-family="CMUBright-Bold" style="text-anchor:start;fill:rgb(0,0,0);" transform="rotate(324.5,2517.5,863.9)" >35</text>
<path d="M2254.467,898.332 A965.000,965.000 40.000 0,1 2313.683,981.207 L2448.594,895.190 A1125.000,1125.000 0.000 0,0 2379.560,798.574 Z" style="stroke-width:2.0;stroke:rgb(115,115,115);stroke-linecap:round;fill:none;" />
<path d="M2349.775,1042.717 A965.000,965.000 40.000 0,1 2393.240,1134.833 L2541.342,1074.288 A1125.000,1125.000 0.000 0,0 2490.670,966.898 Z" style="stroke-width:2.0;stroke:rgb(115,115,115);stroke-linecap:round;fill:rgb(116,196,118);" />
<text x="2614.0" y="1053.9" font-size="195.0px" font-family="CMUBright-Bold" style="text-anchor:start;fill:rgb(0,0,0);" transform="rotate(334.7,2614.0,1053.9)" >2</text>
<path d="M2349.775,1042.717 A965.000,965.000 40.000 0,1 2393.240,1134.833 L2541.342,1074.288 A1125.000,1125.000 0.000 0,0 2490.670,966.898 Z" style="stroke-width:2.0;stroke:rgb(115,115,115);stroke-linecap:round;fill:none;" />
<path d="M2417.770,1201.799 A965.000,965.000 40.000 0,1 2444.089,1300.196 L2600.621,1267.068 A1125.000,1125.000 0.000 0,0 2569.939,1152.356 Z" style="stroke-width:2.0;stroke:rgb(115,115,115);stroke-linecap:round;fill:rgb(116,196,118);" />
<text x="2675.4" y="1258.0" font-size="195.0px" font-family="CMUBright-Bold" style="text-anchor:start;fill:rgb(0,0,0);" transform="rotate(345.0,2675.4,1258.0)" >4</text>
<path d="M2417.770,1201.799 A965.000,965.000 40.000 0,1 2444.089,1300.196 L2600.621,1267.068 A1125.000,1125.000 0.000 0,0 2569.939,1152.356 Z" style="stroke-width:2.0;stroke:rgb(115,115,115);stroke-linecap:round;fill:none;" />
<path d="M2456.267,1370.465 A965.000,965.000 40.000 0,1 2464.593,1471.980 L2624.526,1467.335 A1125.000,1125.000 0.000 0,0 2614.818,1348.988 Z" style="stroke-width:2.0;stroke:rgb(115,115,115);stroke-linecap:round;fill:rgb(116,196,118);" />
<text x="2699.8" y="1475.8" font-size="195.0px" font-family="CMUBright-Bold" style="text-anchor:start;fill:rgb(0,0,0);" transform="rotate(355.3,2699.8,1475.8)" >6</text>
<path d="M2456.267,1370.465 A965.000,965.000 40.000 0,1 2464.593,1471.980 L2624.526,1467.335 A1125.000,1125.000 0.000 0,0 2614.818,1348.988 Z" style="stroke-width:2.0;stroke:rgb(115,115,115);stroke-linecap:round;fill:none;" />
<path d="M2464.028,1543.295 A965.000,965.000 40.000 0,1 2454.095,1644.665 L2612.287,1668.651 A1125.000,1125.000 0.000 0,0 2623.867,1550.473 Z" style="stroke-width:2.0;stroke:rgb(115,115,115);stroke-linecap:round;fill:rgb(116,196,118);" />
<text x="2685.1" y="1688.4" font-size="195.0px" font-family="CMUBright-Bold" style="text-anchor:start;fill:rgb(0,0,0);" transform="rotate(5.6,2685.1,1688.4)" >14</text>
<path d="M2464.028,1543.295 A965.000,965.000 40.000 0,1 2454.095,1644.665 L2612.287,1668.651 A1125.000,1125.000 0.000 0,0 2623.867,1550.473 Z" style="stroke-width:2.0;stroke:rgb(115,115,115);stroke-linecap:round;fill:none;" />
<path d="M2440.805,1714.733 A965.000,965.000 40.000 0,1 2412.931,1812.701 L2564.298,1864.548 A1125.000,1125.000 0.000 0,0 2596.794,1750.336 Z" style="stroke-width:2.0;stroke:rgb(115,115,115);stroke-linecap:round;fill:rgb(116,196,118);" />
<text x="2631.8" y="1898.9" font-size="195.0px" font-family="CMUBright-Bold" style="text-anchor:start;fill:rgb(0,0,0);" transform="rotate(15.9,2631.8,1898.9)" >23</text>
<path d="M2440.805,1714.733 A965.000,965.000 40.000 0,1 2412.931,1812.701 L2564.298,1864.548 A1125.000,1125.000 0.000 0,0 2596.794,1750.336 Z" style="stroke-width:2.0;stroke:rgb(115,115,115);stroke-linecap:round;fill:none;" />
<path d="M2387.344,1879.269 A965.000,965.000 40.000 0,1 2342.425,1970.686 L2482.102,2048.727 A1125.000,1125.000 0.000 0,0 2534.469,1942.153 Z" style="stroke-width:2.0;stroke:rgb(115,115,115);stroke-linecap:round;fill:rgb(116,196,118);" />
<text x="2543.3" y="2092.8" font-size="195.0px" font-family="CMUBright-Bold" style="text-anchor:start;fill:rgb(0,0,0);" transform="rotate(26.2,2543.3,2092.8)" >24</text>
<path d="M2387.344,1879.269 A965.000,965.000 40.000 0,1 2342.425,1970.686 L2482.102,2048.727 A1125.000,1125.000 0.000 0,0 2534.469,1942.153 Z" style="stroke-width:2.0;stroke:rgb(115,115,115);stroke-linecap:round;fill:none;" />
<path d="M2305.363,2031.616 A965.000,965.000 40.000 0,1 2244.843,2113.542 L2368.340,2215.270 A1125.000,1125.000 0.000 0,0 2438.895,2119.759 Z" style="stroke-width:2.0;stroke:rgb(115,115,115);stroke-linecap:round;fill:rgb(116,196,118);" />
<text x="2419.4" y="2271.1" font-size="195.0px" font-family="CMUBright-Bold" style="text-anchor:start;fill:rgb(0,0,0);" transform="rotate(36.5,2419.4,2271.1)" >26</text>
<path d="M2305.363,2031.616 A965.000,965.000 40.000 0,1 2244.843,2113.542 L2368.340,2215.270 A1125.000,1125.000 0.000 0,0 2438.895,2119.759 Z" style="stroke-width:2.0;stroke:rgb(115,115,115);stroke-linecap:round;fill:none;" />
<path d="M2197.497,2166.875 A965.000,965.000 40.000 0,1 2123.321,2236.679 L2226.669,2358.823 A1125.000,1125.000 0.000 0,0 2313.144,2277.445 Z" style="stroke-width:2.0;stroke:rgb(115,115,115);stroke-linecap:round;fill:rgb(153,0,204);" />
<text x="2268.5" y="2421.6" font-size="195.0px" font-family="CMUBright-Bold" style="text-anchor:start;fill:rgb(0,0,0);" transform="rotate(46.7,2268.5,2421.6)" >1</text>
<path d="M2197.497,2166.875 A965.000,965.000 40.000 0,1 2123.321,2236.679 L2226.669,2358.823 A1125.000,1125.000 0.000 0,0 2313.144,2277.445 Z" style="stroke-width:2.0;stroke:rgb(115,115,115);stroke-linecap:round;fill:none;" />
<path d="M2067.213,2280.701 A965.000,965.000 40.000 0,1 1981.764,2336.139 L2061.642,2474.773 A1125.000,1125.000 0.000 0,0 2161.258,2410.144 Z" style="stroke-width:2.0;stroke:rgb(115,115,115);stroke-linecap:round;fill:rgb(153,0,204);" />
<text x="2092.5" y="2543.6" font-size="195.0px" font-family="CMUBright-Bold" style="text-anchor:start;fill:rgb(0,0,0);" transform="rotate(57.0,2092.5,2543.6)" >7</text>
<path d="M2067.213,2280.701 A965.000,965.000 40.000 0,1 1981.764,2336.139 L2061.642,2474.773 A1125.000,1125.000 0.000 0,0 2161.258,2410.144 Z" style="stroke-width:2.0;stroke:rgb(115,115,115);stroke-linecap:round;fill:none;" />
<path d="M1918.698,2369.435 A965.000,965.000 40.000 0,1 1824.724,2408.724 L1878.564,2559.393 A1125.000,1125.000 0.000 0,0 1988.119,2513.590 Z" style="stroke-width:2.0;stroke:rgb(115,115,115);stroke-linecap:round;fill:rgb(153,0,204);" />
<text x="1893.8" y="2633.6" font-size="195.0px" font-family="CMUBright-Bold" style="text-anchor:start;fill:rgb(0,0,0);" transform="rotate(67.3,1893.8,2633.6)" >9</text>
<path d="M1918.698,2369.435 A965.000,965.000 40.000 0,1 1824.724,2408.724 L1878.564,2559.393 A1125.000,1125.000 0.000 0,0 1988.119,2513.590 Z" style="stroke-width:2.0;stroke:rgb(115,115,115);stroke-linecap:round;fill:none;" />
<path d="M1756.726,2430.224 A965.000,965.000 40.000 0,1 1657.246,2452.102 L1683.318,2609.964 A1125.000,1125.000 0.000 0,0 1799.291,2584.458 Z" style="stroke-width:2.0;stroke:rgb(115,115,115);stroke-linecap:round;fill:rgb(153,0,204);" />
<text x="1687.0" y="2685.3" font-size="195.0px" font-family="CMUBright-Bold" style="text-anchor:start;fill:rgb(0,0,0);" transform="rotate(77.6,1687.0,2685.3)" >12</text>
<path d="M1756.726,2430.224 A965.000,965.000 40.000 0,1 1657.246,2452.102 L1683.318,2609.964 A1125.000,1125.000 0.000 0,0 1799.291,2584.458 Z" style="stroke-width:2.0;stroke:rgb(115,115,115);stroke-linecap:round;fill:none;" />
<path d="M1586.502,2461.115 A965.000,965.000 40.000 0,1 1484.715,2464.879 L1482.181,2624.859 A1125.000,1125.000 0.000 0,0 1600.844,2620.471 Z" style="stroke-width:2.0;stroke:rgb(115,115,115);stroke-linecap:round;fill:rgb(153,0,204);" />
<text x="1470.4" y="2699.6" font-size="195.0px" font-family="CMUBright-Bold" style="text-anchor:start;fill:rgb(0,0,0);" transform="rotate(87.9,1470.4,2699.6)" >16</text>
<path d="M1586.502,2461.115 A965.000,965.000 40.000 0,1 1484.715,2464.879 L1482.181,2624.859 A1125.000,1125.000 0.000 0,0 1600.844,2620.471 Z" style="stroke-width:2.0;stroke:rgb(115,115,115);stroke-linecap:round;fill:none;" />
<path d="M1413.498,2461.115 A965.000,965.000 40.000 0,1 1312.675,2446.644 L1281.616,2603.600 A1125.000,1125.000 0.000 0,0 1399.156,2620.471 Z" style="stroke-width:2.0;stroke:rgb(115,115,115);stroke-linecap:round;fill:rgb(153,0,204);" />
<text x="1402.0" y="2696.0" font-size="195.0px" font-family="CMUBright-Bold" style="text-anchor:end;fill:rgb(0,0,0);" transform="rotate(-81.8,1402.0,2696.0)" >17</text>
<path d="M1413.498,2461.115 A965.000,965.000 40.000 0,1 1312.675,2446.644 L1281.616,2603.600 A1125.000,1125.000 0.000 0,0 1399.156,2620.471 Z" style="stroke-width:2.0;stroke:rgb(115,115,115);stroke-linecap:round;fill:none;" />
<path d="M1243.274,2430.224 A965.000,965.000 40.000 0,1 1146.656,2397.983 L1088.070,2546.871 A1125.000,1125.000 0.000 0,0 1200.709,2584.458 Z" style="stroke-width:2.0;stroke:rgb(115,115,115);stroke-linecap:round;fill:rgb(153,0,204);" />
<text x="1191.0" y="2659.5" font-size="195.0px" font-family="CMUBright-Bold" style="text-anchor:end;fill:rgb(0,0,0);" transform="rotate(-71.5,1191.0,2659.5)" >20</text>
<path d="M1243.274,2430.224 A965.000,965.000 40.000 0,1 1146.656,2397.983 L1088.070,2546.871 A1125.000,1125.000 0.000 0,0 1200.709,2584.458 Z" style="stroke-width:2.0;stroke:rgb(115,115,115);stroke-linecap:round;fill:none;" />
<path d="M1081.302,2369.435 A965.000,965.000 40.000 0,1 991.993,2320.460 L907.764,2456.494 A1125.000,1125.000 0.000 0,0 1011.881,2513.590 Z" style="stroke-width:2.0;stroke:rgb(115,115,115);stroke-linecap:round;fill:rgb(153,0,204);" />
<text x="988.9" y="2585.7" font-size="195.0px" font-family="CMUBright-Bold" style="text-anchor:end;fill:rgb(0,0,0);" transform="rotate(-61.3,988.9,2585.7)" >25</text>
<path d="M1081.302,2369.435 A965.000,965.000 40.000 0,1 991.993,2320.460 L907.764,2456.494 A1125.000,1125.000 0.000 0,0 1011.881,2513.590 Z" style="stroke-width:2.0;stroke:rgb(115,115,115);stroke-linecap:round;fill:none;" />
<path d="M932.787,2280.701 A965.000,965.000 40.000 0,1 853.658,2216.566 L746.493,2335.375 A1125.000,1125.000 0.000 0,0 838.742,2410.144 Z" style="stroke-width:2.0;stroke:rgb(115,115,115);stroke-linecap:round;fill:rgb(153,0,204);" />
<text x="803.3" y="2477.0" font-size="195.0px" font-family="CMUBright-Bold" style="text-anchor:end;fill:rgb(0,0,0);" transform="rotate(-51.0,803.3,2477.0)" >34</text>
<path d="M932.787,2280.701 A965.000,965.000 40.000 0,1 853.658,2216.566 L746.493,2335.375 A1125.000,1125.000 0.000 0,0 838.742,2410.144 Z" style="stroke-width:2.0;stroke:rgb(115,115,115);stroke-linecap:round;fill:none;" />
<path d="M802.503,2166.875 A965.000,965.000 40.000 0,1 736.097,2089.642 L609.440,2187.406 A1125.000,1125.000 0.000 0,0 686.856,2277.445 Z" style="stroke-width:2.0;stroke:rgb(115,115,115);stroke-linecap:round;fill:rgb(253,208,162);" />
<text x="638.6" y="2335.5" font-size="195.0px" font-family="CMUBright-Bold" style="text-anchor:end;fill:rgb(0,0,0);" transform="rotate(-40.7,638.6,2335.5)" >5</text>
<path d="M802.503,2166.875 A965.000,965.000 40.000 0,1 736.097,2089.642 L609.440,2187.406 A1125.000,1125.000 0.000 0,0 686.856,2277.445 Z" style="stroke-width:2.0;stroke:rgb(115,115,115);stroke-linecap:round;fill:none;" />
<path d="M694.637,2031.616 A965.000,965.000 40.000 0,1 643.089,1943.766 L501.010,2017.344 A1125.000,1125.000 0.000 0,0 561.105,2119.759 Z" style="stroke-width:2.0;stroke:rgb(115,115,115);stroke-linecap:round;fill:rgb(253,208,162);" />
<text x="504.4" y="2169.9" font-size="195.0px" font-family="CMUBright-Bold" style="text-anchor:end;fill:rgb(0,0,0);" transform="rotate(-30.4,504.4,2169.9)" >8</text>
<path d="M694.637,2031.616 A965.000,965.000 40.000 0,1 643.089,1943.766 L501.010,2017.344 A1125.000,1125.000 0.000 0,0 561.105,2119.759 Z" style="stroke-width:2.0;stroke:rgb(115,115,115);stroke-linecap:round;fill:none;" />
<path d="M612.656,1879.269 A965.000,965.000 40.000 0,1 577.622,1783.627 L424.689,1830.653 A1125.000,1125.000 0.000 0,0 465.531,1942.153 Z" style="stroke-width:2.0;stroke:rgb(115,115,115);stroke-linecap:round;fill:rgb(253,208,162);" />
<text x="400.8" y="1981.4" font-size="195.0px" font-family="CMUBright-Bold" style="text-anchor:end;fill:rgb(0,0,0);" transform="rotate(-20.1,400.8,1981.4)" >10</text>
<path d="M612.656,1879.269 A965.000,965.000 40.000 0,1 577.622,1783.627 L424.689,1830.653 A1125.000,1125.000 0.000 0,0 465.531,1942.153 Z" style="stroke-width:2.0;stroke:rgb(115,115,115);stroke-linecap:round;fill:none;" />
<path d="M559.195,1714.733 A965.000,965.000 40.000 0,1 541.802,1614.372 L382.929,1633.336 A1125.000,1125.000 0.000 0,0 403.206,1750.336 Z" style="stroke-width:2.0;stroke:rgb(115,115,115);stroke-linecap:round;fill:rgb(253,208,162);" />
<text x="332.0" y="1775.4" font-size="195.0px" font-family="CMUBright-Bold" style="text-anchor:end;fill:rgb(0,0,0);" transform="rotate(-9.8,332.0,1775.4)" >21</text>
<path d="M559.195,1714.733 A965.000,965.000 40.000 0,1 541.802,1614.372 L382.929,1633.336 A1125.000,1125.000 0.000 0,0 403.206,1750.336 Z" style="stroke-width:2.0;stroke:rgb(115,115,115);stroke-linecap:round;fill:none;" />
<path d="M535.972,1543.295 A965.000,965.000 40.000 0,1 536.778,1441.441 L377.073,1431.732 A1125.000,1125.000 0.000 0,0 376.133,1550.473 Z" style="stroke-width:2.0;stroke:rgb(115,115,115);stroke-linecap:round;fill:rgb(253,141,60);" />
<text x="301.6" y="1562.5" font-size="195.0px" font-family="CMUBright-Bold" style="text-anchor:end;fill:rgb(0,0,0);" transform="rotate(0.5,301.6,1562.5)" >11</text>
<path d="M535.972,1543.295 A965.000,965.000 40.000 0,1 536.778,1441.441 L377.073,1431.732 A1125.000,1125.000 0.000 0,0 376.133,1550.473 Z" style="stroke-width:2.0;stroke:rgb(115,115,115);stroke-linecap:round;fill:none;" />
<path d="M543.733,1370.465 A965.000,965.000 40.000 0,1 562.714,1270.393 L407.309,1232.323 A1125.000,1125.000 0.000 0,0 385.182,1348.988 Z" style="stroke-width:2.0;stroke:rgb(115,115,115);stroke-linecap:round;fill:rgb(253,141,60);" />
<text x="309.5" y="1349.5" font-size="195.0px" font-family="CMUBright-Bold" style="text-anchor:end;fill:rgb(0,0,0);" transform="rotate(10.7,309.5,1349.5)" >30</text>
<path d="M543.733,1370.465 A965.000,965.000 40.000 0,1 562.714,1270.393 L407.309,1232.323 A1125.000,1125.000 0.000 0,0 385.182,1348.988 Z" style="stroke-width:2.0;stroke:rgb(115,115,115);stroke-linecap:round;fill:none;" />
<path d="M582.230,1201.799 A965.000,965.000 40.000 0,1 618.774,1106.724 L472.664,1041.517 A1125.000,1125.000 0.000 0,0 430.061,1152.356 Z" style="stroke-width:2.0;stroke:rgb(115,115,115);stroke-linecap:round;fill:rgb(253,141,60);" />
<text x="355.5" y="1139.3" font-size="195.0px" font-family="CMUBright-Bold" style="text-anchor:end;fill:rgb(0,0,0);" transform="rotate(21.0,355.5,1139.3)" >31</text>
<path d="M582.230,1201.799 A965.000,965.000 40.000 0,1 618.774,1106.724 L472.664,1041.517 A1125.000,1125.000 0.000 0,0 430.061,1152.356 Z" style="stroke-width:2.0;stroke:rgb(115,115,115);stroke-linecap:round;fill:none;" />
<path d="M650.225,1042.717 A965.000,965.000 40.000 0,1 703.158,955.695 L571.039,865.447 A1125.000,1125.000 0.000 0,0 509.330,966.898 Z" style="stroke-width:2.0;stroke:rgb(115,115,115);stroke-linecap:round;fill:rgb(253,141,60);" />
<text x="438.3" y="940.7" font-size="195.0px" font-family="CMUBright-Bold" style="text-anchor:end;fill:rgb(0,0,0);" transform="rotate(31.3,438.3,940.7)" >32</text>
<path d="M650.225,1042.717 A965.000,965.000 40.000 0,1 703.158,955.695 L571.039,865.447 A1125.000,1125.000 0.000 0,0 509.330,966.898 Z" style="stroke-width:2.0;stroke:rgb(115,115,115);stroke-linecap:round;fill:none;" />
<path d="M745.533,898.332 A965.000,965.000 40.000 0,1 813.153,822.160 L699.272,709.772 A1125.000,1125.000 0.000 0,0 620.440,798.574 Z" style="stroke-width:2.0;stroke:rgb(115,115,115);stroke-linecap:round;fill:rgb(66,146,198);" />
<text x="555.2" y="760.2" font-size="195.0px" font-family="CMUBright-Bold" style="text-anchor:end;fill:rgb(0,0,0);" transform="rotate(41.6,555.2,760.2)" >13</text>
<path d="M745.533,898.332 A965.000,965.000 40.000 0,1 813.153,822.160 L699.272,709.772 A1125.000,1125.000 0.000 0,0 620.440,798.574 Z" style="stroke-width:2.0;stroke:rgb(115,115,115);stroke-linecap:round;fill:none;" />
<path d="M865.089,773.286 A965.000,965.000 40.000 0,1 945.224,710.412 L853.241,579.496 A1125.000,1125.000 0.000 0,0 759.819,652.795 Z" style="stroke-width:2.0;stroke:rgb(115,115,115);stroke-linecap:round;fill:rgb(66,146,198);" />
<text x="702.5" y="603.4" font-size="195.0px" font-family="CMUBright-Bold" style="text-anchor:end;fill:rgb(0,0,0);" transform="rotate(51.9,702.5,603.4)" >18</text>
<path d="M865.089,773.286 A965.000,965.000 40.000 0,1 945.224,710.412 L853.241,579.496 A1125.000,1125.000 0.000 0,0 759.819,652.795 Z" style="stroke-width:2.0;stroke:rgb(115,115,115);stroke-linecap:round;fill:none;" />
<path d="M1005.052,671.597 A965.000,965.000 40.000 0,1 1095.126,624.042 L1027.997,478.806 A1125.000,1125.000 0.000 0,0 922.988,534.245 Z" style="stroke-width:2.0;stroke:rgb(115,115,115);stroke-linecap:round;fill:rgb(66,146,198);" />
<text x="876.3" y="474.8" font-size="195.0px" font-family="CMUBright-Bold" style="text-anchor:end;fill:rgb(0,0,0);" transform="rotate(62.2,876.3,474.8)" >27</text>
<path d="M1005.052,671.597 A965.000,965.000 40.000 0,1 1095.126,624.042 L1027.997,478.806 A1125.000,1125.000 0.000 0,0 922.988,534.245 Z" style="stroke-width:2.0;stroke:rgb(115,115,115);stroke-linecap:round;fill:none;" />
<path d="M1160.923,596.533 A965.000,965.000 40.000 0,1 1258.041,565.826 L1217.923,410.937 A1125.000,1125.000 0.000 0,0 1104.703,446.736 Z" style="stroke-width:2.0;stroke:rgb(115,115,115);stroke-linecap:round;fill:rgb(66,146,198);" />
<text x="1068.4" y="380.3" font-size="195.0px" font-family="CMUBright-Bold" style="text-anchor:end;fill:rgb(0,0,0);" transform="rotate(72.5,1068.4,380.3)" >28</text>
<path d="M1160.923,596.533 A965.000,965.000 40.000 0,1 1258.041,565.826 L1217.923,410.937 A1125.000,1125.000 0.000 0,0 1104.703,446.736 Z" style="stroke-width:2.0;stroke:rgb(115,115,115);stroke-linecap:round;fill:none;" />
<path d="M1327.693,550.508 A965.000,965.000 40.000 0,1 1428.732,537.635 L1416.916,378.072 A1125.000,1125.000 0.000 0,0 1299.123,393.079 Z" style="stroke-width:2.0;stroke:rgb(115,115,115);stroke-linecap:round;fill:rgb(66,146,198);" />
<text x="1275.3" y="321.2" font-size="195.0px" font-family="CMUBright-Bold" style="text-anchor:end;fill:rgb(0,0,0);" transform="rotate(82.7,1275.3,321.2)" >29</text>
<path d="M1327.693,550.508 A965.000,965.000 40.000 0,1 1428.732,537.635 L1416.916,378.072 A1125.000,1125.000 0.000 0,0 1299.123,393.079 Z" style="stroke-width:2.0;stroke:rgb(115,115,115);stroke-linecap:round;fill:none;" />
</g>
<g id="track_1">
<path d="M 709.3,1964.0 L 749.4,1940.4 789.5,1916.7 829.7,1892.9 869.8,1869.0 910.0,1844.9 950.1,1820.8 990.3,1796.5 1030.4,1772.2 1070.5,1747.7 1110.6,1723.1 1150.7,1698.3 1190.7,1673.5 1230.7,1648.6 1270.6,1623.5 1310.5,1598.3 1350.4,1573.1 1390.2,1547.7 1429.9,1522.2 1469.6,1496.6 1509.2,1470.9 1548.8,1445.1 1588.3,1419.2 1627.7,1393.2 1667.0,1367.1 1706.3,1340.9 1745.4,1314.6 1784.5,1288.3 1823.5,1261.8 1862.4,1235.3 1901.2,1208.7 1939.9,1182.1 1978.5,1155.4 2017.0,1128.6 2055.4,1101.8 2093.8,1074.9 2132.0,1048.0 2170.0,1021.0 2208.0,994.1 2245.9,967.0  " style="stroke-opacity: 1.000000; stroke-width: 5.0; stroke: rgb(251,106,74); fill: none"  />
<path d="M 1853.6,2345.8 L 1838.1,2309.9 1821.6,2274.2 1804.1,2238.8 1785.6,2203.8 1766.0,2169.4 1745.4,2135.7 1723.8,2102.8 1701.1,2070.8 1677.4,2039.8 1652.7,2010.0 1627.0,1981.4 1600.2,1954.1 1572.5,1928.2 1543.8,1903.7 1514.2,1880.7 1483.7,1859.3 1452.3,1839.5 1420.0,1821.3 1387.0,1804.8 1353.2,1790.0 1318.6,1777.0 1283.4,1765.7 1247.5,1756.1 1211.0,1748.3 1174.1,1742.2 1136.6,1737.8 1098.7,1735.0 1060.5,1734.0 1022.1,1734.6 983.4,1736.7 944.6,1740.3 905.7,1745.4 866.8,1751.9 828.1,1759.7 789.6,1768.7 751.3,1778.9 713.4,1790.2 676.0,1802.3 639.2,1815.3  " style="stroke-opacity: 1.000000; stroke-width: 5.0; stroke: rgb(251,106,74); fill: none"  />
<path d="M 1853.6,2345.8 L 1835.9,2303.8 1818.0,2261.8 1799.6,2219.7 1781.0,2177.5 1762.1,2135.3 1742.8,2093.1 1723.2,2050.9 1703.2,2008.7 1682.9,1966.6 1662.3,1924.5 1641.3,1882.5 1620.0,1840.5 1598.3,1798.6 1576.3,1756.9 1554.0,1715.3 1531.3,1673.8 1508.3,1632.4 1485.0,1591.2 1461.3,1550.2 1437.3,1509.3 1413.0,1468.6 1388.5,1428.2 1363.6,1387.9 1338.4,1347.9 1313.0,1308.1 1287.2,1268.5 1261.3,1229.2 1235.0,1190.1 1208.6,1151.3 1181.9,1112.7 1155.0,1074.5 1127.9,1036.5 1100.6,998.8 1073.2,961.3 1045.6,924.2 1017.9,887.4 990.1,850.9 962.1,814.7 934.1,778.8  " style="stroke-opacity: 1.000000; stroke-width: 5.0; stroke: rgb(251,106,74); fill: none"  />
<path d="M 1853.6,2345.8 L 1835.6,2302.9 1817.5,2260.0 1799.3,2217.0 1781.0,2174.0 1762.6,2131.0 1744.1,2088.0 1725.4,2044.9 1706.7,2001.9 1687.8,1958.8 1668.8,1915.8 1649.7,1872.8 1630.4,1829.8 1611.1,1786.8 1591.6,1743.9 1572.0,1701.0 1552.3,1658.1 1532.5,1615.2 1512.6,1572.4 1492.5,1529.6 1472.4,1486.9 1452.1,1444.3 1431.7,1401.7 1411.3,1359.1 1390.7,1316.7 1370.0,1274.2 1349.2,1231.9 1328.4,1189.6 1307.4,1147.5 1286.4,1105.4 1265.2,1063.3 1244.0,1021.4 1222.7,979.5 1201.4,937.8 1179.9,896.1 1158.5,854.6 1136.9,813.1 1115.3,771.7 1093.7,730.5 1072.0,689.3  " style="stroke-opacity: 1.000000; stroke-width: 5.0; stroke: rgb(251,106,74); fill: none"  />
<path d="M 1853.6,2345.8 L 1835.7,2302.9 1817.9,2259.8 1800.1,2216.7 1782.3,2173.5 1764.6,2130.1 1747.0,2086.7 1729.5,2043.2 1712.1,1999.6 1694.7,1956.0 1677.4,1912.2 1660.2,1868.4 1643.1,1824.5 1626.1,1780.5 1609.2,1736.5 1592.4,1692.4 1575.8,1648.3 1559.2,1604.1 1542.7,1559.8 1526.3,1515.5 1510.1,1471.2 1494.0,1426.8 1478.0,1382.3 1462.1,1337.9 1446.3,1293.4 1430.6,1248.9 1415.1,1204.4 1399.7,1159.8 1384.4,1115.3 1369.2,1070.7 1354.1,1026.2 1339.2,981.6 1324.3,937.1 1309.6,892.5 1295.0,848.0 1280.5,803.5 1266.1,759.1 1251.9,714.6 1237.7,670.2 1223.6,625.9  " style="stroke-opacity: 1.000000; stroke-width: 5.0; stroke: rgb(251,106,74); fill: none"  />
<path d="M 639.2,1815.3 L 676.0,1802.3 713.4,1790.2 751.3,1778.9 789.6,1768.7 828.1,1759.7 866.8,1751.9 905.7,1745.4 944.6,1740.3 983.4,1736.7 1022.1,1734.6 1060.5,1734.0 1098.7,1735.0 1136.6,1737.8 1174.1,1742.2 1211.0,1748.3 1247.5,1756.1 1283.4,1765.7 1318.6,1777.0 1353.2,1790.0 1387.0,1804.8 1420.0,1821.3 1452.3,1839.5 1483.7,1859.3 1514.2,1880.7 1543.8,1903.7 1572.5,1928.2 1600.2,1954.1 1627.0,1981.4 1652.7,2010.0 1677.4,2039.8 1701.1,2070.8 1723.8,2102.8 1745.4,2135.7 1766.0,2169.4 1785.6,2203.8 1804.1,2238.8 1821.6,2274.2 1838.1,2309.9 1853.6,2345.8  " style="stroke-opacity: 1.000000; stroke-width: 5.0; stroke: rgb(251,106,74); fill: none"  />
<path d="M 639.2,1815.3 L 679.1,1800.3 719.1,1784.6 759.1,1768.0 799.1,1750.7 839.1,1732.4 878.9,1713.4 918.5,1693.4 957.9,1672.6 997.0,1650.9 1035.7,1628.3 1074.1,1604.9 1111.9,1580.5 1149.4,1555.3 1186.2,1529.2 1222.6,1502.3 1258.3,1474.4 1293.4,1445.8 1327.8,1416.3 1361.6,1386.0 1394.6,1354.9 1426.9,1323.1 1458.4,1290.5 1489.2,1257.2 1519.1,1223.2 1548.2,1188.6 1576.5,1153.4 1603.9,1117.5 1630.5,1081.2 1656.3,1044.4 1681.2,1007.1 1705.2,969.4 1728.4,931.3 1750.7,893.0 1772.1,854.4 1792.7,815.6 1812.5,776.7 1831.5,737.8 1849.6,698.8 1867.0,659.9  " style="stroke-opacity: 1.000000; stroke-width: 5.0; stroke: rgb(251,106,74); fill: none"  />
<path d="M 639.2,1815.3 L 678.4,1801.4 718.3,1788.0 758.8,1775.4 799.8,1763.5 841.3,1752.5 883.2,1742.4 925.5,1733.2 968.2,1725.0 1011.1,1717.9 1054.3,1711.8 1097.7,1706.9 1141.3,1703.2 1185.0,1700.6 1228.8,1699.3 1272.7,1699.2 1316.5,1700.3 1360.3,1702.7 1403.9,1706.4 1447.5,1711.3 1490.9,1717.6 1534.1,1725.1 1577.1,1733.8 1619.8,1743.8 1662.2,1755.1 1704.2,1767.5 1745.8,1781.1 1787.0,1795.9 1827.8,1811.7 1868.1,1828.6 1907.9,1846.6 1947.1,1865.5 1985.7,1885.4 2023.7,1906.1 2061.1,1927.6 2097.8,1949.8 2133.8,1972.8 2169.1,1996.3 2203.6,2020.3 2237.4,2044.7  " style="stroke-opacity: 1.000000; stroke-width: 5.0; stroke: rgb(251,106,74); fill: none"  />
<path d="M 1696.9,2395.4 L 1688.1,2357.3 1678.2,2319.2 1667.3,2281.2 1655.3,2243.5 1642.2,2206.2 1628.0,2169.3 1612.6,2133.1 1596.0,2097.5 1578.2,2062.9 1559.2,2029.1 1539.0,1996.3 1517.5,1964.7 1494.9,1934.2 1471.0,1905.0 1446.0,1877.1 1419.8,1850.6 1392.4,1825.5 1364.0,1801.9 1334.4,1779.7 1303.7,1759.2 1272.1,1740.1 1239.4,1722.7 1205.8,1706.9 1171.4,1692.7 1136.1,1680.1 1100.0,1669.1 1063.2,1659.6 1025.8,1651.8 987.9,1645.4 949.4,1640.6 910.6,1637.3 871.4,1635.4 832.0,1634.8 792.5,1635.6 753.0,1637.6 713.5,1640.8 674.3,1645.0 635.3,1650.3 596.7,1656.5  " style="stroke-opacity: 1.000000; stroke-width: 5.0; stroke: rgb(251,106,74); fill: none"  />
<path d="M 1696.9,2395.4 L 1687.0,2350.9 1676.8,2306.3 1666.3,2261.6 1655.5,2216.8 1644.4,2171.9 1633.0,2126.9 1621.2,2081.9 1609.1,2036.8 1596.7,1991.8 1583.9,1946.6 1570.7,1901.5 1557.2,1856.5 1543.4,1811.4 1529.2,1766.4 1514.7,1721.4 1499.8,1676.6 1484.5,1631.8 1468.9,1587.0 1453.0,1542.5 1436.7,1498.0 1420.0,1453.6 1403.1,1409.4 1385.8,1365.4 1368.2,1321.5 1350.2,1277.8 1332.0,1234.2 1313.5,1190.9 1294.6,1147.8 1275.5,1104.9 1256.2,1062.2 1236.5,1019.7 1216.7,977.5 1196.6,935.5 1176.2,893.8 1155.7,852.3 1135.0,811.1 1114.2,770.2 1093.1,729.6 1072.0,689.3  " style="stroke-opacity: 1.000000; stroke-width: 5.0; stroke: rgb(251,106,74); fill: none"  />
<path d="M 1696.9,2395.4 L 1686.9,2349.9 1676.7,2304.4 1666.5,2258.9 1656.2,2213.3 1645.7,2167.7 1635.2,2122.1 1624.5,2076.4 1613.7,2030.7 1602.8,1985.0 1591.8,1939.3 1580.7,1893.5 1569.4,1847.8 1558.1,1802.0 1546.6,1756.3 1535.0,1710.6 1523.3,1664.9 1511.4,1619.2 1499.4,1573.5 1487.4,1527.8 1475.1,1482.2 1462.8,1436.6 1450.4,1391.1 1437.8,1345.5 1425.2,1300.1 1412.4,1254.7 1399.5,1209.3 1386.5,1164.0 1373.4,1118.7 1360.3,1073.5 1347.0,1028.4 1333.6,983.4 1320.1,938.4 1306.6,893.5 1292.9,848.7 1279.2,803.9 1265.4,759.3 1251.5,714.7 1237.6,670.3 1223.6,625.9  " style="stroke-opacity: 1.000000; stroke-width: 5.0; stroke: rgb(251,106,74); fill: none"  />
<path d="M 1533.9,2416.1 L 1532.0,2377.9 1529.1,2339.5 1525.2,2301.1 1520.2,2262.8 1514.1,2224.9 1506.7,2187.4 1498.1,2150.5 1488.2,2114.2 1476.9,2078.8 1464.3,2044.2 1450.4,2010.6 1435.0,1978.1 1418.3,1946.8 1400.1,1916.8 1380.6,1888.1 1359.7,1860.7 1337.4,1834.8 1313.7,1810.4 1288.8,1787.5 1262.5,1766.2 1234.9,1746.5 1206.1,1728.4 1176.2,1711.9 1145.1,1697.1 1112.9,1684.0 1079.8,1672.5 1045.7,1662.6 1010.7,1654.3 975.0,1647.6 938.6,1642.4 901.5,1638.8 864.0,1636.6 826.1,1635.8 787.9,1636.3 749.5,1638.1 711.1,1641.2 672.7,1645.3 634.5,1650.5 596.7,1656.5  " style="stroke-opacity: 1.000000; stroke-width: 5.0; stroke: rgb(251,106,74); fill: none"  />
<path d="M 1369.8,2407.5 L 1375.5,2365.2 1380.6,2322.5 1385.0,2279.4 1388.6,2236.0 1391.5,2192.1 1393.6,2148.0 1394.8,2103.7 1395.1,2059.2 1394.5,2014.5 1393.0,1969.7 1390.5,1924.8 1387.0,1879.9 1382.6,1835.0 1377.1,1790.1 1370.5,1745.4 1363.0,1700.7 1354.4,1656.2 1344.7,1611.9 1334.0,1567.9 1322.3,1524.1 1309.6,1480.5 1295.8,1437.3 1281.1,1394.5 1265.3,1352.0 1248.6,1310.0 1231.0,1268.4 1212.5,1227.2 1193.1,1186.6 1172.8,1146.5 1151.8,1106.9 1130.0,1067.9 1107.5,1029.4 1084.3,991.6 1060.4,954.5 1036.1,917.9 1011.2,882.1 985.9,846.9 960.1,812.5 934.1,778.8  " style="stroke-opacity: 1.000000; stroke-width: 5.0; stroke: rgb(251,106,74); fill: none"  />
<path d="M 1369.8,2407.5 L 1374.7,2370.2 1378.6,2332.6 1381.6,2295.0 1383.5,2257.5 1384.2,2220.2 1383.7,2183.3 1381.9,2146.9 1378.6,2111.1 1374.0,2076.1 1367.9,2041.9 1360.2,2008.6 1351.0,1976.4 1340.3,1945.4 1327.9,1915.6 1314.0,1887.0 1298.5,1859.9 1281.4,1834.1 1262.6,1809.8 1242.4,1787.1 1220.5,1765.9 1197.2,1746.3 1172.4,1728.3 1146.2,1711.9 1118.5,1697.1 1089.6,1684.0 1059.4,1672.6 1028.1,1662.7 995.6,1654.5 962.2,1647.8 927.8,1642.7 892.7,1639.1 856.8,1636.9 820.3,1636.1 783.4,1636.6 746.2,1638.4 708.7,1641.4 671.2,1645.5 633.9,1650.6 596.7,1656.5  " style="stroke-opacity: 1.000000; stroke-width: 5.0; stroke: rgb(251,106,74); fill: none"  />
<path d="M 934.1,778.8 L 962.1,814.7 990.1,850.9 1017.9,887.4 1045.6,924.2 1073.2,961.3 1100.6,998.8 1127.9,1036.5 1155.0,1074.5 1181.9,1112.7 1208.6,1151.3 1235.0,1190.1 1261.3,1229.2 1287.2,1268.5 1313.0,1308.1 1338.4,1347.9 1363.6,1387.9 1388.5,1428.2 1413.0,1468.6 1437.3,1509.3 1461.3,1550.2 1485.0,1591.2 1508.3,1632.4 1531.3,1673.8 1554.0,1715.3 1576.3,1756.9 1598.3,1798.6 1620.0,1840.5 1641.3,1882.5 1662.3,1924.5 1682.9,1966.6 1703.2,2008.7 1723.2,2050.9 1742.8,2093.1 1762.1,2135.3 1781.0,2177.5 1799.6,2219.7 1818.0,2261.8 1835.9,2303.8 1853.6,2345.8  " style="stroke-opacity: 1.000000; stroke-width: 5.0; stroke: rgb(251,106,74); fill: none"  />
<path d="M 934.1,778.8 L 960.1,812.5 985.9,846.9 1011.2,882.1 1036.1,917.9 1060.4,954.5 1084.3,991.6 1107.5,1029.4 1130.0,1067.9 1151.8,1106.9 1172.8,1146.5 1193.1,1186.6 1212.5,1227.2 1231.0,1268.4 1248.6,1310.0 1265.3,1352.0 1281.1,1394.5 1295.8,1437.3 1309.6,1480.5 1322.3,1524.1 1334.0,1567.9 1344.7,1611.9 1354.4,1656.2 1363.0,1700.7 1370.5,1745.4 1377.1,1790.1 1382.6,1835.0 1387.0,1879.9 1390.5,1924.8 1393.0,1969.7 1394.5,2014.5 1395.1,2059.2 1394.8,2103.7 1393.6,2148.0 1391.5,2192.1 1388.6,2236.0 1385.0,2279.4 1380.6,2322.5 1375.5,2365.2 1369.8,2407.5  " style="stroke-opacity: 1.000000; stroke-width: 5.0; stroke: rgb(251,106,74); fill: none"  />
<path d="M 934.1,778.8 L 958.4,810.4 982.1,842.9 1005.1,876.2 1027.3,910.2 1048.7,944.9 1069.0,980.2 1088.3,1016.2 1106.4,1052.7 1123.2,1089.7 1138.7,1127.2 1152.8,1165.1 1165.5,1203.4 1176.6,1242.0 1186.2,1280.8 1194.2,1320.0 1200.6,1359.3 1205.3,1398.7 1208.4,1438.3 1209.8,1477.9 1209.4,1517.5 1207.4,1557.1 1203.7,1596.6 1198.4,1636.0 1191.4,1675.2 1182.8,1714.2 1172.6,1752.9 1160.8,1791.3 1147.5,1829.4 1132.8,1867.0 1116.7,1904.3 1099.3,1941.0 1080.7,1977.2 1060.8,2012.9 1039.9,2047.9 1018.1,2082.3 995.3,2115.9 971.7,2148.8 947.5,2180.9 922.8,2212.2  " style="stroke-opacity: 1.000000; stroke-width: 5.0; stroke: rgb(251,106,74); fill: none"  />
<path d="M 1867.0,659.9 L 1849.6,698.8 1831.5,737.8 1812.5,776.7 1792.7,815.6 1772.1,854.4 1750.7,893.0 1728.4,931.3 1705.2,969.4 1681.2,1007.1 1656.3,1044.4 1630.5,1081.2 1603.9,1117.5 1576.5,1153.4 1548.2,1188.6 1519.1,1223.2 1489.2,1257.2 1458.4,1290.5 1426.9,1323.1 1394.6,1354.9 1361.6,1386.0 1327.8,1416.3 1293.4,1445.8 1258.3,1474.4 1222.6,1502.3 1186.2,1529.2 1149.4,1555.3 1111.9,1580.5 1074.1,1604.9 1035.7,1628.3 997.0,1650.9 957.9,1672.6 918.5,1693.4 878.9,1713.4 839.1,1732.4 799.1,1750.7 759.1,1768.0 719.1,1784.6 679.1,1800.3 639.2,1815.3  " style="stroke-opacity: 1.000000; stroke-width: 5.0; stroke: rgb(251,106,74); fill: none"  />
<path d="M 596.7,1656.5 L 635.3,1650.3 674.3,1645.0 713.5,1640.8 753.0,1637.6 792.5,1635.6 832.0,1634.8 871.4,1635.4 910.6,1637.3 949.4,1640.6 987.9,1645.4 1025.8,1651.8 1063.2,1659.6 1100.0,1669.1 1136.1,1680.1 1171.4,1692.7 1205.8,1706.9 1239.4,1722.7 1272.1,1740.1 1303.7,1759.2 1334.4,1779.7 1364.0,1801.9 1392.4,1825.5 1419.8,1850.6 1446.0,1877.1 1471.0,1905.0 1494.9,1934.2 1517.5,1964.7 1539.0,1996.3 1559.2,2029.1 1578.2,2062.9 1596.0,2097.5 1612.6,2133.1 1628.0,2169.3 1642.2,2206.2 1655.3,2243.5 1667.3,2281.2 1678.2,2319.2 1688.1,2357.3 1696.9,2395.4  " style="stroke-opacity: 1.000000; stroke-width: 5.0; stroke: rgb(251,106,74); fill: none"  />
<path d="M 596.7,1656.5 L 634.5,1650.5 672.7,1645.3 711.1,1641.2 749.5,1638.1 787.9,1636.3 826.1,1635.8 864.0,1636.6 901.5,1638.8 938.6,1642.4 975.0,1647.6 1010.7,1654.3 1045.7,1662.6 1079.8,1672.5 1112.9,1684.0 1145.1,1697.1 1176.2,1711.9 1206.1,1728.4 1234.9,1746.5 1262.5,1766.2 1288.8,1787.5 1313.7,1810.4 1337.4,1834.8 1359.7,1860.7 1380.6,1888.1 1400.1,1916.8 1418.3,1946.8 1435.0,1978.1 1450.4,2010.6 1464.3,2044.2 1476.9,2078.8 1488.2,2114.2 1498.1,2150.5 1506.7,2187.4 1514.1,2224.9 1520.2,2262.8 1525.2,2301.1 1529.1,2339.5 1532.0,2377.9 1533.9,2416.1  " style="stroke-opacity: 1.000000; stroke-width: 5.0; stroke: rgb(251,106,74); fill: none"  />
<path d="M 596.7,1656.5 L 633.9,1650.6 671.2,1645.5 708.7,1641.4 746.2,1638.4 783.4,1636.6 820.3,1636.1 856.8,1636.9 892.7,1639.1 927.8,1642.7 962.2,1647.8 995.6,1654.5 1028.1,1662.7 1059.4,1672.6 1089.6,1684.0 1118.5,1697.1 1146.2,1711.9 1172.4,1728.3 1197.2,1746.3 1220.5,1765.9 1242.4,1787.1 1262.6,1809.8 1281.4,1834.1 1298.5,1859.9 1314.0,1887.0 1327.9,1915.6 1340.3,1945.4 1351.0,1976.4 1360.2,2008.6 1367.9,2041.9 1374.0,2076.1 1378.6,2111.1 1381.9,2146.9 1383.7,2183.3 1384.2,2220.2 1383.5,2257.5 1381.6,2295.0 1378.6,2332.6 1374.7,2370.2 1369.8,2407.5  " style="stroke-opacity: 1.000000; stroke-width: 5.0; stroke: rgb(251,106,74); fill: none"  />
<path d="M 1059.2,2303.8 L 1079.4,2266.3 1099.1,2228.1 1118.4,2189.3 1137.1,2149.9 1155.2,2109.9 1172.7,2069.3 1189.4,2028.2 1205.3,1986.7 1220.5,1944.6 1234.8,1902.1 1248.2,1859.2 1260.8,1816.0 1272.3,1772.4 1282.9,1728.4 1292.6,1684.2 1301.2,1639.8 1308.7,1595.1 1315.3,1550.2 1320.8,1505.2 1325.2,1460.1 1328.5,1414.9 1330.8,1369.6 1332.1,1324.3 1332.3,1279.0 1331.4,1233.8 1329.5,1188.6 1326.6,1143.6 1322.8,1098.7 1317.9,1054.0 1312.1,1009.6 1305.4,965.4 1297.8,921.5 1289.4,878.0 1280.2,834.8 1270.2,792.0 1259.5,749.7 1248.1,707.9 1236.1,666.6 1223.6,625.9  " style="stroke-opacity: 1.000000; stroke-width: 5.0; stroke: rgb(251,106,74); fill: none"  />
<path d="M 2237.4,2044.7 L 2203.6,2020.3 2169.1,1996.3 2133.8,1972.8 2097.8,1949.8 2061.1,1927.6 2023.7,1906.1 1985.7,1885.4 1947.1,1865.5 1907.9,1846.6 1868.1,1828.6 1827.8,1811.7 1787.0,1795.9 1745.8,1781.1 1704.2,1767.5 1662.2,1755.1 1619.8,1743.8 1577.1,1733.8 1534.1,1725.1 1490.9,1717.6 1447.5,1711.3 1403.9,1706.4 1360.3,1702.7 1316.5,1700.3 1272.7,1699.2 1228.8,1699.3 1185.0,1700.6 1141.3,1703.2 1097.7,1706.9 1054.3,1711.8 1011.1,1717.9 968.2,1725.0 925.5,1733.2 883.2,1742.4 841.3,1752.5 799.8,1763.5 758.8,1775.4 718.3,1788.0 678.4,1801.4 639.2,1815.3  " style="stroke-opacity: 1.000000; stroke-width: 5.0; stroke: rgb(251,106,74); fill: none"  />
<path d="M 1072.0,689.3 L 1093.7,730.5 1115.3,771.7 1136.9,813.1 1158.5,854.6 1179.9,896.1 1201.4,937.8 1222.7,979.5 1244.0,1021.4 1265.2,1063.3 1286.4,1105.4 1307.4,1147.5 1328.4,1189.6 1349.2,1231.9 1370.0,1274.2 1390.7,1316.7 1411.3,1359.1 1431.7,1401.7 1452.1,1444.3 1472.4,1486.9 1492.5,1529.6 1512.6,1572.4 1532.5,1615.2 1552.3,1658.1 1572.0,1701.0 1591.6,1743.9 1611.1,1786.8 1630.4,1829.8 1649.7,1872.8 1668.8,1915.8 1687.8,1958.8 1706.7,2001.9 1725.4,2044.9 1744.1,2088.0 1762.6,2131.0 1781.0,2174.0 1799.3,2217.0 1817.5,2260.0 1835.6,2302.9 1853.6,2345.8  " style="stroke-opacity: 1.000000; stroke-width: 5.0; stroke: rgb(251,106,74); fill: none"  />
<path d="M 1072.0,689.3 L 1093.1,729.6 1114.2,770.2 1135.0,811.1 1155.7,852.3 1176.2,893.8 1196.6,935.5 1216.7,977.5 1236.5,1019.7 1256.2,1062.2 1275.5,1104.9 1294.6,1147.8 1313.5,1190.9 1332.0,1234.2 1350.2,1277.8 1368.2,1321.5 1385.8,1365.4 1403.1,1409.4 1420.0,1453.6 1436.7,1498.0 1453.0,1542.5 1468.9,1587.0 1484.5,1631.8 1499.8,1676.6 1514.7,1721.4 1529.2,1766.4 1543.4,1811.4 1557.2,1856.5 1570.7,1901.5 1583.9,1946.6 1596.7,1991.8 1609.1,2036.8 1621.2,2081.9 1633.0,2126.9 1644.4,2171.9 1655.5,2216.8 1666.3,2261.6 1676.8,2306.3 1687.0,2350.9 1696.9,2395.4  " style="stroke-opacity: 1.000000; stroke-width: 5.0; stroke: rgb(251,106,74); fill: none"  />
<path d="M 1223.6,625.9 L 1237.7,670.2 1251.9,714.6 1266.1,759.1 1280.5,803.5 1295.0,848.0 1309.6,892.5 1324.3,937.1 1339.2,981.6 1354.1,1026.2 1369.2,1070.7 1384.4,1115.3 1399.7,1159.8 1415.1,1204.4 1430.6,1248.9 1446.3,1293.4 1462.1,1337.9 1478.0,1382.3 1494.0,1426.8 1510.1,1471.2 1526.3,1515.5 1542.7,1559.8 1559.2,1604.1 1575.8,1648.3 1592.4,1692.4 1609.2,1736.5 1626.1,1780.5 1643.1,1824.5 1660.2,1868.4 1677.4,1912.2 1694.7,1956.0 1712.1,1999.6 1729.5,2043.2 1747.0,2086.7 1764.6,2130.1 1782.3,2173.5 1800.1,2216.7 1817.9,2259.8 1835.7,2302.9 1853.6,2345.8  " style="stroke-opacity: 1.000000; stroke-width: 5.0; stroke: rgb(251,106,74); fill: none"  />
<path d="M 1223.6,625.9 L 1237.6,670.3 1251.5,714.7 1265.4,759.3 1279.2,803.9 1292.9,848.7 1306.6,893.5 1320.1,938.4 1333.6,983.4 1347.0,1028.4 1360.3,1073.5 1373.4,1118.7 1386.5,1164.0 1399.5,1209.3 1412.4,1254.7 1425.2,1300.1 1437.8,1345.5 1450.4,1391.1 1462.8,1436.6 1475.1,1482.2 1487.4,1527.8 1499.4,1573.5 1511.4,1619.2 1523.3,1664.9 1535.0,1710.6 1546.6,1756.3 1558.1,1802.0 1569.4,1847.8 1580.7,1893.5 1591.8,1939.3 1602.8,1985.0 1613.7,2030.7 1624.5,2076.4 1635.2,2122.1 1645.7,2167.7 1656.2,2213.3 1666.5,2258.9 1676.7,2304.4 1686.9,2349.9 1696.9,2395.4  " style="stroke-opacity: 1.000000; stroke-width: 5.0; stroke: rgb(251,106,74); fill: none"  />
<path d="M 1223.6,625.9 L 1236.1,666.6 1248.1,707.9 1259.5,749.7 1270.2,792.0 1280.2,834.8 1289.4,878.0 1297.8,921.5 1305.4,965.4 1312.1,1009.6 1317.9,1054.0 1322.8,1098.7 1326.6,1143.6 1329.5,1188.6 1331.4,1233.8 1332.3,1279.0 1332.1,1324.3 1330.8,1369.6 1328.5,1414.9 1325.2,1460.1 1320.8,1505.2 1315.3,1550.2 1308.7,1595.1 1301.2,1639.8 1292.6,1684.2 1282.9,1728.4 1272.3,1772.4 1260.8,1816.0 1248.2,1859.2 1234.8,1902.1 1220.5,1944.6 1205.3,1986.7 1189.4,2028.2 1172.7,2069.3 1155.2,2109.9 1137.1,2149.9 1118.4,2189.3 1099.1,2228.1 1079.4,2266.3 1059.2,2303.8  " style="stroke-opacity: 1.000000; stroke-width: 5.0; stroke: rgb(251,106,74); fill: none"  />
<path d="M 1223.6,625.9 L 1235.8,665.7 1247.3,706.2 1258.1,747.2 1268.2,788.7 1277.3,830.6 1285.5,872.9 1292.8,915.6 1299.1,958.6 1304.3,1001.8 1308.4,1045.3 1311.3,1088.9 1313.1,1132.6 1313.7,1176.4 1313.1,1220.2 1311.2,1263.9 1308.1,1307.7 1303.8,1351.3 1298.1,1394.8 1291.2,1438.1 1283.0,1481.2 1273.6,1524.0 1262.9,1566.5 1251.0,1608.7 1237.9,1650.5 1223.6,1692.0 1208.2,1733.0 1191.6,1773.5 1173.9,1813.5 1155.2,1853.0 1135.5,1891.9 1114.8,1930.2 1093.2,1967.9 1070.8,2005.0 1047.7,2041.4 1023.8,2077.1 999.3,2112.0 974.2,2146.2 948.7,2179.6 922.8,2212.2  " style="stroke-opacity: 1.000000; stroke-width: 5.0; stroke: rgb(251,106,74); fill: none"  />
<path d="M 922.8,2212.2 L 947.5,2180.9 971.7,2148.8 995.3,2115.9 1018.1,2082.3 1039.9,2047.9 1060.8,2012.9 1080.7,1977.2 1099.3,1941.0 1116.7,1904.3 1132.8,1867.0 1147.5,1829.4 1160.8,1791.3 1172.6,1752.9 1182.8,1714.2 1191.4,1675.2 1198.4,1636.0 1203.7,1596.6 1207.4,1557.1 1209.4,1517.5 1209.8,1477.9 1208.4,1438.3 1205.3,1398.7 1200.6,1359.3 1194.2,1320.0 1186.2,1280.8 1176.6,1242.0 1165.5,1203.4 1152.8,1165.1 1138.7,1127.2 1123.2,1089.7 1106.4,1052.7 1088.3,1016.2 1069.0,980.2 1048.7,944.9 1027.3,910.2 1005.1,876.2 982.1,842.9 958.4,810.4 934.1,778.8  " style="stroke-opacity: 1.000000; stroke-width: 5.0; stroke: rgb(251,106,74); fill: none"  />
<path d="M 922.8,2212.2 L 948.7,2179.6 974.2,2146.2 999.3,2112.0 1023.8,2077.1 1047.7,2041.4 1070.8,2005.0 1093.2,1967.9 1114.8,1930.2 1135.5,1891.9 1155.2,1853.0 1173.9,1813.5 1191.6,1773.5 1208.2,1733.0 1223.6,1692.0 1237.9,1650.5 1251.0,1608.7 1262.9,1566.5 1273.6,1524.0 1283.0,1481.2 1291.2,1438.1 1298.1,1394.8 1303.8,1351.3 1308.1,1307.7 1311.2,1263.9 1313.1,1220.2 1313.7,1176.4 1313.1,1132.6 1311.3,1088.9 1308.4,1045.3 1304.3,1001.8 1299.1,958.6 1292.8,915.6 1285.5,872.9 1277.3,830.6 1268.2,788.7 1258.1,747.2 1247.3,706.2 1235.8,665.7 1223.6,625.9  " style="stroke-opacity: 1.000000; stroke-width: 5.0; stroke: rgb(251,106,74); fill: none"  />
<path d="M 2245.9,967.0 L 2208.0,994.1 2170.0,1021.0 2132.0,1048.0 2093.8,1074.9 2055.4,1101.8 2017.0,1128.6 1978.5,1155.4 1939.9,1182.1 1901.2,1208.7 1862.4,1235.3 1823.5,1261.8 1784.5,1288.3 1745.4,1314.6 1706.3,1340.9 1667.0,1367.1 1627.7,1393.2 1588.3,1419.2 1548.8,1445.1 1509.2,1470.9 1469.6,1496.6 1429.9,1522.2 1390.2,1547.7 1350.4,1573.1 1310.5,1598.3 1270.6,1623.5 1230.7,1648.6 1190.7,1673.5 1150.7,1698.3 1110.6,1723.1 1070.5,1747.7 1030.4,1772.2 990.3,1796.5 950.1,1820.8 910.0,1844.9 869.8,1869.0 829.7,1892.9 789.5,1916.7 749.4,1940.4 709.3,1964.0  " style="stroke-opacity: 1.000000; stroke-width: 5.0; stroke: rgb(251,106,74); fill: none"  />
</g>
<g id="track_0">
<path d="M 2128.3,2167.6 L 2104.0,2142.0 2079.9,2116.7 2055.9,2091.9 2032.3,2067.8 2009.2,2044.5 1986.8,2022.3 1965.1,2001.2 1944.4,1981.5 1924.7,1963.2 1906.0,1946.5 1888.6,1931.4 1872.5,1918.2 1857.8,1906.7 1844.5,1897.2 1832.7,1889.7 1822.4,1884.2 1813.8,1880.8 1806.7,1879.4 1801.3,1880.2 1797.6,1883.2 1795.6,1888.2 1795.2,1895.4 1796.4,1904.6 1799.3,1915.9 1803.8,1929.1 1809.9,1944.3 1817.5,1961.3 1826.6,1980.1 1837.1,2000.6 1848.9,2022.7 1861.9,2046.2 1876.2,2071.0 1891.5,2097.1 1907.7,2124.1 1924.8,2152.1 1942.6,2180.8 1961.0,2209.9 1979.8,2239.4 1999.0,2269.1  " style="stroke-opacity: 1.000000; stroke-width: 5.0; stroke: rgb(107,174,214); fill: none"  />
<path d="M 2128.3,2167.6 L 2103.9,2141.9 2079.4,2116.7 2055.0,2092.0 2030.7,2068.1 2006.8,2045.2 1983.4,2023.5 1960.5,2003.0 1938.3,1984.0 1917.0,1966.6 1896.5,1950.8 1877.0,1936.9 1858.5,1924.8 1841.2,1914.7 1825.1,1906.7 1810.3,1900.8 1796.8,1897.0 1784.6,1895.4 1773.8,1896.1 1764.5,1899.0 1756.5,1904.1 1750.1,1911.5 1745.1,1921.0 1741.6,1932.8 1739.5,1946.7 1738.9,1962.6 1739.7,1980.6 1741.8,2000.5 1745.3,2022.3 1750.1,2045.8 1756.2,2070.9 1763.4,2097.6 1771.7,2125.5 1781.1,2154.8 1791.4,2185.0 1802.5,2216.2 1814.4,2248.0 1827.0,2280.4 1840.1,2313.1 1853.6,2345.8  " style="stroke-opacity: 1.000000; stroke-width: 5.0; stroke: rgb(107,174,214); fill: none"  />
<path d="M 2128.3,2167.6 L 2103.6,2141.8 2078.8,2116.5 2053.8,2091.8 2028.9,2068.1 2004.1,2045.4 1979.5,2023.9 1955.3,2003.8 1931.6,1985.2 1908.4,1968.3 1885.9,1953.1 1864.2,1939.9 1843.2,1928.6 1823.2,1919.3 1804.1,1912.2 1786.0,1907.3 1768.9,1904.7 1753.0,1904.3 1738.2,1906.2 1724.6,1910.4 1712.2,1917.0 1701.1,1925.8 1691.1,1936.9 1682.5,1950.3 1675.1,1965.9 1668.9,1983.6 1664.0,2003.4 1660.3,2025.2 1657.8,2048.8 1656.5,2074.3 1656.3,2101.4 1657.2,2130.1 1659.2,2160.1 1662.1,2191.4 1666.0,2223.8 1670.8,2257.1 1676.3,2291.1 1682.6,2325.6 1689.5,2360.5 1696.9,2395.4  " style="stroke-opacity: 1.000000; stroke-width: 5.0; stroke: rgb(107,174,214); fill: none"  />
<path d="M 2128.3,2167.6 L 2102.2,2140.5 2075.3,2114.0 2047.8,2088.2 2019.6,2063.4 1990.9,2039.6 1961.7,2017.0 1932.1,1995.7 1902.1,1975.9 1871.8,1957.7 1841.3,1941.2 1810.5,1926.4 1779.6,1913.5 1748.6,1902.6 1717.6,1893.6 1686.6,1886.7 1655.7,1881.9 1624.9,1879.3 1594.2,1878.8 1563.8,1880.4 1533.6,1884.3 1503.7,1890.3 1474.2,1898.5 1445.0,1908.8 1416.3,1921.2 1388.0,1935.6 1360.2,1952.0 1333.0,1970.4 1306.3,1990.6 1280.3,2012.6 1254.8,2036.3 1230.1,2061.5 1206.0,2088.2 1182.6,2116.2 1160.0,2145.4 1138.2,2175.7 1117.2,2206.8 1097.0,2238.6 1077.7,2271.1 1059.2,2303.8  " style="stroke-opacity: 1.000000; stroke-width: 5.0; stroke: rgb(107,174,214); fill: none"  />
<path d="M 2128.3,2167.6 L 2101.7,2140.0 2074.3,2113.0 2046.1,2086.7 2017.1,2061.2 1987.5,2036.7 1957.3,2013.3 1926.5,1991.1 1895.2,1970.3 1863.4,1951.0 1831.2,1933.3 1798.6,1917.2 1765.7,1902.8 1732.5,1890.3 1699.0,1879.6 1665.4,1870.8 1631.7,1863.9 1597.8,1859.1 1563.9,1856.3 1530.1,1855.5 1496.3,1856.7 1462.5,1860.0 1429.0,1865.4 1395.6,1872.7 1362.4,1882.0 1329.5,1893.2 1297.0,1906.4 1264.8,1921.4 1233.0,1938.1 1201.7,1956.6 1170.9,1976.6 1140.6,1998.3 1110.9,2021.3 1081.8,2045.6 1053.4,2071.2 1025.7,2097.8 998.8,2125.4 972.6,2153.7 947.2,2182.7 922.8,2212.2  " style="stroke-opacity: 1.000000; stroke-width: 5.0; stroke: rgb(107,174,214); fill: none"  />
<path d="M 804.9,2097.7 L 831.6,2074.5 858.0,2051.1 883.7,2027.8 908.6,2004.7 932.6,1981.8 955.3,1959.4 976.8,1937.5 996.8,1916.2 1015.2,1895.6 1031.8,1875.8 1046.6,1857.0 1059.5,1839.1 1070.4,1822.3 1079.1,1806.5 1085.7,1792.0 1090.1,1778.6 1092.2,1766.6 1092.0,1755.8 1089.6,1746.3 1084.8,1738.2 1077.7,1731.4 1068.4,1726.0 1056.8,1721.9 1043.0,1719.2 1027.1,1717.9 1009.1,1717.9 989.1,1719.1 967.2,1721.6 943.5,1725.4 918.2,1730.3 891.2,1736.3 862.9,1743.4 833.3,1751.4 802.6,1760.3 771.0,1770.1 738.6,1780.6 705.7,1791.7 672.5,1803.3 639.2,1815.3  " style="stroke-opacity: 1.000000; stroke-width: 5.0; stroke: rgb(107,174,214); fill: none"  />
<path d="M 1999.0,2269.1 L 1979.8,2239.4 1961.0,2209.9 1942.6,2180.8 1924.8,2152.1 1907.7,2124.1 1891.5,2097.1 1876.2,2071.0 1861.9,2046.2 1848.9,2022.7 1837.1,2000.6 1826.6,1980.1 1817.5,1961.3 1809.9,1944.3 1803.8,1929.1 1799.3,1915.9 1796.4,1904.6 1795.2,1895.4 1795.6,1888.2 1797.6,1883.2 1801.3,1880.2 1806.7,1879.4 1813.8,1880.8 1822.4,1884.2 1832.7,1889.7 1844.5,1897.2 1857.8,1906.7 1872.5,1918.2 1888.6,1931.4 1906.0,1946.5 1924.7,1963.2 1944.4,1981.5 1965.1,2001.2 1986.8,2022.3 2009.2,2044.5 2032.3,2067.8 2055.9,2091.9 2079.9,2116.7 2104.0,2142.0 2128.3,2167.6  " style="stroke-opacity: 1.000000; stroke-width: 5.0; stroke: rgb(107,174,214); fill: none"  />
<path d="M 1999.0,2269.1 L 1979.7,2239.5 1960.4,2210.3 1941.3,2181.6 1922.4,2153.7 1903.8,2126.7 1885.7,2100.8 1868.2,2076.2 1851.3,2053.1 1835.1,2031.6 1819.8,2011.8 1805.4,1993.9 1791.9,1978.0 1779.4,1964.1 1768.0,1952.3 1757.8,1942.8 1748.7,1935.6 1740.7,1930.7 1734.1,1928.1 1728.6,1927.9 1724.4,1930.2 1721.5,1934.7 1719.8,1941.7 1719.4,1951.0 1720.3,1962.6 1722.3,1976.5 1725.6,1992.5 1730.0,2010.6 1735.6,2030.7 1742.3,2052.8 1749.9,2076.6 1758.6,2102.0 1768.2,2129.0 1778.6,2157.4 1789.7,2186.9 1801.5,2217.5 1813.9,2248.8 1826.8,2280.8 1840.1,2313.2 1853.6,2345.8  " style="stroke-opacity: 1.000000; stroke-width: 5.0; stroke: rgb(107,174,214); fill: none"  />
<path d="M 1999.0,2269.1 L 1979.5,2239.4 1960.0,2210.2 1940.3,2181.6 1920.7,2153.8 1901.3,2127.0 1882.1,2101.4 1863.3,2077.2 1844.9,2054.5 1826.9,2033.5 1809.6,2014.4 1792.9,1997.2 1776.9,1982.0 1761.7,1969.0 1747.3,1958.2 1733.7,1949.7 1721.1,1943.6 1709.4,1939.9 1698.7,1938.6 1689.0,1939.8 1680.3,1943.4 1672.6,1949.5 1666.0,1958.0 1660.4,1969.0 1655.9,1982.3 1652.4,1997.9 1650.0,2015.7 1648.6,2035.7 1648.1,2057.7 1648.6,2081.7 1650.1,2107.5 1652.4,2135.0 1655.6,2164.0 1659.6,2194.4 1664.4,2226.0 1669.8,2258.7 1675.8,2292.2 1682.4,2326.3 1689.5,2360.7 1696.9,2395.4  " style="stroke-opacity: 1.000000; stroke-width: 5.0; stroke: rgb(107,174,214); fill: none"  />
<path d="M 1999.0,2269.1 L 1978.5,2238.3 1957.3,2207.9 1935.3,2178.2 1912.8,2149.3 1889.6,2121.5 1865.9,2094.8 1841.7,2069.5 1817.1,2045.7 1792.0,2023.4 1766.6,2002.9 1740.8,1984.3 1714.8,1967.5 1688.5,1952.8 1662.1,1940.2 1635.5,1929.8 1608.8,1921.6 1582.1,1915.6 1555.3,1912.0 1528.5,1910.6 1501.9,1911.6 1475.3,1914.9 1448.9,1920.6 1422.6,1928.5 1396.6,1938.6 1370.9,1951.0 1345.4,1965.5 1320.3,1982.1 1295.6,2000.7 1271.3,2021.2 1247.4,2043.6 1224.1,2067.6 1201.3,2093.2 1179.0,2120.2 1157.3,2148.6 1136.3,2178.0 1115.9,2208.5 1096.3,2239.7 1077.4,2271.6 1059.2,2303.8  " style="stroke-opacity: 1.000000; stroke-width: 5.0; stroke: rgb(107,174,214); fill: none"  />
<path d="M 1999.0,2269.1 L 1978.1,2237.8 1956.4,2206.9 1933.9,2176.6 1910.7,2147.1 1886.7,2118.5 1862.0,2091.1 1836.7,2064.9 1810.7,2040.1 1784.1,2016.7 1757.0,1995.0 1729.4,1975.0 1701.3,1956.8 1672.8,1940.5 1643.8,1926.1 1614.6,1913.8 1585.0,1903.6 1555.2,1895.5 1525.1,1889.5 1494.9,1885.7 1464.5,1884.1 1434.0,1884.7 1403.5,1887.4 1372.9,1892.4 1342.4,1899.4 1312.0,1908.6 1281.8,1919.8 1251.7,1933.0 1221.8,1948.2 1192.3,1965.2 1163.0,1983.9 1134.1,2004.3 1105.7,2026.3 1077.7,2049.7 1050.3,2074.3 1023.4,2100.2 997.2,2127.1 971.6,2154.8 946.8,2183.3 922.8,2212.2  " style="stroke-opacity: 1.000000; stroke-width: 5.0; stroke: rgb(107,174,214); fill: none"  />
<path d="M 1853.6,2345.8 L 1840.1,2313.1 1827.0,2280.4 1814.4,2248.0 1802.5,2216.2 1791.4,2185.0 1781.1,2154.8 1771.7,2125.5 1763.4,2097.6 1756.2,2070.9 1750.1,2045.8 1745.3,2022.3 1741.8,2000.5 1739.7,1980.6 1738.9,1962.6 1739.5,1946.7 1741.6,1932.8 1745.1,1921.0 1750.1,1911.5 1756.5,1904.1 1764.5,1899.0 1773.8,1896.1 1784.6,1895.4 1796.8,1897.0 1810.3,1900.8 1825.1,1906.7 1841.2,1914.7 1858.5,1924.8 1877.0,1936.9 1896.5,1950.8 1917.0,1966.6 1938.3,1984.0 1960.5,2003.0 1983.4,2023.5 2006.8,2045.2 2030.7,2068.1 2055.0,2092.0 2079.4,2116.7 2103.9,2141.9 2128.3,2167.6  " style="stroke-opacity: 1.000000; stroke-width: 5.0; stroke: rgb(107,174,214); fill: none"  />
<path d="M 1853.6,2345.8 L 1840.1,2313.2 1826.8,2280.8 1813.9,2248.8 1801.5,2217.5 1789.7,2186.9 1778.6,2157.4 1768.2,2129.0 1758.6,2102.0 1749.9,2076.6 1742.3,2052.8 1735.6,2030.7 1730.0,2010.6 1725.6,1992.5 1722.3,1976.5 1720.3,1962.6 1719.4,1951.0 1719.8,1941.7 1721.5,1934.7 1724.4,1930.2 1728.6,1927.9 1734.1,1928.1 1740.7,1930.7 1748.7,1935.6 1757.8,1942.8 1768.0,1952.3 1779.4,1964.1 1791.9,1978.0 1805.4,1993.9 1819.8,2011.8 1835.1,2031.6 1851.3,2053.1 1868.2,2076.2 1885.7,2100.8 1903.8,2126.7 1922.4,2153.7 1941.3,2181.6 1960.4,2210.3 1979.7,2239.5 1999.0,2269.1  " style="stroke-opacity: 1.000000; stroke-width: 5.0; stroke: rgb(107,174,214); fill: none"  />
<path d="M 1853.6,2345.8 L 1839.9,2313.3 1826.2,2281.1 1812.5,2249.5 1798.9,2218.6 1785.4,2188.7 1772.2,2160.0 1759.4,2132.7 1746.9,2106.9 1734.8,2082.9 1723.3,2060.7 1712.3,2040.5 1701.8,2022.4 1692.1,2006.5 1683.0,1992.9 1674.6,1981.7 1666.9,1973.0 1660.0,1966.7 1653.9,1963.0 1648.5,1961.9 1644.0,1963.3 1640.3,1967.3 1637.4,1973.9 1635.4,1982.9 1634.1,1994.5 1633.7,2008.5 1634.0,2024.9 1635.2,2043.5 1637.1,2064.3 1639.7,2087.1 1643.0,2111.9 1646.9,2138.5 1651.5,2166.8 1656.7,2196.5 1662.4,2227.6 1668.6,2259.8 1675.2,2292.9 1682.2,2326.6 1689.4,2360.9 1696.9,2395.4  " style="stroke-opacity: 1.000000; stroke-width: 5.0; stroke: rgb(107,174,214); fill: none"  />
<path d="M 1853.6,2345.8 L 1839.6,2313.0 1825.3,2280.5 1810.5,2248.7 1795.5,2217.7 1780.3,2187.7 1764.8,2159.0 1749.3,2131.7 1733.6,2105.9 1717.9,2081.9 1702.1,2059.9 1686.4,2039.8 1670.8,2021.9 1655.2,2006.2 1639.8,1992.8 1624.6,1981.8 1609.6,1973.4 1594.8,1967.4 1580.3,1964.0 1566.1,1963.2 1552.2,1964.9 1538.6,1969.3 1525.4,1976.2 1512.6,1985.7 1500.2,1997.7 1488.2,2012.1 1476.7,2028.9 1465.5,2048.0 1454.9,2069.3 1444.7,2092.6 1435.0,2118.0 1425.8,2145.1 1417.1,2174.0 1408.8,2204.3 1401.1,2236.0 1393.9,2268.9 1387.1,2302.6 1380.8,2337.2 1375.1,2372.2 1369.8,2407.5  " style="stroke-opacity: 1.000000; stroke-width: 5.0; stroke: rgb(107,174,214); fill: none"  />
<path d="M 1853.6,2345.8 L 1839.4,2312.7 1824.7,2279.9 1809.5,2247.8 1793.8,2216.5 1777.6,2186.2 1761.1,2157.0 1744.1,2129.3 1726.9,2103.2 1709.4,2078.7 1691.6,2056.1 1673.6,2035.4 1655.5,2016.9 1637.1,2000.5 1618.7,1986.4 1600.2,1974.7 1581.6,1965.3 1563.0,1958.4 1544.5,1954.1 1526.0,1952.2 1507.5,1952.9 1489.2,1956.1 1471.0,1961.8 1453.0,1970.1 1435.1,1980.8 1417.6,1993.9 1400.2,2009.3 1383.1,2027.0 1366.4,2046.8 1350.0,2068.7 1333.9,2092.6 1318.3,2118.3 1303.0,2145.6 1288.2,2174.5 1273.8,2204.8 1260.0,2236.2 1246.6,2268.6 1233.8,2301.8 1221.5,2335.5 1209.8,2369.6  " style="stroke-opacity: 1.000000; stroke-width: 5.0; stroke: rgb(107,174,214); fill: none"  />
<path d="M 1853.6,2345.8 L 1839.2,2312.3 1824.1,2279.1 1808.4,2246.6 1792.0,2214.8 1775.0,2183.9 1757.4,2154.2 1739.2,2125.9 1720.5,2099.0 1701.3,2073.7 1681.6,2050.2 1661.5,2028.6 1641.0,2009.0 1620.1,1991.4 1598.8,1976.1 1577.3,1962.9 1555.4,1952.1 1533.3,1943.7 1510.9,1937.6 1488.4,1934.0 1465.8,1932.8 1443.0,1934.0 1420.1,1937.7 1397.3,1943.8 1374.4,1952.2 1351.5,1963.0 1328.8,1976.0 1306.1,1991.3 1283.7,2008.6 1261.4,2028.0 1239.3,2049.3 1217.6,2072.4 1196.2,2097.2 1175.1,2123.5 1154.5,2151.1 1134.3,2180.0 1114.7,2209.9 1095.6,2240.6 1077.1,2272.0 1059.2,2303.8  " style="stroke-opacity: 1.000000; stroke-width: 5.0; stroke: rgb(107,174,214); fill: none"  />
<path d="M 1853.6,2345.8 L 1839.0,2311.8 1823.5,2278.2 1807.3,2245.0 1790.2,2212.6 1772.4,2181.1 1753.9,2150.6 1734.6,2121.4 1714.6,2093.5 1693.9,2067.2 1672.5,2042.4 1650.5,2019.5 1627.9,1998.4 1604.7,1979.2 1580.9,1962.1 1556.6,1947.1 1531.8,1934.2 1506.5,1923.6 1480.8,1915.2 1454.8,1909.1 1428.3,1905.3 1401.6,1903.9 1374.6,1904.7 1347.4,1907.8 1319.9,1913.1 1292.4,1920.7 1264.8,1930.4 1237.1,1942.3 1209.5,1956.2 1181.9,1972.0 1154.4,1989.7 1127.2,2009.2 1100.1,2030.3 1073.4,2052.9 1047.0,2077.0 1021.1,2102.2 995.6,2128.5 970.7,2155.8 946.4,2183.7 922.8,2212.2  " style="stroke-opacity: 1.000000; stroke-width: 5.0; stroke: rgb(107,174,214); fill: none"  />
<path d="M 639.2,1815.3 L 672.5,1803.3 705.7,1791.7 738.6,1780.6 771.0,1770.1 802.6,1760.3 833.3,1751.4 862.9,1743.4 891.2,1736.3 918.2,1730.3 943.5,1725.4 967.2,1721.6 989.1,1719.1 1009.1,1717.9 1027.1,1717.9 1043.0,1719.2 1056.8,1721.9 1068.4,1726.0 1077.7,1731.4 1084.8,1738.2 1089.6,1746.3 1092.0,1755.8 1092.2,1766.6 1090.1,1778.6 1085.7,1792.0 1079.1,1806.5 1070.4,1822.3 1059.5,1839.1 1046.6,1857.0 1031.8,1875.8 1015.2,1895.6 996.8,1916.2 976.8,1937.5 955.3,1959.4 932.6,1981.8 908.6,2004.7 883.7,2027.8 858.0,2051.1 831.6,2074.5 804.9,2097.7  " style="stroke-opacity: 1.000000; stroke-width: 5.0; stroke: rgb(107,174,214); fill: none"  />
<path d="M 639.2,1815.3 L 672.3,1803.1 705.0,1790.8 737.3,1778.5 768.7,1766.3 799.2,1754.2 828.4,1742.3 856.3,1730.7 882.6,1719.4 907.2,1708.4 929.8,1697.9 950.5,1687.8 969.1,1678.2 985.4,1669.1 999.4,1660.7 1010.9,1652.8 1020.0,1645.5 1026.6,1638.9 1030.5,1632.9 1031.9,1627.7 1030.7,1623.1 1026.9,1619.2 1020.4,1616.0 1011.5,1613.6 1000.0,1611.8 986.0,1610.7 969.7,1610.4 951.0,1610.7 930.1,1611.6 907.2,1613.2 882.3,1615.4 855.5,1618.1 827.1,1621.5 797.1,1625.3 765.8,1629.6 733.4,1634.3 700.1,1639.4 666.0,1644.9 631.5,1650.6 596.7,1656.5  " style="stroke-opacity: 1.000000; stroke-width: 5.0; stroke: rgb(107,174,214); fill: none"  />
<path d="M 1696.9,2395.4 L 1689.5,2360.5 1682.6,2325.6 1676.3,2291.1 1670.8,2257.1 1666.0,2223.8 1662.1,2191.4 1659.2,2160.1 1657.2,2130.1 1656.3,2101.4 1656.5,2074.3 1657.8,2048.8 1660.3,2025.2 1664.0,2003.4 1668.9,1983.6 1675.1,1965.9 1682.5,1950.3 1691.1,1936.9 1701.1,1925.8 1712.2,1917.0 1724.6,1910.4 1738.2,1906.2 1753.0,1904.3 1768.9,1904.7 1786.0,1907.3 1804.1,1912.2 1823.2,1919.3 1843.2,1928.6 1864.2,1939.9 1885.9,1953.1 1908.4,1968.3 1931.6,1985.2 1955.3,2003.8 1979.5,2023.9 2004.1,2045.4 2028.9,2068.1 2053.8,2091.8 2078.8,2116.5 2103.6,2141.8 2128.3,2167.6  " style="stroke-opacity: 1.000000; stroke-width: 5.0; stroke: rgb(107,174,214); fill: none"  />
<path d="M 1696.9,2395.4 L 1689.5,2360.7 1682.4,2326.3 1675.8,2292.2 1669.8,2258.7 1664.4,2226.0 1659.6,2194.4 1655.6,2164.0 1652.4,2135.0 1650.1,2107.5 1648.6,2081.7 1648.1,2057.7 1648.6,2035.7 1650.0,2015.7 1652.4,1997.9 1655.9,1982.3 1660.4,1969.0 1666.0,1958.0 1672.6,1949.5 1680.3,1943.4 1689.0,1939.8 1698.7,1938.6 1709.4,1939.9 1721.1,1943.6 1733.7,1949.7 1747.3,1958.2 1761.7,1969.0 1776.9,1982.0 1792.9,1997.2 1809.6,2014.4 1826.9,2033.5 1844.9,2054.5 1863.3,2077.2 1882.1,2101.4 1901.3,2127.0 1920.7,2153.8 1940.3,2181.6 1960.0,2210.2 1979.5,2239.4 1999.0,2269.1  " style="stroke-opacity: 1.000000; stroke-width: 5.0; stroke: rgb(107,174,214); fill: none"  />
<path d="M 1696.9,2395.4 L 1689.4,2360.9 1682.2,2326.6 1675.2,2292.9 1668.6,2259.8 1662.4,2227.6 1656.7,2196.5 1651.5,2166.8 1646.9,2138.5 1643.0,2111.9 1639.7,2087.1 1637.1,2064.3 1635.2,2043.5 1634.0,2024.9 1633.7,2008.5 1634.1,1994.5 1635.4,1982.9 1637.4,1973.9 1640.3,1967.3 1644.0,1963.3 1648.5,1961.9 1653.9,1963.0 1660.0,1966.7 1666.9,1973.0 1674.6,1981.7 1683.0,1992.9 1692.1,2006.5 1701.8,2022.4 1712.3,2040.5 1723.3,2060.7 1734.8,2082.9 1746.9,2106.9 1759.4,2132.7 1772.2,2160.0 1785.4,2188.7 1798.9,2218.6 1812.5,2249.5 1826.2,2281.1 1839.9,2313.3 1853.6,2345.8  " style="stroke-opacity: 1.000000; stroke-width: 5.0; stroke: rgb(107,174,214); fill: none"  />
<path d="M 1696.9,2395.4 L 1689.3,2360.9 1681.5,2326.8 1673.6,2293.2 1665.7,2260.4 1657.9,2228.6 1650.0,2198.0 1642.2,2168.9 1634.5,2141.3 1627.0,2115.5 1619.6,2091.6 1612.3,2069.7 1605.3,2050.0 1598.5,2032.7 1592.0,2017.7 1585.7,2005.2 1579.7,1995.2 1574.1,1987.8 1568.7,1983.1 1563.7,1981.0 1559.0,1981.6 1554.6,1984.9 1550.6,1990.8 1547.0,1999.4 1543.7,2010.5 1540.7,2024.2 1538.2,2040.4 1536.0,2058.9 1534.1,2079.7 1532.6,2102.6 1531.4,2127.6 1530.6,2154.5 1530.0,2183.1 1529.8,2213.3 1529.9,2244.9 1530.2,2277.7 1530.8,2311.4 1531.6,2345.9 1532.7,2380.9 1533.9,2416.1  " style="stroke-opacity: 1.000000; stroke-width: 5.0; stroke: rgb(107,174,214); fill: none"  />
<path d="M 1696.9,2395.4 L 1689.1,2360.8 1681.1,2326.5 1672.8,2292.8 1664.2,2259.9 1655.4,2228.0 1646.5,2197.3 1637.3,2168.0 1628.0,2140.3 1618.6,2114.4 1609.1,2090.4 1599.5,2068.4 1589.9,2048.6 1580.2,2031.0 1570.5,2015.9 1560.8,2003.2 1551.1,1993.0 1541.5,1985.4 1531.9,1980.4 1522.4,1978.1 1513.0,1978.5 1503.7,1981.5 1494.5,1987.1 1485.4,1995.4 1476.5,2006.3 1467.8,2019.7 1459.2,2035.5 1450.9,2053.7 1442.7,2074.2 1434.8,2096.8 1427.1,2121.5 1419.6,2148.1 1412.4,2176.4 1405.4,2206.2 1398.8,2237.5 1392.4,2270.0 1386.3,2303.4 1380.5,2337.7 1374.9,2372.4 1369.8,2407.5  " style="stroke-opacity: 1.000000; stroke-width: 5.0; stroke: rgb(107,174,214); fill: none"  />
<path d="M 1696.9,2395.4 L 1689.0,2360.6 1680.7,2326.1 1671.9,2292.1 1662.6,2258.9 1653.0,2226.7 1642.9,2195.7 1632.5,2166.0 1621.6,2137.9 1610.4,2111.5 1598.9,2086.9 1587.0,2064.4 1574.8,2044.0 1562.3,2025.7 1549.6,2009.8 1536.6,1996.3 1523.3,1985.3 1509.8,1976.8 1496.2,1970.9 1482.3,1967.5 1468.3,1966.8 1454.2,1968.7 1440.0,1973.1 1425.7,1980.2 1411.3,1989.7 1397.0,2001.8 1382.6,2016.2 1368.3,2033.0 1354.0,2052.1 1339.8,2073.3 1325.7,2096.4 1311.8,2121.5 1298.1,2148.3 1284.5,2176.7 1271.3,2206.5 1258.3,2237.5 1245.6,2269.6 1233.3,2302.4 1221.3,2335.8 1209.8,2369.6  " style="stroke-opacity: 1.000000; stroke-width: 5.0; stroke: rgb(107,174,214); fill: none"  />
<path d="M 1696.9,2395.4 L 1688.9,2360.2 1680.2,2325.4 1671.0,2291.0 1661.1,2257.4 1650.6,2224.7 1639.5,2193.1 1627.9,2162.8 1615.6,2134.0 1602.7,2106.8 1589.2,2081.4 1575.2,2057.8 1560.7,2036.3 1545.6,2017.0 1529.9,1999.8 1513.8,1984.9 1497.2,1972.4 1480.2,1962.3 1462.7,1954.7 1444.8,1949.6 1426.5,1947.0 1407.9,1946.9 1389.0,1949.2 1369.8,1954.1 1350.3,1961.5 1330.7,1971.2 1310.9,1983.3 1290.9,1997.6 1270.9,2014.2 1250.8,2032.8 1230.8,2053.4 1210.8,2075.9 1190.9,2100.1 1171.1,2125.9 1151.6,2153.1 1132.4,2181.5 1113.4,2211.0 1094.9,2241.4 1076.8,2272.4 1059.2,2303.8  " style="stroke-opacity: 1.000000; stroke-width: 5.0; stroke: rgb(107,174,214); fill: none"  />
<path d="M 1696.9,2395.4 L 1688.7,2359.8 1679.8,2324.5 1670.1,2289.6 1659.6,2255.4 1648.4,2222.0 1636.4,2189.7 1623.6,2158.5 1610.0,2128.7 1595.6,2100.5 1580.5,2073.8 1564.5,2049.0 1547.9,2026.0 1530.4,2005.0 1512.2,1986.1 1493.4,1969.3 1473.8,1954.8 1453.5,1942.5 1432.6,1932.5 1411.1,1924.9 1389.0,1919.7 1366.4,1916.9 1343.3,1916.4 1319.7,1918.3 1295.7,1922.5 1271.3,1929.0 1246.5,1937.8 1221.5,1948.8 1196.3,1961.8 1170.9,1976.9 1145.4,1993.9 1119.9,2012.8 1094.4,2033.3 1069.0,2055.4 1043.8,2079.0 1018.8,2103.8 994.1,2129.7 969.8,2156.5 946.0,2184.1 922.8,2212.2  " style="stroke-opacity: 1.000000; stroke-width: 5.0; stroke: rgb(107,174,214); fill: none"  />
<path d="M 814.4,891.4 L 841.3,914.9 868.3,937.9 895.4,960.2 922.3,981.6 949.1,1002.0 975.5,1021.2 1001.4,1039.1 1026.6,1055.4 1051.2,1070.2 1075.0,1083.3 1097.9,1094.5 1119.7,1103.9 1140.5,1111.3 1160.2,1116.7 1178.7,1119.9 1195.9,1121.1 1211.8,1120.0 1226.3,1116.8 1239.5,1111.4 1251.3,1103.7 1261.6,1093.9 1270.5,1082.0 1277.9,1067.9 1283.9,1051.7 1288.4,1033.5 1291.6,1013.3 1293.3,991.3 1293.6,967.5 1292.7,942.1 1290.4,915.0 1286.9,886.6 1282.3,856.8 1276.5,825.9 1269.8,794.0 1262.0,761.2 1253.5,727.9 1244.1,694.0 1234.1,660.0 1223.6,625.9  " style="stroke-opacity: 1.000000; stroke-width: 5.0; stroke: rgb(107,174,214); fill: none"  />
<path d="M 1533.9,2416.1 L 1532.7,2380.9 1531.6,2345.9 1530.8,2311.4 1530.2,2277.7 1529.9,2244.9 1529.8,2213.3 1530.0,2183.1 1530.6,2154.5 1531.4,2127.6 1532.6,2102.6 1534.1,2079.7 1536.0,2058.9 1538.2,2040.4 1540.7,2024.2 1543.7,2010.5 1547.0,1999.4 1550.6,1990.8 1554.6,1984.9 1559.0,1981.6 1563.7,1981.0 1568.7,1983.1 1574.1,1987.8 1579.7,1995.2 1585.7,2005.2 1592.0,2017.7 1598.5,2032.7 1605.3,2050.0 1612.3,2069.7 1619.6,2091.6 1627.0,2115.5 1634.5,2141.3 1642.2,2168.9 1650.0,2198.0 1657.9,2228.6 1665.7,2260.4 1673.6,2293.2 1681.5,2326.8 1689.3,2360.9 1696.9,2395.4  " style="stroke-opacity: 1.000000; stroke-width: 5.0; stroke: rgb(107,174,214); fill: none"  />
<path d="M 1533.9,2416.1 L 1532.4,2380.7 1530.6,2345.6 1528.4,2310.9 1525.9,2277.0 1522.9,2244.1 1519.6,2212.3 1515.8,2181.8 1511.6,2152.9 1507.0,2125.7 1501.9,2100.4 1496.4,2077.0 1490.5,2055.8 1484.1,2036.8 1477.3,2020.2 1470.0,2005.9 1462.3,1994.2 1454.2,1985.0 1445.6,1978.4 1436.7,1974.4 1427.3,1973.1 1417.6,1974.4 1407.6,1978.3 1397.2,1984.9 1386.5,1994.0 1375.5,2005.6 1364.3,2019.6 1352.8,2036.0 1341.1,2054.7 1329.3,2075.6 1317.3,2098.5 1305.2,2123.3 1293.0,2149.8 1280.9,2178.0 1268.7,2207.6 1256.6,2238.4 1244.6,2270.2 1232.8,2302.9 1221.2,2336.1 1209.8,2369.6  " style="stroke-opacity: 1.000000; stroke-width: 5.0; stroke: rgb(107,174,214); fill: none"  />
<path d="M 1369.8,2407.5 L 1375.1,2372.2 1380.8,2337.2 1387.1,2302.6 1393.9,2268.9 1401.1,2236.0 1408.8,2204.3 1417.1,2174.0 1425.8,2145.1 1435.0,2118.0 1444.7,2092.6 1454.9,2069.3 1465.5,2048.0 1476.7,2028.9 1488.2,2012.1 1500.2,1997.7 1512.6,1985.7 1525.4,1976.2 1538.6,1969.3 1552.2,1964.9 1566.1,1963.2 1580.3,1964.0 1594.8,1967.4 1609.6,1973.4 1624.6,1981.8 1639.8,1992.8 1655.2,2006.2 1670.8,2021.9 1686.4,2039.8 1702.1,2059.9 1717.9,2081.9 1733.6,2105.9 1749.3,2131.7 1764.8,2159.0 1780.3,2187.7 1795.5,2217.7 1810.5,2248.7 1825.3,2280.5 1839.6,2313.0 1853.6,2345.8  " style="stroke-opacity: 1.000000; stroke-width: 5.0; stroke: rgb(107,174,214); fill: none"  />
<path d="M 1369.8,2407.5 L 1374.9,2372.4 1380.5,2337.7 1386.3,2303.4 1392.4,2270.0 1398.8,2237.5 1405.4,2206.2 1412.4,2176.4 1419.6,2148.1 1427.1,2121.5 1434.8,2096.8 1442.7,2074.2 1450.9,2053.7 1459.2,2035.5 1467.8,2019.7 1476.5,2006.3 1485.4,1995.4 1494.5,1987.1 1503.7,1981.5 1513.0,1978.5 1522.4,1978.1 1531.9,1980.4 1541.5,1985.4 1551.1,1993.0 1560.8,2003.2 1570.5,2015.9 1580.2,2031.0 1589.9,2048.6 1599.5,2068.4 1609.1,2090.4 1618.6,2114.4 1628.0,2140.3 1637.3,2168.0 1646.5,2197.3 1655.4,2228.0 1664.2,2259.9 1672.8,2292.8 1681.1,2326.5 1689.1,2360.8 1696.9,2395.4  " style="stroke-opacity: 1.000000; stroke-width: 5.0; stroke: rgb(107,174,214); fill: none"  />
<path d="M 1369.8,2407.5 L 1374.6,2372.1 1378.9,2336.9 1382.6,2302.0 1385.6,2267.7 1387.9,2234.1 1389.4,2201.5 1390.0,2170.1 1389.7,2140.0 1388.5,2111.3 1386.4,2084.3 1383.2,2059.0 1378.9,2035.6 1373.6,2014.1 1367.3,1994.8 1359.8,1977.5 1351.3,1962.6 1341.7,1949.9 1330.9,1939.5 1319.2,1931.5 1306.3,1925.9 1292.4,1922.7 1277.6,1921.9 1261.7,1923.4 1244.9,1927.3 1227.2,1933.6 1208.7,1942.1 1189.4,1952.8 1169.3,1965.6 1148.6,1980.4 1127.3,1997.2 1105.4,2015.8 1083.1,2036.0 1060.5,2057.9 1037.6,2081.1 1014.5,2105.6 991.4,2131.1 968.3,2157.5 945.4,2184.6 922.8,2212.2  " style="stroke-opacity: 1.000000; stroke-width: 5.0; stroke: rgb(107,174,214); fill: none"  />
<path d="M 934.1,778.8 L 956.1,806.5 978.2,833.9 1000.3,860.6 1022.3,886.6 1044.1,911.5 1065.5,935.3 1086.4,957.7 1106.8,978.6 1126.5,997.9 1145.5,1015.4 1163.7,1031.1 1181.0,1044.8 1197.3,1056.4 1212.6,1065.8 1226.9,1073.0 1240.0,1078.0 1252.0,1080.7 1262.8,1081.0 1272.4,1078.9 1280.7,1074.5 1287.8,1067.8 1293.6,1058.7 1298.2,1047.3 1301.5,1033.7 1303.5,1017.8 1304.4,999.8 1304.0,979.8 1302.5,957.8 1299.8,934.0 1296.0,908.4 1291.2,881.2 1285.5,852.6 1278.8,822.7 1271.2,791.6 1262.9,759.6 1253.9,726.8 1244.3,693.4 1234.1,659.7 1223.6,625.9  " style="stroke-opacity: 1.000000; stroke-width: 5.0; stroke: rgb(107,174,214); fill: none"  />
<path d="M 1209.8,2369.6 L 1221.5,2335.5 1233.8,2301.8 1246.6,2268.6 1260.0,2236.2 1273.8,2204.8 1288.2,2174.5 1303.0,2145.6 1318.3,2118.3 1333.9,2092.6 1350.0,2068.7 1366.4,2046.8 1383.1,2027.0 1400.2,2009.3 1417.6,1993.9 1435.1,1980.8 1453.0,1970.1 1471.0,1961.8 1489.2,1956.1 1507.5,1952.9 1526.0,1952.2 1544.5,1954.1 1563.0,1958.4 1581.6,1965.3 1600.2,1974.7 1618.7,1986.4 1637.1,2000.5 1655.5,2016.9 1673.6,2035.4 1691.6,2056.1 1709.4,2078.7 1726.9,2103.2 1744.1,2129.3 1761.1,2157.0 1777.6,2186.2 1793.8,2216.5 1809.5,2247.8 1824.7,2279.9 1839.4,2312.7 1853.6,2345.8  " style="stroke-opacity: 1.000000; stroke-width: 5.0; stroke: rgb(107,174,214); fill: none"  />
<path d="M 1209.8,2369.6 L 1221.3,2335.8 1233.3,2302.4 1245.6,2269.6 1258.3,2237.5 1271.3,2206.5 1284.5,2176.7 1298.1,2148.3 1311.8,2121.5 1325.7,2096.4 1339.8,2073.3 1354.0,2052.1 1368.3,2033.0 1382.6,2016.2 1397.0,2001.8 1411.3,1989.7 1425.7,1980.2 1440.0,1973.1 1454.2,1968.7 1468.3,1966.8 1482.3,1967.5 1496.2,1970.9 1509.8,1976.8 1523.3,1985.3 1536.6,1996.3 1549.6,2009.8 1562.3,2025.7 1574.8,2044.0 1587.0,2064.4 1598.9,2086.9 1610.4,2111.5 1621.6,2137.9 1632.5,2166.0 1642.9,2195.7 1653.0,2226.7 1662.6,2258.9 1671.9,2292.1 1680.7,2326.1 1689.0,2360.6 1696.9,2395.4  " style="stroke-opacity: 1.000000; stroke-width: 5.0; stroke: rgb(107,174,214); fill: none"  />
<path d="M 1209.8,2369.6 L 1221.2,2336.1 1232.8,2302.9 1244.6,2270.2 1256.6,2238.4 1268.7,2207.6 1280.9,2178.0 1293.0,2149.8 1305.2,2123.3 1317.3,2098.5 1329.3,2075.6 1341.1,2054.7 1352.8,2036.0 1364.3,2019.6 1375.5,2005.6 1386.5,1994.0 1397.2,1984.9 1407.6,1978.3 1417.6,1974.4 1427.3,1973.1 1436.7,1974.4 1445.6,1978.4 1454.2,1985.0 1462.3,1994.2 1470.0,2005.9 1477.3,2020.2 1484.1,2036.8 1490.5,2055.8 1496.4,2077.0 1501.9,2100.4 1507.0,2125.7 1511.6,2152.9 1515.8,2181.8 1519.6,2212.3 1522.9,2244.1 1525.9,2277.0 1528.4,2310.9 1530.6,2345.6 1532.4,2380.7 1533.9,2416.1  " style="stroke-opacity: 1.000000; stroke-width: 5.0; stroke: rgb(107,174,214); fill: none"  />
<path d="M 1209.8,2369.6 L 1220.9,2336.1 1231.7,2302.8 1242.2,2270.0 1252.3,2237.8 1261.8,2206.4 1270.8,2176.2 1279.0,2147.1 1286.6,2119.5 1293.3,2093.5 1299.2,2069.1 1304.2,2046.7 1308.3,2026.2 1311.4,2007.8 1313.5,1991.6 1314.5,1977.6 1314.5,1966.0 1313.4,1956.7 1311.2,1949.9 1308.0,1945.6 1303.6,1943.7 1298.2,1944.2 1291.7,1947.3 1284.2,1952.8 1275.6,1960.7 1266.1,1970.9 1255.6,1983.4 1244.2,1998.2 1232.0,2015.1 1218.9,2034.0 1205.1,2054.9 1190.5,2077.5 1175.4,2101.8 1159.7,2127.7 1143.6,2154.8 1127.1,2183.1 1110.3,2212.3 1093.3,2242.4 1076.2,2272.9 1059.2,2303.8  " style="stroke-opacity: 1.000000; stroke-width: 5.0; stroke: rgb(107,174,214); fill: none"  />
<path d="M 596.7,1656.5 L 631.5,1650.6 666.0,1644.9 700.1,1639.4 733.4,1634.3 765.8,1629.6 797.1,1625.3 827.1,1621.5 855.5,1618.1 882.3,1615.4 907.2,1613.2 930.1,1611.6 951.0,1610.7 969.7,1610.4 986.0,1610.7 1000.0,1611.8 1011.5,1613.6 1020.4,1616.0 1026.9,1619.2 1030.7,1623.1 1031.9,1627.7 1030.5,1632.9 1026.6,1638.9 1020.0,1645.5 1010.9,1652.8 999.4,1660.7 985.4,1669.1 969.1,1678.2 950.5,1687.8 929.8,1697.9 907.2,1708.4 882.6,1719.4 856.3,1730.7 828.4,1742.3 799.2,1754.2 768.7,1766.3 737.3,1778.5 705.0,1790.8 672.3,1803.1 639.2,1815.3  " style="stroke-opacity: 1.000000; stroke-width: 5.0; stroke: rgb(107,174,214); fill: none"  />
<path d="M 1059.2,2303.8 L 1077.7,2271.1 1097.0,2238.6 1117.2,2206.8 1138.2,2175.7 1160.0,2145.4 1182.6,2116.2 1206.0,2088.2 1230.1,2061.5 1254.8,2036.3 1280.3,2012.6 1306.3,1990.6 1333.0,1970.4 1360.2,1952.0 1388.0,1935.6 1416.3,1921.2 1445.0,1908.8 1474.2,1898.5 1503.7,1890.3 1533.6,1884.3 1563.8,1880.4 1594.2,1878.8 1624.9,1879.3 1655.7,1881.9 1686.6,1886.7 1717.6,1893.6 1748.6,1902.6 1779.6,1913.5 1810.5,1926.4 1841.3,1941.2 1871.8,1957.7 1902.1,1975.9 1932.1,1995.7 1961.7,2017.0 1990.9,2039.6 2019.6,2063.4 2047.8,2088.2 2075.3,2114.0 2102.2,2140.5 2128.3,2167.6  " style="stroke-opacity: 1.000000; stroke-width: 5.0; stroke: rgb(107,174,214); fill: none"  />
<path d="M 1059.2,2303.8 L 1077.4,2271.6 1096.3,2239.7 1115.9,2208.5 1136.3,2178.0 1157.3,2148.6 1179.0,2120.2 1201.3,2093.2 1224.1,2067.6 1247.4,2043.6 1271.3,2021.2 1295.6,2000.7 1320.3,1982.1 1345.4,1965.5 1370.9,1951.0 1396.6,1938.6 1422.6,1928.5 1448.9,1920.6 1475.3,1914.9 1501.9,1911.6 1528.5,1910.6 1555.3,1912.0 1582.1,1915.6 1608.8,1921.6 1635.5,1929.8 1662.1,1940.2 1688.5,1952.8 1714.8,1967.5 1740.8,1984.3 1766.6,2002.9 1792.0,2023.4 1817.1,2045.7 1841.7,2069.5 1865.9,2094.8 1889.6,2121.5 1912.8,2149.3 1935.3,2178.2 1957.3,2207.9 1978.5,2238.3 1999.0,2269.1  " style="stroke-opacity: 1.000000; stroke-width: 5.0; stroke: rgb(107,174,214); fill: none"  />
<path d="M 1059.2,2303.8 L 1077.1,2272.0 1095.6,2240.6 1114.7,2209.9 1134.3,2180.0 1154.5,2151.1 1175.1,2123.5 1196.2,2097.2 1217.6,2072.4 1239.3,2049.3 1261.4,2028.0 1283.7,2008.6 1306.1,1991.3 1328.8,1976.0 1351.5,1963.0 1374.4,1952.2 1397.3,1943.8 1420.1,1937.7 1443.0,1934.0 1465.8,1932.8 1488.4,1934.0 1510.9,1937.6 1533.3,1943.7 1555.4,1952.1 1577.3,1962.9 1598.8,1976.1 1620.1,1991.4 1641.0,2009.0 1661.5,2028.6 1681.6,2050.2 1701.3,2073.7 1720.5,2099.0 1739.2,2125.9 1757.4,2154.2 1775.0,2183.9 1792.0,2214.8 1808.4,2246.6 1824.1,2279.1 1839.2,2312.3 1853.6,2345.8  " style="stroke-opacity: 1.000000; stroke-width: 5.0; stroke: rgb(107,174,214); fill: none"  />
<path d="M 1059.2,2303.8 L 1076.8,2272.4 1094.9,2241.4 1113.4,2211.0 1132.4,2181.5 1151.6,2153.1 1171.1,2125.9 1190.9,2100.1 1210.8,2075.9 1230.8,2053.4 1250.8,2032.8 1270.9,2014.2 1290.9,1997.6 1310.9,1983.3 1330.7,1971.2 1350.3,1961.5 1369.8,1954.1 1389.0,1949.2 1407.9,1946.9 1426.5,1947.0 1444.8,1949.6 1462.7,1954.7 1480.2,1962.3 1497.2,1972.4 1513.8,1984.9 1529.9,1999.8 1545.6,2017.0 1560.7,2036.3 1575.2,2057.8 1589.2,2081.4 1602.7,2106.8 1615.6,2134.0 1627.9,2162.8 1639.5,2193.1 1650.6,2224.7 1661.1,2257.4 1671.0,2291.0 1680.2,2325.4 1688.9,2360.2 1696.9,2395.4  " style="stroke-opacity: 1.000000; stroke-width: 5.0; stroke: rgb(107,174,214); fill: none"  />
<path d="M 1059.2,2303.8 L 1076.2,2272.9 1093.3,2242.4 1110.3,2212.3 1127.1,2183.1 1143.6,2154.8 1159.7,2127.7 1175.4,2101.8 1190.5,2077.5 1205.1,2054.9 1218.9,2034.0 1232.0,2015.1 1244.2,1998.2 1255.6,1983.4 1266.1,1970.9 1275.6,1960.7 1284.2,1952.8 1291.7,1947.3 1298.2,1944.2 1303.6,1943.7 1308.0,1945.6 1311.2,1949.9 1313.4,1956.7 1314.5,1966.0 1314.5,1977.6 1313.5,1991.6 1311.4,2007.8 1308.3,2026.2 1304.2,2046.7 1299.2,2069.1 1293.3,2093.5 1286.6,2119.5 1279.0,2147.1 1270.8,2176.2 1261.8,2206.4 1252.3,2237.8 1242.2,2270.0 1231.7,2302.8 1220.9,2336.1 1209.8,2369.6  " style="stroke-opacity: 1.000000; stroke-width: 5.0; stroke: rgb(107,174,214); fill: none"  />
<path d="M 1059.2,2303.8 L 1076.1,2272.9 1092.7,2242.0 1108.9,2211.6 1124.5,2181.7 1139.5,2152.6 1153.7,2124.4 1167.0,2097.3 1179.4,2071.4 1190.7,2047.0 1200.8,2024.1 1209.8,2002.9 1217.4,1983.5 1223.7,1966.0 1228.7,1950.4 1232.2,1936.8 1234.3,1925.4 1234.8,1916.1 1233.9,1909.0 1231.5,1904.1 1227.6,1901.5 1222.1,1901.1 1215.2,1902.9 1206.8,1906.9 1197.0,1913.2 1185.8,1921.6 1173.2,1932.0 1159.4,1944.5 1144.3,1959.0 1128.0,1975.3 1110.7,1993.3 1092.4,2013.0 1073.2,2034.2 1053.1,2056.8 1032.4,2080.6 1011.1,2105.5 989.3,2131.3 967.3,2157.8 945.0,2184.9 922.8,2212.2  " style="stroke-opacity: 1.000000; stroke-width: 5.0; stroke: rgb(107,174,214); fill: none"  />
<path d="M 1072.0,689.3 L 1088.5,720.4 1105.1,751.3 1121.6,781.6 1137.9,811.1 1154.0,839.6 1169.7,867.0 1185.0,893.1 1199.7,917.6 1213.9,940.5 1227.4,961.6 1240.2,980.7 1252.1,997.8 1263.3,1012.7 1273.6,1025.5 1283.0,1035.9 1291.4,1043.9 1298.8,1049.5 1305.3,1052.6 1310.7,1053.3 1315.0,1051.5 1318.4,1047.1 1320.6,1040.4 1321.9,1031.1 1322.1,1019.5 1321.3,1005.5 1319.4,989.3 1316.7,970.8 1312.9,950.3 1308.3,927.8 1302.7,903.3 1296.4,877.2 1289.3,849.5 1281.5,820.3 1273.0,789.9 1264.0,758.4 1254.4,726.0 1244.5,693.0 1234.2,659.6 1223.6,625.9  " style="stroke-opacity: 1.000000; stroke-width: 5.0; stroke: rgb(107,174,214); fill: none"  />
<path d="M 1223.6,625.9 L 1234.1,660.0 1244.1,694.0 1253.5,727.9 1262.0,761.2 1269.8,794.0 1276.5,825.9 1282.3,856.8 1286.9,886.6 1290.4,915.0 1292.7,942.1 1293.6,967.5 1293.3,991.3 1291.6,1013.3 1288.4,1033.5 1283.9,1051.7 1277.9,1067.9 1270.5,1082.0 1261.6,1093.9 1251.3,1103.7 1239.5,1111.4 1226.3,1116.8 1211.8,1120.0 1195.9,1121.1 1178.7,1119.9 1160.2,1116.7 1140.5,1111.3 1119.7,1103.9 1097.9,1094.5 1075.0,1083.3 1051.2,1070.2 1026.6,1055.4 1001.4,1039.1 975.5,1021.2 949.1,1002.0 922.3,981.6 895.4,960.2 868.3,937.9 841.3,914.9 814.4,891.4  " style="stroke-opacity: 1.000000; stroke-width: 5.0; stroke: rgb(107,174,214); fill: none"  />
<path d="M 1223.6,625.9 L 1234.1,659.7 1244.3,693.4 1253.9,726.8 1262.9,759.6 1271.2,791.6 1278.8,822.7 1285.5,852.6 1291.2,881.2 1296.0,908.4 1299.8,934.0 1302.5,957.8 1304.0,979.8 1304.4,999.8 1303.5,1017.8 1301.5,1033.7 1298.2,1047.3 1293.6,1058.7 1287.8,1067.8 1280.7,1074.5 1272.4,1078.9 1262.8,1081.0 1252.0,1080.7 1240.0,1078.0 1226.9,1073.0 1212.6,1065.8 1197.3,1056.4 1181.0,1044.8 1163.7,1031.1 1145.5,1015.4 1126.5,997.9 1106.8,978.6 1086.4,957.7 1065.5,935.3 1044.1,911.5 1022.3,886.6 1000.3,860.6 978.2,833.9 956.1,806.5 934.1,778.8  " style="stroke-opacity: 1.000000; stroke-width: 5.0; stroke: rgb(107,174,214); fill: none"  />
<path d="M 1223.6,625.9 L 1234.2,659.6 1244.5,693.0 1254.4,726.0 1264.0,758.4 1273.0,789.9 1281.5,820.3 1289.3,849.5 1296.4,877.2 1302.7,903.3 1308.3,927.8 1312.9,950.3 1316.7,970.8 1319.4,989.3 1321.3,1005.5 1322.1,1019.5 1321.9,1031.1 1320.6,1040.4 1318.4,1047.1 1315.0,1051.5 1310.7,1053.3 1305.3,1052.6 1298.8,1049.5 1291.4,1043.9 1283.0,1035.9 1273.6,1025.5 1263.3,1012.7 1252.1,997.8 1240.2,980.7 1227.4,961.6 1213.9,940.5 1199.7,917.6 1185.0,893.1 1169.7,867.0 1154.0,839.6 1137.9,811.1 1121.6,781.6 1105.1,751.3 1088.5,720.4 1072.0,689.3  " style="stroke-opacity: 1.000000; stroke-width: 5.0; stroke: rgb(107,174,214); fill: none"  />
<path d="M 922.8,2212.2 L 947.2,2182.7 972.6,2153.7 998.8,2125.4 1025.7,2097.8 1053.4,2071.2 1081.8,2045.6 1110.9,2021.3 1140.6,1998.3 1170.9,1976.6 1201.7,1956.6 1233.0,1938.1 1264.8,1921.4 1297.0,1906.4 1329.5,1893.2 1362.4,1882.0 1395.6,1872.7 1429.0,1865.4 1462.5,1860.0 1496.3,1856.7 1530.1,1855.5 1563.9,1856.3 1597.8,1859.1 1631.7,1863.9 1665.4,1870.8 1699.0,1879.6 1732.5,1890.3 1765.7,1902.8 1798.6,1917.2 1831.2,1933.3 1863.4,1951.0 1895.2,1970.3 1926.5,1991.1 1957.3,2013.3 1987.5,2036.7 2017.1,2061.2 2046.1,2086.7 2074.3,2113.0 2101.7,2140.0 2128.3,2167.6  " style="stroke-opacity: 1.000000; stroke-width: 5.0; stroke: rgb(107,174,214); fill: none"  />
<path d="M 922.8,2212.2 L 946.8,2183.3 971.6,2154.8 997.2,2127.1 1023.4,2100.2 1050.3,2074.3 1077.7,2049.7 1105.7,2026.3 1134.1,2004.3 1163.0,1983.9 1192.3,1965.2 1221.8,1948.2 1251.7,1933.0 1281.8,1919.8 1312.0,1908.6 1342.4,1899.4 1372.9,1892.4 1403.5,1887.4 1434.0,1884.7 1464.5,1884.1 1494.9,1885.7 1525.1,1889.5 1555.2,1895.5 1585.0,1903.6 1614.6,1913.8 1643.8,1926.1 1672.8,1940.5 1701.3,1956.8 1729.4,1975.0 1757.0,1995.0 1784.1,2016.7 1810.7,2040.1 1836.7,2064.9 1862.0,2091.1 1886.7,2118.5 1910.7,2147.1 1933.9,2176.6 1956.4,2206.9 1978.1,2237.8 1999.0,2269.1  " style="stroke-opacity: 1.000000; stroke-width: 5.0; stroke: rgb(107,174,214); fill: none"  />
<path d="M 922.8,2212.2 L 946.4,2183.7 970.7,2155.8 995.6,2128.5 1021.1,2102.2 1047.0,2077.0 1073.4,2052.9 1100.1,2030.3 1127.2,2009.2 1154.4,1989.7 1181.9,1972.0 1209.5,1956.2 1237.1,1942.3 1264.8,1930.4 1292.4,1920.7 1319.9,1913.1 1347.4,1907.8 1374.6,1904.7 1401.6,1903.9 1428.3,1905.3 1454.8,1909.1 1480.8,1915.2 1506.5,1923.6 1531.8,1934.2 1556.6,1947.1 1580.9,1962.1 1604.7,1979.2 1627.9,1998.4 1650.5,2019.5 1672.5,2042.4 1693.9,2067.2 1714.6,2093.5 1734.6,2121.4 1753.9,2150.6 1772.4,2181.1 1790.2,2212.6 1807.3,2245.0 1823.5,2278.2 1839.0,2311.8 1853.6,2345.8  " style="stroke-opacity: 1.000000; stroke-width: 5.0; stroke: rgb(107,174,214); fill: none"  />
<path d="M 922.8,2212.2 L 946.0,2184.1 969.8,2156.5 994.1,2129.7 1018.8,2103.8 1043.8,2079.0 1069.0,2055.4 1094.4,2033.3 1119.9,2012.8 1145.4,1993.9 1170.9,1976.9 1196.3,1961.8 1221.5,1948.8 1246.5,1937.8 1271.3,1929.0 1295.7,1922.5 1319.7,1918.3 1343.3,1916.4 1366.4,1916.9 1389.0,1919.7 1411.1,1924.9 1432.6,1932.5 1453.5,1942.5 1473.8,1954.8 1493.4,1969.3 1512.2,1986.1 1530.4,2005.0 1547.9,2026.0 1564.5,2049.0 1580.5,2073.8 1595.6,2100.5 1610.0,2128.7 1623.6,2158.5 1636.4,2189.7 1648.4,2222.0 1659.6,2255.4 1670.1,2289.6 1679.8,2324.5 1688.7,2359.8 1696.9,2395.4  " style="stroke-opacity: 1.000000; stroke-width: 5.0; stroke: rgb(107,174,214); fill: none"  />
<path d="M 922.8,2212.2 L 945.4,2184.6 968.3,2157.5 991.4,2131.1 1014.5,2105.6 1037.6,2081.1 1060.5,2057.9 1083.1,2036.0 1105.4,2015.8 1127.3,1997.2 1148.6,1980.4 1169.3,1965.6 1189.4,1952.8 1208.7,1942.1 1227.2,1933.6 1244.9,1927.3 1261.7,1923.4 1277.6,1921.9 1292.4,1922.7 1306.3,1925.9 1319.2,1931.5 1330.9,1939.5 1341.7,1949.9 1351.3,1962.6 1359.8,1977.5 1367.3,1994.8 1373.6,2014.1 1378.9,2035.6 1383.2,2059.0 1386.4,2084.3 1388.5,2111.3 1389.7,2140.0 1390.0,2170.1 1389.4,2201.5 1387.9,2234.1 1385.6,2267.7 1382.6,2302.0 1378.9,2336.9 1374.6,2372.1 1369.8,2407.5  " style="stroke-opacity: 1.000000; stroke-width: 5.0; stroke: rgb(107,174,214); fill: none"  />
<path d="M 922.8,2212.2 L 945.0,2184.9 967.3,2157.8 989.3,2131.3 1011.1,2105.5 1032.4,2080.6 1053.1,2056.8 1073.2,2034.2 1092.4,2013.0 1110.7,1993.3 1128.0,1975.3 1144.3,1959.0 1159.4,1944.5 1173.2,1932.0 1185.8,1921.6 1197.0,1913.2 1206.8,1906.9 1215.2,1902.9 1222.1,1901.1 1227.6,1901.5 1231.5,1904.1 1233.9,1909.0 1234.8,1916.1 1234.3,1925.4 1232.2,1936.8 1228.7,1950.4 1223.7,1966.0 1217.4,1983.5 1209.8,2002.9 1200.8,2024.1 1190.7,2047.0 1179.4,2071.4 1167.0,2097.3 1153.7,2124.4 1139.5,2152.6 1124.5,2181.7 1108.9,2211.6 1092.7,2242.0 1076.1,2272.9 1059.2,2303.8  " style="stroke-opacity: 1.000000; stroke-width: 5.0; stroke: rgb(107,174,214); fill: none"  />
</g>
<defs>
<pattern id="vline-sparse" width="10" height="10" patternTransform="rotate(0 0 0)" patternUnits="userSpaceOnUse"><line x1="0" y1="0" x2="0" y2="10" style="stroke:black;stroke-width:2" /></pattern>
<pattern id="hline-sparse" width="10" height="10" patternTransform="rotate(0 0 0)" patternUnits="userSpaceOnUse"><line x1="0" y1="0" x2="10" y2="0" style="stroke:black;stroke-width:2" /></pattern>
<pattern id="hline" width="10" height="10" patternTransform="rotate(0 0 0)" patternUnits="userSpaceOnUse"><line x1="0" y1="0" x2="10" y2="0" style="stroke:black;stroke-width:5" /></pattern>
<pattern id="vline" width="10" height="10" patternTransform="rotate(0 0 0)" patternUnits="userSpaceOnUse"><line x1="0" y1="0" x2="0" y2="10" style="stroke:black;stroke-width:5" /></pattern>
<pattern id="checker" width="10" height="10" patternTransform="rotate(45 0 0)" patternUnits="userSpaceOnUse"><line x1="0" y1="0" x2="10" y2="0" style="stroke:black;stroke-width:5" /><line x1="0" y1="0" x2="0" y2="10" style="stroke:black;stroke-width:4" /></pattern>
<pattern id="checker" width="10" height="10" patternTransform="rotate(45 0 0)" patternUnits="userSpaceOnUse"><line x1="0" y1="0" x2="10" y2="0" style="stroke:black;stroke-width:2" /><line x1="0" y1="0" x2="0" y2="10" style="stroke:black;stroke-width:2" /></pattern>
</defs>
</svg>
