<?xml version="1.0" encoding="utf-8" standalone="no"?>
<!DOCTYPE svg PUBLIC "-//W3C//DTD SVG 1.1//EN" "http://www.w3.org/Graphics/SVG/1.1/DTD/svg11.dtd">
<svg width="3000px" height="3000px" version="1.1" xmlns="http://www.w3.org/2000/svg" xmlns:xlink="http://www.w3.org/1999/xlink">
<g id="bg">
<rect x="0" y="0" width="3000px" height="3000px" style="fill:rgb(255,255,255);"/>
</g>
<g id="ideograms">
<path d="M1500.000,830.000 A670.000,670.000 40.000 0,1 1570.620,833.732 L1579.053,754.178 A750.000,750.000 0.000 0,0 1500.000,750.000 Z" style="stroke-width:2.0;stroke:rgb(115,115,115);stroke-linecap:round;fill:rgb(153,204,255);" />
<text x="1567.5" y="677.8" font-size="65.0px" font-family="CMUBright-Roman" style="text-anchor:start;fill:rgb(0,0,0);" transform="rotate(273.0,1567.5,677.8)" >5-FP</text>
<path d="M1500.000,830.000 A670.000,670.000 40.000 0,1 1570.620,833.732 L1579.053,754.178 A750.000,750.000 0.000 0,0 1500.000,750.000 Z" style="stroke-width:2.0;stroke:rgb(115,115,115);stroke-linecap:round;fill:none;" />
<path d="M1619.633,840.767 A670.000,670.000 40.000 0,1 1688.452,857.049 L1710.954,780.279 A750.000,750.000 0.000 0,0 1633.918,762.053 Z" style="stroke-width:2.0;stroke:rgb(115,115,115);stroke-linecap:round;fill:rgb(153,204,255);" />
<text x="1713.7" y="703.2" font-size="65.0px" font-family="CMUBright-Roman" style="text-anchor:start;fill:rgb(0,0,0);" transform="rotate(283.3,1713.7,703.2)" >6-IFG</text>
<path d="M1619.633,840.767 A670.000,670.000 40.000 0,1 1688.452,857.049 L1710.954,780.279 A750.000,750.000 0.000 0,0 1633.918,762.053 Z" style="stroke-width:2.0;stroke:rgb(115,115,115);stroke-linecap:round;fill:none;" />
<path d="M1735.421,872.723 A670.000,670.000 40.000 0,1 1800.227,901.031 L1836.075,829.512 A750.000,750.000 0.000 0,0 1763.531,797.824 Z" style="stroke-width:2.0;stroke:rgb(115,115,115);stroke-linecap:round;fill:rgb(153,204,255);" />
<text x="1852.5" y="754.1" font-size="65.0px" font-family="CMUBright-Roman" style="text-anchor:start;fill:rgb(0,0,0);" transform="rotate(293.6,1852.5,754.1)" >8-IFG</text>
<path d="M1735.421,872.723 A670.000,670.000 40.000 0,1 1800.227,901.031 L1836.075,829.512 A750.000,750.000 0.000 0,0 1763.531,797.824 Z" style="stroke-width:2.0;stroke:rgb(115,115,115);stroke-linecap:round;fill:none;" />
<path d="M1843.643,924.839 A670.000,670.000 40.000 0,1 1902.352,964.264 L1950.394,900.296 A750.000,750.000 0.000 0,0 1884.674,856.163 Z" style="stroke-width:2.0;stroke:rgb(115,115,115);stroke-linecap:round;fill:rgb(153,204,255);" />
<text x="1979.7" y="828.8" font-size="65.0px" font-family="CMUBright-Roman" style="text-anchor:start;fill:rgb(0,0,0);" transform="rotate(303.9,1979.7,828.8)" >10-IPL</text>
<path d="M1843.643,924.839 A670.000,670.000 40.000 0,1 1902.352,964.264 L1950.394,900.296 A750.000,750.000 0.000 0,0 1884.674,856.163 Z" style="stroke-width:2.0;stroke:rgb(115,115,115);stroke-linecap:round;fill:none;" />
<path d="M1940.819,995.442 A670.000,670.000 40.000 0,1 1991.546,1044.717 L2050.238,990.354 A750.000,750.000 0.000 0,0 1993.454,935.196 Z" style="stroke-width:2.0;stroke:rgb(115,115,115);stroke-linecap:round;fill:rgb(153,204,255);" />
<text x="2092.1" y="925.6" font-size="65.0px" font-family="CMUBright-Roman" style="text-anchor:start;fill:rgb(0,0,0);" transform="rotate(314.2,2092.1,925.6)" >19-MTG</text>
<path d="M1940.819,995.442 A670.000,670.000 40.000 0,1 1991.546,1044.717 L2050.238,990.354 A750.000,750.000 0.000 0,0 1993.454,935.196 Z" style="stroke-width:2.0;stroke:rgb(115,115,115);stroke-linecap:round;fill:none;" />
<path d="M2023.827,1082.262 A670.000,670.000 40.000 0,1 2064.940,1139.802 L2132.396,1096.793 A750.000,750.000 0.000 0,0 2086.374,1032.383 Z" style="stroke-width:2.0;stroke:rgb(115,115,115);stroke-linecap:round;fill:rgb(153,204,255);" />
<text x="2184.6" y="1039.7" font-size="65.0px" font-family="CMUBright-Roman" style="text-anchor:start;fill:rgb(0,0,0);" transform="rotate(324.5,2184.6,1039.7)" >24-PP</text>
<path d="M2023.827,1082.262 A670.000,670.000 40.000 0,1 2064.940,1139.802 L2132.396,1096.793 A750.000,750.000 0.000 0,0 2086.374,1032.383 Z" style="stroke-width:2.0;stroke:rgb(115,115,115);stroke-linecap:round;fill:none;" />
<path d="M2089.999,1182.508 A670.000,670.000 40.000 0,1 2120.177,1246.465 L2194.228,1216.192 A750.000,750.000 0.000 0,0 2160.447,1144.599 Z" style="stroke-width:2.0;stroke:rgb(115,115,115);stroke-linecap:round;fill:rgb(153,204,255);" />
<text x="2256.2" y="1170.3" font-size="65.0px" font-family="CMUBright-Roman" style="text-anchor:start;fill:rgb(0,0,0);" transform="rotate(334.7,2256.2,1170.3)" >35-SG</text>
<path d="M2089.999,1182.508 A670.000,670.000 40.000 0,1 2120.177,1246.465 L2194.228,1216.192 A750.000,750.000 0.000 0,0 2160.447,1144.599 Z" style="stroke-width:2.0;stroke:rgb(115,115,115);stroke-linecap:round;fill:none;" />
<path d="M2137.208,1292.959 A670.000,670.000 40.000 0,1 2155.481,1361.276 L2233.748,1344.712 A750.000,750.000 0.000 0,0 2213.292,1268.237 Z" style="stroke-width:2.0;stroke:rgb(115,115,115);stroke-linecap:round;fill:rgb(116,196,118);" />
<text x="2303.0" y="1310.6" font-size="65.0px" font-family="CMUBright-Roman" style="text-anchor:start;fill:rgb(0,0,0);" transform="rotate(345.0,2303.0,1310.6)" >4-FOC</text>
<path d="M2137.208,1292.959 A670.000,670.000 40.000 0,1 2155.481,1361.276 L2233.748,1344.712 A750.000,750.000 0.000 0,0 2213.292,1268.237 Z" style="stroke-width:2.0;stroke:rgb(115,115,115);stroke-linecap:round;fill:none;" />
<path d="M2163.936,1410.064 A670.000,670.000 40.000 0,1 2169.718,1480.546 L2249.684,1478.223 A750.000,750.000 0.000 0,0 2243.212,1399.325 Z" style="stroke-width:2.0;stroke:rgb(115,115,115);stroke-linecap:round;fill:rgb(116,196,118);" />
<text x="2323.9" y="1457.0" font-size="65.0px" font-family="CMUBright-Roman" style="text-anchor:start;fill:rgb(0,0,0);" transform="rotate(355.3,2323.9,1457.0)" >11-ITG</text>
<path d="M2163.936,1410.064 A670.000,670.000 40.000 0,1 2169.718,1480.546 L2249.684,1478.223 A750.000,750.000 0.000 0,0 2243.212,1399.325 Z" style="stroke-width:2.0;stroke:rgb(115,115,115);stroke-linecap:round;fill:none;" />
<path d="M2169.325,1530.059 A670.000,670.000 40.000 0,1 2162.429,1600.441 L2241.524,1612.434 A750.000,750.000 0.000 0,0 2249.245,1533.649 Z" style="stroke-width:2.0;stroke:rgb(115,115,115);stroke-linecap:round;fill:rgb(116,196,118);" />
<text x="2318.4" y="1603.8" font-size="65.0px" font-family="CMUBright-Roman" style="text-anchor:start;fill:rgb(0,0,0);" transform="rotate(5.6,2318.4,1603.8)" >14-LIX</text>
<path d="M2169.325,1530.059 A670.000,670.000 40.000 0,1 2162.429,1600.441 L2241.524,1612.434 A750.000,750.000 0.000 0,0 2249.245,1533.649 Z" style="stroke-width:2.0;stroke:rgb(115,115,115);stroke-linecap:round;fill:none;" />
<path d="M2153.202,1649.089 A670.000,670.000 40.000 0,1 2133.849,1717.108 L2209.532,1743.032 A750.000,750.000 0.000 0,0 2231.196,1666.891 Z" style="stroke-width:2.0;stroke:rgb(115,115,115);stroke-linecap:round;fill:rgb(116,196,118);" />
<text x="2286.5" y="1749.2" font-size="65.0px" font-family="CMUBright-Roman" style="text-anchor:start;fill:rgb(0,0,0);" transform="rotate(15.9,2286.5,1749.2)" >22-ParG</text>
<path d="M2153.202,1649.089 A670.000,670.000 40.000 0,1 2133.849,1717.108 L2209.532,1743.032 A750.000,750.000 0.000 0,0 2231.196,1666.891 Z" style="stroke-width:2.0;stroke:rgb(115,115,115);stroke-linecap:round;fill:none;" />
<path d="M2116.084,1763.327 A670.000,670.000 40.000 0,1 2084.896,1826.797 L2154.734,1865.818 A750.000,750.000 0.000 0,0 2189.646,1794.769 Z" style="stroke-width:2.0;stroke:rgb(115,115,115);stroke-linecap:round;fill:rgb(116,196,118);" />
<text x="2229.5" y="1885.2" font-size="65.0px" font-family="CMUBright-Roman" style="text-anchor:start;fill:rgb(0,0,0);" transform="rotate(26.2,2229.5,1885.2)" >31-RLV</text>
<path d="M2116.084,1763.327 A670.000,670.000 40.000 0,1 2084.896,1826.797 L2154.734,1865.818 A750.000,750.000 0.000 0,0 2189.646,1794.769 Z" style="stroke-width:2.0;stroke:rgb(115,115,115);stroke-linecap:round;fill:none;" />
<path d="M2059.164,1869.101 A670.000,670.000 40.000 0,1 2017.145,1925.983 L2078.893,1976.846 A750.000,750.000 0.000 0,0 2125.930,1913.173 Z" style="stroke-width:2.0;stroke:rgb(115,115,115);stroke-linecap:round;fill:rgb(116,196,118);" />
<text x="2149.0" y="2009.3" font-size="65.0px" font-family="CMUBright-Roman" style="text-anchor:start;fill:rgb(0,0,0);" transform="rotate(36.5,2149.0,2009.3)" >32-RLV</text>
<path d="M2059.164,1869.101 A670.000,670.000 40.000 0,1 2017.145,1925.983 L2078.893,1976.846 A750.000,750.000 0.000 0,0 2125.930,1913.173 Z" style="stroke-width:2.0;stroke:rgb(115,115,115);stroke-linecap:round;fill:none;" />
<path d="M1984.273,1963.012 A670.000,670.000 40.000 0,1 1932.772,2011.477 L1984.446,2072.549 A750.000,750.000 0.000 0,0 2042.096,2018.297 Z" style="stroke-width:2.0;stroke:rgb(115,115,115);stroke-linecap:round;fill:rgb(153,0,204);" />
<text x="2047.3" y="2117.3" font-size="65.0px" font-family="CMUBright-Roman" style="text-anchor:start;fill:rgb(0,0,0);" transform="rotate(46.7,2047.3,2117.3)" >1-AG</text>
<path d="M1984.273,1963.012 A670.000,670.000 40.000 0,1 1932.772,2011.477 L1984.446,2072.549 A750.000,750.000 0.000 0,0 2042.096,2018.297 Z" style="stroke-width:2.0;stroke:rgb(115,115,115);stroke-linecap:round;fill:none;" />
<path d="M1893.816,2042.041 A670.000,670.000 40.000 0,1 1834.489,2080.532 L1874.428,2149.849 A750.000,750.000 0.000 0,0 1940.839,2106.763 Z" style="stroke-width:2.0;stroke:rgb(115,115,115);stroke-linecap:round;fill:rgb(153,0,204);" />
<text x="1928.7" y="2204.9" font-size="65.0px" font-family="CMUBright-Roman" style="text-anchor:start;fill:rgb(0,0,0);" transform="rotate(57.0,1928.7,2204.9)" >9-IPL</text>
<path d="M1893.816,2042.041 A670.000,670.000 40.000 0,1 1834.489,2080.532 L1874.428,2149.849 A750.000,750.000 0.000 0,0 1940.839,2106.763 Z" style="stroke-width:2.0;stroke:rgb(115,115,115);stroke-linecap:round;fill:none;" />
<path d="M1790.702,2103.649 A670.000,670.000 40.000 0,1 1725.456,2130.928 L1752.376,2206.262 A750.000,750.000 0.000 0,0 1825.413,2175.727 Z" style="stroke-width:2.0;stroke:rgb(115,115,115);stroke-linecap:round;fill:rgb(153,0,204);" />
<text x="1795.5" y="2270.3" font-size="65.0px" font-family="CMUBright-Roman" style="text-anchor:start;fill:rgb(0,0,0);" transform="rotate(67.3,1795.5,2270.3)" >17-MFG</text>
<path d="M1790.702,2103.649 A670.000,670.000 40.000 0,1 1725.456,2130.928 L1752.376,2206.262 A750.000,750.000 0.000 0,0 1825.413,2175.727 Z" style="stroke-width:2.0;stroke:rgb(115,115,115);stroke-linecap:round;fill:none;" />
<path d="M1678.245,2145.855 A670.000,670.000 40.000 0,1 1609.176,2161.045 L1622.212,2239.976 A750.000,750.000 0.000 0,0 1699.528,2222.972 Z" style="stroke-width:2.0;stroke:rgb(115,115,115);stroke-linecap:round;fill:rgb(153,0,204);" />
<text x="1653.2" y="2310.7" font-size="65.0px" font-family="CMUBright-Roman" style="text-anchor:start;fill:rgb(0,0,0);" transform="rotate(77.6,1653.2,2310.7)" >21-OP</text>
<path d="M1678.245,2145.855 A670.000,670.000 40.000 0,1 1609.176,2161.045 L1622.212,2239.976 A750.000,750.000 0.000 0,0 1699.528,2222.972 Z" style="stroke-width:2.0;stroke:rgb(115,115,115);stroke-linecap:round;fill:none;" />
<path d="M1560.058,2167.303 A670.000,670.000 40.000 0,1 1489.388,2169.916 L1488.121,2249.906 A750.000,750.000 0.000 0,0 1567.229,2246.981 Z" style="stroke-width:2.0;stroke:rgb(115,115,115);stroke-linecap:round;fill:rgb(153,0,204);" />
<text x="1506.0" y="2325.0" font-size="65.0px" font-family="CMUBright-Roman" style="text-anchor:start;fill:rgb(0,0,0);" transform="rotate(87.9,1506.0,2325.0)" >25-PosG</text>
<path d="M1560.058,2167.303 A670.000,670.000 40.000 0,1 1489.388,2169.916 L1488.121,2249.906 A750.000,750.000 0.000 0,0 1567.229,2246.981 Z" style="stroke-width:2.0;stroke:rgb(115,115,115);stroke-linecap:round;fill:none;" />
<path d="M1439.942,2167.303 A670.000,670.000 40.000 0,1 1369.940,2157.255 L1354.411,2235.733 A750.000,750.000 0.000 0,0 1432.771,2246.981 Z" style="stroke-width:2.0;stroke:rgb(115,115,115);stroke-linecap:round;fill:rgb(153,0,204);" />
<text x="1407.1" y="2319.8" font-size="65.0px" font-family="CMUBright-Roman" style="text-anchor:end;fill:rgb(0,0,0);" transform="rotate(-81.8,1407.1,2319.8)" >34-SG</text>
<path d="M1439.942,2167.303 A670.000,670.000 40.000 0,1 1369.940,2157.255 L1354.411,2235.733 A750.000,750.000 0.000 0,0 1432.771,2246.981 Z" style="stroke-width:2.0;stroke:rgb(115,115,115);stroke-linecap:round;fill:none;" />
<path d="M1321.755,2145.855 A670.000,670.000 40.000 0,1 1254.673,2123.470 L1225.380,2197.914 A750.000,750.000 0.000 0,0 1300.472,2222.972 Z" style="stroke-width:2.0;stroke:rgb(115,115,115);stroke-linecap:round;fill:rgb(253,208,162);" />
<text x="1262.2" y="2290.0" font-size="65.0px" font-family="CMUBright-Roman" style="text-anchor:end;fill:rgb(0,0,0);" transform="rotate(-71.5,1262.2,2290.0)" >12-LOC</text>
<path d="M1321.755,2145.855 A670.000,670.000 40.000 0,1 1254.673,2123.470 L1225.380,2197.914 A750.000,750.000 0.000 0,0 1300.472,2222.972 Z" style="stroke-width:2.0;stroke:rgb(115,115,115);stroke-linecap:round;fill:none;" />
<path d="M1209.298,2103.649 A670.000,670.000 40.000 0,1 1147.290,2069.645 L1105.176,2137.663 A750.000,750.000 0.000 0,0 1174.587,2175.727 Z" style="stroke-width:2.0;stroke:rgb(115,115,115);stroke-linecap:round;fill:rgb(253,208,162);" />
<text x="1125.0" y="2234.8" font-size="65.0px" font-family="CMUBright-Roman" style="text-anchor:end;fill:rgb(0,0,0);" transform="rotate(-61.3,1125.0,2234.8)" >16-LG</text>
<path d="M1209.298,2103.649 A670.000,670.000 40.000 0,1 1147.290,2069.645 L1105.176,2137.663 A750.000,750.000 0.000 0,0 1174.587,2175.727 Z" style="stroke-width:2.0;stroke:rgb(115,115,115);stroke-linecap:round;fill:none;" />
<path d="M1106.184,2042.041 A670.000,670.000 40.000 0,1 1051.245,1997.512 L997.662,2056.917 A750.000,750.000 0.000 0,0 1059.161,2106.763 Z" style="stroke-width:2.0;stroke:rgb(115,115,115);stroke-linecap:round;fill:rgb(253,208,162);" />
<text x="999.8" y="2156.1" font-size="65.0px" font-family="CMUBright-Roman" style="text-anchor:end;fill:rgb(0,0,0);" transform="rotate(-51.0,999.8,2156.1)" >20-OFG</text>
<path d="M1106.184,2042.041 A670.000,670.000 40.000 0,1 1051.245,1997.512 L997.662,2056.917 A750.000,750.000 0.000 0,0 1059.161,2106.763 Z" style="stroke-width:2.0;stroke:rgb(115,115,115);stroke-linecap:round;fill:none;" />
<path d="M1015.727,1963.012 A670.000,670.000 40.000 0,1 969.622,1909.389 L906.293,1958.271 A750.000,750.000 0.000 0,0 957.904,2018.297 Z" style="stroke-width:2.0;stroke:rgb(115,115,115);stroke-linecap:round;fill:rgb(253,208,162);" />
<text x="890.3" y="2055.8" font-size="65.0px" font-family="CMUBright-Roman" style="text-anchor:end;fill:rgb(0,0,0);" transform="rotate(-40.7,890.3,2055.8)" >23-PP</text>
<path d="M1015.727,1963.012 A670.000,670.000 40.000 0,1 969.622,1909.389 L906.293,1958.271 A750.000,750.000 0.000 0,0 957.904,2018.297 Z" style="stroke-width:2.0;stroke:rgb(115,115,115);stroke-linecap:round;fill:none;" />
<path d="M940.836,1869.101 A670.000,670.000 40.000 0,1 905.046,1808.107 L834.007,1844.896 A750.000,750.000 0.000 0,0 874.070,1913.173 Z" style="stroke-width:2.0;stroke:rgb(115,115,115);stroke-linecap:round;fill:rgb(253,208,162);" />
<text x="801.2" y="1938.5" font-size="65.0px" font-family="CMUBright-Roman" style="text-anchor:end;fill:rgb(0,0,0);" transform="rotate(-30.4,801.2,1938.5)" >29-RCI</text>
<path d="M940.836,1869.101 A670.000,670.000 40.000 0,1 905.046,1808.107 L834.007,1844.896 A750.000,750.000 0.000 0,0 874.070,1913.173 Z" style="stroke-width:2.0;stroke:rgb(115,115,115);stroke-linecap:round;fill:none;" />
<path d="M883.916,1763.327 A670.000,670.000 40.000 0,1 859.593,1696.922 L783.126,1720.436 A750.000,750.000 0.000 0,0 810.354,1794.769 Z" style="stroke-width:2.0;stroke:rgb(115,115,115);stroke-linecap:round;fill:rgb(253,141,60);" />
<text x="734.1" y="1806.6" font-size="65.0px" font-family="CMUBright-Roman" style="text-anchor:end;fill:rgb(0,0,0);" transform="rotate(-20.1,734.1,1806.6)" >2-COC</text>
<path d="M883.916,1763.327 A670.000,670.000 40.000 0,1 859.593,1696.922 L783.126,1720.436 A750.000,750.000 0.000 0,0 810.354,1794.769 Z" style="stroke-width:2.0;stroke:rgb(115,115,115);stroke-linecap:round;fill:none;" />
<path d="M846.798,1649.089 A670.000,670.000 40.000 0,1 834.722,1579.409 L755.286,1588.890 A750.000,750.000 0.000 0,0 768.804,1666.891 Z" style="stroke-width:2.0;stroke:rgb(115,115,115);stroke-linecap:round;fill:rgb(253,141,60);" />
<text x="691.7" y="1665.0" font-size="65.0px" font-family="CMUBright-Roman" style="text-anchor:end;fill:rgb(0,0,0);" transform="rotate(-9.8,691.7,1665.0)" >3-COC</text>
<path d="M846.798,1649.089 A670.000,670.000 40.000 0,1 834.722,1579.409 L755.286,1588.890 A750.000,750.000 0.000 0,0 768.804,1666.891 Z" style="stroke-width:2.0;stroke:rgb(115,115,115);stroke-linecap:round;fill:none;" />
<path d="M830.675,1530.059 A670.000,670.000 40.000 0,1 831.235,1459.343 L751.382,1454.488 A750.000,750.000 0.000 0,0 750.755,1533.649 Z" style="stroke-width:2.0;stroke:rgb(115,115,115);stroke-linecap:round;fill:rgb(253,141,60);" />
<text x="675.2" y="1517.5" font-size="65.0px" font-family="CMUBright-Roman" style="text-anchor:end;fill:rgb(0,0,0);" transform="rotate(0.5,675.2,1517.5)" >15-LVIIIb</text>
<path d="M830.675,1530.059 A670.000,670.000 40.000 0,1 831.235,1459.343 L751.382,1454.488 A750.000,750.000 0.000 0,0 750.755,1533.649 Z" style="stroke-width:2.0;stroke:rgb(115,115,115);stroke-linecap:round;fill:none;" />
<path d="M836.064,1410.064 A670.000,670.000 40.000 0,1 849.242,1340.583 L771.539,1321.549 A750.000,750.000 0.000 0,0 756.788,1399.325 Z" style="stroke-width:2.0;stroke:rgb(115,115,115);stroke-linecap:round;fill:rgb(253,141,60);" />
<text x="685.2" y="1370.4" font-size="65.0px" font-family="CMUBright-Roman" style="text-anchor:end;fill:rgb(0,0,0);" transform="rotate(10.7,685.2,1370.4)" >26-PC</text>
<path d="M836.064,1410.064 A670.000,670.000 40.000 0,1 849.242,1340.583 L771.539,1321.549 A750.000,750.000 0.000 0,0 756.788,1399.325 Z" style="stroke-width:2.0;stroke:rgb(115,115,115);stroke-linecap:round;fill:none;" />
<path d="M862.792,1292.959 A670.000,670.000 40.000 0,1 888.165,1226.948 L815.110,1194.345 A750.000,750.000 0.000 0,0 786.708,1268.237 Z" style="stroke-width:2.0;stroke:rgb(115,115,115);stroke-linecap:round;fill:rgb(253,141,60);" />
<text x="721.6" y="1226.5" font-size="65.0px" font-family="CMUBright-Roman" style="text-anchor:end;fill:rgb(0,0,0);" transform="rotate(21.0,721.6,1226.5)" >30-RH</text>
<path d="M862.792,1292.959 A670.000,670.000 40.000 0,1 888.165,1226.948 L815.110,1194.345 A750.000,750.000 0.000 0,0 786.708,1268.237 Z" style="stroke-width:2.0;stroke:rgb(115,115,115);stroke-linecap:round;fill:none;" />
<path d="M910.001,1182.508 A670.000,670.000 40.000 0,1 946.752,1122.089 L880.693,1076.965 A750.000,750.000 0.000 0,0 839.553,1144.599 Z" style="stroke-width:2.0;stroke:rgb(115,115,115);stroke-linecap:round;fill:rgb(253,141,60);" />
<text x="782.7" y="1092.4" font-size="65.0px" font-family="CMUBright-Roman" style="text-anchor:end;fill:rgb(0,0,0);" transform="rotate(31.3,782.7,1092.4)" >33-SC</text>
<path d="M910.001,1182.508 A670.000,670.000 40.000 0,1 946.752,1122.089 L880.693,1076.965 A750.000,750.000 0.000 0,0 839.553,1144.599 Z" style="stroke-width:2.0;stroke:rgb(115,115,115);stroke-linecap:round;fill:none;" />
<path d="M976.173,1082.262 A670.000,670.000 40.000 0,1 1023.122,1029.376 L966.181,973.182 A750.000,750.000 0.000 0,0 913.626,1032.383 Z" style="stroke-width:2.0;stroke:rgb(115,115,115);stroke-linecap:round;fill:rgb(66,146,198);" />
<text x="867.0" y="970.9" font-size="65.0px" font-family="CMUBright-Roman" style="text-anchor:end;fill:rgb(0,0,0);" transform="rotate(41.6,867.0,970.9)" >7-IFG</text>
<path d="M976.173,1082.262 A670.000,670.000 40.000 0,1 1023.122,1029.376 L966.181,973.182 A750.000,750.000 0.000 0,0 913.626,1032.383 Z" style="stroke-width:2.0;stroke:rgb(115,115,115);stroke-linecap:round;fill:none;" />
<path d="M1059.181,995.442 A670.000,670.000 40.000 0,1 1114.819,951.789 L1068.827,886.331 A750.000,750.000 0.000 0,0 1006.546,935.196 Z" style="stroke-width:2.0;stroke:rgb(115,115,115);stroke-linecap:round;fill:rgb(66,146,198);" />
<text x="971.7" y="866.3" font-size="65.0px" font-family="CMUBright-Roman" style="text-anchor:end;fill:rgb(0,0,0);" transform="rotate(51.9,971.7,866.3)" >13-LCI</text>
<path d="M1059.181,995.442 A670.000,670.000 40.000 0,1 1114.819,951.789 L1068.827,886.331 A750.000,750.000 0.000 0,0 1006.546,935.196 Z" style="stroke-width:2.0;stroke:rgb(115,115,115);stroke-linecap:round;fill:none;" />
<path d="M1156.357,924.839 A670.000,670.000 40.000 0,1 1218.896,891.822 L1185.331,819.204 A750.000,750.000 0.000 0,0 1115.326,856.163 Z" style="stroke-width:2.0;stroke:rgb(115,115,115);stroke-linecap:round;fill:rgb(66,146,198);" />
<text x="1093.3" y="782.2" font-size="65.0px" font-family="CMUBright-Roman" style="text-anchor:end;fill:rgb(0,0,0);" transform="rotate(62.2,1093.3,782.2)" >18-MTG</text>
<path d="M1156.357,924.839 A670.000,670.000 40.000 0,1 1218.896,891.822 L1185.331,819.204 A750.000,750.000 0.000 0,0 1115.326,856.163 Z" style="stroke-width:2.0;stroke:rgb(115,115,115);stroke-linecap:round;fill:none;" />
<path d="M1264.579,872.723 A670.000,670.000 40.000 0,1 1332.008,851.403 L1311.949,773.958 A750.000,750.000 0.000 0,0 1236.469,797.824 Z" style="stroke-width:2.0;stroke:rgb(115,115,115);stroke-linecap:round;fill:rgb(66,146,198);" />
<text x="1228.0" y="721.1" font-size="65.0px" font-family="CMUBright-Roman" style="text-anchor:end;fill:rgb(0,0,0);" transform="rotate(72.5,1228.0,721.1)" >27-RCI</text>
<path d="M1264.579,872.723 A670.000,670.000 40.000 0,1 1332.008,851.403 L1311.949,773.958 A750.000,750.000 0.000 0,0 1236.469,797.824 Z" style="stroke-width:2.0;stroke:rgb(115,115,115);stroke-linecap:round;fill:none;" />
<path d="M1380.367,840.767 A670.000,670.000 40.000 0,1 1450.519,831.830 L1444.611,752.048 A750.000,750.000 0.000 0,0 1366.082,762.053 Z" style="stroke-width:2.0;stroke:rgb(115,115,115);stroke-linecap:round;fill:rgb(66,146,198);" />
<text x="1371.5" y="685.1" font-size="65.0px" font-family="CMUBright-Roman" style="text-anchor:end;fill:rgb(0,0,0);" transform="rotate(82.7,1371.5,685.1)" >28-RCI</text>
<path d="M1380.367,840.767 A670.000,670.000 40.000 0,1 1450.519,831.830 L1444.611,752.048 A750.000,750.000 0.000 0,0 1366.082,762.053 Z" style="stroke-width:2.0;stroke:rgb(115,115,115);stroke-linecap:round;fill:none;" />
</g>
<g id="track_1">
<path d="M 1533.6,864.4 L 1532.1,889.4 1530.1,914.2 1527.6,938.8 1524.7,962.9 1521.2,986.5 1517.2,1009.4 1512.6,1031.5 1507.4,1052.6 1501.7,1072.7 1495.4,1091.7 1488.4,1109.4 1480.9,1125.7 1472.7,1140.7 1464.0,1154.2 1454.6,1166.3 1444.6,1176.7 1434.1,1185.5 1423.0,1192.7 1411.3,1198.3 1399.1,1202.1 1386.4,1204.3 1373.1,1204.8 1359.4,1203.6 1345.3,1200.8 1330.7,1196.4 1315.8,1190.3 1300.5,1182.8 1284.9,1173.7 1269.0,1163.2 1253.0,1151.4 1236.7,1138.2 1220.4,1123.9 1203.9,1108.5 1187.5,1092.0 1171.1,1074.7 1154.8,1056.7 1138.6,1038.0 1122.7,1018.8 1107.1,999.2  " style="stroke-opacity: 1.000000; stroke-width: 5.0; stroke: rgb(251,106,74); fill: none"  />
<path d="M 1646.5,880.6 L 1640.4,905.5 1633.6,930.3 1626.2,954.9 1618.2,979.0 1609.6,1002.6 1600.3,1025.6 1590.4,1047.8 1579.8,1069.2 1568.6,1089.6 1556.8,1108.9 1544.3,1127.1 1531.2,1144.1 1517.5,1159.9 1503.1,1174.3 1488.2,1187.3 1472.6,1198.9 1456.5,1209.1 1439.9,1217.7 1422.7,1224.9 1405.0,1230.4 1386.9,1234.5 1368.3,1237.0 1349.3,1237.9 1329.9,1237.4 1310.2,1235.3 1290.2,1231.8 1269.9,1226.8 1249.4,1220.4 1228.7,1212.6 1207.9,1203.6 1187.0,1193.4 1166.1,1182.0 1145.2,1169.5 1124.4,1156.0 1103.8,1141.7 1083.4,1126.5 1063.2,1110.7 1043.4,1094.3 1024.0,1077.4  " style="stroke-opacity: 1.000000; stroke-width: 5.0; stroke: rgb(251,106,74); fill: none"  />
<path d="M 1024.0,1077.4 L 1043.4,1094.3 1063.2,1110.7 1083.4,1126.5 1103.8,1141.7 1124.4,1156.0 1145.2,1169.5 1166.1,1182.0 1187.0,1193.4 1207.9,1203.6 1228.7,1212.6 1249.4,1220.4 1269.9,1226.8 1290.2,1231.8 1310.2,1235.3 1329.9,1237.4 1349.3,1237.9 1368.3,1237.0 1386.9,1234.5 1405.0,1230.4 1422.7,1224.9 1439.9,1217.7 1456.5,1209.1 1472.6,1198.9 1488.2,1187.3 1503.1,1174.3 1517.5,1159.9 1531.2,1144.1 1544.3,1127.1 1556.8,1108.9 1568.6,1089.6 1579.8,1069.2 1590.4,1047.8 1600.3,1025.6 1609.6,1002.6 1618.2,979.0 1626.2,954.9 1633.6,930.3 1640.4,905.5 1646.5,880.6  " style="stroke-opacity: 1.000000; stroke-width: 5.0; stroke: rgb(251,106,74); fill: none"  />
<path d="M 1854.8,971.6 L 1840.0,993.1 1824.6,1014.3 1808.7,1035.1 1792.2,1055.3 1775.3,1074.8 1757.8,1093.6 1739.9,1111.5 1721.6,1128.5 1702.9,1144.4 1683.9,1159.2 1664.5,1172.8 1644.8,1185.1 1624.8,1196.1 1604.5,1205.7 1584.1,1214.0 1563.4,1220.8 1542.6,1226.1 1521.7,1229.9 1500.7,1232.2 1479.6,1233.0 1458.4,1232.2 1437.2,1230.0 1416.1,1226.2 1395.0,1221.0 1374.0,1214.3 1353.1,1206.1 1332.4,1196.6 1311.8,1185.8 1291.5,1173.7 1271.4,1160.4 1251.6,1145.9 1232.0,1130.3 1212.9,1113.8 1194.1,1096.3 1175.7,1078.1 1157.8,1059.1 1140.4,1039.6 1123.5,1019.6 1107.1,999.2  " style="stroke-opacity: 1.000000; stroke-width: 5.0; stroke: rgb(251,106,74); fill: none"  />
<path d="M 1854.8,971.6 L 1837.7,997.3 1820.7,1023.4 1803.9,1049.8 1787.2,1076.5 1770.7,1103.6 1754.4,1130.9 1738.4,1158.5 1722.6,1186.4 1707.1,1214.6 1691.9,1243.0 1677.0,1271.7 1662.3,1300.6 1648.0,1329.8 1634.1,1359.2 1620.5,1388.9 1607.2,1418.7 1594.4,1448.7 1581.8,1478.9 1569.7,1509.3 1558.0,1539.8 1546.7,1570.5 1535.7,1601.3 1525.2,1632.2 1515.0,1663.2 1505.3,1694.3 1496.0,1725.5 1487.0,1756.8 1478.5,1788.0 1470.4,1819.4 1462.6,1850.7 1455.3,1882.0 1448.3,1913.3 1441.7,1944.5 1435.5,1975.7 1429.6,2006.8 1424.1,2037.8 1418.9,2068.7 1414.1,2099.4 1409.6,2130.0  " style="stroke-opacity: 1.000000; stroke-width: 5.0; stroke: rgb(251,106,74); fill: none"  />
<path d="M 1298.5,2103.8 L 1306.5,2080.3 1314.8,2057.1 1323.4,2034.3 1332.2,2012.1 1341.2,1990.5 1350.4,1969.9 1359.8,1950.1 1369.3,1931.5 1379.0,1914.1 1388.8,1898.0 1398.6,1883.3 1408.5,1870.1 1418.5,1858.4 1428.5,1848.4 1438.4,1840.0 1448.4,1833.4 1458.3,1828.5 1468.2,1825.4 1478.0,1824.1 1487.7,1824.6 1497.3,1826.9 1506.8,1831.1 1516.2,1837.0 1525.4,1844.6 1534.4,1854.0 1543.3,1865.0 1552.0,1877.7 1560.4,1891.9 1568.7,1907.5 1576.7,1924.6 1584.5,1942.9 1592.0,1962.4 1599.2,1983.0 1606.2,2004.5 1612.9,2026.9 1619.3,2050.0 1625.4,2073.5 1631.2,2097.5 1636.7,2121.6  " style="stroke-opacity: 1.000000; stroke-width: 5.0; stroke: rgb(251,106,74); fill: none"  />
<path d="M 1298.5,2103.8 L 1306.4,2080.5 1314.5,2057.4 1322.7,2034.8 1331.0,2012.7 1339.4,1991.3 1347.9,1970.7 1356.3,1951.2 1364.7,1932.7 1373.1,1915.5 1381.5,1899.6 1389.7,1885.1 1397.8,1872.2 1405.8,1860.8 1413.6,1851.0 1421.2,1843.0 1428.6,1836.6 1435.8,1832.1 1442.8,1829.4 1449.5,1828.5 1456.0,1829.4 1462.2,1832.2 1468.2,1836.7 1473.8,1843.1 1479.2,1851.3 1484.2,1861.2 1489.0,1872.7 1493.4,1885.9 1497.5,1900.6 1501.4,1916.8 1504.9,1934.4 1508.1,1953.3 1511.0,1973.4 1513.6,1994.5 1515.9,2016.6 1518.0,2039.5 1519.7,2063.0 1521.2,2087.1 1522.5,2111.5 1523.5,2136.1  " style="stroke-opacity: 1.000000; stroke-width: 5.0; stroke: rgb(251,106,74); fill: none"  />
<path d="M 1298.5,2103.8 L 1307.9,2075.0 1317.0,2045.9 1325.8,2016.5 1334.2,1986.7 1342.2,1956.7 1349.9,1926.3 1357.1,1895.8 1363.8,1864.9 1370.1,1833.9 1375.9,1802.6 1381.2,1771.2 1386.0,1739.6 1390.2,1707.8 1393.9,1676.0 1397.0,1644.0 1399.6,1611.9 1401.6,1579.8 1403.0,1547.6 1403.8,1515.4 1404.1,1483.1 1403.7,1450.9 1402.8,1418.7 1401.3,1386.5 1399.3,1354.4 1396.7,1322.4 1393.5,1290.4 1389.8,1258.6 1385.5,1227.0 1380.7,1195.4 1375.4,1164.1 1369.6,1133.0 1363.4,1102.0 1356.7,1071.3 1349.5,1040.9 1341.9,1010.7 1334.0,980.8 1325.7,951.3 1317.1,922.0 1308.1,893.1  " style="stroke-opacity: 1.000000; stroke-width: 5.0; stroke: rgb(251,106,74); fill: none"  />
<path d="M 1298.5,2103.8 L 1308.2,2074.4 1317.6,2044.7 1326.8,2014.8 1335.8,1984.6 1344.5,1954.2 1352.9,1923.5 1361.0,1892.6 1368.8,1861.5 1376.3,1830.2 1383.4,1798.8 1390.2,1767.1 1396.5,1735.4 1402.6,1703.4 1408.2,1671.4 1413.4,1639.2 1418.3,1606.9 1422.7,1574.5 1426.7,1542.1 1430.3,1509.6 1433.5,1477.1 1436.3,1444.5 1438.6,1411.9 1440.6,1379.3 1442.1,1346.6 1443.2,1314.1 1443.9,1281.5 1444.2,1249.0 1444.1,1216.6 1443.6,1184.3 1442.7,1152.0 1441.5,1119.9 1439.9,1087.9 1437.9,1056.0 1435.6,1024.3 1433.0,992.7 1430.1,961.4 1426.8,930.2 1423.3,899.3 1419.6,868.6  " style="stroke-opacity: 1.000000; stroke-width: 5.0; stroke: rgb(251,106,74); fill: none"  />
<path d="M 1107.1,999.2 L 1122.7,1018.8 1138.6,1038.0 1154.8,1056.7 1171.1,1074.7 1187.5,1092.0 1203.9,1108.5 1220.4,1123.9 1236.7,1138.2 1253.0,1151.4 1269.0,1163.2 1284.9,1173.7 1300.5,1182.8 1315.8,1190.3 1330.7,1196.4 1345.3,1200.8 1359.4,1203.6 1373.1,1204.8 1386.4,1204.3 1399.1,1202.1 1411.3,1198.3 1423.0,1192.7 1434.1,1185.5 1444.6,1176.7 1454.6,1166.3 1464.0,1154.2 1472.7,1140.7 1480.9,1125.7 1488.4,1109.4 1495.4,1091.7 1501.7,1072.7 1507.4,1052.6 1512.6,1031.5 1517.2,1009.4 1521.2,986.5 1524.7,962.9 1527.6,938.8 1530.1,914.2 1532.1,889.4 1533.6,864.4  " style="stroke-opacity: 1.000000; stroke-width: 5.0; stroke: rgb(251,106,74); fill: none"  />
<path d="M 1107.1,999.2 L 1123.5,1019.6 1140.4,1039.6 1157.8,1059.1 1175.7,1078.1 1194.1,1096.3 1212.9,1113.8 1232.0,1130.3 1251.6,1145.9 1271.4,1160.4 1291.5,1173.7 1311.8,1185.8 1332.4,1196.6 1353.1,1206.1 1374.0,1214.3 1395.0,1221.0 1416.1,1226.2 1437.2,1230.0 1458.4,1232.2 1479.6,1233.0 1500.7,1232.2 1521.7,1229.9 1542.6,1226.1 1563.4,1220.8 1584.1,1214.0 1604.5,1205.7 1624.8,1196.1 1644.8,1185.1 1664.5,1172.8 1683.9,1159.2 1702.9,1144.4 1721.6,1128.5 1739.9,1111.5 1757.8,1093.6 1775.3,1074.8 1792.2,1055.3 1808.7,1035.1 1824.6,1014.3 1840.0,993.1 1854.8,971.6  " style="stroke-opacity: 1.000000; stroke-width: 5.0; stroke: rgb(251,106,74); fill: none"  />
<path d="M 1107.1,999.2 L 1124.3,1021.7 1141.2,1044.7 1157.7,1068.3 1173.7,1092.4 1189.2,1117.0 1204.1,1142.0 1218.3,1167.6 1231.8,1193.6 1244.6,1219.9 1256.5,1246.7 1267.6,1273.8 1277.9,1301.2 1287.2,1328.9 1295.6,1356.9 1303.1,1385.1 1309.5,1413.6 1315.0,1442.2 1319.4,1471.0 1322.8,1499.9 1325.2,1528.9 1326.6,1558.0 1326.9,1587.2 1326.2,1616.3 1324.4,1645.4 1321.7,1674.5 1318.0,1703.5 1313.3,1732.3 1307.6,1761.1 1301.1,1789.6 1293.6,1818.0 1285.3,1846.1 1276.2,1873.9 1266.3,1901.4 1255.8,1928.6 1244.5,1955.4 1232.6,1981.7 1220.2,2007.7 1207.3,2033.1 1194.0,2058.1  " style="stroke-opacity: 1.000000; stroke-width: 5.0; stroke: rgb(251,106,74); fill: none"  />
<path d="M 1107.1,999.2 L 1126.1,1023.7 1145.0,1048.4 1163.7,1073.5 1182.3,1098.9 1200.7,1124.6 1219.0,1150.7 1237.0,1177.0 1254.8,1203.7 1272.4,1230.6 1289.7,1257.9 1306.7,1285.4 1323.4,1313.2 1339.8,1341.2 1355.9,1369.5 1371.6,1398.1 1387.1,1426.8 1402.1,1455.8 1416.8,1485.0 1431.1,1514.4 1445.1,1544.0 1458.7,1573.7 1471.9,1603.6 1484.7,1633.7 1497.1,1663.9 1509.1,1694.2 1520.7,1724.6 1531.9,1755.1 1542.7,1785.7 1553.1,1816.3 1563.2,1847.0 1572.8,1877.6 1582.1,1908.3 1591.0,1939.0 1599.5,1969.6 1607.6,2000.2 1615.4,2030.7 1622.8,2061.2 1629.9,2091.5 1636.7,2121.6  " style="stroke-opacity: 1.000000; stroke-width: 5.0; stroke: rgb(251,106,74); fill: none"  />
<path d="M 1194.0,2058.1 L 1207.3,2033.1 1220.2,2007.7 1232.6,1981.7 1244.5,1955.4 1255.8,1928.6 1266.3,1901.4 1276.2,1873.9 1285.3,1846.1 1293.6,1818.0 1301.1,1789.6 1307.6,1761.1 1313.3,1732.3 1318.0,1703.5 1321.7,1674.5 1324.4,1645.4 1326.2,1616.3 1326.9,1587.2 1326.6,1558.0 1325.2,1528.9 1322.8,1499.9 1319.4,1471.0 1315.0,1442.2 1309.5,1413.6 1303.1,1385.1 1295.6,1356.9 1287.2,1328.9 1277.9,1301.2 1267.6,1273.8 1256.5,1246.7 1244.6,1219.9 1231.8,1193.6 1218.3,1167.6 1204.1,1142.0 1189.2,1117.0 1173.7,1092.4 1157.7,1068.3 1141.2,1044.7 1124.3,1021.7 1107.1,999.2  " style="stroke-opacity: 1.000000; stroke-width: 5.0; stroke: rgb(251,106,74); fill: none"  />
<path d="M 1194.0,2058.1 L 1206.2,2036.3 1218.7,2014.7 1231.6,1993.7 1244.8,1973.2 1258.1,1953.4 1271.7,1934.5 1285.4,1916.6 1299.2,1899.8 1313.1,1884.2 1327.0,1869.9 1340.9,1857.0 1354.8,1845.5 1368.7,1835.5 1382.5,1827.1 1396.1,1820.4 1409.6,1815.3 1422.9,1811.9 1436.1,1810.2 1449.0,1810.3 1461.7,1812.1 1474.1,1815.7 1486.2,1821.0 1498.1,1828.0 1509.6,1836.7 1520.8,1847.0 1531.6,1858.9 1542.1,1872.4 1552.2,1887.3 1562.0,1903.6 1571.3,1921.3 1580.2,1940.2 1588.8,1960.2 1596.9,1981.2 1604.6,2003.2 1611.9,2025.9 1618.7,2049.2 1625.1,2073.1 1631.1,2097.3 1636.7,2121.6  " style="stroke-opacity: 1.000000; stroke-width: 5.0; stroke: rgb(251,106,74); fill: none"  />
<path d="M 1194.0,2058.1 L 1208.3,2031.5 1222.5,2004.5 1236.4,1977.1 1250.0,1949.3 1263.2,1921.2 1276.2,1892.7 1288.7,1863.9 1300.9,1834.7 1312.6,1805.3 1323.9,1775.6 1334.7,1745.6 1345.0,1715.4 1354.8,1684.9 1364.2,1654.2 1372.9,1623.3 1381.2,1592.2 1388.9,1560.9 1396.0,1529.5 1402.6,1497.9 1408.6,1466.3 1414.1,1434.5 1418.9,1402.6 1423.2,1370.7 1426.9,1338.8 1430.0,1306.8 1432.6,1274.8 1434.6,1242.8 1436.1,1210.9 1437.0,1179.0 1437.4,1147.3 1437.3,1115.6 1436.6,1084.0 1435.5,1052.6 1433.9,1021.4 1431.8,990.4 1429.4,959.5 1426.5,929.0 1423.2,898.6 1419.6,868.6  " style="stroke-opacity: 1.000000; stroke-width: 5.0; stroke: rgb(251,106,74); fill: none"  />
<path d="M 1745.5,2087.2 L 1735.0,2062.8 1723.7,2038.6 1711.8,2014.6 1699.3,1990.9 1686.0,1967.8 1672.1,1945.2 1657.4,1923.3 1642.1,1902.2 1626.2,1881.8 1609.6,1862.4 1592.3,1844.0 1574.4,1826.7 1555.9,1810.4 1536.8,1795.3 1517.1,1781.4 1496.8,1768.7 1476.0,1757.3 1454.6,1747.2 1432.8,1738.4 1410.5,1731.0 1387.8,1724.9 1364.7,1720.2 1341.2,1716.8 1317.4,1714.7 1293.3,1714.0 1268.9,1714.6 1244.3,1716.5 1219.6,1719.7 1194.7,1724.0 1169.8,1729.5 1144.8,1736.2 1119.9,1743.9 1095.1,1752.7 1070.4,1762.3 1045.9,1772.9 1021.6,1784.2 997.7,1796.3 974.1,1808.9 951.0,1822.1  " style="stroke-opacity: 1.000000; stroke-width: 5.0; stroke: rgb(251,106,74); fill: none"  />
<path d="M 1202.8,937.1 L 1216.8,964.0 1230.5,991.2 1244.0,1018.8 1257.1,1046.8 1269.9,1075.1 1282.4,1103.8 1294.5,1132.8 1306.2,1162.1 1317.4,1191.7 1328.2,1221.6 1338.6,1251.8 1348.4,1282.2 1357.8,1312.8 1366.6,1343.7 1374.9,1374.7 1382.7,1405.9 1389.9,1437.3 1396.5,1468.9 1402.6,1500.5 1408.1,1532.3 1413.0,1564.1 1417.4,1596.1 1421.2,1628.1 1424.4,1660.1 1427.0,1692.1 1429.1,1724.1 1430.6,1756.1 1431.5,1788.0 1431.9,1819.9 1431.8,1851.7 1431.2,1883.4 1430.0,1914.9 1428.4,1946.3 1426.3,1977.5 1423.8,2008.5 1420.8,2039.3 1417.4,2069.8 1413.7,2100.1 1409.6,2130.0  " style="stroke-opacity: 1.000000; stroke-width: 5.0; stroke: rgb(251,106,74); fill: none"  />
<path d="M 1099.2,1994.5 L 1115.4,1975.0 1131.9,1955.8 1148.8,1937.2 1165.9,1919.2 1183.2,1902.0 1200.8,1885.6 1218.4,1870.3 1236.1,1856.0 1253.8,1842.9 1271.5,1831.1 1289.1,1820.7 1306.7,1811.6 1324.0,1804.0 1341.2,1797.9 1358.1,1793.4 1374.8,1790.4 1391.2,1789.1 1407.2,1789.4 1423.0,1791.4 1438.3,1795.0 1453.2,1800.3 1467.7,1807.2 1481.8,1815.7 1495.4,1825.8 1508.5,1837.5 1521.1,1850.6 1533.2,1865.2 1544.8,1881.1 1555.9,1898.4 1566.4,1916.9 1576.4,1936.5 1585.8,1957.2 1594.7,1978.8 1603.0,2001.3 1610.8,2024.5 1618.1,2048.2 1624.8,2072.5 1631.0,2097.0 1636.7,2121.6  " style="stroke-opacity: 1.000000; stroke-width: 5.0; stroke: rgb(251,106,74); fill: none"  />
<path d="M 1099.2,1994.5 L 1117.7,1971.4 1135.9,1947.7 1153.9,1923.6 1171.5,1899.0 1188.9,1873.9 1205.8,1848.3 1222.3,1822.3 1238.4,1795.9 1253.9,1769.1 1269.0,1741.8 1283.5,1714.2 1297.4,1686.2 1310.7,1657.8 1323.4,1629.1 1335.5,1600.1 1346.8,1570.8 1357.6,1541.3 1367.6,1511.4 1376.9,1481.3 1385.5,1451.1 1393.4,1420.6 1400.6,1389.9 1407.1,1359.1 1412.8,1328.2 1417.8,1297.2 1422.2,1266.2 1425.8,1235.0 1428.7,1203.9 1430.9,1172.8 1432.4,1141.7 1433.3,1110.7 1433.6,1079.7 1433.2,1049.0 1432.3,1018.3 1430.8,987.9 1428.7,957.6 1426.1,927.7 1423.1,898.0 1419.6,868.6  " style="stroke-opacity: 1.000000; stroke-width: 5.0; stroke: rgb(251,106,74); fill: none"  />
<path d="M 1636.7,2121.6 L 1631.2,2097.5 1625.4,2073.5 1619.3,2050.0 1612.9,2026.9 1606.2,2004.5 1599.2,1983.0 1592.0,1962.4 1584.5,1942.9 1576.7,1924.6 1568.7,1907.5 1560.4,1891.9 1552.0,1877.7 1543.3,1865.0 1534.4,1854.0 1525.4,1844.6 1516.2,1837.0 1506.8,1831.1 1497.3,1826.9 1487.7,1824.6 1478.0,1824.1 1468.2,1825.4 1458.3,1828.5 1448.4,1833.4 1438.4,1840.0 1428.5,1848.4 1418.5,1858.4 1408.5,1870.1 1398.6,1883.3 1388.8,1898.0 1379.0,1914.1 1369.3,1931.5 1359.8,1950.1 1350.4,1969.9 1341.2,1990.5 1332.2,2012.1 1323.4,2034.3 1314.8,2057.1 1306.5,2080.3 1298.5,2103.8  " style="stroke-opacity: 1.000000; stroke-width: 5.0; stroke: rgb(251,106,74); fill: none"  />
<path d="M 1636.7,2121.6 L 1629.9,2091.5 1622.8,2061.2 1615.4,2030.7 1607.6,2000.2 1599.5,1969.6 1591.0,1939.0 1582.1,1908.3 1572.8,1877.6 1563.2,1847.0 1553.1,1816.3 1542.7,1785.7 1531.9,1755.1 1520.7,1724.6 1509.1,1694.2 1497.1,1663.9 1484.7,1633.7 1471.9,1603.6 1458.7,1573.7 1445.1,1544.0 1431.1,1514.4 1416.8,1485.0 1402.1,1455.8 1387.1,1426.8 1371.6,1398.1 1355.9,1369.5 1339.8,1341.2 1323.4,1313.2 1306.7,1285.4 1289.7,1257.9 1272.4,1230.6 1254.8,1203.7 1237.0,1177.0 1219.0,1150.7 1200.7,1124.6 1182.3,1098.9 1163.7,1073.5 1145.0,1048.4 1126.1,1023.7 1107.1,999.2  " style="stroke-opacity: 1.000000; stroke-width: 5.0; stroke: rgb(251,106,74); fill: none"  />
<path d="M 1636.7,2121.6 L 1631.1,2097.3 1625.1,2073.1 1618.7,2049.2 1611.9,2025.9 1604.6,2003.2 1596.9,1981.2 1588.8,1960.2 1580.2,1940.2 1571.3,1921.3 1562.0,1903.6 1552.2,1887.3 1542.1,1872.4 1531.6,1858.9 1520.8,1847.0 1509.6,1836.7 1498.1,1828.0 1486.2,1821.0 1474.1,1815.7 1461.7,1812.1 1449.0,1810.3 1436.1,1810.2 1422.9,1811.9 1409.6,1815.3 1396.1,1820.4 1382.5,1827.1 1368.7,1835.5 1354.8,1845.5 1340.9,1857.0 1327.0,1869.9 1313.1,1884.2 1299.2,1899.8 1285.4,1916.6 1271.7,1934.5 1258.1,1953.4 1244.8,1973.2 1231.6,1993.7 1218.7,2014.7 1206.2,2036.3 1194.0,2058.1  " style="stroke-opacity: 1.000000; stroke-width: 5.0; stroke: rgb(251,106,74); fill: none"  />
<path d="M 1636.7,2121.6 L 1631.0,2097.0 1624.8,2072.5 1618.1,2048.2 1610.8,2024.5 1603.0,2001.3 1594.7,1978.8 1585.8,1957.2 1576.4,1936.5 1566.4,1916.9 1555.9,1898.4 1544.8,1881.1 1533.2,1865.2 1521.1,1850.6 1508.5,1837.5 1495.4,1825.8 1481.8,1815.7 1467.7,1807.2 1453.2,1800.3 1438.3,1795.0 1423.0,1791.4 1407.2,1789.4 1391.2,1789.1 1374.8,1790.4 1358.1,1793.4 1341.2,1797.9 1324.0,1804.0 1306.7,1811.6 1289.1,1820.7 1271.5,1831.1 1253.8,1842.9 1236.1,1856.0 1218.4,1870.3 1200.8,1885.6 1183.2,1902.0 1165.9,1919.2 1148.8,1937.2 1131.9,1955.8 1115.4,1975.0 1099.2,1994.5  " style="stroke-opacity: 1.000000; stroke-width: 5.0; stroke: rgb(251,106,74); fill: none"  />
<path d="M 1523.5,2136.1 L 1522.5,2111.5 1521.2,2087.1 1519.7,2063.0 1518.0,2039.5 1515.9,2016.6 1513.6,1994.5 1511.0,1973.4 1508.1,1953.3 1504.9,1934.4 1501.4,1916.8 1497.5,1900.6 1493.4,1885.9 1489.0,1872.7 1484.2,1861.2 1479.2,1851.3 1473.8,1843.1 1468.2,1836.7 1462.2,1832.2 1456.0,1829.4 1449.5,1828.5 1442.8,1829.4 1435.8,1832.1 1428.6,1836.6 1421.2,1843.0 1413.6,1851.0 1405.8,1860.8 1397.8,1872.2 1389.7,1885.1 1381.5,1899.6 1373.1,1915.5 1364.7,1932.7 1356.3,1951.2 1347.9,1970.7 1339.4,1991.3 1331.0,2012.7 1322.7,2034.8 1314.5,2057.4 1306.4,2080.5 1298.5,2103.8  " style="stroke-opacity: 1.000000; stroke-width: 5.0; stroke: rgb(251,106,74); fill: none"  />
<path d="M 1523.5,2136.1 L 1522.3,2103.8 1521.0,2071.5 1519.7,2039.1 1518.3,2006.7 1516.8,1974.2 1515.2,1941.7 1513.6,1909.2 1511.9,1876.7 1510.1,1844.1 1508.3,1811.5 1506.3,1778.8 1504.3,1746.2 1502.2,1713.5 1500.0,1680.9 1497.8,1648.2 1495.4,1615.5 1493.0,1582.8 1490.5,1550.1 1487.9,1517.4 1485.2,1484.8 1482.5,1452.1 1479.6,1419.4 1476.7,1386.8 1473.7,1354.1 1470.6,1321.5 1467.4,1288.9 1464.1,1256.4 1460.8,1223.9 1457.4,1191.3 1453.9,1158.9 1450.4,1126.4 1446.7,1094.0 1443.0,1061.7 1439.3,1029.4 1435.4,997.1 1431.6,964.9 1427.6,932.8 1423.6,900.6 1419.6,868.6  " style="stroke-opacity: 1.000000; stroke-width: 5.0; stroke: rgb(251,106,74); fill: none"  />
<path d="M 1308.1,893.1 L 1317.1,922.0 1325.7,951.3 1334.0,980.8 1341.9,1010.7 1349.5,1040.9 1356.7,1071.3 1363.4,1102.0 1369.6,1133.0 1375.4,1164.1 1380.7,1195.4 1385.5,1227.0 1389.8,1258.6 1393.5,1290.4 1396.7,1322.4 1399.3,1354.4 1401.3,1386.5 1402.8,1418.7 1403.7,1450.9 1404.1,1483.1 1403.8,1515.4 1403.0,1547.6 1401.6,1579.8 1399.6,1611.9 1397.0,1644.0 1393.9,1676.0 1390.2,1707.8 1386.0,1739.6 1381.2,1771.2 1375.9,1802.6 1370.1,1833.9 1363.8,1864.9 1357.1,1895.8 1349.9,1926.3 1342.2,1956.7 1334.2,1986.7 1325.8,2016.5 1317.0,2045.9 1307.9,2075.0 1298.5,2103.8  " style="stroke-opacity: 1.000000; stroke-width: 5.0; stroke: rgb(251,106,74); fill: none"  />
<path d="M 1308.1,893.1 L 1317.3,922.6 1326.3,952.5 1335.0,982.5 1343.5,1012.9 1351.7,1043.4 1359.6,1074.2 1367.3,1105.2 1374.6,1136.4 1381.5,1167.8 1388.1,1199.4 1394.4,1231.1 1400.3,1263.0 1405.8,1295.1 1410.9,1327.2 1415.6,1359.5 1420.0,1391.8 1423.9,1424.2 1427.4,1456.7 1430.5,1489.3 1433.2,1521.9 1435.4,1554.5 1437.2,1587.2 1438.7,1619.8 1439.7,1652.4 1440.3,1685.0 1440.5,1717.6 1440.2,1750.0 1439.6,1782.5 1438.6,1814.8 1437.2,1847.0 1435.5,1879.1 1433.4,1911.1 1430.9,1943.0 1428.1,1974.6 1425.0,2006.1 1421.5,2037.4 1417.8,2068.5 1413.8,2099.4 1409.6,2130.0  " style="stroke-opacity: 1.000000; stroke-width: 5.0; stroke: rgb(251,106,74); fill: none"  />
<path d="M 1419.6,868.6 L 1423.3,899.3 1426.8,930.2 1430.1,961.4 1433.0,992.7 1435.6,1024.3 1437.9,1056.0 1439.9,1087.9 1441.5,1119.9 1442.7,1152.0 1443.6,1184.3 1444.1,1216.6 1444.2,1249.0 1443.9,1281.5 1443.2,1314.1 1442.1,1346.6 1440.6,1379.3 1438.6,1411.9 1436.3,1444.5 1433.5,1477.1 1430.3,1509.6 1426.7,1542.1 1422.7,1574.5 1418.3,1606.9 1413.4,1639.2 1408.2,1671.4 1402.6,1703.4 1396.5,1735.4 1390.2,1767.1 1383.4,1798.8 1376.3,1830.2 1368.8,1861.5 1361.0,1892.6 1352.9,1923.5 1344.5,1954.2 1335.8,1984.6 1326.8,2014.8 1317.6,2044.7 1308.2,2074.4 1298.5,2103.8  " style="stroke-opacity: 1.000000; stroke-width: 5.0; stroke: rgb(251,106,74); fill: none"  />
<path d="M 1419.6,868.6 L 1423.2,898.6 1426.5,929.0 1429.4,959.5 1431.8,990.4 1433.9,1021.4 1435.5,1052.6 1436.6,1084.0 1437.3,1115.6 1437.4,1147.3 1437.0,1179.0 1436.1,1210.9 1434.6,1242.8 1432.6,1274.8 1430.0,1306.8 1426.9,1338.8 1423.2,1370.7 1418.9,1402.6 1414.1,1434.5 1408.6,1466.3 1402.6,1497.9 1396.0,1529.5 1388.9,1560.9 1381.2,1592.2 1372.9,1623.3 1364.2,1654.2 1354.8,1684.9 1345.0,1715.4 1334.7,1745.6 1323.9,1775.6 1312.6,1805.3 1300.9,1834.7 1288.7,1863.9 1276.2,1892.7 1263.2,1921.2 1250.0,1949.3 1236.4,1977.1 1222.5,2004.5 1208.3,2031.5 1194.0,2058.1  " style="stroke-opacity: 1.000000; stroke-width: 5.0; stroke: rgb(251,106,74); fill: none"  />
<path d="M 1419.6,868.6 L 1423.1,898.0 1426.1,927.7 1428.7,957.6 1430.8,987.9 1432.3,1018.3 1433.2,1049.0 1433.6,1079.7 1433.3,1110.7 1432.4,1141.7 1430.9,1172.8 1428.7,1203.9 1425.8,1235.0 1422.2,1266.2 1417.8,1297.2 1412.8,1328.2 1407.1,1359.1 1400.6,1389.9 1393.4,1420.6 1385.5,1451.1 1376.9,1481.3 1367.6,1511.4 1357.6,1541.3 1346.8,1570.8 1335.5,1600.1 1323.4,1629.1 1310.7,1657.8 1297.4,1686.2 1283.5,1714.2 1269.0,1741.8 1253.9,1769.1 1238.4,1795.9 1222.3,1822.3 1205.8,1848.3 1188.9,1873.9 1171.5,1899.0 1153.9,1923.6 1135.9,1947.7 1117.7,1971.4 1099.2,1994.5  " style="stroke-opacity: 1.000000; stroke-width: 5.0; stroke: rgb(251,106,74); fill: none"  />
<path d="M 1419.6,868.6 L 1423.6,900.6 1427.6,932.8 1431.6,964.9 1435.4,997.1 1439.3,1029.4 1443.0,1061.7 1446.7,1094.0 1450.4,1126.4 1453.9,1158.9 1457.4,1191.3 1460.8,1223.9 1464.1,1256.4 1467.4,1288.9 1470.6,1321.5 1473.7,1354.1 1476.7,1386.8 1479.6,1419.4 1482.5,1452.1 1485.2,1484.8 1487.9,1517.4 1490.5,1550.1 1493.0,1582.8 1495.4,1615.5 1497.8,1648.2 1500.0,1680.9 1502.2,1713.5 1504.3,1746.2 1506.3,1778.8 1508.3,1811.5 1510.1,1844.1 1511.9,1876.7 1513.6,1909.2 1515.2,1941.7 1516.8,1974.2 1518.3,2006.7 1519.7,2039.1 1521.0,2071.5 1522.3,2103.8 1523.5,2136.1  " style="stroke-opacity: 1.000000; stroke-width: 5.0; stroke: rgb(251,106,74); fill: none"  />
<path d="M 951.0,1822.1 L 974.1,1808.9 997.7,1796.3 1021.6,1784.2 1045.9,1772.9 1070.4,1762.3 1095.1,1752.7 1119.9,1743.9 1144.8,1736.2 1169.8,1729.5 1194.7,1724.0 1219.6,1719.7 1244.3,1716.5 1268.9,1714.6 1293.3,1714.0 1317.4,1714.7 1341.2,1716.8 1364.7,1720.2 1387.8,1724.9 1410.5,1731.0 1432.8,1738.4 1454.6,1747.2 1476.0,1757.3 1496.8,1768.7 1517.1,1781.4 1536.8,1795.3 1555.9,1810.4 1574.4,1826.7 1592.3,1844.0 1609.6,1862.4 1626.2,1881.8 1642.1,1902.2 1657.4,1923.3 1672.1,1945.2 1686.0,1967.8 1699.3,1990.9 1711.8,2014.6 1723.7,2038.6 1735.0,2062.8 1745.5,2087.2  " style="stroke-opacity: 1.000000; stroke-width: 5.0; stroke: rgb(251,106,74); fill: none"  />
<path d="M 951.0,1822.1 L 973.0,1809.5 995.2,1797.4 1017.5,1785.9 1039.9,1775.1 1062.2,1765.1 1084.3,1755.9 1106.3,1747.7 1127.8,1740.6 1149.0,1734.6 1169.7,1729.7 1189.9,1726.1 1209.5,1723.8 1228.4,1722.8 1246.6,1723.1 1264.1,1724.8 1280.7,1727.9 1296.5,1732.4 1311.5,1738.4 1325.5,1745.8 1338.6,1754.5 1350.7,1764.7 1361.8,1776.3 1372.0,1789.2 1381.2,1803.4 1389.4,1818.9 1396.6,1835.7 1402.8,1853.6 1408.0,1872.6 1412.3,1892.6 1415.7,1913.6 1418.1,1935.5 1419.7,1958.2 1420.4,1981.6 1420.3,2005.5 1419.5,2030.0 1417.9,2054.8 1415.7,2079.8 1412.9,2104.9 1409.6,2130.0  " style="stroke-opacity: 1.000000; stroke-width: 5.0; stroke: rgb(251,106,74); fill: none"  />
<path d="M 1409.6,2130.0 L 1414.1,2099.4 1418.9,2068.7 1424.1,2037.8 1429.6,2006.8 1435.5,1975.7 1441.7,1944.5 1448.3,1913.3 1455.3,1882.0 1462.6,1850.7 1470.4,1819.4 1478.5,1788.0 1487.0,1756.8 1496.0,1725.5 1505.3,1694.3 1515.0,1663.2 1525.2,1632.2 1535.7,1601.3 1546.7,1570.5 1558.0,1539.8 1569.7,1509.3 1581.8,1478.9 1594.4,1448.7 1607.2,1418.7 1620.5,1388.9 1634.1,1359.2 1648.0,1329.8 1662.3,1300.6 1677.0,1271.7 1691.9,1243.0 1707.1,1214.6 1722.6,1186.4 1738.4,1158.5 1754.4,1130.9 1770.7,1103.6 1787.2,1076.5 1803.9,1049.8 1820.7,1023.4 1837.7,997.3 1854.8,971.6  " style="stroke-opacity: 1.000000; stroke-width: 5.0; stroke: rgb(251,106,74); fill: none"  />
<path d="M 1409.6,2130.0 L 1413.7,2100.1 1417.4,2069.8 1420.8,2039.3 1423.8,2008.5 1426.3,1977.5 1428.4,1946.3 1430.0,1914.9 1431.2,1883.4 1431.8,1851.7 1431.9,1819.9 1431.5,1788.0 1430.6,1756.1 1429.1,1724.1 1427.0,1692.1 1424.4,1660.1 1421.2,1628.1 1417.4,1596.1 1413.0,1564.1 1408.1,1532.3 1402.6,1500.5 1396.5,1468.9 1389.9,1437.3 1382.7,1405.9 1374.9,1374.7 1366.6,1343.7 1357.8,1312.8 1348.4,1282.2 1338.6,1251.8 1328.2,1221.6 1317.4,1191.7 1306.2,1162.1 1294.5,1132.8 1282.4,1103.8 1269.9,1075.1 1257.1,1046.8 1244.0,1018.8 1230.5,991.2 1216.8,964.0 1202.8,937.1  " style="stroke-opacity: 1.000000; stroke-width: 5.0; stroke: rgb(251,106,74); fill: none"  />
<path d="M 1409.6,2130.0 L 1413.8,2099.4 1417.8,2068.5 1421.5,2037.4 1425.0,2006.1 1428.1,1974.6 1430.9,1943.0 1433.4,1911.1 1435.5,1879.1 1437.2,1847.0 1438.6,1814.8 1439.6,1782.5 1440.2,1750.0 1440.5,1717.6 1440.3,1685.0 1439.7,1652.4 1438.7,1619.8 1437.2,1587.2 1435.4,1554.5 1433.2,1521.9 1430.5,1489.3 1427.4,1456.7 1423.9,1424.2 1420.0,1391.8 1415.6,1359.5 1410.9,1327.2 1405.8,1295.1 1400.3,1263.0 1394.4,1231.1 1388.1,1199.4 1381.5,1167.8 1374.6,1136.4 1367.3,1105.2 1359.6,1074.2 1351.7,1043.4 1343.5,1012.9 1335.0,982.5 1326.3,952.5 1317.3,922.6 1308.1,893.1  " style="stroke-opacity: 1.000000; stroke-width: 5.0; stroke: rgb(251,106,74); fill: none"  />
<path d="M 1409.6,2130.0 L 1412.9,2104.9 1415.7,2079.8 1417.9,2054.8 1419.5,2030.0 1420.3,2005.5 1420.4,1981.6 1419.7,1958.2 1418.1,1935.5 1415.7,1913.6 1412.3,1892.6 1408.0,1872.6 1402.8,1853.6 1396.6,1835.7 1389.4,1818.9 1381.2,1803.4 1372.0,1789.2 1361.8,1776.3 1350.7,1764.7 1338.6,1754.5 1325.5,1745.8 1311.5,1738.4 1296.5,1732.4 1280.7,1727.9 1264.1,1724.8 1246.6,1723.1 1228.4,1722.8 1209.5,1723.8 1189.9,1726.1 1169.7,1729.7 1149.0,1734.6 1127.8,1740.6 1106.3,1747.7 1084.3,1755.9 1062.2,1765.1 1039.9,1775.1 1017.5,1785.9 995.2,1797.4 973.0,1809.5 951.0,1822.1  " style="stroke-opacity: 1.000000; stroke-width: 5.0; stroke: rgb(251,106,74); fill: none"  />
</g>
<g id="track_0">
<path d="M 1936.2,1963.5 L 1919.4,1945.7 1902.6,1928.2 1886.0,1910.9 1869.6,1894.2 1853.5,1878.1 1838.0,1862.6 1822.9,1848.0 1808.5,1834.3 1794.8,1821.6 1781.9,1810.0 1769.8,1799.6 1758.6,1790.3 1748.4,1782.4 1739.2,1775.8 1731.0,1770.6 1723.9,1766.7 1717.9,1764.4 1713.0,1763.4 1709.2,1764.0 1706.6,1766.0 1705.2,1769.5 1704.9,1774.5 1705.8,1780.9 1707.8,1788.7 1711.0,1797.9 1715.2,1808.5 1720.5,1820.3 1726.8,1833.4 1734.0,1847.6 1742.2,1862.9 1751.3,1879.2 1761.2,1896.5 1771.8,1914.5 1783.1,1933.3 1794.9,1952.8 1807.3,1972.6 1820.1,1992.9 1833.2,2013.4 1846.4,2034.0  " style="stroke-opacity: 1.000000; stroke-width: 5.0; stroke: rgb(107,174,214); fill: none"  />
<path d="M 1936.2,1963.5 L 1919.3,1945.7 1902.3,1928.2 1885.3,1911.0 1868.5,1894.5 1851.9,1878.6 1835.6,1863.5 1819.7,1849.3 1804.3,1836.1 1789.5,1824.0 1775.3,1813.0 1761.7,1803.3 1748.9,1794.9 1736.9,1787.9 1725.7,1782.4 1715.4,1778.2 1706.0,1775.6 1697.6,1774.5 1690.1,1775.0 1683.6,1777.0 1678.1,1780.6 1673.6,1785.7 1670.2,1792.3 1667.7,1800.5 1666.3,1810.1 1665.9,1821.2 1666.4,1833.7 1667.9,1847.5 1670.3,1862.6 1673.7,1878.9 1677.9,1896.4 1682.9,1914.9 1688.6,1934.3 1695.1,1954.6 1702.3,1975.6 1710.0,1997.2 1718.3,2019.4 1727.0,2041.8 1736.1,2064.5 1745.5,2087.2  " style="stroke-opacity: 1.000000; stroke-width: 5.0; stroke: rgb(107,174,214); fill: none"  />
<path d="M 1936.2,1963.5 L 1918.7,1945.3 1900.8,1927.4 1882.6,1910.1 1864.2,1893.4 1845.6,1877.5 1826.9,1862.5 1808.2,1848.5 1789.5,1835.6 1770.8,1823.8 1752.3,1813.4 1734.0,1804.2 1715.8,1796.5 1698.0,1790.1 1680.4,1785.3 1663.2,1782.1 1646.3,1780.4 1629.9,1780.3 1613.9,1781.8 1598.4,1784.9 1583.3,1789.7 1568.8,1796.0 1554.9,1804.0 1541.5,1813.5 1528.7,1824.6 1516.4,1837.2 1504.8,1851.2 1493.8,1866.6 1483.5,1883.4 1473.7,1901.4 1464.6,1920.7 1456.1,1941.0 1448.2,1962.3 1440.9,1984.5 1434.3,2007.5 1428.2,2031.2 1422.7,2055.5 1417.8,2080.1 1413.4,2105.0 1409.6,2130.0  " style="stroke-opacity: 1.000000; stroke-width: 5.0; stroke: rgb(107,174,214); fill: none"  />
<path d="M 1533.6,864.4 L 1532.4,888.9 1531.5,913.4 1530.8,937.5 1530.5,961.1 1530.5,984.0 1530.8,1006.2 1531.5,1027.5 1532.6,1047.8 1534.1,1066.9 1536.0,1084.7 1538.4,1101.2 1541.2,1116.2 1544.4,1129.8 1548.1,1141.7 1552.2,1152.0 1556.8,1160.6 1561.9,1167.5 1567.4,1172.6 1573.3,1175.9 1579.7,1177.4 1586.5,1177.1 1593.7,1175.0 1601.3,1171.1 1609.2,1165.5 1617.5,1158.1 1626.2,1149.1 1635.2,1138.5 1644.4,1126.3 1653.9,1112.6 1663.6,1097.5 1673.5,1081.1 1683.6,1063.5 1693.7,1044.8 1704.0,1025.1 1714.3,1004.6 1724.5,983.3 1734.7,961.5 1744.8,939.2 1754.8,916.7  " style="stroke-opacity: 1.000000; stroke-width: 5.0; stroke: rgb(107,174,214); fill: none"  />
<path d="M 1533.6,864.4 L 1532.5,889.1 1531.7,913.8 1531.3,938.1 1531.3,962.0 1531.8,985.4 1532.8,1008.0 1534.4,1029.8 1536.4,1050.6 1539.0,1070.3 1542.2,1088.9 1546.0,1106.2 1550.4,1122.1 1555.4,1136.6 1561.0,1149.6 1567.2,1161.1 1574.0,1170.9 1581.5,1179.1 1589.6,1185.6 1598.2,1190.4 1607.4,1193.4 1617.2,1194.8 1627.6,1194.4 1638.4,1192.4 1649.8,1188.6 1661.6,1183.2 1673.9,1176.2 1686.6,1167.6 1699.7,1157.5 1713.1,1145.9 1726.8,1133.0 1740.8,1118.8 1754.9,1103.4 1769.2,1086.9 1783.6,1069.4 1798.0,1051.0 1812.4,1031.9 1826.7,1012.2 1840.9,992.1 1854.8,971.6  " style="stroke-opacity: 1.000000; stroke-width: 5.0; stroke: rgb(107,174,214); fill: none"  />
<path d="M 1646.5,880.6 L 1641.0,904.7 1635.8,928.8 1631.1,952.7 1626.9,976.3 1623.2,999.3 1620.2,1021.8 1617.8,1043.5 1616.1,1064.3 1615.1,1084.2 1614.9,1103.0 1615.6,1120.7 1617.1,1137.2 1619.4,1152.3 1622.6,1166.1 1626.7,1178.5 1631.6,1189.4 1637.5,1198.8 1644.3,1206.6 1651.9,1212.9 1660.4,1217.5 1669.8,1220.6 1680.1,1222.1 1691.1,1222.0 1703.0,1220.4 1715.6,1217.2 1729.0,1212.4 1743.0,1206.3 1757.7,1198.6 1772.9,1189.7 1788.7,1179.4 1805.0,1167.9 1821.6,1155.3 1838.6,1141.6 1855.9,1126.9 1873.4,1111.5 1891.0,1095.2 1908.6,1078.4 1926.1,1061.1 1943.5,1043.4  " style="stroke-opacity: 1.000000; stroke-width: 5.0; stroke: rgb(107,174,214); fill: none"  />
<path d="M 1754.8,916.7 L 1744.8,939.2 1734.7,961.5 1724.5,983.3 1714.3,1004.6 1704.0,1025.1 1693.7,1044.8 1683.6,1063.5 1673.5,1081.1 1663.6,1097.5 1653.9,1112.6 1644.4,1126.3 1635.2,1138.5 1626.2,1149.1 1617.5,1158.1 1609.2,1165.5 1601.3,1171.1 1593.7,1175.0 1586.5,1177.1 1579.7,1177.4 1573.3,1175.9 1567.4,1172.6 1561.9,1167.5 1556.8,1160.6 1552.2,1152.0 1548.1,1141.7 1544.4,1129.8 1541.2,1116.2 1538.4,1101.2 1536.0,1084.7 1534.1,1066.9 1532.6,1047.8 1531.5,1027.5 1530.8,1006.2 1530.5,984.0 1530.5,961.1 1530.8,937.5 1531.5,913.4 1532.4,888.9 1533.6,864.4  " style="stroke-opacity: 1.000000; stroke-width: 5.0; stroke: rgb(107,174,214); fill: none"  />
<path d="M 1754.8,916.7 L 1745.0,939.2 1735.5,961.5 1726.2,983.6 1717.2,1005.2 1708.7,1026.3 1700.6,1046.7 1693.1,1066.3 1686.1,1084.9 1679.9,1102.5 1674.3,1118.9 1669.4,1134.2 1665.3,1148.1 1662.0,1160.6 1659.6,1171.7 1658.0,1181.3 1657.3,1189.3 1657.5,1195.8 1658.5,1200.6 1660.5,1203.9 1663.4,1205.4 1667.2,1205.4 1671.9,1203.7 1677.4,1200.3 1683.8,1195.4 1691.0,1188.9 1699.1,1180.9 1707.9,1171.4 1717.4,1160.5 1727.6,1148.2 1738.5,1134.6 1749.9,1119.9 1761.9,1104.0 1774.4,1087.2 1787.2,1069.4 1800.4,1050.9 1813.8,1031.7 1827.4,1012.0 1841.1,991.9 1854.8,971.6  " style="stroke-opacity: 1.000000; stroke-width: 5.0; stroke: rgb(107,174,214); fill: none"  />
<path d="M 1754.8,916.7 L 1745.0,939.3 1735.6,961.8 1726.5,984.2 1717.9,1006.1 1709.8,1027.6 1702.3,1048.5 1695.5,1068.7 1689.4,1088.1 1684.1,1106.5 1679.6,1123.9 1676.1,1140.1 1673.4,1155.2 1671.7,1169.0 1670.9,1181.5 1671.2,1192.6 1672.5,1202.2 1674.8,1210.4 1678.1,1217.1 1682.5,1222.3 1688.0,1225.9 1694.4,1228.1 1701.9,1228.6 1710.4,1227.7 1719.8,1225.2 1730.2,1221.2 1741.4,1215.8 1753.6,1209.0 1766.5,1200.9 1780.2,1191.4 1794.6,1180.7 1809.6,1168.8 1825.2,1155.8 1841.3,1141.9 1857.8,1127.1 1874.7,1111.4 1891.8,1095.1 1909.0,1078.3 1926.3,1061.0 1943.5,1043.4  " style="stroke-opacity: 1.000000; stroke-width: 5.0; stroke: rgb(107,174,214); fill: none"  />
<path d="M 1754.8,916.7 L 1745.0,939.7 1735.6,962.8 1726.8,985.9 1718.6,1008.8 1711.1,1031.5 1704.5,1053.7 1698.7,1075.5 1693.8,1096.7 1690.0,1117.3 1687.1,1137.0 1685.4,1156.0 1684.8,1174.0 1685.4,1191.0 1687.1,1207.0 1690.1,1222.0 1694.4,1235.8 1699.8,1248.4 1706.5,1259.8 1714.5,1270.0 1723.7,1278.9 1734.1,1286.6 1745.7,1293.0 1758.5,1298.1 1772.4,1301.9 1787.4,1304.4 1803.5,1305.7 1820.5,1305.8 1838.5,1304.7 1857.4,1302.4 1877.1,1299.0 1897.5,1294.6 1918.5,1289.1 1940.1,1282.7 1962.2,1275.3 1984.6,1267.2 2007.3,1258.4 2030.1,1248.9 2052.9,1238.9 2075.6,1228.4  " style="stroke-opacity: 1.000000; stroke-width: 5.0; stroke: rgb(107,174,214); fill: none"  />
<path d="M 1846.4,2034.0 L 1833.2,2013.4 1820.1,1992.9 1807.3,1972.6 1794.9,1952.8 1783.1,1933.3 1771.8,1914.5 1761.2,1896.5 1751.3,1879.2 1742.2,1862.9 1734.0,1847.6 1726.8,1833.4 1720.5,1820.3 1715.2,1808.5 1711.0,1797.9 1707.8,1788.7 1705.8,1780.9 1704.9,1774.5 1705.2,1769.5 1706.6,1766.0 1709.2,1764.0 1713.0,1763.4 1717.9,1764.4 1723.9,1766.7 1731.0,1770.6 1739.2,1775.8 1748.4,1782.4 1758.6,1790.3 1769.8,1799.6 1781.9,1810.0 1794.8,1821.6 1808.5,1834.3 1822.9,1848.0 1838.0,1862.6 1853.5,1878.1 1869.6,1894.2 1886.0,1910.9 1902.6,1928.2 1919.4,1945.7 1936.2,1963.5  " style="stroke-opacity: 1.000000; stroke-width: 5.0; stroke: rgb(107,174,214); fill: none"  />
<path d="M 1846.4,2034.0 L 1833.1,2013.5 1819.7,1993.2 1806.4,1973.2 1793.2,1953.8 1780.4,1935.1 1767.8,1917.1 1755.6,1900.1 1743.9,1884.0 1732.7,1869.1 1722.0,1855.4 1712.0,1842.9 1702.6,1831.8 1694.0,1822.2 1686.1,1814.1 1679.0,1807.5 1672.6,1802.4 1667.2,1799.0 1662.5,1797.2 1658.7,1797.1 1655.8,1798.7 1653.8,1801.8 1652.6,1806.7 1652.3,1813.1 1652.9,1821.2 1654.4,1830.8 1656.6,1841.9 1659.7,1854.5 1663.6,1868.5 1668.2,1883.8 1673.5,1900.3 1679.5,1918.0 1686.2,1936.7 1693.4,1956.4 1701.1,1976.9 1709.4,1998.1 1718.0,2019.9 1726.9,2042.1 1736.1,2064.6 1745.5,2087.2  " style="stroke-opacity: 1.000000; stroke-width: 5.0; stroke: rgb(107,174,214); fill: none"  />
<path d="M 1846.4,2034.0 L 1832.6,2013.1 1818.5,1992.6 1804.1,1972.5 1789.5,1953.0 1774.7,1934.3 1759.8,1916.5 1744.8,1899.7 1729.8,1883.9 1714.8,1869.4 1699.8,1856.1 1685.0,1844.3 1670.3,1833.8 1655.7,1824.9 1641.4,1817.6 1627.3,1811.8 1613.4,1807.8 1599.9,1805.4 1586.7,1804.7 1573.8,1805.7 1561.3,1808.5 1549.2,1812.9 1537.4,1819.1 1526.2,1827.0 1515.3,1836.5 1504.9,1847.6 1495.0,1860.3 1485.5,1874.5 1476.5,1890.1 1468.0,1907.1 1460.0,1925.4 1452.5,1944.9 1445.5,1965.5 1438.9,1987.1 1432.9,2009.5 1427.3,2032.7 1422.2,2056.5 1417.5,2080.7 1413.3,2105.3 1409.6,2130.0  " style="stroke-opacity: 1.000000; stroke-width: 5.0; stroke: rgb(107,174,214); fill: none"  />
<path d="M 1854.8,971.6 L 1840.9,992.1 1826.7,1012.2 1812.4,1031.9 1798.0,1051.0 1783.6,1069.4 1769.2,1086.9 1754.9,1103.4 1740.8,1118.8 1726.8,1133.0 1713.1,1145.9 1699.7,1157.5 1686.6,1167.6 1673.9,1176.2 1661.6,1183.2 1649.8,1188.6 1638.4,1192.4 1627.6,1194.4 1617.2,1194.8 1607.4,1193.4 1598.2,1190.4 1589.6,1185.6 1581.5,1179.1 1574.0,1170.9 1567.2,1161.1 1561.0,1149.6 1555.4,1136.6 1550.4,1122.1 1546.0,1106.2 1542.2,1088.9 1539.0,1070.3 1536.4,1050.6 1534.4,1029.8 1532.8,1008.0 1531.8,985.4 1531.3,962.0 1531.3,938.1 1531.7,913.8 1532.5,889.1 1533.6,864.4  " style="stroke-opacity: 1.000000; stroke-width: 5.0; stroke: rgb(107,174,214); fill: none"  />
<path d="M 1854.8,971.6 L 1841.1,991.9 1827.4,1012.0 1813.8,1031.7 1800.4,1050.9 1787.2,1069.4 1774.4,1087.2 1761.9,1104.0 1749.9,1119.9 1738.5,1134.6 1727.6,1148.2 1717.4,1160.5 1707.9,1171.4 1699.1,1180.9 1691.0,1188.9 1683.8,1195.4 1677.4,1200.3 1671.9,1203.7 1667.2,1205.4 1663.4,1205.4 1660.5,1203.9 1658.5,1200.6 1657.5,1195.8 1657.3,1189.3 1658.0,1181.3 1659.6,1171.7 1662.0,1160.6 1665.3,1148.1 1669.4,1134.2 1674.3,1118.9 1679.9,1102.5 1686.1,1084.9 1693.1,1066.3 1700.6,1046.7 1708.7,1026.3 1717.2,1005.2 1726.2,983.6 1735.5,961.5 1745.0,939.2 1754.8,916.7  " style="stroke-opacity: 1.000000; stroke-width: 5.0; stroke: rgb(107,174,214); fill: none"  />
<path d="M 1854.8,971.6 L 1841.2,991.9 1827.8,1012.2 1814.8,1032.3 1802.1,1052.0 1789.9,1071.2 1778.3,1089.8 1767.4,1107.7 1757.3,1124.8 1747.9,1141.0 1739.5,1156.2 1732.0,1170.3 1725.5,1183.2 1720.0,1195.0 1715.6,1205.4 1712.4,1214.6 1710.2,1222.4 1709.3,1228.8 1709.5,1233.7 1710.8,1237.3 1713.4,1239.3 1717.1,1240.0 1722.0,1239.1 1728.1,1236.8 1735.2,1233.1 1743.5,1228.0 1752.9,1221.6 1763.2,1213.8 1774.5,1204.8 1786.8,1194.5 1799.9,1183.1 1813.8,1170.6 1828.4,1157.2 1843.7,1142.8 1859.5,1127.6 1875.8,1111.7 1892.4,1095.2 1909.3,1078.3 1926.4,1061.0 1943.5,1043.4  " style="stroke-opacity: 1.000000; stroke-width: 5.0; stroke: rgb(107,174,214); fill: none"  />
<path d="M 1298.5,2103.8 L 1306.2,2080.5 1313.7,2057.4 1321.0,2034.6 1328.0,2012.2 1334.6,1990.5 1340.8,1969.5 1346.6,1949.3 1351.8,1930.1 1356.5,1912.0 1360.6,1895.2 1364.1,1879.6 1366.9,1865.3 1369.0,1852.6 1370.5,1841.3 1371.2,1831.6 1371.2,1823.5 1370.4,1817.1 1368.9,1812.4 1366.7,1809.3 1363.7,1808.0 1359.9,1808.4 1355.4,1810.5 1350.2,1814.4 1344.2,1819.8 1337.6,1826.9 1330.3,1835.7 1322.4,1845.9 1313.9,1857.6 1304.8,1870.8 1295.2,1885.3 1285.1,1901.0 1274.6,1917.9 1263.7,1935.8 1252.5,1954.6 1241.1,1974.3 1229.4,1994.6 1217.6,2015.4 1205.8,2036.7 1194.0,2058.1  " style="stroke-opacity: 1.000000; stroke-width: 5.0; stroke: rgb(107,174,214); fill: none"  />
<path d="M 1298.5,2103.8 L 1306.2,2080.4 1313.6,2057.1 1320.6,2034.1 1327.3,2011.4 1333.4,1989.3 1339.0,1967.8 1343.9,1947.1 1348.3,1927.3 1351.9,1908.4 1354.8,1890.7 1356.9,1874.2 1358.2,1859.0 1358.7,1845.1 1358.3,1832.6 1357.1,1821.6 1354.9,1812.0 1351.9,1804.1 1347.9,1797.7 1343.1,1792.9 1337.3,1789.8 1330.7,1788.3 1323.2,1788.4 1314.9,1790.1 1305.7,1793.4 1295.7,1798.3 1285.0,1804.7 1273.5,1812.5 1261.4,1821.8 1248.6,1832.5 1235.2,1844.5 1221.3,1857.6 1206.9,1871.9 1192.2,1887.3 1177.0,1903.5 1161.7,1920.6 1146.1,1938.4 1130.5,1956.7 1114.8,1975.4 1099.2,1994.5  " style="stroke-opacity: 1.000000; stroke-width: 5.0; stroke: rgb(107,174,214); fill: none"  />
<path d="M 1298.5,2103.8 L 1306.2,2080.0 1313.5,2056.1 1320.2,2032.4 1326.3,2008.8 1331.7,1985.6 1336.4,1962.8 1340.2,1940.6 1343.1,1919.0 1345.1,1898.2 1346.2,1878.3 1346.2,1859.3 1345.2,1841.3 1343.1,1824.3 1339.9,1808.5 1335.6,1793.9 1330.1,1780.6 1323.5,1768.5 1315.8,1757.7 1307.0,1748.3 1297.0,1740.2 1286.0,1733.5 1273.9,1728.2 1260.7,1724.3 1246.5,1721.7 1231.3,1720.6 1215.2,1720.7 1198.2,1722.1 1180.4,1724.9 1161.8,1728.8 1142.5,1734.0 1122.5,1740.2 1102.1,1747.6 1081.1,1755.9 1059.8,1765.2 1038.2,1775.3 1016.4,1786.1 994.5,1797.6 972.7,1809.6 951.0,1822.1  " style="stroke-opacity: 1.000000; stroke-width: 5.0; stroke: rgb(107,174,214); fill: none"  />
<path d="M 1107.1,999.2 L 1122.4,1018.5 1137.7,1037.5 1153.1,1056.1 1168.4,1074.1 1183.5,1091.4 1198.3,1107.9 1212.9,1123.5 1227.0,1138.0 1240.7,1151.4 1253.9,1163.6 1266.5,1174.4 1278.5,1183.9 1289.9,1192.0 1300.5,1198.5 1310.4,1203.6 1319.5,1207.0 1327.8,1208.9 1335.3,1209.1 1342.0,1207.7 1347.7,1204.6 1352.7,1199.9 1356.7,1193.6 1359.9,1185.7 1362.2,1176.2 1363.6,1165.2 1364.2,1152.7 1363.9,1138.8 1362.9,1123.6 1361.0,1107.0 1358.4,1089.3 1355.1,1070.4 1351.0,1050.5 1346.4,1029.7 1341.2,1008.2 1335.4,985.9 1329.1,963.2 1322.4,940.0 1315.4,916.6 1308.1,893.1  " style="stroke-opacity: 1.000000; stroke-width: 5.0; stroke: rgb(107,174,214); fill: none"  />
<path d="M 1107.1,999.2 L 1122.5,1018.6 1138.1,1037.7 1153.9,1056.3 1169.6,1074.3 1185.4,1091.5 1201.0,1107.9 1216.5,1123.3 1231.7,1137.6 1246.7,1150.8 1261.3,1162.6 1275.5,1173.2 1289.3,1182.3 1302.6,1189.9 1315.4,1196.0 1327.6,1200.5 1339.2,1203.4 1350.2,1204.7 1360.6,1204.3 1370.2,1202.2 1379.2,1198.5 1387.5,1193.0 1395.0,1186.0 1401.8,1177.3 1407.9,1166.9 1413.3,1155.1 1417.9,1141.7 1421.8,1126.9 1425.0,1110.7 1427.5,1093.1 1429.3,1074.4 1430.5,1054.5 1431.0,1033.6 1430.9,1011.8 1430.2,989.1 1429.0,965.8 1427.3,942.0 1425.1,917.7 1422.5,893.2 1419.6,868.6  " style="stroke-opacity: 1.000000; stroke-width: 5.0; stroke: rgb(107,174,214); fill: none"  />
<path d="M 1194.0,2058.1 L 1205.8,2036.7 1217.6,2015.4 1229.4,1994.6 1241.1,1974.3 1252.5,1954.6 1263.7,1935.8 1274.6,1917.9 1285.1,1901.0 1295.2,1885.3 1304.8,1870.8 1313.9,1857.6 1322.4,1845.9 1330.3,1835.7 1337.6,1826.9 1344.2,1819.8 1350.2,1814.4 1355.4,1810.5 1359.9,1808.4 1363.7,1808.0 1366.7,1809.3 1368.9,1812.4 1370.4,1817.1 1371.2,1823.5 1371.2,1831.6 1370.5,1841.3 1369.0,1852.6 1366.9,1865.3 1364.1,1879.6 1360.6,1895.2 1356.5,1912.0 1351.8,1930.1 1346.6,1949.3 1340.8,1969.5 1334.6,1990.5 1328.0,2012.2 1321.0,2034.6 1313.7,2057.4 1306.2,2080.5 1298.5,2103.8  " style="stroke-opacity: 1.000000; stroke-width: 5.0; stroke: rgb(107,174,214); fill: none"  />
<path d="M 1194.0,2058.1 L 1205.7,2036.6 1217.2,2015.2 1228.4,1994.1 1239.3,1973.3 1249.7,1953.1 1259.6,1933.5 1268.8,1914.7 1277.4,1896.7 1285.2,1879.8 1292.3,1863.9 1298.5,1849.2 1303.8,1835.7 1308.2,1823.5 1311.6,1812.7 1314.1,1803.3 1315.5,1795.3 1315.9,1788.9 1315.3,1784.0 1313.6,1780.6 1310.8,1778.7 1307.1,1778.5 1302.3,1779.7 1296.4,1782.5 1289.6,1786.9 1281.8,1792.7 1273.1,1800.0 1263.5,1808.6 1253.0,1818.7 1241.7,1830.0 1229.7,1842.5 1217.0,1856.2 1203.6,1870.9 1189.7,1886.6 1175.3,1903.1 1160.5,1920.4 1145.4,1938.3 1130.1,1956.7 1114.7,1975.5 1099.2,1994.5  " style="stroke-opacity: 1.000000; stroke-width: 5.0; stroke: rgb(107,174,214); fill: none"  />
<path d="M 1745.5,2087.2 L 1736.1,2064.5 1727.0,2041.8 1718.3,2019.4 1710.0,1997.2 1702.3,1975.6 1695.1,1954.6 1688.6,1934.3 1682.9,1914.9 1677.9,1896.4 1673.7,1878.9 1670.3,1862.6 1667.9,1847.5 1666.4,1833.7 1665.9,1821.2 1666.3,1810.1 1667.7,1800.5 1670.2,1792.3 1673.6,1785.7 1678.1,1780.6 1683.6,1777.0 1690.1,1775.0 1697.6,1774.5 1706.0,1775.6 1715.4,1778.2 1725.7,1782.4 1736.9,1787.9 1748.9,1794.9 1761.7,1803.3 1775.3,1813.0 1789.5,1824.0 1804.3,1836.1 1819.7,1849.3 1835.6,1863.5 1851.9,1878.6 1868.5,1894.5 1885.3,1911.0 1902.3,1928.2 1919.3,1945.7 1936.2,1963.5  " style="stroke-opacity: 1.000000; stroke-width: 5.0; stroke: rgb(107,174,214); fill: none"  />
<path d="M 1745.5,2087.2 L 1736.1,2064.6 1726.9,2042.1 1718.0,2019.9 1709.4,1998.1 1701.1,1976.9 1693.4,1956.4 1686.2,1936.7 1679.5,1918.0 1673.5,1900.3 1668.2,1883.8 1663.6,1868.5 1659.7,1854.5 1656.6,1841.9 1654.4,1830.8 1652.9,1821.2 1652.3,1813.1 1652.6,1806.7 1653.8,1801.8 1655.8,1798.7 1658.7,1797.1 1662.5,1797.2 1667.2,1799.0 1672.6,1802.4 1679.0,1807.5 1686.1,1814.1 1694.0,1822.2 1702.6,1831.8 1712.0,1842.9 1722.0,1855.4 1732.7,1869.1 1743.9,1884.0 1755.6,1900.1 1767.8,1917.1 1780.4,1935.1 1793.2,1953.8 1806.4,1973.2 1819.7,1993.2 1833.1,2013.5 1846.4,2034.0  " style="stroke-opacity: 1.000000; stroke-width: 5.0; stroke: rgb(107,174,214); fill: none"  />
<path d="M 1745.5,2087.2 L 1736.0,2064.7 1726.5,2042.3 1717.0,2020.4 1707.5,1998.9 1698.2,1978.2 1689.0,1958.3 1680.1,1939.3 1671.4,1921.4 1663.0,1904.7 1655.0,1889.3 1647.4,1875.3 1640.1,1862.7 1633.3,1851.7 1627.0,1842.2 1621.2,1834.5 1615.9,1828.4 1611.1,1824.1 1606.8,1821.5 1603.1,1820.7 1600.0,1821.7 1597.4,1824.5 1595.4,1829.0 1594.0,1835.3 1593.1,1843.3 1592.8,1853.1 1593.1,1864.4 1593.9,1877.3 1595.2,1891.8 1597.0,1907.6 1599.3,1924.9 1602.0,1943.3 1605.2,1963.0 1608.8,1983.6 1612.8,2005.2 1617.0,2027.5 1621.6,2050.5 1626.5,2073.9 1631.5,2097.7 1636.7,2121.6  " style="stroke-opacity: 1.000000; stroke-width: 5.0; stroke: rgb(107,174,214); fill: none"  />
<path d="M 1745.5,2087.2 L 1735.9,2064.6 1726.2,2042.2 1716.3,2020.2 1706.4,1998.8 1696.4,1978.1 1686.5,1958.2 1676.6,1939.3 1666.8,1921.6 1657.2,1905.0 1647.7,1889.8 1638.5,1876.0 1629.4,1863.6 1620.6,1852.8 1612.1,1843.7 1603.9,1836.2 1596.0,1830.4 1588.5,1826.5 1581.4,1824.3 1574.6,1823.9 1568.2,1825.3 1562.2,1828.5 1556.6,1833.5 1551.5,1840.3 1546.7,1848.8 1542.4,1859.0 1538.5,1870.9 1535.1,1884.4 1532.1,1899.4 1529.4,1915.8 1527.2,1933.6 1525.4,1952.7 1524.0,1972.9 1523.0,1994.2 1522.3,2016.4 1521.9,2039.3 1521.9,2063.0 1522.2,2087.1 1522.7,2111.5 1523.5,2136.1  " style="stroke-opacity: 1.000000; stroke-width: 5.0; stroke: rgb(107,174,214); fill: none"  />
<path d="M 1745.5,2087.2 L 1735.8,2064.5 1725.8,2041.9 1715.6,2019.8 1705.2,1998.3 1694.6,1977.5 1683.9,1957.5 1673.1,1938.6 1662.2,1920.7 1651.3,1904.0 1640.3,1888.7 1629.4,1874.8 1618.6,1862.3 1607.8,1851.4 1597.1,1842.1 1586.5,1834.5 1576.1,1828.7 1565.8,1824.5 1555.7,1822.2 1545.9,1821.6 1536.2,1822.8 1526.8,1825.8 1517.6,1830.7 1508.8,1837.2 1500.1,1845.5 1491.8,1855.6 1483.8,1867.2 1476.1,1880.5 1468.7,1895.2 1461.6,1911.5 1454.9,1929.1 1448.5,1947.9 1442.4,1967.9 1436.7,1989.0 1431.3,2011.0 1426.3,2033.8 1421.6,2057.3 1417.3,2081.2 1413.3,2105.6 1409.6,2130.0  " style="stroke-opacity: 1.000000; stroke-width: 5.0; stroke: rgb(107,174,214); fill: none"  />
<path d="M 1943.5,1043.4 L 1926.1,1061.1 1908.6,1078.4 1891.0,1095.2 1873.4,1111.5 1855.9,1126.9 1838.6,1141.6 1821.6,1155.3 1805.0,1167.9 1788.7,1179.4 1772.9,1189.7 1757.7,1198.6 1743.0,1206.3 1729.0,1212.4 1715.6,1217.2 1703.0,1220.4 1691.1,1222.0 1680.1,1222.1 1669.8,1220.6 1660.4,1217.5 1651.9,1212.9 1644.3,1206.6 1637.5,1198.8 1631.6,1189.4 1626.7,1178.5 1622.6,1166.1 1619.4,1152.3 1617.1,1137.2 1615.6,1120.7 1614.9,1103.0 1615.1,1084.2 1616.1,1064.3 1617.8,1043.5 1620.2,1021.8 1623.2,999.3 1626.9,976.3 1631.1,952.7 1635.8,928.8 1641.0,904.7 1646.5,880.6  " style="stroke-opacity: 1.000000; stroke-width: 5.0; stroke: rgb(107,174,214); fill: none"  />
<path d="M 1943.5,1043.4 L 1926.3,1061.0 1909.0,1078.3 1891.8,1095.1 1874.7,1111.4 1857.8,1127.1 1841.3,1141.9 1825.2,1155.8 1809.6,1168.8 1794.6,1180.7 1780.2,1191.4 1766.5,1200.9 1753.6,1209.0 1741.4,1215.8 1730.2,1221.2 1719.8,1225.2 1710.4,1227.7 1701.9,1228.6 1694.4,1228.1 1688.0,1225.9 1682.5,1222.3 1678.1,1217.1 1674.8,1210.4 1672.5,1202.2 1671.2,1192.6 1670.9,1181.5 1671.7,1169.0 1673.4,1155.2 1676.1,1140.1 1679.6,1123.9 1684.1,1106.5 1689.4,1088.1 1695.5,1068.7 1702.3,1048.5 1709.8,1027.6 1717.9,1006.1 1726.5,984.2 1735.6,961.8 1745.0,939.3 1754.8,916.7  " style="stroke-opacity: 1.000000; stroke-width: 5.0; stroke: rgb(107,174,214); fill: none"  />
<path d="M 1943.5,1043.4 L 1926.4,1061.0 1909.3,1078.3 1892.4,1095.2 1875.8,1111.7 1859.5,1127.6 1843.7,1142.8 1828.4,1157.2 1813.8,1170.6 1799.9,1183.1 1786.8,1194.5 1774.5,1204.8 1763.2,1213.8 1752.9,1221.6 1743.5,1228.0 1735.2,1233.1 1728.1,1236.8 1722.0,1239.1 1717.1,1240.0 1713.4,1239.3 1710.8,1237.3 1709.5,1233.7 1709.3,1228.8 1710.2,1222.4 1712.4,1214.6 1715.6,1205.4 1720.0,1195.0 1725.5,1183.2 1732.0,1170.3 1739.5,1156.2 1747.9,1141.0 1757.3,1124.8 1767.4,1107.7 1778.3,1089.8 1789.9,1071.2 1802.1,1052.0 1814.8,1032.3 1827.8,1012.2 1841.2,991.9 1854.8,971.6  " style="stroke-opacity: 1.000000; stroke-width: 5.0; stroke: rgb(107,174,214); fill: none"  />
<path d="M 1099.2,1994.5 L 1114.8,1975.4 1130.5,1956.7 1146.1,1938.4 1161.7,1920.6 1177.0,1903.5 1192.2,1887.3 1206.9,1871.9 1221.3,1857.6 1235.2,1844.5 1248.6,1832.5 1261.4,1821.8 1273.5,1812.5 1285.0,1804.7 1295.7,1798.3 1305.7,1793.4 1314.9,1790.1 1323.2,1788.4 1330.7,1788.3 1337.3,1789.8 1343.1,1792.9 1347.9,1797.7 1351.9,1804.1 1354.9,1812.0 1357.1,1821.6 1358.3,1832.6 1358.7,1845.1 1358.2,1859.0 1356.9,1874.2 1354.8,1890.7 1351.9,1908.4 1348.3,1927.3 1343.9,1947.1 1339.0,1967.8 1333.4,1989.3 1327.3,2011.4 1320.6,2034.1 1313.6,2057.1 1306.2,2080.4 1298.5,2103.8  " style="stroke-opacity: 1.000000; stroke-width: 5.0; stroke: rgb(107,174,214); fill: none"  />
<path d="M 1099.2,1994.5 L 1114.7,1975.5 1130.1,1956.7 1145.4,1938.3 1160.5,1920.4 1175.3,1903.1 1189.7,1886.6 1203.6,1870.9 1217.0,1856.2 1229.7,1842.5 1241.7,1830.0 1253.0,1818.7 1263.5,1808.6 1273.1,1800.0 1281.8,1792.7 1289.6,1786.9 1296.4,1782.5 1302.3,1779.7 1307.1,1778.5 1310.8,1778.7 1313.6,1780.6 1315.3,1784.0 1315.9,1788.9 1315.5,1795.3 1314.1,1803.3 1311.6,1812.7 1308.2,1823.5 1303.8,1835.7 1298.5,1849.2 1292.3,1863.9 1285.2,1879.8 1277.4,1896.7 1268.8,1914.7 1259.6,1933.5 1249.7,1953.1 1239.3,1973.3 1228.4,1994.1 1217.2,2015.2 1205.7,2036.6 1194.0,2058.1  " style="stroke-opacity: 1.000000; stroke-width: 5.0; stroke: rgb(107,174,214); fill: none"  />
<path d="M 1099.2,1994.5 L 1114.6,1975.3 1129.7,1956.1 1144.4,1937.0 1158.6,1918.1 1172.1,1899.5 1184.9,1881.4 1196.8,1863.7 1207.8,1846.7 1217.8,1830.4 1226.8,1814.8 1234.6,1800.1 1241.1,1786.3 1246.5,1773.4 1250.5,1761.6 1253.2,1750.8 1254.5,1741.2 1254.5,1732.6 1253.0,1725.3 1250.2,1719.1 1245.9,1714.2 1240.2,1710.4 1233.2,1707.9 1224.8,1706.6 1215.0,1706.4 1204.0,1707.5 1191.7,1709.7 1178.2,1713.0 1163.5,1717.5 1147.8,1723.0 1131.1,1729.5 1113.4,1736.9 1094.9,1745.2 1075.7,1754.4 1055.8,1764.3 1035.4,1774.9 1014.6,1786.1 993.5,1797.7 972.3,1809.8 951.0,1822.1  " style="stroke-opacity: 1.000000; stroke-width: 5.0; stroke: rgb(107,174,214); fill: none"  />
<path d="M 1636.7,2121.6 L 1631.5,2097.7 1626.5,2073.9 1621.6,2050.5 1617.0,2027.5 1612.8,2005.2 1608.8,1983.6 1605.2,1963.0 1602.0,1943.3 1599.3,1924.9 1597.0,1907.6 1595.2,1891.8 1593.9,1877.3 1593.1,1864.4 1592.8,1853.1 1593.1,1843.3 1594.0,1835.3 1595.4,1829.0 1597.4,1824.5 1600.0,1821.7 1603.1,1820.7 1606.8,1821.5 1611.1,1824.1 1615.9,1828.4 1621.2,1834.5 1627.0,1842.2 1633.3,1851.7 1640.1,1862.7 1647.4,1875.3 1655.0,1889.3 1663.0,1904.7 1671.4,1921.4 1680.1,1939.3 1689.0,1958.3 1698.2,1978.2 1707.5,1998.9 1717.0,2020.4 1726.5,2042.3 1736.0,2064.7 1745.5,2087.2  " style="stroke-opacity: 1.000000; stroke-width: 5.0; stroke: rgb(107,174,214); fill: none"  />
<path d="M 1636.7,2121.6 L 1631.3,2097.7 1625.7,2073.9 1619.9,2050.5 1614.0,2027.6 1607.9,2005.5 1601.7,1984.2 1595.3,1963.8 1588.9,1944.6 1582.4,1926.6 1575.8,1909.9 1569.1,1894.6 1562.4,1880.9 1555.7,1868.7 1549.0,1858.2 1542.2,1849.4 1535.5,1842.3 1528.8,1837.0 1522.2,1833.6 1515.5,1832.0 1509.0,1832.2 1502.5,1834.3 1496.2,1838.2 1489.9,1844.0 1483.7,1851.5 1477.6,1860.8 1471.7,1871.8 1465.9,1884.4 1460.2,1898.7 1454.7,1914.4 1449.4,1931.5 1444.2,1949.9 1439.2,1969.6 1434.4,1990.3 1429.7,2012.0 1425.3,2034.6 1421.0,2057.8 1417.0,2081.6 1413.2,2105.7 1409.6,2130.0  " style="stroke-opacity: 1.000000; stroke-width: 5.0; stroke: rgb(107,174,214); fill: none"  />
<path d="M 1523.5,2136.1 L 1522.7,2111.5 1522.2,2087.1 1521.9,2063.0 1521.9,2039.3 1522.3,2016.4 1523.0,1994.2 1524.0,1972.9 1525.4,1952.7 1527.2,1933.6 1529.4,1915.8 1532.1,1899.4 1535.1,1884.4 1538.5,1870.9 1542.4,1859.0 1546.7,1848.8 1551.5,1840.3 1556.6,1833.5 1562.2,1828.5 1568.2,1825.3 1574.6,1823.9 1581.4,1824.3 1588.5,1826.5 1596.0,1830.4 1603.9,1836.2 1612.1,1843.7 1620.6,1852.8 1629.4,1863.6 1638.5,1876.0 1647.7,1889.8 1657.2,1905.0 1666.8,1921.6 1676.6,1939.3 1686.5,1958.2 1696.4,1978.1 1706.4,1998.8 1716.3,2020.2 1726.2,2042.2 1735.9,2064.6 1745.5,2087.2  " style="stroke-opacity: 1.000000; stroke-width: 5.0; stroke: rgb(107,174,214); fill: none"  />
<path d="M 1523.5,2136.1 L 1522.6,2111.6 1521.5,2087.3 1520.3,2063.4 1519.0,2040.0 1517.5,2017.3 1515.9,1995.4 1514.2,1974.6 1512.4,1954.8 1510.4,1936.2 1508.3,1918.9 1506.1,1903.1 1503.8,1888.8 1501.3,1876.1 1498.7,1865.1 1495.9,1855.7 1493.1,1848.2 1490.1,1842.4 1487.0,1838.5 1483.9,1836.5 1480.6,1836.3 1477.2,1838.0 1473.7,1841.6 1470.2,1847.0 1466.5,1854.2 1462.8,1863.2 1459.1,1873.9 1455.3,1886.3 1451.4,1900.2 1447.6,1915.7 1443.6,1932.7 1439.7,1950.9 1435.8,1970.4 1431.9,1991.0 1428.1,2012.6 1424.2,2035.0 1420.4,2058.1 1416.7,2081.8 1413.1,2105.8 1409.6,2130.0  " style="stroke-opacity: 1.000000; stroke-width: 5.0; stroke: rgb(107,174,214); fill: none"  />
<path d="M 1308.1,893.1 L 1315.4,916.6 1322.4,940.0 1329.1,963.2 1335.4,985.9 1341.2,1008.2 1346.4,1029.7 1351.0,1050.5 1355.1,1070.4 1358.4,1089.3 1361.0,1107.0 1362.9,1123.6 1363.9,1138.8 1364.2,1152.7 1363.6,1165.2 1362.2,1176.2 1359.9,1185.7 1356.7,1193.6 1352.7,1199.9 1347.7,1204.6 1342.0,1207.7 1335.3,1209.1 1327.8,1208.9 1319.5,1207.0 1310.4,1203.6 1300.5,1198.5 1289.9,1192.0 1278.5,1183.9 1266.5,1174.4 1253.9,1163.6 1240.7,1151.4 1227.0,1138.0 1212.9,1123.5 1198.3,1107.9 1183.5,1091.4 1168.4,1074.1 1153.1,1056.1 1137.7,1037.5 1122.4,1018.5 1107.1,999.2  " style="stroke-opacity: 1.000000; stroke-width: 5.0; stroke: rgb(107,174,214); fill: none"  />
<path d="M 1419.6,868.6 L 1422.5,893.2 1425.1,917.7 1427.3,942.0 1429.0,965.8 1430.2,989.1 1430.9,1011.8 1431.0,1033.6 1430.5,1054.5 1429.3,1074.4 1427.5,1093.1 1425.0,1110.7 1421.8,1126.9 1417.9,1141.7 1413.3,1155.1 1407.9,1166.9 1401.8,1177.3 1395.0,1186.0 1387.5,1193.0 1379.2,1198.5 1370.2,1202.2 1360.6,1204.3 1350.2,1204.7 1339.2,1203.4 1327.6,1200.5 1315.4,1196.0 1302.6,1189.9 1289.3,1182.3 1275.5,1173.2 1261.3,1162.6 1246.7,1150.8 1231.7,1137.6 1216.5,1123.3 1201.0,1107.9 1185.4,1091.5 1169.6,1074.3 1153.9,1056.3 1138.1,1037.7 1122.5,1018.6 1107.1,999.2  " style="stroke-opacity: 1.000000; stroke-width: 5.0; stroke: rgb(107,174,214); fill: none"  />
<path d="M 951.0,1822.1 L 972.7,1809.6 994.5,1797.6 1016.4,1786.1 1038.2,1775.3 1059.8,1765.2 1081.1,1755.9 1102.1,1747.6 1122.5,1740.2 1142.5,1734.0 1161.8,1728.8 1180.4,1724.9 1198.2,1722.1 1215.2,1720.7 1231.3,1720.6 1246.5,1721.7 1260.7,1724.3 1273.9,1728.2 1286.0,1733.5 1297.0,1740.2 1307.0,1748.3 1315.8,1757.7 1323.5,1768.5 1330.1,1780.6 1335.6,1793.9 1339.9,1808.5 1343.1,1824.3 1345.2,1841.3 1346.2,1859.3 1346.2,1878.3 1345.1,1898.2 1343.1,1919.0 1340.2,1940.6 1336.4,1962.8 1331.7,1985.6 1326.3,2008.8 1320.2,2032.4 1313.5,2056.1 1306.2,2080.0 1298.5,2103.8  " style="stroke-opacity: 1.000000; stroke-width: 5.0; stroke: rgb(107,174,214); fill: none"  />
<path d="M 951.0,1822.1 L 972.3,1809.8 993.5,1797.7 1014.6,1786.1 1035.4,1774.9 1055.8,1764.3 1075.7,1754.4 1094.9,1745.2 1113.4,1736.9 1131.1,1729.5 1147.8,1723.0 1163.5,1717.5 1178.2,1713.0 1191.7,1709.7 1204.0,1707.5 1215.0,1706.4 1224.8,1706.6 1233.2,1707.9 1240.2,1710.4 1245.9,1714.2 1250.2,1719.1 1253.0,1725.3 1254.5,1732.6 1254.5,1741.2 1253.2,1750.8 1250.5,1761.6 1246.5,1773.4 1241.1,1786.3 1234.6,1800.1 1226.8,1814.8 1217.8,1830.4 1207.8,1846.7 1196.8,1863.7 1184.9,1881.4 1172.1,1899.5 1158.6,1918.1 1144.4,1937.0 1129.7,1956.1 1114.6,1975.3 1099.2,1994.5  " style="stroke-opacity: 1.000000; stroke-width: 5.0; stroke: rgb(107,174,214); fill: none"  />
<path d="M 1409.6,2130.0 L 1413.4,2105.0 1417.8,2080.1 1422.7,2055.5 1428.2,2031.2 1434.3,2007.5 1440.9,1984.5 1448.2,1962.3 1456.1,1941.0 1464.6,1920.7 1473.7,1901.4 1483.5,1883.4 1493.8,1866.6 1504.8,1851.2 1516.4,1837.2 1528.7,1824.6 1541.5,1813.5 1554.9,1804.0 1568.8,1796.0 1583.3,1789.7 1598.4,1784.9 1613.9,1781.8 1629.9,1780.3 1646.3,1780.4 1663.2,1782.1 1680.4,1785.3 1698.0,1790.1 1715.8,1796.5 1734.0,1804.2 1752.3,1813.4 1770.8,1823.8 1789.5,1835.6 1808.2,1848.5 1826.9,1862.5 1845.6,1877.5 1864.2,1893.4 1882.6,1910.1 1900.8,1927.4 1918.7,1945.3 1936.2,1963.5  " style="stroke-opacity: 1.000000; stroke-width: 5.0; stroke: rgb(107,174,214); fill: none"  />
<path d="M 1409.6,2130.0 L 1413.3,2105.3 1417.5,2080.7 1422.2,2056.5 1427.3,2032.7 1432.9,2009.5 1438.9,1987.1 1445.5,1965.5 1452.5,1944.9 1460.0,1925.4 1468.0,1907.1 1476.5,1890.1 1485.5,1874.5 1495.0,1860.3 1504.9,1847.6 1515.3,1836.5 1526.2,1827.0 1537.4,1819.1 1549.2,1812.9 1561.3,1808.5 1573.8,1805.7 1586.7,1804.7 1599.9,1805.4 1613.4,1807.8 1627.3,1811.8 1641.4,1817.6 1655.7,1824.9 1670.3,1833.8 1685.0,1844.3 1699.8,1856.1 1714.8,1869.4 1729.8,1883.9 1744.8,1899.7 1759.8,1916.5 1774.7,1934.3 1789.5,1953.0 1804.1,1972.5 1818.5,1992.6 1832.6,2013.1 1846.4,2034.0  " style="stroke-opacity: 1.000000; stroke-width: 5.0; stroke: rgb(107,174,214); fill: none"  />
<path d="M 1409.6,2130.0 L 1413.3,2105.6 1417.3,2081.2 1421.6,2057.3 1426.3,2033.8 1431.3,2011.0 1436.7,1989.0 1442.4,1967.9 1448.5,1947.9 1454.9,1929.1 1461.6,1911.5 1468.7,1895.2 1476.1,1880.5 1483.8,1867.2 1491.8,1855.6 1500.1,1845.5 1508.8,1837.2 1517.6,1830.7 1526.8,1825.8 1536.2,1822.8 1545.9,1821.6 1555.7,1822.2 1565.8,1824.5 1576.1,1828.7 1586.5,1834.5 1597.1,1842.1 1607.8,1851.4 1618.6,1862.3 1629.4,1874.8 1640.3,1888.7 1651.3,1904.0 1662.2,1920.7 1673.1,1938.6 1683.9,1957.5 1694.6,1977.5 1705.2,1998.3 1715.6,2019.8 1725.8,2041.9 1735.8,2064.5 1745.5,2087.2  " style="stroke-opacity: 1.000000; stroke-width: 5.0; stroke: rgb(107,174,214); fill: none"  />
<path d="M 1409.6,2130.0 L 1413.2,2105.7 1417.0,2081.6 1421.0,2057.8 1425.3,2034.6 1429.7,2012.0 1434.4,1990.3 1439.2,1969.6 1444.2,1949.9 1449.4,1931.5 1454.7,1914.4 1460.2,1898.7 1465.9,1884.4 1471.7,1871.8 1477.6,1860.8 1483.7,1851.5 1489.9,1844.0 1496.2,1838.2 1502.5,1834.3 1509.0,1832.2 1515.5,1832.0 1522.2,1833.6 1528.8,1837.0 1535.5,1842.3 1542.2,1849.4 1549.0,1858.2 1555.7,1868.7 1562.4,1880.9 1569.1,1894.6 1575.8,1909.9 1582.4,1926.6 1588.9,1944.6 1595.3,1963.8 1601.7,1984.2 1607.9,2005.5 1614.0,2027.6 1619.9,2050.5 1625.7,2073.9 1631.3,2097.7 1636.7,2121.6  " style="stroke-opacity: 1.000000; stroke-width: 5.0; stroke: rgb(107,174,214); fill: none"  />
<path d="M 1409.6,2130.0 L 1413.1,2105.8 1416.7,2081.8 1420.4,2058.1 1424.2,2035.0 1428.1,2012.6 1431.9,1991.0 1435.8,1970.4 1439.7,1950.9 1443.6,1932.7 1447.6,1915.7 1451.4,1900.2 1455.3,1886.3 1459.1,1873.9 1462.8,1863.2 1466.5,1854.2 1470.2,1847.0 1473.7,1841.6 1477.2,1838.0 1480.6,1836.3 1483.9,1836.5 1487.0,1838.5 1490.1,1842.4 1493.1,1848.2 1495.9,1855.7 1498.7,1865.1 1501.3,1876.1 1503.8,1888.8 1506.1,1903.1 1508.3,1918.9 1510.4,1936.2 1512.4,1954.8 1514.2,1974.6 1515.9,1995.4 1517.5,2017.3 1519.0,2040.0 1520.3,2063.4 1521.5,2087.3 1522.6,2111.6 1523.5,2136.1  " style="stroke-opacity: 1.000000; stroke-width: 5.0; stroke: rgb(107,174,214); fill: none"  />
<path d="M 2075.6,1228.4 L 2052.9,1238.9 2030.1,1248.9 2007.3,1258.4 1984.6,1267.2 1962.2,1275.3 1940.1,1282.7 1918.5,1289.1 1897.5,1294.6 1877.1,1299.0 1857.4,1302.4 1838.5,1304.7 1820.5,1305.8 1803.5,1305.7 1787.4,1304.4 1772.4,1301.9 1758.5,1298.1 1745.7,1293.0 1734.1,1286.6 1723.7,1278.9 1714.5,1270.0 1706.5,1259.8 1699.8,1248.4 1694.4,1235.8 1690.1,1222.0 1687.1,1207.0 1685.4,1191.0 1684.8,1174.0 1685.4,1156.0 1687.1,1137.0 1690.0,1117.3 1693.8,1096.7 1698.7,1075.5 1704.5,1053.7 1711.1,1031.5 1718.6,1008.8 1726.8,985.9 1735.6,962.8 1745.0,939.7 1754.8,916.7  " style="stroke-opacity: 1.000000; stroke-width: 5.0; stroke: rgb(107,174,214); fill: none"  />
</g>
<defs>
<pattern id="checker" width="10" height="10" patternTransform="rotate(45 0 0)" patternUnits="userSpaceOnUse"><line x1="0" y1="0" x2="10" y2="0" style="stroke:black;stroke-width:5" /><line x1="0" y1="0" x2="0" y2="10" style="stroke:black;stroke-width:4" /></pattern>
<pattern id="hline-sparse" width="10" height="10" patternTransform="rotate(0 0 0)" patternUnits="userSpaceOnUse"><line x1="0" y1="0" x2="10" y2="0" style="stroke:black;stroke-width:2" /></pattern>
<pattern id="checker" width="10" height="10" patternTransform="rotate(45 0 0)" patternUnits="userSpaceOnUse"><line x1="0" y1="0" x2="10" y2="0" style="stroke:black;stroke-width:2" /><line x1="0" y1="0" x2="0" y2="10" style="stroke:black;stroke-width:2" /></pattern>
<pattern id="hline" width="10" height="10" patternTransform="rotate(0 0 0)" patternUnits="userSpaceOnUse"><line x1="0" y1="0" x2="10" y2="0" style="stroke:black;stroke-width:5" /></pattern>
<pattern id="vline-sparse" width="10" height="10" patternTransform="rotate(0 0 0)" patternUnits="userSpaceOnUse"><line x1="0" y1="0" x2="0" y2="10" style="stroke:black;stroke-width:2" /></pattern>
<pattern id="vline" width="10" height="10" patternTransform="rotate(0 0 0)" patternUnits="userSpaceOnUse"><line x1="0" y1="0" x2="0" y2="10" style="stroke:black;stroke-width:5" /></pattern>
</defs>
</svg>
