<?xml version="1.0" encoding="utf-8" standalone="no"?>
<!DOCTYPE svg PUBLIC "-//W3C//DTD SVG 1.1//EN" "http://www.w3.org/Graphics/SVG/1.1/DTD/svg11.dtd">
<svg width="3000px" height="3000px" version="1.1" xmlns="http://www.w3.org/2000/svg" xmlns:xlink="http://www.w3.org/1999/xlink">
<g id="bg">
<rect x="0" y="0" width="3000px" height="3000px" style="fill:rgb(255,255,255);"/>
</g>
<g id="ideograms">
<path d="M1500.000,830.000 A670.000,670.000 40.000 0,1 1570.620,833.732 L1579.053,754.178 A750.000,750.000 0.000 0,0 1500.000,750.000 Z" style="stroke-width:2.0;stroke:rgb(115,115,115);stroke-linecap:round;fill:rgb(153,204,255);" />
<text x="1567.5" y="677.8" font-size="65.0px" font-family="CMUBright-Roman" style="text-anchor:start;fill:rgb(0,0,0);" transform="rotate(273.0,1567.5,677.8)" >5-FP</text>
<path d="M1500.000,830.000 A670.000,670.000 40.000 0,1 1570.620,833.732 L1579.053,754.178 A750.000,750.000 0.000 0,0 1500.000,750.000 Z" style="stroke-width:2.0;stroke:rgb(115,115,115);stroke-linecap:round;fill:none;" />
<path d="M1619.633,840.767 A670.000,670.000 40.000 0,1 1688.452,857.049 L1710.954,780.279 A750.000,750.000 0.000 0,0 1633.918,762.053 Z" style="stroke-width:2.0;stroke:rgb(115,115,115);stroke-linecap:round;fill:rgb(153,204,255);" />
<text x="1713.7" y="703.2" font-size="65.0px" font-family="CMUBright-Roman" style="text-anchor:start;fill:rgb(0,0,0);" transform="rotate(283.3,1713.7,703.2)" >8-IFG</text>
<path d="M1619.633,840.767 A670.000,670.000 40.000 0,1 1688.452,857.049 L1710.954,780.279 A750.000,750.000 0.000 0,0 1633.918,762.053 Z" style="stroke-width:2.0;stroke:rgb(115,115,115);stroke-linecap:round;fill:none;" />
<path d="M1735.421,872.723 A670.000,670.000 40.000 0,1 1800.227,901.031 L1836.075,829.512 A750.000,750.000 0.000 0,0 1763.531,797.824 Z" style="stroke-width:2.0;stroke:rgb(115,115,115);stroke-linecap:round;fill:rgb(153,204,255);" />
<text x="1852.1" y="753.9" font-size="65.0px" font-family="CMUBright-Roman" style="text-anchor:start;fill:rgb(0,0,0);" transform="rotate(293.6,1852.1,753.9)" >10-IPL</text>
<path d="M1735.421,872.723 A670.000,670.000 40.000 0,1 1800.227,901.031 L1836.075,829.512 A750.000,750.000 0.000 0,0 1763.531,797.824 Z" style="stroke-width:2.0;stroke:rgb(115,115,115);stroke-linecap:round;fill:none;" />
<path d="M1843.643,924.839 A670.000,670.000 40.000 0,1 1902.352,964.264 L1950.394,900.296 A750.000,750.000 0.000 0,0 1884.674,856.163 Z" style="stroke-width:2.0;stroke:rgb(115,115,115);stroke-linecap:round;fill:rgb(153,204,255);" />
<text x="1980.1" y="829.1" font-size="65.0px" font-family="CMUBright-Roman" style="text-anchor:start;fill:rgb(0,0,0);" transform="rotate(303.9,1980.1,829.1)" >13-LCI</text>
<path d="M1843.643,924.839 A670.000,670.000 40.000 0,1 1902.352,964.264 L1950.394,900.296 A750.000,750.000 0.000 0,0 1884.674,856.163 Z" style="stroke-width:2.0;stroke:rgb(115,115,115);stroke-linecap:round;fill:none;" />
<path d="M1940.819,995.442 A670.000,670.000 40.000 0,1 1991.546,1044.717 L2050.238,990.354 A750.000,750.000 0.000 0,0 1993.454,935.196 Z" style="stroke-width:2.0;stroke:rgb(115,115,115);stroke-linecap:round;fill:rgb(153,204,255);" />
<text x="2092.1" y="925.6" font-size="65.0px" font-family="CMUBright-Roman" style="text-anchor:start;fill:rgb(0,0,0);" transform="rotate(314.2,2092.1,925.6)" >19-MTG</text>
<path d="M1940.819,995.442 A670.000,670.000 40.000 0,1 1991.546,1044.717 L2050.238,990.354 A750.000,750.000 0.000 0,0 1993.454,935.196 Z" style="stroke-width:2.0;stroke:rgb(115,115,115);stroke-linecap:round;fill:none;" />
<path d="M2023.827,1082.262 A670.000,670.000 40.000 0,1 2064.940,1139.802 L2132.396,1096.793 A750.000,750.000 0.000 0,0 2086.374,1032.383 Z" style="stroke-width:2.0;stroke:rgb(115,115,115);stroke-linecap:round;fill:rgb(153,204,255);" />
<text x="2184.6" y="1039.7" font-size="65.0px" font-family="CMUBright-Roman" style="text-anchor:start;fill:rgb(0,0,0);" transform="rotate(324.5,2184.6,1039.7)" >24-PP</text>
<path d="M2023.827,1082.262 A670.000,670.000 40.000 0,1 2064.940,1139.802 L2132.396,1096.793 A750.000,750.000 0.000 0,0 2086.374,1032.383 Z" style="stroke-width:2.0;stroke:rgb(115,115,115);stroke-linecap:round;fill:none;" />
<path d="M2089.999,1182.508 A670.000,670.000 40.000 0,1 2120.177,1246.465 L2194.228,1216.192 A750.000,750.000 0.000 0,0 2160.447,1144.599 Z" style="stroke-width:2.0;stroke:rgb(115,115,115);stroke-linecap:round;fill:rgb(153,204,255);" />
<text x="2256.2" y="1170.3" font-size="65.0px" font-family="CMUBright-Roman" style="text-anchor:start;fill:rgb(0,0,0);" transform="rotate(334.7,2256.2,1170.3)" >35-SG</text>
<path d="M2089.999,1182.508 A670.000,670.000 40.000 0,1 2120.177,1246.465 L2194.228,1216.192 A750.000,750.000 0.000 0,0 2160.447,1144.599 Z" style="stroke-width:2.0;stroke:rgb(115,115,115);stroke-linecap:round;fill:none;" />
<path d="M2137.208,1292.959 A670.000,670.000 40.000 0,1 2155.481,1361.276 L2233.748,1344.712 A750.000,750.000 0.000 0,0 2213.292,1268.237 Z" style="stroke-width:2.0;stroke:rgb(115,115,115);stroke-linecap:round;fill:rgb(116,196,118);" />
<text x="2303.0" y="1310.6" font-size="65.0px" font-family="CMUBright-Roman" style="text-anchor:start;fill:rgb(0,0,0);" transform="rotate(345.0,2303.0,1310.6)" >11-ITG</text>
<path d="M2137.208,1292.959 A670.000,670.000 40.000 0,1 2155.481,1361.276 L2233.748,1344.712 A750.000,750.000 0.000 0,0 2213.292,1268.237 Z" style="stroke-width:2.0;stroke:rgb(115,115,115);stroke-linecap:round;fill:none;" />
<path d="M2163.936,1410.064 A670.000,670.000 40.000 0,1 2169.718,1480.546 L2249.684,1478.223 A750.000,750.000 0.000 0,0 2243.212,1399.325 Z" style="stroke-width:2.0;stroke:rgb(115,115,115);stroke-linecap:round;fill:rgb(116,196,118);" />
<text x="2323.8" y="1456.0" font-size="65.0px" font-family="CMUBright-Roman" style="text-anchor:start;fill:rgb(0,0,0);" transform="rotate(355.3,2323.8,1456.0)" >14-LIX</text>
<path d="M2163.936,1410.064 A670.000,670.000 40.000 0,1 2169.718,1480.546 L2249.684,1478.223 A750.000,750.000 0.000 0,0 2243.212,1399.325 Z" style="stroke-width:2.0;stroke:rgb(115,115,115);stroke-linecap:round;fill:none;" />
<path d="M2169.325,1530.059 A670.000,670.000 40.000 0,1 2162.429,1600.441 L2241.524,1612.434 A750.000,750.000 0.000 0,0 2249.245,1533.649 Z" style="stroke-width:2.0;stroke:rgb(115,115,115);stroke-linecap:round;fill:rgb(116,196,118);" />
<text x="2318.3" y="1604.8" font-size="65.0px" font-family="CMUBright-Roman" style="text-anchor:start;fill:rgb(0,0,0);" transform="rotate(5.6,2318.3,1604.8)" >18-MTG</text>
<path d="M2169.325,1530.059 A670.000,670.000 40.000 0,1 2162.429,1600.441 L2241.524,1612.434 A750.000,750.000 0.000 0,0 2249.245,1533.649 Z" style="stroke-width:2.0;stroke:rgb(115,115,115);stroke-linecap:round;fill:none;" />
<path d="M2153.202,1649.089 A670.000,670.000 40.000 0,1 2133.849,1717.108 L2209.532,1743.032 A750.000,750.000 0.000 0,0 2231.196,1666.891 Z" style="stroke-width:2.0;stroke:rgb(115,115,115);stroke-linecap:round;fill:rgb(116,196,118);" />
<text x="2286.5" y="1749.2" font-size="65.0px" font-family="CMUBright-Roman" style="text-anchor:start;fill:rgb(0,0,0);" transform="rotate(15.9,2286.5,1749.2)" >27-RCI</text>
<path d="M2153.202,1649.089 A670.000,670.000 40.000 0,1 2133.849,1717.108 L2209.532,1743.032 A750.000,750.000 0.000 0,0 2231.196,1666.891 Z" style="stroke-width:2.0;stroke:rgb(115,115,115);stroke-linecap:round;fill:none;" />
<path d="M2116.084,1763.327 A670.000,670.000 40.000 0,1 2084.896,1826.797 L2154.734,1865.818 A750.000,750.000 0.000 0,0 2189.646,1794.769 Z" style="stroke-width:2.0;stroke:rgb(115,115,115);stroke-linecap:round;fill:rgb(116,196,118);" />
<text x="2229.3" y="1885.7" font-size="65.0px" font-family="CMUBright-Roman" style="text-anchor:start;fill:rgb(0,0,0);" transform="rotate(26.2,2229.3,1885.7)" >29-RCI</text>
<path d="M2116.084,1763.327 A670.000,670.000 40.000 0,1 2084.896,1826.797 L2154.734,1865.818 A750.000,750.000 0.000 0,0 2189.646,1794.769 Z" style="stroke-width:2.0;stroke:rgb(115,115,115);stroke-linecap:round;fill:none;" />
<path d="M2059.164,1869.101 A670.000,670.000 40.000 0,1 2017.145,1925.983 L2078.893,1976.846 A750.000,750.000 0.000 0,0 2125.930,1913.173 Z" style="stroke-width:2.0;stroke:rgb(115,115,115);stroke-linecap:round;fill:rgb(153,0,204);" />
<text x="2148.7" y="2009.7" font-size="65.0px" font-family="CMUBright-Roman" style="text-anchor:start;fill:rgb(0,0,0);" transform="rotate(36.5,2148.7,2009.7)" >1-AG</text>
<path d="M2059.164,1869.101 A670.000,670.000 40.000 0,1 2017.145,1925.983 L2078.893,1976.846 A750.000,750.000 0.000 0,0 2125.930,1913.173 Z" style="stroke-width:2.0;stroke:rgb(115,115,115);stroke-linecap:round;fill:none;" />
<path d="M1984.273,1963.012 A670.000,670.000 40.000 0,1 1932.772,2011.477 L1984.446,2072.549 A750.000,750.000 0.000 0,0 2042.096,2018.297 Z" style="stroke-width:2.0;stroke:rgb(115,115,115);stroke-linecap:round;fill:rgb(153,0,204);" />
<text x="2047.7" y="2117.0" font-size="65.0px" font-family="CMUBright-Roman" style="text-anchor:start;fill:rgb(0,0,0);" transform="rotate(46.7,2047.7,2117.0)" >9-IPL</text>
<path d="M1984.273,1963.012 A670.000,670.000 40.000 0,1 1932.772,2011.477 L1984.446,2072.549 A750.000,750.000 0.000 0,0 2042.096,2018.297 Z" style="stroke-width:2.0;stroke:rgb(115,115,115);stroke-linecap:round;fill:none;" />
<path d="M1893.816,2042.041 A670.000,670.000 40.000 0,1 1834.489,2080.532 L1874.428,2149.849 A750.000,750.000 0.000 0,0 1940.839,2106.763 Z" style="stroke-width:2.0;stroke:rgb(115,115,115);stroke-linecap:round;fill:rgb(153,0,204);" />
<text x="1928.3" y="2205.1" font-size="65.0px" font-family="CMUBright-Roman" style="text-anchor:start;fill:rgb(0,0,0);" transform="rotate(57.0,1928.3,2205.1)" >12-LOC</text>
<path d="M1893.816,2042.041 A670.000,670.000 40.000 0,1 1834.489,2080.532 L1874.428,2149.849 A750.000,750.000 0.000 0,0 1940.839,2106.763 Z" style="stroke-width:2.0;stroke:rgb(115,115,115);stroke-linecap:round;fill:none;" />
<path d="M1790.702,2103.649 A670.000,670.000 40.000 0,1 1725.456,2130.928 L1752.376,2206.262 A750.000,750.000 0.000 0,0 1825.413,2175.727 Z" style="stroke-width:2.0;stroke:rgb(115,115,115);stroke-linecap:round;fill:rgb(153,0,204);" />
<text x="1795.5" y="2270.3" font-size="65.0px" font-family="CMUBright-Roman" style="text-anchor:start;fill:rgb(0,0,0);" transform="rotate(67.3,1795.5,2270.3)" >17-MFG</text>
<path d="M1790.702,2103.649 A670.000,670.000 40.000 0,1 1725.456,2130.928 L1752.376,2206.262 A750.000,750.000 0.000 0,0 1825.413,2175.727 Z" style="stroke-width:2.0;stroke:rgb(115,115,115);stroke-linecap:round;fill:none;" />
<path d="M1678.245,2145.855 A670.000,670.000 40.000 0,1 1609.176,2161.045 L1622.212,2239.976 A750.000,750.000 0.000 0,0 1699.528,2222.972 Z" style="stroke-width:2.0;stroke:rgb(115,115,115);stroke-linecap:round;fill:rgb(153,0,204);" />
<text x="1653.2" y="2310.7" font-size="65.0px" font-family="CMUBright-Roman" style="text-anchor:start;fill:rgb(0,0,0);" transform="rotate(77.6,1653.2,2310.7)" >34-SG</text>
<path d="M1678.245,2145.855 A670.000,670.000 40.000 0,1 1609.176,2161.045 L1622.212,2239.976 A750.000,750.000 0.000 0,0 1699.528,2222.972 Z" style="stroke-width:2.0;stroke:rgb(115,115,115);stroke-linecap:round;fill:none;" />
<path d="M1560.058,2167.303 A670.000,670.000 40.000 0,1 1489.388,2169.916 L1488.121,2249.906 A750.000,750.000 0.000 0,0 1567.229,2246.981 Z" style="stroke-width:2.0;stroke:rgb(115,115,115);stroke-linecap:round;fill:rgb(253,208,162);" />
<text x="1506.0" y="2325.0" font-size="65.0px" font-family="CMUBright-Roman" style="text-anchor:start;fill:rgb(0,0,0);" transform="rotate(87.9,1506.0,2325.0)" >16-LG</text>
<path d="M1560.058,2167.303 A670.000,670.000 40.000 0,1 1489.388,2169.916 L1488.121,2249.906 A750.000,750.000 0.000 0,0 1567.229,2246.981 Z" style="stroke-width:2.0;stroke:rgb(115,115,115);stroke-linecap:round;fill:none;" />
<path d="M1439.942,2167.303 A670.000,670.000 40.000 0,1 1369.940,2157.255 L1354.411,2235.733 A750.000,750.000 0.000 0,0 1432.771,2246.981 Z" style="stroke-width:2.0;stroke:rgb(115,115,115);stroke-linecap:round;fill:rgb(253,208,162);" />
<text x="1407.1" y="2319.8" font-size="65.0px" font-family="CMUBright-Roman" style="text-anchor:end;fill:rgb(0,0,0);" transform="rotate(-81.8,1407.1,2319.8)" >20-OFG</text>
<path d="M1439.942,2167.303 A670.000,670.000 40.000 0,1 1369.940,2157.255 L1354.411,2235.733 A750.000,750.000 0.000 0,0 1432.771,2246.981 Z" style="stroke-width:2.0;stroke:rgb(115,115,115);stroke-linecap:round;fill:none;" />
<path d="M1321.755,2145.855 A670.000,670.000 40.000 0,1 1254.673,2123.470 L1225.380,2197.914 A750.000,750.000 0.000 0,0 1300.472,2222.972 Z" style="stroke-width:2.0;stroke:rgb(115,115,115);stroke-linecap:round;fill:rgb(253,208,162);" />
<text x="1262.2" y="2290.0" font-size="65.0px" font-family="CMUBright-Roman" style="text-anchor:end;fill:rgb(0,0,0);" transform="rotate(-71.5,1262.2,2290.0)" >21-OP</text>
<path d="M1321.755,2145.855 A670.000,670.000 40.000 0,1 1254.673,2123.470 L1225.380,2197.914 A750.000,750.000 0.000 0,0 1300.472,2222.972 Z" style="stroke-width:2.0;stroke:rgb(115,115,115);stroke-linecap:round;fill:none;" />
<path d="M1209.298,2103.649 A670.000,670.000 40.000 0,1 1147.290,2069.645 L1105.176,2137.663 A750.000,750.000 0.000 0,0 1174.587,2175.727 Z" style="stroke-width:2.0;stroke:rgb(115,115,115);stroke-linecap:round;fill:rgb(253,208,162);" />
<text x="1125.0" y="2234.8" font-size="65.0px" font-family="CMUBright-Roman" style="text-anchor:end;fill:rgb(0,0,0);" transform="rotate(-61.3,1125.0,2234.8)" >25-PosG</text>
<path d="M1209.298,2103.649 A670.000,670.000 40.000 0,1 1147.290,2069.645 L1105.176,2137.663 A750.000,750.000 0.000 0,0 1174.587,2175.727 Z" style="stroke-width:2.0;stroke:rgb(115,115,115);stroke-linecap:round;fill:none;" />
<path d="M1106.184,2042.041 A670.000,670.000 40.000 0,1 1051.245,1997.512 L997.662,2056.917 A750.000,750.000 0.000 0,0 1059.161,2106.763 Z" style="stroke-width:2.0;stroke:rgb(115,115,115);stroke-linecap:round;fill:rgb(253,208,162);" />
<text x="999.8" y="2156.1" font-size="65.0px" font-family="CMUBright-Roman" style="text-anchor:end;fill:rgb(0,0,0);" transform="rotate(-51.0,999.8,2156.1)" >28-RCI</text>
<path d="M1106.184,2042.041 A670.000,670.000 40.000 0,1 1051.245,1997.512 L997.662,2056.917 A750.000,750.000 0.000 0,0 1059.161,2106.763 Z" style="stroke-width:2.0;stroke:rgb(115,115,115);stroke-linecap:round;fill:none;" />
<path d="M1015.727,1963.012 A670.000,670.000 40.000 0,1 969.622,1909.389 L906.293,1958.271 A750.000,750.000 0.000 0,0 957.904,2018.297 Z" style="stroke-width:2.0;stroke:rgb(115,115,115);stroke-linecap:round;fill:rgb(253,141,60);" />
<text x="890.7" y="2056.2" font-size="65.0px" font-family="CMUBright-Roman" style="text-anchor:end;fill:rgb(0,0,0);" transform="rotate(-40.7,890.7,2056.2)" >2-COC</text>
<path d="M1015.727,1963.012 A670.000,670.000 40.000 0,1 969.622,1909.389 L906.293,1958.271 A750.000,750.000 0.000 0,0 957.904,2018.297 Z" style="stroke-width:2.0;stroke:rgb(115,115,115);stroke-linecap:round;fill:none;" />
<path d="M940.836,1869.101 A670.000,670.000 40.000 0,1 905.046,1808.107 L834.007,1844.896 A750.000,750.000 0.000 0,0 874.070,1913.173 Z" style="stroke-width:2.0;stroke:rgb(115,115,115);stroke-linecap:round;fill:rgb(253,141,60);" />
<text x="801.2" y="1938.5" font-size="65.0px" font-family="CMUBright-Roman" style="text-anchor:end;fill:rgb(0,0,0);" transform="rotate(-30.4,801.2,1938.5)" >3-COC</text>
<path d="M940.836,1869.101 A670.000,670.000 40.000 0,1 905.046,1808.107 L834.007,1844.896 A750.000,750.000 0.000 0,0 874.070,1913.173 Z" style="stroke-width:2.0;stroke:rgb(115,115,115);stroke-linecap:round;fill:none;" />
<path d="M883.916,1763.327 A670.000,670.000 40.000 0,1 859.593,1696.922 L783.126,1720.436 A750.000,750.000 0.000 0,0 810.354,1794.769 Z" style="stroke-width:2.0;stroke:rgb(115,115,115);stroke-linecap:round;fill:rgb(253,141,60);" />
<text x="733.9" y="1806.2" font-size="65.0px" font-family="CMUBright-Roman" style="text-anchor:end;fill:rgb(0,0,0);" transform="rotate(-20.1,733.9,1806.2)" >15-LVIIIb</text>
<path d="M883.916,1763.327 A670.000,670.000 40.000 0,1 859.593,1696.922 L783.126,1720.436 A750.000,750.000 0.000 0,0 810.354,1794.769 Z" style="stroke-width:2.0;stroke:rgb(115,115,115);stroke-linecap:round;fill:none;" />
<path d="M846.798,1649.089 A670.000,670.000 40.000 0,1 834.722,1579.409 L755.286,1588.890 A750.000,750.000 0.000 0,0 768.804,1666.891 Z" style="stroke-width:2.0;stroke:rgb(115,115,115);stroke-linecap:round;fill:rgb(253,141,60);" />
<text x="691.6" y="1664.5" font-size="65.0px" font-family="CMUBright-Roman" style="text-anchor:end;fill:rgb(0,0,0);" transform="rotate(-9.8,691.6,1664.5)" >30-RH</text>
<path d="M846.798,1649.089 A670.000,670.000 40.000 0,1 834.722,1579.409 L755.286,1588.890 A750.000,750.000 0.000 0,0 768.804,1666.891 Z" style="stroke-width:2.0;stroke:rgb(115,115,115);stroke-linecap:round;fill:none;" />
<path d="M830.675,1530.059 A670.000,670.000 40.000 0,1 831.235,1459.343 L751.382,1454.488 A750.000,750.000 0.000 0,0 750.755,1533.649 Z" style="stroke-width:2.0;stroke:rgb(115,115,115);stroke-linecap:round;fill:rgb(253,141,60);" />
<text x="675.2" y="1517.5" font-size="65.0px" font-family="CMUBright-Roman" style="text-anchor:end;fill:rgb(0,0,0);" transform="rotate(0.5,675.2,1517.5)" >31-RLV</text>
<path d="M830.675,1530.059 A670.000,670.000 40.000 0,1 831.235,1459.343 L751.382,1454.488 A750.000,750.000 0.000 0,0 750.755,1533.649 Z" style="stroke-width:2.0;stroke:rgb(115,115,115);stroke-linecap:round;fill:none;" />
<path d="M836.064,1410.064 A670.000,670.000 40.000 0,1 849.242,1340.583 L771.539,1321.549 A750.000,750.000 0.000 0,0 756.788,1399.325 Z" style="stroke-width:2.0;stroke:rgb(115,115,115);stroke-linecap:round;fill:rgb(253,141,60);" />
<text x="685.3" y="1369.9" font-size="65.0px" font-family="CMUBright-Roman" style="text-anchor:end;fill:rgb(0,0,0);" transform="rotate(10.7,685.3,1369.9)" >32-RLV</text>
<path d="M836.064,1410.064 A670.000,670.000 40.000 0,1 849.242,1340.583 L771.539,1321.549 A750.000,750.000 0.000 0,0 756.788,1399.325 Z" style="stroke-width:2.0;stroke:rgb(115,115,115);stroke-linecap:round;fill:none;" />
<path d="M862.792,1292.959 A670.000,670.000 40.000 0,1 888.165,1226.948 L815.110,1194.345 A750.000,750.000 0.000 0,0 786.708,1268.237 Z" style="stroke-width:2.0;stroke:rgb(115,115,115);stroke-linecap:round;fill:rgb(253,141,60);" />
<text x="721.5" y="1227.0" font-size="65.0px" font-family="CMUBright-Roman" style="text-anchor:end;fill:rgb(0,0,0);" transform="rotate(21.0,721.5,1227.0)" >33-SC</text>
<path d="M862.792,1292.959 A670.000,670.000 40.000 0,1 888.165,1226.948 L815.110,1194.345 A750.000,750.000 0.000 0,0 786.708,1268.237 Z" style="stroke-width:2.0;stroke:rgb(115,115,115);stroke-linecap:round;fill:none;" />
<path d="M910.001,1182.508 A670.000,670.000 40.000 0,1 946.752,1122.089 L880.693,1076.965 A750.000,750.000 0.000 0,0 839.553,1144.599 Z" style="stroke-width:2.0;stroke:rgb(115,115,115);stroke-linecap:round;fill:rgb(66,146,198);" />
<text x="782.7" y="1092.4" font-size="65.0px" font-family="CMUBright-Roman" style="text-anchor:end;fill:rgb(0,0,0);" transform="rotate(31.3,782.7,1092.4)" >4-FOC</text>
<path d="M910.001,1182.508 A670.000,670.000 40.000 0,1 946.752,1122.089 L880.693,1076.965 A750.000,750.000 0.000 0,0 839.553,1144.599 Z" style="stroke-width:2.0;stroke:rgb(115,115,115);stroke-linecap:round;fill:none;" />
<path d="M976.173,1082.262 A670.000,670.000 40.000 0,1 1023.122,1029.376 L966.181,973.182 A750.000,750.000 0.000 0,0 913.626,1032.383 Z" style="stroke-width:2.0;stroke:rgb(115,115,115);stroke-linecap:round;fill:rgb(66,146,198);" />
<text x="867.0" y="970.9" font-size="65.0px" font-family="CMUBright-Roman" style="text-anchor:end;fill:rgb(0,0,0);" transform="rotate(41.6,867.0,970.9)" >6-IFG</text>
<path d="M976.173,1082.262 A670.000,670.000 40.000 0,1 1023.122,1029.376 L966.181,973.182 A750.000,750.000 0.000 0,0 913.626,1032.383 Z" style="stroke-width:2.0;stroke:rgb(115,115,115);stroke-linecap:round;fill:none;" />
<path d="M1059.181,995.442 A670.000,670.000 40.000 0,1 1114.819,951.789 L1068.827,886.331 A750.000,750.000 0.000 0,0 1006.546,935.196 Z" style="stroke-width:2.0;stroke:rgb(115,115,115);stroke-linecap:round;fill:rgb(66,146,198);" />
<text x="971.7" y="866.3" font-size="65.0px" font-family="CMUBright-Roman" style="text-anchor:end;fill:rgb(0,0,0);" transform="rotate(51.9,971.7,866.3)" >7-IFG</text>
<path d="M1059.181,995.442 A670.000,670.000 40.000 0,1 1114.819,951.789 L1068.827,886.331 A750.000,750.000 0.000 0,0 1006.546,935.196 Z" style="stroke-width:2.0;stroke:rgb(115,115,115);stroke-linecap:round;fill:none;" />
<path d="M1156.357,924.839 A670.000,670.000 40.000 0,1 1218.896,891.822 L1185.331,819.204 A750.000,750.000 0.000 0,0 1115.326,856.163 Z" style="stroke-width:2.0;stroke:rgb(115,115,115);stroke-linecap:round;fill:rgb(66,146,198);" />
<text x="1093.3" y="782.2" font-size="65.0px" font-family="CMUBright-Roman" style="text-anchor:end;fill:rgb(0,0,0);" transform="rotate(62.2,1093.3,782.2)" >22-ParG</text>
<path d="M1156.357,924.839 A670.000,670.000 40.000 0,1 1218.896,891.822 L1185.331,819.204 A750.000,750.000 0.000 0,0 1115.326,856.163 Z" style="stroke-width:2.0;stroke:rgb(115,115,115);stroke-linecap:round;fill:none;" />
<path d="M1264.579,872.723 A670.000,670.000 40.000 0,1 1332.008,851.403 L1311.949,773.958 A750.000,750.000 0.000 0,0 1236.469,797.824 Z" style="stroke-width:2.0;stroke:rgb(115,115,115);stroke-linecap:round;fill:rgb(66,146,198);" />
<text x="1228.5" y="721.0" font-size="65.0px" font-family="CMUBright-Roman" style="text-anchor:end;fill:rgb(0,0,0);" transform="rotate(72.5,1228.5,721.0)" >23-PP</text>
<path d="M1264.579,872.723 A670.000,670.000 40.000 0,1 1332.008,851.403 L1311.949,773.958 A750.000,750.000 0.000 0,0 1236.469,797.824 Z" style="stroke-width:2.0;stroke:rgb(115,115,115);stroke-linecap:round;fill:none;" />
<path d="M1380.367,840.767 A670.000,670.000 40.000 0,1 1450.519,831.830 L1444.611,752.048 A750.000,750.000 0.000 0,0 1366.082,762.053 Z" style="stroke-width:2.0;stroke:rgb(115,115,115);stroke-linecap:round;fill:rgb(66,146,198);" />
<text x="1371.5" y="685.1" font-size="65.0px" font-family="CMUBright-Roman" style="text-anchor:end;fill:rgb(0,0,0);" transform="rotate(82.7,1371.5,685.1)" >26-PC</text>
<path d="M1380.367,840.767 A670.000,670.000 40.000 0,1 1450.519,831.830 L1444.611,752.048 A750.000,750.000 0.000 0,0 1366.082,762.053 Z" style="stroke-width:2.0;stroke:rgb(115,115,115);stroke-linecap:round;fill:none;" />
</g>
<g id="track_1">
<path d="M 2012.0,1878.2 L 1989.9,1861.5 1968.0,1844.1 1946.5,1826.1 1925.3,1807.5 1904.6,1788.2 1884.5,1768.3 1864.9,1747.8 1846.1,1726.7 1828.0,1705.0 1810.7,1682.8 1794.2,1660.0 1778.7,1636.7 1764.1,1613.0 1750.5,1588.7 1737.9,1564.0 1726.4,1538.9 1715.9,1513.3 1706.6,1487.4 1698.3,1461.2 1691.2,1434.6 1685.3,1407.8 1680.4,1380.6 1676.7,1353.3 1674.2,1325.8 1672.8,1298.1 1672.4,1270.3 1673.2,1242.4 1675.1,1214.5 1677.9,1186.5 1681.8,1158.6 1686.7,1130.8 1692.5,1103.1 1699.2,1075.6 1706.7,1048.3 1715.0,1021.3 1724.0,994.5 1733.7,968.2 1744.0,942.2 1754.8,916.7  " style="stroke-opacity: 1.000000; stroke-width: 5.0; stroke: rgb(251,106,74); fill: none"  />
<path d="M 2012.0,1878.2 L 1991.5,1862.7 1971.3,1846.7 1951.7,1830.3 1932.6,1813.4 1914.3,1796.2 1896.8,1778.7 1880.3,1760.8 1864.8,1742.7 1850.4,1724.4 1837.3,1705.9 1825.5,1687.3 1815.0,1668.6 1805.9,1649.7 1798.3,1630.9 1792.1,1612.0 1787.6,1593.2 1784.6,1574.4 1783.2,1555.7 1783.4,1537.1 1785.2,1518.6 1788.6,1500.4 1793.6,1482.3 1800.2,1464.4 1808.3,1446.8 1818.0,1429.5 1829.1,1412.5 1841.7,1395.8 1855.6,1379.4 1870.9,1363.5 1887.3,1347.9 1905.0,1332.7 1923.7,1318.0 1943.4,1303.7 1963.9,1289.8 1985.2,1276.5 2007.2,1263.7 2029.7,1251.4 2052.5,1239.6 2075.6,1228.4  " style="stroke-opacity: 1.000000; stroke-width: 5.0; stroke: rgb(251,106,74); fill: none"  />
<path d="M 1107.1,999.2 L 1127.1,1024.6 1147.1,1050.0 1167.2,1075.4 1187.4,1100.8 1207.7,1126.2 1228.0,1151.6 1248.5,1176.9 1269.0,1202.3 1289.6,1227.6 1310.2,1252.9 1331.0,1278.1 1351.8,1303.4 1372.7,1328.5 1393.6,1353.7 1414.7,1378.8 1435.8,1403.9 1457.0,1428.9 1478.2,1453.9 1499.5,1478.8 1520.9,1503.6 1542.3,1528.5 1563.9,1553.2 1585.4,1577.9 1607.0,1602.5 1628.7,1627.1 1650.4,1651.6 1672.2,1676.0 1694.0,1700.4 1715.9,1724.7 1737.8,1748.9 1759.7,1773.0 1781.7,1797.1 1803.7,1821.1 1825.7,1845.0 1847.8,1868.9 1869.9,1892.7 1892.0,1916.4 1914.1,1940.0 1936.2,1963.5  " style="stroke-opacity: 1.000000; stroke-width: 5.0; stroke: rgb(251,106,74); fill: none"  />
<path d="M 1107.1,999.2 L 1127.0,1024.7 1146.9,1050.2 1166.8,1075.8 1186.7,1101.4 1206.5,1127.1 1226.3,1153.0 1246.1,1178.8 1265.8,1204.8 1285.5,1230.8 1305.1,1256.9 1324.7,1283.0 1344.3,1309.3 1363.8,1335.5 1383.2,1361.9 1402.6,1388.3 1421.9,1414.8 1441.2,1441.3 1460.4,1467.9 1479.5,1494.5 1498.6,1521.2 1517.6,1547.9 1536.5,1574.7 1555.3,1601.5 1574.1,1628.4 1592.8,1655.2 1611.4,1682.2 1630.0,1709.1 1648.5,1736.1 1666.8,1763.1 1685.2,1790.2 1703.4,1817.2 1721.6,1844.3 1739.6,1871.4 1757.6,1898.5 1775.5,1925.6 1793.4,1952.7 1811.1,1979.8 1828.8,2006.9 1846.4,2034.0  " style="stroke-opacity: 1.000000; stroke-width: 5.0; stroke: rgb(251,106,74); fill: none"  />
<path d="M 1936.2,1963.5 L 1914.1,1940.0 1892.0,1916.4 1869.9,1892.7 1847.8,1868.9 1825.7,1845.0 1803.7,1821.1 1781.7,1797.1 1759.7,1773.0 1737.8,1748.9 1715.9,1724.7 1694.0,1700.4 1672.2,1676.0 1650.4,1651.6 1628.7,1627.1 1607.0,1602.5 1585.4,1577.9 1563.9,1553.2 1542.3,1528.5 1520.9,1503.6 1499.5,1478.8 1478.2,1453.9 1457.0,1428.9 1435.8,1403.9 1414.7,1378.8 1393.6,1353.7 1372.7,1328.5 1351.8,1303.4 1331.0,1278.1 1310.2,1252.9 1289.6,1227.6 1269.0,1202.3 1248.5,1176.9 1228.0,1151.6 1207.7,1126.2 1187.4,1100.8 1167.2,1075.4 1147.1,1050.0 1127.1,1024.6 1107.1,999.2  " style="stroke-opacity: 1.000000; stroke-width: 5.0; stroke: rgb(251,106,74); fill: none"  />
<path d="M 1936.2,1963.5 L 1919.2,1945.2 1902.6,1926.6 1886.6,1907.8 1871.1,1889.0 1856.5,1870.2 1842.7,1851.4 1829.9,1832.9 1818.2,1814.5 1807.7,1796.5 1798.4,1778.8 1790.4,1761.6 1783.7,1744.8 1778.5,1728.6 1774.8,1712.9 1772.6,1697.8 1771.9,1683.4 1772.8,1669.7 1775.3,1656.7 1779.4,1644.4 1785.0,1632.9 1792.2,1622.2 1801.0,1612.3 1811.3,1603.2 1823.2,1594.9 1836.4,1587.5 1851.1,1580.8 1867.2,1575.0 1884.5,1570.0 1903.0,1565.8 1922.7,1562.4 1943.4,1559.7 1965.1,1557.8 1987.6,1556.6 2010.8,1556.0 2034.7,1556.1 2059.0,1556.8 2083.7,1558.1 2108.6,1559.8 2133.5,1562.1  " style="stroke-opacity: 1.000000; stroke-width: 5.0; stroke: rgb(251,106,74); fill: none"  />
<path d="M 1936.2,1963.5 L 1919.4,1945.4 1902.8,1927.1 1886.8,1908.7 1871.4,1890.4 1856.7,1872.3 1842.9,1854.4 1830.0,1836.8 1818.1,1819.5 1807.3,1802.8 1797.8,1786.6 1789.5,1770.9 1782.6,1755.9 1777.0,1741.6 1772.9,1728.1 1770.2,1715.3 1769.1,1703.4 1769.5,1692.4 1771.5,1682.2 1775.0,1672.9 1780.0,1664.6 1786.6,1657.3 1794.8,1650.9 1804.4,1645.4 1815.5,1640.9 1828.0,1637.4 1841.9,1634.9 1857.2,1633.2 1873.7,1632.5 1891.4,1632.6 1910.2,1633.7 1930.0,1635.5 1950.8,1638.1 1972.4,1641.5 1994.6,1645.6 2017.5,1650.3 2040.8,1655.5 2064.5,1661.3 2088.3,1667.6 2112.2,1674.2  " style="stroke-opacity: 1.000000; stroke-width: 5.0; stroke: rgb(251,106,74); fill: none"  />
<path d="M 1754.8,916.7 L 1744.0,942.2 1733.7,968.2 1724.0,994.5 1715.0,1021.3 1706.7,1048.3 1699.2,1075.6 1692.5,1103.1 1686.7,1130.8 1681.8,1158.6 1677.9,1186.5 1675.1,1214.5 1673.2,1242.4 1672.4,1270.3 1672.8,1298.1 1674.2,1325.8 1676.7,1353.3 1680.4,1380.6 1685.3,1407.8 1691.2,1434.6 1698.3,1461.2 1706.6,1487.4 1715.9,1513.3 1726.4,1538.9 1737.9,1564.0 1750.5,1588.7 1764.1,1613.0 1778.7,1636.7 1794.2,1660.0 1810.7,1682.8 1828.0,1705.0 1846.1,1726.7 1864.9,1747.8 1884.5,1768.3 1904.6,1788.2 1925.3,1807.5 1946.5,1826.1 1968.0,1844.1 1989.9,1861.5 2012.0,1878.2  " style="stroke-opacity: 1.000000; stroke-width: 5.0; stroke: rgb(251,106,74); fill: none"  />
<path d="M 1754.8,916.7 L 1742.9,944.5 1731.2,972.7 1719.8,1001.2 1708.8,1030.1 1698.1,1059.3 1687.7,1088.8 1677.8,1118.7 1668.3,1148.7 1659.3,1179.1 1650.7,1209.7 1642.6,1240.5 1635.1,1271.6 1628.0,1302.8 1621.5,1334.2 1615.5,1365.8 1610.1,1397.5 1605.2,1429.4 1600.9,1461.3 1597.2,1493.3 1594.0,1525.4 1591.5,1557.5 1589.5,1589.7 1588.1,1621.9 1587.3,1654.0 1587.0,1686.2 1587.3,1718.3 1588.2,1750.3 1589.6,1782.2 1591.5,1814.0 1594.0,1845.7 1596.9,1877.2 1600.4,1908.6 1604.3,1939.8 1608.7,1970.8 1613.6,2001.5 1618.8,2032.0 1624.4,2062.2 1630.4,2092.1 1636.7,2121.6  " style="stroke-opacity: 1.000000; stroke-width: 5.0; stroke: rgb(251,106,74); fill: none"  />
<path d="M 1846.4,2034.0 L 1828.8,2006.9 1811.1,1979.8 1793.4,1952.7 1775.5,1925.6 1757.6,1898.5 1739.6,1871.4 1721.6,1844.3 1703.4,1817.2 1685.2,1790.2 1666.8,1763.1 1648.5,1736.1 1630.0,1709.1 1611.4,1682.2 1592.8,1655.2 1574.1,1628.4 1555.3,1601.5 1536.5,1574.7 1517.6,1547.9 1498.6,1521.2 1479.5,1494.5 1460.4,1467.9 1441.2,1441.3 1421.9,1414.8 1402.6,1388.3 1383.2,1361.9 1363.8,1335.5 1344.3,1309.3 1324.7,1283.0 1305.1,1256.9 1285.5,1230.8 1265.8,1204.8 1246.1,1178.8 1226.3,1153.0 1206.5,1127.1 1186.7,1101.4 1166.8,1075.8 1146.9,1050.2 1127.0,1024.7 1107.1,999.2  " style="stroke-opacity: 1.000000; stroke-width: 5.0; stroke: rgb(251,106,74); fill: none"  />
<path d="M 1846.4,2034.0 L 1832.8,2013.3 1819.0,1992.9 1805.0,1973.0 1790.9,1953.6 1776.7,1935.1 1762.6,1917.3 1748.6,1900.6 1734.7,1885.0 1721.0,1870.5 1707.5,1857.4 1694.3,1845.6 1681.3,1835.3 1668.8,1826.5 1656.6,1819.3 1644.9,1813.7 1633.5,1809.8 1622.7,1807.5 1612.4,1807.0 1602.6,1808.2 1593.3,1811.2 1584.6,1815.8 1576.4,1822.2 1568.8,1830.2 1561.8,1840.0 1555.4,1851.3 1549.6,1864.2 1544.4,1878.6 1539.8,1894.5 1535.7,1911.7 1532.2,1930.2 1529.3,1949.9 1526.9,1970.7 1525.0,1992.5 1523.7,2015.1 1522.8,2038.4 1522.4,2062.3 1522.4,2086.7 1522.8,2111.3 1523.5,2136.1  " style="stroke-opacity: 1.000000; stroke-width: 5.0; stroke: rgb(251,106,74); fill: none"  />
<path d="M 1846.4,2034.0 L 1832.6,2013.1 1818.5,1992.6 1804.1,1972.5 1789.5,1953.0 1774.7,1934.3 1759.8,1916.5 1744.8,1899.7 1729.8,1883.9 1714.8,1869.4 1699.8,1856.1 1685.0,1844.3 1670.3,1833.8 1655.7,1824.9 1641.4,1817.6 1627.3,1811.8 1613.4,1807.8 1599.9,1805.4 1586.7,1804.7 1573.8,1805.7 1561.3,1808.5 1549.2,1812.9 1537.4,1819.1 1526.2,1827.0 1515.3,1836.5 1504.9,1847.6 1495.0,1860.3 1485.5,1874.5 1476.5,1890.1 1468.0,1907.1 1460.0,1925.4 1452.5,1944.9 1445.5,1965.5 1438.9,1987.1 1432.9,2009.5 1427.3,2032.7 1422.2,2056.5 1417.5,2080.7 1413.3,2105.3 1409.6,2130.0  " style="stroke-opacity: 1.000000; stroke-width: 5.0; stroke: rgb(251,106,74); fill: none"  />
<path d="M 1846.4,2034.0 L 1832.4,2012.9 1818.0,1992.1 1803.2,1971.8 1788.1,1952.1 1772.6,1933.1 1756.9,1915.0 1741.0,1897.9 1724.9,1881.9 1708.6,1867.0 1692.3,1853.4 1675.9,1841.1 1659.4,1830.2 1643.0,1820.8 1626.5,1813.0 1610.2,1806.7 1593.9,1802.0 1577.7,1799.0 1561.7,1797.6 1545.9,1797.9 1530.3,1799.9 1514.9,1803.6 1499.7,1808.9 1484.8,1815.9 1470.2,1824.5 1456.0,1834.7 1442.0,1846.4 1428.5,1859.6 1415.3,1874.3 1402.4,1890.3 1390.0,1907.6 1378.0,1926.1 1366.5,1945.6 1355.4,1966.2 1344.7,1987.7 1334.5,2009.9 1324.8,2032.7 1315.5,2056.1 1306.8,2079.8 1298.5,2103.8  " style="stroke-opacity: 1.000000; stroke-width: 5.0; stroke: rgb(251,106,74); fill: none"  />
<path d="M 1846.4,2034.0 L 1832.2,2012.6 1817.5,1991.5 1802.3,1970.9 1786.6,1950.8 1770.5,1931.5 1754.1,1913.0 1737.3,1895.4 1720.2,1878.9 1702.7,1863.4 1685.1,1849.2 1667.2,1836.2 1649.1,1824.6 1630.9,1814.4 1612.5,1805.6 1594.1,1798.4 1575.5,1792.7 1557.0,1788.6 1538.4,1786.0 1519.8,1785.1 1501.3,1785.8 1482.8,1788.1 1464.5,1792.0 1446.3,1797.5 1428.2,1804.5 1410.3,1813.1 1392.7,1823.2 1375.2,1834.7 1358.1,1847.6 1341.2,1861.9 1324.6,1877.4 1308.4,1894.1 1292.6,1911.9 1277.1,1930.6 1262.1,1950.3 1247.5,1970.8 1233.3,1991.9 1219.7,2013.6 1206.6,2035.7 1194.0,2058.1  " style="stroke-opacity: 1.000000; stroke-width: 5.0; stroke: rgb(251,106,74); fill: none"  />
<path d="M 1846.4,2034.0 L 1832.0,2012.2 1816.9,1990.8 1801.3,1969.8 1785.1,1949.3 1768.5,1929.5 1751.3,1910.4 1733.7,1892.2 1715.7,1875.0 1697.3,1858.8 1678.4,1843.7 1659.3,1829.8 1639.7,1817.2 1619.9,1805.8 1599.9,1795.9 1579.6,1787.3 1559.0,1780.2 1538.3,1774.6 1517.4,1770.4 1496.4,1767.8 1475.3,1766.7 1454.2,1767.1 1433.0,1769.0 1411.8,1772.4 1390.6,1777.3 1369.5,1783.7 1348.5,1791.5 1327.6,1800.7 1306.9,1811.2 1286.3,1823.0 1266.0,1836.0 1246.0,1850.1 1226.2,1865.4 1206.8,1881.6 1187.7,1898.8 1169.1,1916.7 1150.9,1935.4 1133.1,1954.6 1115.9,1974.4 1099.2,1994.5  " style="stroke-opacity: 1.000000; stroke-width: 5.0; stroke: rgb(251,106,74); fill: none"  />
<path d="M 1854.8,971.6 L 1836.8,998.4 1818.7,1025.2 1800.5,1052.0 1782.2,1078.8 1763.9,1105.6 1745.5,1132.4 1727.0,1159.2 1708.4,1186.0 1689.7,1212.8 1671.0,1239.5 1652.2,1266.3 1633.3,1293.0 1614.3,1319.6 1595.3,1346.2 1576.1,1372.8 1556.9,1399.4 1537.7,1425.9 1518.3,1452.4 1498.9,1478.8 1479.4,1505.2 1459.9,1531.5 1440.3,1557.8 1420.6,1584.0 1400.8,1610.1 1381.0,1636.2 1361.2,1662.3 1341.3,1688.2 1321.3,1714.2 1301.3,1740.0 1281.2,1765.8 1261.1,1791.5 1241.0,1817.1 1220.8,1842.7 1200.6,1868.2 1180.4,1893.6 1160.1,1918.9 1139.8,1944.2 1119.5,1969.4 1099.2,1994.5  " style="stroke-opacity: 1.000000; stroke-width: 5.0; stroke: rgb(251,106,74); fill: none"  />
<path d="M 1523.5,2136.1 L 1522.8,2111.3 1522.4,2086.7 1522.4,2062.3 1522.8,2038.4 1523.7,2015.1 1525.0,1992.5 1526.9,1970.7 1529.3,1949.9 1532.2,1930.2 1535.7,1911.7 1539.8,1894.5 1544.4,1878.6 1549.6,1864.2 1555.4,1851.3 1561.8,1840.0 1568.8,1830.2 1576.4,1822.2 1584.6,1815.8 1593.3,1811.2 1602.6,1808.2 1612.4,1807.0 1622.7,1807.5 1633.5,1809.8 1644.9,1813.7 1656.6,1819.3 1668.8,1826.5 1681.3,1835.3 1694.3,1845.6 1707.5,1857.4 1721.0,1870.5 1734.7,1885.0 1748.6,1900.6 1762.6,1917.3 1776.7,1935.1 1790.9,1953.6 1805.0,1973.0 1819.0,1992.9 1832.8,2013.3 1846.4,2034.0  " style="stroke-opacity: 1.000000; stroke-width: 5.0; stroke: rgb(251,106,74); fill: none"  />
<path d="M 1523.5,2136.1 L 1522.7,2111.5 1522.2,2087.1 1521.9,2063.0 1521.9,2039.3 1522.3,2016.4 1523.0,1994.2 1524.0,1972.9 1525.4,1952.7 1527.2,1933.6 1529.4,1915.8 1532.1,1899.4 1535.1,1884.4 1538.5,1870.9 1542.4,1859.0 1546.7,1848.8 1551.5,1840.3 1556.6,1833.5 1562.2,1828.5 1568.2,1825.3 1574.6,1823.9 1581.4,1824.3 1588.5,1826.5 1596.0,1830.4 1603.9,1836.2 1612.1,1843.7 1620.6,1852.8 1629.4,1863.6 1638.5,1876.0 1647.7,1889.8 1657.2,1905.0 1666.8,1921.6 1676.6,1939.3 1686.5,1958.2 1696.4,1978.1 1706.4,1998.8 1716.3,2020.2 1726.2,2042.2 1735.9,2064.6 1745.5,2087.2  " style="stroke-opacity: 1.000000; stroke-width: 5.0; stroke: rgb(251,106,74); fill: none"  />
<path d="M 1523.5,2136.1 L 1522.7,2111.6 1522.0,2087.3 1521.4,2063.4 1521.0,2039.9 1520.7,2017.2 1520.7,1995.3 1520.9,1974.3 1521.2,1954.4 1521.8,1935.8 1522.6,1918.4 1523.7,1902.5 1525.0,1888.0 1526.5,1875.2 1528.3,1864.0 1530.3,1854.5 1532.6,1846.7 1535.1,1840.8 1537.9,1836.6 1540.9,1834.4 1544.2,1833.9 1547.7,1835.4 1551.4,1838.7 1555.4,1843.8 1559.5,1850.7 1563.9,1859.4 1568.4,1869.8 1573.1,1881.9 1578.0,1895.5 1583.0,1910.7 1588.1,1927.3 1593.4,1945.2 1598.7,1964.4 1604.1,1984.6 1609.6,2005.9 1615.1,2027.9 1620.6,2050.7 1626.0,2074.0 1631.4,2097.7 1636.7,2121.6  " style="stroke-opacity: 1.000000; stroke-width: 5.0; stroke: rgb(251,106,74); fill: none"  />
<path d="M 1745.5,2087.2 L 1735.9,2064.6 1726.2,2042.2 1716.3,2020.2 1706.4,1998.8 1696.4,1978.1 1686.5,1958.2 1676.6,1939.3 1666.8,1921.6 1657.2,1905.0 1647.7,1889.8 1638.5,1876.0 1629.4,1863.6 1620.6,1852.8 1612.1,1843.7 1603.9,1836.2 1596.0,1830.4 1588.5,1826.5 1581.4,1824.3 1574.6,1823.9 1568.2,1825.3 1562.2,1828.5 1556.6,1833.5 1551.5,1840.3 1546.7,1848.8 1542.4,1859.0 1538.5,1870.9 1535.1,1884.4 1532.1,1899.4 1529.4,1915.8 1527.2,1933.6 1525.4,1952.7 1524.0,1972.9 1523.0,1994.2 1522.3,2016.4 1521.9,2039.3 1521.9,2063.0 1522.2,2087.1 1522.7,2111.5 1523.5,2136.1  " style="stroke-opacity: 1.000000; stroke-width: 5.0; stroke: rgb(251,106,74); fill: none"  />
<path d="M 1745.5,2087.2 L 1735.9,2063.4 1726.8,2039.4 1718.3,2015.2 1710.6,1990.9 1703.7,1966.8 1697.7,1942.7 1692.7,1919.0 1688.7,1895.5 1685.7,1872.4 1683.9,1849.8 1683.3,1827.7 1683.9,1806.2 1685.8,1785.4 1688.9,1765.3 1693.3,1746.0 1699.1,1727.5 1706.2,1709.8 1714.5,1693.0 1724.2,1677.2 1735.3,1662.3 1747.6,1648.3 1761.1,1635.4 1775.9,1623.4 1792.0,1612.5 1809.1,1602.6 1827.4,1593.7 1846.8,1585.8 1867.1,1578.9 1888.4,1573.0 1910.5,1568.1 1933.5,1564.1 1957.1,1561.0 1981.3,1558.9 2006.0,1557.5 2031.2,1557.0 2056.6,1557.3 2082.2,1558.2 2107.9,1559.9 2133.5,1562.1  " style="stroke-opacity: 1.000000; stroke-width: 5.0; stroke: rgb(251,106,74); fill: none"  />
<path d="M 1745.5,2087.2 L 1735.8,2064.5 1725.8,2041.9 1715.6,2019.8 1705.2,1998.3 1694.6,1977.5 1683.9,1957.5 1673.1,1938.6 1662.2,1920.7 1651.3,1904.0 1640.3,1888.7 1629.4,1874.8 1618.6,1862.3 1607.8,1851.4 1597.1,1842.1 1586.5,1834.5 1576.1,1828.7 1565.8,1824.5 1555.7,1822.2 1545.9,1821.6 1536.2,1822.8 1526.8,1825.8 1517.6,1830.7 1508.8,1837.2 1500.1,1845.5 1491.8,1855.6 1483.8,1867.2 1476.1,1880.5 1468.7,1895.2 1461.6,1911.5 1454.9,1929.1 1448.5,1947.9 1442.4,1967.9 1436.7,1989.0 1431.3,2011.0 1426.3,2033.8 1421.6,2057.3 1417.3,2081.2 1413.3,2105.6 1409.6,2130.0  " style="stroke-opacity: 1.000000; stroke-width: 5.0; stroke: rgb(251,106,74); fill: none"  />
<path d="M 1745.5,2087.2 L 1735.7,2064.2 1725.4,2041.5 1714.9,2019.2 1704.0,1997.4 1692.7,1976.4 1681.3,1956.2 1669.5,1936.9 1657.5,1918.8 1645.4,1901.8 1633.0,1886.1 1620.5,1871.8 1607.9,1858.9 1595.2,1847.5 1582.4,1837.7 1569.6,1829.6 1556.7,1823.1 1543.8,1818.3 1530.9,1815.3 1518.0,1814.0 1505.2,1814.4 1492.5,1816.7 1479.9,1820.7 1467.3,1826.4 1455.0,1833.8 1442.8,1842.9 1430.7,1853.6 1418.9,1865.9 1407.2,1879.7 1395.8,1894.9 1384.7,1911.4 1373.8,1929.3 1363.2,1948.3 1352.9,1968.3 1343.0,1989.3 1333.3,2011.1 1324.1,2033.6 1315.2,2056.7 1306.6,2080.1 1298.5,2103.8  " style="stroke-opacity: 1.000000; stroke-width: 5.0; stroke: rgb(251,106,74); fill: none"  />
<path d="M 2133.5,1562.1 L 2108.6,1559.8 2083.7,1558.1 2059.0,1556.8 2034.7,1556.1 2010.8,1556.0 1987.6,1556.6 1965.1,1557.8 1943.4,1559.7 1922.7,1562.4 1903.0,1565.8 1884.5,1570.0 1867.2,1575.0 1851.1,1580.8 1836.4,1587.5 1823.2,1594.9 1811.3,1603.2 1801.0,1612.3 1792.2,1622.2 1785.0,1632.9 1779.4,1644.4 1775.3,1656.7 1772.8,1669.7 1771.9,1683.4 1772.6,1697.8 1774.8,1712.9 1778.5,1728.6 1783.7,1744.8 1790.4,1761.6 1798.4,1778.8 1807.7,1796.5 1818.2,1814.5 1829.9,1832.9 1842.7,1851.4 1856.5,1870.2 1871.1,1889.0 1886.6,1907.8 1902.6,1926.6 1919.2,1945.2 1936.2,1963.5  " style="stroke-opacity: 1.000000; stroke-width: 5.0; stroke: rgb(251,106,74); fill: none"  />
<path d="M 2133.5,1562.1 L 2107.9,1559.9 2082.2,1558.2 2056.6,1557.3 2031.2,1557.0 2006.0,1557.5 1981.3,1558.9 1957.1,1561.0 1933.5,1564.1 1910.5,1568.1 1888.4,1573.0 1867.1,1578.9 1846.8,1585.8 1827.4,1593.7 1809.1,1602.6 1792.0,1612.5 1775.9,1623.4 1761.1,1635.4 1747.6,1648.3 1735.3,1662.3 1724.2,1677.2 1714.5,1693.0 1706.2,1709.8 1699.1,1727.5 1693.3,1746.0 1688.9,1765.3 1685.8,1785.4 1683.9,1806.2 1683.3,1827.7 1683.9,1849.8 1685.7,1872.4 1688.7,1895.5 1692.7,1919.0 1697.7,1942.7 1703.7,1966.8 1710.6,1990.9 1718.3,2015.2 1726.8,2039.4 1735.9,2063.4 1745.5,2087.2  " style="stroke-opacity: 1.000000; stroke-width: 5.0; stroke: rgb(251,106,74); fill: none"  />
<path d="M 2133.5,1562.1 L 2107.4,1559.8 2081.3,1558.2 2055.1,1557.3 2029.0,1557.2 2003.2,1557.9 1977.6,1559.4 1952.4,1561.8 1927.6,1565.1 1903.5,1569.5 1880.0,1574.8 1857.1,1581.1 1835.1,1588.5 1813.9,1596.9 1793.6,1606.4 1774.2,1616.9 1755.9,1628.6 1738.5,1641.2 1722.3,1655.0 1707.1,1669.8 1693.1,1685.6 1680.2,1702.4 1668.5,1720.1 1658.0,1738.8 1648.6,1758.4 1640.4,1778.9 1633.4,1800.2 1627.6,1822.2 1622.9,1845.0 1619.3,1868.4 1616.8,1892.4 1615.4,1916.9 1615.0,1941.9 1615.6,1967.2 1617.1,1992.8 1619.5,2018.5 1622.7,2044.4 1626.7,2070.3 1631.4,2096.1 1636.7,2121.6  " style="stroke-opacity: 1.000000; stroke-width: 5.0; stroke: rgb(251,106,74); fill: none"  />
<path d="M 1409.6,2130.0 L 1413.3,2105.3 1417.5,2080.7 1422.2,2056.5 1427.3,2032.7 1432.9,2009.5 1438.9,1987.1 1445.5,1965.5 1452.5,1944.9 1460.0,1925.4 1468.0,1907.1 1476.5,1890.1 1485.5,1874.5 1495.0,1860.3 1504.9,1847.6 1515.3,1836.5 1526.2,1827.0 1537.4,1819.1 1549.2,1812.9 1561.3,1808.5 1573.8,1805.7 1586.7,1804.7 1599.9,1805.4 1613.4,1807.8 1627.3,1811.8 1641.4,1817.6 1655.7,1824.9 1670.3,1833.8 1685.0,1844.3 1699.8,1856.1 1714.8,1869.4 1729.8,1883.9 1744.8,1899.7 1759.8,1916.5 1774.7,1934.3 1789.5,1953.0 1804.1,1972.5 1818.5,1992.6 1832.6,2013.1 1846.4,2034.0  " style="stroke-opacity: 1.000000; stroke-width: 5.0; stroke: rgb(251,106,74); fill: none"  />
<path d="M 1409.6,2130.0 L 1413.3,2105.6 1417.3,2081.2 1421.6,2057.3 1426.3,2033.8 1431.3,2011.0 1436.7,1989.0 1442.4,1967.9 1448.5,1947.9 1454.9,1929.1 1461.6,1911.5 1468.7,1895.2 1476.1,1880.5 1483.8,1867.2 1491.8,1855.6 1500.1,1845.5 1508.8,1837.2 1517.6,1830.7 1526.8,1825.8 1536.2,1822.8 1545.9,1821.6 1555.7,1822.2 1565.8,1824.5 1576.1,1828.7 1586.5,1834.5 1597.1,1842.1 1607.8,1851.4 1618.6,1862.3 1629.4,1874.8 1640.3,1888.7 1651.3,1904.0 1662.2,1920.7 1673.1,1938.6 1683.9,1957.5 1694.6,1977.5 1705.2,1998.3 1715.6,2019.8 1725.8,2041.9 1735.8,2064.5 1745.5,2087.2  " style="stroke-opacity: 1.000000; stroke-width: 5.0; stroke: rgb(251,106,74); fill: none"  />
<path d="M 1409.6,2130.0 L 1413.2,2105.7 1417.0,2081.6 1421.0,2057.8 1425.3,2034.6 1429.7,2012.0 1434.4,1990.3 1439.2,1969.6 1444.2,1949.9 1449.4,1931.5 1454.7,1914.4 1460.2,1898.7 1465.9,1884.4 1471.7,1871.8 1477.6,1860.8 1483.7,1851.5 1489.9,1844.0 1496.2,1838.2 1502.5,1834.3 1509.0,1832.2 1515.5,1832.0 1522.2,1833.6 1528.8,1837.0 1535.5,1842.3 1542.2,1849.4 1549.0,1858.2 1555.7,1868.7 1562.4,1880.9 1569.1,1894.6 1575.8,1909.9 1582.4,1926.6 1588.9,1944.6 1595.3,1963.8 1601.7,1984.2 1607.9,2005.5 1614.0,2027.6 1619.9,2050.5 1625.7,2073.9 1631.3,2097.7 1636.7,2121.6  " style="stroke-opacity: 1.000000; stroke-width: 5.0; stroke: rgb(251,106,74); fill: none"  />
<path d="M 1298.5,2103.8 L 1306.8,2079.8 1315.5,2056.1 1324.8,2032.7 1334.5,2009.9 1344.7,1987.7 1355.4,1966.2 1366.5,1945.6 1378.0,1926.1 1390.0,1907.6 1402.4,1890.3 1415.3,1874.3 1428.5,1859.6 1442.0,1846.4 1456.0,1834.7 1470.2,1824.5 1484.8,1815.9 1499.7,1808.9 1514.9,1803.6 1530.3,1799.9 1545.9,1797.9 1561.7,1797.6 1577.7,1799.0 1593.9,1802.0 1610.2,1806.7 1626.5,1813.0 1643.0,1820.8 1659.4,1830.2 1675.9,1841.1 1692.3,1853.4 1708.6,1867.0 1724.9,1881.9 1741.0,1897.9 1756.9,1915.0 1772.6,1933.1 1788.1,1952.1 1803.2,1971.8 1818.0,1992.1 1832.4,2012.9 1846.4,2034.0  " style="stroke-opacity: 1.000000; stroke-width: 5.0; stroke: rgb(251,106,74); fill: none"  />
<path d="M 1298.5,2103.8 L 1306.6,2080.1 1315.2,2056.7 1324.1,2033.6 1333.3,2011.1 1343.0,1989.3 1352.9,1968.3 1363.2,1948.3 1373.8,1929.3 1384.7,1911.4 1395.8,1894.9 1407.2,1879.7 1418.9,1865.9 1430.7,1853.6 1442.8,1842.9 1455.0,1833.8 1467.3,1826.4 1479.9,1820.7 1492.5,1816.7 1505.2,1814.4 1518.0,1814.0 1530.9,1815.3 1543.8,1818.3 1556.7,1823.1 1569.6,1829.6 1582.4,1837.7 1595.2,1847.5 1607.9,1858.9 1620.5,1871.8 1633.0,1886.1 1645.4,1901.8 1657.5,1918.8 1669.5,1936.9 1681.3,1956.2 1692.7,1976.4 1704.0,1997.4 1714.9,2019.2 1725.4,2041.5 1735.7,2064.2 1745.5,2087.2  " style="stroke-opacity: 1.000000; stroke-width: 5.0; stroke: rgb(251,106,74); fill: none"  />
<path d="M 1298.5,2103.8 L 1306.5,2080.3 1314.8,2057.1 1323.4,2034.3 1332.2,2012.1 1341.2,1990.5 1350.4,1969.9 1359.8,1950.1 1369.3,1931.5 1379.0,1914.1 1388.8,1898.0 1398.6,1883.3 1408.5,1870.1 1418.5,1858.4 1428.5,1848.4 1438.4,1840.0 1448.4,1833.4 1458.3,1828.5 1468.2,1825.4 1478.0,1824.1 1487.7,1824.6 1497.3,1826.9 1506.8,1831.1 1516.2,1837.0 1525.4,1844.6 1534.4,1854.0 1543.3,1865.0 1552.0,1877.7 1560.4,1891.9 1568.7,1907.5 1576.7,1924.6 1584.5,1942.9 1592.0,1962.4 1599.2,1983.0 1606.2,2004.5 1612.9,2026.9 1619.3,2050.0 1625.4,2073.5 1631.2,2097.5 1636.7,2121.6  " style="stroke-opacity: 1.000000; stroke-width: 5.0; stroke: rgb(251,106,74); fill: none"  />
<path d="M 1194.0,2058.1 L 1206.6,2035.7 1219.7,2013.6 1233.3,1991.9 1247.5,1970.8 1262.1,1950.3 1277.1,1930.6 1292.6,1911.9 1308.4,1894.1 1324.6,1877.4 1341.2,1861.9 1358.1,1847.6 1375.2,1834.7 1392.7,1823.2 1410.3,1813.1 1428.2,1804.5 1446.3,1797.5 1464.5,1792.0 1482.8,1788.1 1501.3,1785.8 1519.8,1785.1 1538.4,1786.0 1557.0,1788.6 1575.5,1792.7 1594.1,1798.4 1612.5,1805.6 1630.9,1814.4 1649.1,1824.6 1667.2,1836.2 1685.1,1849.2 1702.7,1863.4 1720.2,1878.9 1737.3,1895.4 1754.1,1913.0 1770.5,1931.5 1786.6,1950.8 1802.3,1970.9 1817.5,1991.5 1832.2,2012.6 1846.4,2034.0  " style="stroke-opacity: 1.000000; stroke-width: 5.0; stroke: rgb(251,106,74); fill: none"  />
<path d="M 2112.2,1674.2 L 2088.3,1667.6 2064.5,1661.3 2040.8,1655.5 2017.5,1650.3 1994.6,1645.6 1972.4,1641.5 1950.8,1638.1 1930.0,1635.5 1910.2,1633.7 1891.4,1632.6 1873.7,1632.5 1857.2,1633.2 1841.9,1634.9 1828.0,1637.4 1815.5,1640.9 1804.4,1645.4 1794.8,1650.9 1786.6,1657.3 1780.0,1664.6 1775.0,1672.9 1771.5,1682.2 1769.5,1692.4 1769.1,1703.4 1770.2,1715.3 1772.9,1728.1 1777.0,1741.6 1782.6,1755.9 1789.5,1770.9 1797.8,1786.6 1807.3,1802.8 1818.1,1819.5 1830.0,1836.8 1842.9,1854.4 1856.7,1872.3 1871.4,1890.4 1886.8,1908.7 1902.8,1927.1 1919.4,1945.4 1936.2,1963.5  " style="stroke-opacity: 1.000000; stroke-width: 5.0; stroke: rgb(251,106,74); fill: none"  />
<path d="M 1099.2,1994.5 L 1115.9,1974.4 1133.1,1954.6 1150.9,1935.4 1169.1,1916.7 1187.7,1898.8 1206.8,1881.6 1226.2,1865.4 1246.0,1850.1 1266.0,1836.0 1286.3,1823.0 1306.9,1811.2 1327.6,1800.7 1348.5,1791.5 1369.5,1783.7 1390.6,1777.3 1411.8,1772.4 1433.0,1769.0 1454.2,1767.1 1475.3,1766.7 1496.4,1767.8 1517.4,1770.4 1538.3,1774.6 1559.0,1780.2 1579.6,1787.3 1599.9,1795.9 1619.9,1805.8 1639.7,1817.2 1659.3,1829.8 1678.4,1843.7 1697.3,1858.8 1715.7,1875.0 1733.7,1892.2 1751.3,1910.4 1768.5,1929.5 1785.1,1949.3 1801.3,1969.8 1816.9,1990.8 1832.0,2012.2 1846.4,2034.0  " style="stroke-opacity: 1.000000; stroke-width: 5.0; stroke: rgb(251,106,74); fill: none"  />
<path d="M 1099.2,1994.5 L 1119.5,1969.4 1139.8,1944.2 1160.1,1918.9 1180.4,1893.6 1200.6,1868.2 1220.8,1842.7 1241.0,1817.1 1261.1,1791.5 1281.2,1765.8 1301.3,1740.0 1321.3,1714.2 1341.3,1688.2 1361.2,1662.3 1381.0,1636.2 1400.8,1610.1 1420.6,1584.0 1440.3,1557.8 1459.9,1531.5 1479.4,1505.2 1498.9,1478.8 1518.3,1452.4 1537.7,1425.9 1556.9,1399.4 1576.1,1372.8 1595.3,1346.2 1614.3,1319.6 1633.3,1293.0 1652.2,1266.3 1671.0,1239.5 1689.7,1212.8 1708.4,1186.0 1727.0,1159.2 1745.5,1132.4 1763.9,1105.6 1782.2,1078.8 1800.5,1052.0 1818.7,1025.2 1836.8,998.4 1854.8,971.6  " style="stroke-opacity: 1.000000; stroke-width: 5.0; stroke: rgb(251,106,74); fill: none"  />
<path d="M 2071.3,1780.7 L 2048.4,1769.8 2025.4,1759.3 2002.3,1749.5 1979.2,1740.3 1956.2,1732.0 1933.4,1724.5 1911.0,1718.0 1888.9,1712.5 1867.3,1708.0 1846.3,1704.7 1825.9,1702.6 1806.2,1701.7 1787.3,1702.1 1769.1,1703.8 1751.9,1706.8 1735.5,1711.1 1720.1,1716.8 1705.6,1723.8 1692.2,1732.2 1679.8,1741.9 1668.5,1753.0 1658.2,1765.3 1649.0,1779.0 1640.9,1793.8 1633.9,1809.9 1627.9,1827.1 1623.1,1845.4 1619.2,1864.8 1616.4,1885.1 1614.6,1906.3 1613.8,1928.3 1613.9,1951.0 1614.9,1974.4 1616.8,1998.3 1619.4,2022.6 1622.8,2047.2 1626.9,2072.0 1631.5,2096.9 1636.7,2121.6  " style="stroke-opacity: 1.000000; stroke-width: 5.0; stroke: rgb(251,106,74); fill: none"  />
<path d="M 1636.7,2121.6 L 1630.4,2092.1 1624.4,2062.2 1618.8,2032.0 1613.6,2001.5 1608.7,1970.8 1604.3,1939.8 1600.4,1908.6 1596.9,1877.2 1594.0,1845.7 1591.5,1814.0 1589.6,1782.2 1588.2,1750.3 1587.3,1718.3 1587.0,1686.2 1587.3,1654.0 1588.1,1621.9 1589.5,1589.7 1591.5,1557.5 1594.0,1525.4 1597.2,1493.3 1600.9,1461.3 1605.2,1429.4 1610.1,1397.5 1615.5,1365.8 1621.5,1334.2 1628.0,1302.8 1635.1,1271.6 1642.6,1240.5 1650.7,1209.7 1659.3,1179.1 1668.3,1148.7 1677.8,1118.7 1687.7,1088.8 1698.1,1059.3 1708.8,1030.1 1719.8,1001.2 1731.2,972.7 1742.9,944.5 1754.8,916.7  " style="stroke-opacity: 1.000000; stroke-width: 5.0; stroke: rgb(251,106,74); fill: none"  />
<path d="M 1636.7,2121.6 L 1631.4,2097.7 1626.0,2074.0 1620.6,2050.7 1615.1,2027.9 1609.6,2005.9 1604.1,1984.6 1598.7,1964.4 1593.4,1945.2 1588.1,1927.3 1583.0,1910.7 1578.0,1895.5 1573.1,1881.9 1568.4,1869.8 1563.9,1859.4 1559.5,1850.7 1555.4,1843.8 1551.4,1838.7 1547.7,1835.4 1544.2,1833.9 1540.9,1834.4 1537.9,1836.6 1535.1,1840.8 1532.6,1846.7 1530.3,1854.5 1528.3,1864.0 1526.5,1875.2 1525.0,1888.0 1523.7,1902.5 1522.6,1918.4 1521.8,1935.8 1521.2,1954.4 1520.9,1974.3 1520.7,1995.3 1520.7,2017.2 1521.0,2039.9 1521.4,2063.4 1522.0,2087.3 1522.7,2111.6 1523.5,2136.1  " style="stroke-opacity: 1.000000; stroke-width: 5.0; stroke: rgb(251,106,74); fill: none"  />
<path d="M 1636.7,2121.6 L 1631.4,2096.1 1626.7,2070.3 1622.7,2044.4 1619.5,2018.5 1617.1,1992.8 1615.6,1967.2 1615.0,1941.9 1615.4,1916.9 1616.8,1892.4 1619.3,1868.4 1622.9,1845.0 1627.6,1822.2 1633.4,1800.2 1640.4,1778.9 1648.6,1758.4 1658.0,1738.8 1668.5,1720.1 1680.2,1702.4 1693.1,1685.6 1707.1,1669.8 1722.3,1655.0 1738.5,1641.2 1755.9,1628.6 1774.2,1616.9 1793.6,1606.4 1813.9,1596.9 1835.1,1588.5 1857.1,1581.1 1880.0,1574.8 1903.5,1569.5 1927.6,1565.1 1952.4,1561.8 1977.6,1559.4 2003.2,1557.9 2029.0,1557.2 2055.1,1557.3 2081.3,1558.2 2107.4,1559.8 2133.5,1562.1  " style="stroke-opacity: 1.000000; stroke-width: 5.0; stroke: rgb(251,106,74); fill: none"  />
<path d="M 1636.7,2121.6 L 1631.3,2097.7 1625.7,2073.9 1619.9,2050.5 1614.0,2027.6 1607.9,2005.5 1601.7,1984.2 1595.3,1963.8 1588.9,1944.6 1582.4,1926.6 1575.8,1909.9 1569.1,1894.6 1562.4,1880.9 1555.7,1868.7 1549.0,1858.2 1542.2,1849.4 1535.5,1842.3 1528.8,1837.0 1522.2,1833.6 1515.5,1832.0 1509.0,1832.2 1502.5,1834.3 1496.2,1838.2 1489.9,1844.0 1483.7,1851.5 1477.6,1860.8 1471.7,1871.8 1465.9,1884.4 1460.2,1898.7 1454.7,1914.4 1449.4,1931.5 1444.2,1949.9 1439.2,1969.6 1434.4,1990.3 1429.7,2012.0 1425.3,2034.6 1421.0,2057.8 1417.0,2081.6 1413.2,2105.7 1409.6,2130.0  " style="stroke-opacity: 1.000000; stroke-width: 5.0; stroke: rgb(251,106,74); fill: none"  />
<path d="M 1636.7,2121.6 L 1631.2,2097.5 1625.4,2073.5 1619.3,2050.0 1612.9,2026.9 1606.2,2004.5 1599.2,1983.0 1592.0,1962.4 1584.5,1942.9 1576.7,1924.6 1568.7,1907.5 1560.4,1891.9 1552.0,1877.7 1543.3,1865.0 1534.4,1854.0 1525.4,1844.6 1516.2,1837.0 1506.8,1831.1 1497.3,1826.9 1487.7,1824.6 1478.0,1824.1 1468.2,1825.4 1458.3,1828.5 1448.4,1833.4 1438.4,1840.0 1428.5,1848.4 1418.5,1858.4 1408.5,1870.1 1398.6,1883.3 1388.8,1898.0 1379.0,1914.1 1369.3,1931.5 1359.8,1950.1 1350.4,1969.9 1341.2,1990.5 1332.2,2012.1 1323.4,2034.3 1314.8,2057.1 1306.5,2080.3 1298.5,2103.8  " style="stroke-opacity: 1.000000; stroke-width: 5.0; stroke: rgb(251,106,74); fill: none"  />
<path d="M 1636.7,2121.6 L 1631.5,2096.9 1626.9,2072.0 1622.8,2047.2 1619.4,2022.6 1616.8,1998.3 1614.9,1974.4 1613.9,1951.0 1613.8,1928.3 1614.6,1906.3 1616.4,1885.1 1619.2,1864.8 1623.1,1845.4 1627.9,1827.1 1633.9,1809.9 1640.9,1793.8 1649.0,1779.0 1658.2,1765.3 1668.5,1753.0 1679.8,1741.9 1692.2,1732.2 1705.6,1723.8 1720.1,1716.8 1735.5,1711.1 1751.9,1706.8 1769.1,1703.8 1787.3,1702.1 1806.2,1701.7 1825.9,1702.6 1846.3,1704.7 1867.3,1708.0 1888.9,1712.5 1911.0,1718.0 1933.4,1724.5 1956.2,1732.0 1979.2,1740.3 2002.3,1749.5 2025.4,1759.3 2048.4,1769.8 2071.3,1780.7  " style="stroke-opacity: 1.000000; stroke-width: 5.0; stroke: rgb(251,106,74); fill: none"  />
<path d="M 2075.6,1228.4 L 2052.5,1239.6 2029.7,1251.4 2007.2,1263.7 1985.2,1276.5 1963.9,1289.8 1943.4,1303.7 1923.7,1318.0 1905.0,1332.7 1887.3,1347.9 1870.9,1363.5 1855.6,1379.4 1841.7,1395.8 1829.1,1412.5 1818.0,1429.5 1808.3,1446.8 1800.2,1464.4 1793.6,1482.3 1788.6,1500.4 1785.2,1518.6 1783.4,1537.1 1783.2,1555.7 1784.6,1574.4 1787.6,1593.2 1792.1,1612.0 1798.3,1630.9 1805.9,1649.7 1815.0,1668.6 1825.5,1687.3 1837.3,1705.9 1850.4,1724.4 1864.8,1742.7 1880.3,1760.8 1896.8,1778.7 1914.3,1796.2 1932.6,1813.4 1951.7,1830.3 1971.3,1846.7 1991.5,1862.7 2012.0,1878.2  " style="stroke-opacity: 1.000000; stroke-width: 5.0; stroke: rgb(251,106,74); fill: none"  />
</g>
<g id="track_0">
<path d="M 2012.0,1878.2 L 1992.2,1863.7 1972.6,1849.4 1953.1,1835.4 1934.0,1821.9 1915.4,1808.8 1897.3,1796.4 1879.9,1784.8 1863.3,1773.8 1847.5,1763.8 1832.7,1754.7 1819.0,1746.6 1806.3,1739.5 1794.8,1733.5 1784.6,1728.6 1775.6,1725.0 1767.9,1722.5 1761.6,1721.2 1756.6,1721.2 1753.0,1722.4 1750.8,1724.9 1750.0,1728.6 1750.7,1733.5 1752.7,1739.6 1756.0,1747.0 1760.8,1755.5 1766.8,1765.1 1774.1,1775.8 1782.6,1787.5 1792.3,1800.2 1803.1,1813.8 1815.0,1828.3 1827.8,1843.5 1841.4,1859.4 1855.9,1875.8 1871.0,1892.8 1886.8,1910.2 1902.9,1927.8 1919.5,1945.7 1936.2,1963.5  " style="stroke-opacity: 1.000000; stroke-width: 5.0; stroke: rgb(107,174,214); fill: none"  />
<path d="M 2012.0,1878.2 L 1991.9,1863.6 1971.8,1849.4 1951.7,1835.7 1931.7,1822.5 1912.0,1810.1 1892.5,1798.4 1873.5,1787.7 1855.0,1778.0 1837.1,1769.3 1819.8,1761.7 1803.3,1755.3 1787.6,1750.2 1772.8,1746.4 1758.8,1743.9 1745.8,1742.8 1733.9,1743.1 1722.9,1744.8 1713.1,1748.0 1704.3,1752.5 1696.7,1758.5 1690.1,1766.0 1684.7,1774.8 1680.5,1785.0 1677.3,1796.6 1675.3,1809.4 1674.4,1823.6 1674.6,1838.9 1675.8,1855.4 1678.1,1872.9 1681.3,1891.5 1685.5,1910.9 1690.6,1931.2 1696.5,1952.3 1703.2,1973.9 1710.5,1996.1 1718.5,2018.6 1727.1,2041.4 1736.1,2064.3 1745.5,2087.2  " style="stroke-opacity: 1.000000; stroke-width: 5.0; stroke: rgb(107,174,214); fill: none"  />
<path d="M 2012.0,1878.2 L 1991.7,1863.5 1971.3,1849.2 1950.7,1835.5 1930.2,1822.4 1909.8,1810.1 1889.6,1798.7 1869.6,1788.2 1850.0,1778.7 1830.9,1770.4 1812.2,1763.2 1794.2,1757.3 1776.7,1752.7 1760.0,1749.5 1744.0,1747.6 1728.7,1747.2 1714.3,1748.3 1700.8,1750.8 1688.2,1754.8 1676.5,1760.3 1665.8,1767.3 1656.0,1775.7 1647.2,1785.6 1639.4,1796.9 1632.6,1809.6 1626.7,1823.7 1621.9,1839.1 1618.0,1855.7 1615.1,1873.5 1613.1,1892.4 1612.0,1912.3 1611.8,1933.2 1612.5,1955.0 1614.0,1977.5 1616.2,2000.6 1619.1,2024.3 1622.7,2048.3 1626.8,2072.7 1631.6,2097.2 1636.7,2121.6  " style="stroke-opacity: 1.000000; stroke-width: 5.0; stroke: rgb(107,174,214); fill: none"  />
<path d="M 1533.6,864.4 L 1532.4,888.8 1531.3,913.1 1530.3,937.0 1529.5,960.5 1528.9,983.2 1528.5,1005.1 1528.4,1026.1 1528.4,1046.0 1528.7,1064.6 1529.2,1082.0 1530.0,1098.0 1531.1,1112.4 1532.4,1125.3 1534.0,1136.5 1535.9,1146.1 1538.1,1153.9 1540.5,1159.8 1543.2,1164.0 1546.2,1166.3 1549.5,1166.8 1553.0,1165.4 1556.8,1162.2 1560.8,1157.1 1565.1,1150.3 1569.6,1141.6 1574.3,1131.3 1579.2,1119.3 1584.2,1105.7 1589.5,1090.6 1594.9,1074.1 1600.4,1056.3 1606.1,1037.2 1611.8,1017.1 1617.6,995.9 1623.4,973.9 1629.3,951.3 1635.1,928.0 1640.9,904.4 1646.5,880.6  " style="stroke-opacity: 1.000000; stroke-width: 5.0; stroke: rgb(107,174,214); fill: none"  />
<path d="M 1533.6,864.4 L 1532.4,888.9 1531.5,913.4 1530.8,937.5 1530.5,961.1 1530.5,984.0 1530.8,1006.2 1531.5,1027.5 1532.6,1047.8 1534.1,1066.9 1536.0,1084.7 1538.4,1101.2 1541.2,1116.2 1544.4,1129.8 1548.1,1141.7 1552.2,1152.0 1556.8,1160.6 1561.9,1167.5 1567.4,1172.6 1573.3,1175.9 1579.7,1177.4 1586.5,1177.1 1593.7,1175.0 1601.3,1171.1 1609.2,1165.5 1617.5,1158.1 1626.2,1149.1 1635.2,1138.5 1644.4,1126.3 1653.9,1112.6 1663.6,1097.5 1673.5,1081.1 1683.6,1063.5 1693.7,1044.8 1704.0,1025.1 1714.3,1004.6 1724.5,983.3 1734.7,961.5 1744.8,939.2 1754.8,916.7  " style="stroke-opacity: 1.000000; stroke-width: 5.0; stroke: rgb(107,174,214); fill: none"  />
<path d="M 1533.6,864.4 L 1532.5,889.1 1531.7,913.8 1531.3,938.1 1531.3,962.0 1531.8,985.4 1532.8,1008.0 1534.4,1029.8 1536.4,1050.6 1539.0,1070.3 1542.2,1088.9 1546.0,1106.2 1550.4,1122.1 1555.4,1136.6 1561.0,1149.6 1567.2,1161.1 1574.0,1170.9 1581.5,1179.1 1589.6,1185.6 1598.2,1190.4 1607.4,1193.4 1617.2,1194.8 1627.6,1194.4 1638.4,1192.4 1649.8,1188.6 1661.6,1183.2 1673.9,1176.2 1686.6,1167.6 1699.7,1157.5 1713.1,1145.9 1726.8,1133.0 1740.8,1118.8 1754.9,1103.4 1769.2,1086.9 1783.6,1069.4 1798.0,1051.0 1812.4,1031.9 1826.7,1012.2 1840.9,992.1 1854.8,971.6  " style="stroke-opacity: 1.000000; stroke-width: 5.0; stroke: rgb(107,174,214); fill: none"  />
<path d="M 1533.6,864.4 L 1532.5,889.4 1531.8,914.3 1531.7,939.0 1532.1,963.3 1533.0,987.2 1534.6,1010.3 1536.9,1032.8 1539.8,1054.3 1543.4,1074.9 1547.7,1094.4 1552.7,1112.7 1558.5,1129.8 1565.0,1145.6 1572.3,1160.0 1580.3,1172.9 1589.1,1184.3 1598.7,1194.2 1609.0,1202.6 1620.0,1209.3 1631.7,1214.4 1644.2,1217.9 1657.3,1219.8 1671.0,1220.1 1685.4,1218.8 1700.3,1215.9 1715.8,1211.5 1731.8,1205.6 1748.3,1198.2 1765.2,1189.4 1782.4,1179.3 1799.9,1168.0 1817.7,1155.5 1835.7,1141.9 1853.8,1127.3 1871.9,1111.8 1890.1,1095.5 1908.1,1078.6 1925.9,1061.2 1943.5,1043.4  " style="stroke-opacity: 1.000000; stroke-width: 5.0; stroke: rgb(107,174,214); fill: none"  />
<path d="M 1024.0,1077.4 L 1042.4,1093.7 1060.6,1109.7 1078.8,1125.3 1096.6,1140.5 1114.0,1155.2 1130.9,1169.1 1147.2,1182.3 1162.7,1194.7 1177.5,1206.1 1191.4,1216.5 1204.4,1225.8 1216.4,1234.0 1227.3,1241.0 1237.1,1246.8 1245.7,1251.2 1253.1,1254.4 1259.3,1256.2 1264.3,1256.7 1268.0,1255.8 1270.3,1253.6 1271.5,1249.9 1271.3,1245.0 1269.8,1238.7 1267.1,1231.1 1263.2,1222.2 1258.0,1212.1 1251.7,1200.8 1244.3,1188.3 1235.8,1174.8 1226.2,1160.3 1215.7,1144.8 1204.3,1128.5 1192.1,1111.5 1179.2,1093.8 1165.7,1075.5 1151.6,1056.8 1137.0,1037.8 1122.2,1018.5 1107.1,999.2  " style="stroke-opacity: 1.000000; stroke-width: 5.0; stroke: rgb(107,174,214); fill: none"  />
<path d="M 1107.1,999.2 L 1122.2,1018.5 1137.0,1037.8 1151.6,1056.8 1165.7,1075.5 1179.2,1093.8 1192.1,1111.5 1204.3,1128.5 1215.7,1144.8 1226.2,1160.3 1235.8,1174.8 1244.3,1188.3 1251.7,1200.8 1258.0,1212.1 1263.2,1222.2 1267.1,1231.1 1269.8,1238.7 1271.3,1245.0 1271.5,1249.9 1270.3,1253.6 1268.0,1255.8 1264.3,1256.7 1259.3,1256.2 1253.1,1254.4 1245.7,1251.2 1237.1,1246.8 1227.3,1241.0 1216.4,1234.0 1204.4,1225.8 1191.4,1216.5 1177.5,1206.1 1162.7,1194.7 1147.2,1182.3 1130.9,1169.1 1114.0,1155.2 1096.6,1140.5 1078.8,1125.3 1060.6,1109.7 1042.4,1093.7 1024.0,1077.4  " style="stroke-opacity: 1.000000; stroke-width: 5.0; stroke: rgb(107,174,214); fill: none"  />
<path d="M 1646.5,880.6 L 1640.9,904.4 1635.1,928.0 1629.3,951.3 1623.4,973.9 1617.6,995.9 1611.8,1017.1 1606.1,1037.2 1600.4,1056.3 1594.9,1074.1 1589.5,1090.6 1584.2,1105.7 1579.2,1119.3 1574.3,1131.3 1569.6,1141.6 1565.1,1150.3 1560.8,1157.1 1556.8,1162.2 1553.0,1165.4 1549.5,1166.8 1546.2,1166.3 1543.2,1164.0 1540.5,1159.8 1538.1,1153.9 1535.9,1146.1 1534.0,1136.5 1532.4,1125.3 1531.1,1112.4 1530.0,1098.0 1529.2,1082.0 1528.7,1064.6 1528.4,1046.0 1528.4,1026.1 1528.5,1005.1 1528.9,983.2 1529.5,960.5 1530.3,937.0 1531.3,913.1 1532.4,888.8 1533.6,864.4  " style="stroke-opacity: 1.000000; stroke-width: 5.0; stroke: rgb(107,174,214); fill: none"  />
<path d="M 1646.5,880.6 L 1641.0,904.4 1635.5,928.1 1630.3,951.5 1625.4,974.4 1620.7,996.7 1616.4,1018.2 1612.5,1038.8 1609.0,1058.3 1606.0,1076.8 1603.4,1093.9 1601.4,1109.8 1599.8,1124.2 1598.8,1137.1 1598.4,1148.5 1598.5,1158.2 1599.3,1166.2 1600.6,1172.5 1602.5,1177.1 1605.1,1179.9 1608.2,1181.0 1611.9,1180.3 1616.2,1177.7 1621.1,1173.5 1626.5,1167.5 1632.4,1159.8 1638.9,1150.5 1645.9,1139.6 1653.3,1127.1 1661.2,1113.2 1669.4,1097.9 1678.1,1081.4 1687.0,1063.6 1696.2,1044.8 1705.7,1025.0 1715.4,1004.4 1725.2,983.2 1735.0,961.3 1744.9,939.1 1754.8,916.7  " style="stroke-opacity: 1.000000; stroke-width: 5.0; stroke: rgb(107,174,214); fill: none"  />
<path d="M 1646.5,880.6 L 1641.0,904.7 1635.8,928.8 1631.1,952.7 1626.9,976.3 1623.2,999.3 1620.2,1021.8 1617.8,1043.5 1616.1,1064.3 1615.1,1084.2 1614.9,1103.0 1615.6,1120.7 1617.1,1137.2 1619.4,1152.3 1622.6,1166.1 1626.7,1178.5 1631.6,1189.4 1637.5,1198.8 1644.3,1206.6 1651.9,1212.9 1660.4,1217.5 1669.8,1220.6 1680.1,1222.1 1691.1,1222.0 1703.0,1220.4 1715.6,1217.2 1729.0,1212.4 1743.0,1206.3 1757.7,1198.6 1772.9,1189.7 1788.7,1179.4 1805.0,1167.9 1821.6,1155.3 1838.6,1141.6 1855.9,1126.9 1873.4,1111.5 1891.0,1095.2 1908.6,1078.4 1926.1,1061.1 1943.5,1043.4  " style="stroke-opacity: 1.000000; stroke-width: 5.0; stroke: rgb(107,174,214); fill: none"  />
<path d="M 1936.2,1963.5 L 1919.5,1945.7 1902.9,1927.8 1886.8,1910.2 1871.0,1892.8 1855.9,1875.8 1841.4,1859.4 1827.8,1843.5 1815.0,1828.3 1803.1,1813.8 1792.3,1800.2 1782.6,1787.5 1774.1,1775.8 1766.8,1765.1 1760.8,1755.5 1756.0,1747.0 1752.7,1739.6 1750.7,1733.5 1750.0,1728.6 1750.8,1724.9 1753.0,1722.4 1756.6,1721.2 1761.6,1721.2 1767.9,1722.5 1775.6,1725.0 1784.6,1728.6 1794.8,1733.5 1806.3,1739.5 1819.0,1746.6 1832.7,1754.7 1847.5,1763.8 1863.3,1773.8 1879.9,1784.8 1897.3,1796.4 1915.4,1808.8 1934.0,1821.9 1953.1,1835.4 1972.6,1849.4 1992.2,1863.7 2012.0,1878.2  " style="stroke-opacity: 1.000000; stroke-width: 5.0; stroke: rgb(107,174,214); fill: none"  />
<path d="M 1936.2,1963.5 L 1919.4,1945.7 1902.6,1928.2 1886.0,1910.9 1869.6,1894.2 1853.5,1878.1 1838.0,1862.6 1822.9,1848.0 1808.5,1834.3 1794.8,1821.6 1781.9,1810.0 1769.8,1799.6 1758.6,1790.3 1748.4,1782.4 1739.2,1775.8 1731.0,1770.6 1723.9,1766.7 1717.9,1764.4 1713.0,1763.4 1709.2,1764.0 1706.6,1766.0 1705.2,1769.5 1704.9,1774.5 1705.8,1780.9 1707.8,1788.7 1711.0,1797.9 1715.2,1808.5 1720.5,1820.3 1726.8,1833.4 1734.0,1847.6 1742.2,1862.9 1751.3,1879.2 1761.2,1896.5 1771.8,1914.5 1783.1,1933.3 1794.9,1952.8 1807.3,1972.6 1820.1,1992.9 1833.2,2013.4 1846.4,2034.0  " style="stroke-opacity: 1.000000; stroke-width: 5.0; stroke: rgb(107,174,214); fill: none"  />
<path d="M 1936.2,1963.5 L 1919.3,1945.7 1902.3,1928.2 1885.3,1911.0 1868.5,1894.5 1851.9,1878.6 1835.6,1863.5 1819.7,1849.3 1804.3,1836.1 1789.5,1824.0 1775.3,1813.0 1761.7,1803.3 1748.9,1794.9 1736.9,1787.9 1725.7,1782.4 1715.4,1778.2 1706.0,1775.6 1697.6,1774.5 1690.1,1775.0 1683.6,1777.0 1678.1,1780.6 1673.6,1785.7 1670.2,1792.3 1667.7,1800.5 1666.3,1810.1 1665.9,1821.2 1666.4,1833.7 1667.9,1847.5 1670.3,1862.6 1673.7,1878.9 1677.9,1896.4 1682.9,1914.9 1688.6,1934.3 1695.1,1954.6 1702.3,1975.6 1710.0,1997.2 1718.3,2019.4 1727.0,2041.8 1736.1,2064.5 1745.5,2087.2  " style="stroke-opacity: 1.000000; stroke-width: 5.0; stroke: rgb(107,174,214); fill: none"  />
<path d="M 1936.2,1963.5 L 1919.1,1945.6 1901.8,1928.0 1884.5,1910.9 1867.2,1894.4 1850.0,1878.7 1832.9,1863.7 1816.1,1849.8 1799.7,1836.9 1783.6,1825.1 1768.0,1814.6 1752.9,1805.4 1738.3,1797.6 1724.4,1791.2 1711.1,1786.2 1698.5,1782.8 1686.7,1781.0 1675.7,1780.7 1665.4,1782.0 1655.9,1785.0 1647.3,1789.5 1639.6,1795.6 1632.7,1803.4 1626.7,1812.7 1621.5,1823.5 1617.3,1835.8 1613.9,1849.5 1611.3,1864.6 1609.6,1881.0 1608.6,1898.7 1608.5,1917.6 1609.2,1937.5 1610.5,1958.3 1612.6,1980.1 1615.3,2002.6 1618.6,2025.7 1622.4,2049.3 1626.8,2073.2 1631.6,2097.4 1636.7,2121.6  " style="stroke-opacity: 1.000000; stroke-width: 5.0; stroke: rgb(107,174,214); fill: none"  />
<path d="M 1754.8,916.7 L 1744.8,939.2 1734.7,961.5 1724.5,983.3 1714.3,1004.6 1704.0,1025.1 1693.7,1044.8 1683.6,1063.5 1673.5,1081.1 1663.6,1097.5 1653.9,1112.6 1644.4,1126.3 1635.2,1138.5 1626.2,1149.1 1617.5,1158.1 1609.2,1165.5 1601.3,1171.1 1593.7,1175.0 1586.5,1177.1 1579.7,1177.4 1573.3,1175.9 1567.4,1172.6 1561.9,1167.5 1556.8,1160.6 1552.2,1152.0 1548.1,1141.7 1544.4,1129.8 1541.2,1116.2 1538.4,1101.2 1536.0,1084.7 1534.1,1066.9 1532.6,1047.8 1531.5,1027.5 1530.8,1006.2 1530.5,984.0 1530.5,961.1 1530.8,937.5 1531.5,913.4 1532.4,888.9 1533.6,864.4  " style="stroke-opacity: 1.000000; stroke-width: 5.0; stroke: rgb(107,174,214); fill: none"  />
<path d="M 1754.8,916.7 L 1744.9,939.1 1735.0,961.3 1725.2,983.2 1715.4,1004.4 1705.7,1025.0 1696.2,1044.8 1687.0,1063.6 1678.1,1081.4 1669.4,1097.9 1661.2,1113.2 1653.3,1127.1 1645.9,1139.6 1638.9,1150.5 1632.4,1159.8 1626.5,1167.5 1621.1,1173.5 1616.2,1177.7 1611.9,1180.3 1608.2,1181.0 1605.1,1179.9 1602.5,1177.1 1600.6,1172.5 1599.3,1166.2 1598.5,1158.2 1598.4,1148.5 1598.8,1137.1 1599.8,1124.2 1601.4,1109.8 1603.4,1093.9 1606.0,1076.8 1609.0,1058.3 1612.5,1038.8 1616.4,1018.2 1620.7,996.7 1625.4,974.4 1630.3,951.5 1635.5,928.1 1641.0,904.4 1646.5,880.6  " style="stroke-opacity: 1.000000; stroke-width: 5.0; stroke: rgb(107,174,214); fill: none"  />
<path d="M 1754.8,916.7 L 1745.0,939.2 1735.5,961.5 1726.2,983.6 1717.2,1005.2 1708.7,1026.3 1700.6,1046.7 1693.1,1066.3 1686.1,1084.9 1679.9,1102.5 1674.3,1118.9 1669.4,1134.2 1665.3,1148.1 1662.0,1160.6 1659.6,1171.7 1658.0,1181.3 1657.3,1189.3 1657.5,1195.8 1658.5,1200.6 1660.5,1203.9 1663.4,1205.4 1667.2,1205.4 1671.9,1203.7 1677.4,1200.3 1683.8,1195.4 1691.0,1188.9 1699.1,1180.9 1707.9,1171.4 1717.4,1160.5 1727.6,1148.2 1738.5,1134.6 1749.9,1119.9 1761.9,1104.0 1774.4,1087.2 1787.2,1069.4 1800.4,1050.9 1813.8,1031.7 1827.4,1012.0 1841.1,991.9 1854.8,971.6  " style="stroke-opacity: 1.000000; stroke-width: 5.0; stroke: rgb(107,174,214); fill: none"  />
<path d="M 1754.8,916.7 L 1745.0,939.3 1735.6,961.8 1726.5,984.2 1717.9,1006.1 1709.8,1027.6 1702.3,1048.5 1695.5,1068.7 1689.4,1088.1 1684.1,1106.5 1679.6,1123.9 1676.1,1140.1 1673.4,1155.2 1671.7,1169.0 1670.9,1181.5 1671.2,1192.6 1672.5,1202.2 1674.8,1210.4 1678.1,1217.1 1682.5,1222.3 1688.0,1225.9 1694.4,1228.1 1701.9,1228.6 1710.4,1227.7 1719.8,1225.2 1730.2,1221.2 1741.4,1215.8 1753.6,1209.0 1766.5,1200.9 1780.2,1191.4 1794.6,1180.7 1809.6,1168.8 1825.2,1155.8 1841.3,1141.9 1857.8,1127.1 1874.7,1111.4 1891.8,1095.1 1909.0,1078.3 1926.3,1061.0 1943.5,1043.4  " style="stroke-opacity: 1.000000; stroke-width: 5.0; stroke: rgb(107,174,214); fill: none"  />
<path d="M 1846.4,2034.0 L 1833.2,2013.4 1820.1,1992.9 1807.3,1972.6 1794.9,1952.8 1783.1,1933.3 1771.8,1914.5 1761.2,1896.5 1751.3,1879.2 1742.2,1862.9 1734.0,1847.6 1726.8,1833.4 1720.5,1820.3 1715.2,1808.5 1711.0,1797.9 1707.8,1788.7 1705.8,1780.9 1704.9,1774.5 1705.2,1769.5 1706.6,1766.0 1709.2,1764.0 1713.0,1763.4 1717.9,1764.4 1723.9,1766.7 1731.0,1770.6 1739.2,1775.8 1748.4,1782.4 1758.6,1790.3 1769.8,1799.6 1781.9,1810.0 1794.8,1821.6 1808.5,1834.3 1822.9,1848.0 1838.0,1862.6 1853.5,1878.1 1869.6,1894.2 1886.0,1910.9 1902.6,1928.2 1919.4,1945.7 1936.2,1963.5  " style="stroke-opacity: 1.000000; stroke-width: 5.0; stroke: rgb(107,174,214); fill: none"  />
<path d="M 1846.4,2034.0 L 1833.1,2013.5 1819.7,1993.2 1806.4,1973.2 1793.2,1953.8 1780.4,1935.1 1767.8,1917.1 1755.6,1900.1 1743.9,1884.0 1732.7,1869.1 1722.0,1855.4 1712.0,1842.9 1702.6,1831.8 1694.0,1822.2 1686.1,1814.1 1679.0,1807.5 1672.6,1802.4 1667.2,1799.0 1662.5,1797.2 1658.7,1797.1 1655.8,1798.7 1653.8,1801.8 1652.6,1806.7 1652.3,1813.1 1652.9,1821.2 1654.4,1830.8 1656.6,1841.9 1659.7,1854.5 1663.6,1868.5 1668.2,1883.8 1673.5,1900.3 1679.5,1918.0 1686.2,1936.7 1693.4,1956.4 1701.1,1976.9 1709.4,1998.1 1718.0,2019.9 1726.9,2042.1 1736.1,2064.6 1745.5,2087.2  " style="stroke-opacity: 1.000000; stroke-width: 5.0; stroke: rgb(107,174,214); fill: none"  />
<path d="M 1846.4,2034.0 L 1832.9,2013.4 1819.4,1993.1 1805.7,1973.2 1792.1,1953.9 1778.6,1935.3 1765.3,1917.6 1752.2,1900.7 1739.4,1885.0 1727.0,1870.4 1715.0,1857.1 1703.4,1845.2 1692.3,1834.7 1681.7,1825.6 1671.7,1818.1 1662.3,1812.2 1653.5,1808.0 1645.4,1805.4 1637.9,1804.5 1631.2,1805.3 1625.2,1807.9 1619.8,1812.1 1615.3,1818.0 1611.4,1825.6 1608.3,1834.8 1605.8,1845.7 1604.1,1858.0 1603.1,1871.9 1602.8,1887.2 1603.2,1903.9 1604.2,1921.8 1605.8,1940.9 1608.1,1961.0 1610.8,1982.1 1614.1,2004.1 1617.9,2026.8 1622.1,2050.0 1626.6,2073.7 1631.5,2097.6 1636.7,2121.6  " style="stroke-opacity: 1.000000; stroke-width: 5.0; stroke: rgb(107,174,214); fill: none"  />
<path d="M 1854.8,971.6 L 1840.9,992.1 1826.7,1012.2 1812.4,1031.9 1798.0,1051.0 1783.6,1069.4 1769.2,1086.9 1754.9,1103.4 1740.8,1118.8 1726.8,1133.0 1713.1,1145.9 1699.7,1157.5 1686.6,1167.6 1673.9,1176.2 1661.6,1183.2 1649.8,1188.6 1638.4,1192.4 1627.6,1194.4 1617.2,1194.8 1607.4,1193.4 1598.2,1190.4 1589.6,1185.6 1581.5,1179.1 1574.0,1170.9 1567.2,1161.1 1561.0,1149.6 1555.4,1136.6 1550.4,1122.1 1546.0,1106.2 1542.2,1088.9 1539.0,1070.3 1536.4,1050.6 1534.4,1029.8 1532.8,1008.0 1531.8,985.4 1531.3,962.0 1531.3,938.1 1531.7,913.8 1532.5,889.1 1533.6,864.4  " style="stroke-opacity: 1.000000; stroke-width: 5.0; stroke: rgb(107,174,214); fill: none"  />
<path d="M 1854.8,971.6 L 1841.1,991.9 1827.4,1012.0 1813.8,1031.7 1800.4,1050.9 1787.2,1069.4 1774.4,1087.2 1761.9,1104.0 1749.9,1119.9 1738.5,1134.6 1727.6,1148.2 1717.4,1160.5 1707.9,1171.4 1699.1,1180.9 1691.0,1188.9 1683.8,1195.4 1677.4,1200.3 1671.9,1203.7 1667.2,1205.4 1663.4,1205.4 1660.5,1203.9 1658.5,1200.6 1657.5,1195.8 1657.3,1189.3 1658.0,1181.3 1659.6,1171.7 1662.0,1160.6 1665.3,1148.1 1669.4,1134.2 1674.3,1118.9 1679.9,1102.5 1686.1,1084.9 1693.1,1066.3 1700.6,1046.7 1708.7,1026.3 1717.2,1005.2 1726.2,983.6 1735.5,961.5 1745.0,939.2 1754.8,916.7  " style="stroke-opacity: 1.000000; stroke-width: 5.0; stroke: rgb(107,174,214); fill: none"  />
<path d="M 1523.5,2136.1 L 1522.6,2111.6 1521.5,2087.3 1520.3,2063.4 1519.0,2040.0 1517.5,2017.3 1515.9,1995.4 1514.2,1974.6 1512.4,1954.8 1510.4,1936.2 1508.3,1918.9 1506.1,1903.1 1503.8,1888.8 1501.3,1876.1 1498.7,1865.1 1495.9,1855.7 1493.1,1848.2 1490.1,1842.4 1487.0,1838.5 1483.9,1836.5 1480.6,1836.3 1477.2,1838.0 1473.7,1841.6 1470.2,1847.0 1466.5,1854.2 1462.8,1863.2 1459.1,1873.9 1455.3,1886.3 1451.4,1900.2 1447.6,1915.7 1443.6,1932.7 1439.7,1950.9 1435.8,1970.4 1431.9,1991.0 1428.1,2012.6 1424.2,2035.0 1420.4,2058.1 1416.7,2081.8 1413.1,2105.8 1409.6,2130.0  " style="stroke-opacity: 1.000000; stroke-width: 5.0; stroke: rgb(107,174,214); fill: none"  />
<path d="M 1523.5,2136.1 L 1522.5,2111.5 1521.2,2087.1 1519.7,2063.0 1518.0,2039.5 1515.9,2016.6 1513.6,1994.5 1511.0,1973.4 1508.1,1953.3 1504.9,1934.4 1501.4,1916.8 1497.5,1900.6 1493.4,1885.9 1489.0,1872.7 1484.2,1861.2 1479.2,1851.3 1473.8,1843.1 1468.2,1836.7 1462.2,1832.2 1456.0,1829.4 1449.5,1828.5 1442.8,1829.4 1435.8,1832.1 1428.6,1836.6 1421.2,1843.0 1413.6,1851.0 1405.8,1860.8 1397.8,1872.2 1389.7,1885.1 1381.5,1899.6 1373.1,1915.5 1364.7,1932.7 1356.3,1951.2 1347.9,1970.7 1339.4,1991.3 1331.0,2012.7 1322.7,2034.8 1314.5,2057.4 1306.4,2080.5 1298.5,2103.8  " style="stroke-opacity: 1.000000; stroke-width: 5.0; stroke: rgb(107,174,214); fill: none"  />
<path d="M 1745.5,2087.2 L 1736.1,2064.3 1727.1,2041.4 1718.5,2018.6 1710.5,1996.1 1703.2,1973.9 1696.5,1952.3 1690.6,1931.2 1685.5,1910.9 1681.3,1891.5 1678.1,1872.9 1675.8,1855.4 1674.6,1838.9 1674.4,1823.6 1675.3,1809.4 1677.3,1796.6 1680.5,1785.0 1684.7,1774.8 1690.1,1766.0 1696.7,1758.5 1704.3,1752.5 1713.1,1748.0 1722.9,1744.8 1733.9,1743.1 1745.8,1742.8 1758.8,1743.9 1772.8,1746.4 1787.6,1750.2 1803.3,1755.3 1819.8,1761.7 1837.1,1769.3 1855.0,1778.0 1873.5,1787.7 1892.5,1798.4 1912.0,1810.1 1931.7,1822.5 1951.7,1835.7 1971.8,1849.4 1991.9,1863.6 2012.0,1878.2  " style="stroke-opacity: 1.000000; stroke-width: 5.0; stroke: rgb(107,174,214); fill: none"  />
<path d="M 1745.5,2087.2 L 1736.1,2064.5 1727.0,2041.8 1718.3,2019.4 1710.0,1997.2 1702.3,1975.6 1695.1,1954.6 1688.6,1934.3 1682.9,1914.9 1677.9,1896.4 1673.7,1878.9 1670.3,1862.6 1667.9,1847.5 1666.4,1833.7 1665.9,1821.2 1666.3,1810.1 1667.7,1800.5 1670.2,1792.3 1673.6,1785.7 1678.1,1780.6 1683.6,1777.0 1690.1,1775.0 1697.6,1774.5 1706.0,1775.6 1715.4,1778.2 1725.7,1782.4 1736.9,1787.9 1748.9,1794.9 1761.7,1803.3 1775.3,1813.0 1789.5,1824.0 1804.3,1836.1 1819.7,1849.3 1835.6,1863.5 1851.9,1878.6 1868.5,1894.5 1885.3,1911.0 1902.3,1928.2 1919.3,1945.7 1936.2,1963.5  " style="stroke-opacity: 1.000000; stroke-width: 5.0; stroke: rgb(107,174,214); fill: none"  />
<path d="M 1745.5,2087.2 L 1736.1,2064.6 1726.9,2042.1 1718.0,2019.9 1709.4,1998.1 1701.1,1976.9 1693.4,1956.4 1686.2,1936.7 1679.5,1918.0 1673.5,1900.3 1668.2,1883.8 1663.6,1868.5 1659.7,1854.5 1656.6,1841.9 1654.4,1830.8 1652.9,1821.2 1652.3,1813.1 1652.6,1806.7 1653.8,1801.8 1655.8,1798.7 1658.7,1797.1 1662.5,1797.2 1667.2,1799.0 1672.6,1802.4 1679.0,1807.5 1686.1,1814.1 1694.0,1822.2 1702.6,1831.8 1712.0,1842.9 1722.0,1855.4 1732.7,1869.1 1743.9,1884.0 1755.6,1900.1 1767.8,1917.1 1780.4,1935.1 1793.2,1953.8 1806.4,1973.2 1819.7,1993.2 1833.1,2013.5 1846.4,2034.0  " style="stroke-opacity: 1.000000; stroke-width: 5.0; stroke: rgb(107,174,214); fill: none"  />
<path d="M 1745.5,2087.2 L 1736.0,2064.7 1726.5,2042.3 1717.0,2020.4 1707.5,1998.9 1698.2,1978.2 1689.0,1958.3 1680.1,1939.3 1671.4,1921.4 1663.0,1904.7 1655.0,1889.3 1647.4,1875.3 1640.1,1862.7 1633.3,1851.7 1627.0,1842.2 1621.2,1834.5 1615.9,1828.4 1611.1,1824.1 1606.8,1821.5 1603.1,1820.7 1600.0,1821.7 1597.4,1824.5 1595.4,1829.0 1594.0,1835.3 1593.1,1843.3 1592.8,1853.1 1593.1,1864.4 1593.9,1877.3 1595.2,1891.8 1597.0,1907.6 1599.3,1924.9 1602.0,1943.3 1605.2,1963.0 1608.8,1983.6 1612.8,2005.2 1617.0,2027.5 1621.6,2050.5 1626.5,2073.9 1631.5,2097.7 1636.7,2121.6  " style="stroke-opacity: 1.000000; stroke-width: 5.0; stroke: rgb(107,174,214); fill: none"  />
<path d="M 1943.5,1043.4 L 1925.9,1061.2 1908.1,1078.6 1890.1,1095.5 1871.9,1111.8 1853.8,1127.3 1835.7,1141.9 1817.7,1155.5 1799.9,1168.0 1782.4,1179.3 1765.2,1189.4 1748.3,1198.2 1731.8,1205.6 1715.8,1211.5 1700.3,1215.9 1685.4,1218.8 1671.0,1220.1 1657.3,1219.8 1644.2,1217.9 1631.7,1214.4 1620.0,1209.3 1609.0,1202.6 1598.7,1194.2 1589.1,1184.3 1580.3,1172.9 1572.3,1160.0 1565.0,1145.6 1558.5,1129.8 1552.7,1112.7 1547.7,1094.4 1543.4,1074.9 1539.8,1054.3 1536.9,1032.8 1534.6,1010.3 1533.0,987.2 1532.1,963.3 1531.7,939.0 1531.8,914.3 1532.5,889.4 1533.6,864.4  " style="stroke-opacity: 1.000000; stroke-width: 5.0; stroke: rgb(107,174,214); fill: none"  />
<path d="M 1943.5,1043.4 L 1926.1,1061.1 1908.6,1078.4 1891.0,1095.2 1873.4,1111.5 1855.9,1126.9 1838.6,1141.6 1821.6,1155.3 1805.0,1167.9 1788.7,1179.4 1772.9,1189.7 1757.7,1198.6 1743.0,1206.3 1729.0,1212.4 1715.6,1217.2 1703.0,1220.4 1691.1,1222.0 1680.1,1222.1 1669.8,1220.6 1660.4,1217.5 1651.9,1212.9 1644.3,1206.6 1637.5,1198.8 1631.6,1189.4 1626.7,1178.5 1622.6,1166.1 1619.4,1152.3 1617.1,1137.2 1615.6,1120.7 1614.9,1103.0 1615.1,1084.2 1616.1,1064.3 1617.8,1043.5 1620.2,1021.8 1623.2,999.3 1626.9,976.3 1631.1,952.7 1635.8,928.8 1641.0,904.7 1646.5,880.6  " style="stroke-opacity: 1.000000; stroke-width: 5.0; stroke: rgb(107,174,214); fill: none"  />
<path d="M 1943.5,1043.4 L 1926.3,1061.0 1909.0,1078.3 1891.8,1095.1 1874.7,1111.4 1857.8,1127.1 1841.3,1141.9 1825.2,1155.8 1809.6,1168.8 1794.6,1180.7 1780.2,1191.4 1766.5,1200.9 1753.6,1209.0 1741.4,1215.8 1730.2,1221.2 1719.8,1225.2 1710.4,1227.7 1701.9,1228.6 1694.4,1228.1 1688.0,1225.9 1682.5,1222.3 1678.1,1217.1 1674.8,1210.4 1672.5,1202.2 1671.2,1192.6 1670.9,1181.5 1671.7,1169.0 1673.4,1155.2 1676.1,1140.1 1679.6,1123.9 1684.1,1106.5 1689.4,1088.1 1695.5,1068.7 1702.3,1048.5 1709.8,1027.6 1717.9,1006.1 1726.5,984.2 1735.6,961.8 1745.0,939.3 1754.8,916.7  " style="stroke-opacity: 1.000000; stroke-width: 5.0; stroke: rgb(107,174,214); fill: none"  />
<path d="M 1409.6,2130.0 L 1413.1,2105.8 1416.7,2081.8 1420.4,2058.1 1424.2,2035.0 1428.1,2012.6 1431.9,1991.0 1435.8,1970.4 1439.7,1950.9 1443.6,1932.7 1447.6,1915.7 1451.4,1900.2 1455.3,1886.3 1459.1,1873.9 1462.8,1863.2 1466.5,1854.2 1470.2,1847.0 1473.7,1841.6 1477.2,1838.0 1480.6,1836.3 1483.9,1836.5 1487.0,1838.5 1490.1,1842.4 1493.1,1848.2 1495.9,1855.7 1498.7,1865.1 1501.3,1876.1 1503.8,1888.8 1506.1,1903.1 1508.3,1918.9 1510.4,1936.2 1512.4,1954.8 1514.2,1974.6 1515.9,1995.4 1517.5,2017.3 1519.0,2040.0 1520.3,2063.4 1521.5,2087.3 1522.6,2111.6 1523.5,2136.1  " style="stroke-opacity: 1.000000; stroke-width: 5.0; stroke: rgb(107,174,214); fill: none"  />
<path d="M 1409.6,2130.0 L 1413.0,2105.8 1416.3,2081.7 1419.4,2058.0 1422.2,2034.7 1424.9,2012.1 1427.2,1990.3 1429.3,1969.5 1431.0,1949.7 1432.4,1931.0 1433.4,1913.7 1434.0,1897.7 1434.3,1883.2 1434.1,1870.3 1433.5,1858.9 1432.5,1849.3 1431.0,1841.3 1429.1,1835.2 1426.8,1830.8 1424.0,1828.2 1420.8,1827.4 1417.2,1828.5 1413.2,1831.4 1408.7,1836.1 1403.8,1842.5 1398.6,1850.7 1393.0,1860.6 1387.0,1872.1 1380.7,1885.1 1374.2,1899.7 1367.3,1915.6 1360.2,1932.9 1352.9,1951.4 1345.4,1971.0 1337.7,1991.5 1329.9,2012.9 1322.1,2035.0 1314.2,2057.6 1306.3,2080.6 1298.5,2103.8  " style="stroke-opacity: 1.000000; stroke-width: 5.0; stroke: rgb(107,174,214); fill: none"  />
<path d="M 1409.6,2130.0 L 1412.9,2105.5 1415.9,2081.0 1418.5,2056.8 1420.6,2033.0 1422.2,2009.7 1423.2,1987.1 1423.6,1965.2 1423.4,1944.3 1422.6,1924.4 1421.1,1905.7 1418.9,1888.1 1415.9,1871.8 1412.3,1857.0 1407.8,1843.5 1402.7,1831.6 1396.7,1821.2 1390.1,1812.3 1382.6,1805.1 1374.4,1799.6 1365.5,1795.7 1355.9,1793.5 1345.6,1792.9 1334.5,1794.0 1322.9,1796.7 1310.6,1801.0 1297.7,1806.9 1284.3,1814.3 1270.4,1823.2 1256.0,1833.5 1241.2,1845.2 1226.0,1858.1 1210.6,1872.2 1194.9,1887.3 1179.0,1903.5 1162.9,1920.5 1146.9,1938.2 1130.9,1956.5 1114.9,1975.3 1099.2,1994.5  " style="stroke-opacity: 1.000000; stroke-width: 5.0; stroke: rgb(107,174,214); fill: none"  />
<path d="M 1298.5,2103.8 L 1306.4,2080.5 1314.5,2057.4 1322.7,2034.8 1331.0,2012.7 1339.4,1991.3 1347.9,1970.7 1356.3,1951.2 1364.7,1932.7 1373.1,1915.5 1381.5,1899.6 1389.7,1885.1 1397.8,1872.2 1405.8,1860.8 1413.6,1851.0 1421.2,1843.0 1428.6,1836.6 1435.8,1832.1 1442.8,1829.4 1449.5,1828.5 1456.0,1829.4 1462.2,1832.2 1468.2,1836.7 1473.8,1843.1 1479.2,1851.3 1484.2,1861.2 1489.0,1872.7 1493.4,1885.9 1497.5,1900.6 1501.4,1916.8 1504.9,1934.4 1508.1,1953.3 1511.0,1973.4 1513.6,1994.5 1515.9,2016.6 1518.0,2039.5 1519.7,2063.0 1521.2,2087.1 1522.5,2111.5 1523.5,2136.1  " style="stroke-opacity: 1.000000; stroke-width: 5.0; stroke: rgb(107,174,214); fill: none"  />
<path d="M 1298.5,2103.8 L 1306.3,2080.6 1314.2,2057.6 1322.1,2035.0 1329.9,2012.9 1337.7,1991.5 1345.4,1971.0 1352.9,1951.4 1360.2,1932.9 1367.3,1915.6 1374.2,1899.7 1380.7,1885.1 1387.0,1872.1 1393.0,1860.6 1398.6,1850.7 1403.8,1842.5 1408.7,1836.1 1413.2,1831.4 1417.2,1828.5 1420.8,1827.4 1424.0,1828.2 1426.8,1830.8 1429.1,1835.2 1431.0,1841.3 1432.5,1849.3 1433.5,1858.9 1434.1,1870.3 1434.3,1883.2 1434.0,1897.7 1433.4,1913.7 1432.4,1931.0 1431.0,1949.7 1429.3,1969.5 1427.2,1990.3 1424.9,2012.1 1422.2,2034.7 1419.4,2058.0 1416.3,2081.7 1413.0,2105.8 1409.6,2130.0  " style="stroke-opacity: 1.000000; stroke-width: 5.0; stroke: rgb(107,174,214); fill: none"  />
<path d="M 1099.2,1994.5 L 1114.9,1975.3 1130.9,1956.5 1146.9,1938.2 1162.9,1920.5 1179.0,1903.5 1194.9,1887.3 1210.6,1872.2 1226.0,1858.1 1241.2,1845.2 1256.0,1833.5 1270.4,1823.2 1284.3,1814.3 1297.7,1806.9 1310.6,1801.0 1322.9,1796.7 1334.5,1794.0 1345.6,1792.9 1355.9,1793.5 1365.5,1795.7 1374.4,1799.6 1382.6,1805.1 1390.1,1812.3 1396.7,1821.2 1402.7,1831.6 1407.8,1843.5 1412.3,1857.0 1415.9,1871.8 1418.9,1888.1 1421.1,1905.7 1422.6,1924.4 1423.4,1944.3 1423.6,1965.2 1423.2,1987.1 1422.2,2009.7 1420.6,2033.0 1418.5,2056.8 1415.9,2081.0 1412.9,2105.5 1409.6,2130.0  " style="stroke-opacity: 1.000000; stroke-width: 5.0; stroke: rgb(107,174,214); fill: none"  />
<path d="M 1636.7,2121.6 L 1631.6,2097.2 1626.8,2072.7 1622.7,2048.3 1619.1,2024.3 1616.2,2000.6 1614.0,1977.5 1612.5,1955.0 1611.8,1933.2 1612.0,1912.3 1613.1,1892.4 1615.1,1873.5 1618.0,1855.7 1621.9,1839.1 1626.7,1823.7 1632.6,1809.6 1639.4,1796.9 1647.2,1785.6 1656.0,1775.7 1665.8,1767.3 1676.5,1760.3 1688.2,1754.8 1700.8,1750.8 1714.3,1748.3 1728.7,1747.2 1744.0,1747.6 1760.0,1749.5 1776.7,1752.7 1794.2,1757.3 1812.2,1763.2 1830.9,1770.4 1850.0,1778.7 1869.6,1788.2 1889.6,1798.7 1909.8,1810.1 1930.2,1822.4 1950.7,1835.5 1971.3,1849.2 1991.7,1863.5 2012.0,1878.2  " style="stroke-opacity: 1.000000; stroke-width: 5.0; stroke: rgb(107,174,214); fill: none"  />
<path d="M 1636.7,2121.6 L 1631.6,2097.4 1626.8,2073.2 1622.4,2049.3 1618.6,2025.7 1615.3,2002.6 1612.6,1980.1 1610.5,1958.3 1609.2,1937.5 1608.5,1917.6 1608.6,1898.7 1609.6,1881.0 1611.3,1864.6 1613.9,1849.5 1617.3,1835.8 1621.5,1823.5 1626.7,1812.7 1632.7,1803.4 1639.6,1795.6 1647.3,1789.5 1655.9,1785.0 1665.4,1782.0 1675.7,1780.7 1686.7,1781.0 1698.5,1782.8 1711.1,1786.2 1724.4,1791.2 1738.3,1797.6 1752.9,1805.4 1768.0,1814.6 1783.6,1825.1 1799.7,1836.9 1816.1,1849.8 1832.9,1863.7 1850.0,1878.7 1867.2,1894.4 1884.5,1910.9 1901.8,1928.0 1919.1,1945.6 1936.2,1963.5  " style="stroke-opacity: 1.000000; stroke-width: 5.0; stroke: rgb(107,174,214); fill: none"  />
<path d="M 1636.7,2121.6 L 1631.5,2097.6 1626.6,2073.7 1622.1,2050.0 1617.9,2026.8 1614.1,2004.1 1610.8,1982.1 1608.1,1961.0 1605.8,1940.9 1604.2,1921.8 1603.2,1903.9 1602.8,1887.2 1603.1,1871.9 1604.1,1858.0 1605.8,1845.7 1608.3,1834.8 1611.4,1825.6 1615.3,1818.0 1619.8,1812.1 1625.2,1807.9 1631.2,1805.3 1637.9,1804.5 1645.4,1805.4 1653.5,1808.0 1662.3,1812.2 1671.7,1818.1 1681.7,1825.6 1692.3,1834.7 1703.4,1845.2 1715.0,1857.1 1727.0,1870.4 1739.4,1885.0 1752.2,1900.7 1765.3,1917.6 1778.6,1935.3 1792.1,1953.9 1805.7,1973.2 1819.4,1993.1 1832.9,2013.4 1846.4,2034.0  " style="stroke-opacity: 1.000000; stroke-width: 5.0; stroke: rgb(107,174,214); fill: none"  />
<path d="M 1636.7,2121.6 L 1631.5,2097.7 1626.5,2073.9 1621.6,2050.5 1617.0,2027.5 1612.8,2005.2 1608.8,1983.6 1605.2,1963.0 1602.0,1943.3 1599.3,1924.9 1597.0,1907.6 1595.2,1891.8 1593.9,1877.3 1593.1,1864.4 1592.8,1853.1 1593.1,1843.3 1594.0,1835.3 1595.4,1829.0 1597.4,1824.5 1600.0,1821.7 1603.1,1820.7 1606.8,1821.5 1611.1,1824.1 1615.9,1828.4 1621.2,1834.5 1627.0,1842.2 1633.3,1851.7 1640.1,1862.7 1647.4,1875.3 1655.0,1889.3 1663.0,1904.7 1671.4,1921.4 1680.1,1939.3 1689.0,1958.3 1698.2,1978.2 1707.5,1998.9 1717.0,2020.4 1726.5,2042.3 1736.0,2064.7 1745.5,2087.2  " style="stroke-opacity: 1.000000; stroke-width: 5.0; stroke: rgb(107,174,214); fill: none"  />
</g>
<defs>
<pattern id="vline-sparse" width="10" height="10" patternTransform="rotate(0 0 0)" patternUnits="userSpaceOnUse"><line x1="0" y1="0" x2="0" y2="10" style="stroke:black;stroke-width:2" /></pattern>
<pattern id="vline" width="10" height="10" patternTransform="rotate(0 0 0)" patternUnits="userSpaceOnUse"><line x1="0" y1="0" x2="0" y2="10" style="stroke:black;stroke-width:5" /></pattern>
<pattern id="checker" width="10" height="10" patternTransform="rotate(45 0 0)" patternUnits="userSpaceOnUse"><line x1="0" y1="0" x2="10" y2="0" style="stroke:black;stroke-width:5" /><line x1="0" y1="0" x2="0" y2="10" style="stroke:black;stroke-width:4" /></pattern>
<pattern id="checker" width="10" height="10" patternTransform="rotate(45 0 0)" patternUnits="userSpaceOnUse"><line x1="0" y1="0" x2="10" y2="0" style="stroke:black;stroke-width:2" /><line x1="0" y1="0" x2="0" y2="10" style="stroke:black;stroke-width:2" /></pattern>
<pattern id="hline" width="10" height="10" patternTransform="rotate(0 0 0)" patternUnits="userSpaceOnUse"><line x1="0" y1="0" x2="10" y2="0" style="stroke:black;stroke-width:5" /></pattern>
<pattern id="hline-sparse" width="10" height="10" patternTransform="rotate(0 0 0)" patternUnits="userSpaceOnUse"><line x1="0" y1="0" x2="10" y2="0" style="stroke:black;stroke-width:2" /></pattern>
</defs>
</svg>
