<?xml version="1.0" encoding="utf-8" standalone="no"?>
<!DOCTYPE svg PUBLIC "-//W3C//DTD SVG 1.1//EN" "http://www.w3.org/Graphics/SVG/1.1/DTD/svg11.dtd">
<svg width="3000px" height="3000px" version="1.1" xmlns="http://www.w3.org/2000/svg" xmlns:xlink="http://www.w3.org/1999/xlink">
<g id="bg">
<rect x="0" y="0" width="3000px" height="3000px" style="fill:rgb(255,255,255);"/>
</g>
<g id="ideograms">
<path d="M1500.000,535.000 A965.000,965.000 40.000 0,1 1601.714,540.376 L1618.579,381.267 A1125.000,1125.000 0.000 0,0 1500.000,375.000 Z" style="stroke-width:2.0;stroke:rgb(115,115,115);stroke-linecap:round;fill:rgb(153,204,255);" />
<text x="1635.1" y="307.6" font-size="195.0px" font-family="CMUBright-Bold" style="text-anchor:start;fill:rgb(0,0,0);" transform="rotate(273.0,1635.1,307.6)" >5</text>
<path d="M1500.000,535.000 A965.000,965.000 40.000 0,1 1601.714,540.376 L1618.579,381.267 A1125.000,1125.000 0.000 0,0 1500.000,375.000 Z" style="stroke-width:2.0;stroke:rgb(115,115,115);stroke-linecap:round;fill:none;" />
<path d="M1672.307,550.508 A965.000,965.000 40.000 0,1 1771.427,573.959 L1816.431,420.418 A1125.000,1125.000 0.000 0,0 1700.877,393.079 Z" style="stroke-width:2.0;stroke:rgb(115,115,115);stroke-linecap:round;fill:rgb(153,204,255);" />
<text x="1847.7" y="351.5" font-size="195.0px" font-family="CMUBright-Bold" style="text-anchor:start;fill:rgb(0,0,0);" transform="rotate(283.3,1847.7,351.5)" >8</text>
<path d="M1672.307,550.508 A965.000,965.000 40.000 0,1 1771.427,573.959 L1816.431,420.418 A1125.000,1125.000 0.000 0,0 1700.877,393.079 Z" style="stroke-width:2.0;stroke:rgb(115,115,115);stroke-linecap:round;fill:none;" />
<path d="M1839.077,596.533 A965.000,965.000 40.000 0,1 1932.417,637.306 L2004.113,494.269 A1125.000,1125.000 0.000 0,0 1895.297,446.736 Z" style="stroke-width:2.0;stroke:rgb(115,115,115);stroke-linecap:round;fill:rgb(153,204,255);" />
<text x="2047.2" y="432.0" font-size="195.0px" font-family="CMUBright-Bold" style="text-anchor:start;fill:rgb(0,0,0);" transform="rotate(293.6,2047.2,432.0)" >10</text>
<path d="M1839.077,596.533 A965.000,965.000 40.000 0,1 1932.417,637.306 L2004.113,494.269 A1125.000,1125.000 0.000 0,0 1895.297,446.736 Z" style="stroke-width:2.0;stroke:rgb(115,115,115);stroke-linecap:round;fill:none;" />
<path d="M1994.948,671.597 A965.000,965.000 40.000 0,1 2079.507,728.381 L2175.592,600.444 A1125.000,1125.000 0.000 0,0 2077.012,534.245 Z" style="stroke-width:2.0;stroke:rgb(115,115,115);stroke-linecap:round;fill:rgb(153,204,255);" />
<text x="2229.1" y="546.9" font-size="195.0px" font-family="CMUBright-Bold" style="text-anchor:start;fill:rgb(0,0,0);" transform="rotate(303.9,2229.1,546.9)" >13</text>
<path d="M1994.948,671.597 A965.000,965.000 40.000 0,1 2079.507,728.381 L2175.592,600.444 A1125.000,1125.000 0.000 0,0 2077.012,534.245 Z" style="stroke-width:2.0;stroke:rgb(115,115,115);stroke-linecap:round;fill:none;" />
<path d="M2134.911,773.286 A965.000,965.000 40.000 0,1 2207.972,844.256 L2325.356,735.532 A1125.000,1125.000 0.000 0,0 2240.181,652.795 Z" style="stroke-width:2.0;stroke:rgb(115,115,115);stroke-linecap:round;fill:rgb(153,204,255);" />
<text x="2387.6" y="692.4" font-size="195.0px" font-family="CMUBright-Bold" style="text-anchor:start;fill:rgb(0,0,0);" transform="rotate(314.2,2387.6,692.4)" >19</text>
<path d="M2134.911,773.286 A965.000,965.000 40.000 0,1 2207.972,844.256 L2325.356,735.532 A1125.000,1125.000 0.000 0,0 2240.181,652.795 Z" style="stroke-width:2.0;stroke:rgb(115,115,115);stroke-linecap:round;fill:none;" />
<path d="M2254.467,898.332 A965.000,965.000 40.000 0,1 2313.683,981.207 L2448.594,895.190 A1125.000,1125.000 0.000 0,0 2379.560,798.574 Z" style="stroke-width:2.0;stroke:rgb(115,115,115);stroke-linecap:round;fill:rgb(153,204,255);" />
<text x="2517.5" y="863.9" font-size="195.0px" font-family="CMUBright-Bold" style="text-anchor:start;fill:rgb(0,0,0);" transform="rotate(324.5,2517.5,863.9)" >35</text>
<path d="M2254.467,898.332 A965.000,965.000 40.000 0,1 2313.683,981.207 L2448.594,895.190 A1125.000,1125.000 0.000 0,0 2379.560,798.574 Z" style="stroke-width:2.0;stroke:rgb(115,115,115);stroke-linecap:round;fill:none;" />
<path d="M2349.775,1042.717 A965.000,965.000 40.000 0,1 2393.240,1134.833 L2541.342,1074.288 A1125.000,1125.000 0.000 0,0 2490.670,966.898 Z" style="stroke-width:2.0;stroke:rgb(115,115,115);stroke-linecap:round;fill:rgb(116,196,118);" />
<text x="2614.0" y="1053.9" font-size="195.0px" font-family="CMUBright-Bold" style="text-anchor:start;fill:rgb(0,0,0);" transform="rotate(334.7,2614.0,1053.9)" >11</text>
<path d="M2349.775,1042.717 A965.000,965.000 40.000 0,1 2393.240,1134.833 L2541.342,1074.288 A1125.000,1125.000 0.000 0,0 2490.670,966.898 Z" style="stroke-width:2.0;stroke:rgb(115,115,115);stroke-linecap:round;fill:none;" />
<path d="M2417.770,1201.799 A965.000,965.000 40.000 0,1 2444.089,1300.196 L2600.621,1267.068 A1125.000,1125.000 0.000 0,0 2569.939,1152.356 Z" style="stroke-width:2.0;stroke:rgb(115,115,115);stroke-linecap:round;fill:rgb(116,196,118);" />
<text x="2675.8" y="1260.0" font-size="195.0px" font-family="CMUBright-Bold" style="text-anchor:start;fill:rgb(0,0,0);" transform="rotate(345.0,2675.8,1260.0)" >14</text>
<path d="M2417.770,1201.799 A965.000,965.000 40.000 0,1 2444.089,1300.196 L2600.621,1267.068 A1125.000,1125.000 0.000 0,0 2569.939,1152.356 Z" style="stroke-width:2.0;stroke:rgb(115,115,115);stroke-linecap:round;fill:none;" />
<path d="M2456.267,1370.465 A965.000,965.000 40.000 0,1 2464.593,1471.980 L2624.526,1467.335 A1125.000,1125.000 0.000 0,0 2614.818,1348.988 Z" style="stroke-width:2.0;stroke:rgb(115,115,115);stroke-linecap:round;fill:rgb(116,196,118);" />
<text x="2699.8" y="1475.8" font-size="195.0px" font-family="CMUBright-Bold" style="text-anchor:start;fill:rgb(0,0,0);" transform="rotate(355.3,2699.8,1475.8)" >18</text>
<path d="M2456.267,1370.465 A965.000,965.000 40.000 0,1 2464.593,1471.980 L2624.526,1467.335 A1125.000,1125.000 0.000 0,0 2614.818,1348.988 Z" style="stroke-width:2.0;stroke:rgb(115,115,115);stroke-linecap:round;fill:none;" />
<path d="M2464.028,1543.295 A965.000,965.000 40.000 0,1 2454.095,1644.665 L2612.287,1668.651 A1125.000,1125.000 0.000 0,0 2623.867,1550.473 Z" style="stroke-width:2.0;stroke:rgb(115,115,115);stroke-linecap:round;fill:rgb(116,196,118);" />
<text x="2685.1" y="1688.4" font-size="195.0px" font-family="CMUBright-Bold" style="text-anchor:start;fill:rgb(0,0,0);" transform="rotate(5.6,2685.1,1688.4)" >22</text>
<path d="M2464.028,1543.295 A965.000,965.000 40.000 0,1 2454.095,1644.665 L2612.287,1668.651 A1125.000,1125.000 0.000 0,0 2623.867,1550.473 Z" style="stroke-width:2.0;stroke:rgb(115,115,115);stroke-linecap:round;fill:none;" />
<path d="M2440.805,1714.733 A965.000,965.000 40.000 0,1 2412.931,1812.701 L2564.298,1864.548 A1125.000,1125.000 0.000 0,0 2596.794,1750.336 Z" style="stroke-width:2.0;stroke:rgb(115,115,115);stroke-linecap:round;fill:rgb(116,196,118);" />
<text x="2631.8" y="1898.9" font-size="195.0px" font-family="CMUBright-Bold" style="text-anchor:start;fill:rgb(0,0,0);" transform="rotate(15.9,2631.8,1898.9)" >29</text>
<path d="M2440.805,1714.733 A965.000,965.000 40.000 0,1 2412.931,1812.701 L2564.298,1864.548 A1125.000,1125.000 0.000 0,0 2596.794,1750.336 Z" style="stroke-width:2.0;stroke:rgb(115,115,115);stroke-linecap:round;fill:none;" />
<path d="M2387.344,1879.269 A965.000,965.000 40.000 0,1 2342.425,1970.686 L2482.102,2048.727 A1125.000,1125.000 0.000 0,0 2534.469,1942.153 Z" style="stroke-width:2.0;stroke:rgb(115,115,115);stroke-linecap:round;fill:rgb(153,0,204);" />
<text x="2543.3" y="2092.8" font-size="195.0px" font-family="CMUBright-Bold" style="text-anchor:start;fill:rgb(0,0,0);" transform="rotate(26.2,2543.3,2092.8)" >1</text>
<path d="M2387.344,1879.269 A965.000,965.000 40.000 0,1 2342.425,1970.686 L2482.102,2048.727 A1125.000,1125.000 0.000 0,0 2534.469,1942.153 Z" style="stroke-width:2.0;stroke:rgb(115,115,115);stroke-linecap:round;fill:none;" />
<path d="M2305.363,2031.616 A965.000,965.000 40.000 0,1 2244.843,2113.542 L2368.340,2215.270 A1125.000,1125.000 0.000 0,0 2438.895,2119.759 Z" style="stroke-width:2.0;stroke:rgb(115,115,115);stroke-linecap:round;fill:rgb(153,0,204);" />
<text x="2419.4" y="2271.1" font-size="195.0px" font-family="CMUBright-Bold" style="text-anchor:start;fill:rgb(0,0,0);" transform="rotate(36.5,2419.4,2271.1)" >9</text>
<path d="M2305.363,2031.616 A965.000,965.000 40.000 0,1 2244.843,2113.542 L2368.340,2215.270 A1125.000,1125.000 0.000 0,0 2438.895,2119.759 Z" style="stroke-width:2.0;stroke:rgb(115,115,115);stroke-linecap:round;fill:none;" />
<path d="M2197.497,2166.875 A965.000,965.000 40.000 0,1 2123.321,2236.679 L2226.669,2358.823 A1125.000,1125.000 0.000 0,0 2313.144,2277.445 Z" style="stroke-width:2.0;stroke:rgb(115,115,115);stroke-linecap:round;fill:rgb(153,0,204);" />
<text x="2268.5" y="2421.6" font-size="195.0px" font-family="CMUBright-Bold" style="text-anchor:start;fill:rgb(0,0,0);" transform="rotate(46.7,2268.5,2421.6)" >12</text>
<path d="M2197.497,2166.875 A965.000,965.000 40.000 0,1 2123.321,2236.679 L2226.669,2358.823 A1125.000,1125.000 0.000 0,0 2313.144,2277.445 Z" style="stroke-width:2.0;stroke:rgb(115,115,115);stroke-linecap:round;fill:none;" />
<path d="M2067.213,2280.701 A965.000,965.000 40.000 0,1 1981.764,2336.139 L2061.642,2474.773 A1125.000,1125.000 0.000 0,0 2161.258,2410.144 Z" style="stroke-width:2.0;stroke:rgb(115,115,115);stroke-linecap:round;fill:rgb(153,0,204);" />
<text x="2090.7" y="2544.5" font-size="195.0px" font-family="CMUBright-Bold" style="text-anchor:start;fill:rgb(0,0,0);" transform="rotate(57.0,2090.7,2544.5)" >17</text>
<path d="M2067.213,2280.701 A965.000,965.000 40.000 0,1 1981.764,2336.139 L2061.642,2474.773 A1125.000,1125.000 0.000 0,0 2161.258,2410.144 Z" style="stroke-width:2.0;stroke:rgb(115,115,115);stroke-linecap:round;fill:none;" />
<path d="M1918.698,2369.435 A965.000,965.000 40.000 0,1 1824.724,2408.724 L1878.564,2559.393 A1125.000,1125.000 0.000 0,0 1988.119,2513.590 Z" style="stroke-width:2.0;stroke:rgb(115,115,115);stroke-linecap:round;fill:rgb(153,0,204);" />
<text x="1895.7" y="2632.9" font-size="195.0px" font-family="CMUBright-Bold" style="text-anchor:start;fill:rgb(0,0,0);" transform="rotate(67.3,1895.7,2632.9)" >21</text>
<path d="M1918.698,2369.435 A965.000,965.000 40.000 0,1 1824.724,2408.724 L1878.564,2559.393 A1125.000,1125.000 0.000 0,0 1988.119,2513.590 Z" style="stroke-width:2.0;stroke:rgb(115,115,115);stroke-linecap:round;fill:none;" />
<path d="M1756.726,2430.224 A965.000,965.000 40.000 0,1 1657.246,2452.102 L1683.318,2609.964 A1125.000,1125.000 0.000 0,0 1799.291,2584.458 Z" style="stroke-width:2.0;stroke:rgb(115,115,115);stroke-linecap:round;fill:rgb(153,0,204);" />
<text x="1685.0" y="2685.6" font-size="195.0px" font-family="CMUBright-Bold" style="text-anchor:start;fill:rgb(0,0,0);" transform="rotate(77.6,1685.0,2685.6)" >28</text>
<path d="M1756.726,2430.224 A965.000,965.000 40.000 0,1 1657.246,2452.102 L1683.318,2609.964 A1125.000,1125.000 0.000 0,0 1799.291,2584.458 Z" style="stroke-width:2.0;stroke:rgb(115,115,115);stroke-linecap:round;fill:none;" />
<path d="M1586.502,2461.115 A965.000,965.000 40.000 0,1 1484.715,2464.879 L1482.181,2624.859 A1125.000,1125.000 0.000 0,0 1600.844,2620.471 Z" style="stroke-width:2.0;stroke:rgb(115,115,115);stroke-linecap:round;fill:rgb(153,0,204);" />
<text x="1470.4" y="2699.6" font-size="195.0px" font-family="CMUBright-Bold" style="text-anchor:start;fill:rgb(0,0,0);" transform="rotate(87.9,1470.4,2699.6)" >34</text>
<path d="M1586.502,2461.115 A965.000,965.000 40.000 0,1 1484.715,2464.879 L1482.181,2624.859 A1125.000,1125.000 0.000 0,0 1600.844,2620.471 Z" style="stroke-width:2.0;stroke:rgb(115,115,115);stroke-linecap:round;fill:none;" />
<path d="M1413.498,2461.115 A965.000,965.000 40.000 0,1 1312.675,2446.644 L1281.616,2603.600 A1125.000,1125.000 0.000 0,0 1399.156,2620.471 Z" style="stroke-width:2.0;stroke:rgb(115,115,115);stroke-linecap:round;fill:rgb(253,208,162);" />
<text x="1399.0" y="2695.7" font-size="195.0px" font-family="CMUBright-Bold" style="text-anchor:end;fill:rgb(0,0,0);" transform="rotate(-81.8,1399.0,2695.7)" >4</text>
<path d="M1413.498,2461.115 A965.000,965.000 40.000 0,1 1312.675,2446.644 L1281.616,2603.600 A1125.000,1125.000 0.000 0,0 1399.156,2620.471 Z" style="stroke-width:2.0;stroke:rgb(115,115,115);stroke-linecap:round;fill:none;" />
<path d="M1243.274,2430.224 A965.000,965.000 40.000 0,1 1146.656,2397.983 L1088.070,2546.871 A1125.000,1125.000 0.000 0,0 1200.709,2584.458 Z" style="stroke-width:2.0;stroke:rgb(115,115,115);stroke-linecap:round;fill:rgb(253,208,162);" />
<text x="1191.0" y="2659.5" font-size="195.0px" font-family="CMUBright-Bold" style="text-anchor:end;fill:rgb(0,0,0);" transform="rotate(-71.5,1191.0,2659.5)" >6</text>
<path d="M1243.274,2430.224 A965.000,965.000 40.000 0,1 1146.656,2397.983 L1088.070,2546.871 A1125.000,1125.000 0.000 0,0 1200.709,2584.458 Z" style="stroke-width:2.0;stroke:rgb(115,115,115);stroke-linecap:round;fill:none;" />
<path d="M1081.302,2369.435 A965.000,965.000 40.000 0,1 991.993,2320.460 L907.764,2456.494 A1125.000,1125.000 0.000 0,0 1011.881,2513.590 Z" style="stroke-width:2.0;stroke:rgb(115,115,115);stroke-linecap:round;fill:rgb(253,208,162);" />
<text x="986.2" y="2584.5" font-size="195.0px" font-family="CMUBright-Bold" style="text-anchor:end;fill:rgb(0,0,0);" transform="rotate(-61.3,986.2,2584.5)" >7</text>
<path d="M1081.302,2369.435 A965.000,965.000 40.000 0,1 991.993,2320.460 L907.764,2456.494 A1125.000,1125.000 0.000 0,0 1011.881,2513.590 Z" style="stroke-width:2.0;stroke:rgb(115,115,115);stroke-linecap:round;fill:none;" />
<path d="M932.787,2280.701 A965.000,965.000 40.000 0,1 853.658,2216.566 L746.493,2335.375 A1125.000,1125.000 0.000 0,0 838.742,2410.144 Z" style="stroke-width:2.0;stroke:rgb(115,115,115);stroke-linecap:round;fill:rgb(253,208,162);" />
<text x="803.3" y="2477.0" font-size="195.0px" font-family="CMUBright-Bold" style="text-anchor:end;fill:rgb(0,0,0);" transform="rotate(-51.0,803.3,2477.0)" >16</text>
<path d="M932.787,2280.701 A965.000,965.000 40.000 0,1 853.658,2216.566 L746.493,2335.375 A1125.000,1125.000 0.000 0,0 838.742,2410.144 Z" style="stroke-width:2.0;stroke:rgb(115,115,115);stroke-linecap:round;fill:none;" />
<path d="M802.503,2166.875 A965.000,965.000 40.000 0,1 736.097,2089.642 L609.440,2187.406 A1125.000,1125.000 0.000 0,0 686.856,2277.445 Z" style="stroke-width:2.0;stroke:rgb(115,115,115);stroke-linecap:round;fill:rgb(253,208,162);" />
<text x="640.0" y="2336.9" font-size="195.0px" font-family="CMUBright-Bold" style="text-anchor:end;fill:rgb(0,0,0);" transform="rotate(-40.7,640.0,2336.9)" >20</text>
<path d="M802.503,2166.875 A965.000,965.000 40.000 0,1 736.097,2089.642 L609.440,2187.406 A1125.000,1125.000 0.000 0,0 686.856,2277.445 Z" style="stroke-width:2.0;stroke:rgb(115,115,115);stroke-linecap:round;fill:none;" />
<path d="M694.637,2031.616 A965.000,965.000 40.000 0,1 643.089,1943.766 L501.010,2017.344 A1125.000,1125.000 0.000 0,0 561.105,2119.759 Z" style="stroke-width:2.0;stroke:rgb(115,115,115);stroke-linecap:round;fill:rgb(253,208,162);" />
<text x="504.4" y="2169.9" font-size="195.0px" font-family="CMUBright-Bold" style="text-anchor:end;fill:rgb(0,0,0);" transform="rotate(-30.4,504.4,2169.9)" >25</text>
<path d="M694.637,2031.616 A965.000,965.000 40.000 0,1 643.089,1943.766 L501.010,2017.344 A1125.000,1125.000 0.000 0,0 561.105,2119.759 Z" style="stroke-width:2.0;stroke:rgb(115,115,115);stroke-linecap:round;fill:none;" />
<path d="M612.656,1879.269 A965.000,965.000 40.000 0,1 577.622,1783.627 L424.689,1830.653 A1125.000,1125.000 0.000 0,0 465.531,1942.153 Z" style="stroke-width:2.0;stroke:rgb(115,115,115);stroke-linecap:round;fill:rgb(253,208,162);" />
<text x="400.4" y="1980.5" font-size="195.0px" font-family="CMUBright-Bold" style="text-anchor:end;fill:rgb(0,0,0);" transform="rotate(-20.1,400.4,1980.5)" >27</text>
<path d="M612.656,1879.269 A965.000,965.000 40.000 0,1 577.622,1783.627 L424.689,1830.653 A1125.000,1125.000 0.000 0,0 465.531,1942.153 Z" style="stroke-width:2.0;stroke:rgb(115,115,115);stroke-linecap:round;fill:none;" />
<path d="M559.195,1714.733 A965.000,965.000 40.000 0,1 541.802,1614.372 L382.929,1633.336 A1125.000,1125.000 0.000 0,0 403.206,1750.336 Z" style="stroke-width:2.0;stroke:rgb(115,115,115);stroke-linecap:round;fill:rgb(253,141,60);" />
<text x="332.5" y="1777.4" font-size="195.0px" font-family="CMUBright-Bold" style="text-anchor:end;fill:rgb(0,0,0);" transform="rotate(-9.8,332.5,1777.4)" >15</text>
<path d="M559.195,1714.733 A965.000,965.000 40.000 0,1 541.802,1614.372 L382.929,1633.336 A1125.000,1125.000 0.000 0,0 403.206,1750.336 Z" style="stroke-width:2.0;stroke:rgb(115,115,115);stroke-linecap:round;fill:none;" />
<path d="M535.972,1543.295 A965.000,965.000 40.000 0,1 536.778,1441.441 L377.073,1431.732 A1125.000,1125.000 0.000 0,0 376.133,1550.473 Z" style="stroke-width:2.0;stroke:rgb(115,115,115);stroke-linecap:round;fill:rgb(253,141,60);" />
<text x="301.7" y="1564.5" font-size="195.0px" font-family="CMUBright-Bold" style="text-anchor:end;fill:rgb(0,0,0);" transform="rotate(0.5,301.7,1564.5)" >30</text>
<path d="M535.972,1543.295 A965.000,965.000 40.000 0,1 536.778,1441.441 L377.073,1431.732 A1125.000,1125.000 0.000 0,0 376.133,1550.473 Z" style="stroke-width:2.0;stroke:rgb(115,115,115);stroke-linecap:round;fill:none;" />
<path d="M543.733,1370.465 A965.000,965.000 40.000 0,1 562.714,1270.393 L407.309,1232.323 A1125.000,1125.000 0.000 0,0 385.182,1348.988 Z" style="stroke-width:2.0;stroke:rgb(115,115,115);stroke-linecap:round;fill:rgb(253,141,60);" />
<text x="309.5" y="1349.5" font-size="195.0px" font-family="CMUBright-Bold" style="text-anchor:end;fill:rgb(0,0,0);" transform="rotate(10.7,309.5,1349.5)" >31</text>
<path d="M543.733,1370.465 A965.000,965.000 40.000 0,1 562.714,1270.393 L407.309,1232.323 A1125.000,1125.000 0.000 0,0 385.182,1348.988 Z" style="stroke-width:2.0;stroke:rgb(115,115,115);stroke-linecap:round;fill:none;" />
<path d="M582.230,1201.799 A965.000,965.000 40.000 0,1 618.774,1106.724 L472.664,1041.517 A1125.000,1125.000 0.000 0,0 430.061,1152.356 Z" style="stroke-width:2.0;stroke:rgb(115,115,115);stroke-linecap:round;fill:rgb(253,141,60);" />
<text x="355.5" y="1139.3" font-size="195.0px" font-family="CMUBright-Bold" style="text-anchor:end;fill:rgb(0,0,0);" transform="rotate(21.0,355.5,1139.3)" >32</text>
<path d="M582.230,1201.799 A965.000,965.000 40.000 0,1 618.774,1106.724 L472.664,1041.517 A1125.000,1125.000 0.000 0,0 430.061,1152.356 Z" style="stroke-width:2.0;stroke:rgb(115,115,115);stroke-linecap:round;fill:none;" />
<path d="M650.225,1042.717 A965.000,965.000 40.000 0,1 703.158,955.695 L571.039,865.447 A1125.000,1125.000 0.000 0,0 509.330,966.898 Z" style="stroke-width:2.0;stroke:rgb(115,115,115);stroke-linecap:round;fill:rgb(66,146,198);" />
<text x="439.2" y="939.0" font-size="195.0px" font-family="CMUBright-Bold" style="text-anchor:end;fill:rgb(0,0,0);" transform="rotate(31.3,439.2,939.0)" >2</text>
<path d="M650.225,1042.717 A965.000,965.000 40.000 0,1 703.158,955.695 L571.039,865.447 A1125.000,1125.000 0.000 0,0 509.330,966.898 Z" style="stroke-width:2.0;stroke:rgb(115,115,115);stroke-linecap:round;fill:none;" />
<path d="M745.533,898.332 A965.000,965.000 40.000 0,1 813.153,822.160 L699.272,709.772 A1125.000,1125.000 0.000 0,0 620.440,798.574 Z" style="stroke-width:2.0;stroke:rgb(115,115,115);stroke-linecap:round;fill:rgb(66,146,198);" />
<text x="555.2" y="760.2" font-size="195.0px" font-family="CMUBright-Bold" style="text-anchor:end;fill:rgb(0,0,0);" transform="rotate(41.6,555.2,760.2)" >3</text>
<path d="M745.533,898.332 A965.000,965.000 40.000 0,1 813.153,822.160 L699.272,709.772 A1125.000,1125.000 0.000 0,0 620.440,798.574 Z" style="stroke-width:2.0;stroke:rgb(115,115,115);stroke-linecap:round;fill:none;" />
<path d="M865.089,773.286 A965.000,965.000 40.000 0,1 945.224,710.412 L853.241,579.496 A1125.000,1125.000 0.000 0,0 759.819,652.795 Z" style="stroke-width:2.0;stroke:rgb(115,115,115);stroke-linecap:round;fill:rgb(66,146,198);" />
<text x="702.5" y="603.4" font-size="195.0px" font-family="CMUBright-Bold" style="text-anchor:end;fill:rgb(0,0,0);" transform="rotate(51.9,702.5,603.4)" >23</text>
<path d="M865.089,773.286 A965.000,965.000 40.000 0,1 945.224,710.412 L853.241,579.496 A1125.000,1125.000 0.000 0,0 759.819,652.795 Z" style="stroke-width:2.0;stroke:rgb(115,115,115);stroke-linecap:round;fill:none;" />
<path d="M1005.052,671.597 A965.000,965.000 40.000 0,1 1095.126,624.042 L1027.997,478.806 A1125.000,1125.000 0.000 0,0 922.988,534.245 Z" style="stroke-width:2.0;stroke:rgb(115,115,115);stroke-linecap:round;fill:rgb(66,146,198);" />
<text x="877.1" y="474.3" font-size="195.0px" font-family="CMUBright-Bold" style="text-anchor:end;fill:rgb(0,0,0);" transform="rotate(62.2,877.1,474.3)" >24</text>
<path d="M1005.052,671.597 A965.000,965.000 40.000 0,1 1095.126,624.042 L1027.997,478.806 A1125.000,1125.000 0.000 0,0 922.988,534.245 Z" style="stroke-width:2.0;stroke:rgb(115,115,115);stroke-linecap:round;fill:none;" />
<path d="M1160.923,596.533 A965.000,965.000 40.000 0,1 1258.041,565.826 L1217.923,410.937 A1125.000,1125.000 0.000 0,0 1104.703,446.736 Z" style="stroke-width:2.0;stroke:rgb(115,115,115);stroke-linecap:round;fill:rgb(66,146,198);" />
<text x="1068.4" y="380.3" font-size="195.0px" font-family="CMUBright-Bold" style="text-anchor:end;fill:rgb(0,0,0);" transform="rotate(72.5,1068.4,380.3)" >26</text>
<path d="M1160.923,596.533 A965.000,965.000 40.000 0,1 1258.041,565.826 L1217.923,410.937 A1125.000,1125.000 0.000 0,0 1104.703,446.736 Z" style="stroke-width:2.0;stroke:rgb(115,115,115);stroke-linecap:round;fill:none;" />
<path d="M1327.693,550.508 A965.000,965.000 40.000 0,1 1428.732,537.635 L1416.916,378.072 A1125.000,1125.000 0.000 0,0 1299.123,393.079 Z" style="stroke-width:2.0;stroke:rgb(115,115,115);stroke-linecap:round;fill:rgb(66,146,198);" />
<text x="1275.3" y="321.2" font-size="195.0px" font-family="CMUBright-Bold" style="text-anchor:end;fill:rgb(0,0,0);" transform="rotate(82.7,1275.3,321.2)" >33</text>
<path d="M1327.693,550.508 A965.000,965.000 40.000 0,1 1428.732,537.635 L1416.916,378.072 A1125.000,1125.000 0.000 0,0 1299.123,393.079 Z" style="stroke-width:2.0;stroke:rgb(115,115,115);stroke-linecap:round;fill:none;" />
</g>
<g id="track_1">
<path d="M 2322.8,1904.3 L 2287.9,1886.6 2253.3,1868.0 2219.0,1848.4 2185.2,1827.8 2152.0,1806.2 2119.6,1783.6 2088.1,1760.0 2057.5,1735.4 2028.1,1709.8 1999.8,1683.4 1972.8,1655.9 1947.2,1627.6 1923.0,1598.4 1900.3,1568.2 1879.1,1537.3 1859.6,1505.5 1841.7,1473.0 1825.6,1439.7 1811.1,1405.7 1798.4,1371.0 1787.5,1335.8 1778.3,1299.9 1771.0,1263.5 1765.3,1226.6 1761.5,1189.4 1759.4,1151.7 1759.0,1113.8 1760.2,1075.6 1763.1,1037.2 1767.6,998.7 1773.6,960.2 1781.0,921.7 1789.9,883.3 1800.0,845.1 1811.4,807.2 1823.8,769.6 1837.3,732.5 1851.8,695.9 1867.0,659.9  " style="stroke-opacity: 1.000000; stroke-width: 5.0; stroke: rgb(251,106,74); fill: none"  />
<path d="M 1059.2,2303.8 L 1078.0,2270.5 1097.8,2237.4 1118.5,2204.8 1140.1,2172.9 1162.6,2141.8 1186.0,2111.5 1210.2,2082.4 1235.4,2054.4 1261.3,2027.7 1288.0,2002.5 1315.6,1978.7 1343.8,1956.6 1372.8,1936.1 1402.5,1917.3 1432.8,1900.4 1463.8,1885.3 1495.3,1872.2 1527.4,1860.9 1560.0,1851.7 1593.1,1844.4 1626.5,1839.1 1660.4,1835.9 1694.5,1834.6 1729.0,1835.3 1763.6,1837.9 1798.4,1842.5 1833.3,1848.9 1868.3,1857.2 1903.2,1867.2 1938.1,1878.9 1972.8,1892.2 2007.4,1907.1 2041.6,1923.4 2075.5,1941.0 2109.0,1959.8 2142.0,1979.7 2174.5,2000.6 2206.3,2022.3 2237.4,2044.7  " style="stroke-opacity: 1.000000; stroke-width: 5.0; stroke: rgb(251,106,74); fill: none"  />
<path d="M 1059.2,2303.8 L 1077.7,2271.1 1097.0,2238.6 1117.2,2206.8 1138.2,2175.7 1160.0,2145.4 1182.6,2116.2 1206.0,2088.2 1230.1,2061.5 1254.8,2036.3 1280.3,2012.6 1306.3,1990.6 1333.0,1970.4 1360.2,1952.0 1388.0,1935.6 1416.3,1921.2 1445.0,1908.8 1474.2,1898.5 1503.7,1890.3 1533.6,1884.3 1563.8,1880.4 1594.2,1878.8 1624.9,1879.3 1655.7,1881.9 1686.6,1886.7 1717.6,1893.6 1748.6,1902.6 1779.6,1913.5 1810.5,1926.4 1841.3,1941.2 1871.8,1957.7 1902.1,1975.9 1932.1,1995.7 1961.7,2017.0 1990.9,2039.6 2019.6,2063.4 2047.8,2088.2 2075.3,2114.0 2102.2,2140.5 2128.3,2167.6  " style="stroke-opacity: 1.000000; stroke-width: 5.0; stroke: rgb(251,106,74); fill: none"  />
<path d="M 2237.4,2044.7 L 2206.3,2022.3 2174.5,2000.6 2142.0,1979.7 2109.0,1959.8 2075.5,1941.0 2041.6,1923.4 2007.4,1907.1 1972.8,1892.2 1938.1,1878.9 1903.2,1867.2 1868.3,1857.2 1833.3,1848.9 1798.4,1842.5 1763.6,1837.9 1729.0,1835.3 1694.5,1834.6 1660.4,1835.9 1626.5,1839.1 1593.1,1844.4 1560.0,1851.7 1527.4,1860.9 1495.3,1872.2 1463.8,1885.3 1432.8,1900.4 1402.5,1917.3 1372.8,1936.1 1343.8,1956.6 1315.6,1978.7 1288.0,2002.5 1261.3,2027.7 1235.4,2054.4 1210.2,2082.4 1186.0,2111.5 1162.6,2141.8 1140.1,2172.9 1118.5,2204.8 1097.8,2237.4 1078.0,2270.5 1059.2,2303.8  " style="stroke-opacity: 1.000000; stroke-width: 5.0; stroke: rgb(251,106,74); fill: none"  />
<path d="M 2237.4,2044.7 L 2205.6,2020.7 2174.1,1995.6 2143.0,1969.7 2112.5,1942.8 2082.7,1915.1 2053.7,1886.4 2025.6,1856.9 1998.5,1826.5 1972.4,1795.3 1947.5,1763.3 1923.8,1730.5 1901.4,1696.9 1880.4,1662.7 1860.8,1627.8 1842.7,1592.2 1826.1,1556.0 1811.0,1519.2 1797.5,1481.9 1785.7,1444.1 1775.4,1405.8 1766.8,1367.1 1759.9,1328.1 1754.6,1288.7 1750.9,1249.0 1748.8,1209.2 1748.4,1169.1 1749.5,1129.0 1752.1,1088.7 1756.3,1048.5 1761.9,1008.3 1768.9,968.3 1777.3,928.4 1786.9,888.8 1797.7,849.4 1809.7,810.5 1822.7,772.0 1836.6,734.0 1851.4,696.6 1867.0,659.9  " style="stroke-opacity: 1.000000; stroke-width: 5.0; stroke: rgb(251,106,74); fill: none"  />
<path d="M 2237.4,2044.7 L 2208.6,2023.1 2180.3,2001.0 2152.7,1978.5 2126.0,1955.8 2100.4,1932.9 2076.1,1909.9 2053.2,1886.9 2031.9,1863.9 2012.3,1841.1 1994.5,1818.4 1978.8,1796.0 1965.1,1774.0 1953.5,1752.3 1944.2,1731.0 1937.2,1710.2 1932.5,1690.0 1930.3,1670.3 1930.4,1651.2 1933.1,1632.8 1938.1,1615.1 1945.6,1598.0 1955.5,1581.7 1967.8,1566.2 1982.4,1551.4 1999.3,1537.4 2018.4,1524.2 2039.6,1511.9 2062.9,1500.3 2088.1,1489.6 2115.1,1479.7 2143.8,1470.6 2174.0,1462.3 2205.6,1454.8 2238.4,1448.0 2272.2,1442.0 2306.8,1436.8 2342.1,1432.2 2377.8,1428.3 2413.7,1425.1  " style="stroke-opacity: 1.000000; stroke-width: 5.0; stroke: rgb(251,106,74); fill: none"  />
<path d="M 2237.4,2044.7 L 2204.3,2020.8 2170.5,1997.5 2135.9,1974.7 2100.5,1952.7 2064.4,1931.4 2027.7,1911.1 1990.4,1891.7 1952.4,1873.3 1913.9,1856.0 1874.9,1839.9 1835.4,1825.1 1795.5,1811.5 1755.2,1799.2 1714.6,1788.2 1673.6,1778.7 1632.4,1770.6 1590.9,1764.0 1549.3,1758.8 1507.5,1755.1 1465.6,1752.8 1423.7,1752.1 1381.8,1752.9 1339.8,1755.1 1298.0,1758.9 1256.3,1764.0 1214.7,1770.6 1173.3,1778.6 1132.2,1787.9 1091.4,1798.5 1050.9,1810.4 1010.8,1823.5 971.1,1837.8 931.9,1853.2 893.2,1869.6 855.1,1886.9 817.6,1905.1 780.8,1924.0 744.7,1943.7 709.3,1964.0  " style="stroke-opacity: 1.000000; stroke-width: 5.0; stroke: rgb(251,106,74); fill: none"  />
<path d="M 2237.4,2044.7 L 2203.6,2020.3 2169.1,1996.3 2133.8,1972.8 2097.8,1949.8 2061.1,1927.6 2023.7,1906.1 1985.7,1885.4 1947.1,1865.5 1907.9,1846.6 1868.1,1828.6 1827.8,1811.7 1787.0,1795.9 1745.8,1781.1 1704.2,1767.5 1662.2,1755.1 1619.8,1743.8 1577.1,1733.8 1534.1,1725.1 1490.9,1717.6 1447.5,1711.3 1403.9,1706.4 1360.3,1702.7 1316.5,1700.3 1272.7,1699.2 1228.8,1699.3 1185.0,1700.6 1141.3,1703.2 1097.7,1706.9 1054.3,1711.8 1011.1,1717.9 968.2,1725.0 925.5,1733.2 883.2,1742.4 841.3,1752.5 799.8,1763.5 758.8,1775.4 718.3,1788.0 678.4,1801.4 639.2,1815.3  " style="stroke-opacity: 1.000000; stroke-width: 5.0; stroke: rgb(251,106,74); fill: none"  />
<path d="M 1867.0,659.9 L 1851.8,695.9 1837.3,732.5 1823.8,769.6 1811.4,807.2 1800.0,845.1 1789.9,883.3 1781.0,921.7 1773.6,960.2 1767.6,998.7 1763.1,1037.2 1760.2,1075.6 1759.0,1113.8 1759.4,1151.7 1761.5,1189.4 1765.3,1226.6 1771.0,1263.5 1778.3,1299.9 1787.5,1335.8 1798.4,1371.0 1811.1,1405.7 1825.6,1439.7 1841.7,1473.0 1859.6,1505.5 1879.1,1537.3 1900.3,1568.2 1923.0,1598.4 1947.2,1627.6 1972.8,1655.9 1999.8,1683.4 2028.1,1709.8 2057.5,1735.4 2088.1,1760.0 2119.6,1783.6 2152.0,1806.2 2185.2,1827.8 2219.0,1848.4 2253.3,1868.0 2287.9,1886.6 2322.8,1904.3  " style="stroke-opacity: 1.000000; stroke-width: 5.0; stroke: rgb(251,106,74); fill: none"  />
<path d="M 1867.0,659.9 L 1851.4,696.6 1836.6,734.0 1822.7,772.0 1809.7,810.5 1797.7,849.4 1786.9,888.8 1777.3,928.4 1768.9,968.3 1761.9,1008.3 1756.3,1048.5 1752.1,1088.7 1749.5,1129.0 1748.4,1169.1 1748.8,1209.2 1750.9,1249.0 1754.6,1288.7 1759.9,1328.1 1766.8,1367.1 1775.4,1405.8 1785.7,1444.1 1797.5,1481.9 1811.0,1519.2 1826.1,1556.0 1842.7,1592.2 1860.8,1627.8 1880.4,1662.7 1901.4,1696.9 1923.8,1730.5 1947.5,1763.3 1972.4,1795.3 1998.5,1826.5 2025.6,1856.9 2053.7,1886.4 2082.7,1915.1 2112.5,1942.8 2143.0,1969.7 2174.1,1995.6 2205.6,2020.7 2237.4,2044.7  " style="stroke-opacity: 1.000000; stroke-width: 5.0; stroke: rgb(251,106,74); fill: none"  />
<path d="M 1867.0,659.9 L 1849.3,700.8 1831.9,742.1 1814.9,783.9 1798.1,826.0 1781.7,868.6 1765.7,911.5 1750.0,954.7 1734.9,998.3 1720.1,1042.2 1705.8,1086.5 1692.1,1131.0 1678.8,1175.7 1666.0,1220.8 1653.8,1266.0 1642.2,1311.5 1631.1,1357.2 1620.5,1403.0 1610.6,1449.1 1601.2,1495.2 1592.4,1541.5 1584.2,1587.9 1576.6,1634.4 1569.7,1680.9 1563.3,1727.5 1557.5,1774.1 1552.3,1820.6 1547.6,1867.2 1543.6,1913.7 1540.1,1960.2 1537.2,2006.6 1534.8,2052.8 1533.0,2099.0 1531.7,2144.9 1530.9,2190.7 1530.6,2236.3 1530.8,2281.7 1531.4,2326.8 1532.4,2371.6 1533.9,2416.1  " style="stroke-opacity: 1.000000; stroke-width: 5.0; stroke: rgb(251,106,74); fill: none"  />
<path d="M 2128.3,2167.6 L 2102.2,2140.5 2075.3,2114.0 2047.8,2088.2 2019.6,2063.4 1990.9,2039.6 1961.7,2017.0 1932.1,1995.7 1902.1,1975.9 1871.8,1957.7 1841.3,1941.2 1810.5,1926.4 1779.6,1913.5 1748.6,1902.6 1717.6,1893.6 1686.6,1886.7 1655.7,1881.9 1624.9,1879.3 1594.2,1878.8 1563.8,1880.4 1533.6,1884.3 1503.7,1890.3 1474.2,1898.5 1445.0,1908.8 1416.3,1921.2 1388.0,1935.6 1360.2,1952.0 1333.0,1970.4 1306.3,1990.6 1280.3,2012.6 1254.8,2036.3 1230.1,2061.5 1206.0,2088.2 1182.6,2116.2 1160.0,2145.4 1138.2,2175.7 1117.2,2206.8 1097.0,2238.6 1077.7,2271.1 1059.2,2303.8  " style="stroke-opacity: 1.000000; stroke-width: 5.0; stroke: rgb(251,106,74); fill: none"  />
<path d="M 2128.3,2167.6 L 2103.5,2140.8 2079.4,2113.5 2056.1,2085.9 2033.7,2057.9 2012.5,2029.8 1992.6,2001.6 1974.1,1973.5 1957.1,1945.5 1941.9,1917.7 1928.4,1890.1 1916.9,1862.9 1907.3,1836.2 1899.8,1809.9 1894.5,1784.3 1891.3,1759.2 1890.3,1734.8 1891.6,1711.2 1895.2,1688.3 1901.0,1666.3 1909.2,1645.1 1919.6,1624.8 1932.2,1605.5 1947.1,1587.0 1964.2,1569.6 1983.3,1553.1 2004.5,1537.6 2027.6,1523.2 2052.7,1509.7 2079.4,1497.3 2107.9,1485.8 2137.8,1475.4 2169.2,1465.9 2201.7,1457.4 2235.4,1449.8 2270.0,1443.2 2305.3,1437.4 2341.2,1432.5 2377.4,1428.4 2413.7,1425.1  " style="stroke-opacity: 1.000000; stroke-width: 5.0; stroke: rgb(251,106,74); fill: none"  />
<path d="M 2128.3,2167.6 L 2101.2,2139.5 2073.2,2111.9 2044.3,2084.8 2014.7,2058.6 1984.3,2033.3 1953.1,2008.9 1921.3,1985.7 1888.9,1963.7 1855.8,1943.1 1822.2,1923.8 1788.0,1906.1 1753.4,1889.9 1718.3,1875.4 1682.9,1862.5 1647.1,1851.4 1611.0,1842.1 1574.6,1834.6 1538.0,1828.9 1501.3,1825.1 1464.4,1823.1 1427.5,1823.1 1390.5,1824.9 1353.6,1828.5 1316.7,1834.0 1279.9,1841.2 1243.3,1850.3 1206.9,1861.1 1170.8,1873.5 1135.0,1887.5 1099.5,1903.1 1064.4,1920.2 1029.8,1938.6 995.7,1958.3 962.2,1979.2 929.3,2001.2 897.1,2024.2 865.5,2048.0 834.8,2072.6 804.9,2097.7  " style="stroke-opacity: 1.000000; stroke-width: 5.0; stroke: rgb(251,106,74); fill: none"  />
<path d="M 2128.3,2167.6 L 2100.6,2138.9 2072.0,2110.6 2042.6,2082.8 2012.3,2055.7 1981.2,2029.4 1949.3,2004.0 1916.6,1979.6 1883.2,1956.3 1849.2,1934.1 1814.4,1913.1 1779.1,1893.5 1743.1,1875.2 1706.6,1858.4 1669.6,1843.1 1632.2,1829.3 1594.2,1817.1 1555.9,1806.5 1517.3,1797.6 1478.3,1790.3 1439.1,1784.7 1399.7,1780.7 1360.1,1778.4 1320.4,1777.8 1280.5,1778.9 1240.7,1781.5 1200.9,1785.8 1161.1,1791.7 1121.5,1799.1 1082.1,1808.0 1042.8,1818.3 1003.9,1830.0 965.3,1843.1 927.1,1857.3 889.3,1872.7 852.1,1889.2 815.4,1906.7 779.3,1925.0 743.9,1944.2 709.3,1964.0  " style="stroke-opacity: 1.000000; stroke-width: 5.0; stroke: rgb(251,106,74); fill: none"  />
<path d="M 2128.3,2167.6 L 2100.0,2138.2 2070.9,2109.2 2040.9,2080.6 2010.0,2052.6 1978.3,2025.3 1945.8,1998.7 1912.5,1972.9 1878.5,1948.1 1843.7,1924.2 1808.2,1901.4 1772.0,1879.7 1735.1,1859.2 1697.7,1839.9 1659.6,1821.9 1621.0,1805.2 1581.9,1789.9 1542.3,1775.9 1502.3,1763.4 1461.9,1752.3 1421.0,1742.7 1379.9,1734.5 1338.5,1727.7 1296.9,1722.4 1255.0,1718.6 1213.0,1716.3 1170.9,1715.3 1128.8,1715.8 1086.7,1717.6 1044.6,1720.8 1002.7,1725.2 960.9,1731.0 919.3,1737.9 878.0,1746.1 837.0,1755.3 796.4,1765.5 756.3,1776.7 716.6,1788.8 677.6,1801.7 639.2,1815.3  " style="stroke-opacity: 1.000000; stroke-width: 5.0; stroke: rgb(251,106,74); fill: none"  />
<path d="M 2011.1,738.9 L 1987.6,774.5 1964.5,810.7 1941.8,847.7 1919.7,885.3 1898.1,923.5 1877.1,962.3 1856.7,1001.7 1837.1,1041.7 1818.2,1082.2 1800.2,1123.3 1782.9,1164.8 1766.6,1206.7 1751.2,1249.1 1736.7,1291.9 1723.1,1335.1 1710.6,1378.6 1699.0,1422.4 1688.5,1466.5 1679.0,1510.9 1670.5,1555.4 1663.1,1600.2 1656.8,1645.1 1651.5,1690.1 1647.2,1735.1 1644.0,1780.3 1641.9,1825.4 1640.7,1870.5 1640.6,1915.5 1641.4,1960.5 1643.2,2005.3 1645.9,2049.9 1649.5,2094.3 1654.0,2138.4 1659.3,2182.2 1665.4,2225.7 1672.3,2268.8 1679.9,2311.5 1688.1,2353.7 1696.9,2395.4  " style="stroke-opacity: 1.000000; stroke-width: 5.0; stroke: rgb(251,106,74); fill: none"  />
<path d="M 922.8,2212.2 L 946.8,2183.3 971.6,2154.8 997.2,2127.1 1023.4,2100.2 1050.3,2074.3 1077.7,2049.7 1105.7,2026.3 1134.1,2004.3 1163.0,1983.9 1192.3,1965.2 1221.8,1948.2 1251.7,1933.0 1281.8,1919.8 1312.0,1908.6 1342.4,1899.4 1372.9,1892.4 1403.5,1887.4 1434.0,1884.7 1464.5,1884.1 1494.9,1885.7 1525.1,1889.5 1555.2,1895.5 1585.0,1903.6 1614.6,1913.8 1643.8,1926.1 1672.8,1940.5 1701.3,1956.8 1729.4,1975.0 1757.0,1995.0 1784.1,2016.7 1810.7,2040.1 1836.7,2064.9 1862.0,2091.1 1886.7,2118.5 1910.7,2147.1 1933.9,2176.6 1956.4,2206.9 1978.1,2237.8 1999.0,2269.1  " style="stroke-opacity: 1.000000; stroke-width: 5.0; stroke: rgb(251,106,74); fill: none"  />
<path d="M 922.8,2212.2 L 945.7,2184.4 969.0,2157.1 992.7,2130.6 1016.6,2104.9 1040.6,2080.4 1064.7,2057.1 1088.7,2035.3 1112.6,2015.0 1136.3,1996.4 1159.7,1979.7 1182.8,1965.0 1205.4,1952.3 1227.6,1941.7 1249.3,1933.4 1270.4,1927.3 1290.8,1923.6 1310.6,1922.2 1329.6,1923.2 1347.9,1926.7 1365.4,1932.5 1382.1,1940.7 1397.9,1951.4 1412.9,1964.3 1427.0,1979.6 1440.2,1997.1 1452.5,2016.8 1463.9,2038.6 1474.4,2062.3 1484.0,2088.0 1492.7,2115.4 1500.5,2144.4 1507.4,2175.0 1513.5,2206.9 1518.8,2239.9 1523.3,2274.0 1527.0,2308.9 1530.0,2344.3 1532.2,2380.1 1533.9,2416.1  " style="stroke-opacity: 1.000000; stroke-width: 5.0; stroke: rgb(251,106,74); fill: none"  />
<path d="M 1999.0,2269.1 L 1978.1,2237.8 1956.4,2206.9 1933.9,2176.6 1910.7,2147.1 1886.7,2118.5 1862.0,2091.1 1836.7,2064.9 1810.7,2040.1 1784.1,2016.7 1757.0,1995.0 1729.4,1975.0 1701.3,1956.8 1672.8,1940.5 1643.8,1926.1 1614.6,1913.8 1585.0,1903.6 1555.2,1895.5 1525.1,1889.5 1494.9,1885.7 1464.5,1884.1 1434.0,1884.7 1403.5,1887.4 1372.9,1892.4 1342.4,1899.4 1312.0,1908.6 1281.8,1919.8 1251.7,1933.0 1221.8,1948.2 1192.3,1965.2 1163.0,1983.9 1134.1,2004.3 1105.7,2026.3 1077.7,2049.7 1050.3,2074.3 1023.4,2100.2 997.2,2127.1 971.6,2154.8 946.8,2183.3 922.8,2212.2  " style="stroke-opacity: 1.000000; stroke-width: 5.0; stroke: rgb(251,106,74); fill: none"  />
<path d="M 1999.0,2269.1 L 1979.2,2237.8 1960.1,2206.1 1941.9,2173.9 1924.7,2141.6 1908.7,2109.1 1894.1,2076.6 1880.8,2044.2 1869.1,2011.9 1859.0,1980.0 1850.6,1948.4 1844.1,1917.3 1839.4,1886.7 1836.7,1856.7 1835.9,1827.4 1837.3,1798.9 1840.6,1771.2 1846.1,1744.3 1853.7,1718.4 1863.4,1693.4 1875.1,1669.5 1889.0,1646.5 1904.9,1624.7 1922.8,1604.0 1942.7,1584.3 1964.5,1565.9 1988.1,1548.5 2013.5,1532.4 2040.6,1517.4 2069.2,1503.6 2099.3,1490.9 2130.8,1479.3 2163.4,1468.9 2197.2,1459.6 2231.9,1451.4 2267.4,1444.2 2303.5,1438.0 2340.1,1432.8 2376.8,1428.5 2413.7,1425.1  " style="stroke-opacity: 1.000000; stroke-width: 5.0; stroke: rgb(251,106,74); fill: none"  />
<path d="M 2413.7,1425.1 L 2377.8,1428.3 2342.1,1432.2 2306.8,1436.8 2272.2,1442.0 2238.4,1448.0 2205.6,1454.8 2174.0,1462.3 2143.8,1470.6 2115.1,1479.7 2088.1,1489.6 2062.9,1500.3 2039.6,1511.9 2018.4,1524.2 1999.3,1537.4 1982.4,1551.4 1967.8,1566.2 1955.5,1581.7 1945.6,1598.0 1938.1,1615.1 1933.1,1632.8 1930.4,1651.2 1930.3,1670.3 1932.5,1690.0 1937.2,1710.2 1944.2,1731.0 1953.5,1752.3 1965.1,1774.0 1978.8,1796.0 1994.5,1818.4 2012.3,1841.1 2031.9,1863.9 2053.2,1886.9 2076.1,1909.9 2100.4,1932.9 2126.0,1955.8 2152.7,1978.5 2180.3,2001.0 2208.6,2023.1 2237.4,2044.7  " style="stroke-opacity: 1.000000; stroke-width: 5.0; stroke: rgb(251,106,74); fill: none"  />
<path d="M 2413.7,1425.1 L 2377.4,1428.4 2341.2,1432.5 2305.3,1437.4 2270.0,1443.2 2235.4,1449.8 2201.7,1457.4 2169.2,1465.9 2137.8,1475.4 2107.9,1485.8 2079.4,1497.3 2052.7,1509.7 2027.6,1523.2 2004.5,1537.6 1983.3,1553.1 1964.2,1569.6 1947.1,1587.0 1932.2,1605.5 1919.6,1624.8 1909.2,1645.1 1901.0,1666.3 1895.2,1688.3 1891.6,1711.2 1890.3,1734.8 1891.3,1759.2 1894.5,1784.3 1899.8,1809.9 1907.3,1836.2 1916.9,1862.9 1928.4,1890.1 1941.9,1917.7 1957.1,1945.5 1974.1,1973.5 1992.6,2001.6 2012.5,2029.8 2033.7,2057.9 2056.1,2085.9 2079.4,2113.5 2103.5,2140.8 2128.3,2167.6  " style="stroke-opacity: 1.000000; stroke-width: 5.0; stroke: rgb(251,106,74); fill: none"  />
<path d="M 2413.7,1425.1 L 2376.8,1428.5 2340.1,1432.8 2303.5,1438.0 2267.4,1444.2 2231.9,1451.4 2197.2,1459.6 2163.4,1468.9 2130.8,1479.3 2099.3,1490.9 2069.2,1503.6 2040.6,1517.4 2013.5,1532.4 1988.1,1548.5 1964.5,1565.9 1942.7,1584.3 1922.8,1604.0 1904.9,1624.7 1889.0,1646.5 1875.1,1669.5 1863.4,1693.4 1853.7,1718.4 1846.1,1744.3 1840.6,1771.2 1837.3,1798.9 1835.9,1827.4 1836.7,1856.7 1839.4,1886.7 1844.1,1917.3 1850.6,1948.4 1859.0,1980.0 1869.1,2011.9 1880.8,2044.2 1894.1,2076.6 1908.7,2109.1 1924.7,2141.6 1941.9,2173.9 1960.1,2206.1 1979.2,2237.8 1999.0,2269.1  " style="stroke-opacity: 1.000000; stroke-width: 5.0; stroke: rgb(251,106,74); fill: none"  />
<path d="M 804.9,2097.7 L 834.8,2072.6 865.5,2048.0 897.1,2024.2 929.3,2001.2 962.2,1979.2 995.7,1958.3 1029.8,1938.6 1064.4,1920.2 1099.5,1903.1 1135.0,1887.5 1170.8,1873.5 1206.9,1861.1 1243.3,1850.3 1279.9,1841.2 1316.7,1834.0 1353.6,1828.5 1390.5,1824.9 1427.5,1823.1 1464.4,1823.1 1501.3,1825.1 1538.0,1828.9 1574.6,1834.6 1611.0,1842.1 1647.1,1851.4 1682.9,1862.5 1718.3,1875.4 1753.4,1889.9 1788.0,1906.1 1822.2,1923.8 1855.8,1943.1 1888.9,1963.7 1921.3,1985.7 1953.1,2008.9 1984.3,2033.3 2014.7,2058.6 2044.3,2084.8 2073.2,2111.9 2101.2,2139.5 2128.3,2167.6  " style="stroke-opacity: 1.000000; stroke-width: 5.0; stroke: rgb(251,106,74); fill: none"  />
<path d="M 804.9,2097.7 L 833.7,2073.5 863.2,2050.0 893.3,2027.2 923.9,2005.5 954.9,1984.8 986.4,1965.4 1018.1,1947.4 1050.0,1930.9 1082.0,1916.0 1114.1,1902.7 1146.3,1891.3 1178.4,1881.7 1210.3,1874.1 1242.1,1868.5 1273.7,1864.9 1304.9,1863.4 1335.8,1864.0 1366.4,1866.7 1396.5,1871.6 1426.1,1878.6 1455.1,1887.7 1483.7,1899.0 1511.6,1912.3 1538.8,1927.6 1565.4,1945.0 1591.3,1964.3 1616.5,1985.4 1640.9,2008.3 1664.5,2032.9 1687.3,2059.2 1709.3,2086.9 1730.4,2115.9 1750.6,2146.2 1770.0,2177.7 1788.5,2210.0 1806.2,2243.2 1822.9,2277.0 1838.7,2311.3 1853.6,2345.8  " style="stroke-opacity: 1.000000; stroke-width: 5.0; stroke: rgb(251,106,74); fill: none"  />
<path d="M 1853.6,2345.8 L 1838.7,2311.3 1822.9,2277.0 1806.2,2243.2 1788.5,2210.0 1770.0,2177.7 1750.6,2146.2 1730.4,2115.9 1709.3,2086.9 1687.3,2059.2 1664.5,2032.9 1640.9,2008.3 1616.5,1985.4 1591.3,1964.3 1565.4,1945.0 1538.8,1927.6 1511.6,1912.3 1483.7,1899.0 1455.1,1887.7 1426.1,1878.6 1396.5,1871.6 1366.4,1866.7 1335.8,1864.0 1304.9,1863.4 1273.7,1864.9 1242.1,1868.5 1210.3,1874.1 1178.4,1881.7 1146.3,1891.3 1114.1,1902.7 1082.0,1916.0 1050.0,1930.9 1018.1,1947.4 986.4,1965.4 954.9,1984.8 923.9,2005.5 893.3,2027.2 863.2,2050.0 833.7,2073.5 804.9,2097.7  " style="stroke-opacity: 1.000000; stroke-width: 5.0; stroke: rgb(251,106,74); fill: none"  />
<path d="M 1853.6,2345.8 L 1838.4,2310.6 1822.3,2275.7 1805.1,2241.1 1787.0,2207.1 1767.9,2173.7 1747.8,2141.2 1726.8,2109.7 1704.7,2079.2 1681.7,2050.0 1657.8,2022.0 1633.0,1995.5 1607.2,1970.5 1580.5,1947.1 1553.0,1925.3 1524.6,1905.3 1495.4,1887.0 1465.4,1870.6 1434.7,1856.0 1403.2,1843.4 1371.1,1832.7 1338.4,1823.9 1305.1,1817.1 1271.3,1812.2 1237.0,1809.3 1202.2,1808.3 1167.2,1809.1 1131.8,1811.8 1096.1,1816.4 1060.3,1822.6 1024.4,1830.6 988.5,1840.2 952.6,1851.3 916.8,1863.9 881.2,1877.9 845.9,1893.0 811.0,1909.4 776.5,1926.7 742.6,1945.0 709.3,1964.0  " style="stroke-opacity: 1.000000; stroke-width: 5.0; stroke: rgb(251,106,74); fill: none"  />
<path d="M 709.3,1964.0 L 744.7,1943.7 780.8,1924.0 817.6,1905.1 855.1,1886.9 893.2,1869.6 931.9,1853.2 971.1,1837.8 1010.8,1823.5 1050.9,1810.4 1091.4,1798.5 1132.2,1787.9 1173.3,1778.6 1214.7,1770.6 1256.3,1764.0 1298.0,1758.9 1339.8,1755.1 1381.8,1752.9 1423.7,1752.1 1465.6,1752.8 1507.5,1755.1 1549.3,1758.8 1590.9,1764.0 1632.4,1770.6 1673.6,1778.7 1714.6,1788.2 1755.2,1799.2 1795.5,1811.5 1835.4,1825.1 1874.9,1839.9 1913.9,1856.0 1952.4,1873.3 1990.4,1891.7 2027.7,1911.1 2064.4,1931.4 2100.5,1952.7 2135.9,1974.7 2170.5,1997.5 2204.3,2020.8 2237.4,2044.7  " style="stroke-opacity: 1.000000; stroke-width: 5.0; stroke: rgb(251,106,74); fill: none"  />
<path d="M 709.3,1964.0 L 743.9,1944.2 779.3,1925.0 815.4,1906.7 852.1,1889.2 889.3,1872.7 927.1,1857.3 965.3,1843.1 1003.9,1830.0 1042.8,1818.3 1082.1,1808.0 1121.5,1799.1 1161.1,1791.7 1200.9,1785.8 1240.7,1781.5 1280.5,1778.9 1320.4,1777.8 1360.1,1778.4 1399.7,1780.7 1439.1,1784.7 1478.3,1790.3 1517.3,1797.6 1555.9,1806.5 1594.2,1817.1 1632.2,1829.3 1669.6,1843.1 1706.6,1858.4 1743.1,1875.2 1779.1,1893.5 1814.4,1913.1 1849.2,1934.1 1883.2,1956.3 1916.6,1979.6 1949.3,2004.0 1981.2,2029.4 2012.3,2055.7 2042.6,2082.8 2072.0,2110.6 2100.6,2138.9 2128.3,2167.6  " style="stroke-opacity: 1.000000; stroke-width: 5.0; stroke: rgb(251,106,74); fill: none"  />
<path d="M 709.3,1964.0 L 742.6,1945.0 776.5,1926.7 811.0,1909.4 845.9,1893.0 881.2,1877.9 916.8,1863.9 952.6,1851.3 988.5,1840.2 1024.4,1830.6 1060.3,1822.6 1096.1,1816.4 1131.8,1811.8 1167.2,1809.1 1202.2,1808.3 1237.0,1809.3 1271.3,1812.2 1305.1,1817.1 1338.4,1823.9 1371.1,1832.7 1403.2,1843.4 1434.7,1856.0 1465.4,1870.6 1495.4,1887.0 1524.6,1905.3 1553.0,1925.3 1580.5,1947.1 1607.2,1970.5 1633.0,1995.5 1657.8,2022.0 1681.7,2050.0 1704.7,2079.2 1726.8,2109.7 1747.8,2141.2 1767.9,2173.7 1787.0,2207.1 1805.1,2241.1 1822.3,2275.7 1838.4,2310.6 1853.6,2345.8  " style="stroke-opacity: 1.000000; stroke-width: 5.0; stroke: rgb(251,106,74); fill: none"  />
<path d="M 639.2,1815.3 L 678.4,1801.4 718.3,1788.0 758.8,1775.4 799.8,1763.5 841.3,1752.5 883.2,1742.4 925.5,1733.2 968.2,1725.0 1011.1,1717.9 1054.3,1711.8 1097.7,1706.9 1141.3,1703.2 1185.0,1700.6 1228.8,1699.3 1272.7,1699.2 1316.5,1700.3 1360.3,1702.7 1403.9,1706.4 1447.5,1711.3 1490.9,1717.6 1534.1,1725.1 1577.1,1733.8 1619.8,1743.8 1662.2,1755.1 1704.2,1767.5 1745.8,1781.1 1787.0,1795.9 1827.8,1811.7 1868.1,1828.6 1907.9,1846.6 1947.1,1865.5 1985.7,1885.4 2023.7,1906.1 2061.1,1927.6 2097.8,1949.8 2133.8,1972.8 2169.1,1996.3 2203.6,2020.3 2237.4,2044.7  " style="stroke-opacity: 1.000000; stroke-width: 5.0; stroke: rgb(251,106,74); fill: none"  />
<path d="M 639.2,1815.3 L 677.6,1801.7 716.6,1788.8 756.3,1776.7 796.4,1765.5 837.0,1755.3 878.0,1746.1 919.3,1737.9 960.9,1731.0 1002.7,1725.2 1044.6,1720.8 1086.7,1717.6 1128.8,1715.8 1170.9,1715.3 1213.0,1716.3 1255.0,1718.6 1296.9,1722.4 1338.5,1727.7 1379.9,1734.5 1421.0,1742.7 1461.9,1752.3 1502.3,1763.4 1542.3,1775.9 1581.9,1789.9 1621.0,1805.2 1659.6,1821.9 1697.7,1839.9 1735.1,1859.2 1772.0,1879.7 1808.2,1901.4 1843.7,1924.2 1878.5,1948.1 1912.5,1972.9 1945.8,1998.7 1978.3,2025.3 2010.0,2052.6 2040.9,2080.6 2070.9,2109.2 2100.0,2138.2 2128.3,2167.6  " style="stroke-opacity: 1.000000; stroke-width: 5.0; stroke: rgb(251,106,74); fill: none"  />
<path d="M 639.2,1815.3 L 675.3,1802.6 711.9,1790.7 748.9,1779.8 786.2,1769.9 823.7,1761.3 861.2,1753.9 898.6,1747.9 935.9,1743.4 973.0,1740.4 1009.8,1739.0 1046.1,1739.2 1082.0,1741.1 1117.3,1744.7 1152.0,1750.1 1186.0,1757.3 1219.2,1766.4 1251.6,1777.2 1283.2,1789.9 1313.8,1804.3 1343.5,1820.6 1372.2,1838.7 1399.8,1858.4 1426.4,1880.0 1451.8,1903.1 1476.2,1927.9 1499.4,1954.3 1521.4,1982.1 1542.3,2011.3 1562.1,2041.8 1580.6,2073.6 1598.0,2106.5 1614.3,2140.4 1629.3,2175.2 1643.3,2210.7 1656.1,2247.0 1667.9,2283.7 1678.6,2320.8 1688.2,2358.0 1696.9,2395.4  " style="stroke-opacity: 1.000000; stroke-width: 5.0; stroke: rgb(251,106,74); fill: none"  />
<path d="M 1696.9,2395.4 L 1688.1,2353.7 1679.9,2311.5 1672.3,2268.8 1665.4,2225.7 1659.3,2182.2 1654.0,2138.4 1649.5,2094.3 1645.9,2049.9 1643.2,2005.3 1641.4,1960.5 1640.6,1915.5 1640.7,1870.5 1641.9,1825.4 1644.0,1780.3 1647.2,1735.1 1651.5,1690.1 1656.8,1645.1 1663.1,1600.2 1670.5,1555.4 1679.0,1510.9 1688.5,1466.5 1699.0,1422.4 1710.6,1378.6 1723.1,1335.1 1736.7,1291.9 1751.2,1249.1 1766.6,1206.7 1782.9,1164.8 1800.2,1123.3 1818.2,1082.2 1837.1,1041.7 1856.7,1001.7 1877.1,962.3 1898.1,923.5 1919.7,885.3 1941.8,847.7 1964.5,810.7 1987.6,774.5 2011.1,738.9  " style="stroke-opacity: 1.000000; stroke-width: 5.0; stroke: rgb(251,106,74); fill: none"  />
<path d="M 1696.9,2395.4 L 1688.2,2358.0 1678.6,2320.8 1667.9,2283.7 1656.1,2247.0 1643.3,2210.7 1629.3,2175.2 1614.3,2140.4 1598.0,2106.5 1580.6,2073.6 1562.1,2041.8 1542.3,2011.3 1521.4,1982.1 1499.4,1954.3 1476.2,1927.9 1451.8,1903.1 1426.4,1880.0 1399.8,1858.4 1372.2,1838.7 1343.5,1820.6 1313.8,1804.3 1283.2,1789.9 1251.6,1777.2 1219.2,1766.4 1186.0,1757.3 1152.0,1750.1 1117.3,1744.7 1082.0,1741.1 1046.1,1739.2 1009.8,1739.0 973.0,1740.4 935.9,1743.4 898.6,1747.9 861.2,1753.9 823.7,1761.3 786.2,1769.9 748.9,1779.8 711.9,1790.7 675.3,1802.6 639.2,1815.3  " style="stroke-opacity: 1.000000; stroke-width: 5.0; stroke: rgb(251,106,74); fill: none"  />
<path d="M 2381.8,1750.9 L 2345.5,1741.0 2308.8,1732.0 2271.9,1724.0 2235.0,1717.1 2198.2,1711.4 2161.5,1707.0 2125.2,1703.9 2089.3,1702.3 2053.9,1702.2 2019.2,1703.7 1985.3,1706.8 1952.1,1711.6 1919.9,1718.1 1888.7,1726.3 1858.6,1736.3 1829.5,1748.0 1801.7,1761.5 1775.2,1776.8 1749.9,1793.8 1725.9,1812.6 1703.4,1833.1 1682.2,1855.3 1662.5,1879.1 1644.2,1904.5 1627.3,1931.4 1611.9,1959.7 1597.9,1989.5 1585.4,2020.5 1574.3,2052.8 1564.6,2086.1 1556.3,2120.5 1549.3,2155.8 1543.6,2191.8 1539.2,2228.4 1536.0,2265.6 1533.9,2303.1 1532.9,2340.8 1532.9,2378.5 1533.9,2416.1  " style="stroke-opacity: 1.000000; stroke-width: 5.0; stroke: rgb(251,106,74); fill: none"  />
<path d="M 1533.9,2416.1 L 1532.4,2371.6 1531.4,2326.8 1530.8,2281.7 1530.6,2236.3 1530.9,2190.7 1531.7,2144.9 1533.0,2099.0 1534.8,2052.8 1537.2,2006.6 1540.1,1960.2 1543.6,1913.7 1547.6,1867.2 1552.3,1820.6 1557.5,1774.1 1563.3,1727.5 1569.7,1680.9 1576.6,1634.4 1584.2,1587.9 1592.4,1541.5 1601.2,1495.2 1610.6,1449.1 1620.5,1403.0 1631.1,1357.2 1642.2,1311.5 1653.8,1266.0 1666.0,1220.8 1678.8,1175.7 1692.1,1131.0 1705.8,1086.5 1720.1,1042.2 1734.9,998.3 1750.0,954.7 1765.7,911.5 1781.7,868.6 1798.1,826.0 1814.9,783.9 1831.9,742.1 1849.3,700.8 1867.0,659.9  " style="stroke-opacity: 1.000000; stroke-width: 5.0; stroke: rgb(251,106,74); fill: none"  />
<path d="M 1533.9,2416.1 L 1532.2,2380.1 1530.0,2344.3 1527.0,2308.9 1523.3,2274.0 1518.8,2239.9 1513.5,2206.9 1507.4,2175.0 1500.5,2144.4 1492.7,2115.4 1484.0,2088.0 1474.4,2062.3 1463.9,2038.6 1452.5,2016.8 1440.2,1997.1 1427.0,1979.6 1412.9,1964.3 1397.9,1951.4 1382.1,1940.7 1365.4,1932.5 1347.9,1926.7 1329.6,1923.2 1310.6,1922.2 1290.8,1923.6 1270.4,1927.3 1249.3,1933.4 1227.6,1941.7 1205.4,1952.3 1182.8,1965.0 1159.7,1979.7 1136.3,1996.4 1112.6,2015.0 1088.7,2035.3 1064.7,2057.1 1040.6,2080.4 1016.6,2104.9 992.7,2130.6 969.0,2157.1 945.7,2184.4 922.8,2212.2  " style="stroke-opacity: 1.000000; stroke-width: 5.0; stroke: rgb(251,106,74); fill: none"  />
<path d="M 1533.9,2416.1 L 1532.9,2378.5 1532.9,2340.8 1533.9,2303.1 1536.0,2265.6 1539.2,2228.4 1543.6,2191.8 1549.3,2155.8 1556.3,2120.5 1564.6,2086.1 1574.3,2052.8 1585.4,2020.5 1597.9,1989.5 1611.9,1959.7 1627.3,1931.4 1644.2,1904.5 1662.5,1879.1 1682.2,1855.3 1703.4,1833.1 1725.9,1812.6 1749.9,1793.8 1775.2,1776.8 1801.7,1761.5 1829.5,1748.0 1858.6,1736.3 1888.7,1726.3 1919.9,1718.1 1952.1,1711.6 1985.3,1706.8 2019.2,1703.7 2053.9,1702.2 2089.3,1702.3 2125.2,1703.9 2161.5,1707.0 2198.2,1711.4 2235.0,1717.1 2271.9,1724.0 2308.8,1732.0 2345.5,1741.0 2381.8,1750.9  " style="stroke-opacity: 1.000000; stroke-width: 5.0; stroke: rgb(251,106,74); fill: none"  />
</g>
<g id="track_0">
<path d="M 2322.8,1904.3 L 2291.1,1888.8 2259.6,1873.6 2228.4,1858.8 2197.8,1844.5 2168.1,1830.9 2139.3,1817.9 2111.6,1805.8 2085.2,1794.7 2060.3,1784.5 2037.0,1775.4 2015.5,1767.4 1995.7,1760.6 1977.9,1755.1 1962.1,1750.8 1948.4,1747.9 1936.9,1746.4 1927.6,1746.2 1920.5,1747.5 1915.7,1750.1 1913.3,1754.2 1913.1,1759.6 1915.3,1766.4 1919.7,1774.6 1926.4,1784.2 1935.2,1795.0 1946.3,1807.1 1959.4,1820.3 1974.5,1834.8 1991.5,1850.3 2010.3,1866.8 2030.8,1884.2 2052.8,1902.4 2076.3,1921.5 2101.0,1941.1 2126.8,1961.3 2153.6,1981.8 2181.1,2002.7 2209.1,2023.7 2237.4,2044.7  " style="stroke-opacity: 1.000000; stroke-width: 5.0; stroke: rgb(107,174,214); fill: none"  />
<path d="M 2322.8,1904.3 L 2290.7,1888.8 2258.5,1873.8 2226.5,1859.5 2194.7,1846.0 2163.5,1833.5 2133.0,1822.0 2103.3,1811.7 2074.6,1802.6 2046.9,1794.9 2020.6,1788.6 1995.5,1783.9 1971.9,1780.6 1949.9,1779.0 1929.5,1779.1 1910.9,1780.9 1894.0,1784.4 1878.9,1789.6 1865.7,1796.6 1854.5,1805.3 1845.2,1815.8 1837.9,1828.0 1832.5,1841.9 1829.1,1857.5 1827.6,1874.7 1828.1,1893.4 1830.4,1913.7 1834.6,1935.3 1840.6,1958.4 1848.3,1982.7 1857.7,2008.1 1868.6,2034.7 1881.0,2062.1 1894.8,2090.4 1909.8,2119.3 1925.9,2148.8 1943.1,2178.7 1961.1,2208.8 1979.7,2239.0 1999.0,2269.1  " style="stroke-opacity: 1.000000; stroke-width: 5.0; stroke: rgb(107,174,214); fill: none"  />
<path d="M 2322.8,1904.3 L 2289.4,1888.3 2255.6,1873.2 2221.6,1858.9 2187.4,1845.7 2153.2,1833.7 2119.2,1822.9 2085.5,1813.6 2052.1,1805.8 2019.1,1799.6 1986.8,1795.0 1955.1,1792.2 1924.2,1791.2 1894.1,1792.0 1864.9,1794.8 1836.8,1799.5 1809.6,1806.1 1783.6,1814.7 1758.8,1825.3 1735.1,1837.9 1712.7,1852.4 1691.6,1868.9 1671.8,1887.3 1653.3,1907.5 1636.2,1929.6 1620.5,1953.4 1606.1,1978.9 1593.0,2006.0 1581.3,2034.7 1571.0,2064.8 1562.0,2096.2 1554.3,2128.8 1547.8,2162.4 1542.5,2197.1 1538.5,2232.5 1535.5,2268.6 1533.7,2305.2 1532.8,2342.1 1532.9,2379.1 1533.9,2416.1  " style="stroke-opacity: 1.000000; stroke-width: 5.0; stroke: rgb(107,174,214); fill: none"  />
<path d="M 1369.8,2407.5 L 1374.6,2372.4 1379.1,2337.5 1383.2,2303.0 1386.7,2269.2 1389.7,2236.2 1392.1,2204.3 1393.8,2173.7 1394.9,2144.5 1395.2,2116.9 1394.7,2091.1 1393.5,2067.1 1391.4,2045.2 1388.5,2025.4 1384.7,2007.8 1380.1,1992.5 1374.6,1979.5 1368.3,1969.0 1361.1,1961.0 1353.0,1955.5 1344.0,1952.5 1334.2,1952.1 1323.7,1954.1 1312.3,1958.7 1300.1,1965.8 1287.2,1975.2 1273.7,1987.0 1259.4,2001.1 1244.6,2017.4 1229.2,2035.8 1213.4,2056.2 1197.0,2078.5 1180.3,2102.4 1163.3,2128.0 1146.1,2154.9 1128.7,2183.1 1111.2,2212.2 1093.7,2242.2 1076.4,2272.8 1059.2,2303.8  " style="stroke-opacity: 1.000000; stroke-width: 5.0; stroke: rgb(107,174,214); fill: none"  />
<path d="M 1548.4,584.5 L 1546.6,619.7 1545.0,654.7 1543.6,689.2 1542.5,722.9 1541.7,755.7 1541.1,787.2 1540.9,817.4 1540.9,846.0 1541.3,872.9 1542.1,898.0 1543.3,920.9 1544.8,941.8 1546.7,960.3 1549.0,976.5 1551.8,990.2 1554.9,1001.4 1558.4,1010.1 1562.3,1016.1 1566.6,1019.4 1571.3,1020.1 1576.3,1018.1 1581.8,1013.4 1587.6,1006.1 1593.7,996.3 1600.2,983.8 1607.0,969.0 1614.0,951.7 1621.3,932.1 1628.9,910.4 1636.7,886.6 1644.7,860.9 1652.8,833.5 1661.0,804.4 1669.4,774.0 1677.8,742.3 1686.2,709.6 1694.6,676.2 1702.9,642.2 1711.1,607.9  " style="stroke-opacity: 1.000000; stroke-width: 5.0; stroke: rgb(107,174,214); fill: none"  />
<path d="M 1548.4,584.5 L 1546.7,619.9 1545.3,655.1 1544.4,689.8 1543.9,723.8 1543.9,756.9 1544.3,788.8 1545.4,819.5 1546.9,848.7 1549.1,876.2 1551.9,901.9 1555.3,925.6 1559.3,947.3 1564.0,966.8 1569.3,984.0 1575.2,998.8 1581.9,1011.2 1589.1,1021.0 1597.1,1028.4 1605.6,1033.1 1614.8,1035.3 1624.6,1034.9 1634.9,1031.9 1645.9,1026.3 1657.3,1018.2 1669.3,1007.6 1681.8,994.6 1694.7,979.3 1708.0,961.7 1721.6,942.0 1735.6,920.3 1749.9,896.7 1764.4,871.3 1779.0,844.4 1793.8,816.0 1808.6,786.4 1823.4,755.8 1838.1,724.3 1852.6,692.3 1867.0,659.9  " style="stroke-opacity: 1.000000; stroke-width: 5.0; stroke: rgb(107,174,214); fill: none"  />
<path d="M 1548.4,584.5 L 1546.7,620.2 1545.6,655.6 1545.1,690.7 1545.1,725.2 1545.9,758.8 1547.3,791.4 1549.5,822.7 1552.4,852.7 1556.2,881.2 1560.8,907.9 1566.3,932.8 1572.6,955.7 1579.8,976.6 1587.8,995.3 1596.8,1011.8 1606.7,1026.0 1617.4,1037.8 1629.0,1047.1 1641.4,1054.0 1654.7,1058.5 1668.8,1060.4 1683.7,1059.9 1699.4,1056.9 1715.8,1051.5 1732.8,1043.7 1750.5,1033.6 1768.8,1021.2 1787.6,1006.7 1806.9,990.0 1826.7,971.4 1846.8,950.9 1867.1,928.7 1887.7,905.0 1908.4,879.8 1929.2,853.3 1950.0,825.8 1970.6,797.5 1991.0,768.4 2011.1,738.9  " style="stroke-opacity: 1.000000; stroke-width: 5.0; stroke: rgb(107,174,214); fill: none"  />
<path d="M 1548.4,584.5 L 1546.8,620.5 1545.9,656.4 1545.6,692.0 1546.2,727.0 1547.6,761.4 1549.9,794.8 1553.1,827.1 1557.3,858.1 1562.4,887.7 1568.6,915.8 1575.9,942.2 1584.2,966.9 1593.6,989.6 1604.1,1010.3 1615.7,1028.9 1628.4,1045.3 1642.1,1059.6 1656.9,1071.6 1672.8,1081.3 1689.7,1088.7 1707.6,1093.7 1726.5,1096.5 1746.3,1096.9 1767.0,1095.0 1788.6,1090.8 1810.9,1084.5 1833.9,1075.9 1857.6,1065.3 1881.9,1052.7 1906.7,1038.2 1932.0,1021.8 1957.6,1003.8 1983.5,984.2 2009.6,963.1 2035.7,940.9 2061.8,917.5 2087.7,893.1 2113.4,868.0 2138.8,842.4  " style="stroke-opacity: 1.000000; stroke-width: 5.0; stroke: rgb(107,174,214); fill: none"  />
<path d="M 1548.4,584.5 L 1546.8,621.0 1546.0,657.4 1546.1,693.6 1547.1,729.3 1549.0,764.5 1552.0,798.9 1556.1,832.3 1561.2,864.7 1567.6,895.7 1575.1,925.4 1583.8,953.7 1593.8,980.2 1605.0,1005.1 1617.5,1028.2 1631.3,1049.4 1646.3,1068.6 1662.5,1085.8 1680.0,1101.0 1698.7,1114.0 1718.6,1124.9 1739.7,1133.7 1761.9,1140.3 1785.1,1144.8 1809.4,1147.1 1834.6,1147.3 1860.8,1145.4 1887.8,1141.5 1915.6,1135.6 1944.1,1127.8 1973.2,1118.2 2002.8,1106.8 2032.8,1093.8 2063.2,1079.2 2093.8,1063.3 2124.5,1046.0 2155.2,1027.6 2185.7,1008.2 2216.0,987.9 2245.9,967.0  " style="stroke-opacity: 1.000000; stroke-width: 5.0; stroke: rgb(107,174,214); fill: none"  />
<path d="M 1209.8,2369.6 L 1220.9,2336.1 1231.7,2302.8 1242.2,2270.0 1252.3,2237.8 1261.8,2206.4 1270.8,2176.2 1279.0,2147.1 1286.6,2119.5 1293.3,2093.5 1299.2,2069.1 1304.2,2046.7 1308.3,2026.2 1311.4,2007.8 1313.5,1991.6 1314.5,1977.6 1314.5,1966.0 1313.4,1956.7 1311.2,1949.9 1308.0,1945.6 1303.6,1943.7 1298.2,1944.2 1291.7,1947.3 1284.2,1952.8 1275.6,1960.7 1266.1,1970.9 1255.6,1983.4 1244.2,1998.2 1232.0,2015.1 1218.9,2034.0 1205.1,2054.9 1190.5,2077.5 1175.4,2101.8 1159.7,2127.7 1143.6,2154.8 1127.1,2183.1 1110.3,2212.3 1093.3,2242.4 1076.2,2272.9 1059.2,2303.8  " style="stroke-opacity: 1.000000; stroke-width: 5.0; stroke: rgb(107,174,214); fill: none"  />
<path d="M 1059.2,2303.8 L 1076.4,2272.8 1093.7,2242.2 1111.2,2212.2 1128.7,2183.1 1146.1,2154.9 1163.3,2128.0 1180.3,2102.4 1197.0,2078.5 1213.4,2056.2 1229.2,2035.8 1244.6,2017.4 1259.4,2001.1 1273.7,1987.0 1287.2,1975.2 1300.1,1965.8 1312.3,1958.7 1323.7,1954.1 1334.2,1952.1 1344.0,1952.5 1353.0,1955.5 1361.1,1961.0 1368.3,1969.0 1374.6,1979.5 1380.1,1992.5 1384.7,2007.8 1388.5,2025.4 1391.4,2045.2 1393.5,2067.1 1394.7,2091.1 1395.2,2116.9 1394.9,2144.5 1393.8,2173.7 1392.1,2204.3 1389.7,2236.2 1386.7,2269.2 1383.2,2303.0 1379.1,2337.5 1374.6,2372.4 1369.8,2407.5  " style="stroke-opacity: 1.000000; stroke-width: 5.0; stroke: rgb(107,174,214); fill: none"  />
<path d="M 1059.2,2303.8 L 1076.2,2272.9 1093.3,2242.4 1110.3,2212.3 1127.1,2183.1 1143.6,2154.8 1159.7,2127.7 1175.4,2101.8 1190.5,2077.5 1205.1,2054.9 1218.9,2034.0 1232.0,2015.1 1244.2,1998.2 1255.6,1983.4 1266.1,1970.9 1275.6,1960.7 1284.2,1952.8 1291.7,1947.3 1298.2,1944.2 1303.6,1943.7 1308.0,1945.6 1311.2,1949.9 1313.4,1956.7 1314.5,1966.0 1314.5,1977.6 1313.5,1991.6 1311.4,2007.8 1308.3,2026.2 1304.2,2046.7 1299.2,2069.1 1293.3,2093.5 1286.6,2119.5 1279.0,2147.1 1270.8,2176.2 1261.8,2206.4 1252.3,2237.8 1242.2,2270.0 1231.7,2302.8 1220.9,2336.1 1209.8,2369.6  " style="stroke-opacity: 1.000000; stroke-width: 5.0; stroke: rgb(107,174,214); fill: none"  />
<path d="M 1059.2,2303.8 L 1076.1,2272.4 1092.5,2241.0 1108.3,2209.6 1123.2,2178.5 1137.1,2147.9 1149.9,2117.9 1161.6,2088.7 1171.9,2060.4 1180.8,2033.2 1188.3,2007.1 1194.2,1982.3 1198.5,1958.9 1201.0,1936.9 1201.9,1916.6 1201.0,1897.8 1198.2,1880.8 1193.7,1865.5 1187.3,1852.1 1179.1,1840.4 1169.0,1830.7 1157.2,1822.8 1143.5,1816.8 1128.1,1812.7 1111.0,1810.5 1092.3,1810.1 1071.9,1811.5 1050.1,1814.7 1026.8,1819.7 1002.2,1826.3 976.3,1834.5 949.3,1844.2 921.4,1855.4 892.5,1867.9 862.9,1881.6 832.7,1896.4 802.1,1912.2 771.2,1928.8 740.2,1946.1 709.3,1964.0  " style="stroke-opacity: 1.000000; stroke-width: 5.0; stroke: rgb(107,174,214); fill: none"  />
<path d="M 1711.1,607.9 L 1702.9,642.2 1694.6,676.2 1686.2,709.6 1677.8,742.3 1669.4,774.0 1661.0,804.4 1652.8,833.5 1644.7,860.9 1636.7,886.6 1628.9,910.4 1621.3,932.1 1614.0,951.7 1607.0,969.0 1600.2,983.8 1593.7,996.3 1587.6,1006.1 1581.8,1013.4 1576.3,1018.1 1571.3,1020.1 1566.6,1019.4 1562.3,1016.1 1558.4,1010.1 1554.9,1001.4 1551.8,990.2 1549.0,976.5 1546.7,960.3 1544.8,941.8 1543.3,920.9 1542.1,898.0 1541.3,872.9 1540.9,846.0 1540.9,817.4 1541.1,787.2 1541.7,755.7 1542.5,722.9 1543.6,689.2 1545.0,654.7 1546.6,619.7 1548.4,584.5  " style="stroke-opacity: 1.000000; stroke-width: 5.0; stroke: rgb(107,174,214); fill: none"  />
<path d="M 1711.1,607.9 L 1703.0,642.2 1695.2,676.3 1687.7,710.0 1680.6,743.0 1673.9,775.1 1667.7,806.0 1662.1,835.7 1657.0,863.9 1652.6,890.4 1649.0,915.2 1646.0,938.0 1643.8,958.7 1642.3,977.3 1641.7,993.7 1641.9,1007.7 1643.0,1019.3 1644.9,1028.4 1647.7,1035.0 1651.3,1039.0 1655.8,1040.5 1661.2,1039.5 1667.4,1035.9 1674.4,1029.7 1682.2,1021.1 1690.7,1010.0 1700.1,996.6 1710.1,980.9 1720.8,962.9 1732.1,942.9 1744.0,920.9 1756.4,897.0 1769.3,871.5 1782.6,844.4 1796.3,815.9 1810.2,786.2 1824.3,755.6 1838.5,724.2 1852.8,692.2 1867.0,659.9  " style="stroke-opacity: 1.000000; stroke-width: 5.0; stroke: rgb(107,174,214); fill: none"  />
<path d="M 1711.1,607.9 L 1703.1,642.6 1695.6,677.3 1688.8,711.8 1682.8,745.7 1677.5,778.9 1673.1,811.2 1669.6,842.5 1667.2,872.5 1665.8,901.1 1665.6,928.3 1666.5,953.7 1668.6,977.4 1671.9,999.3 1676.5,1019.1 1682.4,1036.9 1689.6,1052.6 1698.0,1066.1 1707.8,1077.4 1718.8,1086.4 1731.1,1093.2 1744.6,1097.6 1759.4,1099.8 1775.3,1099.6 1792.4,1097.2 1810.6,1092.6 1829.8,1085.8 1850.0,1076.9 1871.1,1066.0 1893.1,1053.0 1915.8,1038.2 1939.2,1021.7 1963.2,1003.5 1987.7,983.8 2012.6,962.7 2037.8,940.4 2063.1,917.0 2088.5,892.8 2113.7,867.8 2138.8,842.4  " style="stroke-opacity: 1.000000; stroke-width: 5.0; stroke: rgb(107,174,214); fill: none"  />
<path d="M 1711.1,607.9 L 1703.1,643.0 1695.7,678.2 1689.2,713.1 1683.5,747.7 1678.7,781.7 1675.0,815.0 1672.4,847.4 1671.0,878.7 1670.8,908.7 1671.8,937.5 1674.3,964.8 1678.1,990.5 1683.3,1014.5 1689.9,1036.7 1698.0,1057.1 1707.5,1075.6 1718.5,1092.1 1730.9,1106.5 1744.8,1118.9 1760.1,1129.2 1776.8,1137.4 1794.9,1143.4 1814.4,1147.3 1835.1,1149.2 1857.0,1148.9 1880.1,1146.6 1904.3,1142.4 1929.5,1136.2 1955.7,1128.1 1982.7,1118.2 2010.5,1106.6 2038.9,1093.5 2067.8,1078.8 2097.2,1062.8 2126.9,1045.5 2156.8,1027.1 2186.7,1007.8 2216.4,987.7 2245.9,967.0  " style="stroke-opacity: 1.000000; stroke-width: 5.0; stroke: rgb(107,174,214); fill: none"  />
<path d="M 2237.4,2044.7 L 2209.1,2023.7 2181.1,2002.7 2153.6,1981.8 2126.8,1961.3 2101.0,1941.1 2076.3,1921.5 2052.8,1902.4 2030.8,1884.2 2010.3,1866.8 1991.5,1850.3 1974.5,1834.8 1959.4,1820.3 1946.3,1807.1 1935.2,1795.0 1926.4,1784.2 1919.7,1774.6 1915.3,1766.4 1913.1,1759.6 1913.3,1754.2 1915.7,1750.1 1920.5,1747.5 1927.6,1746.2 1936.9,1746.4 1948.4,1747.9 1962.1,1750.8 1977.9,1755.1 1995.7,1760.6 2015.5,1767.4 2037.0,1775.4 2060.3,1784.5 2085.2,1794.7 2111.6,1805.8 2139.3,1817.9 2168.1,1830.9 2197.8,1844.5 2228.4,1858.8 2259.6,1873.6 2291.1,1888.8 2322.8,1904.3  " style="stroke-opacity: 1.000000; stroke-width: 5.0; stroke: rgb(107,174,214); fill: none"  />
<path d="M 2237.4,2044.7 L 2209.0,2023.8 2180.7,2003.2 2152.6,1983.1 2125.1,1963.6 2098.3,1944.8 2072.2,1927.0 2047.2,1910.1 2023.2,1894.4 2000.5,1880.0 1979.2,1866.8 1959.4,1855.1 1941.2,1844.9 1924.7,1836.3 1909.9,1829.3 1896.9,1824.0 1885.9,1820.4 1876.7,1818.6 1869.6,1818.6 1864.4,1820.3 1861.3,1823.9 1860.1,1829.2 1861.0,1836.3 1863.9,1845.2 1868.8,1855.7 1875.6,1868.0 1884.3,1881.8 1894.8,1897.2 1907.1,1914.1 1921.0,1932.4 1936.6,1952.0 1953.7,1972.8 1972.1,1994.7 1991.8,2017.6 2012.6,2041.3 2034.4,2065.8 2057.1,2090.8 2080.4,2116.2 2104.2,2141.9 2128.3,2167.6  " style="stroke-opacity: 1.000000; stroke-width: 5.0; stroke: rgb(107,174,214); fill: none"  />
<path d="M 2237.4,2044.7 L 2208.8,2023.8 2180.2,2003.3 2151.7,1983.4 2123.6,1964.2 2096.0,1946.0 2069.1,1928.8 2042.9,1912.7 2017.7,1898.0 1993.6,1884.6 1970.6,1872.8 1948.9,1862.6 1928.6,1854.0 1909.8,1847.1 1892.5,1842.1 1876.8,1838.9 1862.9,1837.6 1850.6,1838.2 1840.1,1840.8 1831.4,1845.3 1824.6,1851.8 1819.5,1860.2 1816.3,1870.5 1815.0,1882.7 1815.4,1896.7 1817.7,1912.5 1821.6,1930.1 1827.3,1949.3 1834.6,1970.1 1843.6,1992.4 1854.0,2016.0 1865.8,2040.9 1879.0,2067.0 1893.5,2094.1 1909.0,2122.0 1925.5,2150.7 1943.0,2179.9 1961.1,2209.5 1979.8,2239.3 1999.0,2269.1  " style="stroke-opacity: 1.000000; stroke-width: 5.0; stroke: rgb(107,174,214); fill: none"  />
<path d="M 2237.4,2044.7 L 2208.2,2023.6 2178.8,2003.0 2149.2,1983.2 2119.6,1964.4 2090.2,1946.6 2061.1,1930.1 2032.4,1915.0 2004.2,1901.4 1976.6,1889.4 1949.7,1879.1 1923.7,1870.6 1898.6,1864.0 1874.4,1859.3 1851.4,1856.7 1829.5,1856.1 1808.7,1857.6 1789.2,1861.2 1771.1,1867.0 1754.2,1874.9 1738.7,1884.9 1724.7,1897.1 1712.0,1911.4 1700.7,1927.7 1690.9,1946.0 1682.5,1966.2 1675.5,1988.4 1670.0,2012.3 1665.8,2037.9 1662.9,2065.2 1661.4,2093.9 1661.1,2124.0 1662.0,2155.3 1664.1,2187.7 1667.3,2221.0 1671.5,2255.1 1676.7,2289.8 1682.7,2324.8 1689.5,2360.1 1696.9,2395.4  " style="stroke-opacity: 1.000000; stroke-width: 5.0; stroke: rgb(107,174,214); fill: none"  />
<path d="M 2237.4,2044.7 L 2207.8,2023.3 2177.9,2002.6 2147.6,1982.7 2117.2,1963.8 2086.8,1946.1 2056.5,1929.6 2026.3,1914.6 1996.5,1901.1 1967.1,1889.3 1938.1,1879.2 1909.8,1870.9 1882.1,1864.6 1855.1,1860.3 1829.0,1858.0 1803.8,1857.8 1779.4,1859.7 1756.1,1863.8 1733.8,1870.1 1712.7,1878.5 1692.6,1889.1 1673.7,1901.8 1655.9,1916.7 1639.4,1933.6 1624.1,1952.6 1610.0,1973.6 1597.2,1996.5 1585.6,2021.2 1575.2,2047.6 1566.0,2075.7 1558.0,2105.3 1551.2,2136.2 1545.5,2168.5 1540.9,2201.8 1537.4,2236.2 1534.9,2271.3 1533.3,2307.1 1532.7,2343.2 1532.9,2379.7 1533.9,2416.1  " style="stroke-opacity: 1.000000; stroke-width: 5.0; stroke: rgb(107,174,214); fill: none"  />
<path d="M 1867.0,659.9 L 1852.6,692.3 1838.1,724.3 1823.4,755.8 1808.6,786.4 1793.8,816.0 1779.0,844.4 1764.4,871.3 1749.9,896.7 1735.6,920.3 1721.6,942.0 1708.0,961.7 1694.7,979.3 1681.8,994.6 1669.3,1007.6 1657.3,1018.2 1645.9,1026.3 1634.9,1031.9 1624.6,1034.9 1614.8,1035.3 1605.6,1033.1 1597.1,1028.4 1589.1,1021.0 1581.9,1011.2 1575.2,998.8 1569.3,984.0 1564.0,966.8 1559.3,947.3 1555.3,925.6 1551.9,901.9 1549.1,876.2 1546.9,848.7 1545.4,819.5 1544.3,788.8 1543.9,756.9 1543.9,723.8 1544.4,689.8 1545.3,655.1 1546.7,619.9 1548.4,584.5  " style="stroke-opacity: 1.000000; stroke-width: 5.0; stroke: rgb(107,174,214); fill: none"  />
<path d="M 1867.0,659.9 L 1852.8,692.2 1838.5,724.2 1824.3,755.6 1810.2,786.2 1796.3,815.9 1782.6,844.4 1769.3,871.5 1756.4,897.0 1744.0,920.9 1732.1,942.9 1720.8,962.9 1710.1,980.9 1700.1,996.6 1690.7,1010.0 1682.2,1021.1 1674.4,1029.7 1667.4,1035.9 1661.2,1039.5 1655.8,1040.5 1651.3,1039.0 1647.7,1035.0 1644.9,1028.4 1643.0,1019.3 1641.9,1007.7 1641.7,993.7 1642.3,977.3 1643.8,958.7 1646.0,938.0 1649.0,915.2 1652.6,890.4 1657.0,863.9 1662.1,835.7 1667.7,806.0 1673.9,775.1 1680.6,743.0 1687.7,710.0 1695.2,676.3 1703.0,642.2 1711.1,607.9  " style="stroke-opacity: 1.000000; stroke-width: 5.0; stroke: rgb(107,174,214); fill: none"  />
<path d="M 1867.0,659.9 L 1852.9,692.4 1839.3,724.9 1826.3,757.0 1813.8,788.7 1802.2,819.7 1791.4,849.8 1781.6,878.8 1772.8,906.7 1765.2,933.2 1758.7,958.2 1753.6,981.7 1749.7,1003.4 1747.2,1023.2 1746.2,1041.2 1746.6,1057.2 1748.4,1071.1 1751.7,1082.9 1756.6,1092.6 1762.9,1100.0 1770.7,1105.3 1780.0,1108.3 1790.8,1109.1 1803.0,1107.8 1816.6,1104.2 1831.5,1098.5 1847.7,1090.7 1865.2,1080.9 1883.8,1069.1 1903.6,1055.5 1924.3,1040.1 1946.0,1023.0 1968.4,1004.3 1991.6,984.2 2015.4,962.8 2039.7,940.3 2064.3,916.9 2089.1,892.6 2114.0,867.7 2138.8,842.4  " style="stroke-opacity: 1.000000; stroke-width: 5.0; stroke: rgb(107,174,214); fill: none"  />
<path d="M 2128.3,2167.6 L 2104.2,2141.9 2080.4,2116.2 2057.1,2090.8 2034.4,2065.8 2012.6,2041.3 1991.8,2017.6 1972.1,1994.7 1953.7,1972.8 1936.6,1952.0 1921.0,1932.4 1907.1,1914.1 1894.8,1897.2 1884.3,1881.8 1875.6,1868.0 1868.8,1855.7 1863.9,1845.2 1861.0,1836.3 1860.1,1829.2 1861.3,1823.9 1864.4,1820.3 1869.6,1818.6 1876.7,1818.6 1885.9,1820.4 1896.9,1824.0 1909.9,1829.3 1924.7,1836.3 1941.2,1844.9 1959.4,1855.1 1979.2,1866.8 2000.5,1880.0 2023.2,1894.4 2047.2,1910.1 2072.2,1927.0 2098.3,1944.8 2125.1,1963.6 2152.6,1983.1 2180.7,2003.2 2209.0,2023.8 2237.4,2044.7  " style="stroke-opacity: 1.000000; stroke-width: 5.0; stroke: rgb(107,174,214); fill: none"  />
<path d="M 2128.3,2167.6 L 2103.9,2141.9 2079.4,2116.7 2055.0,2092.0 2030.7,2068.1 2006.8,2045.2 1983.4,2023.5 1960.5,2003.0 1938.3,1984.0 1917.0,1966.6 1896.5,1950.8 1877.0,1936.9 1858.5,1924.8 1841.2,1914.7 1825.1,1906.7 1810.3,1900.8 1796.8,1897.0 1784.6,1895.4 1773.8,1896.1 1764.5,1899.0 1756.5,1904.1 1750.1,1911.5 1745.1,1921.0 1741.6,1932.8 1739.5,1946.7 1738.9,1962.6 1739.7,1980.6 1741.8,2000.5 1745.3,2022.3 1750.1,2045.8 1756.2,2070.9 1763.4,2097.6 1771.7,2125.5 1781.1,2154.8 1791.4,2185.0 1802.5,2216.2 1814.4,2248.0 1827.0,2280.4 1840.1,2313.1 1853.6,2345.8  " style="stroke-opacity: 1.000000; stroke-width: 5.0; stroke: rgb(107,174,214); fill: none"  />
<path d="M 2128.3,2167.6 L 2103.6,2141.8 2078.8,2116.5 2053.8,2091.8 2028.9,2068.1 2004.1,2045.4 1979.5,2023.9 1955.3,2003.8 1931.6,1985.2 1908.4,1968.3 1885.9,1953.1 1864.2,1939.9 1843.2,1928.6 1823.2,1919.3 1804.1,1912.2 1786.0,1907.3 1768.9,1904.7 1753.0,1904.3 1738.2,1906.2 1724.6,1910.4 1712.2,1917.0 1701.1,1925.8 1691.1,1936.9 1682.5,1950.3 1675.1,1965.9 1668.9,1983.6 1664.0,2003.4 1660.3,2025.2 1657.8,2048.8 1656.5,2074.3 1656.3,2101.4 1657.2,2130.1 1659.2,2160.1 1662.1,2191.4 1666.0,2223.8 1670.8,2257.1 1676.3,2291.1 1682.6,2325.6 1689.5,2360.5 1696.9,2395.4  " style="stroke-opacity: 1.000000; stroke-width: 5.0; stroke: rgb(107,174,214); fill: none"  />
<path d="M 2128.3,2167.6 L 2103.4,2141.6 2078.1,2116.1 2052.5,2091.4 2026.8,2067.6 2001.0,2044.9 1975.3,2023.4 1949.7,2003.4 1924.4,1985.0 1899.4,1968.2 1874.8,1953.3 1850.7,1940.3 1827.2,1929.3 1804.3,1920.4 1782.0,1913.7 1760.6,1909.2 1739.9,1907.0 1720.1,1907.1 1701.2,1909.5 1683.2,1914.3 1666.2,1921.4 1650.1,1930.8 1635.1,1942.6 1621.1,1956.6 1608.2,1972.9 1596.3,1991.3 1585.5,2011.9 1575.8,2034.4 1567.0,2058.9 1559.4,2085.2 1552.7,2113.2 1547.1,2142.7 1542.4,2173.7 1538.7,2205.9 1535.9,2239.3 1533.9,2273.6 1532.8,2308.6 1532.5,2344.2 1532.9,2380.1 1533.9,2416.1  " style="stroke-opacity: 1.000000; stroke-width: 5.0; stroke: rgb(107,174,214); fill: none"  />
<path d="M 2011.1,738.9 L 1991.0,768.4 1970.6,797.5 1950.0,825.8 1929.2,853.3 1908.4,879.8 1887.7,905.0 1867.1,928.7 1846.8,950.9 1826.7,971.4 1806.9,990.0 1787.6,1006.7 1768.8,1021.2 1750.5,1033.6 1732.8,1043.7 1715.8,1051.5 1699.4,1056.9 1683.7,1059.9 1668.8,1060.4 1654.7,1058.5 1641.4,1054.0 1629.0,1047.1 1617.4,1037.8 1606.7,1026.0 1596.8,1011.8 1587.8,995.3 1579.8,976.6 1572.6,955.7 1566.3,932.8 1560.8,907.9 1556.2,881.2 1552.4,852.7 1549.5,822.7 1547.3,791.4 1545.9,758.8 1545.1,725.2 1545.1,690.7 1545.6,655.6 1546.7,620.2 1548.4,584.5  " style="stroke-opacity: 1.000000; stroke-width: 5.0; stroke: rgb(107,174,214); fill: none"  />
<path d="M 922.8,2212.2 L 944.9,2184.7 966.7,2157.4 988.1,2130.3 1008.8,2103.7 1028.8,2077.7 1047.8,2052.5 1065.7,2028.2 1082.5,2005.0 1098.0,1983.0 1112.0,1962.3 1124.6,1943.0 1135.6,1925.3 1145.0,1909.1 1152.6,1894.7 1158.5,1882.0 1162.6,1871.1 1164.8,1862.0 1165.2,1854.9 1163.6,1849.7 1160.3,1846.4 1155.0,1845.0 1147.8,1845.6 1138.9,1848.1 1128.1,1852.4 1115.6,1858.7 1101.3,1866.7 1085.5,1876.6 1068.1,1888.1 1049.2,1901.2 1028.9,1915.9 1007.3,1932.0 984.6,1949.4 960.9,1968.1 936.2,1987.8 910.8,2008.5 884.8,2030.0 858.4,2052.1 831.7,2074.8 804.9,2097.7  " style="stroke-opacity: 1.000000; stroke-width: 5.0; stroke: rgb(107,174,214); fill: none"  />
<path d="M 1999.0,2269.1 L 1979.7,2239.0 1961.1,2208.8 1943.1,2178.7 1925.9,2148.8 1909.8,2119.3 1894.8,2090.4 1881.0,2062.1 1868.6,2034.7 1857.7,2008.1 1848.3,1982.7 1840.6,1958.4 1834.6,1935.3 1830.4,1913.7 1828.1,1893.4 1827.6,1874.7 1829.1,1857.5 1832.5,1841.9 1837.9,1828.0 1845.2,1815.8 1854.5,1805.3 1865.7,1796.6 1878.9,1789.6 1894.0,1784.4 1910.9,1780.9 1929.5,1779.1 1949.9,1779.0 1971.9,1780.6 1995.5,1783.9 2020.6,1788.6 2046.9,1794.9 2074.6,1802.6 2103.3,1811.7 2133.0,1822.0 2163.5,1833.5 2194.7,1846.0 2226.5,1859.5 2258.5,1873.8 2290.7,1888.8 2322.8,1904.3  " style="stroke-opacity: 1.000000; stroke-width: 5.0; stroke: rgb(107,174,214); fill: none"  />
<path d="M 1999.0,2269.1 L 1979.8,2239.3 1961.1,2209.5 1943.0,2179.9 1925.5,2150.7 1909.0,2122.0 1893.5,2094.1 1879.0,2067.0 1865.8,2040.9 1854.0,2016.0 1843.6,1992.4 1834.6,1970.1 1827.3,1949.3 1821.6,1930.1 1817.7,1912.5 1815.4,1896.7 1815.0,1882.7 1816.3,1870.5 1819.5,1860.2 1824.6,1851.8 1831.4,1845.3 1840.1,1840.8 1850.6,1838.2 1862.9,1837.6 1876.8,1838.9 1892.5,1842.1 1909.8,1847.1 1928.6,1854.0 1948.9,1862.6 1970.6,1872.8 1993.6,1884.6 2017.7,1898.0 2042.9,1912.7 2069.1,1928.8 2096.0,1946.0 2123.6,1964.2 2151.7,1983.4 2180.2,2003.3 2208.8,2023.8 2237.4,2044.7  " style="stroke-opacity: 1.000000; stroke-width: 5.0; stroke: rgb(107,174,214); fill: none"  />
<path d="M 1999.0,2269.1 L 1979.3,2239.3 1959.4,2209.9 1939.2,2181.2 1918.9,2153.4 1898.6,2126.6 1878.3,2101.1 1858.0,2077.0 1838.0,2054.5 1818.3,2033.7 1798.8,2014.8 1779.8,1997.8 1761.2,1983.0 1743.1,1970.3 1725.6,1959.9 1708.6,1951.9 1692.3,1946.2 1676.7,1943.0 1661.9,1942.2 1647.7,1943.9 1634.4,1948.2 1621.8,1954.9 1610.0,1964.0 1599.1,1975.7 1589.1,1989.7 1579.8,2006.0 1571.5,2024.6 1563.9,2045.3 1557.3,2068.2 1551.4,2093.0 1546.4,2119.7 1542.2,2148.0 1538.8,2177.9 1536.1,2209.3 1534.1,2241.8 1532.8,2275.5 1532.2,2309.9 1532.2,2345.0 1532.8,2380.5 1533.9,2416.1  " style="stroke-opacity: 1.000000; stroke-width: 5.0; stroke: rgb(107,174,214); fill: none"  />
<path d="M 2138.8,842.4 L 2113.4,868.0 2087.7,893.1 2061.8,917.5 2035.7,940.9 2009.6,963.1 1983.5,984.2 1957.6,1003.8 1932.0,1021.8 1906.7,1038.2 1881.9,1052.7 1857.6,1065.3 1833.9,1075.9 1810.9,1084.5 1788.6,1090.8 1767.0,1095.0 1746.3,1096.9 1726.5,1096.5 1707.6,1093.7 1689.7,1088.7 1672.8,1081.3 1656.9,1071.6 1642.1,1059.6 1628.4,1045.3 1615.7,1028.9 1604.1,1010.3 1593.6,989.6 1584.2,966.9 1575.9,942.2 1568.6,915.8 1562.4,887.7 1557.3,858.1 1553.1,827.1 1549.9,794.8 1547.6,761.4 1546.2,727.0 1545.6,692.0 1545.9,656.4 1546.8,620.5 1548.4,584.5  " style="stroke-opacity: 1.000000; stroke-width: 5.0; stroke: rgb(107,174,214); fill: none"  />
<path d="M 2138.8,842.4 L 2113.7,867.8 2088.5,892.8 2063.1,917.0 2037.8,940.4 2012.6,962.7 1987.7,983.8 1963.2,1003.5 1939.2,1021.7 1915.8,1038.2 1893.1,1053.0 1871.1,1066.0 1850.0,1076.9 1829.8,1085.8 1810.6,1092.6 1792.4,1097.2 1775.3,1099.6 1759.4,1099.8 1744.6,1097.6 1731.1,1093.2 1718.8,1086.4 1707.8,1077.4 1698.0,1066.1 1689.6,1052.6 1682.4,1036.9 1676.5,1019.1 1671.9,999.3 1668.6,977.4 1666.5,953.7 1665.6,928.3 1665.8,901.1 1667.2,872.5 1669.6,842.5 1673.1,811.2 1677.5,778.9 1682.8,745.7 1688.8,711.8 1695.6,677.3 1703.1,642.6 1711.1,607.9  " style="stroke-opacity: 1.000000; stroke-width: 5.0; stroke: rgb(107,174,214); fill: none"  />
<path d="M 2138.8,842.4 L 2114.0,867.7 2089.1,892.6 2064.3,916.9 2039.7,940.3 2015.4,962.8 1991.6,984.2 1968.4,1004.3 1946.0,1023.0 1924.3,1040.1 1903.6,1055.5 1883.8,1069.1 1865.2,1080.9 1847.7,1090.7 1831.5,1098.5 1816.6,1104.2 1803.0,1107.8 1790.8,1109.1 1780.0,1108.3 1770.7,1105.3 1762.9,1100.0 1756.6,1092.6 1751.7,1082.9 1748.4,1071.1 1746.6,1057.2 1746.2,1041.2 1747.2,1023.2 1749.7,1003.4 1753.6,981.7 1758.7,958.2 1765.2,933.2 1772.8,906.7 1781.6,878.8 1791.4,849.8 1802.2,819.7 1813.8,788.7 1826.3,757.0 1839.3,724.9 1852.9,692.4 1867.0,659.9  " style="stroke-opacity: 1.000000; stroke-width: 5.0; stroke: rgb(107,174,214); fill: none"  />
<path d="M 804.9,2097.7 L 831.7,2074.8 858.4,2052.1 884.8,2030.0 910.8,2008.5 936.2,1987.8 960.9,1968.1 984.6,1949.4 1007.3,1932.0 1028.9,1915.9 1049.2,1901.2 1068.1,1888.1 1085.5,1876.6 1101.3,1866.7 1115.6,1858.7 1128.1,1852.4 1138.9,1848.1 1147.8,1845.6 1155.0,1845.0 1160.3,1846.4 1163.6,1849.7 1165.2,1854.9 1164.8,1862.0 1162.6,1871.1 1158.5,1882.0 1152.6,1894.7 1145.0,1909.1 1135.6,1925.3 1124.6,1943.0 1112.0,1962.3 1098.0,1983.0 1082.5,2005.0 1065.7,2028.2 1047.8,2052.5 1028.8,2077.7 1008.8,2103.7 988.1,2130.3 966.7,2157.4 944.9,2184.7 922.8,2212.2  " style="stroke-opacity: 1.000000; stroke-width: 5.0; stroke: rgb(107,174,214); fill: none"  />
<path d="M 1853.6,2345.8 L 1840.1,2313.1 1827.0,2280.4 1814.4,2248.0 1802.5,2216.2 1791.4,2185.0 1781.1,2154.8 1771.7,2125.5 1763.4,2097.6 1756.2,2070.9 1750.1,2045.8 1745.3,2022.3 1741.8,2000.5 1739.7,1980.6 1738.9,1962.6 1739.5,1946.7 1741.6,1932.8 1745.1,1921.0 1750.1,1911.5 1756.5,1904.1 1764.5,1899.0 1773.8,1896.1 1784.6,1895.4 1796.8,1897.0 1810.3,1900.8 1825.1,1906.7 1841.2,1914.7 1858.5,1924.8 1877.0,1936.9 1896.5,1950.8 1917.0,1966.6 1938.3,1984.0 1960.5,2003.0 1983.4,2023.5 2006.8,2045.2 2030.7,2068.1 2055.0,2092.0 2079.4,2116.7 2103.9,2141.9 2128.3,2167.6  " style="stroke-opacity: 1.000000; stroke-width: 5.0; stroke: rgb(107,174,214); fill: none"  />
<path d="M 709.3,1964.0 L 740.2,1946.1 771.2,1928.8 802.1,1912.2 832.7,1896.4 862.9,1881.6 892.5,1867.9 921.4,1855.4 949.3,1844.2 976.3,1834.5 1002.2,1826.3 1026.8,1819.7 1050.1,1814.7 1071.9,1811.5 1092.3,1810.1 1111.0,1810.5 1128.1,1812.7 1143.5,1816.8 1157.2,1822.8 1169.0,1830.7 1179.1,1840.4 1187.3,1852.1 1193.7,1865.5 1198.2,1880.8 1201.0,1897.8 1201.9,1916.6 1201.0,1936.9 1198.5,1958.9 1194.2,1982.3 1188.3,2007.1 1180.8,2033.2 1171.9,2060.4 1161.6,2088.7 1149.9,2117.9 1137.1,2147.9 1123.2,2178.5 1108.3,2209.6 1092.5,2241.0 1076.1,2272.4 1059.2,2303.8  " style="stroke-opacity: 1.000000; stroke-width: 5.0; stroke: rgb(107,174,214); fill: none"  />
<path d="M 1696.9,2395.4 L 1689.5,2360.1 1682.7,2324.8 1676.7,2289.8 1671.5,2255.1 1667.3,2221.0 1664.1,2187.7 1662.0,2155.3 1661.1,2124.0 1661.4,2093.9 1662.9,2065.2 1665.8,2037.9 1670.0,2012.3 1675.5,1988.4 1682.5,1966.2 1690.9,1946.0 1700.7,1927.7 1712.0,1911.4 1724.7,1897.1 1738.7,1884.9 1754.2,1874.9 1771.1,1867.0 1789.2,1861.2 1808.7,1857.6 1829.5,1856.1 1851.4,1856.7 1874.4,1859.3 1898.6,1864.0 1923.7,1870.6 1949.7,1879.1 1976.6,1889.4 2004.2,1901.4 2032.4,1915.0 2061.1,1930.1 2090.2,1946.6 2119.6,1964.4 2149.2,1983.2 2178.8,2003.0 2208.2,2023.6 2237.4,2044.7  " style="stroke-opacity: 1.000000; stroke-width: 5.0; stroke: rgb(107,174,214); fill: none"  />
<path d="M 1696.9,2395.4 L 1689.5,2360.5 1682.6,2325.6 1676.3,2291.1 1670.8,2257.1 1666.0,2223.8 1662.1,2191.4 1659.2,2160.1 1657.2,2130.1 1656.3,2101.4 1656.5,2074.3 1657.8,2048.8 1660.3,2025.2 1664.0,2003.4 1668.9,1983.6 1675.1,1965.9 1682.5,1950.3 1691.1,1936.9 1701.1,1925.8 1712.2,1917.0 1724.6,1910.4 1738.2,1906.2 1753.0,1904.3 1768.9,1904.7 1786.0,1907.3 1804.1,1912.2 1823.2,1919.3 1843.2,1928.6 1864.2,1939.9 1885.9,1953.1 1908.4,1968.3 1931.6,1985.2 1955.3,2003.8 1979.5,2023.9 2004.1,2045.4 2028.9,2068.1 2053.8,2091.8 2078.8,2116.5 2103.6,2141.8 2128.3,2167.6  " style="stroke-opacity: 1.000000; stroke-width: 5.0; stroke: rgb(107,174,214); fill: none"  />
<path d="M 1533.9,2416.1 L 1532.9,2379.1 1532.8,2342.1 1533.7,2305.2 1535.5,2268.6 1538.5,2232.5 1542.5,2197.1 1547.8,2162.4 1554.3,2128.8 1562.0,2096.2 1571.0,2064.8 1581.3,2034.7 1593.0,2006.0 1606.1,1978.9 1620.5,1953.4 1636.2,1929.6 1653.3,1907.5 1671.8,1887.3 1691.6,1868.9 1712.7,1852.4 1735.1,1837.9 1758.8,1825.3 1783.6,1814.7 1809.6,1806.1 1836.8,1799.5 1864.9,1794.8 1894.1,1792.0 1924.2,1791.2 1955.1,1792.2 1986.8,1795.0 2019.1,1799.6 2052.1,1805.8 2085.5,1813.6 2119.2,1822.9 2153.2,1833.7 2187.4,1845.7 2221.6,1858.9 2255.6,1873.2 2289.4,1888.3 2322.8,1904.3  " style="stroke-opacity: 1.000000; stroke-width: 5.0; stroke: rgb(107,174,214); fill: none"  />
<path d="M 1533.9,2416.1 L 1532.9,2379.7 1532.7,2343.2 1533.3,2307.1 1534.9,2271.3 1537.4,2236.2 1540.9,2201.8 1545.5,2168.5 1551.2,2136.2 1558.0,2105.3 1566.0,2075.7 1575.2,2047.6 1585.6,2021.2 1597.2,1996.5 1610.0,1973.6 1624.1,1952.6 1639.4,1933.6 1655.9,1916.7 1673.7,1901.8 1692.6,1889.1 1712.7,1878.5 1733.8,1870.1 1756.1,1863.8 1779.4,1859.7 1803.8,1857.8 1829.0,1858.0 1855.1,1860.3 1882.1,1864.6 1909.8,1870.9 1938.1,1879.2 1967.1,1889.3 1996.5,1901.1 2026.3,1914.6 2056.5,1929.6 2086.8,1946.1 2117.2,1963.8 2147.6,1982.7 2177.9,2002.6 2207.8,2023.3 2237.4,2044.7  " style="stroke-opacity: 1.000000; stroke-width: 5.0; stroke: rgb(107,174,214); fill: none"  />
<path d="M 1533.9,2416.1 L 1532.9,2380.1 1532.5,2344.2 1532.8,2308.6 1533.9,2273.6 1535.9,2239.3 1538.7,2205.9 1542.4,2173.7 1547.1,2142.7 1552.7,2113.2 1559.4,2085.2 1567.0,2058.9 1575.8,2034.4 1585.5,2011.9 1596.3,1991.3 1608.2,1972.9 1621.1,1956.6 1635.1,1942.6 1650.1,1930.8 1666.2,1921.4 1683.2,1914.3 1701.2,1909.5 1720.1,1907.1 1739.9,1907.0 1760.6,1909.2 1782.0,1913.7 1804.3,1920.4 1827.2,1929.3 1850.7,1940.3 1874.8,1953.3 1899.4,1968.2 1924.4,1985.0 1949.7,2003.4 1975.3,2023.4 2001.0,2044.9 2026.8,2067.6 2052.5,2091.4 2078.1,2116.1 2103.4,2141.6 2128.3,2167.6  " style="stroke-opacity: 1.000000; stroke-width: 5.0; stroke: rgb(107,174,214); fill: none"  />
<path d="M 1533.9,2416.1 L 1532.8,2380.5 1532.2,2345.0 1532.2,2309.9 1532.8,2275.5 1534.1,2241.8 1536.1,2209.3 1538.8,2177.9 1542.2,2148.0 1546.4,2119.7 1551.4,2093.0 1557.3,2068.2 1563.9,2045.3 1571.5,2024.6 1579.8,2006.0 1589.1,1989.7 1599.1,1975.7 1610.0,1964.0 1621.8,1954.9 1634.4,1948.2 1647.7,1943.9 1661.9,1942.2 1676.7,1943.0 1692.3,1946.2 1708.6,1951.9 1725.6,1959.9 1743.1,1970.3 1761.2,1983.0 1779.8,1997.8 1798.8,2014.8 1818.3,2033.7 1838.0,2054.5 1858.0,2077.0 1878.3,2101.1 1898.6,2126.6 1918.9,2153.4 1939.2,2181.2 1959.4,2209.9 1979.3,2239.3 1999.0,2269.1  " style="stroke-opacity: 1.000000; stroke-width: 5.0; stroke: rgb(107,174,214); fill: none"  />
<path d="M 2245.9,967.0 L 2216.0,987.9 2185.7,1008.2 2155.2,1027.6 2124.5,1046.0 2093.8,1063.3 2063.2,1079.2 2032.8,1093.8 2002.8,1106.8 1973.2,1118.2 1944.1,1127.8 1915.6,1135.6 1887.8,1141.5 1860.8,1145.4 1834.6,1147.3 1809.4,1147.1 1785.1,1144.8 1761.9,1140.3 1739.7,1133.7 1718.6,1124.9 1698.7,1114.0 1680.0,1101.0 1662.5,1085.8 1646.3,1068.6 1631.3,1049.4 1617.5,1028.2 1605.0,1005.1 1593.8,980.2 1583.8,953.7 1575.1,925.4 1567.6,895.7 1561.2,864.7 1556.1,832.3 1552.0,798.9 1549.0,764.5 1547.1,729.3 1546.1,693.6 1546.0,657.4 1546.8,621.0 1548.4,584.5  " style="stroke-opacity: 1.000000; stroke-width: 5.0; stroke: rgb(107,174,214); fill: none"  />
<path d="M 2245.9,967.0 L 2216.4,987.7 2186.7,1007.8 2156.8,1027.1 2126.9,1045.5 2097.2,1062.8 2067.8,1078.8 2038.9,1093.5 2010.5,1106.6 1982.7,1118.2 1955.7,1128.1 1929.5,1136.2 1904.3,1142.4 1880.1,1146.6 1857.0,1148.9 1835.1,1149.2 1814.4,1147.3 1794.9,1143.4 1776.8,1137.4 1760.1,1129.2 1744.8,1118.9 1730.9,1106.5 1718.5,1092.1 1707.5,1075.6 1698.0,1057.1 1689.9,1036.7 1683.3,1014.5 1678.1,990.5 1674.3,964.8 1671.8,937.5 1670.8,908.7 1671.0,878.7 1672.4,847.4 1675.0,815.0 1678.7,781.7 1683.5,747.7 1689.2,713.1 1695.7,678.2 1703.1,643.0 1711.1,607.9  " style="stroke-opacity: 1.000000; stroke-width: 5.0; stroke: rgb(107,174,214); fill: none"  />
</g>
<defs>
<pattern id="checker" width="10" height="10" patternTransform="rotate(45 0 0)" patternUnits="userSpaceOnUse"><line x1="0" y1="0" x2="10" y2="0" style="stroke:black;stroke-width:2" /><line x1="0" y1="0" x2="0" y2="10" style="stroke:black;stroke-width:2" /></pattern>
<pattern id="vline" width="10" height="10" patternTransform="rotate(0 0 0)" patternUnits="userSpaceOnUse"><line x1="0" y1="0" x2="0" y2="10" style="stroke:black;stroke-width:5" /></pattern>
<pattern id="hline" width="10" height="10" patternTransform="rotate(0 0 0)" patternUnits="userSpaceOnUse"><line x1="0" y1="0" x2="10" y2="0" style="stroke:black;stroke-width:5" /></pattern>
<pattern id="hline-sparse" width="10" height="10" patternTransform="rotate(0 0 0)" patternUnits="userSpaceOnUse"><line x1="0" y1="0" x2="10" y2="0" style="stroke:black;stroke-width:2" /></pattern>
<pattern id="checker" width="10" height="10" patternTransform="rotate(45 0 0)" patternUnits="userSpaceOnUse"><line x1="0" y1="0" x2="10" y2="0" style="stroke:black;stroke-width:5" /><line x1="0" y1="0" x2="0" y2="10" style="stroke:black;stroke-width:4" /></pattern>
<pattern id="vline-sparse" width="10" height="10" patternTransform="rotate(0 0 0)" patternUnits="userSpaceOnUse"><line x1="0" y1="0" x2="0" y2="10" style="stroke:black;stroke-width:2" /></pattern>
</defs>
</svg>
