<?xml version="1.0" encoding="utf-8" standalone="no"?>
<!DOCTYPE svg PUBLIC "-//W3C//DTD SVG 1.1//EN" "http://www.w3.org/Graphics/SVG/1.1/DTD/svg11.dtd">
<svg width="3000px" height="3000px" version="1.1" xmlns="http://www.w3.org/2000/svg" xmlns:xlink="http://www.w3.org/1999/xlink">
<g id="bg">
<rect x="0" y="0" width="3000px" height="3000px" style="fill:rgb(255,255,255);"/>
</g>
<g id="ideograms">
<path d="M1500.000,830.000 A670.000,670.000 40.000 0,1 1570.620,833.732 L1579.053,754.178 A750.000,750.000 0.000 0,0 1500.000,750.000 Z" style="stroke-width:2.0;stroke:rgb(115,115,115);stroke-linecap:round;fill:rgb(153,204,255);" />
<text x="1568.0" y="677.8" font-size="65.0px" font-family="CMUBright-Roman" style="text-anchor:start;fill:rgb(0,0,0);" transform="rotate(273.0,1568.0,677.8)" >1-AG</text>
<path d="M1500.000,830.000 A670.000,670.000 40.000 0,1 1570.620,833.732 L1579.053,754.178 A750.000,750.000 0.000 0,0 1500.000,750.000 Z" style="stroke-width:2.0;stroke:rgb(115,115,115);stroke-linecap:round;fill:none;" />
<path d="M1619.633,840.767 A670.000,670.000 40.000 0,1 1688.452,857.049 L1710.954,780.279 A750.000,750.000 0.000 0,0 1633.918,762.053 Z" style="stroke-width:2.0;stroke:rgb(115,115,115);stroke-linecap:round;fill:rgb(153,204,255);" />
<text x="1713.2" y="703.0" font-size="65.0px" font-family="CMUBright-Roman" style="text-anchor:start;fill:rgb(0,0,0);" transform="rotate(283.3,1713.2,703.0)" >5-FP</text>
<path d="M1619.633,840.767 A670.000,670.000 40.000 0,1 1688.452,857.049 L1710.954,780.279 A750.000,750.000 0.000 0,0 1633.918,762.053 Z" style="stroke-width:2.0;stroke:rgb(115,115,115);stroke-linecap:round;fill:none;" />
<path d="M1735.421,872.723 A670.000,670.000 40.000 0,1 1800.227,901.031 L1836.075,829.512 A750.000,750.000 0.000 0,0 1763.531,797.824 Z" style="stroke-width:2.0;stroke:rgb(115,115,115);stroke-linecap:round;fill:rgb(153,204,255);" />
<text x="1852.5" y="754.1" font-size="65.0px" font-family="CMUBright-Roman" style="text-anchor:start;fill:rgb(0,0,0);" transform="rotate(293.6,1852.5,754.1)" >6-IFG</text>
<path d="M1735.421,872.723 A670.000,670.000 40.000 0,1 1800.227,901.031 L1836.075,829.512 A750.000,750.000 0.000 0,0 1763.531,797.824 Z" style="stroke-width:2.0;stroke:rgb(115,115,115);stroke-linecap:round;fill:none;" />
<path d="M1843.643,924.839 A670.000,670.000 40.000 0,1 1902.352,964.264 L1950.394,900.296 A750.000,750.000 0.000 0,0 1884.674,856.163 Z" style="stroke-width:2.0;stroke:rgb(115,115,115);stroke-linecap:round;fill:rgb(153,204,255);" />
<text x="1979.7" y="828.8" font-size="65.0px" font-family="CMUBright-Roman" style="text-anchor:start;fill:rgb(0,0,0);" transform="rotate(303.9,1979.7,828.8)" >9-IPL</text>
<path d="M1843.643,924.839 A670.000,670.000 40.000 0,1 1902.352,964.264 L1950.394,900.296 A750.000,750.000 0.000 0,0 1884.674,856.163 Z" style="stroke-width:2.0;stroke:rgb(115,115,115);stroke-linecap:round;fill:none;" />
<path d="M1940.819,995.442 A670.000,670.000 40.000 0,1 1991.546,1044.717 L2050.238,990.354 A750.000,750.000 0.000 0,0 1993.454,935.196 Z" style="stroke-width:2.0;stroke:rgb(115,115,115);stroke-linecap:round;fill:rgb(153,204,255);" />
<text x="2091.8" y="925.2" font-size="65.0px" font-family="CMUBright-Roman" style="text-anchor:start;fill:rgb(0,0,0);" transform="rotate(314.2,2091.8,925.2)" >10-IPL</text>
<path d="M1940.819,995.442 A670.000,670.000 40.000 0,1 1991.546,1044.717 L2050.238,990.354 A750.000,750.000 0.000 0,0 1993.454,935.196 Z" style="stroke-width:2.0;stroke:rgb(115,115,115);stroke-linecap:round;fill:none;" />
<path d="M2023.827,1082.262 A670.000,670.000 40.000 0,1 2064.940,1139.802 L2132.396,1096.793 A750.000,750.000 0.000 0,0 2086.374,1032.383 Z" style="stroke-width:2.0;stroke:rgb(115,115,115);stroke-linecap:round;fill:rgb(153,204,255);" />
<text x="2185.2" y="1040.5" font-size="65.0px" font-family="CMUBright-Roman" style="text-anchor:start;fill:rgb(0,0,0);" transform="rotate(324.5,2185.2,1040.5)" >19-MTG</text>
<path d="M2023.827,1082.262 A670.000,670.000 40.000 0,1 2064.940,1139.802 L2132.396,1096.793 A750.000,750.000 0.000 0,0 2086.374,1032.383 Z" style="stroke-width:2.0;stroke:rgb(115,115,115);stroke-linecap:round;fill:none;" />
<path d="M2089.999,1182.508 A670.000,670.000 40.000 0,1 2120.177,1246.465 L2194.228,1216.192 A750.000,750.000 0.000 0,0 2160.447,1144.599 Z" style="stroke-width:2.0;stroke:rgb(115,115,115);stroke-linecap:round;fill:rgb(153,204,255);" />
<text x="2256.2" y="1170.3" font-size="65.0px" font-family="CMUBright-Roman" style="text-anchor:start;fill:rgb(0,0,0);" transform="rotate(334.7,2256.2,1170.3)" >34-SG</text>
<path d="M2089.999,1182.508 A670.000,670.000 40.000 0,1 2120.177,1246.465 L2194.228,1216.192 A750.000,750.000 0.000 0,0 2160.447,1144.599 Z" style="stroke-width:2.0;stroke:rgb(115,115,115);stroke-linecap:round;fill:none;" />
<path d="M2137.208,1292.959 A670.000,670.000 40.000 0,1 2155.481,1361.276 L2233.748,1344.712 A750.000,750.000 0.000 0,0 2213.292,1268.237 Z" style="stroke-width:2.0;stroke:rgb(115,115,115);stroke-linecap:round;fill:rgb(116,196,118);" />
<text x="2303.0" y="1310.6" font-size="65.0px" font-family="CMUBright-Roman" style="text-anchor:start;fill:rgb(0,0,0);" transform="rotate(345.0,2303.0,1310.6)" >2-COC</text>
<path d="M2137.208,1292.959 A670.000,670.000 40.000 0,1 2155.481,1361.276 L2233.748,1344.712 A750.000,750.000 0.000 0,0 2213.292,1268.237 Z" style="stroke-width:2.0;stroke:rgb(115,115,115);stroke-linecap:round;fill:none;" />
<path d="M2163.936,1410.064 A670.000,670.000 40.000 0,1 2169.718,1480.546 L2249.684,1478.223 A750.000,750.000 0.000 0,0 2243.212,1399.325 Z" style="stroke-width:2.0;stroke:rgb(115,115,115);stroke-linecap:round;fill:rgb(116,196,118);" />
<text x="2323.9" y="1457.0" font-size="65.0px" font-family="CMUBright-Roman" style="text-anchor:start;fill:rgb(0,0,0);" transform="rotate(355.3,2323.9,1457.0)" >8-IFG</text>
<path d="M2163.936,1410.064 A670.000,670.000 40.000 0,1 2169.718,1480.546 L2249.684,1478.223 A750.000,750.000 0.000 0,0 2243.212,1399.325 Z" style="stroke-width:2.0;stroke:rgb(115,115,115);stroke-linecap:round;fill:none;" />
<path d="M2169.325,1530.059 A670.000,670.000 40.000 0,1 2162.429,1600.441 L2241.524,1612.434 A750.000,750.000 0.000 0,0 2249.245,1533.649 Z" style="stroke-width:2.0;stroke:rgb(115,115,115);stroke-linecap:round;fill:rgb(116,196,118);" />
<text x="2318.4" y="1604.3" font-size="65.0px" font-family="CMUBright-Roman" style="text-anchor:start;fill:rgb(0,0,0);" transform="rotate(5.6,2318.4,1604.3)" >23-PP</text>
<path d="M2169.325,1530.059 A670.000,670.000 40.000 0,1 2162.429,1600.441 L2241.524,1612.434 A750.000,750.000 0.000 0,0 2249.245,1533.649 Z" style="stroke-width:2.0;stroke:rgb(115,115,115);stroke-linecap:round;fill:none;" />
<path d="M2153.202,1649.089 A670.000,670.000 40.000 0,1 2133.849,1717.108 L2209.532,1743.032 A750.000,750.000 0.000 0,0 2231.196,1666.891 Z" style="stroke-width:2.0;stroke:rgb(115,115,115);stroke-linecap:round;fill:rgb(116,196,118);" />
<text x="2286.8" y="1748.3" font-size="65.0px" font-family="CMUBright-Roman" style="text-anchor:start;fill:rgb(0,0,0);" transform="rotate(15.9,2286.8,1748.3)" >24-PP</text>
<path d="M2153.202,1649.089 A670.000,670.000 40.000 0,1 2133.849,1717.108 L2209.532,1743.032 A750.000,750.000 0.000 0,0 2231.196,1666.891 Z" style="stroke-width:2.0;stroke:rgb(115,115,115);stroke-linecap:round;fill:none;" />
<path d="M2116.084,1763.327 A670.000,670.000 40.000 0,1 2084.896,1826.797 L2154.734,1865.818 A750.000,750.000 0.000 0,0 2189.646,1794.769 Z" style="stroke-width:2.0;stroke:rgb(115,115,115);stroke-linecap:round;fill:rgb(116,196,118);" />
<text x="2229.3" y="1885.7" font-size="65.0px" font-family="CMUBright-Roman" style="text-anchor:start;fill:rgb(0,0,0);" transform="rotate(26.2,2229.3,1885.7)" >33-SC</text>
<path d="M2116.084,1763.327 A670.000,670.000 40.000 0,1 2084.896,1826.797 L2154.734,1865.818 A750.000,750.000 0.000 0,0 2189.646,1794.769 Z" style="stroke-width:2.0;stroke:rgb(115,115,115);stroke-linecap:round;fill:none;" />
<path d="M2059.164,1869.101 A670.000,670.000 40.000 0,1 2017.145,1925.983 L2078.893,1976.846 A750.000,750.000 0.000 0,0 2125.930,1913.173 Z" style="stroke-width:2.0;stroke:rgb(115,115,115);stroke-linecap:round;fill:rgb(116,196,118);" />
<text x="2148.7" y="2009.7" font-size="65.0px" font-family="CMUBright-Roman" style="text-anchor:start;fill:rgb(0,0,0);" transform="rotate(36.5,2148.7,2009.7)" >35-SG</text>
<path d="M2059.164,1869.101 A670.000,670.000 40.000 0,1 2017.145,1925.983 L2078.893,1976.846 A750.000,750.000 0.000 0,0 2125.930,1913.173 Z" style="stroke-width:2.0;stroke:rgb(115,115,115);stroke-linecap:round;fill:none;" />
<path d="M1984.273,1963.012 A670.000,670.000 40.000 0,1 1932.772,2011.477 L1984.446,2072.549 A750.000,750.000 0.000 0,0 2042.096,2018.297 Z" style="stroke-width:2.0;stroke:rgb(115,115,115);stroke-linecap:round;fill:rgb(153,0,204);" />
<text x="2047.3" y="2117.3" font-size="65.0px" font-family="CMUBright-Roman" style="text-anchor:start;fill:rgb(0,0,0);" transform="rotate(46.7,2047.3,2117.3)" >7-IFG</text>
<path d="M1984.273,1963.012 A670.000,670.000 40.000 0,1 1932.772,2011.477 L1984.446,2072.549 A750.000,750.000 0.000 0,0 2042.096,2018.297 Z" style="stroke-width:2.0;stroke:rgb(115,115,115);stroke-linecap:round;fill:none;" />
<path d="M1893.816,2042.041 A670.000,670.000 40.000 0,1 1834.489,2080.532 L1874.428,2149.849 A750.000,750.000 0.000 0,0 1940.839,2106.763 Z" style="stroke-width:2.0;stroke:rgb(115,115,115);stroke-linecap:round;fill:rgb(153,0,204);" />
<text x="1928.3" y="2205.1" font-size="65.0px" font-family="CMUBright-Roman" style="text-anchor:start;fill:rgb(0,0,0);" transform="rotate(57.0,1928.3,2205.1)" >13-LCI</text>
<path d="M1893.816,2042.041 A670.000,670.000 40.000 0,1 1834.489,2080.532 L1874.428,2149.849 A750.000,750.000 0.000 0,0 1940.839,2106.763 Z" style="stroke-width:2.0;stroke:rgb(115,115,115);stroke-linecap:round;fill:none;" />
<path d="M1790.702,2103.649 A670.000,670.000 40.000 0,1 1725.456,2130.928 L1752.376,2206.262 A750.000,750.000 0.000 0,0 1825.413,2175.727 Z" style="stroke-width:2.0;stroke:rgb(115,115,115);stroke-linecap:round;fill:rgb(153,0,204);" />
<text x="1795.5" y="2270.3" font-size="65.0px" font-family="CMUBright-Roman" style="text-anchor:start;fill:rgb(0,0,0);" transform="rotate(67.3,1795.5,2270.3)" >17-MFG</text>
<path d="M1790.702,2103.649 A670.000,670.000 40.000 0,1 1725.456,2130.928 L1752.376,2206.262 A750.000,750.000 0.000 0,0 1825.413,2175.727 Z" style="stroke-width:2.0;stroke:rgb(115,115,115);stroke-linecap:round;fill:none;" />
<path d="M1678.245,2145.855 A670.000,670.000 40.000 0,1 1609.176,2161.045 L1622.212,2239.976 A750.000,750.000 0.000 0,0 1699.528,2222.972 Z" style="stroke-width:2.0;stroke:rgb(115,115,115);stroke-linecap:round;fill:rgb(153,0,204);" />
<text x="1653.2" y="2310.7" font-size="65.0px" font-family="CMUBright-Roman" style="text-anchor:start;fill:rgb(0,0,0);" transform="rotate(77.6,1653.2,2310.7)" >25-PosG</text>
<path d="M1678.245,2145.855 A670.000,670.000 40.000 0,1 1609.176,2161.045 L1622.212,2239.976 A750.000,750.000 0.000 0,0 1699.528,2222.972 Z" style="stroke-width:2.0;stroke:rgb(115,115,115);stroke-linecap:round;fill:none;" />
<path d="M1560.058,2167.303 A670.000,670.000 40.000 0,1 1489.388,2169.916 L1488.121,2249.906 A750.000,750.000 0.000 0,0 1567.229,2246.981 Z" style="stroke-width:2.0;stroke:rgb(115,115,115);stroke-linecap:round;fill:rgb(153,0,204);" />
<text x="1506.0" y="2325.0" font-size="65.0px" font-family="CMUBright-Roman" style="text-anchor:start;fill:rgb(0,0,0);" transform="rotate(87.9,1506.0,2325.0)" >28-RCI</text>
<path d="M1560.058,2167.303 A670.000,670.000 40.000 0,1 1489.388,2169.916 L1488.121,2249.906 A750.000,750.000 0.000 0,0 1567.229,2246.981 Z" style="stroke-width:2.0;stroke:rgb(115,115,115);stroke-linecap:round;fill:none;" />
<path d="M1439.942,2167.303 A670.000,670.000 40.000 0,1 1369.940,2157.255 L1354.411,2235.733 A750.000,750.000 0.000 0,0 1432.771,2246.981 Z" style="stroke-width:2.0;stroke:rgb(115,115,115);stroke-linecap:round;fill:rgb(253,208,162);" />
<text x="1407.1" y="2319.8" font-size="65.0px" font-family="CMUBright-Roman" style="text-anchor:end;fill:rgb(0,0,0);" transform="rotate(-81.8,1407.1,2319.8)" >12-LOC</text>
<path d="M1439.942,2167.303 A670.000,670.000 40.000 0,1 1369.940,2157.255 L1354.411,2235.733 A750.000,750.000 0.000 0,0 1432.771,2246.981 Z" style="stroke-width:2.0;stroke:rgb(115,115,115);stroke-linecap:round;fill:none;" />
<path d="M1321.755,2145.855 A670.000,670.000 40.000 0,1 1254.673,2123.470 L1225.380,2197.914 A750.000,750.000 0.000 0,0 1300.472,2222.972 Z" style="stroke-width:2.0;stroke:rgb(115,115,115);stroke-linecap:round;fill:rgb(253,208,162);" />
<text x="1262.2" y="2290.0" font-size="65.0px" font-family="CMUBright-Roman" style="text-anchor:end;fill:rgb(0,0,0);" transform="rotate(-71.5,1262.2,2290.0)" >16-LG</text>
<path d="M1321.755,2145.855 A670.000,670.000 40.000 0,1 1254.673,2123.470 L1225.380,2197.914 A750.000,750.000 0.000 0,0 1300.472,2222.972 Z" style="stroke-width:2.0;stroke:rgb(115,115,115);stroke-linecap:round;fill:none;" />
<path d="M1209.298,2103.649 A670.000,670.000 40.000 0,1 1147.290,2069.645 L1105.176,2137.663 A750.000,750.000 0.000 0,0 1174.587,2175.727 Z" style="stroke-width:2.0;stroke:rgb(115,115,115);stroke-linecap:round;fill:rgb(253,208,162);" />
<text x="1125.0" y="2234.8" font-size="65.0px" font-family="CMUBright-Roman" style="text-anchor:end;fill:rgb(0,0,0);" transform="rotate(-61.3,1125.0,2234.8)" >20-OFG</text>
<path d="M1209.298,2103.649 A670.000,670.000 40.000 0,1 1147.290,2069.645 L1105.176,2137.663 A750.000,750.000 0.000 0,0 1174.587,2175.727 Z" style="stroke-width:2.0;stroke:rgb(115,115,115);stroke-linecap:round;fill:none;" />
<path d="M1106.184,2042.041 A670.000,670.000 40.000 0,1 1051.245,1997.512 L997.662,2056.917 A750.000,750.000 0.000 0,0 1059.161,2106.763 Z" style="stroke-width:2.0;stroke:rgb(115,115,115);stroke-linecap:round;fill:rgb(253,208,162);" />
<text x="999.8" y="2156.1" font-size="65.0px" font-family="CMUBright-Roman" style="text-anchor:end;fill:rgb(0,0,0);" transform="rotate(-51.0,999.8,2156.1)" >21-OP</text>
<path d="M1106.184,2042.041 A670.000,670.000 40.000 0,1 1051.245,1997.512 L997.662,2056.917 A750.000,750.000 0.000 0,0 1059.161,2106.763 Z" style="stroke-width:2.0;stroke:rgb(115,115,115);stroke-linecap:round;fill:none;" />
<path d="M1015.727,1963.012 A670.000,670.000 40.000 0,1 969.622,1909.389 L906.293,1958.271 A750.000,750.000 0.000 0,0 957.904,2018.297 Z" style="stroke-width:2.0;stroke:rgb(115,115,115);stroke-linecap:round;fill:rgb(253,208,162);" />
<text x="890.7" y="2056.2" font-size="65.0px" font-family="CMUBright-Roman" style="text-anchor:end;fill:rgb(0,0,0);" transform="rotate(-40.7,890.7,2056.2)" >26-PC</text>
<path d="M1015.727,1963.012 A670.000,670.000 40.000 0,1 969.622,1909.389 L906.293,1958.271 A750.000,750.000 0.000 0,0 957.904,2018.297 Z" style="stroke-width:2.0;stroke:rgb(115,115,115);stroke-linecap:round;fill:none;" />
<path d="M940.836,1869.101 A670.000,670.000 40.000 0,1 905.046,1808.107 L834.007,1844.896 A750.000,750.000 0.000 0,0 874.070,1913.173 Z" style="stroke-width:2.0;stroke:rgb(115,115,115);stroke-linecap:round;fill:rgb(253,141,60);" />
<text x="801.2" y="1938.5" font-size="65.0px" font-family="CMUBright-Roman" style="text-anchor:end;fill:rgb(0,0,0);" transform="rotate(-30.4,801.2,1938.5)" >3-COC</text>
<path d="M940.836,1869.101 A670.000,670.000 40.000 0,1 905.046,1808.107 L834.007,1844.896 A750.000,750.000 0.000 0,0 874.070,1913.173 Z" style="stroke-width:2.0;stroke:rgb(115,115,115);stroke-linecap:round;fill:none;" />
<path d="M883.916,1763.327 A670.000,670.000 40.000 0,1 859.593,1696.922 L783.126,1720.436 A750.000,750.000 0.000 0,0 810.354,1794.769 Z" style="stroke-width:2.0;stroke:rgb(115,115,115);stroke-linecap:round;fill:rgb(253,141,60);" />
<text x="734.1" y="1806.6" font-size="65.0px" font-family="CMUBright-Roman" style="text-anchor:end;fill:rgb(0,0,0);" transform="rotate(-20.1,734.1,1806.6)" >11-ITG</text>
<path d="M883.916,1763.327 A670.000,670.000 40.000 0,1 859.593,1696.922 L783.126,1720.436 A750.000,750.000 0.000 0,0 810.354,1794.769 Z" style="stroke-width:2.0;stroke:rgb(115,115,115);stroke-linecap:round;fill:none;" />
<path d="M846.798,1649.089 A670.000,670.000 40.000 0,1 834.722,1579.409 L755.286,1588.890 A750.000,750.000 0.000 0,0 768.804,1666.891 Z" style="stroke-width:2.0;stroke:rgb(115,115,115);stroke-linecap:round;fill:rgb(253,141,60);" />
<text x="691.6" y="1664.5" font-size="65.0px" font-family="CMUBright-Roman" style="text-anchor:end;fill:rgb(0,0,0);" transform="rotate(-9.8,691.6,1664.5)" >15-LVIIIb</text>
<path d="M846.798,1649.089 A670.000,670.000 40.000 0,1 834.722,1579.409 L755.286,1588.890 A750.000,750.000 0.000 0,0 768.804,1666.891 Z" style="stroke-width:2.0;stroke:rgb(115,115,115);stroke-linecap:round;fill:none;" />
<path d="M830.675,1530.059 A670.000,670.000 40.000 0,1 831.235,1459.343 L751.382,1454.488 A750.000,750.000 0.000 0,0 750.755,1533.649 Z" style="stroke-width:2.0;stroke:rgb(115,115,115);stroke-linecap:round;fill:rgb(253,141,60);" />
<text x="675.2" y="1517.5" font-size="65.0px" font-family="CMUBright-Roman" style="text-anchor:end;fill:rgb(0,0,0);" transform="rotate(0.5,675.2,1517.5)" >30-RH</text>
<path d="M830.675,1530.059 A670.000,670.000 40.000 0,1 831.235,1459.343 L751.382,1454.488 A750.000,750.000 0.000 0,0 750.755,1533.649 Z" style="stroke-width:2.0;stroke:rgb(115,115,115);stroke-linecap:round;fill:none;" />
<path d="M836.064,1410.064 A670.000,670.000 40.000 0,1 849.242,1340.583 L771.539,1321.549 A750.000,750.000 0.000 0,0 756.788,1399.325 Z" style="stroke-width:2.0;stroke:rgb(115,115,115);stroke-linecap:round;fill:rgb(253,141,60);" />
<text x="685.3" y="1369.9" font-size="65.0px" font-family="CMUBright-Roman" style="text-anchor:end;fill:rgb(0,0,0);" transform="rotate(10.7,685.3,1369.9)" >31-RLV</text>
<path d="M836.064,1410.064 A670.000,670.000 40.000 0,1 849.242,1340.583 L771.539,1321.549 A750.000,750.000 0.000 0,0 756.788,1399.325 Z" style="stroke-width:2.0;stroke:rgb(115,115,115);stroke-linecap:round;fill:none;" />
<path d="M862.792,1292.959 A670.000,670.000 40.000 0,1 888.165,1226.948 L815.110,1194.345 A750.000,750.000 0.000 0,0 786.708,1268.237 Z" style="stroke-width:2.0;stroke:rgb(115,115,115);stroke-linecap:round;fill:rgb(253,141,60);" />
<text x="721.6" y="1226.5" font-size="65.0px" font-family="CMUBright-Roman" style="text-anchor:end;fill:rgb(0,0,0);" transform="rotate(21.0,721.6,1226.5)" >32-RLV</text>
<path d="M862.792,1292.959 A670.000,670.000 40.000 0,1 888.165,1226.948 L815.110,1194.345 A750.000,750.000 0.000 0,0 786.708,1268.237 Z" style="stroke-width:2.0;stroke:rgb(115,115,115);stroke-linecap:round;fill:none;" />
<path d="M910.001,1182.508 A670.000,670.000 40.000 0,1 946.752,1122.089 L880.693,1076.965 A750.000,750.000 0.000 0,0 839.553,1144.599 Z" style="stroke-width:2.0;stroke:rgb(115,115,115);stroke-linecap:round;fill:rgb(66,146,198);" />
<text x="782.7" y="1092.4" font-size="65.0px" font-family="CMUBright-Roman" style="text-anchor:end;fill:rgb(0,0,0);" transform="rotate(31.3,782.7,1092.4)" >4-FOC</text>
<path d="M910.001,1182.508 A670.000,670.000 40.000 0,1 946.752,1122.089 L880.693,1076.965 A750.000,750.000 0.000 0,0 839.553,1144.599 Z" style="stroke-width:2.0;stroke:rgb(115,115,115);stroke-linecap:round;fill:none;" />
<path d="M976.173,1082.262 A670.000,670.000 40.000 0,1 1023.122,1029.376 L966.181,973.182 A750.000,750.000 0.000 0,0 913.626,1032.383 Z" style="stroke-width:2.0;stroke:rgb(115,115,115);stroke-linecap:round;fill:rgb(66,146,198);" />
<text x="867.7" y="970.1" font-size="65.0px" font-family="CMUBright-Roman" style="text-anchor:end;fill:rgb(0,0,0);" transform="rotate(41.6,867.7,970.1)" >14-LIX</text>
<path d="M976.173,1082.262 A670.000,670.000 40.000 0,1 1023.122,1029.376 L966.181,973.182 A750.000,750.000 0.000 0,0 913.626,1032.383 Z" style="stroke-width:2.0;stroke:rgb(115,115,115);stroke-linecap:round;fill:none;" />
<path d="M1059.181,995.442 A670.000,670.000 40.000 0,1 1114.819,951.789 L1068.827,886.331 A750.000,750.000 0.000 0,0 1006.546,935.196 Z" style="stroke-width:2.0;stroke:rgb(115,115,115);stroke-linecap:round;fill:rgb(66,146,198);" />
<text x="971.7" y="866.3" font-size="65.0px" font-family="CMUBright-Roman" style="text-anchor:end;fill:rgb(0,0,0);" transform="rotate(51.9,971.7,866.3)" >18-MTG</text>
<path d="M1059.181,995.442 A670.000,670.000 40.000 0,1 1114.819,951.789 L1068.827,886.331 A750.000,750.000 0.000 0,0 1006.546,935.196 Z" style="stroke-width:2.0;stroke:rgb(115,115,115);stroke-linecap:round;fill:none;" />
<path d="M1156.357,924.839 A670.000,670.000 40.000 0,1 1218.896,891.822 L1185.331,819.204 A750.000,750.000 0.000 0,0 1115.326,856.163 Z" style="stroke-width:2.0;stroke:rgb(115,115,115);stroke-linecap:round;fill:rgb(66,146,198);" />
<text x="1093.3" y="782.2" font-size="65.0px" font-family="CMUBright-Roman" style="text-anchor:end;fill:rgb(0,0,0);" transform="rotate(62.2,1093.3,782.2)" >22-ParG</text>
<path d="M1156.357,924.839 A670.000,670.000 40.000 0,1 1218.896,891.822 L1185.331,819.204 A750.000,750.000 0.000 0,0 1115.326,856.163 Z" style="stroke-width:2.0;stroke:rgb(115,115,115);stroke-linecap:round;fill:none;" />
<path d="M1264.579,872.723 A670.000,670.000 40.000 0,1 1332.008,851.403 L1311.949,773.958 A750.000,750.000 0.000 0,0 1236.469,797.824 Z" style="stroke-width:2.0;stroke:rgb(115,115,115);stroke-linecap:round;fill:rgb(66,146,198);" />
<text x="1228.0" y="721.1" font-size="65.0px" font-family="CMUBright-Roman" style="text-anchor:end;fill:rgb(0,0,0);" transform="rotate(72.5,1228.0,721.1)" >27-RCI</text>
<path d="M1264.579,872.723 A670.000,670.000 40.000 0,1 1332.008,851.403 L1311.949,773.958 A750.000,750.000 0.000 0,0 1236.469,797.824 Z" style="stroke-width:2.0;stroke:rgb(115,115,115);stroke-linecap:round;fill:none;" />
<path d="M1380.367,840.767 A670.000,670.000 40.000 0,1 1450.519,831.830 L1444.611,752.048 A750.000,750.000 0.000 0,0 1366.082,762.053 Z" style="stroke-width:2.0;stroke:rgb(115,115,115);stroke-linecap:round;fill:rgb(66,146,198);" />
<text x="1371.5" y="685.1" font-size="65.0px" font-family="CMUBright-Roman" style="text-anchor:end;fill:rgb(0,0,0);" transform="rotate(82.7,1371.5,685.1)" >29-RCI</text>
<path d="M1380.367,840.767 A670.000,670.000 40.000 0,1 1450.519,831.830 L1444.611,752.048 A750.000,750.000 0.000 0,0 1366.082,762.053 Z" style="stroke-width:2.0;stroke:rgb(115,115,115);stroke-linecap:round;fill:none;" />
</g>
<g id="track_1">
<path d="M 1533.6,864.4 L 1532.1,895.3 1530.9,926.4 1530.0,957.7 1529.3,989.2 1529.1,1020.8 1529.1,1052.6 1529.5,1084.6 1530.3,1116.6 1531.4,1148.7 1532.9,1181.0 1534.8,1213.3 1537.1,1245.6 1539.8,1278.0 1542.9,1310.4 1546.4,1342.8 1550.3,1375.2 1554.7,1407.6 1559.4,1439.9 1564.6,1472.2 1570.2,1504.4 1576.2,1536.6 1582.6,1568.6 1589.4,1600.6 1596.6,1632.4 1604.2,1664.1 1612.2,1695.7 1620.6,1727.1 1629.3,1758.3 1638.4,1789.4 1647.8,1820.2 1657.5,1850.9 1667.6,1881.3 1678.0,1911.5 1688.6,1941.4 1699.5,1971.2 1710.7,2000.6 1722.1,2029.8 1733.7,2058.7 1745.5,2087.2  " style="stroke-opacity: 1.000000; stroke-width: 5.0; stroke: rgb(251,106,74); fill: none"  />
<path d="M 1533.6,864.4 L 1531.9,896.6 1530.3,929.0 1528.7,961.3 1527.2,993.7 1525.8,1026.2 1524.4,1058.7 1523.1,1091.2 1521.9,1123.8 1520.8,1156.4 1519.7,1189.0 1518.7,1221.7 1517.8,1254.4 1516.9,1287.1 1516.2,1319.9 1515.5,1352.6 1514.9,1385.4 1514.4,1418.1 1514.0,1450.9 1513.6,1483.7 1513.3,1516.5 1513.2,1549.3 1513.1,1582.1 1513.1,1614.9 1513.1,1647.6 1513.3,1680.4 1513.6,1713.1 1513.9,1745.8 1514.3,1778.6 1514.8,1811.2 1515.3,1843.9 1516.0,1876.5 1516.7,1909.1 1517.4,1941.6 1518.3,1974.2 1519.2,2006.6 1520.2,2039.1 1521.2,2071.5 1522.4,2103.8 1523.5,2136.1  " style="stroke-opacity: 1.000000; stroke-width: 5.0; stroke: rgb(251,106,74); fill: none"  />
<path d="M 1646.5,880.6 L 1640.0,909.4 1633.8,938.6 1628.1,968.2 1622.8,998.0 1618.1,1028.1 1613.9,1058.5 1610.3,1089.1 1607.3,1119.9 1604.9,1150.8 1603.2,1181.9 1602.1,1213.1 1601.8,1244.3 1602.1,1275.7 1603.1,1307.0 1604.8,1338.4 1607.3,1369.7 1610.4,1401.0 1614.4,1432.3 1619.0,1463.4 1624.4,1494.4 1630.5,1525.3 1637.3,1556.0 1644.8,1586.6 1653.1,1616.9 1662.0,1647.0 1671.6,1676.9 1681.9,1706.5 1692.7,1735.8 1704.2,1764.8 1716.3,1793.5 1729.0,1821.9 1742.2,1849.8 1755.8,1877.4 1770.0,1904.6 1784.6,1931.4 1799.6,1957.7 1814.9,1983.6 1830.5,2009.0 1846.4,2034.0  " style="stroke-opacity: 1.000000; stroke-width: 5.0; stroke: rgb(251,106,74); fill: none"  />
<path d="M 1646.5,880.6 L 1639.3,911.4 1632.3,942.3 1625.4,973.5 1618.6,1004.8 1612.1,1036.2 1605.7,1067.8 1599.5,1099.5 1593.5,1131.3 1587.7,1163.3 1582.1,1195.3 1576.7,1227.5 1571.6,1259.8 1566.7,1292.1 1562.0,1324.6 1557.5,1357.1 1553.3,1389.6 1549.4,1422.2 1545.7,1454.9 1542.2,1487.6 1539.0,1520.3 1536.0,1553.1 1533.3,1585.9 1530.9,1618.6 1528.7,1651.4 1526.7,1684.1 1525.0,1716.9 1523.6,1749.5 1522.4,1782.2 1521.4,1814.8 1520.6,1847.3 1520.1,1879.8 1519.8,1912.2 1519.8,1944.5 1519.9,1976.7 1520.3,2008.9 1520.8,2040.9 1521.5,2072.7 1522.4,2104.5 1523.5,2136.1  " style="stroke-opacity: 1.000000; stroke-width: 5.0; stroke: rgb(251,106,74); fill: none"  />
<path d="M 1754.8,916.7 L 1743.7,942.8 1733.2,969.3 1723.1,996.2 1713.6,1023.6 1704.8,1051.3 1696.7,1079.3 1689.4,1107.6 1682.8,1136.1 1677.1,1164.8 1672.2,1193.7 1668.2,1222.7 1665.2,1251.9 1663.1,1281.0 1662.0,1310.2 1661.8,1339.4 1662.7,1368.6 1664.6,1397.7 1667.5,1426.7 1671.5,1455.5 1676.5,1484.2 1682.5,1512.7 1689.5,1541.0 1697.5,1569.0 1706.4,1596.7 1716.4,1624.2 1727.2,1651.3 1739.0,1678.1 1751.7,1704.5 1765.2,1730.5 1779.5,1756.1 1794.6,1781.2 1810.4,1805.8 1826.8,1830.0 1843.9,1853.6 1861.5,1876.7 1879.6,1899.3 1898.1,1921.3 1917.0,1942.7 1936.2,1963.5  " style="stroke-opacity: 1.000000; stroke-width: 5.0; stroke: rgb(251,106,74); fill: none"  />
<path d="M 1754.8,916.7 L 1743.5,943.3 1732.5,970.4 1722.1,997.9 1712.1,1025.8 1702.7,1054.1 1694.0,1082.7 1685.8,1111.7 1678.3,1140.9 1671.6,1170.4 1665.6,1200.1 1660.3,1229.9 1655.9,1260.0 1652.3,1290.2 1649.5,1320.5 1647.6,1350.8 1646.5,1381.3 1646.4,1411.7 1647.1,1442.1 1648.7,1472.5 1651.2,1502.9 1654.5,1533.1 1658.8,1563.3 1663.9,1593.3 1669.9,1623.1 1676.8,1652.8 1684.5,1682.2 1692.9,1711.4 1702.2,1740.3 1712.2,1768.9 1723.0,1797.3 1734.5,1825.2 1746.6,1852.9 1759.4,1880.1 1772.7,1906.9 1786.6,1933.3 1800.9,1959.2 1815.7,1984.6 1830.9,2009.6 1846.4,2034.0  " style="stroke-opacity: 1.000000; stroke-width: 5.0; stroke: rgb(251,106,74); fill: none"  />
<path d="M 1936.2,1963.5 L 1917.0,1942.7 1898.1,1921.3 1879.6,1899.3 1861.5,1876.7 1843.9,1853.6 1826.8,1830.0 1810.4,1805.8 1794.6,1781.2 1779.5,1756.1 1765.2,1730.5 1751.7,1704.5 1739.0,1678.1 1727.2,1651.3 1716.4,1624.2 1706.4,1596.7 1697.5,1569.0 1689.5,1541.0 1682.5,1512.7 1676.5,1484.2 1671.5,1455.5 1667.5,1426.7 1664.6,1397.7 1662.7,1368.6 1661.8,1339.4 1662.0,1310.2 1663.1,1281.0 1665.2,1251.9 1668.2,1222.7 1672.2,1193.7 1677.1,1164.8 1682.8,1136.1 1689.4,1107.6 1696.7,1079.3 1704.8,1051.3 1713.6,1023.6 1723.1,996.2 1733.2,969.3 1743.7,942.8 1754.8,916.7  " style="stroke-opacity: 1.000000; stroke-width: 5.0; stroke: rgb(251,106,74); fill: none"  />
<path d="M 1936.2,1963.5 L 1918.7,1945.3 1900.8,1927.4 1882.6,1910.1 1864.2,1893.4 1845.6,1877.5 1826.9,1862.5 1808.2,1848.5 1789.5,1835.6 1770.8,1823.8 1752.3,1813.4 1734.0,1804.2 1715.8,1796.5 1698.0,1790.1 1680.4,1785.3 1663.2,1782.1 1646.3,1780.4 1629.9,1780.3 1613.9,1781.8 1598.4,1784.9 1583.3,1789.7 1568.8,1796.0 1554.9,1804.0 1541.5,1813.5 1528.7,1824.6 1516.4,1837.2 1504.8,1851.2 1493.8,1866.6 1483.5,1883.4 1473.7,1901.4 1464.6,1920.7 1456.1,1941.0 1448.2,1962.3 1440.9,1984.5 1434.3,2007.5 1428.2,2031.2 1422.7,2055.5 1417.8,2080.1 1413.4,2105.0 1409.6,2130.0  " style="stroke-opacity: 1.000000; stroke-width: 5.0; stroke: rgb(251,106,74); fill: none"  />
<path d="M 1936.2,1963.5 L 1919.5,1945.7 1902.9,1927.8 1886.8,1910.2 1871.0,1892.8 1855.9,1875.8 1841.4,1859.4 1827.8,1843.5 1815.0,1828.3 1803.1,1813.8 1792.3,1800.2 1782.6,1787.5 1774.1,1775.8 1766.8,1765.1 1760.8,1755.5 1756.0,1747.0 1752.7,1739.6 1750.7,1733.5 1750.0,1728.6 1750.8,1724.9 1753.0,1722.4 1756.6,1721.2 1761.6,1721.2 1767.9,1722.5 1775.6,1725.0 1784.6,1728.6 1794.8,1733.5 1806.3,1739.5 1819.0,1746.6 1832.7,1754.7 1847.5,1763.8 1863.3,1773.8 1879.9,1784.8 1897.3,1796.4 1915.4,1808.8 1934.0,1821.9 1953.1,1835.4 1972.6,1849.4 1992.2,1863.7 2012.0,1878.2  " style="stroke-opacity: 1.000000; stroke-width: 5.0; stroke: rgb(251,106,74); fill: none"  />
<path d="M 1854.8,971.6 L 1838.9,995.7 1823.4,1020.4 1808.2,1045.6 1793.4,1071.3 1779.1,1097.5 1765.3,1124.1 1752.2,1151.1 1739.6,1178.5 1727.7,1206.3 1716.5,1234.4 1706.0,1262.9 1696.3,1291.7 1687.3,1320.7 1679.2,1350.1 1671.9,1379.6 1665.4,1409.3 1659.8,1439.2 1655.1,1469.3 1651.2,1499.5 1648.2,1529.8 1646.1,1560.2 1645.0,1590.6 1644.6,1621.1 1645.2,1651.5 1646.7,1681.9 1649.0,1712.2 1652.1,1742.4 1656.1,1772.6 1660.8,1802.5 1666.3,1832.3 1672.6,1861.9 1679.6,1891.2 1687.3,1920.3 1695.7,1949.0 1704.6,1977.5 1714.1,2005.5 1724.1,2033.2 1734.6,2060.5 1745.5,2087.2  " style="stroke-opacity: 1.000000; stroke-width: 5.0; stroke: rgb(251,106,74); fill: none"  />
<path d="M 1854.8,971.6 L 1838.5,996.3 1822.5,1021.4 1806.8,1047.1 1791.4,1073.2 1776.4,1099.7 1761.8,1126.7 1747.7,1154.1 1734.1,1181.8 1721.0,1209.9 1708.4,1238.4 1696.5,1267.3 1685.1,1296.4 1674.4,1325.8 1664.3,1355.5 1654.9,1385.5 1646.2,1415.7 1638.2,1446.1 1630.9,1476.8 1624.3,1507.5 1618.4,1538.5 1613.3,1569.5 1608.9,1600.7 1605.2,1632.0 1602.2,1663.3 1600.0,1694.6 1598.5,1725.9 1597.7,1757.2 1597.6,1788.5 1598.2,1819.7 1599.4,1850.8 1601.3,1881.8 1603.8,1912.6 1606.9,1943.2 1610.6,1973.7 1614.9,2003.9 1619.6,2033.8 1624.9,2063.4 1630.6,2092.7 1636.7,2121.6  " style="stroke-opacity: 1.000000; stroke-width: 5.0; stroke: rgb(251,106,74); fill: none"  />
<path d="M 1854.8,971.6 L 1838.1,996.8 1821.6,1022.4 1805.3,1048.5 1789.3,1074.9 1773.6,1101.8 1758.1,1129.0 1743.1,1156.5 1728.3,1184.4 1714.0,1212.7 1700.1,1241.3 1686.7,1270.2 1673.7,1299.4 1661.2,1328.9 1649.1,1358.6 1637.6,1388.6 1626.6,1418.8 1616.1,1449.3 1606.2,1479.9 1596.8,1510.8 1588.0,1541.8 1579.7,1573.0 1572.0,1604.2 1564.9,1635.7 1558.3,1667.2 1552.4,1698.7 1546.9,1730.3 1542.1,1762.0 1537.7,1793.7 1534.0,1825.3 1530.7,1856.9 1528.0,1888.5 1525.8,1920.0 1524.1,1951.4 1522.9,1982.6 1522.2,2013.7 1521.9,2044.6 1522.0,2075.3 1522.6,2105.8 1523.5,2136.1  " style="stroke-opacity: 1.000000; stroke-width: 5.0; stroke: rgb(251,106,74); fill: none"  />
<path d="M 1943.5,1043.4 L 1924.4,1063.5 1905.7,1084.2 1887.4,1105.5 1869.5,1127.4 1852.2,1149.8 1835.6,1172.7 1819.7,1196.1 1804.5,1220.0 1790.2,1244.3 1776.7,1269.0 1764.2,1294.2 1752.7,1319.7 1742.2,1345.5 1732.7,1371.7 1724.3,1398.1 1717.0,1424.8 1710.9,1451.6 1705.9,1478.7 1702.0,1506.0 1699.3,1533.4 1697.8,1560.8 1697.5,1588.4 1698.3,1615.9 1700.3,1643.5 1703.4,1671.1 1707.6,1698.6 1712.9,1725.9 1719.2,1753.2 1726.6,1780.3 1735.0,1807.2 1744.4,1833.8 1754.6,1860.2 1765.7,1886.2 1777.5,1912.0 1790.1,1937.3 1803.4,1962.2 1817.3,1986.6 1831.6,2010.6 1846.4,2034.0  " style="stroke-opacity: 1.000000; stroke-width: 5.0; stroke: rgb(251,106,74); fill: none"  />
<path d="M 1943.5,1043.4 L 1923.0,1064.8 1902.8,1086.7 1882.7,1109.1 1862.9,1132.1 1843.4,1155.5 1824.2,1179.4 1805.5,1203.8 1787.1,1228.7 1769.2,1254.1 1751.8,1279.9 1734.9,1306.1 1718.5,1332.7 1702.7,1359.8 1687.5,1387.2 1672.9,1415.0 1658.9,1443.2 1645.6,1471.7 1632.9,1500.5 1620.9,1529.6 1609.6,1559.0 1599.0,1588.7 1589.1,1618.5 1579.9,1648.6 1571.4,1678.9 1563.7,1709.3 1556.6,1739.9 1550.2,1770.6 1544.5,1801.3 1539.5,1832.1 1535.2,1862.9 1531.5,1893.7 1528.5,1924.5 1526.1,1955.2 1524.3,1985.8 1523.0,2016.3 1522.4,2046.6 1522.3,2076.7 1522.7,2106.5 1523.5,2136.1  " style="stroke-opacity: 1.000000; stroke-width: 5.0; stroke: rgb(251,106,74); fill: none"  />
<path d="M 1409.6,2130.0 L 1413.4,2105.0 1417.8,2080.1 1422.7,2055.5 1428.2,2031.2 1434.3,2007.5 1440.9,1984.5 1448.2,1962.3 1456.1,1941.0 1464.6,1920.7 1473.7,1901.4 1483.5,1883.4 1493.8,1866.6 1504.8,1851.2 1516.4,1837.2 1528.7,1824.6 1541.5,1813.5 1554.9,1804.0 1568.8,1796.0 1583.3,1789.7 1598.4,1784.9 1613.9,1781.8 1629.9,1780.3 1646.3,1780.4 1663.2,1782.1 1680.4,1785.3 1698.0,1790.1 1715.8,1796.5 1734.0,1804.2 1752.3,1813.4 1770.8,1823.8 1789.5,1835.6 1808.2,1848.5 1826.9,1862.5 1845.6,1877.5 1864.2,1893.4 1882.6,1910.1 1900.8,1927.4 1918.7,1945.3 1936.2,1963.5  " style="stroke-opacity: 1.000000; stroke-width: 5.0; stroke: rgb(251,106,74); fill: none"  />
<path d="M 1409.6,2130.0 L 1413.2,2105.7 1417.0,2081.6 1421.0,2057.8 1425.3,2034.6 1429.7,2012.0 1434.4,1990.3 1439.2,1969.6 1444.2,1949.9 1449.4,1931.5 1454.7,1914.4 1460.2,1898.7 1465.9,1884.4 1471.7,1871.8 1477.6,1860.8 1483.7,1851.5 1489.9,1844.0 1496.2,1838.2 1502.5,1834.3 1509.0,1832.2 1515.5,1832.0 1522.2,1833.6 1528.8,1837.0 1535.5,1842.3 1542.2,1849.4 1549.0,1858.2 1555.7,1868.7 1562.4,1880.9 1569.1,1894.6 1575.8,1909.9 1582.4,1926.6 1588.9,1944.6 1595.3,1963.8 1601.7,1984.2 1607.9,2005.5 1614.0,2027.6 1619.9,2050.5 1625.7,2073.9 1631.3,2097.7 1636.7,2121.6  " style="stroke-opacity: 1.000000; stroke-width: 5.0; stroke: rgb(251,106,74); fill: none"  />
<path d="M 1846.4,2034.0 L 1830.5,2009.0 1814.9,1983.6 1799.6,1957.7 1784.6,1931.4 1770.0,1904.6 1755.8,1877.4 1742.2,1849.8 1729.0,1821.9 1716.3,1793.5 1704.2,1764.8 1692.7,1735.8 1681.9,1706.5 1671.6,1676.9 1662.0,1647.0 1653.1,1616.9 1644.8,1586.6 1637.3,1556.0 1630.5,1525.3 1624.4,1494.4 1619.0,1463.4 1614.4,1432.3 1610.4,1401.0 1607.3,1369.7 1604.8,1338.4 1603.1,1307.0 1602.1,1275.7 1601.8,1244.3 1602.1,1213.1 1603.2,1181.9 1604.9,1150.8 1607.3,1119.9 1610.3,1089.1 1613.9,1058.5 1618.1,1028.1 1622.8,998.0 1628.1,968.2 1633.8,938.6 1640.0,909.4 1646.5,880.6  " style="stroke-opacity: 1.000000; stroke-width: 5.0; stroke: rgb(251,106,74); fill: none"  />
<path d="M 1846.4,2034.0 L 1830.9,2009.6 1815.7,1984.6 1800.9,1959.2 1786.6,1933.3 1772.7,1906.9 1759.4,1880.1 1746.6,1852.9 1734.5,1825.2 1723.0,1797.3 1712.2,1768.9 1702.2,1740.3 1692.9,1711.4 1684.5,1682.2 1676.8,1652.8 1669.9,1623.1 1663.9,1593.3 1658.8,1563.3 1654.5,1533.1 1651.2,1502.9 1648.7,1472.5 1647.1,1442.1 1646.4,1411.7 1646.5,1381.3 1647.6,1350.8 1649.5,1320.5 1652.3,1290.2 1655.9,1260.0 1660.3,1229.9 1665.6,1200.1 1671.6,1170.4 1678.3,1140.9 1685.8,1111.7 1694.0,1082.7 1702.7,1054.1 1712.1,1025.8 1722.1,997.9 1732.5,970.4 1743.5,943.3 1754.8,916.7  " style="stroke-opacity: 1.000000; stroke-width: 5.0; stroke: rgb(251,106,74); fill: none"  />
<path d="M 1846.4,2034.0 L 1831.6,2010.6 1817.3,1986.6 1803.4,1962.2 1790.1,1937.3 1777.5,1912.0 1765.7,1886.2 1754.6,1860.2 1744.4,1833.8 1735.0,1807.2 1726.6,1780.3 1719.2,1753.2 1712.9,1725.9 1707.6,1698.6 1703.4,1671.1 1700.3,1643.5 1698.3,1615.9 1697.5,1588.4 1697.8,1560.8 1699.3,1533.4 1702.0,1506.0 1705.9,1478.7 1710.9,1451.6 1717.0,1424.8 1724.3,1398.1 1732.7,1371.7 1742.2,1345.5 1752.7,1319.7 1764.2,1294.2 1776.7,1269.0 1790.2,1244.3 1804.5,1220.0 1819.7,1196.1 1835.6,1172.7 1852.2,1149.8 1869.5,1127.4 1887.4,1105.5 1905.7,1084.2 1924.4,1063.5 1943.5,1043.4  " style="stroke-opacity: 1.000000; stroke-width: 5.0; stroke: rgb(251,106,74); fill: none"  />
<path d="M 1846.4,2034.0 L 1831.9,2011.0 1817.9,1987.6 1804.5,1963.7 1791.7,1939.4 1779.6,1914.7 1768.3,1889.7 1757.9,1864.4 1748.5,1838.8 1740.0,1813.1 1732.6,1787.3 1726.3,1761.3 1721.1,1735.3 1717.1,1709.2 1714.3,1683.2 1712.7,1657.2 1712.4,1631.4 1713.3,1605.6 1715.5,1580.0 1719.0,1554.6 1723.8,1529.4 1729.8,1504.5 1737.2,1479.8 1745.7,1455.5 1755.5,1431.6 1766.5,1408.0 1778.6,1384.8 1791.9,1362.0 1806.2,1339.7 1821.6,1317.8 1838.0,1296.5 1855.3,1275.7 1873.4,1255.4 1892.4,1235.7 1912.0,1216.5 1932.3,1197.9 1953.1,1180.0 1974.4,1162.7 1996.0,1146.0 2017.9,1130.0  " style="stroke-opacity: 1.000000; stroke-width: 5.0; stroke: rgb(251,106,74); fill: none"  />
<path d="M 1298.5,2103.8 L 1306.6,2080.1 1315.2,2056.7 1324.1,2033.6 1333.3,2011.1 1343.0,1989.3 1352.9,1968.3 1363.2,1948.3 1373.8,1929.3 1384.7,1911.4 1395.8,1894.9 1407.2,1879.7 1418.9,1865.9 1430.7,1853.6 1442.8,1842.9 1455.0,1833.8 1467.3,1826.4 1479.9,1820.7 1492.5,1816.7 1505.2,1814.4 1518.0,1814.0 1530.9,1815.3 1543.8,1818.3 1556.7,1823.1 1569.6,1829.6 1582.4,1837.7 1595.2,1847.5 1607.9,1858.9 1620.5,1871.8 1633.0,1886.1 1645.4,1901.8 1657.5,1918.8 1669.5,1936.9 1681.3,1956.2 1692.7,1976.4 1704.0,1997.4 1714.9,2019.2 1725.4,2041.5 1735.7,2064.2 1745.5,2087.2  " style="stroke-opacity: 1.000000; stroke-width: 5.0; stroke: rgb(251,106,74); fill: none"  />
<path d="M 1745.5,2087.2 L 1733.7,2058.7 1722.1,2029.8 1710.7,2000.6 1699.5,1971.2 1688.6,1941.4 1678.0,1911.5 1667.6,1881.3 1657.5,1850.9 1647.8,1820.2 1638.4,1789.4 1629.3,1758.3 1620.6,1727.1 1612.2,1695.7 1604.2,1664.1 1596.6,1632.4 1589.4,1600.6 1582.6,1568.6 1576.2,1536.6 1570.2,1504.4 1564.6,1472.2 1559.4,1439.9 1554.7,1407.6 1550.3,1375.2 1546.4,1342.8 1542.9,1310.4 1539.8,1278.0 1537.1,1245.6 1534.8,1213.3 1532.9,1181.0 1531.4,1148.7 1530.3,1116.6 1529.5,1084.6 1529.1,1052.6 1529.1,1020.8 1529.3,989.2 1530.0,957.7 1530.9,926.4 1532.1,895.3 1533.6,864.4  " style="stroke-opacity: 1.000000; stroke-width: 5.0; stroke: rgb(251,106,74); fill: none"  />
<path d="M 1745.5,2087.2 L 1734.6,2060.5 1724.1,2033.2 1714.1,2005.5 1704.6,1977.5 1695.7,1949.0 1687.3,1920.3 1679.6,1891.2 1672.6,1861.9 1666.3,1832.3 1660.8,1802.5 1656.1,1772.6 1652.1,1742.4 1649.0,1712.2 1646.7,1681.9 1645.2,1651.5 1644.6,1621.1 1645.0,1590.6 1646.1,1560.2 1648.2,1529.8 1651.2,1499.5 1655.1,1469.3 1659.8,1439.2 1665.4,1409.3 1671.9,1379.6 1679.2,1350.1 1687.3,1320.7 1696.3,1291.7 1706.0,1262.9 1716.5,1234.4 1727.7,1206.3 1739.6,1178.5 1752.2,1151.1 1765.3,1124.1 1779.1,1097.5 1793.4,1071.3 1808.2,1045.6 1823.4,1020.4 1838.9,995.7 1854.8,971.6  " style="stroke-opacity: 1.000000; stroke-width: 5.0; stroke: rgb(251,106,74); fill: none"  />
<path d="M 1745.5,2087.2 L 1735.7,2064.2 1725.4,2041.5 1714.9,2019.2 1704.0,1997.4 1692.7,1976.4 1681.3,1956.2 1669.5,1936.9 1657.5,1918.8 1645.4,1901.8 1633.0,1886.1 1620.5,1871.8 1607.9,1858.9 1595.2,1847.5 1582.4,1837.7 1569.6,1829.6 1556.7,1823.1 1543.8,1818.3 1530.9,1815.3 1518.0,1814.0 1505.2,1814.4 1492.5,1816.7 1479.9,1820.7 1467.3,1826.4 1455.0,1833.8 1442.8,1842.9 1430.7,1853.6 1418.9,1865.9 1407.2,1879.7 1395.8,1894.9 1384.7,1911.4 1373.8,1929.3 1363.2,1948.3 1352.9,1968.3 1343.0,1989.3 1333.3,2011.1 1324.1,2033.6 1315.2,2056.7 1306.6,2080.1 1298.5,2103.8  " style="stroke-opacity: 1.000000; stroke-width: 5.0; stroke: rgb(251,106,74); fill: none"  />
<path d="M 1745.5,2087.2 L 1733.4,2058.0 1721.4,2028.6 1709.5,1999.1 1697.8,1969.3 1686.2,1939.3 1674.7,1909.2 1663.4,1879.0 1652.3,1848.5 1641.4,1817.9 1630.6,1787.2 1620.1,1756.3 1609.8,1725.4 1599.6,1694.2 1589.7,1663.0 1580.1,1631.7 1570.6,1600.2 1561.4,1568.7 1552.4,1537.0 1543.7,1505.3 1535.2,1473.6 1526.9,1441.7 1518.9,1409.9 1511.1,1377.9 1503.6,1346.0 1496.4,1314.0 1489.4,1282.0 1482.6,1249.9 1476.1,1217.9 1469.8,1185.9 1463.8,1153.9 1458.0,1122.0 1452.4,1090.1 1447.1,1058.2 1442.0,1026.4 1437.1,994.6 1432.4,963.0 1427.9,931.4 1423.6,900.0 1419.6,868.6  " style="stroke-opacity: 1.000000; stroke-width: 5.0; stroke: rgb(251,106,74); fill: none"  />
<path d="M 1745.5,2087.2 L 1735.4,2062.1 1725.7,2036.5 1716.8,2010.6 1708.5,1984.4 1701.1,1957.9 1694.4,1931.3 1688.7,1904.6 1684.0,1877.8 1680.3,1851.0 1677.6,1824.2 1676.0,1797.5 1675.5,1771.0 1676.2,1744.6 1678.1,1718.5 1681.2,1692.7 1685.5,1667.2 1691.0,1642.0 1697.8,1617.2 1705.7,1592.8 1714.9,1568.9 1725.3,1545.4 1736.9,1522.5 1749.7,1500.1 1763.6,1478.3 1778.6,1457.0 1794.7,1436.4 1811.8,1416.3 1830.0,1396.9 1849.0,1378.2 1868.9,1360.1 1889.6,1342.7 1911.1,1326.0 1933.3,1310.0 1956.0,1294.6 1979.3,1280.0 2003.0,1266.0 2027.0,1252.8 2051.2,1240.2 2075.6,1228.4  " style="stroke-opacity: 1.000000; stroke-width: 5.0; stroke: rgb(251,106,74); fill: none"  />
<path d="M 1107.1,999.2 L 1124.4,1020.8 1142.4,1042.2 1161.1,1063.2 1180.3,1083.8 1200.2,1103.9 1220.7,1123.5 1241.7,1142.4 1263.4,1160.6 1285.6,1178.1 1308.3,1194.8 1331.5,1210.5 1355.2,1225.4 1379.4,1239.3 1404.1,1252.2 1429.1,1264.0 1454.6,1274.8 1480.4,1284.5 1506.6,1293.1 1533.0,1300.6 1559.8,1306.9 1586.8,1312.1 1614.1,1316.2 1641.5,1319.1 1669.1,1320.8 1696.8,1321.4 1724.6,1321.0 1752.5,1319.4 1780.3,1316.7 1808.2,1313.0 1835.9,1308.3 1863.6,1302.7 1891.1,1296.1 1918.4,1288.6 1945.5,1280.3 1972.3,1271.2 1998.7,1261.4 2024.8,1250.9 2050.5,1239.9 2075.6,1228.4  " style="stroke-opacity: 1.000000; stroke-width: 5.0; stroke: rgb(251,106,74); fill: none"  />
<path d="M 2017.9,1130.0 L 1996.0,1146.0 1974.4,1162.7 1953.1,1180.0 1932.3,1197.9 1912.0,1216.5 1892.4,1235.7 1873.4,1255.4 1855.3,1275.7 1838.0,1296.5 1821.6,1317.8 1806.2,1339.7 1791.9,1362.0 1778.6,1384.8 1766.5,1408.0 1755.5,1431.6 1745.7,1455.5 1737.2,1479.8 1729.8,1504.5 1723.8,1529.4 1719.0,1554.6 1715.5,1580.0 1713.3,1605.6 1712.4,1631.4 1712.7,1657.2 1714.3,1683.2 1717.1,1709.2 1721.1,1735.3 1726.3,1761.3 1732.6,1787.3 1740.0,1813.1 1748.5,1838.8 1757.9,1864.4 1768.3,1889.7 1779.6,1914.7 1791.7,1939.4 1804.5,1963.7 1817.9,1987.6 1831.9,2011.0 1846.4,2034.0  " style="stroke-opacity: 1.000000; stroke-width: 5.0; stroke: rgb(251,106,74); fill: none"  />
<path d="M 2017.9,1130.0 L 1994.5,1147.0 1971.2,1164.6 1948.2,1182.9 1925.3,1201.8 1902.7,1221.2 1880.5,1241.3 1858.7,1261.9 1837.3,1283.2 1816.4,1305.0 1796.0,1327.4 1776.2,1350.4 1756.9,1373.9 1738.4,1398.0 1720.4,1422.6 1703.2,1447.7 1686.7,1473.2 1670.9,1499.3 1655.9,1525.8 1641.7,1552.7 1628.3,1580.0 1615.7,1607.7 1603.9,1635.8 1592.9,1664.2 1582.7,1692.9 1573.4,1721.8 1564.9,1751.0 1557.2,1780.4 1550.3,1810.0 1544.3,1839.7 1539.0,1869.6 1534.5,1899.5 1530.7,1929.4 1527.7,1959.3 1525.4,1989.2 1523.8,2018.9 1522.8,2048.5 1522.5,2078.0 1522.7,2107.2 1523.5,2136.1  " style="stroke-opacity: 1.000000; stroke-width: 5.0; stroke: rgb(251,106,74); fill: none"  />
<path d="M 2017.9,1130.0 L 1996.8,1145.4 1976.1,1161.4 1955.8,1177.9 1936.0,1195.0 1917.0,1212.5 1898.7,1230.5 1881.3,1248.9 1864.9,1267.7 1849.6,1286.8 1835.3,1306.3 1822.3,1326.1 1810.6,1346.2 1800.1,1366.5 1791.1,1387.0 1783.5,1407.6 1777.3,1428.5 1772.6,1449.4 1769.4,1470.5 1767.7,1491.6 1767.5,1512.7 1768.9,1533.8 1771.7,1554.9 1776.1,1575.9 1782.0,1596.8 1789.3,1617.6 1798.0,1638.3 1808.1,1658.7 1819.5,1679.0 1832.2,1699.0 1846.1,1718.7 1861.2,1738.1 1877.3,1757.1 1894.4,1775.8 1912.4,1794.0 1931.1,1811.9 1950.6,1829.2 1970.6,1846.1 1991.1,1862.4 2012.0,1878.2  " style="stroke-opacity: 1.000000; stroke-width: 5.0; stroke: rgb(251,106,74); fill: none"  />
<path d="M 1636.7,2121.6 L 1630.6,2092.7 1624.9,2063.4 1619.6,2033.8 1614.9,2003.9 1610.6,1973.7 1606.9,1943.2 1603.8,1912.6 1601.3,1881.8 1599.4,1850.8 1598.2,1819.7 1597.6,1788.5 1597.7,1757.2 1598.5,1725.9 1600.0,1694.6 1602.2,1663.3 1605.2,1632.0 1608.9,1600.7 1613.3,1569.5 1618.4,1538.5 1624.3,1507.5 1630.9,1476.8 1638.2,1446.1 1646.2,1415.7 1654.9,1385.5 1664.3,1355.5 1674.4,1325.8 1685.1,1296.4 1696.5,1267.3 1708.4,1238.4 1721.0,1209.9 1734.1,1181.8 1747.7,1154.1 1761.8,1126.7 1776.4,1099.7 1791.4,1073.2 1806.8,1047.1 1822.5,1021.4 1838.5,996.3 1854.8,971.6  " style="stroke-opacity: 1.000000; stroke-width: 5.0; stroke: rgb(251,106,74); fill: none"  />
<path d="M 1636.7,2121.6 L 1631.3,2097.7 1625.7,2073.9 1619.9,2050.5 1614.0,2027.6 1607.9,2005.5 1601.7,1984.2 1595.3,1963.8 1588.9,1944.6 1582.4,1926.6 1575.8,1909.9 1569.1,1894.6 1562.4,1880.9 1555.7,1868.7 1549.0,1858.2 1542.2,1849.4 1535.5,1842.3 1528.8,1837.0 1522.2,1833.6 1515.5,1832.0 1509.0,1832.2 1502.5,1834.3 1496.2,1838.2 1489.9,1844.0 1483.7,1851.5 1477.6,1860.8 1471.7,1871.8 1465.9,1884.4 1460.2,1898.7 1454.7,1914.4 1449.4,1931.5 1444.2,1949.9 1439.2,1969.6 1434.4,1990.3 1429.7,2012.0 1425.3,2034.6 1421.0,2057.8 1417.0,2081.6 1413.2,2105.7 1409.6,2130.0  " style="stroke-opacity: 1.000000; stroke-width: 5.0; stroke: rgb(251,106,74); fill: none"  />
<path d="M 1308.1,893.1 L 1317.6,923.3 1326.9,953.6 1336.1,984.2 1345.1,1014.9 1354.0,1045.7 1362.7,1076.8 1371.2,1107.9 1379.6,1139.2 1387.7,1170.7 1395.6,1202.2 1403.4,1233.9 1410.9,1265.7 1418.2,1297.6 1425.2,1329.6 1432.1,1361.7 1438.7,1393.9 1445.0,1426.1 1451.1,1458.4 1457.0,1490.8 1462.6,1523.2 1468.0,1555.6 1473.1,1588.1 1478.0,1620.6 1482.6,1653.1 1486.9,1685.6 1491.0,1718.1 1494.9,1750.6 1498.5,1783.1 1501.9,1815.5 1505.1,1847.9 1508.0,1880.3 1510.7,1912.6 1513.1,1944.8 1515.4,1976.9 1517.4,2009.0 1519.2,2040.9 1520.8,2072.8 1522.3,2104.5 1523.5,2136.1  " style="stroke-opacity: 1.000000; stroke-width: 5.0; stroke: rgb(251,106,74); fill: none"  />
<path d="M 1523.5,2136.1 L 1522.4,2103.8 1521.2,2071.5 1520.2,2039.1 1519.2,2006.6 1518.3,1974.2 1517.4,1941.6 1516.7,1909.1 1516.0,1876.5 1515.3,1843.9 1514.8,1811.2 1514.3,1778.6 1513.9,1745.8 1513.6,1713.1 1513.3,1680.4 1513.1,1647.6 1513.1,1614.9 1513.1,1582.1 1513.2,1549.3 1513.3,1516.5 1513.6,1483.7 1514.0,1450.9 1514.4,1418.1 1514.9,1385.4 1515.5,1352.6 1516.2,1319.9 1516.9,1287.1 1517.8,1254.4 1518.7,1221.7 1519.7,1189.0 1520.8,1156.4 1521.9,1123.8 1523.1,1091.2 1524.4,1058.7 1525.8,1026.2 1527.2,993.7 1528.7,961.3 1530.3,929.0 1531.9,896.6 1533.6,864.4  " style="stroke-opacity: 1.000000; stroke-width: 5.0; stroke: rgb(251,106,74); fill: none"  />
<path d="M 1523.5,2136.1 L 1522.4,2104.5 1521.5,2072.7 1520.8,2040.9 1520.3,2008.9 1519.9,1976.7 1519.8,1944.5 1519.8,1912.2 1520.1,1879.8 1520.6,1847.3 1521.4,1814.8 1522.4,1782.2 1523.6,1749.5 1525.0,1716.9 1526.7,1684.1 1528.7,1651.4 1530.9,1618.6 1533.3,1585.9 1536.0,1553.1 1539.0,1520.3 1542.2,1487.6 1545.7,1454.9 1549.4,1422.2 1553.3,1389.6 1557.5,1357.1 1562.0,1324.6 1566.7,1292.1 1571.6,1259.8 1576.7,1227.5 1582.1,1195.3 1587.7,1163.3 1593.5,1131.3 1599.5,1099.5 1605.7,1067.8 1612.1,1036.2 1618.6,1004.8 1625.4,973.5 1632.3,942.3 1639.3,911.4 1646.5,880.6  " style="stroke-opacity: 1.000000; stroke-width: 5.0; stroke: rgb(251,106,74); fill: none"  />
<path d="M 1523.5,2136.1 L 1522.6,2105.8 1522.0,2075.3 1521.9,2044.6 1522.2,2013.7 1522.9,1982.6 1524.1,1951.4 1525.8,1920.0 1528.0,1888.5 1530.7,1856.9 1534.0,1825.3 1537.7,1793.7 1542.1,1762.0 1546.9,1730.3 1552.4,1698.7 1558.3,1667.2 1564.9,1635.7 1572.0,1604.2 1579.7,1573.0 1588.0,1541.8 1596.8,1510.8 1606.2,1479.9 1616.1,1449.3 1626.6,1418.8 1637.6,1388.6 1649.1,1358.6 1661.2,1328.9 1673.7,1299.4 1686.7,1270.2 1700.1,1241.3 1714.0,1212.7 1728.3,1184.4 1743.1,1156.5 1758.1,1129.0 1773.6,1101.8 1789.3,1074.9 1805.3,1048.5 1821.6,1022.4 1838.1,996.8 1854.8,971.6  " style="stroke-opacity: 1.000000; stroke-width: 5.0; stroke: rgb(251,106,74); fill: none"  />
<path d="M 1523.5,2136.1 L 1522.7,2106.5 1522.3,2076.7 1522.4,2046.6 1523.0,2016.3 1524.3,1985.8 1526.1,1955.2 1528.5,1924.5 1531.5,1893.7 1535.2,1862.9 1539.5,1832.1 1544.5,1801.3 1550.2,1770.6 1556.6,1739.9 1563.7,1709.3 1571.4,1678.9 1579.9,1648.6 1589.1,1618.5 1599.0,1588.7 1609.6,1559.0 1620.9,1529.6 1632.9,1500.5 1645.6,1471.7 1658.9,1443.2 1672.9,1415.0 1687.5,1387.2 1702.7,1359.8 1718.5,1332.7 1734.9,1306.1 1751.8,1279.9 1769.2,1254.1 1787.1,1228.7 1805.5,1203.8 1824.2,1179.4 1843.4,1155.5 1862.9,1132.1 1882.7,1109.1 1902.8,1086.7 1923.0,1064.8 1943.5,1043.4  " style="stroke-opacity: 1.000000; stroke-width: 5.0; stroke: rgb(251,106,74); fill: none"  />
<path d="M 1523.5,2136.1 L 1522.7,2107.2 1522.5,2078.0 1522.8,2048.5 1523.8,2018.9 1525.4,1989.2 1527.7,1959.3 1530.7,1929.4 1534.5,1899.5 1539.0,1869.6 1544.3,1839.7 1550.3,1810.0 1557.2,1780.4 1564.9,1751.0 1573.4,1721.8 1582.7,1692.9 1592.9,1664.2 1603.9,1635.8 1615.7,1607.7 1628.3,1580.0 1641.7,1552.7 1655.9,1525.8 1670.9,1499.3 1686.7,1473.2 1703.2,1447.7 1720.4,1422.6 1738.4,1398.0 1756.9,1373.9 1776.2,1350.4 1796.0,1327.4 1816.4,1305.0 1837.3,1283.2 1858.7,1261.9 1880.5,1241.3 1902.7,1221.2 1925.3,1201.8 1948.2,1182.9 1971.2,1164.6 1994.5,1147.0 2017.9,1130.0  " style="stroke-opacity: 1.000000; stroke-width: 5.0; stroke: rgb(251,106,74); fill: none"  />
<path d="M 1523.5,2136.1 L 1522.3,2104.5 1520.8,2072.8 1519.2,2040.9 1517.4,2009.0 1515.4,1976.9 1513.1,1944.8 1510.7,1912.6 1508.0,1880.3 1505.1,1847.9 1501.9,1815.5 1498.5,1783.1 1494.9,1750.6 1491.0,1718.1 1486.9,1685.6 1482.6,1653.1 1478.0,1620.6 1473.1,1588.1 1468.0,1555.6 1462.6,1523.2 1457.0,1490.8 1451.1,1458.4 1445.0,1426.1 1438.7,1393.9 1432.1,1361.7 1425.2,1329.6 1418.2,1297.6 1410.9,1265.7 1403.4,1233.9 1395.6,1202.2 1387.7,1170.7 1379.6,1139.2 1371.2,1107.9 1362.7,1076.8 1354.0,1045.7 1345.1,1014.9 1336.1,984.2 1326.9,953.6 1317.6,923.3 1308.1,893.1  " style="stroke-opacity: 1.000000; stroke-width: 5.0; stroke: rgb(251,106,74); fill: none"  />
<path d="M 1419.6,868.6 L 1423.6,900.0 1427.9,931.4 1432.4,963.0 1437.1,994.6 1442.0,1026.4 1447.1,1058.2 1452.4,1090.1 1458.0,1122.0 1463.8,1153.9 1469.8,1185.9 1476.1,1217.9 1482.6,1249.9 1489.4,1282.0 1496.4,1314.0 1503.6,1346.0 1511.1,1377.9 1518.9,1409.9 1526.9,1441.7 1535.2,1473.6 1543.7,1505.3 1552.4,1537.0 1561.4,1568.7 1570.6,1600.2 1580.1,1631.7 1589.7,1663.0 1599.6,1694.2 1609.8,1725.4 1620.1,1756.3 1630.6,1787.2 1641.4,1817.9 1652.3,1848.5 1663.4,1879.0 1674.7,1909.2 1686.2,1939.3 1697.8,1969.3 1709.5,1999.1 1721.4,2028.6 1733.4,2058.0 1745.5,2087.2  " style="stroke-opacity: 1.000000; stroke-width: 5.0; stroke: rgb(251,106,74); fill: none"  />
<path d="M 1419.6,868.6 L 1423.2,894.5 1427.4,920.3 1432.4,946.0 1438.0,971.5 1444.4,996.6 1451.6,1021.2 1459.6,1045.2 1468.4,1068.6 1477.9,1091.2 1488.4,1112.9 1499.6,1133.8 1511.7,1153.6 1524.6,1172.4 1538.4,1190.1 1553.0,1206.6 1568.4,1221.9 1584.6,1236.0 1601.6,1248.8 1619.4,1260.3 1637.9,1270.4 1657.2,1279.3 1677.1,1286.7 1697.7,1292.8 1718.9,1297.6 1740.7,1301.0 1763.0,1303.1 1785.8,1303.9 1809.0,1303.4 1832.6,1301.7 1856.6,1298.8 1880.8,1294.7 1905.2,1289.6 1929.7,1283.4 1954.3,1276.2 1978.9,1268.1 2003.5,1259.2 2027.8,1249.6 2051.9,1239.2 2075.6,1228.4  " style="stroke-opacity: 1.000000; stroke-width: 5.0; stroke: rgb(251,106,74); fill: none"  />
<path d="M 2075.6,1228.4 L 2051.2,1240.2 2027.0,1252.8 2003.0,1266.0 1979.3,1280.0 1956.0,1294.6 1933.3,1310.0 1911.1,1326.0 1889.6,1342.7 1868.9,1360.1 1849.0,1378.2 1830.0,1396.9 1811.8,1416.3 1794.7,1436.4 1778.6,1457.0 1763.6,1478.3 1749.7,1500.1 1736.9,1522.5 1725.3,1545.4 1714.9,1568.9 1705.7,1592.8 1697.8,1617.2 1691.0,1642.0 1685.5,1667.2 1681.2,1692.7 1678.1,1718.5 1676.2,1744.6 1675.5,1771.0 1676.0,1797.5 1677.6,1824.2 1680.3,1851.0 1684.0,1877.8 1688.7,1904.6 1694.4,1931.3 1701.1,1957.9 1708.5,1984.4 1716.8,2010.6 1725.7,2036.5 1735.4,2062.1 1745.5,2087.2  " style="stroke-opacity: 1.000000; stroke-width: 5.0; stroke: rgb(251,106,74); fill: none"  />
<path d="M 2075.6,1228.4 L 2050.5,1239.9 2024.8,1250.9 1998.7,1261.4 1972.3,1271.2 1945.5,1280.3 1918.4,1288.6 1891.1,1296.1 1863.6,1302.7 1835.9,1308.3 1808.2,1313.0 1780.3,1316.7 1752.5,1319.4 1724.6,1321.0 1696.8,1321.4 1669.1,1320.8 1641.5,1319.1 1614.1,1316.2 1586.8,1312.1 1559.8,1306.9 1533.0,1300.6 1506.6,1293.1 1480.4,1284.5 1454.6,1274.8 1429.1,1264.0 1404.1,1252.2 1379.4,1239.3 1355.2,1225.4 1331.5,1210.5 1308.3,1194.8 1285.6,1178.1 1263.4,1160.6 1241.7,1142.4 1220.7,1123.5 1200.2,1103.9 1180.3,1083.8 1161.1,1063.2 1142.4,1042.2 1124.4,1020.8 1107.1,999.2  " style="stroke-opacity: 1.000000; stroke-width: 5.0; stroke: rgb(251,106,74); fill: none"  />
<path d="M 2075.6,1228.4 L 2051.9,1239.2 2027.8,1249.6 2003.5,1259.2 1978.9,1268.1 1954.3,1276.2 1929.7,1283.4 1905.2,1289.6 1880.8,1294.7 1856.6,1298.8 1832.6,1301.7 1809.0,1303.4 1785.8,1303.9 1763.0,1303.1 1740.7,1301.0 1718.9,1297.6 1697.7,1292.8 1677.1,1286.7 1657.2,1279.3 1637.9,1270.4 1619.4,1260.3 1601.6,1248.8 1584.6,1236.0 1568.4,1221.9 1553.0,1206.6 1538.4,1190.1 1524.6,1172.4 1511.7,1153.6 1499.6,1133.8 1488.4,1112.9 1477.9,1091.2 1468.4,1068.6 1459.6,1045.2 1451.6,1021.2 1444.4,996.6 1438.0,971.5 1432.4,946.0 1427.4,920.3 1423.2,894.5 1419.6,868.6  " style="stroke-opacity: 1.000000; stroke-width: 5.0; stroke: rgb(251,106,74); fill: none"  />
<path d="M 2012.0,1878.2 L 1992.2,1863.7 1972.6,1849.4 1953.1,1835.4 1934.0,1821.9 1915.4,1808.8 1897.3,1796.4 1879.9,1784.8 1863.3,1773.8 1847.5,1763.8 1832.7,1754.7 1819.0,1746.6 1806.3,1739.5 1794.8,1733.5 1784.6,1728.6 1775.6,1725.0 1767.9,1722.5 1761.6,1721.2 1756.6,1721.2 1753.0,1722.4 1750.8,1724.9 1750.0,1728.6 1750.7,1733.5 1752.7,1739.6 1756.0,1747.0 1760.8,1755.5 1766.8,1765.1 1774.1,1775.8 1782.6,1787.5 1792.3,1800.2 1803.1,1813.8 1815.0,1828.3 1827.8,1843.5 1841.4,1859.4 1855.9,1875.8 1871.0,1892.8 1886.8,1910.2 1902.9,1927.8 1919.5,1945.7 1936.2,1963.5  " style="stroke-opacity: 1.000000; stroke-width: 5.0; stroke: rgb(251,106,74); fill: none"  />
<path d="M 2012.0,1878.2 L 1991.1,1862.4 1970.6,1846.1 1950.6,1829.2 1931.1,1811.9 1912.4,1794.0 1894.4,1775.8 1877.3,1757.1 1861.2,1738.1 1846.1,1718.7 1832.2,1699.0 1819.5,1679.0 1808.1,1658.7 1798.0,1638.3 1789.3,1617.6 1782.0,1596.8 1776.1,1575.9 1771.7,1554.9 1768.9,1533.8 1767.5,1512.7 1767.7,1491.6 1769.4,1470.5 1772.6,1449.4 1777.3,1428.5 1783.5,1407.6 1791.1,1387.0 1800.1,1366.5 1810.6,1346.2 1822.3,1326.1 1835.3,1306.3 1849.6,1286.8 1864.9,1267.7 1881.3,1248.9 1898.7,1230.5 1917.0,1212.5 1936.0,1195.0 1955.8,1177.9 1976.1,1161.4 1996.8,1145.4 2017.9,1130.0  " style="stroke-opacity: 1.000000; stroke-width: 5.0; stroke: rgb(251,106,74); fill: none"  />
</g>
<g id="track_0">
<path d="M 1533.6,864.4 L 1532.5,889.1 1531.7,913.8 1531.3,938.1 1531.3,962.0 1531.8,985.4 1532.8,1008.0 1534.4,1029.8 1536.4,1050.6 1539.0,1070.3 1542.2,1088.9 1546.0,1106.2 1550.4,1122.1 1555.4,1136.6 1561.0,1149.6 1567.2,1161.1 1574.0,1170.9 1581.5,1179.1 1589.6,1185.6 1598.2,1190.4 1607.4,1193.4 1617.2,1194.8 1627.6,1194.4 1638.4,1192.4 1649.8,1188.6 1661.6,1183.2 1673.9,1176.2 1686.6,1167.6 1699.7,1157.5 1713.1,1145.9 1726.8,1133.0 1740.8,1118.8 1754.9,1103.4 1769.2,1086.9 1783.6,1069.4 1798.0,1051.0 1812.4,1031.9 1826.7,1012.2 1840.9,992.1 1854.8,971.6  " style="stroke-opacity: 1.000000; stroke-width: 5.0; stroke: rgb(107,174,214); fill: none"  />
<path d="M 1533.6,864.4 L 1532.5,889.4 1531.8,914.3 1531.7,939.0 1532.1,963.3 1533.0,987.2 1534.6,1010.3 1536.9,1032.8 1539.8,1054.3 1543.4,1074.9 1547.7,1094.4 1552.7,1112.7 1558.5,1129.8 1565.0,1145.6 1572.3,1160.0 1580.3,1172.9 1589.1,1184.3 1598.7,1194.2 1609.0,1202.6 1620.0,1209.3 1631.7,1214.4 1644.2,1217.9 1657.3,1219.8 1671.0,1220.1 1685.4,1218.8 1700.3,1215.9 1715.8,1211.5 1731.8,1205.6 1748.3,1198.2 1765.2,1189.4 1782.4,1179.3 1799.9,1168.0 1817.7,1155.5 1835.7,1141.9 1853.8,1127.3 1871.9,1111.8 1890.1,1095.5 1908.1,1078.6 1925.9,1061.2 1943.5,1043.4  " style="stroke-opacity: 1.000000; stroke-width: 5.0; stroke: rgb(107,174,214); fill: none"  />
<path d="M 1533.6,864.4 L 1532.5,890.1 1532.1,915.8 1532.2,941.4 1533.1,966.8 1534.8,991.9 1537.2,1016.5 1540.5,1040.6 1544.6,1064.1 1549.6,1086.8 1555.5,1108.7 1562.3,1129.7 1570.1,1149.7 1578.9,1168.7 1588.6,1186.6 1599.3,1203.3 1610.9,1218.8 1623.5,1233.1 1637.1,1246.0 1651.5,1257.7 1666.9,1268.0 1683.2,1277.0 1700.4,1284.6 1718.3,1290.9 1737.1,1295.8 1756.6,1299.4 1776.8,1301.6 1797.7,1302.5 1819.2,1302.2 1841.2,1300.6 1863.7,1297.8 1886.6,1293.8 1909.9,1288.7 1933.4,1282.6 1957.2,1275.5 1981.0,1267.6 2004.9,1258.8 2028.7,1249.3 2052.3,1239.1 2075.6,1228.4  " style="stroke-opacity: 1.000000; stroke-width: 5.0; stroke: rgb(107,174,214); fill: none"  />
<path d="M 1646.5,880.6 L 1641.0,904.4 1635.5,928.1 1630.3,951.5 1625.4,974.4 1620.7,996.7 1616.4,1018.2 1612.5,1038.8 1609.0,1058.3 1606.0,1076.8 1603.4,1093.9 1601.4,1109.8 1599.8,1124.2 1598.8,1137.1 1598.4,1148.5 1598.5,1158.2 1599.3,1166.2 1600.6,1172.5 1602.5,1177.1 1605.1,1179.9 1608.2,1181.0 1611.9,1180.3 1616.2,1177.7 1621.1,1173.5 1626.5,1167.5 1632.4,1159.8 1638.9,1150.5 1645.9,1139.6 1653.3,1127.1 1661.2,1113.2 1669.4,1097.9 1678.1,1081.4 1687.0,1063.6 1696.2,1044.8 1705.7,1025.0 1715.4,1004.4 1725.2,983.2 1735.0,961.3 1744.9,939.1 1754.8,916.7  " style="stroke-opacity: 1.000000; stroke-width: 5.0; stroke: rgb(107,174,214); fill: none"  />
<path d="M 1646.5,880.6 L 1641.0,904.7 1635.8,928.8 1631.1,952.7 1626.9,976.3 1623.2,999.3 1620.2,1021.8 1617.8,1043.5 1616.1,1064.3 1615.1,1084.2 1614.9,1103.0 1615.6,1120.7 1617.1,1137.2 1619.4,1152.3 1622.6,1166.1 1626.7,1178.5 1631.6,1189.4 1637.5,1198.8 1644.3,1206.6 1651.9,1212.9 1660.4,1217.5 1669.8,1220.6 1680.1,1222.1 1691.1,1222.0 1703.0,1220.4 1715.6,1217.2 1729.0,1212.4 1743.0,1206.3 1757.7,1198.6 1772.9,1189.7 1788.7,1179.4 1805.0,1167.9 1821.6,1155.3 1838.6,1141.6 1855.9,1126.9 1873.4,1111.5 1891.0,1095.2 1908.6,1078.4 1926.1,1061.1 1943.5,1043.4  " style="stroke-opacity: 1.000000; stroke-width: 5.0; stroke: rgb(107,174,214); fill: none"  />
<path d="M 1646.5,880.6 L 1641.0,905.0 1635.9,929.4 1631.3,953.7 1627.4,977.7 1624.1,1001.3 1621.5,1024.4 1619.7,1046.9 1618.7,1068.6 1618.6,1089.5 1619.3,1109.4 1621.0,1128.4 1623.6,1146.2 1627.2,1162.9 1631.8,1178.3 1637.4,1192.5 1644.1,1205.3 1651.7,1216.8 1660.3,1226.8 1670.0,1235.4 1680.6,1242.5 1692.2,1248.2 1704.8,1252.4 1718.3,1255.1 1732.6,1256.4 1747.9,1256.3 1763.9,1254.7 1780.7,1251.7 1798.2,1247.4 1816.4,1241.8 1835.1,1234.9 1854.4,1226.9 1874.1,1217.7 1894.3,1207.6 1914.7,1196.4 1935.3,1184.4 1956.0,1171.7 1976.7,1158.3 1997.4,1144.3 2017.9,1130.0  " style="stroke-opacity: 1.000000; stroke-width: 5.0; stroke: rgb(107,174,214); fill: none"  />
<path d="M 1754.8,916.7 L 1744.9,939.1 1735.0,961.3 1725.2,983.2 1715.4,1004.4 1705.7,1025.0 1696.2,1044.8 1687.0,1063.6 1678.1,1081.4 1669.4,1097.9 1661.2,1113.2 1653.3,1127.1 1645.9,1139.6 1638.9,1150.5 1632.4,1159.8 1626.5,1167.5 1621.1,1173.5 1616.2,1177.7 1611.9,1180.3 1608.2,1181.0 1605.1,1179.9 1602.5,1177.1 1600.6,1172.5 1599.3,1166.2 1598.5,1158.2 1598.4,1148.5 1598.8,1137.1 1599.8,1124.2 1601.4,1109.8 1603.4,1093.9 1606.0,1076.8 1609.0,1058.3 1612.5,1038.8 1616.4,1018.2 1620.7,996.7 1625.4,974.4 1630.3,951.5 1635.5,928.1 1641.0,904.4 1646.5,880.6  " style="stroke-opacity: 1.000000; stroke-width: 5.0; stroke: rgb(107,174,214); fill: none"  />
<path d="M 1754.8,916.7 L 1745.0,939.3 1735.6,961.8 1726.5,984.2 1717.9,1006.1 1709.8,1027.6 1702.3,1048.5 1695.5,1068.7 1689.4,1088.1 1684.1,1106.5 1679.6,1123.9 1676.1,1140.1 1673.4,1155.2 1671.7,1169.0 1670.9,1181.5 1671.2,1192.6 1672.5,1202.2 1674.8,1210.4 1678.1,1217.1 1682.5,1222.3 1688.0,1225.9 1694.4,1228.1 1701.9,1228.6 1710.4,1227.7 1719.8,1225.2 1730.2,1221.2 1741.4,1215.8 1753.6,1209.0 1766.5,1200.9 1780.2,1191.4 1794.6,1180.7 1809.6,1168.8 1825.2,1155.8 1841.3,1141.9 1857.8,1127.1 1874.7,1111.4 1891.8,1095.1 1909.0,1078.3 1926.3,1061.0 1943.5,1043.4  " style="stroke-opacity: 1.000000; stroke-width: 5.0; stroke: rgb(107,174,214); fill: none"  />
<path d="M 2134.4,1448.0 L 2109.5,1450.2 2084.7,1452.9 2060.2,1456.1 2036.1,1459.7 2012.6,1463.9 1989.9,1468.6 1967.9,1473.8 1947.0,1479.6 1927.1,1485.9 1908.3,1492.8 1890.8,1500.2 1874.7,1508.2 1859.9,1516.8 1846.7,1526.0 1834.9,1535.7 1824.8,1545.9 1816.2,1556.7 1809.4,1568.1 1804.2,1579.9 1800.7,1592.2 1798.9,1605.0 1798.7,1618.2 1800.3,1631.9 1803.5,1646.0 1808.4,1660.4 1814.9,1675.2 1822.9,1690.2 1832.4,1705.5 1843.4,1721.1 1855.7,1736.8 1869.3,1752.7 1884.1,1768.6 1900.0,1784.6 1916.9,1800.6 1934.6,1816.5 1953.2,1832.2 1972.3,1847.8 1992.0,1863.2 2012.0,1878.2  " style="stroke-opacity: 1.000000; stroke-width: 5.0; stroke: rgb(107,174,214); fill: none"  />
<path d="M 1854.8,971.6 L 1840.9,992.1 1826.7,1012.2 1812.4,1031.9 1798.0,1051.0 1783.6,1069.4 1769.2,1086.9 1754.9,1103.4 1740.8,1118.8 1726.8,1133.0 1713.1,1145.9 1699.7,1157.5 1686.6,1167.6 1673.9,1176.2 1661.6,1183.2 1649.8,1188.6 1638.4,1192.4 1627.6,1194.4 1617.2,1194.8 1607.4,1193.4 1598.2,1190.4 1589.6,1185.6 1581.5,1179.1 1574.0,1170.9 1567.2,1161.1 1561.0,1149.6 1555.4,1136.6 1550.4,1122.1 1546.0,1106.2 1542.2,1088.9 1539.0,1070.3 1536.4,1050.6 1534.4,1029.8 1532.8,1008.0 1531.8,985.4 1531.3,962.0 1531.3,938.1 1531.7,913.8 1532.5,889.1 1533.6,864.4  " style="stroke-opacity: 1.000000; stroke-width: 5.0; stroke: rgb(107,174,214); fill: none"  />
<path d="M 1854.8,971.6 L 1841.2,991.9 1827.8,1012.2 1814.8,1032.3 1802.1,1052.0 1789.9,1071.2 1778.3,1089.8 1767.4,1107.7 1757.3,1124.8 1747.9,1141.0 1739.5,1156.2 1732.0,1170.3 1725.5,1183.2 1720.0,1195.0 1715.6,1205.4 1712.4,1214.6 1710.2,1222.4 1709.3,1228.8 1709.5,1233.7 1710.8,1237.3 1713.4,1239.3 1717.1,1240.0 1722.0,1239.1 1728.1,1236.8 1735.2,1233.1 1743.5,1228.0 1752.9,1221.6 1763.2,1213.8 1774.5,1204.8 1786.8,1194.5 1799.9,1183.1 1813.8,1170.6 1828.4,1157.2 1843.7,1142.8 1859.5,1127.6 1875.8,1111.7 1892.4,1095.2 1909.3,1078.3 1926.4,1061.0 1943.5,1043.4  " style="stroke-opacity: 1.000000; stroke-width: 5.0; stroke: rgb(107,174,214); fill: none"  />
<path d="M 1854.8,971.6 L 1841.2,992.2 1827.9,1013.0 1815.0,1033.7 1802.8,1054.3 1791.3,1074.6 1780.5,1094.5 1770.7,1114.0 1761.8,1132.9 1753.9,1151.2 1747.1,1168.7 1741.5,1185.5 1737.1,1201.5 1733.9,1216.5 1732.1,1230.5 1731.5,1243.5 1732.4,1255.4 1734.6,1266.3 1738.1,1276.0 1743.1,1284.6 1749.5,1291.9 1757.2,1298.1 1766.2,1303.1 1776.6,1306.9 1788.3,1309.5 1801.3,1311.0 1815.4,1311.2 1830.7,1310.4 1847.1,1308.4 1864.6,1305.4 1882.9,1301.3 1902.2,1296.2 1922.2,1290.3 1943.0,1283.4 1964.3,1275.8 1986.1,1267.4 2008.3,1258.4 2030.7,1248.8 2053.2,1238.8 2075.6,1228.4  " style="stroke-opacity: 1.000000; stroke-width: 5.0; stroke: rgb(107,174,214); fill: none"  />
<path d="M 1943.5,1043.4 L 1925.9,1061.2 1908.1,1078.6 1890.1,1095.5 1871.9,1111.8 1853.8,1127.3 1835.7,1141.9 1817.7,1155.5 1799.9,1168.0 1782.4,1179.3 1765.2,1189.4 1748.3,1198.2 1731.8,1205.6 1715.8,1211.5 1700.3,1215.9 1685.4,1218.8 1671.0,1220.1 1657.3,1219.8 1644.2,1217.9 1631.7,1214.4 1620.0,1209.3 1609.0,1202.6 1598.7,1194.2 1589.1,1184.3 1580.3,1172.9 1572.3,1160.0 1565.0,1145.6 1558.5,1129.8 1552.7,1112.7 1547.7,1094.4 1543.4,1074.9 1539.8,1054.3 1536.9,1032.8 1534.6,1010.3 1533.0,987.2 1532.1,963.3 1531.7,939.0 1531.8,914.3 1532.5,889.4 1533.6,864.4  " style="stroke-opacity: 1.000000; stroke-width: 5.0; stroke: rgb(107,174,214); fill: none"  />
<path d="M 1943.5,1043.4 L 1926.1,1061.1 1908.6,1078.4 1891.0,1095.2 1873.4,1111.5 1855.9,1126.9 1838.6,1141.6 1821.6,1155.3 1805.0,1167.9 1788.7,1179.4 1772.9,1189.7 1757.7,1198.6 1743.0,1206.3 1729.0,1212.4 1715.6,1217.2 1703.0,1220.4 1691.1,1222.0 1680.1,1222.1 1669.8,1220.6 1660.4,1217.5 1651.9,1212.9 1644.3,1206.6 1637.5,1198.8 1631.6,1189.4 1626.7,1178.5 1622.6,1166.1 1619.4,1152.3 1617.1,1137.2 1615.6,1120.7 1614.9,1103.0 1615.1,1084.2 1616.1,1064.3 1617.8,1043.5 1620.2,1021.8 1623.2,999.3 1626.9,976.3 1631.1,952.7 1635.8,928.8 1641.0,904.7 1646.5,880.6  " style="stroke-opacity: 1.000000; stroke-width: 5.0; stroke: rgb(107,174,214); fill: none"  />
<path d="M 1943.5,1043.4 L 1926.3,1061.0 1909.0,1078.3 1891.8,1095.1 1874.7,1111.4 1857.8,1127.1 1841.3,1141.9 1825.2,1155.8 1809.6,1168.8 1794.6,1180.7 1780.2,1191.4 1766.5,1200.9 1753.6,1209.0 1741.4,1215.8 1730.2,1221.2 1719.8,1225.2 1710.4,1227.7 1701.9,1228.6 1694.4,1228.1 1688.0,1225.9 1682.5,1222.3 1678.1,1217.1 1674.8,1210.4 1672.5,1202.2 1671.2,1192.6 1670.9,1181.5 1671.7,1169.0 1673.4,1155.2 1676.1,1140.1 1679.6,1123.9 1684.1,1106.5 1689.4,1088.1 1695.5,1068.7 1702.3,1048.5 1709.8,1027.6 1717.9,1006.1 1726.5,984.2 1735.6,961.8 1745.0,939.3 1754.8,916.7  " style="stroke-opacity: 1.000000; stroke-width: 5.0; stroke: rgb(107,174,214); fill: none"  />
<path d="M 1943.5,1043.4 L 1926.4,1061.0 1909.3,1078.3 1892.4,1095.2 1875.8,1111.7 1859.5,1127.6 1843.7,1142.8 1828.4,1157.2 1813.8,1170.6 1799.9,1183.1 1786.8,1194.5 1774.5,1204.8 1763.2,1213.8 1752.9,1221.6 1743.5,1228.0 1735.2,1233.1 1728.1,1236.8 1722.0,1239.1 1717.1,1240.0 1713.4,1239.3 1710.8,1237.3 1709.5,1233.7 1709.3,1228.8 1710.2,1222.4 1712.4,1214.6 1715.6,1205.4 1720.0,1195.0 1725.5,1183.2 1732.0,1170.3 1739.5,1156.2 1747.9,1141.0 1757.3,1124.8 1767.4,1107.7 1778.3,1089.8 1789.9,1071.2 1802.1,1052.0 1814.8,1032.3 1827.8,1012.2 1841.2,991.9 1854.8,971.6  " style="stroke-opacity: 1.000000; stroke-width: 5.0; stroke: rgb(107,174,214); fill: none"  />
<path d="M 1943.5,1043.4 L 1926.5,1061.0 1909.7,1078.6 1893.2,1096.0 1877.2,1113.1 1861.8,1129.8 1847.1,1146.1 1833.2,1161.8 1820.1,1176.8 1808.1,1191.0 1797.0,1204.5 1787.1,1217.0 1778.4,1228.6 1771.0,1239.2 1764.8,1248.7 1759.9,1257.1 1756.4,1264.4 1754.3,1270.5 1753.6,1275.4 1754.4,1279.1 1756.5,1281.6 1760.1,1282.9 1765.0,1283.0 1771.4,1281.8 1779.1,1279.4 1788.2,1275.9 1798.5,1271.2 1810.1,1265.4 1822.8,1258.5 1836.7,1250.6 1851.7,1241.7 1867.6,1231.9 1884.4,1221.3 1901.9,1209.9 1920.2,1197.8 1939.1,1185.0 1958.4,1171.8 1978.1,1158.1 1997.9,1144.2 2017.9,1130.0  " style="stroke-opacity: 1.000000; stroke-width: 5.0; stroke: rgb(107,174,214); fill: none"  />
<path d="M 1409.6,2130.0 L 1413.0,2105.8 1416.3,2081.7 1419.4,2058.0 1422.2,2034.7 1424.9,2012.1 1427.2,1990.3 1429.3,1969.5 1431.0,1949.7 1432.4,1931.0 1433.4,1913.7 1434.0,1897.7 1434.3,1883.2 1434.1,1870.3 1433.5,1858.9 1432.5,1849.3 1431.0,1841.3 1429.1,1835.2 1426.8,1830.8 1424.0,1828.2 1420.8,1827.4 1417.2,1828.5 1413.2,1831.4 1408.7,1836.1 1403.8,1842.5 1398.6,1850.7 1393.0,1860.6 1387.0,1872.1 1380.7,1885.1 1374.2,1899.7 1367.3,1915.6 1360.2,1932.9 1352.9,1951.4 1345.4,1971.0 1337.7,1991.5 1329.9,2012.9 1322.1,2035.0 1314.2,2057.6 1306.3,2080.6 1298.5,2103.8  " style="stroke-opacity: 1.000000; stroke-width: 5.0; stroke: rgb(107,174,214); fill: none"  />
<path d="M 1409.6,2130.0 L 1412.9,2105.7 1416.1,2081.5 1418.9,2057.5 1421.3,2034.0 1423.4,2011.1 1425.1,1989.0 1426.3,1967.7 1427.0,1947.5 1427.2,1928.3 1426.9,1910.4 1426.0,1893.7 1424.6,1878.5 1422.6,1864.8 1420.0,1852.5 1416.8,1841.9 1413.0,1832.9 1408.5,1825.6 1403.5,1820.1 1397.9,1816.3 1391.7,1814.2 1384.9,1813.9 1377.6,1815.3 1369.7,1818.5 1361.2,1823.4 1352.3,1829.9 1342.9,1838.1 1333.0,1847.9 1322.7,1859.3 1312.0,1872.0 1301.0,1886.2 1289.6,1901.6 1278.1,1918.3 1266.2,1936.0 1254.3,1954.7 1242.2,1974.2 1230.1,1994.5 1217.9,2015.3 1205.9,2036.6 1194.0,2058.1  " style="stroke-opacity: 1.000000; stroke-width: 5.0; stroke: rgb(107,174,214); fill: none"  />
<path d="M 1409.6,2130.0 L 1412.9,2105.5 1415.9,2081.0 1418.5,2056.8 1420.6,2033.0 1422.2,2009.7 1423.2,1987.1 1423.6,1965.2 1423.4,1944.3 1422.6,1924.4 1421.1,1905.7 1418.9,1888.1 1415.9,1871.8 1412.3,1857.0 1407.8,1843.5 1402.7,1831.6 1396.7,1821.2 1390.1,1812.3 1382.6,1805.1 1374.4,1799.6 1365.5,1795.7 1355.9,1793.5 1345.6,1792.9 1334.5,1794.0 1322.9,1796.7 1310.6,1801.0 1297.7,1806.9 1284.3,1814.3 1270.4,1823.2 1256.0,1833.5 1241.2,1845.2 1226.0,1858.1 1210.6,1872.2 1194.9,1887.3 1179.0,1903.5 1162.9,1920.5 1146.9,1938.2 1130.9,1956.5 1114.9,1975.3 1099.2,1994.5  " style="stroke-opacity: 1.000000; stroke-width: 5.0; stroke: rgb(107,174,214); fill: none"  />
<path d="M 1846.4,2034.0 L 1832.8,2013.3 1819.0,1992.9 1805.0,1973.0 1790.9,1953.6 1776.7,1935.1 1762.6,1917.3 1748.6,1900.6 1734.7,1885.0 1721.0,1870.5 1707.5,1857.4 1694.3,1845.6 1681.3,1835.3 1668.8,1826.5 1656.6,1819.3 1644.9,1813.7 1633.5,1809.8 1622.7,1807.5 1612.4,1807.0 1602.6,1808.2 1593.3,1811.2 1584.6,1815.8 1576.4,1822.2 1568.8,1830.2 1561.8,1840.0 1555.4,1851.3 1549.6,1864.2 1544.4,1878.6 1539.8,1894.5 1535.7,1911.7 1532.2,1930.2 1529.3,1949.9 1526.9,1970.7 1525.0,1992.5 1523.7,2015.1 1522.8,2038.4 1522.4,2062.3 1522.4,2086.7 1522.8,2111.3 1523.5,2136.1  " style="stroke-opacity: 1.000000; stroke-width: 5.0; stroke: rgb(107,174,214); fill: none"  />
<path d="M 1298.5,2103.8 L 1306.3,2080.6 1314.2,2057.6 1322.1,2035.0 1329.9,2012.9 1337.7,1991.5 1345.4,1971.0 1352.9,1951.4 1360.2,1932.9 1367.3,1915.6 1374.2,1899.7 1380.7,1885.1 1387.0,1872.1 1393.0,1860.6 1398.6,1850.7 1403.8,1842.5 1408.7,1836.1 1413.2,1831.4 1417.2,1828.5 1420.8,1827.4 1424.0,1828.2 1426.8,1830.8 1429.1,1835.2 1431.0,1841.3 1432.5,1849.3 1433.5,1858.9 1434.1,1870.3 1434.3,1883.2 1434.0,1897.7 1433.4,1913.7 1432.4,1931.0 1431.0,1949.7 1429.3,1969.5 1427.2,1990.3 1424.9,2012.1 1422.2,2034.7 1419.4,2058.0 1416.3,2081.7 1413.0,2105.8 1409.6,2130.0  " style="stroke-opacity: 1.000000; stroke-width: 5.0; stroke: rgb(107,174,214); fill: none"  />
<path d="M 1298.5,2103.8 L 1306.2,2080.5 1313.7,2057.4 1321.0,2034.6 1328.0,2012.2 1334.6,1990.5 1340.8,1969.5 1346.6,1949.3 1351.8,1930.1 1356.5,1912.0 1360.6,1895.2 1364.1,1879.6 1366.9,1865.3 1369.0,1852.6 1370.5,1841.3 1371.2,1831.6 1371.2,1823.5 1370.4,1817.1 1368.9,1812.4 1366.7,1809.3 1363.7,1808.0 1359.9,1808.4 1355.4,1810.5 1350.2,1814.4 1344.2,1819.8 1337.6,1826.9 1330.3,1835.7 1322.4,1845.9 1313.9,1857.6 1304.8,1870.8 1295.2,1885.3 1285.1,1901.0 1274.6,1917.9 1263.7,1935.8 1252.5,1954.6 1241.1,1974.3 1229.4,1994.6 1217.6,2015.4 1205.8,2036.7 1194.0,2058.1  " style="stroke-opacity: 1.000000; stroke-width: 5.0; stroke: rgb(107,174,214); fill: none"  />
<path d="M 1298.5,2103.8 L 1306.2,2080.4 1313.6,2057.1 1320.6,2034.1 1327.3,2011.4 1333.4,1989.3 1339.0,1967.8 1343.9,1947.1 1348.3,1927.3 1351.9,1908.4 1354.8,1890.7 1356.9,1874.2 1358.2,1859.0 1358.7,1845.1 1358.3,1832.6 1357.1,1821.6 1354.9,1812.0 1351.9,1804.1 1347.9,1797.7 1343.1,1792.9 1337.3,1789.8 1330.7,1788.3 1323.2,1788.4 1314.9,1790.1 1305.7,1793.4 1295.7,1798.3 1285.0,1804.7 1273.5,1812.5 1261.4,1821.8 1248.6,1832.5 1235.2,1844.5 1221.3,1857.6 1206.9,1871.9 1192.2,1887.3 1177.0,1903.5 1161.7,1920.6 1146.1,1938.4 1130.5,1956.7 1114.8,1975.4 1099.2,1994.5  " style="stroke-opacity: 1.000000; stroke-width: 5.0; stroke: rgb(107,174,214); fill: none"  />
<path d="M 1745.5,2087.2 L 1736.0,2064.7 1726.5,2042.3 1717.0,2020.4 1707.5,1998.9 1698.2,1978.2 1689.0,1958.3 1680.1,1939.3 1671.4,1921.4 1663.0,1904.7 1655.0,1889.3 1647.4,1875.3 1640.1,1862.7 1633.3,1851.7 1627.0,1842.2 1621.2,1834.5 1615.9,1828.4 1611.1,1824.1 1606.8,1821.5 1603.1,1820.7 1600.0,1821.7 1597.4,1824.5 1595.4,1829.0 1594.0,1835.3 1593.1,1843.3 1592.8,1853.1 1593.1,1864.4 1593.9,1877.3 1595.2,1891.8 1597.0,1907.6 1599.3,1924.9 1602.0,1943.3 1605.2,1963.0 1608.8,1983.6 1612.8,2005.2 1617.0,2027.5 1621.6,2050.5 1626.5,2073.9 1631.5,2097.7 1636.7,2121.6  " style="stroke-opacity: 1.000000; stroke-width: 5.0; stroke: rgb(107,174,214); fill: none"  />
<path d="M 2017.9,1130.0 L 1997.4,1144.3 1976.7,1158.3 1956.0,1171.7 1935.3,1184.4 1914.7,1196.4 1894.3,1207.6 1874.1,1217.7 1854.4,1226.9 1835.1,1234.9 1816.4,1241.8 1798.2,1247.4 1780.7,1251.7 1763.9,1254.7 1747.9,1256.3 1732.6,1256.4 1718.3,1255.1 1704.8,1252.4 1692.2,1248.2 1680.6,1242.5 1670.0,1235.4 1660.3,1226.8 1651.7,1216.8 1644.1,1205.3 1637.4,1192.5 1631.8,1178.3 1627.2,1162.9 1623.6,1146.2 1621.0,1128.4 1619.3,1109.4 1618.6,1089.5 1618.7,1068.6 1619.7,1046.9 1621.5,1024.4 1624.1,1001.3 1627.4,977.7 1631.3,953.7 1635.9,929.4 1641.0,905.0 1646.5,880.6  " style="stroke-opacity: 1.000000; stroke-width: 5.0; stroke: rgb(107,174,214); fill: none"  />
<path d="M 2017.9,1130.0 L 1997.9,1144.2 1978.1,1158.1 1958.4,1171.8 1939.1,1185.0 1920.2,1197.8 1901.9,1209.9 1884.4,1221.3 1867.6,1231.9 1851.7,1241.7 1836.7,1250.6 1822.8,1258.5 1810.1,1265.4 1798.5,1271.2 1788.2,1275.9 1779.1,1279.4 1771.4,1281.8 1765.0,1283.0 1760.1,1282.9 1756.5,1281.6 1754.4,1279.1 1753.6,1275.4 1754.3,1270.5 1756.4,1264.4 1759.9,1257.1 1764.8,1248.7 1771.0,1239.2 1778.4,1228.6 1787.1,1217.0 1797.0,1204.5 1808.1,1191.0 1820.1,1176.8 1833.2,1161.8 1847.1,1146.1 1861.8,1129.8 1877.2,1113.1 1893.2,1096.0 1909.7,1078.6 1926.5,1061.0 1943.5,1043.4  " style="stroke-opacity: 1.000000; stroke-width: 5.0; stroke: rgb(107,174,214); fill: none"  />
<path d="M 1194.0,2058.1 L 1205.9,2036.6 1217.9,2015.3 1230.1,1994.5 1242.2,1974.2 1254.3,1954.7 1266.2,1936.0 1278.1,1918.3 1289.6,1901.6 1301.0,1886.2 1312.0,1872.0 1322.7,1859.3 1333.0,1847.9 1342.9,1838.1 1352.3,1829.9 1361.2,1823.4 1369.7,1818.5 1377.6,1815.3 1384.9,1813.9 1391.7,1814.2 1397.9,1816.3 1403.5,1820.1 1408.5,1825.6 1413.0,1832.9 1416.8,1841.9 1420.0,1852.5 1422.6,1864.8 1424.6,1878.5 1426.0,1893.7 1426.9,1910.4 1427.2,1928.3 1427.0,1947.5 1426.3,1967.7 1425.1,1989.0 1423.4,2011.1 1421.3,2034.0 1418.9,2057.5 1416.1,2081.5 1412.9,2105.7 1409.6,2130.0  " style="stroke-opacity: 1.000000; stroke-width: 5.0; stroke: rgb(107,174,214); fill: none"  />
<path d="M 1194.0,2058.1 L 1205.8,2036.7 1217.6,2015.4 1229.4,1994.6 1241.1,1974.3 1252.5,1954.6 1263.7,1935.8 1274.6,1917.9 1285.1,1901.0 1295.2,1885.3 1304.8,1870.8 1313.9,1857.6 1322.4,1845.9 1330.3,1835.7 1337.6,1826.9 1344.2,1819.8 1350.2,1814.4 1355.4,1810.5 1359.9,1808.4 1363.7,1808.0 1366.7,1809.3 1368.9,1812.4 1370.4,1817.1 1371.2,1823.5 1371.2,1831.6 1370.5,1841.3 1369.0,1852.6 1366.9,1865.3 1364.1,1879.6 1360.6,1895.2 1356.5,1912.0 1351.8,1930.1 1346.6,1949.3 1340.8,1969.5 1334.6,1990.5 1328.0,2012.2 1321.0,2034.6 1313.7,2057.4 1306.2,2080.5 1298.5,2103.8  " style="stroke-opacity: 1.000000; stroke-width: 5.0; stroke: rgb(107,174,214); fill: none"  />
<path d="M 1194.0,2058.1 L 1205.7,2036.6 1217.2,2015.2 1228.4,1994.1 1239.3,1973.3 1249.7,1953.1 1259.6,1933.5 1268.8,1914.7 1277.4,1896.7 1285.2,1879.8 1292.3,1863.9 1298.5,1849.2 1303.8,1835.7 1308.2,1823.5 1311.6,1812.7 1314.1,1803.3 1315.5,1795.3 1315.9,1788.9 1315.3,1784.0 1313.6,1780.6 1310.8,1778.7 1307.1,1778.5 1302.3,1779.7 1296.4,1782.5 1289.6,1786.9 1281.8,1792.7 1273.1,1800.0 1263.5,1808.6 1253.0,1818.7 1241.7,1830.0 1229.7,1842.5 1217.0,1856.2 1203.6,1870.9 1189.7,1886.6 1175.3,1903.1 1160.5,1920.4 1145.4,1938.3 1130.1,1956.7 1114.7,1975.5 1099.2,1994.5  " style="stroke-opacity: 1.000000; stroke-width: 5.0; stroke: rgb(107,174,214); fill: none"  />
<path d="M 1194.0,2058.1 L 1205.7,2036.5 1217.1,2014.9 1228.2,1993.5 1238.7,1972.3 1248.7,1951.6 1258.0,1931.5 1266.6,1912.0 1274.4,1893.3 1281.4,1875.4 1287.4,1858.5 1292.4,1842.7 1296.4,1827.9 1299.4,1814.3 1301.2,1801.9 1301.9,1790.9 1301.5,1781.1 1300.0,1772.8 1297.2,1765.8 1293.3,1760.2 1288.2,1756.1 1282.0,1753.4 1274.6,1752.2 1266.1,1752.4 1256.4,1754.0 1245.8,1757.0 1234.1,1761.4 1221.4,1767.1 1207.8,1774.1 1193.3,1782.3 1178.0,1791.6 1161.9,1802.1 1145.2,1813.6 1128.0,1826.1 1110.2,1839.4 1092.0,1853.4 1073.5,1868.1 1054.8,1883.4 1036.1,1899.0 1017.4,1915.0  " style="stroke-opacity: 1.000000; stroke-width: 5.0; stroke: rgb(107,174,214); fill: none"  />
<path d="M 1099.2,1994.5 L 1114.9,1975.3 1130.9,1956.5 1146.9,1938.2 1162.9,1920.5 1179.0,1903.5 1194.9,1887.3 1210.6,1872.2 1226.0,1858.1 1241.2,1845.2 1256.0,1833.5 1270.4,1823.2 1284.3,1814.3 1297.7,1806.9 1310.6,1801.0 1322.9,1796.7 1334.5,1794.0 1345.6,1792.9 1355.9,1793.5 1365.5,1795.7 1374.4,1799.6 1382.6,1805.1 1390.1,1812.3 1396.7,1821.2 1402.7,1831.6 1407.8,1843.5 1412.3,1857.0 1415.9,1871.8 1418.9,1888.1 1421.1,1905.7 1422.6,1924.4 1423.4,1944.3 1423.6,1965.2 1423.2,1987.1 1422.2,2009.7 1420.6,2033.0 1418.5,2056.8 1415.9,2081.0 1412.9,2105.5 1409.6,2130.0  " style="stroke-opacity: 1.000000; stroke-width: 5.0; stroke: rgb(107,174,214); fill: none"  />
<path d="M 1099.2,1994.5 L 1114.8,1975.4 1130.5,1956.7 1146.1,1938.4 1161.7,1920.6 1177.0,1903.5 1192.2,1887.3 1206.9,1871.9 1221.3,1857.6 1235.2,1844.5 1248.6,1832.5 1261.4,1821.8 1273.5,1812.5 1285.0,1804.7 1295.7,1798.3 1305.7,1793.4 1314.9,1790.1 1323.2,1788.4 1330.7,1788.3 1337.3,1789.8 1343.1,1792.9 1347.9,1797.7 1351.9,1804.1 1354.9,1812.0 1357.1,1821.6 1358.3,1832.6 1358.7,1845.1 1358.2,1859.0 1356.9,1874.2 1354.8,1890.7 1351.9,1908.4 1348.3,1927.3 1343.9,1947.1 1339.0,1967.8 1333.4,1989.3 1327.3,2011.4 1320.6,2034.1 1313.6,2057.1 1306.2,2080.4 1298.5,2103.8  " style="stroke-opacity: 1.000000; stroke-width: 5.0; stroke: rgb(107,174,214); fill: none"  />
<path d="M 1099.2,1994.5 L 1114.7,1975.5 1130.1,1956.7 1145.4,1938.3 1160.5,1920.4 1175.3,1903.1 1189.7,1886.6 1203.6,1870.9 1217.0,1856.2 1229.7,1842.5 1241.7,1830.0 1253.0,1818.7 1263.5,1808.6 1273.1,1800.0 1281.8,1792.7 1289.6,1786.9 1296.4,1782.5 1302.3,1779.7 1307.1,1778.5 1310.8,1778.7 1313.6,1780.6 1315.3,1784.0 1315.9,1788.9 1315.5,1795.3 1314.1,1803.3 1311.6,1812.7 1308.2,1823.5 1303.8,1835.7 1298.5,1849.2 1292.3,1863.9 1285.2,1879.8 1277.4,1896.7 1268.8,1914.7 1259.6,1933.5 1249.7,1953.1 1239.3,1973.3 1228.4,1994.1 1217.2,2015.2 1205.7,2036.6 1194.0,2058.1  " style="stroke-opacity: 1.000000; stroke-width: 5.0; stroke: rgb(107,174,214); fill: none"  />
<path d="M 1099.2,1994.5 L 1114.6,1975.4 1129.8,1956.4 1144.6,1937.6 1159.0,1919.1 1172.8,1901.1 1186.0,1883.6 1198.5,1866.7 1210.1,1850.6 1220.9,1835.3 1230.6,1821.0 1239.4,1807.6 1247.0,1795.3 1253.5,1784.1 1258.8,1774.0 1262.9,1765.2 1265.7,1757.6 1267.3,1751.4 1267.5,1746.4 1266.5,1742.8 1264.1,1740.5 1260.4,1739.5 1255.5,1739.9 1249.3,1741.7 1241.8,1744.7 1233.1,1749.0 1223.2,1754.6 1212.2,1761.5 1200.1,1769.4 1187.0,1778.6 1172.9,1788.7 1157.9,1799.9 1142.2,1812.0 1125.7,1825.0 1108.6,1838.7 1090.9,1853.0 1072.9,1868.0 1054.5,1883.3 1036.0,1899.0 1017.4,1915.0  " style="stroke-opacity: 1.000000; stroke-width: 5.0; stroke: rgb(107,174,214); fill: none"  />
<path d="M 1636.7,2121.6 L 1631.5,2097.7 1626.5,2073.9 1621.6,2050.5 1617.0,2027.5 1612.8,2005.2 1608.8,1983.6 1605.2,1963.0 1602.0,1943.3 1599.3,1924.9 1597.0,1907.6 1595.2,1891.8 1593.9,1877.3 1593.1,1864.4 1592.8,1853.1 1593.1,1843.3 1594.0,1835.3 1595.4,1829.0 1597.4,1824.5 1600.0,1821.7 1603.1,1820.7 1606.8,1821.5 1611.1,1824.1 1615.9,1828.4 1621.2,1834.5 1627.0,1842.2 1633.3,1851.7 1640.1,1862.7 1647.4,1875.3 1655.0,1889.3 1663.0,1904.7 1671.4,1921.4 1680.1,1939.3 1689.0,1958.3 1698.2,1978.2 1707.5,1998.9 1717.0,2020.4 1726.5,2042.3 1736.0,2064.7 1745.5,2087.2  " style="stroke-opacity: 1.000000; stroke-width: 5.0; stroke: rgb(107,174,214); fill: none"  />
<path d="M 1017.4,1915.0 L 1036.1,1899.0 1054.8,1883.4 1073.5,1868.1 1092.0,1853.4 1110.2,1839.4 1128.0,1826.1 1145.2,1813.6 1161.9,1802.1 1178.0,1791.6 1193.3,1782.3 1207.8,1774.1 1221.4,1767.1 1234.1,1761.4 1245.8,1757.0 1256.4,1754.0 1266.1,1752.4 1274.6,1752.2 1282.0,1753.4 1288.2,1756.1 1293.3,1760.2 1297.2,1765.8 1300.0,1772.8 1301.5,1781.1 1301.9,1790.9 1301.2,1801.9 1299.4,1814.3 1296.4,1827.9 1292.4,1842.7 1287.4,1858.5 1281.4,1875.4 1274.4,1893.3 1266.6,1912.0 1258.0,1931.5 1248.7,1951.6 1238.7,1972.3 1228.2,1993.5 1217.1,2014.9 1205.7,2036.5 1194.0,2058.1  " style="stroke-opacity: 1.000000; stroke-width: 5.0; stroke: rgb(107,174,214); fill: none"  />
<path d="M 1017.4,1915.0 L 1036.0,1899.0 1054.5,1883.3 1072.9,1868.0 1090.9,1853.0 1108.6,1838.7 1125.7,1825.0 1142.2,1812.0 1157.9,1799.9 1172.9,1788.7 1187.0,1778.6 1200.1,1769.4 1212.2,1761.5 1223.2,1754.6 1233.1,1749.0 1241.8,1744.7 1249.3,1741.7 1255.5,1739.9 1260.4,1739.5 1264.1,1740.5 1266.5,1742.8 1267.5,1746.4 1267.3,1751.4 1265.7,1757.6 1262.9,1765.2 1258.8,1774.0 1253.5,1784.1 1247.0,1795.3 1239.4,1807.6 1230.6,1821.0 1220.9,1835.3 1210.1,1850.6 1198.5,1866.7 1186.0,1883.6 1172.8,1901.1 1159.0,1919.1 1144.6,1937.6 1129.8,1956.4 1114.6,1975.4 1099.2,1994.5  " style="stroke-opacity: 1.000000; stroke-width: 5.0; stroke: rgb(107,174,214); fill: none"  />
<path d="M 1523.5,2136.1 L 1522.8,2111.3 1522.4,2086.7 1522.4,2062.3 1522.8,2038.4 1523.7,2015.1 1525.0,1992.5 1526.9,1970.7 1529.3,1949.9 1532.2,1930.2 1535.7,1911.7 1539.8,1894.5 1544.4,1878.6 1549.6,1864.2 1555.4,1851.3 1561.8,1840.0 1568.8,1830.2 1576.4,1822.2 1584.6,1815.8 1593.3,1811.2 1602.6,1808.2 1612.4,1807.0 1622.7,1807.5 1633.5,1809.8 1644.9,1813.7 1656.6,1819.3 1668.8,1826.5 1681.3,1835.3 1694.3,1845.6 1707.5,1857.4 1721.0,1870.5 1734.7,1885.0 1748.6,1900.6 1762.6,1917.3 1776.7,1935.1 1790.9,1953.6 1805.0,1973.0 1819.0,1992.9 1832.8,2013.3 1846.4,2034.0  " style="stroke-opacity: 1.000000; stroke-width: 5.0; stroke: rgb(107,174,214); fill: none"  />
<path d="M 2075.6,1228.4 L 2052.3,1239.1 2028.7,1249.3 2004.9,1258.8 1981.0,1267.6 1957.2,1275.5 1933.4,1282.6 1909.9,1288.7 1886.6,1293.8 1863.7,1297.8 1841.2,1300.6 1819.2,1302.2 1797.7,1302.5 1776.8,1301.6 1756.6,1299.4 1737.1,1295.8 1718.3,1290.9 1700.4,1284.6 1683.2,1277.0 1666.9,1268.0 1651.5,1257.7 1637.1,1246.0 1623.5,1233.1 1610.9,1218.8 1599.3,1203.3 1588.6,1186.6 1578.9,1168.7 1570.1,1149.7 1562.3,1129.7 1555.5,1108.7 1549.6,1086.8 1544.6,1064.1 1540.5,1040.6 1537.2,1016.5 1534.8,991.9 1533.1,966.8 1532.2,941.4 1532.1,915.8 1532.5,890.1 1533.6,864.4  " style="stroke-opacity: 1.000000; stroke-width: 5.0; stroke: rgb(107,174,214); fill: none"  />
<path d="M 2075.6,1228.4 L 2053.2,1238.8 2030.7,1248.8 2008.3,1258.4 1986.1,1267.4 1964.3,1275.8 1943.0,1283.4 1922.2,1290.3 1902.2,1296.2 1882.9,1301.3 1864.6,1305.4 1847.1,1308.4 1830.7,1310.4 1815.4,1311.2 1801.3,1311.0 1788.3,1309.5 1776.6,1306.9 1766.2,1303.1 1757.2,1298.1 1749.5,1291.9 1743.1,1284.6 1738.1,1276.0 1734.6,1266.3 1732.4,1255.4 1731.5,1243.5 1732.1,1230.5 1733.9,1216.5 1737.1,1201.5 1741.5,1185.5 1747.1,1168.7 1753.9,1151.2 1761.8,1132.9 1770.7,1114.0 1780.5,1094.5 1791.3,1074.6 1802.8,1054.3 1815.0,1033.7 1827.9,1013.0 1841.2,992.2 1854.8,971.6  " style="stroke-opacity: 1.000000; stroke-width: 5.0; stroke: rgb(107,174,214); fill: none"  />
<path d="M 2012.0,1878.2 L 1992.0,1863.2 1972.3,1847.8 1953.2,1832.2 1934.6,1816.5 1916.9,1800.6 1900.0,1784.6 1884.1,1768.6 1869.3,1752.7 1855.7,1736.8 1843.4,1721.1 1832.4,1705.5 1822.9,1690.2 1814.9,1675.2 1808.4,1660.4 1803.5,1646.0 1800.3,1631.9 1798.7,1618.2 1798.9,1605.0 1800.7,1592.2 1804.2,1579.9 1809.4,1568.1 1816.2,1556.7 1824.8,1545.9 1834.9,1535.7 1846.7,1526.0 1859.9,1516.8 1874.7,1508.2 1890.8,1500.2 1908.3,1492.8 1927.1,1485.9 1947.0,1479.6 1967.9,1473.8 1989.9,1468.6 2012.6,1463.9 2036.1,1459.7 2060.2,1456.1 2084.7,1452.9 2109.5,1450.2 2134.4,1448.0  " style="stroke-opacity: 1.000000; stroke-width: 5.0; stroke: rgb(107,174,214); fill: none"  />
</g>
<defs>
<pattern id="vline" width="10" height="10" patternTransform="rotate(0 0 0)" patternUnits="userSpaceOnUse"><line x1="0" y1="0" x2="0" y2="10" style="stroke:black;stroke-width:5" /></pattern>
<pattern id="vline-sparse" width="10" height="10" patternTransform="rotate(0 0 0)" patternUnits="userSpaceOnUse"><line x1="0" y1="0" x2="0" y2="10" style="stroke:black;stroke-width:2" /></pattern>
<pattern id="checker" width="10" height="10" patternTransform="rotate(45 0 0)" patternUnits="userSpaceOnUse"><line x1="0" y1="0" x2="10" y2="0" style="stroke:black;stroke-width:5" /><line x1="0" y1="0" x2="0" y2="10" style="stroke:black;stroke-width:4" /></pattern>
<pattern id="checker" width="10" height="10" patternTransform="rotate(45 0 0)" patternUnits="userSpaceOnUse"><line x1="0" y1="0" x2="10" y2="0" style="stroke:black;stroke-width:2" /><line x1="0" y1="0" x2="0" y2="10" style="stroke:black;stroke-width:2" /></pattern>
<pattern id="hline" width="10" height="10" patternTransform="rotate(0 0 0)" patternUnits="userSpaceOnUse"><line x1="0" y1="0" x2="10" y2="0" style="stroke:black;stroke-width:5" /></pattern>
<pattern id="hline-sparse" width="10" height="10" patternTransform="rotate(0 0 0)" patternUnits="userSpaceOnUse"><line x1="0" y1="0" x2="10" y2="0" style="stroke:black;stroke-width:2" /></pattern>
</defs>
</svg>
