<?xml version="1.0" encoding="utf-8" standalone="no"?>
<!DOCTYPE svg PUBLIC "-//W3C//DTD SVG 1.1//EN" "http://www.w3.org/Graphics/SVG/1.1/DTD/svg11.dtd">
<svg width="3000px" height="3000px" version="1.1" xmlns="http://www.w3.org/2000/svg" xmlns:xlink="http://www.w3.org/1999/xlink">
<g id="bg">
<rect x="0" y="0" width="3000px" height="3000px" style="fill:rgb(255,255,255);"/>
</g>
<g id="ideograms">
<path d="M1500.000,535.000 A965.000,965.000 40.000 0,1 1601.714,540.376 L1618.579,381.267 A1125.000,1125.000 0.000 0,0 1500.000,375.000 Z" style="stroke-width:2.0;stroke:rgb(115,115,115);stroke-linecap:round;fill:rgb(153,204,255);" />
<text x="1635.1" y="307.6" font-size="195.0px" font-family="CMUBright-Bold" style="text-anchor:start;fill:rgb(0,0,0);" transform="rotate(273.0,1635.1,307.6)" >1</text>
<path d="M1500.000,535.000 A965.000,965.000 40.000 0,1 1601.714,540.376 L1618.579,381.267 A1125.000,1125.000 0.000 0,0 1500.000,375.000 Z" style="stroke-width:2.0;stroke:rgb(115,115,115);stroke-linecap:round;fill:none;" />
<path d="M1672.307,550.508 A965.000,965.000 40.000 0,1 1771.427,573.959 L1816.431,420.418 A1125.000,1125.000 0.000 0,0 1700.877,393.079 Z" style="stroke-width:2.0;stroke:rgb(115,115,115);stroke-linecap:round;fill:rgb(153,204,255);" />
<text x="1845.8" y="350.9" font-size="195.0px" font-family="CMUBright-Bold" style="text-anchor:start;fill:rgb(0,0,0);" transform="rotate(283.3,1845.8,350.9)" >5</text>
<path d="M1672.307,550.508 A965.000,965.000 40.000 0,1 1771.427,573.959 L1816.431,420.418 A1125.000,1125.000 0.000 0,0 1700.877,393.079 Z" style="stroke-width:2.0;stroke:rgb(115,115,115);stroke-linecap:round;fill:none;" />
<path d="M1839.077,596.533 A965.000,965.000 40.000 0,1 1932.417,637.306 L2004.113,494.269 A1125.000,1125.000 0.000 0,0 1895.297,446.736 Z" style="stroke-width:2.0;stroke:rgb(115,115,115);stroke-linecap:round;fill:rgb(153,204,255);" />
<text x="2047.2" y="432.0" font-size="195.0px" font-family="CMUBright-Bold" style="text-anchor:start;fill:rgb(0,0,0);" transform="rotate(293.6,2047.2,432.0)" >6</text>
<path d="M1839.077,596.533 A965.000,965.000 40.000 0,1 1932.417,637.306 L2004.113,494.269 A1125.000,1125.000 0.000 0,0 1895.297,446.736 Z" style="stroke-width:2.0;stroke:rgb(115,115,115);stroke-linecap:round;fill:none;" />
<path d="M1994.948,671.597 A965.000,965.000 40.000 0,1 2079.507,728.381 L2175.592,600.444 A1125.000,1125.000 0.000 0,0 2077.012,534.245 Z" style="stroke-width:2.0;stroke:rgb(115,115,115);stroke-linecap:round;fill:rgb(153,204,255);" />
<text x="2229.1" y="546.9" font-size="195.0px" font-family="CMUBright-Bold" style="text-anchor:start;fill:rgb(0,0,0);" transform="rotate(303.9,2229.1,546.9)" >9</text>
<path d="M1994.948,671.597 A965.000,965.000 40.000 0,1 2079.507,728.381 L2175.592,600.444 A1125.000,1125.000 0.000 0,0 2077.012,534.245 Z" style="stroke-width:2.0;stroke:rgb(115,115,115);stroke-linecap:round;fill:none;" />
<path d="M2134.911,773.286 A965.000,965.000 40.000 0,1 2207.972,844.256 L2325.356,735.532 A1125.000,1125.000 0.000 0,0 2240.181,652.795 Z" style="stroke-width:2.0;stroke:rgb(115,115,115);stroke-linecap:round;fill:rgb(153,204,255);" />
<text x="2387.6" y="692.4" font-size="195.0px" font-family="CMUBright-Bold" style="text-anchor:start;fill:rgb(0,0,0);" transform="rotate(314.2,2387.6,692.4)" >10</text>
<path d="M2134.911,773.286 A965.000,965.000 40.000 0,1 2207.972,844.256 L2325.356,735.532 A1125.000,1125.000 0.000 0,0 2240.181,652.795 Z" style="stroke-width:2.0;stroke:rgb(115,115,115);stroke-linecap:round;fill:none;" />
<path d="M2254.467,898.332 A965.000,965.000 40.000 0,1 2313.683,981.207 L2448.594,895.190 A1125.000,1125.000 0.000 0,0 2379.560,798.574 Z" style="stroke-width:2.0;stroke:rgb(115,115,115);stroke-linecap:round;fill:rgb(153,204,255);" />
<text x="2517.5" y="863.9" font-size="195.0px" font-family="CMUBright-Bold" style="text-anchor:start;fill:rgb(0,0,0);" transform="rotate(324.5,2517.5,863.9)" >19</text>
<path d="M2254.467,898.332 A965.000,965.000 40.000 0,1 2313.683,981.207 L2448.594,895.190 A1125.000,1125.000 0.000 0,0 2379.560,798.574 Z" style="stroke-width:2.0;stroke:rgb(115,115,115);stroke-linecap:round;fill:none;" />
<path d="M2349.775,1042.717 A965.000,965.000 40.000 0,1 2393.240,1134.833 L2541.342,1074.288 A1125.000,1125.000 0.000 0,0 2490.670,966.898 Z" style="stroke-width:2.0;stroke:rgb(115,115,115);stroke-linecap:round;fill:rgb(153,204,255);" />
<text x="2614.7" y="1055.8" font-size="195.0px" font-family="CMUBright-Bold" style="text-anchor:start;fill:rgb(0,0,0);" transform="rotate(334.7,2614.7,1055.8)" >34</text>
<path d="M2349.775,1042.717 A965.000,965.000 40.000 0,1 2393.240,1134.833 L2541.342,1074.288 A1125.000,1125.000 0.000 0,0 2490.670,966.898 Z" style="stroke-width:2.0;stroke:rgb(115,115,115);stroke-linecap:round;fill:none;" />
<path d="M2417.770,1201.799 A965.000,965.000 40.000 0,1 2444.089,1300.196 L2600.621,1267.068 A1125.000,1125.000 0.000 0,0 2569.939,1152.356 Z" style="stroke-width:2.0;stroke:rgb(115,115,115);stroke-linecap:round;fill:rgb(116,196,118);" />
<text x="2675.8" y="1260.0" font-size="195.0px" font-family="CMUBright-Bold" style="text-anchor:start;fill:rgb(0,0,0);" transform="rotate(345.0,2675.8,1260.0)" >2</text>
<path d="M2417.770,1201.799 A965.000,965.000 40.000 0,1 2444.089,1300.196 L2600.621,1267.068 A1125.000,1125.000 0.000 0,0 2569.939,1152.356 Z" style="stroke-width:2.0;stroke:rgb(115,115,115);stroke-linecap:round;fill:none;" />
<path d="M2456.267,1370.465 A965.000,965.000 40.000 0,1 2464.593,1471.980 L2624.526,1467.335 A1125.000,1125.000 0.000 0,0 2614.818,1348.988 Z" style="stroke-width:2.0;stroke:rgb(115,115,115);stroke-linecap:round;fill:rgb(116,196,118);" />
<text x="2699.8" y="1475.8" font-size="195.0px" font-family="CMUBright-Bold" style="text-anchor:start;fill:rgb(0,0,0);" transform="rotate(355.3,2699.8,1475.8)" >8</text>
<path d="M2456.267,1370.465 A965.000,965.000 40.000 0,1 2464.593,1471.980 L2624.526,1467.335 A1125.000,1125.000 0.000 0,0 2614.818,1348.988 Z" style="stroke-width:2.0;stroke:rgb(115,115,115);stroke-linecap:round;fill:none;" />
<path d="M2464.028,1543.295 A965.000,965.000 40.000 0,1 2454.095,1644.665 L2612.287,1668.651 A1125.000,1125.000 0.000 0,0 2623.867,1550.473 Z" style="stroke-width:2.0;stroke:rgb(115,115,115);stroke-linecap:round;fill:rgb(116,196,118);" />
<text x="2684.8" y="1690.4" font-size="195.0px" font-family="CMUBright-Bold" style="text-anchor:start;fill:rgb(0,0,0);" transform="rotate(5.6,2684.8,1690.4)" >23</text>
<path d="M2464.028,1543.295 A965.000,965.000 40.000 0,1 2454.095,1644.665 L2612.287,1668.651 A1125.000,1125.000 0.000 0,0 2623.867,1550.473 Z" style="stroke-width:2.0;stroke:rgb(115,115,115);stroke-linecap:round;fill:none;" />
<path d="M2440.805,1714.733 A965.000,965.000 40.000 0,1 2412.931,1812.701 L2564.298,1864.548 A1125.000,1125.000 0.000 0,0 2596.794,1750.336 Z" style="stroke-width:2.0;stroke:rgb(115,115,115);stroke-linecap:round;fill:rgb(116,196,118);" />
<text x="2632.4" y="1897.0" font-size="195.0px" font-family="CMUBright-Bold" style="text-anchor:start;fill:rgb(0,0,0);" transform="rotate(15.9,2632.4,1897.0)" >24</text>
<path d="M2440.805,1714.733 A965.000,965.000 40.000 0,1 2412.931,1812.701 L2564.298,1864.548 A1125.000,1125.000 0.000 0,0 2596.794,1750.336 Z" style="stroke-width:2.0;stroke:rgb(115,115,115);stroke-linecap:round;fill:none;" />
<path d="M2387.344,1879.269 A965.000,965.000 40.000 0,1 2342.425,1970.686 L2482.102,2048.727 A1125.000,1125.000 0.000 0,0 2534.469,1942.153 Z" style="stroke-width:2.0;stroke:rgb(115,115,115);stroke-linecap:round;fill:rgb(116,196,118);" />
<text x="2542.3" y="2094.6" font-size="195.0px" font-family="CMUBright-Bold" style="text-anchor:start;fill:rgb(0,0,0);" transform="rotate(26.2,2542.3,2094.6)" >33</text>
<path d="M2387.344,1879.269 A965.000,965.000 40.000 0,1 2342.425,1970.686 L2482.102,2048.727 A1125.000,1125.000 0.000 0,0 2534.469,1942.153 Z" style="stroke-width:2.0;stroke:rgb(115,115,115);stroke-linecap:round;fill:none;" />
<path d="M2305.363,2031.616 A965.000,965.000 40.000 0,1 2244.843,2113.542 L2368.340,2215.270 A1125.000,1125.000 0.000 0,0 2438.895,2119.759 Z" style="stroke-width:2.0;stroke:rgb(115,115,115);stroke-linecap:round;fill:rgb(116,196,118);" />
<text x="2419.4" y="2271.1" font-size="195.0px" font-family="CMUBright-Bold" style="text-anchor:start;fill:rgb(0,0,0);" transform="rotate(36.5,2419.4,2271.1)" >35</text>
<path d="M2305.363,2031.616 A965.000,965.000 40.000 0,1 2244.843,2113.542 L2368.340,2215.270 A1125.000,1125.000 0.000 0,0 2438.895,2119.759 Z" style="stroke-width:2.0;stroke:rgb(115,115,115);stroke-linecap:round;fill:none;" />
<path d="M2197.497,2166.875 A965.000,965.000 40.000 0,1 2123.321,2236.679 L2226.669,2358.823 A1125.000,1125.000 0.000 0,0 2313.144,2277.445 Z" style="stroke-width:2.0;stroke:rgb(115,115,115);stroke-linecap:round;fill:rgb(153,0,204);" />
<text x="2269.3" y="2421.0" font-size="195.0px" font-family="CMUBright-Bold" style="text-anchor:start;fill:rgb(0,0,0);" transform="rotate(46.7,2269.3,2421.0)" >7</text>
<path d="M2197.497,2166.875 A965.000,965.000 40.000 0,1 2123.321,2236.679 L2226.669,2358.823 A1125.000,1125.000 0.000 0,0 2313.144,2277.445 Z" style="stroke-width:2.0;stroke:rgb(115,115,115);stroke-linecap:round;fill:none;" />
<path d="M2067.213,2280.701 A965.000,965.000 40.000 0,1 1981.764,2336.139 L2061.642,2474.773 A1125.000,1125.000 0.000 0,0 2161.258,2410.144 Z" style="stroke-width:2.0;stroke:rgb(115,115,115);stroke-linecap:round;fill:rgb(153,0,204);" />
<text x="2089.8" y="2545.0" font-size="195.0px" font-family="CMUBright-Bold" style="text-anchor:start;fill:rgb(0,0,0);" transform="rotate(57.0,2089.8,2545.0)" >13</text>
<path d="M2067.213,2280.701 A965.000,965.000 40.000 0,1 1981.764,2336.139 L2061.642,2474.773 A1125.000,1125.000 0.000 0,0 2161.258,2410.144 Z" style="stroke-width:2.0;stroke:rgb(115,115,115);stroke-linecap:round;fill:none;" />
<path d="M1918.698,2369.435 A965.000,965.000 40.000 0,1 1824.724,2408.724 L1878.564,2559.393 A1125.000,1125.000 0.000 0,0 1988.119,2513.590 Z" style="stroke-width:2.0;stroke:rgb(115,115,115);stroke-linecap:round;fill:rgb(153,0,204);" />
<text x="1894.7" y="2633.2" font-size="195.0px" font-family="CMUBright-Bold" style="text-anchor:start;fill:rgb(0,0,0);" transform="rotate(67.3,1894.7,2633.2)" >17</text>
<path d="M1918.698,2369.435 A965.000,965.000 40.000 0,1 1824.724,2408.724 L1878.564,2559.393 A1125.000,1125.000 0.000 0,0 1988.119,2513.590 Z" style="stroke-width:2.0;stroke:rgb(115,115,115);stroke-linecap:round;fill:none;" />
<path d="M1756.726,2430.224 A965.000,965.000 40.000 0,1 1657.246,2452.102 L1683.318,2609.964 A1125.000,1125.000 0.000 0,0 1799.291,2584.458 Z" style="stroke-width:2.0;stroke:rgb(115,115,115);stroke-linecap:round;fill:rgb(153,0,204);" />
<text x="1685.0" y="2685.6" font-size="195.0px" font-family="CMUBright-Bold" style="text-anchor:start;fill:rgb(0,0,0);" transform="rotate(77.6,1685.0,2685.6)" >25</text>
<path d="M1756.726,2430.224 A965.000,965.000 40.000 0,1 1657.246,2452.102 L1683.318,2609.964 A1125.000,1125.000 0.000 0,0 1799.291,2584.458 Z" style="stroke-width:2.0;stroke:rgb(115,115,115);stroke-linecap:round;fill:none;" />
<path d="M1586.502,2461.115 A965.000,965.000 40.000 0,1 1484.715,2464.879 L1482.181,2624.859 A1125.000,1125.000 0.000 0,0 1600.844,2620.471 Z" style="stroke-width:2.0;stroke:rgb(115,115,115);stroke-linecap:round;fill:rgb(153,0,204);" />
<text x="1470.4" y="2699.6" font-size="195.0px" font-family="CMUBright-Bold" style="text-anchor:start;fill:rgb(0,0,0);" transform="rotate(87.9,1470.4,2699.6)" >28</text>
<path d="M1586.502,2461.115 A965.000,965.000 40.000 0,1 1484.715,2464.879 L1482.181,2624.859 A1125.000,1125.000 0.000 0,0 1600.844,2620.471 Z" style="stroke-width:2.0;stroke:rgb(115,115,115);stroke-linecap:round;fill:none;" />
<path d="M1413.498,2461.115 A965.000,965.000 40.000 0,1 1312.675,2446.644 L1281.616,2603.600 A1125.000,1125.000 0.000 0,0 1399.156,2620.471 Z" style="stroke-width:2.0;stroke:rgb(115,115,115);stroke-linecap:round;fill:rgb(253,208,162);" />
<text x="1401.0" y="2695.9" font-size="195.0px" font-family="CMUBright-Bold" style="text-anchor:end;fill:rgb(0,0,0);" transform="rotate(-81.8,1401.0,2695.9)" >12</text>
<path d="M1413.498,2461.115 A965.000,965.000 40.000 0,1 1312.675,2446.644 L1281.616,2603.600 A1125.000,1125.000 0.000 0,0 1399.156,2620.471 Z" style="stroke-width:2.0;stroke:rgb(115,115,115);stroke-linecap:round;fill:none;" />
<path d="M1243.274,2430.224 A965.000,965.000 40.000 0,1 1146.656,2397.983 L1088.070,2546.871 A1125.000,1125.000 0.000 0,0 1200.709,2584.458 Z" style="stroke-width:2.0;stroke:rgb(115,115,115);stroke-linecap:round;fill:rgb(253,208,162);" />
<text x="1191.0" y="2659.5" font-size="195.0px" font-family="CMUBright-Bold" style="text-anchor:end;fill:rgb(0,0,0);" transform="rotate(-71.5,1191.0,2659.5)" >16</text>
<path d="M1243.274,2430.224 A965.000,965.000 40.000 0,1 1146.656,2397.983 L1088.070,2546.871 A1125.000,1125.000 0.000 0,0 1200.709,2584.458 Z" style="stroke-width:2.0;stroke:rgb(115,115,115);stroke-linecap:round;fill:none;" />
<path d="M1081.302,2369.435 A965.000,965.000 40.000 0,1 991.993,2320.460 L907.764,2456.494 A1125.000,1125.000 0.000 0,0 1011.881,2513.590 Z" style="stroke-width:2.0;stroke:rgb(115,115,115);stroke-linecap:round;fill:rgb(253,208,162);" />
<text x="988.9" y="2585.7" font-size="195.0px" font-family="CMUBright-Bold" style="text-anchor:end;fill:rgb(0,0,0);" transform="rotate(-61.3,988.9,2585.7)" >20</text>
<path d="M1081.302,2369.435 A965.000,965.000 40.000 0,1 991.993,2320.460 L907.764,2456.494 A1125.000,1125.000 0.000 0,0 1011.881,2513.590 Z" style="stroke-width:2.0;stroke:rgb(115,115,115);stroke-linecap:round;fill:none;" />
<path d="M932.787,2280.701 A965.000,965.000 40.000 0,1 853.658,2216.566 L746.493,2335.375 A1125.000,1125.000 0.000 0,0 838.742,2410.144 Z" style="stroke-width:2.0;stroke:rgb(115,115,115);stroke-linecap:round;fill:rgb(253,208,162);" />
<text x="801.7" y="2475.9" font-size="195.0px" font-family="CMUBright-Bold" style="text-anchor:end;fill:rgb(0,0,0);" transform="rotate(-51.0,801.7,2475.9)" >21</text>
<path d="M932.787,2280.701 A965.000,965.000 40.000 0,1 853.658,2216.566 L746.493,2335.375 A1125.000,1125.000 0.000 0,0 838.742,2410.144 Z" style="stroke-width:2.0;stroke:rgb(115,115,115);stroke-linecap:round;fill:none;" />
<path d="M802.503,2166.875 A965.000,965.000 40.000 0,1 736.097,2089.642 L609.440,2187.406 A1125.000,1125.000 0.000 0,0 686.856,2277.445 Z" style="stroke-width:2.0;stroke:rgb(115,115,115);stroke-linecap:round;fill:rgb(253,208,162);" />
<text x="640.0" y="2336.9" font-size="195.0px" font-family="CMUBright-Bold" style="text-anchor:end;fill:rgb(0,0,0);" transform="rotate(-40.7,640.0,2336.9)" >26</text>
<path d="M802.503,2166.875 A965.000,965.000 40.000 0,1 736.097,2089.642 L609.440,2187.406 A1125.000,1125.000 0.000 0,0 686.856,2277.445 Z" style="stroke-width:2.0;stroke:rgb(115,115,115);stroke-linecap:round;fill:none;" />
<path d="M694.637,2031.616 A965.000,965.000 40.000 0,1 643.089,1943.766 L501.010,2017.344 A1125.000,1125.000 0.000 0,0 561.105,2119.759 Z" style="stroke-width:2.0;stroke:rgb(115,115,115);stroke-linecap:round;fill:rgb(253,141,60);" />
<text x="504.4" y="2169.9" font-size="195.0px" font-family="CMUBright-Bold" style="text-anchor:end;fill:rgb(0,0,0);" transform="rotate(-30.4,504.4,2169.9)" >3</text>
<path d="M694.637,2031.616 A965.000,965.000 40.000 0,1 643.089,1943.766 L501.010,2017.344 A1125.000,1125.000 0.000 0,0 561.105,2119.759 Z" style="stroke-width:2.0;stroke:rgb(115,115,115);stroke-linecap:round;fill:none;" />
<path d="M612.656,1879.269 A965.000,965.000 40.000 0,1 577.622,1783.627 L424.689,1830.653 A1125.000,1125.000 0.000 0,0 465.531,1942.153 Z" style="stroke-width:2.0;stroke:rgb(115,115,115);stroke-linecap:round;fill:rgb(253,141,60);" />
<text x="400.0" y="1979.6" font-size="195.0px" font-family="CMUBright-Bold" style="text-anchor:end;fill:rgb(0,0,0);" transform="rotate(-20.1,400.0,1979.6)" >11</text>
<path d="M612.656,1879.269 A965.000,965.000 40.000 0,1 577.622,1783.627 L424.689,1830.653 A1125.000,1125.000 0.000 0,0 465.531,1942.153 Z" style="stroke-width:2.0;stroke:rgb(115,115,115);stroke-linecap:round;fill:none;" />
<path d="M559.195,1714.733 A965.000,965.000 40.000 0,1 541.802,1614.372 L382.929,1633.336 A1125.000,1125.000 0.000 0,0 403.206,1750.336 Z" style="stroke-width:2.0;stroke:rgb(115,115,115);stroke-linecap:round;fill:rgb(253,141,60);" />
<text x="332.5" y="1777.4" font-size="195.0px" font-family="CMUBright-Bold" style="text-anchor:end;fill:rgb(0,0,0);" transform="rotate(-9.8,332.5,1777.4)" >15</text>
<path d="M559.195,1714.733 A965.000,965.000 40.000 0,1 541.802,1614.372 L382.929,1633.336 A1125.000,1125.000 0.000 0,0 403.206,1750.336 Z" style="stroke-width:2.0;stroke:rgb(115,115,115);stroke-linecap:round;fill:none;" />
<path d="M535.972,1543.295 A965.000,965.000 40.000 0,1 536.778,1441.441 L377.073,1431.732 A1125.000,1125.000 0.000 0,0 376.133,1550.473 Z" style="stroke-width:2.0;stroke:rgb(115,115,115);stroke-linecap:round;fill:rgb(253,141,60);" />
<text x="301.7" y="1564.5" font-size="195.0px" font-family="CMUBright-Bold" style="text-anchor:end;fill:rgb(0,0,0);" transform="rotate(0.5,301.7,1564.5)" >30</text>
<path d="M535.972,1543.295 A965.000,965.000 40.000 0,1 536.778,1441.441 L377.073,1431.732 A1125.000,1125.000 0.000 0,0 376.133,1550.473 Z" style="stroke-width:2.0;stroke:rgb(115,115,115);stroke-linecap:round;fill:none;" />
<path d="M543.733,1370.465 A965.000,965.000 40.000 0,1 562.714,1270.393 L407.309,1232.323 A1125.000,1125.000 0.000 0,0 385.182,1348.988 Z" style="stroke-width:2.0;stroke:rgb(115,115,115);stroke-linecap:round;fill:rgb(253,141,60);" />
<text x="309.5" y="1349.5" font-size="195.0px" font-family="CMUBright-Bold" style="text-anchor:end;fill:rgb(0,0,0);" transform="rotate(10.7,309.5,1349.5)" >31</text>
<path d="M543.733,1370.465 A965.000,965.000 40.000 0,1 562.714,1270.393 L407.309,1232.323 A1125.000,1125.000 0.000 0,0 385.182,1348.988 Z" style="stroke-width:2.0;stroke:rgb(115,115,115);stroke-linecap:round;fill:none;" />
<path d="M582.230,1201.799 A965.000,965.000 40.000 0,1 618.774,1106.724 L472.664,1041.517 A1125.000,1125.000 0.000 0,0 430.061,1152.356 Z" style="stroke-width:2.0;stroke:rgb(115,115,115);stroke-linecap:round;fill:rgb(253,141,60);" />
<text x="355.5" y="1139.3" font-size="195.0px" font-family="CMUBright-Bold" style="text-anchor:end;fill:rgb(0,0,0);" transform="rotate(21.0,355.5,1139.3)" >32</text>
<path d="M582.230,1201.799 A965.000,965.000 40.000 0,1 618.774,1106.724 L472.664,1041.517 A1125.000,1125.000 0.000 0,0 430.061,1152.356 Z" style="stroke-width:2.0;stroke:rgb(115,115,115);stroke-linecap:round;fill:none;" />
<path d="M650.225,1042.717 A965.000,965.000 40.000 0,1 703.158,955.695 L571.039,865.447 A1125.000,1125.000 0.000 0,0 509.330,966.898 Z" style="stroke-width:2.0;stroke:rgb(115,115,115);stroke-linecap:round;fill:rgb(66,146,198);" />
<text x="440.2" y="937.2" font-size="195.0px" font-family="CMUBright-Bold" style="text-anchor:end;fill:rgb(0,0,0);" transform="rotate(31.3,440.2,937.2)" >4</text>
<path d="M650.225,1042.717 A965.000,965.000 40.000 0,1 703.158,955.695 L571.039,865.447 A1125.000,1125.000 0.000 0,0 509.330,966.898 Z" style="stroke-width:2.0;stroke:rgb(115,115,115);stroke-linecap:round;fill:none;" />
<path d="M745.533,898.332 A965.000,965.000 40.000 0,1 813.153,822.160 L699.272,709.772 A1125.000,1125.000 0.000 0,0 620.440,798.574 Z" style="stroke-width:2.0;stroke:rgb(115,115,115);stroke-linecap:round;fill:rgb(66,146,198);" />
<text x="556.4" y="758.6" font-size="195.0px" font-family="CMUBright-Bold" style="text-anchor:end;fill:rgb(0,0,0);" transform="rotate(41.6,556.4,758.6)" >14</text>
<path d="M745.533,898.332 A965.000,965.000 40.000 0,1 813.153,822.160 L699.272,709.772 A1125.000,1125.000 0.000 0,0 620.440,798.574 Z" style="stroke-width:2.0;stroke:rgb(115,115,115);stroke-linecap:round;fill:none;" />
<path d="M865.089,773.286 A965.000,965.000 40.000 0,1 945.224,710.412 L853.241,579.496 A1125.000,1125.000 0.000 0,0 759.819,652.795 Z" style="stroke-width:2.0;stroke:rgb(115,115,115);stroke-linecap:round;fill:rgb(66,146,198);" />
<text x="702.5" y="603.4" font-size="195.0px" font-family="CMUBright-Bold" style="text-anchor:end;fill:rgb(0,0,0);" transform="rotate(51.9,702.5,603.4)" >18</text>
<path d="M865.089,773.286 A965.000,965.000 40.000 0,1 945.224,710.412 L853.241,579.496 A1125.000,1125.000 0.000 0,0 759.819,652.795 Z" style="stroke-width:2.0;stroke:rgb(115,115,115);stroke-linecap:round;fill:none;" />
<path d="M1005.052,671.597 A965.000,965.000 40.000 0,1 1095.126,624.042 L1027.997,478.806 A1125.000,1125.000 0.000 0,0 922.988,534.245 Z" style="stroke-width:2.0;stroke:rgb(115,115,115);stroke-linecap:round;fill:rgb(66,146,198);" />
<text x="877.1" y="474.3" font-size="195.0px" font-family="CMUBright-Bold" style="text-anchor:end;fill:rgb(0,0,0);" transform="rotate(62.2,877.1,474.3)" >22</text>
<path d="M1005.052,671.597 A965.000,965.000 40.000 0,1 1095.126,624.042 L1027.997,478.806 A1125.000,1125.000 0.000 0,0 922.988,534.245 Z" style="stroke-width:2.0;stroke:rgb(115,115,115);stroke-linecap:round;fill:none;" />
<path d="M1160.923,596.533 A965.000,965.000 40.000 0,1 1258.041,565.826 L1217.923,410.937 A1125.000,1125.000 0.000 0,0 1104.703,446.736 Z" style="stroke-width:2.0;stroke:rgb(115,115,115);stroke-linecap:round;fill:rgb(66,146,198);" />
<text x="1069.3" y="379.9" font-size="195.0px" font-family="CMUBright-Bold" style="text-anchor:end;fill:rgb(0,0,0);" transform="rotate(72.5,1069.3,379.9)" >27</text>
<path d="M1160.923,596.533 A965.000,965.000 40.000 0,1 1258.041,565.826 L1217.923,410.937 A1125.000,1125.000 0.000 0,0 1104.703,446.736 Z" style="stroke-width:2.0;stroke:rgb(115,115,115);stroke-linecap:round;fill:none;" />
<path d="M1327.693,550.508 A965.000,965.000 40.000 0,1 1428.732,537.635 L1416.916,378.072 A1125.000,1125.000 0.000 0,0 1299.123,393.079 Z" style="stroke-width:2.0;stroke:rgb(115,115,115);stroke-linecap:round;fill:rgb(66,146,198);" />
<text x="1275.3" y="321.2" font-size="195.0px" font-family="CMUBright-Bold" style="text-anchor:end;fill:rgb(0,0,0);" transform="rotate(82.7,1275.3,321.2)" >29</text>
<path d="M1327.693,550.508 A965.000,965.000 40.000 0,1 1428.732,537.635 L1416.916,378.072 A1125.000,1125.000 0.000 0,0 1299.123,393.079 Z" style="stroke-width:2.0;stroke:rgb(115,115,115);stroke-linecap:round;fill:none;" />
</g>
<g id="track_1">
<path d="M 1548.4,584.5 L 1546.2,629.0 1544.5,673.8 1543.2,718.9 1542.3,764.3 1541.9,809.9 1541.9,855.7 1542.5,901.6 1543.6,947.8 1545.2,994.1 1547.4,1040.5 1550.1,1087.0 1553.5,1133.6 1557.3,1180.2 1561.8,1226.9 1566.9,1273.6 1572.5,1320.2 1578.8,1366.9 1585.6,1413.5 1593.1,1460.0 1601.1,1506.4 1609.7,1552.7 1619.0,1598.9 1628.8,1644.9 1639.2,1690.7 1650.1,1736.4 1661.6,1781.8 1673.6,1827.1 1686.2,1872.0 1699.3,1916.8 1712.8,1961.2 1726.9,2005.3 1741.4,2049.2 1756.3,2092.7 1771.7,2135.8 1787.4,2178.6 1803.5,2221.0 1819.9,2263.0 1836.6,2304.6 1853.6,2345.8  " style="stroke-opacity: 1.000000; stroke-width: 5.0; stroke: rgb(251,106,74); fill: none"  />
<path d="M 1548.4,584.5 L 1546.0,631.0 1543.6,677.5 1541.4,724.1 1539.2,770.8 1537.2,817.6 1535.2,864.4 1533.3,911.2 1531.6,958.2 1529.9,1005.1 1528.4,1052.1 1526.9,1099.2 1525.6,1146.3 1524.4,1193.4 1523.3,1240.5 1522.3,1287.7 1521.4,1334.9 1520.7,1382.1 1520.1,1429.3 1519.6,1476.5 1519.2,1523.8 1519.0,1571.0 1518.8,1618.2 1518.8,1665.4 1518.9,1712.6 1519.2,1759.8 1519.5,1807.0 1520.0,1854.1 1520.6,1901.2 1521.3,1948.3 1522.1,1995.3 1523.0,2042.3 1524.0,2089.2 1525.1,2136.1 1526.4,2182.9 1527.7,2229.7 1529.1,2276.4 1530.6,2323.1 1532.2,2369.6 1533.9,2416.1  " style="stroke-opacity: 1.000000; stroke-width: 5.0; stroke: rgb(251,106,74); fill: none"  />
<path d="M 1711.1,607.9 L 1701.6,649.4 1692.7,691.5 1684.5,734.0 1676.9,777.0 1670.1,820.4 1664.1,864.1 1658.9,908.2 1654.6,952.5 1651.2,997.1 1648.7,1041.8 1647.1,1086.7 1646.6,1131.8 1647.0,1176.9 1648.5,1222.1 1650.9,1267.2 1654.5,1312.4 1659.1,1357.4 1664.7,1402.4 1671.4,1447.3 1679.1,1492.0 1687.9,1536.5 1697.8,1580.7 1708.6,1624.7 1720.5,1668.4 1733.3,1711.8 1747.2,1754.8 1761.9,1797.4 1777.6,1839.7 1794.2,1881.4 1811.6,1922.7 1829.8,1963.6 1848.8,2003.9 1868.5,2043.6 1888.9,2082.8 1909.9,2121.3 1931.5,2159.2 1953.5,2196.5 1976.1,2233.2 1999.0,2269.1  " style="stroke-opacity: 1.000000; stroke-width: 5.0; stroke: rgb(251,106,74); fill: none"  />
<path d="M 1711.1,607.9 L 1700.7,652.2 1690.5,696.8 1680.6,741.6 1670.9,786.7 1661.4,832.0 1652.2,877.5 1643.3,923.1 1634.6,969.0 1626.3,1015.0 1618.2,1061.2 1610.5,1107.5 1603.1,1154.0 1596.0,1200.6 1589.3,1247.3 1582.9,1294.1 1576.8,1341.0 1571.1,1388.0 1565.8,1435.1 1560.8,1482.2 1556.2,1529.3 1551.9,1576.5 1548.0,1623.7 1544.5,1670.9 1541.3,1718.0 1538.5,1765.2 1536.1,1812.3 1534.0,1859.4 1532.2,1906.5 1530.8,1953.4 1529.7,2000.3 1529.0,2047.1 1528.6,2093.7 1528.5,2140.3 1528.7,2186.7 1529.2,2232.9 1529.9,2279.0 1531.0,2324.9 1532.3,2370.6 1533.9,2416.1  " style="stroke-opacity: 1.000000; stroke-width: 5.0; stroke: rgb(251,106,74); fill: none"  />
<path d="M 1867.0,659.9 L 1851.1,697.4 1835.8,735.6 1821.3,774.4 1807.7,813.8 1795.0,853.7 1783.4,894.0 1772.7,934.8 1763.3,975.9 1755.0,1017.2 1748.0,1058.9 1742.3,1100.7 1737.9,1142.6 1734.9,1184.6 1733.3,1226.7 1733.1,1268.7 1734.4,1310.7 1737.1,1352.6 1741.3,1394.4 1747.0,1435.9 1754.2,1477.2 1762.8,1518.3 1772.9,1559.0 1784.4,1599.4 1797.3,1639.3 1811.6,1678.9 1827.3,1718.0 1844.3,1756.5 1862.5,1794.5 1882.0,1832.0 1902.6,1868.8 1924.3,1905.0 1947.0,1940.5 1970.7,1975.3 1995.3,2009.3 2020.7,2042.6 2046.8,2075.1 2073.4,2106.8 2100.7,2137.7 2128.3,2167.6  " style="stroke-opacity: 1.000000; stroke-width: 5.0; stroke: rgb(251,106,74); fill: none"  />
<path d="M 1867.0,659.9 L 1850.7,698.2 1834.9,737.2 1819.9,776.9 1805.5,817.1 1792.0,857.8 1779.4,899.0 1767.6,940.7 1756.9,982.8 1747.1,1025.2 1738.5,1068.0 1731.0,1111.0 1724.6,1154.3 1719.4,1197.8 1715.4,1241.4 1712.6,1285.2 1711.1,1329.0 1710.8,1372.8 1711.8,1416.6 1714.1,1460.4 1717.7,1504.1 1722.6,1547.7 1728.7,1591.1 1736.1,1634.4 1744.8,1677.3 1754.6,1720.0 1765.7,1762.4 1777.9,1804.5 1791.2,1846.1 1805.7,1887.4 1821.2,1928.2 1837.7,1968.4 1855.2,2008.2 1873.5,2047.4 1892.8,2086.0 1912.7,2124.0 1933.4,2161.4 1954.7,2198.0 1976.6,2233.9 1999.0,2269.1  " style="stroke-opacity: 1.000000; stroke-width: 5.0; stroke: rgb(251,106,74); fill: none"  />
<path d="M 2128.3,2167.6 L 2100.7,2137.7 2073.4,2106.8 2046.8,2075.1 2020.7,2042.6 1995.3,2009.3 1970.7,1975.3 1947.0,1940.5 1924.3,1905.0 1902.6,1868.8 1882.0,1832.0 1862.5,1794.5 1844.3,1756.5 1827.3,1718.0 1811.6,1678.9 1797.3,1639.3 1784.4,1599.4 1772.9,1559.0 1762.8,1518.3 1754.2,1477.2 1747.0,1435.9 1741.3,1394.4 1737.1,1352.6 1734.4,1310.7 1733.1,1268.7 1733.3,1226.7 1734.9,1184.6 1737.9,1142.6 1742.3,1100.7 1748.0,1058.9 1755.0,1017.2 1763.3,975.9 1772.7,934.8 1783.4,894.0 1795.0,853.7 1807.7,813.8 1821.3,774.4 1835.8,735.6 1851.1,697.4 1867.0,659.9  " style="stroke-opacity: 1.000000; stroke-width: 5.0; stroke: rgb(251,106,74); fill: none"  />
<path d="M 2128.3,2167.6 L 2103.0,2141.3 2077.2,2115.6 2051.0,2090.6 2024.5,2066.6 1997.7,2043.7 1970.8,2022.1 1943.9,2001.9 1916.9,1983.3 1890.1,1966.4 1863.4,1951.3 1837.0,1938.1 1810.9,1927.0 1785.1,1917.9 1759.8,1911.0 1735.0,1906.3 1710.7,1903.8 1687.0,1903.7 1664.0,1905.9 1641.7,1910.4 1620.0,1917.2 1599.1,1926.4 1579.0,1937.8 1559.7,1951.6 1541.3,1967.5 1523.7,1985.6 1507.0,2005.8 1491.1,2028.1 1476.2,2052.2 1462.1,2078.2 1449.0,2105.9 1436.7,2135.1 1425.4,2165.9 1414.9,2197.9 1405.3,2231.0 1396.6,2265.1 1388.7,2300.0 1381.6,2335.5 1375.3,2371.4 1369.8,2407.5  " style="stroke-opacity: 1.000000; stroke-width: 5.0; stroke: rgb(251,106,74); fill: none"  />
<path d="M 2128.3,2167.6 L 2104.2,2141.9 2080.4,2116.2 2057.1,2090.8 2034.4,2065.8 2012.6,2041.3 1991.8,2017.6 1972.1,1994.7 1953.7,1972.8 1936.6,1952.0 1921.0,1932.4 1907.1,1914.1 1894.8,1897.2 1884.3,1881.8 1875.6,1868.0 1868.8,1855.7 1863.9,1845.2 1861.0,1836.3 1860.1,1829.2 1861.3,1823.9 1864.4,1820.3 1869.6,1818.6 1876.7,1818.6 1885.9,1820.4 1896.9,1824.0 1909.9,1829.3 1924.7,1836.3 1941.2,1844.9 1959.4,1855.1 1979.2,1866.8 2000.5,1880.0 2023.2,1894.4 2047.2,1910.1 2072.2,1927.0 2098.3,1944.8 2125.1,1963.6 2152.6,1983.1 2180.7,2003.2 2209.0,2023.8 2237.4,2044.7  " style="stroke-opacity: 1.000000; stroke-width: 5.0; stroke: rgb(251,106,74); fill: none"  />
<path d="M 2011.1,738.9 L 1988.2,773.7 1965.7,809.3 1943.8,845.6 1922.6,882.6 1902.0,920.3 1882.2,958.6 1863.2,997.5 1845.1,1037.0 1827.9,1077.0 1811.8,1117.5 1796.7,1158.5 1782.7,1200.0 1769.8,1241.8 1758.1,1284.0 1747.5,1326.6 1738.2,1369.4 1730.1,1412.5 1723.3,1455.8 1717.8,1499.3 1713.5,1543.0 1710.5,1586.7 1708.8,1630.5 1708.3,1674.4 1709.2,1718.2 1711.2,1762.0 1714.5,1805.6 1719.1,1849.2 1724.8,1892.6 1731.6,1935.7 1739.6,1978.6 1748.6,2021.2 1758.7,2063.5 1769.8,2105.3 1781.8,2146.8 1794.7,2187.7 1808.4,2228.1 1822.8,2268.0 1837.9,2307.2 1853.6,2345.8  " style="stroke-opacity: 1.000000; stroke-width: 5.0; stroke: rgb(251,106,74); fill: none"  />
<path d="M 2011.1,738.9 L 1987.6,774.5 1964.5,810.7 1941.8,847.7 1919.7,885.3 1898.1,923.5 1877.1,962.3 1856.7,1001.7 1837.1,1041.7 1818.2,1082.2 1800.2,1123.3 1782.9,1164.8 1766.6,1206.7 1751.2,1249.1 1736.7,1291.9 1723.1,1335.1 1710.6,1378.6 1699.0,1422.4 1688.5,1466.5 1679.0,1510.9 1670.5,1555.4 1663.1,1600.2 1656.8,1645.1 1651.5,1690.1 1647.2,1735.1 1644.0,1780.3 1641.9,1825.4 1640.7,1870.5 1640.6,1915.5 1641.4,1960.5 1643.2,2005.3 1645.9,2049.9 1649.5,2094.3 1654.0,2138.4 1659.3,2182.2 1665.4,2225.7 1672.3,2268.8 1679.9,2311.5 1688.1,2353.7 1696.9,2395.4  " style="stroke-opacity: 1.000000; stroke-width: 5.0; stroke: rgb(251,106,74); fill: none"  />
<path d="M 2011.1,738.9 L 1987.0,775.2 1963.2,812.2 1939.8,849.7 1916.7,887.8 1894.0,926.4 1871.8,965.6 1850.1,1005.3 1828.9,1045.5 1808.3,1086.2 1788.3,1127.4 1768.9,1169.0 1750.1,1211.0 1732.1,1253.5 1714.8,1296.3 1698.2,1339.5 1682.3,1383.1 1667.3,1427.0 1653.0,1471.1 1639.4,1515.5 1626.7,1560.2 1614.8,1605.1 1603.7,1650.2 1593.5,1695.4 1584.0,1740.7 1575.4,1786.2 1567.6,1831.8 1560.6,1877.4 1554.4,1923.0 1548.9,1968.6 1544.3,2014.1 1540.4,2059.5 1537.2,2104.9 1534.8,2150.1 1533.0,2195.1 1532.0,2239.9 1531.6,2284.4 1531.8,2328.7 1532.5,2372.6 1533.9,2416.1  " style="stroke-opacity: 1.000000; stroke-width: 5.0; stroke: rgb(251,106,74); fill: none"  />
<path d="M 2138.8,842.4 L 2111.3,871.3 2084.3,901.1 2057.9,931.8 2032.2,963.3 2007.3,995.5 1983.4,1028.5 1960.4,1062.3 1938.6,1096.7 1918.0,1131.7 1898.6,1167.3 1880.6,1203.6 1864.0,1240.3 1848.8,1277.5 1835.2,1315.1 1823.1,1353.2 1812.6,1391.6 1803.7,1430.4 1796.5,1469.4 1791.0,1508.6 1787.1,1548.0 1784.9,1587.6 1784.4,1627.3 1785.6,1667.0 1788.4,1706.7 1792.9,1746.4 1799.0,1786.0 1806.6,1825.4 1815.8,1864.7 1826.4,1903.7 1838.5,1942.4 1852.0,1980.8 1866.7,2018.8 1882.7,2056.3 1899.7,2093.3 1917.9,2129.8 1937.0,2165.7 1956.9,2200.9 1977.6,2235.4 1999.0,2269.1  " style="stroke-opacity: 1.000000; stroke-width: 5.0; stroke: rgb(251,106,74); fill: none"  />
<path d="M 2138.8,842.4 L 2109.3,873.2 2080.1,904.8 2051.2,937.0 2022.7,970.1 1994.6,1003.8 1967.0,1038.3 1940.0,1073.4 1913.5,1109.3 1887.7,1145.8 1862.6,1182.9 1838.3,1220.7 1814.7,1259.1 1791.9,1298.0 1770.0,1337.5 1749.0,1377.6 1728.9,1418.2 1709.7,1459.2 1691.4,1500.7 1674.2,1542.7 1657.9,1585.0 1642.6,1627.7 1628.4,1670.7 1615.1,1714.1 1602.9,1757.6 1591.7,1801.5 1581.5,1845.5 1572.3,1889.7 1564.1,1934.0 1556.9,1978.3 1550.6,2022.7 1545.4,2067.1 1541.0,2111.4 1537.5,2155.6 1534.9,2199.7 1533.2,2243.6 1532.3,2287.2 1532.1,2330.6 1532.6,2373.5 1533.9,2416.1  " style="stroke-opacity: 1.000000; stroke-width: 5.0; stroke: rgb(251,106,74); fill: none"  />
<path d="M 1369.8,2407.5 L 1375.3,2371.4 1381.6,2335.5 1388.7,2300.0 1396.6,2265.1 1405.3,2231.0 1414.9,2197.9 1425.4,2165.9 1436.7,2135.1 1449.0,2105.9 1462.1,2078.2 1476.2,2052.2 1491.1,2028.1 1507.0,2005.8 1523.7,1985.6 1541.3,1967.5 1559.7,1951.6 1579.0,1937.8 1599.1,1926.4 1620.0,1917.2 1641.7,1910.4 1664.0,1905.9 1687.0,1903.7 1710.7,1903.8 1735.0,1906.3 1759.8,1911.0 1785.1,1917.9 1810.9,1927.0 1837.0,1938.1 1863.4,1951.3 1890.1,1966.4 1916.9,1983.3 1943.9,2001.9 1970.8,2022.1 1997.7,2043.7 2024.5,2066.6 2051.0,2090.6 2077.2,2115.6 2103.0,2141.3 2128.3,2167.6  " style="stroke-opacity: 1.000000; stroke-width: 5.0; stroke: rgb(251,106,74); fill: none"  />
<path d="M 1369.8,2407.5 L 1374.9,2372.4 1380.5,2337.7 1386.3,2303.4 1392.4,2270.0 1398.8,2237.5 1405.4,2206.2 1412.4,2176.4 1419.6,2148.1 1427.1,2121.5 1434.8,2096.8 1442.7,2074.2 1450.9,2053.7 1459.2,2035.5 1467.8,2019.7 1476.5,2006.3 1485.4,1995.4 1494.5,1987.1 1503.7,1981.5 1513.0,1978.5 1522.4,1978.1 1531.9,1980.4 1541.5,1985.4 1551.1,1993.0 1560.8,2003.2 1570.5,2015.9 1580.2,2031.0 1589.9,2048.6 1599.5,2068.4 1609.1,2090.4 1618.6,2114.4 1628.0,2140.3 1637.3,2168.0 1646.5,2197.3 1655.4,2228.0 1664.2,2259.9 1672.8,2292.8 1681.1,2326.5 1689.1,2360.8 1696.9,2395.4  " style="stroke-opacity: 1.000000; stroke-width: 5.0; stroke: rgb(251,106,74); fill: none"  />
<path d="M 1999.0,2269.1 L 1976.1,2233.2 1953.5,2196.5 1931.5,2159.2 1909.9,2121.3 1888.9,2082.8 1868.5,2043.6 1848.8,2003.9 1829.8,1963.6 1811.6,1922.7 1794.2,1881.4 1777.6,1839.7 1761.9,1797.4 1747.2,1754.8 1733.3,1711.8 1720.5,1668.4 1708.6,1624.7 1697.8,1580.7 1687.9,1536.5 1679.1,1492.0 1671.4,1447.3 1664.7,1402.4 1659.1,1357.4 1654.5,1312.4 1650.9,1267.2 1648.5,1222.1 1647.0,1176.9 1646.6,1131.8 1647.1,1086.7 1648.7,1041.8 1651.2,997.1 1654.6,952.5 1658.9,908.2 1664.1,864.1 1670.1,820.4 1676.9,777.0 1684.5,734.0 1692.7,691.5 1701.6,649.4 1711.1,607.9  " style="stroke-opacity: 1.000000; stroke-width: 5.0; stroke: rgb(251,106,74); fill: none"  />
<path d="M 1999.0,2269.1 L 1976.6,2233.9 1954.7,2198.0 1933.4,2161.4 1912.7,2124.0 1892.8,2086.0 1873.5,2047.4 1855.2,2008.2 1837.7,1968.4 1821.2,1928.2 1805.7,1887.4 1791.2,1846.1 1777.9,1804.5 1765.7,1762.4 1754.6,1720.0 1744.8,1677.3 1736.1,1634.4 1728.7,1591.1 1722.6,1547.7 1717.7,1504.1 1714.1,1460.4 1711.8,1416.6 1710.8,1372.8 1711.1,1329.0 1712.6,1285.2 1715.4,1241.4 1719.4,1197.8 1724.6,1154.3 1731.0,1111.0 1738.5,1068.0 1747.1,1025.2 1756.9,982.8 1767.6,940.7 1779.4,899.0 1792.0,857.8 1805.5,817.1 1819.9,776.9 1834.9,737.2 1850.7,698.2 1867.0,659.9  " style="stroke-opacity: 1.000000; stroke-width: 5.0; stroke: rgb(251,106,74); fill: none"  />
<path d="M 1999.0,2269.1 L 1977.6,2235.4 1956.9,2200.9 1937.0,2165.7 1917.9,2129.8 1899.7,2093.3 1882.7,2056.3 1866.7,2018.8 1852.0,1980.8 1838.5,1942.4 1826.4,1903.7 1815.8,1864.7 1806.6,1825.4 1799.0,1786.0 1792.9,1746.4 1788.4,1706.7 1785.6,1667.0 1784.4,1627.3 1784.9,1587.6 1787.1,1548.0 1791.0,1508.6 1796.5,1469.4 1803.7,1430.4 1812.6,1391.6 1823.1,1353.2 1835.2,1315.1 1848.8,1277.5 1864.0,1240.3 1880.6,1203.6 1898.6,1167.3 1918.0,1131.7 1938.6,1096.7 1960.4,1062.3 1983.4,1028.5 2007.3,995.5 2032.2,963.3 2057.9,931.8 2084.3,901.1 2111.3,871.3 2138.8,842.4  " style="stroke-opacity: 1.000000; stroke-width: 5.0; stroke: rgb(251,106,74); fill: none"  />
<path d="M 1999.0,2269.1 L 1978.1,2236.0 1957.9,2202.3 1938.5,2167.9 1920.1,2132.8 1902.7,2097.3 1886.5,2061.2 1871.5,2024.8 1857.9,1988.0 1845.7,1951.0 1835.0,1913.8 1825.9,1876.4 1818.4,1838.9 1812.7,1801.4 1808.6,1763.9 1806.3,1726.5 1805.9,1689.2 1807.2,1652.1 1810.4,1615.2 1815.4,1578.6 1822.3,1542.3 1831.0,1506.5 1841.6,1471.0 1853.9,1435.9 1868.0,1401.4 1883.8,1367.4 1901.3,1334.0 1920.4,1301.2 1941.1,1269.1 1963.3,1237.6 1986.8,1206.9 2011.7,1176.9 2037.9,1147.7 2065.1,1119.3 2093.4,1091.7 2122.6,1065.0 2152.6,1039.1 2183.3,1014.2 2214.4,990.1 2245.9,967.0  " style="stroke-opacity: 1.000000; stroke-width: 5.0; stroke: rgb(251,106,74); fill: none"  />
<path d="M 1209.8,2369.6 L 1221.5,2335.5 1233.8,2301.8 1246.6,2268.6 1260.0,2236.2 1273.8,2204.8 1288.2,2174.5 1303.0,2145.6 1318.3,2118.3 1333.9,2092.6 1350.0,2068.7 1366.4,2046.8 1383.1,2027.0 1400.2,2009.3 1417.6,1993.9 1435.1,1980.8 1453.0,1970.1 1471.0,1961.8 1489.2,1956.1 1507.5,1952.9 1526.0,1952.2 1544.5,1954.1 1563.0,1958.4 1581.6,1965.3 1600.2,1974.7 1618.7,1986.4 1637.1,2000.5 1655.5,2016.9 1673.6,2035.4 1691.6,2056.1 1709.4,2078.7 1726.9,2103.2 1744.1,2129.3 1761.1,2157.0 1777.6,2186.2 1793.8,2216.5 1809.5,2247.8 1824.7,2279.9 1839.4,2312.7 1853.6,2345.8  " style="stroke-opacity: 1.000000; stroke-width: 5.0; stroke: rgb(251,106,74); fill: none"  />
<path d="M 1853.6,2345.8 L 1836.6,2304.6 1819.9,2263.0 1803.5,2221.0 1787.4,2178.6 1771.7,2135.8 1756.3,2092.7 1741.4,2049.2 1726.9,2005.3 1712.8,1961.2 1699.3,1916.8 1686.2,1872.0 1673.6,1827.1 1661.6,1781.8 1650.1,1736.4 1639.2,1690.7 1628.8,1644.9 1619.0,1598.9 1609.7,1552.7 1601.1,1506.4 1593.1,1460.0 1585.6,1413.5 1578.8,1366.9 1572.5,1320.2 1566.9,1273.6 1561.8,1226.9 1557.3,1180.2 1553.5,1133.6 1550.1,1087.0 1547.4,1040.5 1545.2,994.1 1543.6,947.8 1542.5,901.6 1541.9,855.7 1541.9,809.9 1542.3,764.3 1543.2,718.9 1544.5,673.8 1546.2,629.0 1548.4,584.5  " style="stroke-opacity: 1.000000; stroke-width: 5.0; stroke: rgb(251,106,74); fill: none"  />
<path d="M 1853.6,2345.8 L 1837.9,2307.2 1822.8,2268.0 1808.4,2228.1 1794.7,2187.7 1781.8,2146.8 1769.8,2105.3 1758.7,2063.5 1748.6,2021.2 1739.6,1978.6 1731.6,1935.7 1724.8,1892.6 1719.1,1849.2 1714.5,1805.6 1711.2,1762.0 1709.2,1718.2 1708.3,1674.4 1708.8,1630.5 1710.5,1586.7 1713.5,1543.0 1717.8,1499.3 1723.3,1455.8 1730.1,1412.5 1738.2,1369.4 1747.5,1326.6 1758.1,1284.0 1769.8,1241.8 1782.7,1200.0 1796.7,1158.5 1811.8,1117.5 1827.9,1077.0 1845.1,1037.0 1863.2,997.5 1882.2,958.6 1902.0,920.3 1922.6,882.6 1943.8,845.6 1965.7,809.3 1988.2,773.7 2011.1,738.9  " style="stroke-opacity: 1.000000; stroke-width: 5.0; stroke: rgb(251,106,74); fill: none"  />
<path d="M 1853.6,2345.8 L 1839.4,2312.7 1824.7,2279.9 1809.5,2247.8 1793.8,2216.5 1777.6,2186.2 1761.1,2157.0 1744.1,2129.3 1726.9,2103.2 1709.4,2078.7 1691.6,2056.1 1673.6,2035.4 1655.5,2016.9 1637.1,2000.5 1618.7,1986.4 1600.2,1974.7 1581.6,1965.3 1563.0,1958.4 1544.5,1954.1 1526.0,1952.2 1507.5,1952.9 1489.2,1956.1 1471.0,1961.8 1453.0,1970.1 1435.1,1980.8 1417.6,1993.9 1400.2,2009.3 1383.1,2027.0 1366.4,2046.8 1350.0,2068.7 1333.9,2092.6 1318.3,2118.3 1303.0,2145.6 1288.2,2174.5 1273.8,2204.8 1260.0,2236.2 1246.6,2268.6 1233.8,2301.8 1221.5,2335.5 1209.8,2369.6  " style="stroke-opacity: 1.000000; stroke-width: 5.0; stroke: rgb(251,106,74); fill: none"  />
<path d="M 1853.6,2345.8 L 1836.2,2303.7 1818.9,2261.4 1801.8,2218.8 1784.8,2175.9 1768.1,2132.8 1751.6,2089.4 1735.4,2045.8 1719.4,2002.0 1703.6,1957.9 1688.2,1913.7 1673.0,1869.2 1658.1,1824.6 1643.5,1779.8 1629.2,1734.8 1615.3,1689.6 1601.7,1644.3 1588.4,1598.9 1575.5,1553.4 1562.9,1507.7 1550.6,1461.9 1538.8,1416.1 1527.2,1370.2 1516.1,1324.2 1505.2,1278.1 1494.8,1232.1 1484.7,1186.0 1474.9,1139.8 1465.5,1093.7 1456.5,1047.6 1447.8,1001.6 1439.5,955.5 1431.4,909.6 1423.8,863.7 1416.4,817.9 1409.4,772.1 1402.6,726.5 1396.2,681.1 1390.0,635.8 1384.1,590.6  " style="stroke-opacity: 1.000000; stroke-width: 5.0; stroke: rgb(251,106,74); fill: none"  />
<path d="M 1853.6,2345.8 L 1839.0,2309.6 1825.1,2272.8 1812.2,2235.4 1800.4,2197.7 1789.6,2159.6 1780.1,2121.2 1771.8,2082.7 1765.0,2044.1 1759.6,2005.5 1755.8,1966.9 1753.5,1928.5 1752.8,1890.3 1753.8,1852.4 1756.5,1814.7 1761.0,1777.5 1767.2,1740.8 1775.1,1704.5 1784.8,1668.8 1796.3,1633.7 1809.6,1599.2 1824.6,1565.5 1841.3,1532.4 1859.6,1500.2 1879.7,1468.7 1901.3,1438.1 1924.5,1408.4 1949.1,1379.5 1975.2,1351.6 2002.7,1324.6 2031.3,1298.5 2061.2,1273.5 2092.1,1249.4 2124.0,1226.3 2156.8,1204.2 2190.3,1183.1 2224.4,1163.0 2259.0,1144.0 2294.0,1125.9 2329.1,1108.8  " style="stroke-opacity: 1.000000; stroke-width: 5.0; stroke: rgb(251,106,74); fill: none"  />
<path d="M 934.1,778.8 L 959.1,809.8 985.0,840.6 1011.8,870.9 1039.6,900.6 1068.2,929.6 1097.7,957.7 1128.0,985.0 1159.2,1011.2 1191.1,1036.4 1223.9,1060.4 1257.3,1083.1 1291.5,1104.5 1326.3,1124.5 1361.8,1143.1 1397.9,1160.1 1434.6,1175.7 1471.8,1189.7 1509.4,1202.1 1547.6,1212.8 1586.1,1221.9 1625.1,1229.4 1664.3,1235.2 1703.8,1239.4 1743.6,1241.9 1783.5,1242.8 1823.5,1242.1 1863.6,1239.8 1903.8,1236.0 1943.9,1230.7 1983.9,1223.9 2023.7,1215.8 2063.3,1206.3 2102.6,1195.5 2141.6,1183.5 2180.2,1170.4 2218.3,1156.3 2255.9,1141.3 2292.8,1125.4 2329.1,1108.8  " style="stroke-opacity: 1.000000; stroke-width: 5.0; stroke: rgb(251,106,74); fill: none"  />
<path d="M 2245.9,967.0 L 2214.4,990.1 2183.3,1014.2 2152.6,1039.1 2122.6,1065.0 2093.4,1091.7 2065.1,1119.3 2037.9,1147.7 2011.7,1176.9 1986.8,1206.9 1963.3,1237.6 1941.1,1269.1 1920.4,1301.2 1901.3,1334.0 1883.8,1367.4 1868.0,1401.4 1853.9,1435.9 1841.6,1471.0 1831.0,1506.5 1822.3,1542.3 1815.4,1578.6 1810.4,1615.2 1807.2,1652.1 1805.9,1689.2 1806.3,1726.5 1808.6,1763.9 1812.7,1801.4 1818.4,1838.9 1825.9,1876.4 1835.0,1913.8 1845.7,1951.0 1857.9,1988.0 1871.5,2024.8 1886.5,2061.2 1902.7,2097.3 1920.1,2132.8 1938.5,2167.9 1957.9,2202.3 1978.1,2236.0 1999.0,2269.1  " style="stroke-opacity: 1.000000; stroke-width: 5.0; stroke: rgb(251,106,74); fill: none"  />
<path d="M 2245.9,967.0 L 2212.2,991.6 2178.7,1017.0 2145.5,1043.3 2112.6,1070.4 2080.1,1098.5 2048.0,1127.4 2016.6,1157.1 1985.8,1187.7 1955.7,1219.2 1926.3,1251.5 1897.8,1284.6 1870.1,1318.4 1843.3,1353.1 1817.5,1388.5 1792.7,1424.6 1768.9,1461.4 1746.2,1498.9 1724.6,1537.1 1704.1,1575.9 1684.8,1615.2 1666.6,1655.1 1649.6,1695.5 1633.8,1736.4 1619.2,1777.8 1605.7,1819.5 1593.5,1861.5 1582.4,1903.9 1572.5,1946.5 1563.7,1989.3 1556.1,2032.3 1549.6,2075.3 1544.2,2118.4 1539.9,2161.5 1536.6,2204.5 1534.2,2247.4 1532.9,2290.0 1532.4,2332.4 1532.7,2374.5 1533.9,2416.1  " style="stroke-opacity: 1.000000; stroke-width: 5.0; stroke: rgb(251,106,74); fill: none"  />
<path d="M 2245.9,967.0 L 2215.6,989.3 2185.7,1012.3 2156.4,1036.1 2128.0,1060.7 2100.6,1085.9 2074.3,1111.8 2049.2,1138.3 2025.6,1165.4 2003.5,1193.0 1983.0,1221.1 1964.2,1249.5 1947.3,1278.4 1932.3,1307.7 1919.3,1337.2 1908.3,1367.0 1899.4,1397.0 1892.6,1427.2 1888.0,1457.5 1885.5,1487.8 1885.3,1518.3 1887.3,1548.7 1891.4,1579.1 1897.7,1609.3 1906.1,1639.5 1916.6,1669.4 1929.2,1699.2 1943.7,1728.6 1960.2,1757.8 1978.5,1786.6 1998.5,1814.9 2020.2,1842.9 2043.4,1870.3 2068.0,1897.2 2093.9,1923.5 2121.0,1949.2 2149.0,1974.2 2177.9,1998.5 2207.4,2022.0 2237.4,2044.7  " style="stroke-opacity: 1.000000; stroke-width: 5.0; stroke: rgb(251,106,74); fill: none"  />
<path d="M 1696.9,2395.4 L 1688.1,2353.7 1679.9,2311.5 1672.3,2268.8 1665.4,2225.7 1659.3,2182.2 1654.0,2138.4 1649.5,2094.3 1645.9,2049.9 1643.2,2005.3 1641.4,1960.5 1640.6,1915.5 1640.7,1870.5 1641.9,1825.4 1644.0,1780.3 1647.2,1735.1 1651.5,1690.1 1656.8,1645.1 1663.1,1600.2 1670.5,1555.4 1679.0,1510.9 1688.5,1466.5 1699.0,1422.4 1710.6,1378.6 1723.1,1335.1 1736.7,1291.9 1751.2,1249.1 1766.6,1206.7 1782.9,1164.8 1800.2,1123.3 1818.2,1082.2 1837.1,1041.7 1856.7,1001.7 1877.1,962.3 1898.1,923.5 1919.7,885.3 1941.8,847.7 1964.5,810.7 1987.6,774.5 2011.1,738.9  " style="stroke-opacity: 1.000000; stroke-width: 5.0; stroke: rgb(251,106,74); fill: none"  />
<path d="M 1696.9,2395.4 L 1689.1,2360.8 1681.1,2326.5 1672.8,2292.8 1664.2,2259.9 1655.4,2228.0 1646.5,2197.3 1637.3,2168.0 1628.0,2140.3 1618.6,2114.4 1609.1,2090.4 1599.5,2068.4 1589.9,2048.6 1580.2,2031.0 1570.5,2015.9 1560.8,2003.2 1551.1,1993.0 1541.5,1985.4 1531.9,1980.4 1522.4,1978.1 1513.0,1978.5 1503.7,1981.5 1494.5,1987.1 1485.4,1995.4 1476.5,2006.3 1467.8,2019.7 1459.2,2035.5 1450.9,2053.7 1442.7,2074.2 1434.8,2096.8 1427.1,2121.5 1419.6,2148.1 1412.4,2176.4 1405.4,2206.2 1398.8,2237.5 1392.4,2270.0 1386.3,2303.4 1380.5,2337.7 1374.9,2372.4 1369.8,2407.5  " style="stroke-opacity: 1.000000; stroke-width: 5.0; stroke: rgb(251,106,74); fill: none"  />
<path d="M 1223.6,625.9 L 1237.2,669.4 1250.7,713.1 1263.9,757.1 1276.9,801.3 1289.7,845.7 1302.2,890.4 1314.5,935.3 1326.5,980.4 1338.3,1025.7 1349.7,1071.1 1360.8,1116.8 1371.6,1162.6 1382.1,1208.5 1392.3,1254.6 1402.2,1300.8 1411.7,1347.1 1420.8,1393.6 1429.6,1440.1 1438.1,1486.7 1446.1,1533.4 1453.9,1580.1 1461.2,1626.9 1468.2,1673.7 1474.9,1720.5 1481.2,1767.3 1487.1,1814.1 1492.7,1861.0 1497.9,1907.7 1502.8,1954.4 1507.3,2001.1 1511.5,2047.7 1515.4,2094.2 1518.9,2140.6 1522.1,2186.9 1525.0,2233.1 1527.7,2279.1 1530.0,2324.9 1532.1,2370.6 1533.9,2416.1  " style="stroke-opacity: 1.000000; stroke-width: 5.0; stroke: rgb(251,106,74); fill: none"  />
<path d="M 1533.9,2416.1 L 1532.2,2369.6 1530.6,2323.1 1529.1,2276.4 1527.7,2229.7 1526.4,2182.9 1525.1,2136.1 1524.0,2089.2 1523.0,2042.3 1522.1,1995.3 1521.3,1948.3 1520.6,1901.2 1520.0,1854.1 1519.5,1807.0 1519.2,1759.8 1518.9,1712.6 1518.8,1665.4 1518.8,1618.2 1519.0,1571.0 1519.2,1523.8 1519.6,1476.5 1520.1,1429.3 1520.7,1382.1 1521.4,1334.9 1522.3,1287.7 1523.3,1240.5 1524.4,1193.4 1525.6,1146.3 1526.9,1099.2 1528.4,1052.1 1529.9,1005.1 1531.6,958.2 1533.3,911.2 1535.2,864.4 1537.2,817.6 1539.2,770.8 1541.4,724.1 1543.6,677.5 1546.0,631.0 1548.4,584.5  " style="stroke-opacity: 1.000000; stroke-width: 5.0; stroke: rgb(251,106,74); fill: none"  />
<path d="M 1533.9,2416.1 L 1532.3,2370.6 1531.0,2324.9 1529.9,2279.0 1529.2,2232.9 1528.7,2186.7 1528.5,2140.3 1528.6,2093.7 1529.0,2047.1 1529.7,2000.3 1530.8,1953.4 1532.2,1906.5 1534.0,1859.4 1536.1,1812.3 1538.5,1765.2 1541.3,1718.0 1544.5,1670.9 1548.0,1623.7 1551.9,1576.5 1556.2,1529.3 1560.8,1482.2 1565.8,1435.1 1571.1,1388.0 1576.8,1341.0 1582.9,1294.1 1589.3,1247.3 1596.0,1200.6 1603.1,1154.0 1610.5,1107.5 1618.2,1061.2 1626.3,1015.0 1634.6,969.0 1643.3,923.1 1652.2,877.5 1661.4,832.0 1670.9,786.7 1680.6,741.6 1690.5,696.8 1700.7,652.2 1711.1,607.9  " style="stroke-opacity: 1.000000; stroke-width: 5.0; stroke: rgb(251,106,74); fill: none"  />
<path d="M 1533.9,2416.1 L 1532.5,2372.6 1531.8,2328.7 1531.6,2284.4 1532.0,2239.9 1533.0,2195.1 1534.8,2150.1 1537.2,2104.9 1540.4,2059.5 1544.3,2014.1 1548.9,1968.6 1554.4,1923.0 1560.6,1877.4 1567.6,1831.8 1575.4,1786.2 1584.0,1740.7 1593.5,1695.4 1603.7,1650.2 1614.8,1605.1 1626.7,1560.2 1639.4,1515.5 1653.0,1471.1 1667.3,1427.0 1682.3,1383.1 1698.2,1339.5 1714.8,1296.3 1732.1,1253.5 1750.1,1211.0 1768.9,1169.0 1788.3,1127.4 1808.3,1086.2 1828.9,1045.5 1850.1,1005.3 1871.8,965.6 1894.0,926.4 1916.7,887.8 1939.8,849.7 1963.2,812.2 1987.0,775.2 2011.1,738.9  " style="stroke-opacity: 1.000000; stroke-width: 5.0; stroke: rgb(251,106,74); fill: none"  />
<path d="M 1533.9,2416.1 L 1532.6,2373.5 1532.1,2330.6 1532.3,2287.2 1533.2,2243.6 1534.9,2199.7 1537.5,2155.6 1541.0,2111.4 1545.4,2067.1 1550.6,2022.7 1556.9,1978.3 1564.1,1934.0 1572.3,1889.7 1581.5,1845.5 1591.7,1801.5 1602.9,1757.6 1615.1,1714.1 1628.4,1670.7 1642.6,1627.7 1657.9,1585.0 1674.2,1542.7 1691.4,1500.7 1709.7,1459.2 1728.9,1418.2 1749.0,1377.6 1770.0,1337.5 1791.9,1298.0 1814.7,1259.1 1838.3,1220.7 1862.6,1182.9 1887.7,1145.8 1913.5,1109.3 1940.0,1073.4 1967.0,1038.3 1994.6,1003.8 2022.7,970.1 2051.2,937.0 2080.1,904.8 2109.3,873.2 2138.8,842.4  " style="stroke-opacity: 1.000000; stroke-width: 5.0; stroke: rgb(251,106,74); fill: none"  />
<path d="M 1533.9,2416.1 L 1532.7,2374.5 1532.4,2332.4 1532.9,2290.0 1534.2,2247.4 1536.6,2204.5 1539.9,2161.5 1544.2,2118.4 1549.6,2075.3 1556.1,2032.3 1563.7,1989.3 1572.5,1946.5 1582.4,1903.9 1593.5,1861.5 1605.7,1819.5 1619.2,1777.8 1633.8,1736.4 1649.6,1695.5 1666.6,1655.1 1684.8,1615.2 1704.1,1575.9 1724.6,1537.1 1746.2,1498.9 1768.9,1461.4 1792.7,1424.6 1817.5,1388.5 1843.3,1353.1 1870.1,1318.4 1897.8,1284.6 1926.3,1251.5 1955.7,1219.2 1985.8,1187.7 2016.6,1157.1 2048.0,1127.4 2080.1,1098.5 2112.6,1070.4 2145.5,1043.3 2178.7,1017.0 2212.2,991.6 2245.9,967.0  " style="stroke-opacity: 1.000000; stroke-width: 5.0; stroke: rgb(251,106,74); fill: none"  />
<path d="M 1533.9,2416.1 L 1532.1,2370.6 1530.0,2324.9 1527.7,2279.1 1525.0,2233.1 1522.1,2186.9 1518.9,2140.6 1515.4,2094.2 1511.5,2047.7 1507.3,2001.1 1502.8,1954.4 1497.9,1907.7 1492.7,1861.0 1487.1,1814.1 1481.2,1767.3 1474.9,1720.5 1468.2,1673.7 1461.2,1626.9 1453.9,1580.1 1446.1,1533.4 1438.1,1486.7 1429.6,1440.1 1420.8,1393.6 1411.7,1347.1 1402.2,1300.8 1392.3,1254.6 1382.1,1208.5 1371.6,1162.6 1360.8,1116.8 1349.7,1071.1 1338.3,1025.7 1326.5,980.4 1314.5,935.3 1302.2,890.4 1289.7,845.7 1276.9,801.3 1263.9,757.1 1250.7,713.1 1237.2,669.4 1223.6,625.9  " style="stroke-opacity: 1.000000; stroke-width: 5.0; stroke: rgb(251,106,74); fill: none"  />
<path d="M 1384.1,590.6 L 1390.0,635.8 1396.2,681.1 1402.6,726.5 1409.4,772.1 1416.4,817.9 1423.8,863.7 1431.4,909.6 1439.5,955.5 1447.8,1001.6 1456.5,1047.6 1465.5,1093.7 1474.9,1139.8 1484.7,1186.0 1494.8,1232.1 1505.2,1278.1 1516.1,1324.2 1527.2,1370.2 1538.8,1416.1 1550.6,1461.9 1562.9,1507.7 1575.5,1553.4 1588.4,1598.9 1601.7,1644.3 1615.3,1689.6 1629.2,1734.8 1643.5,1779.8 1658.1,1824.6 1673.0,1869.2 1688.2,1913.7 1703.6,1957.9 1719.4,2002.0 1735.4,2045.8 1751.6,2089.4 1768.1,2132.8 1784.8,2175.9 1801.8,2218.8 1818.9,2261.4 1836.2,2303.7 1853.6,2345.8  " style="stroke-opacity: 1.000000; stroke-width: 5.0; stroke: rgb(251,106,74); fill: none"  />
<path d="M 1384.1,590.6 L 1389.3,627.9 1395.5,665.1 1402.6,702.1 1410.7,738.8 1420.0,774.9 1430.3,810.4 1441.8,845.0 1454.4,878.6 1468.2,911.2 1483.2,942.5 1499.4,972.5 1516.9,1001.1 1535.5,1028.2 1555.3,1053.6 1576.3,1077.4 1598.5,1099.5 1621.9,1119.8 1646.4,1138.2 1672.0,1154.7 1698.7,1169.4 1726.4,1182.1 1755.1,1192.8 1784.7,1201.6 1815.3,1208.5 1846.6,1213.4 1878.8,1216.4 1911.6,1217.6 1945.1,1216.9 1979.1,1214.4 2013.6,1210.2 2048.4,1204.4 2083.6,1196.9 2119.0,1188.0 2154.4,1177.7 2189.8,1166.0 2225.1,1153.2 2260.2,1139.3 2294.9,1124.4 2329.1,1108.8  " style="stroke-opacity: 1.000000; stroke-width: 5.0; stroke: rgb(251,106,74); fill: none"  />
<path d="M 2329.1,1108.8 L 2294.0,1125.9 2259.0,1144.0 2224.4,1163.0 2190.3,1183.1 2156.8,1204.2 2124.0,1226.3 2092.1,1249.4 2061.2,1273.5 2031.3,1298.5 2002.7,1324.6 1975.2,1351.6 1949.1,1379.5 1924.5,1408.4 1901.3,1438.1 1879.7,1468.7 1859.6,1500.2 1841.3,1532.4 1824.6,1565.5 1809.6,1599.2 1796.3,1633.7 1784.8,1668.8 1775.1,1704.5 1767.2,1740.8 1761.0,1777.5 1756.5,1814.7 1753.8,1852.4 1752.8,1890.3 1753.5,1928.5 1755.8,1966.9 1759.6,2005.5 1765.0,2044.1 1771.8,2082.7 1780.1,2121.2 1789.6,2159.6 1800.4,2197.7 1812.2,2235.4 1825.1,2272.8 1839.0,2309.6 1853.6,2345.8  " style="stroke-opacity: 1.000000; stroke-width: 5.0; stroke: rgb(251,106,74); fill: none"  />
<path d="M 2329.1,1108.8 L 2292.8,1125.4 2255.9,1141.3 2218.3,1156.3 2180.2,1170.4 2141.6,1183.5 2102.6,1195.5 2063.3,1206.3 2023.7,1215.8 1983.9,1223.9 1943.9,1230.7 1903.8,1236.0 1863.6,1239.8 1823.5,1242.1 1783.5,1242.8 1743.6,1241.9 1703.8,1239.4 1664.3,1235.2 1625.1,1229.4 1586.1,1221.9 1547.6,1212.8 1509.4,1202.1 1471.8,1189.7 1434.6,1175.7 1397.9,1160.1 1361.8,1143.1 1326.3,1124.5 1291.5,1104.5 1257.3,1083.1 1223.9,1060.4 1191.1,1036.4 1159.2,1011.2 1128.0,985.0 1097.7,957.7 1068.2,929.6 1039.6,900.6 1011.8,870.9 985.0,840.6 959.1,809.8 934.1,778.8  " style="stroke-opacity: 1.000000; stroke-width: 5.0; stroke: rgb(251,106,74); fill: none"  />
<path d="M 2329.1,1108.8 L 2294.9,1124.4 2260.2,1139.3 2225.1,1153.2 2189.8,1166.0 2154.4,1177.7 2119.0,1188.0 2083.6,1196.9 2048.4,1204.4 2013.6,1210.2 1979.1,1214.4 1945.1,1216.9 1911.6,1217.6 1878.8,1216.4 1846.6,1213.4 1815.3,1208.5 1784.7,1201.6 1755.1,1192.8 1726.4,1182.1 1698.7,1169.4 1672.0,1154.7 1646.4,1138.2 1621.9,1119.8 1598.5,1099.5 1576.3,1077.4 1555.3,1053.6 1535.5,1028.2 1516.9,1001.1 1499.4,972.5 1483.2,942.5 1468.2,911.2 1454.4,878.6 1441.8,845.0 1430.3,810.4 1420.0,774.9 1410.7,738.8 1402.6,702.1 1395.5,665.1 1389.3,627.9 1384.1,590.6  " style="stroke-opacity: 1.000000; stroke-width: 5.0; stroke: rgb(251,106,74); fill: none"  />
<path d="M 2237.4,2044.7 L 2209.0,2023.8 2180.7,2003.2 2152.6,1983.1 2125.1,1963.6 2098.3,1944.8 2072.2,1927.0 2047.2,1910.1 2023.2,1894.4 2000.5,1880.0 1979.2,1866.8 1959.4,1855.1 1941.2,1844.9 1924.7,1836.3 1909.9,1829.3 1896.9,1824.0 1885.9,1820.4 1876.7,1818.6 1869.6,1818.6 1864.4,1820.3 1861.3,1823.9 1860.1,1829.2 1861.0,1836.3 1863.9,1845.2 1868.8,1855.7 1875.6,1868.0 1884.3,1881.8 1894.8,1897.2 1907.1,1914.1 1921.0,1932.4 1936.6,1952.0 1953.7,1972.8 1972.1,1994.7 1991.8,2017.6 2012.6,2041.3 2034.4,2065.8 2057.1,2090.8 2080.4,2116.2 2104.2,2141.9 2128.3,2167.6  " style="stroke-opacity: 1.000000; stroke-width: 5.0; stroke: rgb(251,106,74); fill: none"  />
<path d="M 2237.4,2044.7 L 2207.4,2022.0 2177.9,1998.5 2149.0,1974.2 2121.0,1949.2 2093.9,1923.5 2068.0,1897.2 2043.4,1870.3 2020.2,1842.9 1998.5,1814.9 1978.5,1786.6 1960.2,1757.8 1943.7,1728.6 1929.2,1699.2 1916.6,1669.4 1906.1,1639.5 1897.7,1609.3 1891.4,1579.1 1887.3,1548.7 1885.3,1518.3 1885.5,1487.8 1888.0,1457.5 1892.6,1427.2 1899.4,1397.0 1908.3,1367.0 1919.3,1337.2 1932.3,1307.7 1947.3,1278.4 1964.2,1249.5 1983.0,1221.1 2003.5,1193.0 2025.6,1165.4 2049.2,1138.3 2074.3,1111.8 2100.6,1085.9 2128.0,1060.7 2156.4,1036.1 2185.7,1012.3 2215.6,989.3 2245.9,967.0  " style="stroke-opacity: 1.000000; stroke-width: 5.0; stroke: rgb(251,106,74); fill: none"  />
</g>
<g id="track_0">
<path d="M 1548.4,584.5 L 1546.7,620.2 1545.6,655.6 1545.1,690.7 1545.1,725.2 1545.9,758.8 1547.3,791.4 1549.5,822.7 1552.4,852.7 1556.2,881.2 1560.8,907.9 1566.3,932.8 1572.6,955.7 1579.8,976.6 1587.8,995.3 1596.8,1011.8 1606.7,1026.0 1617.4,1037.8 1629.0,1047.1 1641.4,1054.0 1654.7,1058.5 1668.8,1060.4 1683.7,1059.9 1699.4,1056.9 1715.8,1051.5 1732.8,1043.7 1750.5,1033.6 1768.8,1021.2 1787.6,1006.7 1806.9,990.0 1826.7,971.4 1846.8,950.9 1867.1,928.7 1887.7,905.0 1908.4,879.8 1929.2,853.3 1950.0,825.8 1970.6,797.5 1991.0,768.4 2011.1,738.9  " style="stroke-opacity: 1.000000; stroke-width: 5.0; stroke: rgb(107,174,214); fill: none"  />
<path d="M 1548.4,584.5 L 1546.8,620.5 1545.9,656.4 1545.6,692.0 1546.2,727.0 1547.6,761.4 1549.9,794.8 1553.1,827.1 1557.3,858.1 1562.4,887.7 1568.6,915.8 1575.9,942.2 1584.2,966.9 1593.6,989.6 1604.1,1010.3 1615.7,1028.9 1628.4,1045.3 1642.1,1059.6 1656.9,1071.6 1672.8,1081.3 1689.7,1088.7 1707.6,1093.7 1726.5,1096.5 1746.3,1096.9 1767.0,1095.0 1788.6,1090.8 1810.9,1084.5 1833.9,1075.9 1857.6,1065.3 1881.9,1052.7 1906.7,1038.2 1932.0,1021.8 1957.6,1003.8 1983.5,984.2 2009.6,963.1 2035.7,940.9 2061.8,917.5 2087.7,893.1 2113.4,868.0 2138.8,842.4  " style="stroke-opacity: 1.000000; stroke-width: 5.0; stroke: rgb(107,174,214); fill: none"  />
<path d="M 1548.4,584.5 L 1546.8,621.5 1546.2,658.5 1546.4,695.4 1547.7,732.0 1550.1,768.2 1553.6,803.7 1558.3,838.4 1564.2,872.2 1571.4,904.9 1579.9,936.4 1589.8,966.7 1601.0,995.5 1613.6,1022.8 1627.6,1048.6 1643.0,1072.6 1659.8,1095.0 1677.9,1115.5 1697.4,1134.2 1718.3,1151.0 1740.4,1165.9 1763.9,1178.8 1788.6,1189.8 1814.4,1198.8 1841.5,1205.9 1869.6,1211.0 1898.7,1214.3 1928.8,1215.6 1959.7,1215.1 1991.4,1212.7 2023.8,1208.7 2056.8,1203.0 2090.4,1195.7 2124.3,1186.9 2158.5,1176.7 2192.8,1165.2 2227.2,1152.6 2261.4,1138.8 2295.5,1124.2 2329.1,1108.8  " style="stroke-opacity: 1.000000; stroke-width: 5.0; stroke: rgb(107,174,214); fill: none"  />
<path d="M 1711.1,607.9 L 1703.0,642.2 1695.2,676.3 1687.7,710.0 1680.6,743.0 1673.9,775.1 1667.7,806.0 1662.1,835.7 1657.0,863.9 1652.6,890.4 1649.0,915.2 1646.0,938.0 1643.8,958.7 1642.3,977.3 1641.7,993.7 1641.9,1007.7 1643.0,1019.3 1644.9,1028.4 1647.7,1035.0 1651.3,1039.0 1655.8,1040.5 1661.2,1039.5 1667.4,1035.9 1674.4,1029.7 1682.2,1021.1 1690.7,1010.0 1700.1,996.6 1710.1,980.9 1720.8,962.9 1732.1,942.9 1744.0,920.9 1756.4,897.0 1769.3,871.5 1782.6,844.4 1796.3,815.9 1810.2,786.2 1824.3,755.6 1838.5,724.2 1852.8,692.2 1867.0,659.9  " style="stroke-opacity: 1.000000; stroke-width: 5.0; stroke: rgb(107,174,214); fill: none"  />
<path d="M 1711.1,607.9 L 1703.1,642.6 1695.6,677.3 1688.8,711.8 1682.8,745.7 1677.5,778.9 1673.1,811.2 1669.6,842.5 1667.2,872.5 1665.8,901.1 1665.6,928.3 1666.5,953.7 1668.6,977.4 1671.9,999.3 1676.5,1019.1 1682.4,1036.9 1689.6,1052.6 1698.0,1066.1 1707.8,1077.4 1718.8,1086.4 1731.1,1093.2 1744.6,1097.6 1759.4,1099.8 1775.3,1099.6 1792.4,1097.2 1810.6,1092.6 1829.8,1085.8 1850.0,1076.9 1871.1,1066.0 1893.1,1053.0 1915.8,1038.2 1939.2,1021.7 1963.2,1003.5 1987.7,983.8 2012.6,962.7 2037.8,940.4 2063.1,917.0 2088.5,892.8 2113.7,867.8 2138.8,842.4  " style="stroke-opacity: 1.000000; stroke-width: 5.0; stroke: rgb(107,174,214); fill: none"  />
<path d="M 1711.1,607.9 L 1703.1,643.0 1695.7,678.2 1689.2,713.1 1683.5,747.7 1678.7,781.7 1675.0,815.0 1672.4,847.4 1671.0,878.7 1670.8,908.7 1671.8,937.5 1674.3,964.8 1678.1,990.5 1683.3,1014.5 1689.9,1036.7 1698.0,1057.1 1707.5,1075.6 1718.5,1092.1 1730.9,1106.5 1744.8,1118.9 1760.1,1129.2 1776.8,1137.4 1794.9,1143.4 1814.4,1147.3 1835.1,1149.2 1857.0,1148.9 1880.1,1146.6 1904.3,1142.4 1929.5,1136.2 1955.7,1128.1 1982.7,1118.2 2010.5,1106.6 2038.9,1093.5 2067.8,1078.8 2097.2,1062.8 2126.9,1045.5 2156.8,1027.1 2186.7,1007.8 2216.4,987.7 2245.9,967.0  " style="stroke-opacity: 1.000000; stroke-width: 5.0; stroke: rgb(107,174,214); fill: none"  />
<path d="M 1867.0,659.9 L 1852.8,692.2 1838.5,724.2 1824.3,755.6 1810.2,786.2 1796.3,815.9 1782.6,844.4 1769.3,871.5 1756.4,897.0 1744.0,920.9 1732.1,942.9 1720.8,962.9 1710.1,980.9 1700.1,996.6 1690.7,1010.0 1682.2,1021.1 1674.4,1029.7 1667.4,1035.9 1661.2,1039.5 1655.8,1040.5 1651.3,1039.0 1647.7,1035.0 1644.9,1028.4 1643.0,1019.3 1641.9,1007.7 1641.7,993.7 1642.3,977.3 1643.8,958.7 1646.0,938.0 1649.0,915.2 1652.6,890.4 1657.0,863.9 1662.1,835.7 1667.7,806.0 1673.9,775.1 1680.6,743.0 1687.7,710.0 1695.2,676.3 1703.0,642.2 1711.1,607.9  " style="stroke-opacity: 1.000000; stroke-width: 5.0; stroke: rgb(107,174,214); fill: none"  />
<path d="M 1867.0,659.9 L 1852.9,692.4 1839.3,724.9 1826.3,757.0 1813.8,788.7 1802.2,819.7 1791.4,849.8 1781.6,878.8 1772.8,906.7 1765.2,933.2 1758.7,958.2 1753.6,981.7 1749.7,1003.4 1747.2,1023.2 1746.2,1041.2 1746.6,1057.2 1748.4,1071.1 1751.7,1082.9 1756.6,1092.6 1762.9,1100.0 1770.7,1105.3 1780.0,1108.3 1790.8,1109.1 1803.0,1107.8 1816.6,1104.2 1831.5,1098.5 1847.7,1090.7 1865.2,1080.9 1883.8,1069.1 1903.6,1055.5 1924.3,1040.1 1946.0,1023.0 1968.4,1004.3 1991.6,984.2 2015.4,962.8 2039.7,940.3 2064.3,916.9 2089.1,892.6 2114.0,867.7 2138.8,842.4  " style="stroke-opacity: 1.000000; stroke-width: 5.0; stroke: rgb(107,174,214); fill: none"  />
<path d="M 2413.7,1425.1 L 2377.8,1428.3 2342.1,1432.2 2306.8,1436.8 2272.2,1442.0 2238.4,1448.0 2205.6,1454.8 2174.0,1462.3 2143.8,1470.6 2115.1,1479.7 2088.1,1489.6 2062.9,1500.3 2039.6,1511.9 2018.4,1524.2 1999.3,1537.4 1982.4,1551.4 1967.8,1566.2 1955.5,1581.7 1945.6,1598.0 1938.1,1615.1 1933.1,1632.8 1930.4,1651.2 1930.3,1670.3 1932.5,1690.0 1937.2,1710.2 1944.2,1731.0 1953.5,1752.3 1965.1,1774.0 1978.8,1796.0 1994.5,1818.4 2012.3,1841.1 2031.9,1863.9 2053.2,1886.9 2076.1,1909.9 2100.4,1932.9 2126.0,1955.8 2152.7,1978.5 2180.3,2001.0 2208.6,2023.1 2237.4,2044.7  " style="stroke-opacity: 1.000000; stroke-width: 5.0; stroke: rgb(107,174,214); fill: none"  />
<path d="M 2011.1,738.9 L 1991.0,768.4 1970.6,797.5 1950.0,825.8 1929.2,853.3 1908.4,879.8 1887.7,905.0 1867.1,928.7 1846.8,950.9 1826.7,971.4 1806.9,990.0 1787.6,1006.7 1768.8,1021.2 1750.5,1033.6 1732.8,1043.7 1715.8,1051.5 1699.4,1056.9 1683.7,1059.9 1668.8,1060.4 1654.7,1058.5 1641.4,1054.0 1629.0,1047.1 1617.4,1037.8 1606.7,1026.0 1596.8,1011.8 1587.8,995.3 1579.8,976.6 1572.6,955.7 1566.3,932.8 1560.8,907.9 1556.2,881.2 1552.4,852.7 1549.5,822.7 1547.3,791.4 1545.9,758.8 1545.1,725.2 1545.1,690.7 1545.6,655.6 1546.7,620.2 1548.4,584.5  " style="stroke-opacity: 1.000000; stroke-width: 5.0; stroke: rgb(107,174,214); fill: none"  />
<path d="M 2011.1,738.9 L 1991.5,768.3 1972.2,797.5 1953.3,826.3 1935.1,854.7 1917.5,882.4 1900.9,909.2 1885.2,935.0 1870.5,959.6 1857.1,982.9 1845.0,1004.8 1834.2,1025.1 1824.8,1043.8 1816.9,1060.7 1810.6,1075.8 1805.9,1088.9 1802.8,1100.2 1801.4,1109.4 1801.7,1116.5 1803.7,1121.6 1807.3,1124.6 1812.7,1125.5 1819.8,1124.3 1828.5,1121.0 1838.8,1115.6 1850.7,1108.3 1864.2,1099.0 1879.1,1087.8 1895.4,1074.8 1913.1,1060.0 1931.9,1043.6 1952.0,1025.6 1973.0,1006.2 1995.0,985.5 2017.8,963.6 2041.2,940.7 2065.2,917.0 2089.6,892.6 2114.1,867.7 2138.8,842.4  " style="stroke-opacity: 1.000000; stroke-width: 5.0; stroke: rgb(107,174,214); fill: none"  />
<path d="M 2011.1,738.9 L 1991.4,768.7 1972.2,798.6 1953.8,828.4 1936.1,858.0 1919.5,887.2 1904.1,915.9 1889.8,944.0 1877.0,971.3 1865.7,997.6 1855.9,1022.9 1847.8,1047.1 1841.5,1070.0 1836.9,1091.6 1834.2,1111.8 1833.5,1130.6 1834.7,1147.8 1837.8,1163.4 1843.0,1177.4 1850.2,1189.7 1859.3,1200.3 1870.4,1209.2 1883.5,1216.4 1898.4,1221.9 1915.3,1225.7 1933.9,1227.7 1954.3,1228.1 1976.3,1226.9 2000.0,1224.0 2025.1,1219.6 2051.5,1213.8 2079.3,1206.5 2108.2,1197.9 2138.0,1188.1 2168.7,1177.1 2200.1,1165.0 2232.1,1152.0 2264.3,1138.3 2296.7,1123.8 2329.1,1108.8  " style="stroke-opacity: 1.000000; stroke-width: 5.0; stroke: rgb(107,174,214); fill: none"  />
<path d="M 2138.8,842.4 L 2113.4,868.0 2087.7,893.1 2061.8,917.5 2035.7,940.9 2009.6,963.1 1983.5,984.2 1957.6,1003.8 1932.0,1021.8 1906.7,1038.2 1881.9,1052.7 1857.6,1065.3 1833.9,1075.9 1810.9,1084.5 1788.6,1090.8 1767.0,1095.0 1746.3,1096.9 1726.5,1096.5 1707.6,1093.7 1689.7,1088.7 1672.8,1081.3 1656.9,1071.6 1642.1,1059.6 1628.4,1045.3 1615.7,1028.9 1604.1,1010.3 1593.6,989.6 1584.2,966.9 1575.9,942.2 1568.6,915.8 1562.4,887.7 1557.3,858.1 1553.1,827.1 1549.9,794.8 1547.6,761.4 1546.2,727.0 1545.6,692.0 1545.9,656.4 1546.8,620.5 1548.4,584.5  " style="stroke-opacity: 1.000000; stroke-width: 5.0; stroke: rgb(107,174,214); fill: none"  />
<path d="M 2138.8,842.4 L 2113.7,867.8 2088.5,892.8 2063.1,917.0 2037.8,940.4 2012.6,962.7 1987.7,983.8 1963.2,1003.5 1939.2,1021.7 1915.8,1038.2 1893.1,1053.0 1871.1,1066.0 1850.0,1076.9 1829.8,1085.8 1810.6,1092.6 1792.4,1097.2 1775.3,1099.6 1759.4,1099.8 1744.6,1097.6 1731.1,1093.2 1718.8,1086.4 1707.8,1077.4 1698.0,1066.1 1689.6,1052.6 1682.4,1036.9 1676.5,1019.1 1671.9,999.3 1668.6,977.4 1666.5,953.7 1665.6,928.3 1665.8,901.1 1667.2,872.5 1669.6,842.5 1673.1,811.2 1677.5,778.9 1682.8,745.7 1688.8,711.8 1695.6,677.3 1703.1,642.6 1711.1,607.9  " style="stroke-opacity: 1.000000; stroke-width: 5.0; stroke: rgb(107,174,214); fill: none"  />
<path d="M 2138.8,842.4 L 2114.0,867.7 2089.1,892.6 2064.3,916.9 2039.7,940.3 2015.4,962.8 1991.6,984.2 1968.4,1004.3 1946.0,1023.0 1924.3,1040.1 1903.6,1055.5 1883.8,1069.1 1865.2,1080.9 1847.7,1090.7 1831.5,1098.5 1816.6,1104.2 1803.0,1107.8 1790.8,1109.1 1780.0,1108.3 1770.7,1105.3 1762.9,1100.0 1756.6,1092.6 1751.7,1082.9 1748.4,1071.1 1746.6,1057.2 1746.2,1041.2 1747.2,1023.2 1749.7,1003.4 1753.6,981.7 1758.7,958.2 1765.2,933.2 1772.8,906.7 1781.6,878.8 1791.4,849.8 1802.2,819.7 1813.8,788.7 1826.3,757.0 1839.3,724.9 1852.9,692.4 1867.0,659.9  " style="stroke-opacity: 1.000000; stroke-width: 5.0; stroke: rgb(107,174,214); fill: none"  />
<path d="M 2138.8,842.4 L 2114.1,867.7 2089.6,892.6 2065.2,917.0 2041.2,940.7 2017.8,963.6 1995.0,985.5 1973.0,1006.2 1952.0,1025.6 1931.9,1043.6 1913.1,1060.0 1895.4,1074.8 1879.1,1087.8 1864.2,1099.0 1850.7,1108.3 1838.8,1115.6 1828.5,1121.0 1819.8,1124.3 1812.7,1125.5 1807.3,1124.6 1803.7,1121.6 1801.7,1116.5 1801.4,1109.4 1802.8,1100.2 1805.9,1088.9 1810.6,1075.8 1816.9,1060.7 1824.8,1043.8 1834.2,1025.1 1845.0,1004.8 1857.1,982.9 1870.5,959.6 1885.2,935.0 1900.9,909.2 1917.5,882.4 1935.1,854.7 1953.3,826.3 1972.2,797.5 1991.5,768.3 2011.1,738.9  " style="stroke-opacity: 1.000000; stroke-width: 5.0; stroke: rgb(107,174,214); fill: none"  />
<path d="M 2138.8,842.4 L 2114.2,867.8 2090.0,893.1 2066.3,918.1 2043.3,942.8 2021.1,966.9 1999.9,990.3 1979.9,1012.8 1961.1,1034.5 1943.7,1055.0 1927.8,1074.3 1913.6,1092.4 1901.0,1109.1 1890.3,1124.3 1881.4,1138.0 1874.4,1150.2 1869.3,1160.7 1866.3,1169.5 1865.3,1176.5 1866.3,1181.9 1869.4,1185.5 1874.6,1187.3 1881.7,1187.4 1890.9,1185.7 1902.0,1182.3 1915.0,1177.2 1929.9,1170.5 1946.6,1162.1 1965.0,1152.2 1985.0,1140.8 2006.5,1128.0 2029.4,1113.9 2053.6,1098.6 2078.9,1082.1 2105.2,1064.7 2132.4,1046.4 2160.2,1027.3 2188.5,1007.6 2217.2,987.5 2245.9,967.0  " style="stroke-opacity: 1.000000; stroke-width: 5.0; stroke: rgb(107,174,214); fill: none"  />
<path d="M 1369.8,2407.5 L 1374.7,2372.5 1379.4,2337.8 1383.8,2303.6 1388.0,2270.2 1391.8,2237.6 1395.2,2206.2 1398.1,2176.2 1400.6,2147.7 1402.6,2120.8 1404.1,2095.8 1405.0,2072.9 1405.3,2052.0 1405.1,2033.3 1404.2,2017.0 1402.8,2003.1 1400.7,1991.6 1397.9,1982.7 1394.6,1976.4 1390.6,1972.7 1386.0,1971.6 1380.8,1973.1 1374.9,1977.3 1368.5,1984.0 1361.5,1993.3 1354.0,2005.1 1345.9,2019.3 1337.3,2035.9 1328.2,2054.7 1318.8,2075.7 1308.9,2098.6 1298.6,2123.5 1288.1,2150.1 1277.3,2178.3 1266.2,2207.9 1255.0,2238.7 1243.7,2270.5 1232.4,2303.1 1221.1,2336.2 1209.8,2369.6  " style="stroke-opacity: 1.000000; stroke-width: 5.0; stroke: rgb(107,174,214); fill: none"  />
<path d="M 1369.8,2407.5 L 1374.6,2372.4 1379.1,2337.5 1383.2,2303.0 1386.7,2269.2 1389.7,2236.2 1392.1,2204.3 1393.8,2173.7 1394.9,2144.5 1395.2,2116.9 1394.7,2091.1 1393.5,2067.1 1391.4,2045.2 1388.5,2025.4 1384.7,2007.8 1380.1,1992.5 1374.6,1979.5 1368.3,1969.0 1361.1,1961.0 1353.0,1955.5 1344.0,1952.5 1334.2,1952.1 1323.7,1954.1 1312.3,1958.7 1300.1,1965.8 1287.2,1975.2 1273.7,1987.0 1259.4,2001.1 1244.6,2017.4 1229.2,2035.8 1213.4,2056.2 1197.0,2078.5 1180.3,2102.4 1163.3,2128.0 1146.1,2154.9 1128.7,2183.1 1111.2,2212.2 1093.7,2242.2 1076.4,2272.8 1059.2,2303.8  " style="stroke-opacity: 1.000000; stroke-width: 5.0; stroke: rgb(107,174,214); fill: none"  />
<path d="M 1369.8,2407.5 L 1374.6,2372.1 1378.9,2336.9 1382.6,2302.0 1385.6,2267.7 1387.9,2234.1 1389.4,2201.5 1390.0,2170.1 1389.7,2140.0 1388.5,2111.3 1386.4,2084.3 1383.2,2059.0 1378.9,2035.6 1373.6,2014.1 1367.3,1994.8 1359.8,1977.5 1351.3,1962.6 1341.7,1949.9 1330.9,1939.5 1319.2,1931.5 1306.3,1925.9 1292.4,1922.7 1277.6,1921.9 1261.7,1923.4 1244.9,1927.3 1227.2,1933.6 1208.7,1942.1 1189.4,1952.8 1169.3,1965.6 1148.6,1980.4 1127.3,1997.2 1105.4,2015.8 1083.1,2036.0 1060.5,2057.9 1037.6,2081.1 1014.5,2105.6 991.4,2131.1 968.3,2157.5 945.4,2184.6 922.8,2212.2  " style="stroke-opacity: 1.000000; stroke-width: 5.0; stroke: rgb(107,174,214); fill: none"  />
<path d="M 1999.0,2269.1 L 1979.3,2239.3 1959.4,2209.9 1939.2,2181.2 1918.9,2153.4 1898.6,2126.6 1878.3,2101.1 1858.0,2077.0 1838.0,2054.5 1818.3,2033.7 1798.8,2014.8 1779.8,1997.8 1761.2,1983.0 1743.1,1970.3 1725.6,1959.9 1708.6,1951.9 1692.3,1946.2 1676.7,1943.0 1661.9,1942.2 1647.7,1943.9 1634.4,1948.2 1621.8,1954.9 1610.0,1964.0 1599.1,1975.7 1589.1,1989.7 1579.8,2006.0 1571.5,2024.6 1563.9,2045.3 1557.3,2068.2 1551.4,2093.0 1546.4,2119.7 1542.2,2148.0 1538.8,2177.9 1536.1,2209.3 1534.1,2241.8 1532.8,2275.5 1532.2,2309.9 1532.2,2345.0 1532.8,2380.5 1533.9,2416.1  " style="stroke-opacity: 1.000000; stroke-width: 5.0; stroke: rgb(107,174,214); fill: none"  />
<path d="M 1209.8,2369.6 L 1221.1,2336.2 1232.4,2303.1 1243.7,2270.5 1255.0,2238.7 1266.2,2207.9 1277.3,2178.3 1288.1,2150.1 1298.6,2123.5 1308.9,2098.6 1318.8,2075.7 1328.2,2054.7 1337.3,2035.9 1345.9,2019.3 1354.0,2005.1 1361.5,1993.3 1368.5,1984.0 1374.9,1977.3 1380.8,1973.1 1386.0,1971.6 1390.6,1972.7 1394.6,1976.4 1397.9,1982.7 1400.7,1991.6 1402.8,2003.1 1404.2,2017.0 1405.1,2033.3 1405.3,2052.0 1405.0,2072.9 1404.1,2095.8 1402.6,2120.8 1400.6,2147.7 1398.1,2176.2 1395.2,2206.2 1391.8,2237.6 1388.0,2270.2 1383.8,2303.6 1379.4,2337.8 1374.7,2372.5 1369.8,2407.5  " style="stroke-opacity: 1.000000; stroke-width: 5.0; stroke: rgb(107,174,214); fill: none"  />
<path d="M 1209.8,2369.6 L 1220.9,2336.1 1231.7,2302.8 1242.2,2270.0 1252.3,2237.8 1261.8,2206.4 1270.8,2176.2 1279.0,2147.1 1286.6,2119.5 1293.3,2093.5 1299.2,2069.1 1304.2,2046.7 1308.3,2026.2 1311.4,2007.8 1313.5,1991.6 1314.5,1977.6 1314.5,1966.0 1313.4,1956.7 1311.2,1949.9 1308.0,1945.6 1303.6,1943.7 1298.2,1944.2 1291.7,1947.3 1284.2,1952.8 1275.6,1960.7 1266.1,1970.9 1255.6,1983.4 1244.2,1998.2 1232.0,2015.1 1218.9,2034.0 1205.1,2054.9 1190.5,2077.5 1175.4,2101.8 1159.7,2127.7 1143.6,2154.8 1127.1,2183.1 1110.3,2212.3 1093.3,2242.4 1076.2,2272.9 1059.2,2303.8  " style="stroke-opacity: 1.000000; stroke-width: 5.0; stroke: rgb(107,174,214); fill: none"  />
<path d="M 1209.8,2369.6 L 1220.9,2336.0 1231.5,2302.4 1241.7,2269.2 1251.2,2236.6 1260.0,2204.7 1268.1,2173.7 1275.2,2143.9 1281.5,2115.4 1286.7,2088.3 1290.9,2062.8 1293.9,2039.0 1295.8,2017.0 1296.5,1997.0 1295.9,1979.0 1294.1,1963.1 1291.0,1949.4 1286.7,1938.0 1281.0,1928.8 1274.0,1921.9 1265.7,1917.4 1256.2,1915.2 1245.4,1915.4 1233.4,1917.8 1220.2,1922.6 1205.8,1929.6 1190.3,1938.8 1173.8,1950.1 1156.3,1963.5 1137.9,1978.9 1118.6,1996.1 1098.6,2015.1 1077.9,2035.7 1056.6,2057.8 1034.8,2081.2 1012.7,2105.8 990.3,2131.4 967.7,2157.8 945.2,2184.8 922.8,2212.2  " style="stroke-opacity: 1.000000; stroke-width: 5.0; stroke: rgb(107,174,214); fill: none"  />
<path d="M 1853.6,2345.8 L 1839.9,2313.3 1826.2,2281.1 1812.5,2249.5 1798.9,2218.6 1785.4,2188.7 1772.2,2160.0 1759.4,2132.7 1746.9,2106.9 1734.8,2082.9 1723.3,2060.7 1712.3,2040.5 1701.8,2022.4 1692.1,2006.5 1683.0,1992.9 1674.6,1981.7 1666.9,1973.0 1660.0,1966.7 1653.9,1963.0 1648.5,1961.9 1644.0,1963.3 1640.3,1967.3 1637.4,1973.9 1635.4,1982.9 1634.1,1994.5 1633.7,2008.5 1634.0,2024.9 1635.2,2043.5 1637.1,2064.3 1639.7,2087.1 1643.0,2111.9 1646.9,2138.5 1651.5,2166.8 1656.7,2196.5 1662.4,2227.6 1668.6,2259.8 1675.2,2292.9 1682.2,2326.6 1689.4,2360.9 1696.9,2395.4  " style="stroke-opacity: 1.000000; stroke-width: 5.0; stroke: rgb(107,174,214); fill: none"  />
<path d="M 2245.9,967.0 L 2216.4,987.7 2186.7,1007.8 2156.8,1027.1 2126.9,1045.5 2097.2,1062.8 2067.8,1078.8 2038.9,1093.5 2010.5,1106.6 1982.7,1118.2 1955.7,1128.1 1929.5,1136.2 1904.3,1142.4 1880.1,1146.6 1857.0,1148.9 1835.1,1149.2 1814.4,1147.3 1794.9,1143.4 1776.8,1137.4 1760.1,1129.2 1744.8,1118.9 1730.9,1106.5 1718.5,1092.1 1707.5,1075.6 1698.0,1057.1 1689.9,1036.7 1683.3,1014.5 1678.1,990.5 1674.3,964.8 1671.8,937.5 1670.8,908.7 1671.0,878.7 1672.4,847.4 1675.0,815.0 1678.7,781.7 1683.5,747.7 1689.2,713.1 1695.7,678.2 1703.1,643.0 1711.1,607.9  " style="stroke-opacity: 1.000000; stroke-width: 5.0; stroke: rgb(107,174,214); fill: none"  />
<path d="M 2245.9,967.0 L 2217.2,987.5 2188.5,1007.6 2160.2,1027.3 2132.4,1046.4 2105.2,1064.7 2078.9,1082.1 2053.6,1098.6 2029.4,1113.9 2006.5,1128.0 1985.0,1140.8 1965.0,1152.2 1946.6,1162.1 1929.9,1170.5 1915.0,1177.2 1902.0,1182.3 1890.9,1185.7 1881.7,1187.4 1874.6,1187.3 1869.4,1185.5 1866.3,1181.9 1865.3,1176.5 1866.3,1169.5 1869.3,1160.7 1874.4,1150.2 1881.4,1138.0 1890.3,1124.3 1901.0,1109.1 1913.6,1092.4 1927.8,1074.3 1943.7,1055.0 1961.1,1034.5 1979.9,1012.8 1999.9,990.3 2021.1,966.9 2043.3,942.8 2066.3,918.1 2090.0,893.1 2114.2,867.8 2138.8,842.4  " style="stroke-opacity: 1.000000; stroke-width: 5.0; stroke: rgb(107,174,214); fill: none"  />
<path d="M 1059.2,2303.8 L 1076.4,2272.8 1093.7,2242.2 1111.2,2212.2 1128.7,2183.1 1146.1,2154.9 1163.3,2128.0 1180.3,2102.4 1197.0,2078.5 1213.4,2056.2 1229.2,2035.8 1244.6,2017.4 1259.4,2001.1 1273.7,1987.0 1287.2,1975.2 1300.1,1965.8 1312.3,1958.7 1323.7,1954.1 1334.2,1952.1 1344.0,1952.5 1353.0,1955.5 1361.1,1961.0 1368.3,1969.0 1374.6,1979.5 1380.1,1992.5 1384.7,2007.8 1388.5,2025.4 1391.4,2045.2 1393.5,2067.1 1394.7,2091.1 1395.2,2116.9 1394.9,2144.5 1393.8,2173.7 1392.1,2204.3 1389.7,2236.2 1386.7,2269.2 1383.2,2303.0 1379.1,2337.5 1374.6,2372.4 1369.8,2407.5  " style="stroke-opacity: 1.000000; stroke-width: 5.0; stroke: rgb(107,174,214); fill: none"  />
<path d="M 1059.2,2303.8 L 1076.2,2272.9 1093.3,2242.4 1110.3,2212.3 1127.1,2183.1 1143.6,2154.8 1159.7,2127.7 1175.4,2101.8 1190.5,2077.5 1205.1,2054.9 1218.9,2034.0 1232.0,2015.1 1244.2,1998.2 1255.6,1983.4 1266.1,1970.9 1275.6,1960.7 1284.2,1952.8 1291.7,1947.3 1298.2,1944.2 1303.6,1943.7 1308.0,1945.6 1311.2,1949.9 1313.4,1956.7 1314.5,1966.0 1314.5,1977.6 1313.5,1991.6 1311.4,2007.8 1308.3,2026.2 1304.2,2046.7 1299.2,2069.1 1293.3,2093.5 1286.6,2119.5 1279.0,2147.1 1270.8,2176.2 1261.8,2206.4 1252.3,2237.8 1242.2,2270.0 1231.7,2302.8 1220.9,2336.1 1209.8,2369.6  " style="stroke-opacity: 1.000000; stroke-width: 5.0; stroke: rgb(107,174,214); fill: none"  />
<path d="M 1059.2,2303.8 L 1076.1,2272.9 1092.7,2242.0 1108.9,2211.6 1124.5,2181.7 1139.5,2152.6 1153.7,2124.4 1167.0,2097.3 1179.4,2071.4 1190.7,2047.0 1200.8,2024.1 1209.8,2002.9 1217.4,1983.5 1223.7,1966.0 1228.7,1950.4 1232.2,1936.8 1234.3,1925.4 1234.8,1916.1 1233.9,1909.0 1231.5,1904.1 1227.6,1901.5 1222.1,1901.1 1215.2,1902.9 1206.8,1906.9 1197.0,1913.2 1185.8,1921.6 1173.2,1932.0 1159.4,1944.5 1144.3,1959.0 1128.0,1975.3 1110.7,1993.3 1092.4,2013.0 1073.2,2034.2 1053.1,2056.8 1032.4,2080.6 1011.1,2105.5 989.3,2131.3 967.3,2157.8 945.0,2184.9 922.8,2212.2  " style="stroke-opacity: 1.000000; stroke-width: 5.0; stroke: rgb(107,174,214); fill: none"  />
<path d="M 1059.2,2303.8 L 1076.1,2272.7 1092.6,2241.6 1108.5,2210.7 1123.7,2180.3 1138.1,2150.5 1151.5,2121.5 1163.9,2093.4 1175.1,2066.5 1185.1,2040.7 1193.7,2016.4 1201.0,1993.5 1206.8,1972.3 1211.0,1952.7 1213.7,1934.9 1214.7,1918.9 1214.1,1904.9 1211.9,1892.8 1207.9,1882.8 1202.3,1874.8 1195.0,1868.9 1186.0,1865.0 1175.3,1863.2 1163.1,1863.5 1149.2,1865.8 1133.8,1870.2 1117.0,1876.5 1098.7,1884.7 1079.1,1894.7 1058.2,1906.5 1036.2,1920.0 1013.1,1935.1 989.0,1951.7 964.1,1969.6 938.5,1988.8 912.4,2009.0 885.7,2030.2 858.8,2052.2 831.8,2074.7 804.9,2097.7  " style="stroke-opacity: 1.000000; stroke-width: 5.0; stroke: rgb(107,174,214); fill: none"  />
<path d="M 922.8,2212.2 L 945.4,2184.6 968.3,2157.5 991.4,2131.1 1014.5,2105.6 1037.6,2081.1 1060.5,2057.9 1083.1,2036.0 1105.4,2015.8 1127.3,1997.2 1148.6,1980.4 1169.3,1965.6 1189.4,1952.8 1208.7,1942.1 1227.2,1933.6 1244.9,1927.3 1261.7,1923.4 1277.6,1921.9 1292.4,1922.7 1306.3,1925.9 1319.2,1931.5 1330.9,1939.5 1341.7,1949.9 1351.3,1962.6 1359.8,1977.5 1367.3,1994.8 1373.6,2014.1 1378.9,2035.6 1383.2,2059.0 1386.4,2084.3 1388.5,2111.3 1389.7,2140.0 1390.0,2170.1 1389.4,2201.5 1387.9,2234.1 1385.6,2267.7 1382.6,2302.0 1378.9,2336.9 1374.6,2372.1 1369.8,2407.5  " style="stroke-opacity: 1.000000; stroke-width: 5.0; stroke: rgb(107,174,214); fill: none"  />
<path d="M 922.8,2212.2 L 945.2,2184.8 967.7,2157.8 990.3,2131.4 1012.7,2105.8 1034.8,2081.2 1056.6,2057.8 1077.9,2035.7 1098.6,2015.1 1118.6,1996.1 1137.9,1978.9 1156.3,1963.5 1173.8,1950.1 1190.3,1938.8 1205.8,1929.6 1220.2,1922.6 1233.4,1917.8 1245.4,1915.4 1256.2,1915.2 1265.7,1917.4 1274.0,1921.9 1281.0,1928.8 1286.7,1938.0 1291.0,1949.4 1294.1,1963.1 1295.9,1979.0 1296.5,1997.0 1295.8,2017.0 1293.9,2039.0 1290.9,2062.8 1286.7,2088.3 1281.5,2115.4 1275.2,2143.9 1268.1,2173.7 1260.0,2204.7 1251.2,2236.6 1241.7,2269.2 1231.5,2302.4 1220.9,2336.0 1209.8,2369.6  " style="stroke-opacity: 1.000000; stroke-width: 5.0; stroke: rgb(107,174,214); fill: none"  />
<path d="M 922.8,2212.2 L 945.0,2184.9 967.3,2157.8 989.3,2131.3 1011.1,2105.5 1032.4,2080.6 1053.1,2056.8 1073.2,2034.2 1092.4,2013.0 1110.7,1993.3 1128.0,1975.3 1144.3,1959.0 1159.4,1944.5 1173.2,1932.0 1185.8,1921.6 1197.0,1913.2 1206.8,1906.9 1215.2,1902.9 1222.1,1901.1 1227.6,1901.5 1231.5,1904.1 1233.9,1909.0 1234.8,1916.1 1234.3,1925.4 1232.2,1936.8 1228.7,1950.4 1223.7,1966.0 1217.4,1983.5 1209.8,2002.9 1200.8,2024.1 1190.7,2047.0 1179.4,2071.4 1167.0,2097.3 1153.7,2124.4 1139.5,2152.6 1124.5,2181.7 1108.9,2211.6 1092.7,2242.0 1076.1,2272.9 1059.2,2303.8  " style="stroke-opacity: 1.000000; stroke-width: 5.0; stroke: rgb(107,174,214); fill: none"  />
<path d="M 922.8,2212.2 L 944.9,2184.7 966.7,2157.4 988.1,2130.3 1008.8,2103.7 1028.8,2077.7 1047.8,2052.5 1065.7,2028.2 1082.5,2005.0 1098.0,1983.0 1112.0,1962.3 1124.6,1943.0 1135.6,1925.3 1145.0,1909.1 1152.6,1894.7 1158.5,1882.0 1162.6,1871.1 1164.8,1862.0 1165.2,1854.9 1163.6,1849.7 1160.3,1846.4 1155.0,1845.0 1147.8,1845.6 1138.9,1848.1 1128.1,1852.4 1115.6,1858.7 1101.3,1866.7 1085.5,1876.6 1068.1,1888.1 1049.2,1901.2 1028.9,1915.9 1007.3,1932.0 984.6,1949.4 960.9,1968.1 936.2,1987.8 910.8,2008.5 884.8,2030.0 858.4,2052.1 831.7,2074.8 804.9,2097.7  " style="stroke-opacity: 1.000000; stroke-width: 5.0; stroke: rgb(107,174,214); fill: none"  />
<path d="M 1696.9,2395.4 L 1689.4,2360.9 1682.2,2326.6 1675.2,2292.9 1668.6,2259.8 1662.4,2227.6 1656.7,2196.5 1651.5,2166.8 1646.9,2138.5 1643.0,2111.9 1639.7,2087.1 1637.1,2064.3 1635.2,2043.5 1634.0,2024.9 1633.7,2008.5 1634.1,1994.5 1635.4,1982.9 1637.4,1973.9 1640.3,1967.3 1644.0,1963.3 1648.5,1961.9 1653.9,1963.0 1660.0,1966.7 1666.9,1973.0 1674.6,1981.7 1683.0,1992.9 1692.1,2006.5 1701.8,2022.4 1712.3,2040.5 1723.3,2060.7 1734.8,2082.9 1746.9,2106.9 1759.4,2132.7 1772.2,2160.0 1785.4,2188.7 1798.9,2218.6 1812.5,2249.5 1826.2,2281.1 1839.9,2313.3 1853.6,2345.8  " style="stroke-opacity: 1.000000; stroke-width: 5.0; stroke: rgb(107,174,214); fill: none"  />
<path d="M 804.9,2097.7 L 831.8,2074.7 858.8,2052.2 885.7,2030.2 912.4,2009.0 938.5,1988.8 964.1,1969.6 989.0,1951.7 1013.1,1935.1 1036.2,1920.0 1058.2,1906.5 1079.1,1894.7 1098.7,1884.7 1117.0,1876.5 1133.8,1870.2 1149.2,1865.8 1163.1,1863.5 1175.3,1863.2 1186.0,1865.0 1195.0,1868.9 1202.3,1874.8 1207.9,1882.8 1211.9,1892.8 1214.1,1904.9 1214.7,1918.9 1213.7,1934.9 1211.0,1952.7 1206.8,1972.3 1201.0,1993.5 1193.7,2016.4 1185.1,2040.7 1175.1,2066.5 1163.9,2093.4 1151.5,2121.5 1138.1,2150.5 1123.7,2180.3 1108.5,2210.7 1092.6,2241.6 1076.1,2272.7 1059.2,2303.8  " style="stroke-opacity: 1.000000; stroke-width: 5.0; stroke: rgb(107,174,214); fill: none"  />
<path d="M 804.9,2097.7 L 831.7,2074.8 858.4,2052.1 884.8,2030.0 910.8,2008.5 936.2,1987.8 960.9,1968.1 984.6,1949.4 1007.3,1932.0 1028.9,1915.9 1049.2,1901.2 1068.1,1888.1 1085.5,1876.6 1101.3,1866.7 1115.6,1858.7 1128.1,1852.4 1138.9,1848.1 1147.8,1845.6 1155.0,1845.0 1160.3,1846.4 1163.6,1849.7 1165.2,1854.9 1164.8,1862.0 1162.6,1871.1 1158.5,1882.0 1152.6,1894.7 1145.0,1909.1 1135.6,1925.3 1124.6,1943.0 1112.0,1962.3 1098.0,1983.0 1082.5,2005.0 1065.7,2028.2 1047.8,2052.5 1028.8,2077.7 1008.8,2103.7 988.1,2130.3 966.7,2157.4 944.9,2184.7 922.8,2212.2  " style="stroke-opacity: 1.000000; stroke-width: 5.0; stroke: rgb(107,174,214); fill: none"  />
<path d="M 1533.9,2416.1 L 1532.8,2380.5 1532.2,2345.0 1532.2,2309.9 1532.8,2275.5 1534.1,2241.8 1536.1,2209.3 1538.8,2177.9 1542.2,2148.0 1546.4,2119.7 1551.4,2093.0 1557.3,2068.2 1563.9,2045.3 1571.5,2024.6 1579.8,2006.0 1589.1,1989.7 1599.1,1975.7 1610.0,1964.0 1621.8,1954.9 1634.4,1948.2 1647.7,1943.9 1661.9,1942.2 1676.7,1943.0 1692.3,1946.2 1708.6,1951.9 1725.6,1959.9 1743.1,1970.3 1761.2,1983.0 1779.8,1997.8 1798.8,2014.8 1818.3,2033.7 1838.0,2054.5 1858.0,2077.0 1878.3,2101.1 1898.6,2126.6 1918.9,2153.4 1939.2,2181.2 1959.4,2209.9 1979.3,2239.3 1999.0,2269.1  " style="stroke-opacity: 1.000000; stroke-width: 5.0; stroke: rgb(107,174,214); fill: none"  />
<path d="M 2329.1,1108.8 L 2295.5,1124.2 2261.4,1138.8 2227.2,1152.6 2192.8,1165.2 2158.5,1176.7 2124.3,1186.9 2090.4,1195.7 2056.8,1203.0 2023.8,1208.7 1991.4,1212.7 1959.7,1215.1 1928.8,1215.6 1898.7,1214.3 1869.6,1211.0 1841.5,1205.9 1814.4,1198.8 1788.6,1189.8 1763.9,1178.8 1740.4,1165.9 1718.3,1151.0 1697.4,1134.2 1677.9,1115.5 1659.8,1095.0 1643.0,1072.6 1627.6,1048.6 1613.6,1022.8 1601.0,995.5 1589.8,966.7 1579.9,936.4 1571.4,904.9 1564.2,872.2 1558.3,838.4 1553.6,803.7 1550.1,768.2 1547.7,732.0 1546.4,695.4 1546.2,658.5 1546.8,621.5 1548.4,584.5  " style="stroke-opacity: 1.000000; stroke-width: 5.0; stroke: rgb(107,174,214); fill: none"  />
<path d="M 2329.1,1108.8 L 2296.7,1123.8 2264.3,1138.3 2232.1,1152.0 2200.1,1165.0 2168.7,1177.1 2138.0,1188.1 2108.2,1197.9 2079.3,1206.5 2051.5,1213.8 2025.1,1219.6 2000.0,1224.0 1976.3,1226.9 1954.3,1228.1 1933.9,1227.7 1915.3,1225.7 1898.4,1221.9 1883.5,1216.4 1870.4,1209.2 1859.3,1200.3 1850.2,1189.7 1843.0,1177.4 1837.8,1163.4 1834.7,1147.8 1833.5,1130.6 1834.2,1111.8 1836.9,1091.6 1841.5,1070.0 1847.8,1047.1 1855.9,1022.9 1865.7,997.6 1877.0,971.3 1889.8,944.0 1904.1,915.9 1919.5,887.2 1936.1,858.0 1953.8,828.4 1972.2,798.6 1991.4,768.7 2011.1,738.9  " style="stroke-opacity: 1.000000; stroke-width: 5.0; stroke: rgb(107,174,214); fill: none"  />
<path d="M 2237.4,2044.7 L 2208.6,2023.1 2180.3,2001.0 2152.7,1978.5 2126.0,1955.8 2100.4,1932.9 2076.1,1909.9 2053.2,1886.9 2031.9,1863.9 2012.3,1841.1 1994.5,1818.4 1978.8,1796.0 1965.1,1774.0 1953.5,1752.3 1944.2,1731.0 1937.2,1710.2 1932.5,1690.0 1930.3,1670.3 1930.4,1651.2 1933.1,1632.8 1938.1,1615.1 1945.6,1598.0 1955.5,1581.7 1967.8,1566.2 1982.4,1551.4 1999.3,1537.4 2018.4,1524.2 2039.6,1511.9 2062.9,1500.3 2088.1,1489.6 2115.1,1479.7 2143.8,1470.6 2174.0,1462.3 2205.6,1454.8 2238.4,1448.0 2272.2,1442.0 2306.8,1436.8 2342.1,1432.2 2377.8,1428.3 2413.7,1425.1  " style="stroke-opacity: 1.000000; stroke-width: 5.0; stroke: rgb(107,174,214); fill: none"  />
</g>
<defs>
<pattern id="hline-sparse" width="10" height="10" patternTransform="rotate(0 0 0)" patternUnits="userSpaceOnUse"><line x1="0" y1="0" x2="10" y2="0" style="stroke:black;stroke-width:2" /></pattern>
<pattern id="vline-sparse" width="10" height="10" patternTransform="rotate(0 0 0)" patternUnits="userSpaceOnUse"><line x1="0" y1="0" x2="0" y2="10" style="stroke:black;stroke-width:2" /></pattern>
<pattern id="hline" width="10" height="10" patternTransform="rotate(0 0 0)" patternUnits="userSpaceOnUse"><line x1="0" y1="0" x2="10" y2="0" style="stroke:black;stroke-width:5" /></pattern>
<pattern id="checker" width="10" height="10" patternTransform="rotate(45 0 0)" patternUnits="userSpaceOnUse"><line x1="0" y1="0" x2="10" y2="0" style="stroke:black;stroke-width:2" /><line x1="0" y1="0" x2="0" y2="10" style="stroke:black;stroke-width:2" /></pattern>
<pattern id="checker" width="10" height="10" patternTransform="rotate(45 0 0)" patternUnits="userSpaceOnUse"><line x1="0" y1="0" x2="10" y2="0" style="stroke:black;stroke-width:5" /><line x1="0" y1="0" x2="0" y2="10" style="stroke:black;stroke-width:4" /></pattern>
<pattern id="vline" width="10" height="10" patternTransform="rotate(0 0 0)" patternUnits="userSpaceOnUse"><line x1="0" y1="0" x2="0" y2="10" style="stroke:black;stroke-width:5" /></pattern>
</defs>
</svg>
